<?xml version="1.0" encoding="utf-8"?>
<svg version="1.1" id="Layer_1"
xmlns="http://www.w3.org/2000/svg"
xmlns:xlink="http://www.w3.org/1999/xlink"
xmlns:author="http://www.sothink.com"
width="28px" height="22px"
xml:space="preserve">
<g id="120" transform="matrix(1, 0, 0, 1, 17.8, 10.65)">
<path style="fill:#FFCC00;fill-opacity:1" d="M2.4,-9.65L3.45 -9.35L4.2 -8.5L5.25 -7.45L6.25 -6.1Q6.25 -5.85 6.4 -5.85L6.5 -5.55Q6.5 -5.35 7.2 -4.4L8.3 -3.1L8.15 -2.5L6.4 -0.85Q4.85 0.95 4.85 1.8Q4.85 2.15 6.8 3.4Q8.85 4.6 8.85 5.1L8.75 5.35Q8.7 4.9 8.45 5.35L7.9 6L7.05 6.8L3.8 10.15L3.6 10.35L3.45 10.6L3.05 10.45Q2.8 10.6 2.8 10.1Q2.8 8.95 2 8.1Q1.15 7.15 -0.1 7.15Q-0.5 7.15 -1.6 7.9Q-2.6 8.7 -2.85 8.7L-3.7 9.3Q-4.65 10 -5.1 10Q-4.35 6.85 -4.35 5.6L-4.1 3.55L-4.25 3.45L-5.4 3.4L-10.6 2.9L-16.3 0.5L-14.05 0.25L-12.4 -0.1L-9.5 -0.85L-6.45 -1.8Q-3.45 -1.8 -3.45 -3.55L-3.85 -4.75L-4.1 -6.9L-3.95 -7.45L1.15 -6.1L2.4 -9.65" />
<path style="fill:none;stroke-width:1;stroke-linecap:butt;stroke-linejoin:miter;stroke-miterlimit:3;stroke:#FF6600;stroke-opacity:1" d="M3.45,-9.35L2.5 -9.9L2.4 -9.65M3.45,-9.35L4.2 -8.5L5.25 -7.45L6.25 -6.1Q6.25 -5.85 6.4 -5.85L6.5 -5.55Q6.5 -5.35 7.2 -4.4L8.3 -3.1M8.15,-2.5L6.4 -0.85Q4.85 0.95 4.85 1.8Q4.85 2.15 6.8 3.4Q8.85 4.6 8.85 5.1L8.75 5.35Q8.7 4.9 8.45 5.35L7.9 6L7.05 6.8L3.8 10.15L3.6 10.35L3.45 10.6L3.05 10.45Q2.8 10.6 2.8 10.1Q2.8 8.95 2 8.1Q1.15 7.15 -0.1 7.15Q-0.5 7.15 -1.6 7.9Q-2.6 8.7 -2.85 8.7L-3.7 9.3Q-4.65 10 -5.1 10Q-4.35 6.85 -4.35 5.6L-4.1 3.55L-4.25 3.45L-5.4 3.4L-10.6 2.9L-16.3 0.5L-14.05 0.25L-12.4 -0.1L-9.5 -0.85L-6.45 -1.8Q-3.45 -1.8 -3.45 -3.55L-3.85 -4.75L-4.1 -6.9L-3.95 -7.45L1.15 -6.1L2.4 -9.65" />
</g>
</svg>
