<?xml version="1.0" encoding="utf-8"?>
<svg version="1.1" id="Layer_1"
xmlns="http://www.w3.org/2000/svg"
xmlns:xlink="http://www.w3.org/1999/xlink"
xmlns:author="http://www.sothink.com"
width="247px" height="513px"
xml:space="preserve">
<g id="248" transform="matrix(1, 0, 0, 1, 21.95, 1.3)">
<path style="fill:#536D6D;fill-opacity:1" d="M77.95,112.75L77.35 133.35L76.7 150.45Q76.7 179.75 79.3 200.65Q83.75 236.75 94.9 236.75L150.9 234.25L152.25 234.15L190.55 231.25Q190.8 226.55 192.3 217.5Q193.8 208.45 193.2 162.85L192.45 104.75L192.35 75.85Q192.4 59.45 191.7 44.35Q191 29.2 191.75 23.05Q192.55 16.85 187.3 11.2L182.75 11.1L156.75 12.2L130.75 13.3L112.9 12.55L114.3 40.25L114.55 44.7Q116.75 84.6 116.75 96.5Q116.75 99.35 116.3 101.75L115.45 105Q113.85 109.45 110.15 111.35Q106.85 113.1 98.1 113.45L93.1 113.55L80.75 112.95L77.95 112.75M-12.6,212.05L-12.3 210.8Q-11.8 208.8 -11.1 207.2L-11 200.7L-13 200.85L-12.75 198.9Q-12.55 196.4 -12.9 189.6L-13 187.8Q-3.65 187.55 6.5 188.3L32.95 189.9Q44.05 189.3 48.55 182.25Q53.65 174.25 53.65 153.7L53 135.45Q52.45 120.45 52.35 111.55Q44.2 111.3 39.45 111.35Q28.65 111.45 21.9 110.2Q15.95 109.05 13.15 106.85L12.65 106.45Q9.75 103.85 8.6 99.2Q7.5 94.95 7.45 87.15L7.45 86.6L7.55 76.85L7.95 64.25L8.3 52.8L8.35 45.75L8.3 41.2Q8.2 29.7 8.75 18.45L8.8 16.65L9 12.2L-2.3 12.35L-6.1 12.4L-13.15 12.5Q-12.2 4.55 -10.05 0.05L9.05 0L112.45 0L202.8 0L202.8 245L202.8 359.4L202.8 510L-9.5 510L-9.35 509.4Q-8.85 506.8 -8.85 496.85Q-8.85 471.3 -12.05 436.85Q-15.2 402.35 -15.2 396.35Q-15.45 389.9 -15.2 385.35Q-14.75 376.7 -12.25 374.5Q-10.75 373.15 -7.35 373L-1.35 372.9Q4.55 372.55 4.5 367.5L3.7 367.5L-2.75 367.9Q-6.55 365.55 -6.55 356.2Q-6.5 355.75 -6.75 355.25L-7 354.9L-7 354.5L-6.95 353.9L-8.2 353.85L-6.8 353.8L-5.05 353.7L75.15 350.7L94.7 350L187.75 346.35L188.05 346.3L187.85 342.6Q185.5 301.65 185.05 246.1L167.95 247.2L150.35 248.3L139.85 248.95L112.95 250.3L109.8 250.4L104.1 250.5L91.5 250.15Q85.55 249.75 82.3 248.85Q78.95 247.95 76.65 246.25Q74.1 244.3 72.75 241.4Q70.6 236.7 69.6 224.1L68.7 212.7L62.1 214.15Q54.6 216.1 51.05 216.1L27.1 214.15L4.75 212.2L-10.2 212.1L-11.15 212.05L-12.6 212.05M177.95,20.55Q181.2 20.5 183.3 22.4Q185.7 24.55 185.7 28.65Q185.7 30.25 183.9 32.65Q181.25 36.15 176.7 36.15Q173.45 36.15 171.75 33.15Q170.25 30.55 170.25 26.55Q170.25 24 172.65 22.25Q174.95 20.6 177.95 20.55M79.9,11.1L25.5 11.95Q26.5 19.8 26.5 23.7L25.25 51.75L24.7 63.75L24.05 79.75L24.05 88.85Q24.25 93.05 25.4 95.25Q27.95 100.25 39.5 100.25L63.05 100.8Q74.15 100.9 81.05 99.45L83.2 98.95Q92.6 96.4 97.25 89.55Q102.55 81.75 102.55 67.4Q101.7 35.1 101.4 13L101.4 12.05L97.2 11.85L79.9 11.1M106.05,220.65Q106.05 225.15 105.75 226.95L104.6 227.25L101.25 227.55Q97.75 227.55 95.2 224.55Q93 221.9 93 219.15Q93 215.9 95.05 214.15Q96.9 212.55 99.5 212.8Q102.2 213.05 104 215Q106.05 217.2 106.05 220.65M7.55,498.15L18.15 497.4L35.2 496.2Q43.05 496.2 58.4 498.5Q73.7 500.75 86.1 500.75L137.85 498.5L173.8 496.2Q191.35 496.2 194.2 469Q194.9 462.25 194.8 452.75L194.65 446.1Q193.9 431.85 193.9 426.9Q193.9 414.65 192.5 398.85L190.5 377.55L189.95 371.25L189.85 370.5L179.75 370.5L92.55 377L65.2 378.3Q36.95 379.4 25.8 381.05Q11.55 383.15 5.55 388.3Q-0.35 393.35 -1.95 404.55L-2.6 411.95Q-3.05 420.1 -3.05 434.35Q-3.05 446 -0.65 482.4L0.35 498.55L1.1 498.55L2.15 498.5L7.55 498.15M-11.7,225.9Q-11.7 224.6 -11.25 223.55L-11.3 227.25L-11.7 225.9" />
<path style="fill:#5A7777;fill-opacity:1" d="M80.75,112.95L93.1 113.55L98.1 113.45Q106.85 113.1 110.15 111.35Q113.85 109.45 115.45 105L116.3 101.75Q116.75 99.35 116.75 96.5Q116.75 84.6 114.55 44.7L114.3 40.25L112.9 12.55L130.75 13.3L156.75 12.2L182.75 11.1L187.3 11.2Q192.55 16.85 191.75 23.05Q191 29.2 191.7 44.35Q192.4 59.45 192.35 75.85L192.45 104.75L193.2 162.85Q193.8 208.45 192.3 217.5Q190.8 226.55 190.55 231.25L152.25 234.15L150.9 234.25L94.9 236.75Q83.75 236.75 79.3 200.65Q76.7 179.75 76.7 150.45L77.35 133.35L77.95 112.75L80.75 112.95M-7.6,341.55Q-8.45 332.3 -8.45 325.1Q-8.45 319.55 -7.4 305.9Q-6.3 292.3 -6.3 285Q-6.3 279 -6.75 268L-7.15 251.7Q-6.25 242.5 -6.25 233.9L-6.3 231.65Q-6.45 225.2 -7.35 220.5Q-8.3 215.25 -10.2 212.1L4.75 212.2L27.1 214.15L51.05 216.1Q54.6 216.1 62.1 214.15L68.7 212.7L69.6 224.1Q70.6 236.7 72.75 241.4Q74.1 244.3 76.65 246.25Q78.95 247.95 82.3 248.85Q85.55 249.75 91.5 250.15L104.1 250.5L109.8 250.4L112.95 250.3L139.85 248.95L150.35 248.3L167.95 247.2L185.05 246.1Q185.5 301.65 187.85 342.6L188.05 346.3L187.75 346.35L94.7 350L75.15 350.7L-5.05 353.7L-6.8 353.8Q-6.9 348.9 -7.6 341.55M172.65,22.25Q170.25 24 170.25 26.55Q170.25 30.55 171.75 33.15Q173.45 36.15 176.7 36.15Q181.25 36.15 183.9 32.65Q185.7 30.25 185.7 28.65Q185.7 24.55 183.3 22.4Q181.2 20.5 177.95 20.55Q174.95 20.6 172.65 22.25M97.2,11.85L101.4 12.05L101.4 13Q101.7 35.1 102.55 67.4Q102.55 81.75 97.25 89.55Q92.6 96.4 83.2 98.95L81.05 99.45Q74.15 100.9 63.05 100.8L39.5 100.25Q27.95 100.25 25.4 95.25Q24.25 93.05 24.05 88.85L24.05 79.75L24.7 63.75L25.25 51.75L26.5 23.7Q26.5 19.8 25.5 11.95L79.9 11.1L97.2 11.85M-2.3,12.35L9 12.2L8.8 16.65L8.75 18.45Q8.2 29.7 8.3 41.2L8.35 45.75L8.3 52.8L7.95 64.25L7.55 76.85L7.45 86.6L7.45 87.15Q7.5 94.95 8.6 99.2Q9.75 103.85 12.65 106.45L13.15 106.85Q15.95 109.05 21.9 110.2Q28.65 111.45 39.45 111.35Q44.2 111.3 52.35 111.55Q52.45 120.45 53 135.45L53.65 153.7Q53.65 174.25 48.55 182.25Q44.05 189.3 32.95 189.9L6.5 188.3Q-3.65 187.55 -13 187.8Q-13.1 183.3 -12.7 181.1Q-11.65 175.65 -11.65 164.45L-11.85 146.95Q-11.85 141.3 -12.5 125.65L-13.1 109.65L-12.25 95Q-12.25 91.85 -12.9 85.45Q-13.5 79.05 -13.5 76.3L-13.75 58.35L-13.95 40.5Q-13.95 22.7 -13.6 17.25L-13.15 12.5L-6.1 12.4L-2.3 12.35M104,215Q102.2 213.05 99.5 212.8Q96.9 212.55 95.05 214.15Q93 215.9 93 219.15Q93 221.9 95.2 224.55Q97.75 227.55 101.25 227.55L104.6 227.25L105.75 226.95Q106.05 225.15 106.05 220.65Q106.05 217.2 104 215M2.15,498.5L1.1 498.55L0.35 498.55L-0.65 482.4Q-3.05 446 -3.05 434.35Q-3.05 420.1 -2.6 411.95L-1.95 404.55Q-0.35 393.35 5.55 388.3Q11.55 383.15 25.8 381.05Q36.95 379.4 65.2 378.3L92.55 377L179.75 370.5L189.85 370.5L189.95 371.25L190.5 377.55L192.5 398.85Q193.9 414.65 193.9 426.9Q193.9 431.85 194.65 446.1L194.8 452.75Q194.9 462.25 194.2 469Q191.35 496.2 173.8 496.2L137.85 498.5L86.1 500.75Q73.7 500.75 58.4 498.5Q43.05 496.2 35.2 496.2L18.15 497.4L7.55 498.15L2.15 498.5M-7.35,354.5L-8.2 353.85L-6.95 353.9L-7 354.5L-7 354.9L-7.35 354.5M-6.75,356.05L-6.75 355.25Q-6.5 355.75 -6.55 356.2Q-6.55 365.55 -2.75 367.9L-7.95 368.25Q-6.75 364.3 -6.75 356.05" />
<path style="fill:#789A9A;fill-opacity:1" d="M-18.15,201.25L-18.15 0.1L-10.05 0.05Q-12.2 4.55 -13.15 12.5L-13.6 17.25Q-13.95 22.7 -13.95 40.5L-13.75 58.35L-13.5 76.3Q-13.5 79.05 -12.9 85.45Q-12.25 91.85 -12.25 95L-13.1 109.65L-12.5 125.65Q-11.85 141.3 -11.85 146.95L-11.65 164.45Q-11.65 175.65 -12.7 181.1Q-13.1 183.3 -13 187.8L-12.9 189.6Q-12.55 196.4 -12.75 198.9L-13 200.85L-18.15 201.25M-7.95,368.25L-2.75 367.9L3.7 367.5L4.5 367.5Q4.55 372.55 -1.35 372.9L-7.35 373Q-10.75 373.15 -12.25 374.5Q-14.75 376.7 -15.2 385.35Q-15.45 389.9 -15.2 396.35Q-15.2 402.35 -12.05 436.85Q-8.85 471.3 -8.85 496.85Q-8.85 506.8 -9.35 509.4L-9.5 510L-13.65 510Q-13.45 508.15 -14.45 498.4L-14.5 498.05Q-15.5 487.95 -17.85 435.55L-19.25 404.5L-20.4 379.3L-20.9 369.05L-20.7 369.05L-12.7 368.55L-11.3 227.25L-11.25 223.55L-11.15 212.05L-10.2 212.1Q-8.3 215.25 -7.35 220.5Q-6.45 225.2 -6.3 231.65L-6.25 233.9Q-6.25 242.5 -7.15 251.7L-6.75 268Q-6.3 279 -6.3 285Q-6.3 292.3 -7.4 305.9Q-8.45 319.55 -8.45 325.1Q-8.45 332.3 -7.6 341.55Q-6.9 348.9 -6.8 353.8L-8.2 353.85L-7.35 354.5L-7 354.9L-6.75 355.25L-6.75 356.05Q-6.75 364.3 -7.95 368.25" />
<path style="fill:none;stroke-width:2;stroke-linecap:butt;stroke-linejoin:miter;stroke-miterlimit:3;stroke:#435B5B;stroke-opacity:1" d="M112.9,12.55L114.3 40.25L114.55 44.7Q116.75 84.6 116.75 96.5Q116.75 99.35 116.3 101.75L115.45 105Q113.85 109.45 110.15 111.35Q106.85 113.1 98.1 113.45L93.1 113.55L80.75 112.95L77.95 112.75L71.85 112.4L64.45 111.9L64.6 125.9Q64.8 136.25 65.3 148.55L65.6 160.05L65.7 162.75L65.75 165.9L65.85 168.85L65.95 172L65.95 172.95Q66.35 185.65 67.1 193.15L67.35 196.35L67.35 196.45L68.1 205.5L68.6 211.45L68.7 212.7L69.6 224.1Q70.6 236.7 72.75 241.4Q74.1 244.3 76.65 246.25Q78.95 247.95 82.3 248.85Q85.55 249.75 91.5 250.15L104.1 250.5L109.8 250.4L112.95 250.3L139.85 248.95L150.35 248.3L167.95 247.2L185.05 246.1L202.8 245L202.8 0L112.45 0L112.9 12.55M129.95,6.4Q130.95 6.85 131.25 7.7L131.4 9.4Q131.4 11.1 130.45 11.75Q129.85 12.15 128.65 12.15Q127.1 12.15 126.3 11Q125.65 9.95 125.65 8.3Q125.65 7.2 126.55 6.45Q127.4 5.75 128.4 5.75Q128.75 5.75 129.3 6.3L130.7 7.6M97.2,11.85L97.3 11.95Q98.15 13.35 99.75 13.35L101.4 13L102.35 12.15Q103.05 11.2 103.05 9.65L103 8.35Q102.8 7.45 102.15 7.15M97.2,11.85Q96.65 10.75 96.65 9.15Q96.65 6.25 99.9 6.25L101.5 6.4Q102.55 6.75 103.3 8.35M109.3,96.45L109.95 97.85L110.15 98.9Q110.15 100.2 108.9 102.15Q107.5 104.3 106.15 104.3Q103.55 104.3 101.7 98.8Q101.7 96.65 103.15 95.2Q104.5 93.9 106.25 93.9Q107.55 93.9 108.25 95.25L109.75 98.15M25.7,6L26.1 7.45L26.15 8.25Q26.15 9.7 24.95 10.5Q23.9 11.25 22.45 11.25Q21.05 11.25 19.95 10.05Q18.95 8.9 18.95 7.75Q18.95 5.75 20.35 5Q21.3 4.5 23.15 4.5L24.7 4.7L25.6 6L25.7 6M25.2,6L25.6 6L26.1 7.45M9,12.2L9.05 0L-10.05 0.05L-18.15 0.1L-18.15 201.25L-13 200.85L-11 200.7L-2.25 200.05L-2.25 199.65M-6.1,12.4L-6.75 11.75Q-7.2 10.95 -7.2 9.4Q-7.2 7.65 -6.5 6.95Q-5.8 6.25 -4.25 6.25L-3.25 6.35Q-3 6.45 -2.45 7Q-1.5 7.35 -1.3 8.15L-1.2 9.55Q-1.2 11.05 -1.95 12L-2.3 12.35M9,12.2L8.8 16.65L8.75 18.45Q8.2 29.7 8.3 41.2L8.35 45.75L8.3 52.8L7.95 64.25L7.55 76.85L7.45 86.6L7.45 87.15Q7.5 94.95 8.6 99.2Q9.75 103.85 12.65 106.45L13.15 106.85Q15.95 109.05 21.9 110.2Q28.65 111.45 39.45 111.35Q44.2 111.3 52.35 111.55L54.1 111.6L64.45 111.9M15.8,97.4Q15.8 98.95 16.65 100.05Q17.6 101.3 19.4 101.3Q21.25 101.3 22.35 100.05Q23.4 98.85 23.4 97.05L23.35 96.05L21.15 94.2Q20.45 93.7 19.85 93.7Q18.5 93.7 17.3 94.55Q15.8 95.6 15.8 97.4M21.7,94.15Q23.05 94.85 23.3 95.4L23.35 96.05M112.45,0L9.05 0M89.6,234.85L89.65 235.6L89.65 236Q89.65 237.2 88.75 238Q87.9 238.75 86.6 238.75Q85.2 238.75 84.25 237.6Q83.4 236.55 83.4 235.3Q83.4 232.5 86.7 232.5Q88.3 232.5 89 234.1Q89.5 234.15 89.6 234.85M89,234.1L89.65 235.6M2.15,498.5L1.7 498.15Q0.25 497 0.25 495.75Q0.25 492.6 4.9 492.6L6.75 492.75Q7.3 493 7.4 493.8Q7.95 494.8 7.95 496.2Q7.95 497.45 7.55 498.15M190.5,377.55Q189.05 377.4 188.2 376.1Q187.5 375 187.5 373.85Q187.5 373.05 188.7 372.05Q189.4 371.5 189.95 371.25L190.6 371.1L191.95 371.25Q192.45 371.5 192.65 372.55Q193.3 373.05 193.4 373.6L193.5 374.8Q193.5 376.5 192.75 377.1Q192.15 377.55 190.85 377.55L190.5 377.55M-2.75,367.9L3.7 367.5L4.5 367.5Q48 367.5 66.5 366.9L73.25 366.65L92.9 365.15L93.25 365.15L99.7 364.55L127.25 362.65L189 359.85L202.8 359.4L202.8 245M-2.75,367.9L-7.95 368.25L-12.7 368.55L-20.7 369.05L-20.9 369.05L-20.4 379.3L-19.25 404.5L-17.85 435.55Q-15.5 487.95 -14.5 498.05L-14.45 498.4Q-13.45 508.15 -13.65 510L-9.5 510L202.8 510L202.8 359.4M190.6,231.6Q191.8 230.85 192.9 230.85Q194.25 230.85 194.7 231.6Q195.15 232.25 195.15 233.95Q195.15 235.3 194.45 236.1Q193.75 236.85 192.65 236.85Q191.15 236.85 190.1 235.65Q189.2 234.6 189.2 233.35Q189.2 232.4 190.6 231.6M195.9,256.75Q195.85 259.6 192.5 259.6Q191.25 259.6 190.4 258.4Q189.65 257.35 189.65 256.15Q189.65 254.85 190.6 253.85Q191.5 252.9 192.65 252.9Q193.95 252.9 194.85 253.9L195.45 254.8L195.65 254.8L195.75 255.7L195.85 256.55L195.9 256.65L195.9 256.75L195.85 256.55M195.45,254.8L195.75 255.7M187.85,342.6Q187.25 343.3 187.25 344.1Q187.25 345.3 187.75 346.35L187.95 346.65Q188.85 348.05 190.35 348.05Q193.95 348.05 193.95 344.85L193.65 343.5L193.3 342.65L192.9 342.15L192.6 341.8Q191.8 340.9 191 340.9Q190 340.9 188.7 341.85L187.85 342.6M192.65,372.55L192.75 373.25M223.7,358.7L223.7 357.6M67.35,196.45L14.05 198.65L-2.25 200.05M2.15,498.5Q3.4 499.35 4.7 499.35Q6.25 499.35 6.95 498.85L7.55 498.15M7.4,493.8L7.45 495M-1.7,7.85L-2.45 7M-6.1,12.4Q-5.35 12.9 -4.05 12.9Q-3 12.9 -2.3 12.35M-11,200.7L-11.1 207.2L-11.15 212.05L-11.25 223.55L-11.3 227.25L-12.7 368.55" />
</g>
</svg>
