<?xml version="1.0" encoding="utf-8"?>
<svg version="1.1" id="Layer_1"
xmlns="http://www.w3.org/2000/svg"
xmlns:xlink="http://www.w3.org/1999/xlink"
xmlns:author="http://www.sothink.com"
width="57px" height="55px"
xml:space="preserve">
<g id="25" transform="matrix(1, 0, 0, 1, 27.4, 31.35)">
<path style="fill:#232222;fill-opacity:1" d="M9.5,-28.65Q10.35 -28.65 10.35 -27.85Q10.35 -27 9.5 -27Q8.85 -27 8.65 -27.5L8.6 -27.85Q8.6 -28.65 9.5 -28.65M28.4,-3.8Q27.85 -3.8 27.65 -4.3L27.55 -4.8Q27.55 -5.6 28.35 -5.65Q29.15 -5.7 29.15 -4.8L29 -4.2L28.4 -3.8M20.4,14.3Q20.1 14.5 19.75 14.65Q19.15 14.65 19 14.3L18.9 13.9Q18.9 13.1 19.8 12.95Q20.65 12.8 20.65 13.7L20.4 14.3M-6.5,-30.35Q-6.5 -31.25 -5.45 -31.35Q-4.4 -31.35 -4.4 -30.5L-4.65 -29.85Q-5 -29.5 -5.6 -29.5Q-6.5 -29.5 -6.5 -30.35M-10.55,-22Q-10.9 -21.4 -11.5 -21.4Q-12.35 -21.4 -12.25 -22.3Q-12.25 -23.15 -11.3 -23.35Q-10.35 -23.55 -10.35 -22.65L-10.55 -22M-9.25,21.2Q-9.25 19.65 -7.85 20.65Q-6.5 21.65 -6.5 22.35Q-6.5 23.2 -7.3 23.2L-8.45 22.15L-9.25 21.2M-26.1,1.75Q-24.8 2.15 -24.8 3.85Q-24.8 5.1 -25.7 5.1Q-26.7 5.1 -27.15 4L-27.4 2.95Q-27.4 1.4 -26.1 1.75" />
</g>
</svg>
