<?xml version="1.0" encoding="utf-8"?>
<svg version="1.1" id="Layer_1"
xmlns="http://www.w3.org/2000/svg"
xmlns:xlink="http://www.w3.org/1999/xlink"
xmlns:author="http://www.sothink.com"
width="141px" height="113px"
xml:space="preserve">
<g id="279" transform="matrix(1, 0, 0, 1, 70.3, 56.05)">
<path style="fill:#8080AD;fill-opacity:1" d="M29.35,-22.8L30.05 -25Q30.6 -26.15 31.45 -26.75L31.8 -26.95Q32.95 -27.65 34.8 -27.7L40.85 -26.7L46.65 -25.6L50.7 -25L53.9 -24.45Q55.65 -24.25 56.2 -23.35L56.35 -22.7L56.45 -19.7L56.45 -18.25L56.4 -16.45Q54.6 -15.45 54 -15.35L51.6 -14.75L48.75 -14.25L47.45 -19.9L52.2 -19.6Q54.9 -19.6 54.9 -21.35L54.85 -22Q54.65 -22.45 53.9 -22.6L51.3 -22.6Q44.25 -23.9 40.15 -25L34 -26.15Q32.25 -26.05 32.25 -24.45Q32.25 -23.35 33.45 -22.8Q34.25 -22.4 36.25 -21.9L35.15 -21.1Q34.25 -20.25 33.8 -18.85L33.35 -15.9L31.25 -17.6L30 -18.85L29.85 -19.05L29.35 -18.85L29.15 -18.85L28.95 -18.85Q29 -21.15 29.35 -22.8M-0.85,-43.6L-0.55 -43.8L0.75 -44.1L2.7 -43.7L2.9 -43.6L3.55 -43.1L3.9 -42.4L3.95 -41.85L3.85 -41.05L3.15 -39.85L2.8 -39.45L2.75 -39.4Q2 -38.8 1 -38.8Q0.45 -38.8 -0.1 -39.05L-0.85 -39.55Q-1.85 -40.5 -1.85 -41.75L-1.75 -42.35L-1.5 -42.9L-1.35 -43.2L-0.85 -43.6M3.4,-41.75Q3.4 -42.65 2.2 -43.2L2.05 -43.25Q0.65 -43.8 0.65 -42.75Q0.65 -42.3 1.15 -41.7L1.45 -41.3L1.75 -41.15L2.35 -40.95L3.2 -41.1Q3.4 -41.2 3.4 -41.75M38.1,-17.05L38.8 -17.65L38.9 -17.65L39.05 -17.85Q39.9 -18.5 41.1 -18.5Q42.35 -18.5 43.15 -17.65Q43.95 -16.9 43.95 -15.6L43.75 -13.7L43.15 -12.7L43.05 -12.55Q42.2 -11.8 40.35 -11.8Q38.8 -11.8 38.1 -12.4Q37.35 -12.95 37.3 -14.3L37.3 -14.45Q37.3 -15.95 37.55 -16.4L38.1 -17.05M41.6,-17.3Q40.4 -17.6 40.4 -16.65L40.65 -15.8L41.25 -15.05Q41.65 -14.75 42.1 -14.75Q42.6 -14.75 42.7 -14.9L42.75 -15.9Q42.75 -17 41.6 -17.3" />
<path style="fill:#A9A9D4;fill-opacity:1" d="M36.25,-21.9Q34.25 -22.4 33.45 -22.8Q32.25 -23.35 32.25 -24.45Q32.25 -26.05 34 -26.15L40.15 -25Q44.25 -23.9 51.3 -22.6L53.9 -22.6Q54.65 -22.45 54.85 -22L54.9 -21.35Q54.9 -19.6 52.2 -19.6L47.45 -19.9L46.95 -21.15Q45.9 -22.6 41.35 -22.7L40.1 -22.75Q37.75 -22.75 36.25 -21.9" />
<path style="fill:#6A6A93;fill-opacity:1" d="M32.5,-11.9L32.25 -11L31.4 -11.7Q29.55 -13.9 29.05 -16.2Q28.9 -16.95 28.9 -17.75L28.95 -18.85L29.15 -18.85L29.35 -18.85L29.85 -19.05L30 -18.85L31.25 -17.6L33.35 -15.9L32.5 -11.9M48.75,-14.25L51.6 -14.75L54 -15.35Q54.6 -15.45 56.4 -16.45L56.4 -16.3L56.3 -15.4L55.9 -13.9L55.9 -13.8L55.65 -13.6L50.7 -12.35L49.2 -12L48.75 -14.25" />
<path style="fill:#CDAD2D;fill-opacity:1" d="M26.8,-19.75L27.15 -21.5Q27.55 -22.6 28.4 -22.7L29.35 -22.8Q29 -21.15 28.95 -18.85Q27.85 -19.05 26.8 -19.75M56.45,-18.25L56.45 -19.7L56.35 -22.7L56.3 -23.15L56.2 -23.35Q56 -24.85 56.55 -25.3Q56.9 -25.7 58.4 -25.8Q60.5 -25.85 60.95 -24.65L61.1 -20.9L60.9 -17.7L60.9 -17.3L59.7 -17.2Q57.75 -17.2 56.6 -18.05L56.45 -18.25M60.4,-23.4Q60.4 -24.65 58.75 -24.4Q57.1 -24.15 57.1 -22.95L57.5 -22.2Q57.95 -21.5 58.3 -21.5L58.75 -21.75Q59.9 -21.75 60.25 -22.2L60.4 -23.4" />
<path style="fill:#AD8F1B;fill-opacity:1" d="M28.95,-18.85L28.9 -17.75Q28.9 -16.95 29.05 -16.2Q28.15 -16.05 27.55 -16.7Q26.8 -17.4 26.8 -18.85L26.8 -19.7L26.8 -19.75Q27.85 -19.05 28.95 -18.85M56.3,-15.4L56.4 -16.3L56.4 -16.45L56.45 -18.25L56.6 -18.05Q57.75 -17.2 59.7 -17.2L60.9 -17.3L60.65 -15.05L60.65 -14.3Q60.55 -11 57.75 -10.95Q56.7 -10.9 56.3 -11.3Q55.9 -11.75 55.9 -12.95L55.9 -13.8Q56.2 -14.25 56.3 -15.4" />
<path style="fill:#E2CE7A;fill-opacity:1" d="M60.25,-22.2Q59.9 -21.75 58.75 -21.75L58.3 -21.5Q57.95 -21.5 57.5 -22.2L57.1 -22.95Q57.1 -24.15 58.75 -24.4Q60.4 -24.65 60.4 -23.4L60.25 -22.2" />
<path style="fill:#8C8CB6;fill-opacity:1" d="M7.55,-50.7L8.35 -50.8L12.5 -50.7Q14.3 -50.7 14.85 -51.05Q15.25 -51.3 15.25 -51.95Q15.25 -52.8 14.1 -53L12.05 -53.25L8.9 -53.3L6.3 -53.4L3.5 -53.65L-3.55 -54.25Q-6.8 -54.35 -6.8 -52.35L-6.7 -51.7Q-6.55 -51.3 -5.7 -50.95L-0.5 -50.95L-0.2 -51.1L2.25 -51.1L2.25 -50.95Q2.25 -49.3 5.8 -49.3Q7.55 -49.3 7.55 -50.5L7.55 -50.7M16.25,-52.6L16.6 -51.1L16.6 -50.35L16.55 -48.85L16.5 -44.8L15.05 -44.5L13.7 -44.55L9.5 -45.15L6.6 -45.65Q5.9 -47.15 5.25 -47.65Q4.1 -48.55 -0.7 -48.6L-1.85 -48.65L-2.25 -48.65Q-2.8 -49 -3.65 -48.95L-4.95 -48.55Q-5.8 -48.15 -5.8 -47L-5.8 -46.95L-5.8 -46.75L-5.8 -46.65L-6.35 -45.3L-6.4 -45.3Q-7.3 -45.25 -8.2 -46.25L-8.75 -46.8L-8.8 -49.9L-8.8 -50.8L-8.75 -51.95Q-8.4 -55.45 -5.7 -55.2L5.25 -54.6L13.85 -54.25L15 -54.25Q15.7 -53.85 16.15 -52.75L16.2 -52.7L16.25 -52.6M18.85,-47.8L18.85 -49.05L18.75 -50.95L19.9 -50.95Q21.25 -50.65 21.45 -50.3L21.55 -48.7L21.55 -46.25L21.25 -46.3L18.85 -46.05L18.85 -47.8M21.05,-48.7L21.15 -49.35Q21.15 -50.2 20.25 -50.4Q19.35 -50.5 19.35 -49.4L19.45 -48.9Q19.65 -48.35 20.3 -48.35Q20.9 -48.35 21.05 -48.7M10.65,-47.6L10.9 -46.4Q11.45 -45.3 12.95 -45.3Q13.9 -45.3 14.55 -46.35L15 -47.6Q15 -49.7 12.25 -49.45Q11.15 -49.25 10.8 -48.65Q10.65 -48.35 10.65 -47.6M-5.8,-8.25L0.15 -10.7L1 -11.15L2.1 -9.25L2.2 -9.1L3.05 -7.45L3.65 -5.95L2.65 -5.15L2.35 -5.6Q1.35 -6.95 -0.5 -6.95L-2.1 -6.5L-6.5 -5L-5.8 -8.25M-9.05,-5.1L-8.7 -4.3L-12.5 -3.05L-15.2 -2.25L-14.75 -4.6L-9.8 -6.6L-9.05 -5.1M-16.25,7.15L-12.4 6.95L-8.75 6.6L-8.4 6.55L-7.45 6.45L-7.75 6.15Q-8.3 5.3 -8.3 4.55L-8 3.35L-6.3 1.4Q-4.8 0.05 -3.65 -0.3L-3.95 1.3L-3.95 1.4Q-3.9 2.45 -3.3 3.35L-2.5 4.25L-0.15 6.15L0.45 6.2Q2.6 6.35 3.9 7Q4.85 7.5 5.35 8.3L5.35 9.4L1.3 8.95L-4.15 8.5L-6.75 8.55L-16.35 9.05L-17.7 9.15L-17.65 8.95Q-17.35 7.5 -16.25 7.15M12.25,22.3L9.05 22.05L7.95 22.05L5.05 22.2L4.55 22.25L4.5 13.3L4.75 13.15L5.85 13.2L9 13.1L11.65 13L11.75 13L12.45 13.25Q14.35 14.15 14.55 16.25L14.6 22.5L12.25 22.3M-21.35,16.15Q-21 14.05 -19.75 13.85L-18.45 13.85L-18.65 18L-18.65 21.05Q-18.8 23 -19.65 23Q-20.7 23 -21.5 22L-21.75 21.55L-21.8 20.2L-21.6 18.55L-21.55 18.05L-21.55 17.4L-21.5 16.95L-21.35 16.15M-10.9,22.25L-10.9 20.05L-10.9 19.35L-10.9 18.85L-10.9 18.65L-10.8 13.5L-10.6 13.45Q-7.7 13.25 -3.55 13.4L-2.9 13.4L-3 15.45L-2.9 18.95Q-2.95 20.5 -3.7 21.35Q-4.65 22.35 -6.6 22.35L-10.9 22.25M8.2,15.65Q8.2 14.2 6.75 14.1Q5.3 14 5.3 14.55Q5.3 15.35 5.6 15.95Q6.2 17.15 7.85 16.7Q8.2 16.5 8.2 15.65M9.65,15.05L9.85 16.2Q10.45 17.05 12.8 17.05Q13.45 17.05 13.45 16.1Q13.45 15.1 12.05 14.65L10.6 14.35L9.85 14.5Q9.65 14.65 9.65 15.05M-19.15,15.5Q-19.15 14.6 -19.75 14.5Q-20.35 14.4 -20.35 15.6Q-20.35 16.5 -19.7 16.5Q-19.15 16.5 -19.15 15.5M-3.6,15.65L-3.6 15.4L-3.75 14.9Q-4.1 14.45 -5.55 14.3L-9.7 14.1Q-10.2 14.2 -10.2 14.8L-10.1 15.2Q-9.9 15.4 -9.8 15.9L-9.8 16.2L-9.65 16.5L-8.5 16.85L-5.25 16.95Q-3.95 16.95 -3.65 16.35L-3.6 16.05L-3.6 15.65M-6.3,14.75L-6.7 14.7L-6.3 14.7L-6.3 14.75M-8.95,16.3L-9.05 16.3L-9.35 15.95L-8.95 16.3" />
<path style="fill:#F58D48;fill-opacity:1" d="M16.5,-44.8L16.55 -48.85L16.6 -50.35L16.6 -51.1L16.25 -52.6L16.6 -52.75Q18.3 -52.75 18.65 -51.4L18.75 -50.95L18.85 -49.05L18.85 -47.8L18.85 -46.05L18.55 -46.05L17.5 -45.5L16.6 -44.85L16.5 -44.8" />
<path style="fill:#6E6E98;fill-opacity:1" d="M18.75,-44L18.85 -46.05L21.25 -46.3L21.55 -46.25L21.4 -44.2Q21.35 -43.65 20.35 -43.25L18.6 -43.15L18.6 -43.2L18.75 -44M6.6,-45.65L9.5 -45.15L13.7 -44.55L15.05 -44.5L16.5 -44.8L16.35 -43.7L15.8 -42.2Q15.05 -41.15 13.65 -40.9L8.3 -40.2Q7.45 -43.75 6.6 -45.65M-8.6,-43.1L-8.75 -46.8L-8.2 -46.25Q-7.3 -45.25 -6.4 -45.3L-6.35 -45.3L-6.5 -44.8L-7 -41.4L-7.05 -41.15L-7.35 -39.6Q-8.1 -40.5 -8.45 -42.2L-8.6 -43.1M-12.4,6.45L-12.4 1.5L-12.4 1.3L-12.95 1.5L-15.15 2.3Q-15.55 2.3 -16.15 1.6L-17.05 0.35L-15.55 -0.35L-15.25 -1.95L-15.2 -2.25L-12.5 -3.05L-8.7 -4.3L-8.5 -3.8L-6.6 -4.75L-6.5 -5L-2.1 -6.5L-0.5 -6.95Q1.35 -6.95 2.35 -5.6L2.65 -5.15L-1.4 -3.25L-1.5 -3.25L-1.55 -3.2L-1.75 -3.1L-2.1 -2.8L-3.25 -1.3L-3.55 -0.55L-3.65 -0.3Q-4.8 0.05 -6.3 1.4L-8 3.35L-8.3 4.55Q-8.3 5.3 -7.75 6.15L-7.45 6.45L-8.4 6.55L-8.75 6.6L-12.4 6.95L-12.4 6.45M-16.35,9.05L-6.75 8.55L-4.15 8.5L1.3 8.95L5.35 9.4L5.35 9.45L5.35 9.75L-3.5 9.8L-17.75 9.8L-17.7 9.15L-16.35 9.05M-24.8,23.9L-24.85 22.25L-24.8 18.9Q-24.7 16.75 -23.95 16.1L-21.35 16.15L-21.5 16.95L-21.55 16.95L-21.55 17.4L-21.55 18.05L-21.6 18.55L-21.8 20.2L-21.75 21.55L-21.5 22Q-20.7 23 -19.65 23Q-18.8 23 -18.65 21.05L-18.65 18L-18.45 13.85L-16.3 13.75L-16.2 13.75L-16.15 13.75L-16.15 21.15Q-16.15 25.9 -16.3 27.85L-16.4 31.15L-16.4 31.4L-17.15 31.4Q-21.15 31.4 -21.55 27.9L-21.55 28.05Q-24.05 28.9 -24.65 26.5L-24.7 26.1L-24.8 23.9M4.75,13.15L4.5 13.3L4.5 13.2L4.5 13.15L4.75 13.15M4.95,31.5L4.65 31.5L4.5 31.5Q4.3 28 4.5 23.6L4.55 22.45L4.55 22.25L5.05 22.2L7.95 22.05L9.05 22.05L12.25 22.3L14.6 22.5L14.6 24.4L14.6 27.85Q15 30.65 12.3 31.55L9.15 31.45L9.05 31.45L6.1 31.4L4.95 31.5M-1.05,19.55L-1 26.35L-0.85 31.45L-10.6 31.35L-10.95 31.4L-10.95 31.3L-11.15 31.3L-11 25.55L-10.9 22.25L-6.6 22.35Q-4.65 22.35 -3.7 21.35Q-2.95 20.5 -2.9 18.95L-3 15.45L-2.9 13.4L-1 13.4L-1.05 19.55" />
<path style="fill:#FF6600;fill-opacity:1" d="M16.35,-43.7L16.5 -44.8L16.6 -44.85L17.5 -45.5L18.55 -46.05L18.85 -46.05L18.75 -44L18.6 -43.2Q18.15 -41.8 17 -41.8Q16.05 -41.8 15.8 -42.2L16.35 -43.7M-8.45,-42.2L-9.95 -42.1Q-11.1 -42.1 -11.4 -42.85L-11.65 -44.95L-12.05 -49.4L-12.05 -49.75L-10.25 -50.1L-9.15 -49.95L-8.8 -49.9L-8.75 -46.8L-8.6 -43.1L-8.45 -42.2" />
<path style="fill:#FF9B58;fill-opacity:1" d="M-9.15,-49.95L-10.25 -50.1L-12.05 -49.75Q-11.95 -51 -11.4 -51.5Q-10.85 -52 -9.4 -52L-9 -51.9L-8.75 -51.95L-8.8 -50.8L-8.8 -49.9L-9.15 -49.95" />
<path style="fill:#B7B7DE;fill-opacity:1" d="M-0.2,-51.1L-0.5 -50.95L-5.7 -50.95Q-6.55 -51.3 -6.7 -51.7L-6.8 -52.35Q-6.8 -54.35 -3.55 -54.25L3.5 -53.65L6.3 -53.4L8.9 -53.3L12.05 -53.25L14.1 -53Q15.25 -52.8 15.25 -51.95Q15.25 -51.3 14.85 -51.05Q14.3 -50.7 12.5 -50.7L8.35 -50.8L7.55 -50.7Q7.35 -52.25 4.95 -52.55Q2.35 -52.85 2.25 -51.1L-0.2 -51.1M20.3,-48.35Q19.65 -48.35 19.45 -48.9L19.35 -49.4Q19.35 -50.5 20.25 -50.4Q21.15 -50.2 21.15 -49.35L21.05 -48.7Q20.9 -48.35 20.3 -48.35M7.85,16.7Q6.2 17.15 5.6 15.95Q5.3 15.35 5.3 14.55Q5.3 14 6.75 14.1Q8.2 14.2 8.2 15.65Q8.2 16.5 7.85 16.7M9.85,14.5L10.6 14.35L12.05 14.65Q13.45 15.1 13.45 16.1Q13.45 17.05 12.8 17.05Q10.45 17.05 9.85 16.2L9.65 15.05Q9.65 14.65 9.85 14.5M-19.7,16.5Q-20.35 16.5 -20.35 15.6Q-20.35 14.4 -19.75 14.5Q-19.15 14.6 -19.15 15.5Q-19.15 16.5 -19.7 16.5M-3.6,16.05L-3.65 16.35Q-3.95 16.95 -5.25 16.95L-8.5 16.85L-9.65 16.5L-9.8 16.2L-9.8 15.9Q-9.9 15.4 -10.1 15.2L-10.2 14.8Q-10.2 14.2 -9.7 14.1L-5.55 14.3Q-4.1 14.45 -3.75 14.9L-3.6 15.4L-3.6 15.65L-3.6 16.05M-6.3,14.7L-6.7 14.7L-6.3 14.75L-6.3 14.7M-9.35,15.95L-9.05 16.3L-8.95 16.3L-9.35 15.95" />
<path style="fill:#595980;fill-opacity:1" d="M4,-51.1Q3.65 -50.9 3.65 -50.5Q3.65 -49.7 5.1 -49.7Q5.95 -49.7 5.95 -50.45L5.9 -50.7Q5.75 -51.25 4.8 -51.25L4 -51.1M7.55,-50.5Q7.55 -49.3 5.8 -49.3Q2.25 -49.3 2.25 -50.95L2.25 -51.1Q2.35 -52.85 4.95 -52.55Q7.35 -52.25 7.55 -50.7L7.55 -50.5M-5.4,-47.25L-5.8 -46.65L-5.8 -46.75L-5.8 -46.95L-5.8 -47Q-5.8 -48.15 -4.95 -48.55L-3.65 -48.95Q-2.8 -49 -2.25 -48.65Q-4.3 -48.5 -5.4 -47.25M12.85,-48.1Q11.85 -48.15 11.85 -47.25L12 -46.7Q12.25 -46.15 12.95 -46.15Q13.4 -46.15 13.7 -46.6L13.85 -47.2Q13.85 -48.05 12.85 -48.1M10.8,-48.65Q11.15 -49.25 12.25 -49.45Q15 -49.7 15 -47.6L14.55 -46.35Q13.9 -45.3 12.95 -45.3Q11.45 -45.3 10.9 -46.4L10.65 -47.6Q10.65 -48.35 10.8 -48.65" />
<path style="fill:#3D3D5F;fill-opacity:1" d="M4.8,-51.25Q5.75 -51.25 5.9 -50.7L5.95 -50.45Q5.95 -49.7 5.1 -49.7Q3.65 -49.7 3.65 -50.5Q3.65 -50.9 4 -51.1L4.8 -51.25M13.85,-47.2L13.7 -46.6Q13.4 -46.15 12.95 -46.15Q12.25 -46.15 12 -46.7L11.85 -47.25Q11.85 -48.15 12.85 -48.1Q13.85 -48.05 13.85 -47.2" />
<path style="fill:#FF0000;fill-opacity:0" d="M26.2,3.25Q25.95 2.25 25.4 1.6L27.5 1.6L26.8 2.45L26.2 3.25M61.55,12.6Q64.05 10.5 64.8 6.85L65.1 3.5L65.1 3.35L67.9 3.35L68.4 3.35L68.65 2.15L68.65 1.6L69.95 1.6L69.95 14.45L58.85 14.45L61.55 12.6" />
<path style="fill:#C3C3E2;fill-opacity:1" d="M12.75,-31.35L9.95 -32.95L9.9 -33L9.65 -33.25L8.1 -34.9L9.1 -36.45L9.3 -36.7L12.4 -39.9L12.65 -39.75L13.3 -40Q15.1 -40 16.3 -35.75Q17.2 -32.5 17.2 -29.85L17.1 -28.1Q16.9 -27.15 16.35 -26.95L16 -26.9Q14.15 -26.9 13 -30.5L12.95 -30.6L12.75 -31.35M14.1,-8.95L5.2 -9.25L2.1 -9.25L1 -11.15Q2.65 -12.2 3.5 -13.8L7.85 -13.75L15.05 -13.95L15.65 -13.9L15.15 -8.85L14.1 -8.95M14.9,-1.75L15.9 -1.75L16.15 -3.35L16.35 -3.35L16.55 -3.35L16.65 -3.2L16.25 -3.2L16.15 -1.45L14.9 -1.75M-45.3,41L-45.55 39.2Q-46.7 30.8 -50.6 28.7Q-55.95 25.8 -59.05 21.15L-60.05 19.5L-57.15 17.65Q-53.45 15.35 -49.65 15.35Q-48.6 15.35 -46.25 16L-42.65 16.65L-35.95 16.15L-32.45 15.85L-29.8 15.65Q-26.2 15.65 -25.9 18.5Q-25.55 21.85 -24.8 23.9L-24.7 26.1L-24.65 26.5Q-24.05 28.9 -21.55 28.05L-21.55 27.9Q-21.15 31.4 -17.15 31.4L-16.4 31.4Q-16.6 33.5 -16.4 35.8L-15.65 35.8L-13.7 35.85L-11.2 35.8L-11.15 31.3L-10.95 31.3L-10.95 31.4L-10.6 31.35L-0.85 31.45L-0.85 31.6L-0.8 35.25L4.4 35.15L4.5 31.6L4.5 31.5L4.65 31.5L4.95 31.5L6.1 31.4L9.05 31.45L9.15 31.45L12.3 31.55Q15 30.65 14.6 27.85L14.6 24.4Q17.4 23.55 18.25 22.85Q20.5 21.1 24.4 17L26.6 14.7L26.8 14.45L29.4 11.65L29.45 11.55L30.1 10.8Q30.75 10.15 35.65 8.4Q40.6 6.55 42.2 6.55L47.45 7.4Q50.65 8.2 51.85 8.2L57.75 7.5L64.15 6.85L64.8 6.85Q64.05 10.5 61.55 12.6L58.85 14.45L57.45 15.25Q53.55 17.4 52.15 18.3Q42.15 24.6 37.15 32.7L37.25 32.75Q36.55 33.7 34.4 40.15L33.75 40.15L19.4 40.3L9.25 40.4L-45.3 41M-25.05,3.65L-25.3 1.6L-25.35 1.5L-24.9 0.5Q-23.35 1.45 -18.25 1.6L-16.75 1.6L-16.15 1.6Q-15.55 2.3 -15.15 2.3L-12.95 1.5L-12.4 1.5L-12.4 6.45L-18.5 5.35L-25.05 3.65M-17.45,-11.35L-17.5 -14.55L-17.5 -14.75L-17.5 -15.7L-17.45 -16.6Q-16.6 -17.2 -16.1 -17.2L-14.85 -16.5L-14.9 -16.4L-14.95 -16.15L-15.05 -15.9L-15.1 -15.7L-15.05 -14.75L-15.05 -12.9L-14.2 -12.7L-17.45 -11.35M-5.25,-25.05L-5.45 -25.05L-6.85 -27.55L-9.45 -30.3L-9.8 -30.45L-10 -30.5L-12.25 -31.25L-12.35 -31.2L-14.2 -29.4L-15 -31.35L-15.35 -32.25Q-16.3 -30.5 -16.3 -29.35L-16.1 -28.15L-16.05 -28.05Q-17.5 -27.2 -18.7 -27.2L-19.75 -27.3Q-20.25 -27.45 -20.65 -27.75Q-21.5 -28.4 -21.5 -29.6Q-21.5 -32.25 -19.5 -35Q-18.05 -37.15 -16.05 -38.5Q-15.95 -38.6 -15.8 -38.65L-15.25 -39L-13.85 -39.6L-11.65 -40Q-10.05 -40 -9.5 -39.55L-9.05 -39L-8.85 -38.35L-8.8 -37.55L-8.55 -37.7L-8.25 -36.95L-7.85 -35.9L-7.05 -33.05Q-7.05 -31.35 -7.4 -30.05L-7.15 -29.75L-6.1 -28.35Q-5.5 -27.85 -5.3 -26.4L-5.25 -25.05M-6.35,-45.3L-5.8 -46.65L-5.4 -47.25L-4.6 -46.65L-4.5 -46.6L-2.45 -46.15L-1.45 -46.05L-0.8 -46L2.3 -45.35L3.05 -44.95L3.85 -44.2L4.2 -43.8L4.9 -42.35L5.2 -41.2L5.3 -40.4L5.4 -39.8Q6.05 -34.6 7 -30.9L7.35 -29.55Q6.4 -29.6 5.35 -30.1Q4.3 -30.55 3.4 -31.35Q2.6 -32.05 0.4 -32.25L-3.15 -32.65Q-5.3 -33.2 -5.7 -37.55L-5.75 -37.7L-5.85 -38.55Q-6.2 -40.4 -7 -41.4L-6.5 -44.8L-6.35 -45.3M-1.35,-43.2L-1.5 -42.9L-1.75 -42.35L-2.55 -41.9Q-3.4 -41.25 -3.4 -40.25Q-3.4 -39.4 -3.05 -38.7L-2 -37.45Q-0.8 -36.5 0.65 -36.5Q2.75 -36.5 2.75 -38.45L2.75 -39.4L2.8 -39.45L3.15 -39.85L3.85 -41.05L3.95 -41.85L3.9 -42.4L3.55 -43.1L2.9 -43.6L2.7 -43.7L0.75 -44.1L-0.55 -43.8L-0.85 -43.6L-1.35 -43.2M10.1,-24.95L9.25 -24.95L9.4 -27.95L9.8 -32.25L9.85 -32.55L10.1 -32.6Q10.8 -32.6 11 -31.85L11.1 -30.55L10.65 -27.85L10.6 -27.35L10.55 -27.25L10.1 -24.95M13.75,-34.45Q12.85 -34.95 12.85 -33.9L13.2 -33.3Q13.7 -32.75 14.2 -32.75Q14.7 -32.75 14.7 -33.2Q14.7 -33.95 13.75 -34.45M0.45,6.2L-0.15 6.15L-2.5 4.25L-3.3 3.35Q-3.9 2.45 -3.95 1.4L-0.3 1.5L1 1.5L2.85 1.6L15.3 2.85L19 3L22.75 3.1Q23.35 3.2 25.25 4.4L24.05 5.7L22.15 7L21.75 7.15Q18.75 6.3 16 6.3L12.05 6.7L7.5 7.1L6.7 7.1L3.9 7Q2.6 6.35 0.45 6.2M33.35,-15.9L33.8 -18.85Q34.25 -20.25 35.15 -21.1Q35.85 -20.45 37 -20.35L41.15 -20.6Q45.3 -20.6 46.4 -14.15L46.45 -14L46.65 -11.65L47.35 -5.65L47.1 -5.7L45 -5L42.6 -4.35Q41.3 -4.35 40.6 -5.5Q39.95 -6.7 38.15 -6.75L35.3 -7.05Q33.95 -7.35 33.3 -8.35Q32.8 -9.25 32.6 -10.8L32.5 -11.9L33.35 -15.9M43.15,-12.7L43.75 -13.7L43.95 -15.6Q43.95 -16.9 43.15 -17.65Q42.35 -18.5 41.1 -18.5Q39.9 -18.5 39.05 -17.85L38.9 -17.65L38.8 -17.65L38.1 -17.05L38 -17.05Q36.75 -17.05 36.1 -15.85L35.8 -14.8L35.7 -14.05Q35.7 -12.7 36.55 -11.4L37.1 -10.65L37.5 -10.2Q38.7 -9 40 -9Q41.8 -9 42.5 -9.8Q42.95 -10.35 43.05 -11.35L43.1 -12.25L43.05 -12.55L43.15 -12.7M42.55,10.25Q40.1 12.45 40.1 14.1L40.2 14.45L40.8 15.1L42.25 15.4Q44.15 15.4 45.6 14.45L47.05 13.1Q48.5 11.25 48.5 9.45Q48.5 8.6 46.6 8L46.25 7.95L46.35 8.05Q46.15 7.9 45.65 8.05L45.6 8.05L45.45 8.15Q44.15 8.85 42.55 10.25M37.55,33.05L37.6 33.05L37.75 33.2L37.55 33.1L37.55 33.05M-14.85,-33L-13.1 -32.7L-11.15 -32.55L-10.2 -33.85L-10.2 -33.9Q-9.6 -34.75 -9.3 -35.5L-11.3 -35.95Q-12.45 -35.95 -13.65 -34.6L-14.4 -34.7Q-14.9 -34.7 -15.25 -34.15L-15.5 -33.25L-14.85 -33M-19.1,-34.35Q-20.75 -32.1 -20.75 -29.9L-20.5 -28.8Q-20.05 -27.7 -18.95 -27.7Q-17.3 -27.7 -17.3 -28.4Q-17.3 -28.7 -18.45 -29.1Q-19.6 -29.55 -19.6 -30Q-19.6 -31.15 -18.5 -33.2L-17.45 -35.15Q-17.45 -36.6 -19.1 -34.35M-8.35,-15.05L-9.8 -16.1L-9.45 -16.25L-7 -16.9L-4.4 -16.7L-8.35 -15.05" />
<path style="fill:#B1B1DB;fill-opacity:1" d="M3.2,-41.1L2.35 -40.95L1.75 -41.15L1.45 -41.3L1.15 -41.7Q0.65 -42.3 0.65 -42.75Q0.65 -43.8 2.05 -43.25L2.2 -43.2Q3.4 -42.65 3.4 -41.75Q3.4 -41.2 3.2 -41.1M42.75,-15.9L42.7 -14.9Q42.6 -14.75 42.1 -14.75Q41.65 -14.75 41.25 -15.05L40.65 -15.8L40.4 -16.65Q40.4 -17.6 41.6 -17.3Q42.75 -17 42.75 -15.9" />
<path style="fill:#A9A9CB;fill-opacity:1" d="M-1.75,-42.35L-1.85 -41.75Q-1.85 -40.5 -0.85 -39.55L-0.1 -39.05Q0.45 -38.8 1 -38.8Q2 -38.8 2.75 -39.4L2.75 -38.45Q2.75 -36.5 0.65 -36.5Q-0.8 -36.5 -2 -37.45L-3.05 -38.7Q-3.4 -39.4 -3.4 -40.25Q-3.4 -41.25 -2.55 -41.9L-1.75 -42.35M37.55,-16.4Q37.3 -15.95 37.3 -14.45L37.3 -14.3Q37.35 -12.95 38.1 -12.4Q38.8 -11.8 40.35 -11.8Q42.2 -11.8 43.05 -12.55L43.1 -12.25L43.05 -11.35Q42.95 -10.35 42.5 -9.8Q41.8 -9 40 -9Q38.7 -9 37.5 -10.2L37.1 -10.65L36.55 -11.4Q35.7 -12.7 35.7 -14.05L35.8 -14.8L36.1 -15.85Q36.75 -17.05 38 -17.05L38.1 -17.05L37.55 -16.4" />
<path style="fill:#ECECF7;fill-opacity:1" d="M-2.25,-48.65L-1.85 -48.65L-0.7 -48.6Q4.1 -48.55 5.25 -47.65Q5.9 -47.15 6.6 -45.65Q7.45 -43.75 8.3 -40.2L8.45 -39.55L9.1 -36.45L8.1 -34.9Q7.55 -33.75 7.55 -32.6Q7.55 -31 8.15 -29.7L7.85 -28.45L7.8 -28.2L7.35 -29.55L7 -30.9Q6.05 -34.6 5.4 -39.8L5.3 -40.4L5.2 -41.2L4.9 -42.35L4.2 -43.8L3.85 -44.2L3.05 -44.95L2.3 -45.35L-0.8 -46L-1.45 -46.05L-2.45 -46.15L-4.5 -46.6L-4.6 -46.65L-5.4 -47.25Q-4.3 -48.5 -2.25 -48.65M10.1,-24.95L10.55 -27.25L10.6 -27.2L10.9 -24.95L10.1 -24.95M26.2,3.25L25.25 4.4Q23.35 3.2 22.75 3.1L19 3L15.3 2.85L2.85 1.6L1 1.5L-0.3 1.5L-3.95 1.4L-3.95 1.3L-3.65 -0.3L-3.55 -0.55L-0.15 -0.75L5.25 -0.4L11.35 -0.15L15.85 -0.2L16.1 -0.1L16.1 -0.15L17.7 -0.1L23.2 0.45L24.2 0.7Q24.9 1 25.4 1.6Q25.95 2.25 26.2 3.25M49.2,-12L49.2 -11.8L50.5 -4.25L49.7 -4.6L47.35 -5.65L46.65 -11.65L46.45 -14L46.4 -14.15Q45.3 -20.6 41.15 -20.6L37 -20.35Q35.85 -20.45 35.15 -21.1L36.25 -21.9Q37.75 -22.75 40.1 -22.75L41.35 -22.7Q45.9 -22.6 46.95 -21.15L47.45 -19.9L48.75 -14.25L49.2 -12M-16.75,1.6L-18.25 1.6Q-23.35 1.45 -24.9 0.5Q-24.9 -1.4 -20.1 -1.4L-19.1 1.2L-17.05 0.35L-16.15 1.6L-16.75 1.6M14.7,-33.2Q14.7 -32.75 14.2 -32.75Q13.7 -32.75 13.2 -33.3L12.85 -33.9Q12.85 -34.95 13.75 -34.45Q14.7 -33.95 14.7 -33.2M-12.4,1.5L-12.95 1.5L-12.4 1.3L-12.4 1.5M-10.65,-34.15L-10.2 -33.85L-11.15 -32.55L-13.1 -32.7L-14.85 -33L-15.5 -33.25L-15.25 -34.15Q-14.9 -34.7 -14.4 -34.7L-13.65 -34.6L-10.65 -34.15M-17.45,-35.15L-18.5 -33.2Q-19.6 -31.15 -19.6 -30Q-19.6 -29.55 -18.45 -29.1Q-17.3 -28.7 -17.3 -28.4Q-17.3 -27.7 -18.95 -27.7Q-20.05 -27.7 -20.5 -28.8L-20.75 -29.9Q-20.75 -32.1 -19.1 -34.35Q-17.45 -36.6 -17.45 -35.15" />
<path style="fill:#8D8DB1;fill-opacity:1" d="M-5.3,-26.4Q-5.5 -27.85 -6.1 -28.35L-7.15 -29.75L-7.4 -30.05Q-7.05 -31.35 -7.05 -33.05L-7.85 -35.9L-8.25 -36.95L-8.2 -37.2Q-7.7 -38.2 -7.35 -39.6L-7.05 -41.15L-7 -41.4Q-6.2 -40.4 -5.85 -38.55L-5.75 -37.7L-5.7 -37.55Q-5.3 -33.2 -3.15 -32.65L0.4 -32.25Q2.6 -32.05 3.4 -31.35Q4.3 -30.55 5.35 -30.1Q6.4 -29.6 7.35 -29.55L7.8 -28.2L7.85 -28.45L8.15 -29.7Q7.55 -31 7.55 -32.6Q7.55 -33.75 8.1 -34.9L9.65 -33.25L9.9 -33L9.95 -32.95L12.75 -31.35L12.95 -30.6L13 -30.5Q14.15 -26.9 16 -26.9L16.05 -26.65Q13 -25.95 10.6 -27.2L10.55 -27.25L10.6 -27.35L10.65 -27.85L11.1 -30.55L11 -31.85Q10.8 -32.6 10.1 -32.6L9.85 -32.55L9.8 -32.25L9.4 -27.95L9.25 -24.95L7.2 -25L-5.25 -25.05L-5.3 -26.4M16.55,-3.35L16.85 -3.35L16.8 -3.2L16.65 -3.2L16.55 -3.35M-1.75,-3.1L-1.35 -3.1L5.4 -3.15L9.85 -3.1L16.15 -3.35L15.9 -1.75L14.9 -1.75L16.15 -1.45L16.1 -0.15L15.85 -0.2L11.35 -0.15L5.25 -0.4L-0.15 -0.75L-3.55 -0.55L-3.25 -1.3L-2.1 -2.8L-1.75 -3.1M50.55,-2.85L49.8 -2.85L45.9 -2.9L41.3 -3L35.6 -2.85L33.75 -2.8L32 -2.75Q30.95 -2.55 29.9 -1.4L30.05 -2.2Q31.1 -7.45 32 -10.2L32.25 -11L32.5 -11.9L32.6 -10.8Q32.8 -9.25 33.3 -8.35Q33.95 -7.35 35.3 -7.05L38.15 -6.75Q39.95 -6.7 40.6 -5.5Q41.3 -4.35 42.6 -4.35L45 -5L47.1 -5.7L47.35 -5.65L49.7 -4.6L50.5 -4.25L50.75 -2.85L50.55 -2.85M-60.05,19.5Q-61.3 17.05 -61.65 14.45L-61.75 11.45L-61.7 11.45L-59.85 11.5L-55.65 11.5L-51.95 11.6L-48.95 11.55L-44.5 11.3L-43.15 11.4L-34.65 11.25L-32.35 11.25L-28.55 11.3L-28.25 11.3L-22.45 11.3L-19.7 11.2Q-19.2 11.25 -18.8 10.9L-18.7 10.85L-18.35 10.25L-18.25 8.9L-18.25 8.1L-18.25 6.5L-18.55 6L-18.95 5.65L-24.9 5.65L-25.05 3.65L-18.5 5.35L-12.4 6.45L-12.4 6.95L-16.25 7.15Q-17.35 7.5 -17.65 8.95L-17.7 9.15L-17.75 9.8L-3.5 9.8L5.35 9.75L5.35 9.45L5.35 9.4L5.35 8.3Q4.85 7.5 3.9 7L6.7 7.1L7.5 7.1L12.05 6.7L16 6.3Q18.75 6.3 21.75 7.15L19.8 7.4L15.05 7.3L14.25 7.3Q12.45 7.3 11.8 7.9L11.5 8.5L11.5 9.2L11.5 9.65L11.35 11.8L11.35 11.95Q11.35 12.7 11.65 13L9 13.1L5.85 13.2L4.75 13.15L4.5 13.15L4.5 13L4.45 11.65L-0.85 11.45L-0.9 12.55L-1 13.2L-1 13.4L-2.9 13.4L-3.55 13.4Q-7.7 13.25 -10.6 13.45L-10.8 13.5L-10.9 12L-13.4 12.1L-16.2 12.2L-16.2 12.5L-16.15 13.4L-16.15 13.65L-16.15 13.75L-16.2 13.75L-16.3 13.75L-18.45 13.85L-19.75 13.85Q-21 14.05 -21.35 16.15L-23.95 16.1Q-24.7 16.75 -24.8 18.9L-24.85 22.25L-24.8 23.9Q-25.55 21.85 -25.9 18.5Q-26.2 15.65 -29.8 15.65L-32.45 15.85L-35.95 16.15L-42.65 16.65L-46.25 16Q-48.6 15.35 -49.65 15.35Q-53.45 15.35 -57.15 17.65L-60.05 19.5M-20.2,-1.75L-22.5 -1.75L-23.1 -3.1L-20.8 -3L-20.7 -3L-20.2 -1.75M-13.75,-17.2Q-14.3 -17.2 -14.65 -16.75L-14.85 -16.5L-16.1 -17.2Q-16.6 -17.2 -17.45 -16.6Q-17.45 -19.1 -17.25 -19.75L-16 -19.7L-10.8 -19.85L-10.2 -19.85L0.85 -19.75L0.95 -17.5L-2.55 -17.35L-2.6 -17.45L-2.7 -17.4L-4.4 -16.7L-7 -16.9L-9.45 -16.25L-9.8 -16.1L-11.25 -17.1L-11.9 -16.8L-13.75 -17.2M-10.7,-26.15L-13 -25.75L-13.5 -25.75L-15.15 -25.9L-15.25 -25.9L-18.75 -26.95L-18.7 -27.2Q-17.5 -27.2 -16.05 -28.05L-16.1 -28.15L-16.3 -29.35Q-16.3 -30.5 -15.35 -32.25L-15 -31.35L-14.2 -29.4L-12.35 -31.2L-12.25 -31.25L-10 -30.5L-9.8 -30.45L-9.45 -30.3L-6.85 -27.55L-5.45 -25.05L-7.85 -25.1L-10.85 -25.1L-10.7 -26.15M14.6,22.5L14.55 16.25Q14.35 14.15 12.45 13.25L14.45 13.35L16.9 13.3L17.85 13.25L21.6 13.1Q23.6 13.05 25.2 11.95L25.35 11.9L25.6 11.7L27.1 10.55L29.2 8.4L31.45 5.65Q32.35 4.4 34 3.9L34.4 3.8L38.3 3.35L41.4 3.3L43.3 3.3L44.25 3.25L44.8 3.25L46.4 3.2L50.55 3.05L52.25 3.05L52.4 3.05Q58.05 3.05 60.2 3.2L64.05 3.35L64.35 3.35L65.1 3.35L65.1 3.5L64.8 6.85L64.15 6.85L57.75 7.5L51.85 8.2Q50.65 8.2 47.45 7.4L42.2 6.55Q40.6 6.55 35.65 8.4Q30.75 10.15 30.1 10.8L29.45 11.55L29.4 11.65L26.8 14.45L26.6 14.7L24.4 17Q20.5 21.1 18.25 22.85Q17.4 23.55 14.6 24.4L14.6 22.5M-13.65,-34.6Q-12.45 -35.95 -11.3 -35.95L-9.3 -35.5Q-9.6 -34.75 -10.2 -33.9L-10.2 -33.85L-10.65 -34.15L-13.65 -34.6M-21.5,16.95L-21.55 17.4L-21.55 16.95L-21.5 16.95" />
<path style="fill:#2B2B33;fill-opacity:1" d="M4.2,-15.9L4.25 -16.1Q2.55 -17.2 0.95 -17.5L0.85 -19.75L8.25 -19.7L12.65 -19.6L15.85 -19.5L15.85 -18.8L15.75 -15.75Q8.85 -15.05 4.2 -15.9" />
<path style="fill:#3D3D48;fill-opacity:1" d="M4.2,-15.9Q8.85 -15.05 15.75 -15.75L15.65 -13.95L15.65 -13.9L15.05 -13.95L7.85 -13.75L3.5 -13.8L4.05 -15.3L4.2 -15.9" />
<path style="fill:#6E6E8C;fill-opacity:1" d="M45.45,8.15L45.6 8.05L45.65 8.05Q46.15 7.9 46.35 8.05L46.25 7.95L46.6 8Q48.5 8.6 48.5 9.45Q48.5 11.25 47.05 13.1L45.6 14.45Q44.15 15.4 42.25 15.4L40.8 15.1L40.2 14.45L40.1 14.1Q40.1 12.45 42.55 10.25Q44.15 8.85 45.45 8.15" />
<path style="fill:#E8E8F3;fill-opacity:1" d="M9.25,40.4L19.4 40.3L33.75 40.15L33.75 42.6L33.35 44.05L-44.5 44.25L-44.8 44.25L-45.3 41L9.25 40.4" />
<path style="fill:#C65E5E;fill-opacity:1" d="M33.35,44.05Q31.9 49.45 30.95 51.3Q29.75 53.75 24.6 54.25L14.65 55.1Q9.85 55.5 5 55.05L-1.8 54.5L-8.65 54.65Q-12.9 54.8 -15.6 54.5Q-20 54.05 -29.7 54.8Q-38.05 54.9 -41.8 51.05Q-43.65 49.15 -44.5 45.65L-44.5 44.25L33.35 44.05" />
<path style="fill:#393943;fill-opacity:1" d="M-14.85,-16.5L-14.65 -16.75Q-14.3 -17.2 -13.75 -17.2L-11.9 -16.8L-13.45 -16.2L-13.2 -15.4L-12.5 -13.4L-14.2 -12.7L-15.05 -12.9L-15.05 -14.75L-15.05 -15.9L-14.95 -16.15L-14.9 -16.4L-14.85 -16.5" />
<path style="fill:#F3B288;fill-opacity:1" d="M-20.5,-23.5L-20.45 -23.7L-20.35 -24.6L-20.35 -25L-19.5 -25.1L-16.35 -25.2L-15.2 -25.2L-13.25 -25.15L-12.95 -25.15L-10.85 -25.1L-7.85 -25.1L-5.45 -25.05L-5.25 -25.05L7.2 -25L9.25 -24.95L10.1 -24.95L10.9 -24.95L12.2 -24.95L14.3 -24.9L17.4 -24.9Q19.25 -24.95 19.75 -24.4Q20.1 -24.05 20.1 -22.7L20.05 -21.5L19.8 -20.6Q19.5 -21.5 18.55 -22Q16.05 -23.3 14.8 -23.3L11.1 -23.1L9.85 -23.1L9.2 -23.15L7.05 -23.25L0.75 -23.65L-4.25 -24.05L-5.25 -24L-7.5 -23.8L-7.85 -23.75L-9.85 -23.6L-10.75 -23.6L-11.05 -23.6L-12.95 -23.55L-15.3 -23.55L-17.25 -23.5L-20.1 -23.5L-20.5 -23.5M3.05,-7.45L2.2 -9.1L2.1 -9.25L5.2 -9.25L14.1 -8.95L15.15 -8.85L17.65 -8.3Q18.2 -7.95 18.2 -6.15L18.1 -4.55L17.15 -6.55L16.8 -6.9L16.05 -7.1L14.9 -7.05L14.65 -7.1L9 -7.75L3.7 -7.45L3.05 -7.45M50.75,-2.85L52.2 -2.85L63.25 -2.85L68.05 -2.65L68.7 -0.2L68.65 1.5L68.65 1.6L68.65 2.15L68.1 2.15L67.8 2.15L67.8 1.6L67.75 1.35Q67.65 -1.15 64.6 -1.15L51 -1.3L43.15 -1.35L39.9 -1.5L37.3 -1.75L35.1 -1.45L34.1 -1.3L30.4 -0.8L29.8 -0.85L29.5 -0.95L29.9 -1.4Q30.95 -2.55 32 -2.75L33.75 -2.8L35.6 -2.85L41.3 -3L45.9 -2.9L49.8 -2.85L50.55 -2.85L50.75 -2.85M-18.85,10.8Q-19.05 9.5 -19.65 8.8L-19.8 8.6Q-20.7 7.6 -22.75 7.65L-23.65 7.6L-24.75 7.5L-24.9 7.45L-25.95 7.3L-28.35 7L-29.15 6.95L-35.1 7.3L-42.45 7.9L-45.05 7.5L-46 7.3L-49.55 6.7L-53.7 6.95L-55.95 6.65L-58.6 6.3Q-62 7.2 -62.2 6.8L-62.25 6.7L-64.15 6.7Q-64.1 6 -63.85 5.6L-24.9 5.65L-18.95 5.65L-18.55 6L-18.25 6.5L-18.25 8.1L-18.25 8.9L-18.35 10.25L-18.7 10.85L-18.85 10.8M-22.5,-7.5L-24.6 -7.3L-24.6 -7.5L-24.5 -8.15L-24.5 -8.6Q-24.45 -9 -24.05 -9.1L-23.15 -9.15L-22.5 -7.5M11.5,8.5L11.8 7.9Q12.45 7.3 14.25 7.3L15.05 7.3L19.8 7.4L21.75 7.15L22.15 7L22.1 7.25Q21.8 8.2 21.15 8.7L19.55 9.15L18.1 9.45L17.8 9.45L11.5 9.2L11.5 8.5M-10.9,18.65L-10.9 18.85L-10.9 19.35L-10.9 20.05L-10.9 22.25L-11 25.55L-11.15 31.3L-12.8 31.2L-13.1 28.45L-12.95 23.9L-12.8 18.75L-12.9 15.2Q-13.05 14 -13.6 13.65Q-13.85 13.4 -14.25 13.4L-15.2 13.6L-16.15 13.4L-16.2 12.5L-16.2 12.2L-13.4 12.1L-10.9 12L-10.8 13.5L-10.9 18.65M4.55,22.25L4.55 22.45L4.5 23.6Q4.3 28 4.5 31.5L4.5 31.6L2.9 31.6L2.6 26.4L2.65 22.95L2.65 18.3L2.6 15.5Q2.4 14.1 1.6 13.3L-0.85 12.55L-0.9 12.55L-0.85 11.45L4.45 11.65L4.5 13L4.5 13.15L4.5 13.2L4.5 13.3L4.55 22.25M-20.85,-7.65L-20.8 -7.55L-21.1 -7.55L-20.85 -7.65" />
<path style="fill:#DE7D3D;fill-opacity:1" d="M-17.25,-19.75L-18.65 -19.85Q-19.75 -19.85 -20.35 -20.3Q-20.85 -20.85 -20.85 -21.55L-20.5 -23.5L-20.1 -23.5L-17.25 -23.5L-15.3 -23.55L-12.95 -23.55L-11.05 -23.6L-10.75 -23.6L-9.85 -23.6L-7.85 -23.75L-7.5 -23.8L-5.25 -24L-4.25 -24.05L0.75 -23.65L7.05 -23.25L9.2 -23.15L9.85 -23.1L11.1 -23.1L14.8 -23.3Q16.05 -23.3 18.55 -22Q19.5 -21.5 19.8 -20.6L19.6 -20.25L19.35 -19.75Q19.15 -19.5 18.65 -19.5L16.9 -19.5L15.85 -19.5L12.65 -19.6L8.25 -19.7L0.85 -19.75L-10.2 -19.85L-10.8 -19.85L-16 -19.7L-17.25 -19.75M16.55,-3.35L16.35 -3.35L16.15 -3.35L9.85 -3.1L5.4 -3.15L-1.35 -3.1L-1.75 -3.1L-1.55 -3.2L-1.5 -3.25L-1.4 -3.25L2.65 -5.15L3.65 -5.95L3.05 -7.45L3.7 -7.45L9 -7.75L14.65 -7.1L14.9 -7.05L16.05 -7.1L16.8 -6.9L17.15 -6.55L18.1 -4.55L17.95 -4.1Q17.6 -3.5 16.85 -3.35L16.55 -3.35M11.5,9.65L11.5 9.2L17.8 9.45L18.1 9.45L19.55 9.15L21.15 8.7Q21.8 8.2 22.1 7.25L22.15 7L24.05 5.7L25.25 4.4L26.2 3.25L26.8 2.45L27.5 1.6L28.25 0.6L29.5 -0.95L29.8 -0.85L30.4 -0.8L34.1 -1.3L35.1 -1.45L37.3 -1.75L39.9 -1.5L43.15 -1.35L51 -1.3L64.6 -1.15Q67.65 -1.15 67.75 1.35L67.8 1.6L67.8 2.15L68.1 2.15L68.65 2.15L68.4 3.35L67.9 3.35L67.8 2.15L64.95 2.05L56.45 1.3L45.15 0.4L41.8 0.5L38.7 0.3Q37.15 0.3 35.5 1.3L34 2.1L33.1 2.3L32.05 2.1L31.75 2L30.9 1.9Q29.8 1.9 28.95 3.35L28.85 3.5L27.1 7.05L27.05 7.2L25.2 9.55Q22.3 12.15 17.45 12.15L16.45 12.1L14.85 11.95L12.1 11.75L11.35 11.8L11.5 9.65M-64.25,8.15L-64.25 7.8L-64.15 6.7L-62.25 6.7L-62.2 6.8Q-62 7.2 -58.6 6.3L-55.95 6.65L-53.7 6.95L-49.55 6.7L-46 7.3L-45.05 7.5L-42.45 7.9L-35.1 7.3L-29.15 6.95L-28.35 7L-25.95 7.3L-24.9 7.45L-24.75 7.5L-23.65 7.6L-22.75 7.65Q-20.7 7.6 -19.8 8.6L-19.65 8.8Q-19.05 9.5 -18.85 10.8L-18.7 10.85L-18.8 10.9L-18.85 10.8L-19.7 10.55L-23 10.3L-25.15 10.05L-26.45 9.85L-28.3 9.65L-29.95 9.6L-33.5 9.9L-36 9.6L-38.2 9.2L-42.55 9.6L-46.6 9.45L-48.6 9.35L-50.55 9.45L-52.9 9.9L-54.8 10.15L-56.7 9.95L-58.65 9.45L-59.7 9.4L-60.7 9.2L-60.85 9.15L-62.95 8L-64.25 8.15M-20.8,-3L-23.1 -3.1L-23.15 -3.1Q-24.95 -3.4 -24.9 -4.55L-24.6 -7.3L-22.5 -7.5L-22.35 -7.05L-21.1 -7.55L-20.8 -7.55L-20.4 -6.6L-22.05 -5.95L-21.5 -4.65L-19.85 -5.3L-19.3 -3.95L-20.2 -3.5L-20.8 -3.2L-20.7 -3L-20.8 -3M-13.3,31.25L-16.4 31.15L-16.3 27.85Q-16.15 25.9 -16.15 21.15L-16.15 13.75L-16.15 13.65L-16.15 13.4L-15.2 13.6L-14.25 13.4Q-13.85 13.4 -13.6 13.65Q-13.05 14 -12.9 15.2L-12.8 18.75L-12.95 23.9L-13.1 28.45L-12.8 31.2L-13.3 31.25M-0.85,31.6L-0.85 31.45L-1 26.35L-1.05 19.55L-1 13.4L-1 13.2L-0.9 12.55L-0.85 12.55L1.6 13.3Q2.4 14.1 2.6 15.5L2.65 18.3L2.65 22.95L2.6 26.4L2.9 31.6L-0.85 31.6" />
<path style="fill:#BB662E;fill-opacity:1" d="M-34.65,11.25L-43.15 11.4L-44.5 11.3L-48.95 11.55L-51.95 11.6L-55.65 11.5L-59.85 11.5L-61.7 11.45L-61.75 11.45Q-63.5 11.3 -63.85 10.9Q-64.2 10.6 -64.25 8.15L-62.95 8L-60.85 9.15L-60.7 9.2L-59.7 9.4L-58.65 9.45L-56.7 9.95L-54.8 10.15L-52.9 9.9L-50.55 9.45L-48.6 9.35L-46.6 9.45L-42.55 9.6L-38.2 9.2L-36 9.6L-33.5 9.9L-29.95 9.6L-28.3 9.65L-26.45 9.85L-25.15 10.05L-23 10.3L-19.7 10.55L-18.85 10.8L-18.8 10.9Q-19.2 11.25 -19.7 11.2L-22.45 11.3L-28.25 11.3L-28.55 11.3L-32.35 11.25L-34.65 11.25M65.1,3.35L64.35 3.35L64.05 3.35L60.2 3.2Q58.05 3.05 52.4 3.05L52.25 3.05L50.55 3.05L46.4 3.2L44.8 3.25L44.25 3.25L43.3 3.3L41.4 3.3L38.3 3.35L34.4 3.8L34 3.9Q32.35 4.4 31.45 5.65L29.2 8.4L27.1 10.55L25.6 11.7L25.35 11.9L25.2 11.95Q23.6 13.05 21.6 13.1L17.85 13.25L16.9 13.3L14.45 13.35L12.45 13.25L11.75 13L11.65 13Q11.35 12.7 11.35 11.95L11.35 11.8L12.1 11.75L14.85 11.95L16.45 12.1L17.45 12.15Q22.3 12.15 25.2 9.55L27.05 7.2L27.1 7.05L28.85 3.5L28.95 3.35Q29.8 1.9 30.9 1.9L31.75 2L32.05 2.1L33.1 2.3L34 2.1L35.5 1.3Q37.15 0.3 38.7 0.3L41.8 0.5L45.15 0.4L56.45 1.3L64.95 2.05L67.8 2.15L67.9 3.35L65.1 3.35" />
<path style="fill:#B86128;fill-opacity:1" d="M2.9,31.6L4.5 31.6L4.4 35.15L-0.8 35.25L-0.85 31.6L2.9 31.6M-16.4,31.15L-13.3 31.25L-12.8 31.2L-11.15 31.3L-11.2 35.8L-13.7 35.85L-15.65 35.8L-16.4 35.8Q-16.6 33.5 -16.4 31.4L-16.4 31.15" />
<path style="fill:#C23030;fill-opacity:1" d="M-20.1,-1.4L-20.2 -1.75L-20.7 -3L-20.8 -3.2L-20.2 -3.5L-19.8 -3L-19.75 -2.9L-18.6 -1.35L-18.5 -1.25L-17.8 -0.85L-17.75 -0.85L-17 -1.1L-15.25 -1.95L-15.55 -0.35L-17.05 0.35L-19.1 1.2L-20.1 -1.4M-19.7,-10.45L-20.9 -11.55L-22 -11.65L-23.4 -10.9L-23.75 -10.75L-24.2 -11.9L-21.1 -13.3L-18.25 -11.05L-19.7 -10.45M-2.55,-17.35L0.95 -17.5Q2.55 -17.2 4.25 -16.1L4.2 -15.9L4.05 -15.3L3.5 -14.8Q2.95 -14.25 2.45 -14.05L2.35 -14L-0.35 -14.1Q-0.55 -14.15 -0.85 -14.35L-0.95 -14.35L-1.4 -14.6L-2.55 -17.35M1.25,-16.6L1 -16.7L-0.45 -16.75L-0.75 -16.45L-0.75 -16.1Q0.5 -15 1.35 -14.85L1.9 -14.95Q2.35 -15.15 2.1 -15.75L1.25 -16.6M-6.5,-5L-6.6 -4.75L-8.5 -3.8L-8.7 -4.3L-9.05 -5.1L-7.75 -5.45L-7.5 -5.75L-7.55 -6.4L-7.3 -7.65L-5.8 -8.25L-6.5 -5M-9.75,-14.5L-11.15 -15.5L-11.8 -15.65L-12.45 -15.7L-13.2 -15.4L-13.45 -16.2L-11.9 -16.8L-11.25 -17.1L-9.8 -16.1L-8.35 -15.05L-9.75 -14.5" />
<path style="fill:#F0A1A1;fill-opacity:1" d="M2.1,-15.75Q2.35 -15.15 1.9 -14.95L1.35 -14.85Q0.5 -15 -0.75 -16.1L-0.75 -16.45L-0.45 -16.75L1 -16.7L1.25 -16.6L2.1 -15.75" />
<path style="fill:#9C2525;fill-opacity:1" d="M-23.15,-9.15L-23.75 -10.75L-23.4 -10.9L-22 -11.65L-20.9 -11.55L-19.7 -10.45L-21.65 -9.65L-20.85 -7.65L-21.1 -7.55L-22.35 -7.05L-22.5 -7.5L-23.15 -9.15M3.5,-13.8Q2.65 -12.2 1 -11.15L0.15 -10.7L-1.25 -14.15L-1.4 -14.6L-0.95 -14.35L-0.85 -14.35Q-0.55 -14.15 -0.35 -14.1L2.35 -14L2.45 -14.05Q2.95 -14.25 3.5 -14.8L4.05 -15.3L3.5 -13.8M-15.2,-2.25L-15.25 -1.95L-17 -1.1L-17.75 -0.85L-17.8 -0.85L-18.5 -1.25L-18.6 -1.35L-19.75 -2.9L-19.8 -3L-20.2 -3.5L-19.3 -3.95L-18.95 -3L-18.9 -2.9L-14.75 -4.6L-15.2 -2.25M-15.9,-6.9L-19.85 -5.3L-21.5 -4.65L-22.05 -5.95L-20.4 -6.6L-16.45 -8.2L-16.35 -7.9L-15.9 -6.9M-12.5,-13.4L-13.2 -15.4L-12.45 -15.7L-11.8 -15.65L-11.15 -15.5L-9.75 -14.5L-12.5 -13.4M-9.8,-6.6L-7.3 -7.65L-7.55 -6.4L-7.5 -5.75L-7.75 -5.45L-9.05 -5.1L-9.8 -6.6" />
<path style="fill:#BFBFC2;fill-opacity:1" d="M-9.75,-14.5L-8.35 -15.05L-4.4 -16.7L-2.7 -17.4L-2.6 -17.45L-2.55 -17.35L-1.4 -14.6L-1.25 -14.15L-2.95 -12.65L-4.2 -11.7L-5.15 -11.3Q-6.45 -10.75 -10.2 -9.65L-11.75 -9.15L-12.95 -8.8L-14.15 -8.6L-15.25 -8.45L-16.35 -7.9L-16.45 -8.2L-20.4 -6.6L-20.8 -7.55L-20.85 -7.65L-21.65 -9.65L-19.7 -10.45L-18.25 -11.05L-17.45 -11.35L-14.2 -12.7L-12.5 -13.4L-9.75 -14.5" />
<path style="fill:#A2A2A3;fill-opacity:1" d="M-5.8,-8.25L-7.3 -7.65L-9.8 -6.6L-14.75 -4.6L-18.9 -2.9L-18.95 -3L-19.3 -3.95L-19.85 -5.3L-15.9 -6.9L-16.35 -7.9L-15.25 -8.45L-14.15 -8.6L-12.95 -8.8L-11.75 -9.15L-10.2 -9.65Q-6.45 -10.75 -5.15 -11.3L-4.2 -11.7L-2.95 -12.65L-1.25 -14.15L0.15 -10.7L-5.8 -8.25" />
<path style="fill:#7B7979;fill-opacity:1" d="M-53.75,-19.75L-69.8 -19.55L-69.75 -20.9L-53.75 -21.15L-53.75 -19.75M-49.1,-20.85L-49.15 -21.2L-33.2 -21.45L-33.05 -20L-48.9 -19.8L-49.1 -20.85" />
<path style="fill:#E5E3E3;fill-opacity:1" d="M-28.75,-13.9L-28.75 -14.15L-29 -15L-28.7 -15L-28.55 -14L-28.75 -13.9M-32,-10.95L-31.4 -11.5L-31.4 -11.55Q-30.9 -12.25 -30.75 -12.7L-30.65 -12.85L-30.1 -12.75Q-29.55 -12.75 -29.15 -13.15L-29.05 -13.25L-28.8 -12.85Q-29.35 -12.1 -31.05 -11.35L-31.55 -11.15L-32 -10.95M-34.55,-9.9L-35.55 -9.4L-36.55 -8.25Q-37.6 -6.8 -37.7 -4.9L-37.7 -4.05L-37.65 -3.3L-37.75 -3.3L-38.7 -3.2Q-39.75 -2.9 -41 -1.7Q-42.75 0 -44.3 -0.15Q-45.3 -0.25 -47.95 -1.65L-49.25 -2.35L-50.6 -3.1L-52.2 -2.75L-52.5 -5L-52.95 -7.7Q-53.05 -9.7 -53.85 -10.4L-56.1 -10.95Q-60.1 -11.25 -61.5 -10.1L-63.15 -10.2Q-63.9 -10.3 -63.95 -10.9L-63.8 -10.9L-61.8 -11.2L-59.6 -11.75L-55.3 -12.1L-48.6 -12.1L-46.6 -12.05L-46.05 -12L-42 -12.2L-38.1 -12.6L-37.8 -12.6Q-34.75 -13 -32.2 -14.25L-31.4 -14.55L-31.45 -14.15L-31.4 -13.85L-31.6 -13.8L-32.85 -13.15Q-35.05 -11.65 -34.5 -10.85L-33.75 -10.25L-34.55 -9.9M-41.95,-4.35L-41.5 -4.35Q-40.9 -4.35 -40.75 -4.95L-40.75 -6.1L-40.75 -7.65Q-40.95 -8.45 -41.65 -8.45L-42.95 -8.4L-42.95 -9.9Q-43 -10.95 -43.55 -10.95L-46 -10.9Q-46.8 -11 -47 -10.55L-47.05 -9.65L-47.05 -9.45L-47 -8.2L-49.25 -8L-49.25 -6.95Q-49.1 -6.25 -49.1 -5.5Q-49.1 -4.75 -48.7 -4.55L-47.65 -4.35Q-47.05 -4.3 -47.2 -3.65L-47.2 -2.85Q-47.05 -2.4 -46.25 -2.3L-43.1 -2.3L-43.1 -4.5L-42.4 -4.5L-41.95 -4.35" />
<path style="fill:#333333;fill-opacity:1" d="M-52.25,-1.8L-52.25 -1.75L-53 -2.1L-55.2 -2.25L-56.95 -2.6Q-57.8 -2.9 -58.5 -3.5Q-59.6 -4.35 -60.2 -7.35Q-60.65 -9.2 -61.85 -9.7L-61.5 -10.1Q-60.1 -11.25 -56.1 -10.95L-53.85 -10.4Q-53.05 -9.7 -52.95 -7.7L-52.5 -5L-52.2 -2.75L-52.25 -1.8M-54.8,-6.75L-54.7 -7.55Q-54.65 -8.9 -55.75 -9.6Q-56.9 -10.4 -56.95 -8.85Q-56.75 -6.3 -55.5 -6.2Q-54.95 -6.15 -54.8 -6.75" />
<path style="fill:#9F7A9F;fill-opacity:1" d="M-63.95,-10.9L-64.1 -10.95L-64.05 -11.15L-63.95 -10.9" />
<path style="fill:#FFFFFF;fill-opacity:1" d="M-50.45,-19.75Q-50.85 -20.45 -51.6 -20.9L-52.05 -21.15L-53.25 -22L-52.6 -22.2L-51.15 -22.15Q-49.45 -22.05 -49.15 -21.2L-49.1 -20.85L-48.9 -19.8L-48.8 -19.5Q-48.6 -18.7 -48.7 -18.2L-49.4 -18.3L-50.1 -18.35Q-50.1 -19.15 -50.45 -19.75M-30.9,-15.3L-31.1 -15.15L-31.4 -14.55L-32.2 -14.25Q-34.75 -13 -37.8 -12.6L-38.1 -12.6L-42 -12.2L-46.05 -12L-46.6 -12.05L-48.6 -12.1L-55.3 -12.1L-59.6 -11.75L-61.8 -11.2L-63.8 -10.9L-63.95 -10.9L-64.05 -11.15L-63.8 -12.05Q-63.3 -13.05 -61.65 -13.4L-58.55 -13.4L-56.7 -13.4L-54.7 -13.6L-53.8 -13.45L-48.6 -13.65L-48.55 -13.65L-46.65 -13.75L-44.9 -13.95L-42.3 -14.2L-38.35 -14.8L-31.15 -15.9L-30.9 -15.3M-29.45,-15.4L-29.35 -15.8L-29 -15.6L-28.7 -15L-29 -15L-29.15 -15.15L-29.45 -15.35L-29.45 -15.4" />
<path style="fill:#383737;fill-opacity:1" d="M-52.25,-1.75Q-52.3 -0.4 -52.9 -0.1L-55.2 0.25L-57.35 0.45L-59.7 0.6Q-61.45 0.45 -61.7 -0.85L-61.9 -2L-61.95 -2.6L-62.05 -4.05L-62.2 -6.7L-62.2 -7.75L-62.2 -8.7L-61.85 -9.7Q-60.65 -9.2 -60.2 -7.35Q-59.6 -4.35 -58.5 -3.5Q-57.8 -2.9 -56.95 -2.6L-55.2 -2.25L-53 -2.1L-52.25 -1.75" />
<path style="fill:#C9C5C5;fill-opacity:1" d="M-40.35,1.6L-63.25 2.45L-63.4 2.05L-63.45 1.6L-63.6 0.6L-63.65 0.05Q-63.55 -0.8 -63.15 -1.15L-61.9 -2L-61.7 -0.85Q-61.45 0.45 -59.7 0.6L-57.35 0.45L-55.2 0.25L-52.9 -0.1Q-52.3 -0.4 -52.25 -1.75L-52.25 -1.8L-52.2 -2.75L-50.6 -3.1L-49.25 -2.35L-47.95 -1.65Q-45.3 -0.25 -44.3 -0.15Q-42.75 0 -41 -1.7Q-39.75 -2.9 -38.7 -3.2L-37.75 -3.3L-37.65 -3.3L-37.45 -0.35L-37.85 1.3L-40.35 1.6" />
<path style="fill:#E26161;fill-opacity:1" d="M-58.45,-16.55Q-58.35 -17.85 -54.3 -18.2L-53.55 -18.3L-50.1 -18.35L-49.4 -18.3L-48.7 -18.2L-48.65 -18.2Q-46.75 -18 -45.95 -17.4Q-44.7 -16.45 -44.9 -13.95L-46.65 -13.75L-47 -14.85Q-47.6 -16.9 -48.9 -17L-50.2 -17Q-53.05 -16.9 -58.15 -15.55L-58.45 -16.55M-32.7,-10.4L-32.5 -10.55L-32 -10.95L-31.55 -11.15L-31.05 -11.25L-30.75 -9.5Q-30.5 -8.35 -30.55 -7.55L-31.3 -7.35L-32.7 -10.4M-37.85,1.3L-37.95 1.6L-38.65 2.75L-38.85 2.75L-42.7 3.15L-45.9 3.55L-50.8 3.55L-55.7 3.75L-60.2 3.9L-62.4 3.8L-63.25 2.45L-40.35 1.6L-37.85 1.3M-47,-10.55Q-46.8 -11 -46 -10.9L-43.55 -10.95Q-43 -10.95 -42.95 -9.9L-42.95 -8.4L-41.65 -8.45Q-40.95 -8.45 -40.75 -7.65L-40.75 -6.1L-40.75 -4.95Q-40.9 -4.35 -41.5 -4.35L-41.95 -4.35L-42 -5.3Q-42 -7.15 -42.95 -7.2L-43.95 -7.45Q-44.25 -7.7 -44.35 -8.4Q-44.45 -9.05 -45 -9.5Q-45.4 -9.9 -45.9 -9.9L-47.05 -9.65L-47 -10.55" />
<path style="fill:#C63333;fill-opacity:1" d="M-33.75,-10.25L-33.55 -10.2L-32.7 -10.4L-31.3 -7.35L-31.45 -7.3L-32.35 -7.05L-33.55 -8.45L-34.55 -9.9L-33.75 -10.25M-38.65,2.75L-39.65 3.75Q-41.4 5 -43.7 5.1L-48.55 5.4L-48.65 5.45L-52.9 5.6L-59.35 5.35Q-61.35 4.95 -62.4 3.8L-60.2 3.9L-55.7 3.75L-50.8 3.55L-45.9 3.55L-42.7 3.15L-38.85 2.75L-38.65 2.75M-58.15,-15.55Q-53.05 -16.9 -50.2 -17L-48.9 -17Q-47.6 -16.9 -47 -14.85L-46.65 -13.75L-48.55 -13.65L-48.6 -13.65L-53.8 -13.45L-54.7 -13.6L-56.7 -13.4L-58.55 -13.4L-58.45 -15.45L-58.15 -15.55M-42.4,-4.5L-43.1 -4.5L-43.1 -2.3L-46.25 -2.3Q-47.05 -2.4 -47.2 -2.85L-47.2 -3.65Q-47.05 -4.3 -47.65 -4.35L-48.7 -4.55Q-49.1 -4.75 -49.1 -5.5Q-49.1 -6.25 -49.25 -6.95L-49.25 -8L-47 -8.2L-47.05 -9.45L-47.05 -9.65L-45.9 -9.9Q-45.4 -9.9 -45 -9.5Q-44.45 -9.05 -44.35 -8.4Q-44.25 -7.7 -43.95 -7.45L-42.95 -7.2Q-42 -7.15 -42 -5.3L-41.95 -4.35L-42.4 -4.5M-29.05,-13.25L-29.15 -13.15Q-29.55 -12.75 -30.1 -12.75L-30.65 -12.85L-31.1 -13.15L-31.4 -13.85L-31.45 -14.15L-31.4 -14.55L-31.1 -15.15L-30.9 -15.3L-30.1 -15.55L-29.45 -15.35L-29.15 -15.15L-29 -15L-28.75 -14.15L-28.75 -13.9L-29.05 -13.25M-29.65,-15L-29.7 -15L-30.3 -14.85L-30.35 -14.65Q-30.35 -14.05 -29.5 -14.05Q-29 -14.05 -29 -14.5Q-29 -14.85 -29.45 -14.95L-29.65 -15" />
<path style="fill:#BBB9B9;fill-opacity:1" d="M-53.55,-18.3L-53.75 -19.75L-53.75 -21.15L-53.75 -21.3Q-53.7 -21.8 -53.25 -22L-52.05 -21.15L-51.6 -20.9Q-50.85 -20.45 -50.45 -19.75Q-50.1 -19.15 -50.1 -18.35L-53.55 -18.3" />
<path style="fill:#705470;fill-opacity:1" d="M-58.45,-15.45L-58.45 -16.55L-58.15 -15.55L-58.45 -15.45" />
<path style="fill:#878686;fill-opacity:1" d="M-55.5,-6.2Q-56.75 -6.3 -56.95 -8.85Q-56.9 -10.4 -55.75 -9.6Q-54.65 -8.9 -54.7 -7.55L-54.8 -6.75Q-54.95 -6.15 -55.5 -6.2" />
<path style="fill:#BBB7B7;fill-opacity:1" d="M-31.15,-15.9L-31.45 -16.5L-31.5 -16.45L-31.7 -17.95L-31.35 -19Q-31 -19.45 -30.35 -19.45Q-29.35 -19.45 -29.35 -16.85L-29.35 -15.8L-29.45 -15.4L-29.45 -15.35L-30.1 -15.55L-30.9 -15.3L-31.15 -15.9M-29.05,-13.25L-28.75 -13.9L-28.55 -14L-28.45 -14.1L-28.15 -14.1L-26.8 -14L-26.75 -14L-25.45 -13.4Q-24.9 -13.1 -24.7 -12.55Q-24.55 -12 -24.9 -11.45Q-25.4 -10.6 -27.6 -11.95L-28.8 -12.85L-29.05 -13.25M-30.15,-18.5Q-30.6 -18.75 -30.6 -18.1Q-30.65 -16.9 -30.1 -16.9Q-29.7 -16.9 -29.7 -17.7Q-29.7 -18.25 -30.15 -18.5M-33.55,-10.2L-33.75 -10.25L-34.5 -10.85Q-35.05 -11.65 -32.85 -13.15L-31.6 -13.8L-31.4 -13.85L-31.1 -13.15L-30.65 -12.85L-30.75 -12.7Q-30.9 -12.25 -31.4 -11.55L-31.4 -11.5L-32 -10.95L-32.5 -10.55L-32.7 -10.4L-33.55 -10.2M-27.2,-12.55Q-27.4 -12.25 -26.75 -11.9L-25.8 -11.8Q-25.3 -12.05 -25.9 -12.4Q-26.9 -13.05 -27.2 -12.55M-33.2,-11.4Q-32.3 -12 -32.55 -12.5Q-32.75 -12.8 -33.35 -12.35Q-33.8 -12.05 -33.85 -11.55Q-33.75 -11 -33.2 -11.4" />
<path style="fill:#FFF7F7;fill-opacity:1" d="M-29.7,-17.7Q-29.7 -16.9 -30.1 -16.9Q-30.65 -16.9 -30.6 -18.1Q-30.6 -18.75 -30.15 -18.5Q-29.7 -18.25 -29.7 -17.7M-25.9,-12.4Q-25.3 -12.05 -25.8 -11.8L-26.75 -11.9Q-27.4 -12.25 -27.2 -12.55Q-26.9 -13.05 -25.9 -12.4M-33.85,-11.55Q-33.8 -12.05 -33.35 -12.35Q-32.75 -12.8 -32.55 -12.5Q-32.3 -12 -33.2 -11.4Q-33.75 -11 -33.85 -11.55" />
<path style="fill:#EC8484;fill-opacity:1" d="M-29.45,-14.95Q-29 -14.85 -29 -14.5Q-29 -14.05 -29.5 -14.05Q-30.35 -14.05 -30.35 -14.65L-30.3 -14.85L-29.7 -15L-29.65 -15L-29.45 -14.95" />
<path style="fill:none;stroke-width:1;stroke-linecap:butt;stroke-linejoin:miter;stroke-miterlimit:3;stroke:#585454;stroke-opacity:1" d="M-8.75,-51.95Q-8.4 -55.45 -5.7 -55.2L5.25 -54.6L13.85 -54.25L15 -54.25Q15.7 -53.85 16.15 -52.75L16.2 -52.7L16.6 -52.75M18.75,-50.95L19.9 -50.95Q21.25 -50.65 21.45 -50.3L21.55 -48.7L21.55 -46.25L21.4 -44.2Q21.35 -43.65 20.35 -43.25L18.6 -43.15L18.6 -43.2M16.5,-44.8L16.35 -43.7L15.8 -42.2Q15.05 -41.15 13.65 -40.9L8.3 -40.2L8.45 -39.55L9.1 -36.45L9.3 -36.7L12.4 -39.9M12.65,-39.75L13.3 -40Q15.1 -40 16.3 -35.75Q17.2 -32.5 17.2 -29.85L17.1 -28.1Q16.9 -27.15 16.35 -26.95L16.05 -26.65Q13 -25.95 10.6 -27.2L10.9 -24.95M15.85,-19.5L15.85 -18.8L15.75 -15.75L15.65 -13.95L15.65 -13.9L15.15 -8.85M16.85,-3.35L16.8 -3.2M16.25,-3.2L16.15 -1.45L16.1 -0.15L17.7 -0.1L23.2 0.45L24.2 0.7Q24.9 1 25.4 1.6M29.9,-1.4L30.05 -2.2Q31.1 -7.45 32 -10.2L32.25 -11L31.4 -11.7Q29.55 -13.9 29.05 -16.2M28.95,-18.85Q29 -21.15 29.35 -22.8L30.05 -25Q30.6 -26.15 31.45 -26.75L31.8 -26.95Q32.95 -27.65 34.8 -27.7L40.85 -26.7L46.65 -25.6L50.7 -25L53.9 -24.45Q55.65 -24.25 56.2 -23.35M55.9,-13.8L55.65 -13.6L50.7 -12.35L49.2 -12L49.2 -11.8L50.5 -4.25L50.75 -2.85M65.1,3.35L65.1 3.5L64.8 6.85Q64.05 10.5 61.55 12.6L58.85 14.45L57.45 15.25Q53.55 17.4 52.15 18.3Q42.15 24.6 37.15 32.7L37.25 32.75Q36.55 33.7 34.4 40.15L33.75 42.6L33.35 44.05Q31.9 49.45 30.95 51.3Q29.75 53.75 24.6 54.25L14.65 55.1Q9.85 55.5 5 55.05L-1.8 54.5L-8.65 54.65Q-12.9 54.8 -15.6 54.5Q-20 54.05 -29.7 54.8Q-38.05 54.9 -41.8 51.05Q-43.65 49.15 -44.5 45.65L-44.8 44.25L-45.3 41L-45.55 39.2Q-46.7 30.8 -50.6 28.7Q-55.95 25.8 -59.05 21.15L-60.05 19.5Q-61.3 17.05 -61.65 14.45L-61.75 11.45M-24.9,5.65L-25.05 3.65L-25.3 1.6L-25.35 1.5L-24.9 0.5Q-24.9 -1.4 -20.1 -1.4L-20.2 -1.75M-22.5,-1.75L-23.1 -3.1M-23.15,-9.15L-23.75 -10.75L-24.2 -11.9L-21.1 -13.3L-18.25 -11.05L-17.45 -11.35L-17.5 -14.55L-17.5 -14.75L-17.5 -15.7L-17.45 -16.6Q-17.45 -19.1 -17.25 -19.75M-15.2,-25.2L-15.15 -25.9L-15.25 -25.9L-18.75 -26.95L-19.4 -27.2L-19.75 -27.3Q-20.25 -27.45 -20.65 -27.75Q-21.5 -28.4 -21.5 -29.6Q-21.5 -32.25 -19.5 -35Q-18.05 -37.15 -16.05 -38.5Q-15.95 -38.6 -15.8 -38.65L-15.25 -39L-13.85 -39.6L-11.65 -40Q-10.05 -40 -9.5 -39.55L-9.05 -39L-8.85 -38.35L-8.55 -37.7L-8.25 -36.95L-8.2 -37.2Q-7.7 -38.2 -7.35 -39.6Q-8.1 -40.5 -8.45 -42.2M-8.75,-51.95L-8.8 -50.8L-8.8 -49.9L-8.75 -46.8L-8.6 -43.1L-8.45 -42.2M-7,-41.4L-6.5 -44.8L-6.35 -45.3L-5.8 -46.65L-5.4 -47.25Q-4.3 -48.5 -2.25 -48.65L-1.85 -48.65L-0.7 -48.6Q4.1 -48.55 5.25 -47.65Q5.9 -47.15 6.6 -45.65M16.5,-44.8L16.55 -48.85L16.6 -50.35L16.6 -51.1L16.25 -52.6L16.2 -52.7M47.45,-19.9L48.75 -14.25L49.2 -12M56.35,-22.7L56.2 -23.35M12.65,-39.75L12.3 -39.25L12.1 -38.7L12.1 -38.65L12 -37.65L12 -37.15L12.1 -35.45L14.05 -34.7Q15.25 -34.1 15.25 -33.35Q15.25 -32.55 14.55 -31.75L13.6 -31L12.95 -30.6L13 -30.5Q14.15 -26.9 16 -26.9L16.35 -26.95M2.75,-39.4L2.8 -39.45L3.15 -39.85L3.85 -41.05L3.95 -41.85L3.9 -42.4L3.55 -43.1L2.9 -43.6L2.7 -43.7L0.75 -44.1L-0.55 -43.8L-1.35 -43.2L-1.5 -42.9L-1.75 -42.35L-1.85 -41.75Q-1.85 -40.5 -0.85 -39.55L-0.1 -39.05Q0.45 -38.8 1 -38.8Q2 -38.8 2.75 -39.4M7.2,-25Q7.35 -26.5 7.8 -28.2L7.85 -28.45L8.15 -29.7Q7.55 -31 7.55 -32.6Q7.55 -33.75 8.1 -34.9L9.1 -36.45M8.3,-40.2Q7.45 -43.75 6.6 -45.65M8.15,-29.7L8.9 -31.75L9.35 -32.25L9.45 -32.35L9.75 -32.5L9.85 -32.55L10.1 -32.6Q10.8 -32.6 11 -31.85L11.1 -30.55L10.65 -27.85L10.6 -27.35L10.55 -27.25L10.6 -27.2M10.1,-24.95L10.55 -27.25M-7,-41.4L-7.05 -41.15L-7.35 -39.6M12.1,-35.45Q12.25 -33.35 12.75 -31.35L12.95 -30.6M0.85,-19.75L0.95 -17.5Q2.55 -17.2 4.25 -16.1L4.2 -15.9M15.05,-13.95L7.85 -13.75L3.5 -13.8Q2.65 -12.2 1 -11.15L2.1 -9.25M-1.4,-14.6L-1.25 -14.15L0.15 -10.7L1 -11.15M3.5,-13.8L4.05 -15.3L4.2 -15.9M3.05,-7.45L2.2 -9.1L2.1 -9.25M3.05,-7.45L3.65 -5.95L2.65 -5.15L-1.4 -3.25L-1.5 -3.25L-1.55 -3.2L-1.75 -3.1M-6.5,-5L-6.6 -4.75L-8.5 -3.8L-8.7 -4.3M-15.2,-2.25L-15.25 -1.95L-15.55 -0.35L-17.05 0.35L-16.15 1.6Q-15.55 2.3 -15.15 2.3L-12.95 1.5L-12.4 1.3L-7.8 -0.55L-5.7 -1.45L-2.1 -3L-1.8 -3.1L-1.55 -3.2M16.1,-0.15L15.85 -0.2L16.1 -0.1L16.1 -0.15M16.15,-3.35L15.9 -1.75M15.85,-0.2L11.35 -0.15L5.25 -0.4L-0.15 -0.75L-3.55 -0.55L-3.65 -0.3L-3.95 1.3L-3.95 1.4Q-3.9 2.45 -3.3 3.35L-2.5 4.25L-0.15 6.15L0.45 6.2Q2.6 6.35 3.9 7Q4.85 7.5 5.35 8.3L5.35 9.4L5.35 9.45L6.7 9.55L7.3 9.6L11.5 9.65M26.2,3.25Q25.95 2.25 25.4 1.6M47.45,-19.9L46.95 -21.15Q45.9 -22.6 41.35 -22.7L40.1 -22.75Q37.75 -22.75 36.25 -21.9L35.15 -21.1M32.5,-11.9L33.35 -15.9L33.8 -18.85Q34.25 -20.25 35.15 -21.1M28.95,-18.85L28.9 -17.75Q28.9 -16.95 29.05 -16.2M38.1,-17.05L38.8 -17.65L38.9 -17.65L39.05 -17.85Q39.9 -18.5 41.1 -18.5Q42.35 -18.5 43.15 -17.65Q43.95 -16.9 43.95 -15.6L43.75 -13.7L43.15 -12.7L43.05 -12.55Q42.2 -11.8 40.35 -11.8Q38.8 -11.8 38.1 -12.4Q37.35 -12.95 37.3 -14.3L37.3 -14.45Q37.3 -15.95 37.55 -16.4L38.1 -17.05M32.5,-11.9L32.25 -11M55.9,-13.8L55.9 -13.9L56.3 -15.4M4.75,13.15L5.85 13.2L9 13.1L11.65 13L11.75 13L12.45 13.25M42.55,10.25Q40.1 12.45 40.1 14.1L40.2 14.45L40.8 15.1L42.25 15.4Q44.15 15.4 45.6 14.45L47.05 13.1Q48.5 11.25 48.5 9.45Q48.5 8.6 46.6 8L46.25 7.95L46.35 8.05Q46.15 7.9 45.65 8.05L45.6 8.05L45.45 8.15Q44.15 8.85 42.55 10.25M-17.7,9.15L-17.75 9.8L-3.5 9.8L5.35 9.75L5.35 9.45M-17.7,9.15L-17.65 8.95L-18.25 8.9M-16.4,31.4L-17.15 31.4Q-21.15 31.4 -21.55 27.9L-21.55 28.05Q-24.05 28.9 -24.65 26.5L-24.7 26.1L-24.8 23.9L-24.85 22.25L-24.8 18.9Q-24.7 16.75 -23.95 16.1L-21.35 16.15Q-21 14.05 -19.75 13.85L-18.45 13.85L-16.3 13.75L-16.2 13.75L-16.15 13.75M-10.8,13.5L-10.6 13.45Q-7.7 13.25 -3.55 13.4M4.75,13.15L4.5 13.15M9.05,31.45L9.05 22.05L9 13.1M14.6,22.5L14.55 16.25Q14.35 14.15 12.45 13.25M14.6,22.5L14.6 24.4L14.6 27.85Q15 30.65 12.3 31.55L9.15 31.45L9.05 31.45L6.1 31.4L4.95 31.5M-0.85,31.45L-10.6 31.35L-10.95 31.3L-11.15 31.3M4.65,31.5L4.5 31.5M-0.55,-43.8L-0.85 -43.6L-1.35 -43.2M-8.8,-37.55Q-8.8 -36.6 -9.3 -35.5Q-9.6 -34.75 -10.2 -33.9L-10.2 -33.85L-11.15 -32.55L-12.25 -31.25M-13,-25.75L-10.7 -26.15L-9.1 -27.1L-10.2 -28.5L-10.25 -28.55L-10.5 -29L-10.65 -29.45Q-10.65 -29.95 -10 -30.5L-9.8 -30.65L-9.75 -30.7L-8.8 -31.05Q-8.2 -31.05 -7.4 -30.05Q-7.05 -31.35 -7.05 -33.05L-7.85 -35.9L-8.25 -36.95M-8.8,-37.55L-8.85 -38.35M-15.5,-33.25L-15.25 -34.15Q-14.9 -34.7 -14.4 -34.7L-13.65 -34.6L-10.65 -34.15M-15.5,-33.25L-15.5 -33.1L-15.35 -32.25L-15 -31.35L-14.2 -29.4L-12.35 -31.2L-12.25 -31.25M-18.7,-27.2L-19.75 -27.3M-18.7,-27.2Q-17.5 -27.2 -16.05 -28.05L-14.2 -29.4M-15.15,-25.9L-13.5 -25.75L-13 -25.75L-12.95 -25.15M-10.7,-26.15L-10.85 -25.1M-7.4,-30.05L-7.15 -29.75L-6.1 -28.35Q-5.5 -27.85 -5.3 -26.4L-5.25 -25.05M-7.85,-25.1Q-8.05 -25.85 -8.95 -26.9L-9.1 -27.1M-21.1,-7.55L-22.35 -7.05L-22.5 -7.5M-21.1,-7.55L-20.85 -7.65L-20.8 -7.55L-20.4 -6.6L-16.45 -8.2L-16.35 -7.9M-20.85,-7.65L-21.65 -9.65L-19.7 -10.45L-18.25 -11.05M-23.15,-9.15L-22.5 -7.5M-20.7,-3L-20.8 -3.2L-20.2 -3.5L-19.3 -3.95L-19.85 -5.3L-21.5 -4.65L-22.05 -5.95L-20.4 -6.6M-19.85,-5.3L-15.9 -6.9L-16.35 -7.9M-20.7,-3L-20.2 -1.75M-8.35,-15.05L-4.4 -16.7L-2.7 -17.4L-2.6 -17.45L-2.55 -17.35L0.95 -17.5M-9.75,-14.5L-8.35 -15.05L-9.8 -16.1L-11.25 -17.1L-11.9 -16.8L-13.45 -16.2L-13.2 -15.4M-1.4,-14.6L-2.55 -17.35L-2.7 -17.4M-14.85,-16.5L-14.65 -16.75Q-14.3 -17.2 -13.75 -17.2L-11.9 -16.8M-14.85,-16.5L-14.9 -16.4L-14.95 -16.15L-15.05 -15.9L-15.05 -14.75L-15.05 -12.9L-14.2 -12.7L-12.5 -13.4L-13.2 -15.4M-15.05,-14.75L-15.1 -15.7L-15.05 -15.9M-19.3,-3.95L-18.95 -3L-18.9 -2.9L-14.75 -4.6L-9.8 -6.6L-7.3 -7.65L-5.8 -8.25L0.15 -10.7M-15.2,-2.25L-14.75 -4.6M-9.8,-6.6L-9.05 -5.1L-8.7 -4.3M-3.55,-0.55L-3.25 -1.3L-2.1 -2.8L-1.75 -3.1M-6.5,-5L-5.8 -8.25M-14.2,-12.7L-17.45 -11.35M-9.75,-14.5L-12.5 -13.4M-0.15,6.15L-4.25 6.25L-4.45 6.25L-7.45 6.45L-8.4 6.55L-8.75 6.6L-12.4 6.95L-16.25 7.15Q-17.35 7.5 -17.65 8.95M-12.4,1.3L-12.4 1.5L-12.4 6.45L-12.4 6.95M-17.05,0.35L-19.1 1.2L-20.1 -1.4M-1,13.4L-2.9 13.4L-3.55 13.4M-21.55,17.4L-21.55 16.95L-21.5 16.95L-21.55 17.4L-21.55 18.05L-21.6 18.55L-21.8 20.2L-21.75 21.55L-21.65 23.5L-21.55 25.95L-21.55 26.85L-21.55 27.9M-21.5,16.95L-21.35 16.15M-61.7,11.45L-61.7 11.9L-60.35 11.9" />
<path style="fill:none;stroke-width:1;stroke-linecap:butt;stroke-linejoin:miter;stroke-miterlimit:3;stroke:#776313;stroke-opacity:1" d="M29.05,-16.2Q28.15 -16.05 27.55 -16.7Q26.8 -17.4 26.8 -18.85L26.8 -19.7L26.8 -19.75L27.15 -21.5Q27.55 -22.6 28.4 -22.7L29.35 -22.8" />
<path style="fill:none;stroke-width:1;stroke-linecap:butt;stroke-linejoin:miter;stroke-miterlimit:3;stroke:#56470D;stroke-opacity:1" d="M56.2,-23.35Q56 -24.85 56.55 -25.3Q56.9 -25.7 58.4 -25.8Q60.5 -25.85 60.95 -24.65L61.1 -20.9L60.9 -17.7L60.9 -17.3L60.65 -15.05L60.65 -14.3Q60.55 -11 57.75 -10.95Q56.7 -10.9 56.3 -11.3Q55.9 -11.75 55.9 -12.95L55.9 -13.8M56.4,-16.45L56.45 -18.25L56.45 -19.7L56.35 -22.7M56.2,-23.35L56.3 -23.15L56.35 -22.7M56.4,-16.45L56.4 -16.3L56.3 -15.4Q56.2 -14.25 55.9 -13.8" />
<path style="fill:none;stroke-width:1;stroke-linecap:butt;stroke-linejoin:miter;stroke-miterlimit:3;stroke:#C65307;stroke-opacity:1" d="M16.6,-52.75Q18.3 -52.75 18.65 -51.4L18.75 -50.95L18.85 -49.05L18.85 -47.8L18.85 -46.05L18.75 -44L18.6 -43.2Q18.15 -41.8 17 -41.8Q16.05 -41.8 15.8 -42.2M-8.45,-42.2L-9.95 -42.1Q-11.1 -42.1 -11.4 -42.85L-11.65 -44.95L-12.05 -49.4L-12.05 -49.75Q-11.95 -51 -11.4 -51.5Q-10.85 -52 -9.4 -52L-9 -51.9" />
<path style="fill:none;stroke-width:1;stroke-linecap:butt;stroke-linejoin:miter;stroke-miterlimit:3;stroke:#8D8DB1;stroke-opacity:1" d="M26.6,14.7Q27.65 17.4 29.45 19.65Q33.4 24.6 40.8 27.15M26.6,14.7L25.6 11.7M-32.35,11.25L-32.45 15.85L-32.7 26.35M-3.55,13.4L-3.5 9.8M9.15,31.45L9.25 40.4M19.4,40.3L29.45 19.65M-24.7,26.1L-32.7 26.35L-36.95 26.5L-37.7 40.4M-3.6,15.65L-3.6 16.05" />
<path style="fill:none;stroke-width:1;stroke-linecap:butt;stroke-linejoin:miter;stroke-miterlimit:3;stroke:#91491A;stroke-opacity:1" d="M10.9,-24.95L12.2 -24.95L14.3 -24.9L17.4 -24.9Q19.25 -24.95 19.75 -24.4Q20.1 -24.05 20.1 -22.7L20.05 -21.5L19.8 -20.6L19.6 -20.25L19.35 -19.75Q19.15 -19.5 18.65 -19.5L16.9 -19.5L15.85 -19.5L12.65 -19.6L8.25 -19.7L0.85 -19.75L-10.2 -19.85L-10.8 -19.85L-16 -19.7L-17.25 -19.75L-18.65 -19.85Q-19.75 -19.85 -20.35 -20.3Q-20.85 -20.85 -20.85 -21.55L-20.5 -23.5L-20.45 -23.7L-20.35 -24.6L-20.35 -25L-19.5 -25.1L-16.35 -25.2L-15.2 -25.2M2.1,-9.25L5.2 -9.25L14.1 -8.95L15.15 -8.85L17.65 -8.3Q18.2 -7.95 18.2 -6.15L18.1 -4.55L17.95 -4.1Q17.6 -3.5 16.85 -3.35M27.5,1.6L28.25 0.6L29.5 -0.95L29.9 -1.4Q30.95 -2.55 32 -2.75L33.75 -2.8L35.6 -2.85L41.3 -3L45.9 -2.9L49.8 -2.85L50.55 -2.85L50.75 -2.85L52.2 -2.85L63.25 -2.85L68.05 -2.65L68.7 -0.2L68.65 1.5L68.65 1.6M-61.75,11.45Q-63.5 11.3 -63.85 10.9Q-64.2 10.6 -64.25 8.15L-64.25 7.8L-64.15 6.7Q-64.1 6 -63.85 5.6L-24.9 5.65M-23.1,-3.1L-23.15 -3.1Q-24.95 -3.4 -24.9 -4.55L-24.6 -7.3L-24.6 -7.5L-24.55 -8.15L-24.5 -8.15L-24.5 -8.6Q-24.45 -9 -24.05 -9.1L-23.15 -9.15M9.25,-24.95L10.1 -24.95M9.25,-24.95L7.2 -25L-5.25 -25.05L-5.45 -25.05L-7.85 -25.1L-10.85 -25.1L-12.95 -25.15L-13.25 -25.15L-15.2 -25.2M10.9,-24.95L10.1 -24.95M-1.75,-3.1L-1.35 -3.1L5.4 -3.15L9.85 -3.1L16.15 -3.35L16.35 -3.35L16.55 -3.35L16.85 -3.35M21.75,7.15L22.15 7L24.05 5.7L25.25 4.4L26.2 3.25M12.45,13.25L14.45 13.35L16.9 13.3L17.85 13.25L21.6 13.1Q23.6 13.05 25.2 11.95L25.35 11.9L25.6 11.7L27.1 10.55L29.2 8.4L31.45 5.65Q32.35 4.4 34 3.9L34.4 3.8L38.3 3.35L41.4 3.3L43.3 3.3L44.25 3.25L44.8 3.25L46.4 3.2L50.55 3.05L52.25 3.05L52.4 3.05Q58.05 3.05 60.2 3.2L64.05 3.35L64.35 3.35L65.1 3.35L67.9 3.35L68.4 3.35L68.65 2.15L68.65 1.6M21.75,7.15L19.8 7.4L15.05 7.3L14.25 7.3Q12.45 7.3 11.8 7.9L11.5 8.5L11.5 9.2L11.5 9.65L11.35 11.8L11.35 11.95Q11.35 12.7 11.65 13M27.5,1.6L26.8 2.45L26.2 3.25M-18.25,8.9L-18.35 10.25L-18.7 10.85L-18.8 10.9Q-19.2 11.25 -19.7 11.2L-22.45 11.3L-28.25 11.3L-28.55 11.3L-32.35 11.25M-16.15,13.75L-16.15 13.65L-16.15 13.4L-16.2 12.5L-16.2 12.2L-13.4 12.1L-10.9 12L-10.8 13.5M2.9,31.6L4.5 31.6L4.5 31.5Q4.3 28 4.5 23.6L4.55 22.45L4.55 22.25L4.5 13.3L4.5 13.2L4.5 13.15L4.5 13L4.45 11.65L-0.85 11.45L-0.9 12.55M4.5,31.6L4.4 35.15L-0.8 35.25L-0.85 31.6L-0.85 31.45L-1 26.35L-1.05 19.55L-1 13.4L-1 13.2L-0.9 12.55M-16.15,13.75L-16.15 21.15Q-16.15 25.9 -16.3 27.85L-16.4 31.15L-13.3 31.25L-12.8 31.2L-11.15 31.3L-11.2 35.8L-13.7 35.85L-15.65 35.8L-16.4 35.8Q-16.6 33.5 -16.4 31.4L-16.4 31.15M-24.5,-8.15L-24.6 -7.5M-23.1,-3.1L-20.8 -3L-20.7 -3M-18.25,8.9L-18.25 8.1L-18.25 6.5L-18.55 6L-18.95 5.65L-24.9 5.65M-11.15,31.3L-11 25.55L-10.9 22.25L-10.9 20.05M-10.9,19.35L-10.9 18.85L-10.9 18.65L-10.8 13.5M-61.75,11.45L-61.7 11.45L-59.85 11.5L-55.65 11.5L-51.95 11.6L-48.95 11.55L-44.5 11.3L-43.15 11.4L-34.65 11.25L-32.35 11.25M2.9,31.6L-0.85 31.6" />
<path style="fill:none;stroke-width:1;stroke-linecap:butt;stroke-linejoin:miter;stroke-miterlimit:3;stroke:#545353;stroke-opacity:1" d="M-53.75,-19.75L-69.8 -19.55L-69.75 -20.9L-53.75 -21.15M-49.15,-21.2L-33.2 -21.45L-33.05 -20L-48.9 -19.8M-30.9,-15.3L-31.15 -15.9L-31.45 -16.5L-31.5 -16.45L-31.7 -17.95L-31.35 -19Q-31 -19.45 -30.35 -19.45Q-29.35 -19.45 -29.35 -16.85L-29.35 -15.8L-29.45 -15.4L-29.45 -15.35L-29.15 -15.15L-29 -15L-28.75 -14.15L-28.75 -13.9L-28.55 -14L-28.45 -14.1L-28.15 -14.1L-26.8 -14L-26.75 -14L-25.45 -13.4Q-24.9 -13.1 -24.7 -12.55Q-24.55 -12 -24.9 -11.45Q-25.4 -10.6 -27.6 -11.95L-28.8 -12.85M-29.45,-15.35L-30.1 -15.55L-30.9 -15.3L-31.1 -15.15L-31.4 -14.55L-31.45 -14.15L-31.4 -13.85L-31.1 -13.15L-30.65 -12.85L-30.1 -12.75Q-29.55 -12.75 -29.15 -13.15L-29.05 -13.25L-28.75 -13.9M-29.05,-13.25L-28.8 -12.85M-30.65,-12.85L-30.75 -12.7Q-30.9 -12.25 -31.4 -11.55L-31.4 -11.5L-32 -10.95L-32.5 -10.55L-32.7 -10.4M-33.75,-10.25L-34.5 -10.85Q-35.05 -11.65 -32.85 -13.15L-31.6 -13.8L-31.4 -13.85M-33.75,-10.25L-33.55 -10.2L-32.7 -10.4" />
<path style="fill:none;stroke-width:1;stroke-linecap:butt;stroke-linejoin:miter;stroke-miterlimit:3;stroke:#4D4B4B;stroke-opacity:1" d="M-64.1,-10.95L-64.05 -11.15L-63.8 -12.05Q-63.3 -13.05 -61.65 -13.4L-58.55 -13.4L-58.45 -15.45L-58.45 -16.55Q-58.35 -17.85 -54.3 -18.2L-53.55 -18.3L-53.75 -19.75L-53.75 -21.15L-53.75 -21.3Q-53.7 -21.8 -53.25 -22L-52.6 -22.2L-51.15 -22.15Q-49.45 -22.05 -49.15 -21.2L-49.1 -20.85L-48.9 -19.8L-48.8 -19.5Q-48.6 -18.7 -48.7 -18.2L-48.65 -18.2Q-46.75 -18 -45.95 -17.4Q-44.7 -16.45 -44.9 -13.95L-42.3 -14.2L-38.35 -14.8L-31.15 -15.9M-29.35,-15.8L-29 -15.6L-28.7 -15L-28.55 -14M-28.8,-12.85Q-29.35 -12.1 -31.05 -11.35L-31.55 -11.15M-31.05,-11.25L-30.75 -9.5Q-30.5 -8.35 -30.55 -7.55L-31.3 -7.35L-31.45 -7.3L-32.35 -7.05L-33.55 -8.45L-34.55 -9.9L-35.55 -9.4L-36.55 -8.25Q-37.6 -6.8 -37.7 -4.9L-37.7 -4.05L-37.65 -3.3L-37.45 -0.35L-37.85 1.3L-37.95 1.6L-38.65 2.75L-39.65 3.75Q-41.4 5 -43.7 5.1L-48.55 5.4L-48.65 5.45L-52.9 5.6L-59.35 5.35Q-61.35 4.95 -62.4 3.8L-63.25 2.45L-63.4 2.05L-63.45 1.6L-63.6 0.6L-63.65 0.05Q-63.55 -0.8 -63.15 -1.15L-61.9 -2L-61.95 -2.6L-62.05 -4.05L-62.2 -6.7L-62.2 -7.75L-62.25 -8L-62.25 -8.6L-62.2 -8.7L-61.85 -9.7L-61.5 -10.1L-63.15 -10.2Q-63.9 -10.3 -63.95 -10.9M-64.05,-11.15L-63.95 -10.9M-37.8,-12.6L-38.35 -14.8M-62.2,-8.7L-62.2 -7.75M-52.25,-1.75Q-52.3 -0.4 -52.9 -0.1L-55.2 0.25L-57.35 0.45L-59.7 0.6Q-61.45 0.45 -61.7 -0.85L-61.9 -2M-50.1,-18.35L-49.4 -18.3L-48.7 -18.2M-46.65,-13.75L-44.9 -13.95M-46.65,-13.75L-48.55 -13.65L-48.6 -13.65L-53.8 -13.45L-54.7 -13.6L-56.7 -13.4L-58.55 -13.4M-50.1,-18.35L-53.55 -18.3M-52.25,-1.75L-52.25 -1.8L-52.2 -2.75L-52.5 -5L-52.95 -7.7Q-53.05 -9.7 -53.85 -10.4L-56.1 -10.95Q-60.1 -11.25 -61.5 -10.1M-32,-10.95L-31.55 -11.15M-37.8,-12.6L-36.55 -8.25M-34.55,-9.9L-33.75 -10.25M-63.25,2.45L-40.35 1.6L-37.85 1.3" />
<path style="fill:none;stroke-width:1;stroke-linecap:butt;stroke-linejoin:miter;stroke-miterlimit:3;stroke:#434141;stroke-opacity:1" d="M-41.95,-4.35L-41.5 -4.35Q-40.9 -4.35 -40.75 -4.95L-40.75 -6.1L-40.75 -7.65Q-40.95 -8.45 -41.65 -8.45L-42.95 -8.4L-42.95 -9.9Q-43 -10.95 -43.55 -10.95L-46 -10.9Q-46.8 -11 -47 -10.55L-47.05 -9.65L-47.05 -9.45L-47 -8.2L-49.25 -8L-49.25 -6.95Q-49.1 -6.25 -49.1 -5.5Q-49.1 -4.75 -48.7 -4.55L-47.65 -4.35Q-47.05 -4.3 -47.2 -3.65L-47.2 -2.85Q-47.05 -2.4 -46.25 -2.3L-43.1 -2.3L-43.1 -4.5L-42.4 -4.5L-41.95 -4.35z" />
</g>
</svg>
