<?xml version="1.0" encoding="utf-8"?>
<svg version="1.1" id="Layer_1"
xmlns="http://www.w3.org/2000/svg"
xmlns:xlink="http://www.w3.org/1999/xlink"
xmlns:author="http://www.sothink.com"
width="166px" height="195px"
xml:space="preserve">
<g id="226" transform="matrix(1, 0, 0, 1, 96.7, 95.6)">
<path style="fill:#C4811C;fill-opacity:1" d="M45.9,-59.35L55.95 -59.3Q57.55 -58.85 57.3 -56.7L57.35 -44.5Q57.3 -42.2 55.55 -42.2L46 -42.3L46.15 -22.55L58.45 -22.55Q59.5 -22.1 59.55 -19.9L59.7 -7.3Q59.55 -4.9 58.1 -4.7L29.85 -4.7Q28.4 -5.8 28.1 -8.1L27.4 -91.8Q28.15 -94.15 28.95 -94.2L56.1 -94.15Q57.55 -94.2 57.75 -91.45L57.85 -79.05Q58.15 -76.75 56.5 -76.25L45.7 -76.35L45.9 -59.35M8.75,-58.95L18.85 -58.9Q20.4 -58.45 20.2 -56.3L20.25 -44.15Q20.2 -41.8 18.4 -41.8L8.85 -41.9L9 -22.15L21.3 -22.15Q22.4 -21.75 22.4 -19.5L22.55 -6.9Q22.45 -4.5 20.95 -4.35L-7.3 -4.35Q-8.8 -5.35 -9 -7.65L-9.7 -91.45Q-9 -93.75 -8.2 -93.85L19 -93.75Q20.45 -93.85 20.65 -91L20.75 -78.7Q21 -76.35 19.4 -75.85L8.65 -75.95L8.75 -58.95M67.5,25.9Q67.95 30.7 68.1 40.45L68.3 71.95Q68.45 83.9 67.65 88.15Q66.7 92.1 64.6 94.4Q62.35 96.65 59.15 97.6Q55.85 98.5 49.3 98.55L28.9 98.4Q26.25 97.75 26.25 94.5L25.5 12.7Q25.4 9.2 27.85 8.85L39.15 8.95Q52.4 8.85 57.1 10.55Q61.75 12 64.2 15.55Q66.7 19.15 67.25 23.5L67.5 25.9M43.8,24.2L44.4 83.2Q48.3 83.3 49.25 81.2Q50.15 79.15 50 70.15L49.8 35.35Q49.65 29.35 49.35 27.45L48.75 25.9L47.95 24.95Q46.8 24.2 43.8 24.2M19.7,24.2Q20 26.5 18.35 27L7.55 26.9L7.65 43.9L17.75 44Q19.35 44.4 19.1 46.6L19.15 58.75Q19.1 61.05 17.35 61.05L7.75 61L8 80.7L20.3 80.7Q21.35 81.15 21.4 83.35L21.55 96Q21.4 98.35 19.95 98.55L-8.4 98.55Q-9.9 97.55 -10.15 95.15L-10.9 11.45Q-10.1 9.1 -9.3 9.05L17.95 9.1Q19.4 9.05 19.55 11.85L19.7 24.2M-92.75,-94.2L-65.55 -94.1Q-63.9 -94.25 -63.9 -91.4L-63.75 -76.1L-76.4 -76.1L-76.25 -59.15L-65.9 -59.15Q-65.05 -58.55 -65 -56.9L-64.9 -44.35Q-64.85 -42.55 -66.15 -42.15L-76.2 -42.25L-75.8 -7.3Q-75.8 -4.65 -77.55 -4.6L-92.45 -4.65Q-94.05 -4.9 -94.05 -7.1L-94.75 -91.5Q-94.85 -94.15 -92.75 -94.2M-16.8,-75.05L-16.6 -69.5Q-16.45 -59.05 -18.45 -55.4Q-20.45 -51.85 -26.4 -51.2Q-21.05 -49.45 -19.1 -46.6Q-17.25 -43.7 -16.7 -41.2L-16.4 -37.9L-16.15 -28.05L-16 -7.45Q-16.3 -4.35 -18.05 -4.4L-31.2 -4.45Q-33.15 -3.9 -32.9 -7.45L-33.15 -34.3L-33.15 -34.75L-33.3 -37.9Q-33.5 -41.9 -34.15 -43.05Q-35 -44.85 -38.75 -44.85L-38.4 -7.55Q-38.65 -4 -40.4 -4.5L-54.8 -4.5Q-56.7 -4.7 -56.6 -7.85L-57.3 -89.8Q-57.7 -93.7 -55.6 -94L-44.5 -93.95Q-31.7 -93.95 -27.05 -92.65Q-22.5 -91.45 -19.5 -86.15Q-17.4 -82.3 -16.8 -75.05M-34.65,-77.25Q-35.85 -78.6 -39.05 -78.6L-38.9 -58.8Q-35.8 -58.65 -34.55 -59.8Q-33.45 -60.95 -33.5 -66.85L-33.45 -71.75Q-33.45 -73.75 -33.75 -75.05Q-34.05 -76.55 -34.65 -77.25M-20.7,16.75Q-18.6 20.55 -18 27.85Q-17.8 30.4 -17.75 33.4Q-17.65 43.85 -19.6 47.5Q-21.6 51.05 -27.6 51.65Q-22.2 53.45 -20.3 56.3Q-18.5 59.1 -17.95 61.7Q-17.7 62.7 -17.6 65L-17.4 74.85L-17.15 95.4Q-17.5 98.55 -19.25 98.5L-32.4 98.4Q-34.3 99 -34.1 95.4L-34.4 68.55L-34.4 68.15L-34.5 65Q-34.7 61 -35.4 59.75Q-36.3 58.05 -40 58.05L-39.65 95.35Q-39.85 98.8 -41.6 98.35L-56.1 98.35Q-58 98.15 -57.9 95.05L-58.65 13.05Q-59 9.2 -56.85 8.8L-45.75 8.85Q-32.9 8.95 -28.25 10.25Q-23.65 11.45 -20.7 16.75M-35.9,25.6Q-37.1 24.25 -40.3 24.25L-40.15 44.1Q-37.1 44.25 -35.85 43.1Q-34.6 41.9 -34.65 36.05L-34.7 31.15Q-34.7 29.15 -35 27.85Q-35.25 26.25 -35.9 25.6M-65.15,26.75L-77.85 26.75L-77.7 43.65L-67.3 43.75Q-66.45 44.35 -66.35 46L-66.25 58.5Q-66.2 60.3 -67.5 60.75L-77.6 60.6L-77.2 95.6Q-77.2 98.25 -78.95 98.25L-93.85 98.25Q-95.5 98 -95.45 95.75L-96.2 11.3Q-96.25 8.75 -94.2 8.7L-66.85 8.8Q-65.25 8.6 -65.3 11.5L-65.15 26.75" />
<path style="fill:none;stroke-width:1;stroke-linecap:butt;stroke-linejoin:miter;stroke-miterlimit:3;stroke:#6E3A12;stroke-opacity:1" d="M45.9,-59.35L55.95 -59.3Q57.55 -58.85 57.3 -56.7L57.35 -44.5Q57.3 -42.2 55.55 -42.2L46 -42.3L46.15 -22.55L58.45 -22.55Q59.5 -22.1 59.55 -19.9L59.7 -7.3Q59.55 -4.9 58.1 -4.7L29.85 -4.7Q28.4 -5.8 28.1 -8.1L27.4 -91.8Q28.15 -94.15 28.95 -94.2L56.1 -94.15Q57.55 -94.2 57.75 -91.45L57.85 -79.05Q58.15 -76.75 56.5 -76.25L45.7 -76.35L45.9 -59.35M8.75,-58.95L18.85 -58.9Q20.4 -58.45 20.2 -56.3L20.25 -44.15Q20.2 -41.8 18.4 -41.8L8.85 -41.9L9 -22.15L21.3 -22.15Q22.4 -21.75 22.4 -19.5L22.55 -6.9Q22.45 -4.5 20.95 -4.35L-7.3 -4.35Q-8.8 -5.35 -9 -7.65L-9.7 -91.45Q-9 -93.75 -8.2 -93.85L19 -93.75Q20.45 -93.85 20.65 -91L20.75 -78.7Q21 -76.35 19.4 -75.85L8.65 -75.95L8.75 -58.95M67.5,25.9Q67.95 30.7 68.1 40.45L68.3 71.95Q68.45 83.9 67.65 88.15Q66.7 92.1 64.6 94.4Q62.35 96.65 59.15 97.6Q55.85 98.5 49.3 98.55L28.9 98.4Q26.25 97.75 26.25 94.5L25.5 12.7Q25.4 9.2 27.85 8.85L39.15 8.95Q52.4 8.85 57.1 10.55Q61.75 12 64.2 15.55Q66.7 19.15 67.25 23.5L67.5 25.9M43.8,24.2L44.4 83.2Q48.3 83.3 49.25 81.2Q50.15 79.15 50 70.15L49.8 35.35Q49.65 29.35 49.35 27.45L48.75 25.9L47.95 24.95Q46.8 24.2 43.8 24.2M19.7,24.2Q20 26.5 18.35 27L7.55 26.9L7.65 43.9L17.75 44Q19.35 44.4 19.1 46.6L19.15 58.75Q19.1 61.05 17.35 61.05L7.75 61L8 80.7L20.3 80.7Q21.35 81.15 21.4 83.35L21.55 96Q21.4 98.35 19.95 98.55L-8.4 98.55Q-9.9 97.55 -10.15 95.15L-10.9 11.45Q-10.1 9.1 -9.3 9.05L17.95 9.1Q19.4 9.05 19.55 11.85L19.7 24.2M-94.75,-91.5L-94.05 -7.1Q-94.05 -4.9 -92.45 -4.65L-77.55 -4.6Q-75.8 -4.65 -75.8 -7.3L-76.2 -42.25L-66.15 -42.15Q-64.85 -42.55 -64.9 -44.35L-65 -56.9Q-65.05 -58.55 -65.9 -59.15L-76.25 -59.15L-76.4 -76.1L-63.75 -76.1L-63.9 -91.4Q-63.9 -94.25 -65.55 -94.1L-92.75 -94.2Q-94.85 -94.15 -94.75 -91.5M-16.8,-75.05L-16.6 -69.5Q-16.45 -59.05 -18.45 -55.4Q-20.45 -51.85 -26.4 -51.2Q-21.05 -49.45 -19.1 -46.6Q-17.25 -43.7 -16.7 -41.2L-16.4 -37.9L-16.15 -28.05L-16 -7.45Q-16.3 -4.35 -18.05 -4.4L-31.2 -4.45Q-33.15 -3.9 -32.9 -7.45L-33.15 -34.3L-33.15 -34.75L-33.3 -37.9Q-33.5 -41.9 -34.15 -43.05Q-35 -44.85 -38.75 -44.85L-38.4 -7.55Q-38.65 -4 -40.4 -4.5L-54.8 -4.5Q-56.7 -4.7 -56.6 -7.85L-57.3 -89.8Q-57.7 -93.7 -55.6 -94L-44.5 -93.95Q-31.7 -93.95 -27.05 -92.65Q-22.5 -91.45 -19.5 -86.15Q-17.4 -82.3 -16.8 -75.05M-34.65,-77.25Q-35.85 -78.6 -39.05 -78.6L-38.9 -58.8Q-35.8 -58.65 -34.55 -59.8Q-33.45 -60.95 -33.5 -66.85L-33.45 -71.75Q-33.45 -73.75 -33.75 -75.05Q-34.05 -76.55 -34.65 -77.25M-20.7,16.75Q-18.6 20.55 -18 27.85Q-17.8 30.4 -17.75 33.4Q-17.65 43.85 -19.6 47.5Q-21.6 51.05 -27.6 51.65Q-22.2 53.45 -20.3 56.3Q-18.5 59.1 -17.95 61.7Q-17.7 62.7 -17.6 65L-17.4 74.85L-17.15 95.4Q-17.5 98.55 -19.25 98.5L-32.4 98.4Q-34.3 99 -34.1 95.4L-34.4 68.55L-34.4 68.15L-34.5 65Q-34.7 61 -35.4 59.75Q-36.3 58.05 -40 58.05L-39.65 95.35Q-39.85 98.8 -41.6 98.35L-56.1 98.35Q-58 98.15 -57.9 95.05L-58.65 13.05Q-59 9.2 -56.85 8.8L-45.75 8.85Q-32.9 8.95 -28.25 10.25Q-23.65 11.45 -20.7 16.75M-35.9,25.6Q-37.1 24.25 -40.3 24.25L-40.15 44.1Q-37.1 44.25 -35.85 43.1Q-34.6 41.9 -34.65 36.05L-34.7 31.15Q-34.7 29.15 -35 27.85Q-35.25 26.25 -35.9 25.6M-65.15,26.75L-77.85 26.75L-77.7 43.65L-67.3 43.75Q-66.45 44.35 -66.35 46L-66.25 58.5Q-66.2 60.3 -67.5 60.75L-77.6 60.6L-77.2 95.6Q-77.2 98.25 -78.95 98.25L-93.85 98.25Q-95.5 98 -95.45 95.75L-96.2 11.3Q-96.25 8.75 -94.2 8.7L-66.85 8.8Q-65.25 8.6 -65.3 11.5L-65.15 26.75" />
<path style="fill:#D0902F;fill-opacity:1" d="M56.4,-88.95Q56.8 -87.15 56.8 -85L56.65 -82.1Q56.35 -80.7 55.25 -79.7L46.65 -79.55L45.3 -77.45Q44.35 -75.7 44.35 -75.3L44.65 -69.1L44.85 -62.3Q44.9 -58.85 46.65 -57.9L50.45 -57.55Q53.1 -57.65 54.25 -56.85Q55.95 -55.55 55.95 -51.4Q55.95 -48.45 54.85 -46.75Q52.55 -43.05 45.6 -43.65Q44.25 -43.65 42.75 -39.95L40.6 -35.05L37.05 -35.05Q32.95 -36.2 31.4 -40.7Q30.55 -43.3 29.65 -48.45L29.6 -65L28.85 -74.25L28.35 -82L28.55 -84.25Q28.9 -86.65 29.8 -88.45Q32.5 -94.2 39.25 -92.15L39.25 -92.4L47.05 -92.15L53.8 -92Q55.7 -92.3 56.4 -88.95M17.95,-88.5Q19.15 -85.8 19.15 -83.2Q19.15 -81.7 18.75 -80.1Q18.2 -78.25 17.4 -78.1L11.1 -77.95Q9.2 -78.05 7.95 -74.85Q6.95 -72.4 6.95 -70.8L7.2 -66L7.45 -60.35L7.45 -58.85Q7.45 -58.05 7.6 -57.6Q8.9 -54.35 10.25 -54.8Q11.2 -55.05 14.55 -56.65Q17.9 -57.45 19 -55.45Q19.45 -54.55 19.45 -52.65Q19.45 -48.95 19.05 -47.35Q18 -43.4 14.5 -43.4Q14.1 -43.4 13.45 -43.95L12.7 -44.6Q9.85 -44.6 8.2 -42.4Q7.15 -40.9 6.2 -37.45Q5.2 -33.75 4.5 -32.55Q3.25 -30.35 0.95 -30.35Q-4.15 -30.35 -6.35 -36.15Q-7.55 -39.3 -7.55 -42.55L-7.35 -46.45L-7.4 -64.55L-7.2 -65.15L-7.15 -66.15L-7.75 -72.5L-8.35 -80.1Q-8.35 -85.05 -8.15 -86.5Q-7.55 -91 -5.25 -91.2L1.6 -91.45L4.15 -91.75L4.15 -92L11.95 -92Q15.95 -92.9 17.95 -88.5M38.85,-28.35Q38.85 -29.85 39.9 -31Q41.1 -32.3 42.95 -32.1L43.1 -29.75Q43.1 -28.35 42.7 -27.05Q42.1 -25.2 40.9 -25.2Q39.6 -25.2 39.1 -26.75L38.85 -28.35M34.75,-31.85Q36.8 -28.85 36.8 -25.85Q36.8 -24.55 35.95 -22.85Q35.1 -21 34.1 -20.55L31.45 -20.55Q30.5 -22.5 30.3 -25.8L30.15 -31.3L30.2 -36.05Q32.9 -34.65 34.75 -31.85M7.55,-27.2L7.05 -24.05Q6.5 -21.3 6.05 -20.9L2.75 -20.9Q2.15 -21.9 2.15 -22.85Q2.15 -27.5 4.85 -29.8Q5.95 -30.7 6.7 -30.1Q7.55 -29.5 7.55 -27.2M0.55,-25.8Q0.15 -25.2 -0.15 -25.2Q-0.8 -25.2 -1 -25.85L-1.1 -26.6Q-1.1 -27.3 -0.6 -27.95Q0.05 -28.75 0.85 -28.1L1 -28L1.05 -27.3Q1.05 -26.55 0.55 -25.8M65.15,23.5L65.85 28.65L67.55 48.9Q67.55 51.05 67.05 53.45Q66.1 57.7 63.95 58.7L57.4 58.95L55.9 59.25L54.25 59.5Q51.6 59.5 51 57.75L51 55.95Q51 52.25 51.8 47.85Q52.4 43.5 52.4 39.65Q52.4 35.6 51.25 30.15Q49.45 21.8 46.2 21.8Q42.8 21.8 42.4 30.45Q42.25 35.15 42.75 43.6L42.6 54.85Q42.45 57.85 41.5 59.45Q39.25 63.45 32.7 63.45Q28.45 63.45 27.2 56.35Q26.7 53.5 26.65 44.5Q26.65 42.15 27.15 33.95L27.55 24.95L27.1 17.4Q27.05 15.65 27.75 14.3Q28.8 12.5 30.85 12.5L38.1 13.5L41.85 13.3Q42.95 12.75 48.7 11.95Q60.7 13.2 63.8 18.55Q64.75 20.4 65.15 23.5M17.85,17.65L18 19.8Q18.05 20.95 17.65 21.5Q16.6 23 10.85 23Q7.6 23 6.75 25.15Q6.35 26.2 6.55 27.45L6.9 36.1Q7.45 44.4 8.8 46.75L14.55 46.5Q17.7 46.5 18.5 48.4Q18.9 49.35 18.7 50.4L18.15 53.8Q17.55 56.8 16.95 57.55Q6.05 57.45 5 60.6Q4.7 61.45 4.55 62.8Q4.1 63.9 1.8 63.9Q-7.35 63.9 -9.2 53.8Q-9.75 50.6 -9.6 46.4L-9.25 42.1Q-9.35 31.2 -9 26Q-9.1 17.8 -8.55 14.8Q-7.45 9.6 -1.8 13.1L5.55 13.1Q14.65 10.05 17.1 13Q17.85 13.95 17.9 15.65L17.85 17.65M36.2,67Q38.2 67 41.05 65.3Q42.4 64.65 42.4 67Q41.8 75.75 40.25 75.75Q38.4 75.75 37.15 71.5L36.2 67M5.65,68.55L5.75 71.8Q5.8 77.7 3.3 77.7Q-0.4 77.7 -4.5 73.4Q-8.45 69.2 -8.45 65.8Q-8.45 64 -7.05 64.5Q-3.05 66 -0.65 66.45Q-0.5 66.25 0.2 66L1.35 65.8Q4.85 65.8 5.65 68.55M4.2,69.25L4.55 70.25L4.45 69.45Q4.25 68.7 3.7 68.4L4.2 69.25M66.25,62.7L66.4 63.75Q65.25 76.15 63.15 76.15Q62.4 76.15 60 70.75Q57.7 65.65 57.7 65.2Q57.7 64.05 58.6 63.15Q59.9 61.6 62.5 61.7L65.55 61.5L66.25 62.7M63.65,73.75Q64.15 73.1 64.15 72.1L63.85 72.7L63.65 73.65L63.65 73.75M54.15,67Q53.05 67 52.55 66.15Q52.3 65.7 52.3 65.05Q52.3 62.25 54.05 62.8Q55.85 63.3 55.85 64.9Q55.85 65.75 55.4 66.3Q54.95 67 54.15 67M-92.75,-71.1L-92.8 -90.4Q-90.75 -93.65 -85.9 -92.9Q-80.35 -91.4 -78.1 -91.4L-70.45 -92.4Q-67.1 -92.4 -66.35 -90L-66.3 -87.3L-66.6 -83.55Q-66.95 -80.25 -67.25 -79.7Q-75.3 -80.45 -77.55 -77.55Q-78.25 -76.6 -78.25 -75.35L-78.15 -74.05Q-78.45 -67.15 -78.2 -63.8Q-77.8 -57.7 -75.6 -56.65L-67.45 -56.4Q-66.65 -56.1 -66.5 -54.05L-66.4 -51.35Q-66.4 -48.2 -66.6 -47.35Q-67.15 -44.65 -69.45 -44.95L-75.8 -44.85Q-77.25 -43.75 -78.15 -41.2L-79.4 -36.2Q-81.05 -30 -84.95 -30Q-90.55 -30 -92.3 -46Q-92.95 -52 -93 -65.5L-92.75 -71.1M-82.95,-26.25Q-82 -28.3 -80.8 -29.25Q-77.85 -31.6 -77.8 -23.3L-78 -18.35Q-78.65 -14.95 -80.75 -14.95Q-83 -14.95 -83.7 -18.55Q-84.05 -20.3 -83.95 -22.1Q-83.95 -24 -82.95 -26.25M-34.8,-91.2L-27.5 -91.2Q-21.75 -87.4 -19.55 -79.6Q-18.15 -74.6 -18.15 -66.65Q-18.1 -56.2 -22.9 -54.05Q-24.15 -53.45 -26.2 -53Q-27.75 -52.6 -27.75 -51.35Q-27.75 -50.35 -26.3 -48.9L-23.15 -45.9Q-18.55 -41.05 -18.55 -34.65Q-18.55 -31.25 -19.4 -28.6Q-21.1 -24 -25.2 -24Q-28.3 -24 -30.25 -28.75Q-31.5 -31.6 -32 -35.4L-32.85 -41.8Q-33.55 -45.85 -34.9 -47.65Q-38.3 -48.2 -39.55 -45.35Q-40.25 -43.8 -40.8 -38.65Q-41.25 -33.75 -42.45 -31.6Q-44.2 -28.35 -48.55 -28.35Q-52.4 -28.35 -53.75 -33.05Q-54.45 -35.45 -54.55 -38.45L-54.65 -61.2L-55.25 -69.55L-55.65 -78.3L-55.75 -84.5Q-55.65 -88.3 -54.6 -89.55L-50.65 -90.2L-45.4 -90.8L-35.2 -90.95L-34.8 -91.2M-39.55,-80.8Q-40.65 -79.45 -40.8 -74L-40.75 -68.3Q-41.05 -61.4 -40.7 -59.35Q-40.2 -56.2 -36.75 -56.2Q-32.7 -56.2 -31.5 -62.3Q-30.95 -65.35 -31.1 -68.6Q-31.1 -74.1 -31.6 -75.85Q-33.4 -81.45 -39.55 -80.8M-79.2,-27.05L-79.6 -26.85L-79.85 -26.8L-79.35 -26.35Q-79.2 -26.45 -79.2 -27.05M-80.4,-20.55L-80.4 -20.35L-80.2 -21.3L-80.2 -21.75L-80.4 -20.55M-45.85,-18.75Q-46.6 -21.25 -46.95 -23.6Q-40.2 -34.05 -40.15 -23.3Q-40.15 -21.15 -40.6 -18.1Q-41.25 -13.8 -42.45 -13.8Q-44.3 -13.8 -45.85 -18.75M-18.75,-25.5Q-18.25 -25.05 -18.25 -22.5L-18.5 -18.9Q-18.8 -16.15 -19.55 -16.15Q-21.7 -16.15 -23.9 -17.9Q-25.8 -19.4 -25.8 -20.05Q-25.8 -20.5 -25.2 -21.3Q-23.75 -21.55 -20.15 -24.95Q-19.1 -25.8 -18.75 -25.5M-17.65,-12.35L-17.55 -12.15L-17.45 -11.45Q-17.45 -9.4 -18.7 -9.4Q-19.7 -9.4 -19.85 -10.2L-19.85 -11.3L-19.7 -12.3L-17.65 -12.35M-38.9,21.25Q-40.3 21.7 -41.3 22.9Q-42.3 24 -42.3 25L-42 41.65L-41.95 44.05Q-41.65 45.65 -40.7 46.3L-36.1 46.3Q-34 43.25 -33.2 39.05Q-32.6 35.9 -32.6 31.6L-32.7 28.5Q-32.8 27.25 -33.75 24.65Q-35.4 19.95 -38.9 21.25M-22.3,18.45Q-18.9 23.4 -18.85 37.1Q-18.85 46.5 -23.75 48.55L-27.2 49.75Q-28.75 50.5 -28.75 52.5Q-28.75 53.85 -27.45 55.05L-24.6 57.1Q-20.45 59.95 -20.4 64.05Q-20.4 66.25 -21.2 67.4Q-22.6 69.4 -26.7 69.4Q-30.55 69.4 -32.05 67.15Q-33 65.65 -33.15 62.2Q-33.4 58.3 -33.85 57.25Q-34.7 54.95 -37.65 54.95Q-38.8 54.95 -39.75 57.25L-41.25 62.35Q-43.4 69.75 -46.75 69.75Q-51.55 69.75 -54.05 63.4Q-56.3 57.8 -55.9 50.1Q-55.75 45.9 -55.95 37.8L-56.25 29.7Q-56.25 19.95 -55.35 16.9Q-53.85 11.5 -48.6 12.5L-41.6 12.3L-38.7 11.95Q-26.4 12.55 -22.3 18.45M-72.9,11.95Q-69.35 10.5 -67.9 14.15Q-67.1 16.05 -67.1 18.8Q-67.1 21.5 -67.3 22Q-68.25 24 -72.1 24L-77.15 23Q-79.05 23 -79.6 28.65Q-79.85 31.45 -79.75 34.35Q-79.05 46.35 -78.55 46.35L-75.25 45.85Q-73.8 45.3 -71.9 45.3Q-68.4 45.3 -67.45 48.4L-67.2 51.65L-67 54.8Q-67.1 56.3 -68.45 57.75Q-71.5 60.85 -73.4 60.45Q-76.85 59.6 -77.45 59.75Q-78.9 59.95 -79 60.75L-78.75 62.2L-78.55 64.15Q-78.45 66.15 -78.85 67.7Q-79.9 72.6 -85.25 72.6Q-92.1 72.6 -93.15 65.3Q-93.5 63.05 -93.3 60L-92.95 56.6L-93.6 44.65Q-94.25 32.25 -94.3 24.15Q-94.3 18.5 -94 16.75Q-93.05 11.1 -89.45 12.5L-76.15 12.3L-72.9 11.95M-44.7,70Q-41.4 68 -41.4 76.65L-41.35 81.2Q-41.95 84.4 -45.05 84.4Q-47.1 84.4 -47.75 80.5L-48.05 76Q-48.05 74.6 -47 72.7Q-46 70.75 -44.7 70M-79.45,82.3Q-80.05 84.8 -83.3 84.8Q-86.4 84.8 -86.5 81Q-86.05 76.75 -86.3 75.6Q-85.7 75.1 -85.3 75.25L-85.1 75.6Q-83.45 75.6 -79.75 74.25Q-79.4 74.1 -79.4 74.9L-79.4 78.5L-79.45 82.3M-20,73.85Q-20.55 76.45 -21 76.95L-23.55 76.95Q-23.9 76.75 -25.1 74Q-25.1 71.95 -24.35 71.15Q-23.25 69.95 -19.55 69.65L-19.45 70.9Q-19.45 71.5 -20 73.85M-6.55,67.55Q-6.55 66.55 -6.25 66.15L-7.25 66L-6.55 67.65L-6.55 67.55M-0.8,68.95L-1.4 68.9L-0.85 69.4L-0.8 68.95M-25.8,73.4Q-25.8 74.1 -26.7 74.95Q-27.45 75.75 -27.85 75.75Q-28.55 75.75 -28.9 74.4L-29.15 73.15Q-29.15 71.7 -27.5 71.65Q-25.8 71.5 -25.8 73.4M-4.1,79.95L-5.85 86.8Q-6.8 86.8 -6.95 83.9L-6.95 80.9Q-7 75.75 -5.55 76.35Q-4.15 76.9 -4.1 79.95M-89.05,78.5L-89.95 78.25L-90.05 76.1Q-90.05 73.1 -88.8 74Q-87.5 75 -87.5 76.65Q-87.45 78.5 -89.05 78.5" />
<path style="fill:#DEA145;fill-opacity:1" d="M53.85,-88.25Q54.7 -87.55 54.7 -86.7Q54.7 -85.25 54.15 -83.95Q53.4 -82.1 52 -82.1Q48.65 -82 46.15 -80.6L44.05 -79.8L43.8 -71.15L43.45 -62.6Q43.5 -58.35 44.7 -56.85Q45.5 -55.9 47.4 -55.9Q49.4 -55.95 50.05 -55.45Q51.25 -54.6 51.25 -51.25Q51.25 -47.45 47.7 -47.35L44.9 -47.4Q43.35 -47.4 42.75 -46.75L41.25 -43.7Q39.7 -41 38.6 -41Q34.7 -41 33.75 -48.9Q33.2 -53.15 33.35 -60.4L32.35 -69.55Q31.45 -77.2 31.45 -79.95Q31.45 -83 31.75 -84.5L32 -85.3Q32.25 -87 32.9 -88.3Q34.7 -92.05 39.35 -90.2L51.05 -90L53.85 -88.25M14.35,-81.05L11.1 -80.1Q6.4 -78.95 6.5 -72.3Q6.5 -68.85 6.15 -65.4Q5.75 -61.9 5.8 -59.6Q5.8 -56.9 6.3 -54.85Q7.1 -51.45 9 -51.45Q11.05 -51.45 13.3 -52.9L15.15 -52.9Q15.95 -52.4 16.15 -51.7L16.2 -50.35Q16.2 -47.7 15.05 -47.7Q12.95 -47.7 12.4 -48.2Q11.85 -48.75 10.75 -48.75Q7.3 -48.75 4.65 -41.9Q3.3 -38.45 2.5 -37.25Q1.05 -35.05 -0.95 -35.05Q-4.75 -35.05 -4.95 -43.55Q-5.15 -48.15 -4.75 -56.4L-6 -77.8L-6 -81.3Q-5.8 -83.65 -4.8 -85.25Q-1.8 -89.7 8.65 -89.75Q15.85 -91.4 15.85 -84.25Q15.85 -81.95 14.35 -81.05M54.75,14.45Q60.05 16.3 62.6 20.4Q64.45 23.3 65.15 28.2L66 35.4L66.8 43.9Q66.85 48.65 64.4 52.35Q62.05 56 59.15 56Q55.4 56 53.8 52.65Q52.95 50.8 52.95 49L54.3 35.35Q54.25 30.15 52.15 24.95Q49.9 19.4 47.4 19.4Q43 19.4 41.6 25.95Q40.7 30 40.9 40.3Q41.05 51 40.45 54.55Q39.4 61.05 35.55 61.05Q30.45 61.05 28.85 55.35Q27.5 50.75 28.35 41.8L27.8 41.2L27.6 40.65Q27.6 39.65 28.25 38.15Q28.8 36.8 28.8 34.95L28.55 31.65L28.3 28.35Q28.3 20.4 29.05 17.25Q29.75 14.4 31.65 14L36.65 14.45Q40.85 15.05 44.4 14.45L54.75 14.45M15.25,12.6Q15.75 13.2 15.8 16.15Q15.8 20.25 10.8 21.05L7.4 21.7Q5.85 22.25 5.85 23.7L5.95 30.5L6.1 37.95Q6.1 41.4 6.4 43.65Q6.9 48.65 8.4 48.65L11.1 48.35L13.15 47.3L15.5 47.3Q16.5 48.05 16.7 48.85L16.75 50Q16.75 58.45 7.8 55.35L5.15 55.35Q4.45 56.3 3.6 59.3Q2.4 61.85 -0.45 61.85Q-4.55 61.85 -6.8 56.25Q-8.25 52.5 -8.25 49.4L-7.85 38.35L-8.35 24.95L-8.25 18.3Q-7.85 14.45 -5.65 14.45Q3 14.65 12.7 12.55L15.25 12.6M-85.5,-88.25Q-83.25 -88.25 -82 -88.8L-77.9 -89.75Q-69.5 -90.65 -69.5 -85.05Q-69.5 -83.45 -70.15 -82.75Q-71.85 -80.85 -73.3 -80.85L-77.1 -80.75Q-78.15 -80.55 -78.75 -79.05Q-79.25 -77.75 -79.15 -76.25Q-79 -74.3 -79.15 -70.3L-79.35 -65.9Q-79.35 -61.1 -79.15 -59.65Q-78.65 -55.15 -76.75 -54.2L-70.5 -54.1Q-69.65 -52.75 -69.65 -52L-69.9 -50.1Q-70.15 -48.65 -70.4 -48.4Q-71.75 -46.6 -74.4 -47.5L-78.65 -47.6L-81 -44.9Q-83.3 -42.55 -85.15 -42.55Q-90.8 -42.55 -90.9 -66.75L-90.7 -79.3Q-90.7 -81 -91.05 -83.5L-91.25 -86.25Q-90.85 -88.25 -85.5 -88.25M-32.85,-84.7L-39.75 -85.25L-39.75 -84.75Q-37.2 -85.3 -33.3 -83L-32.85 -84.7M-28.9,-86.45Q-20.55 -83.4 -20.5 -65.5Q-20.45 -52.9 -27.85 -55.05Q-28.55 -54.55 -29.05 -52.9L-29.4 -50.7Q-29.4 -48.95 -25.45 -43.65Q-21.55 -38.3 -21.55 -34.45Q-21.55 -32.3 -22 -31.05Q-22.8 -28.75 -25.2 -28.75Q-28.15 -28.75 -29.5 -33.75Q-30.3 -36.8 -30.3 -39.95Q-30.3 -43.95 -31.15 -45.65Q-32.65 -48.85 -37.4 -49.95L-40.35 -49.95Q-41.35 -45.15 -42.45 -41.8Q-44.6 -35.5 -48.8 -35.5Q-51.8 -35.5 -51.9 -42.55L-51.9 -48.65Q-51.85 -52.35 -52.1 -54.1L-53.55 -63.9L-53.65 -72.4L-53.6 -80Q-53.1 -85.25 -51.25 -86.8L-46.95 -86.65L-37.35 -87.2Q-31.9 -87.5 -28.9 -86.45M-39.8,-82.75L-41.85 -80.25Q-42.7 -79.3 -42.7 -77.7L-42.15 -70.9L-42.4 -68.65L-42.65 -66.05L-42.75 -63.55L-42.9 -61.4Q-42.85 -58.85 -41.4 -56.05Q-39.75 -52.65 -37.3 -52.65Q-31.95 -52.65 -30.15 -60.1Q-29.3 -63.85 -29.45 -68.25Q-29.45 -73.45 -31 -77.2Q-33.55 -83.75 -39.8 -82.75M-37.15,19.4L-40.1 19.65Q-42.25 19.55 -42.8 21.7Q-43.45 24.4 -43.45 27L-43.2 29.35L-42.95 31.95L-43.4 43.35L-43.25 45.75L-41.35 48.3L-37.25 48.3Q-33.6 47.3 -31.85 40.8Q-30.7 36.35 -30.7 31.5Q-30.75 28.25 -31.1 26.25Q-31.55 23.65 -32.85 21Q-33.7 19.3 -35.1 18.95Q-36.3 18.7 -37.15 19.4M-21.8,22.05Q-20.8 23.75 -20.6 26.2L-20.55 31.2Q-20.5 45 -25.15 47.85Q-26.35 48.55 -28.45 49.5Q-29.95 50.6 -29.95 53.55Q-29.95 56.1 -26.75 58.45Q-23.5 60.7 -23.5 61.8Q-23.45 63.5 -23.9 64.3Q-24.5 65.45 -26.2 65.45Q-29.2 65.45 -30.8 63.3Q-31.85 61.85 -32.75 58.5Q-33.7 54.85 -34.35 53.75Q-35.6 51.6 -38.05 51.6Q-40.15 51.6 -42.8 58.7Q-45.4 65.8 -48.05 65.8Q-52.3 65.8 -53.85 60.85Q-54.7 58.3 -54.7 55.2L-54.75 38.6L-55.35 38.95L-55.85 37.85L-55.95 36.7Q-55.95 34.65 -55.25 30.7L-54.05 24.9Q-53.45 16.4 -50.4 14.45Q-48.25 13 -42.9 14.3L-42.9 14.05L-33.95 14.05Q-24.1 18.15 -21.8 22.05M-69.5,20.75Q-71.4 23.55 -77.5 22.2Q-79.9 23.15 -80.75 25.45Q-81.25 26.9 -81.25 29.5L-80.5 40.35Q-79.8 48.1 -79.3 49.1L-76.65 49.1Q-76.1 49 -75.3 48.4L-74.15 47.65L-71.6 47.65L-69.95 49.9L-69.85 51.8Q-69.85 57.45 -74.6 58.45L-78.2 58.75Q-80 58.95 -80.4 59.6Q-80.95 60.55 -81.3 64.05Q-81.7 67.25 -83.1 69L-85.95 69Q-91.15 68.55 -91.95 56.7Q-92.2 52.85 -92 47.1L-91.85 39.55L-93.3 25.6Q-93.3 22.7 -92.7 20.2Q-91.8 16.65 -89.95 15.7L-79.2 15.5Q-68.8 10.6 -68.75 17.15Q-68.75 19.7 -69.5 20.75" />
<path style="fill:#FAE0CC;fill-opacity:1" d="M49.4,-89.25Q52.8 -88.95 52.8 -86.55Q52.8 -85.75 52.5 -85.45Q51.8 -84.8 49.2 -84.8Q46.9 -84.8 46.25 -85.5Q46 -85.75 46 -86.4Q46 -89.55 49.4 -89.25M48.7,-54.3Q49.55 -55.45 51.15 -54.65L51.25 -53.8Q51.25 -51.7 49.3 -51.7Q48.3 -51.7 48 -52.2L47.95 -52.75L48.7 -54.3M13.9,-88L14.45 -87.05Q15.15 -86.5 15.15 -85.8Q15.15 -84.5 14.35 -84.05L11.5 -84.05Q9.8 -84.55 8.6 -85.3Q7.15 -86.4 7.15 -87.55L7.45 -87.7Q7.75 -88 7.75 -88.8Q10.85 -88.75 12.9 -87.95L13.9 -88M13.1,-51.1Q13.1 -52.65 14.55 -52.45Q15.95 -52.35 15.95 -51L15.7 -49.95L14.55 -49.7Q13.45 -49.7 13.2 -50.2L13.1 -51.1M52.4,15.9L55.3 16.25L55.35 16.45L55.45 17.15L55.2 18.2L54.35 18.45Q53.15 18.45 52.65 17.55Q52.35 17.15 52.35 16.65L52.35 16.05L52.4 15.9M57.95,18.15Q59 18.4 60.4 20.05Q64 24.35 64 29.2L63.9 30.65Q63.65 31.45 62.7 31.45Q62.5 31.45 59.6 25.35L56.85 19.55Q56.85 17.9 57.95 18.15M62.8,29L62.4 27.1Q62.2 25.7 61.85 25.45L62.3 29.35Q62.7 29.35 62.8 29M9.1,15.7Q9.1 13 14.65 14.05L15.15 14.8L15.45 15.5Q15.5 17.25 14.5 17.15L11.1 16.65Q10.8 16.65 10.65 17.15L10.15 17.65Q9.55 17.65 9.3 16.7L9.1 15.7M-31.15,-84.8Q-31.15 -84.05 -31.75 -83.7L-33.4 -83.7L-34.5 -84.8L-34.1 -85.95L-33.05 -86Q-32.05 -86 -31.15 -84.8M-21.5,-76.55Q-21.45 -75.85 -21.55 -75.2L-22.75 -75.05Q-24.3 -75.05 -26.8 -79.3Q-29.05 -83.2 -29.05 -84.05Q-29.05 -86.2 -27.85 -86.5Q-26.8 -86.7 -25.3 -85.3Q-21.5 -82.05 -21.5 -76.55M-77.75,-85.8Q-77.75 -88.9 -73.75 -89Q-69.75 -89.2 -69.75 -86.2Q-69.75 -85.2 -70.4 -84.75Q-71.5 -84.05 -75.05 -84.05Q-77.2 -84.05 -77.7 -84.9Q-77.9 -85.25 -77.75 -85.8M-68.55,-86Q-68.35 -86.9 -67.7 -87.05L-67.35 -86.45Q-67.45 -86 -68 -85.25L-68.55 -86M-70.95,-53.65Q-70.6 -53.5 -70.35 -52.9L-70.15 -51.95L-70.4 -51.1Q-70.65 -50.5 -70.95 -50.45L-72.85 -50.45L-73.3 -51.15L-73.4 -52.2L-73.3 -53.2Q-72.75 -54.05 -70.95 -53.65M-30.65,16.7Q-30.4 16.45 -29.8 16.45Q-27.4 16.45 -24.8 20.3Q-22.45 23.7 -22.45 25.45L-22.45 26.2L-22.55 26.5L-22.85 26.7L-23.5 26.85Q-26.4 26.85 -27.8 23.45Q-29.65 18.9 -31.2 17.65L-30.65 16.7M-31.95,15.9Q-31.9 16.55 -32.3 17.4Q-32.8 18.45 -33.55 18.45Q-34.35 18.45 -34.95 17.25L-35.45 15.75Q-35.45 14.25 -32.05 14.7L-31.95 15.9M-45.45,16Q-46.6 16.2 -47.4 16.9L-47.8 16.65L-48 15.75Q-48 15 -47.45 14.3Q-46.65 13.2 -45.05 13.85L-45 14.05L-44.9 14.8Q-44.9 15.95 -45.45 16M-75.7,18.05Q-76.35 18.05 -76.6 15.65Q-76.6 15.3 -76.2 14.95Q-75.75 14.55 -75.75 14.05L-72.7 14.2L-70.8 14.45L-70.35 14.75Q-70.2 15 -70.2 15.65Q-70.15 16.15 -71.8 17Q-73.7 18.05 -75.7 18.05M-80.75,16.7L-80.65 15.7L-80.3 15.25Q-79.6 16.3 -79.6 17.5L-80.25 18.05L-80.6 17.65L-80.75 16.7M-69.9,49.4L-69.85 51L-69.9 52.95Q-70.05 53.55 -70.8 53.55Q-72.1 53.55 -73.35 50.6Q-73.35 49.5 -73 48.55Q-72.35 46.8 -70.9 47.65Q-70.1 48.3 -69.9 49.4" />
</g>
</svg>
