<?xml version="1.0" encoding="utf-8"?>
<svg version="1.1" id="Layer_1"
xmlns="http://www.w3.org/2000/svg"
xmlns:xlink="http://www.w3.org/1999/xlink"
xmlns:author="http://www.sothink.com"
width="120px" height="160px"
xml:space="preserve">
<g id="168" transform="matrix(1, 0, 0, 1, 52.65, 149.45)">
<path style="fill:#FF0000;fill-opacity:0" d="M66.8,9.65L-52.65 9.65L-52.65 -149.45L66.8 -149.45L66.8 9.65" />
<path style="fill:#849AB1;fill-opacity:1" d="M60.25,-99.65L60 -100.7L59.35 -100.85Q59 -100.85 50.6 -97.15Q41.85 -93.3 40.65 -93L29.9 -90.85L18.65 -89.4L-4.9 -90.9L-7.85 -90.7L-11.75 -90.55L-14 -90.7L-16.35 -90.9L-26.9 -91.8L-35.95 -93.3L-44.35 -94.35L-49.6 -95.05L-49.55 -96.45L-49.4 -96.65Q-48.95 -97.45 -47.1 -97.45L-43.5 -97.1L-28.3 -95.45L-28 -95.45L-24.7 -95.1L-24.2 -95.05L-11.3 -93.85L-11.3 -93.8L-10.95 -93.85L7.85 -92.85Q29.4 -92.85 45.35 -98.6L55 -102.65Q59.35 -104.45 61.7 -104.45Q62.8 -104.45 63.35 -102.75L63.9 -99Q64.1 -95.85 60.05 -93.5Q60 -95.05 60.25 -99.65M-34.1,-133.75L-31.25 -133.5L-28.7 -133.2L-26.05 -132.95L-25.65 -132.9L-22 -132.5L-19 -132.25L-17.3 -132.2Q-16.6 -131.25 -16.7 -129.5L-17.3 -126.6Q-17.55 -126 -18.35 -125.65L-18.75 -126.65Q-19.65 -129.45 -23.95 -129.9Q-27.15 -130.2 -29.4 -130.85L-33.6 -131.35L-38.15 -131.1L-39.85 -131.35Q-39.45 -132.5 -38.55 -133.05Q-37.5 -133.7 -34.75 -133.75L-34.1 -133.75" />
<path style="fill:#5B738C;fill-opacity:1" d="M38.4,-85.95Q32.5 -84.8 27.4 -84.8Q23.45 -84.8 5.15 -85.35L-15.5 -86.1L-25.95 -86.9L-36.1 -87.8L-41.1 -88.4L-45.7 -88.5L-46.3 -88.45Q-49.1 -88.2 -49.55 -91.45L-49.6 -95.05L-44.35 -94.35L-35.95 -93.3L-26.9 -91.8L-16.35 -90.9L-14 -90.7L-11.75 -90.55L-7.85 -90.7L-4.9 -90.9L18.65 -89.4L29.9 -90.85L40.65 -93Q41.85 -93.3 50.6 -97.15Q59 -100.85 59.35 -100.85L60 -100.7L60.25 -99.65Q60 -95.05 60.05 -93.5L58.5 -92.75L53.25 -90.85L52.9 -90.75L50.55 -89.85L49.7 -89.45Q45.15 -87.25 38.4 -85.95M-20.75,-125.15L-21 -125.1Q-22.5 -125 -24.5 -125.05L-29.4 -125.4L-38.6 -125.75Q-40.05 -126.65 -40.1 -128.7Q-40.2 -130.3 -39.85 -131.35L-38.15 -131.1L-33.6 -131.35L-29.4 -130.85Q-27.15 -130.2 -23.95 -129.9Q-19.65 -129.45 -18.75 -126.65L-18.35 -125.65L-20.75 -125.15" />
<path style="fill:#727374;fill-opacity:1" d="M49.7,-89.45L51.4 -88.2L48.35 -83.4L41.1 -80.7Q37.9 -79.4 31.65 -79.4Q29.9 -79.4 29 -79.95Q27.6 -80.8 24.5 -81.35L19 -82L14.55 -81.9L11.25 -81.5L11.15 -81.4L8.45 -81.1L4.55 -81.3L-0.05 -81.9L-5.2 -82.35L-9 -82.55L-8.95 -82.5L-9.35 -82.35L-9.4 -82.5L-15 -81.9L-25.5 -81.35L-29.4 -81.7L-32.55 -82.1L-37.85 -81.4L-43.5 -80.75L-44.2 -80.4L-44.4 -80.75Q-45.85 -84.25 -45.65 -88.15L-45.7 -88.5L-41.1 -88.4L-36.1 -87.8L-25.95 -86.9L-15.5 -86.1L5.15 -85.35Q23.45 -84.8 27.4 -84.8Q32.5 -84.8 38.4 -85.95Q45.15 -87.25 49.7 -89.45M-39.9,-110.1L-38.4 -110.3L-37.8 -110.5L-35.65 -110.2L-23.6 -111Q-22.45 -111 -21.4 -109.7Q-20.55 -108.6 -20 -107.15L-19.35 -105.1L-33.6 -105.75L-40.45 -105.2L-40.7 -110L-40.7 -110.2L-39.9 -110.1" />
<path style="fill:#8B8B8C;fill-opacity:1" d="M-11.3,-93.85L-24.2 -95.05Q-23.75 -96.9 -23.85 -98.6L-24 -100.4Q-24.3 -101.2 -25.9 -101.2Q-28 -101.2 -28 -95.45L-28.3 -95.45L-43.5 -97.1Q-43.5 -100.8 -42.7 -102.8L-41.7 -102.65L-39.3 -103L-36.55 -103.3L-25.8 -102.6L-23.4 -102.4Q-19.25 -102.05 -16.65 -100.7L-16.6 -100.7L-14.8 -97.8Q-13.65 -95.9 -11.4 -95.6L-11.3 -93.85M-22.7,-2.85L-22.6 -5.4L-22.45 -14.4Q-22.2 -27 -22.5 -31.55Q-23.1 -41 -24.65 -49.6Q-26.6 -60.55 -29.2 -63.95Q-32.35 -68.05 -40.05 -74.4Q-42.85 -77.2 -44.2 -80.4L-43.5 -80.75L-37.85 -81.4L-32.55 -82.1L-29.4 -81.7L-25.5 -81.35L-15 -81.9L-9.4 -82.5L-9.35 -82.35L-8.95 -82.5L-9 -82.55L-5.2 -82.35L-0.05 -81.9L4.55 -81.3L8.45 -81.1L11.15 -81.4L11.25 -81.5L14.55 -81.9L19 -82L24.5 -81.35Q27.6 -80.8 29 -79.95Q29.9 -79.4 31.65 -79.4Q37.9 -79.4 41.1 -80.7L48.35 -83.4Q42.6 -74.1 38.7 -64.7Q32.05 -48.35 31.6 -33L31.5 -23.35Q31.35 -16.55 30.8 -9.65L30.3 -5.7L-22.6 -5.4L-22.45 -2.85L-22.7 -2.85M0.95,-75.4L0.8 -74.55L0.8 -72.85L0.8 -70.9Q1 -68.4 4.95 -67.95L11.2 -67.95L18.5 -68.05L20.7 -68.25Q23.55 -69.25 23.2 -75.15Q22.9 -79.2 18.9 -79.9L11.55 -79.9L8.5 -79.85L4.9 -79.75L4.2 -79.65Q1.65 -78.9 1 -75.8L0.95 -75.4M-28.15,-113.15L-31.95 -112.95L-37.75 -112.8L-38 -112.8Q-38.65 -121.35 -38.6 -125.75L-29.4 -125.4L-24.5 -125.05Q-22.5 -125 -21 -125.1L-21.25 -124.75L-21.25 -124.1L-21.1 -121.35L-21.1 -119.75Q-21.2 -117.6 -20.9 -113.45L-20.95 -112.85L-28.15 -113.15M-24.4,-123.15L-30.25 -123.15L-29.85 -123.1L-30.15 -123.1L-29.85 -119.1L-27.9 -119.1Q-25.8 -118.75 -24.7 -119.35Q-23.55 -120 -23.8 -121.55Q-24.15 -123.1 -24.4 -123.15M-13.8,-77.2L-13.8 -76.85Q-13.6 -74.1 -11.95 -73.5L-7.75 -73.2L-6.85 -73.2Q-5.6 -73.2 -5.5 -74.8Q-5.35 -75.7 -5.65 -77Q-5.75 -78.45 -6 -79.05Q-6.25 -79.65 -8.1 -79.9L-14.45 -79.9L-14.4 -79.45L-14.3 -78.15L-13.85 -77.8L-13.8 -77.2" />
<path style="fill:#525354;fill-opacity:1" d="M-24.2,-95.05L-24.7 -95.1L-28 -95.45Q-28 -101.2 -25.9 -101.2Q-24.3 -101.2 -24 -100.4L-23.85 -98.6Q-23.75 -96.9 -24.2 -95.05M18.75,-70.7Q18.55 -73.4 16.2 -74.7Q14.7 -75.6 12.95 -75.6L3.95 -75.1L1.65 -75.4L1 -75.8Q1.65 -78.9 4.2 -79.65L4.9 -79.75L8.5 -79.85L11.55 -79.9L18.9 -79.9Q22.9 -79.2 23.2 -75.15Q23.55 -69.25 20.7 -68.25L18.5 -68.05L18.75 -70.7M-8,-74Q-8.05 -75 -9.1 -76.05Q-10.05 -77.05 -10.55 -77.05L-13.8 -77.2L-13.85 -77.8L-14.4 -79.45L-14.45 -79.9L-8.1 -79.9Q-6.25 -79.65 -6 -79.05Q-5.75 -78.45 -5.65 -77Q-5.35 -75.7 -5.5 -74.8Q-5.6 -73.2 -6.85 -73.2L-7.75 -73.2L-8 -74" />
<path style="fill:#656566;fill-opacity:1" d="M18.5,-68.05L11.2 -67.95L4.95 -67.95Q1 -68.4 0.8 -70.9L0.8 -72.85L0.8 -74.55L0.95 -75.4L1 -75.8L1.65 -75.4L3.95 -75.1L12.95 -75.6Q14.7 -75.6 16.2 -74.7Q18.55 -73.4 18.75 -70.7L18.5 -68.05M-7.75,-73.2L-11.95 -73.5Q-13.6 -74.1 -13.8 -76.85L-13.8 -77.2L-10.55 -77.05Q-10.05 -77.05 -9.1 -76.05Q-8.05 -75 -8 -74L-7.75 -73.2" />
<path style="fill:#E0E0E2;fill-opacity:1" d="M-22.45,-2.85L-22.6 -5.4L30.3 -5.7L29.5 -2.25L-22.45 -2.85" />
<path style="fill:#2C2C2C;fill-opacity:1" d="M-22.1,-134.95L-22.4 -135.85Q-22.7 -136.6 -23.15 -136.6Q-24.8 -136.6 -25.1 -136.2L-26.05 -132.95L-28.7 -133.2L-26.35 -140.75L-26.35 -140.85L-25.65 -143.75L-28.1 -143.8L-29.6 -143.85L-29.85 -144.8Q-30 -146.35 -29.65 -146.6L-27.65 -146.7L-26.8 -146.6L-25.15 -146.6L-25.1 -146.8L-25.1 -146.85L-25.35 -147.9L-24.65 -148.5L-23.85 -148.7L-22.7 -148.35Q-22.2 -147.95 -22.15 -147.4L-22.25 -146.35L-20.75 -146.35L-18.45 -145.95Q-16.7 -145.55 -16.7 -145.05Q-16.6 -143.6 -17.15 -143.2L-19.1 -142.9L-21.45 -143.25L-21.15 -142.1L-20.95 -141.3Q-19.6 -136.4 -19 -132.25L-22 -132.5L-22.1 -134.95M-23,-141.75L-23.55 -142L-24.1 -141.85L-24.35 -141.1L-24.65 -140.15L-24.65 -139.55L-23.6 -139.5Q-22.9 -139.5 -22.85 -139.95L-22.85 -141L-23 -141.75M-23.8,-121.55Q-23.55 -120 -24.7 -119.35Q-25.8 -118.75 -27.9 -119.1L-29.85 -119.1L-30.15 -123.1L-29.85 -123.1L-30.25 -123.15L-24.4 -123.15Q-24.15 -123.1 -23.8 -121.55" />
<path style="fill:#88898A;fill-opacity:1" d="M-42.65,-138.25L-42.7 -138.25Q-42.15 -140.85 -39.55 -142.65L-39.6 -142.1L-39.2 -140.9L-38.15 -139.15L-38.45 -138.95Q-39.55 -138 -40.95 -138L-41.9 -138.1L-42.65 -138.25M-36.95,-142.8L-38.45 -143.25L-38.55 -143.25L-38.15 -143.5L-33.95 -145.9L-33.7 -145.9L-33.65 -145.45Q-33.6 -144.6 -34.05 -143.65Q-34.45 -142.7 -35.2 -141.95Q-35.7 -142.45 -36.95 -142.8" />
<path style="fill:#ADAEAF;fill-opacity:1" d="M-31.25,-133.5L-34.1 -133.75L-34.75 -133.75L-34.75 -136.15L-34.8 -136.55Q-35.8 -136.05 -36.95 -136.05Q-39.35 -136.05 -41.9 -138.1L-40.95 -138Q-39.55 -138 -38.45 -138.95L-38.15 -139.15L-35.55 -141.7L-35.2 -141.95Q-34.45 -142.7 -34.05 -143.65Q-33.6 -144.6 -33.65 -145.45L-33.7 -145.9L-32.75 -143.9Q-32.25 -142.65 -32.15 -141.5Q-32.05 -139.75 -32.75 -138.45L-32.15 -137.1L-31.55 -135.05L-32.45 -137.25Q-33.25 -138.9 -33.8 -139.4Q-34.4 -140 -34.35 -138.8L-33.4 -136.55Q-32.2 -134.05 -31.6 -134.05L-31.35 -134.25L-31.25 -133.5M-39.55,-142.65Q-42.15 -140.85 -42.7 -138.25Q-43.25 -138.55 -43.3 -139.45Q-43.45 -141.4 -41.65 -143.7Q-40.4 -145.35 -38.75 -146.15L-37.9 -146.6L-35.75 -147.2Q-34.25 -147.2 -33.8 -146.1L-33.7 -145.9L-33.95 -145.9L-38.15 -143.5L-38.55 -143.25Q-39.3 -143.2 -39.55 -142.65M-40.7,-110.2Q-40.4 -112.65 -38 -112.8L-37.75 -112.8L-31.95 -112.95L-28.15 -113.15L-20.95 -112.85L-20 -112.65Q-16.25 -111.15 -17.65 -104.95Q-15.15 -104.4 -12.95 -102.1Q-10.1 -99.1 -11.5 -96.45L-11.4 -95.6Q-13.65 -95.9 -14.8 -97.8L-16.6 -100.7L-16.65 -100.7Q-19.25 -102.05 -23.4 -102.4L-25.8 -102.6L-36.55 -103.3L-39.3 -103L-41.7 -102.65L-42.7 -102.8Q-42.15 -104.4 -41.05 -105L-40.45 -105.2L-33.6 -105.75L-19.35 -105.1L-20 -107.15Q-20.55 -108.6 -21.4 -109.7Q-22.45 -111 -23.6 -111L-35.65 -110.2L-37.8 -110.5L-38.4 -110.3L-39.9 -110.1L-40.7 -110.2M-33.2,-140.4Q-32.75 -140.4 -32.85 -142Q-32.9 -143.15 -33.5 -143.05Q-34.15 -142.95 -34.1 -142.05Q-33.95 -140.4 -33.2 -140.4" />
<path style="fill:#D5D7D9;fill-opacity:1" d="M-38.55,-143.25L-38.45 -143.25L-36.95 -142.8Q-35.7 -142.45 -35.2 -141.95L-35.55 -141.7L-38.15 -139.15L-39.2 -140.9L-39.6 -142.1L-39.55 -142.65Q-39.3 -143.2 -38.55 -143.25" />
<path style="fill:#DEE2E5;fill-opacity:1" d="M-34.1,-142.05Q-34.15 -142.95 -33.5 -143.05Q-32.9 -143.15 -32.85 -142Q-32.75 -140.4 -33.2 -140.4Q-33.95 -140.4 -34.1 -142.05M-31.35,-134.25L-31.6 -134.05Q-32.2 -134.05 -33.4 -136.55L-34.35 -138.8Q-34.4 -140 -33.8 -139.4Q-33.25 -138.9 -32.45 -137.25L-31.55 -135.05L-31.35 -134.55L-31.35 -134.25" />
<path style="fill:#BF5D5D;fill-opacity:1" d="M-22.45,-2.85L29.5 -2.25Q28.65 0.8 27.25 3.7Q26 6.4 21.35 6.9L9 7.65L-10.1 7.85Q-16.3 7.85 -18.5 6.95Q-22.3 5.3 -22.65 0.05L-22.7 -2.85L-22.45 -2.85" />
<path style="fill:none;stroke-width:1;stroke-linecap:butt;stroke-linejoin:miter;stroke-miterlimit:3;stroke:#484848;stroke-opacity:1" d="M60.05,-93.5Q64.1 -95.85 63.9 -99L63.35 -102.75Q62.8 -104.45 61.7 -104.45Q59.35 -104.45 55 -102.65L45.35 -98.6Q29.4 -92.85 7.85 -92.85L-10.95 -93.85L-11.3 -93.8L-11.3 -93.85L-24.2 -95.05L-24.7 -95.1L-28 -95.45L-28.3 -95.45L-43.5 -97.1L-47.1 -97.45Q-48.95 -97.45 -49.4 -96.65L-49.55 -96.45L-49.6 -95.05M60.05,-93.5L58.5 -92.75L53.25 -90.85L53.25 -90.55L53 -90.55L51.4 -88.2L48.35 -83.4Q42.6 -74.1 38.7 -64.7Q32.05 -48.35 31.6 -33L31.5 -23.35Q31.35 -16.55 30.8 -9.65L30.3 -5.7L29.5 -2.25Q28.65 0.8 27.25 3.7Q26 6.4 21.35 6.9L9 7.65L-10.1 7.85Q-16.3 7.85 -18.5 6.95Q-22.3 5.3 -22.65 0.05L-22.7 -2.85L-22.6 -5.4L-22.45 -14.4Q-22.2 -27 -22.5 -31.55Q-23.1 -41 -24.65 -49.6Q-26.6 -60.55 -29.2 -63.95Q-32.35 -68.05 -40.05 -74.4Q-42.85 -77.2 -44.2 -80.4L-44.4 -80.75Q-45.85 -84.25 -45.65 -88.15M-45.7,-88.5L-46.3 -88.45Q-49.1 -88.2 -49.55 -91.45L-49.6 -95.05M53,-90.55L53.25 -90.85L52.9 -90.75L50.55 -89.85L49.7 -89.45M-45.7,-88.5L-41.1 -88.4L-36.1 -87.8L-25.95 -86.9L-15.5 -86.1L5.15 -85.35Q23.45 -84.8 27.4 -84.8Q32.5 -84.8 38.4 -85.95Q45.15 -87.25 49.7 -89.45M1,-75.8Q1.65 -78.9 4.2 -79.65L4.9 -79.75L8.5 -79.85L11.55 -79.9L18.9 -79.9Q22.9 -79.2 23.2 -75.15Q23.55 -69.25 20.7 -68.25L18.5 -68.05L11.2 -67.95L4.95 -67.95Q1 -68.4 0.8 -70.9L0.8 -72.85L0.8 -74.55L0.95 -75.4L1 -75.8M-42.7,-138.25L-42.65 -138.25L-41.9 -138.1L-40.95 -138Q-39.55 -138 -38.45 -138.95L-38.15 -139.15L-39.2 -140.9L-39.6 -142.1L-39.55 -142.65M-41.9,-138.1Q-39.35 -136.05 -36.95 -136.05Q-35.8 -136.05 -34.8 -136.55L-35.1 -139.05Q-34.9 -140 -34.2 -140Q-33.55 -140 -32.75 -138.45Q-32.05 -139.75 -32.15 -141.5Q-32.25 -142.65 -32.75 -143.9L-33.7 -145.9L-33.65 -145.45Q-33.6 -144.6 -34.05 -143.65Q-34.45 -142.7 -35.2 -141.95L-35.55 -141.7L-38.15 -139.15M-11.4,-95.6L-11.5 -96.45Q-10.1 -99.1 -12.95 -102.1Q-15.15 -104.4 -17.65 -104.95L-19.05 -105.1L-19.35 -105.1L-33.6 -105.75L-40.45 -105.2L-41.05 -105Q-42.15 -104.4 -42.7 -102.8Q-43.5 -100.8 -43.5 -97.1M-42.7,-138.25Q-43.25 -138.55 -43.3 -139.45Q-43.45 -141.4 -41.65 -143.7Q-40.4 -145.35 -38.75 -146.15L-37.9 -146.6L-35.75 -147.2Q-34.25 -147.2 -33.8 -146.1L-33.7 -145.9M-38.55,-143.25L-38.45 -143.25L-36.95 -142.8Q-35.7 -142.45 -35.2 -141.95M-40.45,-105.2L-40.7 -110L-40.7 -110.2Q-40.4 -112.65 -38 -112.8Q-38.65 -121.35 -38.6 -125.75Q-40.05 -126.65 -40.1 -128.7Q-40.2 -130.3 -39.85 -131.35Q-39.45 -132.5 -38.55 -133.05Q-37.5 -133.7 -34.75 -133.75L-34.75 -136.15L-34.8 -136.55M-38.6,-125.75L-29.4 -125.4L-24.5 -125.05Q-22.5 -125 -21 -125.1L-20.75 -125.15L-18.35 -125.65Q-17.55 -126 -17.3 -126.6L-16.7 -129.5Q-16.6 -131.25 -17.3 -132.2L-19 -132.25L-22 -132.5L-25.65 -132.9L-26.05 -132.95L-28.7 -133.2L-31.25 -133.5L-34.1 -133.75L-34.75 -133.75M-28.7,-133.2L-26.35 -140.75L-26.35 -140.85L-25.65 -143.75L-28.1 -143.8L-29.6 -143.85L-29.85 -144.8Q-30 -146.35 -29.65 -146.6L-27.65 -146.7L-26.8 -146.6L-25.15 -146.6L-25.1 -146.8L-25.1 -146.85L-25.35 -147.9L-24.65 -148.5L-23.85 -148.7L-22.7 -148.35Q-22.2 -147.95 -22.15 -147.4L-22.25 -146.35L-20.75 -146.35L-18.45 -145.95Q-16.7 -145.55 -16.7 -145.05Q-16.6 -143.6 -17.15 -143.2L-19.1 -142.9L-21.45 -143.25L-21.15 -142.1L-20.95 -141.3Q-19.6 -136.4 -19 -132.25M-22.2,-145.7L-21.45 -143.25M-23,-141.75L-23.55 -142L-24.1 -141.85L-24.35 -141.1L-24.65 -140.15L-24.65 -139.55L-23.6 -139.5Q-22.9 -139.5 -22.85 -139.95L-22.85 -141L-23 -141.75M-26.05,-132.95L-25.1 -136.2Q-24.8 -136.6 -23.15 -136.6Q-22.7 -136.6 -22.4 -135.85L-22.1 -134.95L-22 -132.5M-25.15,-146.6L-25.65 -143.75M-31.55,-135.05L-32.15 -137.1L-32.75 -138.45M-31.35,-134.25L-31.25 -133.5M-21,-125.1L-21.25 -124.75L-21.25 -124.1L-21.1 -121.35L-21.1 -119.75Q-21.2 -117.6 -20.9 -113.45M-38,-112.8L-37.75 -112.8L-31.95 -112.95L-28.15 -113.15L-20.95 -112.85L-20 -112.65Q-16.25 -111.15 -17.65 -104.95M-24.4,-123.15L-30.25 -123.15L-29.85 -123.1L-30.15 -123.1L-29.85 -119.1L-27.9 -119.1Q-25.8 -118.75 -24.7 -119.35Q-23.55 -120 -23.8 -121.55Q-24.15 -123.1 -24.4 -123.15M-28,-95.45Q-28 -101.2 -25.9 -101.2Q-24.3 -101.2 -24 -100.4L-23.85 -98.6Q-23.75 -96.9 -24.2 -95.05M-11.4,-95.6L-11.3 -93.85L-10.95 -93.85M-13.85,-77.8L-14.4 -79.45L-14.45 -79.9L-8.1 -79.9Q-6.25 -79.65 -6 -79.05Q-5.75 -78.45 -5.65 -77Q-5.35 -75.7 -5.5 -74.8Q-5.6 -73.2 -6.85 -73.2L-7.75 -73.2L-11.95 -73.5Q-13.6 -74.1 -13.8 -76.85L-13.8 -77.2L-13.85 -77.8" />
<path style="fill:#727374;fill-opacity:1" d="M41.9,-78.65Q41 -78.65 41.05 -77.65L41.3 -77.25Q41.5 -76.95 41.95 -76.95L42.4 -77.15L42.75 -77.75Q42.7 -78.65 41.9 -78.65M42.6,-76.25Q42.4 -75.65 41.65 -75.65Q40.9 -75.65 40.4 -76.15Q39.8 -76.2 39.7 -76.75Q39.6 -77 39.65 -77.4Q39.55 -78.95 41.3 -79.05Q43.1 -79.2 43.2 -77.65Q43.3 -76.65 42.65 -76.5L42.6 -76.25M16.05,-56.5L15.9 -55.65Q15.6 -55.2 14.55 -55.2Q13.25 -55.2 12.8 -56.1L12.65 -56.9Q12.5 -58.85 14.3 -58.5L14.85 -58.35Q14.2 -58.35 14.25 -57.55Q14.05 -56.5 15.2 -56.5L15.65 -56.55L15.75 -56.65L15.75 -57.45L15.75 -57.6L16.05 -56.5M6.7,-19.35Q7.15 -18.8 7.45 -18.8Q7.75 -18.8 7.9 -19L7.95 -19.3L7.4 -20.05L6.35 -20.4L6.25 -20.3L6.3 -20L6.7 -19.35M8.2,-19.15L8.15 -18.1Q7.9 -17.5 6.95 -17.5Q5.7 -17.5 5.15 -18.45L4.8 -19.4Q4.75 -20.55 6.7 -20.55Q7.9 -20.55 8.15 -19.85L8.2 -19.15M-23.2,-66.4Q-23.3 -68.2 -21.4 -68.4Q-19.55 -68.55 -19.4 -66.65Q-19.35 -65.85 -19.45 -65.55Q-19.7 -64.65 -20.8 -64.65Q-22.1 -64.65 -22.75 -65.45L-23.2 -66.4M-20.7,-66Q-19.95 -66 -20 -66.75Q-20.05 -67.4 -20.65 -67.55Q-21.3 -67.8 -21.95 -67.2L-21.65 -66.5Q-21.25 -66 -20.7 -66M-15.75,-66.85Q-15.85 -68.2 -14.35 -68.3Q-12.9 -68.4 -12.85 -67.2Q-12.7 -65.3 -14.05 -65.3Q-15.25 -65.3 -15.6 -66.05Q-15.85 -66.4 -15.75 -66.85M-14.6,-67.05L-14 -66.4Q-13.75 -66.5 -13.55 -66.65L-13.55 -67.1L-13.65 -67.55Q-14.65 -67.85 -14.6 -67.05M-9.8,-35.15Q-9.8 -34.6 -10.1 -34.15Q-10.4 -33.7 -10.95 -33.7Q-12.7 -33.7 -12.45 -35.1Q-12.55 -36.05 -11.75 -36.3L-11.9 -36.1L-11.75 -35.8L-11.65 -35.65L-11.25 -35.55Q-10.9 -35.55 -10.65 -35.85L-10.75 -36.25Q-9.9 -36.05 -9.8 -35.15M-10.3,-28.55Q-10.2 -26.9 -11.85 -26.9Q-12.95 -26.9 -13.15 -27.5L-13.2 -28.15Q-13.3 -29.75 -11.8 -29.85Q-10.4 -29.95 -10.3 -28.55M-10.55,-28.7Q-10.85 -29.25 -11.3 -29.45Q-11.8 -29.7 -11.75 -28.95Q-11.65 -28.15 -11.05 -28.15Q-10.65 -28.15 -10.6 -28.3L-10.55 -28.7M-4.85,-33.65Q-5 -33 -5.8 -33Q-7.35 -33 -8.35 -34.75Q-8.45 -36.25 -6.7 -36.25Q-5 -36.3 -4.9 -34.6L-4.85 -33.65M-5.7,-34.55L-5.65 -34.8Q-5.9 -35.65 -6.5 -35.9Q-7.15 -36.25 -7.1 -35.5Q-6.75 -34.3 -6.1 -34.3L-5.7 -34.35L-5.7 -34.55" />
<path style="fill:#C7C8C9;fill-opacity:1" d="M42.75,-77.75L42.4 -77.15L41.95 -76.95Q41.5 -76.95 41.3 -77.25L41.05 -77.65Q41 -78.65 41.9 -78.65Q42.7 -78.65 42.75 -77.75M15,-58.35Q15.6 -58.3 15.75 -57.6L15.75 -57.45L15.75 -56.65L15.65 -56.55L15.2 -56.5Q14.05 -56.5 14.25 -57.55Q14.2 -58.35 14.85 -58.35L15 -58.35M6.3,-20L6.25 -20.3L6.35 -20.4L7.4 -20.05L7.95 -19.3L7.9 -19Q7.75 -18.8 7.45 -18.8Q7.15 -18.8 6.7 -19.35L6.3 -20M-21.65,-66.5L-21.95 -67.2Q-21.3 -67.8 -20.65 -67.55Q-20.05 -67.4 -20 -66.75Q-19.95 -66 -20.7 -66Q-21.25 -66 -21.65 -66.5M-13.65,-67.55L-13.55 -67.1L-13.55 -66.65Q-13.75 -66.5 -14 -66.4L-14.6 -67.05Q-14.65 -67.85 -13.65 -67.55M-11.55,-36.55L-10.75 -36.35L-10.75 -36.25L-10.65 -35.85Q-10.9 -35.55 -11.25 -35.55L-11.65 -35.65L-11.75 -35.8L-11.9 -36.1L-11.75 -36.3L-11.55 -36.55M-10.6,-28.3Q-10.65 -28.15 -11.05 -28.15Q-11.65 -28.15 -11.75 -28.95Q-11.8 -29.7 -11.3 -29.45Q-10.85 -29.25 -10.55 -28.7L-10.6 -28.3M-5.7,-34.35L-6.1 -34.3Q-6.75 -34.3 -7.1 -35.5Q-7.15 -36.25 -6.5 -35.9Q-5.9 -35.65 -5.65 -34.8L-5.7 -34.55L-5.7 -34.35" />
<path style="fill:none;stroke-width:1;stroke-linecap:butt;stroke-linejoin:miter;stroke-miterlimit:3;stroke:#676869;stroke-opacity:1" d="M10.1,-85.3Q10.35 -81.6 10.8 -80.15M10.6,-67.45L10.75 -63.4L10.8 -58.3Q11.1 -53.95 12.95 -53.55L20.1 -53.25L20.5 -53.25L21.2 -53.2L34.05 -51.3M-19.05,-86.45Q-19.4 -83.6 -18.5 -77.8Q-17.35 -70.8 -17.3 -68.7Q-17.2 -66.3 -17.7 -64.55L-15.4 -64.55L-9.75 -63.75L-3.05 -63.95L3.35 -64.3L7.55 -63.85L10.45 -63.4M20.1,-53.25L20.5 -53.2L20.65 -50.65Q20.1 -48.4 20.05 -42.55Q20.05 -36.5 19.55 -34.5Q19 -31.8 14.3 -31.5Q11.7 -31.25 6.4 -31.6L3.05 -31.6L3.1 -25L3.55 -19.15Q3.8 -17.25 4.7 -16.65Q5.6 -16.15 8.15 -16L15.05 -15.55L23.95 -14.1L30.7 -13.35M-27.1,-60.1Q-19.4 -59.15 -17.7 -64.55M3.05,-31.6L-9.25 -31.75L-9.2 -31.1Q-9.55 -28 -9.3 -19.3Q-9.15 -16.55 -9.35 -14.4L-8.65 -5.65M-9.25,-31.75L-22.35 -31.95" />
</g>
</svg>
