<?xml version="1.0" encoding="utf-8"?>
<svg version="1.1" id="Layer_1"
xmlns="http://www.w3.org/2000/svg"
xmlns:xlink="http://www.w3.org/1999/xlink"
xmlns:author="http://www.sothink.com"
width="191px" height="183px"
xml:space="preserve">
<g id="336" transform="matrix(1, 0, 0, 1, 10.4, -386.65)">
<path style="fill:#000000;fill-opacity:0.2" d="M0,554.5Q0 548.5 24.4 544.3Q48.75 540.1 83.3 540.1Q117.85 540.1 142.25 544.3Q166.6 548.5 166.6 554.5Q166.6 560.5 142.25 564.7Q117.85 568.9 83.3 568.9Q48.75 568.9 24.4 564.7Q0 560.5 0 554.5" />
<path style="fill:#FC850F;fill-opacity:1" d="M147.3,412.95L146.35 414.65L145.95 416.2L145.6 418Q145.6 419.95 146.2 420.95Q147.05 422.45 149.4 422.45Q152.65 422.45 154.7 419.9Q156.25 417.95 156.25 416.35Q156.25 415.4 155.85 414.8L154.1 413.1L152.1 411.9Q150.6 411.1 149.05 411.55Q147.85 411.85 147.3 412.95M117.55,397Q116.4 396.9 110.15 407.8L104.1 418.7L108.35 417.5L108.1 420.85L112.45 419.05L111.15 424.15L114.5 422.6L116.25 427.5L117.6 412.35Q118.7 397.15 117.55 397M75.3,450.8L75.5 451.9Q75.85 453.25 76.7 454.45Q79.5 458.15 86.55 458.7Q94.65 459.3 100.25 454.4Q105.6 449.75 104 444.65Q102.1 438.45 94.25 438.1Q94.95 436.35 95.05 434.35Q95.15 430.3 91.9 429.05Q88.65 427.8 86.55 430Q85.45 431.05 85.05 432.4L84.65 431.4L84.05 430.65Q83.8 430.1 82.95 429.3L81.2 427.95L80.1 427.85L79.95 427.75L77.55 428L77.05 428.25L75.15 429.05L74.6 429.45L74.1 429.9L73.05 431.05Q71.7 432.65 71.5 433.25Q70.85 434.8 70.7 435.5L70.45 437.75L70.65 440.15L70.8 441.05L70.95 441.3L71.15 441.9L71.45 442.55Q71.45 443.7 72.75 446.4L73.55 448.35Q74.1 449.85 74.5 450.25L74.75 450.3L75.55 449.6L76.45 448.7L75.3 450.8M83.9,440.6L85.05 439.2L85.3 438.75L85.1 439.85Q84.5 440.15 83.9 440.6M120.9,468.2L123.35 469.4L123.7 469.4L124.35 469.2L124.5 468.95L124.45 468.75L124.85 468.45Q124.85 467.9 121.75 466.4Q118.6 464.9 118.6 466.1Q118.6 466.9 120.9 468.2M118.25,469.45L118 469.8L118.45 470.35L119.35 470.9L120.75 471.6L122.2 472.15L122.6 471.8L123.35 471.65L123.45 471.6L123.5 471.45L123.45 471.3L121.35 470.15Q119.95 469.55 118.25 469.45M115.6,471.65L118.1 473L122.1 474.05L122.6 473.3Q121.8 472.4 119.3 471.95L117.4 471.15L115.55 471.1L115.5 471.35L115.6 471.65M127.1,463Q127.1 462.8 126.1 462.25L125.1 461.8L123.8 461.1L122 460.7L121.9 460.75L121.75 460.95Q121.75 461.5 123.95 462.6Q126 463.65 126.85 463.7L127.1 463M126,465.7L124.35 464.5Q123.25 463.9 122.1 463.9Q122.05 464.5 123.2 465.35Q124.4 466.2 125.45 466.3L125.6 466L126 465.7M63.45,406.95Q57.4 394.95 55.35 395.75Q53.3 396.55 53.65 412.1Q53.85 419.9 54.4 427.55L57.4 421.1L58.9 424.65L60.2 420.3L63.3 422.1L64.55 419.55L69.15 419.05Q66.5 412.9 63.45 406.95M21,414.4L20.4 413.55L19.9 412.7Q19.4 412.15 18.5 411.75L16.5 411.55L14.25 412.8Q12.8 413.7 12.35 414.35Q11.95 414.85 11.95 415.85Q11.95 417.7 13.6 419.8Q15.5 422.25 18.25 422.75L19.75 422.9Q21.45 422.35 22.45 421.4L23 420.4L23.2 419.25L22.65 417.45L21.95 415.95L21 414.4M36.7,475.65L35.85 475.15L34.9 475.05Q34.8 475.1 34.85 475.4L34.45 475.55L34.45 475.9L34.55 476.4L34.75 476.5Q34.55 476.7 34.75 476.9Q36.45 477.35 37.85 478.3L39.9 479.75L40.2 479.75L40.35 479.5Q39.95 478.2 37.65 476.3L36.7 475.65M28.65,490.65Q28.35 490.9 28.35 491.45L28.45 491.65L28.5 491.65L29.05 491.9L30.4 491.5L34.85 491.2L34.95 490.95L34.25 490.35L31.9 490.2L30.1 490.25Q29.05 490.15 28.65 490.65M46.1,462.6L44 463.5L43.8 463.85L43.6 464.35L43.85 464.8L44.8 464.65L45.85 464.2L46.8 464L47.3 463.7L48.45 466.15L47.65 466.35L46.55 466.8L45.45 467.15L44.85 467.65L45 467.85L45.1 468L45 468.25L44.85 468.45L44.9 468.7L45.85 468.7L47.6 468L48.7 467.5L49.25 467.35L50.2 468.4L48.4 469.2L45.8 470.6L45.75 470.85L45.85 471.15L46.15 471.25L48.65 470.3L49.85 469.65Q50.35 469.35 50.85 469.2L50.95 469.1Q52.25 470.2 53.9 470.95Q57.5 472.55 61.2 472.35L62.25 472.25Q64.8 471.9 66.7 470.4L68.4 468.65L67.95 468.5Q64.7 467.3 62.25 465.85Q59.4 464.15 57.6 462.1Q56.95 461.4 56.65 460.3L54.65 458.6Q52.4 456.95 51 456.9Q49.1 456.85 47.8 458.3Q46.35 459.95 46.9 462.3L46.95 462.45L46.1 462.6M47,463.15L47.1 462.95L47.2 463.3L47 463.15M47.85,457.2L45.3 458.2L42.55 459.35L42.35 459.65L42.45 459.9Q42.7 459.9 42.8 460.05L43.05 460.25L43 460.5Q43 460.65 43.3 460.65Q43.85 460.65 47.45 458.55Q47.6 458.25 48.1 457.9L48.5 457.45L48.4 457.2L47.85 457.2M51.1,470.65L49.35 471.45Q46.8 472.5 46.35 473.1L46.7 473.3L46.35 473.8L46.4 474L47.2 474.2Q47.65 474.2 50.1 472.65L52.5 470.9Q52.5 470.1 51.1 470.65M50.75,477.4L48.4 478.1L48.3 478.3L48.35 478.5Q47.85 478.45 47.85 478.8L47.9 479L48.2 479.05L47.9 479.3L47.85 479.65L47.9 480L48.15 480.05Q48.65 480.05 51.3 478.6L53.75 477.05L53.5 476.8L50.75 477.4M45.45,485.55L45.1 484.6Q38.45 491.15 43.45 498.6Q46.6 496.75 48.35 493.6L45.45 485.55M55.7,482.8Q56 484 57.15 485.3Q58.55 486.9 60.45 487.3L62.1 487.45L63.15 487.25L63.95 486.9L64.7 486.6L64.95 486.25L64.7 485.95L58.75 484.75Q57.65 484.4 56.85 483.5Q56.25 482.75 55.7 482.8M28.2,499.7L28.45 500.4L28.5 500.4L28.8 500.45Q29.35 500.3 30.4 499.55Q31.35 498.95 32.45 498.7L33.7 498.45L34.6 497.85L34.95 497.45L34.7 497.2L34.35 497.2Q30.75 497.8 30.2 498.25L29.15 498.85L28.4 499.45L28.2 499.7" />
<path style="fill:#E66006;fill-opacity:1" d="M149.05,411.55Q150.6 411.1 152.1 411.9L154.1 413.1L155.85 414.8Q156.25 415.4 156.25 416.35Q156.25 417.95 154.7 419.9Q152.65 422.45 149.4 422.45Q147.05 422.45 146.2 420.95Q145.6 419.95 145.6 418L145.95 416.2L146.35 414.65L147.3 412.95Q147.85 411.85 149.05 411.55M117.6,412.35L116.25 427.5L114.5 422.6L111.15 424.15L112.45 419.05L108.1 420.85L108.35 417.5L104.1 418.7L110.15 407.8Q116.4 396.9 117.55 397Q118.7 397.15 117.6 412.35M69.15,419.05L64.55 419.55L63.3 422.1L60.2 420.3L58.9 424.65L57.4 421.1L54.4 427.55Q53.85 419.9 53.65 412.1Q53.3 396.55 55.35 395.75Q57.4 394.95 63.45 406.95Q66.5 412.9 69.15 419.05M21.95,415.95L22.65 417.45L23.2 419.25L23 420.4L22.45 421.4Q21.45 422.35 19.75 422.9L18.25 422.75Q15.5 422.25 13.6 419.8Q11.95 417.7 11.95 415.85Q11.95 414.85 12.35 414.35Q12.8 413.7 14.25 412.8L16.5 411.55L18.5 411.75Q19.4 412.15 19.9 412.7L20.4 413.55L21 414.4L21.95 415.95" />
<path style="fill:#FFFFFF;fill-opacity:1" d="M89.6,438.3Q87.3 438.6 85.1 439.85L85.3 438.75L85.05 439.2L83.9 440.6L82.05 442.7L81.5 443.2L81.1 443.8L80.1 445L77.95 447.35L76.75 448.45L76.45 448.7L75.55 449.6L74.75 450.3L74.5 450.25Q74.1 449.85 73.55 448.35L72.75 446.4Q71.45 443.7 71.45 442.55L71.15 441.9L70.95 441.3L70.8 441.05L70.65 440.15L70.45 437.75L70.7 435.5Q70.85 434.8 71.5 433.25Q71.7 432.65 73.05 431.05L74.1 429.9L74.6 429.45L75.15 429.05L77.05 428.25L77.55 428L79.95 427.75L80.1 427.85L81.2 427.95L82.95 429.3Q83.8 430.1 84.05 430.65L84.65 431.4L85.05 432.4Q85.45 431.05 86.55 430Q88.65 427.8 91.9 429.05Q95.15 430.3 95.05 434.35Q94.95 436.35 94.25 438.1L89.6 438.3M90.35,435.3L90.15 434.95L89.75 434.75L89.1 434.45L88.45 434.6Q88 434.85 87.65 435.6Q87.3 436.25 87.3 436.75Q87.3 437.15 87.45 437.4L88.15 438.15L88.95 438.2Q89.85 438.2 90.35 437.45L90.7 436.4L90.7 435.9L90.35 435.3M81.7,438.3Q81.7 435.55 79.3 435.35Q76.85 435.2 76.85 438.7L76.95 439.95Q77.15 440.5 78.2 441.35Q80.25 441.25 81.15 440Q81.7 439.2 81.7 438.3M77.95,446.95L78.25 446.6L78.9 445.9L82.3 441.75Q80.7 443.1 79.15 444.95L77 447.85L77.55 447.25L77.95 446.95" />
<path style="fill:#FF6D6B;fill-opacity:1" d="M85.1,439.85Q87.3 438.6 89.6 438.3L94.25 438.1Q102.1 438.45 104 444.65Q105.6 449.75 100.25 454.4Q94.65 459.3 86.55 458.7Q79.5 458.15 76.7 454.45Q75.85 453.25 75.5 451.9L75.3 450.8L76.45 448.7L76.75 448.45L77.95 447.35L80.1 445L81.1 443.8L81.5 443.2L82.05 442.7L83.9 440.6Q84.5 440.15 85.1 439.85M77.55,447.25L77 447.85L79.15 444.95Q80.7 443.1 82.3 441.75L78.9 445.9L78.25 446.6L77.95 446.95L77.55 447.25" />
<path style="fill:#FF2E28;fill-opacity:1" d="M50.2,468.4L49.25 467.35L49.55 467.2L49.85 466.6Q49.85 466.25 49.5 466.05L48.45 466.15L47.3 463.7L47.35 463.55L47.25 463.35L47.2 463.3L47.1 462.95L46.95 462.45L46.9 462.3Q46.35 459.95 47.8 458.3Q49.1 456.85 51 456.9Q52.4 456.95 54.65 458.6L56.65 460.3Q56.95 461.4 57.6 462.1Q59.4 464.15 62.25 465.85Q64.7 467.3 67.95 468.5L68.4 468.65L66.7 470.4Q64.8 471.9 62.25 472.25L61.2 472.35Q57.5 472.55 53.9 470.95Q52.25 470.2 50.95 469.1L51.35 468.3L51.25 468.1L50.2 468.4M52.7,462.2L54.1 464.25Q55.95 466.2 58.6 466.2L60.5 465.9L60.65 465.45L60.55 465.05L60.35 464.95L59.9 464.85L57.65 465.1L57.45 464.95Q55.7 464.8 54.7 463.9L53.65 462.85Q53.25 462.2 52.7 462.2" />
<path style="fill:#582903;fill-opacity:1" d="M90.7,435.9L90.7 436.4L90.35 437.45Q89.85 438.2 88.95 438.2L88.15 438.15L87.45 437.4Q87.3 437.15 87.3 436.75Q87.3 436.25 87.65 435.6Q88 434.85 88.45 434.6L89.1 434.45L89.75 434.75L90.15 434.95L90.35 435.3L90.7 435.9M81.15,440Q80.25 441.25 78.2 441.35Q77.15 440.5 76.95 439.95L76.85 438.7Q76.85 435.2 79.3 435.35Q81.7 435.55 81.7 438.3Q81.7 439.2 81.15 440M118.6,466.1Q118.6 464.9 121.75 466.4Q124.85 467.9 124.85 468.45L124.45 468.75L124.5 468.95L124.35 469.2L123.7 469.4L123.35 469.4L120.9 468.2Q118.6 466.9 118.6 466.1M121.35,470.15L123.45 471.3L123.5 471.45L123.45 471.6L123.35 471.65L122.6 471.8L122.2 472.15L120.75 471.6L119.35 470.9L118.45 470.35L118 469.8L118.25 469.45Q119.95 469.55 121.35 470.15M115.5,471.35L115.55 471.1L117.4 471.15L119.3 471.95Q121.8 472.4 122.6 473.3L122.1 474.05L118.1 473L115.6 471.65L115.5 471.35M126.85,463.7Q126 463.65 123.95 462.6Q121.75 461.5 121.75 460.95L121.9 460.75L122 460.7L123.8 461.1L125.1 461.8L126.1 462.25Q127.1 462.8 127.1 463L126.85 463.7M125.6,466L125.45 466.3Q124.4 466.2 123.2 465.35Q122.05 464.5 122.1 463.9Q123.25 463.9 124.35 464.5L126 465.7L125.6 466M37.65,476.3Q39.95 478.2 40.35 479.5L40.2 479.75L39.9 479.75L37.85 478.3Q36.45 477.35 34.75 476.9Q34.55 476.7 34.75 476.5L34.55 476.4L34.45 475.9L34.45 475.55L34.85 475.4Q34.8 475.1 34.9 475.05L35.85 475.15L36.7 475.65L37.65 476.3M30.1,490.25L31.9 490.2L34.25 490.35L34.95 490.95L34.85 491.2L30.4 491.5L29.05 491.9L28.5 491.65L28.45 491.65L28.35 491.45Q28.35 490.9 28.65 490.65Q29.05 490.15 30.1 490.25M51.25,468.1L51.35 468.3L50.95 469.1L50.85 469.2Q50.35 469.35 49.85 469.65L48.65 470.3L46.15 471.25L45.85 471.15L45.75 470.85L45.8 470.6L48.4 469.2L50.2 468.4L51.25 468.1M49.5,466.05Q49.85 466.25 49.85 466.6L49.55 467.2L49.25 467.35L48.7 467.5L47.6 468L45.85 468.7L44.9 468.7L44.85 468.45L45 468.25L45.1 468L45 467.85L44.85 467.65L45.45 467.15L46.55 466.8L47.65 466.35L48.45 466.15L49.5 466.05M47.2,463.3L47.25 463.35L47.35 463.55L47.3 463.7L46.8 464L45.85 464.2L44.8 464.65L43.85 464.8L43.6 464.35L43.8 463.85L44 463.5L46.1 462.6L46.95 462.45L47.1 462.95L47 463.15L47.2 463.3M48.4,457.2L48.5 457.45L48.1 457.9Q47.6 458.25 47.45 458.55Q43.85 460.65 43.3 460.65Q43 460.65 43 460.5L43.05 460.25L42.8 460.05Q42.7 459.9 42.45 459.9L42.35 459.65L42.55 459.35L45.3 458.2L47.85 457.2L48.4 457.2M53.65,462.85L54.7 463.9Q55.7 464.8 57.45 464.95L57.65 465.1L59.9 464.85L60.35 464.95L60.55 465.05L60.65 465.45L60.5 465.9L58.6 466.2Q55.95 466.2 54.1 464.25L52.7 462.2Q53.25 462.2 53.65 462.85M52.5,470.9L50.1 472.65Q47.65 474.2 47.2 474.2L46.4 474L46.35 473.8L46.7 473.3L46.35 473.1Q46.8 472.5 49.35 471.45L51.1 470.65Q52.5 470.1 52.5 470.9M53.5,476.8L53.75 477.05L51.3 478.6Q48.65 480.05 48.15 480.05L47.9 480L47.85 479.65L47.9 479.3L48.2 479.05L47.9 479L47.85 478.8Q47.85 478.45 48.35 478.5L48.3 478.3L48.4 478.1L50.75 477.4L53.5 476.8M56.85,483.5Q57.65 484.4 58.75 484.75L64.7 485.95L64.95 486.25L64.7 486.6L63.95 486.9L63.15 487.25L62.1 487.45L60.45 487.3Q58.55 486.9 57.15 485.3Q56 484 55.7 482.8Q56.25 482.75 56.85 483.5M28.4,499.45L29.15 498.85L30.2 498.25Q30.75 497.8 34.35 497.2L34.7 497.2L34.95 497.45L34.6 497.85L33.7 498.45L32.45 498.7Q31.35 498.95 30.4 499.55Q29.35 500.3 28.8 500.45L28.5 500.4L28.45 500.4L28.2 499.7L28.4 499.45" />
<path style="fill:#000000;fill-opacity:0.2" d="M54.55,388.7L54.6 389.1L54.55 389.7L54.55 389.8L54.4 390.4L53.75 391.9L53.05 393.45Q52.65 394.3 52.65 395L52.3 398.1L52.05 401.2L52.05 405.05Q51.7 407.15 51.8 409.35L51.65 411.5L51.8 412.65L51.65 413.75L51.75 414.15L51.65 414.6L51.65 415.55Q51.65 416.6 51.8 417.3L52.05 420.95L52.4 424.65L52.55 425.65L52.55 425.8L52.65 429.25L52.9 430.95L53.2 431.8L53.4 432.7L53.35 432.9Q52.8 432.55 52.4 432.55L52.1 432.6L52.05 433L52.3 434.3L52.55 435.65L52.45 436.5L50.35 436.75L49.85 436.55L48.9 436.4Q48.55 436.4 48.55 436.75Q48.55 437.25 49 438.05L49.4 439.25L49.3 439.8L49.55 440.55L50.35 441.95Q49.2 441.65 48.9 441.95L48.8 442.35L49.45 443.6L50.15 444.85L49.15 445.1Q48.35 445.35 48.15 445.85Q47.9 446.35 47.9 447.15L48.25 448.1L48.3 448.2L48.15 448.15L47.1 447.8L46.8 447.85L46.8 448.5L47.4 450.75L46.8 452.3Q46.8 452.65 47.25 453.2L47.65 453.9L47.35 454.5Q47.05 455.2 47.05 455.85Q47.05 457.35 47.6 457.75L48.1 457.75L48.95 457.25L49.45 457.15L51.65 456.45Q52.1 456.5 53.15 456.9L53.4 456.8Q54.1 453.65 55.05 451.6Q55.9 449.7 57.2 448.2L57.15 448.4L56.8 451.2L56.15 455.8L56.15 457.2L56.5 457.25L56.8 457.15L56.95 457.25Q57.3 458.5 58.25 459.8Q59.85 462.05 62.8 463.9Q64 464.65 68.85 467L72.95 468.05L79.8 469L88.85 468.9L92.95 468.3L97.7 467.45L100.15 466.4Q101.4 466 105.15 463.8L110.35 460.65L115.3 457L116.45 456L117.2 455.15L117.8 454.2L118.15 453.15L118 452.55Q118.85 452.65 119.4 453.95Q119.8 454.9 119.8 455.55Q119.8 456.9 118.55 458.85L116.05 461.9Q112.9 464.9 108.1 467.25L103.45 469.5L99.05 471.35L93.25 472.9L82.5 474.2L77.45 474.35L74.7 474.05L72.8 473.6L68.7 472.8L68.15 472.95L67.55 473.35L65.55 473.85L60.4 474.7L57 474.85Q55.4 474.85 53.45 473.95Q52.05 473.3 51.4 472.7Q48.95 470.5 48.75 469.25L48.05 467.5L47.15 465.9L46.9 464.2L46.5 462.35L46.65 461.1L46.85 460.4L47.35 459.8L47.6 459.95L47.8 460.3L47.9 460.95L48.4 462.3Q49.5 464.3 50.15 465Q51.5 466.45 53.05 467.5L55 468.95Q56.25 469.65 58.15 469.65Q59.1 469.65 59.6 469Q60 468.45 60 467.9Q60 466.9 59 466.2Q58.45 465.8 57.4 465.5L56 465.05Q56.25 463.45 54.15 461.1Q53.05 459.9 52.8 459.15Q52.35 457.8 52.1 457.6L50.65 457.3L49.55 457.35Q48.85 457.45 48.2 458Q47.75 458.35 47.6 458.75L47.1 459.1L46.7 459.4Q46 460.2 46.05 460.8L45.9 462.3L46.15 464.05L46.4 465.85L47.2 467.65Q48.05 468.7 48.15 469.5L48.65 470.6L48.65 470.75L52.65 476.95L54.7 480.05L55.4 480.8L56.3 481.5L58.2 482.95Q62.2 485.4 67.1 486.75L72.8 488.15L83.45 489.65L89.6 489.65L91.85 489.4L92.65 489.2L92.9 489.15L93.95 489.15L98.15 488.1L101.3 487.05L107.9 484.2Q112.65 482 116.8 476.45L120.2 472.2L123.4 467.95L124 467Q124.45 466.75 125.7 464.8L126.25 463.95L126.45 463.65L126.7 463.15L127.05 462.45L127.45 462.05L127.9 461.45L128.6 459.85L143.4 421.85Q141.1 420.65 139.05 418.8Q135.05 415.1 136.5 411.85Q137.95 408.6 142.25 411.2Q144.35 412.45 146.2 414.4L147.2 406.55Q147.5 404.75 148.3 402.8Q149.9 398.9 152.3 398.1L154 398.3Q153.45 398.15 152.85 399Q152.4 399.65 152.1 400.5L151.25 403.65L150.65 406.3L150.85 406.75L151.2 407.3L151.2 408.35L151.65 408.45L154.35 404.85L155.2 403L155.85 401L156.55 403.25Q158.1 401.5 159.55 401.35Q160.7 401.2 161.5 402L161.25 402Q160.15 402.2 158.55 404.3L157.1 406.5Q155.85 408.6 155.85 409.45L156 409.7L156.05 409.75L155.85 411.25L155.9 411.5L155.85 411.6L155.85 412.8L156.3 412.85Q156.65 412.85 159.9 409.05Q160.55 409 161.55 408.15L162.45 407.1L162 406.5L162.85 405.8L162.95 409.2Q164.5 409.3 165.35 410.05L165.65 410.35L165.5 410.6L164.9 411.3L164.3 410.85Q163.95 410.85 162.3 412.05L160.5 413.4L159 415.2L157.8 416.85L155.25 420L154.9 420.5Q153.5 421.75 152.85 422L148.8 423.45Q147.35 424 146.7 425Q145.75 426.5 144.95 428.65L143.7 432.35L142.55 436.05L141.35 439.8L140.15 443.55L138.8 447.3Q137.95 449.3 136.2 454.7Q134.65 459.5 133.25 462.15L132.75 463.35L132 464.3L129.85 467.6L127.55 470.9Q126.2 472.7 125.4 474.15L123.9 477.45L122.45 480.9L122.15 481.7L122.1 481.8Q120.8 483.95 119.85 486.45Q117.75 491.4 113.1 495.8Q110.45 498.35 107.15 500.6Q103.5 503 100.5 504.05Q95.5 506.25 92.05 507.25Q86.35 508.9 72.9 510.15L70.8 510.15L69.6 510L65.05 509.65L60.6 509.4L57.15 508.8L52.35 507.5Q51.6 507.25 48.9 505.9L46.2 504.75L45.9 504.6L45.45 504.6Q43.05 506.05 41.75 507.2Q39.3 509.35 38.55 511.95Q36.9 517.9 36.9 520.2Q36.9 528.55 46.5 534.9Q56.05 541.15 69.3 541.8L76.65 541.8Q94.5 540.45 108.15 537.85Q119.7 535.6 126.65 532.85L130.6 531.1L130.8 531.15Q131.6 531.15 134.05 529.4L137.25 526.8L138.15 525.95L140.6 523.45L142.2 521.55Q143.45 519.6 144.4 516.55Q145.35 513.4 145.35 510.95L145.35 510.3L147.2 513.55Q150.9 522 145.1 533.2Q142.4 538.35 139.1 542.1L139.95 541.7Q139.05 542.75 139.05 543.35L139.05 543.85Q139.35 544.25 140.75 544.25L144.55 543.65L149.3 543.05Q151.55 543.05 153.1 543.8L157.7 546.9L160.3 549.15Q161.95 550.65 163.55 551.25L164.7 551.25L166 550.35L166.95 549.3Q167.3 548.85 168.35 548.25Q169.85 547.35 171.2 547.35L174.55 547.65Q176.45 547.65 177.75 546.2L178.15 545.75Q179 547.65 178.2 549.1Q177.25 550.9 174.3 550.65L171.55 550.1L169.6 553.15Q167 556.15 163.9 556Q161.8 555.9 157.35 551.4Q152.85 546.85 148.5 546.75Q143.55 546.65 129.15 552.05L115.75 557.5Q87.95 567.15 59.2 557.5Q52.6 554.5 45.15 551.7Q30.25 546.15 25.9 547.3Q22.1 548.3 15.95 553.75Q10.05 559.05 8.5 559.3Q6.2 559.7 3.15 555.85L0.55 551.9L-3.05 551.55Q-6.75 550.75 -7.4 548.8Q-8.1 546.65 -7.35 544.85L-6.85 544.05Q-7.85 542.95 -8.45 541.55Q-9.65 538.8 -7.7 537.35L-7.05 536.95Q-7.35 537.3 -7.35 538.2L-7.3 539.05L-6 539.85L-3.15 540.3L-1.2 540.95Q-0.3 541.3 0.25 542.65L0.9 544.65L0.05 544.3L-2 544.1Q-3.6 544.1 -3.6 546.15Q-3.6 547.3 -1.7 547.85Q1.1 548.7 1.8 549.2L3.4 551Q5.05 552.65 6.35 552.65Q7.5 552.65 10.15 551.15Q12.95 549.5 13.65 549.15Q16 547.95 17.4 547.5L17.9 547.25L21 546L22.35 545.45L24.3 545.15L24.5 545.1L26.45 545.1L28.5 545.1L31.7 545.55L34.85 546L35.55 546L37.05 545.2L36.5 544.55L34.7 543.35L31.5 541.05L31.45 541Q27.65 533.55 27.55 524.3Q27.4 515.6 30.4 509.15Q29 504.7 28.5 500.4L28.45 500.4L28.2 499.7L28.4 499.45Q28.05 495.45 28.5 491.65L28.45 491.65L28.35 491.45Q28.35 490.9 28.65 490.65Q29.35 485.8 31.35 481.2L31.45 481.05Q33.65 476.1 37.35 471.5L34.7 468.15L29.65 462.6Q19 439.65 14.75 425.7L8.8 420.3Q2.75 414.5 2.2 412.4Q1.8 410.9 2.8 410.05Q3.4 409.55 4.3 409.35Q3.75 409.6 3.4 410.15Q3.05 410.7 3.05 411.15Q3.05 411.6 3.5 411.9L3.85 411.55L6.3 414.2Q7.8 415.55 9.75 416.2L11 417.45L12 418.6L13.1 419.8L15.7 422.1L17.35 423L17.75 423.7L19.3 426.45L21.35 431.4L23.2 436.3L24.05 438.75L24.7 441.25Q26.5 446.85 28.55 451.1Q29.9 453.85 31.65 456L32.65 457.2L33.8 458.4L35.3 459.55Q36.55 460.45 37.5 460.5L37.95 459.7L38.3 458.45L37.8 455.35L42.95 468.15L47.7 479.4L45.6 473.35Q40.75 458.65 41 450.75L37.7 446.95L40.75 446.65Q37.35 444.15 35.9 438.5L42.05 440.8Q38.8 437.15 37.4 430.8L45.35 433.35L40.25 423.9Q45.9 425.2 49.7 430.3Q49.2 420.4 49.4 410.2Q49.85 389.75 53.55 388.3Q57.25 386.85 65.75 401.75Q69.6 408.55 72.9 415.6L72.2 415.95L71.95 415.9L71.75 415.4L71.05 413.9L70.15 412.1L69.55 411.25L68.9 410.3L67.15 406.75L65.25 403.1L63.15 399.55L62.2 397.65L61.2 395.95L58.75 392.3Q57.2 390.1 55.35 388.8L55.05 388.8L54.55 388.7M55.05,394.25L55.9 393.6L56.5 393.65L60.65 398.2L63.8 403.15Q64.8 404.6 66.3 408.15L70.05 415.65L70.5 416.55Q70.25 417.05 70.4 417.55Q70.4 418.65 68.4 419.35L66.6 419.8L65.15 419.7Q64.35 419.6 63.8 420.55L63.4 421.7L63.05 422.65L62.8 422.6L61.7 421.7Q60.75 420.95 60.2 420.95Q59.65 420.95 59.35 421.7L59.15 422.6L58.35 424.35L57.95 423.3L57.35 422.2Q56.9 422.4 56.8 422.8L56.65 423.55L55.7 424.95L54 427.5L54 427.35Q53 421.2 53 419.3L52.75 411.25L52.9 407.6Q52.9 405.05 53.15 403.95L53.15 399.65L53.25 398.15Q53.4 397.3 53.7 396.55Q53.85 395.9 54.45 394.95L55.05 394.25M119.55,395.65L119.7 396.15L120.3 398L120.65 401.8Q120.65 406.35 119.8 416.1Q119.55 417 119.6 418.8L119.3 420.8L118.9 424.4Q118.45 426.95 117 428.2L116.6 427.65Q116.35 427.4 116.05 427.4L116 427.4L115.3 426.35L114.65 424.75L113.6 423.3Q112.8 423.45 112.15 423.95Q111.45 424.45 110.95 424.5L110.65 424.35L110.55 424Q110.55 423.25 111 422.2L111.4 420.6Q111.4 420.05 110.95 419.8L109.95 419.8L108.35 420.65L108.05 420.6L107.9 420L108.15 418.7Q108.45 417.65 106.75 417.65L105.2 418.05L103.75 418.4L104.1 418.05L104.3 417.35L104.5 416.85L104.55 416.75L105.8 414.45L105.65 414.3L106.8 412.3L110.05 406.45L111.95 403.45L113.8 400.65Q114 400.15 114.75 399.2L115.8 397.75L117 396.25Q118.2 395.1 118.95 395.05L119.55 395.65M119.4,392.95Q118.3 393.2 117.15 394.25L115.3 396.2Q112.1 399.65 109.9 403.6L107.8 407.2Q106.55 409.4 105.95 410.9L104 414.9L102.7 417.6L102.5 417.8L101.9 418.1L101.55 417.75L100.7 417.35L100.4 416.8L100.15 416.3Q103.35 409.95 107.25 403.7Q115.65 390.25 119.85 390.85Q121.4 391.05 122.2 394L121.35 393.25Q120.45 392.7 119.4 392.95M154.2,398.45L154.75 399L154.2 398.85L154.2 398.45M155,399.65L154.95 399.3L155.25 399.75L155 399.65M143.15,412.25Q141.25 410.45 139.95 410.2Q138.65 410 138.65 411.6Q138.65 412.9 139.8 414.45L141.75 415.85Q142.4 416.25 144.85 417.05Q146 417.05 146 416.35Q146 415.35 143.15 412.25M113.5,401.95Q113.05 402.55 112.45 403.9Q111 406.2 110.55 407.4L108.85 410.95Q108.05 412.8 108.05 414.35L108.05 414.9L108 415.2L108.35 415.4L109.7 415.4L110.55 415.15L111.1 414.95L111.1 415.65Q111.1 416 111.65 416Q112.2 416 112.55 415.65L112.55 416.6L112.95 416.65Q113.85 416.65 114.85 413.8L115.8 410.2Q116.4 407 116.4 403.5L116.4 402.15L116.4 401.45L115.75 400.8Q114.3 400.9 113.5 401.95M93.6,429.3L95.15 431.15Q95.9 432.75 95.9 434.8L95.75 435.95L95.4 436.5L95.15 437.05L95.45 437.5Q96.95 437.85 98.1 438.4L100.4 439.7Q103.05 441.2 103.65 442.45L104.45 444L105.05 445.55L105.3 448.7Q105.3 450 103.05 453.65L100.15 457.85L98.25 460.05Q96.95 461.45 95.7 462.25L92.8 463.85Q91 464.65 88.35 465L88.1 464.9L83.9 464.85L78.2 463.05Q76.85 462.55 76.25 461.4L75.5 459.45Q74.7 458 74.55 455.7L74.4 451.9L73.55 448.45Q72.6 445.6 71.2 444.3L70.4 443.35L69.45 442.4L67.35 440.9L64.35 439.75L62.15 439.3L60.15 438.8L60.35 438.75Q63.15 438 65.4 436.1L68.9 432.7Q71.4 430.3 72.95 429.3Q75.65 427.55 78.8 427.2L80.95 427.35Q82.6 427.55 83.4 428.35L84.5 429.4L84.75 430.05L85.25 430.4L86.55 429.3Q87.65 428.5 89.2 428.3L88.35 428.8Q88.05 429 87.65 429.75L86.8 430.85L86.7 431.6Q86.7 432.7 87.6 433.8Q88.85 435.3 91.15 435.3Q92.9 435.3 93.85 434.2Q94.55 433.35 94.55 432.55Q94.55 431.7 93.75 430.55Q92.85 429.25 91.6 428.8L90.15 428.2L90.35 428.2Q91.3 428.2 92.5 428.7Q93.35 429.05 93.6 429.3M86.35,439.05Q83 440.25 81.6 441.8Q78.2 445.55 78.2 447.75Q78.2 449.3 80 450.4Q81.95 451.6 85.6 452.05L89.45 452.05L93.4 451.25Q96.55 450.5 98.1 448.95L100.35 446.3Q100.8 445.5 100.8 444Q100.8 439 94.45 437.95L90.35 437.95Q88.75 438.15 86.35 439.05M84.95,435.15L85.15 433.25Q85.15 431.15 83.55 429.45Q81.7 427.45 78.65 427.45Q77.25 427.45 76.05 429.35L75.05 431.45Q73.95 433.25 73.95 435.65Q73.95 437.55 74.3 438.45Q75.25 440.9 78.5 440.9Q80.3 440.9 81.95 439.6Q83.3 438.5 83.8 437.5L84.95 435.15M60.9,414.45Q61.15 415.1 61.5 415.15L61.95 415.15L62.3 414.15Q62.3 412.75 61.25 409Q60.2 405.15 59.1 402.8L57.8 399.9L56.45 398.4Q55.2 397.45 54.45 398.8L53.9 400.2L53.7 401.6L53.45 404.5Q53.45 407.65 54.05 411.7Q54.4 414.55 54.7 415.4L55.1 417.2Q55.35 418.25 56.35 419L57 419L59.05 417.25Q59.9 417.1 60.3 415.95L60.8 414.45L60.9 414.45M52.25,414.9L52.4 416.9L52.3 416.9L52.25 414.9M25.3,418.1L26.65 417.1L29 415.45Q31.05 413.8 31.05 412L30.8 410.65L31.65 411.85Q33.1 415.1 29.1 418.8Q27.05 420.65 24.8 421.85L24.3 420.35L24.3 419.85L24.8 418.95L25.2 418.2L25.3 418.1M15.2,398.95Q14.95 399.3 14.95 400.7Q14.95 401.6 15.3 403.55L15.6 404.9L16.05 406.35Q16.45 407.95 17.3 409.15L18.05 410.5L18 410.45L17.8 410.55Q18.1 411.05 17.45 412.1Q16.75 413.2 15.8 412.75L15.1 411.7L14.6 410.6L14.3 409.45Q14.15 409 13.7 408.9Q13.3 407.25 11.45 403.85L10.3 402.4L9 401.45Q10.25 401.7 11.6 403.25Q11.9 401.75 12.6 400.3Q13.85 397.65 15.65 398.05L15.2 398.95M8.2,407.15Q8.5 407.95 9.8 409L10.9 410.05L12.1 410.7L12.3 411L12.95 411.8L13.35 412.6L13.75 413.6L13.55 414.1L12.7 414.55L10.75 414.95L10.65 415.05L9.9 413.4Q9.05 411.8 8.2 410.95Q7.75 410.5 6.8 409.95Q5.75 409.3 5 409.25L5.2 409.2Q5.05 407.15 5.4 405.1Q5.8 402.7 6.85 401.85L6.8 403.1Q6.8 404.3 7.1 404.9L8.2 407.15M36.15,480.9Q35.2 481.95 34.2 484.05Q33.25 485.5 32.55 489.65Q31.95 493.4 31.95 496.5L32.1 498.05Q32.5 499.55 33.9 499.55L36.75 498.95L39.75 497.9L42.25 496.7L42.35 496.65L43.45 498.6Q46.6 496.75 48.35 493.6L45.45 485.55L45.1 484.6L43.9 485.9L42.4 483.55L39.9 480.6Q37.9 478.95 36.15 480.9M58.4,447.15L58.35 446.95L58.6 446.7L58.65 446.85L58.35 447.65L58.4 447.15" />
<path style="fill:#FFFFFF;fill-opacity:0.4" d="M82.4,442.6L83.95 441.3L83.75 441.25Q83.65 440.5 86.2 439.7Q88.6 438.85 92.05 438.5Q96.75 438.65 98.35 439.75Q99.2 440.4 99.2 441.75Q99.2 444.8 95 446.35L90 447.4L88 447.4L87.95 447.35L84.55 447.25Q81.4 446.65 81.4 444.85Q81.4 443.65 82.4 442.6" />
<path style="fill:none;stroke-width:2;stroke-linecap:butt;stroke-linejoin:miter;stroke-miterlimit:3;stroke:#AE4200;stroke-opacity:1" d="M75.3,450.8L75.5 451.9M69.15,419.05L64.55 419.55L63.3 422.1L60.2 420.3L58.9 424.65L57.4 421.1L54.4 427.55Q53.85 419.9 53.65 412.1Q53.3 396.55 55.35 395.75Q57.4 394.95 63.45 406.95Q66.5 412.9 69.15 419.05" />
<path style="fill:none;stroke-width:3;stroke-linecap:round;stroke-linejoin:miter;stroke-miterlimit:3;stroke:#AE4200;stroke-opacity:1" d="M169.75,544.2L170.5 543.1Q171.55 541.95 173.1 541.65Q174.1 541.45 175.45 542.4Q176.7 543.3 177.6 544.75M0.55,544.7Q-0.55 544 -1.8 543.4Q-4.4 542.2 -5.35 542.7Q-6.3 543.2 -6.85 544.05" />
<path style="fill:none;stroke-width:3;stroke-linecap:round;stroke-linejoin:miter;stroke-miterlimit:3;stroke:#AE4200;stroke-opacity:1" d="M-6.85,544.05L-7.35 544.85Q-8.1 546.65 -7.4 548.8Q-6.75 550.75 -3.05 551.55L0.55 551.9L3.15 555.85Q6.2 559.7 8.5 559.3Q10.05 559.05 15.95 553.75Q22.1 548.3 25.9 547.3Q30.25 546.15 45.15 551.7Q52.6 554.5 59.2 557.5Q87.95 567.15 115.75 557.5L129.15 552.05Q143.55 546.65 148.5 546.75Q152.85 546.85 157.35 551.4Q161.8 555.9 163.9 556Q167 556.15 169.6 553.15L171.55 550.1L174.3 550.65Q177.25 550.9 178.2 549.1Q179.2 547.3 177.6 544.75L178.65 541.7Q179.3 538.4 177.4 537.1Q175 535.5 172.25 536.05Q169.65 536.6 168.25 538.6Q166.5 541.15 164.65 546Q163.1 544.3 160.85 542.45Q156.35 538.75 152.9 538.05Q149.45 537.35 143.9 539.65L139.1 542.1Q142.4 538.35 145.1 533.2Q150.9 522 147.2 513.55Q144.75 507.95 137.65 503.55Q135.05 501.9 128.3 498.9Q125.1 497.5 122.9 493.25L121.35 489.25L122.7 485.55Q126.25 476.65 133.45 468.15L138.5 462.6Q149.15 439.65 153.4 425.7L159.35 420.3Q165.4 414.5 165.95 412.4Q166.35 410.9 165.35 410.05Q164.5 409.3 162.95 409.2Q163.1 407.15 162.75 405.1Q162.1 401.05 159.55 401.35Q158.1 401.5 156.55 403.25Q156.25 401.75 155.55 400.3Q154.2 397.5 152.3 398.1Q149.9 398.9 148.3 402.8Q147.5 404.75 147.2 406.55L146.2 414.4Q144.35 412.45 142.25 411.2Q137.95 408.6 136.5 411.85Q135.05 415.1 139.05 418.8Q141.1 420.65 143.4 421.85L128.05 461.1L127.35 462.85L125.2 468.15Q119.35 482.45 117.5 485.55L117.3 485.85L116.4 487.1Q111.7 492.7 97.5 497.75Q82.4 503.15 74.05 502.2Q67.2 501.4 59.8 496.1Q54.65 492.35 52 488.9Q50.4 486.8 47.7 479.4L42.95 468.15Q36.35 452.05 24.75 421.85Q27.05 420.65 29.1 418.8Q33.1 415.1 31.65 411.85Q30.2 408.6 25.9 411.2Q23.8 412.45 21.95 414.4L20.95 406.55Q20.65 404.75 19.85 402.8Q18.25 398.9 15.85 398.1Q13.95 397.5 12.6 400.3Q11.9 401.75 11.6 403.25Q10.05 401.5 8.6 401.35Q6.05 401.05 5.4 405.1Q5.05 407.15 5.2 409.2Q3.65 409.3 2.8 410.05Q1.8 410.9 2.2 412.4Q2.75 414.5 8.8 420.3L14.75 425.7Q19 439.65 29.65 462.6L34.7 468.15L37.35 471.5Q42.15 477.8 45 484.35L45.1 484.6L45.45 485.55L48.35 493.6Q46.6 496.75 43.45 498.6L39.05 500.9Q36.1 502.45 33.85 504.3Q31.95 505.9 30.4 509.15Q27.4 515.6 27.55 524.3Q27.65 534.1 31.9 541.85L31.1 541.45Q25.05 538.8 20.2 540.4Q15.35 542.05 10.5 544.6Q8.1 545.85 6.65 546.8Q4.35 541.45 2.05 539.15Q-0.2 536.9 -2.75 536.3Q-5.5 535.7 -7.7 537.35Q-9.65 538.8 -8.45 541.55Q-7.85 542.95 -6.85 544.05M128.05,461.1Q128.5 459.15 128.55 455.5Q128.65 448.15 129.3 445.4L124.2 447.45Q129.05 441.65 131.9 434.9L123.15 438.2Q125.3 435.45 126.75 428.75L120.6 432.85Q122.1 422.6 122.75 412.2Q124.05 391.45 119.85 390.85Q115.65 390.25 107.25 403.7Q103.05 410.4 99.65 417.25L94.25 414.65L86.85 416.45L83 413.4L73.5 417Q70 409.25 65.75 401.75Q57.25 386.85 53.55 388.3Q49.85 389.75 49.4 410.2Q49.2 420.4 49.7 430.3Q45.9 425.2 40.25 423.9L45.35 433.35L37.4 430.8Q38.8 437.15 42.05 440.8L35.9 438.5Q37.35 444.15 40.75 446.65L37.7 446.95L41 450.75Q40.75 458.65 45.6 473.35L47.7 479.4M45.1,484.6Q38.45 491.15 43.45 498.6M37.35,471.5Q23.8 488.35 30.4 509.15" />
<path style="fill:none;stroke-width:3;stroke-linecap:butt;stroke-linejoin:miter;stroke-miterlimit:3;stroke:#AE4200;stroke-opacity:1" d="M162.95,409.2Q161.3 409.1 160.3 409.8Q158.55 411 156.45 414.7M156.55,403.25Q155.4 404.5 154.2 406.65Q152.75 409.15 151.85 411.6M11.6,403.25Q12.75 404.5 13.95 406.65Q15.4 409.15 16.3 411.6M5.2,409.2Q6.85 409.1 7.85 409.8Q9.6 411 11.7 414.7M31.9,541.85Q34.4 543.05 36.15 544.45" />
<path style="fill:none;stroke-width:2;stroke-linecap:round;stroke-linejoin:miter;stroke-miterlimit:3;stroke:#AE4200;stroke-opacity:1" d="M103.7,418.8L104.1 418.7" />
<path style="fill:none;stroke-width:2;stroke-linecap:round;stroke-linejoin:miter;stroke-miterlimit:3;stroke:#AE4200;stroke-opacity:1" d="M104.1,418.7L110.15 407.8Q116.4 396.9 117.55 397Q118.7 397.15 117.6 412.35L116.25 427.5L114.5 422.6L111.15 424.15L112.45 419.05L108.1 420.85L108.35 417.5L104.1 418.7z" />
<path style="fill:none;stroke-width:2;stroke-linecap:round;stroke-linejoin:miter;stroke-miterlimit:3;stroke:#993127;stroke-opacity:1" d="M85.1,439.85Q87.3 438.6 89.6 438.3L94.25 438.1" />
<path style="fill:none;stroke-width:2;stroke-linecap:round;stroke-linejoin:miter;stroke-miterlimit:3;stroke:#582903;stroke-opacity:1" d="M94.25,438.1Q94.95 436.35 95.05 434.35Q95.15 430.3 91.9 429.05Q88.65 427.8 86.55 430Q85.45 431.05 85.05 432.4Q85.9 436.05 85.1 439.85M71,444.4Q70.75 441.75 70.9 438.65Q71.15 432.4 73.2 430.1Q75.55 427.4 79.15 427.35Q82.5 427.35 83.75 429.25Q84.65 430.55 85.05 432.4M56.65,460.3Q56.95 461.4 57.6 462.1Q59.4 464.15 62.25 465.85Q64.7 467.3 67.95 468.5L68.4 468.65M56.65,460.3L54.65 458.6Q52.4 456.95 51 456.9Q49.1 456.85 47.8 458.3Q46.35 459.95 46.9 462.3Q48.35 468.4 53.9 470.95Q57.5 472.55 61.2 472.35L62.25 472.25Q64.8 471.9 66.7 470.4L68.4 468.65" />
<path style="fill:none;stroke-width:2;stroke-linecap:butt;stroke-linejoin:miter;stroke-miterlimit:3;stroke:#993127;stroke-opacity:1" d="M85.1,439.85Q82.05 441.5 79.15 444.95Q76.7 447.95 75.3 450.8" />
<path style="fill:none;stroke-width:2;stroke-linecap:round;stroke-linejoin:miter;stroke-miterlimit:3;stroke:#993127;stroke-opacity:1" d="M75.5,451.9Q75.85 453.25 76.7 454.45Q79.5 458.15 86.55 458.7Q94.65 459.3 100.25 454.4Q105.6 449.75 104 444.65Q102.1 438.45 94.25 438.1" />
<path style="fill:none;stroke-width:2;stroke-linecap:round;stroke-linejoin:miter;stroke-miterlimit:3;stroke:#582903;stroke-opacity:1" d="M59.2,439Q67.05 438.65 71 444.4M58.65,446.95L57.05 451.8Q55.7 457.25 56.65 460.3M74.8,455.65Q73.8 448.4 71 444.4" />
<path style="fill:none;stroke-width:2;stroke-linecap:butt;stroke-linejoin:miter;stroke-miterlimit:3;stroke:#582903;stroke-opacity:1" d="M68.4,468.65L74.8 470.35L87.6 471Q97.95 470.3 108.95 463.7Q114.35 460.45 116.85 458.2Q118.45 456.7 118.8 455.7Q119.25 454.25 118.2 453.15L117.05 452.3" />
<path style="fill:#582903;fill-opacity:1" d="M82.25,412.4L82.3 412.55L82.05 413L81.8 413.4L81.8 413.5L84.35 412.95L84.45 413.15L83.65 413.8L86.1 414.65L86.95 415.05L87.45 415.6L87.35 415.8Q84.05 416.45 81.85 417.35L77.95 419L76.4 419.75L74.65 420.65L73.85 421.2L71.65 422.45L71.4 422.4L71.35 422Q71.35 421.4 72.6 419.65Q73.4 418.05 75.15 416.1Q76.05 415 78.05 413.9Q78.8 413.4 80.1 412.9Q81.4 412.45 82.1 412.35L82.25 412.4M89.45,415.65L89.85 415.2L90.5 414.9L92.45 414.2L91.85 413.7L91.9 413.55L93.95 414L93.95 413.9L93.75 413.6L93.55 413.25L93.6 413.1L93.7 413.05L95.3 413.5L96.95 414.3Q98.5 415.2 99.25 416.05Q100.65 417.6 101.25 418.9Q102.25 420.3 102.25 420.75L102.25 421.1L102.05 421.1L100.3 420.1L99.65 419.7L98.25 418.95L97 418.35L93.9 417.05Q92.15 416.35 89.5 415.8L89.45 415.65" />
</g>
</svg>
