<?xml version="1.0" encoding="utf-8"?>
<svg version="1.1" id="Layer_1"
xmlns="http://www.w3.org/2000/svg"
xmlns:xlink="http://www.w3.org/1999/xlink"
xmlns:author="http://www.sothink.com"
width="45px" height="48px"
xml:space="preserve">
<g id="36" transform="matrix(1, 0, 0, 1, 21.3, 42.9)">
<path style="fill:#77F5DB;fill-opacity:1" d="M6.9,-37.4L9.5 -36.3Q10.8 -35.6 10.95 -34.65L11.2 -28.5Q11.1 -23.95 11.25 -22.2Q11.6 -16.25 12.65 -9.55Q13.65 -2.75 15.05 2.3L11.7 3.1L9.1 3.7L6.45 3.8L4.1 3.8L-2.1 3.3L-5.3 2.9L-8.4 2.5L-15.05 2L-16.2 1.45Q-14.1 -2.5 -12.55 -9.2L-9.45 -23.1Q-8.8 -23.25 -8.25 -22.75Q-7.65 -22.2 -7.2 -22.2Q-5.45 -22.2 -3.7 -31.6Q-2.5 -38.1 -2.1 -42.9Q-1.65 -42.9 -0.15 -42.3L1.85 -41.7Q2.4 -41.7 3.35 -42.3Q4.2 -42.8 4.7 -42.6Q3.5 -39 6.9 -37.4" />
<path style="fill:#D2DEEE;fill-opacity:1" d="M19.5,-0.05L19.65 0.05L21.2 0.25Q22.8 0.6 22.8 1.75Q22.8 2.85 20.7 3.35L9.45 4.1Q8.6 4.1 8.25 3.6L8 3.2L5.1 3.2L0.05 3.75L-6.05 4.4Q-7.4 4.4 -7.8 3.7L-7.9 3.45L-11.55 3.8Q-13.75 3.8 -14.65 3.25L-16.1 3.5Q-19.4 3.5 -20.5 2.85Q-21.3 2.4 -21.3 1.15Q-21.3 -1.8 -17.4 -1.45Q-15.45 -1.3 -14.5 -0.6Q-13.7 -1.2 -12.1 -0.9L-8 0.45L2.3 -0.3L12.7 -0.9Q18.15 -0.9 19.5 -0.05" />
</g>
</svg>
