<?xml version="1.0" encoding="utf-8"?>
<svg version="1.1" id="Layer_1"
xmlns="http://www.w3.org/2000/svg"
xmlns:xlink="http://www.w3.org/1999/xlink"
xmlns:author="http://www.sothink.com"
width="64px" height="63px"
xml:space="preserve">
<g id="22" transform="matrix(1, 0, 0, 1, 30.7, 34.45)">
<path style="fill:#232222;fill-opacity:1" d="M1.15,-30.9L-1.3 -29.85Q-5.15 -28.05 -6.45 -24.7Q-7.2 -22.85 -8.85 -20.5Q-11.1 -17.4 -12.65 -17.4Q-14.5 -17.4 -14.9 -18.7Q-15.1 -19.35 -14.95 -20.05Q-14.95 -22.05 -13 -23.85Q-10.65 -26.1 -9.8 -29.15Q-8.45 -33.6 -3.1 -34.4Q-0.95 -34.65 0.55 -34Q2.2 -33.25 2.2 -31.75Q2.2 -31.35 1.15 -30.9M7.45,-28.95L6.2 -30Q4.8 -30.3 4.8 -31.15Q4.8 -31.6 5.1 -31.75L6.85 -31.95Q11.6 -31.95 13.8 -29.35Q15.15 -27.8 15.15 -26.25Q15.15 -25.3 14.75 -24.65Q14 -23.4 12.1 -23.4Q9.75 -23.4 8.85 -25.95L8.25 -28.35L7.45 -28.95M30.5,-1.4Q28.9 -1.4 28.3 -2.6Q28 -3.25 28 -3.9Q28 -7 30.5 -7.25Q32.95 -7.45 32.95 -4.7Q32.95 -1.4 30.5 -1.4M25.1,13.75Q25.1 14.7 24.45 15.85Q23.5 17.5 21.75 17.5Q19.45 17.5 18.6 15.95L18.3 14.7L18.15 14.7Q17.5 14.7 17.3 14.25L17.25 13.85Q17.25 13 18.15 13L18.75 13.2Q19.6 12.3 21.65 11.7Q25.1 10.7 25.1 13.75M0.85,21.5Q-0.8 21.5 -1.15 20.5L-1.25 19.5Q-1.25 17.3 0.95 17.3Q3.1 17.3 3.1 19.3L2.75 20.5Q2.2 21.5 0.85 21.5M-0.4,-32.25L-0.2 -31.9L0.05 -32.05L-0.45 -32.3L-0.4 -32.25M-25.25,-2.1Q-24.25 -1.65 -24.25 -0.15L-24.6 2.5Q-24.6 3.5 -22.95 4.3Q-21.25 5.15 -21.25 6.25Q-21.25 7.15 -21.95 8.05Q-23 9.35 -25.2 9.35Q-28.7 9.35 -30.05 6.6Q-30.7 5.2 -30.7 3.65Q-30.7 -0.4 -27.5 -1.9L-25.25 -2.1M-7.9,16.85Q-5.75 17.7 -4.25 19.6Q-2.6 21.65 -2.6 23.95L-2.7 26.1Q-3.2 27.7 -5 27.7Q-8.45 27.7 -11.2 23.7Q-12.6 21.65 -13.25 19.65Q-13.25 17.3 -11.6 16.6Q-10.1 15.95 -7.9 16.85" />
</g>
</svg>
