<?xml version="1.0" encoding="utf-8"?>
<svg version="1.1" id="Layer_1"
xmlns="http://www.w3.org/2000/svg"
xmlns:xlink="http://www.w3.org/1999/xlink"
xmlns:author="http://www.sothink.com"
width="40px" height="33px"
xml:space="preserve">
<g id="146" transform="matrix(1, 0, 0, 1, 19.8, 16.2)">
<path style="fill:#F5A46E;fill-opacity:1" d="M9.15,3.1Q5.95 2.55 4.65 1.05Q3.7 0 3.7 -1.5Q3.7 -2.3 4.55 -2.9L4.55 -2.95L4.85 -3.15L4.85 -3Q4.85 -1.45 5.5 -0.55L6.6 0.45L9.3 1.05L11.55 1.05L13.85 1.25L15.9 1.45L16.2 1.45L18.6 1.6Q19.25 1.95 19.3 3.2L10.95 3.25L10.95 3.3L10.35 3.25L9.15 3.1M-9.8,-8.8L-11.5 -10.8L-11.85 -11.25L-13.25 -12.85Q-13.8 -13.35 -17.75 -13.75L-19.2 -14.1L-19.25 -14.8Q-19.25 -15.55 -17.75 -15.7L-15.65 -15.7L-12.8 -15.6Q-12.4 -15.4 -10.95 -13.6L-10.4 -12.9L-8.3 -10.4L-7.2 -10.2L-5.5 -10.05L-2.15 -10.05L4.55 -9.55L7.9 -9.25L11.25 -9.1L11.95 -9.1Q16.6 -8.95 16.6 -7.2Q16.6 -6 15.1 -6L13.4 -6.1Q12.9 -6.9 11.4 -7.25L9.6 -7.5L4.85 -7.4L-5.15 -7.6L-7.6 -7.75L-8.5 -7.95L-9.8 -8.8M-5,-4.45L-5 -4.25L-5 -3.85L-5.1 -3.3L-5.15 -2.55Q-5.15 -1.3 -4.55 -0.75L-4.3 -0.6L-2.05 -0.4L-0.9 -0.65L-0.85 0.05Q-0.85 1.15 -1.8 1.15L-5.3 0.7L-5.5 0.6Q-6.9 -0.15 -6.9 -2.25L-6.85 -3.15Q-6.65 -5 -5.45 -5L-5.35 -5L-4.95 -4.9L-5 -4.45M-3.2,5.9Q-1.4 4.8 0.35 4.8L1.65 4.75L3.1 4.85L4.75 5.15Q5.5 5.25 6 5.8L6.65 7.2L6.7 7.95Q6.7 9.15 3.7 11.25L2 12.35Q2.25 11.35 3.2 10.2Q4.55 8.6 4.55 8.1Q4.55 7.45 3.45 6.95Q2.5 6.5 1.75 6.5L1.6 6.5L-0.1 6.85L-1.6 7.15L-3.45 6.65L-3.85 6.35L-3.2 5.9" />
<path style="fill:#D06F2F;fill-opacity:1" d="M-15.1,3.4Q-15.15 2.5 -14.5 2.15L-14.05 2Q-12.35 1.6 -12.05 1.2L-15 -1.8Q-14.65 -2 -13.6 -3.6Q-14.6 -4 -17.05 -5.35L-16.25 -7.5L-16.25 -8L-17.4 -7.95L-17.6 -7.95Q-17.75 -9.3 -18.25 -10.55Q-18.6 -11.45 -19.05 -11.95L-19.2 -14.1L-17.75 -13.75Q-13.8 -13.35 -13.25 -12.85L-11.85 -11.25L-11.5 -10.8L-9.8 -8.8L-8.5 -7.95L-7.6 -7.75L-5.15 -7.6L4.85 -7.4L9.6 -7.5L11.4 -7.25Q12.9 -6.9 13.4 -6.1L12.35 -6.2L10.75 -6.15L9.45 -6.05Q6.15 -5.65 5.25 -4.25Q4.9 -3.8 4.85 -3.15L4.55 -2.95L4.55 -2.9Q3.7 -2.3 3.7 -1.5Q3.7 0 4.65 1.05Q5.95 2.55 9.15 3.1L10.35 3.25L9.15 3.25L-8.7 3.35L-15.1 3.4M-6.9,-2.25Q-6.9 -0.15 -5.5 0.6L-5.3 0.7L-1.8 1.15Q-0.85 1.15 -0.85 0.05L-0.9 -0.65L-0.6 -1.15L-0.6 -3Q-0.6 -5.15 -1.05 -5.55Q-1.5 -5.95 -3.7 -5.95Q-4.6 -5.95 -4.85 -5.45L-4.95 -4.9L-5.35 -5L-5.45 -5Q-6.65 -5 -6.85 -3.15L-6.9 -2.25M9.25,7.65L6.85 7.2L6.65 7.2L6 5.8L9.2 5.75L13.7 5.7L13.1 6.65Q12.35 8.1 11.9 8.1L10.6 7.8L9.45 7.5L9.3 7.65L9.25 7.65M-3.85,6.35L-3.45 6.65L-1.6 7.15L-0.1 6.85L1.6 6.5L1.75 6.5Q2.5 6.5 3.45 6.95Q4.55 7.45 4.55 8.1Q4.55 8.6 3.2 10.2Q2.25 11.35 2 12.35L1.6 12.6L0.4 11.85Q-1.25 10.95 -1.65 10.95L-2.5 11.9L-3.4 12.8L-4.75 12.5L-5.35 12.5L-5.75 15.35L-8.2 15.7Q-10.3 15.75 -10.3 14.9L-10.2 13.75L-10 13.35L-7.95 10.35L-6.35 8.45L-4 6.45Q-4.2 6.15 -4.65 5.95L-3.2 5.9L-3.85 6.35" />
<path style="fill:#3F3838;fill-opacity:1" d="M9.55,-1.7L9.4 -1.55L9.2 -0.8L9.3 1.05L6.6 0.45L5.5 -0.55Q4.85 -1.45 4.85 -3L4.85 -3.15Q4.9 -3.8 5.25 -4.25Q7.3 -2.45 9.55 -1.7M-0.6,-1.15L-0.9 -0.65L-2.05 -0.4L-4.3 -0.6L-4.55 -0.75Q-5.15 -1.3 -5.15 -2.55L-5.1 -3.3L-5 -3.85L-5 -4.25L-3.55 -2.65Q-2.2 -1.5 -0.6 -1.15" />
<path style="fill:#2C2727;fill-opacity:1" d="M5.25,-4.25Q6.15 -5.65 9.45 -6.05L8.8 -4.75L8.2 -3.6L9 -2.95L10 -2.5L9.55 -1.7Q7.3 -2.45 5.25 -4.25M-3.55,-2.65L-5 -4.25L-5 -4.45L-4.95 -4.9L-4.85 -5.45Q-4.6 -5.95 -3.7 -5.95Q-1.5 -5.95 -1.05 -5.55Q-0.6 -5.15 -0.6 -3L-0.6 -1.15Q-2.2 -1.5 -3.55 -2.65" />
<path style="fill:#FCDEC9;fill-opacity:1" d="M-15.25,6.1L-15.1 5.85Q-14.75 5.15 -15.05 3.7L-15.1 3.4L-8.7 3.35L9.15 3.25L10.35 3.25L10.95 3.3L10.95 3.25L19.3 3.2L19.3 3.45L19.3 4.75Q17.65 4.05 17 4.05Q16.6 4.05 16.35 4.75L15.65 5.6L15.05 5.15L14.4 5.15Q14.05 5.15 13.7 5.7L9.2 5.75L6 5.8Q5.5 5.25 4.75 5.15L3.1 4.85L1.65 4.75L0.35 4.8Q-1.4 4.8 -3.2 5.9L-4.65 5.95L-8.75 6L-15.25 6.1" />
<path style="fill:#A65A29;fill-opacity:1" d="M6.7,7.95L6.85 7.2L9.25 7.65L9.3 7.65L9.25 7.75Q9 8.1 8.7 9.15L8.3 10.7L8.25 11L8.1 11L3.7 11.25Q6.7 9.15 6.7 7.95M-8.75,6L-4.65 5.95Q-4.2 6.15 -4 6.45L-6.35 8.45L-7.95 10.35L-12 10.3L-14.75 10.15L-16.3 10.05Q-17.2 9.95 -17.85 9.35L-18.4 8.7L-17.5 8.15L-17.2 6.7Q-15.8 6.75 -15.25 6.1L-8.75 6M-17.6,-7.95L-18.5 -8.2L-19.25 -8.2L-19.2 -8.9L-19.05 -11.65L-19.05 -11.95Q-18.6 -11.45 -18.25 -10.55Q-17.75 -9.3 -17.6 -7.95" />
<path style="fill:#B66F28;fill-opacity:1" d="M6.65,7.2L6.85 7.2L6.7 7.95L6.65 7.2" />
<path style="fill:none;stroke-width:1;stroke-linecap:butt;stroke-linejoin:miter;stroke-miterlimit:3;stroke:#5D2907;stroke-opacity:1" d="M9.45,-6.05L8.8 -4.75L8.2 -3.6L9 -2.95L10 -2.5L9.55 -1.7L9.4 -1.55L9.2 -0.8L9.3 1.05L6.6 0.45L5.5 -0.55Q4.85 -1.45 4.85 -3L4.85 -3.15Q4.9 -3.8 5.25 -4.25Q6.15 -5.65 9.45 -6.05L10.75 -6.15L12.35 -6.2L13.4 -6.1M-4.95,-4.9L-4.85 -5.45Q-4.6 -5.95 -3.7 -5.95Q-1.5 -5.95 -1.05 -5.55Q-0.6 -5.15 -0.6 -3L-0.6 -1.15L-0.9 -0.65L-2.05 -0.4L-4.3 -0.6L-4.55 -0.75Q-5.15 -1.3 -5.15 -2.55L-5.1 -3.3L-5 -3.85L-5 -4.25L-5 -4.45L-4.95 -4.9M9.3,1.05L11.55 1.05L13.85 1.25L15.9 1.45L16.2 1.45L18.6 1.6Q19.25 1.95 19.3 3.2L19.3 3.45L19.3 4.75Q17.65 4.05 17 4.05Q16.6 4.05 16.35 4.75L15.65 5.6L15.05 5.15L14.4 5.15Q14.05 5.15 13.7 5.7L13.1 6.65Q12.35 8.1 11.9 8.1L10.6 7.8L9.45 7.5L9.3 7.65L9.25 7.75Q9 8.1 8.7 9.15L8.3 10.7L8.25 11L8.1 11L3.7 11.25L2 12.35L1.6 12.6L0.4 11.85Q-1.25 10.95 -1.65 10.95L-2.5 11.9L-3.4 12.8L-4.75 12.5L-5.35 12.5L-5.75 15.35L-8.2 15.7Q-10.3 15.75 -10.3 14.9L-10.2 13.75L-10 13.35L-7.95 10.35L-12 10.3L-14.75 10.15L-16.3 10.05Q-17.2 9.95 -17.85 9.35L-18.4 8.7L-17.5 8.15L-17.2 6.7Q-15.8 6.75 -15.25 6.1L-15.1 5.85Q-14.75 5.15 -15.05 3.7L-15.1 3.4Q-15.15 2.5 -14.5 2.15L-14.05 2Q-12.35 1.6 -12.05 1.2L-15 -1.8Q-14.65 -2 -13.6 -3.6Q-14.6 -4 -17.05 -5.35L-16.25 -7.5L-16.25 -8L-17.4 -7.95L-17.6 -7.95L-18.5 -8.2L-19.25 -8.2L-19.2 -8.9L-19.05 -11.65L-19.05 -11.95L-19.2 -14.1L-19.25 -14.8Q-19.25 -15.55 -17.75 -15.7L-15.65 -15.7L-12.8 -15.6Q-12.4 -15.4 -10.95 -13.6L-10.4 -12.9L-8.3 -10.4L-7.2 -10.2L-5.5 -10.05L-2.15 -10.05L4.55 -9.55L7.9 -9.25L11.25 -9.1L11.95 -9.1Q16.6 -8.95 16.6 -7.2Q16.6 -6 15.1 -6L13.4 -6.1M-7.95,10.35L-6.35 8.45L-4 6.45L-3.85 6.35L-3.2 5.9Q-1.4 4.8 0.35 4.8L1.65 4.75L3.1 4.85L4.75 5.15Q5.5 5.25 6 5.8L6.65 7.2L6.7 7.95Q6.7 9.15 3.7 11.25M8.3,10.7L8.1 11" />
<path style="fill:none;stroke-width:0.1;stroke-linecap:butt;stroke-linejoin:miter;stroke-miterlimit:3;stroke:#874921;stroke-opacity:1" d="M9.15,3.1L9.1 1.65M-8.5,-7.95L-8.6 -3.1L-6.85 -3.15L-5.45 -3.2M9.25,7.65L9.2 5.75L9.15 3.25M-8.6,-3.1L-8.65 2.15L-8.7 3.35L-8.75 6L-8.8 10M9.15,3.1L9.15 3.25M9.25,7.65L9.25 7.75M-8.5,-7.95L-8.5 -10M-14.5,2.15L-8.65 2.15M-0.35,-3.3L4.55 -2.9" />
</g>
</svg>
