<?xml version="1.0" encoding="utf-8"?>
<svg version="1.1" id="Layer_1"
xmlns="http://www.w3.org/2000/svg"
xmlns:xlink="http://www.w3.org/1999/xlink"
xmlns:author="http://www.sothink.com"
width="197px" height="193px"
xml:space="preserve">
<g id="334" transform="matrix(1, 0, 0, 1, 12.85, -4.3)">
<path style="fill:#FC850F;fill-opacity:1" d="M173.1,24.3Q173.25 26.1 172.8 27.85Q176.15 24.35 178.25 25.6Q181 27.25 179.5 32.45Q178.8 35.05 177.5 37.3Q179.95 36 181.1 36.9Q183.9 39.15 179.8 45.1Q178.25 47.35 172.2 50.15L166.5 52.5L163.95 58.15Q157.6 71.4 146 86.55Q129.65 99 118.65 116Q120.5 121.65 125.4 127.6L133.9 137.7Q138.7 144.1 137.55 154.6Q137 159.7 135.55 163.6Q142.55 161.9 146.45 171L149.1 167.2Q152.25 163.45 154.65 163.55Q157.4 163.65 157.6 167.85L160.65 168.7Q163.7 170.05 163.85 172.25Q164 174.45 162.4 175.65Q161.65 176.2 160.8 176.35L162.2 177.1Q163.5 178.2 162.85 179.95Q162.25 181.7 159.3 181.65L156.45 181.2L153 185.25Q148.9 189.25 145.7 188.9Q142.85 188.6 140.35 181.9Q137.65 174.85 136.45 174.3Q134.5 173.45 128.15 180.3Q125 183.7 121.25 186.9Q81.9 206 42.5 182Q40.35 179.25 37.55 176.75Q32 171.7 28.95 172.8Q26.6 173.65 25.05 180.1Q23.5 186.45 20.75 187.1Q17.4 187.9 12.1 183.25L7.45 178.4L5.5 180.15Q3.2 181.65 1.3 180.2Q-0.6 178.75 0.65 176.35L2.25 174.2Q0.95 172.35 0.8 170.2Q0.65 168 4.4 166.9L8.2 166.25Q9.9 162.7 13.6 162.8Q15.75 162.9 18.1 166.85L20 170.75Q23.2 161.45 33.3 163.3Q32.95 161.95 32.75 159.85Q32.45 155.65 33.5 151.9Q19 121.85 31.05 94.65L24.9 89.55Q13.3 74.4 6.95 61.15L4.4 55.5L-1.3 53.15Q-7.35 50.35 -8.9 48.1Q-13 42.15 -10.2 39.9Q-9.05 39 -6.6 40.3Q-7.9 38.05 -8.6 35.45Q-10.1 30.25 -7.35 28.6Q-5.25 27.35 -1.9 30.85Q-2.35 29.1 -2.2 27.3Q-1.9 23.75 1.05 23.55Q4 23.35 8.35 32.25Q10.5 36.7 12.1 41.15Q12.55 38.4 13.45 36Q15.3 31.25 17.7 32.95Q20.1 34.65 18.5 42.95Q17.75 47.1 16.45 50.9Q18.75 56.05 21.4 61.15Q30.55 79.05 43.3 95.7Q38.8 82.9 37.95 68.3L31.05 64.2L38.7 62.15Q34.3 58.65 28.75 57.05Q34.35 54.6 38.95 56Q36.6 52.6 32.3 51.15Q38.2 48.75 44.1 51.15Q39.65 46.3 38.2 41.4Q44.7 42.5 49.2 46.8Q48.95 36.85 49.6 26.7Q50.95 6.5 55.6 5.85Q60.25 5.2 67.35 20.7Q70.95 28.45 73.55 36.35L75.95 33.5Q78.75 30.6 80.7 30.45Q82.35 30.3 85.2 32.9Q88.1 35.55 89.15 35.55Q90.35 35.55 92.45 34.3Q94.55 33 95.55 33Q96.85 33 98.1 34.45L99.1 35.85Q103 28.9 107.8 22.35Q117.4 9.3 121.85 11.5Q126.7 13.9 122.75 29.85Q120.75 37.8 117.8 45.3L122.15 44.25L119.35 48.9L127.05 46.05L120.9 53.25L130.85 53L122.4 60.9L128.3 60.4L123.7 68.85L124.75 75.75L119.95 89.7Q116.9 98.1 114.7 102.75Q135.05 82.45 143.5 67.55Q151.9 52.7 154.7 49.7Q153.15 44.1 152.4 39.95Q150.8 31.65 153.2 29.95Q155.6 28.25 157.45 33Q158.35 35.4 158.8 38.15Q160.4 33.7 162.55 29.25Q166.9 20.35 169.85 20.55Q172.8 20.75 173.1 24.3M75.75,68.15L76.95 69.15L80.9 71.9Q86 75.15 94.65 73.05Q104.1 70.7 103.95 63.2Q103.8 56 98.3 53.45L96.1 52.65Q96.35 50.8 95.9 48.7Q95.05 44.55 91.65 43.25Q89.8 42.55 87.6 43.6L85.8 44.8Q84.2 42.55 80.3 42.35Q76.3 42.15 74 44.55Q70.95 47.75 71.05 52.75Q71.1 55.3 71.75 57.15Q73.95 59.6 74.95 63.4Q75.55 65.6 75.75 68.15M108.8,38.85L109.6 42.2L112.65 40.15L113.95 43.2L117.65 30.3Q121.1 17.25 119.85 16.6Q118.6 15.95 110.9 26.8L103.4 37.8L104.75 38.2L106.5 38.6L108.8 38.85M56.35,39.4L57.85 41.45L58.9 35.05L62.25 38.6L63.25 35.05L68.35 36.05Q66.2 29.8 63.65 23.6Q58.55 11.25 56.6 11.75Q54.65 12.25 54.3 28.45Q54.1 36.5 54.3 44.5L56.35 39.4M52.2,80Q46.45 87.85 51.2 92.9Q56.65 98.7 62.3 92.35Q65.1 89.2 66.85 84.85Q62 82.25 60.2 79.6Q58.85 77.65 58.85 73.15L56.6 75.1Q53.95 77.55 52.2 80M51.75,121.05Q46.5 111.5 39.75 103.65Q37 123.3 43.8 138.05Q50.25 130.35 51.75 121.05" />
<path style="fill:#FFFFFF;fill-opacity:1" d="M89.6,52.45L87.05 53.05Q81.7 54.55 78.05 58.6Q75.8 61.1 74.95 63.4Q73.95 59.6 71.75 57.15Q71.1 55.3 71.05 52.75Q70.95 47.75 74 44.55Q76.3 42.15 80.3 42.35Q84.2 42.55 85.8 44.8L87.6 43.6Q89.8 42.55 91.65 43.25Q95.05 44.55 95.9 48.7Q96.35 50.8 96.1 52.65L89.6 52.45" />
<path style="fill:#E66006;fill-opacity:1" d="M106.5,38.6L104.75 38.2L103.4 37.8L110.9 26.8Q118.6 15.95 119.85 16.6Q121.1 17.25 117.65 30.3L113.95 43.2L112.65 40.15L109.6 42.2L108.8 38.85L106.5 38.6M54.3,44.5Q54.1 36.5 54.3 28.45Q54.65 12.25 56.6 11.75Q58.55 11.25 63.65 23.6Q66.2 29.8 68.35 36.05L63.25 35.05L62.25 38.6L58.9 35.05L57.85 41.45L56.35 39.4L54.3 44.5" />
<path style="fill:#FF6D6B;fill-opacity:1" d="M96.1,52.65L98.3 53.45Q103.8 56 103.95 63.2Q104.1 70.7 94.65 73.05Q86 75.15 80.9 71.9L76.95 69.15L75.75 68.15Q75.55 65.6 74.95 63.4Q75.8 61.1 78.05 58.6Q81.7 54.55 87.05 53.05L89.6 52.45L96.1 52.65" />
<path style="fill:#FF2E28;fill-opacity:1" d="M56.6,75.1L58.85 73.15Q58.85 77.65 60.2 79.6Q62 82.25 66.85 84.85Q65.1 89.2 62.3 92.35Q56.65 98.7 51.2 92.9Q46.45 87.85 52.2 80Q53.95 77.55 56.6 75.1" />
<path style="fill:#582903;fill-opacity:1" d="M118.8,76.25Q119.4 76.05 121.05 76.7L123.75 77.8L123.95 78.25L124.15 78.8L123.85 79Q123.1 78.9 121 78Q118.75 76.95 118.75 76.5L118.8 76.15L118.8 76.25M117.4,79.6L117.8 79.55Q118.6 79.55 120.75 80.45Q123.1 81.45 123.1 82L122.85 82.6Q122.5 83 122 83Q120.6 83 118.8 81.55Q117.3 80.35 117.3 80.05L117.4 79.6M114.45,85.35L114.6 85.25L117.85 86.25Q120.6 87.3 120.6 87.75L120.35 88.4L120.05 88.85L116.85 87.6Q114.4 86.4 114.4 85.75L114.45 85.35M120.35,85.55L118.5 84.4Q117.55 83.85 117.55 83.4Q117.55 82.7 118.65 83Q119.6 83.3 121.1 84.25L121.55 85L121 85.55L120.35 85.55M117.9,90.5Q116 89.85 116 89.3L116 89L118.35 89.4Q119.75 89.9 120.05 90.5L119.8 91.05L117.9 90.5M38.35,72.4L40.75 72.2L43.3 72.4L43.8 72.9L43.6 73.4L38.6 73.35L38.35 72.4M38.9,75.95Q38.9 75.55 39.4 75.2Q40.25 74.6 42.25 74.75L44.2 74.95Q44.8 75 45.55 75.75L45.35 76.25L44.05 76.3L42.75 76.5L39.05 76.4L38.95 76.35L38.9 75.95M40.15,78.6L43.8 78.65L47.4 79.4L47.6 79.8Q46 81.4 41.2 81.6L40.1 81.5L39.35 81.3L39.15 80.15Q39.15 79.25 40.15 78.6M39.7,84.8L39.65 84.4Q39.65 84.05 39.8 83.95L40.15 83.9L47.75 83.5L47.9 83.9L47.65 84.4L46.25 84.85L43.1 85.1L39.85 84.85L39.7 84.8M47.05,90.55L46.9 91L45.8 91.05L42.6 90.65L41.4 90.15Q41.25 90.4 41.25 89.8Q41.25 89.25 42.4 89.4L46.55 90.05L47.05 90.55M52.5,88.65Q52.5 85.1 55.7 81.7Q59 78.25 61.15 80.05L61.65 80.55L61.85 80.95L61.7 81.5L61.5 81.75Q58.45 82.55 55.9 84.85Q53.65 86.9 53.15 88.75L52.5 88.65M64.65,104L64.85 104L65 104.4L64.95 104.75L64.75 104.8L62.05 104.8Q58.65 104.4 56.25 102.55Q54.05 100.85 54.05 99.1Q54.05 98.5 54.5 98.3Q55.35 99.9 58.6 101.7Q61.75 103.45 64.65 104M33,102.7Q35.35 103.65 35.35 104.05L35.25 104.55L35.1 104.55Q28 103.25 28 102.6Q28 101.6 28.45 101.35Q29 101.05 30.5 101.8L33 102.7M34.55,110L33.25 110L30.6 109.25L26.8 108.15L26.5 107.95Q26.35 107.8 26.35 107.4Q26.35 107.05 26.5 106.95L26.85 106.85L26.5 106.85L26.4 106.4Q26.4 105.15 28.2 105.6L30.5 106.4L32.6 107.75Q34.5 108.9 34.8 109.35L34.55 110M25.9,118.75Q25.75 118.8 25.75 118.2L25.9 117.05L29.35 117.35L34 118Q34.45 118.05 34.55 118.5L34.35 119L32.3 118.95L30.25 118.8L25.9 118.75M27.1,113L26.1 112.15L26.15 111.75L31.25 112.25L31.75 112.75L31.5 113.25L29.4 113.25L27.1 113M34.25,132.8L28.9 133.3L27.4 133.25L26.75 132.75Q26.35 132.35 26.35 131.9Q26.35 131.6 26.85 131.4L27.1 131.25L34.35 131.9L34.55 132.3L34.25 132.8M34.25,125.9L34.1 126.4L26.25 126.35L25.9 126.1Q25.65 125.9 25.65 125.55Q25.65 124.65 27.15 124.75L33.75 125.35Q34.25 125.55 34.25 125.9M29.55,138.35L36.05 137.85L36.45 137.95L36.6 138.35L36.4 138.95L36.05 139.15L32.65 140.05L30.4 140.5L29.3 140.35Q28.65 139.4 28.65 139.1Q28.65 138.5 29.55 138.35M35.05,146.3Q35.8 147.05 35.8 147.4L35.6 147.95L35.3 148.15L31.9 148.65Q31.75 148.8 31.75 148.15Q31.75 147.3 32.25 146.75Q33.1 146.35 35.05 146.3" />
<path style="fill:#E66006;fill-opacity:1" d="M170.55,42.45Q170.55 44.55 169 46.85Q167.45 49.15 166.1 49.15Q161.35 49.15 159.4 46.8Q158.35 45.5 158.35 43.9Q158.35 41 160.25 39Q161.95 37.25 164.45 36.95Q166.95 36.6 168.65 37.95Q170.55 39.5 170.55 42.45M5.1,39.6Q9.65 39.4 11.75 42.05Q13.1 43.8 13.1 45.7Q13.1 47.1 11.95 48.7Q10.4 50.9 7.65 50.9Q3.9 50.9 2.1 50Q-0.25 48.8 -0.25 45.8Q-0.25 44 1.1 42.4Q2.5 40.7 5.1 39.6M6.9,177Q6.9 174.65 11 173.1Q15.45 171.4 18 175.3Q18.8 176.55 20 179.3Q21.5 182.65 21.5 183.95L21.45 185.1L20.5 186.25L17.4 186.25Q15.35 186.2 11.1 182.3Q6.9 178.5 6.9 177M153,184.7Q150.05 187.75 148.5 187.75L146.1 187.75Q144.7 186.6 144.45 185.95L144.35 184.3Q144.35 181.8 145.45 179.9L148.25 176.5Q151.55 172.9 154.1 174.85Q156.15 176.45 156.15 178.95Q156.15 181.45 153 184.7" />
<path style="fill:#000000;fill-opacity:0.2" d="M173.1,24.3Q173.25 26.1 172.8 27.85Q176.15 24.35 178.25 25.6Q179.15 26.15 179.6 27.05Q176.15 27.7 174.95 29.45Q174.05 31.7 173.15 32.75Q172.6 33.45 171.35 36.05Q170.1 38.65 170.1 39.05L170.3 39.6L170.75 39.75L171.75 39.75Q174.1 38.9 177.4 34.4L179.95 30.4L179.5 32.45Q178.8 35.05 177.5 37.3Q179.95 36 181.1 36.9Q183.9 39.15 179.8 45.1L177.85 47L179.6 44.9Q181.1 42.95 181.1 42.25L180.6 41.25L179.75 40.25Q176.7 40.6 174.85 42.65L173.2 44.9Q172.25 45.55 170.4 45.6L169.1 43.05Q168.15 41.15 166.5 40.4Q163.8 39.75 161.9 41.35Q160.5 42.55 160.15 44L159.8 46.7L159.35 49.35L157.95 52.3L157.95 52.35L157.6 52.75L155.15 56.45L152.1 61.15Q145.25 72.55 141 78.05Q130.6 89.65 125.95 95.2Q117.85 104.95 117.85 111.8L118.35 115L118.5 115.5Q113.4 116.4 109.85 117.8Q105.7 119.7 103.25 120.35L96.25 123.15Q91.2 124.9 80 125.9L78.85 125.9L67.6 124.55L62.5 123.5L59.05 121.7L57.35 120.7L57.05 120.4L56.6 120.85L56.6 120.9L56.4 121L56.45 121.1Q55.85 121.9 55.4 123.5L54.15 127.65Q52.7 131.4 49 135.1Q44.2 139.95 42.6 142.8Q40.8 146 40.8 150.25Q40.8 154.15 41.6 156Q42.9 158.85 47.3 161.85Q52.05 165.05 62.35 167.55Q72.75 170.15 80.85 170.05L89.8 170.05Q103.3 168.75 109.55 167.35Q113.7 166.45 117.15 164.75Q120.15 163.3 122.55 161.7L127.15 158.35Q131.65 154.9 134.05 150.4Q136.3 146.3 136.3 142.15L136.3 142.05Q138.35 147.35 137.55 154.6Q137 159.7 135.55 163.6L137.65 163.35L134.8 164.6Q133.45 165.3 131.6 166.95L128.65 169.65L123.45 175.15L120.1 179.25Q119.5 180.05 119.5 180.55L120.1 181.35Q123.25 177.95 126.3 175.25Q131.65 170.45 135.9 170.05L136.15 170.1L137 170Q140.05 170.15 141.75 172.65Q143.5 175.25 144 175.25Q145.3 175.25 146 172.9L146.45 170.95L146.45 171L149.1 167.2Q152.25 163.45 154.65 163.55Q155.75 163.6 156.45 164.3L156.35 164.25L154.85 164Q153.35 163.85 150.4 166.9Q147.55 169.8 147.55 170.9L147.6 171.55L147.75 171.65L148.35 171.75L149 171.5L149.6 170.75Q150.55 170.55 154.1 168.65Q156.3 167.5 157.55 167.1L157.6 167.85L160.65 168.7L160.95 168.85Q159 168.9 157.25 171.25Q157.35 171.7 158.4 172.75Q159.75 174 161 174Q163.5 174 163.5 172.8L163.4 172.4L163.25 172.25L163.85 172L163.85 172.25Q164 174.45 162.4 175.65Q161.65 176.2 160.8 176.35L162.2 177.1Q162.85 177.65 163.05 178.4Q162.65 177.55 161.1 177.4Q159.05 177.2 159.05 178.95Q159.05 179.45 159.35 179.75L160.8 180.65L162 180.65L162.7 180.35Q161.9 181.7 159.3 181.65L156.45 181.2L153 185.25Q148.9 189.25 145.7 188.9Q142.85 188.6 140.35 181.9Q137.65 174.85 136.45 174.3Q134.5 173.45 128.15 180.3Q125 183.7 121.25 186.9Q81.9 206 42.5 182Q40.35 179.25 37.55 176.75Q32 171.7 28.95 172.8Q26.6 173.65 25.05 180.1Q23.5 186.45 20.75 187.1Q17.4 187.9 12.1 183.25L7.45 178.4L5.5 180.15Q3.2 181.65 1.3 180.2Q-0.6 178.75 0.65 176.35L2.25 174.2Q0.95 172.35 0.8 170.2Q0.65 168 4.4 166.9L8.2 166.25Q9.9 162.7 13.6 162.8L14.25 162.9L14.1 163.1L12.95 163.05L11.75 163.25Q9.8 164.1 9.55 165.3L9 166.45Q8.6 167.15 8.6 167.7L8.85 168.35Q9.25 169.05 10 169.05L10.6 168.85L11.05 168.65L13.3 168.75L13.6 169.25L14.65 170L15.4 170.85Q17.1 174.5 19.05 174.5L20.75 174.25L20.8 174.2L21.6 174.5Q22.25 174.5 22.9 173.65L24.2 171.75Q26.35 169 30.55 169Q33.3 169 35.75 170.35L38 171.8Q39.25 172.3 40.45 173.4Q41.7 174.55 42.8 175L43.2 175.9Q43.5 176.4 44.15 176.5L44.75 176.35L44.9 175.85L44.5 174.1Q44.3 173.05 43.55 172.4L42.2 170.8Q41.4 169.75 40.25 169L38.75 167.45Q37.8 166.35 36.5 165.75Q35.4 165.25 35.05 165L34 164Q33.4 163.4 32.8 163.4L31.55 163.4L31.25 163.5L31.1 163.5L30.65 163.4L28.35 163.7L27.4 164L26.15 163.85L25.5 164.85L24.2 165.1L23.45 165.3Q27.05 162.15 33.3 163.3Q32.95 161.95 32.75 159.85Q32.45 155.65 33.5 151.9Q19 121.85 31.05 94.65L24.9 89.55Q13.3 74.4 6.95 61.15L4.4 55.5L-1.3 53.15Q-7.35 50.35 -8.9 48.1Q-13 42.15 -10.2 39.9Q-9.05 39 -6.6 40.3Q-7.9 38.05 -8.6 35.45Q-10.05 30.4 -7.5 28.75L-7.6 29.25L-8.05 29.75L-8.25 30.2L-6.8 33.3L-4.8 37.25L-2.85 38.95L-1 40.35L0.7 42.1L0.75 42.15L0.85 43.1Q0.85 43.85 1 44.4L0 46.7L-0.05 46.65Q-0.05 45.8 -0.5 45.35L-2.4 44.1L-4.35 42.85Q-4.95 42.35 -8.05 40.35L-9.6 40.5Q-10.3 40.85 -10.3 41.35Q-10.3 42.4 -9.3 43.3L-7.1 45.4L-5.85 46.15L-4 47L-1.7 48.1L-0.1 48.75L0.35 48.5Q0.7 49 1.9 49.35Q3.5 49.75 5.4 50.75L6.5 51.1L6.75 51.35L8.1 53.15L8.4 53.7L10.65 58.05L12.15 62.05Q13.1 64.5 14.5 66.15L22.35 75.35L22.55 75.55L23.25 76.55L29.9 86.35Q31.95 89.25 35.05 92.45Q38.7 96.1 40.05 96.1L40.75 95.9L40.8 94.9Q40.8 93.8 37.05 87.15L43.3 95.7Q38.8 82.9 37.95 68.3L31.05 64.2L38.7 62.15Q34.3 58.65 28.75 57.05Q34.35 54.6 38.95 56Q36.6 52.6 32.3 51.15Q38.2 48.75 44.1 51.15Q39.65 46.3 38.2 41.4L41.1 42.1L39.6 42L39.5 42.55Q40.65 44 44.1 47.05Q47.3 49.85 48.4 51.5L48 51.75L44.8 52.2Q44.4 52.35 44.4 52.8Q44.4 53.45 45 53.7L46.9 54.55Q45.65 54.65 45.65 55.85L46.3 57.25L45.6 57.5L43.45 58.3Q42.4 58.8 42.4 59.45Q42.4 60.05 43.3 60.7L44.9 61.85Q46.55 63.35 47 64.5L44.5 65Q44.15 65.15 44.15 65.6L45.35 66.85Q46.55 67.8 46.6 68.35L44.65 69.5Q42.85 70.4 42.85 71.25Q42.85 71.85 43.95 73.2Q45 74.5 45 75.3L44.75 77.5L45.2 78.75L45.65 80L45.9 85Q45.85 86.6 46.85 89.7Q47.8 92.75 49 95Q51.95 100.25 57.5 104.75L60.4 106.7L63.35 108.5Q65.3 109.75 67.75 110.3L70.1 111L79.2 111.8L93.15 110.25L98.75 108.5L106.75 103.8Q109.95 102.05 113 98.8Q115.65 96 117.4 92.9L121.35 85.65L119.95 89.7Q116.9 98.1 114.7 102.75Q135.05 82.45 143.5 67.55Q151.9 52.7 154.7 49.7Q153.15 44.1 152.4 39.95Q150.8 31.65 153.2 29.95L153.65 29.7L153.6 29.85L153.5 31L153.75 33.3L154.15 35.4L154.6 37.75Q154.95 39.15 156.5 39.75L157.15 39.75L157.8 39L157.55 38.8L158 38.3L158.05 37.3L157.8 36.2L157.8 36Q157.8 34.65 157.05 32.3L156.85 31.6L157.45 33Q158.35 35.4 158.8 38.15Q160.4 33.7 162.55 29.25Q166.9 20.35 169.85 20.55Q172.8 20.75 173.1 24.3M169,22.35Q168.15 22.9 167.65 24.2L166.8 26.4Q163.75 31.65 163.75 34.35L163.8 35.15Q163.95 35.65 164.65 35.9L165.35 35.9Q167.1 34.4 169.55 30.3Q172.4 25.65 172.4 23.2Q172.4 21.7 171.9 21.45Q171.15 21 169 22.35M169.8,48.1L168.15 49.05L167.95 49.15L168.65 48.65L169.8 48.1M168.6,51.75L166.65 52.45L166.35 52L167.05 51.65L168.15 51.3L168.6 51.75M114.75,21.1L112.15 25.75L108.75 30.1Q105.55 34.3 105.55 35.15Q105.55 36.05 106.5 36.25L107.3 36.25L108.25 35.6Q108.65 35.25 109.1 35.25L110.75 35.5L110.8 36.6L111.65 36.75Q113.7 36.75 116.4 28.25Q118.75 21 118.75 19.45Q118.75 17.6 117.1 18.6Q115.6 19.5 114.75 21.1M120.8,15.25Q122.05 15.25 122.25 18.75Q122.25 22.2 119.05 33.45L116.05 43.6Q114.95 42.65 114.55 42.65L113.75 42.75L113.55 41.85Q113.35 41.35 112.6 41.05L112.15 41.25L111.05 41.95Q110.2 42.4 109.5 42.35L109.25 42.25Q109.4 39.6 106.5 39.25Q104.8 39.05 103.5 38.05L103.15 37.8L103.6 36.9L106.35 33.05L111.05 26.3L115.05 20.1Q118.5 15.25 120.8 15.25M90.15,42.55Q91.1 42.55 92.85 43.6Q94.8 44.75 95.6 46.1Q96.55 47.75 96.85 50.75Q97 52.25 98.3 53.6L99.85 54.95Q98.1 53.95 94.95 53.5L89.15 53.25L89.5 53.15L88.1 53.2L87.85 53.15L87.85 53.2L85.35 53.4Q82.9 54.05 80.5 56.55Q78.25 58.95 78.25 61.05Q78.25 62.55 80.85 64.55Q84.25 67.25 89.5 67.25Q96.6 67.25 99.9 63.5Q102 61.05 102 58.15L102 57.7L102.05 57.8L102.45 58.4L103.2 60.3Q103.85 62.05 103.85 63.35Q103.85 68.05 101 72.55Q96.25 80.1 85.8 80.1Q80.95 80.1 78.3 77.1Q76.65 75.15 76.65 73.85L76.65 70.35L76.35 68.55Q76 67.25 76 66.75Q76 63.4 73.55 59.6Q72.4 57.75 68.9 55.4L65.65 53.15Q65.65 49.75 69.25 45.95Q73.2 41.75 78.05 41.75L81.1 42L82.65 42.6L85.35 43.35L85.65 43.4L85.65 43.45L85.85 43.55L85.9 43.65L86.4 43.75L86.8 43.65L89.15 43.95L88.25 44.8L88.15 45.95L88.6 48Q89.5 49.85 91.9 49.85Q93.05 49.85 93.85 49.15Q94.55 48.5 94.55 47.55Q94.55 46.15 93.5 44.75Q92.35 43.35 90.7 43.4L90.8 43.15L90 42.55L90.15 42.55M81.5,91.75Q79.15 91.75 77.7 91.2L76.25 90.5L72.8 89.8L70.6 89.25L67.55 89.25L64.45 94.5Q61.55 98.8 58.45 98.8Q53.3 98.8 50.35 93.8Q49.95 93.1 49.45 90.9Q49 88.65 49 87.35Q49 86.35 49.85 84.2L51.1 81.3L53.4 78.25L55.65 75Q56.85 72.7 58 68.75Q59.35 64.15 60.15 62.3Q60.25 64.6 59.55 70.05L59.8 74.6Q59.9 77.6 61.6 79.4L63.45 81.55Q64.5 82.6 66.6 83.25L71.85 84.9Q76.6 86.25 79.75 86.25Q86.2 86.25 96 83.8Q99.4 83.1 104 80.85Q105 80.35 107.6 79.35L110.55 78L113.45 75.85Q115.6 74.25 116 74.25Q116.5 74.25 116.85 75.05L117.15 75.95Q117.15 78.7 114.05 81.1Q111.4 83.05 106.1 85.05L102.25 86.75Q99.45 87.95 96.55 88.4L89.55 90.3Q84.25 91.75 81.5 91.75M86.1,47.65Q86.1 42.4 79.55 42.4Q77.25 42.4 75.5 43.6Q73.3 45.1 73.3 47.8Q73.3 49.9 74.75 51.25Q76.25 52.65 78.75 52.65Q82.65 52.65 84.7 50.6Q86.1 49.15 86.1 47.65M66.25,23L69.1 30.05L70.2 34.25L71.2 36.7L68.8 36.8L68.3 36.5L63.75 36Q62.75 36.3 62.8 37.15Q62.85 38.2 62.4 38.55L62.1 38.5L61.45 37.6L60.5 36.75L59.6 36.75Q58.8 37.2 58.6 38.95Q58.35 40.8 57.9 41.15Q57.3 40.8 56.3 40.8Q55.5 41.3 54.9 42.95Q54.3 44.5 53.6 44.85L53.55 44.85L53.75 44.55L53.8 44.5L54.5 42.85L54.4 42.45L54.1 42.3L53.8 42.2L53.35 33.55L53.6 27.85Q53.9 22.7 54.1 21.55L54.6 18.3L54.6 20.6Q54.1 23.2 54.35 28.8L54.6 32.75L54.35 34.9Q54.25 36.5 55.4 36.5Q56.05 36.5 56.4 35.35Q56.65 34.4 56.5 33.75Q57.15 33.65 58.1 32.6L59 31.55Q60.6 31.55 60.7 31L60.6 30Q60.6 30.3 61.9 30.3Q62.7 30.25 62.85 29.7L62.9 28.7Q62.9 25.8 60.5 19.4Q58 12.55 56.3 12.75Q55.8 12.8 55.45 13.1Q56.25 9.25 57.1 9.25Q59.15 9.25 61 12.4Q61.95 14 62.5 15.65Q64.45 18.7 66.25 23M64.15,15.6Q63.05 13.55 62.75 12.4Q62.35 10.8 60.55 9.2Q58.4 7.3 55.25 6.55Q53.9 7.6 52.65 15.3Q51.55 22.2 51.55 26.75L52.05 35.75L52.05 41.05L52.2 42.85Q51.95 44.25 51.05 45.45L49.95 46.6L49.5 46.5L49.2 46.55Q48.95 36.7 49.6 26.7Q50.95 6.5 55.6 5.85Q60.25 5.2 67.35 20.7Q69.7 25.7 71.6 30.8Q71.3 30.8 71.1 31L71 31.15L71 31.65L70.75 31.4Q70.15 28.8 68.4 24.9L65.75 18.75L64.15 15.6M48.75,47.55L44.35 43.8Q43.1 42.85 42 42.4Q45.95 43.8 49.05 46.65L49 46.65L48.8 46.75L48.75 47.55M72.75,34.3L72.7 33.8L72.85 34.25L72.75 34.3M18.05,33.6Q16.55 33.6 15.8 37.55Q15 38.8 14.6 40.5L14.3 41.9L14.15 41.95L12.75 42.6L11.95 42.5Q11.55 41.55 11.05 41.35L10.95 40.75Q10.75 39.4 10.35 38.45Q9.95 35.8 5.15 28.7Q-0.05 21.1 -0.05 25.8L3.6 31.9L4.3 33.85L5.5 36.35L6.25 39.25L6.35 40.1L5.5 40.4L3.75 41.45L2.3 38.55L-0.6 33.85Q-2.3 31 -5 29.25L-6.15 28.3Q-4.35 28.25 -1.9 30.85Q-2.35 29.1 -2.2 27.3Q-1.9 23.75 1.05 23.55Q4 23.35 8.35 32.25Q10.5 36.7 12.1 41.15Q12.55 38.4 13.45 36Q15.3 31.25 17.7 32.95L18.4 33.7L18.05 33.6M18.7,39.2L19.15 37.15Q19.15 39.45 18.5 42.95L17.35 48L16.75 47.2L17.5 45.2L17.9 42.4L18.7 39.2M56.05,77.75Q55.55 77.85 54.85 78.9L54 80.25Q51.35 83.15 51.35 85.65L51.5 87.1L51.55 88.85Q51.5 89.6 52.2 90.6L53.5 92.25L55 92.25L57.6 91.05L59.55 89.75Q61.3 88 61.3 86.8L61.25 85.95Q61.1 85.4 60.25 85.15L58.6 85.15Q56.75 85.6 55.65 86.5L53.85 87.9L53.85 86.65L54.4 84.9Q54.65 83.75 55.15 83.15L58 79.8Q57.4 77.5 56.05 77.75M42.9,135.9L43.8 138.05Q50.25 130.35 51.75 121.05Q46.5 111.5 39.75 103.65L39.25 108.2Q39.1 107.05 37.55 105.55Q35.7 103.75 34.5 104.65Q33.3 105.6 32.6 107.3L31.85 110.05Q30.8 114.05 30.6 115.95L30.55 120.8Q30.55 125.65 31.5 129.6L32.55 134.9Q33.8 138.55 37.05 138.55Q40.2 138.55 42.65 136.1L42.9 135.9M20.7,169.05L21.9 167L21.65 167.5Q21.15 168.65 21 169.4L20.7 169.05M1.65,170.55Q1.65 171.55 2.85 172.15L3.8 172.15Q5 171.45 6.25 168.25Q6.25 165.85 3.95 167.3Q1.65 168.7 1.65 170.55M2.45,175.85Q0.6 176.55 0.6 178.55L0.6 179.3Q0.85 180.05 2 180.05Q3 180.05 3.7 178.9Q4.25 178 4.25 177.4Q4.25 175.1 2.45 175.85" />
<path style="fill:#FFFFFF;fill-opacity:0.4" d="M98.9,59.65Q96.65 61.8 91.35 61.8Q84.65 61.8 82.65 60.1Q81.9 59.4 81.9 57.8Q81.9 56 83.05 55.05Q84.4 54 88.55 53L95.5 53Q97.8 53.25 99.2 54.5Q100.3 55.55 100.3 56.7Q100.3 58.35 98.9 59.65" />
<path style="fill:none;stroke-width:2;stroke-linecap:round;stroke-linejoin:miter;stroke-miterlimit:3;stroke:#582903;stroke-opacity:1" d="M71.75,57.15Q71.1 55.3 71.05 52.75Q70.95 47.75 74 44.55Q76.3 42.15 80.3 42.35Q84.2 42.55 85.8 44.8M87.05,53.05L87.2 50Q87.1 46.6 85.8 44.8" />
<path style="fill:none;stroke-width:2;stroke-linecap:butt;stroke-linejoin:miter;stroke-miterlimit:3;stroke:#582903;stroke-opacity:1" d="M85.8,44.8L87.6 43.6Q89.8 42.55 91.65 43.25Q95.05 44.55 95.9 48.7Q96.35 50.8 96.1 52.65" />
<path style="fill:#582903;fill-opacity:1" d="M88.55,49.55Q88.55 47.8 90.25 47.4Q91.9 47 91.9 49.65L91.7 51.1Q91.45 51.75 90.6 51.75Q89.3 51.75 88.8 50.65L88.55 49.55M81.75,52.35Q81.4 53.2 79.6 54.25L78.9 54.25Q76.8 53.15 76.8 50.1Q76.8 48.8 76.95 48.5Q77.2 47.75 78.55 46.85Q81.1 47.2 81.7 48.4Q81.9 48.75 81.9 50.3L81.75 52.35" />
<path style="fill:none;stroke-width:3;stroke-linecap:butt;stroke-linejoin:miter;stroke-miterlimit:3;stroke:#AE4200;stroke-opacity:1" d="M156.2,175.85L160.8 176.35Q161.65 176.2 162.4 175.65Q164 174.45 163.85 172.25Q163.7 170.05 160.65 168.7L157.6 167.85L157.45 170.2L152.85 173M7.2,175.6Q2.95 175.1 2.25 174.2L0.65 176.35Q-0.6 178.75 1.3 180.2Q3.2 181.65 5.5 180.15L7.45 178.4L12.1 183.25Q17.4 187.9 20.75 187.1Q23.5 186.45 25.05 180.1Q26.6 173.65 28.95 172.8Q32 171.7 37.55 176.75Q40.35 179.25 42.5 182Q81.9 206 121.25 186.9Q125 183.7 128.15 180.3Q134.5 173.45 136.45 174.3Q137.65 174.85 140.35 181.9Q142.85 188.6 145.7 188.9Q148.9 189.25 153 185.25L156.45 181.2L159.3 181.65Q162.25 181.7 162.85 179.95Q163.5 178.2 162.2 177.1L160.8 176.35M114.7,102.75Q116.9 98.1 119.95 89.7L124.75 75.75L123.7 68.85L128.3 60.4L122.4 60.9L130.85 53L120.9 53.25L127.05 46.05L119.35 48.9L122.15 44.25L117.8 45.3Q120.75 37.8 122.75 29.85Q126.7 13.9 121.85 11.5Q117.4 9.3 107.8 22.35Q103 28.9 99.1 35.85L98.1 34.45Q96.85 33 95.55 33Q94.55 33 92.45 34.3Q90.35 35.55 89.15 35.55Q88.1 35.55 85.2 32.9Q82.35 30.3 80.7 30.45Q78.75 30.6 75.95 33.5L73.55 36.35Q70.95 28.45 67.35 20.7Q60.25 5.2 55.6 5.85Q50.95 6.5 49.6 26.7Q48.95 36.85 49.2 46.8Q44.7 42.5 38.2 41.4Q39.65 46.3 44.1 51.15Q38.2 48.75 32.3 51.15Q36.6 52.6 38.95 56Q34.35 54.6 28.75 57.05Q34.3 58.65 38.7 62.15L31.05 64.2L37.95 68.3Q38.8 82.9 43.3 95.7M-0.45,45.25Q-3.7 41.9 -6.6 40.3Q-9.05 39 -10.2 39.9Q-13 42.15 -8.9 48.1Q-7.35 50.35 -1.3 53.15L4.4 55.5L6.95 61.15Q13.3 74.4 24.9 89.55L31.05 94.65Q35.65 98.8 39.75 103.65Q46.5 111.5 51.75 121.05Q50.25 130.35 43.8 138.05Q41.65 140.65 38.7 143.35Q34.9 146.8 33.5 151.9Q32.45 155.65 32.75 159.85Q32.95 161.95 33.3 163.3Q43.2 168.25 45.6 176.1M33.3,163.3Q23.2 161.45 20 170.75L18.1 166.85Q15.75 162.9 13.6 162.8Q9.9 162.7 8.2 166.25Q7.35 168.1 7.2 169.95L11.55 173.55M8.2,166.25L4.4 166.9Q0.65 168 0.8 170.2Q0.95 172.35 2.25 174.2M43.8,138.05Q37 123.3 39.75 103.65M157.6,167.85Q157.4 163.65 154.65 163.55Q152.25 163.45 149.1 167.2L146.45 171Q142.55 161.9 135.55 163.6M31.05,94.65Q19 121.85 33.5 151.9M-1.9,30.85Q-5.25 27.35 -7.35 28.6Q-10.1 30.25 -8.6 35.45Q-7.9 38.05 -6.6 40.3" />
<path style="fill:none;stroke-width:2;stroke-linecap:butt;stroke-linejoin:miter;stroke-miterlimit:3;stroke:#AE4200;stroke-opacity:1" d="M110.9,26.8Q118.6 15.95 119.85 16.6Q121.1 17.25 117.65 30.3L113.95 43.2L112.65 40.15L109.6 42.2L108.8 38.85L106.5 38.6L104.75 38.2L103.4 37.8L110.9 26.8M54.3,44.5Q54.1 36.5 54.3 28.45Q54.65 12.25 56.6 11.75Q58.55 11.25 63.65 23.6Q66.2 29.8 68.35 36.05L63.25 35.05L62.25 38.6L58.9 35.05L57.85 41.45L56.35 39.4L54.3 44.5" />
<path style="fill:none;stroke-width:2;stroke-linecap:butt;stroke-linejoin:miter;stroke-miterlimit:3;stroke:#993127;stroke-opacity:1" d="M74.95,63.4Q75.8 61.1 78.05 58.6Q81.7 54.55 87.05 53.05L89.6 52.45L96.1 52.65L98.3 53.45Q103.8 56 103.95 63.2Q104.1 70.7 94.65 73.05Q86 75.15 80.9 71.9L76.95 69.15L75.75 68.15" />
<path style="fill:none;stroke-width:2;stroke-linecap:butt;stroke-linejoin:miter;stroke-miterlimit:3;stroke:#582903;stroke-opacity:1" d="M60.45,60.9L59.65 64.9L59.05 69.6L58.85 73.15Q58.85 77.65 60.2 79.6Q60.95 80.75 62.3 81.85Q64.05 83.35 66.85 84.85L67 84.9L69.1 85.95Q75.35 88.8 79.1 88.8Q86.3 88.85 96.65 85.85Q108.45 82.4 115.55 77L116.5 76.25Q118.2 74.9 116.1 72.75L113.7 70.9M75.75,68.15L75.8 71.15M75.75,68.15Q75.55 65.6 74.95 63.4Q73.95 59.6 71.75 57.15Q68.2 53.15 61.45 52.45M58.85,73.15L56.6 75.1Q53.95 77.55 52.2 80L52 80.3Q46.55 87.95 51.2 92.9Q56.65 98.7 62.3 92.35Q65.1 89.2 66.85 84.85" />
<path style="fill:none;stroke-width:3;stroke-linecap:round;stroke-linejoin:miter;stroke-miterlimit:3;stroke:#AE4200;stroke-opacity:1" d="M166.75,36.65Q169.6 31.2 172.8 27.85M171.35,42.25Q174.6 38.9 177.5 37.3M119.3,179.95Q125.45 170.35 135.55 163.6Q137 159.7 137.55 154.6Q138.7 144.1 133.9 137.7L125.4 127.6Q120.5 121.65 118.65 116Q129.65 99 146 86.55Q157.6 71.4 163.95 58.15L166.5 52.5L172.2 50.15Q178.25 47.35 179.8 45.1Q183.9 39.15 181.1 36.9Q179.95 36 177.5 37.3" />
<path style="fill:none;stroke-width:3;stroke-linecap:butt;stroke-linejoin:miter;stroke-miterlimit:3;stroke:#AE4200;stroke-opacity:1" d="M172.8,27.85Q173.25 26.1 173.1 24.3Q172.8 20.75 169.85 20.55Q166.9 20.35 162.55 29.25Q160.4 33.7 158.8 38.15Q158.35 35.4 157.45 33Q155.6 28.25 153.2 29.95Q150.8 31.65 152.4 39.95Q153.15 44.1 154.7 49.7Q151.9 52.7 143.5 67.55Q135.05 82.45 114.7 102.75Q113.1 106.1 111.95 107.45Q108.35 111.7 92.7 115.85Q76.05 120.3 67.15 117.95Q59.2 115.85 50.45 105.55L43.3 95.7Q30.55 79.05 21.4 61.15Q18.75 56.05 16.45 50.9Q17.75 47.1 18.5 42.95Q20.1 34.65 17.7 32.95Q15.3 31.25 13.45 36Q12.55 38.4 12.1 41.15Q10.5 36.7 8.35 32.25Q4 23.35 1.05 23.55Q-1.9 23.75 -2.2 27.3Q-2.35 29.1 -1.9 30.85Q1.3 34.2 4.15 39.65" />
<path style="fill:none;stroke-width:3;stroke-linecap:round;stroke-linejoin:miter;stroke-miterlimit:3;stroke:#AE4200;stroke-opacity:1" d="M177.5,37.3Q178.8 35.05 179.5 32.45Q181 27.25 178.25 25.6Q176.15 24.35 172.8 27.85" />
<path style="fill:#582903;fill-opacity:1" d="M92.45,30.4L92.5 30.25L92.6 30.2L94.2 30.65L95.85 31.45L98.15 33.2Q99.55 34.75 100.15 36.05Q101.15 37.45 101.15 37.9L101.15 38.25L100.95 38.25L99.2 37.25Q98.8 37.15 98.55 36.85L97.15 36.1L95.9 35.5L92.8 34.2Q91.05 33.5 88.4 32.95L88.35 32.8L88.75 32.35L89.4 32.05L91.35 31.35L90.75 30.85L90.8 30.7L92.85 31.15L92.85 31.05L92.65 30.75L92.45 30.4M81.15,29.55L81.2 29.7L80.95 30.15L80.7 30.55L80.7 30.65L83.25 30.1L83.35 30.3L82.55 30.95L85 31.8L85.85 32.2L86.35 32.75L86.25 32.95Q82.95 33.6 80.75 34.5L76.85 36.15Q76.4 36.3 75.3 36.9L73.55 37.8L72.75 38.35L70.55 39.6L70.3 39.55L70.25 39.15Q70.25 38.55 71.5 36.8Q72.3 35.2 74.05 33.25Q74.95 32.15 76.95 31.05Q77.7 30.55 79 30.05L81 29.5L81.15 29.55" />
</g>
</svg>
