<?xml version="1.0" encoding="utf-8"?>
<svg version="1.1" id="Layer_1"
xmlns="http://www.w3.org/2000/svg"
xmlns:xlink="http://www.w3.org/1999/xlink"
xmlns:author="http://www.sothink.com"
width="91px" height="119px"
xml:space="preserve">
<g id="166" transform="matrix(1, 0, 0, 1, 34.75, 113.85)">
<path style="fill:#609393;fill-opacity:1" d="M28.6,-4.55L29.35 -4.55L28.65 -3.1L28.6 -4.55" />
<path style="fill:#C7ECEC;fill-opacity:1" d="M-25.25,-2.65L-25.45 -5.05Q5.35 -3 29.25 -6.85L29.35 -4.55L28.6 -4.55Q11.8 -0.95 -25.25 -2.65" />
<path style="fill:#A13838;fill-opacity:1" d="M28.6,-4.55L28.65 -3.1Q26.45 1.3 22.95 3Q19.95 4.4 14.25 4.5L1.45 4.35L-18.15 4.3Q-23.55 3.85 -24.7 0.65L-25.25 -2.65Q11.8 -0.95 28.6 -4.55" />
<path style="fill:#6AA6A6;fill-opacity:1" d="M-27.6,-31.05L-26.8 -31.2L-22.3 -31.3L-9.8 -30.25L1.45 -29.2Q7.05 -29.2 12.3 -36.05Q15.15 -39.75 18.9 -46.5Q21.3 -50.1 29.85 -51.2L41.5 -52.4L38 -39.3Q34.25 -24.95 32.65 -16.65L31.95 -13.3L19.2 -12.45L9.9 -10.25Q1.9 -8.25 -0.2 -8.25L-5.45 -8.85L-9.65 -8.85Q-13.3 -8.7 -13.3 -8.25L-13.5 -8.25Q-18.2 -8.4 -20.95 -12.15L-23.05 -14.85Q-24.3 -16 -26 -16.05Q-26.55 -23.5 -27.6 -31.05M21.3,-26.1Q21.9 -24.45 24.3 -24.45Q26.75 -24.45 28 -26.85Q28.75 -28.35 28.75 -29.55Q28.75 -33.35 24.95 -32.25Q21.1 -31.2 21.1 -27.9L21.3 -26.1M32.05,-34.05Q33.1 -34.05 33.1 -35.25Q33.1 -36.9 31.85 -37.1Q30.6 -37.35 30.6 -35.8L30.75 -34.9Q31.1 -34.05 32.05 -34.05M30.05,-6.5L29.35 -4.55L29.25 -6.85L30.05 -6.5M-19.75,-25.1Q-21.95 -23.85 -21.95 -20.95Q-21.65 -19.25 -20.65 -17.4Q-18.65 -13.75 -15.25 -13.75Q-11.4 -13.75 -9.35 -16.35Q-8 -18.15 -8 -19.9Q-8 -22.05 -10.2 -23.75Q-12.2 -25.35 -14.95 -25.75Q-17.85 -26.2 -19.75 -25.1M-0.5,-21.25Q-0.5 -23 -2.65 -23.65Q-4.85 -24.25 -4.85 -21.75L-4.7 -20.35Q-4.15 -19.05 -2.45 -19.05Q-0.5 -19.05 -0.5 -21.25" />
<path style="fill:#5C9595;fill-opacity:1" d="M41.5,-52.4L29.85 -51.2Q21.3 -50.1 18.9 -46.5Q15.15 -39.75 12.3 -36.05Q7.05 -29.2 1.45 -29.2L-9.8 -30.25L-22.3 -31.3L-26.8 -31.2L-27.6 -31.05L-28.7 -37.65Q-26.05 -38.9 -20.95 -39.05L-9.85 -39Q4.75 -39.2 8.8 -46.8Q12.25 -53.2 14.2 -55.3Q17.65 -58.95 24.3 -61.2Q28.65 -62.6 35.05 -62.6L39.65 -63.05L43.15 -63.5L44.35 -63.15L41.5 -52.4M21.1,-27.9Q21.1 -31.2 24.95 -32.25Q28.75 -33.35 28.75 -29.55Q28.75 -28.35 28 -26.85Q26.75 -24.45 24.3 -24.45Q21.9 -24.45 21.3 -26.1L21.1 -27.9M30.75,-34.9L30.6 -35.8Q30.6 -37.35 31.85 -37.1Q33.1 -36.9 33.1 -35.25Q33.1 -34.05 32.05 -34.05Q31.1 -34.05 30.75 -34.9M29.25,-6.85Q5.35 -3 -25.45 -5.05L-25.8 -11.85L-26 -16.05Q-24.3 -16 -23.05 -14.85L-20.95 -12.15Q-18.2 -8.4 -13.5 -8.25L-13.3 -8.25Q-13.3 -8.7 -9.65 -8.85L-5.45 -8.85L-0.2 -8.25Q1.9 -8.25 9.9 -10.25L19.2 -12.45L31.95 -13.3L30.2 -6.85L30.05 -6.5L29.25 -6.85M-14.95,-25.75Q-12.2 -25.35 -10.2 -23.75Q-8 -22.05 -8 -19.9Q-8 -18.15 -9.35 -16.35Q-11.4 -13.75 -15.25 -13.75Q-18.65 -13.75 -20.65 -17.4Q-21.65 -19.25 -21.95 -20.95Q-21.95 -23.85 -19.75 -25.1Q-17.85 -26.2 -14.95 -25.75M-2.45,-19.05Q-4.15 -19.05 -4.7 -20.35L-4.85 -21.75Q-4.85 -24.25 -2.65 -23.65Q-0.5 -23 -0.5 -21.25Q-0.5 -19.05 -2.45 -19.05" />
<path style="fill:none;stroke-width:1;stroke-linecap:butt;stroke-linejoin:miter;stroke-miterlimit:3;stroke:#1E3535;stroke-opacity:1" d="M31.95,-13.3L32.65 -16.65Q34.25 -24.95 38 -39.3L41.5 -52.4L44.35 -63.15L44.35 -63.2L43.15 -63.5L39.65 -63.05L35.05 -62.6Q28.65 -62.6 24.3 -61.2Q17.65 -58.95 14.2 -55.3Q12.25 -53.2 8.8 -46.8Q4.75 -39.2 -9.85 -39L-20.95 -39.05Q-26.05 -38.9 -28.7 -37.65L-27.6 -31.05M31.95,-13.3L30.2 -6.85L30.05 -6.5L29.35 -4.55L28.65 -3.1Q26.45 1.3 22.95 3Q19.95 4.4 14.25 4.5L1.45 4.35L-18.15 4.3Q-23.55 3.85 -24.7 0.65L-25.25 -2.65L-25.45 -5.05L-25.8 -11.85L-26 -16.05Q-26.55 -23.5 -27.6 -31.05M-28.7,-37.65L-29.25 -37.4L-29.05 -37.8L-28.85 -38.5L-28.7 -37.65" />
<path style="fill:#BD4C4C;fill-opacity:1" d="M29.5,-97.75Q27.4 -100.9 25.65 -100.9L14.4 -101.45L5.1 -102.85L5.15 -103.35L5.35 -105.55L5.35 -105.7L10.5 -105.3L20.35 -104.8Q21.75 -104.65 25.6 -104.9L28.85 -104.45L29.65 -103.75L31.1 -98.05L31.25 -97.6L29.8 -97.35L29.5 -97.75M50.05,-63.5L47.25 -63.9Q44.25 -63.9 41.15 -65.55L38.05 -67.25Q35.3 -67.25 33.65 -65.45Q32 -63.65 29.5 -63.65Q26.1 -63.65 23.6 -67.25Q21.05 -70.85 20.05 -70.85Q18.45 -70.85 16.75 -68.25L15.65 -66.4Q14.45 -64.1 13.6 -61.55Q13.75 -57.9 11.55 -56.4Q9.85 -55.3 8.95 -53.6L8 -51.25L5.45 -44.4Q4.5 -42.2 2 -40.95Q0.1 -39.9 -4.5 -39.15L-9.65 -38.6L-13.3 -39.1L-16.5 -39.65L-18.4 -39.1L-20.5 -38.6L-22.9 -39.25L-25.55 -39.9L-29.8 -39.4Q-31.15 -39.4 -33.3 -42.2L-34.25 -43.5L-34 -48.15L-33.5 -49.35L-33.2 -48.95Q-32.45 -48.2 -31.25 -48.2L-30.2 -48.45L-29.15 -48.7Q-28.8 -47.2 -27.75 -45.6Q-25.65 -42.45 -21.75 -42L-14.55 -41.7L-9.75 -41.7L-3.15 -42Q0.05 -42.65 0.65 -44.8Q2.7 -45.65 3.85 -46.9Q6.25 -49.6 9.25 -61.8Q10.1 -65.4 11.45 -68.65L12.8 -71.5Q14.15 -74.25 15.9 -76.75L16.05 -77L18.5 -80L19.6 -81.1L20.25 -81.7L20.35 -81.75L21 -80.75L44.55 -83L45.05 -83.05Q49.95 -83.05 51.65 -80.45Q53 -78.45 53 -73.25L52.9 -71.15L52.6 -68.1Q52.2 -65 52.15 -63.15L50.05 -63.5M-19.35,-71.35Q-18.4 -76.75 -18.15 -83.1L-18.15 -83.2Q-19.2 -83.75 -19.85 -85.2Q-20.5 -86.6 -20.5 -87.85Q-20.5 -89.75 -19.65 -90.8L-18.4 -90.55L-17.15 -90.8L-15.85 -91.05Q-13.75 -91.05 -12.45 -90.05Q-11.15 -89.05 -11.15 -87.2Q-11.15 -86.15 -13.1 -84.2Q-15.05 -82.25 -15.05 -79.05Q-15.05 -77.3 -14.65 -75.35Q-14.4 -74.05 -14.3 -72.3L-16.05 -72.15L-19.35 -71.35M38.05,-78.35L38.05 -78.25L38.05 -78.1L38.4 -78.05L40.4 -78Q44.2 -78.3 45.25 -78.1Q48.3 -77.45 49 -75.6L49.3 -73.35Q50.1 -74.1 50.1 -77.4L49.5 -78.85L48.55 -80.25L38.25 -80.25L38.1 -78.9L38.05 -78.65L38.05 -78.35M38.1,-77.9L35.75 -76.65Q35.1 -76.05 35.1 -73.9Q35.1 -70.85 38.75 -70.1L45.2 -69.85Q47.8 -69.85 49.35 -70.75L49.3 -71.65L49.3 -73.35L49.1 -73.25L43.9 -73L39.05 -73.35Q38.55 -73.8 38.25 -76.05L38.1 -77.9M-16.55,-89L-16.7 -88.75L-16.85 -88.75L-16.85 -86.9L-16 -86.3L-15.15 -86.15Q-14.3 -86.15 -13.75 -86.65Q-13.25 -87.15 -13.25 -88Q-13.25 -88.45 -14.3 -89L-15.8 -89.5L-16.55 -89" />
<path style="fill:#DE7676;fill-opacity:1" d="M31.1,-98.05L29.65 -103.75L28.85 -104.45L25.6 -104.9Q21.75 -104.65 20.35 -104.8L10.5 -105.3L5.35 -105.7L5.4 -107.1L5.4 -107.9L7.75 -107.9Q7.5 -109.85 8.2 -111.05L10.25 -110.55L14.55 -110.55L19.7 -110.9L25 -111.3Q26.9 -111.3 26.8 -108.85L26.8 -108.15L29.4 -107.75Q33 -106.7 33 -103Q33 -99.05 32.5 -98.35Q32.15 -97.85 31.25 -97.6L31.1 -98.05M13.9,-80.35L9.65 -80.75L6.95 -80.7Q6.9 -83.6 7.6 -89.35Q8.4 -95.25 8.3 -98.2L9.5 -98.05L16 -97.8L20.6 -97.55Q19.6 -96.75 18.35 -96.4L18 -96.3L14.85 -95.9Q11 -95.5 11 -90.65Q11 -86.85 11.45 -85.5Q11.95 -84.05 13.6 -83.7L22.45 -83.35Q24.9 -84.9 27.55 -85.25L29.15 -85.35L35.15 -85.2L44.4 -84.85L44.7 -84.8L45.1 -84.8L52.7 -85.4Q55.55 -85.25 55.55 -80.35L54.95 -70.95L54.75 -66.5Q55.05 -64.7 54.85 -63.25Q54.45 -60.7 52.3 -59.5Q52.15 -60.5 52.15 -62.5L52.15 -63.15Q52.2 -65 52.6 -68.1L52.9 -71.15L53 -73.25Q53 -78.45 51.65 -80.45Q49.95 -83.05 45.05 -83.05L44.55 -83L21 -80.75L20.35 -81.75L20.25 -81.7L19.6 -81.1L18.5 -80L13.9 -80.35M0.65,-44.8Q0.05 -42.65 -3.15 -42L-9.75 -41.7L-14.55 -41.7L-21.75 -42Q-25.65 -42.45 -27.75 -45.6Q-28.8 -47.2 -29.15 -48.7L-30.2 -48.45L-31.25 -48.2Q-32.45 -48.2 -33.2 -48.95L-33.5 -49.35Q-32.25 -51.5 -28.8 -51.5L-27.5 -51.35L-27.5 -51L-27.15 -51.2Q-25.3 -50.5 -24.95 -47.85Q-24.5 -44.25 -21.75 -44.25L-15.75 -43.85L-9 -43.5Q-2.85 -43.5 0.65 -44.8M-14.3,-72.3Q-14.4 -74.05 -14.65 -75.35Q-15.05 -77.3 -15.05 -79.05Q-15.05 -82.25 -13.1 -84.2Q-11.15 -86.15 -11.15 -87.2Q-11.15 -89.05 -12.45 -90.05Q-13.75 -91.05 -15.85 -91.05L-17.15 -90.8L-18.4 -90.55L-19.65 -90.8L-18.7 -91.6Q-17.35 -92.35 -14.4 -92.35Q-9.1 -92.35 -9.1 -87.5Q-9.1 -85.15 -9.75 -84.5Q-11.05 -83.8 -12.5 -83.05L-13 -82.5L-12.95 -72.35L-14.3 -72.3M49,-75.6Q48.3 -77.45 45.25 -78.1Q44.2 -78.3 40.4 -78L38.4 -78.05L38.05 -78.1L38.05 -78.25L38.05 -78.35L38.1 -78.9L38.25 -80.25L48.55 -80.25L49.5 -78.85L50.1 -77.4Q50.1 -74.1 49.3 -73.35L49 -75.6M-15.8,-89.5L-14.3 -89Q-13.25 -88.45 -13.25 -88Q-13.25 -87.15 -13.75 -86.65Q-14.3 -86.15 -15.15 -86.15L-16 -86.3L-16.85 -86.9L-16.85 -88.75L-16.7 -88.75L-16.55 -89L-15.8 -89.5" />
<path style="fill:#A13838;fill-opacity:1" d="M8.3,-98.2Q4.9 -98.85 4.9 -100.65L5.1 -102.85L14.4 -101.45L25.65 -100.9Q27.4 -100.9 29.5 -97.75L29.8 -97.35L28.35 -97.3L28.1 -97.3L23.45 -97.45L20.6 -97.55L16 -97.8L9.5 -98.05L8.3 -98.2M52.15,-63.15L52.15 -62.5Q52.15 -60.5 52.3 -59.5Q50.2 -58.4 46.5 -58.5Q36.65 -58.75 31.75 -58.3Q23.7 -57.6 17.5 -54.85Q14.65 -53.6 12.9 -50.3Q12.3 -49.2 10.45 -44.1Q9.05 -40.35 7.45 -38.7Q5.2 -36.4 1.25 -36.5Q-8.55 -36.75 -28 -36L-31.25 -36.35Q-33.1 -36.9 -34.25 -38.35L-34.25 -41.05L-34.25 -41.25L-34.25 -43L-34.25 -43.5L-33.3 -42.2Q-31.15 -39.4 -29.8 -39.4L-25.55 -39.9L-22.9 -39.25L-20.5 -38.6L-18.4 -39.1L-16.5 -39.65L-13.3 -39.1L-9.65 -38.6L-4.5 -39.15Q0.1 -39.9 2 -40.95Q4.5 -42.2 5.45 -44.4L8 -51.25L8.95 -53.6Q9.85 -55.3 11.55 -56.4Q13.75 -57.9 13.6 -61.55Q14.45 -64.1 15.65 -66.4L16.75 -68.25Q18.45 -70.85 20.05 -70.85Q21.05 -70.85 23.6 -67.25Q26.1 -63.65 29.5 -63.65Q32 -63.65 33.65 -65.45Q35.3 -67.25 38.05 -67.25L41.15 -65.55Q44.25 -63.9 47.25 -63.9L50.05 -63.5L52.15 -63.15M38.25,-76.05Q38.55 -73.8 39.05 -73.35L43.9 -73L49.1 -73.25L49.3 -73.35L49.3 -71.65L49.35 -70.75Q47.8 -69.85 45.2 -69.85L38.75 -70.1Q35.1 -70.85 35.1 -73.9Q35.1 -76.05 35.75 -76.65L38.1 -77.9L38.25 -76.05" />
<path style="fill:#333333;fill-opacity:1" d="M16.95,-93.2Q18.3 -90.35 25.35 -89.55L25 -88.8Q24.5 -88.25 21.75 -88.25Q18.7 -88.25 17.7 -89.05Q16.6 -89.95 16.8 -92.35L16.9 -93.05L16.95 -93.2" />
<path style="fill:#202020;fill-opacity:1" d="M16.95,-93.2L17.15 -93.55Q17.45 -94.15 18.2 -94.35L21.1 -94.5L24.5 -94.15Q25.5 -93.7 25.5 -91.75L25.35 -89.55Q18.3 -90.35 16.95 -93.2" />
<path style="fill:#8C2F2F;fill-opacity:1" d="M-1.6,-72.4Q-1.65 -75.55 -0.8 -77.45Q-0.25 -77.15 0.65 -77.15L3.8 -77.4L7.25 -77.7L14.05 -77.1L15.9 -76.75Q14.15 -74.25 12.8 -71.5L12.05 -71.9L2.8 -72.2L-1.6 -72.4" />
<path style="fill:#5B1919;fill-opacity:1" d="M0.85,-51.45L0 -51.4L-2.55 -51.25Q-2.7 -55.6 -1.8 -60L-1.3 -62.45Q0.45 -62.25 0.95 -61.8Q1.6 -61.2 1.6 -58.55L1.55 -55.8L0.85 -52.55L0.85 -51.45M-18.55,-51.45L-22 -51.25Q-22.15 -55.6 -21.25 -60L-20.65 -63.1Q-19.6 -62.8 -19.1 -62.3Q-18.2 -61.35 -18.2 -58.9L-18.55 -51.45M-8.8,-51.45L-12.15 -51.25Q-12.3 -55.6 -11.4 -60L-10.85 -62.85L-10.4 -62.85Q-8.95 -62.85 -8.6 -61.3L-8.5 -58.35L-8.8 -51.45" />
<path style="fill:#AD4C4C;fill-opacity:1" d="M-16.05,-72.15L-14.3 -72.3L-12.95 -72.35L-6.5 -72.5L-1.6 -72.4L2.8 -72.2L12.05 -71.9L12.8 -71.5L11.45 -68.65L-4.85 -69.9L-13.75 -69.2L-19.4 -68.65L-22.3 -68.55L-23.25 -68.6L-22.05 -69.9Q-20.95 -70.8 -19.35 -71.35L-16.05 -72.15M18.5,-80L16.05 -77L15.9 -76.75L14.05 -77.1L7.25 -77.7L3.8 -77.4L0.65 -77.15Q-0.25 -77.15 -0.8 -77.45Q-0.05 -79.1 1.35 -79.8Q2.8 -80.55 6.95 -80.7L9.65 -80.75L13.9 -80.35L18.5 -80" />
<path style="fill:#4D1313;fill-opacity:1" d="M0.85,-52.55L1.55 -55.8L1.6 -58.55Q1.6 -61.2 0.95 -61.8Q0.45 -62.25 -1.3 -62.45L-1 -64.7Q-0.65 -65.5 2.35 -65.5L4.45 -65.5Q5.2 -65.3 5.2 -64.15Q5.2 -62.95 4.2 -57.75Q3.15 -52.55 3.15 -51.75L0.85 -51.45L0.85 -52.55M-18.2,-58.9Q-18.2 -61.35 -19.1 -62.3Q-19.6 -62.8 -20.65 -63.1L-20.45 -64.7Q-20.1 -65.5 -17.1 -65.5L-15 -65.5Q-14.25 -65.3 -14.25 -64.15Q-14.25 -62.95 -15.25 -57.75L-16.3 -51.75L-18.55 -51.45L-18.2 -58.9M-8.5,-58.35L-8.6 -61.3Q-8.95 -62.85 -10.4 -62.85L-10.85 -62.85L-10.6 -64.7Q-10.25 -65.5 -7.25 -65.5L-5.15 -65.5Q-4.4 -65.3 -4.4 -64.15Q-4.4 -62.95 -5.4 -57.75L-6.45 -51.75L-8.8 -51.45L-8.5 -58.35" />
<path style="fill:#802B2B;fill-opacity:1" d="M-9,-43.5L-15.75 -43.85L-21.75 -44.25Q-24.5 -44.25 -24.95 -47.85Q-25.3 -50.5 -27.15 -51.2L-27.5 -51.35L-27.5 -52.75Q-26.3 -64.45 -23.25 -68.6L-22.3 -68.55L-19.4 -68.65L-13.75 -69.2L-4.85 -69.9L11.45 -68.65Q10.1 -65.4 9.25 -61.8Q6.25 -49.6 3.85 -46.9Q2.7 -45.65 0.65 -44.8Q-2.85 -43.5 -9 -43.5M-1.8,-60Q-2.7 -55.6 -2.55 -51.25L0 -51.4L0.85 -51.45L3.15 -51.75Q3.15 -52.55 4.2 -57.75Q5.2 -62.95 5.2 -64.15Q5.2 -65.3 4.45 -65.5L2.35 -65.5Q-0.65 -65.5 -1 -64.7L-1.3 -62.45L-1.8 -60M-21.25,-60Q-22.15 -55.6 -22 -51.25L-18.55 -51.45L-16.3 -51.75L-15.25 -57.75Q-14.25 -62.95 -14.25 -64.15Q-14.25 -65.3 -15 -65.5L-17.1 -65.5Q-20.1 -65.5 -20.45 -64.7L-20.65 -63.1L-21.25 -60M-11.4,-60Q-12.3 -55.6 -12.15 -51.25L-8.8 -51.45L-6.45 -51.75L-5.4 -57.75Q-4.4 -62.95 -4.4 -64.15Q-4.4 -65.3 -5.15 -65.5L-7.25 -65.5Q-10.25 -65.5 -10.6 -64.7L-10.85 -62.85L-11.4 -60" />
<path style="fill:#F3B2B2;fill-opacity:1" d="M26.8,-108.15L26.8 -108.85Q26.9 -111.3 25 -111.3L19.7 -110.9L14.55 -110.55L10.25 -110.55L8.2 -111.05Q8.7 -112.05 9.7 -112.55Q11.25 -113.35 15.15 -113.35L18.9 -113.1L19.85 -113.05Q22.8 -112.9 24.5 -113.05L25.2 -113.1Q27.25 -113.15 28.25 -112.05Q29.4 -110.8 29.4 -107.75L26.8 -108.15M20.6,-97.55L23.45 -97.45L28.1 -97.3L27.9 -91.65L27.9 -91.6L27.55 -85.25Q24.9 -84.9 22.45 -83.35L13.6 -83.7Q11.95 -84.05 11.45 -85.5Q11 -86.85 11 -90.65Q11 -95.5 14.85 -95.9L18 -96.3L18.35 -96.4Q19.6 -96.75 20.6 -97.55M16.9,-93.05L16.8 -92.35Q16.6 -89.95 17.7 -89.05Q18.7 -88.25 21.75 -88.25Q24.5 -88.25 25 -88.8L25.35 -89.55L25.5 -91.75Q25.5 -93.7 24.5 -94.15L21.1 -94.5L18.2 -94.35Q17.45 -94.15 17.15 -93.55L16.95 -93.2L16.9 -93.05" />
<path style="fill:none;stroke-width:1;stroke-linecap:butt;stroke-linejoin:miter;stroke-miterlimit:3;stroke:#8A1E1E;stroke-opacity:1" d="M-13,-82.5L-12.95 -72.35L-6.5 -72.5L-1.6 -72.4Q-1.65 -75.55 -0.8 -77.45Q-0.05 -79.1 1.35 -79.8Q2.8 -80.55 6.95 -80.7Q6.9 -83.6 7.6 -89.35Q8.4 -95.25 8.3 -98.2Q4.9 -98.85 4.9 -100.65L5.1 -102.85L5.15 -103.35L5.35 -105.55L5.35 -105.7L5.4 -107.1L5.4 -107.9L7.75 -107.9Q7.5 -109.85 8.2 -111.05Q8.7 -112.05 9.7 -112.55Q11.25 -113.35 15.15 -113.35L18.9 -113.1L19.85 -113.05Q22.8 -112.9 24.5 -113.05L25.2 -113.1Q27.25 -113.15 28.25 -112.05Q29.4 -110.8 29.4 -107.75Q33 -106.7 33 -103Q33 -99.05 32.5 -98.35Q32.15 -97.85 31.25 -97.6L29.8 -97.35L28.35 -97.3L28.1 -97.3L27.9 -91.65L27.9 -91.6L27.55 -85.25L29.15 -85.35L35.15 -85.2L44.4 -84.85L44.7 -84.8L45.1 -84.8L52.7 -85.4Q55.55 -85.25 55.55 -80.35L54.95 -70.95L54.75 -66.5Q55.05 -64.7 54.85 -63.25Q54.45 -60.7 52.3 -59.5Q50.2 -58.4 46.5 -58.5Q36.65 -58.75 31.75 -58.3Q23.7 -57.6 17.5 -54.85Q14.65 -53.6 12.9 -50.3Q12.3 -49.2 10.45 -44.1Q9.05 -40.35 7.45 -38.7Q5.2 -36.4 1.25 -36.5Q-8.55 -36.75 -28 -36L-31.25 -36.35Q-33.1 -36.9 -34.25 -38.35L-34.25 -41.05L-34.25 -41.25L-34.25 -43L-34.25 -43.5L-34 -48.15L-33.5 -49.35Q-32.25 -51.5 -28.8 -51.5L-27.5 -51.35L-27.5 -52.75Q-26.3 -64.45 -23.25 -68.6L-22.05 -69.9Q-20.95 -70.8 -19.35 -71.35Q-18.4 -76.75 -18.15 -83.1L-18.15 -83.2Q-19.2 -83.75 -19.85 -85.2Q-20.5 -86.6 -20.5 -87.85Q-20.5 -89.75 -19.65 -90.8L-18.7 -91.6Q-17.35 -92.35 -14.4 -92.35Q-9.1 -92.35 -9.1 -87.5Q-9.1 -85.15 -9.75 -84.5Q-11.05 -83.8 -12.5 -83.05M26.8,-108.15L29.4 -107.75M26.8,-108.15L25.15 -108.2L18 -107.65L11.25 -107.9L7.75 -107.9M27.55,-85.25Q24.9 -84.9 22.45 -83.35Q21.35 -82.65 20.35 -81.75L20.25 -81.7L19.6 -81.1L18.5 -80L16.05 -77L15.9 -76.75Q14.15 -74.25 12.8 -71.5L11.45 -68.65Q10.1 -65.4 9.25 -61.8Q6.25 -49.6 3.85 -46.9Q2.7 -45.65 0.65 -44.8M49.3,-73.35Q50.1 -74.1 50.1 -77.4L49.5 -78.85L48.55 -80.25L38.25 -80.25L38.1 -78.9L38.05 -78.35L38.05 -78.25L38.05 -78.1M49.3,-73.35L49.1 -73.25L43.9 -73L39.05 -73.35Q38.55 -73.8 38.25 -76.05L38.1 -77.9L38.05 -78.1M20.6,-97.55L23.45 -97.45L28.1 -97.3M25.35,-89.55L25.5 -91.75Q25.5 -93.7 24.5 -94.15L21.1 -94.5L18.2 -94.35Q17.45 -94.15 17.15 -93.55L16.95 -93.2M25.35,-89.55L25 -88.8Q24.5 -88.25 21.75 -88.25Q18.7 -88.25 17.7 -89.05Q16.6 -89.95 16.8 -92.35L16.9 -93.05L16.95 -93.2M20.6,-97.55L16 -97.8L9.5 -98.05L8.3 -98.2M38.1,-78.9L38.05 -78.65L38.05 -78.35M6.95,-80.7L9.65 -80.75L13.9 -80.35L18.5 -80M12.05,-71.9L2.8 -72.2L-1.6 -72.4M-1.3,-62.45L-1 -64.7Q-0.65 -65.5 2.35 -65.5L4.45 -65.5Q5.2 -65.3 5.2 -64.15Q5.2 -62.95 4.2 -57.75Q3.15 -52.55 3.15 -51.75L0.85 -51.45L0 -51.4L-2.55 -51.25Q-2.7 -55.6 -1.8 -60L-1.3 -62.45M-16.55,-89L-16.7 -88.75L-16.85 -88.75L-16.85 -86.9L-16 -86.3L-15.15 -86.15Q-14.3 -86.15 -13.75 -86.65Q-13.25 -87.15 -13.25 -88Q-13.25 -88.45 -14.3 -89L-15.8 -89.5L-16.55 -89M-14.3,-72.3L-12.95 -72.35M-20.65,-63.1L-20.45 -64.7Q-20.1 -65.5 -17.1 -65.5L-15 -65.5Q-14.25 -65.3 -14.25 -64.15Q-14.25 -62.95 -15.25 -57.75L-16.3 -51.75L-18.55 -51.45L-22 -51.25Q-22.15 -55.6 -21.25 -60L-20.65 -63.1M-27.15,-51.2L-27.5 -51.35L-27.5 -51L-27.15 -51.2Q-25.3 -50.5 -24.95 -47.85Q-24.5 -44.25 -21.75 -44.25L-15.75 -43.85L-9 -43.5Q-2.85 -43.5 0.65 -44.8M-10.85,-62.85L-10.6 -64.7Q-10.25 -65.5 -7.25 -65.5L-5.15 -65.5Q-4.4 -65.3 -4.4 -64.15Q-4.4 -62.95 -5.4 -57.75L-6.45 -51.75L-8.8 -51.45L-12.15 -51.25Q-12.3 -55.6 -11.4 -60L-10.85 -62.85M-14.3,-72.3L-16.05 -72.15L-19.35 -71.35" />
</g>
</svg>
