<?xml version="1.0" encoding="utf-8"?>
<svg version="1.1" id="Layer_1"
xmlns="http://www.w3.org/2000/svg"
xmlns:xlink="http://www.w3.org/1999/xlink"
xmlns:author="http://www.sothink.com"
width="186px" height="194px"
xml:space="preserve">
<g id="333" transform="matrix(1, 0, 0, 1, 8.7, -4.55)">
<path style="fill:#FC850F;fill-opacity:1" d="M168.8,27.15Q171.2 25.55 172.65 26.15Q174.6 26.9 174.95 30Q175.3 33.25 173.15 35.6Q169.7 39.35 159.3 45.25L158.7 46.85Q153.45 61.65 144.45 79.1Q139.05 83.6 129 98.25Q118.65 113.3 119.3 116.5Q119.95 119.75 123.15 124.2L129.65 132.45Q138.6 143.75 138.8 152.05Q138.95 157.65 137.5 163.2Q136.75 165.95 136 167.6Q137.3 167.1 138.25 167.15Q141.9 167.3 144.65 171.1Q146.05 173 146.7 174.85Q147.85 173 149.6 171.15Q153.05 167.5 155.95 167.7Q158.45 167.85 158.8 170.25L161.9 171.1Q164.95 172.7 164.65 176.4Q164.45 179.1 162.15 180L163.35 181.55Q164.15 183.5 162.05 185.6Q160.6 187.05 158.2 186L156.15 184.65L152.5 188.45Q147.7 192.65 144.65 191.5Q141.25 190.25 139.95 183.9Q139.35 180.85 138.75 179.8Q137.75 178 135.7 177.9Q132.35 177.8 124.45 184.5L117.25 191.25Q79.75 203.75 45.1 185.35Q42.95 182.85 40.1 180.4Q34.4 175.45 31 175.6Q28.75 175.7 27 181.5Q25.1 187.9 22.55 189.2Q19.15 190.9 13.35 186.9L8.2 182.55L5.05 183.1Q1.7 183.35 0.55 181.75Q-0.55 180.15 0.6 178.45L2 177.05Q-0.2 175.05 1.05 171.75Q2.2 168.9 5.25 169.1Q6.8 169.2 8.1 169.9Q9.4 167.4 11.8 167.4Q14.7 167.4 17.4 171.65Q18.75 173.75 19.5 175.85Q20.65 173.85 22.5 171.8Q26.2 167.65 29.7 167.4Q31.75 167.25 34.35 168.45Q33.9 167.35 33.4 165.65Q32.5 162.2 32.45 158.65Q20.3 142 19.05 120.9Q18.55 112.6 19.95 105.65Q21.25 99.25 23.6 96.5Q26.7 92.85 29.25 96.95Q31.5 100.6 31.25 105.25Q30.8 114.8 31.8 122.5Q33.7 136.7 40.2 141.2L45.45 135.75Q49.6 130.9 52.8 120.85Q34.3 87.6 24.1 79.1Q15.1 61.65 9.85 46.85L9.25 45.25Q-1.15 39.35 -4.6 35.6Q-6.75 33.25 -6.4 30Q-6.05 26.9 -4.1 26.15Q-2.65 25.55 -0.25 27.15Q-1.6 25.3 -2.1 23.05Q-3.15 18.55 1.05 16.65Q4.65 15.05 9.15 22.25Q8.65 20.65 8.6 18.95Q8.45 15.5 10.5 14.8Q15.2 13.3 17.15 20.2Q18.15 23.75 18.2 30.7Q19.55 28.2 21.35 26.35Q24.9 22.55 27.15 25.55Q29.4 28.55 25.3 33.15Q23.25 35.4 20.75 37.1L39 78.55L39.7 69.1L35.6 66.8L39.7 63.2L33.6 59.4L40.75 57.05L32.8 52.7Q39.45 49.75 46.1 51.45L38.2 44.55Q43.7 43.5 49.2 46.3Q47.6 37.35 47 27.9Q45.8 8.95 50.75 6.4Q55.7 3.85 64.95 19.45Q69.6 27.25 73.25 35.55L76.15 33.7Q79.3 31.85 80.7 32Q81.85 32.15 84.3 34.2Q86.85 36.35 88.1 36.6Q89.55 36.9 92.45 35.25Q95.55 33.5 96.05 33.5Q97.55 33.55 100.9 35.8L110.85 22.65Q121.65 9.95 125.75 12.25Q129.9 14.55 125.65 31.3Q123.55 39.7 120.6 47.6Q125.15 46.95 128.55 49.35Q124.85 49.9 121.15 53.2Q129.25 52.95 132.65 57.05L123.45 60.9L125.75 63.7L123.7 67.55L128.05 69.35L123.45 74.7L120.6 87.05Q119 93.5 117.65 97.6Q133.45 70.65 147.8 37.1Q145.3 35.4 143.25 33.15Q139.15 28.55 141.4 25.55Q143.65 22.55 147.2 26.35Q149 28.2 150.35 30.7Q150.4 23.75 151.4 20.2Q153.35 13.3 158.05 14.8Q160.1 15.5 159.95 18.95L159.4 22.25Q163.9 15.05 167.5 16.65Q171.7 18.55 170.65 23.05Q170.15 25.3 168.8 27.15M75.6,67.6L76.9 69.55Q78.65 71.75 80.9 73.2Q84.8 75.7 91.8 74.45Q98.15 73.35 100.4 70.9Q103.95 67.1 102.95 61.7Q101.95 55.95 96.3 55.05Q96.85 53.4 96.95 51.35Q97.1 47.2 94.75 45.05Q93 43.45 89.9 44.55L87.15 45.95Q86.1 42.75 83.2 41.7Q79.75 40.45 76.8 41.75Q74.55 42.75 73.25 44.8Q71.8 47.05 71.45 51.7Q71.25 54 71.35 55.85Q73.4 57.05 74.25 58.85Q75.3 61 75.55 63.85L75.6 67.6M121.15,32.1Q125.15 18.2 123.4 17.4Q121.65 16.6 113.3 26.9L105.25 37.35L109.1 37.35L110.35 39.95L112.65 38.4L112.65 42.5L116 39.65L116.75 45.8L121.15 32.1M54.3,45.3L57.1 37.9L59.4 40.45L60.45 35.05L64.55 37.1L69.4 36.35L62.65 24Q55.45 11.75 53.25 12.05Q51.05 12.35 52.45 28.85Q53.15 37.1 54.3 45.3M57.25,74.75L55.55 76.4Q53.65 78.5 52.75 80.65Q50.7 85.65 51.95 91.5Q53.35 98.05 58.4 97.55Q63.05 97.1 64.9 90.85L65.85 84.7Q59.8 81 57.9 77.3Q57.35 76.2 57.25 74.75" />
<path style="fill:#FFFFFF;fill-opacity:1" d="M86.55,55.55Q83.3 56.5 80.45 58.6Q78.35 60.15 76.75 62.15L75.55 63.85Q75.3 61 74.25 58.85Q73.4 57.05 71.35 55.85Q71.25 54 71.45 51.7Q71.8 47.05 73.25 44.8Q74.55 42.75 76.8 41.75Q79.75 40.45 83.2 41.7Q86.1 42.75 87.15 45.95L89.9 44.55Q93 43.45 94.75 45.05Q97.1 47.2 96.95 51.35Q96.85 53.4 96.3 55.05Q91.05 54.2 86.55 55.55" />
<path style="fill:#E66006;fill-opacity:1" d="M116.75,45.8L116 39.65L112.65 42.5L112.65 38.4L110.35 39.95L109.1 37.35L105.25 37.35L113.3 26.9Q121.65 16.6 123.4 17.4Q125.15 18.2 121.15 32.1L116.75 45.8M52.45,28.85Q51.05 12.35 53.25 12.05Q55.45 11.75 62.65 24L69.4 36.35L64.55 37.1L60.45 35.05L59.4 40.45L57.1 37.9L54.3 45.3Q53.15 37.1 52.45 28.85" />
<path style="fill:#FF6D6B;fill-opacity:1" d="M96.3,55.05Q101.95 55.95 102.95 61.7Q103.95 67.1 100.4 70.9Q98.15 73.35 91.8 74.45Q84.8 75.7 80.9 73.2Q78.65 71.75 76.9 69.55L75.6 67.6L75.55 63.85L76.75 62.15Q78.35 60.15 80.45 58.6Q83.3 56.5 86.55 55.55Q91.05 54.2 96.3 55.05" />
<path style="fill:#FF2E28;fill-opacity:1" d="M57.9,77.3Q59.8 81 65.85 84.7L64.9 90.85Q63.05 97.1 58.4 97.55Q53.35 98.05 51.95 91.5Q50.7 85.65 52.75 80.65Q53.65 78.5 55.55 76.4L57.25 74.75Q57.35 76.2 57.9 77.3" />
<path style="fill:#582903;fill-opacity:1" d="M119.9,74.9L122.15 76.3Q123.05 76.95 123.55 78L123.55 78.3Q123.5 78.5 123.1 78.5Q121.95 78.5 121.15 77.75L118.5 75.5L118.5 74.9L119.9 74.9M120.8,82.85Q119.1 82.85 117 80.15Q117.75 79.35 119.05 80.5L121.5 82.4L121.35 82.7L120.8 82.85M117,81.9Q118.4 81.4 120.85 84.1L120.75 84.5L120.3 84.5Q119.85 84.5 118.85 83.8L117.5 82.85L117.2 82.65L117 82.15L117 81.9M120.8,86.3L120.55 86.75L120 87.05Q119.8 87.25 119.5 87.25Q118.7 87.25 117.45 86.2Q116.05 85.05 116 84.05Q116.55 83.8 118.55 84.6Q120.65 85.45 120.8 86.3M119.25,91.6L116.75 90.6Q115.75 90.05 115.25 89.35L117.25 89.25L119.8 90.85Q119.8 91.35 119.25 91.6M39.65,72.75L43.05 73L43.4 73L43.5 73.4L43.35 73.9L43 74.1L41 74.1L39.35 73.65Q39.15 73.9 39.15 73.25Q39.15 72.9 39.4 72.8L39.65 72.75M39.25,79.75Q39.5 79.6 40.5 79.75L46.8 79.85L47.5 80.55Q46.9 81.05 45.5 81.6L42.25 82.25L40.35 82.15L40.25 81.8L40.25 81.5L39.6 81.3L39.3 80.75L39.15 80.05L39.2 79.7L39.25 79.75M38.5,76.05L38.5 74.9L45.35 75.35L45.55 75.75L43.35 76.8L39.65 77.1L39.05 76.85L38.6 76.5L38.5 76.05M59.85,79.25L59.75 79.85L60.65 80L61.1 80.1L61.25 80.65L60.3 82.6Q59.15 84.55 58.75 86Q57.85 88.65 57.55 91.4L57.3 91.6L56.75 91.5Q56.2 91 56.05 90L56 88.25Q56 85.55 57 82.1Q58.2 77.8 59.75 78.6L59.85 79.25M42,85L41.75 84.75Q41.5 84.85 41.5 84.5L41.5 84.1L47.05 83.8L47.05 83.75L47.85 83.75L48.2 83.8L48.35 84.25L47.65 85L45.2 85.55L43 86L41.9 85.9L41.9 85.65L42 85M49.25,91.5L49.4 91.85L49.1 92.4L45.75 92.2L44 91.8L43.75 91.25L43.8 90.75L45.95 90.6L48.25 90.85Q48.7 91.35 49.25 91.5M65,104.6L65.4 104.7L65.55 105.2L65.3 105.75L64.8 106.25L61.5 106.05Q57.85 105.5 56.5 103.55L55.25 100.55Q56.1 100.05 57 101L58.15 102.3Q59 102.75 60.85 103.4Q63.05 104.2 65 104.6M26.85,104.9L27.2 105L27.35 105.5L27.3 105.85L27.15 106L22.5 106L22.25 105.8L19.8 105.65Q19.55 105.9 19.55 105.25L19.75 103.75L23.7 104.25L26.85 104.9M25.3,111.25L25.05 111.85L19.55 111.15Q19.35 111.5 19.35 110.85L19.55 110.15L19.75 109.4L22.7 109.8Q24.4 110 25.3 111.25M20.25,118.3L19.5 118.4L19 118.5L18.8 118.35L18.75 117.95L18.9 117.35L18.9 116.9Q18.9 116.3 19.4 116.25L22.35 116.65L26.4 117.25L26.8 117.3L26.9 117.75L26.75 118.3L26.4 118.5L20.4 118.5L20.25 118.3M18.5,124.75L18.9 124.65L27.15 124.75L27.25 124.75L27.35 125.15L27.25 125.6L27.1 125.65L22.65 126.15L18.6 125.6L18.4 125.2L18.5 124.75M21.25,131.85L21.65 132.3L26.15 132.55L26.65 133.1L26.4 133.6L23.8 134.1L22.05 134.3L21.35 134.15Q20.9 133.95 21.4 133.55L20.65 133.35Q20.5 133.55 20.5 132.95Q20.5 132.55 21.25 131.85M23.9,142.3L32.3 141.8L32.4 141.95L32.5 142.5Q32.5 143.15 32.25 143.05Q26.65 144.6 26.1 144.85L25.25 144.8L24.85 143.9L24.25 143.75Q23.8 143.4 23.8 142.9L23.9 142.3M29.1,151.25L28.5 151.25L28.1 151.2L28 150.75Q28 150.15 28.5 150L31 149.75L31.5 150.25L31.25 150.75L29.1 151.25" />
<path style="fill:#E66006;fill-opacity:1" d="M162.1,37.35Q160.6 39.5 158.5 40Q152.8 40.5 151.25 38.4Q150.75 37.7 150.75 35.7Q150.75 33.6 151.35 31.85Q151.55 31.2 152.75 30.3L154.4 29Q155.4 28.1 156.95 28.3Q158.05 28.45 159 29L160.35 29.55L161.75 30.25L162.8 32.1L163.4 34.05Q163.4 35.55 162.1 37.35M17.1,37.1Q16.05 38.15 13 40.25L11.85 40.5L10.75 40.75Q7.25 40.75 6.1 38.3Q5.6 37.25 5.6 35.55Q5.6 33.05 6.1 31.9Q6.9 30.15 9.5 29.1Q13.05 27.7 16.1 29.75Q18.75 31.55 18.75 33.5Q18.75 35.4 17.1 37.1M19.8,184.05Q20.75 185.35 20.75 186.9Q20.75 188.05 19.4 188.5Q16.35 188.9 12.25 185.55Q8.65 182.5 8.4 180.8L7.85 180.75Q7.6 180.45 7.6 179.75Q7.6 177.65 11.4 178.05Q15.2 178.4 17.3 180.8L19.8 184.05M155.05,180.15Q155.6 181.75 155.6 182.6L155.25 185Q154.6 185.1 154.55 185.35L154.35 185.75Q153.5 186.4 153.05 185.9Q152.9 186.9 151 188.55Q148.9 190.4 147.15 190.4Q143.6 190.4 143.6 188Q143.6 184.95 145.8 182.8L149.65 179.15Q152 177.3 153.55 178.15Q154.35 178.25 155.05 180.15M144.8,187.85L144.85 187.85L145 186.9L144.85 186.9L144.8 187.85" />
<path style="fill:#000000;fill-opacity:0.2" d="M170.85,21L170.65 23.05Q170.15 25.3 168.8 27.15Q171.2 25.55 172.65 26.15Q174.45 26.85 174.9 29.5L173.55 29.8L173.05 29.75Q171.15 29.75 167.4 32Q163.7 34.25 163.25 34.25L162.9 34.15L162.9 34.05Q163.85 31.05 167.6 27.2Q170.85 23.9 170.85 21.2L170.85 21M165.75,19.05Q161.75 22.2 160.9 26.3L160.85 26.3L158.1 28.65L156.9 29.55L156.85 29L157.2 27.9Q157.25 27.4 156.45 26.5Q157.95 24.45 159.85 17.05L159.95 18.95L159.4 22.25Q163.9 15.05 167.5 16.65Q168.55 17.1 169.25 17.75Q167.85 17.4 165.75 19.05M174.65,33.25Q174.15 34.5 173.15 35.6Q170.7 38.25 164.7 42.05L165.2 41.6L168.85 38.1L173.25 34.6L174.65 33.25M163.3,176.75L164.6 175.8L164.7 175.75L164.65 176.4Q164.45 179.1 162.15 180L163.35 181.55Q163.7 182.4 163.5 183.3Q163.45 182.35 162.05 181.65Q160.6 180.95 160.6 182.95L161 184.15Q161.45 185.3 162.2 185.5L162.05 185.6Q160.6 187.05 158.2 186L156.15 184.65L152.5 188.45Q147.7 192.65 144.65 191.5Q141.25 190.25 139.95 183.9Q139.35 180.85 138.75 179.8Q137.75 178 135.7 177.9Q132.35 177.8 124.45 184.5L117.25 191.25Q79.75 203.75 45.1 185.35Q42.95 182.85 40.1 180.4Q34.4 175.45 31 175.6Q28.75 175.7 27 181.5Q25.1 187.9 22.55 189.2Q19.15 190.9 13.35 186.9L8.2 182.55L5.05 183.1Q1.7 183.35 0.55 181.75Q-0.55 180.15 0.6 178.45L2 177.05Q0.1 175.35 0.8 172.65L1.15 173.45L2 174.75L4.3 174.75Q5.15 174.7 6.25 172.85Q7.25 171.1 7.25 170.2L7.1 169.5L8.1 169.9Q9.4 167.4 11.8 167.4L12.45 167.45Q11.8 167.65 11.05 168.1Q8.6 169.5 8.6 171.55Q8.6 174.5 14.75 174.5Q16.55 174.5 17 173.85L17.25 172.4L17.1 171.15L17.4 171.65Q18.75 173.75 19.5 175.85Q20.65 173.85 22.5 171.8Q26.2 167.65 29.7 167.4Q31.75 167.25 34.35 168.45Q33.9 167.35 33.4 165.65Q32.5 162.2 32.45 158.65Q20.3 142 19.05 120.9Q18.55 112.6 19.95 105.65Q21.25 99.25 23.6 96.5Q26.15 93.5 28.3 95.75Q25.85 97.8 24.4 104.65Q22.9 111.55 22.9 118.8L23.9 130.5Q25.8 142.15 30.2 142.15Q35.15 142.15 37.2 138.3Q38.55 140.05 40.2 141.2L45.45 135.75Q49.6 130.9 52.8 120.85Q34.3 87.6 24.1 79.1Q15.1 61.65 9.85 46.85L9.25 45.25Q-1.15 39.35 -4.6 35.6Q-6.75 33.25 -6.4 30L-6.3 29.3L-6 30.4Q-5.6 31.75 -2.95 33.7Q0.05 35.9 2.4 35.9L3.1 35.9L4.25 36.3L6.8 38.4L7.7 38.95L8.15 39.2L11.5 40.85Q12.05 41.45 12.3 42.4Q12.7 43.7 14.8 46.85Q16.9 50 17.25 51.25Q18.3 54.5 21 60.1L25.25 69.05L27.3 73.5Q28 74.8 30.75 77.9L36.65 86.75L39.6 91.1L42.4 95.55L45 100.8Q47.05 104.5 48.35 104.5Q49 104.5 49.25 103.9Q47.8 102.05 46.9 99.2L45.55 94.85Q44 91.05 41.3 85.85Q40.4 84.1 38.7 77.9L39 78.55L39.7 69.1L35.6 66.8L39.7 63.2L33.6 59.4L40.75 57.05L32.8 52.7Q39.45 49.75 46.1 51.45L38.2 44.55L40.3 44.3L40.05 44.95L40.1 45.35L40.4 45.5L40.35 45.5L41 46.4L44.7 47.3L45.35 47.5Q46.45 47.95 47.2 48.45L49.75 51.25L45.8 52.1Q43.6 52.55 43.1 53.35L45.2 54.75L47.25 56L47.15 56.1L44.6 56.85Q43.85 57.15 43.85 57.75Q43.85 58.1 45.55 59.4L47.5 61.05Q46.85 61.7 44.9 62.45Q43.1 63.15 42.85 63.55Q43 64.05 44.5 64.55Q43.35 65.35 43.35 65.85Q43.35 66.55 44.6 67.05L47.05 67.75Q43.85 69.35 43.85 69.95L43.95 70.45Q44.15 70.75 44.9 70.8L45 72.15L45.15 74.85Q45.15 77.1 45.85 80L47.1 85.2Q47.9 88.35 48.75 90.6L49.85 93.4L50.75 95.55Q52.15 98.85 53.3 101Q54.7 103.45 58.5 106.05Q62.45 108.7 66.65 109.4L66.9 109.5L69 110.05L71.75 110.8L76.5 111.75L84.25 111.75Q101 108.85 107.15 105.5Q110.15 103.9 116.25 97.1Q117.8 95.4 118.75 92.55Q119.6 89.35 120.15 87.9L120.65 86.95L120.6 87.05Q119 93.5 117.65 97.6Q133.45 70.65 147.8 37.1Q145.3 35.4 143.25 33.15Q139.15 28.55 141.4 25.55Q143.65 22.55 147.2 26.35Q149 28.2 150.35 30.7Q150.4 23.75 151.4 20.2Q153.25 13.7 157.55 14.65Q156.2 15.75 155.25 18.75Q154.25 21.95 154.25 24.85L153.75 26.05Q153.75 27.4 152.5 29.85L151.25 32.3L151.25 32.5L149.4 29.45Q147.35 26.25 145.15 26.25Q144.55 26.25 144.25 26.55Q144.6 28.4 145.25 29.55Q146.2 31.2 148 32.35Q149.45 33.3 150.45 34.85Q151.5 36.45 151.5 38L151.05 40.4L150.75 42.15L149.55 44.25L147.35 49.5L143.4 58.3Q141.6 62.75 139 67.15L136.6 71.8L134.05 76.15Q133.25 77.3 131.4 80.6Q129.7 83.6 128.55 85Q127.3 86.6 126.2 89.5L124.25 93.85Q120.4 100.15 119.15 102.85Q116.85 107.75 116.85 111.7Q116.85 114.6 117.35 115.4Q117.95 116.35 119.45 117.1L120.05 118.9L118.1 118.75L116.85 118.45L115.25 118L108.65 117.55L100.65 120Q95.85 121.55 88.7 123Q80.4 124.65 75.85 124.65Q65.45 124.65 61.05 123.1L58.15 121.5Q57.8 121.5 57.6 121.8L57.55 121.75Q56.2 122.75 55.65 125.4L54.9 127.4L54.1 129.25Q53.6 130.85 51.75 133.25L48.3 137.1Q43.6 141.55 41.95 145.3Q40.6 148.3 40.6 152.7Q40.6 161.35 55.75 166.6Q67.95 170.85 81.1 170.85Q93.95 170.85 106.25 168.6Q114.85 167 118.1 165.6Q121.55 164.15 125 161.85Q128.5 159.55 130.25 157.6Q133.4 154.1 135.2 149.85Q136.4 147.05 136.95 144.2Q138.7 148.4 138.8 152.05Q138.95 157.65 137.5 163.2Q136.75 165.95 136 167.6L137.45 167.2Q135.65 168 132.4 169.8Q131.1 170.55 129.9 171.8L128.05 173.6L122.3 178.05Q118.9 180.9 118.9 181.65Q118.9 182.05 119.05 182.25L119.5 182.5L126.7 176.75Q132.1 172.75 136.65 172.75Q139.15 172.75 140.75 175.8Q142.35 178.8 144.4 178.8Q147.05 178.8 147.05 176.65L146.8 174.7Q147.9 172.9 149.6 171.15Q153.05 167.5 155.95 167.7L156.85 167.85Q152.9 168.4 151.4 169.85Q150.35 170.85 150.35 172.65L150.4 173.85Q150.65 174.6 151.5 174.75L152.8 174.75Q156.85 172.55 157.55 172Q158.55 171.25 158.8 170.25L161.6 171.05Q161.05 171.25 160.6 171.8Q159.9 172.7 159.9 173.55Q159.9 174.45 160.45 175.35Q161.05 176.25 162 176.75L163.3 176.75M125.4,13.65Q123.5 13.65 120.6 15.4Q119.7 15.95 119 16.85L117.8 18.5L113.25 24.4L108.35 30.4Q104.25 35.4 104.05 36.35L103.65 36.25Q101.8 35.95 101.2 35.4L110.85 22.65Q121.65 9.95 125.75 12.25Q127.4 13.15 127.75 16.3L127.6 15.75Q127.05 13.65 125.4 13.65M121.55,18.3Q120.6 18.05 118.5 20.65L116.15 23.15L115.1 24.25L117.55 21.15L119.85 18.6Q122.2 16.15 123.35 16.15Q124.55 16.15 125.3 18.4L125.85 20.65Q125.85 24.2 122.1 35.4L118.6 46.05L118.35 46.05Q116.5 45.15 115.85 42.9Q115.3 41.05 114.3 41.05Q113.75 41.05 113.3 41.5L112.55 42.25L112.5 42.05L112.65 40.35Q112.65 39.25 111.75 39.25Q111.45 39.25 111.15 39.5L110.55 39.75Q110.2 39.75 109.8 38.9L109 37.75Q108.25 37.3 107.85 37.35L105.9 37L105.2 36.65Q108.25 33.35 113.3 26.5L113.95 25.75L109.45 31.65Q106.4 35.6 106.4 35.9L107.05 36.75Q111.1 35.25 112.65 35Q113.25 35.4 114.4 35.4L114.7 36.1Q114.95 36.5 115.55 36.5Q118.25 36.5 120.5 28.6Q122.25 22.5 122.25 20.2Q122.25 18.5 121.55 18.3M125.15,33.25Q127.35 23.2 127.75 19.5Q127.5 24.05 125.65 31.3L125.15 33.25M161.7,31.75L161.75 32.05L161.75 32.5L161.7 31.75M87.65,45.4L88.75 44.95Q89.8 44.5 91.85 44.5Q95.3 44.5 96.65 47.4Q97.4 49 97.4 51.05L97.4 52.55L97.15 53.45Q96.85 54.05 96.85 54.4L98.65 55.95Q96.2 54.85 91.85 54.85L91.85 55Q86.35 54.65 81.05 58.25Q78.4 60.05 77.3 61.55L77.25 62L76.85 62.15Q76.4 62.9 76.4 63.6Q76.4 64.85 78.6 66.5Q81.6 68.75 86.35 68.75Q91.1 68.75 94.9 67.25Q96.85 66.5 98.25 65.55Q100.55 64.55 101.25 63.35Q101.75 62.55 101.75 60.8Q101.75 59.3 101.25 58.25Q103.5 61.1 103.5 64.95L103.05 67.45L103 67.4Q102.2 67.75 102 69L101.85 70.45L101.25 71.8L101.4 72.35L100.25 74.9Q99.6 76.2 96.65 78.4Q92.4 81.6 88 81.6Q80.65 81.6 77.6 77.45Q75.75 75 75.75 71.8L75.8 71.55L76.1 70.65L76.1 70.3L76.1 70.2L76.1 69.6L76.15 68.9L76.4 65.45L76.2 61.75L74.5 58.4L72.85 56.45Q71.75 55.4 71.75 54.8L71.75 54.65Q69.4 53.6 65.75 53.6L63.6 53.75L63.6 53.55Q64.1 50.85 68.15 47Q72.2 43.15 76.15 42.15L75.75 42.45Q73.55 44.35 73.55 47.7L74.4 51.75Q76.1 55.65 80.4 55.65Q82.85 55.65 85 54.05Q86.65 52.85 87.3 51.2Q88.2 52.8 91.4 52.8Q94.05 52.8 95.25 51.2Q96.1 50.1 96.1 48.55Q96.1 47.1 94.7 45.75Q92.75 43.9 89.55 44.9L88.45 45.75Q87.7 46.5 87.5 47L87.5 47.15Q87.25 45.65 86.55 44.5L87.65 45.4M116.95,71.85Q116.3 71.9 116.3 72.4Q116.3 74 116.6 74.85Q116.55 75.4 114.25 78.35L112.1 81.15L109.25 83.8L105.1 86.1Q102.5 87.45 101.15 88.6Q100.6 89.05 96.85 90.6Q94.7 91.45 90.35 92.1L86.05 92.65L77.25 91.55L70.35 90L68.9 90Q68.2 91 67.95 92.45L67.15 95Q65.65 98.05 64.9 98.8Q63.45 100.3 60.5 100.3Q57.55 100.3 55.3 98.55L54.15 97.3L54.3 97.2L54.5 96.85L52.6 92.5Q51.55 90 51.55 88.3L51.55 87.95Q51.7 90.1 52.9 92.25Q54.65 95.3 57.55 95.3Q60.25 95.3 61.65 92.5Q62.55 90.65 62.55 89Q62.65 88 62.3 87.1Q61.7 85.35 59.75 85.35Q58.7 85.35 57.65 86.75L56.15 88.75Q55.9 88.3 55.9 87.7Q55.9 86.9 56.6 83.35L57.25 79.9Q57.25 79.2 56 78.25L54.9 77.35L55.4 76.1Q55.4 75.75 55.65 75.35L55.9 74.8L55.8 74.25L55.45 74.3L55.8 72.9L57 68.9Q57.9 66.6 60.65 63.4L61.05 62.95L59.65 66.55Q57.75 71.9 57.75 74.4Q57.75 76.3 60.35 78.6L65 82.5Q66.65 84.15 71.9 85.6Q75 86.5 77.6 87.7L84.05 88.4Q93.1 88.4 98.55 85.05Q102.75 82.75 105 81.15L111.35 76.55L114.3 73.8Q116.4 71.75 116.6 71.75L116.95 71.85M126.9,68.85L127 68.9L127 68.95L126.9 68.85M125.4,72.15L125.05 72.85L124.3 73.75Q124.65 72.9 125.4 72.15M54,9.8L55.2 10.15L55.75 10.6L56.75 11.45L57.05 11.85Q58.5 13.25 59.8 15.3Q61 17.15 63.6 22.25L68 30.75L70.3 34.6L70.35 34.75L70.75 35.6L70.05 36L67.75 36.75L65.4 37.35Q64.6 37.35 63.5 36.8L61.95 36.25Q61.1 36.25 60.2 38L59.15 40Q58.65 39.15 57.8 39L57.05 39Q56.2 39.65 55.4 41.15L55.9 39.2Q56.4 36.65 59 36.75L59.05 35.5L58.8 34.25L60 34L61.3 34L63.05 34.25L63.65 34.65L64.5 34.9Q65.15 34.9 65.4 34.5L65.5 34.25Q65.5 33.45 62.25 28.25L58.65 22.6Q56.35 17.05 53.95 16.2Q52.3 15.6 51.8 17.6L51.8 16.1Q51.55 15.3 51.55 14Q51.55 12.55 51.7 12.2L53 10L54 9.8M54.3,6.85L52.85 6.9Q50.85 6.5 49.4 7.75L49 8.1Q49.75 6.9 50.75 6.4Q54 4.75 59.05 10.8L54.4 7.45L54.3 6.85M48.45,11.6L48.25 14.2Q48.25 19.65 49.5 30.05Q50.3 36.6 50.9 39.65L51.8 43.35L51.8 43.95Q51.8 45.25 51.35 46Q50.9 46.7 50.05 46.85L49.5 47L49.5 46.9Q49.5 46.05 49.1 45.7Q47.6 37.05 47 27.9Q46.2 15.65 48.05 10.25Q48.1 10.7 48.6 10.85L48.45 11.6M51.8,30.1L51.8 23.45L52.15 26.15L52.85 31.4L53.4 37.15L53.5 40Q53.65 41.55 54.5 42.85L54.6 42.8L54 43.9L53.75 42.6L53.5 41.2L53.45 41L53.4 40.85L52.65 37.6L52.25 33.85L51.8 30.1M72.55,34.55L72.5 33.95L72.75 34.45L72.55 34.55M71.6,33L69.1 27.25L65.2 19.8Q69.1 26.45 72.3 33.5L71.6 33M9.05,21.8Q8.65 20.4 8.6 18.95Q8.45 15.5 10.5 14.8L11.3 14.6L10.85 15.15Q10.65 15.5 10.65 17.1L10.9 19.1L11.35 21.3Q11.4 21.95 12.15 23.1L12.4 24Q12.85 25.5 13.25 26.3L13 28.1L12.25 28.15L10.1 26.3L10.1 25.75L9.8 23.4L9.05 21.8M1.5,16.5Q0 17.2 0 20.05Q0 22.65 1.15 24.2Q2.3 25.8 5.15 27.5L5.5 28.25Q6.3 30 6.3 30.95Q6.3 32.1 5.9 32.8Q5.6 33.3 5.55 33.95L4.5 33.15L4.5 33.05Q4.5 31.55 3.35 30.15Q2.45 29.05 -0.25 26.9Q-0.45 26.75 -0.6 26.65Q-1.65 25 -2.1 23.05Q-3.15 18.55 1.05 16.65L1.5 16.5M3.4,17.6Q5.15 18 7.05 21.25Q8.5 23.8 8.75 25.3L8.6 25.2Q8.2 23.65 7 21.75Q5.45 19.3 3.3 17.6L3.4 17.6M12.55,15.45Q13.1 14.95 14.15 15.65Q16.25 17.15 16.25 21.4L16.25 21.45L14.25 17.6Q13.3 15.95 12.55 15.45M12.15,19L12.1 18.8L12.15 18.95L12.15 19M17.5,21.7Q18.15 24.95 18.2 30.3L17.5 30.6L17.5 30.5L17.15 27.65L16.75 26.25L16.75 26.05L16.75 25L17.45 23.85L17.5 21.7M18.6,30Q19.5 28.5 20.55 27.25L18.9 29.75L18.6 30M19.5,36.9L19.8 35.25L21.35 33.55L22.15 32.7L23.3 31.9L23.75 31.5L23.85 31.4L25.2 29.8Q27.05 27.3 27.05 25.9L27 25.4L27.15 25.55Q29.4 28.55 25.3 33.15Q23.25 35.4 20.75 37.1L21.5 38.8L20.75 38.2L19.45 37.1L19.5 36.9M3.6,34.5L3.55 34.5L3.3 34.45L3.2 34.45L3.7 34.15L3.6 34.5M25.7,26.05L25.05 25.4L24.6 25.4L24.75 25.25Q25.25 25.3 25.75 25.8L25.7 26.05M53.85,79.25L54.15 78.6L54.9 79.05Q54.3 78.95 53.8 79.4L53.85 79.25M35.45,169.45Q32.6 168.4 29.4 168.05Q26.85 168.85 24.3 171.2Q21.9 173.5 21.6 175.05L20.3 175L20.3 176.75Q21.15 177.75 22.75 178.8Q23.6 176.9 25.15 175.25Q28.25 172 32.9 172Q35.9 172 40.4 175.05L44.5 178.1Q45.15 178.1 45.4 177.55Q44.35 175.15 41.5 173.6L38.9 172.15Q38.9 170.75 35.45 169.45M1,181.2Q1.4 182.1 2.4 182.1L3.15 181.9L3.25 180.55Q3.25 178.7 2.05 179.15Q0.85 179.6 0.85 180.45L1 181.2M-3.8,26.05L-4.95 28.15L-5.3 27.05Q-4.85 26.45 -4.1 26.15L-3.8 26.05M-5.5,26.5L-5.35 26.05L-5.45 26.65L-5.5 26.5" />
<path style="fill:#FFFFFF;fill-opacity:0.4" d="M95,55Q98.2 55.5 99.85 57.05Q101.1 58.2 101.1 59.65Q101.1 61.05 99.1 62.4Q96.3 64.25 90.95 64.25Q81.9 64.25 81.9 60.25Q81.9 58.75 84.05 56.95Q86.9 54.55 91.35 55.1L91.35 55L95 55" />
<path style="fill:none;stroke-width:2;stroke-linecap:round;stroke-linejoin:miter;stroke-miterlimit:3;stroke:#582903;stroke-opacity:1" d="M71.35,55.85Q71.25 54 71.45 51.7Q71.8 47.05 73.25 44.8Q74.55 42.75 76.8 41.75Q79.75 40.45 83.2 41.7Q86.1 42.75 87.15 45.95M86.55,55.55L87.35 52.35Q87.95 48.6 87.15 45.95" />
<path style="fill:none;stroke-width:2;stroke-linecap:butt;stroke-linejoin:miter;stroke-miterlimit:3;stroke:#582903;stroke-opacity:1" d="M87.15,45.95L89.9 44.55Q93 43.45 94.75 45.05Q97.1 47.2 96.95 51.35Q96.85 53.4 96.3 55.05" />
<path style="fill:#582903;fill-opacity:1" d="M82.25,53.1Q81.9 53.95 80.1 55L79.4 55Q77.3 53.9 77.3 50.85Q77.3 49.55 77.45 49.25Q77.7 48.5 79.05 47.6Q81.6 47.95 82.2 49.15Q82.4 49.5 82.4 51.05L82.25 53.1M92.2,51.85Q91.95 52.5 91.1 52.5Q89.8 52.5 89.3 51.4L89.05 50.3Q89.05 48.55 90.75 48.15Q92.4 47.75 92.4 50.4L92.2 51.85" />
<path style="fill:none;stroke-width:2;stroke-linecap:butt;stroke-linejoin:miter;stroke-miterlimit:3;stroke:#AE4200;stroke-opacity:1" d="M116.75,45.8L116 39.65L112.65 42.5L112.65 38.4L110.35 39.95L109.1 37.35L105.25 37.35L113.3 26.9Q121.65 16.6 123.4 17.4Q125.15 18.2 121.15 32.1L116.75 45.8M76.9,69.55L75.6 67.6M52.45,28.85Q51.05 12.35 53.25 12.05Q55.45 11.75 62.65 24L69.4 36.35L64.55 37.1L60.45 35.05L59.4 40.45L57.1 37.9L54.3 45.3Q53.15 37.1 52.45 28.85M75.55,63.85L76.75 62.15" />
<path style="fill:none;stroke-width:3;stroke-linecap:butt;stroke-linejoin:miter;stroke-miterlimit:3;stroke:#AE4200;stroke-opacity:1" d="M156.2,179.95L158.2 180.35L162.15 180Q164.45 179.1 164.65 176.4Q164.95 172.7 161.9 171.1L158.8 170.25Q159.1 172.1 158.25 174.35L153.6 177.15M7.45,178.7L3.35 177.9Q2.7 177.65 2 177.05L0.6 178.45Q-0.55 180.15 0.55 181.75Q1.7 183.35 5.05 183.1L8.2 182.55L13.35 186.9Q19.15 190.9 22.55 189.2Q25.1 187.9 27 181.5Q28.75 175.7 31 175.6Q34.4 175.45 40.1 180.4Q42.95 182.85 45.1 185.35Q79.75 203.75 117.25 191.25L124.45 184.5Q132.35 177.8 135.7 177.9Q137.75 178 138.75 179.8Q139.35 180.85 139.95 183.9Q141.25 190.25 144.65 191.5Q147.7 192.65 152.5 188.45L156.15 184.65L158.2 186Q160.6 187.05 162.05 185.6Q164.15 183.5 163.35 181.55L162.15 180M159.4,22.25L159.95 18.95Q160.1 15.5 158.05 14.8Q153.35 13.3 151.4 20.2Q150.4 23.75 150.35 30.7Q149 28.2 147.2 26.35Q143.65 22.55 141.4 25.55Q139.15 28.55 143.25 33.15Q145.3 35.4 147.8 37.1Q133.45 70.65 117.65 97.6Q116.3 101.7 115.25 103.4Q111.05 110.2 95 115.55Q80.85 120.25 72.75 119.8Q68.6 119.6 61.95 115.6Q55.95 112 52.8 108.5Q50.45 105.9 44.5 92L39 78.65L39 78.55L20.75 37.1Q23.25 35.4 25.3 33.15Q29.4 28.55 27.15 25.55Q24.9 22.55 21.35 26.35Q19.55 28.2 18.2 30.7Q18.15 23.75 17.15 20.2Q15.2 13.3 10.5 14.8Q8.45 15.5 8.6 18.95Q8.65 20.65 9.15 22.25Q10.75 24.75 11.8 27.1M117.65,97.6Q119 93.5 120.6 87.05L123.45 74.7L128.05 69.35L123.7 67.55L125.75 63.7L123.45 60.9L132.65 57.05Q129.25 52.95 121.15 53.2Q124.85 49.9 128.55 49.35Q125.15 46.95 120.6 47.6Q123.55 39.7 125.65 31.3Q129.9 14.55 125.75 12.25Q121.65 9.95 110.85 22.65L100.9 35.8Q97.55 33.55 96.05 33.5Q95.55 33.5 92.45 35.25Q89.55 36.9 88.1 36.6Q86.85 36.35 84.3 34.2Q81.85 32.15 80.7 32Q79.3 31.85 76.15 33.7L73.25 35.55Q69.6 27.25 64.95 19.45Q55.7 3.85 50.75 6.4Q45.8 8.95 47 27.9Q47.6 37.35 49.2 46.3Q43.7 43.5 38.2 44.55L46.1 51.45Q39.45 49.75 32.8 52.7L40.75 57.05L33.6 59.4L39.7 63.2L35.6 66.8L39.7 69.1L39 78.55M9.15,22.25Q4.65 15.05 1.05 16.65Q-3.15 18.55 -2.1 23.05Q-1.6 25.3 -0.25 27.15Q2.5 29.05 5.15 32.5M-0.25,27.15Q-2.65 25.55 -4.1 26.15Q-6.05 26.9 -6.4 30Q-6.75 33.25 -4.6 35.6Q-1.15 39.35 9.25 45.25L9.85 46.85Q15.1 61.65 24.1 79.1Q34.3 87.6 52.8 120.85Q49.6 130.9 45.45 135.75L40.2 141.2Q39.1 142.2 37.9 143.35Q32.45 149.8 32.45 158.65Q32.5 162.2 33.4 165.65Q33.9 167.35 34.35 168.45Q37.35 169.75 41.05 172.75Q44.55 175.55 47.15 178.45M40.2,141.2Q33.7 136.7 31.8 122.5Q30.8 114.8 31.25 105.25Q31.5 100.6 29.25 96.95Q26.7 92.85 23.6 96.5Q21.25 99.25 19.95 105.65Q18.55 112.6 19.05 120.9Q20.3 142 32.45 158.65M34.35,168.45Q31.75 167.25 29.7 167.4Q26.2 167.65 22.5 171.8Q20.65 173.85 19.5 175.85Q18.75 173.75 17.4 171.65Q14.7 167.4 11.8 167.4Q9.4 167.4 8.1 169.9Q7.05 171.9 6.95 174.35L11.55 177.9M8.1,169.9Q6.8 169.2 5.25 169.1Q2.2 168.9 1.05 171.75Q-0.2 175.05 2 177.05M158.8,170.25Q158.45 167.85 155.95 167.7Q153.05 167.5 149.6 171.15Q147.85 173 146.7 174.85Q146.05 173 144.65 171.1Q141.9 167.3 138.25 167.15Q137.3 167.1 136 167.6" />
<path style="fill:none;stroke-width:2;stroke-linecap:butt;stroke-linejoin:miter;stroke-miterlimit:3;stroke:#582903;stroke-opacity:1" d="M62.75,60.4L59.25 66.75Q57.1 71.55 57.25 74.75Q57.35 76.2 57.9 77.3Q59.8 81 65.85 84.7Q71.65 88.25 78.35 89.65Q86 91.2 92.45 89.35Q103.3 86.2 111 79.4Q116.3 74.7 116.75 72.45L116.75 71.65Q116.45 70.55 114.25 69.6L112.15 68.85M75.6,67.6L75.05 70.15M63,54.25L65.85 54.3Q69.15 54.6 71.35 55.85Q73.4 57.05 74.25 58.85Q75.3 61 75.55 63.85M75.6,67.6L75.55 63.85M57.25,74.75L55.55 76.4Q53.65 78.5 52.75 80.65Q50.7 85.65 51.95 91.5Q53.35 98.05 58.4 97.55Q63.05 97.1 64.9 90.85L65.85 84.7" />
<path style="fill:none;stroke-width:2;stroke-linecap:butt;stroke-linejoin:miter;stroke-miterlimit:3;stroke:#993127;stroke-opacity:1" d="M76.75,62.15Q78.35 60.15 80.45 58.6Q83.3 56.5 86.55 55.55Q91.05 54.2 96.3 55.05Q101.95 55.95 102.95 61.7Q103.95 67.1 100.4 70.9Q98.15 73.35 91.8 74.45Q84.8 75.7 80.9 73.2Q78.65 71.75 76.9 69.55" />
<path style="fill:none;stroke-width:3;stroke-linecap:round;stroke-linejoin:miter;stroke-miterlimit:3;stroke:#AE4200;stroke-opacity:1" d="M117.55,182Q121.25 178.25 125.7 174.5Q132.25 168.95 136 167.6Q136.75 165.95 137.5 163.2Q138.95 157.65 138.8 152.05Q138.6 143.75 129.65 132.45L123.15 124.2Q119.95 119.75 119.3 116.5Q118.65 113.3 129 98.25Q139.05 83.6 144.45 79.1Q153.45 61.65 158.7 46.85L159.3 45.25Q169.7 39.35 173.15 35.6Q175.3 33.25 174.95 30Q174.6 26.9 172.65 26.15Q171.2 25.55 168.8 27.15" />
<path style="fill:none;stroke-width:3;stroke-linecap:butt;stroke-linejoin:miter;stroke-miterlimit:3;stroke:#AE4200;stroke-opacity:1" d="M168.8,27.15Q166.05 29.05 163.4 32.5M168.8,27.15Q170.15 25.3 170.65 23.05Q171.7 18.55 167.5 16.65Q163.9 15.05 159.4 22.25Q157.8 24.75 156.75 27.1" />
<path style="fill:#582903;fill-opacity:1" d="M93,30.6L93.1 30.55L94.7 31L96.35 31.8Q97.9 32.7 98.65 33.55Q100.05 35.1 100.65 36.4Q101.65 37.8 101.65 38.25L101.65 38.6L101.45 38.6L99.7 37.6Q99.3 37.5 99.05 37.2L97.65 36.45L96.4 35.85Q95.2 35.4 93.3 34.55Q91.55 33.85 88.9 33.3L88.85 33.15L89.25 32.7L89.9 32.4L91.85 31.7L91.25 31.2L91.3 31.05L93.35 31.5L93.35 31.4L93.15 31.1L92.95 30.75L93 30.6M81.65,29.9L81.7 30.05L81.45 30.5L81.2 30.9L81.2 31L83.75 30.45L83.85 30.65L83.05 31.3L85.5 32.15L86.35 32.55L86.85 33.1L86.75 33.3Q83.45 33.95 81.25 34.85L77.35 36.5Q76.9 36.65 75.8 37.25L74.05 38.15L73.25 38.7L71.05 39.95L70.8 39.9L70.75 39.5Q70.75 38.9 72 37.15Q72.8 35.55 74.55 33.6Q75.45 32.5 77.45 31.4Q78.2 30.9 79.5 30.4L81.5 29.85L81.65 29.9" />
</g>
</svg>
