<?xml version="1.0" encoding="utf-8"?>
<svg version="1.1" id="Layer_1"
xmlns="http://www.w3.org/2000/svg"
xmlns:xlink="http://www.w3.org/1999/xlink"
xmlns:author="http://www.sothink.com"
width="20px" height="20px"
xml:space="preserve">
<g id="161" transform="matrix(1, 0, 0, 1, 9.65, 9.8)">
<path style="fill:#83679F;fill-opacity:1" d="M-1.95,2.35L1.7 -1.4L7.25 -6.9L9.1 -4.8L-1.05 4.95Q-1.05 3.45 -1.95 2.35M-4.05,5.25Q-4.05 5.8 -4.45 6.2Q-4.8 6.6 -5.35 6.6Q-5.9 6.6 -6.3 6.2Q-6.65 5.8 -6.65 5.25Q-6.65 4.7 -6.3 4.3Q-5.9 3.9 -5.35 3.9Q-4.8 3.9 -4.45 4.3Q-4.05 4.7 -4.05 5.25M-4.7,5.3Q-4.7 4.7 -5.2 4.55Q-5.7 4.4 -5.7 5.1Q-5.7 5.6 -5.15 5.6L-4.75 5.5L-4.7 5.3" />
<path style="fill:#666699;fill-opacity:1" d="M-1.95,2.35Q-1.05 3.45 -1.05 4.95Q-1.05 6.65 -2.25 7.85Q-3.4 9.05 -5.1 9.05Q-6.8 9.05 -8 7.85Q-9.15 6.65 -9.15 4.95Q-9.15 3.25 -8 2.05Q-6.8 0.85 -5.1 0.85L-4.3 0.95Q-3.15 1.15 -2.25 2.05L-1.95 2.35M-4.45,4.3Q-4.8 3.9 -5.35 3.9Q-5.9 3.9 -6.3 4.3Q-6.65 4.7 -6.65 5.25Q-6.65 5.8 -6.3 6.2Q-5.9 6.6 -5.35 6.6Q-4.8 6.6 -4.45 6.2Q-4.05 5.8 -4.05 5.25Q-4.05 4.7 -4.45 4.3M-1.95,4.55Q-1.95 3.7 -2.7 2.8Q-3.8 1.45 -5.85 1.45Q-6.2 1.45 -6.8 1.9L-7.35 2.6L-7.15 2.95L-6.6 3.2L-4.8 2.95Q-3.85 2.95 -3.3 4.3Q-2.7 5.6 -2.4 5.6Q-1.95 5.6 -1.95 4.55" />
<path style="fill:#B197CB;fill-opacity:1" d="M-2.25,2.05Q-3.15 1.15 -4.3 0.95L5.25 -9.1L7.25 -6.9L1.7 -1.4L-1.95 2.35L-2.25 2.05" />
<path style="fill:#A0A0D0;fill-opacity:1" d="M-4.75,5.5L-5.15 5.6Q-5.7 5.6 -5.7 5.1Q-5.7 4.4 -5.2 4.55Q-4.7 4.7 -4.7 5.3L-4.75 5.5M-2.4,5.6Q-2.7 5.6 -3.3 4.3Q-3.85 2.95 -4.8 2.95L-6.6 3.2L-7.15 2.95L-7.35 2.6L-6.8 1.9Q-6.2 1.45 -5.85 1.45Q-3.8 1.45 -2.7 2.8Q-1.95 3.7 -1.95 4.55Q-1.95 5.6 -2.4 5.6" />
<path style="fill:none;stroke-width:1;stroke-linecap:butt;stroke-linejoin:miter;stroke-miterlimit:3;stroke:#483957;stroke-opacity:1" d="M-4.3,0.95Q-3.15 1.15 -2.25 2.05L-1.95 2.35Q-1.05 3.45 -1.05 4.95L9.1 -4.8L7.25 -6.9M-1.05,4.95Q-1.05 6.65 -2.25 7.85Q-3.4 9.05 -5.1 9.05Q-6.8 9.05 -8 7.85Q-9.15 6.65 -9.15 4.95Q-9.15 3.25 -8 2.05Q-6.8 0.85 -5.1 0.85L-4.3 0.95L5.25 -9.1L7.25 -6.9M-4.05,5.25Q-4.05 5.8 -4.45 6.2Q-4.8 6.6 -5.35 6.6Q-5.9 6.6 -6.3 6.2Q-6.65 5.8 -6.65 5.25Q-6.65 4.7 -6.3 4.3Q-5.9 3.9 -5.35 3.9Q-4.8 3.9 -4.45 4.3Q-4.05 4.7 -4.05 5.25" />
</g>
</svg>
