<?xml version="1.0" encoding="utf-8"?>
<svg version="1.1" id="Layer_1"
xmlns="http://www.w3.org/2000/svg"
xmlns:xlink="http://www.w3.org/1999/xlink"
xmlns:author="http://www.sothink.com"
width="31px" height="31px"
xml:space="preserve">
<g id="282" transform="matrix(1, 0, 0, 1, 15.2, 15.2)">
<path style="fill:#000000;fill-opacity:0.00392157" d="M2.45,-8.55L-2.55 -8.55Q-3.95 -8.55 -3.95 -7.15L-3.95 -4.2L-7.15 -4.2Q-8.55 -4.2 -8.55 -2.8L-8.55 2.2Q-8.55 3.65 -7.15 3.65L-3.95 3.65L-3.95 7.05Q-3.95 8.5 -2.55 8.5L2.45 8.5Q3.9 8.5 3.9 7.05L3.9 3.65L7.05 3.65Q8.5 3.65 8.5 2.2L8.5 -2.8Q8.5 -4.2 7.05 -4.2L3.9 -4.2L3.9 -7.15Q3.9 -8.55 2.45 -8.55M14.2,-11.15L14.2 11.1Q14.2 14.15 11.1 14.15L-11.15 14.15Q-14.2 14.15 -14.2 11.1L-14.2 -11.15Q-14.2 -14.2 -11.15 -14.2L11.1 -14.2Q14.2 -14.2 14.2 -11.15" />
<path style="fill:#61B110;fill-opacity:1" d="M3.1,-7.15L3.1 -3.8L3.2 -3.55Q3.35 -3.4 3.5 -3.4L7.05 -3.4Q7.7 -3.4 7.7 -2.8L7.7 2.2Q7.7 2.85 7.05 2.85L3.5 2.85L3.2 2.95L3.1 3.25L3.1 7.05Q3.1 7.7 2.45 7.7L-2.55 7.7Q-3.15 7.7 -3.15 7.05L-3.15 3.25L-3.3 2.95L-3.55 2.85L-7.15 2.85Q-7.75 2.85 -7.75 2.2L-7.75 -2.8Q-7.75 -3.4 -7.15 -3.4L-3.55 -3.4Q-3.4 -3.4 -3.3 -3.55L-3.15 -3.8L-3.15 -7.15Q-3.15 -7.8 -2.55 -7.8L2.45 -7.8Q3.1 -7.8 3.1 -7.15" />
<path style="fill:#66CC00;fill-opacity:1" d="M3.9,-7.15L3.9 -4.2L7.05 -4.2Q8.5 -4.2 8.5 -2.8L8.5 2.2Q8.5 3.65 7.05 3.65L3.9 3.65L3.9 7.05Q3.9 8.5 2.45 8.5L-2.55 8.5Q-3.95 8.5 -3.95 7.05L-3.95 3.65L-7.15 3.65Q-8.55 3.65 -8.55 2.2L-8.55 -2.8Q-8.55 -4.2 -7.15 -4.2L-3.95 -4.2L-3.95 -7.15Q-3.95 -8.55 -2.55 -8.55L2.45 -8.55Q3.9 -8.55 3.9 -7.15M2.45,-7.8L-2.55 -7.8Q-3.15 -7.8 -3.15 -7.15L-3.15 -3.8L-3.3 -3.55Q-3.4 -3.4 -3.55 -3.4L-7.15 -3.4Q-7.75 -3.4 -7.75 -2.8L-7.75 2.2Q-7.75 2.85 -7.15 2.85L-3.55 2.85L-3.3 2.95L-3.15 3.25L-3.15 7.05Q-3.15 7.7 -2.55 7.7L2.45 7.7Q3.1 7.7 3.1 7.05L3.1 3.25L3.2 2.95L3.5 2.85L7.05 2.85Q7.7 2.85 7.7 2.2L7.7 -2.8Q7.7 -3.4 7.05 -3.4L3.5 -3.4Q3.35 -3.4 3.2 -3.55L3.1 -3.8L3.1 -7.15Q3.1 -7.8 2.45 -7.8M11.1,-14.2L-11.15 -14.2Q-14.2 -14.2 -14.2 -11.15L-14.2 11.1Q-14.2 14.15 -11.15 14.15L11.1 14.15Q14.2 14.15 14.2 11.1L14.2 -11.15Q14.2 -14.2 11.1 -14.2M15.2,-11.15L15.2 11.1Q15.2 15.15 11.1 15.15L-11.15 15.15Q-15.2 15.15 -15.2 11.1L-15.2 -11.15Q-15.2 -15.2 -11.15 -15.2L11.1 -15.2Q15.2 -15.2 15.2 -11.15" />
</g>
</svg>
