<?xml version="1.0" encoding="utf-8"?>
<svg version="1.1" id="Layer_1"
xmlns="http://www.w3.org/2000/svg"
xmlns:xlink="http://www.w3.org/1999/xlink"
xmlns:author="http://www.sothink.com"
width="32px" height="32px"
xml:space="preserve">
<g id="114" transform="matrix(1, 0, 0, 1, 15.95, 15.95)">
<path style="fill:#A4C2E0;fill-opacity:1" d="M4.4,5.55L5.5 4.6L6.05 4L6.2 5.4Q6.2 7.85 4.55 9.3Q3.1 10.65 0.9 10.7L0.65 10.7L-1.35 10.5L-1.45 10.45Q-3.95 9.9 -6.25 7.95Q-9.5 5.2 -9.85 1.45L-9.9 0.55L-9.8 -1.7Q-9.45 -2.85 -7.95 -3.45L-6.8 -3.45Q-7.5 -2 -7.5 -0.3L-7.35 1.2Q-6.95 3.3 -5.35 4.9Q-3.15 7.1 -0.1 7.1Q2.45 7.1 4.4 5.55M10.9,-1.05L10.1 -4.05Q7.95 -8.4 6.25 -9.9Q4.15 -11.8 0.7 -12.1L-0.6 -12.15L-1.75 -12.05L-4.95 -11.15Q-7.7 -10.2 -8.5 -10.2Q-9.8 -10.2 -10.7 -11.15Q-6.25 -15.45 0 -15.45Q6.4 -15.45 10.9 -10.95Q15.45 -6.4 15.45 0Q15.45 4.3 13.4 7.8Q11.8 6.4 11.3 3.75L11.15 1.15L10.9 -1.05" />
<path style="fill:#8CAAC9;fill-opacity:1" d="M0.9,10.7Q3.1 10.65 4.55 9.3Q6.2 7.85 6.2 5.4L6.05 4Q7.7 2.05 7.7 -0.6Q7.7 -3.65 5.5 -5.85Q3.35 -8 0.3 -8Q-2.35 -8 -4.3 -6.4L-5.35 -5.55L-6.8 -3.45L-7.95 -3.45Q-9.45 -2.85 -9.8 -1.7L-9.9 0.55L-9.85 1.45Q-9.5 5.2 -6.25 7.95Q-3.95 9.9 -1.45 10.45L-1.35 10.5L0.65 10.7L0.9 10.7M-10.7,-11.15Q-9.8 -10.2 -8.5 -10.2Q-7.7 -10.2 -4.95 -11.15L-1.75 -12.05L-0.6 -12.15L0.7 -12.1Q4.15 -11.8 6.25 -9.9Q7.95 -8.4 10.1 -4.05L10.9 -1.05L11.15 1.15L11.3 3.75Q11.8 6.4 13.4 7.8Q12.4 9.45 10.9 10.9Q6.4 15.45 0 15.45Q-6.4 15.45 -10.95 10.9Q-15.45 6.4 -15.45 0Q-15.45 -6.4 -10.95 -10.95L-10.7 -11.15" />
<path style="fill:#232121;fill-opacity:1" d="M-0.1,7.1Q-3.15 7.1 -5.35 4.9Q-6.95 3.3 -7.35 1.2L-7.5 -0.3Q-7.5 -2 -6.8 -3.45L-5.35 -5.55L-4.3 -6.4Q-2.45 -7.7 -0.1 -7.7Q2.95 -7.7 5.1 -5.55Q7.3 -3.35 7.3 -0.3Q7.3 2.05 6.05 3.85L5.1 4.9L4.4 5.55Q2.45 7.1 -0.1 7.1" />
<path style="fill:none;stroke-width:1;stroke-linecap:butt;stroke-linejoin:miter;stroke-miterlimit:3;stroke:#34495F;stroke-opacity:1" d="M-6.8,-3.45L-5.35 -5.55L-4.3 -6.4Q-2.45 -7.7 -0.1 -7.7Q2.95 -7.7 5.1 -5.55Q7.3 -3.35 7.3 -0.3Q7.3 2.05 6.05 3.85L5.1 4.9L4.4 5.55M0.9,10.7Q0.85 12.2 -0.4 12.2Q-0.8 12.2 -1.1 11.85L-1.4 10.8L-1.35 10.5M-1.75,-12.05L-1.8 -11.8Q-1.8 -10.6 -0.85 -10.6Q-0.15 -10.6 0.25 -10.95Q0.7 -11.3 0.7 -11.9L0.7 -12.1M-1.75,-12.05L-1.7 -12.4L-1.3 -12.8L-0.95 -13.05L-0.5 -13.05L0.4 -12.85L0.7 -12.1M10.9,-1.05L11.25 -1.15Q12.35 -1.15 12.35 -0.2Q12.35 1.15 11.15 1.15M13.4,7.8Q15.45 4.3 15.45 0Q15.45 -6.4 10.9 -10.95Q6.4 -15.45 0 -15.45Q-6.25 -15.45 -10.7 -11.15M10.9,-1.05L10.45 -0.8L10.05 -0.3L9.95 0.25L9.95 0.35L10.3 0.9L11.1 1.15L11.15 1.15M13.4,7.8Q12.4 9.45 10.9 10.9Q6.4 15.45 0 15.45Q-6.4 15.45 -10.95 10.9Q-15.45 6.4 -15.45 0Q-15.45 -6.4 -10.95 -10.95L-10.7 -11.15M0.9,10.7L0.9 10.6Q0.9 9.65 0 9.65L-0.55 9.7L-1.45 10.45M10.05,-0.3Q9.85 -0.05 9.95 0.35M-11.8,-1.75L-12.4 -1.7L-12.8 -0.95L-13 -0.6L-13.05 -0.5Q-13.05 0.55 -11.9 0.55Q-11.4 0.55 -10.9 0.05Q-10.4 -0.45 -10.4 -0.85Q-10.4 -1.75 -11.8 -1.75M-6.8,-3.45Q-7.5 -2 -7.5 -0.3L-7.35 1.2Q-6.95 3.3 -5.35 4.9Q-3.15 7.1 -0.1 7.1Q2.45 7.1 4.4 5.55" />
</g>
</svg>
