<?xml version="1.0" encoding="utf-8"?>
<svg version="1.1" id="Layer_1"
xmlns="http://www.w3.org/2000/svg"
xmlns:xlink="http://www.w3.org/1999/xlink"
xmlns:author="http://www.sothink.com"
width="50px" height="50px"
xml:space="preserve">
<g id="293" transform="matrix(1, 0, 0, 1, 24.6, 24.6)">
<path style="fill:#66CC00;fill-opacity:1" d="M24.6,-19.45L24.6 19.45Q24.6 24.6 19.45 24.6L-19.45 24.6Q-24.6 24.6 -24.6 19.45L-24.6 -19.45Q-24.6 -24.6 -19.45 -24.6L19.45 -24.6Q24.6 -24.6 24.6 -19.45M19.45,-23.6L-19.45 -23.6Q-23.6 -23.6 -23.6 -19.45L-23.6 19.45Q-23.6 23.6 -19.45 23.6L19.45 23.6Q23.6 23.6 23.6 19.45L23.6 -19.45Q23.6 -23.6 19.45 -23.6" />
<path style="fill:#52980C;fill-opacity:1" d="M-14.6,-1.75L-14.6 -4L-20.65 -3.75L-20.45 7.65L-14.55 7.6L-14.55 5.65L-11.1 5.65L-11.1 7.55L14.85 7.1L14.85 7Q16.65 6.75 17.8 6Q19.55 4.75 19.8 2.2L19.85 1Q19.3 -4.35 14.85 -4.3L14.85 -4.6L-11.15 -4.1L-11.1 -1.75L-14.6 -1.75M23.6,-19.45L23.6 19.45Q23.6 23.6 19.45 23.6L-19.45 23.6Q-23.6 23.6 -23.6 19.45L-23.6 -19.45Q-23.6 -23.6 -19.45 -23.6L19.45 -23.6Q23.6 -23.6 23.6 -19.45" />
<path style="fill:none;stroke-width:1;stroke-linecap:butt;stroke-linejoin:miter;stroke-miterlimit:3;stroke:#66CC00;stroke-opacity:1" d="M14.85,-4.3L14.85 -4.6L-11.15 -4.1L-11.1 -1.75L-11.1 5.65L-11.1 7.55L14.85 7.1L14.85 7L14.85 -4.3Q19.3 -4.35 19.85 1L19.8 2.2Q19.55 4.75 17.8 6Q16.65 6.75 14.85 7M-11.1,5.65L-14.55 5.65L-14.55 7.6L-20.45 7.65L-20.65 -3.75L-14.6 -4L-14.6 -1.75L-11.1 -1.75M-14.55,5.65L-14.6 -1.75" />
</g>
</svg>
