<?xml version="1.0" encoding="utf-8"?>
<svg version="1.1" id="Layer_1"
xmlns="http://www.w3.org/2000/svg"
xmlns:xlink="http://www.w3.org/1999/xlink"
xmlns:author="http://www.sothink.com"
width="29px" height="27px"
xml:space="preserve">
<g id="182" transform="matrix(1, 0, 0, 1, 14.5, 12.4)">
<path style="fill:#6E6E98;fill-opacity:1" d="M5.25,-1.45Q4.55 -0.85 3.9 0.35L3.4 1.5Q2.05 1.9 0.3 3.5Q-1.05 4.75 -1.65 5.8Q-2.05 6.55 -2.05 7.2Q-2.05 8.05 -1.35 9.05L-1.05 9.4L-2.15 9.5L-6.8 10L-6.85 3.35L-10.05 4.55Q-10.9 4.55 -12.5 1.9L-13.6 -0.2L-13.15 -0.2Q-11.3 -0.2 -2.3 -3.25L5.25 -5.75L7.1 -6.3Q9.3 -6.3 10.45 -4.7L10.8 -4.2Q9.3 -3.4 6.05 -1.95L5.95 -1.95L5.25 -1.45M-0.2,11.85L2.85 11.8L9.2 12.35L13.95 12.85L13.95 13.25L-13.1 13.3L-13.05 12.55L-0.2 11.85" />
<path style="fill:#8C8CB6;fill-opacity:1" d="M10.8,-4.2L10.45 -4.7Q9.3 -6.3 7.1 -6.3L5.25 -5.75L-2.3 -3.25Q-11.3 -0.2 -13.15 -0.2L-13.6 -0.2L-14 -1.7Q-14 -2.75 -8.75 -4.45Q-5.55 -6.25 0.9 -9L5.25 -10.8L8.5 -11.85L10.25 -8.8L12 -5.15Q12 -4.9 10.8 -4.2M13.95,12.85L9.2 12.35L2.85 11.8L-0.2 11.85L-13.05 12.55Q-12.7 10.65 -11.35 10.25L-6.8 10L-2.15 9.5L-1.05 9.4L-1.35 9.05Q-2.05 8.05 -2.05 7.2Q-2.05 6.55 -1.65 5.8Q-1.05 4.75 0.3 3.5Q2.05 1.9 3.4 1.5Q3.05 2.45 3.05 3.35Q3.05 4.65 3.85 5.8L4.75 6.8Q6.75 8.25 7.55 9.05L8.25 9.1Q12.7 9.45 13.95 11.55L13.95 12.85" />
<path style="fill:none;stroke-width:1;stroke-linecap:butt;stroke-linejoin:miter;stroke-miterlimit:3;stroke:#585454;stroke-opacity:1" d="M-13.6,-0.2L-12.5 1.9Q-10.9 4.55 -10.05 4.55L-6.85 3.35L1 0.15L5.25 -1.65L5.95 -1.95L6.05 -1.95Q9.3 -3.4 10.8 -4.2M-6.85,3.35L-6.8 10L-2.15 9.5L-1.05 9.4L2.5 9.15L2.75 9.15Q5.5 8.95 7.55 9.05M3.4,1.5L3.9 0.35Q4.55 -0.85 5.25 -1.45L5.95 -1.95M-13.6,-0.2L-14 -1.7Q-14 -2.75 -8.75 -4.45Q-5.55 -6.25 0.9 -9L5.25 -10.8L8.5 -11.85L10.25 -8.8L12 -5.15Q12 -4.9 10.8 -4.2M3.4,1.5Q3.05 2.45 3.05 3.35Q3.05 4.65 3.85 5.8L4.75 6.8Q6.75 8.25 7.55 9.05L8.25 9.1Q12.7 9.45 13.95 11.55L13.95 12.85L13.95 13.25L-13.1 13.3L-13.05 12.55Q-12.7 10.65 -11.35 10.25L-6.8 10" />
</g>
</svg>
