<?xml version="1.0" encoding="utf-8"?>
<svg version="1.1" id="Layer_1"
xmlns="http://www.w3.org/2000/svg"
xmlns:xlink="http://www.w3.org/1999/xlink"
xmlns:author="http://www.sothink.com"
width="191px" height="144px"
xml:space="preserve">
<g id="298" transform="matrix(1, 0, 0, 1, 87.75, 93.1)">
<path style="fill:#669900;fill-opacity:1" d="M39.2,-41.25Q37.2 -41.25 36.55 -42.55Q36.1 -43.55 36.1 -46.3L35.4 -54.4L35.4 -55Q35.55 -57.25 36.55 -58.15Q37.55 -59.1 40.2 -59.1L41.4 -58.8L41.4 -58.95Q42 -65.25 46.85 -64.85L66.65 -63.7L82.1 -63.1L84.15 -63.1Q85.4 -62.4 86.25 -60.4L86.3 -60.3L87.1 -60.4Q90.1 -60.4 90.8 -58L90.95 -57.15L93 -57.15Q95.45 -56.6 95.8 -56Q96 -55.7 96 -53.1L95.95 -48.7L95.7 -45Q95.6 -44 93.8 -43.3L90.6 -43.1L90.6 -43.25Q89.85 -40.7 87.8 -40.7Q86 -40.7 85.65 -41.4Q84.25 -39.55 81.7 -39L72.3 -37.8L71 -44.1L70.5 -47.4L69.15 -54.3Q68.4 -57.7 67.85 -58.4Q67 -59.4 62.85 -59.75L57 -60Q50.5 -60 49.1 -57.4L49 -57.15L48.95 -56.85L47.35 -52.15L46.8 -50.8L45.2 -47L44.2 -45L42.2 -40.4Q42 -40.85 41.95 -41.4L39.2 -41.25M54,-52.25L54.15 -52.3L54.25 -52.4L55.95 -53.55Q57 -54.1 58 -54.1Q60.25 -54.1 61.7 -52.7Q63.3 -51.25 63.3 -48.7L63.25 -47.4Q63 -46 62.15 -45.15L61.1 -44.4Q59.85 -43.85 58.1 -43.85Q56 -43.85 54.55 -44.8Q53.65 -45.3 53.15 -46.15L53 -46.45Q52.65 -47.25 52.55 -48.25L52.55 -48.7Q52.55 -49.45 52.85 -50.25L52.95 -50.55L53.5 -51.55L53.55 -51.7L53.95 -52.1L54 -52.25M-33.9,6.2L-33.9 5.45L-33.8 1.65L-33.8 0.65Q-33.55 -3.25 -32.25 -4.4L-27.55 -4.35Q-26.95 -8.1 -24.65 -8.5L-22.35 -8.5L-18.4 -8.65L-18.25 -8.65L-18.2 -8.65L-18.2 -8.8L-18.2 -8.95L-18.2 -9.25L-18.25 -10.85L-18.25 -11.4L-13.2 -11.65L-8.75 -11.8L-8.6 -9.1L-8.2 -9.15Q-2.5 -9.55 5.65 -9.25L9.1 -9.25L9.1 -9.65L9.35 -12.8L18.95 -12.4L19.05 -9.95L19.05 -9.65L19.5 -9.7L21.4 -9.65L27.1 -9.8L32.1 -10Q36.55 -8.65 37.2 -4.35L37.2 -4.1L37.25 5.5L37.25 16.75Q37.95 21.8 33.1 23.45L27.2 23.3L21.95 23.2L19.8 23.35L19.05 23.35L19.05 23.5L18.9 29.95L9.5 30.1Q9.2 26.05 9.35 23.65L9.35 23.5L9.35 23.3L-8.2 23.05L-8.8 22.95L-9.2 22.95L-9.25 31.1L-13.75 31.2L-17.25 31.1L-18.65 31.1Q-18.95 26.95 -18.65 23.3L-18.65 23.2L-19.05 23.2L-19.95 23.2Q-22.95 23.2 -24.8 22.1Q-26.8 20.95 -27.5 18.65L-27.9 16.9L-27.9 17.15Q-32.4 18.65 -33.5 14.35L-33.8 10.6L-33.9 6.65L-33.9 6.2M-49.1,-0.1L-49.5 -0.1L-54.95 0.3L-56.65 0.45L-60.1 0.9L-63.8 1.2L-63.85 -9L-68.8 -7.15Q-70 -7.15 -72.15 -10.7L-75.95 -9L-79 -17L-76.3 -18.4L-77.3 -20.8L-80.25 -19.55L-81.25 -21.95L-78.3 -23.15L-79.1 -25.1L-81.7 -24L-85.1 -32.85L-79.5 -35.3L-74.3 -31.15L-64 -35.3L-65.7 -40.45L-64 -41.15L-61.8 -42.1L-60.1 -40.95L-56.55 -38.4L-46.35 -42.55L-46.05 -42.45Q-41.4 -43.95 -36.65 -41.85Q-35.25 -41.3 -33.9 -40.4L-34.2 -38.85Q-35.5 -34 -39.65 -31.4L-41.25 -30.7L-41.2 -30.55L-39.65 -31.4L-37.55 -27.7Q-35.4 -23.8 -34.95 -22.55L-34.9 -22.1Q-34.9 -21.85 -35.65 -21.3L-35.8 -21.15L-36.7 -20.65Q-39.05 -19.4 -44.05 -17.15L-44.2 -17.15L-44.25 -17.1L-45.25 -16.4Q-46.35 -15.5 -47.35 -13.65L-48.1 -11.85Q-48.65 -10.4 -48.65 -9Q-48.65 -7 -47.4 -5.25L-46.05 -3.7Q-42.95 -1.5 -41.7 -0.25L-49.1 -0.1M-27.9,-2.85L-27.9 -2.1L-27.8 -2.85L-27.9 -2.85" />
<path style="fill:none;stroke-width:1;stroke-linecap:butt;stroke-linejoin:miter;stroke-miterlimit:3;stroke:#66CC00;stroke-opacity:1" d="M22.2,-78Q22.2 -78.15 20.2 -79.15L17.5 -80.4L17.2 -79.75L17.05 -78.3L16.9 -77.15Q16.9 -75.6 18.2 -75.55L21.65 -75Q22.2 -76.1 22.2 -78M1.2,-76.75L1.2 -79.25L1.1 -81.75Q1.05 -82.7 -0.35 -82.75L-2.8 -83.05L-5.05 -83.3L-5.2 -77.75L-2.8 -77.25L-1.2 -77L0.75 -76.75L1.2 -76.75M8.8,-77L13.35 -76.6L13.9 -76.6L14.4 -81.45L10.8 -82.55L7.9 -82.85L7.75 -78.55L7.8 -77.15L8.8 -77M5.1,-30.95Q6.4 -30.95 7.05 -29Q7.5 -27.65 7.5 -26.1Q7.5 -25.15 6.8 -25L5.35 -25Q2.05 -25 2.5 -25.5Q2.5 -27.85 2.75 -28.7Q3.25 -30.95 5.1 -30.95M76.65,-7.65L78.4 -7.35L79 -6.95Q79.65 -6.25 79.65 -4.1Q79.65 -1.8 78.65 0.15Q77.25 2.8 74.4 2.8Q73.3 2.8 72.65 2.15Q71.95 1.35 71.95 0.15L72.1 -1.25Q72.3 -3 73.4 -4.7L73.7 -5.15L74.15 -5.7Q74.7 -6.5 75.3 -6.8L76.25 -7.5L76.65 -7.65M37.25,5.5L37.25 16.75Q37.95 21.8 33.1 23.45L27.2 23.3M19.05,23.35L19.05 23.5L18.9 29.95L9.5 30.1Q9.2 26.05 9.35 23.65L9.35 23.5L9.35 23.3L-8.2 23.05L-8.8 22.95L-9.2 22.95L-9.25 31.1L-13.75 31.2L-17.25 31.1L-18.65 31.1Q-18.95 26.95 -18.65 23.3L-18.65 23.2L-19.05 23.2L-19.95 23.2Q-22.95 23.2 -24.8 22.1Q-26.8 20.95 -27.5 18.65L-29.8 18.5L-40.65 17.95L-59.5 18.6L-66.4 18.2Q-73.65 17.9 -77.3 18.3L-81 18.35M9.35,23.3Q9.05 18.3 9.1 14.05L9.05 1.8Q8.95 -5.65 9.1 -9.25M9.35,23.5L19.05 23.5M4.05,-52L-5.65 -52.1L-11.1 -52.45M-39.65,-31.4L-41.2 -30.55L-41.25 -30.7L-46.05 -42.45L-46.35 -42.55L-56.55 -38.4L-64 -35.3M-63.85,-9L-60.7 -10.25L-51.8 -13.95L-45.25 -16.7L-44.25 -17.1L-44.2 -17.15L-44.05 -17.15Q-39.05 -19.4 -36.7 -20.65L-35.8 -21.15L-35.65 -21.3Q-34.9 -21.85 -34.9 -22.1L-34.95 -22.55Q-35.4 -23.8 -37.55 -27.7L-39.65 -31.4Q-35.5 -34 -34.2 -38.85L-33.9 -40.4Q-35.25 -41.3 -36.65 -41.85Q-41.4 -43.95 -46.05 -42.45L-46.1 -42.6L-46.35 -42.55M-56.55,-38.4L-60.1 -40.95M-41.2,-30.55L-51.95 -26.15L-53.35 -19.85L-56.8 -18.15L-59.2 -23.25L-68.1 -19.55L-69.5 -11.95L-72.15 -10.7M-79.1,-25.1L-80.55 -28.65L-74.3 -31.15M-76.3,-18.4L-75.65 -16.55L-68.1 -19.55M-78.3,-23.15L-71.1 -26.1L-70.1 -23.7L-77.3 -20.8M-44.25,-17.1L-45.25 -16.4Q-46.35 -15.5 -47.35 -13.65L-48.1 -11.85Q-48.65 -10.4 -48.65 -9Q-48.65 -7 -47.4 -5.25L-46.05 -3.7Q-42.95 -1.5 -41.7 -0.25L-40.65 -0.2L-39.65 -0.1L-39.55 -0.8L-38.2 -11.55Q-37.1 -17.7 -36.1 -20.4L-35.8 -21.15M-63.8,1.2L-60.1 0.9L-56.65 0.45L-54.95 0.3L-49.5 -0.1L-49.1 -0.1L-41.7 -0.25M-51.95,-26.15L-59.2 -23.25M-5.4,-31.7Q-3.9 -31.7 -3.25 -30.85Q-2.9 -30.3 -2.2 -27.7L-2.2 -25.65L-8.35 -25.85L-8.1 -29.55Q-7.65 -31.7 -5.4 -31.7M-36.65,-41.85L-27.1 -44.85M-34.95,-22.55Q-33.05 -24.55 -26.7 -24.55L-24.9 -24.4L-20.75 -24.1M-27.9,-2.1L-27.9 -2.85L-27.8 -2.85L-27.9 -2.1L-27.9 -0.85L-28.05 0.05L-28.35 3L-28.25 5.45L-28.25 6.05L-28.1 8.9L-28.05 10.35L-27.95 14.95L-27.9 16.9L-27.5 18.65M-27.8,-2.85L-27.55 -4.35M-8.6,-9.1Q-8.9 -5.95 -8.75 0.15L-8.75 0.6L-8.75 1.45L-8.75 2.75M-18.2,-8.65L-18.2 4.65Q-18.2 13.3 -18.5 16.75L-18.65 22.75L-13.05 22.9L-12.1 22.8L-9.2 22.95L-8.9 12.65L-8.75 6.65M-18.65,23.2L-18.65 22.75M-27.9,16.9L-27.9 17.15Q-32.4 18.65 -33.5 14.35L-33.8 10.6L-33.9 6.65L-33.9 6.2L-33.9 5.45L-33.8 1.65Q-35.95 0.35 -39.65 -0.1M-40.2,6.35L-34.05 6.2L-40.2 6.2L-40.2 6.35L-59 6.75L-59.55 6.75M-33.9,6.2L-34.05 6.2M-59.65,6.3L-40.2 6.2" />
<path style="fill:none;stroke-width:1;stroke-linecap:round;stroke-linejoin:miter;stroke-miterlimit:3;stroke:#66CC00;stroke-opacity:1" d="M86.3,-60.3L86.25 -60.4Q85.4 -62.4 84.15 -63.1L82.1 -63.1L66.65 -63.7L46.85 -64.85Q42 -65.25 41.4 -58.95L41.4 -58.8L41.25 -56.85L41.25 -55.3L41.35 -49.7Q41.4 -44.7 41.65 -43L41.95 -41.4Q42 -40.85 42.2 -40.4L44.2 -45L45.2 -47L46.8 -50.8L47.35 -52.15L48.95 -56.85L49 -57.15L49.1 -57.4Q50.5 -60 57 -60L62.85 -59.75Q67 -59.4 67.85 -58.4Q68.4 -57.7 69.15 -54.3L70.5 -47.4L71 -44.1L72.3 -37.8L81.7 -39Q84.25 -39.55 85.65 -41.4L86.65 -44.1L86.85 -46.1L86.95 -53.4L87 -56.1L87 -57.4L86.4 -60.15L86.3 -60.3L87.1 -60.4Q90.1 -60.4 90.8 -58L90.95 -57.15L93 -57.15Q95.45 -56.6 95.8 -56Q96 -55.7 96 -53.1L95.95 -48.7L95.7 -45Q95.6 -44 93.8 -43.3L90.6 -43.1L90.6 -43.25Q89.85 -40.7 87.8 -40.7Q86 -40.7 85.65 -41.4M55.95,-53.55L54.25 -52.4M55.95,-53.55L55.95 -53.6Q54.95 -53.25 54.25 -52.4M2.5,-67.45Q2.2 -72.9 2.4 -74L-1.35 -74.55L-2.5 -74.7L-3.25 -74.75L-7.35 -75.25Q-8.2 -75.25 -8.05 -79.05L-7.9 -84.75L-5.75 -85.45L-5.6 -85.55L-2.8 -86.3L2.4 -86.85Q3.4 -87 3.4 -88.6L3.35 -91.3Q3.9 -92.4 5.2 -92.6L7.5 -92.6Q7.8 -91.3 7.2 -87.45Q11.4 -86.85 18.05 -83.55Q22.25 -81.4 24.05 -80Q25.25 -79.05 25.25 -78.45Q25.25 -74.45 24.25 -73.15Q23.55 -72.25 21.9 -72.25L21.1 -72.3L17.8 -72.85L15.55 -73.25Q11.4 -73.75 7.5 -73.25Q7.5 -68.85 7.2 -66.9L8.5 -66.75Q12.75 -66.15 17.95 -66.6Q23.4 -67.1 25.8 -62.7Q27.5 -59.6 27.5 -55.7Q27.5 -51.8 26.85 -51.4L24.65 -51.15L24.25 -51.15Q24.1 -46.3 24.4 -42.3L24.5 -41.85L24.8 -35.1Q28.25 -34.1 28.25 -29.3Q28.25 -25.25 27.85 -21.7L29.2 -21.85L35.35 -21.8Q37.05 -25.85 38.8 -31.15L40.95 -37.25L42.2 -40.4M2.5,-67.45L7.2 -66.9M24.25,-51.15L21.5 -51.25L13.75 -51.7L4.05 -52L3.95 -46.4L3.95 -44.15L3.65 -42.15L11.35 -41.1Q16.8 -40.55 19.7 -41.15L24.5 -41.85M41.4,-58.8L40.2 -59.1Q37.55 -59.1 36.55 -58.15Q35.55 -57.25 35.4 -55L35.4 -54.4L36.1 -46.3Q36.1 -43.55 36.55 -42.55Q37.2 -41.25 39.2 -41.25L41.95 -41.4M19.05,-9.65L19.05 -9.95L19.7 -12.7Q20.35 -15.4 21.8 -17.4L22.8 -18.7L23.7 -19.55Q25.55 -21.25 27.85 -21.7M35.35,-21.8L39.5 -21.55L48 -21Q57.55 -21.4 62.15 -20.7L62.5 -21L63.95 -22.1L64.65 -22.5Q66.55 -23.8 68.85 -24.65L71.55 -25.55L74.65 -26.25L72.3 -37.8M37.2,-4.35L37.2 -4.1L37.25 5.5Q47.55 5.35 53.1 4.15Q57 3.2 60.7 -1.2L65.85 -7.95Q71.3 -13.95 82.7 -16.7L93.1 -17.1L94.95 -17L100.75 -17.65L102.55 -18.3L102.55 -21.4Q102.25 -22.25 101.85 -26.85Q101.7 -28.45 98.45 -28.45L89.6 -27.85L80.3 -27.1L74.65 -26.25M37.2,-4.35L41.8 -4.55Q45.95 -5 48.95 -6.35L50.7 -7.25Q54.25 -9.4 57.5 -14.35L58.7 -16.15Q61 -19.65 62.15 -20.7M90.6,-43.25L90.95 -44.6L91.1 -48.3L91.1 -51.45L91.1 -53.7L90.95 -57.15" />
<path style="fill:none;stroke-width:1;stroke-linecap:round;stroke-linejoin:miter;stroke-miterlimit:3;stroke:#66CC00;stroke-opacity:1" d="M53.95,-52.1L53.55 -51.7L53.5 -51.55L52.95 -50.55L52.85 -50.25Q52.55 -49.45 52.55 -48.7L52.55 -48.25Q52.65 -47.25 53 -46.45L53.15 -46.15Q53.65 -45.3 54.55 -44.8Q56 -43.85 58.1 -43.85Q59.85 -43.85 61.1 -44.4L62.15 -45.15Q63 -46 63.25 -47.4L63.3 -48.7Q63.3 -51.25 61.7 -52.7Q60.25 -54.1 58 -54.1Q57 -54.1 55.95 -53.55M-64,-41.15L-64.4 -47.25L-64.4 -47.6Q-64.25 -51.85 -60.4 -53Q-54.65 -53.95 -51.1 -55.55Q-36.55 -59 -34.35 -59Q-32.55 -59 -29.2 -50.45L-27.1 -44.85Q-24.35 -36.8 -20.75 -24.1L-18.4 -24Q-15.95 -24 -15.05 -24.55L-14.95 -24.55L-14.5 -25.1L-14.5 -29.7Q-14.5 -33.95 -12.55 -35.45L-12.4 -35.65L-11.35 -36.25L-11.1 -36.3Q-10.95 -40 -10.95 -43.8L-11.1 -52.45Q-13.8 -52.75 -13.8 -53.3L-13.8 -55.1Q-13.95 -60.1 -12.95 -62.95Q-12.05 -65.55 -10.25 -66.55Q-8.4 -67.55 0.05 -67.55L2.5 -67.45M-11.1,-36.3L-6.6 -36.95L-2.65 -36.8L3.95 -36.45L13.75 -35.85L24.2 -35.25L24.8 -35.1M-33.8,1.65L-33.8 0.65Q-33.55 -3.25 -32.25 -4.4L-27.55 -4.35Q-26.95 -8.1 -24.65 -8.5L-22.35 -8.5L-18.4 -8.65L-18.25 -8.65L-18.2 -8.65L-18.2 -8.8L-18.2 -8.95L-18.2 -9.25L-18.25 -10.85L-18.25 -11.4L-13.2 -11.65L-8.75 -11.8L-8.6 -9.1L-8.2 -9.15Q-2.5 -9.55 5.65 -9.25L9.1 -9.25L9.1 -9.65L9.35 -12.8L18.95 -12.4L19.05 -9.95M19.8,23.35L21.95 23.2L27.2 23.3L27.1 -9.8L21.4 -9.65L19.5 -9.7L19.05 -9.65M27.1,-9.8L32.1 -10Q36.55 -8.65 37.2 -4.35" />
<path style="fill:none;stroke-width:1;stroke-linecap:butt;stroke-linejoin:miter;stroke-miterlimit:3;stroke:#66CC00;stroke-opacity:1" d="M54.25,-52.4L54.15 -52.3L54 -52.25L53.95 -52.1M19.05,-9.65L19.05 -9.5Q19.35 -1.2 19.1 6.65L19.1 7.05L19.05 9.15Q18.65 17.05 19.05 23.35M94.95,-17L93.7 -13.5L91.4 -8.4L86.7 0.15L82.3 10.2Q79.45 16.45 74.95 21.3L72.85 24.65L69.3 29.45Q62.85 37.45 54.95 42.2Q43.35 49.2 29.35 49.25Q15.35 49.35 12.05 49.6L-1.05 49.9L-18.65 49.9Q-55.5 49.25 -64.55 46.9Q-70.55 45.35 -74.5 38.2L-76.15 34.65L-76.25 34.45L-79.7 22.95L-81 18.35Q-83.85 17.95 -85.45 16.45Q-87.7 14.3 -87.15 10.35L-86.55 7L-73.5 6.95L-59.65 6.75L-59.55 6.75L-59.65 6.35L-59.65 6.3L-73.5 6.3L-73.4 5.15Q-72.85 2.2 -70.8 1.6L-63.8 1.2L-63.85 -9L-68.8 -7.15Q-70 -7.15 -72.15 -10.7L-75.95 -9L-79 -17L-76.3 -18.4L-77.3 -20.8L-80.25 -19.55L-81.25 -21.95L-78.3 -23.15L-79.1 -25.1L-81.7 -24L-85.1 -32.85L-79.5 -35.3L-74.3 -31.15L-64 -35.3L-65.7 -40.45L-64 -41.15L-61.8 -42.1L-60.1 -40.95L-29.7 -50.25" />
</g>
</svg>
