<?xml version="1.0" encoding="utf-8"?>
<svg version="1.1" id="Layer_1"
xmlns="http://www.w3.org/2000/svg"
xmlns:xlink="http://www.w3.org/1999/xlink"
xmlns:author="http://www.sothink.com"
width="222px" height="388px"
xml:space="preserve">
<g id="214" transform="matrix(1, 0, 0, 1, 110.65, 193.8)">
<linearGradient
id="LinearGradID_17" gradientUnits="userSpaceOnUse" gradientTransform="matrix(0.000579834, 0.104462, -0.0657959, 0.00370789, 77.75, 73.3)" spreadMethod ="pad" x1="-819.2" y1="0" x2="819.2" y2="0" >
<stop  offset="0.380392" style="stop-color:#66CCFF;stop-opacity:1" />
<stop  offset="1" style="stop-color:#FFFFFF;stop-opacity:1" />
</linearGradient>
<path style="fill:url(#LinearGradID_17) " d="M-6.35,-78.9L-14.6 -75.85L-18.95 -74Q-20 -85.85 -20.5 -95.3L-20.85 -102.4L-6.75 -103.8L-6.75 -111L-6.75 -116.8Q-6.6 -140.6 -34.65 -155.75Q-44.45 -161.05 -55 -164.15L-55.05 -164.25L-55.4 -164.3Q-68.25 -168.15 -82.15 -168.85L-82.25 -168.85L-86.55 -169Q-85.6 -173.6 -85.6 -176.3Q-85.6 -179.6 -89.3 -182.9L99.65 -182.9L99.65 148.95L51.15 148.95L50.85 146.55L49 131.65L46 106.3L42.95 83.2L42.25 78.8L42.5 74.4L44.9 74.25L53.85 73.55L58 73Q59.5 72.75 60.7 71.95Q63.6 69.75 64.15 63.9Q64.9 55.7 64.7 43.75Q64.45 31.8 60.85 31.8L51.25 32.45L47.65 32.65L39.35 33.15L16.35 33.1Q16.05 32.6 16.05 31.8Q16.05 30.7 17.05 27.35L18.05 23.75L17.45 20.8Q16.9 18.35 16.9 17.1L16.95 14Q17.1 12.65 18.05 10.2L19.65 10.25Q25.05 9.7 25.05 3.95L24.8 -5.25L23.6 -17.2Q25.9 -19.4 25.9 -22.5Q25.9 -25.05 24.65 -32.75L24.65 -32.85L34.8 -33.7Q41.35 -34.35 46 -35.3L46.1 -32.8Q46.25 -31.9 48.6 -31.5L48.65 -31.5L49 -31.45L48.6 -31.4Q48.6 7.8 47.75 30.55L48.6 32.2L51.25 32.4L54.8 -30.85L55 -31.3Q57.55 -31.5 58 -32.25Q58.3 -32.65 58.3 -37.5Q58.3 -42.4 57.25 -43.75Q56 -45.25 51.4 -45.25L47.65 -44.75Q46.05 -44.35 45.55 -43.65L45.85 -41.5L45.85 -39.95L35.15 -38.85L23.65 -38.05L21.5 -48.7L21.4 -48.95L21.25 -49.7L21.05 -50.8L22.2 -50.05L22.25 -50.1Q23.95 -52.85 25.3 -57L26.4 -57L32.45 -59.35Q36.6 -61 38.85 -62.5L43.8 -65.35Q46.95 -67.4 47.4 -69Q48.6 -74.05 49.1 -81.45L49.6 -92.9L55.35 -92.65Q56.2 -92.15 57.25 -92.15Q59.15 -92.15 60.65 -93.2L70.55 -93.2L71.05 -93.2Q74.2 -93.2 76.1 -97.05Q77.95 -100.95 78.15 -105.5Q78.35 -110.1 76.75 -114.4Q75.15 -118.65 72.1 -118.65Q70.75 -118.65 69.45 -118.05L68 -118.05L64 -117.65L60.4 -117.5L60.4 -117.65Q60.4 -119.95 59.65 -120.7L57.75 -121.15L55.5 -121.05L52.3 -120.1L52.4 -119.75L52.25 -120Q51.75 -120.55 50.5 -120.55L46.7 -120Q44.9 -119.55 44.3 -117L44.2 -117.3Q43.75 -118.45 42.3 -118.45L39.55 -118.25L36.9 -120.55L36.9 -120.6L35.85 -121.25L36.85 -121.35Q35.35 -131.7 28.4 -133.4L27.25 -133.6L28.65 -134.95Q28.65 -136.65 25.65 -137.15L21.05 -137.35Q15.85 -137.35 7.2 -135.45Q-4.8 -132.8 -4.8 -128.75Q-4.8 -125.45 -2.8 -118.65L0.15 -109L0.15 -103.65L-0.05 -103.45Q-0.5 -104.05 -1.95 -104.45L-4.5 -104.85Q-5.8 -104.85 -6.75 -103.8Q-7.55 -102.95 -8.05 -101.35Q-8.85 -98.95 -8.85 -96.5Q-8.85 -91.95 -6.7 -88.95Q-4.35 -85.65 -0.4 -85.65Q2.1 -85.65 4.3 -86.65L5.9 -87.55L5.15 -85.05Q3.95 -81.85 3.15 -80.4L1.25 -78L-3.65 -78.7L-4.65 -78.85L-5.05 -78.85L-6.35 -78.9M25.15,-74.05Q28.7 -69.1 31.25 -66.95L28.25 -65.45L27.6 -65.2L27.75 -66.35Q27.75 -67.5 22.1 -69.3L14.65 -71.8L15.75 -73.5L15.55 -74.15Q13.25 -75.45 8.45 -76.5L12.75 -80.35L12.8 -80.35L18.4 -79.8Q21.2 -79.55 23 -77L23.25 -76.8L25.15 -74.05M10.85,-52.65L11.4 -53.45L11.6 -53.3L11.4 -53L11.4 -52.25L11.15 -52.45L10.85 -52.65M-12.9,-44.9L-12.95 -44.95L-12.8 -44.95L-12.9 -44.9M-10.2,-47.4Q-10.35 -48.3 -9.85 -48.75L-9.85 -48.5L-10.2 -47.4M13.8,-27.7L13.45 -28.25L14.15 -28.05L13.8 -27.7M7.1,2.3L7.05 1.45L9.6 2.15L7.1 2.3M10.15,10.85Q10.15 24.45 9.85 31.25L9.85 33L-7.3 32.85L-5.85 28.1Q-4.8 24.8 -4.8 22.95Q-4.8 22.4 -5.35 21.05Q-5.9 19.7 -5.9 18.9L-5.35 15.5L-4.8 12.25L5.35 11.4Q6.25 11.25 6.75 10.05L10 10L10.15 10.85M-81.55,-78.25L-81.7 -83.05L-82.15 -84.65L-82.25 -85.85Q-81.7 -84.55 -81.7 -83.05L-80.4 -80.35L-81.55 -78.25M-78.15,-19L-77.8 -19L-77.75 -19L-77.3 -18.9L-77.8 -18.95L-78.15 -19M-13.75,-36.75L-13.3 -37.65L-11.85 -36.8L-13.75 -36.75M-14.5,-30.75L-14.3 -30.75L-14.5 -30.7L-14.5 -30.75" />
<path style="fill:#EE6666;fill-opacity:1" d="M-98.7,36.1Q-80.45 38.95 -59.35 40.5L-51 41L-22.55 42.15L1.95 42.4L32.65 39.65Q46 39.65 51.25 42.7Q55.65 45.25 56.8 51.7L58.8 64.6L59 66Q59.65 69 60.7 71.95Q59.5 72.75 58 73L53.85 73.55L52.55 72Q50.9 70 49.7 69.55L44.5 69L42.75 68.95L-30.4 62.5Q-36.4 61.6 -51.55 57.75Q-61.6 55.15 -72.1 55.4L-83.75 55.6L-85.2 55.5Q-90.15 55.1 -93.5 52.7L-94.95 51.45L-98.7 47L-98.7 36.1M-59.7,106.7L-38.25 107.7L-19.5 107.4Q-4.3 106.9 4.6 106.95L26.05 106.5Q38.75 106 46 106.3L49 131.65L50.85 146.55L39.7 147.25Q26.55 147.8 18.6 147.8L-41.6 145.35L-61.1 144.4L-61.4 129.85Q-61.4 119.8 -59.7 106.7M-15.4,-111.1L-30.4 -111.95L-37.4 -111.75L-43.95 -111.4Q-50.9 -112.15 -52.4 -122.8Q-54.2 -135.45 -62.9 -148.7Q-71.7 -162.1 -82.25 -167.9L-82.15 -168.85Q-68.25 -168.15 -55.4 -164.3L-55.05 -164.25L-55 -164.15Q-44.45 -161.05 -34.65 -155.75Q-6.6 -140.6 -6.75 -116.8L-6.75 -111L-15.4 -111.1M-98.7,-103.35L-98.7 -166.85L-98.15 -166.9L-96.9 -166.95L-87.85 -167.75L-87.45 -167.1L-84.4 -165.1Q-72.25 -156.5 -65.25 -139.3Q-58.1 -121.8 -59.1 -102.7L-59.1 -102.55L-71.95 -103.1Q-87.95 -103.8 -95.75 -102.7L-98.7 -102.7L-98.7 -103.35" />
<path style="fill:#C95E5E;fill-opacity:1" d="M-98.7,47L-94.95 51.45L-93.5 52.7Q-90.15 55.1 -85.2 55.5L-83.75 55.6L-72.1 55.4Q-61.6 55.15 -51.55 57.75Q-36.4 61.6 -30.4 62.5L42.75 68.95L44.5 69L49.7 69.55Q50.9 70 52.55 72L53.85 73.55L44.9 74.25L42.5 74.4L35.7 74.8L-5.05 76.05L-27.2 75.65L-47.1 75.05L-70.9 74.1L-98.65 73.2L-98.7 73.2L-98.7 47M-86.55,-169L-82.25 -168.85L-82.15 -168.85L-82.25 -167.9Q-71.7 -162.1 -62.9 -148.7Q-54.2 -135.45 -52.4 -122.8Q-50.9 -112.15 -43.95 -111.4L-37.4 -111.75L-30.4 -111.95L-15.4 -111.1L-6.75 -111L-6.75 -103.8L-20.85 -102.4L-25.85 -102.3Q-30.7 -102.15 -45.9 -102.15L-59.1 -102.55L-59.1 -102.7Q-58.1 -121.8 -65.25 -139.3Q-72.25 -156.5 -84.4 -165.1L-87.45 -167.1L-87.85 -167.75L-86.75 -167.9L-86.55 -169M-61.4,129.85L-61.1 144.4L-92.65 142.9L-98.7 143.05L-98.7 104.3L-96.3 104.3L-65.6 106.35L-59.7 106.7Q-61.4 119.8 -61.4 129.85" />
<path style="fill:#CBC5C5;fill-opacity:1" d="M-65.6,106.35L-96.3 104.3L-98.7 104.3L-98.7 73.2L-98.65 73.2L-70.9 74.1L-47.1 75.05L-27.2 75.65L-5.05 76.05L35.7 74.8L42.5 74.4L42.25 78.8L42.95 83.2L40.9 82.95L36.6 82.6Q31.9 82.6 28.75 84.2Q25.55 85.85 21.4 85.85L9.1 83.95Q-2.45 82.05 -4.5 82.05Q-9.1 82.05 -15.7 85.05Q-22.3 88 -28.45 88L-37.75 86.65L-47.3 85.3L-56.4 86.1Q-57.65 91.55 -59 101.2L-59.7 106.7L-65.6 106.35M-20.85,-102.4L-20.5 -95.3L-34.65 -92.35Q-36.55 -93.45 -38.85 -94L-50.25 -94.9L-54.5 -94.75L-63.95 -94.55Q-72.15 -94.55 -76.05 -93.45L-78.15 -92.65L-85.35 -92.9Q-90.2 -92.9 -91.25 -90.75Q-91.8 -89.5 -91.8 -83.15L-90.4 -66.7L-89 -48.1Q-89 -45.25 -89.65 -37.35L-89.8 -37.35L-97.15 -37.35L-98.7 -37.05L-98.7 -102.7L-95.75 -102.7Q-87.95 -103.8 -71.95 -103.1L-59.1 -102.55L-45.9 -102.15Q-30.7 -102.15 -25.85 -102.3L-20.85 -102.4M-55.05,183.2L-72.5 183.2L-76.9 183.1L-79.8 183.2L-98.7 183.2L-98.7 143.05L-92.65 142.9L-61.1 144.4L-60.9 148.95Q-60.05 165.95 -57.3 175.85L-55.05 183.2M-98.45,30.1L-98.5 30.15L-98.7 30.2L-98.7 -31.4L-90.2 -31.4L-90.7 -25Q-90.7 -20.05 -89 -17.45Q-87.3 -14.85 -87.3 -13.05Q-87.3 -10.95 -88.45 -5.45Q-89.55 0 -89.55 2.45Q-89.55 6.6 -81.7 13.9Q-74.05 21.05 -70.4 21.2Q-57.45 21.95 -56.95 31.8L-56.95 32.2L-65.2 31.9L-83 30.85Q-91.05 30.35 -94 30.75Q-97.05 31.1 -96.2 29.95L-98.1 30L-98.45 30.1" />
<path style="fill:#DBA072;fill-opacity:1" d="M-2.45,-73.45L-0.7 -75.8L1.25 -78L3.15 -80.4Q3.95 -81.85 5.15 -85.05L5.9 -87.55L4.3 -86.65Q2.1 -85.65 -0.4 -85.65Q-4.35 -85.65 -6.7 -88.95Q-8.85 -91.95 -8.85 -96.5Q-8.85 -98.95 -8.05 -101.35Q-7.55 -102.95 -6.75 -103.8Q-5.8 -104.85 -4.5 -104.85L-1.95 -104.45Q-0.5 -104.05 -0.05 -103.45L0.35 -102.75L1.7 -102.75Q2.55 -102.2 3.45 -99.7Q4.1 -98 6.95 -98L7.6 -98.2L6.35 -105.55Q5.55 -109.7 5.55 -112.2Q5.55 -113.7 8.05 -117.25Q10.4 -120.75 10.4 -122.2L10.4 -122.45L14.2 -124Q19.3 -126 20.3 -126Q24.15 -126 26.25 -124.3Q28.3 -122.75 29.8 -118.7L31.9 -113.75L32.55 -111.5L29.45 -111.1L29.3 -111.05Q29.1 -111.95 28.25 -112.2L26.85 -112.45Q24 -112.45 22.55 -110.7Q21.2 -109.1 21.2 -106.35Q21.2 -103.9 22.8 -102.1Q24.5 -100.1 27.05 -100.1L29.2 -100.85L31.55 -100.25L35.85 -99.35Q36.9 -97.85 39.1 -96.9Q40.15 -96.45 40.65 -95.5L40.75 -95.45L40.9 -95.2Q41.45 -94.05 41.45 -92.35Q41.45 -91.2 40.3 -90.4L40.2 -90.3Q39.1 -89.8 37.75 -89.8Q36.05 -89.8 34.5 -91.2Q33 -92.7 31.45 -92.7Q30.85 -92.7 30.15 -91.95Q29.3 -91.35 28.6 -91.35Q26.9 -91.35 26.85 -93.3L23.15 -93.85L20.85 -93.5L18.4 -93.1Q16.9 -93.1 15.2 -94Q13.6 -94.9 13.05 -96.05L12.8 -96.05Q13.05 -90.4 16.4 -87.05Q17.65 -85.8 19.2 -85.05Q19.35 -82.5 23.25 -76.8L23 -77Q21.2 -79.55 18.4 -79.8L12.8 -80.35L12.75 -80.35L8.45 -76.5L6.05 -74.1L3.1 -71.05L2.1 -70.15Q1.5 -70.85 0.35 -70.9Q0 -72.75 -2.1 -72.75L-2.8 -72.65L-2.45 -73.45M13.25,-114.25L16 -115.1L19 -116.2Q22.1 -117 26.25 -117L25.85 -119.75Q25.55 -120.95 23.85 -120.95Q21.6 -120.95 17.2 -118.3Q13.05 -115.8 12.4 -114.45L13.25 -114.25M25.7,-58.35L27.55 -64.8L27.6 -65.2L28.25 -65.45L31.25 -66.95Q33.15 -65.45 34.5 -65.45Q38.5 -65.45 40.85 -74.65Q42.9 -82.5 42.1 -87.2L44 -89.25Q45 -90.65 46.05 -93.1L49.45 -92.9L49.6 -92.9L49.1 -81.45Q48.6 -74.05 47.4 -69Q46.95 -67.4 43.8 -65.35L38.85 -62.5Q36.6 -61 32.45 -59.35L26.4 -57L25.3 -57L25.7 -58.35M-28.95,-44.75L-30.35 -46Q-30.75 -46.75 -30.75 -47.95Q-30.75 -49.15 -29.8 -50.75L-29.5 -51.35L-29.2 -51.2L-23.8 -48.7Q-19 -46.6 -16.15 -45.65L-12.95 -44.95L-12.9 -44.9Q-10.7 -43.05 -6 -41.7L1.5 -39.45L1.25 -38.8L1.4 -37L2.3 -37Q5.55 -35.8 5.55 -31.65L5 -25.45L1.75 -25Q-1.35 -25 -1.35 -27.25L-0.15 -30.85L1.25 -34.7L1.4 -36.45L1.4 -37L-0.3 -36.45L-8.15 -37L-11.85 -36.8L-13.3 -37.65L-15.35 -38.65Q-19.65 -40.7 -23.75 -41.85Q-27.1 -42.85 -27.25 -43.25L-28.95 -44.75M16.7,-26.75L14.6 -26.85L13.8 -27.7L14.15 -28.05L15 -29.2Q16.85 -32 16.85 -36.35L16.85 -37L17.9 -37L18.45 -34.3Q18.85 -32.4 18.85 -30.2L18.4 -26.9L16.7 -26.75M9.65,-26.2L8.1 -26.3Q7.55 -26.35 7.25 -26.75Q9.6 -28.95 9.6 -33.75L9.3 -37.65L9.85 -37.95Q10.75 -38.5 11.5 -38.5Q12.9 -38.5 13.15 -37.2L13.15 -35.6L12.75 -31.1L12.2 -26.7Q11.05 -26.2 9.65 -26.2M9.85,33L9.85 31.25Q10.15 24.45 10.15 10.85L10 10L18.05 10.2Q17.1 12.65 16.95 14L16.9 17.1Q16.9 18.35 17.45 20.8L18.05 23.75L17.05 27.35Q16.05 30.7 16.05 31.8Q16.05 32.6 16.35 33.1L9.85 33M-9.35,32.85L-9.6 32.85L-14.95 32.8L-14.95 11.95L-10.05 12.25L-6.2 12.25L-4.8 12.25L-5.35 15.5L-5.9 18.9Q-5.9 19.7 -5.35 21.05Q-4.8 22.4 -4.8 22.95Q-4.8 24.8 -5.85 28.1L-7.3 32.85L-9.35 32.85" />
<path style="fill:#FFFFFF;fill-opacity:1" d="M37.8,-117.55L37.4 -117.05L35.35 -117.45Q32.75 -118.05 32.75 -120Q32.75 -123.05 35.85 -121.25L36.9 -120.6L36.9 -120.55L39.55 -118.25Q38.35 -118 37.8 -117.55M0.15,-103.65L0.15 -109L-2.8 -118.65Q-4.8 -125.45 -4.8 -128.75Q-4.8 -132.8 7.2 -135.45Q15.85 -137.35 21.05 -137.35L25.65 -137.15Q28.65 -136.65 28.65 -134.95L27.25 -133.6Q24.5 -132.3 16.5 -131.1Q4.15 -129.1 4.15 -128.75Q4.15 -128.35 7.3 -125.8Q10.05 -123.55 10.4 -122.45L10.4 -122.2Q10.4 -120.75 8.05 -117.25Q5.55 -113.7 5.55 -112.2Q5.55 -109.7 6.35 -105.55L7.6 -98.2L6.95 -98Q4.1 -98 3.45 -99.7Q2.55 -102.2 1.7 -102.75L0.35 -102.75L-0.05 -103.45L0.15 -103.65M12.4,-114.45Q13.05 -115.8 17.2 -118.3Q21.6 -120.95 23.85 -120.95Q25.55 -120.95 25.85 -119.75L26.25 -117Q22.1 -117 19 -116.2L16 -115.1L13.25 -114.25L12.4 -114.45M-98.7,73.2L-98.7 104.3L-98.7 143.05L-98.7 183.2L-79.8 183.2L-72.5 183.2L-55.05 183.2L56.1 183.2L99.65 183.2L99.65 148.95L99.65 -182.9L-89.3 -182.9L-98.7 -182.9L-98.7 -166.85L-98.7 -103.35L-98.7 -102.7L-98.7 -37.05L-98.7 -31.4L-98.7 30.2L-98.7 36.1L-98.7 47L-98.7 73.2M54.45,-111.75Q54.5 -112.95 55 -113.75Q55.55 -114.8 56.45 -114.8Q57.95 -114.8 59.1 -113.25L60.05 -111.6Q61.25 -109 61.25 -107.1Q61.25 -95.65 57.75 -95.65Q55.75 -95.65 54.7 -98.5Q53.8 -100.8 53.8 -103.6Q53.8 -108.45 54.35 -111.25L54.35 -111.4L54.45 -111.75M58.85,-107.7Q58.45 -108.2 57.8 -108.2Q56.2 -108.05 56.2 -104.2Q56.2 -103.5 56.45 -102.85Q56.95 -101.6 57.95 -101.6Q59.35 -101.6 59.45 -105.05L59.45 -105.95L59.45 -106.65Q59.45 -107.45 58.85 -107.7M74.45,-112Q75.15 -109.6 75.15 -107.2Q75.15 -104.05 74.55 -101.55Q73.7 -97.65 71.8 -97.65Q69.8 -97.65 69.15 -101.8Q68.85 -103.6 68.85 -108L69.2 -111.25L69.65 -113.7Q69.65 -114.4 69.8 -114.65Q70.15 -115.35 71.6 -115.35Q73.45 -115.35 74.45 -112M73.45,-107.5Q73.45 -108.4 72.75 -108.55Q72.4 -109 71.9 -109Q70.5 -109.1 70.5 -105.55Q70.35 -104.8 70.5 -104.05Q70.7 -102.5 71.9 -102.5Q73.45 -102.5 73.25 -105.55L73.15 -106.85L73.45 -107.5M19.2,-85.05Q17.65 -85.8 16.4 -87.05Q13.05 -90.4 12.8 -96.05L13.05 -96.05Q13.6 -94.9 15.2 -94Q16.9 -93.1 18.4 -93.1L20.85 -93.5L23.15 -93.85L26.85 -93.3Q26.9 -91.35 28.6 -91.35Q29.3 -91.35 30.15 -91.95Q30.85 -92.7 31.45 -92.7Q33 -92.7 34.5 -91.2Q36.05 -89.8 37.75 -89.8Q39.1 -89.8 40.2 -90.3L40.3 -90.4Q41.45 -91.2 41.45 -92.35Q41.45 -94.05 40.9 -95.2L40.75 -95.45L40.85 -95.45Q41.7 -93.65 43.1 -93.45L46.05 -93.1Q45 -90.65 44 -89.25L42.1 -87.2Q42.9 -82.5 40.85 -74.65Q38.5 -65.45 34.5 -65.45Q33.15 -65.45 31.25 -66.95Q28.7 -69.1 25.15 -74.05L23.25 -76.8Q19.35 -82.5 19.2 -85.05M29.15,-82.85Q30.3 -82.3 31.2 -82.3L35.35 -82.95Q38.45 -83.75 38.85 -85.15L38.65 -85.85L38.35 -85.85L35.35 -86.25Q32.8 -86.25 30.85 -84.95Q29.55 -84.2 27.65 -83.9Q28.15 -83.25 29.15 -82.85M110.15,193.3L-110.15 193.3L-110.15 -193.3L110.15 -193.3L110.15 193.3" />
<path style="fill:#F5A2A2;fill-opacity:1" d="M-98.7,30.2L-98.5 30.15L-98.45 30.1L-98.1 30L-96.2 29.95Q-97.05 31.1 -94 30.75Q-91.05 30.35 -83 30.85L-65.2 31.9L-56.95 32.2L-38.25 32.55L-33 32.6L-32.95 32.6L-14.95 32.8L-9.6 32.85L-9.35 32.85L-7.3 32.85L9.85 33L16.35 33.1L39.35 33.15L47.65 32.65L51.25 32.45L60.85 31.8Q64.45 31.8 64.7 43.75Q64.9 55.7 64.15 63.9Q63.6 69.75 60.7 71.95Q59.65 69 59 66L58.8 64.6L56.8 51.7Q55.65 45.25 51.25 42.7Q46 39.65 32.65 39.65L1.95 42.4L-22.55 42.15L-51 41L-59.35 40.5Q-80.45 38.95 -98.7 36.1L-98.7 30.2M-98.7,-166.85L-98.7 -182.9L-89.3 -182.9Q-85.6 -179.6 -85.6 -176.3Q-85.6 -173.6 -86.55 -169L-86.75 -167.9L-87.85 -167.75L-96.9 -166.95L-98.15 -166.9L-98.7 -166.85" />
<path style="fill:#2C2A2A;fill-opacity:1" d="M-78.15,-92.65L-76.05 -93.45Q-72.15 -94.55 -63.95 -94.55L-54.5 -94.75L-54.45 -94.6L-53.1 -91.9Q-50.15 -85.25 -49.35 -79.65Q-49 -76.9 -49 -63.85Q-49 -56.5 -49.85 -40.15L-50.05 -36.25L-58 -36.3Q-57.45 -39.1 -57.45 -42.1Q-57.45 -55 -59.7 -66.85Q-63.3 -85.85 -71.25 -85.85Q-75.15 -85.85 -77.95 -83.55Q-79.65 -82.2 -80.4 -80.35L-81.7 -83.05Q-81.7 -84.55 -82.25 -85.85L-82.25 -86.95Q-82.25 -90.8 -78.15 -92.65M-50.7,-17.1Q-50.7 -12.85 -50.25 -11Q-55.75 -10.85 -64.5 -10.85Q-74.85 -10.85 -77.8 -18.95L-77.3 -18.9L-77.25 -18.9Q-77.15 -18.8 -77.05 -18.8Q-69.65 -16.7 -63.45 -24.6Q-61.35 -27.3 -59.95 -30.25L-51.1 -29.95L-50.35 -29.9L-50.7 -17.1" />
<path style="fill:#DBD7D7;fill-opacity:1" d="M26.05,106.5L4.6 106.95Q-4.3 106.9 -19.5 107.4L-38.25 107.7L-59.7 106.7L-59 101.2Q-57.65 91.55 -56.4 86.1L-47.3 85.3L-37.75 86.65L-28.45 88Q-22.3 88 -15.7 85.05Q-9.1 82.05 -4.5 82.05Q-2.45 82.05 9.1 83.95L21.4 85.85Q25.55 85.85 28.75 84.2Q31.9 82.6 36.6 82.6L40.9 82.95L42.95 83.2L46 106.3Q38.75 106 26.05 106.5M-57.3,175.85Q-60.05 165.95 -60.9 148.95L-61.1 144.4L-41.6 145.35L18.6 147.8Q26.55 147.8 39.7 147.25L50.85 146.55L51.15 148.95Q53.75 170 56.1 183.2L-55.05 183.2L-57.3 175.85M-21.7,-72.6L-20.9 -71.2L-28.3 -62.9L-28.9 -62.15L-28.15 -78.25Q-28.15 -88.55 -34.65 -92.35L-20.5 -95.3Q-20 -85.85 -18.95 -74L-21.7 -72.6M-89.65,-37.35Q-89 -45.25 -89 -48.1L-90.4 -66.7L-91.8 -83.15Q-91.8 -89.5 -91.25 -90.75Q-90.2 -92.9 -85.35 -92.9L-78.15 -92.65Q-82.25 -90.8 -82.25 -86.95L-82.25 -85.85L-82.15 -84.65L-81.7 -83.05L-81.55 -78.25L-80.95 -67.3L-80.95 -67.1L-80.85 -65L-79.45 -42.9L-79.55 -37.1L-89.65 -37.35M-77.8,-18.95Q-74.85 -10.85 -64.5 -10.85Q-55.75 -10.85 -50.25 -11L-42.25 -11.4L-37.4 -12.4L-37.4 -10.25Q-38.25 18.95 -38.25 32.2L-38.25 32.55L-56.95 32.2L-56.95 31.8Q-57.45 21.95 -70.4 21.2Q-74.05 21.05 -81.7 13.9Q-89.55 6.6 -89.55 2.45Q-89.55 0 -88.45 -5.45Q-87.3 -10.95 -87.3 -13.05Q-87.3 -14.85 -89 -17.45Q-90.7 -20.05 -90.7 -25L-90.2 -31.4L-87.75 -31.4L-79.45 -30.65L-79.45 -30.35Q-79.2 -24.4 -78.45 -21.1L-77.8 -19L-78.15 -19L-77.8 -18.95M-27.95,-36.4Q-28.25 -38.2 -28.75 -38.65L-28.95 -44.75L-27.25 -43.25Q-27.1 -42.85 -23.75 -41.85Q-24.65 -37.65 -24.65 -36.25L-27.95 -36.4M-14.95,32.8L-32.95 32.6L-32.95 32.2L-31.8 -14.9Q-28.15 -17.5 -28.15 -21.75L-28.3 -27Q-27.85 -27.7 -27.75 -29L-27.6 -29.95L-27.6 -30.1L-25.3 -30.45L-25.5 -26.35L-25.4 -21.85Q-25.4 -19.85 -24.1 -13.05L-22.8 -13.05L-24.1 -3.05Q-25.05 4.75 -25.05 8.4Q-25.05 11.05 -23.15 11.25L-16.9 11.7L-14.95 11.95L-14.95 32.8M-14.5,-30.7L-15 -30.65L-14.7 -30.75L-14.5 -30.75L-14.5 -30.7" />
<path style="fill:#999999;fill-opacity:1" d="M48.6,32.2L47.75 30.55Q48.6 7.8 48.6 -31.4L49 -31.45L48.65 -31.5L48.6 -31.5Q46.25 -31.9 46.1 -32.8L46 -35.3Q41.35 -34.35 34.8 -33.7L24.65 -32.85L22.2 -32.75L22.25 -35.4L22.25 -37.95L23.65 -38.05L35.15 -38.85L45.85 -39.95L45.85 -41.5L45.55 -43.65Q46.05 -44.35 47.65 -44.75L51.4 -45.25Q56 -45.25 57.25 -43.75Q58.3 -42.4 58.3 -37.5Q58.3 -32.65 58 -32.25Q57.55 -31.5 55 -31.3L54.8 -30.85L51.25 32.4L48.6 32.2M25.05,-35.4Q28.15 -35.4 44.45 -38.1Q44.45 -38.8 44.3 -38.6L42.05 -38.8L40.4 -38.7Q24.2 -37 24.2 -36.15L24.3 -35.5L25.05 -35.4M0.5,-35.5L-1.25 -35.85L-2.95 -35.65L-2.95 -35.4L-9.5 -35.05L-14.95 -34.8L-17.8 -34.75L-26.2 -34.7L-26.6 -34.65L-26.85 -34.1L-26.6 -33.55L-26.2 -33.4L-20.35 -33.15L-14.8 -33.4L-9.2 -33.75Q0.65 -34.45 0.65 -34.9L0.5 -35.5M-33,32.6L-38.25 32.55L-38.25 32.2Q-38.25 18.95 -37.4 -10.25L-37.4 -12.4L-37.45 -16.35Q-37.55 -22.3 -37.8 -25.25L-37.8 -25.9L-37.9 -25.9Q-40.4 -26.1 -41.75 -26.95Q-42.95 -27.8 -43 -30.35L-50.35 -29.9L-51.1 -29.95L-59.95 -30.25L-65.15 -30.45Q-68.65 -30.15 -76 -30.5L-79.45 -30.65L-87.75 -31.4L-90.2 -31.4L-98.7 -31.4L-98.7 -37.05L-97.15 -37.35L-89.8 -37.35L-89.65 -37.35L-79.55 -37.1L-65.9 -36.6L-58 -36.3L-50.05 -36.25Q-46.1 -36.25 -42.65 -36.4L-42.6 -37.2L-42.55 -38.15L-42.55 -38.25L-42.45 -38.4Q-41.7 -39.6 -39.3 -39.75L-35.3 -39.45Q-29.7 -39.45 -28.8 -38.7L-28.75 -38.65Q-28.25 -38.2 -27.95 -36.4L-24.65 -36.25L-20.85 -36.2L-15.1 -36.45L-13.75 -36.75L-11.85 -36.8L-8.15 -37L-0.3 -36.45L1.4 -36.45L1.25 -34.7L-0.15 -30.85L-14.3 -30.75L-14.5 -30.75L-14.7 -30.75L-15 -30.65L-20.85 -30.3L-24.35 -30.45L-25.3 -30.45L-27.6 -30.1L-27.6 -29.95L-27.75 -29Q-27.85 -27.7 -28.3 -27Q-28.9 -26.2 -29.95 -26.2L-31.4 -26.15L-31.55 -26.15L-31.55 -25.65L-31.8 -14.9L-32.95 32.2L-32.95 32.6L-33 32.6M55.85,-40Q56.05 -40.35 56.05 -41.25Q56.05 -42.4 49.85 -43.55L50.2 -43.6L49.5 -43.6L48 -43.45Q47.8 -43.35 47.8 -42.4Q47.8 -41.3 48.8 -40.3Q49.9 -39.2 52.05 -38.65L54.15 -38.65L55.85 -40M50.35,-14.35L50.05 -3.65L50.55 4.1Q50.55 9.3 50 13.65Q49.45 17.95 49.45 21.6L49.65 26Q50 30.35 50.5 30.35Q51.05 30.35 50.9 30.15L51 28Q51 18.4 51.75 14.45L51.75 -10.6L51.95 -16.9Q51.95 -18.15 53.1 -23.5Q51.95 -33.3 51 -27.3L51 -18.95Q50.35 -16.15 50.35 -14.35M-95.4,-34.35Q-94.05 -33.8 -91.3 -33.8L-89.15 -34.05L-82.6 -34.05L-79.55 -34.1L-76.7 -34.05L-76.25 -33.6L-64.5 -33.6L-59.8 -33.8L-58.65 -33.7L-50.2 -33.3L-48.5 -33.3Q-44.55 -33.3 -44.55 -33.95L-44.55 -34.25L-46.1 -34.65L-68.25 -34.9L-69.35 -34.75L-70.15 -35.3L-80.95 -35.3L-81.35 -35.25L-87.05 -35.1L-89.85 -35.15L-94.65 -35.75Q-96.4 -36.05 -96.4 -35.2Q-96.4 -34.75 -95.4 -34.35M-31.75,-33.35Q-30.5 -34.45 -30.5 -35.4Q-30.5 -37.65 -36.05 -37.75Q-41.7 -37.85 -41.7 -36.45Q-41.7 -35.95 -39.1 -34.1Q-36.25 -32.15 -34.8 -32.15Q-33.15 -32.15 -31.75 -33.35M-32.95,-23.45L-33.45 -24.25L-34.65 -23.3L-34.7 -22.5L-34.9 -12.1Q-34.9 -5.35 -35.7 20.15L-35.35 26.15L-34.85 31.15L-34.3 30.95L-34.3 28.8Q-33.45 27.7 -33.45 23.15Q-33.45 21 -33.6 19.95L-33.6 7.75L-32.85 -14.2L-32.75 -22.5L-32.95 -23.45" />
<path style="fill:#DEDCDC;fill-opacity:1" d="M24.3,-35.5L24.2 -36.15Q24.2 -37 40.4 -38.7L42.05 -38.8L44.3 -38.6Q44.45 -38.8 44.45 -38.1Q28.15 -35.4 25.05 -35.4L24.3 -35.5M0.65,-34.9Q0.65 -34.45 -9.2 -33.75L-14.8 -33.4L-20.35 -33.15L-26.2 -33.4L-26.6 -33.55L-26.85 -34.1L-26.6 -34.65L-26.2 -34.7L-17.8 -34.75L-14.95 -34.8L-9.5 -35.05L-2.95 -35.4L-2.95 -35.65L-1.25 -35.85L0.5 -35.5L0.65 -34.9M54.15,-38.65L52.05 -38.65Q49.9 -39.2 48.8 -40.3Q47.8 -41.3 47.8 -42.4Q47.8 -43.35 48 -43.45L49.5 -43.6L50.2 -43.6L49.85 -43.55Q56.05 -42.4 56.05 -41.25Q56.05 -40.35 55.85 -40L54.15 -38.65M51,-18.95L51 -27.3Q51.95 -33.3 53.1 -23.5Q51.95 -18.15 51.95 -16.9L51.75 -10.6L51.75 14.45Q51 18.4 51 28L50.9 30.15Q51.05 30.35 50.5 30.35Q50 30.35 49.65 26L49.45 21.6Q49.45 17.95 50 13.65Q50.55 9.3 50.55 4.1L50.05 -3.65L50.35 -14.35Q50.35 -16.15 51 -18.95M-96.4,-35.2Q-96.4 -36.05 -94.65 -35.75L-89.85 -35.15L-87.05 -35.1L-81.35 -35.25L-80.95 -35.3L-70.15 -35.3L-69.35 -34.75L-68.25 -34.9L-46.1 -34.65L-44.55 -34.25L-44.55 -33.95Q-44.55 -33.3 -48.5 -33.3L-50.2 -33.3L-58.65 -33.7L-59.8 -33.8L-64.5 -33.6L-76.25 -33.6L-76.7 -34.05L-79.55 -34.1L-82.6 -34.05L-89.15 -34.05L-91.3 -33.8Q-94.05 -33.8 -95.4 -34.35Q-96.4 -34.75 -96.4 -35.2M-34.8,-32.15Q-36.25 -32.15 -39.1 -34.1Q-41.7 -35.95 -41.7 -36.45Q-41.7 -37.85 -36.05 -37.75Q-30.5 -37.65 -30.5 -35.4Q-30.5 -34.45 -31.75 -33.35Q-33.15 -32.15 -34.8 -32.15M-32.75,-22.5L-32.85 -14.2L-33.6 7.75L-33.6 19.95Q-33.45 21 -33.45 23.15Q-33.45 27.7 -34.3 28.8L-34.3 30.95L-34.85 31.15L-35.35 26.15L-35.7 20.15Q-34.9 -5.35 -34.9 -12.1L-34.7 -22.5L-34.65 -23.3L-33.45 -24.25L-32.95 -23.45L-32.75 -22.5" />
<path style="fill:#FFFF99;fill-opacity:1" d="M-18.95,-74L-14.6 -75.85L-6.35 -78.9L-5.05 -78.85L-4.65 -78.85L-3.65 -78.7L1.25 -78L-0.7 -75.8L-2.45 -73.45Q-5.7 -72.6 -5.7 -70.45Q-5.7 -68.6 1.55 -61.2Q7.6 -55 10.85 -52.65L11.15 -52.45L11.4 -52.25Q8.45 -50.75 7.4 -50.55L4 -50.45L2.25 -50.75L0.75 -51L0.65 -51Q-1.2 -51.4 -5 -53.1Q-10.15 -55.5 -14.8 -55.5Q-14.3 -57.3 -12.45 -60.5Q-10.9 -63.35 -10.9 -64.1Q-10.9 -66.35 -18.6 -70.1L-20.9 -71.2L-21.7 -72.6L-18.95 -74M8.45,-76.5Q13.25 -75.45 15.55 -74.15L15.75 -73.5L14.65 -71.8Q13.25 -69.4 12.4 -66.5Q18.1 -66.1 18.1 -64.75Q18.1 -64.3 16.25 -61.15L11.6 -53.3L11.4 -53.45Q9.95 -56.9 6.7 -66.2Q5.7 -69.05 3.3 -70.9L3.1 -71.05L6.05 -74.1L8.45 -76.5" />
<path style="fill:#AFACAC;fill-opacity:1" d="M-30.75,-47.95Q-30.75 -46.75 -30.35 -46L-28.95 -44.75L-28.75 -38.65L-28.8 -38.7Q-29.7 -39.45 -35.3 -39.45L-39.3 -39.75Q-41.7 -39.6 -42.45 -38.4L-42.55 -38.25L-42.55 -38.15L-42.6 -37.2L-42.65 -36.4Q-46.1 -36.25 -50.05 -36.25L-49.85 -40.15Q-49 -56.5 -49 -63.85Q-49 -76.9 -49.35 -79.65Q-50.15 -85.25 -53.1 -91.9L-54.45 -94.6L-54.5 -94.75L-50.25 -94.9L-38.85 -94Q-36.55 -93.45 -34.65 -92.35Q-28.15 -88.55 -28.15 -78.25L-28.9 -62.15Q-32.5 -57.65 -33.75 -53.7Q-32.6 -52.9 -29.5 -51.35L-29.8 -50.75Q-30.75 -49.15 -30.75 -47.95M-37.45,-16.35L-37.4 -12.4L-42.25 -11.4L-50.25 -11Q-50.7 -12.85 -50.7 -17.1L-50.35 -29.9L-43 -30.35Q-42.95 -27.8 -41.75 -26.95Q-40.4 -26.1 -37.9 -25.9L-37.8 -25.9L-37.8 -25.25Q-37.55 -22.3 -37.45 -16.35M-28.15,-21.75Q-28.15 -17.5 -31.8 -14.9L-31.55 -25.65L-31.55 -26.15L-31.4 -26.15L-29.95 -26.2Q-28.9 -26.2 -28.3 -27L-28.15 -21.75" />
<path style="fill:#FCCC5A;fill-opacity:1" d="M-12.8,-44.95L-12.95 -44.95L-16.15 -45.65Q-19 -46.6 -23.8 -48.7L-29.2 -51.2L-29.5 -51.35Q-32.6 -52.9 -33.75 -53.7Q-32.5 -57.65 -28.9 -62.15L-28.3 -62.9L-20.9 -71.2L-18.6 -70.1Q-10.9 -66.35 -10.9 -64.1Q-10.9 -63.35 -12.45 -60.5Q-14.3 -57.3 -14.8 -55.5Q-10.15 -55.5 -5 -53.1Q-1.2 -51.4 0.65 -51L0.75 -51L2.25 -50.75L4 -50.45L7.4 -50.55Q8.45 -50.75 11.4 -52.25L11.4 -53L11.6 -53.3L16.25 -61.15Q18.1 -64.3 18.1 -64.75Q18.1 -66.1 12.4 -66.5Q13.25 -69.4 14.65 -71.8L22.1 -69.3Q27.75 -67.5 27.75 -66.35L27.6 -65.2L27.55 -64.8L25.7 -58.35L25.3 -57Q23.95 -52.85 22.25 -50.1L21.05 -50.8L21.25 -49.7L21.4 -48.95L21.5 -48.7L23.65 -38.05L22.25 -37.95L22.25 -39Q21.9 -41.5 20.3 -41.5L18.1 -40.75L16.35 -40Q15.65 -41.5 13.95 -41.5Q10.3 -41.5 8.15 -39.6Q6.9 -40.55 3.85 -40.35L3.1 -40.3Q1.9 -40.35 1.5 -39.45L-6 -41.7Q-10.7 -43.05 -12.9 -44.9L-12.8 -44.95M-9.85,-48.5L-9.85 -48.75Q-10.35 -48.3 -10.2 -47.4L-9.85 -48.5M-0.15,-30.85L-1.35 -27.25Q-1.35 -25 1.75 -25L5 -25.45Q6.25 -25.95 7.25 -26.75Q7.55 -26.35 8.1 -26.3L9.65 -26.2Q11.05 -26.2 12.2 -26.7Q13.05 -27.1 13.8 -27.7L14.6 -26.85L16.7 -26.75L18.4 -26.9Q20.7 -27.25 21.5 -28.75Q22.05 -29.8 22.2 -32.75L24.65 -32.85L24.65 -32.75Q25.9 -25.05 25.9 -22.5Q25.9 -19.4 23.6 -17.2Q21.25 -14.95 16.55 -13.5Q10 -11.55 0.5 -11.55L-11.95 -12.45L-12.55 -12.5L-22.8 -13.05L-24.1 -13.05Q-25.4 -19.85 -25.4 -21.85L-25.5 -26.35L-25.3 -30.45L-24.35 -30.45L-20.85 -30.3L-15 -30.65L-14.5 -30.7L-14.3 -30.75L-0.15 -30.85M-13.75,-36.75L-15.1 -36.45L-20.85 -36.2L-24.65 -36.25Q-24.65 -37.65 -23.75 -41.85Q-19.65 -40.7 -15.35 -38.65L-13.3 -37.65L-13.75 -36.75" />
<path style="fill:#F0B98F;fill-opacity:1" d="M44.5,-115.85L42.9 -114.9L41.6 -113.4Q40.15 -112.8 36.55 -112.15L33.35 -111.65L32.55 -111.5L31.9 -113.75L29.8 -118.7Q28.3 -122.75 26.25 -124.3Q24.15 -126 20.3 -126Q19.3 -126 14.2 -124L10.4 -122.45Q10.05 -123.55 7.3 -125.8Q4.15 -128.35 4.15 -128.75Q4.15 -129.1 16.5 -131.1Q24.5 -132.3 27.25 -133.6L28.4 -133.4Q35.35 -131.7 36.85 -121.35L35.85 -121.25Q32.75 -123.05 32.75 -120Q32.75 -118.05 35.35 -117.45L37.4 -117.05L37.8 -117.55Q38.35 -118 39.55 -118.25L42.3 -118.45Q43.75 -118.45 44.2 -117.3L44.3 -117Q44.9 -119.55 46.7 -120L50.5 -120.55Q51.75 -120.55 52.25 -120L52.4 -119.75L52.3 -120.1L55.5 -121.05L57.75 -121.15L59.65 -120.7Q60.4 -119.95 60.4 -117.65L60.4 -117.5L59.8 -117.5Q58.35 -118.2 56.6 -118.2L55.75 -118.1L55.7 -118.05L55.25 -118L55 -118L52.55 -117.75Q47.2 -117.15 44.5 -115.85M40.85,-95.45L40.75 -95.45L40.65 -95.5Q40.15 -96.45 39.1 -96.9Q36.9 -97.85 35.85 -99.35L40.05 -98.5Q40.35 -96.65 40.85 -95.45M27.65,-83.9Q29.55 -84.2 30.85 -84.95Q32.8 -86.25 35.35 -86.25L38.35 -85.85L38.65 -85.85L38.85 -85.15Q38.45 -83.75 35.35 -82.95L31.2 -82.3Q30.3 -82.3 29.15 -82.85Q28.15 -83.25 27.65 -83.9M-2.8,-72.65L-2.1 -72.75Q0 -72.75 0.35 -70.9Q1.5 -70.85 2.1 -70.15L3.1 -71.05L3.3 -70.9Q5.7 -69.05 6.7 -66.2Q9.95 -56.9 11.4 -53.45L10.85 -52.65Q7.6 -55 1.55 -61.2Q-5.7 -68.6 -5.7 -70.45Q-5.7 -72.6 -2.45 -73.45L-2.8 -72.65M3.1,-40.3L3.85 -40.35Q6.9 -40.55 8.15 -39.6Q10.3 -41.5 13.95 -41.5Q15.65 -41.5 16.35 -40L18.1 -40.75L20.3 -41.5Q21.9 -41.5 22.25 -39L22.25 -37.95L22.25 -35.4L22.2 -32.75Q22.05 -29.8 21.5 -28.75Q20.7 -27.25 18.4 -26.9L18.85 -30.2Q18.85 -32.4 18.45 -34.3L17.9 -37L16.85 -37L16.85 -36.35Q16.85 -32 15 -29.2L14.15 -28.05L13.45 -28.25L13.8 -27.7Q13.05 -27.1 12.2 -26.7L12.75 -31.1L13.15 -35.6L13.15 -37.2Q12.9 -38.5 11.5 -38.5Q10.75 -38.5 9.85 -37.95L9.3 -37.65L9.6 -33.75Q9.6 -28.95 7.25 -26.75Q6.25 -25.95 5 -25.45L5.55 -31.65Q5.55 -35.8 2.3 -37L1.4 -37L1.25 -38.8L1.5 -39.45Q1.9 -40.35 3.1 -40.3M-0.3,-36.45L1.4 -37L1.4 -36.45L-0.3 -36.45" />
<path style="fill:#F5EB6C;fill-opacity:1" d="M-80.4,-80.35Q-79.65 -82.2 -77.95 -83.55Q-75.15 -85.85 -71.25 -85.85Q-63.3 -85.85 -59.7 -66.85Q-57.45 -55 -57.45 -42.1Q-57.45 -39.1 -58 -36.3L-65.9 -36.6L-79.55 -37.1L-79.45 -42.9L-80.85 -65L-80.95 -67.1L-80.95 -67.3L-81.55 -78.25L-80.4 -80.35M-74.05,-76.75L-63.95 -57.3L-62.75 -57.55L-62.4 -57.75Q-62.25 -58.55 -62.25 -59.95Q-62.25 -64.95 -64.85 -71.2Q-68.35 -79.6 -73.95 -78.8L-74.05 -76.75M-71.95,-50.65Q-71.8 -51.9 -71.8 -53.7Q-71.8 -60.45 -74.9 -63.5Q-78 -66.5 -78 -59.25Q-77.95 -57 -77.3 -54.75Q-76.1 -50.25 -73.25 -50.25L-72.15 -50.45L-71.95 -50.65M-65.05,-50.1Q-65.05 -49.3 -64 -47Q-62.8 -44.5 -61.95 -43.75Q-60.5 -44.75 -60.15 -45.7Q-60 -46.1 -60 -47.75Q-60 -52.45 -62.55 -53.4Q-65.05 -54.4 -65.05 -50.1M-76,-30.5Q-68.65 -30.15 -65.15 -30.45L-59.95 -30.25Q-61.35 -27.3 -63.45 -24.6Q-69.65 -16.7 -77.05 -18.8Q-77.15 -18.8 -77.25 -18.9L-77.3 -18.9L-77.75 -19L-77.8 -19L-78.45 -21.1Q-79.2 -24.4 -79.45 -30.35L-79.45 -30.65L-76 -30.5" />
<path style="fill:#FFFCE2;fill-opacity:1" d="M-73.95,-78.8Q-68.35 -79.6 -64.85 -71.2Q-62.25 -64.95 -62.25 -59.95Q-62.25 -58.55 -62.4 -57.75L-62.75 -57.55L-63.95 -57.3L-74.05 -76.75L-73.95 -78.8M-72.15,-50.45L-73.25 -50.25Q-76.1 -50.25 -77.3 -54.75Q-77.95 -57 -78 -59.25Q-78 -66.5 -74.9 -63.5Q-71.8 -60.45 -71.8 -53.7Q-71.8 -51.9 -71.95 -50.65L-72.15 -50.45M-62.55,-53.4Q-60 -52.45 -60 -47.75Q-60 -46.1 -60.15 -45.7Q-60.5 -44.75 -61.95 -43.75Q-62.8 -44.5 -64 -47Q-65.05 -49.3 -65.05 -50.1Q-65.05 -54.4 -62.55 -53.4" />
<path style="fill:#FF3333;fill-opacity:1" d="M-6.2,12.25L-10.05 12.25L-14.95 11.95L-16.9 11.7L-23.15 11.25Q-25.05 11.05 -25.05 8.4Q-25.05 4.75 -24.1 -3.05L-22.8 -13.05L-12.55 -12.5L-11.95 -12.45L0.5 -11.55Q10 -11.55 16.55 -13.5Q21.25 -14.95 23.6 -17.2L24.8 -5.25L25.05 3.95Q25.05 9.7 19.65 10.25L18.05 10.2L10 10L6.75 10.05Q6.25 11.25 5.35 11.4L-4.8 12.25L-6.2 12.25M9.6,2.15L7.05 1.45L7.1 2.3L9.6 2.15" />
<path style="fill:#434343;fill-opacity:1" d="M40.55,-111.2Q39.65 -108.55 39.65 -104.45Q39.65 -102.3 39.8 -100.5L40.05 -98.5L35.85 -99.35L31.55 -100.25L29.2 -100.85Q24.55 -102.4 24.55 -105.25Q24.55 -110.45 29.3 -111.05L29.45 -111.1L32.55 -111.5L33.35 -111.65L36.55 -112.15Q40.15 -112.8 41.6 -113.4L40.55 -111.2" />
<path style="fill:#918E8E;fill-opacity:1" d="M40.05,-98.5L39.8 -100.5Q39.65 -102.3 39.65 -104.45Q39.65 -108.55 40.55 -111.2L41.6 -113.4L42.9 -114.9L44.5 -115.85Q47.2 -117.15 52.55 -117.75L55 -118Q53.3 -117.55 52.55 -116L52.3 -115.4L51.8 -113.95L51.45 -112.65Q50.4 -108.6 50.4 -105.55Q50.4 -101.25 52.05 -97.2Q53.35 -93.75 55.35 -92.65L49.6 -92.9L49.45 -92.9L46.05 -93.1L43.1 -93.45Q41.7 -93.65 40.85 -95.45Q40.35 -96.65 40.05 -98.5M29.2,-100.85L27.05 -100.1Q24.5 -100.1 22.8 -102.1Q21.2 -103.9 21.2 -106.35Q21.2 -109.1 22.55 -110.7Q24 -112.45 26.85 -112.45L28.25 -112.2Q29.1 -111.95 29.3 -111.05Q24.55 -110.45 24.55 -105.25Q24.55 -102.4 29.2 -100.85" />
<path style="fill:#777575;fill-opacity:1" d="M60.4,-117.5L64 -117.65L68 -118.05L69.45 -118.05Q70.75 -118.65 72.1 -118.65Q75.15 -118.65 76.75 -114.4Q78.35 -110.1 78.15 -105.5Q77.95 -100.95 76.1 -97.05Q74.2 -93.2 71.05 -93.2L70.55 -93.2L60.65 -93.2Q59.15 -92.15 57.25 -92.15Q56.2 -92.15 55.35 -92.65Q53.35 -93.75 52.05 -97.2Q50.4 -101.25 50.4 -105.55Q50.4 -108.6 51.45 -112.65L51.8 -113.95L52.3 -115.4L52.55 -116Q53.3 -117.55 55 -118L55.25 -118L55.7 -118.05L55.75 -118.1L56.6 -118.2Q58.35 -118.2 59.8 -117.5L60.4 -117.5M54.35,-111.4L54.35 -111.25Q53.8 -108.45 53.8 -103.6Q53.8 -100.8 54.7 -98.5Q55.75 -95.65 57.75 -95.65Q61.25 -95.65 61.25 -107.1Q61.25 -109 60.05 -111.6L59.1 -113.25Q57.95 -114.8 56.45 -114.8Q55.55 -114.8 55 -113.75Q54.5 -112.95 54.45 -111.75L54.35 -111.4M71.6,-115.35Q70.15 -115.35 69.8 -114.65Q69.65 -114.4 69.65 -113.7L69.2 -111.25L68.85 -108Q68.85 -103.6 69.15 -101.8Q69.8 -97.65 71.8 -97.65Q73.7 -97.65 74.55 -101.55Q75.15 -104.05 75.15 -107.2Q75.15 -109.6 74.45 -112Q73.45 -115.35 71.6 -115.35M64.55,-106.55L64.5 -103.85L65.85 -103.9L65.9 -106.55L64.55 -106.55" />
<path style="fill:#3F3D3D;fill-opacity:1" d="M59.45,-105.05Q59.35 -101.6 57.95 -101.6Q56.95 -101.6 56.45 -102.85Q56.2 -103.5 56.2 -104.2Q56.2 -108.05 57.8 -108.2Q58.45 -108.2 58.85 -107.7L58.6 -107.8Q57.65 -107.9 57.65 -106.95L57.8 -106.3Q58 -105.6 58.5 -105.6Q59.2 -105.6 59.35 -105.9L59.45 -105.95L59.45 -105.05M72.6,-108.55Q71.7 -108.6 71.7 -107.6L71.7 -107.1Q71.75 -106.55 72.25 -106.55Q72.9 -106.55 73.15 -106.85L73.25 -105.55Q73.45 -102.5 71.9 -102.5Q70.7 -102.5 70.5 -104.05Q70.35 -104.8 70.5 -105.55Q70.5 -109.1 71.9 -109Q72.4 -109 72.75 -108.55L72.6 -108.55" />
<path style="fill:#F0E8E8;fill-opacity:1" d="M59.45,-106.65L59.45 -105.95L59.35 -105.9Q59.2 -105.6 58.5 -105.6Q58 -105.6 57.8 -106.3L57.65 -106.95Q57.65 -107.9 58.6 -107.8L58.85 -107.7Q59.45 -107.45 59.45 -106.65M72.75,-108.55Q73.45 -108.4 73.45 -107.5L73.15 -106.85Q72.9 -106.55 72.25 -106.55Q71.75 -106.55 71.7 -107.1L71.7 -107.6Q71.7 -108.6 72.6 -108.55L72.75 -108.55" />
<path style="fill:#FFD366;fill-opacity:1" d="M65.9,-106.55L65.85 -103.9L64.5 -103.85L64.55 -106.55L65.9 -106.55" />
<path style="fill:#3366FF;fill-opacity:1" d="M21.05,-50.8L22.25 -50.1L22.2 -50.05L21.05 -50.8" />
<linearGradient
id="LinearGradID_18" gradientUnits="userSpaceOnUse" gradientTransform="matrix(-0.000579834, 0.0769196, -0.075943, -0.00088501, 77.75, 209.1)" spreadMethod ="pad" x1="-819.2" y1="0" x2="819.2" y2="0" >
<stop  offset="0" style="stop-color:#BAE7BF;stop-opacity:1" />
<stop  offset="0.470588" style="stop-color:#61B46A;stop-opacity:1" />
</linearGradient>
<path style="fill:url(#LinearGradID_18) " d="M56.1,183.2Q53.75 170 51.15 148.95L99.65 148.95L99.65 183.2L56.1 183.2M-76.9,183.1L-72.5 183.2L-79.8 183.2L-76.9 183.1" />
<path style="fill:none;stroke-width:1;stroke-linecap:butt;stroke-linejoin:miter;stroke-miterlimit:3;stroke:#333333;stroke-opacity:1" d="M29.3,-111.05Q24.55 -110.45 24.55 -105.25Q24.55 -102.4 29.2 -100.85L27.05 -100.1Q24.5 -100.1 22.8 -102.1Q21.2 -103.9 21.2 -106.35Q21.2 -109.1 22.55 -110.7Q24 -112.45 26.85 -112.45L28.25 -112.2Q29.1 -111.95 29.3 -111.05L29.45 -111.1L32.55 -111.5L33.35 -111.65L33.4 -112.9Q34.85 -113.5 36.05 -113.5L36.5 -113.45Q36.55 -115.9 37.4 -117.05L35.35 -117.45Q32.75 -118.05 32.75 -120Q32.75 -123.05 35.85 -121.25M36.85,-121.35Q35.35 -131.7 28.4 -133.4L27.25 -133.6Q24.5 -132.3 16.5 -131.1Q4.15 -129.1 4.15 -128.75Q4.15 -128.35 7.3 -125.8Q10.05 -123.55 10.4 -122.45L10.4 -122.2Q10.4 -120.75 8.05 -117.25Q5.55 -113.7 5.55 -112.2Q5.55 -109.7 6.35 -105.55L7.6 -98.2M6.95,-98Q4.1 -98 3.45 -99.7Q2.55 -102.2 1.7 -102.75L0.35 -102.75M28.65,-134.95Q28.65 -136.65 25.65 -137.15L21.05 -137.35Q15.85 -137.35 7.2 -135.45Q-4.8 -132.8 -4.8 -128.75Q-4.8 -125.45 -2.8 -118.65L0.15 -109L0.15 -103.65L-0.05 -103.45Q-0.5 -104.05 -1.95 -104.45L-4.5 -104.85Q-5.8 -104.85 -6.75 -103.8Q-7.55 -102.95 -8.05 -101.35Q-8.85 -98.95 -8.85 -96.5Q-8.85 -91.95 -6.7 -88.95Q-4.35 -85.65 -0.4 -85.65Q2.1 -85.65 4.3 -86.65L5.9 -87.55L6.05 -87.7L8.05 -89.4M28.65,-134.95L28.65 -134.6Q28.4 -134.15 27.25 -133.6M13.25,-114.25L16 -115.1L19 -116.2Q22.1 -117 26.25 -117L25.85 -119.75Q25.55 -120.95 23.85 -120.95Q21.6 -120.95 17.2 -118.3Q13.05 -115.8 12.4 -114.45L13.25 -114.25M37.4,-117.05L37.8 -117.55Q38.35 -118 39.55 -118.25L36.9 -120.55L36.9 -120.6L35.85 -121.25M36.85,-121.35L36.9 -120.6M33.35,-111.65L36.55 -112.15L36.45 -112.8L36.5 -113.45M39.55,-118.25L42.3 -118.45Q43.75 -118.45 44.2 -117.3L44.3 -117Q44.9 -119.55 46.7 -120L50.5 -120.55Q51.75 -120.55 52.25 -120L52.3 -120.1L55.5 -121.05L57.75 -121.15L59.65 -120.7Q60.4 -119.95 60.4 -117.65L60.4 -117.5L64 -117.65L68 -118.05L69.45 -118.05Q70.75 -118.65 72.1 -118.65Q75.15 -118.65 76.75 -114.4Q78.35 -110.1 78.15 -105.5Q77.95 -100.95 76.1 -97.05Q74.2 -93.2 71.05 -93.2L70.55 -93.2L60.65 -93.2Q59.15 -92.15 57.25 -92.15Q56.2 -92.15 55.35 -92.65L49.6 -92.9L49.1 -81.45Q48.6 -74.05 47.4 -69Q46.95 -67.4 43.8 -65.35L38.85 -62.5Q36.6 -61 32.45 -59.35L26.4 -57L25.3 -57Q23.95 -52.85 22.25 -50.1L22.2 -50.05L21.4 -48.95L21.5 -48.7L23.65 -38.05L35.15 -38.85L45.85 -39.95L45.85 -41.5Q45.35 -42.3 45.35 -43L45.55 -43.65Q46.05 -44.35 47.65 -44.75L51.4 -45.25Q56 -45.25 57.25 -43.75Q58.3 -42.4 58.3 -37.5Q58.3 -32.65 58 -32.25Q57.55 -31.5 55 -31.3M54.8,-30.85L51.25 32.4L51.25 32.45L60.85 31.8Q64.45 31.8 64.7 43.75Q64.9 55.7 64.15 63.9Q63.6 69.75 60.7 71.95Q59.5 72.75 58 73L53.85 73.55L44.9 74.25L42.5 74.4L42.25 78.8L42.95 83.2L46 106.3L49 131.65L50.85 146.55L51.15 148.95M99.65,148.95L99.65 -182.9L-89.3 -182.9Q-85.6 -179.6 -85.6 -176.3Q-85.6 -173.6 -86.55 -169L-82.25 -168.85L-82.15 -168.85Q-68.25 -168.15 -55.4 -164.3L-55.05 -164.25L-55 -164.15Q-44.45 -161.05 -34.65 -155.75Q-6.6 -140.6 -6.75 -116.8L-6.75 -111L-6.75 -103.8L-20.85 -102.4L-20.5 -95.3Q-20 -85.85 -18.95 -74L-14.6 -75.85L-6.35 -78.9L-6.25 -79L-5.05 -78.85L-4.65 -78.85L-3.65 -78.7L1.25 -78L3.15 -80.4Q3.95 -81.85 5.15 -85.05L5.9 -87.55M36.55,-112.15Q40.15 -112.8 41.6 -113.4L42.9 -114.9L44.5 -115.85L44.3 -117M29.2,-100.85L31.55 -100.25L35.85 -99.35L40.05 -98.5L39.8 -100.5Q39.65 -102.3 39.65 -104.45Q39.65 -108.55 40.55 -111.2L41.6 -113.4M64.55,-106.55Q64.55 -111.45 62.75 -114.6Q61.75 -116.25 60.4 -117.15L59.8 -117.5Q58.35 -118.2 56.6 -118.2L55.75 -118.1L55.7 -118.05L55.25 -118L55 -118Q53.3 -117.55 52.55 -116L52.3 -115.4L51.8 -113.95L51.45 -112.65Q50.4 -108.6 50.4 -105.55Q50.4 -101.25 52.05 -97.2Q53.35 -93.75 55.35 -92.65M44.5,-115.85Q47.2 -117.15 52.55 -117.75L52.4 -119.75L52.25 -120M52.55,-117.75L55 -118M54.35,-111.4L54.35 -111.25Q53.8 -108.45 53.8 -103.6Q53.8 -100.8 54.7 -98.5Q55.75 -95.65 57.75 -95.65Q61.25 -95.65 61.25 -107.1Q61.25 -109 60.05 -111.6L59.1 -113.25Q57.95 -114.8 56.45 -114.8Q55.55 -114.8 55 -113.75Q54.5 -112.95 54.45 -111.75L54.35 -111.4M59.8,-117.5L60.4 -117.5M55.25,-118L55.75 -118.1M71.6,-115.35Q70.15 -115.35 69.8 -114.65Q69.65 -114.4 69.65 -113.7L69.2 -111.25L68.85 -108Q68.85 -103.6 69.15 -101.8Q69.8 -97.65 71.8 -97.65Q73.7 -97.65 74.55 -101.55Q75.15 -104.05 75.15 -107.2Q75.15 -109.6 74.45 -112Q73.45 -115.35 71.6 -115.35M70.55,-93.2Q67.15 -93.5 66.55 -96.5Q65.85 -99.55 65.85 -103.9L65.9 -106.55L65.9 -106.65Q65.9 -109.1 66.2 -110.55L66.7 -113.2Q67.1 -114.8 67.6 -115.8L68.25 -117Q68.7 -117.65 69.45 -118.05M64.55,-106.55L64.5 -103.85M35.85,-99.35Q36.9 -97.85 39.1 -96.9Q40.15 -96.45 40.65 -95.5L40.75 -95.45L40.85 -95.45Q41.7 -93.65 43.1 -93.45L46.05 -93.1L49.45 -92.9L49.6 -92.9M46.05,-93.1Q45 -90.65 44 -89.25L42.1 -87.2Q42.9 -82.5 40.85 -74.65Q38.5 -65.45 34.5 -65.45Q33.15 -65.45 31.25 -66.95L28.25 -65.45L27.6 -65.2L27.55 -64.8L25.7 -58.35L25.3 -57M40.85,-95.45Q40.35 -96.65 40.05 -98.5M40.75,-95.45L40.9 -95.2Q41.45 -94.05 41.45 -92.35Q41.45 -91.2 40.3 -90.4L40.2 -90.3Q39.1 -89.8 37.75 -89.8Q36.05 -89.8 34.5 -91.2Q33 -92.7 31.45 -92.7Q30.85 -92.7 30.15 -91.95Q29.3 -91.35 28.6 -91.35Q26.9 -91.35 26.85 -93.3L23.15 -93.85L20.85 -93.5L18.4 -93.1Q16.9 -93.1 15.2 -94Q13.6 -94.9 13.05 -96.05L12.8 -96.05Q13.05 -90.4 16.4 -87.05Q17.65 -85.8 19.2 -85.05Q21.85 -83.75 25.2 -83.75L27.55 -83.9L27.65 -83.9Q29.55 -84.2 30.85 -84.95Q32.8 -86.25 35.35 -86.25L38.35 -85.85L38.65 -85.85L39.85 -86.05Q41 -86.4 42.1 -87.2M26.85,-93.3Q26.7 -93.6 26.7 -93.85Q26.7 -95.7 28.25 -96.45M38.65,-85.85L38.85 -85.15Q38.45 -83.75 35.35 -82.95L31.2 -82.3Q30.3 -82.3 29.15 -82.85Q28.15 -83.25 27.65 -83.9M31.25,-66.95Q28.7 -69.1 25.15 -74.05L23.25 -76.8L23 -77Q21.2 -79.55 18.4 -79.8L12.8 -80.35L12.75 -80.35L8.45 -76.5Q13.25 -75.45 15.55 -74.15M15.75,-73.5L14.65 -71.8L22.1 -69.3Q27.75 -67.5 27.75 -66.35L27.6 -65.2M1.25,-98.6L-1.55 -98.6Q-3.95 -97.4 -3.95 -94.9Q-3.95 -92.7 -2.2 -91.55Q-0.9 -90.8 0.7 -90.8L2.55 -91.2L3.95 -91.75M9.6,-84.35Q9.7 -81.1 12.6 -80.4L12.8 -80.35M11.6,-53.3L16.25 -61.15Q18.1 -64.3 18.1 -64.75Q18.1 -66.1 12.4 -66.5Q13.25 -69.4 14.65 -71.8M2.1,-70.15L3.1 -71.05L3.3 -70.9Q5.7 -69.05 6.7 -66.2Q9.95 -56.9 11.4 -53.45L11.4 -53L11.15 -52.45L11.4 -52.25M11.6,-53.3L11.4 -53L11.4 -52.25Q8.45 -50.75 7.4 -50.55L4 -50.45L2.25 -50.75L0.75 -51L0.65 -51Q-1.2 -51.4 -5 -53.1Q-10.15 -55.5 -14.8 -55.5Q-14.3 -57.3 -12.45 -60.5Q-10.9 -63.35 -10.9 -64.1Q-10.9 -66.35 -18.6 -70.1L-20.9 -71.2L-28.3 -62.9L-28.9 -62.15Q-32.5 -57.65 -33.75 -53.7Q-32.6 -52.9 -29.5 -51.35L-29.2 -51.2L-23.8 -48.7Q-19 -46.6 -16.15 -45.65L-12.95 -44.95L-12.8 -44.95Q-11.55 -44.95 -10.75 -46.3L-10.2 -47.4Q-10.35 -48.3 -9.85 -48.75L-9.85 -48.5L-10.2 -47.4M3.1,-71.05L6.05 -74.1L8.45 -76.5M11.15,-52.45L10.85 -52.65Q7.6 -55 1.55 -61.2Q-5.7 -68.6 -5.7 -70.45Q-5.7 -72.6 -2.45 -73.45L-0.7 -75.8L1.25 -78M16.25,-61.15Q19.45 -57.95 21.05 -50.8L21.25 -49.7L21.4 -48.95M23.25,-76.8Q19.35 -82.5 19.2 -85.05M7.25,-26.75Q7.55 -26.35 8.1 -26.3L9.65 -26.2Q11.05 -26.2 12.2 -26.7Q13.05 -27.1 13.8 -27.7L14.6 -26.85L16.7 -26.75L18.4 -26.9Q20.7 -27.25 21.5 -28.75Q22.05 -29.8 22.2 -32.75L22.25 -35.4L22.25 -37.95L22.25 -39Q21.9 -41.5 20.3 -41.5L18.1 -40.75L16.35 -40L16.55 -39.45L16.85 -37M22.25,-37.95L23.65 -38.05M-15,-30.65L-20.85 -30.3L-24.35 -30.45L-25.3 -30.45L-25.5 -26.35L-25.4 -21.85Q-25.4 -19.85 -24.1 -13.05L-22.8 -13.05L-12.55 -12.5L-11.95 -12.45L0.5 -11.55Q10 -11.55 16.55 -13.5Q21.25 -14.95 23.6 -17.2Q25.9 -19.4 25.9 -22.5Q25.9 -25.05 24.65 -32.75L24.65 -32.85L22.2 -32.75M24.65,-32.85L34.8 -33.7Q41.35 -34.35 46 -35.3Q45.85 -37.1 45.85 -39.95M16.35,-40Q15.65 -41.5 13.95 -41.5Q10.3 -41.5 8.15 -39.6L8.65 -39.1L9.3 -37.65M14.15,-28.05L15 -29.2Q16.85 -32 16.85 -36.35L16.85 -37M8.15,-39.6Q6.9 -40.55 3.85 -40.35L3.1 -40.3Q1.9 -40.35 1.5 -39.45L1.25 -38.8L1.4 -37M1.4,-36.45L1.25 -34.7L-0.15 -30.85L-1.35 -27.25Q-1.35 -25 1.75 -25L5 -25.45Q6.25 -25.95 7.25 -26.75Q9.6 -28.95 9.6 -33.75L9.3 -37.65M1.5,-39.45L-6 -41.7Q-10.7 -43.05 -12.9 -44.9L-12.95 -44.95M-13.3,-37.65L-11.85 -36.8L-8.15 -37L-0.3 -36.45L1.4 -36.45L1.4 -37M14.15,-28.05L13.8 -27.7M23.6,-17.2L24.8 -5.25L25.05 3.95Q25.05 9.7 19.65 10.25L18.05 10.2Q17.1 12.65 16.95 14L16.9 17.1Q16.9 18.35 17.45 20.8L18.05 23.75L17.05 27.35Q16.05 30.7 16.05 31.8Q16.05 32.6 16.35 33.1L39.35 33.15L47.65 32.65L51.25 32.45M45.55,-43.65L45.85 -41.5M48.6,32.2L48 32.55L47.75 32.6L47.75 30.55Q48.6 7.8 48.6 -31.4L49 -31.45L48.65 -31.5L48.6 -31.5Q46.25 -31.9 46.1 -32.8L46 -35.3M49,-31.45L52.95 -31.25L55 -31.3M60.65,-93.2Q64 -95.55 64.5 -103.85M9.6,2.15L7.05 1.45L7.1 2.3M9.6,2.15Q10.2 2.15 11.85 0.9L14.1 -0.8M10,10L6.75 10.05L7.2 7.2L7.1 2.3M6.75,10.05Q6.25 11.25 5.35 11.4L-4.8 12.25L-5.35 15.5L-5.9 18.9Q-5.9 19.7 -5.35 21.05Q-4.8 22.4 -4.8 22.95Q-4.8 24.8 -5.85 28.1L-7.3 32.85L9.85 33L9.85 31.25Q10.15 24.45 10.15 10.85M10,10L18.05 10.2M9.85,33L16.35 33.1M42.5,74.4L35.7 74.8L-5.05 76.05L-27.2 75.65L-47.1 75.05L-70.9 74.1L-98.65 73.2L-98.7 73.2L-98.7 104.3L-96.3 104.3L-65.6 106.35L-59.7 106.7L-38.25 107.7L-19.5 107.4Q-4.3 106.9 4.6 106.95L26.05 106.5Q38.75 106 46 106.3M-98.7,143.05L-92.65 142.9L-61.1 144.4L-41.6 145.35L18.6 147.8Q26.55 147.8 39.7 147.25L50.85 146.55M99.65,148.95L99.65 183.2L56.1 183.2Q53.75 170 51.15 148.95M56.1,183.2L-55.05 183.2L-72.5 183.2L-79.8 183.2L-98.7 183.2L-98.7 143.05L-98.7 104.3M110.15,193.3L-110.15 193.3L-110.15 -193.3L110.15 -193.3L110.15 193.3M7.05,1.45L2.25 -0.55M-87.85,-167.75L-87.45 -167.1L-84.4 -165.1Q-72.25 -156.5 -65.25 -139.3Q-58.1 -121.8 -59.1 -102.7L-59.1 -102.55L-71.95 -103.1Q-87.95 -103.8 -95.75 -102.7L-98.7 -102.7L-98.7 -37.05L-97.15 -37.35L-89.8 -37.35L-89.65 -37.35L-79.55 -37.1M-81.55,-78.25L-81.7 -83.05L-82.15 -84.65L-82.25 -85.85L-82.25 -86.95Q-82.25 -90.8 -78.15 -92.65L-76.05 -93.45Q-72.15 -94.55 -63.95 -94.55L-54.5 -94.75L-50.25 -94.9L-38.85 -94Q-36.55 -93.45 -34.65 -92.35Q-28.15 -88.55 -28.15 -78.25L-28.9 -62.15M-59.1,-102.55L-45.9 -102.15Q-30.7 -102.15 -25.85 -102.3L-20.85 -102.4M-87.85,-167.75L-96.9 -166.95L-98.15 -166.9L-98.7 -166.85L-98.7 -182.9L-89.3 -182.9M-87.85,-167.75L-86.75 -167.9L-86.55 -169M-98.7,-166.85L-98.7 -103.35L-96.3 -103.8M-98.7,-102.7L-98.7 -103.35M-82.25,-85.85Q-81.7 -84.55 -81.7 -83.05L-80.4 -80.35Q-79.65 -82.2 -77.95 -83.55Q-75.15 -85.85 -71.25 -85.85Q-63.3 -85.85 -59.7 -66.85Q-57.45 -55 -57.45 -42.1Q-57.45 -39.1 -58 -36.3L-50.05 -36.25L-49.85 -40.15Q-49 -56.5 -49 -63.85Q-49 -76.9 -49.35 -79.65Q-50.15 -85.25 -53.1 -91.9L-54.45 -94.6L-54.5 -94.75M-59.95,-30.25L-65.15 -30.45Q-68.65 -30.15 -76 -30.5L-79.45 -30.65L-87.75 -31.4L-90.2 -31.4L-98.7 -31.4L-98.7 -37.05M-98.7,-31.4L-98.7 30.2L-98.5 30.15L-98.45 30.1L-98.45 30L-98.1 30L-96.2 29.6L-96.2 29.95Q-97.05 31.1 -94 30.75Q-91.05 30.35 -83 30.85L-65.2 31.9L-56.95 32.2L-38.25 32.55L-33 32.6L-32.95 32.6L-14.95 32.8L-14.95 11.95M-38.25,32.2Q-38.25 18.95 -37.4 -10.25L-37.4 -12.4L-42.25 -11.4L-50.25 -11L-50.15 -10.3M-5.05,-78.85L-6.35 -78.9M-20.9,-71.2L-22.8 -72L-21.85 -72.55L-21.75 -72.6L-21.7 -72.6L-18.95 -74M-2.45,-73.45L-2.8 -72.65M-81.55,-78.25L-80.95 -67.3L-80.95 -67.1L-80.85 -65L-79.45 -42.9L-79.55 -37.1L-65.9 -36.6L-58 -36.3M-50.05,-36.25Q-46.1 -36.25 -42.65 -36.4L-42.6 -37.2L-42.55 -38.15L-42.55 -38.25L-42.45 -38.4Q-41.7 -39.6 -39.3 -39.75L-35.3 -39.45Q-29.7 -39.45 -28.8 -38.7L-28.75 -38.65L-28.95 -44.75L-30.35 -46Q-30.75 -46.75 -30.75 -47.95Q-30.75 -49.15 -29.8 -50.75M-50.35,-29.9L-51.1 -29.95L-59.95 -30.25Q-61.35 -27.3 -63.45 -24.6Q-69.65 -16.7 -77.05 -18.8Q-77.15 -18.8 -77.25 -18.9L-77.3 -18.9L-77.8 -18.95Q-74.85 -10.85 -64.5 -10.85Q-55.75 -10.85 -50.25 -11Q-50.7 -12.85 -50.7 -17.1L-50.35 -29.9L-43 -30.35L-43 -32.2L-42.65 -36.4M-43,-30.35Q-42.95 -27.8 -41.75 -26.95Q-40.4 -26.1 -37.9 -25.9L-37.8 -25.9L-36.05 -25.9L-31.55 -26.15L-31.4 -26.15L-29.95 -26.2Q-28.9 -26.2 -28.3 -27Q-27.85 -27.7 -27.75 -29L-27.6 -29.95L-27.6 -30.1L-27.75 -32.75Q-27.75 -34.7 -27.9 -36L-27.95 -36.4Q-28.25 -38.2 -28.75 -38.65M-79.45,-30.65L-79.45 -30.35Q-79.2 -24.4 -78.45 -21.1L-77.8 -19L-77.75 -19L-77.3 -18.9M-77.8,-18.95L-77.8 -19L-78.15 -19L-77.8 -18.95M-13.3,-37.65L-15.35 -38.65Q-19.65 -40.7 -23.75 -41.85Q-24.65 -37.65 -24.65 -36.25L-20.85 -36.2L-15.1 -36.45L-13.75 -36.75M-11.85,-36.8L-13.75 -36.75M-22.8,-13.05L-24.1 -3.05Q-25.05 4.75 -25.05 8.4Q-25.05 11.05 -23.15 11.25L-16.9 11.7L-14.95 11.95L-10.05 12.25L-6.2 12.25L-4.8 12.25M-15,-30.65L-14.7 -30.75L-14.5 -30.75L-14.3 -30.75L-0.15 -30.85M-14.5,-30.75L-14.5 -30.7M-23.75,-41.85Q-27.1 -42.85 -27.25 -43.25L-28.95 -44.75M-31.55,-25.65L-31.8 -14.9Q-28.15 -17.5 -28.15 -21.75L-28.3 -27M-24.65,-36.25L-27.95 -36.4M-27.6,-30.1L-25.3 -30.45M-37.4,-12.4L-37.45 -16.35Q-37.55 -22.3 -37.8 -25.25M-81.55,-78.25L-80.4 -80.35M-32.95,32.2L-31.8 -14.9M-14.95,32.8L-9.6 32.85L-9.35 32.85L-7.3 32.85M-98.45,30.1L-98.1 30L-96.2 29.95M-98.7,73.2L-98.7 47L-98.7 36.1L-98.7 30.2M-72.5,183.2L-76.9 183.1L-79.8 183.2" />
</g>
</svg>
