<?xml version="1.0" encoding="utf-8"?>
<svg version="1.1" id="Layer_1"
xmlns="http://www.w3.org/2000/svg"
xmlns:xlink="http://www.w3.org/1999/xlink"
xmlns:author="http://www.sothink.com"
width="18px" height="21px"
xml:space="preserve">
<g id="276" transform="matrix(1, 0, 0, 1, 8.85, 10.35)">
<path style="fill:#FFC300;fill-opacity:1" d="M3.95,-1.55L3.85 -1.85Q3.85 -3.45 3.1 -4.85Q2.05 -6.75 0.2 -6.75Q-1.8 -6.75 -2.9 -5.2Q-3.85 -3.95 -4 -1.85L-6.9 -1.85Q-7.1 -5.5 -5.2 -7.55L-4.95 -7.85L-5.05 -7.45L-4 -7.1Q-3.25 -7.1 -2.8 -7.5L-1.85 -8.15L0 -8.4Q1.1 -8.4 2.1 -7.75Q3.15 -7 3.75 -5.75Q4.6 -4.65 4.85 -3.25Q4.95 -2.35 5.3 -1.5L3.95 -1.55M5.8,6.8Q3.45 9.2 0.8 9.2L-0.8 9.1Q-3.05 8.65 -3.7 8.05Q-5 6.75 -5.75 4.6L-7 0.25L-7.35 -0.9L-6.35 -0.75L-2.6 -0.45L-0.6 -0.65L-0.55 -0.65L-0.5 -0.65L1.3 -0.45L5.05 0.2Q6.3 0.35 6.55 2.45L6.65 4.95L7 5.7L5.8 6.8M-2.05,1.85Q-2.05 2.95 -1.25 3.55Q-1.15 4.55 -1.75 6.15L-2 6.75L0.8 6.75L2.35 6.6Q2.05 6.25 1.65 5.1Q1.1 3.75 1.1 3.35Q1.1 3.05 1.4 2.8L1.65 2Q1.65 1.5 1.15 1Q0.65 0.5 0.05 0.5L-1.3 0.8Q-2.05 1.15 -2.05 1.85M-3.35,2.65Q-3.4 2.45 -3.7 2.45Q-4.1 2.45 -4.1 2.9L-3.85 3.5L-3.35 3.2L-3.35 2.9L-3.35 2.65M-4.6,4.85Q-4.6 5.9 -3.45 5.9Q-3.15 5.9 -3.15 5.55L-3.15 5.15Q-2.9 4.1 -3.85 4.1Q-4.6 4.1 -4.6 4.85" />
<path style="fill:#312E24;fill-opacity:1" d="M-1.3,0.8L0.05 0.5Q0.65 0.5 1.15 1Q1.65 1.5 1.65 2L1.4 2.8Q1.1 3.05 1.1 3.35Q1.1 3.75 1.65 5.1Q2.05 6.25 2.35 6.6L0.8 6.75L-2 6.75L-1.75 6.15Q-1.15 4.55 -1.25 3.55Q-2.05 2.95 -2.05 1.85Q-2.05 1.15 -1.3 0.8" />
<path style="fill:#FAD86B;fill-opacity:1" d="M-8.25,-1.05L-8.3 -1.85L-6.9 -1.85L-4 -1.85L-0.9 -1.85L3.05 -1.6L3.95 -1.55L5.3 -1.5Q4.95 -2.35 4.85 -3.25Q4.6 -4.65 3.75 -5.75Q3.15 -7 2.1 -7.75Q1.1 -8.4 0 -8.4L-1.85 -8.15L-2.8 -7.5Q-3.25 -7.1 -4 -7.1L-5.05 -7.45L-4.95 -7.85Q-2.85 -9.85 -0.25 -9.85Q2.25 -9.9 3.8 -8.85Q5.25 -7.8 5.9 -6.6Q6.5 -5.4 6.8 -2L6.85 -1.55L7.3 -1.6L8.15 -1.5L8.35 0.1Q8.45 1.45 7.9 4.5L7.75 5.2L7.4 6.25L7 5.7L6.65 4.95L6.55 2.45Q6.3 0.35 5.05 0.2L1.3 -0.45L-0.5 -0.65L-0.55 -0.65L-0.6 -0.65L-2.6 -0.45L-6.35 -0.75L-7.35 -0.9L-8.25 -1.05" />
<path style="fill:#D4A50B;fill-opacity:1" d="M-7.35,-0.9L-7 0.25L-5.75 4.6Q-5 6.75 -3.7 8.05Q-3.05 8.65 -0.8 9.1L0.8 9.2Q3.45 9.2 5.8 6.8L7 5.7L7.4 6.25Q6.65 7.95 5.2 8.85Q3.1 10.15 -0.7 10.05Q-4.5 9.95 -6.35 7.65Q-8.1 5.4 -8.25 -1.05L-7.35 -0.9M-3.35,2.9L-3.35 3.2L-3.85 3.5L-4.1 2.9Q-4.1 2.45 -3.7 2.45Q-3.4 2.45 -3.35 2.65L-3.35 2.9M-3.85,4.1Q-2.9 4.1 -3.15 5.15L-3.15 5.55Q-3.15 5.9 -3.45 5.9Q-4.6 5.9 -4.6 4.85Q-4.6 4.1 -3.85 4.1" />
<path style="fill:none;stroke-width:1;stroke-linecap:butt;stroke-linejoin:miter;stroke-miterlimit:3;stroke:#51381E;stroke-opacity:1" d="M-4,-1.85L-0.9 -1.85L3.05 -1.6L3.95 -1.55L5.3 -1.5L6.1 -1.5L6.85 -1.55L7.3 -1.6L8.15 -1.5L8.35 0.1Q8.45 1.45 7.9 4.5L7.75 5.2L7.4 6.25Q6.65 7.95 5.2 8.85Q3.1 10.15 -0.7 10.05Q-4.5 9.95 -6.35 7.65Q-8.1 5.4 -8.25 -1.05L-8.3 -1.85L-6.9 -1.85M6.8,-2Q6.5 -5.4 5.9 -6.6Q5.25 -7.8 3.8 -8.85Q2.25 -9.9 -0.25 -9.85Q-2.85 -9.85 -4.95 -7.85L-5.2 -7.55Q-7.1 -5.5 -6.9 -1.85L-4 -1.85Q-3.85 -3.95 -2.9 -5.2Q-1.8 -6.75 0.2 -6.75Q2.05 -6.75 3.1 -4.85Q3.85 -3.45 3.85 -1.85M-1.3,0.8L0.05 0.5Q0.65 0.5 1.15 1Q1.65 1.5 1.65 2L1.4 2.8Q1.1 3.05 1.1 3.35Q1.1 3.75 1.65 5.1Q2.05 6.25 2.35 6.6L0.8 6.75L-2 6.75L-1.75 6.15Q-1.15 4.55 -1.25 3.55Q-2.05 2.95 -2.05 1.85Q-2.05 1.15 -1.3 0.8" />
</g>
</svg>
