<?xml version="1.0" encoding="utf-8"?>
<svg version="1.1" id="Layer_1"
xmlns="http://www.w3.org/2000/svg"
xmlns:xlink="http://www.w3.org/1999/xlink"
xmlns:author="http://www.sothink.com"
width="14px" height="13px"
xml:space="preserve">
<g id="31" transform="matrix(1, 0, 0, 1, 10, 6.6)">
<path style="fill:#FFFF00;fill-opacity:0.988235" d="M-3.9,4.55Q-3.9 2.65 -3.5 2.4L-3.5 1.65L-8.5 0.55L-5.65 0.05Q-3.5 -0.5 -3.5 -1.35L-3.75 -2.1L-3.75 -3.9L-2.65 -3.25L-1.6 -2.8L-0.85 -2.8Q-0.3 -5.35 0.2 -5.8L1.35 -3.95L2.25 -2.9L2.95 -1.8L1.75 -1.05Q0.95 -0.45 0.95 0.05L2 1.4L3.1 3L1.55 5.4L1.45 5.3L0.55 4Q-0.05 3.1 -0.85 3.1Q-0.95 3.1 -3.65 4.8L-3.9 4.55" />
<path style="fill:none;stroke-width:1;stroke-linecap:butt;stroke-linejoin:miter;stroke-miterlimit:3;stroke:#FF6600;stroke-opacity:1" d="M-3.65,4.8Q-0.95 3.1 -0.85 3.1Q-0.05 3.1 0.55 4L1.45 5.3L1.55 5.4L3.1 3L2 1.4L0.95 0.05Q0.95 -0.45 1.75 -1.05L2.95 -1.8L2.25 -2.9L1.35 -3.95L0.2 -5.8Q-0.3 -5.35 -0.85 -2.8L-1.6 -2.8L-2.65 -3.25L-3.75 -3.9L-3.75 -2.1L-3.5 -1.35Q-3.5 -0.5 -5.65 0.05L-8.5 0.55L-3.5 1.65L-3.5 2.4Q-3.9 2.65 -3.9 4.55M-3.65,4.8L-3.9 4.85L-3.9 4.55" />
</g>
</svg>
