<?xml version="1.0" encoding="utf-8"?>
<svg version="1.1" id="Layer_1"
xmlns="http://www.w3.org/2000/svg"
xmlns:xlink="http://www.w3.org/1999/xlink"
xmlns:author="http://www.sothink.com"
width="51px" height="53px"
xml:space="preserve">
<g id="45" transform="matrix(1, 0, 0, 1, 27.5, 47.3)">
<path style="fill:#77F5DB;fill-opacity:1" d="M8.55,-42L8.05 -41L7.2 -40.8L6.15 -40.9Q6.05 -42 6.25 -42.55Q6.45 -43.2 7.05 -43.2L7.75 -42.7L8.55 -42M19.2,-11.55Q19.75 -12.75 20.4 -12.75Q21.1 -12.75 21.9 -12.15Q22.8 -11.45 22.8 -10.5Q22.8 -8.25 20.85 -8.25Q19.2 -8.25 18.95 -9.45L18.9 -9.9L19.1 -10.6L19.05 -11.1L19.2 -11.55M-8,-46.75Q-7.6 -47.3 -6.65 -47.3L-5.3 -47.1Q-5 -46.85 -5 -45.75Q-5.25 -43.8 -6.65 -43.8Q-8.2 -43.8 -8.55 -44.8L-8.3 -46.1L-8 -46.75M-2.6,-15.65L-1.5 -16.85L-0.9 -16.85Q-0.4 -14.8 -0.3 -11.45L-0.3 -5.6Q-0.3 3.1 -1.5 4.1Q-2.1 4.55 -3.4 4.75L-4.7 4.8L-11.1 4.7L-12.45 4.7L-17.2 4.35L-17.75 4.1Q-16.45 -0.9 -11.05 -8.9Q-5.45 -17.2 -4.4 -24.6L-3.75 -24.7L-3.2 -20.25L-2.6 -15.65" />
<path style="fill:#D2DEEE;fill-opacity:1" d="M-9.5,-0.45L-4.7 -1.05L-4.7 -1.2L5.85 -1.2Q10.35 -0.55 10.35 1.15L9.95 1.8L8.85 2.6L0.9 2.75L-19.05 3.8Q-25.3 3.8 -27 2.85Q-27.5 2.6 -27.5 1.75Q-27.5 1.25 -26.25 1.1L-17.4 -0.3L-9.5 -0.45" />
</g>
</svg>
