<?xml version="1.0" encoding="utf-8"?>
<svg version="1.1" id="Layer_1"
xmlns="http://www.w3.org/2000/svg"
xmlns:xlink="http://www.w3.org/1999/xlink"
xmlns:author="http://www.sothink.com"
width="35px" height="24px"
xml:space="preserve">
<g id="160" transform="matrix(1, 0, 0, 1, 20.2, 14.45)">
<path style="fill:#FF0000;fill-opacity:0" d="M-20.2,-14.45L14.5 -14.45L14.5 8.9L-20.2 8.9L-20.2 -14.45" />
<path style="fill:#F7893F;fill-opacity:1" d="M-0.45,-12.65L-0.4 -12.65L-0.2 -12.5L0.7 -12.35Q1.65 -12.15 2.55 -11.5L4.05 -9.9L4.15 -9.7Q6.05 -6.95 6.2 -2.95L6.2 -1.2L4.3 -1.55L1.85 -2.05L0.05 -1.85L0.05 -2.7Q-0.15 -7.15 -2.1 -10.2L-2.25 -10.5L-2.9 -11.45L-4.7 -12.8L-0.2 -12.75L-0.3 -12.7L-0.45 -12.65M11.8,-2.15L8.5 -1.35L8.55 -2.75Q8.35 -7.2 6.5 -10.25L5.35 -11.6Q6.2 -12.2 7.1 -12.25L7.4 -12.25L7.85 -12.3Q9.75 -12.05 11.25 -9.65Q12.85 -7 13 -3.05L13.1 -1.7L11.8 -2.15M3.25,-4.6L3.5 -4.8L3.25 -4.55L3.25 -4.6M3,-4.35L3.1 -3.55Q3.3 -2.7 3.75 -2.75Q4.4 -2.75 4.35 -4.05Q4.3 -5.35 3.6 -5.4Q2.95 -5.5 3 -4.35M2,-3.35L2.15 -3.4L2.35 -4L2.05 -4.25Q1.75 -4.4 1.8 -4.05L1.9 -3.4L2 -3.35M9.85,-3.85Q10.05 -3.15 10.75 -3.15Q10.95 -3.15 11.15 -3.7L11.15 -4.35Q11.1 -5.8 10.4 -5.65Q9.6 -5.5 9.65 -4.45L9.85 -3.85M10.45,-4.45L10.35 -4.9L10.5 -4.45L10.45 -4.45M-4.55,-2.7Q-5.75 -3.9 -6.4 -3.9L-6.6 -3.85L-6.7 -4.25L-6.7 -4.05L-6.6 -3.85Q-7.35 -3.75 -7.95 -3L-9 -1.1Q-10.5 1.7 -12.7 1.75Q-15.5 1.75 -17.35 -1.25Q-18.3 -2.75 -18.7 -4.65Q-18.5 -7.5 -17.15 -9.7Q-15.5 -12.75 -13 -12.75L-12.6 -12.75Q-11.7 -12.75 -10.85 -12.2L-10.9 -12.9L-8.9 -12.9L-8.9 -12.75L-8.4 -12.75Q-7.8 -12.65 -6.85 -11.85L-4.75 -9.55L-4.65 -9.35L-4.65 -9.3Q-2.8 -6.65 -2.6 -2.65L-2.55 -1.6Q-3.6 -1.8 -4.55 -2.7M-15.85,-2.1Q-15.4 -0.9 -14.3 -0.9Q-12.9 -0.9 -13 -3.25Q-13.1 -6.15 -14.65 -6.15Q-16.1 -6.15 -16 -3.45L-15.85 -2.1M-13.3,-3.75L-13.35 -3.8L-13.4 -4.05L-13.3 -3.75M-13.25,-2.6L-13.3 -2.4L-13.3 -2.65L-13.25 -2.6M-11.5,-1.5Q-11.35 -1.5 -11.2 -2.05L-11.1 -2.7Q-11.15 -3.85 -11.7 -3.7Q-12.2 -3.6 -12.15 -2.55Q-12.1 -1.5 -11.5 -1.5" />
<path style="fill:#FFCC00;fill-opacity:1" d="M-0.2,-12.5L-0.4 -12.65L-0.3 -12.7L-0.2 -12.75Q0.75 -13.35 1.95 -13.35Q3.15 -13.3 4.3 -12.6L5.35 -11.6L6.5 -10.25Q8.35 -7.2 8.55 -2.75L8.5 -1.35Q8.4 2.15 6.95 4.8L6.3 5.85L4.75 7.35Q3.75 7.95 2.65 7.95Q1.7 7.95 0.9 7.45L0.7 7.4L0.55 7.25L2.15 6.3Q3.8 5 4.45 3.95L4.6 3.7Q5.95 1.6 6.2 -1.2L6.2 -2.95Q6.05 -6.95 4.15 -9.7L4.05 -9.9L2.55 -11.5Q1.65 -12.15 0.7 -12.35L-0.2 -12.5M-4.7,-12.8L-2.9 -11.45L-2.25 -10.5L-2.1 -10.2Q-0.15 -7.15 0.05 -2.7L0.05 -1.85Q0.05 2 -1.6 4.8L-1.7 5.1L-2.1 5.75L-3.7 7.3Q-4.7 8.05 -5.85 8.05L-7.05 7.85L-7.25 7.75L-7.6 7.55L-6.25 6.6L-4.35 4.25L-4.2 4L-4 3.75Q-2.7 1.5 -2.55 -1.6L-2.6 -2.65Q-2.8 -6.65 -4.65 -9.3L-4.65 -9.35L-4.75 -9.55L-6.85 -11.85Q-7.8 -12.65 -8.4 -12.75L-8 -13L-6.6 -13.25L-4.7 -12.8" />
<path style="fill:#FF6600;fill-opacity:1" d="M-3.7,7.3L-2.1 5.75L-1.7 5.1L-1.6 4.8Q0.05 2 0.05 -1.85L1.85 -2.05L4.3 -1.55L6.2 -1.2Q5.95 1.6 4.6 3.7L4.45 3.95Q3.8 5 2.15 6.3L0.55 7.25L0.7 7.4L-3.7 7.3M4.75,7.35L6.3 5.85L6.95 4.8Q8.4 2.15 8.5 -1.35L11.8 -2.15L13.1 -1.7Q12.9 1.3 11.45 3.9Q9.9 6.75 8.55 7L8.15 7L4.75 7.35M3.25,-4.55L3.5 -4.8L3.25 -4.6L3.25 -4.55M3.6,-5.4Q4.3 -5.35 4.35 -4.05Q4.4 -2.75 3.75 -2.75Q3.3 -2.7 3.1 -3.55L3 -4.35Q2.95 -5.5 3.6 -5.4M1.9,-3.4L1.8 -4.05Q1.75 -4.4 2.05 -4.25L2.35 -4L2.15 -3.4L2 -3.35L1.9 -3.4M9.65,-4.45Q9.6 -5.5 10.4 -5.65Q11.1 -5.8 11.15 -4.35L11.15 -3.7Q10.95 -3.15 10.75 -3.15Q10.05 -3.15 9.85 -3.85L9.65 -4.45M10.5,-4.45L10.35 -4.9L10.45 -4.45L10.5 -4.45M-2.55,-1.6Q-2.7 1.5 -4 3.75L-4.2 4L-4.35 4.25L-6.25 6.6L-7.6 7.55L-7.25 7.75L-10.9 7.8L-11.55 7.95L-12.25 8Q-14.8 8.05 -16.7 5.1Q-18.6 2.05 -18.75 -2.35L-18.7 -4.65Q-18.3 -2.75 -17.35 -1.25Q-15.5 1.75 -12.7 1.75Q-10.5 1.7 -9 -1.1L-7.95 -3Q-7.35 -3.75 -6.6 -3.85L-6.4 -3.9Q-5.75 -3.9 -4.55 -2.7Q-3.6 -1.8 -2.55 -1.6M-16,-3.45Q-16.1 -6.15 -14.65 -6.15Q-13.1 -6.15 -13 -3.25Q-12.9 -0.9 -14.3 -0.9Q-15.4 -0.9 -15.85 -2.1L-16 -3.45M-13.4,-4.05L-13.35 -3.8L-13.3 -3.75L-13.4 -4.05M-13.3,-2.65L-13.3 -2.4L-13.25 -2.6L-13.3 -2.65M-12.15,-2.55Q-12.2 -3.6 -11.7 -3.7Q-11.15 -3.85 -11.1 -2.7L-11.2 -2.05Q-11.35 -1.5 -11.5 -1.5Q-12.1 -1.5 -12.15 -2.55" />
<path style="fill:none;stroke-width:1;stroke-linecap:butt;stroke-linejoin:miter;stroke-miterlimit:3;stroke:#D02900;stroke-opacity:1" d="M5.35,-11.6L4.3 -12.6Q3.15 -13.3 1.95 -13.35Q0.75 -13.35 -0.2 -12.75L0.7 -12.35Q1.65 -12.15 2.55 -11.5L4.05 -9.9L4.15 -9.7Q6.05 -6.95 6.2 -2.95L6.2 -1.2Q5.95 1.6 4.6 3.7L4.45 3.95Q3.8 5 2.15 6.3L0.55 7.25L0.7 7.4L0.9 7.45Q1.7 7.95 2.65 7.95Q3.75 7.95 4.75 7.35L6.3 5.85L6.95 4.8Q8.4 2.15 8.5 -1.35L8.55 -2.75Q8.35 -7.2 6.5 -10.25L5.35 -11.6M13.1,-1.7L13 -3.05Q12.85 -7 11.25 -9.65Q9.75 -12.05 7.85 -12.3L7.4 -12.25L7.1 -12.25L4.3 -12.6M-8,-13L-6.6 -13.25L-4.7 -12.8L-2.9 -11.45L-2.25 -10.5L-2.1 -10.2Q-0.15 -7.15 0.05 -2.7L0.05 -1.85M13.1,-1.7Q12.9 1.3 11.45 3.9Q9.9 6.75 8.55 7L8.15 7L4.75 7.35M-8.4,-12.75L-8 -13L-8.9 -12.9M-8.4,-12.75Q-7.8 -12.65 -6.85 -11.85L-4.75 -9.55L-4.65 -9.35L-4.65 -9.3Q-2.8 -6.65 -2.6 -2.65L-2.55 -1.6Q-2.7 1.5 -4 3.75L-4.2 4L-4.35 4.25L-6.25 6.6L-7.6 7.55L-7.25 7.75L-7.05 7.85L-5.85 8.05Q-4.7 8.05 -3.7 7.3L-2.1 5.75L-1.7 5.1L-1.6 4.8Q0.05 2 0.05 -1.85M-4.7,-12.8L-0.2 -12.75L-0.3 -12.7L-0.4 -12.65L-0.2 -12.5L0.7 -12.35M-0.4,-12.65L-0.45 -12.65L-0.3 -12.7M-7.25,7.75L-10.9 7.8L-11.55 7.95L-12.25 8Q-14.8 8.05 -16.7 5.1Q-18.6 2.05 -18.75 -2.35L-18.7 -4.65Q-18.5 -7.5 -17.15 -9.7Q-15.5 -12.75 -13 -12.75L-12.6 -12.75L-10.9 -12.9L-8.9 -12.9M-12.6,-12.75Q-11.7 -12.75 -10.85 -12.2L-10.25 -11.75L-9.85 -11.45L-8.7 -10M-6.6,-3.85L-6.7 -4.05L-6.7 -4.25L-6.75 -4.8L-6.75 -5L-7.05 -6.3L-7.2 -6.75L-7.3 -7.15Q-7.8 -8.5 -8.6 -9.7L-8.7 -10M-6.6,-3.85L-6.6 -3.1L-6.55 -2.55L-6.55 -2.4L-6.5 -1.45Q-6.55 2.3 -8.1 5L-8.25 5.2L-9.1 6.45L-9.2 6.6L-9.35 6.75L-9.55 6.95L-9.6 7.05L-10.45 7.6L-10.9 7.8M-3.7,7.3L0.7 7.4" />
</g>
</svg>
