<?xml version="1.0" encoding="utf-8"?>
<svg version="1.1" id="Layer_1"
xmlns="http://www.w3.org/2000/svg"
xmlns:xlink="http://www.w3.org/1999/xlink"
xmlns:author="http://www.sothink.com"
width="46px" height="8px"
xml:space="preserve">
<g id="205" transform="matrix(1, 0, 0, 1, 19.35, 4.95)">
<path style="fill:#C9DCF3;fill-opacity:0.988235" d="M0.6,-2.1L1.3 -2.15Q2.6 -2.15 2.6 -1.2L2.45 -0.65L2.1 -0.3Q1.25 -0.3 0.45 -1.65Q0.45 -2.05 0.6 -2.1M25.8,-0.6Q25.8 0.65 24.45 1.4Q22.65 2.35 17.85 2.85L11.4 2.85L9.45 2.7L7.75 2.8L5.85 2.9L4.35 2.55L4.3 2.55L2.3 2.7L-5.45 2.6Q-7.15 2.6 -8.85 2L-9.1 2.1L-10.55 1.8L-11.7 1.35Q-12.4 1.85 -15.35 1.95L-16.2 1.95L-16.35 1.6Q-16.35 1.3 -15 1.05Q-13.5 0.85 -13.2 0.45L-13.25 0.4L-14.95 -0.15L-18.05 -0.9L-18.45 -1.35L-18.05 -1.65L-14.05 -1L-12.65 -0.55L-13.05 -1.2L-13.35 -1.85L-13.2 -2.05Q-19.35 -5.2 -19.35 -4.7Q-19.35 -5.4 -16.1 -4.15Q-13.85 -3.3 -12.8 -2.55L-11.9 -2.6Q-10.75 -2.45 -9.3 -0.5Q-7.55 0.45 -6.8 0.45L-6.5 0.5L-6.45 0.85L-6.45 0.9L-6.35 0.9L-1.05 0.75L-1.2 0L-0.05 0Q1.2 0 1.35 0.7L2.1 1.05L3.1 0.85L4.65 0.6L6.9 0.75L6.95 0.8L17.95 -0.45L25.1 -1.65L25.75 -1.05L25.8 -0.6M-6.35,-2.9Q-5.15 -2.5 -5.15 -1.8L-5.25 -1.25Q-5.45 -1.05 -6 -1.05Q-6.75 -1.05 -7.2 -1.5L-7.55 -2.3Q-7.55 -3.35 -6.35 -2.9M-3.35,-0.3L-3.75 -0.15Q-3.9 -0.15 -4.05 -0.4L-4.2 -0.65Q-4.2 -1.35 -3.6 -1.35Q-3 -1.35 -3 -0.75Q-3 -0.5 -3.35 -0.3" />
</g>
</svg>
