<?xml version="1.0" encoding="utf-8"?>
<svg version="1.1" id="Layer_1"
xmlns="http://www.w3.org/2000/svg"
xmlns:xlink="http://www.w3.org/1999/xlink"
xmlns:author="http://www.sothink.com"
width="17px" height="14px"
xml:space="preserve">
<g id="189" transform="matrix(1, 0, 0, 1, 7.5, 7.05)">
<path style="fill:#FF0000;fill-opacity:0" d="M8.85,-7.05L8.85 6.95L-7.5 6.95L-7.5 -7.05L8.85 -7.05" />
<path style="fill:#E3BB21;fill-opacity:1" d="M7.7,-0.05Q7.7 2.8 5.65 4.45Q3.65 6.05 0.4 6.05L-6.1 5.6L-6.1 0.95L-5.8 -1.9L-5.7 -3L-5.8 -4.4L-5.75 -4.75L-5.3 -5.55L-3.45 -5.7Q0.55 -5.7 3.35 -4.8Q7.7 -3.4 7.7 -0.05M2.5,-3.75Q-0.2 -4.15 -0.2 -2.2L0.35 -1.05Q1.35 0.35 3.3 0.35Q4.55 0.35 4.95 -0.2L5.15 -1.25Q5.15 -3.3 2.5 -3.75M-2.2,-4.45Q-3.6 -4.85 -3.6 -3.25Q-3.35 -1.55 -1.95 -1.55Q-1.4 -1.55 -1.05 -2Q-0.8 -2.4 -0.8 -2.75Q-0.8 -4.1 -2.2 -4.45" />
<path style="fill:#F7E59F;fill-opacity:1" d="M5.15,-1.25L4.95 -0.2Q4.55 0.35 3.3 0.35Q1.35 0.35 0.35 -1.05L-0.2 -2.2Q-0.2 -4.15 2.5 -3.75Q5.15 -3.3 5.15 -1.25M-0.8,-2.75Q-0.8 -2.4 -1.05 -2Q-1.4 -1.55 -1.95 -1.55Q-3.35 -1.55 -3.6 -3.25Q-3.6 -4.85 -2.2 -4.45Q-0.8 -4.1 -0.8 -2.75" />
<path style="fill:none;stroke-width:1;stroke-linecap:butt;stroke-linejoin:miter;stroke-miterlimit:3;stroke:#5D4B03;stroke-opacity:1" d="M3.35,-4.8Q0.55 -5.7 -3.45 -5.7L-5.3 -5.55L-5.75 -4.75L-5.8 -4.4L-5.7 -3L-5.8 -1.9L-6.1 0.95L-6.1 5.6L0.4 6.05Q3.65 6.05 5.65 4.45Q7.7 2.8 7.7 -0.05Q7.7 -3.4 3.35 -4.8z" />
</g>
</svg>
