<?xml version="1.0" encoding="utf-8"?>
<svg version="1.1" id="Layer_1"
xmlns="http://www.w3.org/2000/svg"
xmlns:xlink="http://www.w3.org/1999/xlink"
xmlns:author="http://www.sothink.com"
width="16px" height="14px"
xml:space="preserve">
<g id="29" transform="matrix(1, 0, 0, 1, 7.45, 6.7)">
<path style="fill:#A2CBF3;fill-opacity:1" d="M-3.3,-5.6L3.2 -5.8L6.65 -0.15L4.3 4.15L4.3 3.85Q4.3 2.75 4.65 2.55Q5 2.35 5 1.45Q5 0.3 4.05 -1.7Q3.1 -3.65 2.3 -4.2Q1.5 -4.75 -0.35 -4.9L-1.9 -5.05L-1.95 -5L-1.95 -5.05L-3.6 -5.1L-3.3 -5.6" />
<path style="fill:#4B729A;fill-opacity:1" d="M-5.6,-1.4Q-4.9 -0.45 -4.9 0.75Q-4.9 2.1 -4.05 2.7L-2.8 3.3L0 4.3L1.5 4.65Q2.3 4.9 2.65 5.45L2.65 5.55L-3 5.75L-6.45 0.2L-5.6 -1.4" />
<path style="fill:#71A2D2;fill-opacity:1" d="M2.6,-2.7Q1.5 -3.75 0.05 -3.75Q-1.4 -3.75 -2.45 -2.7Q-3.55 -1.65 -3.55 -0.15Q-3.55 1.3 -2.45 2.35Q-1.4 3.45 0.05 3.45Q1.5 3.45 2.6 2.35Q3.65 1.3 3.65 -0.15Q3.65 -1.65 2.6 -2.7M3.55,5.5L2.65 5.55L2.65 5.45Q2.3 4.9 1.5 4.65L0 4.3L-2.8 3.3L-4.05 2.7Q-4.9 2.1 -4.9 0.75Q-4.9 -0.45 -5.6 -1.4L-3.6 -5.1L-1.95 -5.05L-1.95 -5L-1.9 -5.05L-0.35 -4.9Q1.5 -4.75 2.3 -4.2Q3.1 -3.65 4.05 -1.7Q5 0.3 5 1.45Q5 2.35 4.65 2.55Q4.3 2.75 4.3 3.85L4.3 4.15L3.55 5.5" />
<path style="fill:#333333;fill-opacity:1" d="M3.65,-6.65L3.85 -6.45L7.55 -0.45L7.6 -0.2L7.55 0L4.25 6.2L4.1 6.35L3.85 6.4L-3.25 6.65L-3.45 6.6L-3.65 6.45L-7.35 0.45L-7.45 0.25L-7.4 -0.05L-4.05 -6.25L-3.85 -6.4L-3.65 -6.45L3.45 -6.7L3.65 -6.65M3.65,-0.15Q3.65 1.3 2.6 2.35Q1.5 3.45 0.05 3.45Q-1.4 3.45 -2.45 2.35Q-3.55 1.3 -3.55 -0.15Q-3.55 -1.65 -2.45 -2.7Q-1.4 -3.75 0.05 -3.75Q1.5 -3.75 2.6 -2.7Q3.65 -1.65 3.65 -0.15M1.95,-2.1Q1.15 -2.85 0.05 -2.85Q-1.05 -2.85 -1.85 -2.1Q-2.65 -1.3 -2.65 -0.15Q-2.65 0.95 -1.85 1.75Q-1.05 2.55 0.05 2.55Q1.15 2.55 1.95 1.75Q2.75 0.95 2.75 -0.15Q2.75 -1.3 1.95 -2.1M-6.45,0.2L-3 5.75L2.65 5.55L3.55 5.5L4.3 4.15L6.65 -0.15L3.2 -5.8L-3.3 -5.6L-3.6 -5.1L-5.6 -1.4L-6.45 0.2" />
</g>
</svg>
