<?xml version="1.0" encoding="utf-8"?>
<svg version="1.1" id="Layer_1"
xmlns="http://www.w3.org/2000/svg"
xmlns:xlink="http://www.w3.org/1999/xlink"
xmlns:author="http://www.sothink.com"
width="53px" height="29px"
xml:space="preserve">
<g id="74" transform="matrix(1, 0, 0, 1, 26.6, 14.4)">
<path style="fill:#476C91;fill-opacity:1" d="M16.35,-2.9Q14.4 -2.9 12.4 -1.8L8.75 0.5L8.8 -6.65Q15.65 -6.5 21.55 -2.55L16.35 -2.9" />
<path style="fill:#618AB4;fill-opacity:1" d="M8.75,0.5L12.4 -1.8Q14.4 -2.9 16.35 -2.9L21.55 -2.55L24.8 0.05L24.6 0.05Q20.9 0.05 14.5 2.6Q11.6 3.75 8.7 5.2L8.7 3.1L8.75 0.5" />
<path style="fill:#BABDBF;fill-opacity:1" d="M-14.45,8.3Q-16.2 8.75 -17.75 7.85L-19.15 6.7Q-20.45 5.5 -20.5 3.55L-20.5 0.45L-19.2 0.05Q-18.65 -0.1 -18.2 -0.5Q-16.15 -2.3 -13.55 -2.9L-8.15 -3.3L-7.9 -3.55L1.9 -2.75L8.65 -1.8L8.7 3.1L8.7 5.2L8.65 7.95L8.65 8L-10.95 8.3L-14.45 8.3" />
<path style="fill:#989898;fill-opacity:1" d="M-20.15,-2.35L-20.1 -4.4L-19.75 -5.9L-18.95 -6.7Q-16.25 -8.4 -13.1 -8.1L-12.45 -8.15L-9.75 -8.3L3.3 -7.75L8.65 -7.2L8.65 -6.7L8.65 -1.8L1.9 -2.75L-7.9 -3.55L-8.15 -3.3L-13.55 -2.9Q-16.15 -2.3 -18.2 -0.5Q-18.65 -0.1 -19.2 0.05L-20.5 0.45L-20.15 -2.35" />
<path style="fill:#8FB4D9;fill-opacity:1" d="M8.7,5.2Q11.6 3.75 14.5 2.6Q20.9 0.05 24.6 0.05L24.8 0.05L25.1 0.5Q14.55 8.4 8.65 7.95L8.7 5.2" />
<path style="fill:#9BC1E7;fill-opacity:1" d="M-26.1,-4.6L-25.8 -13Q-24.8 -13.8 -23.45 -13.75L-21.05 -13.55Q-18.7 -14.05 -16.35 -12.9L-13.85 -11.4Q-14.8 -10.8 -15.9 -10.6Q-18.85 -10.15 -21.8 -10.6Q-22.85 -10.6 -23.3 -9.75L-24.15 -7.45L-24.8 -4.85L-25.05 -3.9L-26.1 -4.6M-10.95,8.3L-15.3 12.45Q-15.85 13 -16.55 13.25L-21.85 13.55L-24.6 13.75L-24.85 13.65L-25.4 13.4L-24.85 13.35L-25.45 13.35L-25.5 11.45L-20.25 11.45L-18.35 11Q-15.95 10.35 -14.45 8.3L-10.95 8.3" />
<path style="fill:#6699CC;fill-opacity:1" d="M-9.75,-8.3L-12.45 -8.15L-13.1 -8.1Q-16.25 -8.4 -18.95 -6.7L-19.75 -5.9L-20.1 -4.4L-20.15 -2.35L-25.05 -3.9L-24.8 -4.85L-24.15 -7.45L-23.3 -9.75Q-22.85 -10.6 -21.8 -10.6Q-18.85 -10.15 -15.9 -10.6Q-14.8 -10.8 -13.85 -11.4L-9.75 -8.3M-19.15,6.7L-17.75 7.85Q-16.2 8.75 -14.45 8.3Q-15.95 10.35 -18.35 11L-20.25 11.45L-25.5 11.45L-25.7 7.05Q-25.7 5.6 -24.75 4.75L-23.85 4.15Q-22.2 3.55 -20.5 3.55Q-20.45 5.5 -19.15 6.7" />
<path style="fill:none;stroke-width:1;stroke-linecap:butt;stroke-linejoin:miter;stroke-miterlimit:3;stroke:#34424F;stroke-opacity:1" d="M-13.85,-11.4L-16.35 -12.9Q-18.7 -14.05 -21.05 -13.55L-23.45 -13.75Q-24.8 -13.8 -25.8 -13L-26.1 -4.6L-25.05 -3.9L-20.15 -2.35L-20.1 -4.4L-19.75 -5.9L-18.95 -6.7Q-16.25 -8.4 -13.1 -8.1L-12.45 -8.15L-9.75 -8.3L-13.85 -11.4M8.65,-7.2L3.3 -7.75L-9.75 -8.3M21.55,-2.55Q15.65 -6.5 8.8 -6.65L8.75 0.5L8.7 3.1M21.55,-2.55L24.8 0.05L25.25 0.45L25.1 0.5Q14.55 8.4 8.65 7.95L8.65 8L-10.95 8.3L-15.3 12.45Q-15.85 13 -16.55 13.25L-21.85 13.55L-24.6 13.75L-24.85 13.65L-25.4 13.4M-25.45,13.35L-25.5 11.45L-25.7 7.05Q-25.7 5.6 -24.75 4.75L-23.85 4.15Q-22.2 3.55 -20.5 3.55L-20.5 0.45L-20.15 -2.35M8.8,-6.65L8.65 -6.7M8.65,7.95L8.7 5.2L8.7 3.1M-14.45,8.3Q-16.2 8.75 -17.75 7.85L-19.15 6.7Q-20.45 5.5 -20.5 3.55M-14.45,8.3L-10.95 8.3" />
</g>
</svg>
