<?xml version="1.0" encoding="utf-8"?>
<svg version="1.1" id="Layer_1"
xmlns="http://www.w3.org/2000/svg"
xmlns:xlink="http://www.w3.org/1999/xlink"
xmlns:author="http://www.sothink.com"
width="11px" height="7px"
xml:space="preserve">
<g id="94" transform="matrix(1, 0, 0, 1, 13.55, 0.5)">
<path style="fill:#727171;fill-opacity:1" d="M-3.5,0.65L-3.5 2.6L-3.6 2.6L-3.6 2.45L-13.05 2.45L-13.05 0L-3.6 0.75L-3.6 0.65L-3.5 0.65" />
<path style="fill:#545454;fill-opacity:1" d="M-13.05,5.55L-13.05 2.45L-3.6 2.45L-3.6 2.6L-3.5 2.6L-3.45 3.7L-3.6 4.95L-3.2 5.5L-13.05 5.55" />
<path style="fill:none;stroke-width:1;stroke-linecap:butt;stroke-linejoin:miter;stroke-miterlimit:3;stroke:#333333;stroke-opacity:1" d="M-3.6,0.75L-13.05 0L-13.05 2.45L-13.05 5.55L-3.2 5.5M-3.6,4.95L-3.45 3.7L-3.5 2.6L-3.5 0.65L-3.6 0.65" />
</g>
</svg>
