<?xml version="1.0" encoding="utf-8"?>
<svg version="1.1" id="Layer_1"
xmlns="http://www.w3.org/2000/svg"
xmlns:xlink="http://www.w3.org/1999/xlink"
xmlns:author="http://www.sothink.com"
width="215px" height="216px"
xml:space="preserve">
<g id="341" transform="matrix(1, 0, 0, 1, 20.25, -358.2)">
<path style="fill:#000000;fill-opacity:0.2" d="M48.95,554.5Q67.35 551.1 93.6 551.1Q119.75 551.1 138.2 554.5Q156.65 557.85 156.65 562.65Q156.65 567.45 138.2 570.8Q119.75 574.15 93.6 574.15Q67.35 574.15 48.95 570.8Q30.45 567.45 30.45 562.65Q30.45 557.85 48.95 554.5" />
<path style="fill:#FC850F;fill-opacity:1" d="M59.3,395.95L60.95 389.8L64.25 393.5L65.45 390.6L69.55 390.85Q66.9 384.2 63.8 377.75Q57.65 364.85 55.65 365.85Q53.65 366.85 54.15 382.85Q54.35 390.8 55 398.6L57.5 393.9L59.3 395.95M78.1,413.6Q76.05 416.75 75.5 419.5L77.35 422.6Q80.15 425.85 85.1 426.85Q91.35 428.1 98.05 423.95Q105.1 419.6 104.55 413.75Q104.15 409.1 99.6 406.6Q97.4 405.4 94.95 405.15Q95.45 404.5 95.6 403.3Q95.85 400.95 94 398.35Q92.15 395.75 88.65 397.4L85.55 399.6Q86.35 401.75 86.05 404.55L85.6 406.9L82.55 408.75L83.6 407.85L84.95 406.7L85.75 405.65L86 403.35L85.7 401.3L85 399.2L84.5 398.15L83.6 397.15L83 396.6L82.35 396.15L81.55 395.6L79.85 395.2L78.1 395.5Q77.65 395.6 77.15 395.9Q75.9 396.2 75.6 396.75L74.35 398.15L73.55 399.6L72.25 404.1Q71.95 404.75 72 405.65L71.75 407.15L71.65 407.9L71.65 409.7L71.75 409.85L71.8 411L72.6 413.3L73 414.45L73.35 415.6L73.75 416.75Q74.05 417.4 74.65 417.95L75.1 418L76.05 416.75L76.85 415.15L77.45 414.45L77.85 413.7L78.95 412.25L79.6 411.55L78.1 413.6M145.25,565.95L144.15 566.1Q140.85 566.2 137.35 564.75Q130.5 561.8 122.9 552.6Q119.35 548.25 116 543L113.75 539.05Q106.85 540.5 99.8 540.9L94.3 547.85Q89.4 553.1 83.7 556.65L83.75 556.4L83.05 555.25L82.45 554.15L81.4 553.05Q80.8 552.35 80.35 552.55L80.35 553.1L81.1 555.05L81.6 556.05L82.2 557.05L83.05 556.55L83.65 556.65Q81 558.3 78.2 559.55L75.6 560.65L75.5 560.55L75.7 560.55L75.85 560.25L75.45 558.65L75 557.35L74.35 555.85Q73.8 554.95 73.05 554.9L73.05 555.5L73.6 558.1L74.05 559.4L74.1 559.7L74.25 559.85L74.5 560L74.55 560.4L74.85 560.7L75.15 560.7L75.25 560.8L68.2 563.1L68.25 562.7L67.6 559.05Q67.5 558.15 66.75 557.3Q66.35 556.9 66.3 557.75L66.25 558.75L66.35 561.1L66.6 562.35L66.85 563.4L59.85 564.6L52.15 564.85Q48.8 566.2 45.6 566.1Q41.1 565.95 37.6 558.55L35 551.15Q30.6 549.15 30.05 547.25Q29.55 545.45 30.9 543.05Q32.45 540.25 35.4 539.9Q38.1 539.6 39.75 541.5Q40.55 542.45 40.8 543.45Q42.35 543.55 43.15 544.2Q44.45 545.3 43.95 547.9L43.15 550.3L43.25 550.4L44.55 549.45Q46.2 548.4 48.05 548.1Q49.9 547.8 53.65 548.9L57 550.1Q64 545.95 69.8 537.4L60 535.1Q52.4 532.25 46 525.65Q33.1 512.4 38.9 493.55Q39.9 490.35 44.6 486L50.7 480.3Q52.8 477.6 53.1 472.8L53 468.6Q35.6 471.4 23.5 482.75Q21.95 483.45 20.45 484.25Q10.55 489.35 3.65 496.85L6.1 501.05Q7.85 505.65 4.5 507.7Q1.95 509.25 0.35 505.35Q-1.4 501.1 -1.7 501.15Q-2.5 501.3 -2.85 506.65Q-3.25 512.4 -3.75 513.05Q-4.8 514.5 -6.4 514.7Q-8.4 515 -9.65 512.85L-11.9 513.3Q-14.3 513.45 -15.35 511.75Q-15.95 510.75 -15.9 509.15Q-16.9 507.9 -17.7 506.25Q-19.35 503 -18.45 501.1Q-17.55 499.2 -14.65 496.9L-11.9 495Q-6.4 486.65 4.5 479.65Q21.9 468.5 52.95 460.7Q50.8 458.45 49.35 456.35L49.45 456.35L50.85 455.65Q52.3 454.8 52.6 454.7L54 453.65L55.25 452.7L55 452.45L52.7 452.95L51.1 453.55Q50.75 453.6 49.7 454.2Q48.6 454.8 48.55 455.1L47.7 453.45Q46.9 451.7 46.05 448.9L46.35 448.95L49.9 447.4L51.1 446.75L52 445.9L51.9 445.6L50.35 446.1L49.1 446.6Q48.6 446.75 47.85 447.3L46.55 447.85L46.55 448.05L46.5 448.3L46.05 448.5L46 448.7L46 448.85L44.45 443.2Q50.85 440.25 50.85 439.7L50.6 439.45Q49.65 439.4 48.05 440.05L46.2 440.9L45.35 441.15Q44.95 441.3 44.9 441.4L44.8 441.65L44.25 442.15L44.2 442.25L42.5 435.2L39.9 422.75L35.6 418.05L40.9 417.85L34.55 408.6L42.35 411.9L35.8 400.6L46.05 403.3L41.35 394.3L51.15 401.35Q50.4 391.2 50.45 380.9Q50.6 360.3 54.65 359.7Q58.7 359.1 66.6 374.3Q70.55 381.9 73.7 389.6Q75.4 388.15 77.5 386.75Q81.65 383.95 83.5 384.25Q85.2 384.5 86.5 385.9Q87.85 387.25 88.45 387.35Q89.2 387.45 91.7 386.55Q94.15 385.55 95.2 385.7Q97.2 385.95 100.3 387.95Q103.85 381 108.15 374.25Q116.7 360.75 120.4 361.95Q124.1 363.15 123 383.35Q122.5 393.45 121.2 403.3L127.55 399.85L122.85 408L133.9 406.4L125.7 418.05L131.65 416.2L125.1 429.1L128.15 428.1L124.3 440L120.75 450.05L120.6 450.45L121.2 460.65Q152.25 468.45 169.65 479.6Q180.55 486.6 186.05 494.95L188.8 496.85Q191.7 499.15 192.6 501.05Q193.5 502.95 191.85 506.2Q191.05 507.85 190.05 509.1Q190.1 510.7 189.5 511.7Q188.45 513.4 186.05 513.25L183.8 512.8Q182.55 514.95 180.55 514.65Q178.95 514.45 177.9 513Q177.4 512.35 177 506.6Q176.65 501.25 175.85 501.1Q175.55 501.05 173.8 505.3Q172.2 509.2 169.65 507.65Q166.3 505.6 168.05 501L170.5 496.8Q163.6 489.3 153.7 484.2L150.65 482.7Q138.65 471.45 121.4 468.6L122.65 472.05Q124.2 476 125.9 478.65Q126.6 479.7 129.55 481.8Q133.15 484.35 135 486.25Q142.2 493.5 142.7 506.7Q143.25 520.1 131.65 530.1Q125.85 535.1 119.95 537.4Q127.5 548.5 137.35 552.4Q140.25 553.5 143.3 554L146.6 550.3Q146.05 549.2 145.8 547.9Q145.3 545.3 146.6 544.2Q147.4 543.55 148.95 543.45Q149.2 542.45 150 541.5Q151.65 539.6 154.35 539.9Q157.3 540.25 158.85 543.05Q160.2 545.45 159.7 547.25Q159.15 549.15 154.75 551.15L153.65 554.25L153.6 554.15L153.7 553.55L153.55 552.45Q153.2 551.3 152.1 551.55Q151.75 551.55 151.3 551.9L150.9 552.3Q149.2 554.15 148.35 556.5L146.55 560.35Q144.95 563.85 144.95 565Q144.95 565.65 145.25 565.95M49.35,455.1Q49 455.3 48.9 455.65L48.7 455.3L49.35 455.1M104.7,389.65L108.25 390.2L110.3 393.7L112.35 391.85L112.15 397.15L115.05 393.7L116.65 399.65L118.2 384.35Q119.4 368.95 117.9 368.3Q116.4 367.65 110.4 378.6Q107.4 384.05 104.7 389.65M125.1,436.95L125.35 436.4L125.15 436L122.8 435.05Q121.4 434.45 119.95 434.35L119.7 434.65Q122.8 436.8 124.45 436.8L125.1 436.95M122.95,438.6Q122.1 438.2 121.1 437.95L120.9 438.25L121.2 438.8L124.05 439.85L124.15 439.7L123.8 439.3L124 439.25L123.55 438.85L122.95 438.6M122.2,443.65L119.75 442.35Q117.55 441.45 116.65 441.25L116.6 441.55L117.3 442.15L118.4 442.7L119.5 443.45Q120.45 443.95 121.2 444.05L121.85 444.05L122.2 443.65M116.3,444.55L117.35 445.15L118.6 445.95Q119.5 446.55 120.7 446.55Q121.6 446.55 121.6 446.35L121.75 446.15L121.85 445.9Q121.85 445.7 119.05 444.65L115.95 443.45L115.65 443.5L115.65 443.75Q115.65 444.05 116.3 444.55M120.6,449.55L120.5 449.25L118.25 448Q116.35 447.1 116.35 448Q116.35 448.3 117.9 449.3L120 450.4Q120.4 450.4 120.45 450.2L120.6 449.55M45.3,445.3L45.7 445.55L46.1 445.6L49.5 443.4L50.35 443.1L51 442.6L50.9 442.35L49.15 442.75L47.6 443.25L46.2 444L45.65 444.5L45.25 445.1L45.3 445.3M61.85,436.2L61.7 436.2Q60.05 434.55 59 430.7L56.95 436.45Q54.95 442.65 55 444.85Q55.1 448.3 57.1 451.2Q59.6 454.8 63.4 453.9Q66.95 453.05 66.75 445.55L65.85 438.2L63 437.1L62.2 436.65L61.85 436.2M68,462.35L68.85 461.95L69.55 461.35L70.1 460.85L70 460.6L69.05 460.8L67.8 461.05L66.15 461.15Q65.35 461.15 64.25 460.55L62.8 459.95L62.75 460.2Q62.75 460.8 63.75 461.65Q64.95 462.65 66.55 462.65L68 462.35M51.85,448.45L50.6 448.7L49.55 449.3Q49.4 449.3 48.4 449.85L47.3 450.65L47.1 451.45L47.2 451.8L47.7 451.85Q53.1 449.15 53.1 448.6L52.85 448.35L51.85 448.45M57.6,457.95Q56.75 458 55.95 458.5L54.8 459.3Q53.85 459.8 53.8 460.1L53.85 460.55L53.65 460.85L53.5 461.15L53.6 461.4L54.05 461.55L54.45 461.7Q57.85 459.1 57.85 458.4L57.6 457.95M73.75,543L67.9 551.3Q79.55 550.75 91.2 540.9Q83.7 540.45 76.35 538.65L73.75 543M37.6,552.15Q36.8 552.45 36.6 553L36.55 554.05Q36.55 555.7 36.95 556.5L38.45 559.55Q38.95 560.7 40.5 562.35L41.05 563.05L41.9 563.75L42.65 564.45Q43.05 564.85 44.15 565.15L44.3 565.3L44.8 565.3L44.95 565.25L44.95 564L44.3 562.5L43.95 561L42.65 558L40.8 555Q39.6 553.2 37.95 552.15L37.6 552.15M59,560.45L58.85 560.75L58.6 561.15L58.3 562.8Q58.3 563.5 58.45 563.75L59.1 563.95L59.45 564.05L59.7 564L59.75 562.3Q59.75 560.5 59.35 559.7Q59 559.95 59 560.45M91.25,544.55L91 544.8Q91 545.15 92.2 545.7L93.85 546.45L94.6 546.45L95 546.3Q95.35 546.1 95.35 545.55L95.1 545.3L91.25 544.55M86.35,549.15Q87.4 551.1 88.2 551.85L89.1 551.95L89.5 551.75Q89.65 551.55 89.85 551.5L90 551.35L88.35 549.7Q87.15 548.55 86.35 548.55L86.35 549.15" />
<path style="fill:#E66006;fill-opacity:1" d="M57.5,393.9L55 398.6Q54.35 390.8 54.15 382.85Q53.65 366.85 55.65 365.85Q57.65 364.85 63.8 377.75Q66.9 384.2 69.55 390.85L65.45 390.6L64.25 393.5L60.95 389.8L59.3 395.95L57.5 393.9M144.95,565Q144.95 563.85 146.55 560.35L148.35 556.5Q149.2 554.15 150.9 552.3L151.3 551.9Q151.75 551.55 152.1 551.55Q153.2 551.3 153.55 552.45L153.7 553.55L153.6 554.15L153.65 554.25L153.7 554.3L153.85 554.55L153.65 555.2L153.45 556.1L152.95 557.6L151.4 560.6L149.4 563.6Q148 565.35 146.1 566.2L145.25 565.95Q144.95 565.65 144.95 565M110.4,378.6Q116.4 367.65 117.9 368.3Q119.4 368.95 118.2 384.35L116.65 399.65L115.05 393.7L112.15 397.15L112.35 391.85L110.3 393.7L108.25 390.2L104.7 389.65Q107.4 384.05 110.4 378.6M37.95,552.15Q39.6 553.2 40.8 555L42.65 558L43.95 561L44.3 562.5L44.95 564L44.95 565.25L44.8 565.3L44.3 565.3L44.15 565.15Q43.05 564.85 42.65 564.45L41.9 563.75L41.05 563.05L40.5 562.35Q38.95 560.7 38.45 559.55L36.95 556.5Q36.55 555.7 36.55 554.05L36.6 553Q36.8 552.45 37.6 552.15L37.95 552.15" />
<path style="fill:#FFFFFF;fill-opacity:1" d="M81.15,410.05L79.6 411.55L78.95 412.25L77.85 413.7L77.45 414.45L76.85 415.15L76.05 416.75L75.1 418L74.65 417.95Q74.05 417.4 73.75 416.75L73.35 415.6L73 414.45L72.6 413.3L71.8 411L71.75 409.85L71.65 409.7L71.65 407.9L71.75 407.15L72 405.65Q71.95 404.75 72.25 404.1L73.55 399.6L74.35 398.15L75.6 396.75Q75.9 396.2 77.15 395.9Q77.65 395.6 78.1 395.5L79.85 395.2L81.55 395.6L82.35 396.15L83 396.6L83.6 397.15L84.5 398.15L85 399.2L85.7 401.3L86 403.35L85.75 405.65L84.95 406.7L83.6 407.85L82.55 408.75L81.15 410.05M89.4,405.55Q87.35 406.05 85.6 406.9L86.05 404.55Q86.35 401.75 85.55 399.6L88.65 397.4Q92.15 395.75 94 398.35Q95.85 400.95 95.6 403.3Q95.45 404.5 94.95 405.15L89.4 405.55M91.7,403.35Q91.7 401.45 90.05 401.35Q88.35 401.25 88.35 403.45Q88.35 404.8 89.45 405.25L90.6 405.25L91.45 404.4L91.7 403.35M82.6,405.4Q82.6 404.6 82 403.45Q81.3 402.05 80.45 402.1Q79.55 401.7 78.85 402.9Q78.2 404 78.2 405.3L78.45 406.8Q78.95 408.25 80.4 408.25Q81.6 408.25 82.2 407Q82.6 406.15 82.6 405.4" />
<path style="fill:#FF6D6B;fill-opacity:1" d="M94.95,405.15Q97.4 405.4 99.6 406.6Q104.15 409.1 104.55 413.75Q105.1 419.6 98.05 423.95Q91.35 428.1 85.1 426.85Q80.15 425.85 77.35 422.6L75.5 419.5Q76.05 416.75 78.1 413.6L79.6 411.55L81.15 410.05L82.55 408.75L85.6 406.9Q87.35 406.05 89.4 405.55L94.95 405.15" />
<path style="fill:#FF2E28;fill-opacity:1" d="M61.45,436.2L60.45 436.75L59.75 438.7L59.2 440.7Q58.95 441.45 58.95 442.65L58.7 444.65L58.95 447.45L59.15 448.05L59.4 448.4L59.6 448.35L59.55 445.45L59.9 442.55Q60.1 440.8 61.15 438.65L62.2 436.7L62.2 436.65L63 437.1L65.85 438.2L66.75 445.55Q66.95 453.05 63.4 453.9Q59.6 454.8 57.1 451.2Q55.1 448.3 55 444.85Q54.95 442.65 56.95 436.45L59 430.7Q60.05 434.55 61.7 436.2L61.45 436.2" />
<path style="fill:#582903;fill-opacity:1" d="M83.05,556.55L82.2 557.05L81.6 556.05L81.1 555.05L80.35 553.1L80.35 552.55Q80.8 552.35 81.4 553.05L82.45 554.15L83.05 555.25L83.75 556.4L83.7 556.65L83.65 556.65L83.05 556.55M75.15,560.7L74.85 560.7L74.55 560.4L74.5 560L74.25 559.85L74.1 559.7L74.05 559.4L73.6 558.1L73.05 555.5L73.05 554.9Q73.8 554.95 74.35 555.85L75 557.35L75.45 558.65L75.85 560.25L75.7 560.55L75.5 560.55L75.6 560.65L75.7 560.85L75.6 561L75.25 560.8L75.15 560.7M66.6,562.35L66.35 561.1L66.25 558.75L66.3 557.75Q66.35 556.9 66.75 557.3Q67.5 558.15 67.6 559.05L68.25 562.7L68.2 563.1L68.1 563.2L67.9 563.15L67.85 563.15Q67.45 563.3 67.2 563.55L66.85 563.55L66.85 563.4L66.6 562.35M48.7,455.3L48.6 455.3L48.55 455.1Q48.6 454.8 49.7 454.2Q50.75 453.6 51.1 453.55L52.7 452.95L55 452.45L55.25 452.7L54 453.65L52.6 454.7Q52.3 454.8 50.85 455.65L49.45 456.35L49.35 456.35L48.95 456.3L48.85 455.85L48.9 455.65Q49 455.3 49.35 455.1L48.7 455.3M46.05,448.9L46 448.85L46 448.7L46.05 448.5L46.5 448.3L46.55 448.05L46.55 447.85L47.85 447.3Q48.6 446.75 49.1 446.6L50.35 446.1L51.9 445.6L52 445.9L51.1 446.75L49.9 447.4L46.35 448.95L46.05 448.9M44.45,443.2L44.35 443.2L43.95 443.15L43.85 442.85Q43.85 442.55 44.2 442.25L44.25 442.15L44.8 441.65L44.9 441.4Q44.95 441.3 45.35 441.15L46.2 440.9L48.05 440.05Q49.65 439.4 50.6 439.45L50.85 439.7Q50.85 440.25 44.45 443.2M124.45,436.8Q122.8 436.8 119.7 434.65L119.95 434.35Q121.4 434.45 122.8 435.05L125.15 436L125.35 436.4L125.1 436.95L124.45 436.8M123.55,438.85L124 439.25L123.8 439.3L124.15 439.7L124.05 439.85L121.2 438.8L120.9 438.25L121.1 437.95Q122.1 438.2 122.95 438.6L123.55 438.85M121.85,444.05L121.2 444.05Q120.45 443.95 119.5 443.45L118.4 442.7L117.3 442.15L116.6 441.55L116.65 441.25Q117.55 441.45 119.75 442.35L122.2 443.65L121.85 444.05M91.45,404.4L90.6 405.25L89.45 405.25Q88.35 404.8 88.35 403.45Q88.35 401.25 90.05 401.35Q91.7 401.45 91.7 403.35L91.45 404.4M82.2,407Q81.6 408.25 80.4 408.25Q78.95 408.25 78.45 406.8L78.2 405.3Q78.2 404 78.85 402.9Q79.55 401.7 80.45 402.1Q81.3 402.05 82 403.45Q82.6 404.6 82.6 405.4Q82.6 406.15 82.2 407M115.65,443.75L115.65 443.5L115.95 443.45L119.05 444.65Q121.85 445.7 121.85 445.9L121.75 446.15L121.6 446.35Q121.6 446.55 120.7 446.55Q119.5 446.55 118.6 445.95L117.35 445.15L116.3 444.55Q115.65 444.05 115.65 443.75M120.45,450.2Q120.4 450.4 120 450.4L117.9 449.3Q116.35 448.3 116.35 448Q116.35 447.1 118.25 448L120.5 449.25L120.6 449.55L120.45 450.2M45.25,445.1L45.65 444.5L46.2 444L47.6 443.25L49.15 442.75L50.9 442.35L51 442.6L50.35 443.1L49.5 443.4L46.1 445.6L45.7 445.55L45.3 445.3L45.25 445.1M62.2,436.65L62.2 436.7L61.15 438.65Q60.1 440.8 59.9 442.55L59.55 445.45L59.6 448.35L59.4 448.4L59.15 448.05L58.95 447.45L58.7 444.65L58.95 442.65Q58.95 441.45 59.2 440.7L59.75 438.7L60.45 436.75L61.45 436.2L61.7 436.2L61.85 436.2L62.2 436.65M66.55,462.65Q64.95 462.65 63.75 461.65Q62.75 460.8 62.75 460.2L62.8 459.95L64.25 460.55Q65.35 461.15 66.15 461.15L67.8 461.05L69.05 460.8L70 460.6L70.1 460.85L69.55 461.35L68.85 461.95L68 462.35L66.55 462.65M52.85,448.35L53.1 448.6Q53.1 449.15 47.7 451.85L47.2 451.8L47.1 451.45L47.3 450.65L48.4 449.85Q49.4 449.3 49.55 449.3L50.6 448.7L51.85 448.45L52.85 448.35M57.85,458.4Q57.85 459.1 54.45 461.7L54.05 461.55L53.6 461.4L53.5 461.15L53.65 460.85L53.85 460.55L53.8 460.1Q53.85 459.8 54.8 459.3L55.95 458.5Q56.75 458 57.6 457.95L57.85 458.4M59.35,559.7Q59.75 560.5 59.75 562.3L59.7 564L59.45 564.05L59.1 563.95L58.45 563.75Q58.3 563.5 58.3 562.8L58.6 561.15L58.85 560.75L59 560.45Q59 559.95 59.35 559.7M95.1,545.3L95.35 545.55Q95.35 546.1 95 546.3L94.6 546.45L93.85 546.45L92.2 545.7Q91 545.15 91 544.8L91.25 544.55L95.1 545.3M86.35,548.55Q87.15 548.55 88.35 549.7L90 551.35L89.85 551.5Q89.65 551.55 89.5 551.75L89.1 551.95L88.2 551.85Q87.4 551.1 86.35 549.15L86.35 548.55" />
<path style="fill:#000000;fill-opacity:0.2" d="M57.2,363.9L58.2 364.25Q61.15 368.2 62.55 370.85L64.1 374.2L65.8 377.5L69.45 385.45L71.3 389.55L71.3 389.7L71 390.6L69.6 391.35L68.95 391.35Q65.35 390.95 64.9 391.9L64.75 392.65Q64.7 393.15 64.3 393.3L63.3 392.15Q62.4 391.2 61.7 391.2Q60.9 391.2 60.25 393.4L59.45 396.2Q58.5 394.6 57.85 394.6Q57.05 394.6 56.35 396.05L55.55 397.8L54.45 399.4L54.05 394.9L53.65 391L53.4 382.5Q53.4 376.65 54.1 372.75L54.25 371.25L54.25 372.15L54.25 375.4L54.45 384.15Q54.85 392.75 55.8 392.75Q56.55 392.75 57.3 391.15L58.65 388.5L59.3 387.4Q59.4 387.2 59.9 387.05L60.45 386.9Q61 386.5 61.15 385.8L61.15 384.55L62.1 385.3Q62.75 385.85 63.05 385.85Q63.7 385.85 63.85 385.4L63.95 384.5Q63.95 381.6 60.95 376.9L58.85 373.1L57.65 371.1Q56.8 369.85 55.8 369.25L55.2 369.25Q54.6 369.55 54.4 370.25L54.8 367.9L55.3 365.45Q55.85 363.9 57.15 363.8L57.2 363.9M119.6,364.2Q117.55 364.95 117.05 365.45Q116.4 365.95 115.7 367L114.5 368.65Q112.9 370.3 109.85 375.45L105.8 382.1Q103.9 385.6 103.5 387.85L103.45 387.9L103.2 388.55L102.35 389.25L101.45 389.25L100.75 388.25L100.3 387.95Q103.85 381 108.15 374.25Q116.7 360.75 120.4 361.95L120.95 362.25Q119.75 362.05 119.75 364L119.75 364.15L119.6 364.2M120.3,367.05L120.55 369.65L120.8 375.4L120.75 381.25L120.25 388.1L119.45 393.9L118.95 398.2L118.85 398.3L117.25 400.1L116 397.6Q115.05 395.65 114.55 395.65Q114.2 395.65 113.5 396.5L112.4 397.5L112.2 395.3Q112.15 394.15 111.5 393.3L110.6 393.3L109.95 393.7L108.75 391.6Q107.85 390.25 105.7 389.9L105.25 389.1L105.05 388.5L105.25 387.8L105.25 387.6L106.7 384.3Q108.25 380.5 109.6 378.4L111.4 375.4Q112.55 373.6 113.65 372.45L116.1 369.35Q117.6 367.45 118.85 366.55Q119.7 366.65 120.3 367.05M115.4,371.35Q114.65 371.35 112.85 374.35L111.05 377.6L109.1 381.3Q107.55 384.25 107.55 384.55L105.85 388.6L105.9 389.25L106.6 389.35L108.85 388.5Q110.6 387.6 111.05 387.5L111.05 388.1Q111.1 388.55 111.75 388.55L112.4 388.3Q112.75 388.05 113 388.05Q113.25 388.05 113.35 388.3L113.65 388.55Q114.9 388.55 115.95 382.45Q116.8 377.55 116.8 374.95L116.8 373Q116.55 371.35 115.4 371.35M122,363.9L121.9 363.85L121.95 363.75L122 363.9M122.25,364.6Q122.95 366.95 123.2 371.35L122.55 367.8L122 364.75L122.25 364.6M122.65,382.8L122.7 380.6L122.7 382.8L122.65 382.8M79.1,395.5Q78.5 395.55 77.95 396.05Q74.4 399.25 74.4 403.8L74.65 406.1Q75.5 408.25 78.4 408.25Q82.1 408.25 84.15 405.15Q85.5 403.1 85.5 401.5L85.35 399.65Q85.4 399.05 84.15 397.6L83.3 396.6Q82.8 396.1 81.95 395.8L79.1 395.5M168,487.65Q172.2 490.6 174.25 492.65L176.9 495.3L177.9 498L179.3 502.35L179.75 504.5L180.2 506.45L180.8 508.5L181.05 509.65Q181.4 510.65 182.35 510.65Q183.5 510.65 183.5 508.3L183.05 505.1L182.55 502.95L182.75 502.25Q183.25 502.25 183.85 502.8L184.65 503.3L185.1 503.15Q186.3 505.25 186.5 506.3L186.8 508.55Q187.2 510 188.2 510Q188.7 510 188.85 509.6L188.95 508.7L188.5 506.85L187.65 504.4L186.95 503.2L186.2 502.2L185.55 500L187.45 499.6L187.55 499.05L187.2 498.65Q187.85 499.1 188.5 499.7L191.8 503.1L192.5 503.1L192.95 502.75Q192.85 504.25 191.85 506.2Q191.05 507.85 190.05 509.1Q190.1 510.7 189.5 511.7Q188.45 513.4 186.05 513.25L183.8 512.8Q182.55 514.95 180.55 514.65Q178.95 514.45 177.9 513Q177.4 512.35 177 506.6Q176.65 501.25 175.85 501.1Q175.55 501.05 173.8 505.3Q172.2 509.2 169.65 507.65Q166.3 505.6 168.05 501L170.5 496.8Q163.6 489.3 153.7 484.2L150.65 482.7Q139.25 472 123.2 468.95Q121.95 467.2 121.95 466.6Q121.95 466.35 122.2 466L122.25 465.95L123.3 465.15L124.5 465.1L128.85 466.35Q132.2 467.35 138.6 470Q141.8 471.3 143.55 471.8L146.55 472.75Q147.2 473.05 148.15 473.7L155 478.65L161.55 483.3L164.75 485.65Q165.4 486.35 168 487.65M192.85,501.75L192.25 500.65L191.3 499.25L190.1 497.95Q191.9 499.6 192.6 501.05L192.85 501.75M187,495.6L187.85 496.2L186.95 496.3L186.7 496.1L186.85 495.85L187 495.6M182.35,498.05L181.8 497.6L182.15 497.65L182.45 498.05L182.35 498.05M102.6,409.35Q101.55 407.8 100.3 407.2L98.65 406.5L95.95 405.85L89.1 406.1Q88.8 406.65 87.5 406.8Q84.95 407.15 81.8 410.1Q78.6 413.05 78.6 415.05Q78.6 416.55 79.3 417.3Q80.35 418.45 83.3 419L91.7 419Q95.9 418.85 99.85 416.25Q103.55 413.85 103.55 411.8Q103.55 410.8 102.6 409.35M104.8,412.55L105.25 415.8Q105.25 417.95 104.3 421.05Q103.2 424.5 101.7 425.9L96.95 430.75Q93.55 433.65 88.4 434.4Q82.8 433.25 79.45 432.2Q76.8 431.3 75.8 428.45Q74.5 424.95 74.8 420.6Q74.9 418.7 74.05 416.55Q73.2 414.45 71.7 412.75L69.95 410.75Q69 409.7 67.75 409Q66.8 408.45 64.05 407.45L62.4 406.85L66.65 404.55Q67.7 403.95 68.65 402.8L70.2 401.2L74.7 396.7Q76.7 394.8 80.8 394.8Q82.8 394.8 84.1 397.1Q85.4 399.4 85.8 399.4L86.35 398.95Q86.5 398.25 87 397.8Q87.45 397.35 88.3 396.9Q89.65 396.15 91.05 396.15L92 396.3Q93.6 397.2 94.4 398.4L95.4 400.5L96 402.7L95.95 403.9Q95.9 404.65 96.55 404.85L96.75 404.8L97.85 405.4Q99.55 406.15 100.15 406.75L103.5 409.7Q104.25 410.35 104.8 412.55M91.15,396.9Q88.05 398.35 88.05 400.1Q88.05 402.1 91.5 402.6L92.55 402.6Q93.7 401.95 94.15 401.35Q94.55 400.85 94.55 400.1Q94.55 399.15 94 398.5Q93.2 397.6 91.15 396.9M83.35,438.95L86.5 439.05Q90.25 439.05 97.85 436.95Q103.75 435.35 107.9 433.7L111.65 431.85Q113.85 430.6 114.8 430.2Q115.9 429.7 117.35 428.05L118.4 426.75L118.3 427.2L118.15 428.75L116.75 431.7Q115.5 433.4 113.7 434.65L109.75 436.95Q104.8 439.45 96.65 441.55Q87.25 443.95 79.95 443.95L74.85 444.25L72.1 443.85L71.05 443.85Q70.6 444.2 70.6 446.6L70.35 450.15Q69.05 453.7 67.35 454.95Q65.6 456.2 61.8 456.2L59.6 454.9L57.2 453.05Q56.05 451.8 55.15 449.3L54.5 446.15Q54 443.1 54 441.8Q54 440.45 55.05 436.2L56.1 432.2L56.15 432.05L56.4 430.45Q56.15 426.9 56.4 425.2L56.8 422.55Q57.2 421.45 58.1 420.7L58.95 425.1L60.25 430.5Q60.65 431.8 61.8 433.2Q63.15 434.9 64.75 435.7L66.7 436.55L70.9 437.35L73.05 438.2L81.1 438.85L83.35 438.95M120.85,447.25L122.65 444.9L120.75 450.05L120.6 450.45L121.1 459.05L121 458.75Q120.7 458.05 120.7 457.5L120.7 456.35Q120.55 455.6 119.65 455.95L118.45 458.6L116.6 460.95Q112.45 464.55 110.2 465.85L103.75 469.55Q99.8 471.75 96.35 472.95Q90.7 475.45 88.15 476.35Q84.2 477.65 71.8 479.25L66.75 479.25L62.55 478.9L60.2 478.55L58.45 478.55L49.75 490.1Q45.85 495.95 45.85 501.2Q45.85 504.5 47.1 507.1Q47.95 508.9 51.1 513.3L51.9 513.95L51.9 514.25L56.85 517.8L59.25 519.65Q61.15 521.05 62.15 521.45L65.05 522.75L68.3 524.15Q69.1 524.45 69.95 524.9L72.85 525.45L74.9 525.8L79.65 525.95L86.45 526.35L92.65 526.35L94.5 526.15L103.45 526.15Q119.2 525.1 125.05 523.85L131.35 521.65Q134.1 520.65 136.6 519Q139.25 517.3 140.35 515.65L142.25 513.2Q140.35 522.6 131.65 530.1Q126 535 120.25 537.3L119.7 537.25Q117.85 537.25 117.85 538.6Q117.85 541.5 125.25 550Q133.55 559.5 139.6 559.5Q144.5 559.5 144.5 553.5L144.5 552.7L146.6 550.3Q146.05 549.2 145.8 547.9Q145.3 545.3 146.6 544.2Q147.4 543.55 148.95 543.45Q149.2 542.45 150 541.5L151.1 540.55L151 541.2Q151 542.15 153.35 543.8L156.75 545.9L158.1 545.9L159.25 544.85L159.4 544.2Q160.1 545.9 159.7 547.25Q159.15 549.15 154.75 551.15L153.65 554.25L153.7 554.3L153.85 554.55L153.65 555.2L153.45 556.1L152.95 557.6L151.4 560.6L149.4 563.6Q148 565.35 146.1 566.2L145.25 565.95L144.15 566.1Q140.85 566.2 137.35 564.75Q130.5 561.8 122.9 552.6Q119.35 548.25 116 543L113.75 539.05Q106.85 540.5 99.8 540.9L94.3 547.85Q89.4 553.1 83.7 556.65L83.65 556.65Q81 558.3 78.2 559.55L75.6 560.65L75.7 560.85L75.6 561L75.25 560.8L68.2 563.1L68.1 563.2L67.9 563.15L67.85 563.15Q67.45 563.3 67.2 563.55L66.85 563.55L66.85 563.4L59.85 564.6L52.15 564.85Q48.8 566.2 45.6 566.1Q41.1 565.95 37.6 558.55L35 551.15Q30.6 549.15 30.05 547.25Q29.55 545.45 30.9 543.05Q32.45 540.25 35.4 539.9Q38.1 539.6 39.75 541.5Q40.55 542.45 40.8 543.45Q42.35 543.55 43.15 544.2Q44.45 545.3 43.95 547.9L43.15 550.3L43.25 550.4L44.55 549.45Q46.2 548.4 48.05 548.1L48.4 548.05L47.8 548.3Q45.25 549.5 45.25 551.1L45.35 551.8Q45.75 552.4 47.45 552.4Q49.2 552.4 52.25 550.85L54.85 549.3L57 550.1Q64 545.95 69.8 537.4L60 535.1Q52.4 532.25 46 525.65Q33.1 512.4 38.9 493.55Q39.9 490.35 44.6 486L50.7 480.3Q52.8 477.6 53.1 472.8L53 468.6Q35.6 471.4 23.5 482.75Q21.95 483.45 20.45 484.25Q10.55 489.35 3.65 496.85L3.9 497.3Q2 496 2 500Q2 504.05 4.6 505.8L5.25 505.8Q6.1 505.4 6.35 504.4L6.4 502.9L6.35 501.75Q7.6 505.8 4.5 507.7Q1.95 509.25 0.35 505.35Q-1.4 501.1 -1.7 501.15Q-2.3 501.25 -2.65 504.55Q-2.85 503.4 -3.3 502.45Q-4.25 500.6 -5.6 504Q-6.8 507.1 -6.8 510.75L-6.8 512.2Q-6.6 513.55 -5.65 513.55L-3.9 512.35L-3.4 510.65L-3.1 509.75Q-3.4 512.6 -3.75 513.05Q-4.8 514.5 -6.4 514.7Q-8.4 515 -9.65 512.85L-11.25 513.2L-11 507.2Q-10.85 504.8 -9.65 502.8L-8.5 501.25Q-8.5 500.95 -8.65 500.85L-9 500.75L-9.65 500.75Q-11.5 502.95 -12.15 505Q-12.7 506.65 -12.7 509.3L-12.7 511.35Q-12.55 513.05 -11.95 513.3Q-14.3 513.4 -15.35 511.75Q-15.95 510.75 -15.9 509.15L-17.4 506.85L-16.95 506.65L-16.9 505.55L-16.85 505.55Q-15.85 505.75 -15.45 504.65L-15 502.95L-14.1 501.25L-12.7 499.65Q-13.7 498.25 -15.85 500.7Q-17.95 503.1 -17.95 505.4L-17.95 505.75Q-19.3 502.85 -18.45 501.1Q-17.55 499.2 -14.65 496.9L-11.9 495L-11.6 494.6L-11.4 495.05L-11.05 495.5Q-10.8 496.2 -9.85 496.8Q-8.6 497.6 -7.2 497.6Q-4.9 497.6 -1.8 494.75L4.85 488.35Q8.75 484.95 17.45 479.1Q20.2 477.2 25.25 474.95Q28.1 473.65 33.6 471.35L41.8 468.1Q49.85 464.75 49.85 463.75L49.8 463.35L50.25 461.65L50.25 461.4L52.95 460.7Q50.8 458.45 49.35 456.35L48.95 456.3L48.85 455.85L48.9 455.65L48.7 455.3L48.6 455.3L48.55 455.1L47.7 453.45Q46.9 451.7 46.05 448.9L46 448.85L44.45 443.2L44.35 443.2L43.95 443.15L43.85 442.85Q43.85 442.55 44.2 442.25L42.5 435.2L39.9 422.75L35.6 418.05L40.9 417.85L34.55 408.6L42.35 411.9L35.8 400.6L46.05 403.3L41.35 394.3L51.15 401.35L51.15 401.05L52.25 401.95L52.6 401.95Q52 402.95 52 403.4Q52 403.9 52.25 404.15Q51.1 403.7 49.75 405.15Q48.6 406.35 48.6 406.85Q48.6 407.3 49.05 407.95L48.75 408.15Q48 408.45 48 409L48.6 410.05L47.8 412.1Q47.8 412.65 48.35 413.45L48.85 414.45L48.1 415.6Q47.35 416.7 47.35 417.45Q47.35 418 48.15 419.8L49.15 422.5L50 427.55L50.65 430.05L51.3 432.55L51.75 434.75L51.7 434.9Q51.7 436.15 52.2 437.75L52.15 439.5Q52.15 440.3 52.6 440.55L53.1 443.35L53.25 445.8L53.55 448.25Q54.05 450.95 56.3 453.7Q57.9 455.6 59.7 456.5Q61.1 457.95 62.95 458.7Q65.75 459.8 71.05 460L78.65 460.05L79.95 460.3L81.5 460.45Q87.3 460.45 96.55 458.35Q108.4 455.65 116.7 451.05Q118.1 450.25 120.85 447.25M59.15,437.65Q58.4 438.7 58 439.9L57.6 441.6L57.35 443.75L57.45 446.2Q57.7 447.95 58.55 448.05Q59.3 447.25 59.3 445.7L59.05 443.25Q59 442.55 59.55 440.5L60.1 438.05Q60.1 436.3 59.15 437.65M63.55,440.5Q61.55 442.4 61.55 447L61.5 448.1Q61.45 448.95 61.55 449.45L61.65 450.95Q61.85 451.75 62.95 452.05L64 452.05Q64.8 451.85 65.45 449.7Q66 447.8 66 446.25L65.6 442.45Q64.95 439.1 63.55 440.5M48.7,462.15L48.65 462.1L48.35 461.9L48.95 461.75L48.7 462.15M66.9,542.35Q64.85 544.85 61.65 547.2L58.5 549.55L55 551.55L50.5 553.55L47.15 554.35L46.15 554.7L45.9 554.65Q42.35 550.45 42.35 549.75Q42.35 549.55 42.9 548.1L43.4 546.1Q43.4 545.05 42.3 544.35Q41 543.5 39.25 544.15Q38.9 544.25 38.3 544.7Q37.75 545.1 37.15 545.45Q35.8 546.15 35.8 546.9L35.85 547.45L36.45 547.55L37.55 547.35Q38.7 547.2 39.35 547.6L40.15 548.45L40.45 549.3Q40.45 551.45 41.1 552.75Q41.6 553.8 44.7 556.35L47.6 558.6L47.75 558.8L49.35 559.05Q53.25 559.05 58.4 554.85L63.45 550.15Q65.7 548.2 68.25 544.5Q71.05 540.4 71.05 538.4L70.95 538Q69.6 538.1 68.6 539.6L66.9 542.35M73.75,543L67.9 551.3L72.6 550.7L71.95 550.85L69.55 551.5Q68.85 551.85 66.8 553.75L62.05 558.4Q62.05 558.75 62.75 559.3L64.5 559.3Q77.05 557 81.9 552.9L86.25 549Q90.6 544.95 90.6 543.75L90.5 543.2Q89.55 543.1 87.2 544.7Q84.35 546.65 83.4 547L80.55 547.95Q85.9 545.4 91.2 540.9Q83.7 540.45 76.35 538.65L73.75 543M33.1,542.75Q33.1 543.2 33.4 543.55Q33.95 544.15 35.15 544.15Q35.6 544.15 37.25 543.05Q38.95 541.9 38.95 541.45Q38.95 540.8 38.4 540.65Q35.1 540.05 33.75 541.35Q33.1 542 33.1 542.75M146.8,544.1Q146.4 544.35 146.4 545.15Q146.4 546.6 147.45 547.9Q148.8 549.6 151.3 550.05L152.85 550.05Q154.4 548.85 154.4 547.95Q154.4 547 152.7 545.5Q150.75 543.8 148.75 543.8L146.8 544.1M153.05,540L154.35 539.9Q156.9 540.2 158.4 542.3L156.6 540.9Q156 540.45 154.75 540.25L153.05 540" />
<path style="fill:#FFFFFF;fill-opacity:0.4" d="M100.85,407.5Q102.4 408.8 102.4 410.3Q102.4 413.45 95.95 414.35L94.9 414.5L91.85 414.4Q82.35 413.6 82.35 410.8Q82.35 409.9 82.7 409.3Q83.15 408.6 84.35 407.75Q84.7 407.45 85.4 407.2L85.55 406.8Q85.75 406.55 86 406.5L88.55 406L93.75 405.6Q98.55 405.6 100.85 407.5" />
<path style="fill:none;stroke-width:2;stroke-linecap:round;stroke-linejoin:miter;stroke-miterlimit:3;stroke:#AE4200;stroke-opacity:1" d="M57.5,393.9L55 398.6Q54.35 390.8 54.15 382.85Q53.65 366.85 55.65 365.85Q57.65 364.85 63.8 377.75Q66.9 384.2 69.55 390.85L65.45 390.6L64.25 393.5L60.95 389.8L59.3 395.95L57.5 393.9M110.4,378.6Q116.4 367.65 117.9 368.3Q119.4 368.95 118.2 384.35L116.65 399.65L115.05 393.7L112.15 397.15L112.35 391.85L110.3 393.7L108.25 390.2L104.7 389.65Q107.4 384.05 110.4 378.6" />
<path style="fill:none;stroke-width:3;stroke-linecap:butt;stroke-linejoin:miter;stroke-miterlimit:3;stroke:#AE4200;stroke-opacity:1" d="M146.6,544.2Q147.4 543.55 148.95 543.45M6.1,501.05Q7.85 505.65 4.5 507.7Q1.95 509.25 0.35 505.35Q-1.4 501.1 -1.7 501.15Q-2.5 501.3 -2.85 506.65Q-3.25 512.4 -3.75 513.05Q-4.8 514.5 -6.4 514.7Q-8.4 515 -9.65 512.85" />
<path style="fill:none;stroke-width:3;stroke-linecap:round;stroke-linejoin:miter;stroke-miterlimit:3;stroke:#AE4200;stroke-opacity:1" d="M52.95,460.7Q49.25 456.85 47.7 453.45Q45.5 448.6 42.5 435.2L39.9 422.75L35.6 418.05L40.9 417.85L34.55 408.6L42.35 411.9L35.8 400.6L46.05 403.3L41.35 394.3L51.15 401.35Q50.4 391.2 50.45 380.9Q50.6 360.3 54.65 359.7Q58.7 359.1 66.6 374.3Q70.55 381.9 73.7 389.6M190.05,509.1Q189.95 507.1 188.75 504.15L186.3 499.3M183.8,512.8Q184.95 510.8 183.7 506L182.2 501.55M121.4,468.6L121.15 468.55M91.2,540.9Q83.7 540.45 76.35 538.65L73.75 543M35,551.15L35.95 551.9Q37.15 552.7 38.45 553M154.75,551.15L153.8 551.9Q152.6 552.7 151.3 553M-9.65,512.85Q-10.8 510.85 -9.55 506.05L-8.05 501.6" />
<path style="fill:none;stroke-width:2;stroke-linecap:round;stroke-linejoin:miter;stroke-miterlimit:3;stroke:#582903;stroke-opacity:1" d="M65.85,438.2Q79.4 442.85 98.6 438.25Q107.4 436.1 113.15 432.7Q119.05 429.2 119.1 425.85Q119.1 424.9 116.15 424.45L113.2 424.2M75.1,423.8Q74.75 416.9 71.95 412.85Q68.35 407.65 60.75 407.2" />
<path style="fill:none;stroke-width:3;stroke-linecap:round;stroke-linejoin:miter;stroke-miterlimit:3;stroke:#AE4200;stroke-opacity:1" d="M73.7,389.6Q75.4 388.15 77.5 386.75Q81.65 383.95 83.5 384.25Q85.2 384.5 86.5 385.9Q87.85 387.25 88.45 387.35Q89.2 387.45 91.7 386.55Q94.15 385.55 95.2 385.7Q97.2 385.95 100.3 387.95Q103.85 381 108.15 374.25Q116.7 360.75 120.4 361.95Q124.1 363.15 123 383.35Q122.5 393.45 121.2 403.3L127.55 399.85L122.85 408L133.9 406.4L125.7 418.05L131.65 416.2L125.1 429.1L128.15 428.1L124.3 440L120.75 450.05L120.6 450.45M145.8,547.9Q145.3 545.3 146.6 544.2M3.65,496.85L6.1 501.05M73.75,543L67.9 551.3M-12.15,499.35L-14.6 504.2Q-15.8 507.15 -15.9 509.15" />
<path style="fill:none;stroke-width:3;stroke-linecap:round;stroke-linejoin:miter;stroke-miterlimit:3;stroke:#AE4200;stroke-opacity:1" d="M-9.65,512.85L-11.9 513.3Q-14.3 513.45 -15.35 511.75Q-15.95 510.75 -15.9 509.15Q-16.9 507.9 -17.7 506.25Q-19.35 503 -18.45 501.1Q-17.55 499.2 -14.65 496.9L-11.9 495Q-6.4 486.65 4.5 479.65Q21.9 468.5 52.95 460.7Q57.25 465.2 62.65 468.6Q68.25 472.15 72.65 472.9Q81.25 474.4 97.85 468.55Q114.6 462.6 117.9 456.55Q119 454.6 120.6 450.45L121.2 460.65Q152.25 468.45 169.65 479.6Q180.55 486.6 186.05 494.95L188.8 496.85Q191.7 499.15 192.6 501.05Q193.5 502.95 191.85 506.2Q191.05 507.85 190.05 509.1Q190.1 510.7 189.5 511.7Q188.45 513.4 186.05 513.25L183.8 512.8Q182.55 514.95 180.55 514.65Q178.95 514.45 177.9 513Q177.4 512.35 177 506.6Q176.65 501.25 175.85 501.1Q175.55 501.05 173.8 505.3Q172.2 509.2 169.65 507.65Q166.3 505.6 168.05 501L170.5 496.8Q163.6 489.3 153.7 484.2L150.65 482.7Q138.65 471.45 121.4 468.6M148.95,543.45Q149.2 542.45 150 541.5Q151.65 539.6 154.35 539.9Q157.3 540.25 158.85 543.05Q160.2 545.45 159.7 547.25Q159.15 549.15 154.75 551.15L152.15 558.55Q148.65 565.95 144.15 566.1Q140.85 566.2 137.35 564.75Q130.5 561.8 122.9 552.6Q119.35 548.25 116 543L113.75 539.05Q106.85 540.5 99.8 540.9L94.3 547.85Q87.05 555.55 78.2 559.55Q69.35 563.55 59.85 564.6L52.15 564.85Q48.8 566.2 45.6 566.1Q41.1 565.95 37.6 558.55L35 551.15Q30.6 549.15 30.05 547.25Q29.55 545.45 30.9 543.05Q32.45 540.25 35.4 539.9Q38.1 539.6 39.75 541.5Q40.55 542.45 40.8 543.45Q42.35 543.55 43.15 544.2Q44.45 545.3 43.95 547.9L43.15 550.3L43.25 550.4L44.55 549.45Q46.2 548.4 48.05 548.1Q49.9 547.8 53.65 548.9L57 550.1M67.9,551.3Q79.55 550.75 91.2 540.9Q95.45 541.1 99.8 540.9M40.8,543.45Q38.55 543.35 36.55 544.5Q34.3 545.8 33.95 547.85Q33.65 549.75 35 551.15M67.9,551.3L66.85 552.6Q59.25 561.8 52.4 564.75L52.15 564.85M43.25,550.4L46.45 554Q49.5 553.5 52.4 552.4Q54.8 551.45 57 550.1M148.95,543.45Q151.2 543.35 153.2 544.5Q155.45 545.8 155.8 547.85Q156.1 549.75 154.75 551.15" />
<path style="fill:none;stroke-width:2;stroke-linecap:round;stroke-linejoin:miter;stroke-miterlimit:3;stroke:#582903;stroke-opacity:1" d="M94.95,405.15Q95.45 404.5 95.6 403.3Q95.85 400.95 94 398.35Q92.15 395.75 88.65 397.4L85.55 399.6Q86.35 401.75 86.05 404.55L85.6 406.9M85.55,399.6Q84.65 397.2 82.3 395.9Q79.25 394.25 76 396.3Q72.2 398.7 71.7 406Q71.45 409.7 71.95 412.85M65.85,438.2L63 437.1Q60.45 436 59 430.7" />
<path style="fill:none;stroke-width:2;stroke-linecap:round;stroke-linejoin:miter;stroke-miterlimit:3;stroke:#993127;stroke-opacity:1" d="M85.6,406.9Q87.35 406.05 89.4 405.55L94.95 405.15Q97.4 405.4 99.6 406.6Q104.15 409.1 104.55 413.75Q105.1 419.6 98.05 423.95Q91.35 428.1 85.1 426.85Q80.15 425.85 77.35 422.6L75.5 419.5Q76.05 416.75 78.1 413.6Q81 409.1 85.6 406.9z" />
<path style="fill:none;stroke-width:2;stroke-linecap:round;stroke-linejoin:miter;stroke-miterlimit:3;stroke:#582903;stroke-opacity:1" d="M55,444.85Q55.1 448.3 57.1 451.2Q59.6 454.8 63.4 453.9Q66.95 453.05 66.75 445.55L65.85 438.2M57.65,420.1L57.85 423.6Q58.2 427.65 59 430.7" />
<path style="fill:none;stroke-width:2;stroke-linecap:butt;stroke-linejoin:miter;stroke-miterlimit:3;stroke:#582903;stroke-opacity:1" d="M59,430.7L56.95 436.45Q54.95 442.65 55 444.85" />
<path style="fill:none;stroke-width:3;stroke-linecap:butt;stroke-linejoin:miter;stroke-miterlimit:3;stroke:#AE4200;stroke-opacity:1" d="M121.4,468.6L122.65 472.05Q124.2 476 125.9 478.65Q126.6 479.7 129.55 481.8Q133.15 484.35 135 486.25Q142.2 493.5 142.7 506.7Q143.25 520.1 131.65 530.1Q125.85 535.1 119.95 537.4Q127.5 548.5 137.35 552.4Q140.25 553.5 143.3 554L146.6 550.3Q146.05 549.2 145.8 547.9M57,550.1Q64 545.95 69.8 537.4L60 535.1Q52.4 532.25 46 525.65Q33.1 512.4 38.9 493.55Q39.9 490.35 44.6 486L50.7 480.3Q52.8 477.6 53.1 472.8L53 468.6Q35.6 471.4 23.5 482.75Q21.95 483.45 20.45 484.25Q10.55 489.35 3.65 496.85" />
<path style="fill:#582903;fill-opacity:1" d="M72.15,392.85L72.1 392.45Q72.1 391.85 73.35 390.1Q74.15 388.5 75.9 386.55Q76.8 385.45 78.8 384.35Q79.55 383.85 80.85 383.35Q82.15 382.9 82.85 382.8L83 382.85L83.05 383L82.8 383.45L82.55 383.85L82.55 383.95L85.1 383.4L85.2 383.6L84.4 384.25L86.85 385.1L87.7 385.5L88.2 386.05L88.1 386.25Q84.8 386.9 82.6 387.8L78.7 389.45Q78.25 389.6 77.15 390.2L75.4 391.1L74.6 391.65L72.4 392.9L72.15 392.85M94.45,383.5L96.05 383.95Q97.1 384.35 97.7 384.75Q99.25 385.65 100 386.5Q101.4 388.05 102 389.35Q103 390.75 103 391.2L103 391.55L102.8 391.55L101.05 390.55Q100.65 390.45 100.4 390.15L99 389.4L97.75 388.8L94.65 387.5Q92.9 386.8 90.25 386.25L90.2 386.1L90.6 385.65L91.25 385.35L93.2 384.65L92.6 384.15L92.65 384L94.7 384.45L94.7 384.35L94.5 384.05L94.3 383.7L94.35 383.55L94.45 383.5" />
</g>
</svg>
