<?xml version="1.0" encoding="utf-8"?>
<svg version="1.1" id="Layer_1"
xmlns="http://www.w3.org/2000/svg"
xmlns:xlink="http://www.w3.org/1999/xlink"
xmlns:author="http://www.sothink.com"
width="186px" height="197px"
xml:space="preserve">
<g id="82" transform="matrix(1, 0, 0, 1, 75.3, 190.2)">
<path style="fill:#BFA052;fill-opacity:1" d="M-59.85,-167.35L-62.3 -167.55L-62.7 -170.15L-62.75 -172.55L-62.45 -176.85L-62.3 -182.25L-62.1 -182.2L-58.95 -182.05L-48.95 -182.5L-41.65 -182.3L-38.1 -182.35Q-35.95 -182.2 -35.95 -180.25L-36.25 -176.35L-36.55 -172.45L-36.4 -167.65L-36.35 -167.5L-39.7 -167.45L-39.75 -167.45L-52.5 -167.15L-59.85 -167.35M-26.75,-126.25Q-28.95 -124.15 -37.45 -124.55L-49.35 -123.95L-61.45 -123.15L-65.75 -123.5L-66.25 -128.3L-66.5 -131.9Q-66.5 -139.05 -66 -143.55Q-65.85 -145.75 -65.4 -146.9L-64.6 -146.55Q-63 -146 -60.55 -146L-54.3 -146.4Q-54.15 -146.1 -53.95 -146.4L-46.25 -146L-42.1 -146.2L-38 -146.4L-32.4 -146.05Q-29.95 -145.15 -29.65 -140.9Q-29.3 -135.95 -28.8 -133Q-28.05 -129.05 -26.85 -126.4L-26.75 -126.25" />
<path style="fill:#D9C07F;fill-opacity:1" d="M-36.4,-167.65L-36.55 -172.45L-36.25 -176.35L-35.95 -180.25Q-35.95 -182.2 -38.1 -182.35L-41.65 -182.3L-48.95 -182.5L-58.95 -182.05L-62.1 -182.2L-62.3 -182.25L-62.3 -182.45L-62.2 -182.9Q-61.75 -183.9 -59.45 -184.45L-52.5 -185L-41.65 -184.6L-40.25 -184.65L-33.65 -184.15Q-32.55 -183.45 -32.55 -179.45L-32.95 -173.1L-33.65 -167.55L-36.35 -167.5L-36.4 -167.65M-54.3,-146.4L-60.55 -146Q-63 -146 -64.6 -146.55L-65.4 -146.9Q-64.95 -148.2 -64.2 -148.35L-61.4 -148.7L-60.25 -148.8L-59.25 -148.75L-55.4 -148.6L-41.7 -148.45L-41.7 -148.4L-41.65 -148.3L-41.5 -148.3L-39.8 -148.3L-31.2 -148.3Q-26.65 -148.8 -25.65 -138.9Q-24.65 -129.05 -26.45 -126.6L-26.85 -126.4Q-28.05 -129.05 -28.8 -133Q-29.3 -135.95 -29.65 -140.9Q-29.95 -145.15 -32.4 -146.05L-38 -146.4L-42.1 -146.2L-46.25 -146L-53.95 -146.4L-54.05 -146.4L-54.3 -146.4" />
<path style="fill:#CCCCCC;fill-opacity:1" d="M-41.65,-184.6L-52.5 -185L-59.45 -184.45L-59.3 -186.8L-59.25 -188.4Q-58.6 -189.2 -57.15 -189.35L-51.45 -189.65Q-47.3 -189.85 -42.35 -188.75Q-41.35 -185.7 -41.65 -184.6M-43.4,-158.25Q-43.2 -158.85 -43.4 -160.55L-43.4 -163.9L-41.15 -164.1L-40.05 -164.25L-40.05 -162.2L-39.75 -149.35L-39.8 -148.3L-41.5 -148.3L-41.55 -148.35L-41.45 -148.4L-41.6 -148.4L-41.7 -148.45L-55.4 -148.6L-55.65 -149.2Q-56.9 -152.15 -56.9 -153.1Q-56.9 -158.35 -56.5 -159.95Q-55.35 -164 -51.4 -164.05L-51.25 -164.05L-51.2 -164.05L-49.95 -164L-49.9 -163.05L-49.7 -159.85L-49.7 -158.1L-45.05 -157.7L-43.7 -157.9Q-43.5 -157.95 -43.4 -158.25" />
<path style="fill:#A6A1A1;fill-opacity:1" d="M-59.25,-148.75L-60.25 -148.8L-60.2 -157.95L-59.85 -167.35L-52.5 -167.15L-39.75 -167.45L-39.75 -167.2L-40.05 -164.25L-41.15 -164.1L-43.4 -163.9L-43.4 -164.75L-50 -164.6L-49.95 -164L-51.2 -164.05L-51.25 -164.05L-51.4 -164.05Q-55.35 -164 -56.5 -159.95Q-56.9 -158.35 -56.9 -153.1Q-56.9 -152.15 -55.65 -149.2L-55.4 -148.6L-59.25 -148.75" />
<path style="fill:#201F1F;fill-opacity:1" d="M-43.4,-160.55Q-43.2 -158.85 -43.4 -158.25Q-47.8 -159 -49.9 -163.05L-49.95 -164L-50 -164.6L-43.4 -164.75L-43.4 -163.9L-43.4 -160.55M-46.25,-163L-46.35 -162.65Q-46.15 -161.75 -45.55 -161.75Q-45.25 -161.75 -45 -162.15Q-44.85 -162.45 -44.85 -162.7Q-44.85 -163.35 -45.9 -163.45L-46.25 -163" />
<path style="fill:#3A3838;fill-opacity:1" d="M-43.7,-157.9L-45.05 -157.7L-49.7 -158.1L-49.7 -159.85L-49.9 -163.05Q-47.8 -159 -43.4 -158.25Q-43.5 -157.95 -43.7 -157.9" />
<path style="fill:#A19F9F;fill-opacity:1" d="M-45.9,-163.45Q-44.85 -163.35 -44.85 -162.7Q-44.85 -162.45 -45 -162.15Q-45.25 -161.75 -45.55 -161.75Q-46.15 -161.75 -46.35 -162.65L-46.25 -163L-45.9 -163.45" />
<path style="fill:none;stroke-width:1;stroke-linecap:butt;stroke-linejoin:miter;stroke-miterlimit:3;stroke:#34495F;stroke-opacity:1" d="M-39.7,-167.45L-39.75 -167.2M-26.45,-126.6L-26.75 -126.25M-62.3,-182.45L-62.3 -182.6L-62.2 -182.9M-41.65,-148.3L-41.55 -148.35L-41.6 -148.4L-41.7 -148.4" />
<path style="fill:none;stroke-width:1;stroke-linecap:butt;stroke-linejoin:miter;stroke-miterlimit:3;stroke:#5D4D24;stroke-opacity:1" d="M-36.35,-167.5L-33.65 -167.55L-32.95 -173.1L-32.55 -179.45Q-32.55 -183.45 -33.65 -184.15L-40.25 -184.65L-41.65 -184.6L-52.5 -185L-59.45 -184.45Q-61.75 -183.9 -62.2 -182.9L-62.3 -182.45L-62.3 -182.25M-36.35,-167.5L-39.7 -167.45M-39.75,-167.2L-40.05 -164.25L-40.05 -162.2L-39.75 -149.35L-39.8 -148.3L-31.2 -148.3Q-26.65 -148.8 -25.65 -138.9Q-24.65 -129.05 -26.45 -126.6M-26.75,-126.25Q-28.95 -124.15 -37.45 -124.55L-49.35 -123.95L-61.45 -123.15L-65.75 -123.5L-66.25 -128.3L-66.5 -131.9Q-66.5 -139.05 -66 -143.55Q-65.85 -145.75 -65.4 -146.9Q-64.95 -148.2 -64.2 -148.35L-61.4 -148.7L-60.25 -148.8L-60.2 -157.95L-59.85 -167.35L-62.3 -167.55L-62.7 -170.15L-62.75 -172.55L-62.45 -176.85L-62.3 -182.25M-39.75,-167.45L-39.7 -167.45M-39.75,-167.45L-52.5 -167.15L-59.85 -167.35M-59.45,-184.45L-59.3 -186.8L-59.25 -188.4Q-58.6 -189.2 -57.15 -189.35L-51.45 -189.65Q-47.3 -189.85 -42.35 -188.75Q-41.35 -185.7 -41.65 -184.6M-43.4,-158.25Q-43.2 -158.85 -43.4 -160.55L-43.4 -163.9L-43.4 -164.75L-50 -164.6L-49.95 -164L-49.9 -163.05L-49.7 -159.85L-49.7 -158.1L-45.05 -157.7L-43.7 -157.9Q-43.5 -157.95 -43.4 -158.25M-60.25,-148.8L-59.25 -148.75L-55.4 -148.6L-41.7 -148.45L-41.6 -148.4L-41.45 -148.4L-41.55 -148.35L-41.5 -148.3L-39.8 -148.3M-41.7,-148.4L-41.65 -148.3L-41.5 -148.3M-41.7,-148.4L-41.7 -148.45" />
<path style="fill:#728FAD;fill-opacity:1" d="M-27.95,-7.5L-67.55 -6.6Q-69.8 -13.9 -69.8 -24.75Q-69.8 -32.4 -69 -38.9L-67.95 -46L-66.5 -57.65L-64.65 -74.4Q-63.15 -88.65 -63.15 -90.9Q-63.15 -99.3 -65.4 -105.7L-67.15 -110.15L-66.35 -110.15Q-63 -110.15 -59.1 -113.5Q-55.15 -116.85 -53.35 -116.85L-50.1 -115.15Q-47.1 -113.5 -45.55 -113.5L-41.3 -114.1L-36.4 -114.8L-33.5 -114.5L-29.75 -114L-21.55 -113.2L-21.6 -113.5L-0.85 -115.15L5.1 -114.65L18.3 -114.15L26.8 -114.55Q30.25 -115.1 37.2 -117.45Q40.05 -118.4 44.85 -118.8L46.5 -118.95Q51.2 -119.2 52.5 -120.5Q61.7 -129.45 76.95 -129.45L80.55 -129.15L79.7 -128.2L78.85 -127.2Q77.95 -125.9 77.95 -123.2Q77.95 -121.1 78.35 -120.1Q78.95 -118.55 80.6 -118.55Q84.1 -118.55 86.3 -120.85Q88.25 -122.95 88.25 -125.65Q88.25 -127.2 87.3 -128.5L91.45 -128.45L98.9 -127.7Q97.4 -122.8 94.8 -118.05Q91.45 -111.8 84.45 -103.55Q76.3 -93.85 74.55 -91.25Q70.1 -84.65 68.15 -76.35Q66.15 -68.1 66.75 -48.9Q67.35 -29.75 67.1 -28.8Q66.9 -27.9 67.45 -19.4Q67.85 -13.3 67.5 -9.8L29.6 -8.9L-27.95 -7.5M-55.3,-44.65L-55.4 -41.55L-55.4 -39.9L-55.35 -35.8L-55.3 -34.65Q-55.1 -31.85 -53.9 -29.95Q-52.2 -27.2 -48.85 -27.25Q-44.9 -27.05 -43.55 -27.25L-41 -27.45L-38.85 -27.4L-17.85 -26.7L1.6 -26.4L29.9 -27.8L31.4 -27.9L39.05 -27.9L48.4 -28.75Q54.8 -29.55 56.25 -32.45L57 -34.6Q57.65 -36.85 57.7 -40.05L57.7 -40.75Q57.65 -46.1 58.2 -62.2L58.65 -78.75L58.55 -81.9L58.4 -83.2L58.4 -83.45L58.65 -90.55Q58.65 -99.65 52.7 -101.3L48.2 -102.4L39.05 -103.85L25.4 -104.25Q19.5 -103.8 -12.75 -104.85L-26.4 -104.5L-31.35 -104.75L-34.2 -104.9L-34.25 -104.9Q-44.25 -104.8 -48.85 -101.3Q-52.65 -98.45 -53.5 -92.45L-53.65 -89.6L-53.7 -88.7L-53.85 -82.75L-54.6 -59.45L-54.65 -58.2L-54.8 -56.1L-55 -47.9L-55.3 -44.65M41.95,-107.1Q41.95 -106.6 42.25 -106.2Q42.8 -105.25 44.2 -105.25Q45.25 -105.25 45.55 -105.75Q45.75 -106.05 45.75 -106.9Q45.75 -108.35 43.9 -108.45Q41.95 -108.55 41.95 -107.1M49.5,-107.1Q50.3 -105.9 51.7 -105.9Q52.75 -105.9 53.05 -106.85L53.1 -108.25Q53.1 -110.85 51.05 -110.85Q48.95 -110.85 48.95 -108.35Q48.95 -107.85 49.5 -107.1M71.05,-91.9Q71.05 -93.85 69 -93.85Q66.9 -93.85 66.9 -92L67.15 -91.15Q67.75 -90 69.15 -90Q70.55 -90 70.9 -90.65L71.05 -91.9M64.15,-82.65Q66.05 -82.65 66.75 -83.15Q67.35 -83.65 67.35 -84.9Q67.35 -87.5 65.15 -86.7Q62.9 -85.95 62.9 -83.85Q62.9 -82.65 64.15 -82.65M32.05,-22.8Q32.4 -22.15 33.85 -22.15Q36.15 -22.15 36.15 -24.15Q36.15 -25.95 34.1 -25.75Q32 -25.6 32 -23.7L32.05 -22.8M33.55,-16.1Q31.7 -16.2 31.7 -14.1L31.9 -12.6Q32.35 -11.2 33.55 -11.2Q35.4 -11.2 35.4 -14Q35.4 -16 33.55 -16.1M-38.8,-108.1L-38.7 -107.45Q-38.45 -106.9 -37.55 -106.9Q-37.15 -106.9 -36.75 -107.25Q-36.3 -107.65 -36.3 -108.15Q-36.3 -109.4 -37.55 -109.4Q-38.8 -109.4 -38.8 -108.1M-30.25,-109.4Q-31.5 -109.4 -31.5 -108.1Q-31.5 -106.9 -30.25 -106.9Q-29.8 -106.9 -29.45 -107.25Q-29 -107.65 -29 -108.15Q-29 -109.4 -30.25 -109.4M-60,-48.3Q-59.55 -47.4 -57.85 -47.4Q-56.75 -47.4 -56.3 -47.75Q-55.95 -48.05 -55.95 -49Q-55.95 -50.95 -58.05 -51Q-60.15 -51 -60.15 -49.2L-60 -48.3M-22.95,-23.95Q-24.2 -23.95 -24.6 -23.5L-24.85 -22.4Q-24.85 -20.5 -22.45 -20.5Q-21 -20.5 -21 -22.2L-21.1 -23.15Q-21.5 -23.95 -22.95 -23.95M-29.65,-21.1Q-29.65 -22.75 -31.7 -22.8Q-33.8 -22.9 -33.8 -21.3L-33.65 -20.4Q-33.15 -19.5 -31.4 -19.5Q-30.45 -19.5 -30.1 -19.85Q-29.65 -20.2 -29.65 -21.1" />
<path style="fill:#D2E2F3;fill-opacity:1" d="M-66.25,-3.25L-66.6 -3.95L-67.55 -6.6L-27.95 -7.5L29.6 -8.9L67.5 -9.8L67.1 -7.4L66.45 -4.95L-66.25 -3.25" />
<path style="fill:#AD5252;fill-opacity:1" d="M66.45,-4.95L65.55 -2.75L64.2 -0.6Q63.6 0.4 56.5 3.85Q52.45 5.85 47 5.85Q43.3 5.65 -54.95 6.25L-55.3 6.1Q-62.55 5.2 -66.25 -3.25L66.45 -4.95" />
<path style="fill:#597593;fill-opacity:1" d="M-36.4,-114.8L-41.3 -114.1L-45.55 -113.5Q-47.1 -113.5 -50.1 -115.15L-53.35 -116.85Q-55.15 -116.85 -59.1 -113.5Q-63 -110.15 -66.35 -110.15L-67.15 -110.15L-70.3 -118.15L-64.5 -118.15L-33.55 -119.85L-24.9 -120.15L-17.4 -119.9L-17.05 -119.9L10.8 -120.8L29.4 -121.1Q38.15 -121.1 42.6 -123.85L43.15 -124.2Q45.35 -125.85 47.9 -129.7Q50.6 -133.7 53.6 -135.1Q58.3 -137.25 67.8 -136.4Q72.95 -135.95 79.8 -136.2L92.75 -137.1L99.7 -137.45L100.7 -137.1Q100.25 -132.35 98.9 -127.7L91.45 -128.45L87.3 -128.5L86.7 -129.25Q85.25 -130.8 83.65 -130.8L82.2 -130.65L81.8 -130.25L80.9 -129.5L80.55 -129.15L76.95 -129.45Q61.7 -129.45 52.5 -120.5Q51.2 -119.2 46.5 -118.95L44.85 -118.8Q40.05 -118.4 37.2 -117.45Q30.25 -115.1 26.8 -114.55L18.3 -114.15L5.1 -114.65L-0.85 -115.15L-21.6 -113.5L-21.55 -113.2L-29.75 -114L-33.5 -114.5L-36.4 -114.8M43.9,-108.45Q45.75 -108.35 45.75 -106.9Q45.75 -106.05 45.55 -105.75Q45.25 -105.25 44.2 -105.25Q42.8 -105.25 42.25 -106.2Q41.95 -106.6 41.95 -107.1Q41.95 -108.55 43.9 -108.45M48.95,-108.35Q48.95 -110.85 51.05 -110.85Q53.1 -110.85 53.1 -108.25L53.05 -106.85Q52.75 -105.9 51.7 -105.9Q50.3 -105.9 49.5 -107.1Q48.95 -107.85 48.95 -108.35M70.9,-90.65Q70.55 -90 69.15 -90Q67.75 -90 67.15 -91.15L66.9 -92Q66.9 -93.85 69 -93.85Q71.05 -93.85 71.05 -91.9L70.9 -90.65M62.9,-83.85Q62.9 -85.95 65.15 -86.7Q67.35 -87.5 67.35 -84.9Q67.35 -83.65 66.75 -83.15Q66.05 -82.65 64.15 -82.65Q62.9 -82.65 62.9 -83.85M32,-23.7Q32 -25.6 34.1 -25.75Q36.15 -25.95 36.15 -24.15Q36.15 -22.15 33.85 -22.15Q32.4 -22.15 32.05 -22.8L32 -23.7M35.4,-14Q35.4 -11.2 33.55 -11.2Q32.35 -11.2 31.9 -12.6L31.7 -14.1Q31.7 -16.2 33.55 -16.1Q35.4 -16 35.4 -14M-37.55,-109.4Q-36.3 -109.4 -36.3 -108.15Q-36.3 -107.65 -36.75 -107.25Q-37.15 -106.9 -37.55 -106.9Q-38.45 -106.9 -38.7 -107.45L-38.8 -108.1Q-38.8 -109.4 -37.55 -109.4M-29,-108.15Q-29 -107.65 -29.45 -107.25Q-29.8 -106.9 -30.25 -106.9Q-31.5 -106.9 -31.5 -108.1Q-31.5 -109.4 -30.25 -109.4Q-29 -109.4 -29 -108.15M-60.15,-49.2Q-60.15 -51 -58.05 -51Q-55.95 -50.95 -55.95 -49Q-55.95 -48.05 -56.3 -47.75Q-56.75 -47.4 -57.85 -47.4Q-59.55 -47.4 -60 -48.3L-60.15 -49.2M-21.1,-23.15L-21 -22.2Q-21 -20.5 -22.45 -20.5Q-24.85 -20.5 -24.85 -22.4L-24.6 -23.5Q-24.2 -23.95 -22.95 -23.95Q-21.5 -23.95 -21.1 -23.15M-30.1,-19.85Q-30.45 -19.5 -31.4 -19.5Q-33.15 -19.5 -33.65 -20.4L-33.8 -21.3Q-33.8 -22.9 -31.7 -22.8Q-29.65 -22.75 -29.65 -21.1Q-29.65 -20.2 -30.1 -19.85" />
<path style="fill:#BFA052;fill-opacity:1" d="M-74.3,-126.05L-71.85 -125.5Q-67.45 -125.75 -65.05 -125.6L-63.65 -125.4L-54.75 -123.75L-48 -123.55L-36.9 -124.7L-28.15 -125.7L-26.45 -125.8L-18.7 -125.05L-12.1 -124.25L1.6 -125.3L16.45 -126.6Q18.05 -126.8 23.05 -126.65Q27.05 -126.6 29.3 -127.45Q32.6 -128.7 35.2 -132.8L34 -133.7L37.75 -137.85L38.6 -138.85Q41.1 -141.7 43.35 -143.4Q44.2 -142.05 46.3 -141.5L53.45 -141.1L64.45 -142.05L74.3 -143Q103.5 -143.6 103.5 -143.75L109.4 -145.1Q109.15 -139.25 104.95 -138.05L100.8 -137.5L99.7 -137.45L92.75 -137.1L79.8 -136.2Q72.95 -135.95 67.8 -136.4Q58.3 -137.25 53.6 -135.1Q50.6 -133.7 47.9 -129.7Q45.35 -125.85 43.15 -124.2L42.6 -123.85Q38.15 -121.1 29.4 -121.1L10.8 -120.8L-17.05 -119.9L-17.4 -119.9L-24.9 -120.15L-33.55 -119.85L-64.5 -118.15L-70.3 -118.15L-74.15 -118.15L-74.25 -125.1L-74.3 -126.05" />
<path style="fill:#D9C07F;fill-opacity:1" d="M103.5,-143.75Q103.5 -143.6 74.3 -143L64.45 -142.05L53.45 -141.1L46.3 -141.5Q44.2 -142.05 43.35 -143.4L44.25 -144.05Q47 -146 58.8 -147.6L75.3 -149.05L88.1 -148.5L100.55 -148.05L106.05 -148.4Q109.4 -148.2 109.4 -145.75L109.4 -145.1L103.5 -143.75M-74.45,-127.8Q-73.95 -128.45 -73 -128.45L-66.45 -127.95L-64.75 -127.8L-60.5 -127.45L-47.85 -127.15L-28.25 -128L-12.75 -128.85L18.95 -129.8Q28.4 -128.4 34 -133.7L35.2 -132.8Q32.6 -128.7 29.3 -127.45Q27.05 -126.6 23.05 -126.65Q18.05 -126.8 16.45 -126.6L1.6 -125.3L-12.1 -124.25L-18.7 -125.05L-26.45 -125.8L-28.15 -125.7L-36.9 -124.7L-48 -123.55L-54.75 -123.75L-63.65 -125.4L-65.05 -125.6Q-67.45 -125.75 -71.85 -125.5L-74.3 -126.05L-74.45 -127.8" />
<path style="fill:#34495F;fill-opacity:1" d="M81.8,-130.25L82.2 -130.65L83.65 -130.8Q85.25 -130.8 86.7 -129.25L87.3 -128.5Q88.25 -127.2 88.25 -125.65Q88.25 -122.95 86.3 -120.85Q84.1 -118.55 80.6 -118.55Q78.95 -118.55 78.35 -120.1Q77.95 -121.1 77.95 -123.2Q77.95 -125.9 78.85 -127.2L79.7 -128.2L80.55 -129.15L80.9 -129.5L81.8 -130.25" />
<path style="fill:none;stroke-width:1;stroke-linecap:butt;stroke-linejoin:miter;stroke-miterlimit:3;stroke:#333333;stroke-opacity:1" d="M-74.25,-125.1L-74.75 -125.8L-74.8 -126.25L-74.8 -126.6L-74.65 -127.4L-74.45 -127.8" />
<path style="fill:none;stroke-width:0.1;stroke-linecap:butt;stroke-linejoin:miter;stroke-miterlimit:3;stroke:#333333;stroke-opacity:1" d="M80.55,-129.15L80.9 -129.5L81.75 -130.4L81.8 -130.25L82.2 -130.65L83.65 -130.8Q85.25 -130.8 86.7 -129.25L87.3 -128.5M80.55,-129.15L79.7 -128.2L78.85 -127.2Q77.95 -125.9 77.95 -123.2Q77.95 -121.1 78.35 -120.1Q78.95 -118.55 80.6 -118.55Q84.1 -118.55 86.3 -120.85Q88.25 -122.95 88.25 -125.65Q88.25 -127.2 87.3 -128.5M80.9,-129.5L81.8 -130.25" />
<path style="fill:none;stroke-width:1;stroke-linecap:butt;stroke-linejoin:miter;stroke-miterlimit:3;stroke:#5D4D24;stroke-opacity:1" d="M109.4,-145.1L109.4 -145.75Q109.4 -148.2 106.05 -148.4L100.55 -148.05L88.1 -148.5L75.3 -149.05L58.8 -147.6Q47 -146 44.25 -144.05L43.35 -143.4M109.4,-145.1Q109.15 -139.25 104.95 -138.05L100.8 -137.5L99.7 -137.45L92.75 -137.1L79.8 -136.2Q72.95 -135.95 67.8 -136.4Q58.3 -137.25 53.6 -135.1Q50.6 -133.7 47.9 -129.7Q45.35 -125.85 43.15 -124.2M-70.3,-118.15L-74.15 -118.15L-74.25 -125.1M-74.45,-127.8Q-73.95 -128.45 -73 -128.45L-66.45 -127.95L-64.75 -127.8L-60.5 -127.45L-47.85 -127.15L-28.25 -128L-12.75 -128.85L18.95 -129.8Q28.4 -128.4 34 -133.7L37.75 -137.85L38.6 -138.85Q41.1 -141.7 43.35 -143.4M-70.3,-118.15L-64.5 -118.15L-33.55 -119.85L-24.9 -120.15L-17.4 -119.9L-17.05 -119.9L10.8 -120.8L29.4 -121.1Q38.15 -121.1 42.6 -123.85L43.15 -124.2M-74.45,-127.8L-74.3 -126.05L-74.25 -125.1" />
<path style="fill:none;stroke-width:1;stroke-linecap:butt;stroke-linejoin:miter;stroke-miterlimit:3;stroke:#34495F;stroke-opacity:1" d="M100.7,-137.1Q100.25 -132.35 98.9 -127.7Q97.4 -122.8 94.8 -118.05Q91.45 -111.8 84.45 -103.55Q76.3 -93.85 74.55 -91.25Q70.1 -84.65 68.15 -76.35Q66.15 -68.1 66.75 -48.9Q67.35 -29.75 67.1 -28.8Q66.9 -27.9 67.45 -19.4Q67.85 -13.3 67.5 -9.8L67.1 -7.4L66.45 -4.95L65.55 -2.75L64.2 -0.6Q63.6 0.4 56.5 3.85Q52.45 5.85 47 5.85Q43.3 5.65 -54.95 6.25M-55.3,6.1Q-62.55 5.2 -66.25 -3.25L-66.6 -3.95L-67.55 -6.6Q-69.8 -13.9 -69.8 -24.75Q-69.8 -32.4 -69 -38.9L-67.95 -46L-66.5 -57.65L-64.65 -74.4Q-63.15 -88.65 -63.15 -90.9Q-63.15 -99.3 -65.4 -105.7L-67.15 -110.15L-70.3 -118.15M43.15,-124.2Q44.05 -122.05 44.85 -118.8L45.9 -113.25Q47.45 -104.25 47.9 -102.5L48.2 -102.4L52.7 -101.3Q58.65 -99.65 58.65 -90.55L58.4 -83.45L58.4 -83.2L58.55 -81.9L58.65 -78.75L58.2 -62.2Q57.65 -46.1 57.7 -40.75L57.7 -40.05Q57.65 -36.85 57 -34.6L56.25 -32.45Q54.8 -29.55 48.4 -28.75L39.05 -27.9L31.4 -27.9L29.9 -27.8L29.75 -18.25L29.6 -8.9M-33.5,-114.5L-33.5 -112.1Q-33.45 -107.15 -34.25 -104.9L-34.2 -104.9L-31.35 -104.75L-26.4 -104.5L-12.75 -104.85Q19.5 -103.8 25.4 -104.25L39.05 -103.85L48.2 -102.4M59.15,-90.25Q61.55 -89.75 65.2 -88.5L71.15 -86.55L71.15 -87.25M29.9,-27.8L1.6 -26.4L-17.85 -26.7L-38.85 -27.4L-41 -27.45L-43.55 -27.25Q-44.9 -27.05 -48.85 -27.25Q-52.2 -27.2 -53.9 -29.95Q-55.1 -31.85 -55.3 -34.65L-55.35 -35.8L-55.4 -39.9L-55.4 -41.55L-55.3 -44.65L-60.55 -45.2L-65.15 -46L-67.95 -46M-33.5,-114.5L-33.55 -119.85M-34.25,-104.9Q-44.25 -104.8 -48.85 -101.3Q-52.65 -98.45 -53.5 -92.45L-53.65 -89.6L-53.7 -88.7L-53.85 -82.75L-54.6 -59.45L-54.65 -58.2L-54.8 -56.1L-55 -47.9L-55.3 -44.65M-27.95,-7.5L-27.6 -16.45L-27.25 -22.25L-27.6 -26.4" />
</g>
</svg>
