<?xml version="1.0" encoding="utf-8"?>
<svg version="1.1" id="Layer_1"
xmlns="http://www.w3.org/2000/svg"
xmlns:xlink="http://www.w3.org/1999/xlink"
xmlns:author="http://www.sothink.com"
width="150px" height="104px"
xml:space="preserve">
<g id="84" transform="matrix(1, 0, 0, 1, 90, 41.85)">
<path style="fill:#F5A28D;fill-opacity:1" d="M-28.8,-37.6L-32.5 -37.35L-37.5 -38L-39.45 -38.45L-38.8 -38.9Q-36.9 -39.9 -32.9 -40.35L-26.8 -40.85L-12.05 -41.35L-5.05 -41.3L-1.45 -41.25L7 -40.9L9.4 -40.7L15.8 -40.15L23.95 -39.3L30.45 -39.45Q34.45 -39.6 36.35 -38.15Q37.95 -36.95 37.9 -33.05L37.9 -26.75L34.9 -26.85Q34.95 -32.9 32.7 -35Q31.3 -36.3 27.4 -36.45L25.35 -36.45L24 -36.55L16.75 -37.5L7 -38.6L5.2 -38.65L0.5 -38.2L-4.35 -37.75L-18.4 -38.45L-25.5 -37.9L-25.55 -37.9L-28.8 -37.6" />
<path style="fill:#BD3535;fill-opacity:1" d="M-80.95,-25.35L-70.95 -24.85L-50.65 -24.4L-33.75 -25.1L-31.1 -25.25L-39.5 -11.35L-45.45 -1.3Q-46.5 -3 -47.6 -3.85Q-49.6 -5.35 -53.1 -6.4L-59.55 -8.35Q-60.45 -8.7 -64.35 -12.45Q-67.95 -16 -69 -16Q-69.95 -16 -72.7 -14.8Q-75.45 -13.65 -78.55 -13.65Q-81.9 -13.65 -85.65 -15.2Q-87.95 -16.15 -89.3 -17.4L-89.45 -17.2L-89.4 -17.5Q-88.75 -22.95 -87.25 -25.35L-86.55 -26.3L-80.95 -25.35M-25.55,-37.9L-25.5 -37.9L-24 -37.75Q-23.05 -37.35 -23.05 -35.7Q-23.05 -34.15 -23.6 -33.5Q-24.2 -32.8 -25.55 -32.8Q-28.2 -32.8 -28.8 -33.3Q-29.55 -33.9 -29.35 -35.6Q-28.95 -35.9 -29.1 -36.9L-29.1 -37L-28.8 -37.6L-25.55 -37.9M27.5,-36.4Q28.8 -35.9 28.8 -33.7Q28.8 -32.05 28.45 -31.7L26.15 -31.3L24.05 -31.5Q22.95 -31.9 22.95 -33.25L23.15 -36.45L24 -36.55L25.35 -36.45L27.4 -36.45L27.5 -36.4M13.9,15.5Q13.9 23.35 15.8 26.15Q17.85 29.1 23.65 29.25Q23.4 34.6 22.55 43.05L22.15 47.1Q18.05 47.1 15.35 45.35Q13.7 44.3 10.5 41.25Q9.75 40.6 9.2 38.5L8.25 34.6L7.2 34.4L7.3 33.9L7.5 32.65L7.7 26.7Q7.7 20.5 7.25 19.45Q6.05 16.7 0.35 16.5L-0.85 16.45L-6.45 16.4L-6.05 10.85L-5.8 10.9L1.85 11.05Q8.55 11.05 9.6 10.3L10.25 9.5Q11.05 7.9 11.15 4.1L11.15 4L11.15 2.9Q11.15 -5.35 10 -6.75Q9.15 -7.8 5.45 -8.15L1.5 -8.3L-7.05 -7.85Q-6.45 -16.5 -6.45 -25.55L0.55 -25.25L16.45 -24.65L22.55 -25L23.15 -25.05L22.85 -15.5L22.45 -5.4Q19.4 -4.3 17.4 -2.1L17.35 -2.05Q13.9 1.75 13.9 15.5M3.5,-34.5Q3.5 -32.45 2.95 -32.05Q2.5 -31.7 0.05 -31.7Q-2.5 -31.7 -2.65 -32.6L-2.85 -35.7L-2.7 -36.4L-2.55 -37.2L1.3 -37.2Q3.1 -36.9 3.35 -36.5L3.5 -34.5M-83.8,-18.35Q-83.05 -17.65 -82.3 -17.65Q-81.4 -17.65 -80.75 -18.6Q-80.3 -19.35 -80.3 -19.9Q-80.3 -21 -81.25 -21.6L-82.65 -22.1Q-83.35 -22.1 -83.85 -21.6L-84.2 -20.9L-84.3 -20.9L-84.55 -19.65L-84.5 -19.35Q-84.4 -18.9 -83.8 -18.35M-38.05,-23.8L-38.05 -23.4L-38.1 -23L-38.1 -22.9Q-38.05 -21.35 -36.85 -21.35Q-36.1 -21.35 -35.65 -21.9Q-35.25 -22.4 -35.25 -23.05Q-35.25 -24.8 -36.75 -24.8Q-37.35 -24.8 -37.7 -24.4L-38.05 -23.8" />
<path style="fill:#EC795D;fill-opacity:1" d="M-29.25,-28.45L-30.7 -28.45L-41.1 -28.1L-41.25 -34.2Q-41.1 -37.15 -39.45 -38.45L-37.5 -38L-32.5 -37.35L-28.8 -37.6L-29.1 -37L-29.1 -36.9Q-28.95 -35.9 -29.35 -35.6Q-29.55 -33.9 -28.8 -33.3Q-28.2 -32.8 -25.55 -32.8Q-24.2 -32.8 -23.6 -33.5Q-23.05 -34.15 -23.05 -35.7Q-23.05 -37.35 -24 -37.75L-25.5 -37.9L-18.4 -38.45L-4.35 -37.75L0.5 -38.2L5.2 -38.65L7 -38.6L16.75 -37.5L24 -36.55L23.15 -36.45L22.95 -33.25Q22.95 -31.9 24.05 -31.5L26.15 -31.3L28.45 -31.7Q28.8 -32.05 28.8 -33.7Q28.8 -35.9 27.5 -36.4L27.4 -36.45Q31.3 -36.3 32.7 -35Q34.95 -32.9 34.9 -26.85L23.1 -27.2L4.45 -27.7L-6.45 -27.95L-29.25 -28.45M-30.65,28.55L-30.8 31.3Q-33.5 30.55 -34.3 27.95Q-34.75 26.55 -34.8 20.35L-34.8 18.6Q-33.25 17.35 -30.3 16.8Q-30.3 20.85 -30.65 28.55M3.35,-36.5Q3.1 -36.9 1.3 -37.2L-2.55 -37.2L-2.7 -36.4L-2.85 -35.7L-2.65 -32.6Q-2.5 -31.7 0.05 -31.7Q2.5 -31.7 2.95 -32.05Q3.5 -32.45 3.5 -34.5L3.35 -36.5M7.25,19.45Q7.7 20.5 7.7 26.7L7.5 32.65Q5.85 29.55 2.65 29.55L1.35 29.8L0.05 30.05L-1.55 29.8L-1.25 26.55Q-0.6 19.9 -0.85 16.55L0.35 16.5Q6.05 16.7 7.25 19.45" />
<path style="fill:#D75656;fill-opacity:1" d="M-31.1,-25.25L-33.75 -25.1L-50.65 -24.4L-70.95 -24.85L-80.95 -25.35L-86.55 -26.3Q-85.1 -28.1 -83.2 -28.1L-75.85 -27.65Q-69.1 -27.2 -65.15 -27.55L-62.25 -27.7L-53.65 -27.9L-53.15 -27.9L-41.1 -28.1L-30.7 -28.45L-30.4 -28.3L-29.6 -27.8L-31.1 -25.25M-6.45,-27.45L-6.45 -27.95L4.45 -27.7L23.1 -27.2L23.15 -25.05L22.55 -25L16.45 -24.65L0.55 -25.25L-6.45 -25.55L-6.45 -27.45M-84.2,-20.9L-83.85 -21.6Q-83.35 -22.1 -82.65 -22.1L-81.25 -21.6Q-80.3 -21 -80.3 -19.9Q-80.3 -19.35 -80.75 -18.6Q-81.4 -17.65 -82.3 -17.65Q-83.05 -17.65 -83.8 -18.35Q-84.4 -18.9 -84.5 -19.35L-84.3 -20.35L-84.2 -20.9M-50.55,-1.7Q-49.2 -1.7 -49.2 -0.55Q-49.2 -0.1 -49.5 0.4Q-49.85 1 -50.35 1L-51 0.7L-51.45 0.25L-51.55 -0.8Q-51.4 -1.7 -50.55 -1.7M-37.7,-24.4Q-37.35 -24.8 -36.75 -24.8Q-35.25 -24.8 -35.25 -23.05Q-35.25 -22.4 -35.65 -21.9Q-36.1 -21.35 -36.85 -21.35Q-38.05 -21.35 -38.1 -22.9L-38.1 -23L-38.05 -23.4L-38.05 -23.8L-37.7 -24.4M-43.1,28.6L-42.85 28.2Q-42.35 27.65 -41.8 27.65Q-40.1 27.65 -40.1 28.95Q-40.1 29.75 -40.35 30L-41.65 30.25L-42.55 30.25L-43.1 29.95L-43.35 29.4L-43.1 28.6" />
<path style="fill:#F08970;fill-opacity:1" d="M50.4,-6.4Q50.65 -10.2 50.15 -13.5Q49.4 -18.6 46.95 -21.6Q45.95 -22.8 38.85 -24.15L34.85 -24.8L28.35 -25.35L23.15 -25.05L23.1 -27.2L34.9 -26.85L37.9 -26.75L45.8 -26Q48.35 -25.65 50.45 -23.9Q53.8 -21.15 53.8 -16.85Q53.8 -8.55 53 -6.4L53.05 -5L39 -5L28.25 -4.6L23.8 -2.95Q20.2 -1.5 19.25 -1.5Q18.05 -1.5 17.35 -2.05L17.4 -2.1Q19.4 -4.3 22.45 -5.4Q25.4 -6.45 29.4 -6.55Q37.45 -6.7 42.15 -6.5L48.7 -6.35L50.4 -6.4M18.55,17.25Q18.55 24.4 21.65 25.4L25.85 25.65L32.1 25.4L48.05 24.7L53 24.6Q56.7 24.5 57.25 26.25L57.9 28.2Q58.5 29.8 58.75 33.2L58.85 37.35Q58.85 45.85 57.75 50.05Q57.2 51.9 56.5 52.9L55.25 53.05L55.2 53.05L55.1 52.1L55.15 50.6Q55.3 48.5 55.8 46.15Q56.5 42.95 56.5 39.7Q56.5 35 55.85 33.05Q55.3 31.4 53.8 29.2L54.8 28.45Q53.8 27.95 52.65 27.7L49.75 27.4L43.2 27.1L37.25 26.75L32.05 27.1L26.15 27.4L21.1 26.75Q19.35 26.15 18.25 25.1Q15.7 22.7 15.7 16.65Q15.7 8.95 18.15 6.45L18.7 6.85L18.6 12.6L18.55 17.25M-6.45,-27.95L-6.45 -27.45L-6.45 -25.55L-13.95 -25.85L-31.1 -25.25L-29.6 -27.8L-29.25 -28.45L-6.45 -27.95M9.3,6.5L9.55 5.25L9.8 3.95Q9.8 1.05 8.65 -2.45Q7.25 -6.65 5.3 -6.65L-2.15 -5.95L-9.85 -5.25L-11.2 -5.45Q-10.75 -6.95 -8.6 -7.55L-7.05 -7.85L1.5 -8.3L5.45 -8.15Q9.15 -7.8 10 -6.75Q11.15 -5.35 11.15 2.9L11.15 4L11.15 4.1Q11.05 7.9 10.25 9.5Q9.3 7.3 9.3 6.5M-7.9,-0.1L-7.8 1.75Q-8.35 7.15 -6.8 7.65L1.1 8.05L7.1 7.6Q6.8 9.6 4.3 10.2L-0.45 10.4Q-6.95 10.4 -8.55 8.55Q-9.95 6.85 -9.95 -0.1Q-9.95 -3.4 -8.6 -3.4L-7.3 -3.2Q-8.1 -2.2 -7.95 -0.45L-7.9 -0.1M25.2,-23.9L26.15 -24.65L27.55 -24.2Q28.25 -23.65 28.25 -23L28 -21.85Q27.7 -21.4 26.75 -21.4Q26.05 -21.4 25.45 -21.85Q24.75 -22.4 24.75 -23.25L25.2 -23.9M25.25,-11.05L25.55 -11.55Q26 -12.1 26.4 -12.1L27.55 -11.6Q28.25 -11 28.25 -10.3L28 -9L26.85 -8.75Q26.15 -8.75 25 -9.9Q25.05 -10.6 25.25 -11.05M-12.05,-25.1Q-11.7 -25.6 -11.2 -25.6Q-10.45 -25.6 -10 -25.1Q-9.55 -24.65 -9.55 -24Q-9.55 -23.25 -9.8 -23.05L-10.7 -22.85Q-12.55 -22.85 -12.55 -24L-12.55 -24.2L-12.05 -25.1M25.55,33.8L25.6 33.6L25.6 33.5L25.75 33.15L25.95 32.85Q26.4 32.2 26.85 32.2L27.85 32.6Q28.25 33 28.25 33.55Q28.25 35.05 26.85 35.05Q26.35 35.05 26 34.75Q25.65 34.5 25.6 34.1L25.55 33.8M25.8,55.05Q25.35 55.6 24.8 55.6Q23.75 55.6 23.45 54.75L23.6 54.25L23.8 53.5Q24.05 52.9 24.6 52.9Q24.9 52.9 25.55 53.35L26.2 54.15L25.8 55.05" />
<path style="fill:#E9522D;fill-opacity:1" d="M51.35,50.85L44.9 50.2L39.45 49.4L36.7 49Q34.95 48.75 34.1 48.25L31.15 46.3Q29.95 45.65 28.35 45.65Q27.7 45.65 25.6 46.4L22.15 47.1L22.55 43.05Q23.4 34.6 23.65 29.25Q17.85 29.1 15.8 26.15Q13.9 23.35 13.9 15.5Q13.9 1.75 17.35 -2.05Q18.05 -1.5 19.25 -1.5Q20.2 -1.5 23.8 -2.95L28.25 -4.6L39 -5L53.05 -5Q52.55 -2.1 47.2 -2.55L45.85 -2.5L36.55 -3.3Q23.25 -3.3 20.45 0.6Q19.15 2.5 18.75 6.4L18.7 6.85L18.15 6.45Q15.7 8.95 15.7 16.65Q15.7 22.7 18.25 25.1Q19.35 26.15 21.1 26.75L26.15 27.4L32.05 27.1L37.25 26.75L43.2 27.1L49.75 27.4L52.65 27.7Q53.8 27.95 54.8 28.45L53.8 29.2Q55.3 31.4 55.85 33.05Q56.5 35 56.5 39.7Q56.5 42.95 55.8 46.15Q55.3 48.5 55.15 50.6L51.35 50.85M55.25,53.05L56.5 52.9L55.4 54.1L55.25 53.05M-56.15,-0.5L-59.5 2.3Q-62.35 4.55 -63.35 4.55L-66.8 2.4L-66.05 -1.1L-65.3 -5.05Q-59.65 -3.6 -56.15 -0.5M-62.25,-27.7Q-61.2 -32.35 -61.2 -35.3Q-60.95 -36.1 -56.6 -36.1Q-54 -36.1 -53.6 -33.75L-53.65 -27.9L-62.25 -27.7M-1.25,26.55L-1.55 29.8L-4.9 29.1L-9.2 28.15Q-11.55 28.15 -19.15 29.9L-28.1 31.65L-30.8 31.3L-31.05 36L-31.05 36.25L-31 36.75Q-36.85 35.7 -36.85 31L-36.6 26.4L-36.55 25.6L-36.4 23.5L-36.1 20.25Q-35.7 19.3 -34.8 18.6L-34.8 20.35Q-34.75 26.55 -34.3 27.95Q-33.5 30.55 -30.8 31.3L-30.65 28.55Q-30.3 20.85 -30.3 16.8Q-33.25 17.35 -34.8 18.6L-34.8 18.25Q-34.8 12.7 -35.05 11.05Q-35.7 6.25 -38.3 5.5Q-43.1 4 -44.3 1.05L-45.45 -1.3L-39.5 -11.35L-31.1 -25.25L-13.95 -25.85L-6.45 -25.55Q-6.45 -16.5 -7.05 -7.85L-8.6 -7.55Q-10.75 -6.95 -11.2 -5.45L-9.85 -5.25L-2.15 -5.95L5.3 -6.65Q7.25 -6.65 8.65 -2.45Q9.8 1.05 9.8 3.95L9.55 5.25L9.3 6.5Q9.3 7.3 10.25 9.5L9.6 10.3Q8.55 11.05 1.85 11.05L-5.8 10.9L-6.05 10.65L-6.05 10.85L-6.45 16.4L-0.85 16.45L-0.85 16.55Q-0.6 19.9 -1.25 26.55M48.7,-6.35L42.15 -6.5Q37.45 -6.7 29.4 -6.55Q25.4 -6.45 22.45 -5.4L22.85 -15.5L23.15 -25.05L28.35 -25.35L34.85 -24.8L38.85 -24.15Q45.95 -22.8 46.95 -21.6Q49.4 -18.6 50.15 -13.5Q50.65 -10.2 50.4 -6.4L48.7 -6.35M-8.6,-3.4Q-9.95 -3.4 -9.95 -0.1Q-9.95 6.85 -8.55 8.55Q-6.95 10.4 -0.45 10.4L4.3 10.2Q6.8 9.6 7.1 7.6L8.05 7.2L8.3 6.1L8.45 0.75Q8.45 -3.05 7.7 -4.05Q6.85 -5.2 3.8 -5.2L-4.25 -4.6Q-6.4 -4.35 -7.3 -3.2L-8.6 -3.4M24.95,-24.2L24.75 -23.25Q24.75 -22.4 25.45 -21.85Q26.05 -21.4 26.75 -21.4Q27.7 -21.4 28 -21.85L28.25 -23Q28.25 -23.65 27.55 -24.2L26.15 -24.65L25.2 -23.9L24.95 -24.2M24.95,-11.1L24.95 -9.95L25 -9.9Q26.15 -8.75 26.85 -8.75L28 -9L28.25 -10.3Q28.25 -11 27.55 -11.6L26.4 -12.1Q26 -12.1 25.55 -11.55L25.25 -11.05L24.95 -11.1M-54.35,-34.15Q-54.5 -34.6 -55.3 -35.25L-59.55 -35.15Q-60.1 -35.1 -60.1 -34.6Q-60.1 -34.25 -58.5 -33.8Q-56.9 -33.35 -56.9 -32.15Q-56.9 -29.45 -55.7 -29.45Q-54.9 -29.45 -54.55 -30.95Q-54.3 -31.9 -54.3 -32.9L-54.35 -34.15M-12.55,-24Q-12.55 -22.85 -10.7 -22.85L-9.8 -23.05Q-9.55 -23.25 -9.55 -24Q-9.55 -24.65 -10 -25.1Q-10.45 -25.6 -11.2 -25.6Q-11.7 -25.6 -12.05 -25.1L-12.3 -25.1L-12.55 -24.2L-12.55 -24M-6.9,20.5Q-6.9 21.9 -5.6 21.9Q-3.8 21.9 -3.8 20.5Q-3.8 18.8 -5.35 19.15Q-6.9 19.55 -6.9 20.5M-11.1,19.3Q-14.1 18.4 -20.3 18.4L-22.4 18.5L-24.05 18.6Q-26 18.2 -26.85 19.2Q-27.4 19.8 -27.4 20.6Q-27.4 21.2 -26.55 21.5L-22.6 22.65L-14.9 22.9Q-9.15 22.9 -9.15 20.5Q-9.15 19.85 -11.1 19.3M4,38.95L-1.6 38.5Q-2 37.75 -2 36.2L-1.55 29.8L0.05 30.05L1.35 29.8L2.65 29.55Q5.85 29.55 7.5 32.65L7.3 33.9L7.2 34.4Q6.35 38.95 4 38.95M-11.6,40.25L-11.2 39.8Q-10.8 39.35 -10.25 39.35Q-9.8 39.35 -9.45 39.7Q-9 40.15 -9 40.85Q-9 42 -10.1 42Q-11.7 42 -11.7 40.65L-11.6 40.25M-19.85,41.6Q-20.45 41.2 -20.45 40.7L-20.25 40.15L-19.9 39.85L-19.55 39.45L-18.95 39.1Q-17.35 39.1 -17.35 40.75Q-17.35 42 -18.65 42Q-19.3 42 -19.85 41.6M25.6,34.1Q25.65 34.5 26 34.75Q26.35 35.05 26.85 35.05Q28.25 35.05 28.25 33.55Q28.25 33 27.85 32.6L26.85 32.2Q26.4 32.2 25.95 32.85L25.75 33.15L25.6 33.5L25.6 33.6Q25.45 33.85 25.6 34.1" />
<path style="fill:#2E2D29;fill-opacity:1" d="M18.6,12.6L18.7 6.85L18.75 6.4Q19.15 2.5 20.45 0.6Q23.25 -3.3 36.55 -3.3L45.85 -2.5L47.2 -2.55Q47.2 0.25 47.9 11.05Q48.25 16.95 48.2 21.3Q25.6 24.85 18.6 12.6M1.05,-2.1L1.15 -2.6L1.05 -3L0.95 -3.1L0.3 -3.15Q-0.05 -3.1 -0.05 -2.6L0.55 -1.85L1.05 -2.1M4.15,-0.9Q5.25 -0.9 5.6 -1.5L5.8 -2.6Q5.8 -4.2 3.85 -4.1Q1.85 -4 1.85 -2Q1.85 -1.7 2.4 -1.35Q3.05 -0.9 4.15 -0.9M6.95,6.1Q-4.25 6.15 -7.95 -0.45Q-8.1 -2.2 -7.3 -3.2Q-6.4 -4.35 -4.25 -4.6L3.8 -5.2Q6.85 -5.2 7.7 -4.05Q8.45 -3.05 8.45 0.75L8.3 6.1L6.95 6.1M42.7,2.75L42.85 1.6Q42.85 -0.7 38.8 -1Q34.7 -1.3 34.7 1.4Q34.7 2.4 35 2.7Q36 3.55 39.95 3.75L41.55 3.75L42.7 2.75M33.45,0.65L33.35 -0.1Q30.7 -0.75 30.7 1.15L30.7 1.8Q30.8 2.35 31.45 2.35Q33.45 2.35 33.45 0.65" />
<path style="fill:#8E8B84;fill-opacity:1" d="M0.55,-1.85L-0.05 -2.6Q-0.05 -3.1 0.3 -3.15L0.95 -3.1L1.05 -3L1.15 -2.6L1.05 -2.1L0.55 -1.85M2.4,-1.35Q1.85 -1.7 1.85 -2Q1.85 -4 3.85 -4.1Q5.8 -4.2 5.8 -2.6L5.6 -1.5Q5.25 -0.9 4.15 -0.9Q3.05 -0.9 2.4 -1.35M41.55,3.75L39.95 3.75Q36 3.55 35 2.7Q34.7 2.4 34.7 1.4Q34.7 -1.3 38.8 -1Q42.85 -0.7 42.85 1.6L42.7 2.75L41.55 3.75M31.45,2.35Q30.8 2.35 30.7 1.8L30.7 1.15Q30.7 -0.75 33.35 -0.1L33.45 0.65Q33.45 2.35 31.45 2.35" />
<path style="fill:#AA2A2A;fill-opacity:1" d="M21.25,57.25L20.45 57.25L-8.35 56.2Q-9.35 56.1 -13.8 56.3L-23.4 56.35Q-23.35 58.75 -23.7 59.2L-25.8 59.55L-27.25 59.45L-29.4 59.35L-31.3 59.1Q-31.6 58.8 -31.6 57.6L-31.5 56.15Q-37.7 55.75 -39.45 54.45Q-41.75 52.8 -43.35 48.55Q-45 44.05 -45 33.7L-44.7 29.1L-44.7 29.05L-44.5 25.85L-44.5 25.8L-40.7 25.45L-36.55 25.6L-36.6 26.4L-36.85 31Q-36.85 35.7 -31 36.75L-29.1 37L-23.7 36.8L-23.35 40.7Q-23.05 44.2 -19.4 44.45Q-15.75 44.7 -10.95 44.55Q-8.55 44.45 -7.05 43.95Q-5.65 43.45 -5.05 42.55Q-3.95 40.75 -3.95 38.2L-1.6 38.5L4 38.95Q6.35 38.95 7.2 34.4L8.25 34.6L9.2 38.5Q9.75 40.6 10.5 41.25Q13.7 44.3 15.35 45.35Q18.05 47.1 22.15 47.1L21.25 57.25M-65.3,-5.05L-67.5 -5.55Q-75 -7 -82.55 -9.25Q-90.1 -11.55 -89.45 -17.2L-89.3 -17.4Q-87.95 -16.15 -85.65 -15.2Q-81.9 -13.65 -78.55 -13.65Q-75.45 -13.65 -72.7 -14.8Q-69.95 -16 -69 -16Q-67.95 -16 -64.35 -12.45Q-60.45 -8.7 -59.55 -8.35L-53.1 -6.4Q-49.6 -5.35 -47.6 -3.85Q-46.5 -3 -45.45 -1.3L-49.7 6.35Q-51.65 3.7 -55.8 -0.2L-56.15 -0.5Q-59.65 -3.6 -65.3 -5.05M-51.55,-0.8L-51.45 0.25L-51 0.7L-50.35 1Q-49.85 1 -49.5 0.4Q-49.2 -0.1 -49.2 -0.55Q-49.2 -1.7 -50.55 -1.7Q-51.4 -1.7 -51.55 -0.8M-43.15,28.6Q-43.35 28.7 -43.35 28.75L-43.4 29.15L-43.35 29.4L-43.1 29.95L-42.55 30.25L-41.65 30.25L-40.35 30Q-40.1 29.75 -40.1 28.95Q-40.1 27.65 -41.8 27.65Q-42.35 27.65 -42.85 28.2L-43.1 28.6L-43.15 28.6" />
<path style="fill:#EC836A;fill-opacity:1" d="M-54.3,-32.9Q-54.3 -31.9 -54.55 -30.95Q-54.9 -29.45 -55.7 -29.45Q-56.9 -29.45 -56.9 -32.15Q-56.9 -33.35 -58.5 -33.8Q-60.1 -34.25 -60.1 -34.6Q-60.1 -35.1 -59.55 -35.15L-55.3 -35.25Q-54.5 -34.6 -54.35 -34.15L-54.3 -32.9" />
<path style="fill:#484641;fill-opacity:1" d="M18.6,12.6Q25.6 24.85 48.2 21.3L48.05 24.7L32.1 25.4L25.85 25.65L21.65 25.4Q18.55 24.4 18.55 17.25L18.6 12.6M-7.95,-0.45Q-4.25 6.15 6.95 6.1L8.3 6.1L8.05 7.2L7.1 7.6L1.1 8.05L-6.8 7.65Q-8.35 7.15 -7.8 1.75L-7.9 -0.1L-7.95 -0.45" />
<path style="fill:#EEA390;fill-opacity:1" d="M-5.35,19.15Q-3.8 18.8 -3.8 20.5Q-3.8 21.9 -5.6 21.9Q-6.9 21.9 -6.9 20.5Q-6.9 19.55 -5.35 19.15M-9.15,20.5Q-9.15 22.9 -14.9 22.9L-22.6 22.65L-26.55 21.5Q-27.4 21.2 -27.4 20.6Q-27.4 19.8 -26.85 19.2Q-26 18.2 -24.05 18.6L-22.4 18.5L-20.3 18.4Q-14.1 18.4 -11.1 19.3Q-9.15 19.85 -9.15 20.5" />
<path style="fill:#D44725;fill-opacity:1" d="M22.15,47.1L25.6 46.4Q27.7 45.65 28.35 45.65Q29.95 45.65 31.15 46.3L34.1 48.25Q34.95 48.75 36.7 49L39.45 49.4L44.9 50.2L51.35 50.85L55.15 50.6L55.1 52.1L55.2 53.05L55.25 53.05L55.4 54.1Q52 56.9 43.5 57.15Q43.65 58.95 43.2 59.35L42.35 60Q41.6 60.5 41.3 60.5L39.4 60.3L37.6 60.05L35.8 59.7Q34.95 59.3 34.95 58.2L34.95 57.25L21.25 57.25L22.15 47.1M-44.5,25.8L-44.25 22.45Q-44.25 19.7 -45.05 16.25L-46.05 12.6L-47.15 10.45Q-48.3 8.25 -49.7 6.35L-45.45 -1.3L-44.3 1.05Q-43.1 4 -38.3 5.5Q-35.7 6.25 -35.05 11.05Q-34.8 12.7 -34.8 18.25L-34.8 18.6Q-35.7 19.3 -36.1 20.25Q-36.5 21.1 -36.5 22.1L-36.4 23.5L-36.55 25.6L-40.7 25.45L-44.5 25.8M-3.95,38.2Q-3.95 40.75 -5.05 42.55Q-5.65 43.45 -7.05 43.95Q-8.55 44.45 -10.95 44.55Q-15.75 44.7 -19.4 44.45Q-23.05 44.2 -23.35 40.7L-23.7 36.8L-29.1 37L-31 36.75L-31.05 36.25L-31.05 36L-30.8 31.3L-28.1 31.65L-19.15 29.9Q-11.55 28.15 -9.2 28.15L-4.9 29.1L-1.55 29.8L-2 36.2Q-2 37.75 -1.6 38.5L-3.95 38.2L-3.95 38.15L-4.1 38.15L-3.95 38.2M-11.7,40.65Q-11.7 42 -10.1 42Q-9 42 -9 40.85Q-9 40.15 -9.45 39.7Q-9.8 39.35 -10.25 39.35Q-10.8 39.35 -11.2 39.8L-11.6 40.25L-11.7 40.65M-18.65,42Q-17.35 42 -17.35 40.75Q-17.35 39.1 -18.95 39.1L-19.55 39.45L-19.9 39.85L-20.25 40.15L-20.45 40.7Q-20.45 41.2 -19.85 41.6Q-19.3 42 -18.65 42M26.2,54.15L25.55 53.35Q24.9 52.9 24.6 52.9Q24.05 52.9 23.8 53.5L23.6 54.25L23.45 54.75Q23.75 55.6 24.8 55.6Q25.35 55.6 25.8 55.05L26.2 54.15" />
<path style="fill:none;stroke-width:1;stroke-linecap:butt;stroke-linejoin:miter;stroke-miterlimit:3;stroke:#5B1818;stroke-opacity:1" d="M48.05,24.7L53 24.6Q56.7 24.5 57.25 26.25L57.9 28.2Q58.5 29.8 58.75 33.2L58.85 37.35Q58.85 45.85 57.75 50.05Q57.2 51.9 56.5 52.9L55.4 54.1Q52 56.9 43.5 57.15Q43.65 58.95 43.2 59.35L42.35 60Q41.6 60.5 41.3 60.5L39.4 60.3L37.6 60.05L35.8 59.7Q34.95 59.3 34.95 58.2L34.95 57.25L21.25 57.25L20.45 57.25L-8.35 56.2Q-9.35 56.1 -13.8 56.3L-23.4 56.35Q-23.35 58.75 -23.7 59.2L-25.8 59.55L-27.25 59.45L-29.4 59.35L-31.3 59.1Q-31.6 58.8 -31.6 57.6L-31.5 56.15Q-37.7 55.75 -39.45 54.45Q-41.75 52.8 -43.35 48.55Q-45 44.05 -45 33.7L-44.7 29.1L-44.7 29.05L-44.5 25.85L-44.5 25.8L-44.25 22.45Q-44.25 19.7 -45.05 16.25L-46.05 12.6L-47.15 10.45Q-48.3 8.25 -49.7 6.35Q-51.65 3.7 -55.8 -0.2L-56.15 -0.5L-59.5 2.3Q-62.35 4.55 -63.35 4.55L-66.8 2.4L-66.05 -1.1L-65.3 -5.05L-67.5 -5.55Q-75 -7 -82.55 -9.25Q-90.1 -11.55 -89.45 -17.2L-89.4 -17.5Q-88.75 -22.95 -87.25 -25.35L-86.55 -26.3Q-85.1 -28.1 -83.2 -28.1L-75.85 -27.65Q-69.1 -27.2 -65.15 -27.55L-62.25 -27.7Q-61.2 -32.35 -61.2 -35.3Q-60.95 -36.1 -56.6 -36.1Q-54 -36.1 -53.6 -33.75L-53.65 -27.9L-53.15 -27.9L-41.1 -28.1L-41.25 -34.2Q-41.1 -37.15 -39.45 -38.45L-38.8 -38.9Q-36.9 -39.9 -32.9 -40.35L-26.8 -40.85L-12.05 -41.35L-5.05 -41.3L-1.45 -41.25L7 -40.9L9.4 -40.7L15.8 -40.15L23.95 -39.3L30.45 -39.45Q34.45 -39.6 36.35 -38.15Q37.95 -36.95 37.9 -33.05L37.9 -26.75L45.8 -26Q48.35 -25.65 50.45 -23.9Q53.8 -21.15 53.8 -16.85Q53.8 -8.55 53 -6.4L53.05 -5Q52.55 -2.1 47.2 -2.55M-28.8,-37.6Q-28.6 -37.85 -28.2 -37.9L-26.25 -37.9L-25.55 -37.9L-25.5 -37.9M24,-36.55L27.4 -36.45M34.9,-26.85L37.9 -26.75M24,-36.55L23.15 -36.45L22.95 -33.25Q22.95 -31.9 24.05 -31.5L26.15 -31.3L28.45 -31.7Q28.8 -32.05 28.8 -33.7Q28.8 -35.9 27.5 -36.4L27.4 -36.45M23.65,29.25Q17.85 29.1 15.8 26.15Q13.9 23.35 13.9 15.5Q13.9 1.75 17.35 -2.05L17.4 -2.1Q19.4 -4.3 22.45 -5.4L22.85 -15.5L23.15 -25.05L23.1 -27.2L4.45 -27.7L-6.45 -27.95L-6.45 -27.45L-6.45 -25.55M-29.6,-27.8L-31.1 -25.25L-39.5 -11.35L-45.45 -1.3L-49.7 6.35M-36.1,20.25Q-36.5 21.1 -36.5 22.1L-36.4 23.5L-36.1 20.25Q-35.7 19.3 -34.8 18.6Q-33.25 17.35 -30.3 16.8L-28.35 16.5L-15.55 16.5L-6.45 16.4L-6.05 10.85L-6.7 10.75Q-11.1 9.9 -10.9 6.4L-11.3 -4.95L-11.2 -5.45Q-10.75 -6.95 -8.6 -7.55L-7.05 -7.85Q-6.45 -16.5 -6.45 -25.55M22.45,-5.4Q25.4 -6.45 29.4 -6.55Q37.45 -6.7 42.15 -6.5L48.7 -6.35L50.4 -6.4L53 -6.4M34.9,-26.85L23.1 -27.2M3.35,-36.5Q3.1 -36.9 1.3 -37.2L-2.55 -37.2L-2.7 -36.4L-2.85 -35.7L-2.65 -32.6Q-2.5 -31.7 0.05 -31.7Q2.5 -31.7 2.95 -32.05Q3.5 -32.45 3.5 -34.5L3.35 -36.5M10.25,9.5Q11.05 7.9 11.15 4.1L11.15 4L11.15 2.9Q11.15 -5.35 10 -6.75Q9.15 -7.8 5.45 -8.15L1.5 -8.3L-7.05 -7.85M10.25,9.5L9.6 10.3Q8.55 11.05 1.85 11.05L-5.8 10.9L-6.05 10.85L-6.05 10.65L-5.8 10.9M24.75,-23.25Q24.75 -22.4 25.45 -21.85Q26.05 -21.4 26.75 -21.4Q27.7 -21.4 28 -21.85L28.25 -23Q28.25 -23.65 27.55 -24.2L26.15 -24.65L25.2 -23.9L24.75 -23.25L24.95 -24.2L25.2 -23.9M25,-9.9Q26.15 -8.75 26.85 -8.75L28 -9L28.25 -10.3Q28.25 -11 27.55 -11.6L26.4 -12.1Q26 -12.1 25.55 -11.55L25.25 -11.05Q25.05 -10.6 25 -9.9L24.95 -9.95L24.95 -11.1L25.25 -11.05M-84.5,-19.35L-84.55 -19.65L-84.3 -20.9L-84.2 -20.9L-83.85 -21.6Q-83.35 -22.1 -82.65 -22.1L-81.25 -21.6Q-80.3 -21 -80.3 -19.9Q-80.3 -19.35 -80.75 -18.6Q-81.4 -17.65 -82.3 -17.65Q-83.05 -17.65 -83.8 -18.35Q-84.4 -18.9 -84.5 -19.35L-84.3 -20.35L-84.2 -20.9M-51.55,-0.8L-51.45 0.25L-51 0.7L-50.35 1Q-49.85 1 -49.5 0.4Q-49.2 -0.1 -49.2 -0.55Q-49.2 -1.7 -50.55 -1.7Q-51.4 -1.7 -51.55 -0.8M-65.3,-5.05Q-59.65 -3.6 -56.15 -0.5M-53.65,-27.9L-62.25 -27.7M-12.55,-24.2L-12.3 -25.1L-12.05 -25.1Q-11.7 -25.6 -11.2 -25.6Q-10.45 -25.6 -10 -25.1Q-9.55 -24.65 -9.55 -24Q-9.55 -23.25 -9.8 -23.05L-10.7 -22.85Q-12.55 -22.85 -12.55 -24L-12.55 -24.2L-12.05 -25.1M-28.8,-37.6L-29.1 -37L-29.1 -36.9Q-28.95 -35.9 -29.35 -35.6Q-29.55 -33.9 -28.8 -33.3Q-28.2 -32.8 -25.55 -32.8Q-24.2 -32.8 -23.6 -33.5Q-23.05 -34.15 -23.05 -35.7Q-23.05 -37.35 -24 -37.75L-25.5 -37.9M-29.6,-27.8L-29.25 -28.45L-30.7 -28.45L-41.1 -28.1M-29.1,-37L-29.35 -35.6M-38.05,-23.8L-38.05 -23.4L-38.1 -23L-38.1 -22.9Q-38.05 -21.35 -36.85 -21.35Q-36.1 -21.35 -35.65 -21.9Q-35.25 -22.4 -35.25 -23.05Q-35.25 -24.8 -36.75 -24.8Q-37.35 -24.8 -37.7 -24.4L-38.05 -23.8M-6.45,-27.95L-29.25 -28.45M-31,36.75L-29.1 37L-23.7 36.8L-16.75 36.6L-6.45 37.8L-4.1 38.15L-3.95 38.15L-3.95 38.2L-1.6 38.5Q-2 37.75 -2 36.2L-1.55 29.8L-1.25 26.55Q-0.6 19.9 -0.85 16.55L-0.85 16.45L-6.45 16.4M-36.4,23.5L-36.55 25.6L-36.6 26.4L-36.85 31Q-36.85 35.7 -31 36.75L-31.05 36.25L-31.05 36L-30.8 31.3L-30.65 28.55Q-30.3 20.85 -30.3 16.8M7.5,32.65L7.7 26.7Q7.7 20.5 7.25 19.45Q6.05 16.7 0.35 16.5L-0.85 16.45M-43.35,29.4L-43.1 29.95L-42.55 30.25L-41.65 30.25L-40.35 30Q-40.1 29.75 -40.1 28.95Q-40.1 27.65 -41.8 27.65Q-42.35 27.65 -42.85 28.2L-43.1 28.6L-43.35 29.4L-43.4 29.15L-43.35 28.75Q-43.35 28.7 -43.15 28.6L-43.1 28.6M-23.7,36.8L-23.35 40.7Q-23.05 44.2 -19.4 44.45Q-15.75 44.7 -10.95 44.55Q-8.55 44.45 -7.05 43.95Q-5.65 43.45 -5.05 42.55Q-3.95 40.75 -3.95 38.2L-4.1 38.15M-11.7,40.65Q-11.7 42 -10.1 42Q-9 42 -9 40.85Q-9 40.15 -9.45 39.7Q-9.8 39.35 -10.25 39.35Q-10.8 39.35 -11.2 39.8L-11.6 40.25L-11.7 40.65M-18.65,42Q-17.35 42 -17.35 40.75Q-17.35 39.1 -18.95 39.1L-19.55 39.45L-19.9 39.85L-20.25 40.15L-20.45 40.7Q-20.45 41.2 -19.85 41.6Q-19.3 42 -18.65 42M-36.55,25.6L-40.7 25.45L-44.5 25.8M-7.05,43.95L-7.8 50.25L-8.35 56.2M-31.5,56.15L-27.75 56.3L-23.4 56.35M22.15,47.1L22.55 43.05Q23.4 34.6 23.65 29.25L24.15 29.25Q42.25 29.25 53.3 28.55L54.8 28.45L57.9 28.2M7.5,32.65L7.3 33.9L7.2 34.4M-1.6,38.5L4 38.95Q6.35 38.95 7.2 34.4M25.6,34.1Q25.65 34.5 26 34.75Q26.35 35.05 26.85 35.05Q28.25 35.05 28.25 33.55Q28.25 33 27.85 32.6L26.85 32.2Q26.4 32.2 25.95 32.85L25.75 33.15L25.6 33.5L25.6 33.6L25.55 33.8L25.6 34.1Q25.45 33.85 25.6 33.6M26.2,54.15L25.55 53.35Q24.9 52.9 24.6 52.9Q24.05 52.9 23.8 53.5L23.6 54.25L23.45 54.75Q23.75 55.6 24.8 55.6Q25.35 55.6 25.8 55.05L26.2 54.15M34.95,57.25L41.95 57.15L43.5 57.15M22.15,47.1L21.25 57.25" />
<path style="fill:none;stroke-width:1;stroke-linecap:butt;stroke-linejoin:miter;stroke-miterlimit:3;stroke:#171714;stroke-opacity:1" d="M18.7,6.85L18.75 6.4Q19.15 2.5 20.45 0.6Q23.25 -3.3 36.55 -3.3L45.85 -2.5L47.2 -2.55Q47.2 0.25 47.9 11.05Q48.25 16.95 48.2 21.3L48.05 24.7L32.1 25.4L25.85 25.65L21.65 25.4Q18.55 24.4 18.55 17.25L18.6 12.6M8.3,6.1L8.45 0.75Q8.45 -3.05 7.7 -4.05Q6.85 -5.2 3.8 -5.2L-4.25 -4.6Q-6.4 -4.35 -7.3 -3.2Q-8.1 -2.2 -7.95 -0.45M8.3,6.1L8.05 7.2L7.1 7.6L1.1 8.05L-6.8 7.65Q-8.35 7.15 -7.8 1.75L-7.9 -0.1L-7.95 -0.45M18.7,6.85L18.6 12.6" />
</g>
</svg>
