<?xml version="1.0" encoding="utf-8"?>
<svg version="1.1" id="Layer_1"
xmlns="http://www.w3.org/2000/svg"
xmlns:xlink="http://www.w3.org/1999/xlink"
xmlns:author="http://www.sothink.com"
width="63px" height="60px"
xml:space="preserve">
<g id="23" transform="matrix(1, 0, 0, 1, 30.3, 33.35)">
<path style="fill:#232222;fill-opacity:1" d="M8.65,-29.55Q8.65 -31.7 11.2 -30.25Q13.7 -28.85 13.7 -26.85Q13.7 -24.4 11.65 -24.4Q10.1 -24.4 9.2 -26.95L8.65 -29.55M29.15,-4.6Q29.15 -6.5 30.85 -6.45Q32.6 -6.35 32.6 -4.85Q32.6 -4.25 32.2 -3.5Q31.6 -2.45 30.6 -2.45Q29.55 -2.45 29.25 -3.5L29.15 -4.6M20.3,15.95L19.85 15.05Q19.85 12.9 22.2 12.5Q24.5 12.15 24.5 13.75L24 15.5Q23.35 16.85 22.25 16.85Q21.05 16.85 20.3 15.95M2,20.15Q1.65 21 0.8 21Q-0.5 21 -0.65 19.75Q-0.65 18.35 0.8 17.85Q2.2 17.35 2.2 19.15L2 20.15M-2.7,-30Q-4.6 -28.1 -6 -28.1Q-7.25 -28.1 -7.65 -28.9L-7.8 -29.8Q-7.8 -31.6 -4.45 -32.85Q-1.1 -34.05 -1.1 -32.25Q-1.1 -31.7 -2.7 -30M-14.1,-20.5L-14.3 -21.3Q-14.3 -23.3 -11.4 -25Q-8.5 -26.7 -8.5 -24.25Q-8.5 -23.55 -9.55 -21.85Q-10.9 -19.75 -12.5 -19.75Q-13.65 -19.75 -14.1 -20.5M-4.2,23.75Q-4.2 24.55 -4.35 24.9Q-4.65 25.8 -5.65 25.8Q-8.7 25.8 -10.45 23.3Q-11.75 21.55 -11.75 20.15Q-11.75 18.7 -10.55 18.3Q-9.45 17.95 -8 18.55Q-4.2 20.1 -4.2 23.75M-29.9,5.75Q-30.4 4.5 -30.3 3.2Q-30.3 1.05 -29.3 0.2L-27.05 0.05Q-23.8 1.55 -23.8 6.2Q-23.8 6.95 -24.25 7.55Q-24.85 8.3 -26.2 8.3Q-28.95 8.3 -29.9 5.75" />
</g>
</svg>
