<?xml version="1.0" encoding="utf-8"?>
<svg version="1.1" id="Layer_1"
xmlns="http://www.w3.org/2000/svg"
xmlns:xlink="http://www.w3.org/1999/xlink"
xmlns:author="http://www.sothink.com"
width="24px" height="46px"
xml:space="preserve">
<g id="253" transform="matrix(1, 0, 0, 1, 11.9, 22.7)">
<path style="fill:#C5DBDB;fill-opacity:1" d="M-11.4,-22.2Q-2.3 -22.1 4.15 -15.65Q10.7 -9.1 10.7 0.15Q10.7 5.45 8.55 9.85L8.4 9.65Q6.85 7.5 6.85 4.85Q6.85 4 7.3 2L7.75 -0.15Q7.75 -4.15 5.1 -8.35Q2 -12.4 1.2 -14Q1 -14.45 -3.5 -16.8Q-8.2 -19.25 -9.45 -19.25L-11.4 -19.2L-11.4 -22.2M0.85,10.8Q0.05 13.35 -2.35 15.55Q-6.4 19.3 -11 19.3L-11.4 19.3L-11.4 16.5Q-4.75 16.45 -0.05 11.75L0.85 10.8M-7.4,-9.75Q-6.1 -11.05 -4.8 -9.75L-1.95 -6.85Q-0.65 -5.55 -1.95 -4.25L-2.7 -3.45Q-3.8 -4.15 -4.65 -5.45Q-5.8 -7.25 -6.95 -7.25Q-7.45 -7.25 -9.35 -5.6L-11.4 -4.25L-11.4 -5.8L-7.4 -9.75M-3.8,5.2Q-6.5 2.9 -6.5 2.2Q-6.5 1.6 -5.85 0.55L-5.75 0.45L-1.85 4.45Q-0.6 5.75 -1.7 6.95L-3.8 5.2" />
<path style="fill:#AABFBF;fill-opacity:1" d="M4.15,15.95Q-2.3 22.4 -11.4 22.5L-11.4 19.3L-11 19.3Q-6.4 19.3 -2.35 15.55Q0.05 13.35 0.85 10.8Q4.7 6.35 4.7 0.3Q4.7 -6.4 -0.05 -11.15Q-4.75 -15.85 -11.4 -15.9L-11.4 -19.2L-9.45 -19.25Q-8.2 -19.25 -3.5 -16.8Q1 -14.45 1.2 -14Q2 -12.4 5.1 -8.35Q7.75 -4.15 7.75 -0.15L7.3 2Q6.85 4 6.85 4.85Q6.85 7.5 8.4 9.65L8.55 9.85Q6.95 13.15 4.15 15.95M-1.7,6.95L-1.85 7.1L-4.75 9.9L-7.35 9.85L-11.4 5.75L-11.4 -4.25L-9.35 -5.6Q-7.45 -7.25 -6.95 -7.25Q-5.8 -7.25 -4.65 -5.45Q-3.8 -4.15 -2.7 -3.45L-6.25 -0.05L-5.75 0.45L-5.85 0.55Q-6.5 1.6 -6.5 2.2Q-6.5 2.9 -3.8 5.2L-1.7 6.95" />
<path style="fill:none;stroke-width:1;stroke-linecap:butt;stroke-linejoin:miter;stroke-miterlimit:3;stroke:#70643A;stroke-opacity:1" d="M-11.4,22.5Q-2.3 22.4 4.15 15.95Q6.95 13.15 8.55 9.85Q10.7 5.45 10.7 0.15Q10.7 -9.1 4.15 -15.65Q-2.3 -22.1 -11.4 -22.2M-11.4,-15.9Q-4.75 -15.85 -0.05 -11.15Q4.7 -6.4 4.7 0.3Q4.7 6.35 0.85 10.8M-2.7,-3.45L-1.95 -4.25Q-0.65 -5.55 -1.95 -6.85L-4.8 -9.75Q-6.1 -11.05 -7.4 -9.75L-11.4 -5.8M-2.7,-3.45L-6.25 -0.05L-5.75 0.45L-1.85 4.45Q-0.6 5.75 -1.7 6.95L-1.85 7.1L-4.75 9.9L-7.35 9.85L-11.4 5.75M-11.4,16.5Q-4.75 16.45 -0.05 11.75L0.85 10.8" />
</g>
</svg>
