<?xml version="1.0" encoding="utf-8"?>
<svg version="1.1" id="Layer_1"
xmlns="http://www.w3.org/2000/svg"
xmlns:xlink="http://www.w3.org/1999/xlink"
xmlns:author="http://www.sothink.com"
width="72px" height="64px"
xml:space="preserve">
<g id="132" transform="matrix(1, 0, 0, 1, 35.95, 31.75)">
<path style="fill:#6699CC;fill-opacity:1" d="M-1.4,-26.6L-1.4 -28.9L-1.2 -29.85Q-0.55 -29 1 -28.6L4.55 -28.25Q4.65 -28.2 7.75 -27.1L8.55 -26.85L8.4 -26.45L9.15 -25.35Q10.05 -24.25 10.75 -24L9.7 -22.6L3.3 -22.7Q1.3 -23.25 -1.4 -26.6M-4.85,5.1Q-5.5 7.7 -5.9 8.45Q-6.8 10.15 -9 11.15Q-11.8 12.5 -16.45 13L-19.35 13.4L-21.45 13.9Q-24.5 15.1 -25.9 15.1L-30.55 15.6L-30.7 15.65L-35.3 16.15L-35.15 13.95L-33.95 14.15L-30.95 13.7L-24.95 12.65L-19.55 11.7L-16.45 11.05Q-16.45 10.55 -15.3 10.45L-12.7 10.35Q-9 9.85 -9 5.9Q-9 5.2 -9.35 3.95Q-8.75 2.7 -7.3 -1.8Q-6.35 -4.45 -5.4 -8.8L-4.85 -10.75L-4.7 -10.5Q-4.35 -10.1 -2.6 -10.1L4.15 -10.95L11.25 -11.75L15.5 -12.1L19.95 -12.45L24.75 -12.2L32.95 -12.75L33.85 -12.65Q34.45 -12.45 34.55 -11.55Q34.65 -10.6 35.25 -8.9L34.75 -6.5L33.65 -7.9Q32.3 -9.4 31.15 -9.4Q23.8 -9.1 23.8 -9.4L23.8 -9.55L24 -9.55L23.8 -9.6L23.8 -9.55L16.7 -9Q12.5 -8.5 9.25 -7.65L8.5 -7.45L5.8 -7.15L5.4 -7.15L2.7 -7.15Q1.5 -7.1 0.85 -6.7L0.35 -6.3L0.35 -6.25L-0.6 -3.65L-1.2 -1.45L-1.15 -0.85L-1.2 -0.75Q-4.05 1.7 -4.85 5.1M-33.5,-15.8L-32.15 -17.2L-31.45 -17Q-31 -17 -30.45 -17.45L-29.75 -17.9L-28.3 -16.8L-27.45 -16.15L-27.55 -15.75L-27.55 -15.65L-27.7 -14.9L-28.6 -15.15L-28.75 -15.05Q-30.95 -13.85 -31.7 -13.8L-33.45 -13.8L-34.2 -14.85L-33.5 -15.8M-22.15,-13.45L-24.25 -14Q-23.8 -15.4 -23.7 -16.55L-23.65 -17.1L-23.5 -17.2Q-22.9 -17.2 -21.55 -16.3Q-21.7 -14.8 -22.15 -13.45M-13.15,-17.6Q-13.65 -18.15 -14.9 -18.6L-15.45 -18.55L-15.4 -18.6Q-14 -19.85 -13.35 -19.8L-12.35 -19.8L-9.75 -19.5L-9.8 -18.75Q-9.8 -17.05 -10.25 -16.4Q-10.6 -15.75 -12.7 -15.85Q-12.6 -16.9 -13.15 -17.6M-17.25,-9.55L-17.3 -9.6L-17.95 -10.45L-17.45 -10.45L-17 -10.5L-16.95 -10.45L-16.5 -10.3L-14.6 -10.4Q-13.25 -10.55 -13.25 -12.9L-11.45 -12.1L-10.95 -11.8L-11.3 -10.85L-11.8 -9.2L-12.2 -8.75L-17.25 -9.55" />
<path style="fill:#9BC1E7;fill-opacity:1" d="M9.3,-27.8L8.55 -26.85L7.75 -27.1Q4.65 -28.2 4.55 -28.25L1 -28.6Q-0.55 -29 -1.2 -29.85Q-0.7 -31.25 0.75 -31.25L10.45 -28.85L9.3 -27.8M34.55,-11.55Q34.45 -12.45 33.85 -12.65L32.95 -12.75L24.75 -12.2L19.95 -12.45L15.5 -12.1L11.25 -11.75L4.15 -10.95L-2.6 -10.1Q-4.35 -10.1 -4.7 -10.5L-4.85 -10.75L-4 -12.9L-3.8 -12.9L1.5 -13.35L1.75 -13.4L1.8 -13.4L7.4 -13.9L9.6 -14.25L10.35 -14.4L11.5 -14.4L15.25 -14.45L18.65 -14.6L18.8 -14.6L20.75 -14.65L21.75 -14.7L33.8 -15.15Q35.1 -15.15 35.3 -14L35.3 -11.8L34.55 -11.55M-25.05,10.05L-24.75 9.95L-22.7 9.4L-19.65 8.55L-16.25 7.8L-16.1 7.75L-14.25 7.5L-13.55 7.4Q-12.45 7.25 -11.6 6.6Q-10.35 5.75 -9.45 4.2L-9.35 3.95Q-9 5.2 -9 5.9Q-9 9.85 -12.7 10.35L-15.3 10.45Q-16.45 10.55 -16.45 11.05L-19.55 11.7L-24.95 12.65L-30.95 13.7L-33.95 14.15L-35.15 13.95L-35.2 11.95L-35.25 11.85Q-34.35 11.1 -32.8 11L-30.05 11.05L-27.7 10.85L-27.45 10.75L-25.05 10.05M-34.2,-14.85Q-34.5 -15.7 -34.2 -16.75L-33.65 -18.2L-33.5 -18.1L-33.05 -17.8L-32.45 -17.4L-32.15 -17.2L-33.5 -15.8L-34.2 -14.85M-15.95,-18.5L-17.2 -18.75L-15.8 -19.95Q-14.75 -21 -14.1 -20.95L-12.15 -20.85L-10.1 -20.7L-9.7 -20.65L-9.75 -19.5L-12.35 -19.8L-13.35 -19.8Q-14 -19.85 -15.4 -18.6L-15.45 -18.55L-15.95 -18.5M-12.2,-8.75L-11.8 -9.2L-11.3 -10.85L-10.95 -11.8L-10.4 -11.25L-10.8 -8.55L-12.2 -8.75" />
<path style="fill:#476C91;fill-opacity:1" d="M-1.15,-0.85L-1.2 -1.45L-0.6 -3.65L0.35 -6.25L0.35 -6.3L0.85 -6.7Q1.5 -7.1 2.7 -7.15L5.4 -7.15L5.8 -7.15L8.5 -7.45L9.25 -7.65Q12.5 -8.5 16.7 -9L23.8 -9.55L23.8 -9.4Q23.8 -9.1 31.15 -9.4Q32.3 -9.4 33.65 -7.9L34.75 -6.5Q34.45 -5.8 33.95 -6.05L32.5 -6.15Q27.85 -6.4 21.85 -6.25L15.9 -6.25L9.6 -6.3L5.85 -6.15L1.65 -5.65L1.55 -5.65Q-0.25 -4.95 -1.15 -0.85M-1.2,-0.75L-1.25 -0.35L-2.45 7.65Q-2.9 9.85 -3.7 11.3Q-4.55 12.7 -5.8 13.3Q-7.3 14.05 -10.8 14.6Q-14.8 15.75 -33.55 18.5L-33.7 18.5Q-35.25 18.4 -35.3 16.15L-30.7 15.65L-30.55 15.6L-25.9 15.1Q-24.5 15.1 -21.45 13.9L-19.35 13.4L-16.45 13Q-11.8 12.5 -9 11.15Q-6.8 10.15 -5.9 8.45Q-5.5 7.7 -4.85 5.1Q-4.05 1.7 -1.2 -0.75M-23.8,-11.35L-23.85 -11.35L-25.25 -11.55L-24.6 -13L-24.25 -14L-22.15 -13.45L-22.4 -12.75L-22.8 -11.75L-23.8 -11.35M-31.7,-13.8Q-30.95 -13.85 -28.75 -15.05L-28.6 -15.15L-27.7 -14.9L-27.9 -13.95L-28.45 -12.55L-28.75 -12.5L-28.7 -12.4L-29.75 -12.35Q-31.3 -12.5 -33.1 -13.45L-33.45 -13.8L-31.7 -13.8M4.55,-20.4L1.65 -20.5Q0.25 -20.65 -0.2 -20.9Q-1.6 -21.65 -1.6 -24.15L-1.4 -26.4L-1.4 -26.6Q1.3 -23.25 3.3 -22.7L9.7 -22.6L9.3 -22.25L7.85 -21.15L8.05 -20.65L7.9 -20.6L4.55 -20.4" />
<path style="fill:#252424;fill-opacity:1" d="M7.9,-20.6L8.05 -20.65L8.3 -20.35L8.75 -19.85L7.9 -18.5Q7.75 -19.4 7.9 -20.6M5.5,4.8Q4.95 6.4 3.05 6.4Q1.95 6.4 1.75 5.6L1.75 3.5L1.8 3.1L1.85 1.6L1.8 0.05L1.9 -0.65L2.9 -0.8Q4.45 -0.8 5.1 -0.3Q5.8 0.25 5.8 1.55L5.75 3.35L5.5 4.8M9.05,0.75L9.1 0.6L9.15 0.55L10.1 0.45L11.5 0.6L11.75 2.25L11.75 2.45L11.5 4.25L9.85 4.6L8.85 4.6Q8.65 4.45 8.65 3.35L8.7 3.25L8.8 2.05L8.85 1.25L9.05 0.75" />
<path style="fill:#BD7D1B;fill-opacity:1" d="M18.8,-14.6L18.65 -14.6L15.25 -14.45Q14.95 -15 14.75 -16.65Q14.6 -18 13.75 -18.1L14.3 -19.55Q14.6 -20.55 15.2 -20.6Q15.8 -19.7 18.55 -18.15Q20.6 -17 20.75 -14.65L18.8 -14.6M-27.45,10.75L-27.7 10.75L-26.6 4.2L-25.3 -2.05L-24.9 -3.9L-24.7 -4L-24.15 -4.3L-23.95 -3.85L-23.7 -1.7Q-23.7 0.05 -24.45 5.5L-25.05 10.05L-27.45 10.75M1.5,-13.4Q1.5 -17.75 1.65 -19.95L1.65 -20.5L4.55 -20.4L7.9 -20.6Q7.75 -19.4 7.9 -18.5L7.45 -17.95L6.1 -16.1Q6.1 -15.9 6.8 -14.85L7.4 -13.9L1.8 -13.4L1.75 -13.4L1.5 -13.4" />
<path style="fill:#D4922E;fill-opacity:1" d="M-0.55,6.15L-0.75 7.9Q-1.3 11 -2.2 12.2L-2.25 12.3L-3.85 14.6Q-4.8 15.7 -6.45 16.35Q-11 18.35 -12.25 18.35L-13.2 18.6L-14.65 18.75L-17.45 18.5L-23.85 19.3L-27.8 20.1L-32.65 20.2L-33.7 19.9L-33.7 18.5L-33.55 18.5Q-14.8 15.75 -10.8 14.6Q-7.3 14.05 -5.8 13.3Q-4.55 12.7 -3.7 11.3Q-2.9 9.85 -2.45 7.65L-1.25 -0.35L-1.2 -0.75L-1.15 -0.85Q-0.25 -4.95 1.55 -5.65L1.65 -5.65L5.85 -6.15L9.6 -6.3L15.9 -6.25L21.85 -6.25Q27.85 -6.4 32.5 -6.15L32.4 -5.9Q32 -3.25 30.85 0.65Q29.6 0.4 28.6 -0.4Q27.15 -1.65 25.45 -1.65L23.65 -1.35L21.95 -1.1L18.95 -1.35Q17.9 -1.3 15.6 0.45Q14.8 1.15 11.75 2.25L11.5 0.6L10.1 0.45L9.15 0.55L9.1 0.6L9.05 0.75L8.85 0.6L8.85 1.25L8.8 2.05L8.7 3.25L7.2 3.45L5.75 3.35L5.8 1.55Q5.8 0.25 5.1 -0.3Q4.45 -0.8 2.9 -0.8L1.9 -0.65L1.8 0.05L1.85 1.6L1.8 3.1Q-0.3 3.45 -0.55 6.15M-24.9,-3.9L-35.15 -4.95L-34.25 -12.2L-24.55 -10.7L-24.7 -10.5L-24.3 -10.2L-23.35 -9.95L-22.1 -10.3L-21.6 -10.4L-20.95 -10.5L-19.75 -10.2L-19.2 -9.85L-19.05 -9.75L-18.75 -9.4L-18 -8.2L-17.8 -6.7Q-17.8 -5.9 -18.15 -4.65L-18.25 -4.3L-18.55 -3.3L-18.55 -3.2L-18.75 -2.1Q-18.75 -1.65 -17.55 0.5L-13.55 7.4L-14.25 7.5L-16.1 7.75L-16.25 7.8Q-17.35 5.85 -18.8 4L-21.45 0.45L-22.25 4.95L-22.85 9.05L-22.7 9.4L-24.75 9.95L-25.05 10.05L-24.45 5.5Q-23.7 0.05 -23.7 -1.7L-23.95 -3.85L-24.15 -4.3L-24.7 -4L-24.9 -3.9M-12.2,-8.75L-10.8 -8.55L-10.05 -8.4L-10.85 -2.55L-16.9 -3.15L-16.55 -3.85L-16.1 -5.05Q-16.1 -6.7 -16.55 -8.05Q-14.85 -6.2 -14.1 -6.2L-11.9 -6.45Q-10.9 -6.7 -10.9 -7.05L-11.05 -7.4Q-11.45 -7.85 -12.85 -8.2L-15.85 -8.6L-16.5 -8.5L-16.55 -8.35L-16.6 -8.15L-16.8 -8.7L-17.25 -9.55L-12.2 -8.75M-32.75,-9.65L-31.15 -9.05L-29.85 -9.35L-28.2 -9.05L-26.75 -8.75L-25.85 -8.95L-25.75 -9.6Q-25.75 -10.5 -26.65 -10.6L-28.6 -10.85L-30.65 -11.15L-32 -11.15Q-32.2 -11.15 -32.3 -11.3L-32.65 -11.45Q-33.75 -11.45 -34.05 -11.05Q-33.95 -10.35 -32.75 -9.65M-23.1,-5.75L-22.85 -4.6Q-22.45 -3.75 -21.3 -3.75Q-20.35 -3.75 -19.8 -4.3L-19.4 -4.9Q-19.25 -5.3 -19.25 -5.75Q-19.1 -6 -19.1 -6.4Q-19.1 -7.15 -20 -7.9L-20.2 -8.05L-20.3 -8.2Q-20.85 -8.8 -21.45 -8.8Q-22.05 -8.8 -22.3 -8.2L-22.3 -8.1L-22.35 -7.95L-22.45 -7.85L-22.45 -7.7L-23 -6.6L-23.1 -5.75" />
<path style="fill:#E07D7D;fill-opacity:1" d="M23.45,-23.5L23.2 -22.45L23.1 -22.5L23.45 -23.5" />
<path style="fill:#FF6600;fill-opacity:1" d="M34.55,-11.55L35.3 -11.8L35.25 -8.9Q34.65 -10.6 34.55 -11.55M23.8,-9.55L23.8 -9.6L24 -9.55L23.8 -9.55" />
<path style="fill:#E0A348;fill-opacity:1" d="M-33.55,24.05L-33.6 22.6L-33.7 19.9L-32.65 20.2L-27.8 20.1L-23.85 19.3L-17.45 18.5L-14.65 18.75L-13.2 18.6L-12.25 18.35Q-11 18.35 -6.45 16.35Q-4.8 15.7 -3.85 14.6L-2.25 12.3L-2.2 12.2Q-1.3 11 -0.75 7.9L-0.55 6.15Q-0.3 3.45 1.8 3.1L1.75 3.5L1.75 5.6Q1.95 6.4 3.05 6.4Q4.95 6.4 5.5 4.8L5.75 3.35L7.2 3.45L8.7 3.25L8.65 3.35Q8.65 4.45 8.85 4.6L9.85 4.6L11.5 4.25L11.75 2.45L11.75 2.25Q14.8 1.15 15.6 0.45Q17.9 -1.3 18.95 -1.35L21.95 -1.1L23.65 -1.35L25.45 -1.65Q27.15 -1.65 28.6 -0.4Q29.6 0.4 30.85 0.65L30.15 2.85L27.75 9.95Q-1.75 24.75 -33.55 24.05" />
<path style="fill:#F3B9B9;fill-opacity:1" d="M-33.7,27.1L-33.7 26.85L-33.55 24.05Q-1.75 24.75 27.75 9.95L27.1 11.8L26.5 13.4Q8.95 26.2 -33.7 27.1" />
<path style="fill:#8A3131;fill-opacity:1" d="M26.5,13.4L24.85 16.85L21.95 20.9Q20.1 23.35 18.25 24.45L13.2 26.9Q10.05 28.2 1.45 29.9Q-5.2 31.2 -15.15 31.2L-22.3 31.15L-29.2 30.2L-32.35 29.65Q-33.9 29.05 -33.7 27.1Q8.95 26.2 26.5 13.4" />
<path style="fill:#BABDBF;fill-opacity:1" d="M-24.4,-14.05L-27.7 -14.9L-27.55 -15.65L-27.55 -15.75L-27.45 -16.15L-26.75 -15.75Q-26.15 -15.75 -24.9 -16.45L-23.65 -17.1L-23.7 -16.55Q-23.8 -15.4 -24.25 -14L-24.4 -14.05M-12.7,-15.85L-12.9 -14.25L-13.2 -14.3L-14.35 -13.85Q-14.65 -13.6 -15.8 -13.15Q-16.3 -12.85 -19.25 -13.1L-19.3 -13.05L-22.15 -13.45Q-21.7 -14.8 -21.55 -16.3L-21.15 -16Q-19.55 -14.85 -19.2 -14.85Q-18.85 -14.85 -17.9 -15.6L-17 -16.45L-17.8 -18.7L-17.85 -18.85L-17.4 -18.8L-17.2 -18.75L-15.95 -18.5L-15.45 -18.55L-14.9 -18.6Q-13.65 -18.15 -13.15 -17.6Q-12.6 -16.9 -12.7 -15.85" />
<path style="fill:#989898;fill-opacity:1" d="M-25.25,-11.55L-26.9 -11.9Q-28.5 -12.2 -28.7 -12.4L-28.5 -12.45L-28.45 -12.55L-27.9 -13.95L-27.7 -14.9L-24.4 -14.05L-24.25 -14L-24.6 -13L-25.25 -11.55M-19.3,-13.05L-19.25 -13.1Q-16.3 -12.85 -15.8 -13.15Q-14.65 -13.6 -14.35 -13.85L-13.2 -14.3L-12.9 -14.25Q-13 -13.5 -13.25 -12.9Q-13.25 -10.55 -14.6 -10.4L-16.5 -10.3L-16.95 -10.45L-17 -10.5L-17.45 -10.45L-17.95 -10.45L-19.4 -11.5Q-20.3 -11.9 -21.45 -11.9L-22.8 -11.75L-22.4 -12.75L-22.15 -13.45L-19.3 -13.05" />
<path style="fill:#E7B66C;fill-opacity:1" d="M-16.8,-8.7L-16.6 -8.15L-16.55 -8.35L-16.5 -8.5L-15.85 -8.6L-12.85 -8.2Q-11.45 -7.85 -11.05 -7.4L-10.9 -7.05Q-10.9 -6.7 -11.9 -6.45L-14.1 -6.2Q-14.85 -6.2 -16.55 -8.05Q-16.1 -6.7 -16.1 -5.05L-16.55 -3.85L-16.9 -3.15L-17.05 -2.8L-15.85 -0.5L-15.8 -0.35L-14.2 2.45L-12.65 4.35Q-11.6 5.7 -11.6 6.6Q-12.45 7.25 -13.55 7.4L-17.55 0.5Q-18.75 -1.65 -18.75 -2.1L-18.55 -3.2L-18.55 -3.3L-18.25 -4.3L-18.15 -4.65Q-17.8 -5.9 -17.8 -6.7L-18 -8.2L-18.75 -9.4L-19.05 -9.75L-19.2 -9.85L-19.75 -10.2L-20.95 -10.5L-21.6 -10.4L-22.1 -10.3L-23.35 -9.95L-24.3 -10.2L-24.7 -10.5L-24.55 -10.7L-23.8 -11.35L-22.8 -11.75L-21.45 -11.9Q-20.3 -11.9 -19.4 -11.5L-17.95 -10.45L-17.3 -9.6L-17.25 -9.55L-16.8 -8.7M-34.05,-11.05Q-33.75 -11.45 -32.65 -11.45L-32.3 -11.3Q-32.2 -11.15 -32 -11.15L-30.65 -11.15L-28.6 -10.85L-26.65 -10.6Q-25.75 -10.5 -25.75 -9.6L-25.85 -8.95L-26.75 -8.75L-28.2 -9.05L-29.85 -9.35L-31.15 -9.05L-32.75 -9.65Q-33.95 -10.35 -34.05 -11.05M-22.35,-7.95L-22.3 -8.1L-22.3 -8.2Q-22.05 -8.8 -21.45 -8.8Q-20.85 -8.8 -20.3 -8.2L-20.2 -8.05L-20 -7.9Q-19.1 -7.15 -19.1 -6.4Q-19.1 -6 -19.25 -5.75Q-19.25 -5.3 -19.4 -4.9L-19.8 -4.3Q-20.35 -3.75 -21.3 -3.75Q-22.45 -3.75 -22.85 -4.6L-23.1 -5.75L-23 -6.6L-22.45 -7.7L-22.35 -7.95" />
<path style="fill:#CD6464;fill-opacity:1" d="M-22.45,-7.7L-22.45 -7.85L-22.35 -7.95L-22.45 -7.7" />
<path style="fill:none;stroke-width:1;stroke-linecap:butt;stroke-linejoin:miter;stroke-miterlimit:3;stroke:#233F5B;stroke-opacity:1" d="M10.45,-28.85L0.75 -31.25Q-0.7 -31.25 -1.2 -29.85M7.4,-13.9L9.6 -14.25L10.35 -14.4L11.5 -14.4L15.25 -14.45L18.65 -14.6L18.8 -14.6L20.75 -14.65L21.75 -14.7L33.8 -15.15Q35.1 -15.15 35.3 -14L35.3 -11.8L35.25 -8.9L34.75 -6.5Q34.45 -5.8 33.95 -6.05L32.5 -6.15Q27.85 -6.4 21.85 -6.25L15.9 -6.25L9.6 -6.3L5.85 -6.15L1.65 -5.65L1.55 -5.65Q-0.25 -4.95 -1.15 -0.85L-1.2 -0.75L-1.25 -0.35L-2.45 7.65Q-2.9 9.85 -3.7 11.3Q-4.55 12.7 -5.8 13.3Q-7.3 14.05 -10.8 14.6Q-14.8 15.75 -33.55 18.5L-33.7 18.5M32.4,-5.9Q32 -3.25 30.85 0.65L30.15 2.85L27.75 9.95L27.1 11.8L26.5 13.4L24.85 16.85L21.95 20.9Q20.1 23.35 18.25 24.45L13.2 26.9Q10.05 28.2 1.45 29.9Q-5.2 31.2 -15.15 31.2L-22.3 31.15L-29.2 30.2L-32.35 29.65Q-33.9 29.05 -33.7 27.1L-33.7 26.85L-33.55 24.05L-33.6 22.6L-33.7 19.9L-33.7 18.5Q-35.25 18.4 -35.3 16.15L-35.15 13.95L-35.2 11.95L-35.25 11.85Q-34.35 11.1 -32.8 11L-30.05 11.05L-27.7 10.85L-27.7 10.75M-27.7,10.85L-27.45 10.75L-25.05 10.05L-24.75 9.95L-22.7 9.4L-19.65 8.55L-16.25 7.8L-16.1 7.75L-14.25 7.5L-13.55 7.4Q-12.45 7.25 -11.6 6.6Q-10.35 5.75 -9.45 4.2L-9.35 3.95Q-8.75 2.7 -7.3 -1.8Q-6.35 -4.45 -5.4 -8.8L-4.85 -10.75L-4 -12.9L-3.8 -12.9L1.5 -13.35M1.65,-20.5Q0.25 -20.65 -0.2 -20.9Q-1.6 -21.65 -1.6 -24.15L-1.4 -26.4L-1.4 -26.6L-1.4 -28.9L-1.2 -29.85M7.4,-13.9L1.8 -13.4L1.75 -13.4L1.5 -13.35M1.65,-20.5L4.55 -20.4L7.9 -20.6L8.05 -20.65" />
<path style="fill:none;stroke-width:1;stroke-linecap:butt;stroke-linejoin:miter;stroke-miterlimit:3;stroke:#6B3510;stroke-opacity:1" d="M-27.7,10.75L-26.6 4.2L-25.3 -2.05L-24.9 -3.9L-35.15 -4.95L-34.25 -12.2L-24.55 -10.7L-23.8 -11.35L-22.8 -11.75L-21.45 -11.9Q-20.3 -11.9 -19.4 -11.5L-17.95 -10.45M-17.25,-9.55L-12.2 -8.75L-10.8 -8.55L-10.05 -8.4L-10.85 -2.55L-16.9 -3.15L-17.05 -2.8L-15.85 -0.5L-15.8 -0.35L-14.2 2.45L-12.65 4.35Q-11.6 5.7 -11.6 6.6M1.5,-13.35L1.5 -13.4Q1.5 -17.75 1.65 -19.95M7.9,-20.6Q7.75 -19.4 7.9 -18.5M-24.55,-10.7L-24.7 -10.5Q-25.6 -9.4 -25.6 -7.3L-25.6 -7.1L-25.55 -5.7Q-25.45 -4.8 -24.7 -4M-22.85,9.05L-22.25 4.95L-21.45 0.45L-18.8 4Q-17.35 5.85 -16.25 7.8M-22.45,-7.85L-22.85 -7.05L-23 -6.6L-22.45 -7.7M-22.45,-7.85L-22.35 -7.95L-22.3 -8.1L-22.3 -8.2Q-22.05 -8.8 -21.45 -8.8Q-20.85 -8.8 -20.3 -8.2L-20.2 -8.05L-20 -7.9M-19.25,-5.75Q-19.25 -5.3 -19.4 -4.9L-19.8 -4.3Q-20.35 -3.75 -21.3 -3.75Q-22.45 -3.75 -22.85 -4.6L-23.1 -5.75L-23 -6.6M-22.35,-7.95L-22.45 -7.7M-16.55,-8.05Q-16.1 -6.7 -16.1 -5.05L-16.55 -3.85L-16.9 -3.15M-16.55,-8.05L-16.6 -8.15L-16.8 -8.7L-17.25 -9.55L-17.3 -9.6L-17.95 -10.45" />
<path style="fill:none;stroke-width:1;stroke-linecap:butt;stroke-linejoin:miter;stroke-miterlimit:3;stroke:#3A1313;stroke-opacity:1" d="M1.8,3.1L1.85 1.6L1.8 0.05L1.9 -0.65L2.9 -0.8Q4.45 -0.8 5.1 -0.3Q5.8 0.25 5.8 1.55L5.75 3.35M8.7,3.25L8.8 2.05L8.85 1.25M9.05,0.75L9.1 0.6L9.15 0.55L10.1 0.45L11.5 0.6L11.75 2.25M8.7,3.25L8.65 3.35Q8.65 4.45 8.85 4.6L9.85 4.6L11.5 4.25L11.75 2.45L11.75 2.25M9.05,0.75L8.85 1.25M1.8,3.1L1.75 3.5L1.75 5.6Q1.95 6.4 3.05 6.4Q4.95 6.4 5.5 4.8L5.75 3.35" />
<path style="fill:none;stroke-width:1;stroke-linecap:butt;stroke-linejoin:miter;stroke-miterlimit:3;stroke:#8C1D1D;stroke-opacity:1" d="M8.85,1.25L8.85 0.6L9.05 0.75" />
<path style="fill:none;stroke-width:1;stroke-linecap:butt;stroke-linejoin:miter;stroke-miterlimit:3;stroke:#2C2C2C;stroke-opacity:1" d="M8.05,-20.65L7.85 -21.15L9.3 -22.25L9.7 -22.6L10.75 -24Q10.05 -24.25 9.15 -25.35L8.4 -26.45L8.55 -26.85L9.3 -27.8L10.45 -28.85M15.25,-14.45Q14.95 -15 14.75 -16.65Q14.6 -18 13.75 -18.1L14.3 -19.55Q14.6 -20.55 15.2 -20.6Q15.8 -19.7 18.55 -18.15Q20.6 -17 20.75 -14.65M-23.8,-11.35L-23.85 -11.35L-25.25 -11.55L-26.9 -11.9Q-28.5 -12.2 -28.7 -12.4L-29.75 -12.35Q-31.3 -12.5 -33.1 -13.45L-33.45 -13.8L-34.2 -14.85Q-34.5 -15.7 -34.2 -16.75L-33.65 -18.2L-33.5 -18.1L-33.05 -17.8L-32.45 -17.4L-32.15 -17.2L-31.45 -17Q-31 -17 -30.45 -17.45L-29.75 -17.9L-28.3 -16.8L-27.45 -16.15L-26.75 -15.75Q-26.15 -15.75 -24.9 -16.45L-23.65 -17.1L-23.5 -17.2Q-22.9 -17.2 -21.55 -16.3L-21.15 -16Q-19.55 -14.85 -19.2 -14.85Q-18.85 -14.85 -17.9 -15.6L-17 -16.45L-17.8 -18.7L-17.85 -18.85L-17.4 -18.8L-17.2 -18.75L-15.8 -19.95Q-14.75 -21 -14.1 -20.95L-12.15 -20.85L-10.1 -20.7L-9.7 -20.65L-9.75 -19.5L-9.8 -18.75Q-9.8 -17.05 -10.25 -16.4Q-10.6 -15.75 -12.7 -15.85L-12.9 -14.25Q-13 -13.5 -13.25 -12.9L-11.45 -12.1L-10.95 -11.8L-10.4 -11.25L-10.8 -8.55M8.05,-20.65L8.3 -20.35L8.75 -19.85L7.9 -18.5L7.45 -17.95L6.1 -16.1Q6.1 -15.9 6.8 -14.85L7.4 -13.9M-27.9,-13.95L-27.7 -14.9L-27.55 -15.65L-27.55 -15.75L-27.45 -16.15M-28.45,-12.55L-28.5 -12.45L-28.7 -12.4L-28.75 -12.5L-28.45 -12.55L-27.9 -13.95M-17.95,-10.45L-17.45 -10.45L-17 -10.5L-16.95 -10.45L-16.5 -10.3L-14.6 -10.4Q-13.25 -10.55 -13.25 -12.9M-17.2,-18.75L-15.95 -18.5L-15.45 -18.55L-14.9 -18.6Q-13.65 -18.15 -13.15 -17.6Q-12.6 -16.9 -12.7 -15.85" />
</g>
</svg>
