<?xml version="1.0" encoding="utf-8"?>
<svg version="1.1" id="Layer_1"
xmlns="http://www.w3.org/2000/svg"
xmlns:xlink="http://www.w3.org/1999/xlink"
xmlns:author="http://www.sothink.com"
width="1695px" height="252px"
xml:space="preserve">
<g id="215" transform="matrix(1, 0, 0, 1, 847.3, 126)">
<linearGradient
id="LinearGradID_19" gradientUnits="userSpaceOnUse" gradientTransform="matrix(0.000671387, 0.033783, -0.071106, 0.00111389, 2.1, -26.85)" spreadMethod ="pad" x1="-819.2" y1="0" x2="819.2" y2="0" >
<stop  offset="0" style="stop-color:#66CCFF;stop-opacity:1" />
<stop  offset="1" style="stop-color:#FFFFFF;stop-opacity:1" />
</linearGradient>
<path style="fill:url(#LinearGradID_19) " d="M90.6,-57.6L90.25 -57.1L97.1 -52L96.8 -51.5L95.1 -47.85Q94.95 -46.85 98.2 -44.35L98.8 -43.95L98.8 -43.75L98.5 -43.55Q97.55 -42.55 96.35 -39.95L96.35 -39.75Q94.25 -34.8 91.4 -24.05L91.05 -22.75Q89.55 -17.25 88.6 -12.5L88.3 -12.5L88.3 -12.4L87.95 -12.6Q86.9 -12.8 85.95 -12.6L77.95 -11.25L72.9 -14.55L73.45 -15.55Q74.3 -17.2 74.3 -18.8Q74.3 -21.9 66.4 -24.7L65.35 -24.6L65 -23.9L64.6 -23.2L64.15 -22.4L63.7 -21.6L63.2 -20.7L55.9 -25.4L55.8 -25.3Q49.5 -30.25 31.8 -29.35L31.7 -28.55Q32.55 -25.7 33.5 -23.3Q37.15 -14.45 44.7 -9.25L50.05 -17.2L52.1 -20L48.55 -14.55L44.9 -9.05L44.5 -8.55L51.45 -3.3L51.2 -2.9L50.85 -2.25L-31.15 -2.35Q-29.9 -7.15 -29.9 -9.25Q-29.9 -14.95 -33.55 -14.95Q-34.65 -14.95 -39.95 -10.85L-41.4 -9.7L-41.15 -16.45L-41.15 -17.5L-39.05 -17.5Q-35.2 -17.5 -34.35 -18.9Q-33.8 -19.9 -33.8 -24.3Q-33.8 -29.75 -36.8 -29.75L-41.6 -29.75Q-41.2 -33.05 -41.6 -33.95Q-42.05 -35.15 -44.9 -35.15L-47.6 -34.95Q-47.6 -34.05 -47.9 -32.65L-48.15 -30.05L-62.55 -30.65L-62.65 -30.65L-62.85 -34.95L-66.5 -35.45L-69.05 -35.45L-69.05 -30.95L-72.4 -31.25Q-72.4 -34.15 -71.15 -41.2L-71.35 -42.4L-73.8 -42.3L-73.4 -48.8L-73.05 -57.75L-73.05 -64.9L-73.15 -73.45Q-73.25 -77.75 -72.95 -81.65L-72.85 -87.5Q-72.6 -97.55 -72.7 -102.7Q-33.9 -101.9 -6.2 -73.1Q-0.95 -67.55 3.45 -61.45L3.45 -61.55L4.9 -62.85Q8.15 -67.05 11.85 -70.95Q40.3 -100.55 80.65 -100.5Q120.95 -100.5 149.45 -70.8Q154.05 -66 157.9 -60.85Q150.8 -58.45 147.85 -52.05L146.35 -47.6Q144.85 -42 143.4 -31.65Q140.85 -14.1 138.7 -2.2L123.65 -2.2L121.95 -9.8L121.6 -11.2L121.65 -11.2L118.4 -24.05L118.3 -24.45L117.8 -25.65L116.6 -29L116.4 -29.5L118.75 -28.1Q120 -26.85 121.3 -26.15Q122.8 -25.05 124.5 -25.25L131.05 -34.15L130.4 -35.8L126.05 -41.15L128.6 -43.95L130.95 -47.4Q132.7 -46.1 135.05 -45.6L136.45 -45.6Q138.15 -45.8 139.3 -47.4L142.4 -52.55L143.7 -54.65L143.05 -55.05L143.7 -54.75L143.25 -55.35L143.05 -55.65L139.75 -57.55L133.65 -61.2Q132.7 -61.4 131.7 -61.2L123.7 -59.8L118.6 -63.05L119.2 -64.15Q120 -65.75 120 -67.35Q120 -70.45 112.15 -73.3L111.1 -73.2L110.7 -72.5L110.35 -71.8L109.85 -70.95L109.4 -70.15L108.95 -69.25L101.6 -74L101.5 -73.9Q95.2 -78.8 77.55 -77.95L77.35 -77.15L79.25 -71.9Q82.8 -63.05 90.4 -57.8L95.75 -65.75L97.75 -68.55L94.25 -63.15L90.6 -57.6M-172.25,-2.5Q-171.9 -43.9 -143.8 -73.25Q-115.85 -102.3 -76.35 -102.75L-76.35 -81.65L-76.35 -65.6L-76.7 -44.6L-76.7 -44.5L-77.25 -44.6L-77.35 -44.6Q-79.05 -44.65 -79.5 -43.85Q-79.8 -43.35 -79.8 -41.05L-79.2 -32.8L-79.3 -31.7L-83.9 -32.1L-83.8 -33.4Q-83.5 -34.4 -83.5 -36.7L-89.05 -36.7Q-89.55 -36.2 -89.55 -34.9Q-89.35 -33.4 -89.45 -32.4L-95.55 -32.8L-102.15 -32.7Q-102.15 -34.7 -101.75 -35.5Q-101.45 -36.2 -101.45 -36.8L-101.55 -37.4L-104.55 -37.7L-108.9 -37.7L-109.35 -32.5Q-112.45 -32.5 -113.6 -31.7Q-114.9 -30.8 -115.4 -28.5L-115.65 -25.85L-115.65 -23.45Q-115.45 -20.15 -112.45 -20.55L-109.35 -20.75L-109.1 -20.75L-109.65 -16.3L-109.85 -2.45L-113.7 -2.45L-113.7 -2.75Q-113.6 -6.6 -115.4 -6.6Q-116.25 -6.6 -120.6 -3.85L-126.5 -9.45L-126.9 -9.75Q-127.1 -10.35 -127.1 -12.45Q-127.1 -14.05 -126 -18.9Q-125.05 -23.6 -125.05 -25.7Q-125.05 -27.3 -126.1 -28.55Q-127 -29.55 -127.8 -29.55Q-130.25 -29.55 -133 -24.7Q-134.95 -21.2 -135.95 -17.9L-152.3 -12.35Q-148.45 -5.95 -142.35 -3.7Q-140.55 -3.05 -135.4 -2.5L-172.25 -2.5M112.25,-35.7L112.35 -35.4L111.6 -36L108.8 -38.1L110.6 -40.45L112.25 -35.7M109.25,-25.65L109.9 -24.05L111.8 -17.05L107.75 -17.85L107.65 -17.85L99.3 -19.65L99.6 -21.65L99.95 -24.05Q100.9 -29.8 101.65 -32.6L103.05 -32.2Q107.3 -30.6 109.25 -25.65M113.2,-11.7L113.4 -11.2L113.6 -11.2L114.35 -8.4L112.65 -8.7L110.3 -9L110 -9L108.9 -9.1L108.15 -9.1L102.1 -8.7L98.75 -9.1L96.65 -9.4L97.15 -11.2L97.6 -11.2L98.1 -13.3L105.9 -12.7L108.5 -12.6L113 -12.3L113.2 -11.7M95.7,-2.25L96.4 -3.45L109.35 -2.75L115.75 -2.35L116.15 -2.25L116.15 -2.2L95.7 -2.25M114.45,-16.55L115.1 -16.3L114.9 -16.3L114.45 -16.55M-102.7,-20.55L-90.55 -20.15L-90.4 -20.15Q-91.05 -12.55 -91.2 -2.45L-104.95 -2.45Q-104.3 -12.15 -103.45 -18.95L-103.45 -20.55L-102.7 -20.55M-81.15,-19.85L-68.5 -19Q-68.55 -13.05 -68.9 -6.15L-76.7 -8.7L-78.95 -8.7L-77.2 -2.4L-85.05 -2.45L-84.75 -19.95L-81.15 -19.85M-74.55,-42.3L-73.8 -42.3Q-73.9 -40.4 -74.2 -39.7Q-74.25 -41.2 -74.55 -42.3M-62.75,-18.6L-57.4 -18.2L-48.15 -17.6L-48.15 -7.55L-48.4 -4.4L-51.2 -2.35L-62 -2.4L-63.6 -3.75Q-62.9 -13.3 -62.75 -18.6" />
<path style="fill:#8FB4D9;fill-opacity:1" d="M99.45,-70.85L90.9 -72.4Q81.85 -74.3 77.65 -77.05L77.35 -77.15L77.55 -77.95Q95.2 -78.8 101.5 -73.9L99.45 -70.85M53.7,-22.3L45.25 -23.8Q36.15 -25.7 32 -28.45L31.7 -28.55L31.8 -29.35Q49.5 -30.25 55.8 -25.3L53.7 -22.3" />
<path style="fill:#618AB4;fill-opacity:1" d="M52.1,-20L50.05 -17.2L44.3 -17.3Q41.2 -17.6 39.05 -19Q37.9 -19.7 33.5 -23.3Q32.55 -25.7 31.7 -28.55L32 -28.45Q36.15 -25.7 45.25 -23.8L53.7 -22.3L52.1 -20M89.95,-65.85Q86.95 -66.15 84.8 -67.55Q83.65 -68.25 79.25 -71.9L77.35 -77.15L77.65 -77.05Q81.85 -74.3 90.9 -72.4L99.45 -70.85L97.75 -68.55L95.75 -65.75L89.95 -65.85" />
<path style="fill:#252424;fill-opacity:1" d="M-75,-102.75L-76.35 -102.75Q-115.85 -102.3 -143.8 -73.25Q-171.9 -43.9 -172.25 -2.5L-172.25 -1.4Q-172.2 40.7 -143.7 70.3Q-115.25 100.1 -74.9 100.15Q-34.6 100.15 -6.1 70.45Q-1.95 66.15 1.7 61.55L3.55 63.55L6.65 66.65L11.95 72.5L12.45 73L17.25 77.7L22 81.8L22.55 82.25L26.55 85.25Q50.25 102.25 80.75 102.3Q115.1 102.3 140.9 80.8Q145.35 77.05 149.55 72.65L150.15 72.05Q155.2 66.7 159.35 60.95Q161.95 57.35 164.15 53.6Q167.15 48.55 169.5 43.25Q175.65 29.3 177.35 13.45L177.9 4.7L177.95 1Q177.9 -31.35 161.1 -56.35L157.9 -60.85Q154.05 -66 149.45 -70.8Q120.95 -100.5 80.65 -100.5Q40.3 -100.55 11.85 -70.95Q8.15 -67.05 4.9 -62.85L3.45 -61.55L3.45 -61.45Q-0.95 -67.55 -6.2 -73.1Q-33.9 -101.9 -72.7 -102.7L-75 -102.75M195.6,108.75L-196.05 108.35L-196.15 -109.45L195.5 -109.05L195.6 108.75" />
<path style="fill:#476C91;fill-opacity:1" d="M44.7,-9.25Q37.15 -14.45 33.5 -23.3Q37.9 -19.7 39.05 -19Q41.2 -17.6 44.3 -17.3L50.05 -17.2L44.7 -9.25M95.75,-65.75L90.4 -57.8Q82.8 -63.05 79.25 -71.9Q83.65 -68.25 84.8 -67.55Q86.95 -66.15 89.95 -65.85L95.75 -65.75" />
<path style="fill:#BABDBF;fill-opacity:1" d="M108.25,-67.35Q108.25 -64.95 116.35 -61.95Q117.2 -61.95 117.95 -62.45L118.6 -63.05L123.7 -59.8L127.65 -57.2Q129.9 -56.4 131 -54.25L131.7 -52.05Q132.25 -49.65 130.95 -47.4L128.6 -43.95L126.7 -44.55L125.3 -44.65Q121.55 -44.25 118.25 -45.35Q116.1 -46.35 114.1 -47.55L111.85 -48.95L111.4 -48.85L94.25 -63.15L97.75 -68.55L99.45 -70.85L101.5 -73.9L101.6 -74L108.95 -69.25Q108.25 -67.85 108.25 -67.35M82.85,4.65L80.95 4.05L79.55 3.95Q75.8 4.3 72.5 3.2Q70.35 2.2 68.4 1L66.1 -0.4L65.65 -0.3L48.55 -14.55L52.1 -20L53.7 -22.3L55.8 -25.3L55.9 -25.4L63.2 -20.7Q62.55 -19.3 62.55 -18.8Q62.55 -16.35 70.65 -13.35Q71.5 -13.35 72.25 -13.85L72.9 -14.55L77.95 -11.25L81.9 -8.6Q84.15 -7.8 85.2 -5.7L85.95 -3.45L86.1 -2.25Q86.15 -0.5 85.2 1.15L82.85 4.65" />
<path style="fill:#989898;fill-opacity:1" d="M128.6,-43.95L126.05 -41.15L124.5 -38.95Q123.95 -38.1 123 -37.5Q122.25 -37.1 121.6 -37.2Q117.25 -37.3 113.9 -39.95L113.15 -40.45Q112.2 -40.95 111.3 -41.55L109.95 -42.35L106.4 -44.95Q108.25 -47.75 108.25 -49.05Q108.25 -50 104.7 -52.5Q101.15 -54.9 100.2 -54.9Q99.55 -54.9 98.9 -54.3Q98.05 -53.6 97.1 -52L90.25 -57.1L90.6 -57.6L94.25 -63.15L111.4 -48.85L111.85 -48.95L114.1 -47.55Q116.1 -46.35 118.25 -45.35Q121.55 -44.25 125.3 -44.65L126.7 -44.55L128.6 -43.95M48.55,-14.55L65.65 -0.3L66.1 -0.4L68.4 1Q70.35 2.2 72.5 3.2Q75.8 4.3 79.55 3.95L80.95 4.05L82.85 4.65L82.75 4.75L80.3 7.5L78.7 9.7L77.95 10.55L77.2 11.05L75.8 11.35Q73.25 11.25 71.1 10.35Q69.5 9.75 68.2 8.65L67.45 8.15L65.45 7.05L64.25 6.25L60.65 3.6Q62.55 0.8 62.55 -0.5Q62.55 -1.05 61.15 -2.25L59 -3.9Q55.4 -6.35 54.45 -6.35Q53.8 -6.35 53.15 -5.75Q52.3 -5 51.45 -3.3L44.5 -8.55L44.9 -9.05L48.55 -14.55" />
<path style="fill:#D75535;fill-opacity:1" d="M108.95,-69.25L109.4 -70.15L109.85 -70.95L111.75 -69.45L115.05 -68.15Q116.25 -67.55 117.2 -64.45L117.4 -63.85L117.95 -62.45Q117.2 -61.95 116.35 -61.95Q108.25 -64.95 108.25 -67.35Q108.25 -67.85 108.95 -69.25M115.1,-28.5L116.6 -29L117.8 -25.65L115.1 -28.5M-48.15,-17.6L-57.4 -18.2L-62.75 -18.6L-68.5 -19L-81.15 -19.85L-84.75 -19.95L-85 -19.95L-90.4 -20.15L-90.55 -20.15L-102.7 -20.55L-103.45 -20.55L-107.6 -20.75L-109.1 -20.75L-109.35 -20.75L-112.45 -20.55Q-115.45 -20.15 -115.65 -23.45L-115.65 -25.85L-115.4 -28.5Q-114.9 -30.8 -113.6 -31.7Q-112.45 -32.5 -109.35 -32.5L-109.2 -32.5L-102.15 -32.7L-95.55 -32.8L-89.45 -32.4L-83.9 -32.1L-79.3 -31.7L-78.65 -31.7L-74.95 -31.35L-72.4 -31.25L-69.05 -30.95L-63.1 -30.65L-62.65 -30.65L-62.55 -30.65L-48.15 -30.05L-46 -29.75L-41.7 -29.75L-41.6 -29.75L-36.8 -29.75Q-33.8 -29.75 -33.8 -24.3Q-33.8 -19.9 -34.35 -18.9Q-35.2 -17.5 -39.05 -17.5L-41.15 -17.5L-48.15 -17.6M50.85,-2.25L51.2 -2.9L51.45 -3.3Q52.3 -5 53.15 -5.75L53.05 -4.9Q53.05 -2.9 54.2 -2.4L54.45 -2.25Q55.8 -1.15 57.1 -0.1L57.65 1.3L58.5 4.6L59 5.55L60.4 3.9L60.65 3.6L64.25 6.25L64.9 8.05L63 10.45L60.75 8.65L57.85 6.55L57.45 6.65Q56.05 6.65 53.25 4.7L53.05 4.8L53.05 4.6L52.5 4.2Q49.2 1.7 49.4 0.7L50.85 -2.25M63.2,-20.7L63.7 -21.6L64.15 -22.4Q64.8 -21.6 66.05 -20.9Q67.45 -20.2 69.3 -19.6Q70.55 -19 71.5 -15.85L71.65 -15.25L72.25 -13.85Q71.5 -13.35 70.65 -13.35Q62.55 -16.35 62.55 -18.8Q62.55 -19.3 63.2 -20.7M121.5,5.6L118.1 5.15L117.9 4.35L116.15 -2.2L116.15 -2.25L115.75 -2.35L116.2 -4.05L111.9 -4.95L109.15 -5.35L107.55 -5.5L102.8 -5.8L98.1 -6.1L98 -6.1L97.35 -6.5L98 -6.2L97.5 -6.8L97.35 -7.1L94.05 -9L90.85 -10.9L90.85 -11.2L91.2 -11.2L91.5 -12.5L92.65 -16.85L94.8 -24.05L99 -38.65Q98.75 -38.75 98.45 -38.95L98 -39.15L96.35 -39.75L96.35 -39.95L98 -39.15Q98.85 -39.25 99.5 -38.45L103.9 -36.7Q107.1 -35.4 109.25 -33.1Q111.5 -30.6 112.45 -26.95L113.3 -24.05L116.95 -12.5L117.15 -11.7L117.35 -11.2L117.55 -11.2L120.35 -2.2L122.25 4.15L122.6 5.6L121.5 5.6M98.8,-43.75L98.8 -43.95L98.2 -44.35Q94.95 -46.85 95.1 -47.85L96.8 -51.5L97.1 -52Q98.05 -53.6 98.9 -54.3L98.8 -53.5Q98.8 -51.5 99.9 -51Q101.8 -50.1 102.8 -48.65L103.4 -47.25L104.25 -43.95L104.7 -43.05L106.1 -44.65L106.4 -44.95L109.95 -42.35L110.6 -40.45L108.8 -38.1L106.5 -39.95L103.55 -42.05L103.2 -41.95Q101.8 -41.95 98.95 -43.85L98.8 -43.75M150.1,72.05L141.35 71.35L132.6 70.5Q122.95 70.45 113.15 72.2Q103.2 74 99.9 74L98.2 74L88.35 73.3L80 72.6L64.2 71.25L45.85 73.45L36.75 74.75L27.35 76.25L17.25 77.7L12.45 73L12.4 71.4Q12.15 66.95 12.4 63.35Q12.8 56.1 15.4 55L15.4 64.75L20.2 63.95Q34.85 61.8 43.4 61.3L54.8 60.9Q68.7 60.5 90.6 60.55L91.95 60.55Q120.6 60.35 123.05 61.15L123.25 60.95L123.25 61.35L151.5 60.6L159.35 60.95Q155.2 66.7 150.15 72.05L150.1 72.05M103.05,-32.2L101.65 -32.6Q100.9 -29.8 99.95 -24.05L99.6 -21.65L99.3 -19.65L107.65 -17.85L107.75 -17.85L111.8 -17.05L109.9 -24.05L109.25 -25.65Q107.3 -30.6 103.05 -32.2M97.6,-11.2L97.15 -11.2L96.65 -9.4L98.75 -9.1L102.1 -8.7L108.15 -9.1L108.9 -9.1L110 -9L110.3 -9L112.65 -8.7L114.35 -8.4L113.6 -11.2L113.4 -11.2L113.2 -11.7L113.3 -11.9L113.7 -12.5L114.05 -13.3L113.85 -14.7L109.9 -14.7L108.3 -14.3L105.95 -14.1Q105.3 -14.1 102.1 -15.4L98.75 -16.75L97.7 -16.65Q97.35 -16.65 96.65 -16.1L98.1 -13.3L97.6 -11.2M114.9,-16.3L115.1 -16.3L114.45 -16.55L114.9 -16.3M85.75,4.35L87.55 4.65L88 2.65L89.25 2.95L90.75 2.95Q92.45 2.75 93.45 1.15L94.6 -0.55L93.65 4.15L93.45 4.75Q92.8 6.1 91.7 6.6L87.1 7L86.9 7Q85.85 7 85.75 6.2L85.75 4.75L85.75 4.35M69.3,20.1L70.8 19.6L72.05 22.9L69.3 20.1M50.7,8.65L52.2 9.45Q53.05 9.35 53.7 10.15L58.15 11.85L58.5 12.05Q61.4 13.25 63.5 15.45Q65.75 18 66.7 21.6L67.55 24.5L70.25 33.55L71.4 36.75L71.4 36.85L71.55 37.35L71.65 37.35Q74.35 45.2 76.8 53.95L77.05 54.85L75.95 54.85L72.55 54.45L72.45 53.95L70.6 47L70.2 46.9L70.7 45.2L66.35 44.3L63.65 43.9L62.05 43.8L57.25 43.5L52.55 43.2L49.9 43.2Q47.55 43.4 47.55 44.6Q47.55 44.9 48.3 46.3L49.7 45.7L49.25 47.8L48.1 53.45L47.95 54.15Q47.3 55.35 46.15 55.85L41.55 56.25L41.35 56.25Q40.3 56.25 40.25 55.45L40.25 54.15L40.25 53.65L42 53.95L45.45 37.35L45.65 36.75L46.85 31.75L47.5 29.55L49 24.5L52.4 13.05L53.25 9.95L52.7 9.65L52.2 9.45L50.6 8.85L50.7 8.65M63.5,22.9Q61.5 18 57.3 16.35L55.9 15.95Q55.1 18.8 54.2 24.5L53.8 26.9Q53.6 27.95 53.55 28.95L61.9 30.75L62 30.75L66.05 31.55L64.15 24.5L63.5 22.9M67.45,36.85L68.3 35.25L68.1 34.15L68.1 33.85L64.15 33.85L62.45 34.25L60.2 34.45Q59.55 34.45 56.35 33.15Q53.25 31.85 52.95 31.85L51.95 31.95Q51.65 31.95 51.2 32.25L50.9 32.45L52.3 35.25L51.85 37.35L51.75 37.35L51.55 37.95L51.15 39.9L53.2 40.2L56.6 40.6L62.6 40.2L63.35 40.2L64.5 40.3L64.75 40.3L67.1 40.6L68.8 40.9L67.7 37.35L67.65 37.35L67.45 36.85M68.65,32.05L69.15 32.25L69.3 32.25Q69.15 32.05 68.65 32.05M68.35,91.2Q68.35 90.6 68.8 89.7L69 89.3Q69.1 88.6 69.65 88.2Q70.1 87.8 70.85 87.5Q72.1 87.5 73.3 88.2Q74.7 89 74.7 90.3Q74.7 91.5 73.6 92.8Q72.45 94.25 71.15 94.25Q69.85 94.25 69 93.25Q68.35 92.3 68.35 91.2M-71.3,37.75L-71.3 38.15Q-71.1 38.15 -70.85 37.75L-65.95 38.05L-63.2 38.15L-61.25 38.15L-55.6 37.65L-52.75 37.35L-49.8 37.2L-48.35 37.15L-48.15 37.15L-43.1 37.35L-39.9 37.95Q-35.75 39.3 -35.7 43.1Q-35.7 48.6 -37.05 49.85Q-38.25 50.95 -43.6 50.85L-44.45 50.85L-49.55 50.95L-59.7 51.45L-65.6 51.35L-72.1 51.15L-76.6 50.85L-85.9 50.2L-92.1 49.9L-93.05 49.8L-109.05 49.5L-109.6 49.5L-114.1 49.8Q-117 49.8 -117.3 48.35Q-117.7 46.75 -117.5 44.15L-117.4 42.25L-117.3 41.15L-117.3 39.85L-117.45 37.2Q-117.35 35.9 -115.45 35.9L-112.5 36L-112.2 36L-107.1 36.2L-90.45 36.8L-88.5 36.8L-86.05 37L-71.3 37.75" />
<path style="fill:#EE856B;fill-opacity:1" d="M117.95,-62.45L117.4 -63.85L117.2 -64.45Q116.25 -67.55 115.05 -68.15L111.75 -69.45L109.85 -70.95L110.35 -71.8L110.7 -72.5L111.1 -73.2L112.15 -73.3Q120 -70.45 120 -67.35Q120 -65.75 119.2 -64.15L118.6 -63.05L117.95 -62.45M125.15,3.95L125.55 5.6L122.6 5.6L122.25 4.15L120.35 -2.2L117.55 -11.2L117.35 -11.2L117.15 -11.7L116.95 -12.5L113.3 -24.05L112.45 -26.95Q111.5 -30.6 109.25 -33.1Q112 -31.5 115.1 -28.5L117.8 -25.65L118.3 -24.45L118.4 -24.05L121.65 -11.2L121.6 -11.2L121.95 -9.8L123.65 -2.2L125.15 3.95M71.65,-15.25L71.5 -15.85Q70.55 -19 69.3 -19.6Q67.45 -20.2 66.05 -20.9Q64.8 -21.6 64.15 -22.4L64.6 -23.2L65 -23.9L65.35 -24.6L66.4 -24.7Q74.3 -21.9 74.3 -18.8Q74.3 -17.2 73.45 -15.55L72.9 -14.55L72.25 -13.85L71.65 -15.25M60.4,3.9L59 5.55L58.5 4.6L57.65 1.3L57.1 -0.1Q55.8 -1.15 54.45 -2.25L54.2 -2.4Q53.05 -2.9 53.05 -4.9L53.15 -5.75Q53.8 -6.35 54.45 -6.35Q55.4 -6.35 59 -3.9L61.15 -2.25Q62.55 -1.05 62.55 -0.5Q62.55 0.8 60.65 3.6L60.4 3.9M106.1,-44.65L104.7 -43.05L104.25 -43.95L103.4 -47.25L102.8 -48.65Q101.8 -50.1 99.9 -51Q98.8 -51.5 98.8 -53.5L98.9 -54.3Q99.55 -54.9 100.2 -54.9Q101.15 -54.9 104.7 -52.5Q108.25 -50 108.25 -49.05Q108.25 -47.75 106.4 -44.95L106.1 -44.65M72.05,22.9L72.4 24.1L72.6 24.5L74.75 32.55L75.9 37.35L76.35 39.5L79.7 54L80 54.9L77.05 54.85L76.8 53.95Q74.35 45.2 71.65 37.35L71.55 37.35L71.4 36.85L71.4 36.75L70.25 33.55L67.55 24.5L66.7 21.6Q65.75 18 63.5 15.45Q66.2 17.1 69.3 20.1L72.05 22.9" />
<path style="fill:#6699CC;fill-opacity:1" d="M127.65,-57.2Q130.85 -58.35 134.05 -57.25L136.45 -56.45Q139.4 -54.45 142.4 -52.55L139.3 -47.4Q138.15 -45.8 136.45 -45.6L135.05 -45.6Q132.7 -46.1 130.95 -47.4Q132.25 -49.65 131.7 -52.05L131 -54.25Q129.9 -56.4 127.65 -57.2M110.6,-40.45L109.95 -42.35L111.3 -41.55Q112.2 -40.95 113.15 -40.45L113.9 -39.95Q117.25 -37.3 121.6 -37.2Q122.25 -37.1 123 -37.5Q123.95 -38.1 124.5 -38.95L126.05 -41.15L130.4 -35.8L129.4 -35L126.75 -32.6Q125.55 -31.4 124.1 -30.7L121.85 -30.8Q118.75 -33.5 115.2 -35.2L112.25 -35.7L110.6 -40.45M65.75,10.75L64.9 8.05L64.25 6.25L65.45 7.05L67.45 8.15L68.2 8.65Q69.5 9.75 71.1 10.35Q73.25 11.25 75.8 11.35L77.2 11.05L77.95 10.55L78.7 9.7L80.3 7.5L83.05 10.8L84.65 12.8L83.6 13.6L80.95 16Q79.75 17.25 78.35 17.95L76.1 17.8Q73 15.05 69.4 13.35Q68 12.85 66.5 12.85L65.75 10.75M85.95,1.65L85.2 1.15Q86.15 -0.5 86.1 -2.25L85.95 -3.45L85.2 -5.7Q84.15 -7.8 81.9 -8.6L87.55 -8.9L88.3 -8.7L90.2 -8.1L90.65 -7.9L93.95 -5.7L96.6 -3.95L96.4 -3.45L95.7 -2.25L94.6 -0.55L93.45 1.15Q92.45 2.75 90.75 2.95L89.25 2.95L88 2.65Q86.9 2.25 85.95 1.65" />
<path style="fill:#9BC1E7;fill-opacity:1" d="M123.7,-59.8L131.7 -61.2Q132.7 -61.4 133.65 -61.2L139.75 -57.55L143.05 -55.65L143.25 -55.35L143.7 -54.75L143.05 -55.05L143.7 -54.65L142.4 -52.55Q139.4 -54.45 136.45 -56.45L134.05 -57.25Q130.85 -58.35 127.65 -57.2L123.7 -59.8M112.25,-35.7L115.2 -35.2Q118.75 -33.5 121.85 -30.8L124.1 -30.7Q125.55 -31.4 126.75 -32.6L129.4 -35L130.4 -35.8L131.05 -34.15L124.5 -25.25Q122.8 -25.05 121.3 -26.15Q120 -26.85 118.75 -28.1L116.4 -29.5Q115 -30.6 113.95 -32.2Q113 -33.8 112.35 -35.4L112.25 -35.7M88.5,-12.2L90.85 -10.9L94.05 -9L97.35 -7.1L97.5 -6.8L98 -6.2L97.35 -6.5L98 -6.1L96.6 -3.95L93.95 -5.7L90.65 -7.9L90.2 -8.1L88.3 -8.7L87.55 -8.9L81.9 -8.6L77.95 -11.25L85.95 -12.6Q86.9 -12.8 87.95 -12.6L88.3 -12.4L88.5 -12.2M68.2,16.35Q67.25 14.75 66.6 13.15L66.5 12.85Q68 12.85 69.4 13.35Q73 15.05 76.1 17.8L78.35 17.95Q79.75 17.25 80.95 16L83.6 13.6L84.65 12.8L85.3 14.4L78.7 23.35Q77 23.5 75.5 22.4Q74.2 21.7 73 20.5Q71.65 19.9 70.65 19.1Q69.2 18 68.2 16.35" />
<path style="fill:#ACC9E7;fill-opacity:1" d="M154.6,-53.05L149.45 -49.35Q147.45 -47.9 146.35 -47.6L147.85 -52.05Q150.8 -58.45 157.9 -60.85L161.1 -56.35Q157.75 -55.1 154.6 -53.05M117.9,4.35L118.1 5.15L121.5 5.6L122.6 5.6L125.55 5.6L125.15 3.95Q131 3.7 137.55 3.7Q152.05 3.6 170.15 4.6L177.9 4.7L177.35 13.45L146.4 12.75L110.65 11.9L90.95 11.2L83.05 10.8L80.3 7.5L82.75 4.75L85.75 4.75L85.75 6.2Q85.85 7 86.9 7L87.1 7L91.7 6.6Q92.8 6.1 93.45 4.75Q109.15 4.65 117.9 4.35M63.75,11.05L63 10.45L64.9 8.05L65.75 10.75L63.75 11.05M52.3,5.75Q51.55 6.75 50.7 8.65L50.6 8.85L48.9 13.45L47.7 13.45L41.8 12.85Q45.9 7.65 52.3 5.75" />
<path style="fill:#8CAAC9;fill-opacity:1" d="M138.7,-2.2Q140.85 -14.1 143.4 -31.65Q144.85 -42 146.35 -47.6Q147.45 -47.9 149.45 -49.35L154.6 -53.05Q157.75 -55.1 161.1 -56.35Q177.9 -31.35 177.95 1L177.9 4.7L170.15 4.6Q152.05 3.6 137.55 3.7L138.7 -2.2M83.05,10.8L90.95 11.2L110.65 11.9L146.4 12.75L177.35 13.45Q175.65 29.3 169.5 43.25Q158.85 46.7 153.1 46.7L150.65 46.6L148.8 47L142.6 46.7L138.45 45.6L137.4 45.1L131.4 44.6L124 44.05L121.35 44.55L118.6 45.05Q117.85 45.05 111.1 42.55L111 42.65Q106.85 46.25 103.6 46.55L97.4 46.25L93.25 45.15L90.9 43.75L88.55 41.25Q87.25 39.75 86.8 37.5Q86.4 35.9 86.4 33.4Q81.9 32 80.5 32L74.75 32.55L72.6 24.5L72.4 24.1L72.05 22.9L70.8 19.6L70.65 19.1Q71.65 19.9 73 20.5Q74.2 21.7 75.5 22.4Q77 23.5 78.7 23.35L85.3 14.4L84.65 12.8L83.05 10.8M153.7,-28.75L156.35 -28.65L159.65 -28.85L159.85 -28.85Q160.1 -29.35 160.85 -29.35L161.8 -29.05L162.3 -29.05Q166.7 -29.05 170.35 -24L171.1 -22.9L171.75 -22.9Q172.45 -22.7 172.45 -22.2L172.15 -21.3Q173.85 -18 173.85 -14.65Q173.85 -12.55 172.7 -10.15L172.65 -10.1L172.6 -9.95L172.6 -9.85L172.45 -9.65L172.35 -9.55L171.3 -7.45Q171.3 -6.95 172.35 -5.85Q176 -9.45 176.1 -15.15Q176.2 -21.2 171.75 -26.2Q167.35 -31.15 163.05 -31.05Q158.8 -30.85 156.65 -30.15Q155.05 -29.55 153.7 -28.75M170.75,-16.15Q170.75 -19.9 168.3 -22.5Q165.75 -25 162.35 -25L157.75 -24.3Q156 -23.7 155.05 -22.8L154.55 -22.4L153.55 -20.2Q152.8 -19.7 152.15 -18.6Q151.1 -16.7 151.1 -14.65Q151.1 -10.65 154.1 -7.95Q157.1 -5.3 161.7 -5.3Q165.1 -5.3 167.45 -7.25Q170.1 -9.35 170.1 -12.75L170.1 -12.85Q170.75 -14.55 170.75 -16.15M156.8,38.7L156.65 38.9L156.55 39L155.55 41.1Q155.55 41.6 156.6 42.7Q160.2 39.1 160.3 33.35Q160.4 27.3 156 22.3Q151.55 17.4 147.25 17.5Q143 17.7 140.85 18.4Q139.25 19 137.95 19.8L140.55 19.9L143.85 19.7L144.05 19.7Q144.3 19.2 145.1 19.2Q145.75 19.2 146 19.5L146.5 19.5Q150.9 19.5 154.55 24.5L155.3 25.6L156 25.6Q156.65 25.8 156.65 26.3L156.35 27.2Q158.05 30.55 158.05 33.85Q158.05 36.05 156.8 38.6L156.8 38.7M136.35,29.95Q135.3 31.85 135.3 33.85Q135.3 37.85 138.35 40.6Q141.35 43.2 145.95 43.2Q149.35 43.2 151.7 41.3Q154.3 39.2 154.3 35.75L154.3 35.65Q154.95 33.95 154.95 32.35Q154.95 28.65 152.5 26Q149.95 23.5 146.6 23.5Q144.05 23.5 141.95 24.2Q140.2 24.8 139.25 25.7Q138.95 25.9 138.8 26.1Q138.1 27.3 137.75 28.35Q137 28.85 136.35 29.95M111.4,42.25Q115 38.65 115.1 32.9Q115.2 26.85 110.75 21.85Q106.35 16.95 102.05 17.05Q97.8 17.25 95.65 17.95Q94.05 18.55 92.7 19.35L95.35 19.45L98.65 19.25L98.85 19.25Q99.1 18.75 99.85 18.75Q100.5 18.75 100.8 19.05L101.25 19.05Q105.7 19.05 109.35 24.05L110.1 25.15L110.75 25.15Q111.45 25.35 111.45 25.85L111.15 26.75Q112.85 30.1 112.85 33.4Q112.85 35.5 111.7 37.9L111.65 37.95L111.6 38.1L111.6 38.2L111.45 38.45L111.35 38.55L110.35 40.65Q110.35 41.15 111.4 42.25M65.85,12.55L63.75 11.05L65.75 10.75L66.5 12.85L66.6 13.15L65.85 12.55M92.55,27.9Q91.8 28.4 91.1 29.5Q90.1 31.4 90.1 33.4L90.2 34.7Q90.55 37.8 93.15 40.15Q96.15 42.75 100.75 42.75Q104.15 42.75 106.5 40.85L106.6 40.85Q109.1 38.75 109.1 35.3L109.1 35.2Q109.75 33.5 109.75 31.9Q109.75 28.2 107.3 25.55Q104.75 23.05 101.35 23.05Q98.85 23.05 96.75 23.75Q95 24.35 94.05 25.25L93.55 25.65L92.55 27.9M64.15,24.5L66.05 31.55L62 30.75L61.9 30.75L53.55 28.95Q53.6 27.95 53.8 26.9L54.2 24.5Q55.1 18.8 55.9 15.95L57.3 16.35Q61.5 18 63.5 22.9L64.15 24.5M37.1,20.3L38.75 17.6Q40.1 14.95 41.8 12.85L47.7 13.45L48.9 13.45Q47.4 17.9 45.65 24.5L45.25 25.8L44.9 27.2L37.1 20.3M69.3,32.25L69.15 32.25L68.65 32.05Q69.15 32.05 69.3 32.25" />
<path style="fill:#B8462A;fill-opacity:1" d="M111.6,-36L112.35 -35.4Q113 -33.8 113.95 -32.2Q115 -30.6 116.4 -29.5L116.6 -29L115.1 -28.5Q112 -31.5 109.25 -33.1Q107.1 -35.4 103.9 -36.7L99.5 -38.45Q98.85 -39.25 98 -39.15L96.35 -39.95Q97.55 -42.55 98.5 -43.55L98.8 -43.75L98.95 -43.85Q101.8 -41.95 103.2 -41.95L103.55 -42.05L106.5 -39.95L108.8 -38.1L111.6 -36M88.3,-12.4L88.3 -12.5L88.6 -12.5Q89.55 -17.25 91.05 -22.75L91.4 -24.05Q94.25 -34.8 96.35 -39.75L98 -39.15L98.45 -38.95Q98.75 -38.75 99 -38.65L94.8 -24.05L92.65 -16.85L91.5 -12.5L91.2 -11.2L90.85 -11.2L90.85 -10.9L88.5 -12.2L88.3 -12.4M113,-12.3L108.5 -12.6L105.9 -12.7L98.1 -13.3L96.65 -16.1Q97.35 -16.65 97.7 -16.65L98.75 -16.75L102.1 -15.4Q105.3 -14.1 105.95 -14.1L108.3 -14.3L109.9 -14.7L113.85 -14.7L114.05 -13.3L113.7 -12.5L113.3 -11.9L113.2 -11.7L113 -12.3M109.35,-2.75L96.4 -3.45L96.6 -3.95L98 -6.1L98.1 -6.1L102.8 -5.8L107.55 -5.5L109.15 -5.35L111.9 -4.95L116.2 -4.05L115.75 -2.35L109.35 -2.75M88,2.65L87.55 4.65L85.75 4.35L85.95 1.65Q86.9 2.25 88 2.65M66.6,13.15Q67.25 14.75 68.2 16.35Q69.2 18 70.65 19.1L70.8 19.6L69.3 20.1Q66.2 17.1 63.5 15.45Q61.4 13.25 58.5 12.05L58.15 11.85L53.7 10.15Q53.05 9.35 52.2 9.45L50.7 8.65Q51.55 6.75 52.3 5.75L52.75 5L53.05 4.8L53.25 4.7Q56.05 6.65 57.45 6.65L57.85 6.55L60.75 8.65L63 10.45L63.75 11.05L65.85 12.55L66.6 13.15M42.6,37.35L42.55 37.35Q43.45 32.75 44.9 27.2L45.25 25.8L45.65 24.5Q47.4 17.9 48.9 13.45L50.6 8.85L52.2 9.45L52.7 9.65L53.25 9.95L52.4 13.05L49 24.5L47.5 29.55L46.85 31.75L45.65 36.75L45.45 37.35L42 53.95L40.25 53.65Q40.25 48.2 42.6 37.35M63.8,46.5L49.7 45.7L48.3 46.3Q47.55 44.9 47.55 44.6Q47.55 43.4 49.9 43.2L52.55 43.2L57.25 43.5L62.05 43.8L63.65 43.9L66.35 44.3L70.7 45.2L70.2 46.9L63.8 46.5M50.9,32.45L51.2 32.25Q51.65 31.95 51.95 31.95L52.95 31.85Q53.25 31.85 56.35 33.15Q59.55 34.45 60.2 34.45L62.45 34.25L64.15 33.85L68.1 33.85L68.1 34.15L68.3 35.25L67.45 36.85L67.25 36.25L62.75 35.95L60.1 35.85L52.3 35.25L50.9 32.45" />
<linearGradient
id="LinearGradID_20" gradientUnits="userSpaceOnUse" gradientTransform="matrix(-0.000579834, 0.0855255, -0.0820923, -0.00106812, 2.15, 64.55)" spreadMethod ="pad" x1="-819.2" y1="0" x2="819.2" y2="0" >
<stop  offset="0" style="stop-color:#BAE7BF;stop-opacity:1" />
<stop  offset="1" style="stop-color:#61B46A;stop-opacity:1" />
</linearGradient>
<path style="fill:url(#LinearGradID_20) " d="M137.55,3.7Q131 3.7 125.15 3.95L123.65 -2.2L138.7 -2.2L137.55 3.7M-129.05,9.55Q-130.95 12.25 -130.95 13.05Q-130.95 14.15 -127.3 14.95L-123.25 15.75L-123.15 16.05Q-120.9 21.05 -118.9 24.25Q-115.25 32.05 -112.5 36L-115.45 35.9Q-117.35 35.9 -117.45 37.2L-117.3 39.85L-117.3 41.15L-117.4 42.25L-117.5 44.15Q-117.7 46.75 -117.3 48.35Q-117 49.8 -114.1 49.8L-114.2 54.4L-109.3 54.4L-109.05 49.5L-93.05 49.8L-92.1 49.9L-92.2 54.1L-89.95 54.4L-85.9 54.4L-85.9 50.2L-76.6 50.85L-72.1 51.15L-72.1 53.75L-71.55 55.05L-66.15 55.05L-65.9 52.55L-65.6 51.35L-59.7 51.45L-49.55 50.95L-49.7 54.85Q-49.7 56.15 -47.95 56.15Q-43.7 56.15 -43.6 50.85Q-38.25 50.95 -37.05 49.85Q-35.7 48.6 -35.7 43.1Q-35.75 39.3 -39.9 37.95L-43.1 37.35Q-42.9 35.05 -43.2 31.45L-43.25 30.4Q-35.3 22.45 -34.45 12.65Q-34.15 8.45 -32 0.7L-31.15 -2.35L50.85 -2.25L49.4 0.7Q49.2 1.7 52.5 4.2L53.05 4.6L53.05 4.8L52.75 5L52.3 5.75Q45.9 7.65 41.8 12.85Q40.1 14.95 38.75 17.6L37.1 20.3Q35.85 22.4 34.75 24.8Q33.2 28.35 27.55 44.8Q25.65 50.2 23.85 54L15.4 55Q12.8 56.1 12.4 63.35Q12.15 66.95 12.4 71.4L12.45 73L11.95 72.5L6.65 66.65L3.55 63.55L1.7 61.55Q-1.95 66.15 -6.1 70.45Q-34.6 100.15 -74.9 100.15Q-115.25 100.1 -143.7 70.3Q-172.2 40.7 -172.25 -1.4L-172.25 -2.5L-135.4 -2.5L-131.25 -2.1L-130.45 -0.4L-129.95 1L-127.3 6.95L-129.05 9.55M85.2,1.15L85.95 1.65L85.75 4.35L85.75 4.75L82.75 4.75L82.85 4.65L85.2 1.15M93.45,4.75L93.65 4.15L94.6 -0.55L95.7 -2.25L116.15 -2.2L117.9 4.35Q109.15 4.65 93.45 4.75M-110.05,4.35L-114.3 1.55L-113.7 -2.45L-109.85 -2.45L-110.05 4.35M-104.95,-2.45L-91.2 -2.45L-91.3 5.4L-91.25 10.85Q-98.65 9.95 -105.5 6.8L-104.95 -2.45M-85.35,11.2L-85.05 -2.45L-77.2 -2.4L-76 1.95Q-74.6 6.6 -72.35 8.9Q-79.3 11.2 -85.35 11.2M-52.05,-1.8L-55.6 0.6L-59.15 2.7Q-60 -0.3 -62 -2.4L-51.2 -2.35L-52.05 -1.8M-49.3,35.35L-48.35 34.7L-48.15 36.85L-48.15 37.15L-48.35 37.15L-49.8 37.2L-52.75 37.35L-49.3 35.35M-56.2,8.05Q-56.3 7.65 -55.6 7.35L-55.5 7.95L-55.5 9.65L-56.2 8.05" />
<path style="fill:#A4C2E0;fill-opacity:1" d="M156.65,-30.15Q158.8 -30.85 163.05 -31.05Q167.35 -31.15 171.75 -26.2Q176.2 -21.2 176.1 -15.15Q176 -9.45 172.35 -5.85Q171.3 -6.95 171.3 -7.45L172.35 -9.55L172.45 -9.65L172.6 -9.85L172.6 -9.95L172.65 -10.1L172.7 -10.15Q173.85 -12.55 173.85 -14.65Q173.85 -18 172.15 -21.3L172.45 -22.2Q172.45 -22.7 171.75 -22.9L171.1 -22.9L170.35 -24Q166.7 -29.05 162.3 -29.05L161.8 -29.05L160.85 -29.35Q160.1 -29.35 159.85 -28.85L159.65 -28.85L156.35 -28.65L153.7 -28.75Q155.05 -29.55 156.65 -30.15M152.9,-16.5L152.9 -15.85Q153.05 -11.15 155.9 -9.15Q158.8 -7.05 162.55 -7.05Q166.3 -7.05 168.55 -10.25L169.6 -11.85L170.1 -12.85L170.1 -12.75Q170.1 -9.35 167.45 -7.25Q165.1 -5.3 161.7 -5.3Q157.1 -5.3 154.1 -7.95Q151.1 -10.65 151.1 -14.65Q151.1 -16.7 152.15 -18.6Q152.8 -19.7 153.55 -20.2Q152.9 -18.3 152.9 -16.5M156.8,38.6Q158.05 36.05 158.05 33.85Q158.05 30.55 156.35 27.2L156.65 26.3Q156.65 25.8 156 25.6L155.3 25.6L154.55 24.5Q150.9 19.5 146.5 19.5L146 19.5Q145.75 19.2 145.1 19.2Q144.3 19.2 144.05 19.7L143.85 19.7L140.55 19.9L137.95 19.8Q139.25 19 140.85 18.4Q143 17.7 147.25 17.5Q151.55 17.4 156 22.3Q160.4 27.3 160.3 33.35Q160.2 39.1 156.6 42.7Q155.55 41.6 155.55 41.1L156.55 39L156.65 38.9L156.8 38.7L156.8 38.6M140.1,39.4Q143.05 41.5 146.8 41.5Q150.6 41.5 152.8 38.25L153.8 36.65L154.3 35.65L154.3 35.75Q154.3 39.2 151.7 41.3Q149.35 43.2 145.95 43.2Q141.35 43.2 138.35 40.6Q135.3 37.85 135.3 33.85Q135.3 31.85 136.35 29.95Q137 28.85 137.75 28.35Q137.1 30.25 137.1 32.05L137.1 32.65Q137.25 37.35 140.1 39.4M110.35,40.65L111.35 38.55L111.45 38.45L111.6 38.2L111.6 38.1L111.65 37.95L111.7 37.9Q112.85 35.5 112.85 33.4Q112.85 30.1 111.15 26.75L111.45 25.85Q111.45 25.35 110.75 25.15L110.1 25.15L109.35 24.05Q105.7 19.05 101.25 19.05L100.8 19.05Q100.5 18.75 99.85 18.75Q99.1 18.75 98.85 19.25L98.65 19.25L95.35 19.45L92.7 19.35Q94.05 18.55 95.65 17.95Q97.8 17.25 102.05 17.05Q106.35 16.95 110.75 21.85Q115.2 26.85 115.1 32.9Q115 38.65 111.4 42.25Q110.35 41.15 110.35 40.65M109.1,35.2L109.1 35.3Q109.1 38.75 106.6 40.85L106.5 40.85Q104.15 42.75 100.75 42.75Q96.15 42.75 93.15 40.15Q90.55 37.8 90.2 34.7L90.1 33.4Q90.1 31.4 91.1 29.5Q91.8 28.4 92.55 27.9Q91.9 29.8 91.9 31.6L91.9 32.2Q91.95 34 92.45 35.5Q93.2 37.7 94.9 38.95Q97.85 41.05 101.6 41.05Q103.5 41.05 105 40.25Q106.45 39.45 107.55 37.8L108.6 36.2L109.1 35.2" />
<path style="fill:#232121;fill-opacity:1" d="M152.9,-15.85L152.9 -16.5Q152.9 -18.3 153.55 -20.2L154.55 -22.4L155.05 -22.8Q156 -23.7 157.75 -24.3L162.35 -25Q165.75 -25 168.3 -22.5Q170.75 -19.9 170.75 -16.15Q170.75 -14.55 170.1 -12.85L169.6 -11.85Q159.65 -9.15 152.9 -15.85M165.4,-19.1Q166.8 -19.1 166.8 -20.5Q166.8 -21.8 165 -22.4Q163.3 -23 163.3 -21.9Q163.4 -21.2 163.8 -20.5Q164.35 -19.1 165.4 -19.1M166.7,-17.5Q167 -16.9 167.55 -16.9Q168 -16.9 168.2 -17.2L168.3 -17.9Q168.3 -19 167.45 -19Q166.6 -19 166.6 -17.9L166.7 -17.5M153.8,36.65Q143.85 39.4 137.1 32.65L137.1 32.05Q137.1 30.25 137.75 28.35Q138.1 27.3 138.8 26.1Q138.95 25.9 139.25 25.7Q140.2 24.8 141.95 24.2Q144.05 23.5 146.6 23.5Q149.95 23.5 152.5 26Q154.95 28.65 154.95 32.35Q154.95 33.95 154.3 35.65L153.8 36.65M152.5,30.65Q152.5 29.55 151.65 29.55Q150.8 29.55 150.8 30.65L150.9 31.05Q151.2 31.65 151.75 31.65L152.4 31.35L152.5 30.65M151,28.05Q151 26.7 149.2 26.1Q147.5 25.5 147.5 26.6Q147.6 27.3 148 28.05Q148.55 29.45 149.6 29.45Q151 29.45 151 28.05M93.55,25.65L94.05 25.25Q95 24.35 96.75 23.75Q98.85 23.05 101.35 23.05Q104.75 23.05 107.3 25.55Q109.75 28.2 109.75 31.9Q109.75 33.5 109.1 35.2L108.6 36.2Q98.65 38.95 91.9 32.2L91.9 31.6Q91.9 29.8 92.55 27.9L93.55 25.65M106.45,29.1Q105.6 29.1 105.6 30.2L105.7 30.6Q105.95 31.2 106.55 31.2L107.2 30.9L107.3 30.2Q107.3 29.1 106.45 29.1M104.4,29Q105.8 29 105.8 27.6Q105.8 26.25 104 25.65Q102.3 25.05 102.3 26.15Q102.4 26.85 102.8 27.6Q103.35 29 104.4 29" />
<path style="fill:#333333;fill-opacity:1" d="M169.6,-11.85L168.55 -10.25Q166.3 -7.05 162.55 -7.05Q158.8 -7.05 155.9 -9.15Q153.05 -11.15 152.9 -15.85Q159.65 -9.15 169.6 -11.85M137.1,32.65Q143.85 39.4 153.8 36.65L152.8 38.25Q150.6 41.5 146.8 41.5Q143.05 41.5 140.1 39.4Q137.25 37.35 137.1 32.65M108.6,36.2L107.55 37.8Q106.45 39.45 105 40.25Q103.5 41.05 101.6 41.05Q97.85 41.05 94.9 38.95Q93.2 37.7 92.45 35.5Q91.95 34 91.9 32.2Q98.65 38.95 108.6 36.2" />
<path style="fill:#A39C9C;fill-opacity:1" d="M163.8,-20.5Q163.4 -21.2 163.3 -21.9Q163.3 -23 165 -22.4Q166.8 -21.8 166.8 -20.5Q166.8 -19.1 165.4 -19.1Q164.35 -19.1 163.8 -20.5M166.6,-17.9Q166.6 -19 167.45 -19Q168.3 -19 168.3 -17.9L168.2 -17.2Q168 -16.9 167.55 -16.9Q167 -16.9 166.7 -17.5L166.6 -17.9M152.4,31.35L151.75 31.65Q151.2 31.65 150.9 31.05L150.8 30.65Q150.8 29.55 151.65 29.55Q152.5 29.55 152.5 30.65L152.4 31.35M149.6,29.45Q148.55 29.45 148 28.05Q147.6 27.3 147.5 26.6Q147.5 25.5 149.2 26.1Q151 26.7 151 28.05Q151 29.45 149.6 29.45M107.3,30.2L107.2 30.9L106.55 31.2Q105.95 31.2 105.7 30.6L105.6 30.2Q105.6 29.1 106.45 29.1Q107.3 29.1 107.3 30.2M102.8,27.6Q102.4 26.85 102.3 26.15Q102.3 25.05 104 25.65Q105.8 26.25 105.8 27.6Q105.8 29 104.4 29Q103.35 29 102.8 27.6" />
<path style="fill:#FFC433;fill-opacity:1" d="M-79.3,-31.7L-79.2 -32.8L-79.8 -41.05Q-79.8 -43.35 -79.5 -43.85Q-79.05 -44.65 -77.35 -44.6L-77.25 -44.6L-76.7 -44.5L-76.7 -44.6L-76.35 -65.6L-76.35 -81.65L-76.35 -102.75L-75 -102.75L-72.7 -102.7Q-72.6 -97.55 -72.85 -87.5L-72.95 -81.65Q-73.25 -77.75 -73.15 -73.45L-73.05 -64.9L-73.05 -57.75L-73.4 -48.8L-73.8 -42.3L-71.35 -42.4L-71.15 -41.2Q-72.4 -34.15 -72.4 -31.25L-74.95 -31.35L-78.65 -31.7L-79.3 -31.7M-74.2,-39.7Q-73.9 -40.4 -73.8 -42.3L-74.55 -42.3Q-74.25 -41.2 -74.2 -39.7" />
<path style="fill:#84CCE5;fill-opacity:1" d="M-135.4,-2.5Q-140.55 -3.05 -142.35 -3.7Q-148.45 -5.95 -152.3 -12.35L-135.95 -17.9Q-134.95 -21.2 -133 -24.7Q-130.25 -29.55 -127.8 -29.55Q-127 -29.55 -126.1 -28.55Q-125.05 -27.3 -125.05 -25.7Q-125.05 -23.6 -126 -18.9Q-127.1 -14.05 -127.1 -12.45Q-127.1 -10.35 -126.9 -9.75Q-130.65 -13.25 -132.5 -13.25L-133.1 -13.15Q-134.2 -12.75 -134.2 -10.45Q-134.2 -7.85 -132.4 -4.3L-131.4 -2.5L-131.25 -2.1L-135.4 -2.5M-114.3,1.55L-117.55 -0.95L-119.15 -2.45L-120.6 -3.85Q-116.25 -6.6 -115.4 -6.6Q-113.6 -6.6 -113.7 -2.75L-113.7 -2.45L-114.3 1.55M-72.05,8.8L-72.35 8.9Q-74.6 6.6 -76 1.95L-77.2 -2.4L-78.95 -8.7L-76.7 -8.7L-68.9 -6.15L-69.5 1.9L-70 8.05L-72.05 8.8M-59.15,2.7L-64.3 5.5L-63.6 -3.75L-62 -2.4Q-60 -0.3 -59.15 2.7M-123.25,15.75L-127.3 14.95Q-130.95 14.15 -130.95 13.05Q-130.95 12.25 -129.05 9.55L-127.3 6.95L-124.95 12.15L-123.25 15.75M-52.75,37.35L-55.6 37.65L-61.25 38.15L-63.2 38.15L-63.7 36.85Q-63.7 34.95 -60.25 32.75L-57.9 31.25L-56 29.75L-48.75 24.5L-48.55 31.55L-49.3 35.35L-52.75 37.35" />
<path style="fill:#A4A4E2;fill-opacity:1" d="M-43.2,16.45L-42.35 4.3L-41.4 -9.7L-39.95 -10.85Q-34.65 -14.95 -33.55 -14.95Q-29.9 -14.95 -29.9 -9.25Q-29.9 -7.15 -31.15 -2.35L-32 0.7Q-34.15 8.45 -34.45 12.65L-43.2 16.45M-119.15,-2.45L-117.55 -0.95L-114.3 1.55L-110.05 4.35L-110.25 8.15Q-110.65 8.35 -111.15 8.9Q-113.5 11.3 -113.6 15.9Q-118.45 11.8 -122.05 6.2L-126.65 -2.5L-129.35 -7.85Q-131.35 -11.65 -133.1 -13.15L-132.5 -13.25Q-130.65 -13.25 -126.9 -9.75L-126.5 -9.45L-120.6 -3.85L-119.15 -2.45M-48.7,2.25L-50.3 2.1Q-52.35 2.1 -53.95 3.5Q-55.6 4.8 -55.6 6.75L-55.6 7.35Q-56.3 7.65 -56.2 8.05L-55.5 9.65L-55.3 9.85Q-54.05 11.55 -52.65 11.55Q-50.5 11.55 -48.8 9.1L-48.85 15.85L-48.85 18.95Q-57.55 22.7 -65.75 24.55L-64.9 12.85L-64.3 5.5L-59.15 2.7L-55.6 0.6L-52.05 -1.8L-51.2 -2.35L-48.4 -4.4L-48.7 2.25M-72.35,8.9L-72.05 8.8L-70 8.05L-70.4 12.95L-71.35 13.7Q-71.35 16.85 -71.85 23.35L-71.85 25.65L-81.7 26.35L-85.75 26.25L-85.35 11.2Q-79.3 11.2 -72.35 8.9M-91.45,12.7Q-91.45 14.9 -91.95 17.95L-92.45 22.35Q-92.65 23.95 -92.45 25.45Q-100.05 24.15 -106.2 20.95L-105.6 8.5L-105.5 6.8Q-98.65 9.95 -91.25 10.85L-91.25 12.75L-91.45 12.7" />
<path style="fill:#8787C2;fill-opacity:1" d="M-112.5,36Q-115.25 32.05 -118.9 24.25Q-120.9 21.05 -123.15 16.05L-123.25 15.75L-124.95 12.15L-127.3 6.95L-129.95 1L-130.45 -0.4L-131.25 -2.1L-131.4 -2.5L-132.4 -4.3Q-134.2 -7.85 -134.2 -10.45Q-134.2 -12.75 -133.1 -13.15Q-131.35 -11.65 -129.35 -7.85L-126.65 -2.5L-122.05 6.2Q-118.45 11.8 -113.6 15.9Q-113.5 11.3 -111.15 8.9Q-110.65 8.35 -110.25 8.15L-110.3 9L-112.2 36L-112.5 36M-34.45,12.65Q-35.3 22.45 -43.25 30.4L-43.65 24.2L-43.2 16.45L-34.45 12.65M-48.85,18.95L-48.75 24.5L-56 29.75L-57.9 31.25L-60.25 32.75Q-63.7 34.95 -63.7 36.85L-63.2 38.15L-65.95 38.05Q-66.25 33.3 -65.75 24.55Q-57.55 22.7 -48.85 18.95M-49.3,35.35L-48.55 31.55L-48.35 34.7L-49.3 35.35M-86.05,37L-85.75 26.25L-81.7 26.35L-71.85 25.65L-71.85 23.35Q-71.35 16.85 -71.35 13.7L-70.4 12.95L-71.3 23.6L-71.3 37.75L-70.85 37.75Q-71.1 38.15 -71.3 38.15L-71.3 37.75L-86.05 37M-106.2,20.95Q-100.05 24.15 -92.45 25.45Q-92.65 23.95 -92.45 22.35L-91.95 17.95Q-91.45 14.9 -91.45 12.7L-91.25 12.75L-91.2 19.75L-90.45 36.8L-107.1 36.2L-106.2 20.95" />
<path style="fill:#666666;fill-opacity:1" d="M-69.05,-30.95L-69.05 -35.45L-66.5 -35.45L-62.85 -34.95L-62.65 -30.65L-63.1 -30.65L-69.05 -30.95M-48.15,-30.05L-47.9 -32.65Q-47.6 -34.05 -47.6 -34.95L-44.9 -35.15Q-42.05 -35.15 -41.6 -33.95Q-41.2 -33.05 -41.6 -29.75L-41.7 -29.75L-46 -29.75L-48.15 -30.05M-48.4,-4.4L-48.15 -7.55L-48.15 -17.6L-41.15 -17.5L-41.15 -16.45L-41.4 -9.7L-42.35 4.3L-43.2 16.45L-43.65 24.2L-43.25 30.4L-43.2 31.45Q-42.9 35.05 -43.1 37.35L-48.15 37.15L-48.15 36.85L-48.35 34.7L-48.55 31.55L-48.75 24.5L-48.85 18.95L-48.85 15.85L-48.8 9.1L-48.75 5.45L-48.75 4.4L-48.7 2.25L-48.4 -4.4M-109.85,-2.45L-109.65 -16.3L-109.1 -20.75L-107.6 -20.75L-103.45 -20.55L-103.45 -18.95Q-104.3 -12.15 -104.95 -2.45L-105.5 6.8L-105.6 8.5L-106.2 20.95L-107.1 36.2L-112.2 36L-110.3 9L-110.25 8.15L-110.05 4.35L-109.85 -2.45M-109.35,-32.5L-108.9 -37.7L-104.55 -37.7L-101.55 -37.4L-101.45 -36.8Q-101.45 -36.2 -101.75 -35.5Q-102.15 -34.7 -102.15 -32.7L-109.2 -32.5L-109.35 -32.5M-89.45,-32.4Q-89.35 -33.4 -89.55 -34.9Q-89.55 -36.2 -89.05 -36.7L-83.5 -36.7Q-83.5 -34.4 -83.8 -33.4L-83.9 -32.1L-89.45 -32.4M-85.35,11.2L-85.75 26.25L-86.05 37L-88.5 36.8L-90.45 36.8L-91.2 19.75L-91.25 12.75L-91.25 10.85L-91.3 5.4L-91.2 -2.45Q-91.05 -12.55 -90.4 -20.15L-85 -19.95L-84.75 -19.95L-85.05 -2.45L-85.35 11.2M-64.9,12.85L-65.75 24.55Q-66.25 33.3 -65.95 38.05L-70.85 37.75L-71.3 37.75L-71.3 23.6L-70.4 12.95L-70 8.05L-69.5 1.9L-68.9 -6.15Q-68.55 -13.05 -68.5 -19L-62.75 -18.6Q-62.9 -13.3 -63.6 -3.75L-64.3 5.5L-64.9 12.85M-43.6,50.85Q-43.7 56.15 -47.95 56.15Q-49.7 56.15 -49.7 54.85L-49.55 50.95L-44.45 50.85L-43.6 50.85M-65.6,51.35L-65.9 52.55L-66.15 55.05L-71.55 55.05L-72.1 53.75L-72.1 51.15L-65.6 51.35M-85.9,50.2L-85.9 54.4L-89.95 54.4L-92.2 54.1L-92.1 49.9L-85.9 50.2M-109.05,49.5L-109.3 54.4L-114.2 54.4L-114.1 49.8L-109.6 49.5L-109.05 49.5" />
<path style="fill:#FFFFFF;fill-opacity:1" d="M211.9,124.9L-211.7 124.5L-211.9 -124.9L211.7 -124.5L211.9 124.9M195.5,-109.05L-196.15 -109.45L-196.05 108.35L195.6 108.75L195.5 -109.05M-52.65,11.55Q-54.05 11.55 -55.3 9.85L-55.5 9.65L-55.5 7.95L-55.6 7.35L-55.6 6.75Q-55.6 4.8 -53.95 3.5Q-52.35 2.1 -50.3 2.1L-48.7 2.25L-48.75 4.4Q-49 3 -50.4 3.1Q-52.15 3.1 -52.15 5L-52.05 6.85Q-52.05 7.15 -50.8 7.15Q-50 7.15 -49.3 6.35L-48.75 5.45L-48.8 9.1Q-50.5 11.55 -52.65 11.55" />
<path style="fill:#1E1E20;fill-opacity:1" d="M-48.75,4.4L-48.75 5.45L-49.3 6.35Q-50 7.15 -50.8 7.15Q-52.05 7.15 -52.05 6.85L-52.15 5Q-52.15 3.1 -50.4 3.1Q-49 3 -48.75 4.4" />
<path style="fill:#7592AF;fill-opacity:1" d="M86,53.9L79.7 54L76.35 39.5L75.9 37.35L74.75 32.55L80.5 32Q81.9 32 86.4 33.4Q86.4 35.9 86.8 37.5Q87.25 39.75 88.55 41.25L90.9 43.75L93.25 45.15L97.4 46.25L103.6 46.55Q106.85 46.25 111 42.65L111.1 42.55Q117.85 45.05 118.6 45.05L121.35 44.55L124 44.05L131.4 44.6L137.4 45.1L138.45 45.6L142.6 46.7L148.8 47L150.65 46.6L153.1 46.7Q158.85 46.7 169.5 43.25Q167.15 48.55 164.15 53.6L86 53.9M26.8,82.05L35.8 82.5L60.8 82.05L62.2 89.2Q63.35 95.05 65.05 98.55L79.8 98.6L81.95 88.05Q82.7 84.25 83.95 81.7L101.5 81.4L140.9 80.8Q115.1 102.3 80.75 102.3Q50.25 102.25 26.55 85.25L22.55 82.25L25.1 82.15L25.45 82L25.85 82L26.8 82.05M39.5,54.15Q31 53.55 23.85 54Q25.65 50.2 27.55 44.8Q33.2 28.35 34.75 24.8Q35.85 22.4 37.1 20.3L44.9 27.2Q43.45 32.75 42.55 37.35L42.6 37.35Q40.25 48.2 40.25 53.65L40.25 54.15L39.5 54.15M47.95,54.15L48.1 53.45L49.25 47.8L49.7 45.7L63.8 46.5L70.2 46.9L70.6 47L72.45 53.95L47.95 54.15M67.65,37.35L67.7 37.35L68.8 40.9L67.1 40.6L64.75 40.3L64.5 40.3L63.35 40.2L62.6 40.2L56.6 40.6L53.2 40.2L51.15 39.9L51.55 37.95L51.75 37.35L51.85 37.35L52.3 35.25L60.1 35.85L62.75 35.95L67.25 36.25L67.45 36.85L67.65 37.35" />
<path style="fill:#EC7254;fill-opacity:1" d="M72.45,53.95L72.55 54.45L75.95 54.85L77.05 54.85L80 54.9L79.7 54L86 53.9L164.15 53.6Q161.95 57.35 159.35 60.95L151.5 60.6L123.25 61.35L123.25 60.95L123.05 61.15Q120.6 60.35 91.95 60.55L90.6 60.55Q68.7 60.5 54.8 60.9L43.4 61.3Q34.85 61.8 20.2 63.95L15.4 64.75L15.4 55L23.85 54Q31 53.55 39.5 54.15L40.25 54.15L40.25 55.45Q40.3 56.25 41.35 56.25L41.55 56.25L46.15 55.85Q47.3 55.35 47.95 54.15L72.45 53.95" />
<path style="fill:#C44D30;fill-opacity:1" d="M25.85,82L25.45 82L25.1 82.15L22.55 82.25L22 81.8L17.25 77.7L27.35 76.25L36.75 74.75L45.85 73.45L64.2 71.25L80 72.6L88.35 73.3L98.2 74L99.9 74Q103.2 74 113.15 72.2Q122.95 70.45 132.6 70.5L141.35 71.35L150.1 72.05L150.15 72.05L149.55 72.65Q145.35 77.05 140.9 80.8L101.5 81.4L83.95 81.7Q82.7 84.25 81.95 88.05L79.8 98.6L65.05 98.55Q63.35 95.05 62.2 89.2L60.8 82.05L35.8 82.5L26.8 82.05L25.85 82M69,93.25Q69.85 94.25 71.15 94.25Q72.45 94.25 73.6 92.8Q74.7 91.5 74.7 90.3Q74.7 89 73.3 88.2Q72.1 87.5 70.85 87.5Q70.1 87.8 69.65 88.2Q69.1 88.6 69 89.3L68.8 89.7Q68.35 90.6 68.35 91.2Q68.35 92.3 69 93.25" />
<path style="fill:none;stroke-width:1;stroke-linecap:butt;stroke-linejoin:miter;stroke-miterlimit:3;stroke:#333333;stroke-opacity:1" d="M90.6,-57.6L90.4 -57.8Q82.8 -63.05 79.25 -71.9L77.35 -77.15L77.35 -77.95L77.55 -77.95Q95.2 -78.8 101.5 -73.9L101.6 -74L108.95 -69.25L109.4 -70.15L109.85 -70.95L110.35 -71.8L110.7 -72.5L111.1 -73.2L112.15 -73.3Q120 -70.45 120 -67.35Q120 -65.75 119.2 -64.15L118.6 -63.05L123.7 -59.8L131.7 -61.2Q132.7 -61.4 133.65 -61.2L139.75 -57.55L143.05 -55.65L143.25 -55.35L143.7 -54.75M143.7,-54.65L142.4 -52.55L139.3 -47.4Q138.15 -45.8 136.45 -45.6L135.05 -45.6Q132.7 -46.1 130.95 -47.4L128.6 -43.95L126.05 -41.15L130.4 -35.8L131.05 -34.15L124.5 -25.25Q122.8 -25.05 121.3 -26.15Q120 -26.85 118.75 -28.1L116.4 -29.5L116.6 -29L117.8 -25.65L118.3 -24.45L118.4 -24.05L121.65 -11.2M121.6,-11.2L121.95 -9.8L123.65 -2.2M137.55,3.7L138.7 -2.2Q140.85 -14.1 143.4 -31.65Q144.85 -42 146.35 -47.6L147.85 -52.05Q150.8 -58.45 157.9 -60.85M-72.7,-102.7Q-72.6 -97.55 -72.85 -87.5L-72.95 -81.65Q-73.25 -77.75 -73.15 -73.45L-73.05 -64.9L-73.05 -57.75L-73.4 -48.8L-73.8 -42.3L-71.35 -42.4L-71.15 -41.2Q-72.4 -34.15 -72.4 -31.25L-69.05 -30.95L-69.05 -35.45L-66.5 -35.45L-62.85 -34.95L-62.65 -30.65L-62.55 -30.65L-48.15 -30.05L-47.9 -32.65Q-47.6 -34.05 -47.6 -34.95L-44.9 -35.15Q-42.05 -35.15 -41.6 -33.95Q-41.2 -33.05 -41.6 -29.75L-36.8 -29.75Q-33.8 -29.75 -33.8 -24.3Q-33.8 -19.9 -34.35 -18.9Q-35.2 -17.5 -39.05 -17.5L-41.15 -17.5M-41.15,-16.45L-41.4 -9.7L-39.95 -10.85Q-34.65 -14.95 -33.55 -14.95Q-29.9 -14.95 -29.9 -9.25Q-29.9 -7.15 -31.15 -2.35L-32 0.7Q-34.15 8.45 -34.45 12.65Q-35.3 22.45 -43.25 30.4L-43.2 31.45Q-42.9 35.05 -43.1 37.35L-39.9 37.95Q-35.75 39.3 -35.7 43.1Q-35.7 48.6 -37.05 49.85Q-38.25 50.95 -43.6 50.85Q-43.7 56.15 -47.95 56.15Q-49.7 56.15 -49.7 54.85L-49.55 50.95L-59.7 51.45L-65.6 51.35M53.05,4.6L52.5 4.2Q49.2 1.7 49.4 0.7L50.85 -2.25L51.2 -2.9L51.45 -3.3L44.5 -8.55M44.9,-9.05L44.7 -9.25Q37.15 -14.45 33.5 -23.3Q32.55 -25.7 31.7 -28.55L31.65 -29.35L31.8 -29.35Q49.5 -30.25 55.8 -25.3L55.9 -25.4L63.2 -20.7L63.7 -21.6L64.15 -22.4L64.6 -23.2L65 -23.9L65.35 -24.6L66.4 -24.7Q74.3 -21.9 74.3 -18.8Q74.3 -17.2 73.45 -15.55L72.9 -14.55L77.95 -11.25L85.95 -12.6Q86.9 -12.8 87.95 -12.6L88.3 -12.4L88.3 -12.5L88.6 -12.5Q89.55 -17.25 91.05 -22.75L91.4 -24.05Q94.25 -34.8 96.35 -39.75L96.35 -39.95Q97.55 -42.55 98.5 -43.55L98.8 -43.75L98.8 -43.95L98.2 -44.35Q94.95 -46.85 95.1 -47.85L96.8 -51.5L97.1 -52L90.25 -57.1M44.7,-9.25L50.05 -17.2L52.1 -20L53.7 -22.3L55.8 -25.3M51.45,-3.3Q52.3 -5 53.15 -5.75Q53.8 -6.35 54.45 -6.35Q55.4 -6.35 59 -3.9L61.15 -2.25Q62.55 -1.05 62.55 -0.5Q62.55 0.8 60.65 3.6L64.25 6.25L65.45 7.05L67.45 8.15L68.2 8.65Q69.5 9.75 71.1 10.35Q73.25 11.25 75.8 11.35L77.2 11.05L77.95 10.55L78.7 9.7L80.3 7.5L82.75 4.75L82.85 4.65L85.2 1.15L85.95 1.65L85.75 4.35L85.75 4.75L85.75 6.2Q85.85 7 86.9 7L87.1 7L91.7 6.6Q92.8 6.1 93.45 4.75L93.65 4.15L94.6 -0.55L95.7 -2.25L96.4 -3.45L96.6 -3.95L98 -6.1M59,5.55L60.4 3.9L60.65 3.6M72.25,-13.85L72.9 -14.55M72.25,-13.85Q71.5 -13.35 70.65 -13.35Q62.55 -16.35 62.55 -18.8Q62.55 -19.3 63.2 -20.7M130.95,-47.4Q132.25 -49.65 131.7 -52.05L131 -54.25Q129.9 -56.4 127.65 -57.2L123.7 -59.8M97.75,-68.55L95.75 -65.75L90.4 -57.8M97.75,-68.55L99.45 -70.85L101.5 -73.9M104.7,-43.05L106.1 -44.65L106.4 -44.95Q108.25 -47.75 108.25 -49.05Q108.25 -50 104.7 -52.5Q101.15 -54.9 100.2 -54.9Q99.55 -54.9 98.9 -54.3Q98.05 -53.6 97.1 -52M106.4,-44.95L109.95 -42.35L111.3 -41.55Q112.2 -40.95 113.15 -40.45L113.9 -39.95Q117.25 -37.3 121.6 -37.2Q122.25 -37.1 123 -37.5Q123.95 -38.1 124.5 -38.95L126.05 -41.15M117.95,-62.45L118.6 -63.05M117.95,-62.45Q117.2 -61.95 116.35 -61.95Q108.25 -64.95 108.25 -67.35Q108.25 -67.85 108.95 -69.25M104.7,-43.05L103.55 -42.05L106.5 -39.95L108.8 -38.1L110.6 -40.45L109.95 -42.35M103.55,-42.05L103.2 -41.95Q101.8 -41.95 98.95 -43.85L98.8 -43.75M103.05,-32.2L101.65 -32.6Q100.9 -29.8 99.95 -24.05L99.6 -21.65L99.3 -19.65L107.65 -17.85L107.75 -17.85L111.8 -17.05L109.9 -24.05L109.25 -25.65Q107.3 -30.6 103.05 -32.2M116.4,-29.5Q115 -30.6 113.95 -32.2Q113 -33.8 112.35 -35.4L111.6 -36L108.8 -38.1M110.6,-40.45L112.25 -35.7L112.35 -35.4M96.4,-3.45L109.35 -2.75L115.75 -2.35L116.15 -2.25L116.15 -2.2L117.9 4.35L118.1 5.15L121.5 5.6L122.6 5.6L125.55 5.6L125.15 3.95L123.65 -2.2M98.95,-43.85L98.8 -43.95M97.6,-11.2L98.1 -13.3L105.9 -12.7L108.5 -12.6L113 -12.3L113.2 -11.7L113.4 -11.2M113.6,-11.2L114.35 -8.4L112.65 -8.7L110.3 -9M110,-9L108.9 -9.1L108.15 -9.1L102.1 -8.7L98.75 -9.1L96.65 -9.4L97.15 -11.2M88.3,-12.4L88.5 -12.2L90.85 -10.9L94.05 -9L97.35 -7.1L97.5 -6.8L98 -6.2M85.2,1.15Q86.15 -0.5 86.1 -2.25L85.95 -3.45L85.2 -5.7Q84.15 -7.8 81.9 -8.6L77.95 -11.25M88.5,-12.2L88.6 -12.5M159.85,-28.85Q160.1 -29.35 160.85 -29.35L161.8 -29.05M171.1,-22.9L171.75 -22.9Q172.45 -22.7 172.45 -22.2L172.15 -21.3M172.7,-10.15L172.65 -10.1L172.6 -9.95L172.6 -9.85M172.35,-5.85Q176 -9.45 176.1 -15.15Q176.2 -21.2 171.75 -26.2Q167.35 -31.15 163.05 -31.05Q158.8 -30.85 156.65 -30.15Q155.05 -29.55 153.7 -28.75L152.8 -28.15Q151.1 -27 150.25 -25.7L149.1 -24.2L148.1 -21.4Q147.35 -19 147.35 -16.15Q147.35 -12.65 147.8 -10.55Q148.2 -8.35 149.5 -6.85Q150.7 -5.3 151.85 -4.3L154.2 -2.9Q155 -2.55 156.6 -2.15L158.35 -1.8L164.55 -1.5L167.05 -2.15Q169.3 -3.15 171.95 -5.45L172.35 -5.85M159.85,-28.85L159.65 -28.35L159.65 -28.05Q159.65 -27.55 160.1 -27.1Q160.6 -26.7 161.15 -26.7Q162.2 -26.7 162.2 -28.15Q162.2 -28.75 161.8 -29.05M153.55,-20.2L154.55 -22.4L155.05 -22.8Q156 -23.7 157.75 -24.3L162.35 -25Q165.75 -25 168.3 -22.5Q170.75 -19.9 170.75 -16.15Q170.75 -14.55 170.1 -12.85L169.6 -11.85L168.55 -10.25Q166.3 -7.05 162.55 -7.05Q158.8 -7.05 155.9 -9.15Q153.05 -11.15 152.9 -15.85L152.9 -16.5Q152.9 -18.3 153.55 -20.2M149.5,-18.2L149.2 -17.8Q148.65 -17.7 148.65 -17.1Q148.65 -16.7 149.1 -16.4Q149.6 -15.95 149.95 -15.95Q150.35 -15.95 150.7 -16.6L151.1 -17.2Q151.1 -17.7 150.6 -18L149.8 -18.2L149.5 -18.2M154,-6.95Q153.05 -7.05 153.05 -5.85Q153.05 -4.9 154.2 -4.9Q154.5 -4.9 154.75 -5.2L155.05 -5.85Q155.05 -6.75 154 -6.95M171.1,-22.9L170.55 -23L170.35 -22.4Q170.35 -21.8 170.75 -21.3Q171.1 -20.9 171.5 -20.9L172.15 -21.3M172.7,-10.15L172.7 -10.25L172.35 -10.75L171.7 -10.95Q171.1 -10.95 171 -10.65L171 -10.15Q171 -9.15 171.75 -9.15L172.35 -9.55M162.55,-3.3Q162.85 -3 163.1 -3Q163.7 -3 163.95 -3.5L164.15 -4.2L163.8 -4.8L163.2 -5Q162.95 -5 162.45 -4.6L162.2 -3.9Q162.2 -3.6 162.55 -3.3M125.15,3.95Q131 3.7 137.55 3.7Q152.05 3.6 170.15 4.6L177.9 4.7M146,19.5Q146.4 19.8 146.4 20.4Q146.4 21.8 145.35 21.8Q144.8 21.8 144.3 21.4Q143.85 21 143.85 20.5L143.85 20.2L144.05 19.7M137.95,19.8L137 20.4Q135.3 21.5 134.45 22.8L133.35 24.3L132.3 27.1Q131.55 29.55 131.55 32.35Q131.55 35.85 132 37.95Q132.45 40.2 133.75 41.7L136.1 44.2L137.4 45.1L138.45 45.6L142.6 46.7L148.8 47L150.65 46.6Q153.2 45.7 156.2 43.1L156.6 42.7Q160.2 39.1 160.3 33.35Q160.4 27.3 156 22.3Q151.55 17.4 147.25 17.5Q143 17.7 140.85 18.4Q139.25 19 137.95 19.8M156.55,39L156 39.4Q155.25 39.4 155.25 38.35L155.25 37.85Q155.3 37.55 155.9 37.55L156.55 37.75Q156.9 37.95 156.9 38.25L156.8 38.6L156.8 38.7M156.35,27.2L155.7 27.65L154.95 27.2Q154.55 26.7 154.55 26.1L154.75 25.5L155.3 25.6L156 25.6Q156.65 25.8 156.65 26.3L156.35 27.2M146,19.5Q145.75 19.2 145.1 19.2Q144.3 19.2 144.05 19.7M153.8,36.65L154.3 35.65Q154.95 33.95 154.95 32.35Q154.95 28.65 152.5 26Q149.95 23.5 146.6 23.5Q144.05 23.5 141.95 24.2Q140.2 24.8 139.25 25.7Q138.95 25.9 138.8 26.1Q138.1 27.3 137.75 28.35Q137.1 30.25 137.1 32.05L137.1 32.65M134,30.35L133.7 30.35L133.4 30.75Q132.85 30.85 132.85 31.45Q132.85 31.85 133.35 32.15Q133.8 32.55 134.15 32.55Q134.55 32.55 134.9 31.95L135.3 31.35Q135.3 30.85 134.85 30.55L134 30.35M137.3,42.7Q137.3 43.6 138.45 43.6L139 43.3L139.3 42.7Q139.3 41.8 138.25 41.6Q137.3 41.5 137.3 42.7M153.8,36.65L152.8 38.25Q150.6 41.5 146.8 41.5Q143.05 41.5 140.1 39.4Q137.25 37.35 137.1 32.65M146.45,44.6Q146.45 44.9 146.8 45.2L147.4 45.5Q147.95 45.5 148.25 45L148.4 44.3L148.05 43.7L147.5 43.5Q147.2 43.5 146.7 43.9L146.45 44.6M111.4,42.25Q115 38.65 115.1 32.9Q115.2 26.85 110.75 21.85Q106.35 16.95 102.05 17.05Q97.8 17.25 95.65 17.95Q94.05 18.55 92.7 19.35M98.85,19.25Q99.1 18.75 99.85 18.75Q100.5 18.75 100.8 19.05Q101.2 19.35 101.2 19.95Q101.2 21.35 100.15 21.35Q99.6 21.35 99.1 20.95Q98.65 20.55 98.65 20.05L98.65 19.75L98.85 19.25M110.1,25.15L110.75 25.15Q111.45 25.35 111.45 25.85L111.15 26.75M111.7,37.9L111.65 37.95L111.6 38.1L111.6 38.2M111.4,42.25L111.1 42.55L111 42.65Q106.85 46.25 103.6 46.55L97.4 46.25L93.25 45.15L90.9 43.75L88.55 41.25Q87.25 39.75 86.8 37.5Q86.4 35.9 86.4 33.4L86.35 31.9Q86.35 29.1 87.1 26.65L88.1 23.85L89.25 22.35Q90.1 21.05 91.8 19.95L92.7 19.35M70.65,19.1L70.8 19.6L72.05 22.9L72.4 24.1L72.6 24.5L74.75 32.55L75.9 37.35L76.35 39.5L79.7 54L86 53.9L164.15 53.6M94.6,-0.55L93.45 1.15Q92.45 2.75 90.75 2.95L89.25 2.95L88 2.65M85.75,4.75L82.75 4.75M85.95,1.65Q86.9 2.25 88 2.65M64.25,6.25L64.9 8.05L65.75 10.75L66.5 12.85L66.6 13.15Q67.25 14.75 68.2 16.35Q69.2 18 70.65 19.1Q71.65 19.9 73 20.5Q74.2 21.7 75.5 22.4Q77 23.5 78.7 23.35L85.3 14.4L84.65 12.8L83.05 10.8L80.3 7.5M91.9,32.2Q91.95 34 92.45 35.5Q93.2 37.7 94.9 38.95Q97.85 41.05 101.6 41.05Q103.5 41.05 105 40.25Q106.45 39.45 107.55 37.8L108.6 36.2M91.9,32.2L91.9 31.6Q91.9 29.8 92.55 27.9M109.1,35.2L108.6 36.2M109.1,35.2Q109.75 33.5 109.75 31.9Q109.75 28.2 107.3 25.55Q104.75 23.05 101.35 23.05Q98.85 23.05 96.75 23.75Q95 24.35 94.05 25.25L93.55 25.65L92.55 27.9M89.6,30.1L88.75 29.9L88.5 29.9L88.2 30.3Q87.65 30.4 87.65 31Q87.65 31.4 88.1 31.7L88.95 32.1Q89.35 32.1 89.7 31.5L90.1 30.9Q90.1 30.4 89.6 30.1M92.1,42.25Q92.1 43.15 93.25 43.15Q93.5 43.15 93.8 42.85L94.1 42.25Q94.1 41.35 93.05 41.15Q92.1 41.05 92.1 42.25M110.1,25.15L109.55 25.05L109.35 25.65Q109.35 26.25 109.75 26.75Q110.1 27.15 110.5 27.15Q110.85 27.15 111.15 26.75M111.7,37.9L111.7 37.8Q111.7 37.5 111.35 37.3L110.65 37.1Q110.1 37.1 110 37.4L110 37.9Q110 38.95 110.75 38.95L111.35 38.55M102.25,43.05Q102 43.05 101.5 43.45L101.25 44.15Q101.25 44.45 101.6 44.75L102.15 45.05Q102.75 45.05 103 44.55L103.2 43.85L102.85 43.25L102.25 43.05M93.45,4.75Q109.15 4.65 117.9 4.35M15.4,55Q12.8 56.1 12.4 63.35Q12.15 66.95 12.4 71.4L12.45 73M60.8,82.05L62.2 89.2Q63.35 95.05 65.05 98.55L79.8 98.6L81.95 88.05Q82.7 84.25 83.95 81.7L60.8 82.05L35.8 82.5L26.8 82.05L26.55 85.25M83.95,81.7L101.5 81.4L140.9 80.8M64.9,8.05L63 10.45L63.75 11.05L65.85 12.55L66.6 13.15M63,10.45L60.75 8.65L57.85 6.55L57.45 6.65Q56.05 6.65 53.25 4.7L53.05 4.8L52.75 5L52.3 5.75Q51.55 6.75 50.7 8.65M63.5,22.9Q61.5 18 57.3 16.35L55.9 15.95Q55.1 18.8 54.2 24.5L53.8 26.9Q53.6 27.95 53.55 28.95L61.9 30.75L62 30.75L66.05 31.55L64.15 24.5L63.5 22.9M42.6,37.35Q40.25 48.2 40.25 53.65L40.25 54.15L40.25 55.45Q40.3 56.25 41.35 56.25L41.55 56.25L46.15 55.85Q47.3 55.35 47.95 54.15L48.1 53.45L49.25 47.8L49.7 45.7L63.8 46.5L70.2 46.9L70.6 47L72.45 53.95L72.55 54.45L75.95 54.85L77.05 54.85L80 54.9L79.7 54M53.25,4.7L53.05 4.6L53.05 4.8M50.6,8.85L48.9 13.45Q47.4 17.9 45.65 24.5L45.25 25.8L44.9 27.2Q43.45 32.75 42.55 37.35M59,5.55L57.85 6.55M50.6,8.85L50.7 8.65M15.4,55L23.85 54Q25.65 50.2 27.55 44.8Q33.2 28.35 34.75 24.8Q35.85 22.4 37.1 20.3L38.75 17.6Q40.1 14.95 41.8 12.85Q45.9 7.65 52.3 5.75M52.3,35.25L60.1 35.85L62.75 35.95L67.25 36.25L67.45 36.85M52.3,35.25L51.85 37.35M51.75,37.35L51.55 37.95L51.15 39.9L53.2 40.2L56.6 40.6L62.6 40.2L63.35 40.2L64.5 40.3M64.75,40.3L67.1 40.6L68.8 40.9L67.7 37.35M67.65,37.35L67.45 36.85M23.85,54Q31 53.55 39.5 54.15L40.25 54.15M22.55,82.25L25.1 82.15L22 81.8M25.1,82.15L25.45 82L25.85 82L26.8 82.05M25.1,82.15L25.85 82M69,93.25Q69.85 94.25 71.15 94.25Q72.45 94.25 73.6 92.8Q74.7 91.5 74.7 90.3Q74.7 89 73.3 88.2Q72.1 87.5 70.85 87.5Q70.1 87.8 69.65 88.2Q69.1 88.6 69 89.3L68.8 89.7Q68.35 90.6 68.35 91.2Q68.35 92.3 69 93.25M47.95,54.15L72.45 53.95M211.9,124.9L-211.7 124.5L-211.9 -124.9L211.7 -124.5L211.9 124.9M195.6,108.75L-196.05 108.35L-196.15 -109.45L195.5 -109.05L195.6 108.75M-131.25,-2.1L-135.4 -2.5Q-140.55 -3.05 -142.35 -3.7Q-148.45 -5.95 -152.3 -12.35L-135.95 -17.9Q-134.95 -21.2 -133 -24.7Q-130.25 -29.55 -127.8 -29.55Q-127 -29.55 -126.1 -28.55Q-125.05 -27.3 -125.05 -25.7Q-125.05 -23.6 -126 -18.9Q-127.1 -14.05 -127.1 -12.45Q-127.1 -10.35 -126.9 -9.75L-126.5 -9.45L-120.6 -3.85Q-116.25 -6.6 -115.4 -6.6Q-113.6 -6.6 -113.7 -2.75L-113.7 -2.45L-114.3 1.55M-110.05,4.35L-109.85 -2.45L-109.65 -16.3L-109.1 -20.75L-109.35 -20.75L-112.45 -20.55Q-115.45 -20.15 -115.65 -23.45L-115.65 -25.85L-115.4 -28.5Q-114.9 -30.8 -113.6 -31.7Q-112.45 -32.5 -109.35 -32.5L-108.9 -37.7L-104.55 -37.7L-101.55 -37.4L-101.45 -36.8Q-101.45 -36.2 -101.75 -35.5Q-102.15 -34.7 -102.15 -32.7L-95.55 -32.8L-89.45 -32.4Q-89.35 -33.4 -89.55 -34.9Q-89.55 -36.2 -89.05 -36.7L-83.5 -36.7Q-83.5 -34.4 -83.8 -33.4M-83.9,-32.1L-79.3 -31.7M-79.2,-32.8L-79.8 -41.05Q-79.8 -43.35 -79.5 -43.85Q-79.05 -44.65 -77.35 -44.6L-77.25 -44.6L-76.7 -44.5L-76.7 -44.6L-76.35 -65.6L-76.35 -81.65L-76.35 -102.75M-65.9,52.55L-66.15 55.05L-71.55 55.05L-72.1 53.75L-72.1 51.15L-76.6 50.85L-85.9 50.2L-85.9 54.4L-89.95 54.4L-92.2 54.1L-92.1 49.9L-93.05 49.8L-109.05 49.5L-109.3 54.4L-114.2 54.4L-114.1 49.8Q-117 49.8 -117.3 48.35Q-117.7 46.75 -117.5 44.15L-117.4 42.25L-117.3 41.15L-117.3 39.85L-117.45 37.2Q-117.35 35.9 -115.45 35.9L-112.5 36Q-115.25 32.05 -118.9 24.25Q-120.9 21.05 -123.15 16.05L-123.25 15.75L-127.3 14.95Q-130.95 14.15 -130.95 13.05Q-130.95 12.25 -129.05 9.55L-127.3 6.95L-129.95 1L-130.45 -0.4L-131.25 -2.1L-131.4 -2.5L-132.4 -4.3Q-134.2 -7.85 -134.2 -10.45Q-134.2 -12.75 -133.1 -13.15L-132.5 -13.25Q-130.65 -13.25 -126.9 -9.75M-91.25,10.85Q-98.65 9.95 -105.5 6.8L-105.6 8.5L-106.2 20.95L-107.1 36.2L-112.2 36L-110.3 9L-110.25 8.15L-110.05 4.35L-114.3 1.55L-117.55 -0.95L-119.15 -2.45L-120.6 -3.85M-83.9,-32.1L-89.45 -32.4M-102.15,-32.7L-109.2 -32.5L-109.35 -32.5M-91.25,12.75L-91.25 10.85L-91.3 5.4L-91.2 -2.45Q-91.05 -12.55 -90.4 -20.15L-90.55 -20.15L-102.7 -20.55L-103.45 -20.55L-103.45 -18.95Q-104.3 -12.15 -104.95 -2.45L-105.5 6.8M-103.45,-20.55L-107.6 -20.75L-109.1 -20.75M-85.35,11.2Q-79.3 11.2 -72.35 8.9Q-74.6 6.6 -76 1.95L-77.2 -2.4L-78.95 -8.7L-76.7 -8.7L-68.9 -6.15Q-68.55 -13.05 -68.5 -19L-81.15 -19.85L-84.75 -19.95L-85.05 -2.45M-84.75,-19.95L-85 -19.95L-90.4 -20.15M-41.6,-29.75L-41.7 -29.75L-46 -29.75L-48.15 -30.05M-74.2,-39.7Q-73.9 -40.4 -73.8 -42.3L-74.55 -42.3Q-74.25 -41.2 -74.2 -39.7L-74.2 -39.6Q-74.95 -33.65 -74.95 -31.35L-72.4 -31.25M-76.7,-44.5Q-75.1 -44.2 -74.55 -42.3M-74.95,-31.35L-78.65 -31.7L-79.3 -31.7M-62.65,-30.65L-63.1 -30.65L-69.05 -30.95M-59.15,2.7L-55.6 0.6L-52.05 -1.8L-51.2 -2.35L-48.4 -4.4L-48.15 -7.55L-48.15 -17.6L-57.4 -18.2L-62.75 -18.6Q-62.9 -13.3 -63.6 -3.75L-62 -2.4M-63.6,-3.75L-64.3 5.5L-59.15 2.7Q-60 -0.3 -62 -2.4M-68.5,-19L-62.75 -18.6M-48.15,-17.6L-41.15 -17.5M-127.3,6.95L-124.95 12.15L-123.25 15.75M-48.75,4.4L-48.75 5.45L-48.8 9.1L-48.85 15.85L-48.85 18.95L-48.75 24.5L-48.55 31.55L-48.35 34.7L-48.15 36.85L-48.15 37.15L-43.1 37.35M-48.75,4.4L-48.7 2.25L-50.3 2.1Q-52.35 2.1 -53.95 3.5Q-55.6 4.8 -55.6 6.75L-55.6 7.35L-55.5 7.95L-55.5 9.65L-55.3 9.85Q-54.05 11.55 -52.65 11.55Q-50.5 11.55 -48.8 9.1M-55.6,7.35Q-56.3 7.65 -56.2 8.05L-55.5 9.65M-41.4,-9.7L-42.35 4.3L-43.2 16.45L-43.65 24.2L-43.25 30.4M-68.9,-6.15L-69.5 1.9L-70 8.05L-70.4 12.95L-71.3 23.6L-71.3 37.75L-70.85 37.75L-65.95 38.05Q-66.25 33.3 -65.75 24.55L-64.9 12.85L-64.3 5.5M-72.35,8.9L-72.05 8.8L-70 8.05M-49.3,35.35L-52.75 37.35L-55.6 37.65L-61.25 38.15L-63.2 38.15L-65.95 38.05M-63.2,38.15L-63.7 36.85Q-63.7 34.95 -60.25 32.75L-57.9 31.25L-56 29.75L-48.75 24.5M-86.05,37L-71.3 37.75L-71.3 38.15Q-71.1 38.15 -70.85 37.75M-48.55,31.55L-49.3 35.35L-48.35 34.7M-49.3,35.35L-49.6 36.55L-49.8 37.2L-48.35 37.15L-48.15 37.15M-52.75,37.35L-49.8 37.2M-49.55,50.95L-44.45 50.85L-43.6 50.85M-72.1,51.15L-65.6 51.35M-91.25,12.75L-91.2 19.75L-90.45 36.8L-88.5 36.8L-86.05 37L-85.75 26.25L-85.35 11.2L-85.05 -2.45M-112.2,36L-112.5 36M-107.1,36.2L-90.45 36.8M-92.1,49.9L-85.9 50.2M-114.1,49.8L-109.6 49.5L-109.05 49.5M-48.4,-4.4L-48.7 2.25" />
</g>
</svg>
