<?xml version="1.0" encoding="utf-8"?>
<svg version="1.1" id="Layer_1"
xmlns="http://www.w3.org/2000/svg"
xmlns:xlink="http://www.w3.org/1999/xlink"
xmlns:author="http://www.sothink.com"
width="48px" height="51px"
xml:space="preserve">
<g id="124" transform="matrix(1, 0, 0, 1, 23.35, 35.55)">
<path style="fill:#FF0000;fill-opacity:0" d="M-23.35,-35.55L24.3 -35.55L24.3 15.1L-23.35 15.1L-23.35 -35.55" />
<path style="fill:#D03535;fill-opacity:1" d="M8.1,-32.7Q8.65 -33.4 9.65 -33.5Q10.75 -33.6 11.95 -32.85Q12.95 -32.15 13.4 -31.15Q13.9 -30 13.35 -29.3L13.35 -29.25L13 -28.9Q12.55 -28.5 11.75 -28.45L12.45 -28.05L8.95 -22.5Q8.45 -21.9 7.3 -21.75Q6.25 -21.7 5.1 -22.45Q4 -23.1 3.65 -24.15Q3.15 -25.15 3.6 -25.85L3.7 -25.9L3.65 -26.05L7.3 -31.3L7.95 -30.85Q7.7 -31.6 7.9 -32.2L8.1 -32.7M-11.8,-31.2Q-12.05 -32.05 -11.5 -32.95Q-10.9 -33.9 -9.6 -34.4L-7.35 -34.55Q-6.2 -34.25 -5.95 -33.4L-5.9 -33.3L-5.8 -32.85Q-5.8 -32.25 -6.2 -31.6L-5.45 -31.9L-3.15 -25.75Q-2.95 -25 -3.55 -24Q-4.1 -23.15 -5.4 -22.65L-7.65 -22.5Q-8.75 -22.75 -9.05 -23.5L-9.05 -23.6L-9.15 -23.7L-11.2 -29.75L-10.4 -30Q-11.2 -30.25 -11.55 -30.75L-11.8 -31.2" />
<path style="fill:none;stroke-width:1;stroke-linecap:butt;stroke-linejoin:miter;stroke-miterlimit:3;stroke:#791B1B;stroke-opacity:1" d="M13,-28.9L13.35 -29.25L13.35 -29.3Q13.9 -30 13.4 -31.15Q12.95 -32.15 11.95 -32.85Q10.75 -33.6 9.65 -33.5Q8.65 -33.4 8.1 -32.7L7.9 -32.2L7.3 -31.3L3.65 -26.05L3.7 -25.9L3.6 -25.85M8.95,-22.5L12.45 -28.05M13,-28.9L12.45 -28.05M-5.8,-32.85L-5.9 -33.3L-5.95 -33.4Q-6.2 -34.25 -7.35 -34.55L-9.6 -34.4Q-10.9 -33.9 -11.5 -32.95Q-12.05 -32.05 -11.8 -31.2L-11.55 -30.75L-11.2 -29.75L-9.15 -23.7L-9.05 -23.6L-9.05 -23.5Q-8.75 -22.75 -7.65 -22.5L-5.4 -22.65Q-4.1 -23.15 -3.55 -24Q-2.95 -25 -3.15 -25.75L-5.45 -31.9M-5.8,-32.85L-5.45 -31.9" />
<path style="fill:#FAE7E7;fill-opacity:1" d="M9.05,-28.25L9.05 -28.15Q9.05 -27.75 8.3 -27.4L6.65 -27L5.65 -26.8L0.85 -26.5L-3.2 -26.7L-4.95 -27L-6.55 -27.4Q-7.35 -27.75 -7.35 -28.15L-7.3 -28.35L-7 -28.65L-4.95 -29.3L-0.45 -29.8L0.75 -29.8L0.85 -29.8L1 -29.8L2.2 -29.8L6.65 -29.3Q8.7 -28.9 9.05 -28.3L9.05 -28.25" />
<path style="fill:#E27070;fill-opacity:1" d="M22.6,-7L20.6 -6.55L20.3 -8.7Q19.45 -13.1 17.35 -17.35Q14.05 -24 9.15 -25.85L9.05 -25.9Q8.95 -26.7 8.3 -27.4Q9.05 -27.75 9.05 -28.15L9.05 -28.25L9.05 -28.3Q13.1 -26.75 16.5 -23.35Q22.9 -16.95 23 -7.95L23 -7.65L23 -7L22.6 -7" />
<path style="fill:#C6BFBF;fill-opacity:1" d="M2.4,0.05Q-0.85 1.8 -1.25 1.8Q-2.3 1.8 -4.1 0.05L-4.05 -0.15L-4.35 -0.15Q-6.05 -1.7 -7.35 -1.7L-9.85 -1.25L-11.15 -0.9L-13.55 -1.3Q-14.5 -1.9 -15.75 -3Q-18.2 -5.2 -19.45 -5.2L-21.1 -4.75L-21.3 -7.65L-21.25 -7.8Q-16.7 -6.55 -12.15 -5.8L11.5 -5.1L13.05 -5.25L20.6 -6.55L22.6 -7L23 -6.9Q22.9 -4.5 22.4 -2.3L21.75 -0.1L20.75 -0.55L18.4 -1.45L18.3 -1.5L17 -1.2Q16.2 -0.9 15.15 -0.25Q13.05 1 12.45 1Q11.8 1 10.4 -0.3L10.2 -0.5Q8.65 -2.05 7.3 -2.05Q6.1 -2.05 2.65 -0.1L2.4 0.05" />
<path style="fill:#999999;fill-opacity:1" d="M2.65,0.05L2.65 -0.1Q6.1 -2.05 7.3 -2.05Q8.65 -2.05 10.2 -0.5L10.25 -0.3L10.4 -0.3Q11.8 1 12.45 1Q13.05 1 15.15 -0.25Q16.2 -0.9 17 -1.2L18.4 -1.45L20.75 -0.55L21.75 -0.1L21.2 1.3Q19.55 4.95 16.5 8Q10.05 14.5 0.85 14.5Q-8.35 14.5 -14.85 8Q-19.55 3.3 -20.85 -2.9L-21.1 -4.75L-19.45 -5.2Q-18.2 -5.2 -15.75 -3Q-14.5 -1.9 -13.55 -1.3L-11.15 -0.9L-9.85 -1.25L-7.35 -1.7Q-6.05 -1.7 -4.35 -0.15L-4.05 -0.15L-4.1 0.05Q-2.3 1.8 -1.25 1.8Q-0.85 1.8 2.4 0.05L2.65 0.05" />
<path style="fill:#FFFFFF;fill-opacity:1" d="M10.2,-0.5L10.4 -0.3L10.25 -0.3L10.2 -0.5M17,-1.2L18.3 -1.5L18.4 -1.45L17 -1.2M2.4,0.05L2.65 -0.1L2.65 0.05L2.4 0.05" />
<path style="fill:#D94343;fill-opacity:1" d="M19.65,-9L15.85 -10.65L13.45 -10.3L11.45 -10Q8.7 -10 6.25 -11.3Q3.8 -12.65 1.55 -12.65Q-1.35 -12.65 -4.85 -11.25Q-8.35 -9.9 -8.75 -9.9Q-10.9 -9.9 -12.35 -12Q-13.55 -13.75 -13.55 -15.4Q-13.55 -17.1 -11.1 -18.95Q-8.65 -20.75 -8.65 -22.65Q-8.65 -24.25 -9.7 -25.95L-10.35 -26.85L-7.4 -28.3L-7.3 -28.35L-7.35 -28.15Q-7.35 -27.75 -6.55 -27.4L-4.95 -27L-3.2 -26.7L0.85 -26.5L5.65 -26.8L6.65 -27L8.3 -27.4Q8.95 -26.7 9.05 -25.9L9.15 -25.85Q14.05 -24 17.35 -17.35Q19.45 -13.1 20.3 -8.7L19.65 -9" />
<path style="fill:#CD3838;fill-opacity:1" d="M-21.3,-7.8Q-21.25 -16.9 -14.85 -23.35Q-12.75 -25.45 -10.35 -26.85L-9.7 -25.95Q-8.65 -24.25 -8.65 -22.65Q-8.65 -20.75 -11.1 -18.95Q-13.55 -17.1 -13.55 -15.4Q-13.55 -13.75 -12.35 -12Q-10.9 -9.9 -8.75 -9.9Q-8.35 -9.9 -4.85 -11.25Q-1.35 -12.65 1.55 -12.65Q3.8 -12.65 6.25 -11.3Q8.7 -10 11.45 -10L13.45 -10.3L15.85 -10.65L19.65 -9L20.3 -8.7L20.6 -6.55L13.05 -5.25L11.5 -5.1L-12.15 -5.8Q-16.7 -6.55 -21.25 -7.8L-21.3 -7.8" />
<path style="fill:none;stroke-width:1;stroke-linecap:butt;stroke-linejoin:miter;stroke-miterlimit:3;stroke:#791B1B;stroke-opacity:1" d="M-7.3,-28.35L-7 -28.65L-4.95 -29.3L-0.45 -29.8L0.75 -29.8L0.85 -29.8L1 -29.8L2.2 -29.8L6.65 -29.3Q8.7 -28.9 9.05 -28.3Q13.1 -26.75 16.5 -23.35Q22.9 -16.95 23 -7.95L23 -7.65L23 -7L23 -6.9Q22.9 -4.5 22.4 -2.3L21.75 -0.1L21.2 1.3Q19.55 4.95 16.5 8Q10.05 14.5 0.85 14.5Q-8.35 14.5 -14.85 8Q-19.55 3.3 -20.85 -2.9L-21.1 -4.75L-21.3 -7.65L-21.3 -7.8Q-21.25 -16.9 -14.85 -23.35Q-12.75 -25.45 -10.35 -26.85L-7.4 -28.3L-7.3 -28.35L-7.35 -28.15Q-7.35 -27.75 -6.55 -27.4L-4.95 -27L-3.2 -26.7L0.85 -26.5L5.65 -26.8L6.65 -27L8.3 -27.4Q9.05 -27.75 9.05 -28.15L9.05 -28.25L9.05 -28.3M-21.3,-7.8L-21.25 -7.8Q-16.7 -6.55 -12.15 -5.8L11.5 -5.1L13.05 -5.25L20.6 -6.55L22.6 -7" />
<path style="fill:#CD3838;fill-opacity:1" d="M0.05,-14.7Q-1.75 -14.7 -1.8 -16.25Q-1.8 -17.75 -0.15 -17.7Q1.45 -17.65 1.45 -16.2Q1.45 -14.7 0.05 -14.7M-6.7,-19.15L-6.4 -19.1L-6.85 -19.3L-6.8 -19.25L-6.7 -19.15M-7.8,-20.45L-7.05 -20.35L-6.4 -20.3Q-3.35 -19.9 -3.35 -16.4Q-3.35 -15.9 -3.85 -14.95Q-4.5 -13.75 -5.25 -13.75L-5.95 -13.75L-6.3 -13.75L-7.35 -13.85Q-9.15 -13.95 -9.6 -16.85L-9.35 -18.35Q-9.15 -19.45 -8.45 -19.95L-7.8 -20.45M-4.55,-16.65L-4.65 -16.9L-4.65 -16.8L-4.55 -16.65" />
</g>
</svg>
