<?xml version="1.0" encoding="utf-8"?>
<svg version="1.1" id="Layer_1"
xmlns="http://www.w3.org/2000/svg"
xmlns:xlink="http://www.w3.org/1999/xlink"
xmlns:author="http://www.sothink.com"
width="26px" height="57px"
xml:space="preserve">
<g id="113" transform="matrix(1, 0, 0, 1, 12.65, 28.45)">
<path style="fill:#BB9250;fill-opacity:1" d="M5.05,-26.05L-0.15 -25.85L-1.7 -25.75L-4.35 -26L-4.4 -27.05L-1.65 -27.55L-0.15 -27.8L1.2 -27.95L5.6 -27.75L5.6 -26.85L5.3 -26.5L5.05 -26.05M6.3,-14.05L2.45 -14.3L-0.15 -14.2L-4.85 -13.55L-5.4 -13.7L-5.5 -14.45Q-5.55 -15.15 -4.25 -15.3L-1.95 -15.4L-0.2 -15.45L-0.15 -15.45L2.4 -15.5L6.3 -15.1L6.3 -14.05M-12.15,14.95Q-12.25 10.55 -7.4 6.35L-6.75 5.8L-9.45 4.55Q-11.9 3.2 -11.95 2.55L-11.6 1.5L-10.7 1Q-7.1 3.95 -5.3 4.6Q-2.65 2.7 0.6 1.25L0.75 0.75L-1.1 0.3L-10.45 -2L-9.45 -3.7Q-8.95 -4.5 -8.75 -5.2L2.55 -1.8L4.55 -1.2Q5.35 -1.85 7.1 -2.35L7.45 -2.45L10.75 -3.5L11.25 -3.2Q11.95 -2.75 11.95 -2.2Q12 -1.65 10.2 -1.05Q8.15 -0.4 7.95 0Q12.2 1.5 12.2 2.1Q12.25 2.75 11.9 2.95L11.05 3.3L10.6 3.15L3.55 1.4Q2.4 2.85 -0.95 4.35L-3.65 5.65Q-0.65 7.9 6.5 11.25Q11.65 13.6 11.65 15.1L11.45 16.05L11 16.85L-5.6 7.05L-5.65 7.1Q-8.05 9.65 -11.2 15.45L-12.15 14.95M6.6,27.95L5.95 27.95L-4.8 26.8Q-4.8 25.95 -4.95 25.75L-5 24.35L-2.7 24.1L2.55 24.4Q6.75 24.95 6.75 26.1L6.6 27.95" />
<path style="fill:none;stroke-width:1;stroke-linecap:butt;stroke-linejoin:miter;stroke-miterlimit:3;stroke:#6D501F;stroke-opacity:1" d="M6.3,-14.05L2.45 -14.3L-0.15 -14.2L-4.85 -13.55L-5.4 -13.7L-5.5 -14.45Q-5.55 -15.15 -4.25 -15.3L-1.95 -15.4L-0.2 -15.45L-0.15 -15.45L2.4 -15.5L6.3 -15.1L6.3 -14.05M0.75,0.75L3.55 1.4M5.95,27.95L6.05 28L6.6 27.95M5.95,27.95L-4.8 26.8Q-4.8 25.95 -4.95 25.75L-5 24.35L-2.7 24.1L2.55 24.4Q6.75 24.95 6.75 26.1L6.6 27.95M4.55,-1.2L7.95 0M-5.6,7.05L-5.55 7L-5.4 6.85L-4.4 6.05L-3.65 5.65M-6.75,5.8L-6.75 5.75L-6.4 5.45L-5.3 4.6" />
<path style="fill:none;stroke-width:1;stroke-linecap:round;stroke-linejoin:miter;stroke-miterlimit:3;stroke:#6D501F;stroke-opacity:1" d="M5.05,-26.05L5.2 -26L5.05 -26L5.05 -26.05M10.75,-3.5L7.45 -2.45" />
<path style="fill:none;stroke-width:1;stroke-linecap:round;stroke-linejoin:miter;stroke-miterlimit:3;stroke:#6D501F;stroke-opacity:1" d="M5.05,-26.05L-0.15 -25.85L-1.7 -25.75L-4.35 -26L-4.4 -27.05L-1.65 -27.55L-0.15 -27.8L1.2 -27.95L5.6 -27.75L5.6 -26.85L5.3 -26.5L5.05 -26.05M0.75,0.75L-1.1 0.3L-10.45 -2L-9.45 -3.7Q-8.95 -4.5 -8.75 -5.2L2.55 -1.8L4.55 -1.2Q5.35 -1.85 7.1 -2.35L7.45 -2.45Q8.6 -2.85 9.2 -3.2L10.45 -3.55L10.75 -3.5" />
<path style="fill:none;stroke-width:1;stroke-linecap:butt;stroke-linejoin:miter;stroke-miterlimit:3;stroke:#6D501F;stroke-opacity:1" d="M10.75,-3.5L11.25 -3.2Q11.95 -2.75 11.95 -2.2Q12 -1.65 10.2 -1.05Q8.15 -0.4 7.95 0Q12.2 1.5 12.2 2.1Q12.25 2.75 11.9 2.95L11.05 3.3L10.6 3.15L3.55 1.4Q2.4 2.85 -0.95 4.35L-3.65 5.65Q-0.65 7.9 6.5 11.25Q11.65 13.6 11.65 15.1L11.45 16.05L11.15 16.95L11 16.85L-5.6 7.05L-5.65 7.1Q-8.05 9.65 -11.2 15.45L-11.25 15.5L-11.8 15.55Q-12.15 15.45 -12.15 14.95Q-12.25 10.55 -7.4 6.35L-6.75 5.8L-9.45 4.55Q-11.9 3.2 -11.95 2.55L-11.6 1.5L-10.7 1Q-7.1 3.95 -5.3 4.6Q-2.65 2.7 0.6 1.25" />
</g>
</svg>
