<?xml version="1.0" encoding="utf-8"?>
<svg version="1.1" id="Layer_1"
xmlns="http://www.w3.org/2000/svg"
xmlns:xlink="http://www.w3.org/1999/xlink"
xmlns:author="http://www.sothink.com"
width="50px" height="27px"
xml:space="preserve">
<g id="197" transform="matrix(1, 0, 0, 1, -13.35, 15.9)">
<path style="fill:#FFCC00;fill-opacity:1" d="M19.4,-0.15Q19.4 0.2 20.5 1.75Q21.75 3.55 22.6 3.55Q24.25 3.55 25.15 2.05Q26.05 0.5 26.25 0.5L27.85 1.8Q29.45 3.1 30.45 3.1Q31.7 3.1 31.75 1.5L31.55 -0.6L34 -0.9Q34.45 -1.05 34.45 -1.55L33.35 -3.05L32.05 -4.4L31.15 -6Q30.3 -7.2 29.75 -7.2L28.1 -6.15L26.55 -5.1L23.3 -7.65Q22.45 -7.65 21.7 -6.35L21.1 -4.95L19.2 -1.9Q19.2 -1.6 19.75 -1.2L19.45 -0.65L19.4 -0.15M18.85,-4.7Q19.65 -5.25 20.25 -5.3Q20.1 -7.2 20.4 -10.2L20.85 -15L24.4 -12.65Q26.9 -10.65 27.45 -10.65Q28.3 -10.65 30.6 -11.7L33.5 -12.75Q34.05 -12.75 34.4 -10.25Q34.7 -7.8 35.45 -6.85L61.7 -1.7L34.65 4.35L33.35 4.35L32.3 9.05L29.75 6.95Q28.1 5.55 27.5 5.55L19.05 10.1Q18.65 9.4 18.85 7.25Q19.05 4.95 18.75 4.05Q18.55 3.25 16.15 2.3Q13.85 1.35 13.85 1.05L17.25 -3.05L18.85 -4.7M29.2,-4.95L29.15 -4.95L29.15 -5.05L29.3 -5.1L29.2 -4.95" />
<path style="fill:#FFFFCC;fill-opacity:1" d="M19.45,-0.65L19.75 -1.2Q19.2 -1.6 19.2 -1.9L21.1 -4.95L21.7 -6.35Q22.45 -7.65 23.3 -7.65L26.55 -5.1L28.1 -6.15L29.75 -7.2Q30.3 -7.2 31.15 -6L32.05 -4.4L33.35 -3.05L34.45 -1.55Q34.45 -1.05 34 -0.9L31.55 -0.6L31.75 1.5Q31.7 3.1 30.45 3.1Q29.45 3.1 27.85 1.8L26.25 0.5Q26.05 0.5 25.15 2.05Q24.25 3.55 22.6 3.55Q21.75 3.55 20.5 1.75Q19.4 0.2 19.4 -0.15L19.45 -0.65M29.3,-5.1L29.15 -5.05L29.15 -4.95L29.2 -4.95L29.3 -5.1" />
<path style="fill:none;stroke-width:1;stroke-linecap:butt;stroke-linejoin:miter;stroke-miterlimit:3;stroke:#FF9900;stroke-opacity:1" d="M18.85,-4.7Q19.65 -5.25 20.25 -5.3Q20.1 -7.2 20.4 -10.2L20.85 -15L24.4 -12.65Q26.9 -10.65 27.45 -10.65Q28.3 -10.65 30.6 -11.7L33.5 -12.75Q34.05 -12.75 34.4 -10.25Q34.7 -7.8 35.45 -6.85L61.7 -1.7L34.65 4.35L33.35 4.35L32.3 9.05L29.75 6.95Q28.1 5.55 27.5 5.55L19.05 10.1Q18.65 9.4 18.85 7.25Q19.05 4.95 18.75 4.05Q18.55 3.25 16.15 2.3Q13.85 1.35 13.85 1.05L17.25 -3.05L18.85 -4.7z" />
</g>
</svg>
