<?xml version="1.0" encoding="utf-8"?>
<svg version="1.1" id="Layer_1"
xmlns="http://www.w3.org/2000/svg"
xmlns:xlink="http://www.w3.org/1999/xlink"
xmlns:author="http://www.sothink.com"
width="76px" height="70px"
xml:space="preserve">
<g id="274" transform="matrix(1, 0, 0, 1, 37.9, 34.3)">
<path style="fill:#ECECF7;fill-opacity:1" d="M17.8,-20.45Q22 -20.45 24 -19.1Q26.55 -17.35 26.85 -13L28.35 -6.6L29.7 -0.5L27.45 0.15Q26.7 -2.25 26 -6.85Q25.05 -12.8 24.15 -15Q22.6 -18.7 19.45 -18.7Q17.25 -18.7 15.4 -17.55Q13.55 -16.4 12.95 -16.4L12.3 -16.5Q14.65 -20.45 17.8 -20.45M-4.15,-1.75L-3.7 -1.65L-3.7 -1.7L0.85 -1.65L5.85 -1.25L7.55 -1.05L7.2 0.5L5.4 0.1L2.4 -0.2L-1.1 0.25L-5 0.65L-16.85 -0.5L-18 -0.7L-25.2 -1.7L-27.2 -1.45L-29.25 -1.25L-29.55 -1.9Q-27.6 -2.95 -24.45 -3.05L-23.55 -3.1L-18.6 -2.95L-13.5 -2.65L-4.15 -1.75" />
<path style="fill:#C3C3E2;fill-opacity:1" d="M26,0.55L25.6 -0.2Q24.75 -1.5 23.25 -1.7Q21.55 -1.9 20.5 -2.65Q19.65 -3.25 18.3 -3.25Q17.2 -3.25 15.65 -2.4Q14.05 -1.55 13.05 -1.55Q9.05 -1.55 9.05 -6.65L9.4 -9.5Q10.65 -13.85 12.3 -16.5L12.95 -16.4Q13.55 -16.4 15.4 -17.55Q17.25 -18.7 19.45 -18.7Q22.6 -18.7 24.15 -15Q25.05 -12.8 26 -6.85Q26.7 -2.25 27.45 0.15L26 0.55M17.4,-15.55L16.5 -14.65L16.05 -14.75Q15 -14.75 14.3 -13.65Q13.65 -12.7 13.65 -11.5Q13.65 -9.35 15.5 -7.85Q17.1 -6.5 18.8 -6.5Q20.35 -6.5 21.25 -7.25Q22.05 -8 22.05 -9.2L22 -9.85Q22.8 -10.6 22.8 -11.95Q22.8 -15.8 18.4 -15.8Q17.9 -15.8 17.95 -15.6L17.5 -15.7L17.4 -15.55M-9.25,15.15L-9.05 15.15L-3.85 15.6L3.7 16.05L11.15 15.25L22 12.75Q21.5 13.45 21.45 14.2Q21.45 15.15 22 15.65Q22.55 16.2 23.4 15.95Q24.25 15.75 24.9 14.95Q25.55 14.1 25.55 13.1Q25.6 12.35 25.2 11.85L32.65 9.6Q30.6 13.5 25.5 21.15L16.3 23.15Q5.55 25.15 -2.45 24.85L-10.15 24.6L-18.4 24.4Q-23 24.35 -32.15 22.4L-34.3 14.6L-32.4 14.55Q-30.2 14.55 -28.2 16.25Q-26.15 17.95 -20.4 17.95Q-16.8 17.95 -14.3 16.55Q-11.9 15.2 -9.25 15.15M7.15,0.65L6.25 2.4Q5.4 3.9 4.2 4.3L-1.1 5.05L-8.55 5.05Q-11.2 5.05 -15.35 3.25Q-19.45 1.45 -24.1 1.45L-27.05 1.85L-29.4 2.2Q-31 2.2 -31.65 1.3L-32.25 1.05L-32.05 0.6Q-31.5 -0.5 -30.6 -1.25L-30.2 -1.55L-29.6 -1.9L-29.55 -1.9L-29.25 -1.25L-27.2 -1.45L-25.2 -1.7L-18 -0.7L-16.85 -0.5L-5 0.65L-1.1 0.25L2.4 -0.2L5.4 0.1L7.2 0.5L7.15 0.65M-15,-21L-15 -22.15L-14.25 -28.5Q-14.25 -29.05 -15.2 -29.65Q-16.2 -30.3 -16.2 -31.5Q-16.2 -32.6 -15.3 -33.25Q-14.5 -33.8 -13.4 -33.8Q-12.45 -33.8 -11.55 -33Q-10.65 -32.1 -10.65 -31Q-10.65 -30.65 -11.2 -29.4Q-11.8 -28.1 -11.85 -26.15L-12.15 -21.1L-15 -21M-9.15,-21L-9.15 -26.95L-8.25 -27.2Q-6.9 -27.2 -6.95 -24.2L-7.2 -20.7L-9.15 -21M-4.1,-12.65L-2.65 -12.35L-2.65 -11.25L-2.65 -10.8Q-3.6 -11.65 -4.1 -12.65M-7.1,-10.55Q-7.7 -10.2 -7.75 -9.05L-7.7 -5L-7.5 -4.95L-5.65 -4.95L-5.45 -5.1L-5.2 -5.1Q-4.9 -5.25 -4.9 -7.7L-5 -10.05L-2.75 -9Q-2.95 -6.15 -3.7 -1.7L-4.15 -1.75L-13.5 -2.65L-18.6 -2.95L-18.6 -3.25Q-18.4 -4.75 -18.75 -5.15L-18.8 -5.15L-19.2 -5.9Q-19.85 -7.1 -19.85 -8.2Q-19.85 -9.35 -19.25 -10.45L-19.2 -10.55L-19.05 -10.5L-18.9 -10.5L-16.8 -10.55L-15.85 -10.5Q-16.35 -10.1 -16.35 -9.35Q-16.15 -7 -16.25 -5.3L-15.8 -5.3L-15.1 -5.35L-13.3 -5.4L-13.25 -5.4L-12.3 -5.4Q-11.85 -5.55 -11.85 -8Q-11.85 -10.15 -12.05 -10.55L-12.4 -10.8L-12.9 -10.9L-12.45 -11.05L-9.35 -11.5Q-8.4 -11.5 -6.45 -10.7L-7.1 -10.55M-21,-10.8L-21 -10.75L-21.05 -10.8L-21 -10.8M-28.75,-0.5Q-29.7 -0.5 -30.2 0.05L-30.5 0.75Q-30.5 1.5 -29.7 1.5L-28.6 0.85L-28.05 0.05L-28.1 -0.25Q-28.25 -0.5 -28.75 -0.5M-20.45,-5.2L-20.55 -5.2L-20.55 -5.35L-20.45 -5.2M-17.8,-9.2Q-17.9 -9.7 -18.5 -9.7Q-19.3 -9.7 -19.3 -8.75Q-19.3 -7.65 -18.2 -7.65Q-17.85 -7.65 -17.8 -8.1L-17.8 -8.65L-17.8 -9.2" />
<path style="fill:#8080AD;fill-opacity:1" d="M19,-9.05Q17.6 -9.05 16.7 -9.95Q15.75 -10.9 15.75 -12.25Q15.75 -13.25 16.35 -14.4L16.5 -14.65L17.4 -15.55L17.95 -15.6Q17.9 -15.8 18.4 -15.8Q22.8 -15.8 22.8 -11.95Q22.8 -10.6 22 -9.85Q21 -9.05 19 -9.05M17.9,-14.3L18.9 -13Q20 -11.75 20.75 -11.75Q21.1 -11.75 21.3 -12.2L21.45 -12.85Q21.45 -14.35 19.7 -15Q17.9 -15.6 17.9 -14.3M-37.3,8L-37.4 8.3L-37.4 7.95L-37.3 8" />
<path style="fill:#A9A9CB;fill-opacity:1" d="M16.5,-14.65L16.35 -14.4Q15.75 -13.25 15.75 -12.25Q15.75 -10.9 16.7 -9.95Q17.6 -9.05 19 -9.05Q21 -9.05 22 -9.85L22.05 -9.2Q22.05 -8 21.25 -7.25Q20.35 -6.5 18.8 -6.5Q17.1 -6.5 15.5 -7.85Q13.65 -9.35 13.65 -11.5Q13.65 -12.7 14.3 -13.65Q15 -14.75 16.05 -14.75L16.5 -14.65" />
<path style="fill:#A4A4CD;fill-opacity:1" d="M19.7,-15Q21.45 -14.35 21.45 -12.85L21.3 -12.2Q21.1 -11.75 20.75 -11.75Q20 -11.75 18.9 -13L17.9 -14.3Q17.9 -15.6 19.7 -15M37.4,3.85L37.2 4.15L37.15 3.95L37.4 3.85" />
<path style="fill:#8D8DB1;fill-opacity:1" d="M-32.85,6.4L-33 5.3Q-33 2.75 -32.25 1.05L-31.65 1.3Q-31 2.2 -29.4 2.2L-27.05 1.85L-24.1 1.45Q-19.45 1.45 -15.35 3.25Q-11.2 5.05 -8.55 5.05L-1.1 5.05L4.2 4.3Q5.4 3.9 6.25 2.4L7.15 0.65L7.2 0.5L7.55 -1.05L9.25 -8.95L9.4 -9.5L9.05 -6.65Q9.05 -1.55 13.05 -1.55Q14.05 -1.55 15.65 -2.4Q17.2 -3.25 18.3 -3.25Q19.65 -3.25 20.5 -2.65Q21.55 -1.9 23.25 -1.7Q24.75 -1.5 25.6 -0.2L26 0.55L18.6 2.85L5.4 6.9L3.85 7.2L-3.4 7.2L-13.5 6.8L-13.55 7.6L-13.6 6.8Q-13.95 4.4 -16.45 3.8L-22.15 3.55L-26.8 3.75Q-27.85 4.1 -28.25 5.15L-28.6 6.45L-32.85 6.4M-28.45,11.95Q-27.95 13.65 -26.2 14.35L-20.55 15Q-17.25 15 -15.65 14.35L-14.6 13.65Q-14.05 13 -13.8 11.4L-13.55 11.4L-13.5 11.4L-8.95 11.85L-5.35 12.2L1.9 12.85L6.05 12.55L10.05 11.95L10.2 11.9L14.95 10.7L22 8.9L31.4 6.3L33.95 5.55L33.95 6.05L33.9 6.5L32.65 9.6L25.2 11.85L25.05 11.7Q24.5 11.2 23.6 11.35Q22.8 11.65 22.15 12.5L22 12.75L11.15 15.25L3.7 16.05L-3.85 15.6L-9.05 15.15L-9.25 15.15Q-11.9 15.2 -14.3 16.55Q-16.8 17.95 -20.4 17.95Q-26.15 17.95 -28.2 16.25Q-30.2 14.55 -32.4 14.55L-34.3 14.6L-34.9 12.05L-34.9 11.95Q-31.65 11.6 -28.45 11.95M-5,-10.05L-5.05 -10.25Q-5.25 -10.7 -6.4 -10.7L-6.45 -10.7Q-8.4 -11.5 -9.35 -11.5L-12.45 -11.05L-12.9 -10.9L-14.2 -11L-14.35 -11L-14.5 -11L-15.05 -10.9L-15.8 -10.5L-15.85 -10.5L-16.8 -10.55L-18.9 -10.5L-19.05 -10.5L-19.2 -10.55L-19.25 -10.45Q-19.85 -9.35 -19.85 -8.2Q-19.85 -7.1 -19.2 -5.9L-18.8 -5.15L-18.75 -5.15Q-18.4 -4.75 -18.6 -3.25L-18.6 -2.95L-23.55 -3.1L-24.45 -3.05L-24.6 -9.1L-24.5 -11.9Q-21.45 -13.1 -18.4 -13.5L-12.4 -13.75L-7.4 -13.25L-4.1 -12.65Q-3.6 -11.65 -2.65 -10.8L-2.75 -9L-5 -10.05M-21.05,-10.8L-21 -10.75L-21 -10.8L-21.05 -10.8M-28.1,-0.25L-28.05 0.05L-28.6 0.85L-29.7 1.5Q-30.5 1.5 -30.5 0.75L-30.2 0.05Q-29.7 -0.5 -28.75 -0.5Q-28.25 -0.5 -28.1 -0.25M-20.55,-5.35L-20.65 -5.2L-20.55 -5.2L-20.45 -5.2L-20.55 -5.35M-17.8,-8.65L-17.8 -8.1Q-17.85 -7.65 -18.2 -7.65Q-19.3 -7.65 -19.3 -8.75Q-19.3 -9.7 -18.5 -9.7Q-17.9 -9.7 -17.8 -9.2L-17.8 -8.65" />
<path style="fill:#F3B288;fill-opacity:1" d="M-26.8,3.75L-22.15 3.55L-16.45 3.8Q-13.95 4.4 -13.6 6.8L-13.55 7.6L-13.5 6.8L-3.4 7.2L3.85 7.2L5.4 6.9L18.6 2.85L26 0.55L27.45 0.15L29.7 -0.5L34.45 -1.55Q35.95 -1.55 36.75 0.35Q37.4 1.85 37.4 3.85L37.15 3.95Q36.15 0.75 33.85 0.75L29.6 1.4L28.1 1.75L26.4 2.2Q22.55 3.25 17.15 5.1L16.65 5.3L12.75 6.55L6.15 8.65L5.25 8.9L2.85 9.4L-1.45 9.1L-5.75 8.7L-13.55 7.95L-13.55 9.15L-13.8 11.4Q-14.05 13 -14.6 13.65L-15.65 14.35L-15.3 10.5Q-15.3 9.65 -15.55 9Q-16.65 6 -22.5 5.75L-27.3 5.45L-28.25 5.15Q-27.85 4.1 -26.8 3.75M-28.6,6.45L-28.6 6.6L-28.65 7.35L-28.65 8.35L-32.6 8.45L-34.6 8.4L-37.3 8L-37.4 7.95Q-37.35 6.8 -37.1 6.55L-35.45 6.3L-32.85 6.4L-28.6 6.45M-12.15,-21.1L-11.75 -21.1L-9.15 -21L-7.2 -20.7L-7.15 -20.7Q-5.05 -20.2 -4.15 -19.2Q-2.8 -17.65 -2.65 -12.35L-4.1 -12.65L-4.25 -12.9L-5 -15.25Q-5.35 -16.5 -5.85 -17L-8.65 -18.8Q-10.5 -19.6 -12.35 -19.6Q-15.25 -19.6 -22.8 -17.15L-23.2 -17.45L-22.1 -18.95Q-20.25 -20.6 -15 -21L-12.15 -21.1" />
<path style="fill:#F7BC81;fill-opacity:1" d="M-22.8,-17.15L-23.3 -17.2L-23.2 -17.45L-22.8 -17.15" />
<path style="fill:#DE7D3D;fill-opacity:1" d="M6.05,12.55L1.9 12.85L-5.35 12.2L-8.95 11.85L-13.5 11.4L-13.55 11.4L-13.8 11.4L-13.55 9.15L-13.55 7.95L-5.75 8.7L-1.45 9.1L2.85 9.4L5.25 8.9L6.15 8.65L12.75 6.55L16.65 5.3L17.15 5.1Q22.55 3.25 26.4 2.2L28.1 1.75L29.6 1.4L33.85 0.75Q36.15 0.75 37.15 3.95L37.2 4.15Q36.6 4.7 33.95 5.55L31.4 6.3L22 8.9L14.95 10.7L10.2 11.9L10.05 11.95L6.05 12.55M-34.9,11.95L-35.5 12Q-37.4 11.85 -37.4 8.3L-37.3 8L-34.6 8.4L-32.6 8.45L-28.65 8.35L-28.65 7.35L-28.6 6.6L-28.6 6.45L-28.25 5.15L-27.3 5.45L-22.5 5.75Q-16.65 6 -15.55 9Q-15.3 9.65 -15.3 10.5L-15.65 14.35Q-17.25 15 -20.55 15L-26.2 14.35Q-27.95 13.65 -28.45 11.95Q-31.65 11.6 -34.9 11.95M-7.4,-13.25L-12.4 -13.75L-18.4 -13.5Q-21.45 -13.1 -24.5 -11.9Q-24.25 -15.3 -23.3 -17.2L-22.8 -17.15Q-15.25 -19.6 -12.35 -19.6Q-10.5 -19.6 -8.65 -18.8L-5.85 -17Q-5.35 -16.5 -5 -15.25L-4.25 -12.9L-4.1 -12.65L-7.4 -13.25" />
<path style="fill:#393943;fill-opacity:1" d="M-12.9,-10.9L-12.4 -10.8L-12.05 -10.55Q-11.85 -10.15 -11.85 -8Q-11.85 -5.55 -12.3 -5.4L-13.25 -5.4L-13.3 -5.4L-15.1 -5.35L-15.8 -5.3L-16.25 -5.3Q-16.15 -7 -16.35 -9.35Q-16.35 -10.1 -15.85 -10.5L-15.8 -10.5L-15.05 -10.9L-14.5 -11L-14.35 -11L-14.2 -11L-12.9 -10.9M-7.7,-5L-7.75 -9.05Q-7.7 -10.2 -7.1 -10.55L-6.45 -10.7L-6.4 -10.7Q-5.25 -10.7 -5.05 -10.25L-5 -10.05L-4.9 -7.7Q-4.9 -5.25 -5.2 -5.1L-5.45 -5.1L-7.7 -5" />
<path style="fill:#E8E8F3;fill-opacity:1" d="M-18.4,24.4L-10.15 24.6L-2.45 24.85Q5.55 25.15 16.3 23.15L25.5 21.15L23.85 23.55L22.85 24.55L18.5 25.2L14.25 25.95L5.65 27.05L-4.5 27.4L-10.4 27.25L-20.45 26.5Q-30.9 25.6 -31.45 24.65L-31.5 24.55L-32.15 22.4Q-23 24.35 -18.4 24.4" />
<path style="fill:#C65E5E;fill-opacity:1" d="M22.85,24.55L20.55 26.8L16.1 30.8Q12.35 33.8 7.95 33.8L-1.2 33.6L-4.05 33.5L-9.65 33.5L-10.95 33.45L-14.25 33.3L-21.9 33Q-27.1 32.2 -28.55 30.6Q-30 28.95 -30.6 27.25L-31.45 24.65Q-30.9 25.6 -20.45 26.5L-10.4 27.25L-4.5 27.4L5.65 27.05L14.25 25.95L18.5 25.2L22.85 24.55" />
<path style="fill:#676783;fill-opacity:1" d="M22,12.75L22.15 12.5Q22.8 11.65 23.6 11.35Q24.5 11.2 25.05 11.7L25.2 11.85Q25.6 12.35 25.55 13.1Q25.55 14.1 24.9 14.95Q24.25 15.75 23.4 15.95Q22.55 16.2 22 15.65Q21.45 15.15 21.45 14.2Q21.5 13.45 22 12.75" />
<path style="fill:none;stroke-width:1;stroke-linecap:butt;stroke-linejoin:miter;stroke-miterlimit:3;stroke:#585454;stroke-opacity:1" d="M29.7,-0.5L28.35 -6.6L26.85 -13Q26.55 -17.35 24 -19.1Q22 -20.45 17.8 -20.45Q14.65 -20.45 12.3 -16.5Q10.65 -13.85 9.4 -9.5M22,-9.85Q22.8 -10.6 22.8 -11.95Q22.8 -15.8 18.4 -15.8Q17.9 -15.8 17.95 -15.6L17.4 -15.55L16.5 -14.65L16.35 -14.4Q15.75 -13.25 15.75 -12.25Q15.75 -10.9 16.7 -9.95Q17.6 -9.05 19 -9.05Q21 -9.05 22 -9.85M17.95,-15.6L17.5 -15.7L17.4 -15.55M-2.65,-12.35L-2.65 -11.25L-2.65 -10.8L-2.75 -9Q-2.95 -6.15 -3.7 -1.7L0.85 -1.65L5.85 -1.25L7.55 -1.05L9.25 -8.95L9.4 -9.5M33.95,5.55L33.95 6.05L33.9 6.5L32.65 9.6Q30.6 13.5 25.5 21.15L23.85 23.55L22.85 24.55L20.55 26.8L16.1 30.8Q12.35 33.8 7.95 33.8L-1.2 33.6L-4.05 33.5L-9.65 33.5L-10.95 33.45L-14.25 33.3L-21.9 33Q-27.1 32.2 -28.55 30.6Q-30 28.95 -30.6 27.25L-31.45 24.65L-31.5 24.55L-32.15 22.4L-34.3 14.6L-34.9 12.05L-34.9 11.95M-32.85,6.4L-33 5.3Q-33 2.75 -32.25 1.05L-32.05 0.6Q-31.5 -0.5 -30.6 -1.25L-30.2 -1.55L-29.6 -1.9L-29.55 -1.9Q-27.6 -2.95 -24.45 -3.05L-24.6 -9.1L-24.5 -11.9M-23.3,-17.2L-23.2 -17.45M-15,-21L-15 -22.15L-14.25 -28.5Q-14.25 -29.05 -15.2 -29.65Q-16.2 -30.3 -16.2 -31.5Q-16.2 -32.6 -15.3 -33.25Q-14.5 -33.8 -13.4 -33.8Q-12.45 -33.8 -11.55 -33Q-10.65 -32.1 -10.65 -31Q-10.65 -30.65 -11.2 -29.4Q-11.8 -28.1 -11.85 -26.15L-12.15 -21.1M-9.15,-21L-9.15 -26.95L-8.25 -27.2Q-6.9 -27.2 -6.95 -24.2L-7.2 -20.7M-3.7,-1.65L-3.7 -1.7L-4.15 -1.75M7.55,-1.05L7.2 0.5L7.15 0.65L5.4 6.9M-18.6,-2.95L-23.55 -3.1L-24.45 -3.05M-14.35,-11L-14.2 -11L-12.9 -10.9L-12.4 -10.8L-12.05 -10.55Q-11.85 -10.15 -11.85 -8Q-11.85 -5.55 -12.3 -5.4L-13.25 -5.4L-13.3 -5.4L-15.1 -5.35L-15.8 -5.3L-16.25 -5.3Q-16.15 -7 -16.35 -9.35Q-16.35 -10.1 -15.85 -10.5L-15.8 -10.5L-15.05 -10.9L-14.5 -11M-18.6,-2.95L-13.5 -2.65L-4.15 -1.75M-7.7,-5L-7.75 -9.05Q-7.7 -10.2 -7.1 -10.55L-6.45 -10.7L-6.4 -10.7Q-5.25 -10.7 -5.05 -10.25L-5 -10.05L-4.9 -7.7Q-4.9 -5.25 -5.2 -5.1L-5.45 -5.1L-7.7 -5" />
<path style="fill:none;stroke-width:1;stroke-linecap:butt;stroke-linejoin:miter;stroke-miterlimit:3;stroke:#91491A;stroke-opacity:1" d="M26,0.55L27.45 0.15L29.7 -0.5L34.45 -1.55Q35.95 -1.55 36.75 0.35Q37.4 1.85 37.4 3.85L37.2 4.15Q36.6 4.7 33.95 5.55L31.4 6.3L22 8.9L14.95 10.7L10.2 11.9L10.05 11.95M-28.45,11.95Q-31.65 11.6 -34.9 11.95L-35.5 12Q-37.4 11.85 -37.4 8.3L-37.4 7.95Q-37.35 6.8 -37.1 6.55L-35.45 6.3L-32.85 6.4M-24.5,-11.9Q-24.25 -15.3 -23.3 -17.2M-23.2,-17.45L-22.1 -18.95Q-20.25 -20.6 -15 -21L-12.15 -21.1L-11.75 -21.1L-9.15 -21L-7.2 -20.7L-7.15 -20.7Q-5.05 -20.2 -4.15 -19.2Q-2.8 -17.65 -2.65 -12.35M26,0.55L18.6 2.85L5.4 6.9L3.85 7.2L-3.4 7.2L-13.5 6.8M-13.55,7.6L-13.55 7.95L-13.55 9.15L-13.8 11.4M-13.55,11.4L-13.5 11.4L-8.95 11.85L-5.35 12.2L1.9 12.85L6.05 12.55L10.05 11.95M-24.5,-11.9Q-21.45 -13.1 -18.4 -13.5L-12.4 -13.75L-7.4 -13.25L-4.1 -12.65L-2.65 -12.35M-13.6,6.8Q-13.95 4.4 -16.45 3.8L-22.15 3.55L-26.8 3.75Q-27.85 4.1 -28.25 5.15L-28.6 6.45L-28.6 6.6L-28.65 7.35L-28.65 8.35L-28.7 10.3L-28.45 11.95Q-27.95 13.65 -26.2 14.35L-20.55 15Q-17.25 15 -15.65 14.35L-14.6 13.65Q-14.05 13 -13.8 11.4M-13.55,7.6L-13.6 6.8L-13.5 6.8M-28.6,6.45L-32.85 6.4" />
<path style="fill:none;stroke-width:1;stroke-linecap:butt;stroke-linejoin:miter;stroke-miterlimit:3;stroke:#878181;stroke-opacity:1" d="M10.05,11.95Q10.45 13.65 11.15 15.25Q12.9 19.65 16.3 23.15M18.5,25.2L16.3 23.15M-9.25,15.15L-10.15 24.6L-10.4 27.25L-10.95 33.45M18.5,25.2L20.55 26.8M-9.25,15.15L-8.95 11.85" />
<path style="fill:none;stroke-width:1;stroke-linecap:butt;stroke-linejoin:miter;stroke-miterlimit:3;stroke:#726E6E;stroke-opacity:1" d="M22,12.75L22.15 12.5Q22.8 11.65 23.6 11.35Q24.5 11.2 25.05 11.7L25.2 11.85Q25.6 12.35 25.55 13.1Q25.55 14.1 24.9 14.95Q24.25 15.75 23.4 15.95Q22.55 16.2 22 15.65Q21.45 15.15 21.45 14.2Q21.5 13.45 22 12.75z" />
</g>
</svg>
