<?xml version="1.0" encoding="utf-8"?>
<svg version="1.1" id="Layer_1"
xmlns="http://www.w3.org/2000/svg"
xmlns:xlink="http://www.w3.org/1999/xlink"
xmlns:author="http://www.sothink.com"
width="14px" height="7px"
xml:space="preserve">
<g id="33" transform="matrix(1, 0, 0, 1, 13.25, 2.7)">
<path style="fill:#FEFE05;fill-opacity:0.988235" d="M-4.35,-1.35L-2.95 -0.95L-1.95 -0.95L-1.9 -1.95L-1 -1.6L-0.15 -1.3L-0.75 -0.45L-1.4 0.1L-0.2 1.65L-1.9 2.9L-2.25 2.3Q-2.5 1.7 -2.7 1.7L-4.35 2.15L-4.4 2.15L-4 1.25L-4.4 1.2L-5 1.15L-8.2 0.95Q-10.4 0.95 -11.75 0.35L-5.1 -0.1L-5.05 -0.15L-5.05 -0.2L-3.85 -0.25L-4.5 -1.1L-4.35 -1.35" />
<path style="fill:none;stroke-width:1;stroke-linecap:butt;stroke-linejoin:miter;stroke-miterlimit:3;stroke:#FF6600;stroke-opacity:1" d="M-4.5,-1.1L-4.65 -1.35L-4.35 -1.35L-2.95 -0.95L-1.95 -0.95L-1.9 -1.95L-1 -1.6L-0.15 -1.3L-0.75 -0.45L-1.4 0.1L-0.2 1.65L-1.9 2.9L-2.25 2.3Q-2.5 1.7 -2.7 1.7L-4.35 2.15L-4.4 2.15L-4 1.25L-4.4 1.2L-5 1.15L-8.2 0.95Q-10.4 0.95 -11.75 0.35L-5.1 -0.1L-5.05 -0.15L-5.05 -0.2L-3.85 -0.25L-4.5 -1.1z" />
</g>
</svg>
