<?xml version="1.0" encoding="utf-8"?>
<svg version="1.1" id="Layer_1"
xmlns="http://www.w3.org/2000/svg"
xmlns:xlink="http://www.w3.org/1999/xlink"
xmlns:author="http://www.sothink.com"
width="60px" height="56px"
xml:space="preserve">
<g id="24" transform="matrix(1, 0, 0, 1, 28.65, 32.15)">
<path style="fill:#232222;fill-opacity:1" d="M8.5,-28.9Q8.5 -30.65 10.2 -29.8Q11.85 -28.95 11.85 -27.45Q11.85 -25.95 10.55 -25.95Q9.25 -25.95 8.75 -27.5L8.5 -28.9M29.35,-6.6Q30.7 -6.7 30.7 -5.15Q30.7 -3.5 29.35 -3.5Q28.35 -3.5 28.1 -4.15Q27.95 -4.5 28.05 -4.9Q28.05 -6.5 29.35 -6.6M0.45,19.15Q0.15 19.35 -0.2 19.5L-0.95 19L-1 18.65Q-1 17.85 -0.2 17.85Q0.65 17.85 0.65 18.65L0.45 19.15M21.75,14.55Q21.35 15.2 20.6 15.2Q19.95 15.2 19.8 14.65L19.75 14Q19.75 12.5 20.95 12.3Q22.1 12.05 22.1 13.6L21.75 14.55M-3.5,-31Q-3.5 -30.35 -3.95 -29.75Q-4.65 -28.9 -5.9 -28.9Q-6.75 -28.9 -6.95 -29.45L-6.95 -30.1Q-6.95 -31.45 -5.25 -32Q-3.5 -32.5 -3.5 -31M-12.5,-23.6Q-11.85 -24.45 -10.85 -24.45Q-9.9 -24.45 -9.6 -23.9L-9.45 -23.25Q-9.45 -22.55 -10.1 -21.9Q-10.75 -21.15 -11.8 -21.15Q-12.75 -21.15 -12.95 -21.75L-12.95 -22.45L-12.5 -23.6M-5.5,22.9Q-5.65 23.6 -6.6 23.6Q-8.1 23.6 -9.45 21.65L-10.45 19.8Q-10.45 18.1 -7.95 18.95Q-5.5 19.8 -5.5 21.9L-5.5 22.9M-26.6,0.7Q-24.55 1.25 -24.55 3.55Q-24.55 6.5 -25.95 6.5Q-27 6.5 -27.95 4.2L-28.65 1.95Q-28.65 0.15 -26.6 0.7" />
</g>
</svg>
