<?xml version="1.0" encoding="utf-8"?>
<svg version="1.1" id="Layer_1"
xmlns="http://www.w3.org/2000/svg"
xmlns:xlink="http://www.w3.org/1999/xlink"
xmlns:author="http://www.sothink.com"
width="1901px" height="273px"
xml:space="preserve">
<g id="216" transform="matrix(1, 0, 0, 1, 950.1, 136.5)">
<path style="fill:#B7B7DE;fill-opacity:1" d="M39.4,-102Q41.3 -105.35 44.7 -103.9Q47.8 -102.15 45.4 -98.15L44.05 -96.45Q42.15 -94.85 40.05 -96.3Q38.1 -97.75 38.35 -99.45Q38.4 -100.3 39.4 -102M124.25,-49.95L113.05 -57.9L112.35 -59L104.55 -64.55Q108.05 -71.25 98.95 -76.2Q90.35 -81.15 86.6 -75.85L84.15 -77.95L70.5 -86.95Q64.65 -91.2 63.6 -93.75Q62.75 -95.6 64.25 -98.1Q66 -101.25 70.1 -99.3Q74.9 -96.35 77.4 -95.5L87.6 -88.4Q94.25 -83 96.3 -82.7Q98.8 -82.25 105.9 -77.25Q114.15 -71.25 130.05 -63.1Q140.75 -55.9 136.55 -48.55Q135.4 -46.55 134.8 -46.3Q133.65 -45.4 131.1 -45.75L130.7 -47.6Q129.85 -50.25 127.3 -50.25L124.25 -49.95" />
<path style="fill:#8C8CB6;fill-opacity:1" d="M38.35,-99.45Q38.1 -97.75 40.05 -96.3Q42.15 -94.85 44.05 -96.45L45.4 -98.15Q47.8 -102.15 44.7 -103.9Q41.3 -105.35 39.4 -102Q38.4 -100.3 38.35 -99.45M44.85,-74.2L53.45 -89.55L56.4 -95.15L58 -97.85Q60.1 -100.75 62.4 -102.85L62.7 -103.05L62.95 -103.25Q66.85 -106.2 70 -106.05L73.65 -103.3Q79.1 -99.45 102.2 -84.8Q125.35 -69.95 139.15 -61.8Q148.25 -56.25 141.9 -42.35L139.5 -37.95L137.8 -34.8Q133.95 -28.05 130.9 -23.3L128.05 -22.5Q122.65 -21.05 120.1 -23.05L116.4 -25.45Q117.05 -25.7 117.7 -26.2Q119.8 -27.7 121.1 -30.05L121.55 -30.7L121.6 -31Q124 -34.95 122.7 -38.05Q124.45 -37.45 125.35 -37.45Q129.1 -37.45 130.05 -38.15Q131.2 -39.1 131.2 -42.95L131.1 -45.75Q133.65 -45.4 134.8 -46.3Q135.4 -46.55 136.55 -48.55Q140.75 -55.9 130.05 -63.1Q114.15 -71.25 105.9 -77.25Q98.8 -82.25 96.3 -82.7Q94.25 -83 87.6 -88.4L77.4 -95.5Q74.9 -96.35 70.1 -99.3Q66 -101.25 64.25 -98.1Q62.75 -95.6 63.6 -93.75Q64.65 -91.2 70.5 -86.95L84.15 -77.95L86.6 -75.85L86 -74.95Q83.4 -70.4 89.1 -66.2Q100.55 -58 104.25 -64.25L104.55 -64.55L112.35 -59L113.05 -57.9L124.25 -49.95L122.6 -49.8Q121.95 -49.7 121.15 -48.5Q120.3 -47.2 119.5 -47.15L109.1 -45.85Q107.65 -45.7 105.1 -44.25Q102.5 -42.65 101.1 -42.5L94.6 -40.95L93.8 -41.75Q86.5 -49.45 81.85 -52.75Q78.15 -55.3 68.1 -59.4Q58.5 -63.25 53.45 -66.75L52.55 -69.25Q51.85 -70.7 48.6 -70.2Q46.65 -71.75 44.85 -74.2M31.45,-91.4L36.65 -100.65Q39.75 -105.95 40.5 -106.35Q41.85 -107.2 46.95 -105.2L50.7 -102.65L46.2 -95.5L43.55 -91L39.7 -84.4L32.45 -91.1L31.45 -91.4M68.7,-81.7Q60.15 -89.2 55.6 -81.2Q54.5 -79.5 54.45 -75.5Q54.35 -70.2 57.25 -68.1Q62 -64.55 66.35 -67.4L69.7 -71.2Q71.35 -73.95 71.45 -75.55Q71.55 -78.4 68.7 -81.7M103.25,-32.6L98.7 -36.85Q104.2 -38.45 105.7 -38.45L105.8 -38.45L105.5 -35.75Q105.35 -33.25 106.2 -31.25L106.3 -30.85Q104.4 -31.7 103.25 -32.6" />
<linearGradient
id="LinearGradID_21" gradientUnits="userSpaceOnUse" gradientTransform="matrix(0.000549316, 0.0362701, -0.0665131, 0.00119019, 2.15, -41.45)" spreadMethod ="pad" x1="-819.2" y1="0" x2="819.2" y2="0" >
<stop  offset="0" style="stop-color:#66CCFF;stop-opacity:1" />
<stop  offset="1" style="stop-color:#FFFFFF;stop-opacity:1" />
</linearGradient>
<path style="fill:url(#LinearGradID_21) " d="M30.1,-49L29.6 -48.3L29.7 -48.2Q28.95 -46.85 28.75 -45.65L29.15 -44.75L30.1 -45.55L31.65 -43.4L31.55 -43.3L32.7 -39.7L34.3 -33.9L34.4 -33.45L34.3 -32.85L34.4 -31L34.3 -30.95L33.6 -30.8L30.4 -30.3L30.85 -29.4L32.65 -27.9L35.1 -26.3Q36.05 -25.9 36.9 -25.8Q37.9 -22.6 41.55 -18.6Q44.2 -15.65 46.15 -15.1L-25.9 -15.2L-29.1 -22.35Q-38.4 -41 -46.2 -41Q-51.45 -41 -54.2 -33.3Q-55.6 -29.6 -56.4 -24.2Q-56.95 -20.6 -57.3 -15.25L-111.6 -15.3Q-110.65 -22.05 -110.25 -27.15Q-109.95 -30.4 -109.95 -33L-109.95 -34.5L-109.95 -38.05Q-110.45 -55.3 -114.85 -60.35Q-117.65 -63.65 -124.7 -65.25L-124.8 -65.25L-124 -76.6Q-123.85 -86.45 -128.15 -86.45Q-129.85 -86.45 -131.15 -85.65L-131.2 -66.25L-139.7 -66.7L-141.1 -66.7Q-140.1 -78 -140.1 -83.15Q-139.9 -89.4 -137.85 -93.65Q-136.05 -97.65 -136.05 -98.9Q-136.05 -102.5 -139.1 -105.4Q-142.05 -107.95 -145.1 -107.95Q-148.85 -107.95 -151.35 -106.2Q-154.25 -104 -154.25 -100.55Q-154.25 -96.65 -151 -94.45Q-147.85 -92.45 -147.85 -90.6L-150.35 -70.05L-150.4 -66.3Q-167.7 -65 -173.65 -59.65Q-175.85 -57.8 -177.3 -54.75L-176 -53.7L-177.6 -53.9L-177.55 -121.5L178.05 -121L177.95 -14.9L140 -14.95L147.1 -25.15L147.85 -26.45Q150.3 -31.35 149.65 -34.55Q149 -37.8 144.15 -41.15Q143.05 -41.85 142.5 -41.65L141.9 -42.35Q148.25 -56.25 139.15 -61.8Q125.35 -69.95 102.2 -84.8Q79.1 -99.45 73.65 -103.3L70 -106.05Q66.85 -106.2 62.95 -103.25L62.7 -103.05L62.4 -102.85L61.45 -104.3Q55.95 -108.2 51.9 -104.1L50.7 -102.65L46.95 -105.2Q41.85 -107.2 40.5 -106.35Q39.75 -105.95 36.65 -100.65L31.45 -91.4L27.65 -83.55Q26.55 -81.35 28.95 -77.6Q31.75 -73.75 34.45 -73L34.65 -73.35Q33.15 -68.15 35.6 -65.4L34.1 -64.6L31.35 -62.6Q29.7 -61.2 30.25 -60.15L31.55 -59.85L30.9 -59.35Q27.15 -55.6 29.45 -48.7L30.1 -49M62.8,-36.5L60.1 -38.5L58.85 -39.8L59.6 -39.75L63.2 -36.3L62.8 -36.5M36.85,-37.1L36.9 -37.1L36.9 -36.65L36.85 -37.1M61.25,-31.95L59.9 -30.4Q59 -29.15 59 -28.5Q59 -27.35 61.55 -26.15Q64 -24.85 64 -23.65Q64 -22.45 67.5 -19.95L68 -20.2L68.05 -20.05L68.6 -19.15Q70.05 -16.7 71.35 -15.05L47.75 -15.1L48.25 -15.35Q50.3 -16.65 51.45 -24.2L51.55 -26.7L51.8 -26.75Q52.1 -29.1 53.75 -30.3L56.9 -32.85L61.25 -31.95M-50.55,-24.75L-50.45 -27.1L-49.8 -27.75L-49.3 -28.4L-49.1 -28.65Q-47.85 -29.75 -45.75 -29.75Q-43.4 -29.75 -41.8 -28.45Q-39.7 -26.7 -39.7 -23.1Q-39.75 -21.1 -40.55 -19.55Q-41.6 -17.65 -43.7 -17.65Q-46.55 -17.65 -48.55 -19.55Q-50.6 -21.55 -50.55 -24.6L-50.55 -24.75" />
<path style="fill:#F58D48;fill-opacity:1" d="M62.4,-102.85Q60.1 -100.75 58 -97.85L56.4 -95.15L53.45 -89.55L44.85 -74.2L44.6 -74.8Q43.75 -75.8 42.9 -79.3Q42.15 -82.55 40.8 -83.75L39.7 -84.4L43.55 -91L46.2 -95.5L50.7 -102.65L51.9 -104.1Q55.95 -108.2 61.45 -104.3L62.4 -102.85" />
<path style="fill:#595980;fill-opacity:1" d="M71.45,-75.55Q71.35 -73.95 69.7 -71.2L66.35 -67.4Q62 -64.55 57.25 -68.1Q54.35 -70.2 54.45 -75.5Q54.5 -79.5 55.6 -81.2Q60.15 -89.2 68.7 -81.7Q71.55 -78.4 71.45 -75.55M122.7,-38.05Q124 -34.95 121.6 -31L121.55 -30.7L121.1 -30.05Q119.8 -27.7 117.7 -26.2Q117.05 -25.7 116.4 -25.45Q112.85 -23.85 109.05 -26.5Q106.85 -28.05 106.3 -30.85L106.2 -31.25Q105.35 -33.25 105.5 -35.75L105.8 -38.45L110.1 -38L109.9 -37.75Q109.05 -36.3 109.05 -33.95Q108.8 -31.1 110.55 -29.95Q113.8 -27.65 116.75 -31.95Q118.35 -34.8 115.15 -38.15L115.05 -38.25L115.9 -38.4L119.8 -38.95Q120.5 -38.95 122.4 -38.15L122.7 -38.05M57.75,-74.4Q57.7 -72.3 59.2 -71.2Q61.45 -69.5 63.35 -71.05L65.05 -72.5Q67 -75.85 63.6 -78.2Q60.3 -80.35 58.55 -77.05Q57.9 -76 57.75 -74.4M104.55,-64.55L104.25 -64.25Q100.55 -58 89.1 -66.2Q83.4 -70.4 86 -74.95L86.6 -75.85Q90.35 -81.15 98.95 -76.2Q108.05 -71.25 104.55 -64.55M71.6,-38.6L71.1 -39.8Q69.55 -44.3 70.45 -45.85Q74.7 -53.15 82.45 -45.25Q85.05 -42.55 86.35 -40.05L85.25 -39.8L83.45 -39.3Q83.4 -41.6 81 -43.8Q77.25 -46.85 74.85 -42.7Q74.05 -41.4 74.5 -40.7L75.4 -39.6L71.6 -38.6M91.8,-71.75L91 -70.95Q89.5 -68.25 92.25 -66.3Q96.9 -62.8 98.6 -65.75Q99.5 -67.15 99.05 -68.5Q98.4 -69.85 96.65 -71.15Q93.55 -73.3 91.8 -71.75" />
<path style="fill:#FF6600;fill-opacity:1" d="M119.9,-6.85L122.25 -9.95L125.8 -14.95L130.9 -23.3Q133.95 -28.05 137.8 -34.8Q138.2 -34.3 138.95 -34.15L142.85 -32Q145.8 -29.85 147.85 -26.45L147.1 -25.15L140 -14.95L136.2 -9.5Q132.8 -3.95 130.85 -2.25Q128.2 -0.65 124.65 -3.2Q124 -3.55 119.9 -6.85M39.7,-84.4L40.8 -83.75Q42.15 -82.55 42.9 -79.3Q43.75 -75.8 44.6 -74.8L44.85 -74.2L42.8 -69.9L42.25 -68.35Q38.2 -66.8 35.6 -65.4Q33.15 -68.15 34.65 -73.35L35.75 -76.65L39.7 -84.4" />
<path style="fill:#3D3D5F;fill-opacity:1" d="M58.55,-77.05Q60.3 -80.35 63.6 -78.2Q67 -75.85 65.05 -72.5L63.35 -71.05Q61.45 -69.5 59.2 -71.2Q57.7 -72.3 57.75 -74.4Q57.9 -76 58.55 -77.05M78.8,-37.95L77.5 -37.95L78.1 -39.9L77 -39.9L75.4 -39.6L74.5 -40.7Q74.05 -41.4 74.85 -42.7Q77.25 -46.85 81 -43.8Q83.4 -41.6 83.45 -39.3L78.8 -37.95M96.65,-71.15Q98.4 -69.85 99.05 -68.5Q99.5 -67.15 98.6 -65.75Q96.9 -62.8 92.25 -66.3Q89.5 -68.25 91 -70.95L91.8 -71.75Q93.55 -73.3 96.65 -71.15M111.5,-37.9L115.05 -38.25L115.15 -38.15Q118.35 -34.8 116.75 -31.95Q113.8 -27.65 110.55 -29.95Q108.8 -31.1 109.05 -33.95Q109.05 -36.3 109.9 -37.75L110.1 -38L111.5 -37.9" />
<path style="fill:#6E6E98;fill-opacity:1" d="M32.45,-91.1L39.7 -84.4L35.75 -76.65L34.65 -73.35L34.45 -73Q31.75 -73.75 28.95 -77.6Q26.55 -81.35 27.65 -83.55L31.45 -91.4L32.45 -91.1M104.05,-17.05L96 -27.45L95.85 -27.45L95 -27.75L93.7 -28.1L93.7 -28.55L93.05 -34.9Q93.85 -35.45 98.7 -36.85L103.25 -32.6Q104.4 -31.7 106.3 -30.85Q106.85 -28.05 109.05 -26.5Q112.85 -23.85 116.4 -25.45L120.1 -23.05Q122.65 -21.05 128.05 -22.5L130.9 -23.3L125.8 -14.95L122.25 -9.95L119.9 -6.85Q115.55 -1.95 111.6 0L111.65 -0.5Q111.65 -5.8 104.5 -15.6Q104.05 -16.15 104.05 -17.05M92.2,-40.05L91.85 -41.65Q90.45 -41.05 86.35 -40.05Q85.05 -42.55 82.45 -45.25Q74.7 -53.15 70.45 -45.85Q69.55 -44.3 71.1 -39.8L71.6 -38.6L69.85 -38.05Q66.85 -36.95 64.85 -35.7Q63.8 -36.05 63.2 -36.3L59.6 -39.75L60.1 -39.8Q61.75 -40.15 63.3 -41.1Q65.75 -42.6 66.15 -45.5Q66.55 -48.05 65.15 -50.9Q64.35 -52.4 63.05 -53.6Q61.25 -55.4 59.8 -54.5L58.45 -53.15Q57.65 -52.35 57.65 -51.75L57.45 -51.85L55.7 -55.2L54.45 -62.15L53.45 -66.75Q58.5 -63.25 68.1 -59.4Q78.15 -55.3 81.85 -52.75Q86.5 -49.45 93.8 -41.75L94.6 -40.95L92.2 -40.05M42.8,-69.9L44.85 -74.2Q46.65 -71.75 48.6 -70.2Q46.4 -69.9 43.15 -68.7L42.25 -68.35L42.8 -69.9" />
<path style="fill:#FFFFFF;fill-opacity:1" d="M177.95,-14.9L178.05 -121L-177.55 -121.5L-177.6 -53.9L-177.65 -38L-177.65 -7.95L-177.65 -3.05L-177.7 6.8L-177.7 7.7L-177.7 15L-177.75 45L-177.75 54.55L-177.8 74.95L-177.8 82.2L-177.8 91.8L-177.8 91.95L-177.8 100.15L-177.85 121.95L177.75 122.45L177.85 59.35L177.85 46.05L177.85 42.2L177.95 -14.9M47.75,-15.1L46.15 -15.1Q44.2 -15.65 41.55 -18.6Q37.9 -22.6 36.9 -25.8Q36.05 -25.9 35.1 -26.3L32.65 -27.9L30.85 -29.4L30.4 -30.3L33.6 -30.8L34.3 -30.95L34.4 -31L35.1 -31.25Q35.05 -30.4 35.6 -29.2Q35.95 -28.45 37.05 -28.35Q37.85 -28.35 38.8 -29Q39.8 -29.65 40.25 -31.1Q40.75 -32.65 41.75 -33.25L42.75 -33.2Q43.5 -33.2 43.9 -33.5Q44.95 -34.05 44.35 -35.35L46.35 -37.05L47.9 -37.85Q48.9 -38 49.55 -38.4Q50.4 -38.95 51.15 -40.2Q51.95 -41.4 51.95 -42.35L52.1 -42.4Q53.65 -38.9 52.75 -35.5L51.5 -33.2Q52.25 -31.6 51.55 -26.7L51.45 -24.2Q50.3 -16.65 48.25 -15.35L47.75 -15.1M32.7,-39.7L31.55 -43.3L31.65 -43.4L32.35 -44.2L34.25 -44.85L35.7 -41.55L35.8 -41.05L35.95 -40.75Q34.1 -39.7 32.7 -39.7M30.1,-49Q31.4 -51.25 32.35 -49.4Q33 -48.2 31.55 -46.85L30.25 -45.7L30.1 -45.55L29.15 -44.75L28.75 -45.65Q28.95 -46.85 29.7 -48.2L29.6 -48.3L30.1 -49M57.55,-51.2L56.8 -50.75Q56.35 -50.15 56.65 -48.3Q56.7 -46.9 54.95 -45.8L54.55 -45.7Q53.95 -47 53 -50.6Q52.25 -53.5 51.45 -55.05Q50.9 -56 48.3 -57.3Q45.8 -58.5 45.35 -59.3L45.2 -59.5Q45.15 -60.35 46.1 -62.75Q47.25 -65.55 47.1 -65.8L41.35 -63.45L39.95 -62.85L38.85 -62.4Q33.6 -60.15 31.55 -59.85L30.25 -60.15Q29.7 -61.2 31.35 -62.6L34.1 -64.6L35.6 -65.4Q38.2 -66.8 42.25 -68.35L43.15 -68.7Q46.4 -69.9 48.6 -70.2Q51.85 -70.7 52.55 -69.25L53.45 -66.75L54.45 -62.15L55.7 -55.2L57.45 -51.85L57.65 -51.75L57.55 -51.2M44.15,-52.85L41.9 -52.4Q39.8 -51.65 37.25 -50.05L36.7 -51.9Q36.45 -52.8 37.5 -53.4Q38.85 -54.3 42.45 -54.4L44.45 -54.3L46.6 -53.9L46.15 -53.4L45.45 -53.1L44.15 -52.85M39,-47.25L38.7 -47L38.5 -47.1L38.5 -45.95L39 -44.75L39.05 -44.65L39.05 -44.6L39.15 -44.45Q39.65 -43.25 40.3 -43.25Q41.75 -43.25 42.1 -45L42.2 -46.9L41.65 -48.05L41.45 -48.05Q40.8 -48.05 39.85 -47.5L39 -47.25M40.45,-45.25L40.5 -44.75L40.45 -45.15L40.45 -45.25M37.85,-47.5L41.1 -48.55L44.95 -49.4Q45.95 -49.4 45.95 -47.25Q45.95 -44.6 44.65 -43.25Q43.5 -41.95 41.6 -41.95Q39.95 -41.95 38.85 -44.05Q37.9 -45.7 37.85 -47.5M34.15,-41.95Q34.75 -42.2 34.75 -42.8Q34.75 -43.95 33.8 -43.95L33.6 -43.95Q32.35 -43.8 32.35 -43.15L32.55 -42.6Q32.85 -41.85 33.3 -41.85L34 -41.95L34.1 -41.85L34.15 -41.95M39.5,-25.7Q40.25 -25 42.3 -25.7Q44 -26.2 45.05 -26.95L46.15 -28.15Q46.65 -28.7 46.75 -29.35Q45.5 -28.7 44.5 -28.7Q42.9 -28.7 41.3 -27.75L39.6 -26.35L39.45 -26.2L39.5 -25.7M189.9,135L-190.2 134.5L-189.9 -135L190.2 -134.5L189.9 135" />
<path style="fill:#F0B98F;fill-opacity:1" d="M34.4,-31L34.3 -32.85L34.4 -33.45L34.3 -33.9L32.7 -39.7Q34.1 -39.7 35.95 -40.75Q36.75 -38.9 36.9 -37.1L36.85 -37.1L36.9 -36.65Q37.1 -34.8 35.75 -32.85Q35.25 -32.15 35.25 -31.35L35.1 -31.25L34.4 -31M29.45,-48.7Q27.15 -55.6 30.9 -59.35L31.55 -59.85Q33.6 -60.15 38.85 -62.4L39.95 -62.85L41.35 -63.45L47.1 -65.8Q47.25 -65.55 46.1 -62.75Q45.15 -60.35 45.2 -59.5L42.45 -58.95L42.1 -58.85Q38.65 -58.3 38.15 -57.9Q35.75 -56.45 35.05 -54.55Q34.25 -52.8 34.6 -49.8L34.8 -45.95Q35.15 -43.55 36.25 -42.5L35.7 -42.25L35.8 -41.05L35.7 -41.55L34.25 -44.85L32.35 -44.2L31.65 -43.4L30.1 -45.55L30.25 -45.7L31.55 -46.85Q33 -48.2 32.35 -49.4Q31.4 -51.25 30.1 -49L29.45 -48.7M39.45,-26.2L39.6 -26.35L41.3 -27.75Q42.9 -28.7 44.5 -28.7Q45.5 -28.7 46.75 -29.35Q46.65 -28.7 46.15 -28.15L45.05 -26.95Q44 -26.2 42.3 -25.7Q40.25 -25 39.5 -25.7L39.45 -26.2" />
<path style="fill:#DBA072;fill-opacity:1" d="M93.05,-34.9L92.85 -36.05L92.2 -40.05L94.6 -40.95L101.1 -42.5Q102.5 -42.65 105.1 -44.25Q107.65 -45.7 109.1 -45.85L119.5 -47.15Q120.3 -47.2 121.15 -48.5Q121.95 -49.7 122.6 -49.8L124.25 -49.95L127.3 -50.25Q129.85 -50.25 130.7 -47.6L131.1 -45.75L131.2 -42.95Q131.2 -39.1 130.05 -38.15Q129.1 -37.45 125.35 -37.45Q124.45 -37.45 122.7 -38.05L122.4 -38.15Q120.5 -38.95 119.8 -38.95L115.9 -38.4L115.05 -38.25L111.5 -37.9L110.1 -38L105.8 -38.45L105.7 -38.45Q104.2 -38.45 98.7 -36.85Q93.85 -35.45 93.05 -34.9M56.9,-32.85L53.75 -30.3Q52.1 -29.1 51.8 -26.75L51.55 -26.7Q52.25 -31.6 51.5 -33.2L52.75 -35.5Q53.65 -38.9 52.1 -42.4L51.95 -42.35Q51.95 -41.4 51.15 -40.2Q50.4 -38.95 49.55 -38.4Q48.9 -38 47.9 -37.85L46.35 -37.05L44.35 -35.35Q44.95 -34.05 43.9 -33.5Q43.5 -33.2 42.75 -33.2L41.75 -33.25Q40.75 -32.65 40.25 -31.1Q39.8 -29.65 38.8 -29Q37.85 -28.35 37.05 -28.35Q35.95 -28.45 35.6 -29.2Q35.05 -30.4 35.1 -31.25L35.25 -31.35Q35.25 -32.15 35.75 -32.85Q37.1 -34.8 36.9 -36.65L36.9 -37.1Q36.75 -38.9 35.95 -40.75L35.8 -41.05L35.7 -42.25L36.25 -42.5Q35.15 -43.55 34.8 -45.95L34.6 -49.8Q34.25 -52.8 35.05 -54.55Q35.75 -56.45 38.15 -57.9Q38.65 -58.3 42.1 -58.85L42.45 -58.95L45.2 -59.5L45.35 -59.3Q45.8 -58.5 48.3 -57.3Q50.9 -56 51.45 -55.05Q52.25 -53.5 53 -50.6Q53.95 -47 54.55 -45.7L54.95 -45.8Q56.7 -46.9 56.65 -48.3Q56.35 -50.15 56.8 -50.75L57.55 -51.2L57.65 -51.75Q57.65 -52.35 58.45 -53.15L59.8 -54.5Q61.25 -55.4 63.05 -53.6Q64.35 -52.4 65.15 -50.9Q66.55 -48.05 66.15 -45.5Q65.75 -42.6 63.3 -41.1Q61.75 -40.15 60.1 -39.8L59.6 -39.75L58.85 -39.8L60.1 -38.5L62.8 -36.5L63.2 -36.3Q63.8 -36.05 64.85 -35.7L66.6 -35.15Q68.2 -34.65 68.85 -33.95L68.7 -33.9Q70.05 -33 70.85 -30.1L71.15 -28.8L72.25 -23.75Q72.65 -22.05 73.3 -20.7Q72.1 -21.6 69.35 -25.25Q66.75 -28.7 66.05 -30.7L63 -31.55L61.25 -31.95L56.9 -32.85M45.45,-53.1L46.15 -53.4L46.6 -53.9L44.45 -54.3L42.45 -54.4Q38.85 -54.3 37.5 -53.4Q36.45 -52.8 36.7 -51.9L37.25 -50.05Q39.8 -51.65 41.9 -52.4L44.15 -52.85L45.45 -53.1M38.85,-44.05Q39.95 -41.95 41.6 -41.95Q43.5 -41.95 44.65 -43.25Q45.95 -44.6 45.95 -47.25Q45.95 -49.4 44.95 -49.4L41.1 -48.55L37.85 -47.5Q37.9 -45.7 38.85 -44.05M60.8,30.35L60.7 34.55L60.7 34.7L59.8 34.55L56.9 34.65L56.75 33.05L56.85 32.35Q56.95 31.6 57.4 31Q58.5 29.55 60 30.3L60.8 30.3L60.8 30.35M63.75,30.6L63.85 30.6L69.1 31.15L69.15 15.85Q69.1 14.65 68.2 14.25Q67.4 13.9 67.4 12.7L70.6 11.25Q74.5 9 77.85 4.3L78.4 3.7L78.4 3.8L80.7 6.75L81.75 7.95L81.15 8.55L74.85 14.55Q73.05 16.4 73.05 22.4Q73 24.35 74.95 31.5L74.9 33.2L73.45 34.7L71.2 34.3L66.95 33.8L63.55 34.4Q63.85 32.05 63.75 30.95L63.75 30.6M125.85,26.75L124.7 28.95L122.3 33.85Q121.45 36.05 118.75 36.3L119.2 31.95L119.1 30.4L118.75 30.4L120.05 28.9Q120.9 27.95 120.9 26.65L114.8 24.1Q109.9 21.9 109.05 21.9L107.25 22.45L105.1 23.05Q103.15 23.05 103.2 21.2Q103.2 19.8 103.85 19.65L105.8 19.65L105.8 15.9Q105.3 14.35 105.15 12.35L105.15 8.9L105.05 4.9L105.15 4.8L109 2.8L109.85 2.7L110.35 17.95Q115.05 19.6 122.45 23.65L123.45 24.25L123.65 24.3L124.9 24.8L124.9 26.4L125.85 26.75M114.45,31.85L116.2 31.55L116.15 32.05L116.1 32.65L115.95 36.2L114.2 36.35L114.2 36.5L114.25 36.6L114.25 36.75L114.2 36.75L114.15 36.7L114 36.6Q112.1 34.9 112.1 34.05Q112.1 33.45 113.05 32.7L113.5 32.35Q113.95 32.05 114.45 31.85" />
<path style="fill:#294F62;fill-opacity:1" d="M39.85,-47.5Q40.8 -48.05 41.45 -48.05L41.65 -48.05L42.2 -46.9L42.1 -45Q41.75 -43.25 40.3 -43.25Q39.65 -43.25 39.15 -44.45L39.05 -44.6L39.05 -44.65L39 -44.75L38.5 -45.95L38.5 -47.1L38.7 -47L39 -47.25L39.85 -47.5M40.45,-45.15L40.5 -44.75L40.45 -45.25L40.45 -45.15M40.45,-44.6Q40 -46.9 39.05 -46.5L39.05 -45.55Q39.65 -44.6 40.3 -44.1L40.45 -44.6M34.75,-42.8Q34.75 -42.2 34.15 -41.95L34.15 -43.05L34.15 -43.15L34.25 -43.65L34.15 -43.85L33.8 -43.95Q34.75 -43.95 34.75 -42.8M33.3,-41.85Q32.85 -41.85 32.55 -42.6L32.35 -43.15Q32.35 -43.8 33.6 -43.95L33.8 -43.95Q33.65 -43.85 33.65 -43.55L33.5 -43.55L33.45 -43.4L33.35 -43.25L33.35 -43.15L33.35 -43Q33.35 -42.25 33.85 -42.2L34 -41.95L33.3 -41.85M40.8,-47.65L40.6 -46.9Q40.6 -46.35 41.1 -46.35L41.45 -46.45L41.6 -47.4L40.8 -47.65" />
<path style="fill:#15191C;fill-opacity:1" d="M40.3,-44.1Q39.65 -44.6 39.05 -45.55L39.05 -46.5Q40 -46.9 40.45 -44.6L40.3 -44.1M34.1,-41.85L34 -41.95L33.85 -42.2Q33.35 -42.25 33.35 -43L33.35 -43.15L33.35 -43.25L33.45 -43.4L33.5 -43.55L33.65 -43.55L33.65 -43.15Q33.65 -43.05 33.85 -43.05L34.15 -43.05L34.15 -41.95L34.1 -41.85" />
<path style="fill:#E5EAEC;fill-opacity:1" d="M33.85,-43.05Q33.65 -43.05 33.65 -43.15L33.65 -43.55Q33.65 -43.85 33.8 -43.95L34.15 -43.85L34.25 -43.65L34.15 -43.15L34.15 -43.05L33.85 -43.05M41.6,-47.4L41.45 -46.45L41.1 -46.35Q40.6 -46.35 40.6 -46.9L40.8 -47.65L41.6 -47.4" />
<path style="fill:#F3B288;fill-opacity:1" d="M-141.1,-66.7L-139.7 -66.7L-131.2 -66.25L-124.8 -65.25L-124.7 -65.25Q-117.65 -63.65 -114.85 -60.35Q-110.45 -55.3 -109.95 -38.05L-114.7 -39.1L-115.15 -39.9Q-116 -41.75 -117.6 -47.45Q-118.7 -51.45 -120.35 -53.2Q-124.05 -56.65 -129.6 -59.1Q-135.75 -61.6 -141.65 -61.6Q-151.2 -61.6 -176 -53.7L-177.3 -54.75Q-175.85 -57.8 -173.65 -59.65Q-167.7 -65 -150.4 -66.3L-141.1 -66.7M-177.7,15L-177.7 7.7L-176.7 7.7L-167.6 7.85L-157.9 8.65Q-153 9.75 -150.6 13.05Q-149 15.15 -148.5 18.2L-148.5 18.45Q-148.35 19.65 -148.35 21L-148.2 18.45L-114.9 19.85L-91 19.9Q-90.05 19.9 -86 18.75L-77.9 16.5L-57.1 10.4L-56 10L-55.2 9.65L-42.55 5.65L-27.95 1.05L-20.25 -1.25L-18.05 -1.85L-13.2 -3.2L-5.85 -5.3L1.75 -7.3Q7.6 -8.75 9.75 -8.75Q14.6 -8.75 17.35 -2.5Q19.45 2.55 19.45 9.05L18.55 9.25Q15.25 -1.1 7.8 -1.1L-0.85 -0.1L-6.3 1.05L-11.15 2.15L-16.85 3.6L-24 5.55Q-34.25 8.55 -47.25 13.05L-48.65 13.5L-53.1 15.05L-61.65 17.8L-81.05 23.9L-83.35 24.55L-84.65 24.85L-85.55 25.1L-85.85 25.2L-86.5 25.35Q-92.7 27.05 -94.5 27.05L-108.5 26L-113.7 25.6L-122.75 24.65L-146.25 22.45L-148.35 22.3L-148.5 26.05L-148.5 26.15Q-148.55 30.25 -149.2 33.45Q-150.15 38.75 -151.8 40.75Q-152.95 42.1 -155.35 43.1Q-155.15 38 -154.2 30.45Q-154.2 27.8 -154.9 25.55Q-158.55 15.85 -177.7 15" />
<linearGradient
id="LinearGradID_22" gradientUnits="userSpaceOnUse" gradientTransform="matrix(-0.000686646, 0.0919037, -0.0767975, -0.00119019, 2.05, 56.75)" spreadMethod ="pad" x1="-819.2" y1="0" x2="819.2" y2="0" >
<stop  offset="0" style="stop-color:#BAE7BF;stop-opacity:1" />
<stop  offset="1" style="stop-color:#61B46A;stop-opacity:1" />
</linearGradient>
<path style="fill:url(#LinearGradID_22) " d="M177.85,42.2Q166.05 42.75 151.4 41.65L118.9 40.6L61.85 38.6L65.85 37.9L70.35 38L74.95 38.7L74.95 35.05L73.45 34.7L74.9 33.2L74.95 31.5Q73 24.35 73.05 22.4Q73.05 16.4 74.85 14.55L81.15 8.55L81.75 7.95L81.8 8.05Q86.15 13.2 88.4 13.2Q89.4 13.2 92 9.9L94.5 6.45Q96.4 9.3 96.9 9.3L105.05 4.9L105.15 8.9L105.15 12.35Q105.3 14.35 105.8 15.9L105.8 19.65L103.85 19.65Q103.2 19.8 103.2 21.2Q103.15 23.05 105.1 23.05L107.25 22.45L109.05 21.9Q109.9 21.9 114.8 24.1L120.9 26.65Q120.9 27.95 120.05 28.9L118.75 30.4L117.5 29.85L116.35 29.85L116.2 31.55L114.45 31.85L108.4 31.7L107.9 32.1L108.15 32.75L113.05 32.7Q112.1 33.45 112.1 34.05Q112.1 34.9 114 36.6L114.15 36.7L114.2 36.75L114.25 36.75L114.2 39.5Q114.15 40.15 115.35 40.15L120.7 39.9Q122.1 39.9 123.3 38.75L124.9 36.75L127.85 32.25Q130.1 28.4 130.1 27.2Q130.1 26.75 128.45 25.75Q126.9 24.8 126.55 24.8L125.85 26.75L124.9 26.4L124.9 24.8L123.65 24.3L123.45 24.25L122.45 23.65Q115.05 19.6 110.35 17.95L109.85 2.7L109 2.8L109.75 2.25Q111.3 1.1 111.6 0Q115.55 -1.95 119.9 -6.85Q124 -3.55 124.65 -3.2Q128.2 -0.65 130.85 -2.25Q132.8 -3.95 136.2 -9.5L140 -14.95L177.95 -14.9L177.85 42.2M-57.75,2.65L-57.4 8.1L-59.45 5.85Q-66.1 -0.4 -76.45 -1.05L-76.45 -1.3L-82.1 -1.85Q-87.6 -3.25 -98.5 -3.3L-113.45 -3.35L-113.45 -3.3L-114.9 -3.5L-113.45 -3.35Q-112.35 -9.85 -111.6 -15.3L-57.3 -15.25Q-57.75 -7.95 -57.75 2.65M-25.9,-15.2L46.15 -15.1L47.75 -15.1L71.35 -15.05L71.75 -14.6L76.45 -8L78.85 -5.3Q78.5 -4.15 77.1 -2.65L75 -0.4L78.4 3.7L77.85 4.3Q74.5 9 70.6 11.25L67.4 12.7Q67.4 13.9 68.2 14.25Q69.1 14.65 69.15 15.85L69.1 31.15L63.85 30.6L63.75 30.6Q63.45 29.1 61.95 28.3L60.95 28.3L60.8 30.3L60 30.3Q58.5 29.55 57.4 31Q56.95 31.6 56.85 32.35L55.5 32.1L55.5 32.65Q55.75 33.05 56.55 33.15L56.75 33.05L56.9 34.65Q55.3 35.3 55.3 37.65L55.2 38.25L54.75 38.2L-0.75 35.7L3.8 27.8Q7.3 20.95 7.95 17.65L8 16.2L7.95 14.6Q16.75 11.65 18.8 10.05Q19.45 9.45 19.45 9.05Q19.45 2.55 17.35 -2.5Q14.6 -8.75 9.75 -8.75Q7.6 -8.75 1.75 -7.3L-5.85 -5.3L-13.2 -3.2L-18.05 -1.85L-20.25 -1.25L-25.9 -15.2M62.4,65.85Q61.3 76.55 59.95 91.6L52.3 93.25Q51.05 93.6 51.05 94.45Q51.05 95.5 51.2 95.75Q51.65 96.9 53.45 96.9L57.3 96.6L61.05 96.05L88.15 96.2L97.8 95.85Q98.75 95.3 98.75 93.85Q98.75 91.6 96.6 91.3L88.1 91.1L88.35 89.4L88.35 85.35L88.1 79.35L88.65 79.35L89.2 78.6L88.05 78.35L87.65 68L87.55 58.8L113.9 60.15L149.1 59.7L149.3 60.65L149.55 65.5L149.4 69.8L149.2 76.15L148.8 87.95L140.15 88.35Q134.9 89.55 133 90.4Q131.5 91.2 131.5 92.15L131.7 93.7Q133 95.05 138.95 95.1L146.6 94.4L154.7 93.65L172.45 94.65Q175.05 94.65 176 93.95Q176.65 93.45 176.65 92.4Q176.65 90.85 175.05 90Q176.05 86.5 175.95 78.75L175.5 70.1L175.1 60.25L175.1 59.4L177.85 59.35L177.75 122.45L-177.85 121.95L-177.8 100.15L-172 99L-150.85 98.9Q-148.95 98.9 -148.8 96.85L-147.95 96.85Q-147.9 97.75 -148.6 98.95Q-148.15 99.75 -141.9 99.75L-130.05 99.15L-118.75 97.65L-87.45 97.45Q-86 99.85 -84.65 99.85L-64.55 99.85L-42.9 97.4Q-31.3 95.65 -29 93.9Q-28.35 94.85 -26.25 94.85L-24.25 94.6L-1.25 94.4L6.9 92.5Q8.2 92 8.2 90.35Q8.2 88.3 6.1 88L2.15 88.15Q2.85 80.95 2.85 71.55L2.85 63.05L2.85 54.1L25.1 55.45L63.25 57.5L62.4 65.85M-176.35,91.9L-176.85 91.9L-177.8 91.95L-177.8 91.8L-176.35 91.9M132.75,30.6Q132.65 30.5 132.65 31.2Q132.65 32.45 132.85 31.7L140.2 32L145.2 31.5L145.4 30.8L140.95 30.55L133.15 30.75L132.75 30.6M116.45,72.5Q115.45 72.5 112.4 74.65Q112.7 75.15 114.65 75.15L119.35 74.8L120.2 73.6Q117.4 72.5 116.45 72.5M96.45,70.7Q97.45 70.25 98.4 69.75Q95.65 69.1 93.55 70.9Q93.75 71.25 94.65 71.4L96.45 70.7M136.55,76.55L142.6 76.55L144.05 75.45Q143.85 75.2 136.9 75.45L136.5 75.25Q136.35 75.2 136.35 75.9Q136.35 77.1 136.55 76.55M38.75,32.5L38.55 32.1Q35.6 31.05 35.5 31.35L35.6 32.55L38.1 32.65L38.75 32.5M34.4,64.6L33.05 64.35L28.35 64.6L28.05 64.45Q27.9 64.35 27.9 65.1Q27.9 66.3 28.15 65.55L32.9 65.55Q34.15 65.25 34.4 64.6M-28.65,76.65L-25.4 73.25L-21.3 67.6L-21.35 68.45Q-21.55 78.15 -22.2 83.75L-22.2 89.8L-23.95 89.8Q-27.5 90.1 -28.7 91L-29 91.3Q-29.3 91 -29.75 90.9L-41.05 90.3L-43.05 90.35L-42.95 90.2L-36.15 83.85L-28.65 76.65M-18.55,89.75L-17.25 89.35L-15.25 89.7L-18.55 89.75M11.45,78.3Q11.45 79.25 11.7 79.5L26.65 79.8Q31.1 79.3 31.4 78.55L27.7 78.4L12.9 78.35L11.45 78.3M9.65,92.35L13.75 92.75L15.1 92.4L17.9 91.75Q20.5 91.6 20.95 90.6L14.5 90.1L14 90.8L9.65 91.05L9.6 90.8Q9.45 90.8 9.45 91.55Q9.45 92.75 9.65 92.35M36.25,87.95L30.75 89.15L30.95 89.9L33.8 89.9L36.9 89.25Q38.85 88.6 39.8 87.8L36.25 87.95M51,78.4Q50.85 78.35 50.85 79.05Q50.85 80.25 51.05 79.55L54.3 79.8L60.4 79.35Q60.65 78.6 61.1 78.15L51.35 78.55L51 78.4M70.65,107.55Q67.05 108.75 62.4 109.05Q60.6 106.95 57.85 107.15L49.85 106.75L47.9 105.25L47.8 105.15Q47.75 104.65 47.45 104.6L46.8 104.65L46.65 104.5L46.45 104.6L45.85 104.6L45.85 104.85L45.8 104.9L40.35 106.75Q33.35 108.7 25.9 108.7L22.45 106.05Q19.2 103.6 16.6 104.3L16.6 105.25L18.35 106.3L20.8 110.6Q25.2 115.5 34.55 115.5Q40.6 115.5 45.95 108.3Q47.5 109.8 51.2 110.45L51.35 110.55Q54.4 112.05 57.1 112.6L61.2 112.65L62.7 111.2L65.25 111.4Q68.05 111.4 70.65 110Q72.8 108.8 72.8 108.25L72.65 107.45L72.55 107.55L70.65 107.55M45.3,107.5L44.35 108.2L44.85 107.25L45.15 107.25L45.3 107.5M47.15,106.75L48.25 107.7L47.15 107.25L47.15 106.75M37.4,109L37.9 108.85L37.85 109L37.4 109M30.85,113.25L30.85 112.85L30.95 112.35L32.35 113.25L30.85 113.25M146.1,106.65Q142.75 107.85 137.55 107.85Q129.6 107.8 126.85 104.95Q126.2 104.1 125.7 104.45L122.7 107.6Q121.3 109.1 113.95 110.55Q106.35 112.05 104 114.3L108.75 114.8L114.15 115.1Q117.35 115.1 121.65 112.45Q124.85 110.65 126.15 109.1L128.4 110.8L137.8 111.5Q145 111.5 147.85 107.15Q147.45 106.65 146.1 106.65M130.25,107.8L137 108.85Q131.05 108.6 130.4 108.05L130.25 107.8M-168.65,-14.9L-168.95 -14.9L-168.65 -15.3L-168.65 -14.9M-119.1,-14.5L-119.65 -14.05L-125.95 -14.05L-126.55 -14.1L-119.1 -14.5M-45.9,91.25L-46.05 91.8L-52.5 93.3L-45.9 91.25M-32.85,98.95Q-32.85 99.6 -33.25 99.85Q-33.7 100.05 -33.7 100.4Q-33.7 101.6 -33.5 100.85L-30.25 101.3L-28.95 101.45L-13.6 99.95L-13.3 100.05L-13.3 99.3Q-13.3 98.7 -13.95 98.45L-15.7 97.65L-28.05 97.5L-28.05 97.75L-32.7 98L-32.85 98.95M-9.4,97Q-10.3 97.25 -10.15 97.8L-5.4 98.35Q-4.05 99.1 -2.65 99.1Q-2.05 99.1 -0.05 97.05Q-7.85 96.5 -9.4 97M-148.5,18.45L-148.5 18.2L-148.3 18.45L-148.5 18.45M-139.8,107.8L-142.6 107.3L-141.5 106.75L-139.8 107.8M-123.85,113.2L-123.95 113.05L-123.95 112.35L-124.3 111.7Q-131.9 110.65 -136.3 108.35Q-138.9 107 -142.95 104.1Q-146.2 102.5 -149.6 105.05Q-154 108.45 -159.8 108.45Q-161.85 107.45 -162.7 107.45L-162.05 108.1L-163.55 107.7L-163.55 108.45Q-162.9 109 -162.9 109.25L-160.15 109.5L-159.25 109.95L-156.35 111.15L-157.3 112.05L-157.1 112.35L-155.25 111.5L-150.4 112.05Q-147.6 112.05 -146 110.3Q-144.4 108.45 -142.55 108.45Q-133.05 112.4 -131.55 113.4L-125.95 113.4L-125.8 113.4L-124.6 113.4Q-123.95 113.4 -123.85 113.2M-145.85,104.35L-145 104.8L-147.25 105.05L-145.85 104.35M-153.5,110.85Q-152.8 110.7 -152 110.85L-152.8 110.85L-153.5 110.85M-154,109.15L-155.45 110.45L-157.55 109.65L-155.85 109.7Q-155.25 109.7 -154 109.15" />
<path style="fill:#FFFF99;fill-opacity:1" d="M68.7,-33.9L68.85 -33.95Q68.2 -34.65 66.6 -35.15L64.85 -35.7Q66.85 -36.95 69.85 -38.05L71.6 -38.6L75.4 -39.6L77 -39.9L78.1 -39.9L77.5 -37.95L77.5 -37.9Q76.5 -34.55 76.05 -32.25L76 -31.95L76.4 -31.95Q78.85 -31.9 79.95 -29.65Q80.65 -28.1 80.75 -25.5L81.05 -19.45Q81.25 -16.45 81.7 -15.05L81.95 -14.35Q81.6 -14.1 80.8 -14.1L80.65 -14.1L80.65 -14.35L79.5 -14.6L78.75 -14.9L77.85 -15.05L75.3 -15.55Q72.5 -16.1 71.2 -17.5Q69.8 -18.3 68.6 -19.15L68.05 -20.05L68 -20.2L67.5 -19.95Q64 -22.45 64 -23.65Q64 -24.85 61.55 -26.15Q59 -27.35 59 -28.5Q59 -29.15 59.9 -30.4L61.25 -31.95L63 -31.55L66.05 -30.7Q66.75 -28.7 69.35 -25.25Q72.1 -21.6 73.3 -20.7Q72.65 -22.05 72.25 -23.75L71.15 -28.8L70.85 -30.1Q70.05 -33 68.7 -33.9" />
<path style="fill:#FCCC5A;fill-opacity:1" d="M104.5,-15.6Q103.65 -13.25 95.6 -8.05L94.1 -7.05Q90.7 -4.95 88.3 -3.75Q85.4 -2.3 83.95 -2.3Q81.8 -2.3 78.85 -5.3L76.45 -8L71.75 -14.6L71.35 -15.05Q70.05 -16.7 68.6 -19.15Q69.8 -18.3 71.2 -17.5Q72.5 -16.1 75.3 -15.55L77.85 -15.05L78.75 -14.9L79.5 -14.6L80.65 -14.35L80.65 -14.1L80.8 -14.1Q81.6 -14.1 81.95 -14.35L81.7 -15.05Q81.25 -16.45 81.05 -19.45L80.75 -25.5Q80.65 -28.1 79.95 -29.65Q78.85 -31.9 76.4 -31.95L76 -31.95L76.05 -32.25Q76.5 -34.55 77.5 -37.9L77.5 -37.95L78.8 -37.95L83.45 -39.3L85.25 -39.8L86.35 -40.05Q90.45 -41.05 91.85 -41.65L92.2 -40.05L92.85 -36.05L93.05 -34.9L93.7 -28.55L93.7 -28.1L95 -27.75L95.85 -27.45L96 -27.45L104.05 -17.05Q104.05 -16.15 104.5 -15.6M63.75,30.95Q63.85 32.05 63.55 34.4L66.95 33.8L71.2 34.3L73.45 34.7L74.95 35.05L74.95 38.7L70.35 38L65.85 37.9L61.85 38.6L55.2 38.25L55.3 37.65Q55.3 35.3 56.9 34.65L59.8 34.55L60.7 34.7L60.7 34.55L60.8 30.35L60.8 30.3L60.95 28.3L61.95 28.3Q63.45 29.1 63.75 30.6L63.75 30.95M116.2,31.55L116.35 29.85L117.5 29.85L118.75 30.4L119.1 30.4L119.2 31.95L118.75 36.3Q121.45 36.05 122.3 33.85L124.7 28.95L125.85 26.75L126.55 24.8Q126.9 24.8 128.45 25.75Q130.1 26.75 130.1 27.2Q130.1 28.4 127.85 32.25L124.9 36.75L123.3 38.75Q122.1 39.9 120.7 39.9L115.35 40.15Q114.15 40.15 114.2 39.5L114.25 36.75L114.25 36.6L114.2 36.5L114.2 36.35L115.95 36.2L116.1 32.65L116.15 32.05L116.2 31.55" />
<path style="fill:#FF3333;fill-opacity:1" d="M78.4,3.7L75 -0.4L77.1 -2.65Q78.5 -4.15 78.85 -5.3Q81.8 -2.3 83.95 -2.3Q85.4 -2.3 88.3 -3.75Q90.7 -4.95 94.1 -7.05L95.6 -8.05Q103.65 -13.25 104.5 -15.6Q111.65 -5.8 111.65 -0.5L111.6 0Q111.3 1.1 109.75 2.25L109 2.8L105.15 4.8L105.05 4.9L96.9 9.3Q96.4 9.3 94.5 6.45L92 9.9Q89.4 13.2 88.4 13.2Q86.15 13.2 81.8 8.05L81.75 7.95L80.7 6.75L78.4 3.8L78.4 3.7" />
<path style="fill:#FF9B58;fill-opacity:1" d="M137.8,-34.8L139.5 -37.95L141.9 -42.35L142.5 -41.65Q143.05 -41.85 144.15 -41.15Q149 -37.8 149.65 -34.55Q150.3 -31.35 147.85 -26.45Q145.8 -29.85 142.85 -32L138.95 -34.15Q138.2 -34.3 137.8 -34.8" />
<path style="fill:#DE7D3D;fill-opacity:1" d="M-177.65,-38L-177.6 -53.9L-176 -53.7Q-151.2 -61.6 -141.65 -61.6Q-135.75 -61.6 -129.6 -59.1Q-124.05 -56.65 -120.35 -53.2Q-118.7 -51.45 -117.6 -47.45Q-116 -41.75 -115.15 -39.9L-114.7 -39.1L-125.45 -41Q-135.15 -42.65 -141.9 -42.65L-161.55 -41.8Q-169.65 -40.75 -177.65 -38M-148.35,22.3L-146.25 22.45L-122.75 24.65L-113.7 25.6L-108.5 26L-94.5 27.05Q-92.7 27.05 -86.5 25.35L-85.85 25.2L-85.55 25.1L-84.65 24.85L-83.35 24.55L-81.05 23.9L-61.65 17.8L-53.1 15.05L-48.65 13.5L-47.25 13.05Q-34.25 8.55 -24 5.55L-16.85 3.6L-11.15 2.15L-6.3 1.05L-0.85 -0.1L7.8 -1.1Q15.25 -1.1 18.55 9.25L18.8 10.05Q16.75 11.65 7.95 14.6L-0.35 16.95L-31.35 25.5L-54.6 31.35Q-66.25 33.8 -70.2 35.15L-70.75 35.3Q-74.85 36.5 -83.8 37.4L-97.55 38.15L-121.4 36.05L-133.25 34.95L-148.25 33.45L-148.4 33.45L-149.2 33.45Q-148.55 30.25 -148.5 26.15L-148.5 26.05L-148.35 22.3M-154.9,25.55Q-154.2 27.8 -154.2 30.45Q-155.15 38 -155.35 43.1Q-160.6 45.15 -171.4 45.15L-177.75 45L-177.7 15Q-158.55 15.85 -154.9 25.55" />
<path style="fill:#8D8DB1;fill-opacity:1" d="M-109.95,-33Q-109.95 -30.4 -110.25 -27.15L-117.6 -30.6L-117.65 -31.3Q-118.4 -32.6 -122.2 -32.6L-122.35 -32.6Q-128.75 -35.3 -131.85 -35.3Q-137.2 -35.35 -142.1 -33.9L-143.55 -33.45L-147.75 -33.75L-148.3 -33.75L-148.65 -33.75L-148.9 -33.75L-150.6 -33.45Q-152.15 -33.05 -153.1 -32.15L-153.15 -32.15L-156.35 -32.25Q-160.25 -32.55 -163.2 -32.15L-163.7 -32.15L-164.15 -32.25L-164.4 -31.9Q-166.4 -28.3 -166.4 -24.7Q-166.45 -21.1 -164.2 -17.15L-163.3 -15.35L-162.9 -14.55L-162.75 -14.55Q-161.6 -13.35 -162.25 -8.45L-162.25 -7.5L-177.65 -7.95L-177.65 -38Q-169.65 -40.75 -161.55 -41.8L-141.9 -42.65Q-135.15 -42.65 -125.45 -41L-114.7 -39.1Q-112.95 -35.8 -109.95 -33M-148.5,18.45L-148.3 18.45L-148.5 18.2Q-149 15.15 -150.6 13.05Q-137.65 18.6 -129.3 18.65L-104.85 18.65Q-95.6 18.3 -89.55 16.85Q-86.5 17 -81.1 16.75L-77.9 16.5L-86 18.75Q-90.05 19.9 -91 19.9L-114.9 19.85L-148.2 18.45L-148.35 21Q-148.35 19.65 -148.5 18.45M-171.4,45.15Q-160.6 45.15 -155.35 43.1Q-152.95 42.1 -151.8 40.75Q-150.15 38.75 -149.2 33.45L-148.4 33.45L-148.25 33.45L-133.25 34.95L-121.4 36.05L-97.55 38.15L-83.8 37.4Q-74.85 36.5 -70.75 35.3L-70.2 35.15Q-66.25 33.8 -54.6 31.35L-31.35 25.5L-0.35 16.95L7.95 14.6L8 16.2L7.95 17.65Q7.3 20.95 3.8 27.8L-20.85 35.05L-21.3 34.65Q-23.05 32.95 -26.15 33.45Q-27.6 34 -28.95 35.2L-35.6 34.95L-37 34.9Q-43.55 35.45 -45.95 38.9Q-46.95 40.3 -47.2 42.15Q-58.1 44.65 -67.1 46.15Q-81.95 48.8 -91.45 48.8Q-105.5 48.75 -116.4 47.15L-133.5 45.8L-134.3 45.75Q-143 45.9 -150.85 50.2Q-159.05 54.8 -170.9 54.8L-177.75 54.55L-177.75 45L-171.4 45.15M-167.6,7.85L-176.7 7.7L-177.7 7.7L-177.7 6.8L-167.6 7.85M-170.05,-32.95L-170.05 -33.05L-170.3 -33.05L-170.05 -32.95M-168.95,-14.9L-168.65 -14.9L-168.4 -14.9L-168.65 -15.3L-168.95 -14.9M-159.5,-26.05Q-159.35 -24.95 -159.5 -24.3Q-159.8 -22.85 -160.8 -22.85Q-164.55 -22.85 -164.55 -26.35Q-164.55 -29.5 -161.9 -29.5Q-159.85 -29.5 -159.5 -27.8L-159.5 -26.05" />
<path style="fill:#C3C3E2;fill-opacity:1" d="M-150.4,-66.3L-150.35 -70.05L-147.85 -90.6Q-147.85 -92.45 -151 -94.45Q-154.25 -96.65 -154.25 -100.55Q-154.25 -104 -151.35 -106.2Q-148.85 -107.95 -145.1 -107.95Q-142.05 -107.95 -139.1 -105.4Q-136.05 -102.5 -136.05 -98.9Q-136.05 -97.65 -137.85 -93.65Q-139.9 -89.4 -140.1 -83.15Q-140.1 -78 -141.1 -66.7L-150.4 -66.3M-131.2,-66.25L-131.15 -85.65Q-129.85 -86.45 -128.15 -86.45Q-123.85 -86.45 -124 -76.6L-124.8 -65.25L-131.2 -66.25M-114.7,-39.1L-109.95 -38.05L-109.95 -34.5L-109.95 -33Q-112.95 -35.8 -114.7 -39.1M-117.6,-30.6L-110.25 -27.15Q-110.65 -22.05 -111.6 -15.3Q-112.35 -9.85 -113.45 -3.35L-114.9 -3.5L-145.45 -6.55L-162.25 -7.5L-162.25 -8.45Q-161.6 -13.35 -162.75 -14.55L-162.9 -14.55L-163.3 -15.35L-164.2 -17.15Q-166.45 -21.1 -166.4 -24.7Q-166.4 -28.3 -164.4 -31.9L-164.15 -32.25L-163.7 -32.15L-163.2 -32.15Q-160.25 -32.55 -156.35 -32.25L-153.15 -32.15Q-154.8 -30.85 -154.8 -28.3Q-154.2 -20.9 -154.6 -15.35L-154.65 -15.15L-153.15 -15.15L-150.8 -15.3L-150.2 -15.35Q-147.25 -15.7 -144.9 -15.45L-144.65 -15.45L-141.65 -15.45Q-140.2 -15.95 -140.15 -23.9Q-140.15 -30.95 -140.65 -32.25Q-141.1 -32.65 -141.9 -33.05L-143.55 -33.45L-142.1 -33.9Q-137.2 -35.35 -131.85 -35.3Q-128.75 -35.3 -122.35 -32.6L-124.55 -32.2Q-126.5 -31.05 -126.65 -27.3L-126.5 -15.35L-126.55 -14.1L-125.95 -14.05L-119.65 -14.05L-119.1 -14.5L-118.25 -14.5Q-118 -14.65 -117.8 -15.3Q-117.3 -17.15 -117.25 -22.85Q-117.25 -28.55 -117.6 -30.6M-177.7,6.8L-177.65 -3.05Q-171.1 -2.3 -160.3 -0.1L-156.45 0.45Q-136.5 4.3 -117.65 4.35L-104.85 3Q-96.7 1.45 -93.35 1.5Q-87.8 1.5 -83.55 2.45L-78.85 3.5L-77.7 3.85L-77.6 3.75L-72.55 5.35Q-69.35 6.3 -65.7 6.3L-60.85 6.15L-59.45 5.85L-57.4 8.1L-57.75 2.65Q-57.75 -7.95 -57.3 -15.25Q-56.95 -20.6 -56.4 -24.2Q-55.6 -29.6 -54.2 -33.3L-52.65 -33.05Q-46.35 -33.75 -43.95 -33.05Q-40.55 -32.15 -38.1 -28.55Q-35.95 -25.35 -34.25 -19.55L-33.6 -15.2Q-32.4 -8.6 -30.4 -3.75Q-29.35 -1 -27.95 1.05L-42.55 5.65L-55.2 9.65L-56 10L-57.1 10.4L-77.9 16.5L-81.1 16.75Q-86.5 17 -89.55 16.85Q-95.6 18.3 -104.85 18.65L-129.3 18.65Q-137.65 18.6 -150.6 13.05Q-153 9.75 -157.9 8.65L-167.6 7.85L-177.7 6.8M-20.6,35.35L-20.85 35.05L3.8 27.8L-0.75 35.7L-20.6 35.35M-170.9,54.8Q-159.05 54.8 -150.85 50.2Q-143 45.9 -134.3 45.75L-133.5 45.8L-116.4 47.15Q-105.5 48.75 -91.45 48.8Q-81.95 48.8 -67.1 46.15Q-58.1 44.65 -47.2 42.15L-47.3 42.65Q-47.1 48.55 -45.6 50.85Q-43.5 54.15 -37.75 53.4Q-34.4 53 -28.3 53.2L-20.95 53.4L-21.15 64.1L-21.2 65.8Q-36.45 69.4 -50.1 72.05Q-85.5 78.35 -111.8 77.4L-137.25 76.65Q-154.95 76 -164.45 75.9L-177.8 74.95L-177.75 54.55L-170.9 54.8M-170.3,-33.05L-170.05 -33.05L-170.05 -32.95L-170.3 -33.05M-168.65,-15.3L-168.4 -14.9L-168.65 -14.9L-168.65 -15.3M-159.5,-27.8Q-159.85 -29.5 -161.9 -29.5Q-164.55 -29.5 -164.55 -26.35Q-164.55 -22.85 -160.8 -22.85Q-159.8 -22.85 -159.5 -24.3Q-159.35 -24.95 -159.5 -26.05L-159.5 -27.8M-50.55,-24.6Q-50.6 -21.55 -48.55 -19.55Q-46.55 -17.65 -43.7 -17.65Q-41.6 -17.65 -40.55 -19.55Q-39.75 -21.1 -39.7 -23.1Q-39.7 -26.7 -41.8 -28.45Q-43.4 -29.75 -45.75 -29.75Q-47.85 -29.75 -49.1 -28.65L-49.3 -28.4L-49.8 -27.75L-50.45 -27.1L-50.55 -24.75L-50.55 -24.6" />
<path style="fill:#ECECF7;fill-opacity:1" d="M-20.25,-1.25L-27.95 1.05Q-29.35 -1 -30.4 -3.75Q-32.4 -8.6 -33.6 -15.2L-34.25 -19.55Q-35.95 -25.35 -38.1 -28.55Q-40.55 -32.15 -43.95 -33.05Q-46.35 -33.75 -52.65 -33.05L-54.2 -33.3Q-51.45 -41 -46.2 -41Q-38.4 -41 -29.1 -22.35L-25.9 -15.2L-20.25 -1.25M-59.45,5.85L-60.85 6.15L-65.7 6.3Q-69.35 6.3 -72.55 5.35L-77.6 3.75L-77.7 3.85L-78.85 3.5L-83.55 2.45Q-87.8 1.5 -93.35 1.5Q-96.7 1.45 -104.85 3L-117.65 4.35Q-136.5 4.3 -156.45 0.45L-160.3 -0.1Q-171.1 -2.3 -177.65 -3.05L-177.65 -7.95L-162.25 -7.5L-145.45 -6.55L-114.9 -3.5L-113.45 -3.3L-113.45 -3.35L-98.5 -3.3Q-87.6 -3.25 -82.1 -1.85L-76.45 -1.3L-76.45 -1.05Q-66.1 -0.4 -59.45 5.85" />
<path style="fill:#393943;fill-opacity:1" d="M-153.15,-32.15L-153.1 -32.15Q-152.15 -33.05 -150.6 -33.45L-148.9 -33.75L-148.65 -33.75L-148.3 -33.75L-147.75 -33.75L-143.55 -33.45L-141.9 -33.05Q-141.1 -32.65 -140.65 -32.25Q-140.15 -30.95 -140.15 -23.9Q-140.2 -15.95 -141.65 -15.45L-144.65 -15.45L-144.9 -15.45Q-147.25 -15.7 -150.2 -15.35L-150.8 -15.3L-153.15 -15.15L-154.65 -15.15L-154.6 -15.35Q-154.2 -20.9 -154.8 -28.3Q-154.8 -30.85 -153.15 -32.15M-117.25,-22.85Q-117.3 -17.15 -117.8 -15.3Q-118 -14.65 -118.25 -14.5L-119.1 -14.5L-126.55 -14.1L-126.5 -15.35L-126.65 -27.3Q-126.5 -31.05 -124.55 -32.2L-122.35 -32.6L-122.2 -32.6Q-118.4 -32.6 -117.65 -31.3L-117.6 -30.6Q-117.25 -28.55 -117.25 -22.85" />
<path style="fill:#676783;fill-opacity:1" d="M-20.6,35.35L-22.4 35.35L-28.95 35.2Q-27.6 34 -26.15 33.45Q-23.05 32.95 -21.3 34.65L-20.85 35.05L-20.6 35.35" />
<path style="fill:#D29B64;fill-opacity:1" d="M-0.75,35.7L54.75 38.2L55.2 38.25L61.85 38.6L118.9 40.6L151.4 41.65Q166.05 42.75 177.85 42.2L177.85 46.05L167.3 47L151.55 48.3L106.4 49.85L83 48.75Q70.2 46.65 50.7 45.1L13.55 41.9L-3.6 40.45L-17.6 39.5L-19.65 39.45L-22.6 39.2L-27.3 38.75L-31.5 38.25L-31.85 38.25L-35.75 38L-35.8 38L-44.4 38.95L-45.95 38.9Q-43.55 35.45 -37 34.9L-35.6 34.95L-28.95 35.2L-22.4 35.35L-20.6 35.35L-0.75 35.7" />
<path style="fill:#A87039;fill-opacity:1" d="M177.85,59.35L175.1 59.4L149.1 59.7L113.9 60.15L87.55 58.8L63.25 57.5L25.1 55.45L2.85 54.1L1.1 53.95L-11.85 53.45L-17.6 53.45L-20.95 53.4L-28.3 53.2Q-34.4 53 -37.75 53.4Q-43.5 54.15 -45.6 50.85Q-47.1 48.55 -47.3 42.65L-47.2 42.15Q-46.95 40.3 -45.95 38.9L-44.4 38.95L-35.8 38L-35.75 38L-31.85 38.25L-31.5 38.25L-27.3 38.75L-22.6 39.2L-19.65 39.45L-17.6 39.5L-3.6 40.45L13.55 41.9L50.7 45.1Q70.2 46.65 83 48.75L106.4 49.85L151.55 48.3L167.3 47L177.85 46.05L177.85 59.35M-36.7,40.4Q-38.3 41.6 -38.55 43L-38.65 45.95L-38.55 48.95Q-38.4 50.15 -37.35 52.45L-36.9 52.2L-36.35 44.05Q-36.35 41.4 -36.7 40.4M-8.05,42.4L-8.3 47.95L-8.5 49.7Q-8.5 50.1 -7.5 51.3Q-7 49.95 -7 46.65L-7 42.65L-7.3 42.4L-8.05 42.4" />
<path style="fill:#875420;fill-opacity:1" d="M-20.95,53.4L-17.6 53.45L-11.85 53.45L1.1 53.95L2.85 54.1L2.85 63.05L-3.95 64.15L-4.45 64.05L-4.45 67.2Q-5.4 75.55 -5.4 80.45L-7.05 80.95L-7.25 79.4Q-7.2 78.35 -8.1 77.9L-8.05 63.2L-8.2 63.2Q-9.45 63.2 -12.35 64.15L-14.6 64.85L-14.6 65.7Q-14.65 69.85 -15.5 79L-16.65 79.1L-18.15 76.1L-17.7 64.85L-18.75 64.65L-19.15 64.55L-21.15 64.1L-20.95 53.4M63.25,57.5L87.55 58.8L87.65 68Q86.85 68 83.85 66.8L80.6 65.6L80.45 65.6L80.85 69.45L81.2 72.1Q81.2 72.7 80.1 74.05Q78.65 72.45 78.3 70.45L78.2 66.75L78.2 66.1L74.75 67.05L70.8 68.1L70.8 68.75Q70.8 72.5 70 78.15Q69 84.75 67.75 85.85Q66.95 85.7 66.75 85.35L66.75 68.1L64.85 67.05L62.4 65.85L63.25 57.5M149.1,59.7L175.1 59.4L175.1 60.25L175.5 70.1Q171.65 69.1 170.15 69.1Q168.4 69.1 167.25 70.2Q166.1 71.35 164.25 71.35Q160.1 71.35 156.85 70.2Q153.6 69.1 151.75 69.1L149.4 69.8L149.55 65.5L149.3 60.65L149.1 59.7M68.25,69L68.4 69L68.7 68.5L68.25 68.5L68.25 69M79.15,65.85L79.15 66.8L79.25 69L79.3 69L79.5 65.8L79.15 65.85M-36.35,44.05L-36.9 52.2L-37.35 52.45Q-38.4 50.15 -38.55 48.95L-38.65 45.95L-38.55 43Q-38.3 41.6 -36.7 40.4Q-36.35 41.4 -36.35 44.05M-7.3,42.4L-7 42.65L-7 46.65Q-7 49.95 -7.5 51.3Q-8.5 50.1 -8.5 49.7L-8.3 47.95L-8.05 42.4L-7.3 42.4M-5.75,63.75L-6.05 63.65L-6.25 63.6L-6.1 66.95L-5.75 63.75" />
<path style="fill:#CBF0CF;fill-opacity:1" d="M56.75,33.05L56.55 33.15Q55.75 33.05 55.5 32.65L55.5 32.1L56.85 32.35L56.75 33.05M175.05,90Q176.65 90.85 176.65 92.4Q176.65 93.45 176 93.95Q175.05 94.65 172.45 94.65L154.7 93.65L146.6 94.4L138.95 95.1Q133 95.05 131.7 93.7L131.5 92.15Q131.5 91.2 133 90.4Q134.9 89.55 140.15 88.35L148.8 87.95L148.6 91.8L150.95 91.15L153.15 90.55Q154.25 90.55 156.35 91.4Q158.45 92.3 159.25 92.3L162.7 91.65L165.1 91Q166.7 91 169.2 91.9L172.7 92.8Q174.2 92.8 175.05 90M-138.4,94.85L-127.95 95.25Q-111.05 92.85 -106.75 92.85Q-101.9 92.85 -99.4 94.5Q-96.95 96.2 -94.05 96.25L-72.5 95.3L-65.65 96.25Q-63.05 96.25 -53.2 93.5L-52.5 93.3L-46.05 91.8L-45.9 91.25L-44.75 90.9L-43.75 90.9L-43.25 90.5L-43.05 90.35L-41.05 90.3L-29.75 90.9Q-29.3 91 -29 91.3L-28.7 91Q-27.5 90.1 -23.95 89.8L-22.2 89.8L-22.2 91.1Q-20.9 91.1 -19.45 90.2L-18.55 89.75L-15.25 89.7L-14.05 90.1L-10.7 90.8L-7.2 90.1L-3.55 89.35Q-2.55 89.35 -0.8 90.35L1.9 90.35L2.15 88.15L6.1 88Q8.2 88.3 8.2 90.35Q8.2 92 6.9 92.5L-1.25 94.4L-24.25 94.6L-26.25 94.85Q-28.35 94.85 -29 93.9Q-31.3 95.65 -42.9 97.4L-64.55 99.85L-84.65 99.85Q-86 99.85 -87.45 97.45L-118.75 97.65L-130.05 99.15L-141.9 99.75Q-148.15 99.75 -148.6 98.95Q-147.9 97.75 -147.95 96.85L-148.8 96.85Q-148.95 98.9 -150.85 98.9L-172 99L-177.8 100.15L-177.8 91.95L-176.85 91.9L-176.35 91.9L-167.55 92.7L-138.65 94.85L-138.5 94.85L-138.5 91.05L-138.4 94.85M133.15,30.75L140.95 30.55L145.4 30.8L145.2 31.5L140.2 32L132.85 31.7Q132.65 32.45 132.65 31.2Q132.65 30.5 132.75 30.6L133.15 30.75M113.5,32.35L113.05 32.7L108.15 32.75L107.9 32.1L108.4 31.7L114.45 31.85Q113.95 32.05 113.5 32.35M120.2,73.6L119.35 74.8L114.65 75.15Q112.7 75.15 112.4 74.65Q115.45 72.5 116.45 72.5Q117.4 72.5 120.2 73.6M59.95,91.6L59.75 93.55Q62.9 92.65 64.6 92.65L68.35 93.65L71.9 94.5Q72.95 94.5 75.05 93.15Q77.15 91.7 77.95 91.7Q79.75 91.7 82.7 92.45L86.6 93.1Q87.65 93.1 88.1 91.1L96.6 91.3Q98.75 91.6 98.75 93.85Q98.75 95.3 97.8 95.85L88.15 96.2L61.05 96.05L57.3 96.6L53.45 96.9Q51.65 96.9 51.2 95.75Q51.05 95.5 51.05 94.45Q51.05 93.6 52.3 93.25L59.95 91.6M88.1,79.35L88.05 78.35L89.2 78.6L88.65 79.35L88.1 79.35M94.65,71.4Q93.75 71.25 93.55 70.9Q95.65 69.1 98.4 69.75Q97.45 70.25 96.45 70.7L94.65 71.4M136.35,75.9Q136.35 75.2 136.5 75.25L136.9 75.45Q143.85 75.2 144.05 75.45L142.6 76.55L136.55 76.55Q136.35 77.1 136.35 75.9M38.1,32.65L35.6 32.55L35.5 31.35Q35.6 31.05 38.55 32.1L38.75 32.5L38.1 32.65M32.9,65.55L28.15 65.55Q27.9 66.3 27.9 65.1Q27.9 64.35 28.05 64.45L28.35 64.6L33.05 64.35L34.4 64.6Q34.15 65.25 32.9 65.55M12.9,78.35L27.7 78.4L31.4 78.55Q31.1 79.3 26.65 79.8L11.7 79.5Q11.45 79.25 11.45 78.3L12.9 78.35M9.45,91.55Q9.45 90.8 9.6 90.8L9.65 91.05L14 90.8L14.5 90.1L20.95 90.6Q20.5 91.6 17.9 91.75L15.1 92.4L13.75 92.75L9.65 92.35Q9.45 92.75 9.45 91.55M39.8,87.8Q38.85 88.6 36.9 89.25L33.8 89.9L30.95 89.9L30.75 89.15L36.25 87.95L39.8 87.8M51.35,78.55L61.1 78.15Q60.65 78.6 60.4 79.35L54.3 79.8L51.05 79.55Q50.85 80.25 50.85 79.05Q50.85 78.35 51 78.4L51.35 78.55M72.55,107.55L72.65 107.45L72.8 108.25Q72.8 108.8 70.65 110Q68.05 111.4 65.25 111.4L62.7 111.2L61.2 112.65L57.1 112.6Q54.4 112.05 51.35 110.55L51.2 110.45Q47.5 109.8 45.95 108.3Q40.6 115.5 34.55 115.5Q25.2 115.5 20.8 110.6L18.35 106.3L16.6 105.25L16.6 104.3Q19.2 103.6 22.45 106.05L25.9 108.7Q33.35 108.7 40.35 106.75L45.8 104.9L45.85 104.85L45.85 104.6L46.45 104.6L46.65 104.5L46.8 104.65L47.45 104.6Q47.75 104.65 47.8 105.15L47.9 105.25L49.85 106.75L57.85 107.15Q60.6 106.95 62.4 109.05Q67.05 108.75 70.65 107.55L72.55 107.55M45.15,107.25L44.85 107.25L44.35 108.2L45.3 107.5L45.15 107.25M47.15,107.25L48.25 107.7L47.15 106.75L47.15 107.25M37.85,109L37.9 108.85L37.4 109L37.85 109M32.35,113.25L30.95 112.35L30.85 112.85L30.85 113.25L32.35 113.25M147.85,107.15Q145 111.5 137.8 111.5L128.4 110.8L126.15 109.1Q124.85 110.65 121.65 112.45Q117.35 115.1 114.15 115.1L108.75 114.8L104 114.3Q106.35 112.05 113.95 110.55Q121.3 109.1 122.7 107.6L125.7 104.45Q126.2 104.1 126.85 104.95Q129.6 107.8 137.55 107.85Q142.75 107.85 146.1 106.65Q147.45 106.65 147.85 107.15M130.4,108.05Q131.05 108.6 137 108.85L130.25 107.8L130.4 108.05M-32.7,98L-28.05 97.75L-28.05 97.5L-15.7 97.65L-13.95 98.45Q-13.3 98.7 -13.3 99.3L-13.3 100.05L-13.6 99.95L-28.95 101.45L-30.25 101.3L-33.5 100.85Q-33.7 101.6 -33.7 100.4Q-33.7 100.05 -33.25 99.85Q-32.85 99.6 -32.85 98.95L-32.7 98M-0.05,97.05Q-2.05 99.1 -2.65 99.1Q-4.05 99.1 -5.4 98.35L-10.15 97.8Q-10.3 97.25 -9.4 97Q-7.85 96.5 -0.05 97.05M-141.5,106.75L-142.6 107.3L-139.8 107.8L-141.5 106.75M-124.6,113.4L-125.8 113.4L-125.95 113.4L-131.55 113.4Q-133.05 112.4 -142.55 108.45Q-144.4 108.45 -146 110.3Q-147.6 112.05 -150.4 112.05L-155.25 111.5L-157.1 112.35L-157.3 112.05L-156.35 111.15L-159.25 109.95L-160.15 109.5L-162.9 109.25Q-162.9 109 -163.55 108.45L-163.55 107.7L-162.05 108.1L-162.7 107.45Q-161.85 107.45 -159.8 108.45Q-154 108.45 -149.6 105.05Q-146.2 102.5 -142.95 104.1Q-138.9 107 -136.3 108.35Q-131.9 110.65 -124.3 111.7L-123.95 112.35L-123.95 113.05L-123.85 113.2Q-123.95 113.4 -124.6 113.4M-147.25,105.05L-145 104.8L-145.85 104.35L-147.25 105.05M-152.8,110.85L-152 110.85Q-152.8 110.7 -153.5 110.85L-152.8 110.85M-155.85,109.7L-157.55 109.65L-155.45 110.45L-154 109.15Q-155.25 109.7 -155.85 109.7" />
<path style="fill:#C65E5E;fill-opacity:1" d="M-177.8,91.8L-177.8 82.2L-171.2 82.8L-138 85.15L-118.6 85.75L-85.25 84.75Q-70 83.55 -56.95 81.1L-42.9 78.65L-28.65 76.65L-36.15 83.85L-42.95 90.2L-43.05 90.35L-43.25 90.5L-43.75 90.9L-44.75 90.9L-45.9 91.25L-52.5 93.3L-53.2 93.5Q-63.05 96.25 -65.65 96.25L-72.5 95.3L-94.05 96.25Q-96.95 96.2 -99.4 94.5Q-101.9 92.85 -106.75 92.85Q-111.05 92.85 -127.95 95.25L-138.4 94.85L-138.5 91.05L-138.5 94.85L-138.65 94.85L-167.55 92.7L-176.35 91.9L-177.8 91.8" />
<path style="fill:#E8E8F3;fill-opacity:1" d="M-164.45,75.9Q-154.95 76 -137.25 76.65L-111.8 77.4Q-85.5 78.35 -50.1 72.05Q-36.45 69.4 -21.2 65.8L-21.3 67.6L-25.4 73.25L-28.65 76.65L-42.9 78.65L-56.95 81.1Q-70 83.55 -85.25 84.75L-118.6 85.75L-138 85.15L-171.2 82.8L-177.8 82.2L-177.8 74.95L-164.45 75.9" />
<path style="fill:#95612D;fill-opacity:1" d="M172.7,92.8L169.2 91.9Q166.7 91 165.1 91L162.7 91.65L159.25 92.3Q158.45 92.3 156.35 91.4Q154.25 90.55 153.15 90.55L150.95 91.15L148.6 91.8L148.8 87.95L149.2 76.15L149.4 69.8L151.75 69.1Q153.6 69.1 156.85 70.2Q160.1 71.35 164.25 71.35Q166.1 71.35 167.25 70.2Q168.4 69.1 170.15 69.1Q171.65 69.1 175.5 70.1L175.95 78.75Q176.05 86.5 175.05 90Q174.2 92.8 172.7 92.8M88.05,78.35L88.1 79.35L88.35 85.35L88.35 89.4L88.1 91.1Q87.65 93.1 86.6 93.1L82.7 92.45Q79.75 91.7 77.95 91.7Q77.15 91.7 75.05 93.15Q72.95 94.5 71.9 94.5L68.35 93.65L64.6 92.65Q62.9 92.65 59.75 93.55L59.95 91.6Q61.3 76.55 62.4 65.85L64.85 67.05L66.75 68.1L66.75 85.35Q66.95 85.7 67.75 85.85Q69 84.75 70 78.15Q70.8 72.5 70.8 68.75L70.8 68.1L74.75 67.05L78.2 66.1L78.2 66.75L78.3 70.45Q78.65 72.45 80.1 74.05Q81.2 72.7 81.2 72.1L80.85 69.45L80.45 65.6L80.6 65.6L83.85 66.8Q86.85 68 87.65 68L88.05 78.35M1.9,90.35L-0.8 90.35Q-2.55 89.35 -3.55 89.35L-7.2 90.1L-10.7 90.8L-14.05 90.1L-15.25 89.7L-17.25 89.35L-18.55 89.75L-19.45 90.2Q-20.9 91.1 -22.2 91.1L-22.2 89.8L-22.2 83.75Q-21.55 78.15 -21.35 68.45L-21.3 67.6L-21.2 65.8L-21.15 64.1L-19.15 64.55L-18.75 64.65L-17.7 64.85L-18.15 76.1L-16.65 79.1L-15.5 79Q-14.65 69.85 -14.6 65.7L-14.6 64.85L-12.35 64.15Q-9.45 63.2 -8.2 63.2L-8.05 63.2L-8.1 77.9Q-7.2 78.35 -7.25 79.4L-7.05 80.95L-5.4 80.45Q-5.4 75.55 -4.45 67.2L-4.45 64.05L-3.95 64.15L2.85 63.05L2.85 71.55Q2.85 80.95 2.15 88.15L1.9 90.35M68.25,68.5L68.7 68.5L68.4 69L68.25 69L68.25 68.5M79.5,65.8L79.3 69L79.25 69L79.15 66.8L79.15 65.85L79.5 65.8M-6.1,66.95L-6.25 63.6L-6.05 63.65L-5.75 63.75L-6.1 66.95" />
<path style="fill:#A4A4CD;fill-opacity:1" d="M18.55,9.25L19.45 9.05Q19.45 9.45 18.8 10.05L18.55 9.25" />
<path style="fill:none;stroke-width:1;stroke-linecap:butt;stroke-linejoin:miter;stroke-miterlimit:3;stroke:#333333;stroke-opacity:1" d="M31.65,-43.4L30.1 -45.55L29.15 -44.75L28.75 -45.65Q28.95 -46.85 29.7 -48.2L29.6 -48.3L29.45 -48.7Q27.15 -55.6 30.9 -59.35L31.55 -59.85L30.35 -59.95L30.25 -60.15Q29.7 -61.2 31.35 -62.6L34.1 -64.6L35.6 -65.4Q33.15 -68.15 34.65 -73.35L34.45 -73Q31.75 -73.75 28.95 -77.6Q26.55 -81.35 27.65 -83.55L31.45 -91.4L36.65 -100.65Q39.75 -105.95 40.5 -106.35Q41.85 -107.2 46.95 -105.2L50.7 -102.65L51.9 -104.1Q55.95 -108.2 61.45 -104.3L62.7 -103.05L62.95 -103.25Q66.85 -106.2 70 -106.05L73.65 -103.3Q79.1 -99.45 102.2 -84.8Q125.35 -69.95 139.15 -61.8Q148.25 -56.25 141.9 -42.35M142.5,-41.65Q143.05 -41.85 144.15 -41.15Q149 -37.8 149.65 -34.55Q150.3 -31.35 147.85 -26.45L147.1 -25.15L140 -14.95L136.2 -9.5Q132.8 -3.95 130.85 -2.25Q128.2 -0.65 124.65 -3.2Q124 -3.55 119.9 -6.85M177.85,42.2L177.95 -14.9L178.05 -121L-177.55 -121.5L-177.6 -53.9M-177.3,-54.75Q-175.85 -57.8 -173.65 -59.65Q-167.7 -65 -150.4 -66.3L-150.35 -70.05L-147.85 -90.6Q-147.85 -92.45 -151 -94.45Q-154.25 -96.65 -154.25 -100.55Q-154.25 -104 -151.35 -106.2Q-148.85 -107.95 -145.1 -107.95Q-142.05 -107.95 -139.1 -105.4Q-136.05 -102.5 -136.05 -98.9Q-136.05 -97.65 -137.85 -93.65Q-139.9 -89.4 -140.1 -83.15Q-140.1 -78 -141.1 -66.7L-139.7 -66.7L-131.2 -66.25L-131.15 -85.65Q-129.85 -86.45 -128.15 -86.45Q-123.85 -86.45 -124 -76.6L-124.8 -65.25L-124.7 -65.25Q-117.65 -63.65 -114.85 -60.35Q-110.45 -55.3 -109.95 -38.05L-109.95 -34.5L-109.95 -33Q-109.95 -30.4 -110.25 -27.15Q-110.65 -22.05 -111.6 -15.3M-57.1,10.4L-57.4 8.1L-57.75 2.65Q-57.75 -7.95 -57.3 -15.25Q-56.95 -20.6 -56.4 -24.2Q-55.6 -29.6 -54.2 -33.3Q-51.45 -41 -46.2 -41Q-38.4 -41 -29.1 -22.35L-25.9 -15.2L-20.25 -1.25M51.55,-26.7L51.45 -24.2Q50.3 -16.65 48.25 -15.35L47.75 -15.1L46.15 -15.1Q44.2 -15.65 41.55 -18.6Q37.9 -22.6 36.9 -25.8Q36.05 -25.9 35.1 -26.3L32.65 -27.9L30.85 -29.4L30.4 -30.3L33.6 -30.8L34.3 -30.95L34.4 -31L34.3 -32.85L34.4 -33.45L34.3 -33.9L32.7 -39.7L31.55 -43.3M50.7,-102.65L46.2 -95.5L43.55 -91L39.7 -84.4M44.85,-74.2L53.45 -89.55L56.4 -95.15L58 -97.85Q60.1 -100.75 62.4 -102.85M62.7,-103.05L62.4 -102.85M131.1,-45.75L131.2 -42.95Q131.2 -39.1 130.05 -38.15Q129.1 -37.45 125.35 -37.45Q124.45 -37.45 122.7 -38.05M93.05,-34.9L93.7 -28.55L93.7 -28.1L95 -27.75L95.85 -27.45L96 -27.45L104.05 -17.05L104.55 -16.05L104.5 -15.6Q111.65 -5.8 111.65 -0.5L111.6 0Q115.55 -1.95 119.9 -6.85L122.25 -9.95L125.8 -14.95L130.9 -23.3Q133.95 -28.05 137.8 -34.8L139.5 -37.95L141.9 -42.35M48.6,-70.2Q51.85 -70.7 52.55 -69.25L53.45 -66.75L54.45 -62.15L55.7 -55.2L57.45 -51.85L57.65 -51.75Q57.65 -52.35 58.45 -53.15L59.8 -54.5Q61.25 -55.4 63.05 -53.6Q64.35 -52.4 65.15 -50.9Q66.55 -48.05 66.15 -45.5Q65.75 -42.6 63.3 -41.1Q61.75 -40.15 60.1 -39.8L59.6 -39.75L63.2 -36.3Q63.8 -36.05 64.85 -35.7Q66.85 -36.95 69.85 -38.05L71.6 -38.6L75.4 -39.6L77 -39.9L78.1 -39.9L77.5 -37.95L78.8 -37.95L83.45 -39.3L85.25 -39.8L86.35 -40.05Q90.45 -41.05 91.85 -41.65L92.2 -40.05L94.6 -40.95L101.1 -42.5Q102.5 -42.65 105.1 -44.25Q107.65 -45.7 109.1 -45.85L119.5 -47.15Q120.3 -47.2 121.15 -48.5Q121.95 -49.7 122.6 -49.8L124.25 -49.95M54.55,-45.7Q53.95 -47 53 -50.6Q52.25 -53.5 51.45 -55.05Q50.9 -56 48.3 -57.3Q45.8 -58.5 45.35 -59.3L45.2 -59.5Q45.15 -60.35 46.1 -62.75Q47.25 -65.55 47.1 -65.8L41.35 -63.45L39.95 -62.85L38.85 -62.4Q33.6 -60.15 31.55 -59.85M48.6,-70.2Q46.4 -69.9 43.15 -68.7L42.25 -68.35Q38.2 -66.8 35.6 -65.4M44.85,-74.2L42.8 -69.9L42.25 -68.35M31.65,-43.4L32.35 -44.2L34.25 -44.85L35.7 -41.55L35.8 -41.05L35.95 -40.75Q36.75 -38.9 36.9 -37.1L36.9 -36.65Q37.1 -34.8 35.75 -32.85Q35.25 -32.15 35.25 -31.35L35.1 -31.25Q35.05 -30.4 35.6 -29.2Q35.95 -28.45 37.05 -28.35Q37.85 -28.35 38.8 -29Q39.8 -29.65 40.25 -31.1Q40.75 -32.65 41.75 -33.25L42.75 -33.2Q43.5 -33.2 43.9 -33.5Q44.95 -34.05 44.35 -35.35L44.3 -35.7Q43.7 -36.8 42.45 -36.7M44.15,-52.85L41.9 -52.4Q39.8 -51.65 37.25 -50.05L36.7 -51.9Q36.45 -52.8 37.5 -53.4Q38.85 -54.3 42.45 -54.4L44.45 -54.3L46.6 -53.9L46.15 -53.4L45.45 -53.1L44.15 -52.85M57.55,-51.2L56.8 -50.75Q56.35 -50.15 56.65 -48.3Q56.7 -46.9 54.95 -45.8M34.65,-73.35L35.75 -76.65L39.7 -84.4M37.85,-47.5L41.1 -48.55L44.95 -49.4Q45.95 -49.4 45.95 -47.25Q45.95 -44.6 44.65 -43.25Q43.5 -41.95 41.6 -41.95Q39.95 -41.95 38.85 -44.05Q37.9 -45.7 37.85 -47.5M29.6,-48.3L30.1 -49Q31.4 -51.25 32.35 -49.4Q33 -48.2 31.55 -46.85L30.25 -45.7L30.1 -45.55M32.7,-39.7Q34.1 -39.7 35.95 -40.75M36.9,-37.1L36.85 -37.1M35.1,-31.25L34.4 -31M39.5,-25.7Q40.25 -25 42.3 -25.7Q44 -26.2 45.05 -26.95L46.15 -28.15Q46.65 -28.7 46.75 -29.35Q45.5 -28.7 44.5 -28.7Q42.9 -28.7 41.3 -27.75L39.6 -26.35L39.45 -26.2L39.5 -25.7M39.45,-26.2Q38.3 -25.55 36.9 -25.8M19.45,9.05Q19.45 2.55 17.35 -2.5Q14.6 -8.75 9.75 -8.75Q7.6 -8.75 1.75 -7.3L-5.85 -5.3L-13.2 -3.2L-18.05 -1.85L-20.25 -1.25L-27.95 1.05L-42.55 5.65L-55.2 9.65L-56 10L-57.1 10.4L-77.9 16.5L-86 18.75Q-90.05 19.9 -91 19.9L-114.9 19.85L-148.2 18.45M-148.35,21L-148.35 22.3M19.45,9.05Q19.45 9.45 18.8 10.05Q16.75 11.65 7.95 14.6L8 16.2L7.95 17.65Q7.3 20.95 3.8 27.8L-0.75 35.7L54.75 38.2L55.2 38.25M55.3,37.65Q55.3 35.3 56.9 34.65L56.75 33.05L56.85 32.35Q56.95 31.6 57.4 31Q58.5 29.55 60 30.3M56.9,34.65L59.8 34.55L60.7 34.7L60.7 34.55L60.8 30.35L60.8 30.3L60.95 28.3L61.95 28.3Q63.45 29.1 63.75 30.6L63.85 30.6L69.1 31.15L69.15 15.85Q69.1 14.65 68.2 14.25Q67.4 13.9 67.4 12.7L70.6 11.25Q74.5 9 77.85 4.3M94.5,6.45L92 9.9Q89.4 13.2 88.4 13.2Q86.15 13.2 81.8 8.05L81.75 7.95L80.7 6.75L78.4 3.8L78.4 3.7L75 -0.4L77.1 -2.65Q78.5 -4.15 78.85 -5.3L76.45 -8L71.75 -14.6L71.35 -15.05M77.5,-37.95L77.5 -37.9Q76.5 -34.55 76.05 -32.25L76 -31.95L76.4 -31.95Q78.85 -31.9 79.95 -29.65Q80.65 -28.1 80.75 -25.5L81.05 -19.45Q81.25 -16.45 81.7 -15.05L81.95 -14.35Q81.6 -14.1 80.8 -14.1L80.65 -14.1L80.65 -14.35L79.5 -14.6L78.75 -14.9L77.85 -15.05L75.3 -15.55Q72.5 -16.1 71.2 -17.5Q69.8 -18.3 68.6 -19.15Q70.05 -16.7 71.35 -15.05M58.3,-48.4L59.95 -49.45Q61.85 -49.6 62.65 -48.05Q63.3 -46.8 62.55 -45.35Q62.05 -44.4 61.05 -43.75L59.75 -43.35L58.8 -43.2M68.85,-33.95Q68.2 -34.65 66.6 -35.15L64.85 -35.7M59.6,-39.75L58.85 -39.8L60.1 -38.5L62.8 -36.5L63.2 -36.3M78.75,-14.9L78.45 -15.05Q77.9 -15.35 77.25 -15.8Q74.65 -17.5 73.3 -20.7Q72.1 -21.6 69.35 -25.25Q66.75 -28.7 66.05 -30.7L63 -31.55L61.25 -31.95L59.9 -30.4Q59 -29.15 59 -28.5Q59 -27.35 61.55 -26.15Q64 -24.85 64 -23.65Q64 -22.45 67.5 -19.95M68.6,-19.15L67.7 -19.8L67.5 -19.95M66.6,-30.55L66.05 -30.7M73.3,-20.7Q72.65 -22.05 72.25 -23.75L71.15 -28.8L70.85 -30.1Q70.05 -33 68.7 -33.9M44.35,-35.35L46.35 -37.05L47.9 -37.85Q48.9 -38 49.55 -38.4Q50.4 -38.95 51.15 -40.2Q51.95 -41.4 51.95 -42.35L52.1 -42.4Q53.65 -38.9 52.75 -35.5L51.5 -33.2Q52.25 -31.6 51.55 -26.7L51.8 -26.75Q52.1 -29.1 53.75 -30.3L56.9 -32.85L57.05 -32.95Q58.6 -34.4 57.65 -36.45M58.85,-39.8L58.8 -39.8L57 -40.2M51.5,-33.2Q50.35 -31.4 48.3 -30.05Q47.55 -29.6 46.9 -29.4L46.75 -29.35M61.25,-31.95L56.9 -32.85M131.1,-45.75L130.7 -47.6Q129.85 -50.25 127.3 -50.25L124.25 -49.95M115.05,-38.25L111.5 -37.9L110.1 -38L105.8 -38.45M115.05,-38.25L115.9 -38.4L119.8 -38.95Q120.5 -38.95 122.4 -38.15L122.7 -38.05M92.2,-40.05L92.85 -36.05L93.05 -34.9Q93.85 -35.45 98.7 -36.85Q104.2 -38.45 105.7 -38.45L105.8 -38.45M78.85,-5.3Q81.8 -2.3 83.95 -2.3Q85.4 -2.3 88.3 -3.75Q90.7 -4.95 94.1 -7.05L95.6 -8.05Q103.65 -13.25 104.5 -15.6Q104.05 -16.15 104.05 -17.05M93.7,-28.1Q93.65 -25.05 92.55 -24.55L87.2 -24.05M-28.95,35.2L-35.6 34.95L-37 34.9Q-43.55 35.45 -45.95 38.9Q-46.95 40.3 -47.2 42.15L-47.3 42.65Q-47.1 48.55 -45.6 50.85Q-43.5 54.15 -37.75 53.4Q-34.4 53 -28.3 53.2L-20.95 53.4L-17.6 53.45L-11.85 53.45L1.1 53.95L2.85 54.1L25.1 55.45L63.25 57.5L87.55 58.8L113.9 60.15L149.1 59.7L175.1 59.4L177.85 59.35L177.85 46.05L177.85 42.2Q166.05 42.75 151.4 41.65L118.9 40.6L61.85 38.6L55.2 38.25M175.5,70.1L175.1 60.25M175.5,70.1L175.95 78.75Q176.05 86.5 175.05 90M148.8,87.95L149.2 76.15L149.4 69.8L149.55 65.5L149.3 60.65L149.1 59.7M148.8,87.95L148.6 91.8L150.95 91.15L153.15 90.55Q154.25 90.55 156.35 91.4Q158.45 92.3 159.25 92.3L162.7 91.65L165.1 91Q166.7 91 169.2 91.9L172.7 92.8Q174.2 92.8 175.05 90M177.85,59.35L177.75 122.45L-177.85 121.95L-177.8 100.15L-177.8 91.95L-177.8 91.8L-177.8 82.2L-177.8 74.95L-177.75 54.55L-177.75 45L-177.7 15L-177.7 7.7L-177.7 6.8L-177.65 -3.05L-177.65 -7.95L-177.65 -38L-177.6 -53.9M124.9,26.4L124.9 24.8L123.65 24.3L123.45 24.25L122.45 23.65Q115.05 19.6 110.35 17.95L109.85 2.7M109,2.8L105.15 4.8L105.05 4.9L105.15 8.9L105.15 12.35Q105.3 14.35 105.8 15.9L105.8 19.65L103.85 19.65Q103.2 19.8 103.2 21.2Q103.15 23.05 105.1 23.05L107.25 22.45L109.05 21.9Q109.9 21.9 114.8 24.1L120.9 26.65Q120.9 27.95 120.05 28.9L118.75 30.4L119.1 30.4L119.2 31.95L118.75 36.3Q121.45 36.05 122.3 33.85L124.7 28.95L125.85 26.75L126.55 24.8Q126.9 24.8 128.45 25.75Q130.1 26.75 130.1 27.2Q130.1 28.4 127.85 32.25L124.9 36.75L123.3 38.75Q122.1 39.9 120.7 39.9L115.35 40.15Q114.15 40.15 114.2 39.5L114.25 36.75L114.2 36.75L114.15 36.7L114 36.6Q112.1 34.9 112.1 34.05Q112.1 33.45 113.05 32.7L113.5 32.35Q113.95 32.05 114.45 31.85L116.2 31.55L116.35 29.85L117.5 29.85L118.75 30.4M109,2.8L109.75 2.25Q111.3 1.1 111.6 0M109.75,2.25L109.85 2.7M89.75,0.1Q91.05 1.2 93.85 5.5L94.5 6.45Q96.4 9.3 96.9 9.3L105.05 4.9M81.15,8.55L74.85 14.55Q73.05 16.4 73.05 22.4Q73 24.35 74.95 31.5L74.9 33.2L73.45 34.7L74.95 35.05L74.95 38.7L70.35 38L65.85 37.9L61.85 38.6M114.25,36.75L114.25 36.6L114.2 36.5L114.2 36.35L115.95 36.2L116.1 32.65L116.15 32.05L116.2 31.55M118.75,36.3L118.45 36.3L115.95 36.2M63.25,57.5L62.4 65.85Q61.3 76.55 59.95 91.6L59.75 93.55Q62.9 92.65 64.6 92.65L68.35 93.65L71.9 94.5Q72.95 94.5 75.05 93.15Q77.15 91.7 77.95 91.7Q79.75 91.7 82.7 92.45L86.6 93.1Q87.65 93.1 88.1 91.1L88.35 89.4L88.35 85.35L88.1 79.35L88.05 78.35L87.65 68L87.55 58.8M73.45,34.7L71.2 34.3L66.95 33.8L63.55 34.4L63.4 34.4L60.7 34.7M63.55,34.4Q63.85 32.05 63.75 30.95L63.75 30.6M-20.95,53.4L-21.15 64.1L-21.2 65.8L-21.3 67.6L-21.35 68.45Q-21.55 78.15 -22.2 83.75L-22.2 89.8L-22.2 91.1Q-20.9 91.1 -19.45 90.2L-18.55 89.75L-17.25 89.35L-15.25 89.7L-14.05 90.1L-10.7 90.8L-7.2 90.1L-3.55 89.35Q-2.55 89.35 -0.8 90.35L1.9 90.35L2.15 88.15Q2.85 80.95 2.85 71.55L2.85 63.05L2.85 54.1M189.9,135L-190.2 134.5L-189.9 -135L190.2 -134.5L189.9 135M-148.65,-33.75L-148.3 -33.75L-147.75 -33.75L-143.55 -33.45L-141.9 -33.05Q-141.1 -32.65 -140.65 -32.25Q-140.15 -30.95 -140.15 -23.9Q-140.2 -15.95 -141.65 -15.45L-144.65 -15.45L-144.9 -15.45Q-147.25 -15.7 -150.2 -15.35L-150.8 -15.3L-153.15 -15.15L-154.65 -15.15L-154.6 -15.35Q-154.2 -20.9 -154.8 -28.3Q-154.8 -30.85 -153.15 -32.15L-153.1 -32.15Q-152.15 -33.05 -150.6 -33.45M-126.55,-14.1L-126.5 -15.35L-126.65 -27.3Q-126.5 -31.05 -124.55 -32.2L-122.35 -32.6L-122.2 -32.6Q-118.4 -32.6 -117.65 -31.3L-117.6 -30.6M-177.65,-7.95L-162.25 -7.5L-145.45 -6.55L-114.9 -3.5L-113.45 -3.35Q-112.35 -9.85 -111.6 -15.3M-124.8,-65.25L-131.2 -66.25M-114.7,-39.1L-109.95 -38.05M-141.1,-66.7L-150.4 -66.3M-114.7,-39.1L-125.45 -41Q-135.15 -42.65 -141.9 -42.65L-161.55 -41.8Q-169.65 -40.75 -177.65 -38M-126.55,-14.1L-119.1 -14.5L-118.25 -14.5Q-118 -14.65 -117.8 -15.3Q-117.3 -17.15 -117.25 -22.85Q-117.25 -28.55 -117.6 -30.6M-76.45,-1.3L-82.1 -1.85Q-87.6 -3.25 -98.5 -3.3L-113.45 -3.35L-113.45 -3.3M-50.55,-24.75L-50.45 -27.1L-49.8 -27.75L-49.3 -28.4L-49.1 -28.65Q-47.85 -29.75 -45.75 -29.75Q-43.4 -29.75 -41.8 -28.45Q-39.7 -26.7 -39.7 -23.1Q-39.75 -21.1 -40.55 -19.55Q-41.6 -17.65 -43.7 -17.65Q-46.55 -17.65 -48.55 -19.55Q-50.6 -21.55 -50.55 -24.6L-50.55 -24.75Q-50.4 -26.6 -49.8 -27.75M-59.45,5.85Q-66.1 -0.4 -76.45 -1.05M-20.85,35.05L-21.3 34.65Q-23.05 32.95 -26.15 33.45Q-27.6 34 -28.95 35.2L-22.4 35.35L-20.6 35.35L-20.85 35.05M-20.6,35.35L-0.75 35.7M7.95,14.6L-0.35 16.95L-31.35 25.5L-54.6 31.35Q-66.25 33.8 -70.2 35.15L-70.75 35.3Q-69.35 40.95 -67.1 46.15M-59.45,5.85L-57.4 8.1L-56 10M-52.5,93.3L-53.2 93.5Q-63.05 96.25 -65.65 96.25L-72.5 95.3L-94.05 96.25Q-96.95 96.2 -99.4 94.5Q-101.9 92.85 -106.75 92.85Q-111.05 92.85 -127.95 95.25L-138.4 94.85L-138.5 94.85L-138.65 94.85L-167.55 92.7L-176.35 91.9M-52.5,93.3L-45.9 91.25L-44.75 90.9L-43.25 90.5L-43.05 90.35L-42.95 90.2L-36.15 83.85Q-39.9 81.2 -42.9 78.65L-50.1 72.05Q-61.2 60.6 -67.1 46.15M-70.75,35.3Q-74.85 36.5 -83.8 37.4L-97.55 38.15L-121.4 36.05L-133.25 34.95L-134.3 45.75L-137.25 76.65L-138 85.15L-138.5 90.75M-43.25,90.5L-43.75 90.9M-21.3,67.6L-25.4 73.25L-28.65 76.65L-36.15 83.85M-148.5,18.2L-148.5 18.45L-148.3 18.45L-148.2 18.45M-148.5,18.2Q-149 15.15 -150.6 13.05Q-153 9.75 -157.9 8.65L-167.6 7.85L-176.7 7.7L-177.7 7.7M-148.35,21Q-148.35 19.65 -148.5 18.45M-133.25,34.95L-148.25 33.45L-148.4 33.45M-149.2,33.45Q-150.15 38.75 -151.8 40.75Q-152.95 42.1 -155.35 43.1Q-160.6 45.15 -171.4 45.15L-177.75 45M-149.2,33.45Q-148.55 30.25 -148.5 26.15L-148.5 26.05L-148.35 22.3M-177.8,91.8L-176.35 91.9" />
</g>
</svg>
