<?xml version="1.0" encoding="utf-8"?>
<svg version="1.1" id="Layer_1"
xmlns="http://www.w3.org/2000/svg"
xmlns:xlink="http://www.w3.org/1999/xlink"
xmlns:author="http://www.sothink.com"
width="90px" height="36px"
xml:space="preserve">
<g id="58" transform="matrix(1, 0, 0, 1, 43, 26.35)">
<path style="fill:#C9DAF1;fill-opacity:1" d="M1.35,-21Q0.9 -20.5 -0.75 -20.5Q-2.1 -20.5 -3.05 -21.35Q-4.05 -22.2 -4.05 -23.3L-4 -24.5L-3.7 -24.95L-3 -25.3L-2.7 -25.75L-2 -25.85Q-0.7 -25.85 0.35 -25.2Q1.65 -24.35 1.65 -22.7Q1.65 -21.4 1.35 -21M36.7,3.25L26.3 2.8L12.2 3.95L-2.05 5.1L-10.35 4.6L-14.8 4.05L-17.8 4.5L-20.75 4.95L-24.8 4.4L-33.85 5.35L-41.05 6.25Q-37.3 2.6 -35.25 1.2Q-31.5 -1.35 -26.8 -1.35Q-23.55 -1.35 -16.5 1Q-11.2 2.75 -4.95 3.2L-3.25 0Q-2.85 -1.05 -2.85 -3Q-2.85 -4.85 -3.8 -8.15Q-4.8 -11.45 -4.8 -12.75L-4.6 -13.65L-4.2 -14.4Q-3.25 -13.95 -2.65 -12.85Q-2.2 -12.05 -1.65 -10.25Q-1.35 -9.3 0 -8.75Q1.55 -8.1 2.1 -7.35Q2.8 -6.45 3.35 -1.7Q3.8 2.4 5.3 2.8Q11.3 1.85 17.25 -0.95L23.3 -3.9Q26.35 -5.25 28.45 -5.25Q31.3 -5.25 38.4 -1.5Q46.1 2.55 46.1 5.2L46.05 5.8Q40 3.75 36.7 3.25M36,-4.85L35.7 -6.65L35.65 -7.5L35.9 -9.4L36.7 -9.6Q37.8 -9.6 38.6 -8.55Q39.3 -7.6 39.3 -6.3Q39.3 -3.75 37.55 -3.75Q36.4 -3.75 36 -4.85M-35.8,-3.45L-35.45 -4.8L-35.2 -5.15L-34.4 -5.25Q-32.7 -5.25 -32.7 -3.6Q-32.7 -2.7 -33 -1.5Q-33.55 0.4 -34.55 0.4Q-36 0.4 -36 -2.15L-35.8 -3.45" />
<path style="fill:#A9BEDB;fill-opacity:1" d="M46.05,5.8Q45.65 6.95 43.75 7.35L40.3 7.5L30.35 6.9L17.55 6.3L-3.35 6.45L-31.75 8.55L-34.9 8.3L-38 8L-40.55 8.3Q-42.25 8.35 -42.45 7.5L-42 7.15L-41.35 6.55L-41.05 6.25L-33.85 5.35L-24.8 4.4L-20.75 4.95L-17.8 4.5L-14.8 4.05L-10.35 4.6L-2.05 5.1L12.2 3.95L26.3 2.8L36.7 3.25Q40 3.75 46.05 5.8" />
<path style="fill:none;stroke-width:1;stroke-linecap:butt;stroke-linejoin:miter;stroke-miterlimit:3;stroke:#5C8BBB;stroke-opacity:1" d="M1.65,-22.7Q1.65 -24.35 0.35 -25.2Q-0.7 -25.85 -2 -25.85L-2.7 -25.75L-3 -25.3L-3.7 -24.95L-4 -24.5L-4.05 -23.3Q-4.05 -22.2 -3.05 -21.35Q-2.1 -20.5 -0.75 -20.5Q0.9 -20.5 1.35 -21Q1.65 -21.4 1.65 -22.7M-41.05,6.25Q-37.3 2.6 -35.25 1.2Q-31.5 -1.35 -26.8 -1.35Q-23.55 -1.35 -16.5 1Q-11.2 2.75 -4.95 3.2L-3.25 0Q-2.85 -1.05 -2.85 -3Q-2.85 -4.85 -3.8 -8.15Q-4.8 -11.45 -4.8 -12.75L-4.6 -13.65L-4.2 -14.4Q-3.25 -13.95 -2.65 -12.85Q-2.2 -12.05 -1.65 -10.25Q-1.35 -9.3 0 -8.75Q1.55 -8.1 2.1 -7.35Q2.8 -6.45 3.35 -1.7Q3.8 2.4 5.3 2.8Q11.3 1.85 17.25 -0.95L23.3 -3.9Q26.35 -5.25 28.45 -5.25Q31.3 -5.25 38.4 -1.5Q46.1 2.55 46.1 5.2L46.05 5.8Q45.65 6.95 43.75 7.35L40.3 7.5L30.35 6.9L17.55 6.3L-3.35 6.45L-31.75 8.55L-34.9 8.3L-38 8L-40.55 8.3Q-42.25 8.35 -42.45 7.5L-42 7.15L-41.35 6.55L-41.05 6.25M37.55,-3.75Q39.3 -3.75 39.3 -6.3Q39.3 -7.6 38.6 -8.55Q37.8 -9.6 36.7 -9.6L35.9 -9.4L35.65 -7.5L35.7 -6.65L36 -4.85Q36.4 -3.75 37.55 -3.75M-35.45,-4.8L-35.6 -4.8L-35.8 -3.45L-35.45 -4.8L-35.2 -5.15L-34.4 -5.25Q-32.7 -5.25 -32.7 -3.6Q-32.7 -2.7 -33 -1.5Q-33.55 0.4 -34.55 0.4Q-36 0.4 -36 -2.15L-35.8 -3.45M-4.95,3.2L-0.9 3.3L5.3 2.8" />
</g>
</svg>
