<?xml version="1.0" encoding="utf-8"?>
<svg version="1.1" id="Layer_1"
xmlns="http://www.w3.org/2000/svg"
xmlns:xlink="http://www.w3.org/1999/xlink"
xmlns:author="http://www.sothink.com"
width="207px" height="168px"
xml:space="preserve">
<g id="337" transform="matrix(1, 0, 0, 1, 16.5, -404.15)">
<path style="fill:#000000;fill-opacity:0.2" d="M87.25,572.05Q46.9 572.05 18.5 567.4Q-9.95 562.75 -9.95 556.1Q-9.95 549.45 18.5 544.8Q46.9 540.1 87.25 540.1Q127.55 540.1 156 544.8Q184.4 549.45 184.4 556.1Q184.4 562.75 156 567.4Q127.55 572.05 87.25 572.05" />
<path style="fill:#FC850F;fill-opacity:1" d="M183.3,544.95Q180.25 544.65 179.45 545.6Q179.1 546.05 179.1 547.45Q179.1 548.65 179.6 549.95L180.85 552.45L182.5 554.9L183.25 556.1Q183.9 556.9 185.05 557.15L186.35 557.15Q186.75 556.7 186.75 556.05Q186.75 553.35 185.2 549L185.55 549.75Q187.6 554.75 186.65 557.25Q185.7 559.75 163.9 559L142.4 557.75Q93.15 566.35 44.1 558.25Q36.35 560.2 23.3 560.85Q-2.8 562.15 -4.85 559.8Q-6.9 557.45 -5.5 551.55L-3.65 546.15Q-7.8 546.05 -7.65 542.15Q-7.5 538.85 -3.75 538.3L-0.05 538.4Q1.8 536.55 4.7 536.65Q7.95 536.75 9.25 539.55Q10.7 542.7 8.3 548.6Q7.15 551.55 5.65 553.9L36.65 554.45Q33.6 552.75 32.5 551.45L31.2 549.9Q27.3 548.75 22.85 545.5Q21.05 544.2 19.55 542.7L19.65 542.7Q23.65 541.85 23.65 541.2L23.4 540.95L20.25 541.4L19.2 541.7Q18.95 541.8 18.8 542Q16.1 539.2 14.2 535.9L15.75 535.95L20.6 534.95L20.9 534.6L20.5 534.25L18.7 534.3L16.5 534.65L13.95 534.7Q13.95 535.05 14.25 535.35L14.05 535.4L14 535.55L14 535.6Q12.2 532.35 11.15 528.6L12.5 529.1L14.6 529.1L14.7 529L17.65 528.85L18 528.45L17.75 528.2L11.75 527.7Q11.1 527.6 10.95 527.9Q8.25 517.3 11.9 508.7L11.9 509.05L12 509.1L12.1 509.3L12.05 509.6L12.5 509.9L13.45 510.15L13.8 510.45L14.5 510.8Q15.35 511.4 17.75 511.8L18 511.95L19 511.95L19.15 511.6Q19.15 511.25 17.55 510.25L15.65 509.2Q14.8 508.7 14.25 508.55Q13.15 508 12.65 508L12.65 508.35L12.1 508.25L13.8 505.05Q16.15 501.25 19.45 498.7Q22.35 496.45 24.6 496.05Q28 495.45 30.6 498.35Q31.9 499.85 32.55 501.4L38.15 499.5Q41.1 498.25 42.25 496.65Q43.35 495.1 37.3 488Q31.75 481.55 25.9 476.75L23.85 475.1Q11.9 461 3.85 445.9Q-8.5 441.8 -12.25 439.25Q-14.15 437.95 -14.8 434.9Q-15.4 431.9 -14.05 431.05Q-12.8 430.3 -11 430.8L-11.75 427.15Q-12.05 423.25 -9.95 422.1Q-7.95 421.05 -4.55 425.2Q-4.8 423.55 -4.65 421.8Q-4.3 418.25 -2 417.75Q0.3 417.25 3.2 424.9Q4.65 428.7 5.65 432.6Q6.1 430.05 7.15 427.8Q9.25 423.25 12.3 424.65Q15.35 426.05 13.4 432.4Q12.4 435.55 12.05 437.95L42.5 484.3Q39.8 475.7 39.3 468.75L39.6 468.8L40.1 468.75L39.95 468.8L39.85 469L39.95 469.25L41.8 469.2L41.9 469.1L43.3 468.9L44.7 468.7L44.7 468.6L45.2 468.55L45.35 468.4L45.8 468.25L46.05 468.2Q46.05 468.15 46.25 468.05L46.45 467.8L46.35 467.55L46.05 467.6L45.95 467.55L45.35 467.45L40.95 467.45L40.1 467.55Q39.75 467.75 39.7 468.05Q39.4 468.1 39.3 468.25L39.2 465.55L34.85 460.2L41.25 460.75L35.1 454.05L41.75 455.1Q37.25 450.45 35.6 443.85L45.1 446.9L41 437.7Q46.5 437.7 52 443.85Q51.25 434.7 51.2 425.4Q51.2 406.7 55.05 405.7Q58.9 404.7 67.75 419.2Q72.15 426.4 75.8 433.85L79.9 431.25Q84.35 428.7 85.8 429Q86.95 429.2 88.55 431.75Q90.1 434.15 91.15 434.1Q92.25 434.1 95 432.65Q97.9 431.2 98.85 431.05Q100.95 430.75 104.2 433.35Q108.05 426.5 112.7 419.9Q121.95 406.65 126 407.75Q130.05 408.85 128.8 427.75Q128.2 437.2 126.75 446.4L132.9 444.6Q131.65 449.35 129.3 451.25Q134.45 452.45 139.55 450.5Q135.1 459 130.6 461.75L137.5 460.75Q134.2 468.65 130.85 471.5L133.9 473L133 475.6L133 475.35Q133 474.6 130.35 473.5Q127.85 472.5 126.75 472.45L126.5 472.8Q126.5 473.25 129 474.2L130.85 475.1L132.85 475.95L132 478.3Q131.9 477.95 131.05 477.55L129.85 477.1L128.2 476.4Q127.2 475.95 126.1 475.95L125.85 475.95L125.85 476.6L126.9 477.4L128.3 478.2L130.1 478.85Q131.05 479 131.45 479.4L131.6 479.4L129.9 484.1Q127.6 482.4 123.25 481.7L123.05 481.7L123 481.95Q123 482.3 125.5 483.5L128.6 484.85L129.25 484.6L129.7 484.6L127.65 490.25L161.75 437.95Q161.4 435.55 160.4 432.4Q158.45 426.05 161.5 424.65Q164.55 423.25 166.65 427.8Q167.7 430.05 168.15 432.6Q169.15 428.7 170.6 424.9Q173.5 417.25 175.8 417.75Q178.1 418.25 178.45 421.8Q178.6 423.55 178.35 425.2Q181.75 421.05 183.75 422.1Q185.85 423.25 185.55 427.15Q185.4 429.1 184.8 430.8Q186.6 430.3 187.85 431.05Q189.2 431.9 188.6 434.9Q187.95 437.95 186.05 439.25Q182.3 441.8 169.95 445.9Q161.9 461 149.95 475.1L147.9 476.75Q142.3 481.35 137.55 486.8Q132.5 492.65 132.9 494.6Q133.35 496.85 136.35 498.9Q137.9 500 143 502.65Q153.3 507.95 156.2 513.55Q161.95 524.6 154.65 540.1Q151 547.85 146.2 553.4L175.15 553.4Q173.75 550.85 172.6 547.8Q170.35 541.7 171.8 539.05Q172.65 537.5 174.45 537Q176.05 536.6 178.1 537.05L182.05 537.05Q186.35 537.55 187.95 540.2Q189.55 542.85 186.6 544.3Q185.15 545 183.45 545.2L183.3 544.95M172.75,430.85Q170.8 431.05 168.85 432.2Q168 432.6 166.3 434.15Q165.1 435.1 164.5 436.35L164.1 437.4L163.8 438.65L163.95 439.65Q164.05 440.3 164.5 440.75L165.6 441.7L167.35 442.4L168.85 442.4Q169.05 442.1 171.2 441.9L171.35 441.7Q172.95 441.4 176.1 439.9L177.3 437.95L178.05 435.9L177.8 434.55L177.05 433.15L175.85 431.7Q175 431 172.75 430.85M124.1,429.25Q125.4 415.1 123.45 414.65Q121.5 414.2 114.95 424.35Q111.7 429.45 108.85 434.6L113.45 432.55L113.2 437.2L118.85 432.55L116.55 440.25L120.1 437.95L122.4 443.3Q123.45 436.3 124.1 429.25M81.35,456.15Q79.15 458.95 78.1 461.5L81.4 465.45Q85.6 469.45 89.9 469.7Q96.9 470.1 103.15 466.9Q109.55 463.65 109.35 459.45Q109.1 454.4 104.2 451.15Q102 449.7 99.5 449.15Q99.85 447.35 99.55 445.3Q98.95 441.25 95.75 440.3L92.95 440.15L90.75 440.8L88.35 442.05Q89.5 444.5 89.45 447.55L89.45 447.9L89.15 450.1L85.75 451.95L86.45 451.4L87.45 450.8L88.3 450.2L88.8 449.6Q89.2 448.7 89.2 447L88.95 445.15L88.6 444.15L88.3 443.25L87.95 442.3L87.45 441.4L86.75 440.45L86.25 439.9L85.2 439.65L84.5 439.45L83.7 439.35L82 439.35L80.8 439.5L80.1 439.7L78.8 440.05Q78.15 440.25 77.5 440.75L76.8 441.5L75.1 444.55Q74.65 445.2 74.15 447.55L73.85 448.95L73.65 450.6L73.7 450.8L73.7 453.7L74 454.95L74.45 456.3L75.65 458.9L76.25 460.05Q76.6 460.95 77.05 461.25L77.35 461.25L77.9 460.7L78.25 460.1L79.05 458.9L79.45 458.35L79.85 457.75L81 456.5Q81.7 455.4 83.05 454.15L83.5 453.55L84.2 453Q84.5 452.65 85.55 452.1Q83.3 453.7 81.35 456.15M131.5,478.65L131.95 478.5L131.75 479.05L131.5 478.65M126.15,481.65L128.7 482.8L129.1 482.8L130.2 482.65L130.25 482.4L130.2 482.25L130.05 482.2L127.1 480.55Q124.1 479.6 124.1 480.3Q124.1 480.7 126.15 481.65M128.5,486.15L125.9 485.5L123.3 485.4L123.25 485.65L123.6 486.15L126.75 486.95L127.7 487.1L128.1 486.9L128.05 486.65L128.45 486.6L128.6 486.35L128.5 486.15M56.9,441.8L60.2 439.25L61 434.85L64.05 437.45L65.85 434.35L70.7 434.85L64.55 423.3Q58.1 411.85 56.65 412.35Q55.2 412.85 55.9 427.4Q56.25 434.65 56.9 441.8M0.8,431.2L-0.4 431.45Q-0.7 431.55 -2 433.1Q-3.4 434.8 -3.4 436.7Q-3.4 438.05 -2.25 439.65Q-0.8 441.6 1.45 441.95L3.35 442.2L3.35 442.3L4.25 442.45Q7.1 442.45 8.7 440.75Q9.85 439.55 9.85 438.45Q9.85 437 7.75 434.7Q5.75 432.45 4.1 431.85L2.25 431.3L0.8 431.2M40.3,471.5L40.65 471.55L40.7 471.9L41.7 471.95L41.8 471.85L43.2 471.7Q43.1 471.5 43.95 471.4L44.2 471L43.95 470.7L41.35 470.7Q40.2 470.7 40.2 471.2L40.3 471.5M53.2,453.9Q51.85 450.5 50.45 449.8Q48.95 449 47.85 449.15Q46.3 449.4 45.1 451.5Q43.6 454.15 44.15 459.45Q44.8 465.15 47.65 466.95Q50.2 468.6 53.75 469L56.75 469.1Q54 464 54.3 457.15L53.2 453.9M46.6,473.8L42.15 474.25Q40.6 474.4 40.6 474.95Q40.6 475.35 41.2 475.35L41.2 475.75L41.55 475.75L45.1 475Q46.85 474.35 46.85 474.15L46.6 473.8M41.95,479.5L42.6 479.65L47.45 479.2L47.55 479L48.3 478.8L48.45 478.55L48.35 478.35L45.2 478.3L41.95 478.8Q41.7 478.9 41.7 479.1L41.95 479.5M45.2,477.3Q46.95 476.9 46.95 476.5L46.7 476.2L43.9 476.3L42.55 476.55Q41.5 476.55 41.2 477.25L41.2 477.9L41.7 477.9L45.2 477.3M48.6,484.3Q46.55 484 43.85 484.3Q43.45 484.3 43.45 484.9L43.55 485.4L44.8 485.5L48.55 484.9L48.85 484.55L48.6 484.3M60.25,489.45L61.25 489.6L62.75 489.15L64.45 488.6L65.2 488.4L65.3 488.2L65.1 487.95L63.6 487.85L60.95 487.8L58.75 487.25L57.1 486.45L55.55 485.05L54.35 484.15L54.25 484.5Q54.25 484.85 55 485.9L56 487.2Q57.55 488.75 60.25 489.45M20.9,500.1Q20.3 499.4 19.5 499.3L19.5 499.65L19.3 499.75L19.2 500.45Q19.2 501 20.9 502.45Q22.6 503.9 23.5 503.95L23.6 503.85L23.65 503.4Q23.65 502.65 21.95 501.25L20.9 500.1M17.2,521.75L18.75 521.55L18.85 521.5L18.9 521.35L18.85 521.2Q18.5 520.85 18 520.85L15.25 520.8L13.9 520.65L11.9 520.45L10.05 520.5L10 520.75L10.25 521.15L10.1 521.2L10 521.4L10.1 521.65L10.55 521.7Q10.4 521.95 10.55 522.1L13.35 522.1L13.5 522L17.1 521.85L17.2 521.75M19.15,542.2L19.05 542.25L19 542.2L19.15 542.2M0.8,545.7Q0.4 545.15 -0.15 545.5L-0.6 546.1L-1.3 546.25Q-3.15 546.85 -3.95 547.9Q-4.5 548.6 -4.95 550.8L-5.4 554.45L-5.25 556.8L-5 557.9L-4.75 558.5L-2.75 558.95Q-0.75 557.45 1 553.95L2.3 551.45Q3.25 549.45 3.25 548.65Q3.25 546.2 0.95 545.9L0.85 545.9L0.8 545.7" />
<path style="fill:#E66006;fill-opacity:1" d="M185.2,549Q186.75 553.35 186.75 556.05Q186.75 556.7 186.35 557.15L185.05 557.15Q183.9 556.9 183.25 556.1L182.5 554.9L180.85 552.45L179.6 549.95Q179.1 548.65 179.1 547.45Q179.1 546.05 179.45 545.6Q180.25 544.65 183.3 544.95L183.45 545.2L185.05 548.65L185.2 549M175.85,431.7L177.05 433.15L177.8 434.55L178.05 435.9L177.3 437.95L176.1 439.9Q172.95 441.4 171.35 441.7L171.2 441.9Q169.05 442.1 168.85 442.4L167.35 442.4L165.6 441.7L164.5 440.75Q164.05 440.3 163.95 439.65L163.8 438.65L164.1 437.4L164.5 436.35Q165.1 435.1 166.3 434.15Q168 432.6 168.85 432.2Q170.8 431.05 172.75 430.85Q175 431 175.85 431.7M122.4,443.3L120.1 437.95L116.55 440.25L118.85 432.55L113.2 437.2L113.45 432.55L108.85 434.6Q111.7 429.45 114.95 424.35Q121.5 414.2 123.45 414.65Q125.4 415.1 124.1 429.25Q123.45 436.3 122.4 443.3M55.9,427.4Q55.2 412.85 56.65 412.35Q58.1 411.85 64.55 423.3L70.7 434.85L65.85 434.35L64.05 437.45L61 434.85L60.2 439.25L56.9 441.8Q56.25 434.65 55.9 427.4M2.25,431.3L4.1 431.85Q5.75 432.45 7.75 434.7Q9.85 437 9.85 438.45Q9.85 439.55 8.7 440.75Q7.1 442.45 4.25 442.45L3.35 442.3L3.35 442.2L1.45 441.95Q-0.8 441.6 -2.25 439.65Q-3.4 438.05 -3.4 436.7Q-3.4 434.8 -2 433.1Q-0.7 431.55 -0.4 431.45L0.8 431.2L2.25 431.3M0.85,545.9L0.95 545.9Q3.25 546.2 3.25 548.65Q3.25 549.45 2.3 551.45L1 553.95Q-0.75 557.45 -2.75 558.95L-4.75 558.5L-5 557.9L-5.25 556.8L-5.4 554.45L-4.95 550.8Q-4.5 548.6 -3.95 547.9Q-3.15 546.85 -1.3 546.25L-0.6 546.1L-0.15 545.5Q0.4 545.15 0.8 545.7L0.85 545.9" />
<path style="fill:#FFFFFF;fill-opacity:1" d="M85.7,452L85.55 452.1Q84.5 452.65 84.2 453L83.5 453.55L83.05 454.15Q81.7 455.4 81 456.5L79.85 457.75L79.45 458.35L79.05 458.9L78.25 460.1L77.9 460.7L77.35 461.25L77.05 461.25Q76.6 460.95 76.25 460.05L75.65 458.9L74.45 456.3L74 454.95L73.7 453.7L73.7 450.8L73.65 450.6L73.85 448.95L74.15 447.55Q74.65 445.2 75.1 444.55L76.8 441.5L77.5 440.75Q78.15 440.25 78.8 440.05L80.1 439.7L80.8 439.5L82 439.35L83.7 439.35L84.5 439.45L85.2 439.65L86.25 439.9L86.75 440.45L87.45 441.4L87.95 442.3L88.3 443.25L88.6 444.15L88.95 445.15L89.2 447Q89.2 448.7 88.8 449.6L88.3 450.2L87.45 450.8L86.45 451.4L85.75 451.95L85.7 452M91.95,449.2Q90.5 449.5 89.15 450.1L89.45 447.9L89.45 447.55Q89.5 444.5 88.35 442.05L90.75 440.8L92.95 440.15L95.75 440.3Q98.95 441.25 99.55 445.3Q99.85 447.35 99.5 449.15Q96 448.35 91.95 449.2M92.45,444.95Q91.35 445.55 91.35 447.35L91.55 448.15Q91.95 448.85 92.95 448.85Q94.45 448.85 95.1 446.8Q95.1 446.1 94.25 445.3Q93.25 444.45 92.45 444.95M81.85,445.9Q80.9 446.05 80.4 447.15Q79.95 448.1 79.95 449.15Q79.95 450.2 80.2 450.45L80.45 450.65L80.5 450.7Q81.15 451.95 82.6 451.95Q83.95 451.95 84.65 450.9Q85.1 450.2 85.15 449.55L85.2 448.95Q85.2 447.65 84.8 447.05Q84.1 445.85 81.85 445.9" />
<path style="fill:#FF6D6B;fill-opacity:1" d="M99.5,449.15Q102 449.7 104.2 451.15Q109.1 454.4 109.35 459.45Q109.55 463.65 103.15 466.9Q96.9 470.1 89.9 469.7Q85.6 469.45 81.4 465.45L78.1 461.5Q79.15 458.95 81.35 456.15Q83.3 453.7 85.55 452.1L85.7 452L85.75 451.95L89.15 450.1Q90.5 449.5 91.95 449.2Q96 448.35 99.5 449.15" />
<path style="fill:#FF2E28;fill-opacity:1" d="M54.3,457.15Q54 464 56.75 469.1L53.75 469Q50.2 468.6 47.65 466.95Q44.8 465.15 44.15 459.45Q43.6 454.15 45.1 451.5Q46.3 449.4 47.85 449.15Q48.95 449 50.45 449.8Q51.85 450.5 53.2 453.9L54.3 457.15M49.35,455.2L48.95 456.2L48.95 457.2Q48.95 462.1 52.95 463.15L53.95 463.15L54.15 462.85L54.35 462.3Q54.35 461.9 53.4 461.5L52.1 460.95L51.2 460.15L50.4 459.2Q49.7 458.1 49.65 457.25L49.65 456.2Q49.6 455.5 49.35 455.2" />
<path style="fill:#582903;fill-opacity:1" d="M130.25,484.35L130.15 484.6L129.7 484.6L129.25 484.6L128.6 484.85L125.5 483.5Q123 482.3 123 481.95L123.05 481.7L123.25 481.7Q127.6 482.4 129.9 484.1L130.25 484.35M131.95,478.5L131.5 478.65L131.75 479.05L132 479.3L131.85 479.4L131.6 479.4L131.45 479.4Q131.05 479 130.1 478.85L128.3 478.2L126.9 477.4L125.85 476.6L125.85 475.95L126.1 475.95Q127.2 475.95 128.2 476.4L129.85 477.1L131.05 477.55Q131.9 477.95 132 478.3L131.95 478.5M132.95,475.9L132.85 475.95L130.85 475.1L129 474.2Q126.5 473.25 126.5 472.8L126.75 472.45Q127.85 472.5 130.35 473.5Q133 474.6 133 475.35L133 475.6L132.95 475.9M39.1,468.55L39.3 468.25Q39.4 468.1 39.7 468.05Q39.75 467.75 40.1 467.55L40.95 467.45L45.35 467.45L45.95 467.55L46.05 467.6L46.35 467.55L46.45 467.8L46.25 468.05Q46.05 468.15 46.05 468.2L45.8 468.25L45.35 468.4L45.2 468.55L44.7 468.6L44.7 468.7L43.3 468.9L41.9 469.1L41.8 469.2L39.95 469.25L39.85 469L39.95 468.8L40.1 468.75L39.6 468.8L39.3 468.75L39.1 468.55M11.9,508.3L12.1 508.25L12.65 508.35L12.65 508Q13.15 508 14.25 508.55Q14.8 508.7 15.65 509.2L17.55 510.25Q19.15 511.25 19.15 511.6L19 511.95L18 511.95L17.75 511.8Q15.35 511.4 14.5 510.8L13.8 510.45L13.45 510.15L12.5 509.9L12.05 509.6L12.1 509.3L12 509.1L11.9 509.05L11.9 508.7L11.9 508.3M11,528.55L10.9 528.1L10.95 527.9Q11.1 527.6 11.75 527.7L17.75 528.2L18 528.45L17.65 528.85L14.7 529L14.6 529.1L12.5 529.1L11.15 528.6L11 528.55M14.1,535.9L14 535.6L14 535.55L14.05 535.4L14.25 535.35Q13.95 535.05 13.95 534.7L16.5 534.65L18.7 534.3L20.5 534.25L20.9 534.6L20.6 534.95L15.75 535.95L14.2 535.9L14.1 535.9M18.8,542Q18.95 541.8 19.2 541.7L20.25 541.4L23.4 540.95L23.65 541.2Q23.65 541.85 19.65 542.7L19.55 542.7L19.15 542.7L18.9 542.45L19.05 542.25L19.15 542.2L19 542.2L18.75 542.05L18.8 542M94.25,445.3Q95.1 446.1 95.1 446.8Q94.45 448.85 92.95 448.85Q91.95 448.85 91.55 448.15L91.35 447.35Q91.35 445.55 92.45 444.95Q93.25 444.45 94.25 445.3M84.8,447.05Q85.2 447.65 85.2 448.95L85.15 449.55Q85.1 450.2 84.65 450.9Q83.95 451.95 82.6 451.95Q81.15 451.95 80.5 450.7L80.45 450.65L80.2 450.45Q79.95 450.2 79.95 449.15Q79.95 448.1 80.4 447.15Q80.9 446.05 81.85 445.9Q84.1 445.85 84.8 447.05M124.1,480.3Q124.1 479.6 127.1 480.55L130.05 482.2L130.2 482.25L130.25 482.4L130.2 482.65L129.1 482.8L128.7 482.8L126.15 481.65Q124.1 480.7 124.1 480.3M128.6,486.35L128.45 486.6L128.05 486.65L128.1 486.9L127.7 487.1L126.75 486.95L123.6 486.15L123.25 485.65L123.3 485.4L125.9 485.5L128.5 486.15L128.6 486.35M40.2,471.2Q40.2 470.7 41.35 470.7L43.95 470.7L44.2 471L43.95 471.4Q43.1 471.5 43.2 471.7L41.8 471.85L41.7 471.95L40.7 471.9L40.65 471.55L40.3 471.5L40.2 471.2M49.65,456.2L49.65 457.25Q49.7 458.1 50.4 459.2L51.2 460.15L52.1 460.95L53.4 461.5Q54.35 461.9 54.35 462.3L54.15 462.85L53.95 463.15L52.95 463.15Q48.95 462.1 48.95 457.2L48.95 456.2L49.35 455.2Q49.6 455.5 49.65 456.2M46.85,474.15Q46.85 474.35 45.1 475L41.55 475.75L41.2 475.75L41.2 475.35Q40.6 475.35 40.6 474.95Q40.6 474.4 42.15 474.25L46.6 473.8L46.85 474.15M41.7,479.1Q41.7 478.9 41.95 478.8L45.2 478.3L48.35 478.35L48.45 478.55L48.3 478.8L47.55 479L47.45 479.2L42.6 479.65L41.95 479.5L41.7 479.1M41.7,477.9L41.2 477.9L41.2 477.25Q41.5 476.55 42.55 476.55L43.9 476.3L46.7 476.2L46.95 476.5Q46.95 476.9 45.2 477.3L41.7 477.9M48.85,484.55L48.55 484.9L44.8 485.5L43.55 485.4L43.45 484.9Q43.45 484.3 43.85 484.3Q46.55 484 48.6 484.3L48.85 484.55M56,487.2L55 485.9Q54.25 484.85 54.25 484.5L54.35 484.15L55.55 485.05L57.1 486.45L58.75 487.25L60.95 487.8L63.6 487.85L65.1 487.95L65.3 488.2L65.2 488.4L64.45 488.6L62.75 489.15L61.25 489.6L60.25 489.45Q57.55 488.75 56 487.2M21.95,501.25Q23.65 502.65 23.65 503.4L23.6 503.85L23.5 503.95Q22.6 503.9 20.9 502.45Q19.2 501 19.2 500.45L19.3 499.75L19.5 499.65L19.5 499.3Q20.3 499.4 20.9 500.1L21.95 501.25M17.1,521.85L13.5 522L13.35 522.1L10.55 522.1Q10.4 521.95 10.55 521.7L10.1 521.65L10 521.4L10.1 521.2L10.25 521.15L10 520.75L10.05 520.5L11.9 520.45L13.9 520.65L15.25 520.8L18 520.85Q18.5 520.85 18.85 521.2L18.9 521.35L18.85 521.5L18.75 521.55L17.2 521.75L17.1 521.85" />
<path style="fill:#000000;fill-opacity:0.2" d="M177.05,418.45L176.85 418.2Q178.2 419.15 178.45 421.8Q178.6 423.55 178.35 425.2Q181.75 421.05 183.75 422.1Q185.85 423.25 185.55 427.15Q185.4 429.1 184.8 430.8Q186.6 430.3 187.85 431.05Q189.2 431.9 188.6 434.9Q187.95 437.95 186.05 439.25Q183.05 441.3 174.55 444.35L174.6 444.05L175 443.45Q175.7 442.9 177.45 442L177.7 441.85Q179.05 441.65 181.35 440.3L184.3 438.35L187.2 436.35L187.45 435.85L187.65 435.3L188.4 434.15L188.2 433.55L188.5 433.25L188.6 432.8Q188.6 432.35 188.1 432.15Q185.35 432.45 184.15 433.25L182.3 434.95L179.25 437.1L176.55 438.7L172.7 440.45L167.75 441L165.15 441.4Q164.25 442.15 163.5 443.4L162.15 445.35Q159.3 448.85 156.4 453.25L151.45 461.05L146.4 468.95L141.3 476.5L138.05 480.4L135.75 483.5L135.3 483.9L131.95 487.3L127.55 490.55L127.55 490.5L127.75 490.1L161.75 437.95Q161.4 435.55 160.4 432.4Q158.45 426.05 161.5 424.65L162.65 424.35Q162.4 424.45 162.2 424.65Q161.8 425.1 161.8 426.05Q161.8 427.55 162.6 429.65Q163.55 432.25 164.85 432.5L165.85 432.5Q166.5 432.1 166.65 431.25L166.7 430.05L165.7 426.1L166.65 427.8Q167.7 430.05 168.15 432.6Q169.15 428.7 170.6 424.9Q173.5 417.25 175.8 417.75L176.65 418.1Q176.2 417.9 175.7 418.75Q175.3 419.5 175 420.75L173.95 424.1Q173.15 426.65 173.15 427.7L173.25 428.25Q173.45 428.75 174.1 428.75Q174.8 428.75 176.55 425.5Q178.25 422.4 178.25 421.65Q178.25 421.2 177.85 420.95Q177.45 420.7 177.45 420.2L177.05 418.45M179.7,431.15L180.85 431.15Q182.85 430.65 184.25 429.05Q185.45 427.6 185.45 426.45L185.05 425.25L184.3 423.9Q184.1 422.95 183.1 423.7Q182.35 424.3 181.85 425.05Q179 428.95 179 430.15Q179 430.55 179.7 431.15M181.95,540.35Q181.95 537.85 177.35 537.3Q172.75 536.75 172.75 539.6Q172.75 540.45 173.35 541.15Q174.55 542.5 177.7 542.5Q181.25 542.5 181.95 540.35M174.45,537Q176.05 536.6 178.1 537.05L182.05 537.05Q184.05 537.3 185.45 538L183.8 537.8Q183.1 538.25 183.1 539Q183.1 539.5 183.75 540.1Q184.85 541.1 187 541.1L188.35 541Q189.1 543.05 186.6 544.3Q185.15 545 183.45 545.2L185.05 548.65L185.2 549L185.55 549.75Q187.6 554.75 186.65 557.25Q185.7 559.75 163.9 559L142.4 557.75Q93.15 566.35 44.1 558.25Q36.35 560.2 23.3 560.85Q-2.8 562.15 -4.85 559.8Q-6.9 557.45 -5.5 551.55L-3.65 546.15Q-7.8 546.05 -7.65 542.15Q-7.5 538.85 -3.75 538.3L-3.7 538.3Q-5.3 539.05 -5.7 539.6Q-6.15 540.1 -6.15 541.3L-6.05 542.1Q-5.8 542.5 -5.1 542.5Q-1.65 542.5 -1.65 539.45Q-1.65 539.15 -2.15 538.8L-2.95 538.2L-0.05 538.4L0.2 538.15Q-0.3 538.8 -0.3 539.3Q-0.3 540.25 0.85 541.1Q2.25 542.15 4.5 542.15Q4.95 542.25 5.65 543.85Q6.35 545.4 6.35 546.2Q6.35 547.4 5.1 550.35L4.5 551.75L4.35 552.05L3.65 553.35Q3.2 554.1 3.2 554.7Q3.2 555.55 3.85 556.15Q5.1 557.25 8.4 556.95L32.15 556.75L35.5 556.2Q37.6 556 37.6 555.45L37.45 555.1L37.1 555L34.75 555L31.35 555.5L30.85 555L25.9 555Q21.45 555.65 17 555L9.8 554.9L4.75 554.7L4.95 554L5.25 553.55L5.45 553L5.9 552.35L6.2 552L6.85 551.4L7.4 549.85L7.9 548.2Q8.6 546.75 8.8 544.9L8.9 541.6L8.9 538.9L9.25 539.55Q10.7 542.7 8.3 548.6Q7.15 551.55 5.65 553.9L36.65 554.45Q33.6 552.75 32.5 551.45L31.2 549.9Q27.3 548.75 22.85 545.5Q21.05 544.2 19.55 542.7L19.15 542.7L18.9 542.45L19.05 542.25L19 542.2L18.75 542.05L18.8 542Q16.1 539.2 14.2 535.9L14.1 535.9L14 535.6Q12.2 532.35 11.15 528.6L11 528.55L10.9 528.1L10.95 527.9Q8.25 517.3 11.9 508.7L11.9 508.3L12.1 508.25L13.8 505.05Q16.15 501.25 19.45 498.7Q22.35 496.45 24.6 496.05Q27.1 495.6 29.15 497.05L29 497.05L27.45 497.55L24.85 499.1Q23.15 499.8 21.05 501.45Q19.45 502.7 18.4 504.45Q17.75 505.55 17 507.6Q15.05 512.75 15.05 520.05Q15.05 526.3 17.6 530.9L18.75 533.6Q19.45 535.35 20.15 536.35Q24.15 541.7 24.7 541.7Q25.05 541.7 25.25 541.4Q24.3 539.75 23.35 537.3L21.7 532.9Q21.25 531.75 20.7 528.8Q20.15 525.75 20.15 524.2L20.6 518L20.95 514.7Q21.25 512.8 21.95 511.55L23.55 508.25Q24.55 506.3 25.45 505.1L26.65 503.5L28.55 501.85L31.7 500.45L32.05 500.35L32.55 501.4L38.15 499.5Q41.1 498.25 42.25 496.65Q43.35 495.1 37.3 488Q31.75 481.55 25.9 476.75L23.85 475.1Q11.9 461 3.85 445.9Q-8.5 441.8 -12.25 439.25Q-14.15 437.95 -14.8 434.9Q-15.4 431.9 -14.05 431.05Q-12.8 430.3 -11 430.8L-11.75 427.15Q-12.05 423.25 -9.95 422.1Q-7.95 421.05 -4.55 425.2Q-4.8 423.55 -4.65 421.8Q-4.3 418.25 -2 417.75Q0.3 417.25 3.2 424.9L5 430.25L4.3 430Q3.75 429.9 3.1 428.75L3.15 428.6L3.55 427.3Q3.55 425.8 1.6 421.5Q-0.5 416.8 -1.55 418.95Q-1.9 419.65 -1.9 420.55L-1.5 422.7L-0.85 425.1L-0.1 427.55L0.55 428.7L0.45 429.15Q0.15 430.95 -0.6 431.85L-1.35 430.8Q-2.45 429.3 -3.15 429.05Q-5.7 422.55 -8.85 422.55L-9.85 422.6Q-10.15 422.7 -10.15 423.3L-8.5 427.25L-7.1 429.15L-6.1 430.2L-3.85 430.95L-3.75 430.95L-3.65 431.05L-3 431.8Q-2.1 432.75 -2.1 433.4Q-2.1 434.15 -2.65 434.95Q-3.25 435.8 -3.25 436.8L-3.2 437.05L-4.45 435.8Q-6 434.25 -7.75 433.65Q-10.25 431.45 -11.85 431.25Q-13.4 431.1 -13.4 432.85L-11.05 435.45Q-8.2 438 -5.8 438L-5.25 437.9L-4.9 437.8L-4.1 438L-3.4 438.2L-2.95 438.05L-2.85 437.95Q-2.2 439.05 -0.2 440.3Q2.8 442.2 5.45 442.3L6 443L8.4 445.4L11.8 450.4L18.4 460.35Q22.35 466.45 25.95 470.25Q31.15 475.7 38 479.2L38.85 479.2L39.05 479.05L42.5 484.3Q39.8 475.7 39.3 468.75L39.1 468.55L39.3 468.25L39.2 465.55L34.85 460.2L41.25 460.75L35.1 454.05L41.75 455.1Q37.25 450.45 35.6 443.85L45.1 446.9L41 437.7Q46.5 437.7 52 443.85Q51.25 434.7 51.2 425.4Q51.2 406.7 55.05 405.7L56.75 405.9L55.35 406.2Q54.95 406.35 54.9 406.7L54.9 407.35L55 407.85L54.6 409.25Q53.85 411.1 53.85 412.75L53.95 412.95L53.6 414.45L53.45 423L53.9 432.65Q53.85 433.7 54.15 435.1L54.6 437.45L54.95 440.3L55.1 440.9L54.9 444.05Q54.9 444.4 55.35 444.8L56.15 445.55Q54.75 447.15 54.75 447.45Q54.75 447.8 54.9 447.9Q56.4 448.75 56.4 449.15L56 457L56.4 462.75Q56.85 466.35 58.25 468.6Q60.85 472.55 64.05 474.15L65.85 475.3Q67.05 476.1 68.55 476.3L74.5 477.35L80.4 477.75L81.75 477.6L89.45 477.2L91.95 476.45L96.15 475.1L101.3 473.7L105.9 472.35Q111.8 470.95 115.75 469.15L122.1 465.75L122.1 465.9Q120.1 468.9 117 471.4Q113.4 474.25 109.2 475.65Q101.45 478.55 98.7 479.25L94.7 480.2L92.8 480.55L91.4 480.8L86.4 482.15L83.7 482.45L82.1 482.45L82.1 482.6L81.75 482.7L80.85 482.7L79.65 482.6L78.6 482.7L74.6 482.7L72.95 482.2L69.5 481.45L65.55 480.35L61.35 478.4Q59.75 477.6 58.5 476.35Q56.8 475.15 55.65 473.55Q53.15 470.25 49.2 477.05Q48.85 477.75 48.55 480.45L48.3 483.5L48.9 486.3L49.2 489.35Q49.55 491.2 50.4 492.35L50.35 492.8L49.4 494.65L47.75 496.45L43 499.5Q39.9 501.3 39.1 502.5Q36.85 505.6 36 509.55Q35.4 512.45 35.4 516.9L35.4 521.55Q35.55 523.95 36.45 526.35L37.8 531.2Q38.6 534.1 40 535.85Q41.8 538.15 45 540.65Q48.3 543.2 51.75 544.95L58.6 548.7L66.2 550.1L68.9 550.9L73.85 551.6L79.75 551.85L85.85 552.8L95.7 552.8L97.75 552.5L104.1 552.45L121.6 549.25Q130 547.65 133.2 546.3Q136.85 544.75 139.65 542.8Q142 541.25 145.15 538.4L150.6 533.65L152.85 530.95L154.8 528.6Q157.45 525.95 158.3 523.4L158.65 521.95Q159.35 530.1 154.65 540.1Q151 547.85 146.2 553.4L146.4 553.4L146.2 553.75L145.8 554.7Q145.8 555.25 146.3 555.4L149.8 555.8L153.4 556.15L161.05 556.25L166.3 556.35L175.2 555.95Q176.5 555.7 176.5 555.1L176.05 554.05L174.8 553.6L172.1 553.4L175.15 553.4Q173.75 550.85 172.6 547.8Q170.35 541.7 171.8 539.05Q172.65 537.5 174.45 537M125.8,414.25L126.55 414.85L126.75 416.1L126.9 421.85Q126.9 426.7 125.75 435.5L124.65 443.85Q124.15 444.45 123.45 444.3Q122.7 443.55 121.8 441.6Q120.95 439.8 119.9 438.95L119.25 438.95Q118.6 439.05 118.1 439.85Q117.6 440.65 116.7 440.9L116.4 440.85L116.4 440.2Q116.4 439.35 117.1 437.2L117.8 435L117.75 434.7Q117.75 434.55 117.35 434.55Q116.45 434.55 115 435.8L113.1 437.55L113 437.45L113 436.05Q113.35 435.3 113.35 434.4Q113.3 433.2 112.45 433.2Q111.75 433.2 110.35 434.05L108.8 435.05L108.75 435L108.6 434.15L111.2 429.4Q113 426.05 114.45 423.95L117 420.6L116.7 421.2Q115.75 422.5 114.6 425.1L112 429.4Q110.3 432.2 110.3 432.8L110.4 433.4L110.9 433.5L112.35 432.5L113.9 431.45L114.35 432.1L115.05 432.6L115.55 432.15L115.75 432.5L116.1 432.75L117.85 431.35L119.55 429.5L119.7 429.75L119.75 431L120.2 431.1Q121.25 431.1 121.8 427.05L122.1 422.8L122.05 420.05Q121.85 418.2 121.2 417.75Q119.75 417.85 118.8 418.35L119.75 417.15L121.05 415.95L122.6 414.7Q123.55 413.95 124.8 413.6L125.8 414.25M85.7,440.15L87.05 440.85L87.1 440.9L86.75 440.7L85 440.25L82.65 439.8L80.45 440.05L78.75 440.6Q77.3 441 76.3 443.35Q75.45 445.2 75.45 446.55Q75.45 447.95 76.25 449.25Q77.65 451.5 80.65 451.5Q83.95 451.5 86.25 449.7Q88.95 447.55 88.95 443.65Q88.95 442.45 88.75 442.15L88.4 441.75L88.85 441.75L90.9 440.85Q92.8 440.1 94.25 440.1Q95.8 440.1 97.05 441.1L95.4 440.45Q93.1 440 91.15 441.1Q89.4 442.05 89.4 443.1L90 445.2Q91.1 447.2 93.55 447.2Q98.7 447.2 98.7 443.75L98.7 443.15L99.2 444.65L99.5 445.95Q99.65 446.8 99.45 447.3Q99 448.1 99.85 448.7L101.3 449.55L102.7 450.55Q99.85 449.3 95.4 449.3L94.65 449.3Q89.55 449.4 85.35 452.5Q81.6 455.3 81.6 457.8Q81.6 459.2 84.35 460.55L86.35 461.65L92.3 462.35L99 462.2Q103.55 461.9 105.6 459.2Q106.95 457.45 106.95 455.15L106.9 454.65Q109.2 457.5 109.2 459.6Q109.2 460.5 108.55 461.9L107.55 464L106.15 466.3L104.45 468.6Q103.35 470.4 97.65 472.95Q91.55 475.7 87.6 475.7Q83.45 475.7 82.35 475.1L81.25 474.4L80.3 473.7Q78.45 472.45 77.85 470.4Q77.4 469.1 77.35 466.9L77.25 463.5Q76.8 460.1 74.15 456.6Q72.9 454.85 69.9 453.45Q67.5 452.35 62.9 451.05L63 451.05L67.25 446.95Q69.85 444.45 72.5 443.25L79.05 440.3Q80.1 439.65 82.05 439.65L85.7 440.15M90.15,476.1L91 475.95L90.15 476.2L90.15 476.1M63.05,412.15Q65.2 415 67.75 419.2Q71.7 425.65 75.05 432.3L74.8 432.75L74.4 433.45Q74.35 432.8 73.9 432L73.05 430.35L71.55 427.05L69.9 423.7L68.25 420.45L63.05 412.15M57.85,406.5L59.15 407.6L59.1 407.6L59.15 408.15L59.1 408.15L58.15 406.9L57.85 406.5M58.5,411.35L60.65 414L65.45 420.9L67.2 424.35L69.3 427.7L71.25 431.1L72.15 432.85L72.2 432.9L72.2 433.55L71.65 434.4L71.45 434.65L70.05 435L68.4 435Q67.05 434.25 65.8 435.35Q64.75 436.3 64.35 437.9L61.55 435.95L61.05 435.95Q60.45 436.45 60.45 436.8L60.65 438.15Q60.65 439.05 60.15 439.55L58.7 441.15Q57.85 442 56.75 442.35Q56.7 442.2 56.55 442.2L56.6 442L56.6 441.45L56.35 439.1L56.1 436.75L56.25 435.35L55.8 433.95L55.65 431.1Q55.5 428.4 55.5 425.35Q55.45 421.85 55.55 419.65L56.1 427.95L56.55 432.9Q56.55 434.1 56.9 435.9Q57.3 437.85 57.7 437.85Q58.35 437.85 59.6 435.45L61.25 432.15L61.5 432.55Q61.6 432.75 61.85 432.75L62.3 432.45L62.3 431.85L62.1 430.35L62.75 431.25Q63.1 431.75 63.8 431.75Q64.25 431.75 64.25 431.15Q64.25 430.7 62.45 426.65L60.6 422.1L58.2 417.5Q56.85 415.3 56.1 415.95Q55.8 416.2 55.65 416.75L55.75 414.45Q55.9 412.45 57 410.9L58.5 411.35M13.1,425.75Q11.65 424.3 10.3 426.95Q9.25 429 9.25 432.65L7.8 434.65Q6.95 433.55 6.7 432.55Q6.45 431.65 6 431.05Q6.45 429.35 7.15 427.8Q9.25 423.25 12.3 424.65Q13.85 425.35 14.1 427.35Q13.8 426.45 13.1 425.75M51.75,453.3L51.75 452.8Q51.75 451.25 50.15 450.15Q48.2 448.85 46.05 451.2Q45.3 452.05 45.15 453.7L45.15 456.45L45.1 457.5Q45.05 458.4 45.15 458.85L45.2 458.95L45.05 459.45Q45.05 461 46.3 463.6Q48.15 467.4 51.2 467.4L51.95 467.4L52.35 466.85Q52.35 465.85 50.9 464.55L49.85 463.25L49.2 462.05L47.7 459.6L47.2 458.85Q46.8 457.55 46.8 455.8Q46.7 454.95 46.95 454.15Q47.45 452.55 49.15 452.55Q49.8 452.55 50.45 452.95L51.25 453.3L51.75 453.3M64.8,479.2L64.7 479.15L64.85 479.2L64.8 479.2M66.55,480.1L66.65 480.15L66.8 480.2L66.55 480.1M62.85,494.85L67.75 494.3L74.1 493.8L77.4 493.5L84.2 493.5Q93.25 494.4 104.9 496.5L110.75 497.8L110.8 497.9L111 498L111.9 498.1L113.35 498.45L118.45 499.7L118.95 499.25L118.9 499.25Q123.6 500.6 126.25 501.75Q129.2 503.05 130.9 505.45L130.75 505.3Q128.35 503.55 125.85 502.5Q121.35 500.6 118.8 500Q114.3 499 102.85 497.9L95.8 497.85L94.2 497.75L91.6 497.85L89.15 498L81.25 498.1L67.75 500.25Q56.95 502.4 51 505.4Q51.45 502.45 56.55 497.65Q57.9 496.35 59.15 495.75Q59.95 495.35 61.5 494.9L62.85 494.85M7.2,537.6L6.7 537.2L6.1 536.85Q6.95 537.05 7.65 537.55L7.2 537.6M153.65,553.4L158.75 553.4L158.5 553.9L156.5 553.9L153.65 553.4" />
<path style="fill:#FFFFFF;fill-opacity:0.4" d="M104.15,457.65Q102.9 458.5 98.4 459.45L94.3 459.45Q90.05 459.25 87.15 457.65Q84.7 456.3 84.7 455Q84.7 454.35 85.4 453.5L87.05 451.85L87.75 451.1L89.55 450.6L92.55 450.05L98.45 449.9Q105.05 450.85 105.05 455.45Q105.05 457 104.15 457.65" />
<path style="fill:none;stroke-width:2;stroke-linecap:butt;stroke-linejoin:miter;stroke-miterlimit:3;stroke:#AE4200;stroke-opacity:1" d="M122.4,443.3L120.1 437.95L116.55 440.25L118.85 432.55L113.2 437.2L113.45 432.55L108.85 434.6Q111.7 429.45 114.95 424.35Q121.5 414.2 123.45 414.65Q125.4 415.1 124.1 429.25Q123.45 436.3 122.4 443.3M55.9,427.4Q55.2 412.85 56.65 412.35Q58.1 411.85 64.55 423.3L70.7 434.85L65.85 434.35L64.05 437.45L61 434.85L60.2 439.25L56.9 441.8Q56.25 434.65 55.9 427.4M50.95,505.8Q57.5 502.2 69.45 499.65Q93.3 494.6 120.1 499.95Q125.7 501.1 129.45 504.35Q131.35 505.95 132.1 507.35" />
<path style="fill:none;stroke-width:2;stroke-linecap:butt;stroke-linejoin:miter;stroke-miterlimit:3;stroke:#582903;stroke-opacity:1" d="M54.3,456.45L55.3 450.25" />
<path style="fill:none;stroke-width:3;stroke-linecap:round;stroke-linejoin:miter;stroke-miterlimit:3;stroke:#AE4200;stroke-opacity:1" d="M174.8,430.55Q176.35 427.65 178.35 425.2M178.95,544.7Q180.5 544.25 181.8 543.45Q184.4 541.8 183.3 540.1Q182.65 539.1 181.25 538.3Q179.8 537.4 178.1 537.05M-1.75,545.95L-3.65 546.15M-3.8,435.4L-6.1 433.45Q-8.85 431.35 -11 430.8" />
<path style="fill:none;stroke-width:3;stroke-linecap:round;stroke-linejoin:miter;stroke-miterlimit:3;stroke:#AE4200;stroke-opacity:1" d="M178.35,425.2Q178.6 423.55 178.45 421.8Q178.1 418.25 175.8 417.75Q173.5 417.25 170.6 424.9Q169.15 428.7 168.15 432.6Q167.7 430.05 166.65 427.8Q164.55 423.25 161.5 424.65Q158.45 426.05 160.4 432.4Q161.4 435.55 161.75 437.95L127.65 490.25L133.9 473L130.85 471.5Q134.2 468.65 137.5 460.75L130.6 461.75Q135.1 459 139.55 450.5Q134.45 452.45 129.3 451.25Q131.65 449.35 132.9 444.6L126.75 446.4Q128.2 437.2 128.8 427.75Q130.05 408.85 126 407.75Q121.95 406.65 112.7 419.9Q108.05 426.5 104.2 433.35Q100.95 430.75 98.85 431.05Q97.9 431.2 95 432.65Q92.25 434.1 91.15 434.1Q90.1 434.15 88.55 431.75Q86.95 429.2 85.8 429Q84.35 428.7 79.9 431.25L75.8 433.85Q72.15 426.4 67.75 419.2Q58.9 404.7 55.05 405.7Q51.2 406.7 51.2 425.4Q51.25 434.7 52 443.85Q46.5 437.7 41 437.7L45.1 446.9L35.6 443.85Q37.25 450.45 41.75 455.1L35.1 454.05L41.25 460.75L34.85 460.2L39.2 465.55Q39.15 473.6 42.5 484.3L12.05 437.95Q12.4 435.55 13.4 432.4Q15.35 426.05 12.3 424.65Q9.25 423.25 7.15 427.8Q6.1 430.05 5.65 432.6Q4.65 428.7 3.2 424.9Q0.3 417.25 -2 417.75Q-4.3 418.25 -4.65 421.8Q-4.8 423.55 -4.55 425.2Q-7.95 421.05 -9.95 422.1Q-12.05 423.25 -11.75 427.15L-11 430.8Q-12.8 430.3 -14.05 431.05Q-15.4 431.9 -14.8 434.9Q-14.15 437.95 -12.25 439.25Q-8.5 441.8 3.85 445.9Q11.9 461 23.85 475.1L25.9 476.75Q31.75 481.55 37.3 488Q43.35 495.1 42.25 496.65Q41.1 498.25 38.15 499.5L32.55 501.4Q29.75 502.35 28.1 503.35Q25.9 504.65 24.85 506.55Q16.3 522 24.75 539.5Q27.6 545.4 31.2 549.9L32.5 551.45Q33.6 552.75 36.65 554.45L5.65 553.9Q7.15 551.55 8.3 548.6Q10.7 542.7 9.25 539.55Q7.95 536.75 4.7 536.65Q1.8 536.55 -0.05 538.4L-3.75 538.3Q-7.5 538.85 -7.65 542.15Q-7.8 546.05 -3.65 546.15L-5.5 551.55Q-6.9 557.45 -4.85 559.8Q-2.8 562.15 23.3 560.85Q36.35 560.2 44.1 558.25Q93.15 566.35 142.4 557.75L163.9 559Q185.7 559.75 186.65 557.25Q187.6 554.75 185.55 549.75L183.3 545.2L186.6 544.3Q189.55 542.85 187.95 540.2Q186.35 537.55 182.05 537.05L178.1 537.05Q176.05 536.6 174.45 537Q172.65 537.5 171.8 539.05Q170.35 541.7 172.6 547.8Q173.75 550.85 175.15 553.4L146.2 553.4Q151 547.85 154.65 540.1Q161.95 524.6 156.2 513.55Q153.3 507.95 143 502.65Q137.9 500 136.35 498.9Q133.35 496.85 132.9 494.6Q132.5 492.65 137.55 486.8Q142.3 481.35 147.9 476.75L149.95 475.1Q161.9 461 169.95 445.9Q182.3 441.8 186.05 439.25Q187.95 437.95 188.6 434.9Q189.2 431.9 187.85 431.05Q186.6 430.3 184.8 430.8M178.35,425.2Q181.75 421.05 183.75 422.1Q185.85 423.25 185.55 427.15Q185.4 429.1 184.8 430.8M32.55,501.4Q31.9 499.85 30.6 498.35Q28 495.45 24.6 496.05Q22.35 496.45 19.45 498.7Q16.15 501.25 13.8 505.05Q7.55 515.15 11.05 528.3Q13.95 538.95 22.85 545.5Q27.3 548.75 31.2 549.9" />
<path style="fill:none;stroke-width:3;stroke-linecap:butt;stroke-linejoin:miter;stroke-miterlimit:3;stroke:#AE4200;stroke-opacity:1" d="M42.5,484.3L45.35 488.65M184.8,430.8Q182.65 431.35 179.9 433.45L177.6 435.4M-4.55,425.2Q-2.55 427.65 -1 430.55M-0.05,538.4Q-0.85 539.2 -1 540.1Q-1.3 542.15 0.6 544.35L2.6 546.2" />
<path style="fill:none;stroke-width:2;stroke-linecap:round;stroke-linejoin:miter;stroke-miterlimit:3;stroke:#582903;stroke-opacity:1" d="M62.25,451Q70.4 451.65 74.25 456.65M77.6,466.9Q77.25 460.45 74.25 456.65" />
<path style="fill:none;stroke-width:2;stroke-linecap:round;stroke-linejoin:miter;stroke-miterlimit:3;stroke:#582903;stroke-opacity:1" d="M74.25,456.65Q73.3 454.05 73.25 450.8Q73.2 444.25 77.85 441.05Q80.75 439.05 84.15 439.55Q86.2 439.8 87.35 440.8L88.35 442.05L90.75 440.8L92.95 440.15L95.75 440.3Q98.95 441.25 99.55 445.3Q99.85 447.35 99.5 449.15M89.15,450.1L89.45 447.9L89.45 447.55Q89.5 444.5 88.35 442.05M54.3,457.15Q54 464 56.75 469.1M54.3,457.15L53.2 453.9Q51.85 450.5 50.45 449.8Q48.95 449 47.85 449.15Q46.3 449.4 45.1 451.5Q43.6 454.15 44.15 459.45Q44.8 465.15 47.65 466.95Q50.2 468.6 53.75 469L56.75 469.1" />
<path style="fill:none;stroke-width:2;stroke-linecap:round;stroke-linejoin:miter;stroke-miterlimit:3;stroke:#993127;stroke-opacity:1" d="M99.5,449.15Q102 449.7 104.2 451.15Q109.1 454.4 109.35 459.45Q109.55 463.65 103.15 466.9Q96.9 470.1 89.9 469.7Q85.6 469.45 81.4 465.45L78.1 461.5Q79.15 458.95 81.35 456.15Q84.8 451.85 89.15 450.1Q90.5 449.5 91.95 449.2Q96 448.35 99.5 449.15z" />
<path style="fill:none;stroke-width:2;stroke-linecap:butt;stroke-linejoin:miter;stroke-miterlimit:3;stroke:#582903;stroke-opacity:1" d="M56.75,469.1Q60.35 475.65 68.65 478.4Q79.65 482.05 101.15 475.6Q109.7 473.05 116.15 469.9Q122.55 466.7 123.4 464.6Q123.95 463.25 123.15 462.1L122.55 461.35L120.85 460.2" />
<path style="fill:none;stroke-width:2;stroke-linecap:butt;stroke-linejoin:miter;stroke-miterlimit:3;stroke:#AE4200;stroke-opacity:1" d="M54.3,457.15L54.3 456.45" />
<path style="fill:#582903;fill-opacity:1" d="M95.6,428.85L97.65 429.3L97.65 429.2L97.45 428.9L97.25 428.55L97.3 428.4L97.4 428.35L99 428.8L100.65 429.6Q102.2 430.5 102.95 431.35Q104.35 432.9 104.95 434.2Q105.95 435.6 105.95 436.05L105.95 436.4L105.75 436.4L104 435.4Q103.6 435.3 103.35 435L101.95 434.25L100.7 433.65L97.6 432.35Q95.85 431.65 93.2 431.1L93.15 430.95L93.55 430.5L94.2 430.2L96.15 429.5L95.55 429L95.6 428.85M83.8,428.2L85.8 427.65L85.95 427.7L86 427.85L85.75 428.3L85.5 428.7L85.5 428.8L88.05 428.25L88.15 428.45L87.35 429.1L89.8 429.95L90.65 430.35L91.15 430.9L91.05 431.1Q87.75 431.75 85.55 432.65L81.65 434.3L80.1 435.05L78.35 435.95L77.55 436.5L75.35 437.75L75.1 437.7L75.05 437.3Q75.05 436.7 76.3 434.95Q77.1 433.35 78.85 431.4Q79.75 430.3 81.75 429.2Q82.5 428.7 83.8 428.2" />
</g>
</svg>
