<?xml version="1.0" encoding="utf-8"?>
<svg version="1.1" id="Layer_1"
xmlns="http://www.w3.org/2000/svg"
xmlns:xlink="http://www.w3.org/1999/xlink"
xmlns:author="http://www.sothink.com"
width="116px" height="162px"
xml:space="preserve">
<g id="297" transform="matrix(1, 0, 0, 1, 63.45, 76.2)">
<path style="fill:#669900;fill-opacity:1" d="M42,-14.15Q40.75 -12.4 38.4 -11.9L30.9 -10.9L30.75 -11.25L28.75 -19.5L28.65 -20.4Q28.4 -23.9 27.15 -26.15L25.5 -28.25L24.5 -29L24.25 -29.15Q22.5 -30.25 20.1 -30.65L15.75 -31Q12.85 -31 10.5 -28.75Q9.1 -27.5 7.85 -25.4L7.6 -24.9L6 -21.75L5 -19.4L3.75 -15.4L3.5 -14.65L2.75 -10.75Q2 -12.15 1.6 -14.15L-1 -14Q-2.9 -14 -3.4 -15.25Q-3.9 -16.15 -3.9 -18.65L-4.5 -26.15L-4.5 -26.75Q-4.4 -28.75 -3.4 -29.65Q-2.5 -30.5 0 -30.5L1.1 -30.15L1.1 -30.4Q1.6 -36.15 6.1 -35.9L24.4 -34.8L38.75 -34.15L40.65 -34.15Q41.75 -33.5 42.5 -31.75L42.65 -31.65L43.4 -31.75Q46.15 -31.75 46.75 -29.5L46.9 -28.75L48.75 -28.75Q51.15 -28.25 51.4 -27.65L51.65 -24.9L51.5 -20.9L51.25 -17.5Q51.25 -16.5 49.5 -15.9L46.65 -15.75L46.65 -15.9Q45.9 -13.5 44 -13.5Q42.4 -13.5 42 -14.15M15.1,-24L15.85 -24.15Q15.85 -24.4 16.5 -24.4Q22.1 -24.4 22.75 -19.9L22.75 -18.9L22.6 -17.75L22.25 -16.65L21.6 -15.9L21.5 -15.75Q20.5 -15 18.85 -14.75L17.35 -14.75Q15.35 -14.75 14.1 -16Q13 -17.15 12.85 -18.5L12.75 -19.25L12.85 -19.9Q12.85 -21.15 13.6 -22.4L13.85 -22.75Q14.5 -23.75 15.1 -24" />
<path style="fill:none;stroke-width:1;stroke-linecap:butt;stroke-linejoin:miter;stroke-miterlimit:3;stroke:#66CC00;stroke-opacity:1" d="M26.25,15Q26.75 15.75 26.75 16.75Q26.75 18.15 25.75 19.4Q24.9 20.5 23.6 20.9Q22.5 21.15 21.6 20.4Q20.85 19.65 20.85 18.4Q21 17.25 21.6 16.25L21.85 15.9Q22.75 14.75 24 14.25Q25.25 14 26 14.75L26.25 15M-27.3,-17.25L-26.8 -16.9Q-26.55 -16.4 -26.55 -13.25Q-26.55 -9.75 -27.15 -9.5L-28.55 -9.5L-31.15 -9.5L-32.15 -9.4L-32.8 -9.4Q-32.65 -11.9 -32.9 -15.15Q-32.9 -16.25 -32.15 -16.75L-31.05 -17.4L-30.3 -17.5L-28.05 -17.4L-27.3 -17.25M-20.65,-14.75Q-20.65 -16.4 -19.8 -16.9L-18.8 -17.15Q-17.15 -17.15 -16.8 -16.5L-16.8 -16.15Q-16.65 -15.4 -16.65 -12.9Q-16.65 -9.4 -17.05 -9.15L-17.4 -9.15L-20.65 -9L-20.65 -14.75" />
<path style="fill:none;stroke-width:1;stroke-linecap:round;stroke-linejoin:miter;stroke-miterlimit:3;stroke:#66CC00;stroke-opacity:1" d="M1.6,-14.15Q2 -12.15 2.75 -10.75L3.5 -14.65L3.75 -15.4L5 -19.4L6 -21.75L7.6 -24.9L7.85 -25.4Q9.1 -27.5 10.5 -28.75Q12.85 -31 15.75 -31L20.1 -30.65Q22.5 -30.25 24.25 -29.15L24.5 -29L25.5 -28.25L27.15 -26.15Q28.4 -23.9 28.65 -20.4L28.75 -19.5L30.75 -11.25L30.9 -10.9L38.4 -11.9Q40.75 -12.4 42 -14.15Q42.65 -15.25 42.9 -16.65L43.15 -18.5L43.15 -25.25L43.25 -27.75L43.25 -28.9L42.75 -31.5Q42.65 -31.5 42.65 -31.65L42.5 -31.75Q41.75 -33.5 40.65 -34.15L38.75 -34.15L24.4 -34.8L6.1 -35.9Q1.6 -36.15 1.1 -30.4L1.1 -30.15L0.85 -28.4L0.85 -27Q0.85 -24 1 -21.75L1.25 -15.65L1.6 -14.15L-1 -14Q-2.9 -14 -3.4 -15.25Q-3.9 -16.15 -3.9 -18.65L-4.5 -26.15L-4.5 -26.75Q-4.4 -28.75 -3.4 -29.65Q-2.5 -30.5 0 -30.5L1.1 -30.15M15.85,-24.15L15.25 -24.25L15.1 -24L15.85 -24.15Q15.85 -24.4 16.5 -24.4Q22.1 -24.4 22.75 -19.9L22.75 -18.9L22.6 -17.75L22.25 -16.65L21.6 -15.9L21.5 -15.75Q20.5 -15 18.85 -14.75L17.35 -14.75Q15.35 -14.75 14.1 -16Q13 -17.15 12.85 -18.5L12.75 -19.25L12.85 -19.9Q12.85 -21.15 13.6 -22.4L13.85 -22.75Q14.5 -23.75 15.1 -24M2.75,-10.75L1.1 -3.35L0.6 -1.1L0.5 -1Q-1 5.4 -2 8L16.85 2.15Q22.85 0.25 27.4 -1.1L29.4 -1.6L32.65 -2.6L30.9 -10.9M32.65,-2.6Q38 -4.1 39.4 -4.1Q41.5 -4.1 42.65 -1.35Q43.65 0.75 43.65 3.65L43.25 4Q42.5 4.75 38.65 6L38.65 6.75L38.65 7.4Q38.4 8.75 36.9 11.75Q33.9 17.4 26.65 28.3L24.25 31.65L22.85 33.05L19.6 36.3L13.25 42.05Q8 46.3 1.6 46.3L-11.4 45.9L-15.4 45.8Q-19.15 45.65 -23.4 45.8L-25.3 45.8L-29.9 45.55L-40.8 45.15Q-48.2 43.9 -50.3 41.65Q-52.3 39.3 -53.2 36.9L-54.45 33.3L-54.45 33.05L-55.45 30.05Q-57.3 24.3 -58.45 18.9L-59.3 15.25L-59.3 15.15L-60.2 15.25Q-62.95 15 -62.95 9.9L-62.95 9.4Q-62.85 7.75 -62.45 7.5Q-62.05 7.15 -60.05 7.15L-56.45 7.25L-56.7 5.65Q-56.7 2 -55.55 -0.35L-55.3 -1Q-54.45 -2.6 -53.2 -3.6L-52.7 -4.1L-51.8 -4.6L-51.7 -4.6Q-48.95 -6.15 -44.45 -6.25L-44.7 -14.9L-44.55 -18.75Q-44.2 -23.65 -42.8 -26.4L-42.7 -26.75L-41.2 -28.9Q-38.45 -31.15 -31.05 -31.75L-31.05 -33.4L-29.9 -42.4Q-29.9 -43.3 -31.3 -44.05Q-32.65 -45.05 -32.65 -46.65Q-32.65 -48.3 -31.4 -49.15Q-30.3 -50.05 -28.8 -50.05Q-27.4 -50.05 -26.05 -48.9Q-24.8 -47.55 -24.8 -46.05Q-24.8 -45.55 -25.55 -43.8Q-26.4 -41.9 -26.55 -39.15Q-26.55 -36.9 -26.9 -31.9L-26.4 -31.9L-22.65 -31.75L-22.65 -40.3L-21.4 -40.65Q-19.55 -40.65 -19.55 -36.3L-19.9 -31.4L-19.8 -31.4Q-16.8 -30.65 -15.55 -29.25Q-13.65 -27 -13.4 -19.5L-13.4 -17.9L-13.4 -17.25L-13.55 -14.65Q-13.9 -10.65 -14.9 -4.25L-8.4 -4.25L-1.25 -3.6L1.1 -3.35M42.65,-31.65L43.4 -31.75Q46.15 -31.75 46.75 -29.5L46.9 -28.75L48.75 -28.75Q51.15 -28.25 51.4 -27.65L51.65 -24.9L51.5 -20.9L51.25 -17.5Q51.25 -16.5 49.5 -15.9L46.65 -15.75L46.65 -15.9Q45.9 -13.5 44 -13.5Q42.4 -13.5 42 -14.15M46.65,-15.9L46.9 -17.15L47 -20.5L47 -23.5L47 -25.5L46.9 -28.75M38.65,6L35 7.15L21.6 10.75L11.6 13.4L4.85 15L4.6 15.15Q5.25 17.5 6.25 19.9Q8.75 26.15 13.6 31.05L16.75 34.05L19.6 36.3M-14.9,-4.25L-15.55 -4.35L-28.9 -5.65L-36.2 -6.15L-43.2 -6.25L-44.45 -6.25M-31.05,-31.75L-26.9 -31.9M-44.55,-18.75Q-40.2 -20.5 -35.8 -21.15L-27.3 -21.4L-20.15 -20.75L-15.55 -19.9L-13.4 -19.5M-22.65,-31.75L-19.9 -31.4M-2,8L-4.15 8.4L-14.55 8.4L-28.9 7.75L-29.05 7.75L-28.9 8.75L-28.9 8.9L-28.9 9.4L-28.9 11.15L-29.3 14.4L-22.4 15L-17.3 15.5L-6.9 16.4L-1 16L4.6 15.15M-29.05,7.75Q-29.55 4.4 -33.05 3.5L-41.2 3.15L-47.8 3.5Q-49.3 4 -49.95 5.5Q-50.3 6.25 -50.3 7.25L-50.3 7.5L-50.45 8.65L-50.55 12.75L-50.2 15.15Q-49.45 17.5 -46.95 18.5Q-44.7 19.5 -38.95 19.5Q-34.2 19.5 -31.9 18.5L-30.4 17.5Q-29.65 16.65 -29.3 14.4M-22.4,15L-25.3 45.8M-50.2,15.15Q-54.7 14.65 -59.3 15.15M-50.3,7.25L-56.45 7.25" />
<path style="fill:none;stroke-width:1;stroke-linecap:butt;stroke-linejoin:miter;stroke-miterlimit:3;stroke:#DFE1DC;stroke-opacity:1" d="M-3.15,35.5L-49.15 84.7M6.05,-32.1L-40.75 -75.7" />
</g>
</svg>
