<?xml version="1.0" encoding="utf-8"?>
<svg version="1.1" id="Layer_1"
xmlns="http://www.w3.org/2000/svg"
xmlns:xlink="http://www.w3.org/1999/xlink"
xmlns:author="http://www.sothink.com"
width="31px" height="16px"
xml:space="preserve">
<g id="106" transform="matrix(1, 0, 0, 1, 13.7, -33.7)">
<path style="fill:#D75535;fill-opacity:1" d="M-6.4,42.85L-7.25 47.1Q-7.7 48.45 -8.75 48.85L-12.2 49.2L-12.35 49.2Q-13.1 49.2 -13.2 48.6L-13.2 47.25L-11.85 47.45L-9.15 34.5L-4.45 34.5L-4.4 34.5L-4.65 35.4L-5 36.8L-3.45 37.05L-0.95 37.35L3.6 37.05L4.15 37.05L5 37.1L5.25 37.15L7 37.35L8.25 37.6L7.35 34.5L10.3 34.5L14.5 48.15L13.65 48.15L11.1 47.85L9.6 42.2L9.35 42.15L9.65 40.85L6.4 40.15L4.4 39.85L3.15 39.75L-0.45 39.55L-3.95 39.3L-5.9 39.3Q-7.7 39.5 -7.7 40.35L-7.1 41.7L-6.05 41.25L-6.4 42.85" />
<path style="fill:#B8462A;fill-opacity:1" d="M4.55,41.85L-6.05 41.25L-7.1 41.7L-7.7 40.35Q-7.7 39.5 -5.9 39.3L-3.95 39.3L-0.45 39.55L3.15 39.75L4.4 39.85L6.4 40.15L9.65 40.85L9.35 42.15L4.55 41.85M-11.3,34.5L-9.15 34.5L-11.85 47.45L-13.2 47.25Q-13.2 43.05 -11.3 34.5" />
<path style="fill:#EE856B;fill-opacity:1" d="M13.5,34.5L13.95 36.55L16.65 48.15L14.5 48.15L10.3 34.5L13.3 34.5L13.5 34.5" />
<path style="fill:none;stroke-width:1;stroke-linecap:butt;stroke-linejoin:miter;stroke-miterlimit:3;stroke:#833825;stroke-opacity:1" d="M13.3,34.5L10.3 34.5M-13.2,47.25L-13.2 48.6Q-13.1 49.2 -12.35 49.2L-12.2 49.2L-8.75 48.85Q-7.7 48.45 -7.25 47.1L-6.4 42.85L-6.05 41.25L4.55 41.85L9.35 42.15L9.6 42.2L11.1 47.85L13.65 48.15L14.5 48.15L16.65 48.15L13.95 36.55L13.5 34.5M-4.4,34.5L-4.65 35.4L-5 36.8L-3.45 37.05L-0.95 37.35L3.6 37.05L4.15 37.05L5 37.1M5.25,37.15L7 37.35L8.25 37.6L7.35 34.5L10.3 34.5M-4.45,34.5L-11.3 34.2M-13.2,47.25Q-13.2 43.05 -11.3 34.5" />
</g>
</svg>
