<?xml version="1.0" encoding="utf-8"?>
<svg version="1.1" id="Layer_1"
xmlns="http://www.w3.org/2000/svg"
xmlns:xlink="http://www.w3.org/1999/xlink"
xmlns:author="http://www.sothink.com"
width="99px" height="72px"
xml:space="preserve">
<g id="157" transform="matrix(1, 0, 0, 1, 43.35, 64.25)">
<path style="fill:#FF0000;fill-opacity:0" d="M54.85,7.75L-43.35 7.75L-43.35 -64.25L54.85 -64.25L54.85 7.75" />
<path style="fill:#F38033;fill-opacity:1" d="M-36.5,-43.05L-33.15 -42.3Q-32.05 -41.85 -31.25 -39.55Q-30.55 -37.4 -30.55 -34.95L-31 -24.45L-33.9 -24.35Q-35.8 -24.45 -36.55 -25.2Q-37.4 -26.1 -37.3 -28.05L-37.15 -29.35L-37 -31.4L-36.95 -37.7L-36.9 -38.8L-36.9 -41.1L-36.95 -42.6L-36.95 -43.25L-36.5 -43.05M-6.2,-32.4L-6.2 -32.45L-6.2 -32.55L-6.15 -35.55L-6.15 -35.6Q-5.4 -35 -4.4 -33.45L-3.2 -31.6Q-3.55 -30.6 -4.55 -30.6Q-6.05 -30.6 -6.2 -32.4" />
<path style="fill:#333333;fill-opacity:1" d="M-18.95,-43.8L-19 -46.55L-20.65 -47.4Q-21.35 -48.15 -21.15 -49.65Q-21 -51.1 -21.4 -54.25Q-19.95 -54.1 -19.35 -53.05Q-18.9 -52.15 -18.75 -49.05Q-18.65 -46 -17.8 -44.65L-17.2 -43.85L-18.95 -43.8M-37.15,-29.35Q-41.55 -28.3 -41.85 -32.45L-41.9 -36.15Q-41.9 -37.75 -42.15 -38.65L-40.2 -38.6L-36.9 -38.8L-36.95 -37.7L-37 -31.4L-37.15 -29.35M-18.85,-39.15L-18.65 -37.95Q-18.2 -36.8 -16.8 -36.8Q-15.4 -36.8 -15.4 -39.85L-15.6 -41.3L-14.65 -41.1L-12.6 -40.4L-12.7 -39.45Q-12.7 -37.6 -11.65 -36.2L-9.4 -37.4Q-8.65 -35.4 -8.6 -31.65Q-8.55 -29.05 -8 -27.4L-8.7 -27.25L-14.4 -26.85L-19.9 -26.25L-25.25 -26.25L-29 -26.35L-28.85 -27.15Q-28.6 -28.65 -28.6 -31.7Q-28.2 -36.2 -28.2 -40.15L-28.25 -41.4L-25.7 -41.45Q-26.2 -40.9 -26.2 -39.85L-26.2 -38.3Q-25.9 -36.8 -24.45 -36.8Q-23.25 -36.8 -22.6 -38.25Q-22.15 -39.3 -22.15 -40.5Q-22.15 -41.2 -22.45 -41.6L-19.35 -41.7L-18.1 -41.65Q-18.85 -40.9 -18.85 -39.15" />
<path style="fill:#5B5A5A;fill-opacity:1" d="M-21.45,-54.45L-21.45 -56.1Q-21.35 -56.4 -20.25 -56.4L-17.2 -56.1Q-16.3 -55.65 -16.3 -53.85Q-16.3 -52.05 -16.6 -48.75L-16.9 -43.85L-17.2 -43.85L-17.8 -44.65Q-18.65 -46 -18.75 -49.05Q-18.9 -52.15 -19.35 -53.05Q-19.95 -54.1 -21.4 -54.25L-21.45 -54.45" />
<path style="fill:#4F4F4F;fill-opacity:1" d="M-28.75,-43.5L-18.95 -43.8L-17.2 -43.85L-16.9 -43.85L-14.25 -43.95Q-9.8 -43.95 -7.85 -42.75Q-5.5 -41.4 -5.5 -37.95Q-5.5 -37.4 -5.65 -37.05L-5.7 -36.95L-5.75 -36.9L-6.15 -36.3L-6.15 -35.65L-6.15 -35.6L-6.15 -35.55L-6.2 -32.55L-6.2 -32.45L-6.2 -32.4L-6.15 -30.5Q-6.15 -28 -8 -27.4Q-8.55 -29.05 -8.6 -31.65Q-8.65 -35.4 -9.4 -37.4L-9.25 -37.55Q-8.8 -38 -8.8 -39.2Q-8.8 -41.15 -10.75 -41.5Q-12.25 -41.75 -12.6 -40.4L-14.65 -41.1L-15.6 -41.3Q-15.95 -42.45 -17.1 -42.2L-18.1 -41.65L-19.35 -41.7L-22.45 -41.6Q-22.9 -42.25 -24.15 -42.15Q-25.2 -42.05 -25.7 -41.45L-28.25 -41.4L-28.75 -43.5" />
<path style="fill:#515050;fill-opacity:1" d="M-36.9,-38.8L-40.2 -38.6L-42.15 -38.65L-42.4 -39.35L-42.4 -41.1L-36.9 -41.1L-36.9 -38.8" />
<path style="fill:#F7A66F;fill-opacity:1" d="M-31,-24.45L-30.55 -34.95Q-30.55 -37.4 -31.25 -39.55Q-32.05 -41.85 -33.15 -42.3L-36.5 -43.05L-36.95 -43.25L-36.95 -43.4L-36.8 -44L-36.35 -44.95Q-35.95 -45.35 -34.4 -45.35Q-30.65 -45.35 -29.45 -44.4L-28.75 -43.5L-28.25 -41.4L-28.2 -40.15Q-28.2 -36.2 -28.6 -31.7Q-28.6 -28.65 -28.85 -27.15L-29 -26.35Q-29.45 -24.45 -30.75 -24.45L-31 -24.45" />
<path style="fill:#F09A61;fill-opacity:1" d="M-5.75,-36.9L-5.7 -36.95L-5.65 -37.05L-5 -37.2Q-3.85 -37.2 -3.4 -36.45Q-2.95 -35.75 -2.95 -34.25Q-2.95 -32.65 -3.1 -32L-3.2 -31.6L-4.4 -33.45Q-5.4 -35 -6.15 -35.6L-6.15 -35.65L-5.75 -36.9" />
<path style="fill:#837C7C;fill-opacity:1" d="M-11.65,-36.2Q-12.7 -37.6 -12.7 -39.45L-12.6 -40.4Q-12.25 -41.75 -10.75 -41.5Q-8.8 -41.15 -8.8 -39.2Q-8.8 -38 -9.25 -37.55L-9.4 -37.4L-11.65 -36.2M-18.1,-41.65L-17.1 -42.2Q-15.95 -42.45 -15.6 -41.3L-15.4 -39.85Q-15.4 -36.8 -16.8 -36.8Q-18.2 -36.8 -18.65 -37.95L-18.85 -39.15Q-18.85 -40.9 -18.1 -41.65M-22.45,-41.6Q-22.15 -41.2 -22.15 -40.5Q-22.15 -39.3 -22.6 -38.25Q-23.25 -36.8 -24.45 -36.8Q-25.9 -36.8 -26.2 -38.3L-26.2 -39.85Q-26.2 -40.9 -25.7 -41.45Q-25.2 -42.05 -24.15 -42.15Q-22.9 -42.25 -22.45 -41.6" />
<path style="fill:none;stroke-width:1;stroke-linecap:butt;stroke-linejoin:miter;stroke-miterlimit:3;stroke:#3A291D;stroke-opacity:1" d="M-21.4,-54.25Q-21 -51.1 -21.15 -49.65Q-21.35 -48.15 -20.65 -47.4L-19 -46.55L-18.95 -43.8L-17.2 -43.85L-16.9 -43.85L-16.6 -48.75Q-16.3 -52.05 -16.3 -53.85Q-16.3 -55.65 -17.2 -56.1L-20.25 -56.4Q-21.35 -56.4 -21.45 -56.1L-21.45 -54.45L-21.4 -54.25M-36.9,-38.8L-36.95 -37.7L-37 -31.4L-37.15 -29.35Q-41.55 -28.3 -41.85 -32.45L-41.9 -36.15Q-41.9 -37.75 -42.15 -38.65L-42.4 -39.35L-42.4 -41.1L-36.9 -41.1L-36.95 -42.6L-36.95 -43.25L-36.95 -43.4L-36.8 -44L-36.35 -44.95Q-35.95 -45.35 -34.4 -45.35Q-30.65 -45.35 -29.45 -44.4L-28.75 -43.5L-18.95 -43.8M-36.9,-38.8L-36.9 -41.1M-28.25,-41.4L-28.2 -40.15Q-28.2 -36.2 -28.6 -31.7Q-28.6 -28.65 -28.85 -27.15L-29 -26.35L-25.25 -26.25L-19.9 -26.25L-14.4 -26.85L-8.7 -27.25L-8 -27.4Q-6.15 -28 -6.15 -30.5L-6.2 -32.4L-6.2 -32.45L-6.2 -32.55L-6.15 -35.55L-6.15 -35.6L-6.15 -35.65L-6.15 -36.3L-5.75 -36.9L-5.7 -36.95L-5.65 -37.05Q-5.5 -37.4 -5.5 -37.95Q-5.5 -41.4 -7.85 -42.75Q-9.8 -43.95 -14.25 -43.95L-16.9 -43.85M-3.2,-31.6L-3.1 -32Q-2.95 -32.65 -2.95 -34.25Q-2.95 -35.75 -3.4 -36.45Q-3.85 -37.2 -5 -37.2L-5.65 -37.05M-5.75,-36.9L-6.15 -35.65M-3.2,-31.6Q-3.55 -30.6 -4.55 -30.6Q-6.05 -30.6 -6.2 -32.4M-28.25,-41.4L-28.75 -43.5M-37.15,-29.35L-37.3 -28.05Q-37.4 -26.1 -36.55 -25.2Q-35.8 -24.45 -33.9 -24.35L-31 -24.45M-29,-26.35Q-29.45 -24.45 -30.75 -24.45L-31 -24.45" />
<path style="fill:#A64545;fill-opacity:1" d="M-9.5,-19.75L-11.35 -19.5L-11.5 -19.45Q-12.6 -21.4 -14.05 -23.25L-16.7 -26.8L-17.5 -22.3L-18.1 -18.2L-17.95 -17.85L-20 -17.3L-20.3 -17.2L-19.7 -21.75Q-18.95 -27.2 -18.95 -28.95Q-18.95 -30.45 -19.4 -31.55L-20.15 -31.15L-20.15 -31.55Q-20.7 -32.05 -20.8 -32.95L-20.85 -34.35L-20.85 -34.55Q-20.85 -36.65 -19.95 -37.75L-19.55 -37.45L-18.6 -37.2L-16.2 -37.75L-15 -37.45Q-14.45 -37.2 -14 -36.65Q-13.05 -35.6 -13.05 -33.95Q-13.05 -33.05 -13.5 -31.55L-14 -29.35Q-14 -28.4 -8.8 -19.85L-9.5 -19.75M-15.45,-35.3L-15.55 -35.45Q-16.1 -36.05 -16.7 -36.05Q-17.3 -36.05 -17.55 -35.45L-17.55 -35.35L-17.6 -35.2L-18.1 -34.3L-18.25 -33.85L-18.35 -33Q-18.35 -31 -16.55 -31Q-15.6 -31 -15.05 -31.55Q-14.5 -32.1 -14.5 -33Q-14.35 -33.25 -14.35 -33.65Q-14.35 -34.4 -15.25 -35.15L-15.45 -35.3" />
<path style="fill:#FF6600;fill-opacity:1" d="M40,-36.15Q39.4 -37.85 39.3 -38.8L40.05 -39.05L40 -36.15M-30.55,-11.1L-25.8 -11.65L-21.15 -12.15Q-19.75 -12.15 -16.7 -13.35L-11.7 -14.25Q-7.05 -14.75 -4.25 -16.1Q-2.05 -17.1 -1.15 -18.8Q-0.75 -19.55 -0.1 -22.15Q0.7 -25.55 3.55 -28L3.5 -27.6L2.3 -19.6Q1.85 -17.4 1.05 -15.95Q0.2 -14.55 -1.05 -13.95Q-2.55 -13.2 -6.05 -12.65Q-10.05 -11.5 -28.8 -8.75L-28.95 -8.75Q-30.5 -8.85 -30.55 -11.1M38.7,-33.3L37.25 -33.4Q32.6 -33.65 26.6 -33.5L20.65 -33.5L14.35 -33.55L6.4 -32.9L6.3 -32.9Q4.5 -32.2 3.6 -28.1L3.55 -28.7L4.15 -30.9Q4.8 -33.15 5.1 -33.55Q5.75 -34.35 7.45 -34.4L10.15 -34.4L13.25 -34.7L21.45 -36.25L28.55 -36.8L28.55 -36.85L28.75 -36.8L28.55 -36.8L28.55 -36.65Q28.55 -36.35 35.9 -36.65Q37.05 -36.65 38.4 -35.15L39.5 -33.75Q39.2 -33.05 38.7 -33.3" />
<path style="fill:#F3B9B9;fill-opacity:1" d="M-28.95,-0.15L-28.95 -0.4L-28.8 -3.2Q3 -2.5 32.5 -17.3L31.85 -15.45L31.25 -13.85Q13.7 -1.05 -28.95 -0.15" />
<path style="fill:#8A3131;fill-opacity:1" d="M-28.95,-0.15Q13.7 -1.05 31.25 -13.85L29.6 -10.4L26.7 -6.35Q24.85 -3.9 23 -2.8Q21.15 -1.75 17.95 -0.35Q14.8 0.95 6.2 2.65Q-0.45 3.95 -10.4 3.95L-17.55 3.9L-24.45 2.95L-27.6 2.4Q-29.15 1.8 -28.95 -0.15" />
<path style="fill:#8C3434;fill-opacity:1" d="M-22.95,-16.5L-21.85 -23.05L-20.15 -31.15L-19.4 -31.55Q-18.95 -30.45 -18.95 -28.95Q-18.95 -27.2 -19.7 -21.75L-20.3 -17.2L-22.7 -16.5L-22.95 -16.5" />
<path style="fill:#EE9960;fill-opacity:1" d="M0.75,-40.15L0.95 -40.15L6.25 -40.6L6.5 -40.65L6.55 -40.65L14.35 -41.5L16.25 -41.65L23.4 -41.85L23.55 -41.85L26.5 -41.95L38.55 -42.4Q39.85 -42.4 40.05 -41.25L40.05 -39.05L39.3 -38.8Q39.2 -39.7 38.6 -39.9L37.7 -40L29.5 -39.45L24.7 -39.7L20.25 -39.35L16 -39L8.9 -38.2L2.15 -37.35Q0.4 -37.35 0.05 -37.75L-0.1 -38L0.75 -40.15M-11.5,-19.45L-11.35 -19.5L-9.5 -19.75L-8.8 -19.85Q-7.7 -20 -6.85 -20.65Q-5.6 -21.5 -4.7 -23.05L-4.6 -23.3Q-4.25 -22.05 -4.25 -21.35Q-4.25 -17.4 -7.95 -16.9L-10.55 -16.8Q-11.7 -16.7 -11.7 -16.2L-20.2 -14.6L-29.2 -13.1L-30.4 -13.3L-30.45 -15.3L-30.5 -15.4Q-29.6 -16.15 -28.05 -16.25L-25.3 -16.2L-22.95 -16.4L-22.7 -16.5L-20.3 -17.2L-20 -17.3L-17.95 -17.85L-14.9 -18.7L-11.5 -19.45" />
<path style="fill:#F38033;fill-opacity:1" d="M40,-36.15L39.5 -33.75L38.4 -35.15Q37.05 -36.65 35.9 -36.65Q28.55 -36.35 28.55 -36.65L28.55 -36.8L28.75 -36.8L28.55 -36.85L28.55 -36.8L21.45 -36.25L13.25 -34.7L10.15 -34.4L7.45 -34.4Q5.75 -34.35 5.1 -33.55Q4.8 -33.15 4.15 -30.9L3.55 -28.7L3.6 -28.1L3.55 -28Q0.7 -25.55 -0.1 -22.15Q-0.75 -19.55 -1.15 -18.8Q-2.05 -17.1 -4.25 -16.1Q-7.05 -14.75 -11.7 -14.25L-16.7 -13.35Q-19.75 -12.15 -21.15 -12.15L-25.8 -11.65L-30.55 -11.1L-30.4 -13.3L-29.2 -13.1L-20.2 -14.6L-11.7 -16.2Q-11.7 -16.7 -10.55 -16.8L-7.95 -16.9Q-4.25 -17.4 -4.25 -21.35Q-4.25 -22.05 -4.6 -23.3Q-4 -24.55 -2.55 -29.05Q-1.6 -31.7 -0.65 -36.05L-0.1 -38L0.05 -37.75Q0.4 -37.35 2.15 -37.35L8.9 -38.2L16 -39L20.25 -39.35L24.7 -39.7L29.5 -39.45L37.7 -40L38.6 -39.9Q39.2 -39.7 39.3 -38.8Q39.4 -37.85 40 -36.15" />
<path style="fill:#C66060;fill-opacity:1" d="M-16.7,-39.15L-14.65 -38.75Q-13.4 -38.2 -12.55 -36.85Q-11.35 -34.95 -11.35 -32.3L-11.8 -31.1L-12.3 -30.05L-11.05 -27.6L-9.45 -24.8L-7.9 -22.9Q-6.85 -21.55 -6.85 -20.65Q-7.7 -20 -8.8 -19.85Q-14 -28.4 -14 -29.35L-13.5 -31.55Q-13.05 -33.05 -13.05 -33.95Q-13.05 -35.6 -14 -36.65Q-14.45 -37.2 -15 -37.45L-16.2 -37.75L-18.6 -37.2L-19.55 -37.45L-19.95 -37.75Q-18.95 -39.15 -16.7 -39.15" />
<path style="fill:#792222;fill-opacity:1" d="M6.25,-40.65Q6.25 -45 6.4 -47.2L6.4 -47.75L9.3 -47.65L12.65 -47.85Q12 -42.75 16.2 -43.5L19.75 -43.65L22.95 -43.5L23.5 -43.5L23.55 -41.85L23.4 -41.85L16.25 -41.65L14.35 -41.5L6.55 -40.65L6.5 -40.65L6.25 -40.65" />
<path style="fill:#E07D7D;fill-opacity:1" d="M27.95,-49.7L27.85 -49.75L28.2 -50.75L27.95 -49.7" />
<path style="fill:#4F4F4F;fill-opacity:1" d="M-15.3,-35.15L-15.55 -35.35Q-16.8 -36.2 -16.8 -34.8L-16.55 -33.85L-16.5 -33.65Q-16.9 -33.85 -17.1 -34.4L-17.25 -35.15Q-17.25 -36.2 -16.15 -35.85L-15.55 -35.45L-15.45 -35.3L-15.3 -35.15" />
<path style="fill:#837C7C;fill-opacity:1" d="M-15.25,-32.7Q-16.05 -32.7 -16.5 -33.65L-16.55 -33.85L-16.8 -34.8Q-16.8 -36.2 -15.55 -35.35L-15.3 -35.15L-15.25 -35.15Q-14.35 -34.4 -14.35 -33.65Q-14.35 -33.25 -14.5 -33Q-14.7 -32.7 -15.25 -32.7" />
<path style="fill:#E0A348;fill-opacity:1" d="M-28.95,-7.35Q-28.15 -7.05 -27.9 -7.05L-23.05 -7.15L-19.1 -7.95L-12.7 -8.75L-9.9 -8.5L-8.45 -8.65L-7.5 -8.9Q-6.25 -8.9 -1.7 -10.9Q-0.05 -11.55 0.9 -12.65L2.5 -14.95L2.55 -15.05Q3.45 -16.25 4 -19.35L4.2 -21.1Q4.45 -23.8 6.55 -24.15L6.5 -23.75L6.5 -21.65Q6.7 -20.85 7.8 -20.85Q9.7 -20.85 10.25 -22.45L10.5 -23.9L11.95 -23.8L13.45 -24L13.4 -23.9Q13.4 -22.8 13.6 -22.65L14.6 -22.65Q15.9 -22.65 16.25 -23L16.5 -24.8L16.5 -25Q19.55 -26.1 20.35 -26.8Q22.65 -28.55 23.7 -28.6L26.7 -28.35L28.4 -28.6L30.2 -28.9Q31.9 -28.9 33.35 -27.65Q34.35 -26.85 35.6 -26.6L34.9 -24.4L32.5 -17.3Q3 -2.5 -28.8 -3.2L-28.85 -4.65L-28.95 -7.35" />
<path style="fill:#D4922E;fill-opacity:1" d="M28.2,-50.75L28.15 -49.65Q28.05 -48.35 27.7 -48Q27.15 -47.5 24.95 -47.5L24.85 -47.5L21.4 -49.05L21.1 -49.15L18.3 -49.6L15.05 -49.85L8.05 -49.95Q6.05 -50.5 3.35 -53.85L3.35 -56.15L3.55 -57.1Q4.2 -56.25 5.75 -55.85L9.3 -55.5L12.5 -54.35L16.4 -53.3L22.65 -51.65L27.85 -49.75L27.95 -49.7L28.2 -50.75M16.25,-26.65L14.85 -26.8L13.9 -26.7L13.85 -26.65L13.8 -26.5L13.6 -26.65L13.6 -26L13.55 -25.2L13.45 -24L11.95 -23.8L10.5 -23.9L10.55 -25.7Q10.55 -27 9.85 -27.55L7.65 -28.05L6.65 -27.9L6.55 -27.2L6.6 -25.65L6.55 -24.15Q4.45 -23.8 4.2 -21.1L4 -19.35Q3.45 -16.25 2.55 -15.05L2.5 -14.95L0.9 -12.65Q-0.05 -11.55 -1.7 -10.9Q-6.25 -8.9 -7.5 -8.9L-8.45 -8.65L-9.9 -8.5L-12.7 -8.75L-19.1 -7.95L-23.05 -7.15L-27.9 -7.05Q-28.15 -7.05 -28.95 -7.35L-28.95 -8.75L-28.8 -8.75Q-10.05 -11.5 -6.05 -12.65Q-2.55 -13.2 -1.05 -13.95Q0.2 -14.55 1.05 -15.95Q1.85 -17.4 2.3 -19.6L3.5 -27.6L3.55 -28L3.6 -28.1Q4.5 -32.2 6.3 -32.9L6.4 -32.9L14.35 -33.55L20.65 -33.5L26.6 -33.5Q32.6 -33.65 37.25 -33.4L37.15 -33.15Q36.75 -30.5 35.6 -26.6Q34.35 -26.85 33.35 -27.65Q31.9 -28.9 30.2 -28.9L28.4 -28.6L26.7 -28.35L23.7 -28.6Q22.65 -28.55 20.35 -26.8Q19.55 -26.1 16.5 -25L16.25 -26.65" />
<path style="fill:#E7B05D;fill-opacity:1" d="M27.85,-49.75L22.65 -51.65L16.4 -53.3L12.5 -54.35L9.3 -55.5L5.75 -55.85Q4.2 -56.25 3.55 -57.1Q4.05 -58.5 5.5 -58.5Q28.2 -53.3 28.2 -50.75L27.85 -49.75" />
<path style="fill:#C68728;fill-opacity:1" d="M8.05,-49.95L15.05 -49.85L18.3 -49.6L21.1 -49.15L21.4 -49.05L24.85 -47.5L23.3 -47.55L21.3 -47.75L20.7 -47.85L16.25 -48.15L12.9 -47.9L12.65 -47.85L9.3 -47.65L6.4 -47.75Q5 -47.9 4.55 -48.15Q3.15 -48.9 3.15 -51.4Q3.1 -52.4 3.35 -53.65L3.35 -53.85Q6.05 -50.5 8.05 -49.95" />
<path style="fill:#252424;fill-opacity:1" d="M19.75,-43.65L16.2 -43.5Q12 -42.75 12.65 -47.85L12.9 -47.9L16.25 -48.15L20.7 -47.85L21.3 -47.75L23.3 -47.55L23.25 -46.9L23.5 -44.95L23.5 -43.5L22.95 -43.5L19.75 -43.65M10.25,-22.45Q9.7 -20.85 7.8 -20.85Q6.7 -20.85 6.5 -21.65L6.5 -23.75L6.55 -24.15L6.6 -25.65L6.55 -27.2L6.65 -27.9L7.65 -28.05L9.85 -27.55Q10.55 -27 10.55 -25.7L10.5 -23.9L10.25 -22.45M13.8,-26.5L13.85 -26.65L13.9 -26.7L14.85 -26.8L16.25 -26.65L16.5 -25L16.5 -24.8L16.25 -23Q15.9 -22.65 14.6 -22.65L13.6 -22.65Q13.4 -22.8 13.4 -23.9L13.45 -24L13.55 -25.2L13.6 -26L13.8 -26.5" />
<path style="fill:none;stroke-width:1;stroke-linecap:butt;stroke-linejoin:miter;stroke-miterlimit:3;stroke:#8C1D1D;stroke-opacity:1" d="M23.25,-46.9L23.5 -44.95L23.5 -43.5L23.55 -41.85M6.25,-40.6L6.25 -40.65Q6.25 -45 6.4 -47.2M13.6,-26L13.6 -26.65L13.8 -26.5" />
<path style="fill:none;stroke-width:1;stroke-linecap:butt;stroke-linejoin:miter;stroke-miterlimit:3;stroke:#6B3510;stroke-opacity:1" d="M3.35,-53.85L3.35 -53.65Q3.1 -52.4 3.15 -51.4Q3.15 -48.9 4.55 -48.15Q5 -47.9 6.4 -47.75L9.3 -47.65L12.65 -47.85L12.9 -47.9L16.25 -48.15L20.7 -47.85L21.3 -47.75L23.3 -47.55L24.85 -47.5M3.35,-53.85L3.35 -56.15L3.55 -57.1Q4.05 -58.5 5.5 -58.5Q28.2 -53.3 28.2 -50.75L28.15 -49.65Q28.05 -48.35 27.7 -48Q27.15 -47.5 24.95 -47.5L24.85 -47.5M37.25,-33.4L38.7 -33.3Q39.2 -33.05 39.5 -33.75L40 -36.15L40.05 -39.05L40.05 -41.25Q39.85 -42.4 38.55 -42.4L26.5 -41.95L23.55 -41.85L23.4 -41.85L16.25 -41.65L14.35 -41.5L6.55 -40.65L6.5 -40.65L6.25 -40.6L0.95 -40.15L0.75 -40.15L-0.1 -38L-0.65 -36.05Q-1.6 -31.7 -2.55 -29.05Q-4 -24.55 -4.6 -23.3M-22.7,-16.5L-22.95 -16.4L-25.3 -16.2L-28.05 -16.25Q-29.6 -16.15 -30.5 -15.4L-30.45 -15.3L-30.4 -13.3L-30.55 -11.1Q-30.5 -8.85 -28.95 -8.75M3.55,-28L3.6 -28.1M31.25,-13.85L31.85 -15.45L32.5 -17.3L34.9 -24.4L35.6 -26.6Q36.75 -30.5 37.15 -33.15M37.25,-33.4Q32.6 -33.65 26.6 -33.5L20.65 -33.5L14.35 -33.55L6.4 -32.9L6.3 -32.9Q4.5 -32.2 3.6 -28.1M3.55,-28L3.5 -27.6L2.3 -19.6Q1.85 -17.4 1.05 -15.95Q0.2 -14.55 -1.05 -13.95Q-2.55 -13.2 -6.05 -12.65Q-10.05 -11.5 -28.8 -8.75L-28.95 -8.75L-28.95 -7.35M-28.8,-3.2L-28.95 -0.4L-28.95 -0.15M31.25,-13.85L29.6 -10.4L26.7 -6.35Q24.85 -3.9 23 -2.8Q21.15 -1.75 17.95 -0.35Q14.8 0.95 6.2 2.65Q-0.45 3.95 -10.4 3.95L-17.55 3.9L-24.45 2.95L-27.6 2.4Q-29.15 1.8 -28.95 -0.15M-18.1,-18.2L-17.5 -22.3L-16.7 -26.8L-14.05 -23.25Q-12.6 -21.4 -11.5 -19.45L-11.35 -19.5L-9.5 -19.75L-8.8 -19.85Q-7.7 -20 -6.85 -20.65Q-6.85 -21.55 -7.9 -22.9L-9.45 -24.8L-11.05 -27.6L-12.3 -30.05L-11.8 -31.1L-11.35 -32.3Q-11.35 -34.95 -12.55 -36.85Q-13.4 -38.2 -14.65 -38.75L-16.7 -39.15Q-18.95 -39.15 -19.95 -37.75Q-20.85 -36.65 -20.85 -34.55L-20.85 -34.35L-20.8 -32.95Q-20.7 -32.05 -20.15 -31.55M-22.7,-16.5L-20.3 -17.2L-20 -17.3L-17.95 -17.85L-14.9 -18.7L-11.5 -19.45M-14.5,-33Q-14.5 -32.1 -15.05 -31.55Q-15.6 -31 -16.55 -31Q-18.35 -31 -18.35 -33L-18.25 -33.85L-18.1 -34.3L-17.6 -35.2L-17.55 -35.35L-17.55 -35.45Q-17.3 -36.05 -16.7 -36.05Q-16.1 -36.05 -15.55 -35.45L-15.45 -35.3L-15.25 -35.15M-17.6,-35.2L-18.25 -33.85M-20.15,-31.15L-21.85 -23.05L-22.95 -16.5L-22.95 -16.4M-28.8,-3.2L-28.85 -4.65L-28.95 -7.35M-6.85,-20.65Q-5.6 -21.5 -4.7 -23.05L-4.6 -23.3" />
<path style="fill:none;stroke-width:1;stroke-linecap:butt;stroke-linejoin:miter;stroke-miterlimit:3;stroke:#3A1313;stroke-opacity:1" d="M12.65,-47.85Q12 -42.75 16.2 -43.5L19.75 -43.65L22.95 -43.5M6.55,-24.15L6.6 -25.65L6.55 -27.2L6.65 -27.9L7.65 -28.05L9.85 -27.55Q10.55 -27 10.55 -25.7L10.5 -23.9M13.8,-26.5L13.85 -26.65L13.9 -26.7L14.85 -26.8L16.25 -26.65L16.5 -25L16.5 -24.8L16.25 -23Q15.9 -22.65 14.6 -22.65L13.6 -22.65Q13.4 -22.8 13.4 -23.9L13.45 -24L13.55 -25.2L13.6 -26M13.8,-26.5L13.6 -26M6.55,-24.15L6.5 -23.75L6.5 -21.65Q6.7 -20.85 7.8 -20.85Q9.7 -20.85 10.25 -22.45L10.5 -23.9" />
</g>
</svg>
