<?xml version="1.0" encoding="utf-8"?>
<svg version="1.1" id="Layer_1"
xmlns="http://www.w3.org/2000/svg"
xmlns:xlink="http://www.w3.org/1999/xlink"
xmlns:author="http://www.sothink.com"
width="338px" height="137px"
xml:space="preserve">
<g id="267" transform="matrix(1, 0, 0, 1, 158.35, 69.75)">
<path style="fill:#789A9A;fill-opacity:1" d="M157.85,-64.7L154.8 -64.95L140.05 -65L129.5 -64.85L128.8 -64.85L122.75 -64.7L119 -64.65L117.4 -64.65L111.65 -64.3L105.55 -63.9L96.25 -64.3L86.1 -63.95L72.65 -63.5L61.55 -63.35L50.95 -63.85L46.8 -64L45.65 -63.9L39.75 -63.85L38.5 -63.95L38.2 -66.75L165.65 -67.5L165.7 -63Q162.85 -64.2 157.85 -64.7M-67.3,-57.7L-67.05 -54.2L-67.05 -53.75Q-70.25 -53.75 -70.45 -56.95L-70.55 -60.25Q-70.65 -62.1 -71.45 -62.9Q-72.9 -64.25 -78.4 -64.5L-85.35 -64.45L-111 -62.6L-149 -60.6L-156.95 -60.85L-157.35 -60.9L-157.35 -63.2L-150 -63.7L-149.75 -63.7L-110.15 -65.75L-90.5 -66.65L-74.55 -67.4L-68.1 -67.7L-68.1 -67.55L-67.75 -63.2L21.8 -62.95L24.1 -62.9L31.4 -62.85L31.4 -62.35Q29.4 -61.3 26.05 -60.75L19 -60.15L17.6 -60.1L6.25 -60.55L-4.05 -60.25L-14.8 -59.95L-28.05 -60.5L-40.2 -61L-50.6 -60.5L-58.35 -60L-58.4 -60.75L-58.85 -60.25L-59.05 -60.1L-59.3 -59.95L-59.85 -59.95L-67.55 -60.55L-67.3 -57.7" />
<path style="fill:#5A7777;fill-opacity:1" d="M157.95,-58.7L158.1 -52.55L155.25 -52.6L154.1 -52.6Q147 -52.9 139.7 -52.8L136.85 -52.8L132.35 -52.8Q128.75 -52.8 125.1 -52.95L117.1 -53.1L110.95 -53.15L110.6 -53.1L103 -52.45Q100.05 -51.8 98.4 -50.25L98.15 -49.9Q96.7 -48.35 96 -45.1Q95.2 -41.4 95.35 -35.5L95.25 -28.4L80.1 -27.95L68.5 -27.5Q55.55 -27.45 50.4 -30.25Q46 -32.65 45.55 -38.75Q45.5 -40.15 46.55 -53.3Q46.95 -58.9 46.8 -64L50.95 -63.85L61.55 -63.35L72.65 -63.5L86.1 -63.95L96.25 -64.3L105.55 -63.9L111.65 -64.3L117.4 -64.65L119 -64.65L122.75 -64.7L128.8 -64.85L129.5 -64.85L140.05 -65L154.8 -64.95L157.85 -64.7L157.9 -60.85L157.95 -58.7M-53.1,46.9L-53.15 46.8L-55.7 -4.3L-56.2 -15L-58.25 -59.05L-58.35 -60L-50.6 -60.5L-40.2 -61L-28.05 -60.5L-14.8 -59.95L-4.05 -60.25L6.25 -60.55L17.6 -60.1L19 -60.15L26.05 -60.75Q29.4 -61.3 31.4 -62.35L31.4 -54.15Q31.4 -51.2 30.2 -41.85Q29 -32.55 29 -28.7Q29 -26.75 30.3 -22.65L31.25 -19.05L24.05 -18.5Q16.05 -17.9 13.05 -16.75Q11.25 -16 10 -14.55Q8.9 -13.3 8.35 -11.45Q7.85 -9.7 7.55 -6.45L7.35 0.55L7.5 3.65L7.55 5.35L8.45 20.1L8.9 25.9L9.7 35.55L10.4 44.95Q-24.75 45.4 -50.75 46.8L-53.1 46.9M-67.3,-57.7L-67.55 -60.55L-59.85 -59.95L-59.3 -59.95L-59.9 -59.85Q-65.85 -59.8 -67.3 -57.7M-59.05,-60.1L-58.85 -60.25L-58.4 -60.75L-58.45 -60.1L-58.85 -60.1L-59.05 -60.1M27.2,-5.7Q25.45 -5.7 23.8 -4.45Q21.9 -3.05 21.9 -1.15Q21.9 -0.15 22.15 0.7L22.3 1.3L26.3 1.5Q28.5 1.45 29.85 0.35Q31.1 -0.6 31.25 -2.15Q31.4 -3.55 30.4 -4.6Q29.25 -5.7 27.2 -5.7M158.1,4.5L157.7 14.3L158.5 28.6L159.25 42.85L159.2 45.35Q155.65 48.25 151.75 47.8Q147.8 47.45 138.25 47.85Q128.65 48.35 118.25 48.35Q107.9 48.35 99.95 48.5L63.15 49.1Q34.25 49.6 28.55 48.8L19.85 47.95L17.85 26.9L17.8 26.15Q16.15 6.8 16.1 -4.6Q16.05 -10.7 38.85 -13.25L70.7 -14.9L81.5 -14.55L94.6 -14.35L94.45 -12.8L94.1 -6L94.2 -3.25Q94.4 1.55 95.55 3.35Q96.75 5.35 99.5 6.25L101.65 6.7L104.95 6.9L137.75 5.5L140.6 5.35L158.1 4.5M157.85,-1.8L123.35 -0.95Q114.2 -0.95 109.35 -3.8Q104.95 -6.35 103.3 -11.5L103 -12.65Q102.05 -16.45 102.05 -22.55L102.35 -35.5Q102.35 -41.8 105.5 -43.25Q106.85 -43.9 109.55 -43.95L115.3 -44L125.45 -43.75L133.05 -43.45L150.85 -42.85L158.25 -43.5L158.95 -13.6L158.55 -4.15L158.4 -1.8L157.85 -1.8M145.25,36.9Q143.35 37.85 143.35 39.6Q143.4 42.1 145.65 43.55Q147.1 44.55 148.1 44.55Q150.75 44.5 152.15 43.2Q153.25 42.05 153.2 40.25Q153.2 38.6 152.15 37.35Q151.05 36.05 149.4 36.05Q146.9 36.05 145.25 36.9M-150,-54.6L-150.05 -55.15L-150.05 -55.55L-139.8 -56.15L-109.35 -57.7L-95.25 -57.55L-90.5 -57.15Q-83.4 -56.35 -80.2 -53.1Q-76.9 -49.85 -75.5 -42.05Q-74.45 -35.9 -73.7 -20.4L-72.75 -5.35Q-71.4 14.25 -68.4 42.5L-68.4 48L-68.9 48L-72.85 48.4L-86.35 49.55L-104.1 50.45L-116.25 50.95L-120.45 51Q-126.5 51.1 -130.8 50.75Q-148 49.25 -148.1 39.6L-149.6 19.95Q-151.15 -0.15 -151.15 -8.5Q-151.2 -15.3 -149.85 -23.7Q-148.4 -32.2 -148.45 -36.5L-149.25 -45.8L-149.75 -51.65L-150 -54.6" />
<path style="fill:#536D6D;fill-opacity:1" d="M-50.75,46.8Q-24.75 45.4 10.4 44.95L9.7 35.55L8.9 25.9L8.45 20.1L7.55 5.35L7.5 3.65L7.35 0.55L7.55 -6.45Q7.85 -9.7 8.35 -11.45Q8.9 -13.3 10 -14.55Q11.25 -16 13.05 -16.75Q16.05 -17.9 24.05 -18.5L31.25 -19.05L30.3 -22.65Q29 -26.75 29 -28.7Q29 -32.55 30.2 -41.85Q31.4 -51.2 31.4 -54.15L31.4 -62.35L31.4 -62.85L31.4 -63.65L32.2 -63.5L34.45 -62.85L38.55 -62.8L38.5 -63.95L39.75 -63.85L45.65 -63.9L46.8 -64Q46.95 -58.9 46.55 -53.3Q45.5 -40.15 45.55 -38.75Q46 -32.65 50.4 -30.25Q55.55 -27.45 68.5 -27.5L80.1 -27.95L95.25 -28.4L95.35 -35.5Q95.2 -41.4 96 -45.1Q96.7 -48.35 98.15 -49.9L98.4 -50.25Q100.05 -51.8 103 -52.45L110.6 -53.1L110.95 -53.15L117.1 -53.1L125.1 -52.95Q128.75 -52.8 132.35 -52.8L136.85 -52.8L139.7 -52.8Q147 -52.9 154.1 -52.6L155.25 -52.6L158.1 -52.55L157.95 -58.7L157.9 -60.85L157.85 -64.7Q162.85 -64.2 165.7 -63L165.8 -52.55L166.05 4.2L166.35 53.85L11.15 54.65L-61.35 55.05L-156.7 55.65L-157.35 -60.9L-156.95 -60.85L-149 -60.6L-111 -62.6L-85.35 -64.45L-78.4 -64.5Q-72.9 -64.25 -71.45 -62.9Q-70.65 -62.1 -70.55 -60.25L-70.45 -56.95Q-70.25 -53.75 -67.05 -53.75L-67.05 -54.2L-67.3 -57.7Q-65.85 -59.8 -59.9 -59.85L-59.3 -59.95L-59.05 -60.1L-58.85 -60.1L-58.45 -60.1L-58.4 -60.75L-58.35 -60L-58.25 -59.05L-56.2 -15L-55.7 -4.3L-53.15 46.8L-53.1 46.9L-50.75 46.8M22.65,-63.15L24.1 -62.9L21.8 -62.95L22.65 -63.15M30.4,-4.6Q31.4 -3.55 31.25 -2.15Q31.1 -0.6 29.85 0.35Q28.5 1.45 26.3 1.5L22.3 1.3L22.15 0.7Q21.9 -0.15 21.9 -1.15Q21.9 -3.05 23.8 -4.45Q25.45 -5.7 27.2 -5.7Q29.25 -5.7 30.4 -4.6M140.6,5.35L137.75 5.5L104.95 6.9L101.65 6.7L99.5 6.25Q96.75 5.35 95.55 3.35Q94.4 1.55 94.2 -3.25L94.1 -6L94.45 -12.8L94.6 -14.35L81.5 -14.55L70.7 -14.9L38.85 -13.25Q16.05 -10.7 16.1 -4.6Q16.15 6.8 17.8 26.15L17.85 26.9L19.85 47.95L28.55 48.8Q34.25 49.6 63.15 49.1L99.95 48.5Q107.9 48.35 118.25 48.35Q128.65 48.35 138.25 47.85Q147.8 47.45 151.75 47.8Q155.65 48.25 159.2 45.35L159.25 42.85L158.5 28.6L157.7 14.3L158.1 4.5L140.6 5.35M158.4,-1.8L158.55 -4.15L158.95 -13.6L158.25 -43.5L150.85 -42.85L133.05 -43.45L125.45 -43.75L115.3 -44L109.55 -43.95Q106.85 -43.9 105.5 -43.25Q102.35 -41.8 102.35 -35.5L102.05 -22.55Q102.05 -16.45 103 -12.65L103.3 -11.5Q104.95 -6.35 109.35 -3.8Q114.2 -0.95 123.35 -0.95L157.85 -1.8L158.4 -1.8M149.4,36.05Q151.05 36.05 152.15 37.35Q153.2 38.6 153.2 40.25Q153.25 42.05 152.15 43.2Q150.75 44.5 148.1 44.55Q147.1 44.55 145.65 43.55Q143.4 42.1 143.35 39.6Q143.35 37.85 145.25 36.9Q146.9 36.05 149.4 36.05M-149.75,-51.65L-149.25 -45.8L-148.45 -36.5Q-148.4 -32.2 -149.85 -23.7Q-151.2 -15.3 -151.15 -8.5Q-151.15 -0.15 -149.6 19.95L-148.1 39.6Q-148 49.25 -130.8 50.75Q-126.5 51.1 -120.45 51L-116.25 50.95L-104.1 50.45L-86.35 49.55L-72.85 48.4L-68.9 48L-68.4 48L-68.4 42.5Q-71.4 14.25 -72.75 -5.35L-73.7 -20.4Q-74.45 -35.9 -75.5 -42.05Q-76.9 -49.85 -80.2 -53.1Q-83.4 -56.35 -90.5 -57.15L-95.25 -57.55L-109.35 -57.7L-139.8 -56.15L-150.05 -55.55L-150.05 -55.15L-150 -54.6L-149.75 -51.65" />
<path style="fill:none;stroke-width:2;stroke-linecap:butt;stroke-linejoin:miter;stroke-miterlimit:3;stroke:#435B5B;stroke-opacity:1" d="M95.25,-28.4L95.35 -35.5Q95.2 -41.4 96 -45.1Q96.7 -48.35 98.15 -49.9L98.4 -50.25Q100.05 -51.8 103 -52.45L110.6 -53.1L110.95 -53.15L117.1 -53.1L125.1 -52.95Q128.75 -52.8 132.35 -52.8L136.85 -52.8L139.7 -52.8Q147 -52.9 154.1 -52.6L155.25 -52.6L158.1 -52.55M157.95,-58.7Q157.6 -59.1 157.6 -59.7Q157.6 -60.45 157.9 -60.85L158.3 -61.2L159.8 -61.45Q160.85 -61.45 161.35 -61.05Q161.8 -60.65 161.8 -59.8L161.75 -59.3L161.35 -58.8L160.8 -58.3L160.6 -58.2L159.75 -58.1Q158.8 -58.1 158.15 -58.55L157.95 -58.7M165.8,-52.55L165.7 -63L165.65 -67.5L38.2 -66.75L38.5 -63.95L38.55 -62.8L39 -58L39.3 -58.05M31.4,-62.85L24.1 -62.9L21.8 -62.95L-67.75 -63.2L-67.55 -60.55M-53.15,46.8L-51.7 46.5Q-51.2 46.5 -50.75 46.8L-50.25 47.25Q-49.65 48 -49.65 48.55Q-49.65 49 -50.2 49.4L-50.45 49.6L-50.75 49.8L-51.3 50L-52.1 50.2Q-54.15 50.2 -54.15 48.2Q-54.2 47.4 -53.3 46.9L-53.15 46.8M10.4,44.95L9.7 35.55L8.9 25.9L8.45 20.1L7.55 5.35L7.5 3.65L7.35 0.55L7.55 -6.45Q7.85 -9.7 8.35 -11.45Q8.9 -13.3 10 -14.55Q11.25 -16 13.05 -16.75Q16.05 -17.9 24.05 -18.5L31.25 -19.05L32 -19.05L35.75 -19.4L41.45 -19.85L39.95 -49.1L39 -58M31.4,-62.85L34.45 -62.85L38.55 -62.8M16.8,-7.5L17.25 -7.5Q17.7 -7.55 17.75 -7.85L16.8 -7.5L16.5 -7.5Q15.75 -7.5 15.2 -7.95Q14.75 -8.45 14.75 -9.15Q14.75 -9.9 15.5 -10.45L17 -10.9Q18.7 -10.9 18.7 -9.05Q18.7 -8.25 17.75 -7.85M94.6,-14.35L94.75 -17.7L95.05 -21.75L86.2 -21.6L71.85 -21.15L64.55 -20.9L62.85 -20.85L60.85 -20.8L58.95 -20.8L57 -20.7L56.4 -20.7L43.65 -20L41.55 -19.85L41.45 -19.85M104.1,-48.5Q103.1 -48.5 102.4 -48Q101.65 -47.5 101.7 -46.55Q101.7 -45.5 102.45 -44.9Q103.25 -44.35 104.35 -44.35L104.95 -44.35L106.05 -45.4L106.15 -45.55Q106.55 -45.95 106.55 -46.3Q106.55 -47.05 105.9 -47.7Q105.2 -48.5 104.1 -48.5M106.05,-45.4L105.4 -44.35L104.95 -44.35M158.55,-4.15L160.25 -4.4Q162.1 -4.4 162.1 -2.65L162 -1.75L161.65 -1.25L161.15 -1L160.8 -0.95L159.9 -0.9Q158.9 -0.9 158.35 -1.3Q157.95 -1.5 157.85 -1.8Q157.55 -2.2 157.55 -2.75Q157.55 -3.55 158.45 -4.05L158.55 -4.15M95.25,-28.4L95.2 -27.4L95.05 -21.75M94.6,-14.35L94.45 -12.8L94.1 -6L94.2 -3.25Q94.4 1.55 95.55 3.35Q96.75 5.35 99.5 6.25L101.65 6.7L104.95 6.9L137.75 5.5L140.6 5.35L158.1 4.5L166.05 4.2L165.8 -52.55L158.1 -52.55M105.75,-0.55Q106.55 0.2 106.55 1.15Q106.55 1.85 105.75 2.25Q105.2 2.5 104.9 2.7Q104.65 3.05 104.1 3.2L103.95 3.25L103.4 3.3Q102.6 3.3 101.4 2.65Q100 1.9 100 1.15Q99.95 -0.3 103.45 -1.3Q104.8 -1.35 105.75 -0.55M160.9,-47.1Q162.2 -47.1 162.7 -46.35L163 -44.8L162.85 -43.95L162.15 -43.45L162.05 -43.4L161.1 -43.15L160.6 -43.15Q159.7 -43.15 159.2 -43.8Q158.7 -44.35 158.7 -45.15Q158.7 -45.95 159.45 -46.55Q160.2 -47.1 160.9 -47.1M162.45,13.05L162.15 13.5L161.95 13.75Q161.8 14.45 161.3 14.55L160.2 14.65Q159.15 14.65 158.7 14.15L158.4 13.1Q158.4 12.3 159.15 11.9L160.8 11.55Q161.55 11.55 162.05 11.95Q162.45 12.45 162.45 13.05M10.4,44.95L11.15 54.65L166.35 53.85L166.05 4.2M161.95,13.75L161.35 14.25M104.9,2.7L103.95 3.25M2.65,47.9Q3.3 47.5 4.05 47.5Q4.85 47.5 5.55 48Q6.15 48.5 6.15 49.15Q6.15 49.85 5.5 50.35L4.9 50.65L4.9 50.8L4.4 50.85L4.3 50.85L3.75 50.95L3.7 50.95Q1.85 50.95 1.85 49.05Q1.85 48.35 2.65 47.9M17.05,47.65Q17.65 47.2 18.45 47.2Q19.05 47.2 19.6 47.95Q20.05 48.6 20.05 49.2Q20.05 49.95 19.6 50.2L18.1 50.45Q17.3 50.45 16.8 50.05Q16.25 49.7 16.25 49.1Q16.25 48.25 17.05 47.65M4.9,50.65L4.4 50.85M11.15,54.65L-61.35 55.05L-156.7 55.65L-157.35 -60.9L-157.35 -63.2L-150 -63.7L-149.75 -63.7L-110.15 -65.75L-90.5 -66.65L-74.55 -67.4L-68.1 -67.7L-68.1 -67.55L-67.75 -63.2M-150,-54.6L-149.8 -54.8Q-149.05 -55.6 -148.3 -55.65Q-146.25 -55.65 -146.25 -53.1Q-146.25 -52.2 -146.35 -52.05Q-146.5 -51.8 -147.05 -51.7L-147.7 -51.5L-148.55 -51.45L-149.75 -51.65M-72.85,48.4Q-72.8 47.65 -71.95 47.15L-70.55 46.75Q-70 46.7 -69.45 47.35L-68.9 48Q-68.75 48.25 -68.75 48.4L-68.85 49.15Q-69.05 49.45 -69.7 49.55L-69.95 49.8L-70.35 49.95L-71.1 50.05Q-72.2 50.05 -72.55 49.6L-72.85 48.6L-72.85 48.4M-67.05,-53.75L-67.05 -54.2L-67.3 -57.7L-67.55 -60.55M-150,-54.6Q-150.55 -53.9 -150.55 -53.15Q-150.55 -52.35 -150.2 -51.95L-149.75 -51.65M-67.05,-53.75Q-66.85 -29.85 -66.5 -19.7L-66.25 -16Q-65.95 -10.85 -65.25 -5.2L-65.25 -5L-64.85 -1.5L-63.6 13.6Q-62.6 27.75 -61.65 47.5L-61.35 55.05M-73.4,65.85L-72.65 65.85" />
</g>
</svg>
