<?xml version="1.0" encoding="utf-8"?>
<svg version="1.1" id="Layer_1"
xmlns="http://www.w3.org/2000/svg"
xmlns:xlink="http://www.w3.org/1999/xlink"
xmlns:author="http://www.sothink.com"
width="43px" height="55px"
xml:space="preserve">
<g id="121" transform="matrix(1, 0, 0, 1, 22.8, 32.8)">
<path style="fill:#EC7558;fill-opacity:1" d="M-15.15,-11.4L-16.8 -11.2L-17.6 -11.4Q-17.2 -14.2 -13.8 -15.05L-13.55 -15.1L-12.35 -15.5L-11.5 -15.7L-9.05 -16.25L-2.3 -17.8L3 -19.25L3.65 -19.5Q2.55 -21.25 1.55 -23.85Q0.3 -26.1 -2.5 -25.95L-3 -25.95L-8.65 -25.1L-12.7 -24.85Q-12.15 -26.35 -10.35 -26.8L-9.35 -27L-4.7 -27.8L-3.55 -28L-4.2 -29.5Q-4.65 -30.9 -7.05 -30.3Q-8 -29.7 -8.35 -29.65L-9.6 -29.7L-9.25 -30.35Q-8.45 -31.3 -6.05 -31.95L-2.45 -32.3Q-1.7 -31.8 -1.1 -28.35L0.45 -28.7Q2.95 -29.3 4.2 -25.35Q5 -21.4 5.55 -19.85L8.05 -20.2Q11.65 -20.65 12.95 -17.7L13.05 -17.15L13.05 -17.1L13.1 -17L13.1 -16.95L13.15 -16.85L14.6 -11.65L15.75 -7.4L15.75 -7.2L16.25 -5.75L17.3 -1.65L17.35 -1.2L17.8 0.4L18.35 3.55L19.2 9L19.35 9.95L19.4 10.9L19.3 11.9L18.3 11.85L16.85 9.3Q16.15 7.8 15.25 4.3Q14.45 1.15 14.1 -3.4L13.25 -9.55L12.8 -11.15Q11.8 -14.4 10.25 -15.9Q10.05 -16.55 9.35 -16.8L8.75 -16.95L8.45 -17.05Q6.95 -17.4 0.9 -15.85L-5.9 -13.9L-12.85 -11.95L-13.5 -11.8L-14.5 -11.9L-14.95 -11.7L-15.15 -11.4M-13.75,7.9L-12.85 11.1L-12.25 13.4L-14.1 12.6Q-15.1 11.95 -15.7 11.8L-16.55 11.7L-17.6 12.3L-18.65 8L-18.7 7.8L-18.85 6.55L-15.75 5.65L-15.75 5.75L-14.3 5.3L-13.75 7.9M-20.95,-0.65L-21 -0.8L-21.3 -1.7L-22 -4.55L-22.3 -7.05Q-22.1 -7.95 -19.35 -8.55L-19.3 -8.35L-18.45 -8.35L-17.35 -8.65L-15.85 -3.15L-15.8 -3L-15.55 -1.2L-15.75 -1.25L-18.6 -1.65L-20.95 -0.65" />
<path style="fill:#D75535;fill-opacity:1" d="M-9.6,-29.7L-8.35 -29.65Q-8 -29.7 -7.05 -30.3Q-4.65 -30.9 -4.2 -29.5L-3.55 -28L-4.7 -27.8L-9.35 -27Q-10 -28.65 -9.6 -29.7M-6.2,-18.9Q-4.55 -19.35 -4.5 -20.95L-4.65 -22.15L-5.25 -23.95Q-5.85 -25.05 -7.1 -25.1L-11.3 -24L-12.85 -23.55L-12.7 -24.85L-8.65 -25.1L-3 -25.95L-2.5 -25.95Q0.3 -26.1 1.55 -23.85Q2.55 -21.25 3.65 -19.5L3 -19.25L-2.3 -17.8L-9.05 -16.25L-11.5 -15.7L-11.5 -16.05L-11.7 -17.8L-10 -18.3L-6.2 -18.9M-17.35,-8.65L-17.65 -9.55Q-17.8 -10.55 -17.6 -11.4L-16.8 -11.2L-15.15 -11.4L-14.95 -11.7L-14.5 -11.9L-13.5 -11.8L-12.85 -11.95L-5.9 -13.9L0.9 -15.85Q6.95 -17.4 8.45 -17.05L8.75 -16.95L9.35 -16.8Q10.05 -16.55 10.25 -15.9Q11.8 -14.4 12.8 -11.15L13.25 -9.55L14.1 -3.4Q14.45 1.15 15.25 4.3Q16.15 7.8 16.85 9.3L18.3 11.85L19.3 11.9L18.95 12.75L18.3 11.85L17.85 11.8L16.5 11.7L16.2 11.8L15.25 11.85L13.35 12.05L12 12.8L10.45 13.65L6.35 13.85Q3.5 13.7 2.9 13.85L-0.25 14.7L-3.5 15.35Q-5.15 15.55 -6.35 13.7Q-7.9 11.3 -8.5 11L-9.2 10.25Q-10.5 8.4 -12 3.4Q-12.8 0.65 -13.95 -1L-15.55 -1.2L-15.8 -3L-15.85 -3.15L-17.35 -8.65M-6.3,-0.5Q-7.2 -0.05 -7.55 1.55Q-8 3.35 -7.55 5Q-7 7.4 -3.45 8.35L-2.45 8.55L0.4 8.75Q2.9 8.15 3.9 7.05L4 6.85Q4.85 5.8 4.45 4L5.9 2.7L5.9 2.65Q7.1 0.85 6.15 -2.95Q5.45 -5.85 2.75 -6.65L-2.4 -6.5Q-4.35 -6.05 -5.2 -4.45L-5.65 -4.05Q-6.1 -3.55 -6.25 -2.35L-6.3 -1.55L-6.3 -0.5M-7.5,15Q-6.85 15.25 -6.75 15.55Q-7.05 17.4 -7.55 17.55Q-8.65 17.8 -9.35 16.6Q-9.95 15.35 -8.45 14.95L-7.5 15" />
<path style="fill:#2A2524;fill-opacity:1" d="M-10.65,-21.15L-11.3 -24L-7.1 -25.1Q-5.85 -25.05 -5.25 -23.95L-4.65 -22.15L-4.5 -20.95L-10.65 -21.15M-7.7,-22.25L-7 -22.15Q-6.25 -22.3 -6.45 -23.05L-6.65 -23.55Q-7.7 -23.45 -7.85 -23.1L-7.8 -22.6L-7.7 -22.25" />
<path style="fill:#6A86A3;fill-opacity:1" d="M0.9,-0.4Q0.45 0.3 -0.05 0.4L-0.7 0.45Q-1.6 0.35 -2 -0.8L-1.9 -1.25Q-1.55 -2.05 -0.85 -2.25L0.3 -2.25Q1.05 -2.2 1.2 -1.7Q1.3 -1.1 0.9 -0.4" />
<path style="fill:#8CAAC9;fill-opacity:1" d="M1.25,5.25Q-4.6 6.75 -6.1 0.75L-6.3 -0.5L-6.3 -1.55L-6 -1.6L-4.35 -2.75Q-3 -3.95 -1.95 -4.25L-1.05 -4.3Q3.15 -5 4.3 -0.9Q5.05 1.6 5.5 2.2L5.9 2.65L5.9 2.7L4.45 4Q3.25 4.75 1.25 5.25M1.2,-1.7Q1.05 -2.2 0.3 -2.25L-0.85 -2.25Q-1.55 -2.05 -1.9 -1.25L-2 -0.8Q-1.6 0.35 -0.7 0.45L-0.05 0.4Q0.45 0.3 0.9 -0.4Q1.3 -1.1 1.2 -1.7" />
<path style="fill:#B4CEE9;fill-opacity:1" d="M5.5,2.2Q5.05 1.6 4.3 -0.9Q3.15 -5 -1.05 -4.3L-1.95 -4.25Q-3 -3.95 -4.35 -2.75L-6 -1.6L-6.3 -1.55L-6.25 -2.35Q-6.1 -3.55 -5.65 -4.05L-5.2 -4.45Q-4.35 -6.05 -2.4 -6.5L2.75 -6.65Q5.45 -5.85 6.15 -2.95Q7.1 0.85 5.9 2.65L5.5 2.2" />
<path style="fill:#B4472C;fill-opacity:1" d="M-14.3,5.3L-14.9 2.8L-16.35 3.25L-17.55 3.7Q-19 4.25 -19.15 4.2Q-19.45 4.2 -20.1 2L-20.95 -0.65L-18.6 -1.65L-15.75 -1.25L-15.55 -1.2L-13.95 -1Q-12.8 0.65 -12 3.4Q-10.5 8.4 -9.2 10.25L-8.5 11Q-7.9 11.3 -6.35 13.7Q-5.15 15.55 -3.5 15.35L-0.25 14.7L2.9 13.85Q3.5 13.7 6.35 13.85L10.45 13.65L12 12.8L13.35 12.05L15.25 11.85L16.2 11.8L16.5 11.7L17.85 11.8L18.3 11.85L18.95 12.75Q18.35 13.5 17.15 13.8L13.35 14.95L11.05 15.6L10.7 15.75Q11.75 18.55 11.1 19.25L8.55 20.1Q0.05 22.3 -3.15 21.4L-3.8 19.05L-7.65 19.8Q-10.35 20 -11.3 16.9L-12.8 17.2L-15.5 17.65Q-17.05 17.4 -17.1 15.2L-16.95 15.15L-17.3 13.5L-17.6 12.3L-16.55 11.7L-15.7 11.8Q-15.1 11.95 -14.1 12.6L-12.25 13.4L-12.85 11.1L-13.75 7.9L-14.3 5.3M4.45,4Q4.85 5.8 4 6.85L3.9 7.05Q2.9 8.15 0.4 8.75L-2.45 8.55L-3.45 8.35Q-7 7.4 -7.55 5Q-8 3.35 -7.55 1.55Q-7.2 -0.05 -6.3 -0.5L-6.1 0.75Q-4.6 6.75 1.25 5.25Q3.25 4.75 4.45 4M-3.8,19L-3.8 19.05L-3.65 19L-3.8 19M-8.45,14.95Q-9.95 15.35 -9.35 16.6Q-8.65 17.8 -7.55 17.55Q-7.05 17.4 -6.75 15.55Q-6.85 15.25 -7.5 15L-8.45 14.95" />
<path style="fill:#CBC4C2;fill-opacity:1" d="M-7.8,-22.6L-7.85 -23.1Q-7.7 -23.45 -6.65 -23.55L-6.45 -23.05Q-6.25 -22.3 -7 -22.15L-7.7 -22.25L-7.8 -22.6" />
<path style="fill:#383432;fill-opacity:1" d="M-4.5,-20.95Q-4.55 -19.35 -6.2 -18.9L-10 -18.3L-10.65 -21.15L-4.5 -20.95" />
<path style="fill:none;stroke-width:1;stroke-linecap:butt;stroke-linejoin:miter;stroke-miterlimit:3;stroke:#833825;stroke-opacity:1" d="M-19.3,-8.35L-18.45 -8.35L-17.35 -8.65L-17.65 -9.55Q-17.8 -10.55 -17.6 -11.4Q-17.2 -14.2 -13.8 -15.05L-13.55 -15.1L-12.35 -15.5L-11.5 -15.7L-9.05 -16.25L-2.3 -17.8L3 -19.25L3.65 -19.5L5.55 -19.85Q5 -21.4 4.2 -25.35Q2.95 -29.3 0.45 -28.7L-1.1 -28.35L-3.55 -28L-4.7 -27.8L-9.35 -27L-10.35 -26.8Q-12.15 -26.35 -12.7 -24.85M5.55,-19.85L8.05 -20.2Q11.65 -20.65 12.95 -17.7L13.05 -17.15L13.05 -17.1L13.1 -17L13.1 -16.95L13.15 -16.85L14.6 -11.65L15.75 -7.4L15.75 -7.2L16.25 -5.75L17.3 -1.65L17.35 -1.2L17.8 0.4L18.35 3.55L19.2 9L19.35 9.95L19.4 10.9L19.3 11.9L18.95 12.75Q18.35 13.5 17.15 13.8L13.35 14.95L11.05 15.6L10.7 15.75Q11.75 18.55 11.1 19.25L8.55 20.1Q0.05 22.3 -3.15 21.4L-3.8 19.05L-7.65 19.8Q-10.35 20 -11.3 16.9L-12.8 17.2L-15.5 17.65Q-17.05 17.4 -17.1 15.2L-16.95 15.15L-17.3 13.5L-17.6 12.3L-18.65 8L-18.7 7.8L-18.85 6.55L-15.75 5.65M-15.75,5.75L-14.3 5.3L-14.9 2.8L-16.35 3.25L-17.55 3.7Q-19 4.25 -19.15 4.2Q-19.45 4.2 -20.1 2L-20.95 -0.65L-21 -0.8L-21.3 -1.7L-22 -4.55L-22.3 -7.05Q-22.1 -7.95 -19.35 -8.55M-11.5,-16.05L-11.7 -17.8L-10 -18.3L-10.65 -21.15L-11.3 -24L-12.85 -23.55L-12.7 -24.85M8.75,-16.95L7.7 -16.85L7.1 -16.5L7 -16.1L7 -15.25Q7.25 -14.25 7.95 -13.9L9.15 -13.85Q10.1 -14.1 10.4 -14.55L10.35 -15.7L10.25 -15.9Q10.05 -16.55 9.35 -16.8L8.75 -16.95M-13.5,-11.8L-12.75 -11.35Q-12.65 -10.9 -12.95 -10.3Q-13.2 -9.7 -13.7 -9.55Q-15 -9.25 -15.3 -10.4L-15.3 -10.7L-15.25 -11.2L-15.15 -11.4M15.25,11.85L16.2 11.8L16.5 11.7L17 11.2Q17.25 10.75 17.1 10.3Q16.95 9.7 16.25 9.5L15.35 9.4Q14.25 9.7 14.6 10.95Q14.85 11.55 15.25 11.85M-15.55,-1.2L-15.45 -0.75L-14.9 2.8M10.7,15.75L6.1 17.05L-1.25 18.4L-3.65 19L-3.8 19.05L-3.8 19L-3.65 19M-9.35,-27Q-10 -28.65 -9.6 -29.7L-9.25 -30.35Q-8.45 -31.3 -6.05 -31.95L-2.45 -32.3Q-1.7 -31.8 -1.1 -28.35M-11.3,-24L-7.1 -25.1Q-5.85 -25.05 -5.25 -23.95L-4.65 -22.15L-4.5 -20.95Q-4.55 -19.35 -6.2 -18.9L-10 -18.3M-13.5,-11.8L-14.5 -11.9L-14.95 -11.7L-15.15 -11.4M-15.55,-1.2L-15.8 -3L-15.85 -3.15L-17.35 -8.65M-11.3,16.9L-11.5 16.45L-12.25 13.4L-12.85 11.1L-13.75 7.9L-14.3 5.3M-8.45,14.95Q-9.95 15.35 -9.35 16.6Q-8.65 17.8 -7.55 17.55Q-7.05 17.4 -6.75 15.55Q-6.85 15.25 -7.5 15L-8.45 14.95" />
<path style="fill:none;stroke-width:1;stroke-linecap:butt;stroke-linejoin:miter;stroke-miterlimit:3;stroke:#34495F;stroke-opacity:1" d="M5.9,2.65Q7.1 0.85 6.15 -2.95Q5.45 -5.85 2.75 -6.65L-2.4 -6.5Q-4.35 -6.05 -5.2 -4.45L-5.65 -4.05Q-6.1 -3.55 -6.25 -2.35L-6.3 -1.55M5.9,2.65L5.9 2.7L4.45 4M-6.3,-0.5L-6.3 -1.55M-6.3,-0.5L-6.1 0.75Q-4.6 6.75 1.25 5.25Q3.25 4.75 4.45 4" />
</g>
</svg>
