<?xml version="1.0" encoding="utf-8"?>
<svg version="1.1" id="Layer_1"
xmlns="http://www.w3.org/2000/svg"
xmlns:xlink="http://www.w3.org/1999/xlink"
xmlns:author="http://www.sothink.com"
width="28px" height="9px"
xml:space="preserve">
<g id="190" transform="matrix(1, 0, 0, 1, 17.45, 4.05)">
<path style="fill:#FF0000;fill-opacity:0" d="M9.15,-4.05L9.15 4.75L-0.9 4.75L-0.9 -4.05L9.15 -4.05" />
<path style="fill:#FF0000;fill-opacity:0" d="M9.95,4.05L-17.4 4.05L-17.4 -3.5L9.95 -3.5L9.95 4.05" />
<path style="fill:#FFFFFF;fill-opacity:1" d="M5.1,-1.9Q6.7 -1.7 6.6 0Q6.6 1.4 5.7 1.35Q4.65 1.35 3.95 0.55Q3.4 -0.1 3.4 -0.5Q3.5 -2 5.1 -1.9" />
<path style="fill:#CCCCCC;fill-opacity:1" d="M-0.05,2.9L-0.7 2.95L-0.7 2.3L-4.4 2.55L-3.8 1.5L-17.45 0.65L-6.15 -0.15L-7.6 -1L-0.7 -1.35L-0.7 -2L-0.1 -2.05L-0.05 2.9" />
<path style="fill:#FFCC00;fill-opacity:1" d="M-0.1,-2.05L-0.15 -3.35L0.7 -3.35L5.75 -2.75Q8.4 -1.8 8.35 0.65Q8.3 2.85 4.95 3.65L-0.05 4.05L-0.05 2.9L-0.1 -2.05M3.4,-0.5Q3.4 -0.1 3.95 0.55Q4.65 1.35 5.7 1.35Q6.6 1.4 6.6 0Q6.7 -1.7 5.1 -1.9Q3.5 -2 3.4 -0.5" />
<path style="fill:none;stroke-width:1;stroke-linecap:butt;stroke-linejoin:miter;stroke-miterlimit:3;stroke:#585454;stroke-opacity:1" d="M-0.1,-2.05L-0.15 -3.35L0.7 -3.35L5.75 -2.75Q8.4 -1.8 8.35 0.65Q8.3 2.85 4.95 3.65L-0.05 4.05L-0.05 2.9M-0.1,-2.05L-0.05 2.9" />
</g>
</svg>
