<?xml version="1.0" encoding="utf-8"?>
<svg version="1.1" id="Layer_1"
xmlns="http://www.w3.org/2000/svg"
xmlns:xlink="http://www.w3.org/1999/xlink"
xmlns:author="http://www.sothink.com"
width="53px" height="41px"
xml:space="preserve">
<g id="129" transform="matrix(1, 0, 0, 1, 22.9, 16.8)">
<path style="fill:#73C95E;fill-opacity:1" d="M19.35,-0.8Q20.05 -0.3 20.05 0.2L20.05 0.25L18.85 0.05Q17.65 -0.1 17.05 -0.45Q12.5 -3.05 6.85 -3.05Q2.8 -3.05 -1.25 -1.7L-3.35 -0.95Q-5.75 0 -7.6 1L-8.15 -0.1L-7.9 -0.25L-7.9 -0.3L-4.25 -2.3L-4.2 -2.3L-2.8 -2.85L-2 -3.1L-1.25 -3.25L6.25 -3.9L7.95 -3.7L9.2 -3.55L9.3 -3.5L15.35 -2.4Q18.2 -1.65 19.35 -0.85L19.35 -0.8" />
<path style="fill:#F5F055;fill-opacity:1" d="M20.05,0.2Q20.05 -0.3 19.35 -0.8Q20.9 -0.4 23 0.85L23.5 1.15L24.3 1.65L24.55 1.75L25.75 2.45L25.95 2.75Q24.7 3.5 22.85 4.15L21.4 4.65L15.2 6.15L7.9 7.7L0.3 9.25L-4.95 10.3L-7.65 10.85L-5.75 5.85L-5.75 5.8L-5.7 5.75L-5.15 4.9L-4.5 3.65L-2.95 2.2L-2.9 2.2L-2.15 1.55L-1.25 1.15L-0.55 0.85L1.9 -0.05L4 -0.5L7.2 -0.75L10.45 -0.85L13.45 -0.45L16.15 0.35L18.55 1.05L18.7 1.1L18.9 1.1L19.55 0.9Q20.05 0.65 20.05 0.25L20.05 0.2M-0.3,5.25Q1.6 5.25 9.45 3.25L13.65 3.25L14.15 2.9L14.3 2.55Q14.3 1.9 13.4 1.6L11.05 1.1L6.2 0.9Q-1.55 0.9 -1.55 4L-1.55 4.65Q-1.35 5.25 -0.3 5.25" />
<path style="fill:#4D9F38;fill-opacity:1" d="M-3.05,2L-3.05 2.05L-5.8 3.5L-6.25 3.75L-6.3 3.75L-7.5 3.25Q-8.5 2.7 -9 2.7L-8.95 2.2Q-8.95 1.55 -9.5 0.75L-9.5 0.7Q-9 0.6 -8.4 -0.05L-8.15 -0.1L-7.6 1Q-5.75 0 -3.35 -0.95L-1.25 -1.7Q2.8 -3.05 6.85 -3.05Q12.5 -3.05 17.05 -0.45Q17.65 -0.1 18.85 0.05L20.05 0.25Q20.05 0.65 19.55 0.9L18.9 1.1L18.7 1.1L18.55 1.05L16.15 0.35L13.45 -0.45L10.45 -0.85L7.2 -0.75L4 -0.5L1.9 -0.05L-0.55 0.85L-1.25 1.15L-2.15 1.55L-3.05 2M-12.9,1.15L-11.95 2.5L-11.25 3.35L-11.45 3.35L-12.6 2.9Q-13 2.5 -13 1.8L-12.9 1.15M10.45,9.75L8.9 10.1L4.05 11.2L-2.8 12.6L-10.3 14.05L-14.1 14.65L-17.3 15.3L-18.2 15.5L-20 15.75Q-21.75 15.75 -21.75 14.75L-21.7 14.35L-21.25 14.4L-16.55 13.65L-14.05 12.95L-13.75 12.9Q-8.9 11.45 -6.25 11.3L0.6 10.3L6.65 8.8L10.4 8L13.7 7.45L16.35 6.9L18.85 6.15L24.25 4.95L28.9 3.3L29 3.65Q29 5.55 26.15 6.3L26.1 6.3L25.15 6.5Q20.3 7.25 15.9 8.35L11.2 9.55L10.45 9.75" />
<path style="fill:#81D26C;fill-opacity:1" d="M26.1,2.65L25.75 2.45L27.75 2.65Q28.6 2.9 28.9 3.3L24.25 4.95L18.85 6.15L16.35 6.9L13.7 7.45L10.4 8L6.65 8.8L0.6 10.3L-6.25 11.3Q-8.9 11.45 -13.75 12.9L-14.05 12.95L-16.55 13.65L-21.25 14.4L-21.7 14.35Q-21.4 13.45 -19.85 13.05L-19.15 12.95L-17.4 12.7L-17.2 12.7L-14.3 12.15L-14.05 12.1L-11.3 11.65L-8.55 11.1L-7.75 10.9L-7.65 10.85L-4.95 10.3L0.3 9.25L7.9 7.7L15.2 6.15L21.4 4.65L22.85 4.15Q24.7 3.5 25.95 2.75L26.1 2.65" />
<path style="fill:#E7E5A5;fill-opacity:1" d="M4.35,17.45L0.05 17.95L1.5 20.2L2.7 22.15L-0.65 22.8L-5.65 23.15L-10.55 23.2L-13.75 22.75Q-14.75 22.35 -15.25 21.35L-16.25 18.8L-16.85 17.6L-15.75 17.45L-13 16.8L-10.65 16.55Q-10.2 16.65 -5.9 15.4Q-1.4 14.15 1.55 14.35L4 13.95L4.35 17.45M5.95,12.95L6.6 12.6L9.95 12.1L9.65 13.45L5.95 12.95M-13.5,19L-13.3 18.95L-13.5 18.95L-13.5 19M18.55,12.4L17.9 10.35L20.2 9.2L24.55 9.2L23.85 10.2L23 11.4L18.55 12.4" />
<path style="fill:#A8A778;fill-opacity:1" d="M-17.5,16.5L-18.2 15.5L-17.3 15.3L-14.1 14.65L-10.3 14.05L-2.8 12.6L4.05 11.2L8.9 10.1L10.45 9.75L9.95 12.1L6.6 12.6L5.95 12.95L3.85 12.65L4 13.95L1.55 14.35Q-1.4 14.15 -5.9 15.4Q-10.2 16.65 -10.65 16.55L-13 16.8L-15.75 17.45L-16.85 17.6L-17.5 16.5M20.2,9.2L17.9 10.35L17.65 9.65L15.6 11.25L15.45 11.3L11.2 9.55L15.9 8.35Q20.3 7.25 25.15 6.5L26.1 6.3L25.55 7.65L24.55 9.2L20.2 9.2" />
<path style="fill:#FAF7AC;fill-opacity:1" d="M-1.55,4.65L-1.55 4Q-1.55 0.9 6.2 0.9L11.05 1.1L13.4 1.6Q14.3 1.9 14.3 2.55L14.15 2.9L13.65 3.25L9.45 3.25Q1.6 5.25 -0.3 5.25Q-1.35 5.25 -1.55 4.65" />
<path style="fill:#2F9EBF;fill-opacity:1" d="M-16,3.8L-18.35 5.9L-19.2 6.55L-21.2 3.75Q-22.65 1.5 -22.35 0.9L-22.05 0.05L-22 -0.05L-21.8 -0.7L-21.05 -2.2L-20.7 -2.7L-20.45 -3.05L-20.05 -3.35L-19.9 -3.35L-18.15 -5.55L-16.7 -7.05L-16.45 -7.3L-13.25 -10.05L-13.2 -10.1L-12.3 -10.65L-11.45 -10.9L-9.95 -11.1L-9.35 -11.15L-8.95 -11.05L-9.15 -10.9Q-9.75 -10.5 -9.95 -9.9L-10 -9.4L-10 -8.85Q-10 -7.7 -9.5 -6.9Q-9.05 -6.4 -8.45 -6.25L-10.5 -3.65L-12.1 -1.9L-12.9 -2.85L-12.55 -3.45L-12.1 -4.05L-12.65 -4.35L-13.55 -5L-13.65 -5.1L-14.4 -5.75L-14.65 -5.55Q-15.95 -4.3 -16.3 -3.45L-16.4 -2.9Q-16.4 -1.95 -15.9 -1.35L-15.55 -1.05L-14.65 -0.45L-15.45 -0.25L-15.6 1.05L-15.25 1.85L-14.85 2.5L-15.65 3.45L-16 3.8M-12.15,-6.55Q-11.7 -5.85 -11.25 -5.85L-11.1 -5.85L-10.65 -6.35L-10.5 -6.55L-10.4 -6.9Q-10.4 -7.7 -11.45 -7.95Q-12.5 -8.2 -12.55 -7.35L-12.55 -7.3L-12.15 -6.55" />
<path style="fill:#EEA78C;fill-opacity:1" d="M-13.85,-4.8L-14.4 -3.45L-14.55 -2.8Q-14.55 -2.45 -13.55 -1.35L-13.4 -1.15L-13.3 -1.05L-12.15 0.15L-12.1 0.2L-11.75 0.75L-10.1 3.05L-9.95 3.15L-9.3 2.75L-9.3 2.55Q-9.3 2.05 -10.2 0.75L-10.35 0.55L-11.9 -1.35L-12.25 -1.8L-13.3 -2.9L-13.2 -3.45L-12.65 -4.35L-12.1 -4.05L-12.55 -3.45L-12.9 -2.85L-12.1 -1.9L-11.5 -1.35L-10.95 -0.8L-9.5 0.7L-9.5 0.75Q-8.95 1.55 -8.95 2.2L-9 2.7L-9.45 3.35Q-9.9 3.75 -10.55 3.75L-11.25 3.35L-11.95 2.5L-12.9 1.15L-13.25 0.75L-13.4 0.6L-14.65 -0.45L-15.55 -1.05L-15.9 -1.35Q-16.4 -1.95 -16.4 -2.9L-16.3 -3.45Q-15.95 -4.3 -14.65 -5.55L-14.4 -5.75L-13.65 -5.1L-13.85 -4.8M-9.15,-10.9L-8.95 -11.05L-8.9 -11.1L-8.85 -11L-8.75 -11L-8.95 -11.9L-9.1 -12.5Q-9.1 -13.8 -8.7 -14.65Q-7.95 -16.3 -5.75 -16.3L-3.3 -15.8L-2.9 -15.25Q-3.25 -15.6 -4 -15.85Q-5.45 -16.25 -5.45 -15.25L-5.1 -14.65L-4.95 -14.5Q-4.4 -13.6 -3.75 -13.6Q-3.15 -13.6 -2.9 -13.9L-2.55 -14.2L-2.45 -14.55L-2.5 -14.7L-1.6 -13.35L-1.5 -12.9L-2.3 -12.7L-2.55 -12.35L-2.7 -12.2L-2.95 -12.05L-3.3 -12.5Q-3.75 -12.9 -5.05 -12.9L-5.45 -12.9L-7.2 -12.45Q-8.45 -11.9 -8.45 -10.9L-8.45 -10.85L-8.1 -9.8L-7.7 -9.4Q-7.3 -9.1 -6.8 -8.95L-5.75 -8.85L-5.3 -8.85Q-3.55 -8.9 -3 -9.8L-2.9 -9.75L-2.55 -9.45L-2.4 -9.3L-1.9 -8.95L-1.35 -8.95L-0.95 -8.15L-0.95 -8.1L-0.9 -7.85L-0.85 -7.7Q-0.4 -6.9 -0.4 -6.5Q-0.4 -6 -2.55 -5.3L-2.65 -5.3L-2.95 -5.25L-3.75 -4.95L-4.05 -4.9L-4.95 -4.7L-5.05 -4.7L-5.3 -4.7L-6.05 -4.9L-7.05 -6L-7.25 -6.5L-7.85 -6.25L-8.15 -6.25L-8.45 -6.25Q-9.05 -6.4 -9.5 -6.9Q-10 -7.7 -10 -8.85L-10 -9.4L-9.95 -9.9Q-9.75 -10.5 -9.15 -10.9M-2.95,-7.85L-2.55 -6.85Q-2.25 -6.3 -1.9 -6.3Q-1.35 -6.3 -1.35 -7.05Q-1.35 -8.55 -2.2 -8.55L-2.55 -8.45Q-2.95 -8.3 -2.95 -7.85M-6.3,3.75L-6.25 3.8L-6.2 4L-6 4.4L-6.15 4.2L-6.3 3.75M-18.35,5.9L-16 3.8L-15.65 3.45Q-13.9 4.95 -13.45 6.5Q-13 8.2 -13.85 10.65Q-14.15 11.5 -14.05 12.1L-14.3 12.15L-17.2 12.7Q-17.45 12.05 -17.2 11.2Q-16.45 8.5 -16.6 7.85Q-16.75 7.35 -18.35 5.9" />
<path style="fill:#F0D2C6;fill-opacity:1" d="M-2.9,-15.25L-2.6 -14.8L-2.5 -14.7L-2.45 -14.55L-2.55 -14.2L-2.9 -13.9Q-3.15 -13.6 -3.75 -13.6Q-4.4 -13.6 -4.95 -14.5L-5.1 -14.65L-5.45 -15.25Q-5.45 -16.25 -4 -15.85Q-3.25 -15.6 -2.9 -15.25M-13.65,-5.1L-13.55 -5L-12.65 -4.35L-13.2 -3.45L-13.3 -2.9L-12.25 -1.8L-11.9 -1.35L-10.35 0.55L-10.2 0.75Q-9.3 2.05 -9.3 2.55L-9.3 2.75L-9.95 3.15L-10.1 3.05L-11.75 0.75L-12.1 0.2L-12.15 0.15L-13.3 -1.05L-13.4 -1.15L-13.55 -1.35Q-14.55 -2.45 -14.55 -2.8L-14.4 -3.45L-13.85 -4.8L-13.65 -5.1M-2.55,-8.45L-2.2 -8.55Q-1.35 -8.55 -1.35 -7.05Q-1.35 -6.3 -1.9 -6.3Q-2.25 -6.3 -2.55 -6.85L-2.95 -7.85Q-2.95 -8.3 -2.55 -8.45" />
<path style="fill:#91857F;fill-opacity:1" d="M-2.9,-9.75L-3 -9.8Q-3.55 -8.9 -5.3 -8.85L-5.75 -8.85L-6.8 -8.95Q-7.3 -9.1 -7.7 -9.4L-8.1 -9.8L-8.45 -10.85L-8.45 -10.9Q-8.45 -11.9 -7.2 -12.45L-5.45 -12.9L-5.05 -12.9Q-3.75 -12.9 -3.3 -12.5L-2.95 -12.05L-2.7 -12.2L-2.55 -12.35L-2.3 -12.7L-1.5 -12.9Q-0.45 -12.9 -0.45 -10.9Q-0.45 -9.4 -1.3 -9L-1.35 -8.95L-1.9 -8.95L-2.4 -9.3L-2.55 -9.45L-2.9 -9.75M-1.2,-11.35L-1.05 -11.75Q-1.05 -12.45 -1.65 -12.45Q-2.3 -12.45 -2.3 -11.85Q-2.3 -11.1 -1.65 -11.1L-1.2 -11.35M-3.5,-11.2Q-3.5 -12 -4.1 -12.2Q-4.75 -12.3 -4.75 -11.5Q-4.75 -10.65 -4.1 -10.65L-3.65 -10.9L-3.5 -11.2" />
<path style="fill:#63CCEC;fill-opacity:1" d="M-12.55,-7.3L-12.55 -7.35Q-12.5 -8.2 -11.45 -7.95Q-10.4 -7.7 -10.4 -6.9L-10.5 -6.55L-10.65 -6.35L-11.1 -5.85L-11.25 -5.85Q-11.7 -5.85 -12.15 -6.55L-12.55 -7.3" />
<path style="fill:#B6B4B3;fill-opacity:1" d="M-1.65,-11.1Q-2.3 -11.1 -2.3 -11.85Q-2.3 -12.45 -1.65 -12.45Q-1.05 -12.45 -1.05 -11.75L-1.2 -11.35L-1.65 -11.1M-3.65,-10.9L-4.1 -10.65Q-4.75 -10.65 -4.75 -11.5Q-4.75 -12.3 -4.1 -12.2Q-3.5 -12 -3.5 -11.2L-3.65 -10.9" />
<path style="fill:#2A2918;fill-opacity:1" d="M23,11.4L22.1 12.7Q21.45 13.7 21 13.95L20.75 14L14.8 13.25L14.1 15.25L9.25 15.75L7.95 19.1L1.85 19.95L1.5 20.2L0.05 17.95L4.35 17.45L4 13.95L3.85 12.65L5.95 12.95L9.65 13.45L9.95 12.1L10.45 9.75L11.2 9.55L15.45 11.3L15.6 11.25L17.65 9.65L17.9 10.35L18.55 12.4L23 11.4" />
<path style="fill:none;stroke-width:1;stroke-linecap:butt;stroke-linejoin:miter;stroke-miterlimit:3;stroke:#465827;stroke-opacity:1" d="M28.9,3.3Q28.6 2.9 27.75 2.65L25.75 2.45L24.55 1.75L24.3 1.65L23.5 1.15L23 0.85Q20.9 -0.4 19.35 -0.8Q20.05 -0.3 20.05 0.2L20.05 0.25Q20.05 0.65 19.55 0.9L18.9 1.1L18.7 1.1L18.55 1.05L16.15 0.35L13.45 -0.45L10.45 -0.85L7.2 -0.75L4 -0.5L1.9 -0.05L-0.55 0.85L-1.25 1.15L-2.15 1.55L-2.9 2.2L-2.95 2.2L-4.5 3.65L-5.15 4.9L-5.7 5.75L-5.75 5.8L-5.75 5.85L-7.65 10.85L-4.95 10.3L0.3 9.25L7.9 7.7L15.2 6.15L21.4 4.65L22.85 4.15Q24.7 3.5 25.95 2.75M-8.4,-0.05Q-9 0.6 -9.5 0.7M-9,2.7Q-8.5 2.7 -7.5 3.25L-6.3 3.75L-6.25 3.75L-5.8 3.5L-3.05 2.05L-3.05 2L-2.15 1.55M-8.15,-0.1L-7.9 -0.25L-7.9 -0.3L-4.25 -2.3L-4.2 -2.3L-2.8 -2.85L-2 -3.1L-1.25 -3.25L6.25 -3.9L7.95 -3.7L9.2 -3.55L9.3 -3.5L15.35 -2.4Q18.2 -1.65 19.35 -0.85L19.35 -0.8M-5.8,3.5L-6.15 3.75L-6.25 3.75M-14.05,12.1L-11.3 11.65L-8.55 11.1L-7.75 10.9L-7.65 10.85M-11.25,3.35L-11.45 3.35L-12.6 2.9Q-13 2.5 -13 1.8L-12.9 1.15M-14.05,12.1L-14.3 12.15L-17.2 12.7L-17.4 12.7L-19.15 12.95L-19.85 13.05Q-21.4 13.45 -21.7 14.35M25.75,2.45L26.1 2.65L25.95 2.75M9.95,12.1L10.45 9.75L8.9 10.1L4.05 11.2L-2.8 12.6L-10.3 14.05L-14.1 14.65L-17.3 15.3L-18.2 15.5L-17.5 16.5L-16.85 17.6L-16.25 18.8L-15.25 21.35Q-14.75 22.35 -13.75 22.75L-10.55 23.2L-5.65 23.15L-0.65 22.8L2.7 22.15L1.5 20.2L0.05 17.95L4.35 17.45L4 13.95L3.85 12.65L5.95 12.95M-18.2,15.5L-20 15.75Q-21.75 15.75 -21.75 14.75L-21.7 14.35M28.9,3.3L29 3.65Q29 5.55 26.15 6.3L26.1 6.3L25.55 7.65L24.55 9.2L23.85 10.2L23 11.4L22.1 12.7Q21.45 13.7 21 13.95L20.75 14L14.8 13.25L14.1 15.25L9.25 15.75L7.95 19.1L1.85 19.95M11.2,9.55L10.5 9.3L10.45 9.75L11.2 9.55L15.9 8.35Q20.3 7.25 25.15 6.5L26.1 6.3M11.2,9.55L15.45 11.3M15.6,11.25L17.65 9.65L17.9 10.35L18.55 12.4L23 11.4M9.95,12.1L9.65 13.45L5.95 12.95" />
<path style="fill:none;stroke-width:1;stroke-linecap:butt;stroke-linejoin:miter;stroke-miterlimit:3;stroke:#0E576E;stroke-opacity:1" d="M-18.35,5.9L-19.2 6.55L-21.2 3.75Q-22.65 1.5 -22.35 0.9L-22.05 0.05L-22 -0.05L-21.8 -0.7L-21.05 -2.2L-20.7 -2.7L-20.45 -3.05L-20.05 -3.35L-19.9 -3.35L-18.15 -5.55L-16.7 -7.05L-16.45 -7.3L-13.25 -10.05L-13.2 -10.1L-12.3 -10.65L-11.45 -10.9L-9.95 -11.1L-9.35 -11.15L-8.95 -11.05M-8.45,-6.25L-10.5 -3.65L-12.1 -1.9M-14.4,-5.75Q-14.95 -6.35 -14.95 -6.8L-14.6 -7.25L-13.95 -7.7L-13.3 -8.15L-11.9 -8.6Q-10.1 -8.6 -9.95 -6.4L-9.95 -6.05Q-9.95 -5.45 -10.45 -4.7Q-10.95 -3.9 -11.5 -3.9L-12.1 -4.05M-14.4,-5.75L-13.65 -5.1L-13.55 -5L-12.65 -4.35L-12.1 -4.05M-19.9,-3.35Q-19.4 -3.3 -17.55 -2.25Q-15.45 -1 -15.45 -0.6L-15.45 -0.25L-14.65 -0.45M-18.35,5.9L-16 3.8L-15.65 3.45L-14.85 2.5L-15.25 1.85L-15.6 1.05L-15.45 -0.25" />
<path style="fill:none;stroke-width:1;stroke-linecap:butt;stroke-linejoin:miter;stroke-miterlimit:3;stroke:#854A34;stroke-opacity:1" d="M-12.1,-4.05L-12.55 -3.45L-12.9 -2.85L-12.1 -1.9L-11.5 -1.35L-10.95 -0.8L-9.5 0.7L-9.5 0.75Q-8.95 1.55 -8.95 2.2L-9 2.7M-8.9,-11.1L-8.95 -11.6L-8.95 -11.9L-9.1 -12.5Q-9.1 -13.8 -8.7 -14.65Q-7.95 -16.3 -5.75 -16.3L-3.3 -15.8L-2.9 -15.25L-2.6 -14.8L-2.5 -14.7L-1.6 -13.35M-1.35,-8.95L-0.95 -8.15L-0.95 -8.1L-0.9 -7.85L-0.85 -7.7Q-0.4 -6.9 -0.4 -6.5Q-0.4 -6 -2.55 -5.3L-2.65 -5.3L-2.95 -5.25L-3.75 -4.95L-4.05 -4.9L-4.95 -4.7L-5.05 -4.7L-5.3 -4.7L-6.05 -4.9L-7.05 -6L-7.25 -6.5L-7.85 -6.25L-8.15 -6.25L-8.45 -6.25Q-9.05 -6.4 -9.5 -6.9Q-10 -7.7 -10 -8.85L-10 -9.4L-9.95 -9.9Q-9.75 -10.5 -9.15 -10.9M-14.65,-0.45L-15.55 -1.05L-15.9 -1.35Q-16.4 -1.95 -16.4 -2.9L-16.3 -3.45Q-15.95 -4.3 -14.65 -5.55L-14.4 -5.75M-14.65,-0.45L-13.4 0.6L-13.25 0.75L-12.9 1.15L-11.95 2.5L-11.25 3.35L-10.55 3.75Q-9.9 3.75 -9.45 3.35L-9 2.7M-8.9,-11.1L-8.85 -11L-8.75 -11L-8.95 -11.9M-8.45,-10.85L-8.7 -10.95L-8.75 -11L-8.75 -10.95L-8.6 -9.85L-8.25 -8.85L-7.85 -7.8L-7.65 -7.1L-7.25 -6.5M-15.65,3.45Q-13.9 4.95 -13.45 6.5Q-13 8.2 -13.85 10.65Q-14.15 11.5 -14.05 12.1M-17.2,12.7Q-17.45 12.05 -17.2 11.2Q-16.45 8.5 -16.6 7.85Q-16.75 7.35 -18.35 5.9" />
<path style="fill:none;stroke-width:1;stroke-linecap:butt;stroke-linejoin:miter;stroke-miterlimit:3;stroke:#544741;stroke-opacity:1" d="M-2.7,-12.2L-2.55 -12.35L-2.3 -12.7L-1.5 -12.9Q-0.45 -12.9 -0.45 -10.9Q-0.45 -9.4 -1.3 -9L-1.35 -8.95L-1.9 -8.95L-2.4 -9.3L-2.55 -9.45L-2.9 -9.75M-5.45,-12.9L-7.2 -12.45Q-8.45 -11.9 -8.45 -10.9L-8.45 -10.85L-8.1 -9.8L-7.7 -9.4Q-7.3 -9.1 -6.8 -8.95L-5.75 -8.85L-5.3 -8.85L-5.85 -9.8L-6.05 -11L-6.05 -11.45L-5.95 -12L-5.45 -12.9L-5.05 -12.9Q-3.75 -12.9 -3.3 -12.5L-2.95 -12.05M-3,-9.8Q-2.7 -10.2 -2.7 -10.9L-2.95 -12.05M-3,-9.8Q-3.55 -8.9 -5.3 -8.85" />
</g>
</svg>
