<?xml version="1.0" encoding="utf-8"?>
<svg version="1.1" id="Layer_1"
xmlns="http://www.w3.org/2000/svg"
xmlns:xlink="http://www.w3.org/1999/xlink"
xmlns:author="http://www.sothink.com"
width="61px" height="40px"
xml:space="preserve">
<g id="144" transform="matrix(1, 0, 0, 1, 30.1, 19.7)">
<path style="fill:#8DAD4D;fill-opacity:1" d="M20.45,-14.85L21.35 -14.2Q21.95 -13.75 21.85 -12.45L21.5 -10.4L21.15 -9.65Q20.9 -9.75 20.75 -9.8L20.35 -9.9L20.4 -10.6L20.45 -12.5Q20.35 -13.5 18.5 -14L16.6 -14.3L14.9 -14.75L15.1 -15.6L17.6 -15.7L17.8 -15.7L19.45 -15.3L20.45 -14.85M25.9,6.65L25.45 8.2L23.8 14.4L22.5 13.85Q22.7 11 23.15 9.2L24.05 6.95L24.7 5.2L25.25 2.3Q25.35 -0.05 24.1 -1.05L22.15 -1.8L21.7 -2L18.05 -3.1L4.3 -7.35L4.1 -7.6L2.95 -7.9L3.3 -9.05L3.35 -9.2L3.35 -9.25L11 -7.4L12.05 -7.15L15.1 -6.2L21.15 -4.25L21.4 -4.2L22.35 -3.8L22.4 -3.85L22.45 -3.8L26.2 -2.6Q28.15 -1.5 27.55 0.4L27.4 0.9L28.25 1.15Q29.5 1.65 29.65 1.95L29.4 3.25L28.6 5.7L28.35 6.3L27.5 6.9L27.7 5.25Q28.1 2.8 27.1 2L26.95 2.7L25.9 6.65M2.35,4.8L2.7 4.75Q3.2 4.9 3.85 5.8Q4.45 6.7 5.4 6.95L7.55 6.9L9.55 6.6L9.55 6.7L7.9 11.45L7.85 12.75L2.05 11.15Q1.7 10.45 1.7 10L2.5 8.7L3.35 7.45L2.45 6.7L1.55 5.75L1.85 5.4L2.35 4.8M-13,13.65L-13.55 11.3L-14 8.4L-13.7 8.1Q-13.2 7.95 -12.15 8.45L-10.25 8.6L-8.45 7.4L-6.85 6.1L-5.25 6.3L-3.65 6.4L-2.2 5.9L-2.15 6.05L-0.7 11L-12.8 14.5L-13 13.65M-3.35,-7.4L-10.2 -5.05L-14.55 -3.4L-24.5 -0.7L-26.4 0.05L-28.4 0.3L-29.25 0.1Q-28.8 -1 -27.5 -1.55L-23.5 -2.65L-23.45 -2.7L-21.3 -3.4L-18.65 -4.2L-15.75 -4.95Q-14.35 -5.35 -12.95 -5.95L-11.55 -6.25L-10.4 -6.55L-6.45 -7.85L-3.7 -8.8L-3.6 -8.6L-3.55 -8.3L-3.3 -7.45L-3.35 -7.4M-17.45,-14.55L-17.4 -14.6L-16.1 -14.75Q-14.55 -14.65 -14.1 -11.6L-14 -11.2L-14.85 -10.95Q-16.05 -12.75 -16.65 -13.05L-18.6 -12.8L-21.55 -11.85L-22.8 -11.7L-22.8 -12.45Q-22.55 -13.35 -20.45 -13.95L-18.1 -14.5L-17.45 -14.55M2.15,-2.4Q2.05 -1.75 1.65 -1.65L1.25 -1.65L1.6 -2.9L1.65 -3.2L2.25 -3.45L2.15 -2.4M15.1,0.05Q14.95 0.75 15.75 1.2L15.75 1.25L17.4 1.8L18.35 1.9L18.9 1.6L18.9 2.65L18.3 3.45L18.15 3.5L17.25 3.25L15.35 2.5L14.75 2.05Q13.25 0.85 13.55 -0.3L13.55 -0.4L13.75 -0.8L14.35 -2.05Q14.9 -2.7 15.35 -2.75L15.4 -2.85L15.85 -2.75L16.1 -2.6L15.85 -2.25L15.8 -2L15.55 -1.45L15.6 -1.1L15.25 -0.3L15.1 0.05M10.3,-0.95L10.45 0.15Q10.35 0.55 9.2 0.45L7.45 0.2Q5.8 -0.25 5.3 -1.1Q5 -1.6 5.25 -2.7L5.3 -3.05L5.35 -3.35Q5.55 -4.15 6.1 -4.7Q6.3 -4.95 6.65 -5L6.75 -5.1L7.35 -5.1L7.2 -4.9L7.15 -4.7L7 -4.15L6.9 -3.8L6.55 -2.7L6.55 -2.65L6.45 -2.35Q6.5 -1.75 7.1 -1.45Q7.55 -1.2 8.8 -0.9L10.3 -0.95M-1.65,-1.15L-2.15 -1L-2.65 -0.85L-4.1 -0.7L-5 -0.75Q-6.7 -1 -7.15 -1.95L-7.2 -2L-7.2 -2.15Q-7.5 -3.1 -7.4 -4.05L-6.95 -5.15L-6.95 -5.2L-6.55 -5.4L-6.25 -5.45L-6.3 -5L-6.25 -4.8L-6.1 -4.2L-5.9 -3.85L-5.7 -2.7L-5.6 -2.45Q-5.3 -2 -4.6 -2L-4.45 -1.95L-3.05 -2.25L-2.85 -2.3L-1.95 -2.8L-1.9 -2.6L-1.5 -1.25L-1.65 -1.15" />
<path style="fill:#666666;fill-opacity:1" d="M18.45,-17.45L18 -16.15L13.7 -17.35L8.3 -14.85L7.6 -16.35L12.7 -18.8L13.45 -17.9L13.45 -19.2L18.6 -17.8L18.45 -17.45M21.15,-16.45L21.1 -17.1L26.55 -15.55L26.55 -13.8L20.65 -15.45L21.15 -16.45M-20.95,-15.6L-20.8 -15L-25.55 -13.6L-25.55 -15.35L-21.25 -16.6L-20.95 -15.6M-18.1,-17.15L-18.25 -17.5L-16.3 -18.05L-16.3 -17.1L-15.8 -17.9L-7.8 -15.55L-8.3 -13.95L-16.3 -16.3L-17.75 -15.9L-18.1 -17.15" />
<path style="fill:#627E29;fill-opacity:1" d="M20.65,-15.45L20.45 -14.85L19.45 -15.3L17.8 -15.7L18 -16.15L18.45 -17.45L18.6 -17.8Q18.9 -18.2 19.3 -18.05Q20.7 -17.7 21.1 -17.1L21.15 -16.45L20.65 -15.45M26.95,2.7L27.1 2Q28.1 2.8 27.7 5.25L27.5 6.9L27.2 6.9L25.9 6.65L26.95 2.7M22.3,13.65L19.8 12.25L17.5 12.6L15.75 12.85L14.2 12.6L12.75 12.1Q10.9 11.35 10.55 10.15Q10.35 9.3 10.9 7.75L11.05 7.1Q11.8 5 11.4 4Q10.7 2.4 7.2 1.45L3.5 0.45L0.9 -0.35L1.25 -1.65L1.65 -1.65Q2.05 -1.75 2.15 -2.4L2.25 -3.45L2.3 -3.5L2.4 -3.6L2.55 -3.75L2.65 -3.9L3.35 -5.9Q3.45 -6.35 2.7 -6.85L2.75 -7.1L2.95 -7.9L4.1 -7.6L4.3 -7.35L18.05 -3.1L21.7 -2L22.15 -1.8L24.1 -1.05Q25.35 -0.05 25.25 2.3L24.7 5.2L24.05 6.95L23.15 9.2Q22.7 11 22.5 13.85L23.8 14.4L23.35 16L22.65 17.2L22.55 14.7L22.5 13.85L22.3 13.65M-21.95,9.4Q-20.3 8.8 -20.1 8.1Q-19.95 7.75 -20.1 6.85L-20.6 4.8L-21.3 2.55L-21.5 2.05L-24.05 2.1L-27.9 3.55L-27.95 3.55L-28.4 3.75Q-29.1 3.95 -29.35 3Q-29.9 1.25 -29.25 0.1L-28.4 0.3L-26.4 0.05L-24.5 -0.7L-14.55 -3.4L-10.2 -5.05L-3.35 -7.4L-3.3 -7.45L-3.15 -6.9L-3 -6.45L-3 -6.4L-5.9 -5.95L-6.25 -5.45L-6.55 -5.4L-6.95 -5.2L-6.95 -5.15L-7.4 -4.05Q-7.5 -3.1 -7.2 -2.15L-7.2 -2L-7.15 -1.95Q-6.7 -1 -5 -0.75L-4.1 -0.7L-2.65 -0.85L-2.15 -1L-1.65 -1.15L-1.5 -1.25L-1.1 0.05L-1.2 0.1L-2.3 0.35L-2.65 0.45L-3.65 0.8Q-4.55 1.1 -5.9 1.75L-8.7 3L-10.7 3.5L-11.5 3.65Q-13.6 4.3 -15.05 5.5Q-15.9 6.25 -16.25 8.05L-16.4 9.5L-16.35 10.85L-16.05 13.8Q-16.05 14.7 -16.5 15.2L-17 15.45L-17.85 15.8L-20.05 16L-20.25 16.1L-22.9 15.9L-24.75 16L-26.55 15.65L-27.55 15L-28.55 11.7L-28.55 10.95L-27.6 10.55L-27.55 10.5L-25.4 10.2L-23.2 9.85L-21.95 9.4M-22.3,-8.65L-22.5 -9.15L-22.8 -11.7L-21.55 -11.85L-18.6 -12.8L-16.65 -13.05Q-16.05 -12.75 -14.85 -10.95L-22.3 -8.65M-18.1,-14.5L-20.45 -13.95L-20.8 -15L-20.95 -15.6L-21.25 -16.6L-21.15 -17.25Q-20.95 -17.6 -20 -17.9Q-18.75 -18.25 -18.25 -17.5L-18.1 -17.15L-17.75 -15.9L-17.5 -14.8L-17.45 -14.55L-18.1 -14.5M13.85,-11.8L14.9 -14.75L16.6 -14.3L18.5 -14Q20.35 -13.5 20.45 -12.5L20.4 -10.6L20.35 -9.9L14.9 -11.55L13.85 -11.8M19.35,-17.35L19.15 -17.05L19.05 -16.65Q19.05 -16.2 19.7 -16.05Q20.4 -15.85 20.65 -16.65L20.4 -17.3L20.3 -17.35L19.5 -17.55L19.35 -17.35M18.9,1.6L19.1 1.5L19.2 1.3L19.55 0.75L20 -0.75Q20.35 -1.85 16.7 -2.85L16.1 -2.6L15.85 -2.75L15.4 -2.85L15.35 -2.75Q14.9 -2.7 14.35 -2.05L13.75 -0.8L13.55 -0.4L13.55 -0.3Q13.25 0.85 14.75 2.05L15.35 2.5L17.25 3.25L18.15 3.5L18.3 3.45L18.9 2.65L18.9 1.6M11.45,-3.35Q11.75 -4.55 8.1 -5.55L7.35 -5.1L6.75 -5.1L6.65 -5Q6.3 -4.95 6.1 -4.7Q5.55 -4.15 5.35 -3.35L5.3 -3.05L5.25 -2.7Q5 -1.6 5.3 -1.1Q5.8 -0.25 7.45 0.2L9.2 0.45Q10.35 0.55 10.45 0.15L10.3 -0.95L10.5 -1.25L10.55 -1.2L10.6 -1.35L10.85 -1.7L11.45 -3.35M-19.5,-17.25L-20 -16.95Q-20.2 -16.7 -20.05 -16.3Q-19.6 -15.55 -19.15 -15.5L-18.75 -15.5L-18.45 -15.7Q-18.25 -15.95 -18.4 -16.5Q-18.6 -17.15 -19.1 -17.2L-19.5 -17.25" />
<path style="fill:#C8E09A;fill-opacity:1" d="M19.5,-17.55L20.3 -17.35L20.4 -17.3L20.65 -16.65Q20.4 -15.85 19.7 -16.05Q19.05 -16.2 19.05 -16.65L19.15 -17.05L19.35 -17.35L19.5 -17.55M-19.1,-17.2Q-18.6 -17.15 -18.4 -16.5Q-18.25 -15.95 -18.45 -15.7L-18.75 -15.5L-19.15 -15.5Q-19.6 -15.55 -20.05 -16.3Q-20.2 -16.7 -20 -16.95L-19.5 -17.25L-19.1 -17.2" />
<path style="fill:#C5E289;fill-opacity:1" d="M14.9,-11.55L20.35 -9.9L20.75 -9.8Q20.9 -9.75 21.15 -9.65Q22.65 -9.1 22.9 -7.85Q23.1 -6.95 22.7 -5.3L22.45 -4.15L22.4 -4L22.4 -3.85L22.35 -3.8L21.4 -4.2L21.15 -4.25L21 -5.8L20.95 -5.9Q20.65 -7.25 19.55 -8.15L17.85 -8.9L15.85 -9.45L15.85 -9.6Q15.8 -9.5 15.6 -9.5L15.75 -9.45Q14.75 -9.45 5.25 -12.55L4.7 -12.7L4.3 -12.8L4.5 -13.4L4.65 -13.8L4.75 -14.15L5.5 -14L5.65 -13.95L13.85 -11.8L14.9 -11.55M-14.85,-10.95L-14 -11.2L-11.55 -11.8L-9.95 -12.25L-8.15 -11.2L-20.25 -7.45L-20.25 -7.4L-23.35 -6.55L-24.05 -6.3Q-24.2 -8.05 -23 -8.45L-22.3 -8.65L-14.85 -10.95" />
<path style="fill:#A3C265;fill-opacity:1" d="M-23.5,-2.65L-24 -5.95L-24.05 -6.15L-24.05 -6.3L-23.35 -6.55L-20.25 -7.4L-20.25 -7.45L-8.15 -11.2L-7.5 -10.9Q-7.5 -10.5 -7.75 -10.2L-8.4 -9.4L-6.45 -7.85L-10.4 -6.55L-11.55 -6.25L-12.95 -5.95Q-14.35 -5.35 -15.75 -4.95L-18.65 -4.2L-21.3 -3.4L-23.45 -2.7L-23.5 -2.65M15.1,-6.2L12.05 -7.15L11 -7.4L3.35 -9.25L3.7 -10.55L4.3 -12.8L4.7 -12.7L5.25 -12.55Q14.75 -9.45 15.75 -9.45L15.6 -9.5Q15.8 -9.5 15.85 -9.6L15.85 -9.45L17.85 -8.9L19.55 -8.15Q20.65 -7.25 20.95 -5.9L21 -5.8L21.15 -4.25L15.1 -6.2" />
<path style="fill:#27330F;fill-opacity:1" d="M-2.2,5.9L-3.1 2.75L-1.7 2.3L-0.55 1.95L-0.7 1.45L-0.85 0.95L-1.1 0.05L-1.5 -1.25L-1.9 -2.6L-1.95 -2.8L-2.85 -2.3L-3.05 -2.25L-4.45 -1.95L-4.6 -2Q-5.3 -2 -5.6 -2.45L-5.7 -2.7L-5.9 -3.85L-6.1 -4.2L-6.25 -4.8L-6.3 -5L-6.25 -5.45L-5.9 -5.95L-3 -6.4L-1.45 -5.05Q0.1 -8.1 0.65 -8.1L2.5 -7.15L2.75 -7.1L2.7 -6.85Q3.45 -6.35 3.35 -5.9L2.65 -3.9L2.55 -3.75L2.4 -3.6L1.9 -4L1.65 -3.2L1.6 -2.9Q1.3 -2.3 0.35 1L0.45 1.2L0.5 1.3L0.4 1.55L0.9 1.7L1.7 2.3Q3.05 3.2 3.05 3.75L2.35 4.8L1.85 5.4L0.8 4.75Q0 4.15 -0.55 4.15Q-1.1 4.15 -1.55 4.9L-2.15 6.05L-2.2 5.9" />
<path style="fill:#333333;fill-opacity:1" d="M-23.2,9.85L-25.4 10.2L-27.55 10.5L-28 7.05L-28 6.65L-27.6 6.9Q-26.15 7.7 -25.15 7.5L-20.3 6.95L-20.1 6.85Q-19.95 7.75 -20.1 8.1Q-20.3 8.8 -21.95 9.4L-23.2 9.85M1.9,-4L2.4 -3.6L2.3 -3.5L2.25 -3.45L1.65 -3.2L1.9 -4M10.5,-1.25L10.3 -0.95L8.8 -0.9Q7.55 -1.2 7.1 -1.45Q6.5 -1.75 6.45 -2.35L6.55 -2.65L6.55 -2.7L6.9 -3.8L7 -4.15L7.15 -4.7L8.85 -3L10.5 -1.25M15.25,-0.3L15.6 -1.1L15.55 -1.45L15.8 -2Q16.5 -0.75 17.85 0.45L19.1 1.5L18.9 1.6L18.35 1.9L17.4 1.8L15.75 1.25L15.75 1.2Q14.95 0.75 15.1 0.05L15.25 -0.3" />
<path style="fill:#232222;fill-opacity:1" d="M-28,6.65Q-28.15 4.65 -27.95 3.55L-27.9 3.55L-24.05 2.1L-21.5 2.05L-21.3 2.55L-20.6 4.8L-20.1 6.85L-20.3 6.95L-25.15 7.5Q-26.15 7.7 -27.6 6.9L-28 6.65M8.85,-3L7.15 -4.7L7.2 -4.9L7.35 -5.1L8.1 -5.55Q11.75 -4.55 11.45 -3.35L10.85 -1.7L10.6 -1.35L10.55 -1.2L10.5 -1.25L8.85 -3M9.95,-2.9Q10.2 -2.85 10.5 -3.15Q10.65 -3.5 10.3 -3.55Q9.85 -3.7 9.7 -3.35Q9.6 -3 9.95 -2.9M15.8,-2L15.85 -2.25L16.1 -2.6L16.7 -2.85Q20.35 -1.85 20 -0.75L19.55 0.75L19.2 1.3L19.1 1.5L17.85 0.45Q16.5 -0.75 15.8 -2M18.3,-0.85Q18.2 -0.55 18.55 -0.45Q19 -0.3 19.05 -0.6Q19.2 -0.95 18.75 -1.1Q18.4 -1.2 18.3 -0.85M-22.85,4.05L-22.65 3.5Q-22.7 3.15 -23.55 3.2Q-24.45 3.3 -24.3 3.95Q-23.9 4.65 -23.5 4.55L-22.85 4.05" />
<path style="fill:#ADADAD;fill-opacity:1" d="M9.7,-3.35Q9.85 -3.7 10.3 -3.55Q10.65 -3.5 10.5 -3.15Q10.2 -2.85 9.95 -2.9Q9.6 -3 9.7 -3.35M18.75,-1.1Q19.2 -0.95 19.05 -0.6Q19 -0.3 18.55 -0.45Q18.2 -0.55 18.3 -0.85Q18.4 -1.2 18.75 -1.1M-23.5,4.55Q-23.9 4.65 -24.3 3.95Q-24.45 3.3 -23.55 3.2Q-22.7 3.15 -22.65 3.5L-22.85 4.05L-23.5 4.55" />
<path style="fill:#4E6420;fill-opacity:1" d="M0.4,1.55L0.5 1.3L0.9 -0.35L3.5 0.45L7.2 1.45Q10.7 2.4 11.4 4Q11.8 5 11.05 7.1L10.9 7.75Q10.35 9.3 10.55 10.15Q10.9 11.35 12.75 12.1L14.2 12.6L15.75 12.85L17.5 12.6L19.8 12.25L22.3 13.65L22.5 13.85L22.55 14.7L22.65 17.2L19.95 17.15L14.95 15.9L9.6 14.55Q8 14.2 7.85 12.75L7.9 11.45L9.55 6.7L9.55 6.6Q9.7 5.15 8.9 4.55Q8.05 3.9 7 3.5L2.35 2.1L0.9 1.7L0.4 1.55M-20.05,16L-17.85 15.8L-17 15.45L-16.5 15.2Q-16.05 14.7 -16.05 13.8L-16.35 10.85L-16.4 9.5L-16.25 8.05Q-15.9 6.25 -15.05 5.5Q-13.6 4.3 -11.5 3.65L-10.7 3.5L-8.7 3L-5.9 1.75Q-4.55 1.1 -3.65 0.8L-2.65 0.45L-2.3 0.35L-1.2 0.1L-1.1 0.05L-0.85 0.95L-0.7 1.45L-0.55 1.95L-1.7 2.3L-3.1 2.75L-10.25 4.5L-10.3 4.55L-10.75 4.75Q-13.2 5.45 -13.75 6.6Q-14.05 7.2 -14 8.4L-13.55 11.3L-13 13.65L-12.8 14.5L-12.5 16Q-12.6 16.5 -15.55 17.35L-19.45 18.4L-22.2 18.9L-25.6 19.15Q-26.55 18.9 -27.15 16.8L-27.55 15L-26.55 15.65L-24.75 16L-22.9 15.9L-20.25 16.1L-20.05 16" />
<path style="fill:#688334;fill-opacity:1" d="M7.55,6.9L5.4 6.95Q4.45 6.7 3.85 5.8Q3.2 4.9 2.7 4.75L2.35 4.8L3.05 3.75Q3.05 3.2 1.7 2.3L0.9 1.7L2.35 2.1L7 3.5Q8.05 3.9 8.9 4.55Q9.7 5.15 9.55 6.6L7.55 6.9M-13.75,6.6Q-13.2 5.45 -10.75 4.75L-10.3 4.55L-10.25 4.5L-3.1 2.75L-2.2 5.9L-3.65 6.4L-5.25 6.3L-6.85 6.1L-8.45 7.4L-10.25 8.6L-12.15 8.45Q-13.2 7.95 -13.7 8.1L-14 8.4Q-14.05 7.2 -13.75 6.6" />
<path style="fill:none;stroke-width:1;stroke-linecap:butt;stroke-linejoin:miter;stroke-miterlimit:3;stroke:#37461B;stroke-opacity:1" d="M4.75,-14.15L5.5 -14L5.65 -13.95L13.85 -11.8L14.9 -14.75L15.1 -15.6L17.6 -15.7L17.8 -15.7L18 -16.15L18.45 -17.45L18.6 -17.8Q18.9 -18.2 19.3 -18.05Q20.7 -17.7 21.1 -17.1L21.15 -16.45L20.65 -15.45L20.45 -14.85L21.35 -14.2Q21.95 -13.75 21.85 -12.45L21.5 -10.4M20.35,-9.9L20.75 -9.8Q20.9 -9.75 21.15 -9.65Q22.65 -9.1 22.9 -7.85Q23.1 -6.95 22.7 -5.3L22.45 -4.15L22.4 -4M3.35,-9.25L11 -7.4L12.05 -7.15L15.1 -6.2L21.15 -4.25L21.4 -4.2L22.35 -3.8L22.4 -3.85L22.45 -3.8L26.2 -2.6Q28.15 -1.5 27.55 0.4L27.4 0.9L28.25 1.15Q29.5 1.65 29.65 1.95L29.4 3.25L28.6 5.7L28.35 6.3L27.5 6.9L27.2 6.9L25.9 6.65L25.45 8.2L23.8 14.4L23.35 16L22.65 17.2L19.95 17.15L14.95 15.9L9.6 14.55Q8 14.2 7.85 12.75L2.05 11.15Q1.7 10.45 1.7 10L2.5 8.7L3.35 7.45L2.45 6.7L1.55 5.75L1.85 5.4L0.8 4.75Q0 4.15 -0.55 4.15Q-1.1 4.15 -1.55 4.9L-2.15 6.05L-0.7 11L-12.8 14.5L-12.5 16Q-12.6 16.5 -15.55 17.35L-19.45 18.4L-22.2 18.9L-25.6 19.15Q-26.55 18.9 -27.15 16.8L-27.55 15L-28.55 11.7L-28.55 10.95L-27.6 10.55L-27.55 10.5L-28 7.05L-28 6.65Q-28.15 4.65 -27.95 3.55L-28.4 3.75Q-29.1 3.95 -29.35 3Q-29.9 1.25 -29.25 0.1Q-28.8 -1 -27.5 -1.55L-23.5 -2.65L-24 -5.95L-24.05 -6.15L-24.05 -6.3Q-24.2 -8.05 -23 -8.45L-22.3 -8.65L-14.85 -10.95L-14 -11.2L-11.55 -11.8L-9.95 -12.25L-8.15 -11.2L-7.5 -10.9Q-7.5 -10.5 -7.75 -10.2L-8.4 -9.4L-6.45 -7.85L-3.7 -8.8M-22.5,-9.15L-22.8 -11.7L-22.8 -12.45Q-22.55 -13.35 -20.45 -13.95L-20.8 -15L-20.95 -15.6L-21.25 -16.6L-21.15 -17.25Q-20.95 -17.6 -20 -17.9Q-18.75 -18.25 -18.25 -17.5L-18.1 -17.15L-17.75 -15.9L-17.5 -14.8M-20.45,-13.95L-18.1 -14.5L-17.45 -14.55L-17.4 -14.6L-16.1 -14.75Q-14.55 -14.65 -14.1 -11.6M-3.6,-8.6L-3.55 -8.3M-3.35,-7.4L-3.15 -6.9L-3 -6.45M-3,-6.4L-1.45 -5.05Q0.1 -8.1 0.65 -8.1L2.5 -7.15L2.9 -8.05L3.3 -9.05M3.35,-9.2L3.35 -9.25L3.2 -9.8Q3.2 -10.4 3.7 -10.55M4.7,-12.7L4.5 -13.4L4.65 -13.8M17.8,-15.7L19.45 -15.3L20.45 -14.85M4.7,-12.7L5.3 -10.65L3.75 -10.6L3.7 -10.55M25.9,6.65L26.95 2.7L27.1 2L27.4 0.9M2.25,-3.45L2.3 -3.5L2.4 -3.6L2.55 -3.75L2.65 -3.9L3.35 -5.9Q3.45 -6.35 2.7 -6.85M2.25,-3.45L1.65 -3.2M6.55,-2.7L6.9 -3.8L7 -4.15L7.15 -4.7L7.2 -4.9L7.35 -5.1L8.1 -5.55Q11.75 -4.55 11.45 -3.35L10.85 -1.7L10.6 -1.35L10.55 -1.2L10.5 -1.25L10.3 -0.95M6.55,-2.7L6.55 -2.65L6.45 -2.35Q6.5 -1.75 7.1 -1.45Q7.55 -1.2 8.8 -0.9L10.3 -0.95M20.35,-9.9L14.9 -11.55L13.85 -11.8M18.9,1.6L18.35 1.9L17.4 1.8L15.75 1.25L15.75 1.2Q14.95 0.75 15.1 0.05L15.25 -0.3L15.6 -1.1L15.55 -1.45L15.8 -2L15.85 -2.25L16.1 -2.6L16.7 -2.85Q20.35 -1.85 20 -0.75L19.55 0.75M18.9,1.6L19.1 1.5L19.2 1.3L19.55 0.75M9.55,6.6Q9.7 5.15 8.9 4.55Q8.05 3.9 7 3.5L2.35 2.1L0.9 1.7L1.7 2.3Q3.05 3.2 3.05 3.75L2.35 4.8L1.85 5.4M9.55,6.6L9.55 6.7L7.9 11.45L7.85 12.75M1.6,-2.9Q1.3 -2.3 0.35 1L0.45 1.2L0.5 1.3L0.9 1.7L0.4 1.55M-6.45,-7.85L-10.4 -6.55L-11.55 -6.25L-12.95 -5.95Q-14.35 -5.35 -15.75 -4.95L-18.65 -4.2L-21.3 -3.4L-23.45 -2.7L-23.5 -2.65M-3.35,-7.4L-3.55 -8.3M-3,-6.4L-5.9 -5.95L-6.25 -5.45L-6.3 -5L-6.25 -4.8L-6.1 -4.2L-5.9 -3.85L-5.7 -2.7L-5.6 -2.45Q-5.3 -2 -4.6 -2L-4.45 -1.95L-3.05 -2.25L-2.85 -2.3L-1.95 -2.8M-1.2,0.1L-0.85 0.95L-0.7 1.45L-0.7 1.3L0.45 1.2M-1.2,0.1L-1.65 -1.15L-1.9 -1.7L-1.9 -2.6M-0.7,1.45L-0.55 1.95L-1.7 2.3L-3.1 2.75L-2.2 5.9L-2.15 6.05M-10.3,4.55L-10.25 4.5L-3.1 2.75M-10.3,4.55L-10.75 4.75Q-13.2 5.45 -13.75 6.6Q-14.05 7.2 -14 8.4L-13.55 11.3L-13 13.65L-12.8 14.5M-20.1,6.85Q-19.95 7.75 -20.1 8.1Q-20.3 8.8 -21.95 9.4M-20.1,6.85L-20.6 4.8L-21.3 2.55L-21.5 2.05L-24.05 2.1L-27.9 3.55L-27.95 3.55M-27.55,10.5L-25.4 10.2L-23.2 9.85L-21.95 9.4" />
<path style="fill:none;stroke-width:1;stroke-linecap:butt;stroke-linejoin:miter;stroke-miterlimit:3;stroke:#333333;stroke-opacity:1" d="M18,-16.15L13.7 -17.35L8.3 -14.85L7.6 -16.35L12.7 -18.8M13.45,-19.2L18.6 -17.8M21.1,-17.1L26.55 -15.55M26.55,-13.8L20.65 -15.45M-20.8,-15L-25.55 -13.6M-25.55,-15.35L-21.25 -16.6M-18.25,-17.5L-16.3 -18.05M-15.8,-17.9L-7.8 -15.55L-8.3 -13.95L-16.3 -16.3L-17.75 -15.9" />
<path style="fill:none;stroke-width:0.1;stroke-linecap:butt;stroke-linejoin:miter;stroke-miterlimit:3;stroke:#4D6227;stroke-opacity:1" d="M19.55,0.75L25.25 2.3L26.95 2.7M15.75,12.85L18.15 3.5M13.75,-0.8L10.85 -1.7M5.3,-3.05L2.65 -3.9M5.3,-3.05L6.55 -2.7M13.75,-0.8L15.25 -0.3M18.35,1.9L18.15 3.5M15.75,12.85L14.95 15.9M-21.3,2.55L-11.85 -0.45L-7.15 -1.95L-6.15 -2.3M-10.7,3.5L-10.3 4.55M-10.7,3.5L-11.85 -0.45M-21.95,9.4L-20.05 16L-19.45 18.4" />
</g>
</svg>
