<?xml version="1.0" encoding="utf-8"?>
<svg version="1.1" id="Layer_1"
xmlns="http://www.w3.org/2000/svg"
xmlns:xlink="http://www.w3.org/1999/xlink"
xmlns:author="http://www.sothink.com"
width="70px" height="69px"
xml:space="preserve">
<g id="20" transform="matrix(1, 0, 0, 1, 34.15, 38.2)">
<path style="fill:#232222;fill-opacity:1" d="M17.7,-27.7L17.75 -26.15Q17.7 -25.45 17.05 -24.2Q16.75 -23.6 13.95 -22.5Q11.3 -21.4 10.45 -21.4Q9.7 -21.4 9.15 -22.65L8.05 -25.3Q6.2 -29.25 1.35 -29.25Q-3 -29.25 -5.4 -25.9L-6.95 -22.4Q-7.6 -21.4 -9.1 -21.55Q-10.5 -21.65 -10.9 -20.75L-11.7 -18.9Q-11.85 -17.75 -12.3 -17Q-13.15 -15.5 -15.2 -15.5Q-18.6 -15.5 -19.55 -17.85Q-20.05 -19.05 -19.9 -20.25Q-19.9 -22.2 -19.5 -23.35Q-18.95 -25.15 -17.25 -26.1Q-14.9 -27.55 -14.4 -28.95Q-14.05 -29.75 -13.75 -31.6Q-11.35 -38.1 -2.45 -38.2Q4.8 -38.2 8.9 -35.4Q14.8 -34.75 16.75 -31.9Q17.7 -30.5 17.7 -27.7M35.7,-5.1Q35.7 -3.4 34.8 -2.15Q33.15 0.15 29.1 0.15Q27.15 0.15 26.95 -1.8Q26.9 -2.8 27.2 -3.8Q27.2 -6.05 25.05 -8.3Q22.9 -10.45 22.9 -10.7Q22.9 -11.25 23.15 -11.45L25.75 -11.75Q31.05 -12.9 33.85 -9.5Q35.7 -7.25 35.7 -5.1M27.2,4.15Q28.25 5.4 28.1 7.9L27.7 12Q27.7 14.15 26.95 15.95Q25.55 19.4 22.05 19.4Q18.05 19.4 15.75 16L14.15 12.55Q14.15 11.45 14.55 11.05Q15.35 10.25 17.75 10.25Q23.85 10.25 24.95 5.95L25.5 3.7Q25.9 3.05 27.2 4.15M4.25,17.1L5 19.2L4.55 20.65L3.85 22.3Q3.15 23.3 1.3 23.7Q-0.7 24.1 -1.3 24.8L-1.9 27.8Q-2.95 30.3 -6.65 30.3Q-12.3 30.3 -15.35 24.6Q-16.85 21.7 -17.25 18.75L-17.4 15.45Q-17.2 13.5 -15.15 12.55Q-13.6 11.9 -11.35 11.8Q-7.85 11.7 -6.85 13.75L-6.2 15.35Q-5.25 16.6 -3 16.6Q-1.45 16.6 -0.2 15.9Q1.1 15.15 1.4 15.15Q3.1 15.15 4.25 17.1M-23.35,-5.75Q-22.4 -5.3 -22.4 -4.75Q-22.4 -4.25 -23.8 -2.7Q-25.2 -1.15 -25.2 -0.25Q-25.2 2.25 -22.15 2.4L-20.05 2.55Q-19.05 2.8 -19.05 3.75Q-19.05 4.6 -19.5 5.55Q-20 6.65 -20.1 7.4L-19.95 8.3Q-19.85 8.95 -20.1 9.3Q-20.9 10.55 -25.7 10.55Q-29.95 10.55 -32.2 7.75Q-34.15 5.35 -34.15 1.95Q-34.15 -0.1 -33.1 -2.4Q-31.45 -6.35 -27.7 -6.35L-23.35 -5.75M-3.9,8.6Q-3.9 9.75 -4.8 9.75Q-5.95 9.75 -5.75 8.65Q-5.75 7.5 -4.8 7.5Q-3.9 7.5 -3.9 8.6M-9.5,0.95Q-9.85 1.35 -10.85 1.35Q-12.95 1.35 -13.45 0.75Q-13.7 0.45 -13.55 0.1Q-13.55 -1.2 -11.4 -1.25Q-9.3 -1.3 -9.3 0L-9.5 0.95" />
</g>
</svg>
