<?xml version="1.0" encoding="utf-8"?>
<svg version="1.1" id="Layer_1"
xmlns="http://www.w3.org/2000/svg"
xmlns:xlink="http://www.w3.org/1999/xlink"
xmlns:author="http://www.sothink.com"
width="72px" height="64px"
xml:space="preserve">
<g id="158" transform="matrix(1, 0, 0, 1, 31.2, 59)">
<path style="fill:#CD6464;fill-opacity:1" d="M-16.3,-32.45Q-17.15 -32.45 -17.5 -33.7L-17.7 -34.85Q-17.7 -36.55 -16.45 -35.95Q-15.2 -35.3 -15.2 -33.95Q-15.2 -32.45 -16.3 -32.45" />
<path style="fill:#D4922E;fill-opacity:1" d="M-15.2,-33.95Q-15.2 -35.3 -16.45 -35.95Q-17.7 -36.55 -17.7 -34.85L-17.5 -33.7Q-17.15 -32.45 -16.3 -32.45Q-15.2 -32.45 -15.2 -33.95M-11.75,-35.75L-11.85 -35.35Q-10.1 -33.45 -9.35 -33.45L-7.15 -33.7Q-6.15 -33.95 -6.15 -34.3Q-6.15 -34.95 -8.1 -35.45L-11.1 -35.85L-11.75 -35.75M-6.1,-29.8L-30.4 -32.2L-29.5 -39.45L-5.3 -35.65L-6.1 -29.8M-23.85,-38.1L-25.9 -38.4L-27.25 -38.4Q-27.45 -38.4 -27.55 -38.55L-27.9 -38.7Q-29 -38.7 -29.3 -38.3Q-29.2 -37.6 -28 -36.9Q-26.95 -36.3 -26.4 -36.3L-25.1 -36.6L-23.45 -36.3L-22 -36L-21.1 -36.2L-21 -36.85Q-21 -37.75 -21.9 -37.85L-23.85 -38.1" />
<path style="fill:#E7B66C;fill-opacity:1" d="M-11.1,-35.85L-8.1 -35.45Q-6.15 -34.95 -6.15 -34.3Q-6.15 -33.95 -7.15 -33.7L-9.35 -33.45Q-10.1 -33.45 -11.85 -35.35L-11.75 -35.75L-11.1 -35.85M-21.9,-37.85Q-21 -37.75 -21 -36.85L-21.1 -36.2L-22 -36L-23.45 -36.3L-25.1 -36.6L-26.4 -36.3Q-26.95 -36.3 -28 -36.9Q-29.2 -37.6 -29.3 -38.3Q-29 -38.7 -27.9 -38.7L-27.55 -38.55Q-27.45 -38.4 -27.25 -38.4L-25.9 -38.4L-23.85 -38.1L-21.9 -37.85" />
<path style="fill:none;stroke-width:1;stroke-linecap:butt;stroke-linejoin:miter;stroke-miterlimit:3;stroke:#6B3510;stroke-opacity:1" d="M-5.3,-35.65L-29.5 -39.45L-30.4 -32.2L-6.1 -29.8L-5.3 -35.65z" />
<path style="fill:#FF6600;fill-opacity:1" d="M39.3,-38.8L40.05 -39.05L40 -36.15Q39.4 -37.85 39.3 -38.8M28.55,-36.8L28.55 -36.85L28.75 -36.8L28.55 -36.8" />
<path style="fill:#F3B9B9;fill-opacity:1" d="M-28.95,-0.15L-28.95 -0.4L-28.8 -3.2Q3 -2.5 32.5 -17.3L31.85 -15.45L31.25 -13.85Q13.7 -1.05 -28.95 -0.15" />
<path style="fill:#8A3131;fill-opacity:1" d="M31.25,-13.85L29.6 -10.4L26.7 -6.35Q24.85 -3.9 23 -2.8Q21.15 -1.75 17.95 -0.35Q14.8 0.95 6.2 2.65Q-0.45 3.95 -10.4 3.95L-17.55 3.9L-24.45 2.95L-27.6 2.4Q-29.15 1.8 -28.95 -0.15Q13.7 -1.05 31.25 -13.85" />
<path style="fill:#E07D7D;fill-opacity:1" d="M27.95,-49.7L27.85 -49.75L28.2 -50.75L27.95 -49.7" />
<path style="fill:#E0A348;fill-opacity:1" d="M-28.8,-3.2L-28.85 -4.65L-28.95 -7.35Q-28.15 -7.05 -27.9 -7.05L-23.05 -7.15L-19.1 -7.95L-12.7 -8.75L-9.9 -8.5L-8.45 -8.65L-7.5 -8.9Q-6.25 -8.9 -1.7 -10.9Q-0.05 -11.55 0.9 -12.65L2.5 -14.95L2.55 -15.05Q3.45 -16.25 4 -19.35L4.2 -21.1Q4.45 -23.8 6.55 -24.15L6.5 -23.75L6.5 -21.65Q6.7 -20.85 7.8 -20.85Q9.7 -20.85 10.25 -22.45L10.5 -23.9L11.95 -23.8L13.45 -24L13.4 -23.9Q13.4 -22.8 13.6 -22.65L14.6 -22.65Q15.9 -22.65 16.25 -23L16.5 -24.8L16.5 -25Q19.55 -26.1 20.35 -26.8Q22.65 -28.55 23.7 -28.6L26.7 -28.35L28.4 -28.6L30.2 -28.9Q31.9 -28.9 33.35 -27.65Q34.35 -26.85 35.6 -26.6L34.9 -24.4L32.5 -17.3Q3 -2.5 -28.8 -3.2" />
<path style="fill:#D4922E;fill-opacity:1" d="M4.2,-21.1L4 -19.35Q3.45 -16.25 2.55 -15.05L2.5 -14.95L0.9 -12.65Q-0.05 -11.55 -1.7 -10.9Q-6.25 -8.9 -7.5 -8.9L-8.45 -8.65L-9.9 -8.5L-12.7 -8.75L-19.1 -7.95L-23.05 -7.15L-27.9 -7.05Q-28.15 -7.05 -28.95 -7.35L-28.95 -8.75L-28.8 -8.75Q-10.05 -11.5 -6.05 -12.65Q-2.55 -13.2 -1.05 -13.95Q0.2 -14.55 1.05 -15.95Q1.85 -17.4 2.3 -19.6L3.5 -27.6L3.55 -28L3.6 -28.1Q4.5 -32.2 6.3 -32.9L6.4 -32.9L10.6 -33.4L14.35 -33.55L20.65 -33.5L26.6 -33.5Q32.6 -33.65 37.25 -33.4L37.15 -33.15Q36.75 -30.5 35.6 -26.6Q34.35 -26.85 33.35 -27.65Q31.9 -28.9 30.2 -28.9L28.4 -28.6L26.7 -28.35L23.7 -28.6Q22.65 -28.55 20.35 -26.8Q19.55 -26.1 16.5 -25L16.25 -26.65L14.85 -26.8L13.9 -26.7L13.85 -26.65L13.8 -26.5L13.6 -26.65L13.6 -26L13.55 -25.2L13.45 -24L11.95 -23.8L10.5 -23.9L10.55 -25.7Q10.55 -27 9.85 -27.55L7.65 -28.05L6.65 -27.9L6.55 -27.2L6.6 -25.65L6.55 -24.15Q4.45 -23.8 4.2 -21.1M-9.5,-19.75L-11.35 -19.5L-11.5 -19.45Q-12.6 -21.4 -14.05 -23.25L-16.7 -26.8L-17.5 -22.3L-18.1 -18.2L-17.95 -17.85L-20 -17.3L-20.3 -17.2L-19.7 -21.75Q-18.95 -27.2 -18.95 -28.95Q-18.95 -30.45 -19.4 -31.55L-20.15 -31.15L-20.15 -31.55Q-20.7 -32.05 -20.8 -32.95L-20.85 -34.35L-20.85 -34.55Q-20.85 -36.65 -19.95 -37.75L-19.55 -37.45L-18.6 -37.2L-16.85 -37.65L-16.2 -37.75L-15 -37.45L-14.3 -37L-14 -36.65L-13.25 -35.45L-13.05 -33.95Q-13.05 -33.15 -13.4 -31.9L-13.5 -31.55L-13.8 -30.45L-14 -29.35Q-14 -28.9 -12.8 -26.75L-8.8 -19.85L-9.5 -19.75M-18.1,-34.3L-18.25 -33.85L-18.35 -33L-18.1 -31.85Q-17.7 -31 -16.55 -31Q-15.6 -31 -15.05 -31.55L-14.65 -32.15L-14.5 -33Q-14.35 -33.25 -14.35 -33.65Q-14.35 -34.4 -15.25 -35.15L-15.45 -35.3L-15.55 -35.45Q-16.1 -36.05 -16.7 -36.05Q-17.3 -36.05 -17.55 -35.45L-17.55 -35.35L-17.6 -35.2L-18.1 -34.3" />
<path style="fill:#252424;fill-opacity:1" d="M19.75,-43.65L16.2 -43.5L15.05 -43.4Q12.1 -43.55 12.65 -47.85L12.9 -47.9L16.25 -48.15L20.7 -47.85L21.3 -47.75L23.3 -47.55L23.25 -46.9L23.5 -44.95L23.5 -43.5L22.95 -43.5L19.75 -43.65M10.25,-22.45Q9.7 -20.85 7.8 -20.85Q6.7 -20.85 6.5 -21.65L6.5 -23.75L6.55 -24.15L6.6 -25.65L6.55 -27.2L6.65 -27.9L7.65 -28.05L9.85 -27.55Q10.55 -27 10.55 -25.7L10.5 -23.9L10.25 -22.45M13.8,-26.5L13.85 -26.65L13.9 -26.7L14.85 -26.8L16.25 -26.65L16.5 -25L16.5 -24.8L16.25 -23Q15.9 -22.65 14.6 -22.65L13.6 -22.65Q13.4 -22.8 13.4 -23.9L13.45 -24L13.55 -25.2L13.6 -26L13.8 -26.5" />
<path style="fill:#6699CC;fill-opacity:1" d="M28.2,-50.75L28.15 -49.65Q28.05 -48.35 27.7 -48Q27.15 -47.5 24.95 -47.5L24.85 -47.5L21.4 -49.05L21.1 -49.15L21 -49.15L18.3 -49.6L15.05 -49.85L8.05 -49.95Q6.05 -50.5 3.35 -53.85L3.35 -56.15L3.55 -57.1Q4.2 -56.25 5.75 -55.85L9.3 -55.5L12.5 -54.35L16.4 -53.3L22.65 -51.65L27.85 -49.75L27.95 -49.7L28.2 -50.75M-0.1,-22.15Q-0.75 -19.55 -1.15 -18.8Q-2.05 -17.1 -4.25 -16.1Q-7.05 -14.75 -11.7 -14.25L-14.6 -13.85L-16.7 -13.35Q-19.75 -12.15 -21.15 -12.15L-25.8 -11.65L-25.95 -11.6L-30.55 -11.1L-30.4 -13.3L-29.2 -13.1L-26.2 -13.55L-20.2 -14.6L-14.8 -15.55L-11.7 -16.2Q-11.7 -16.7 -10.55 -16.8L-7.95 -16.9Q-4.25 -17.4 -4.25 -21.35Q-4.25 -22.05 -4.6 -23.3Q-4 -24.55 -2.55 -29.05Q-1.6 -31.7 -0.65 -36.05L-0.1 -38L0.05 -37.75Q0.4 -37.35 2.15 -37.35L8.9 -38.2L16 -39L20.25 -39.35L24.7 -39.7L29.5 -39.45L37.7 -40L38.6 -39.9Q39.2 -39.7 39.3 -38.8Q39.4 -37.85 40 -36.15L39.5 -33.75L38.4 -35.15Q37.05 -36.65 35.9 -36.65Q28.55 -36.35 28.55 -36.65L28.55 -36.8L21.45 -36.25L14 -34.9L13.25 -34.7L10.55 -34.4L10.15 -34.4L7.45 -34.4L5.6 -33.95L5.1 -33.55L5.1 -33.5L4.15 -30.9L3.55 -28.7L3.6 -28.1L3.55 -28Q0.7 -25.55 -0.1 -22.15M28.75,-36.8L28.55 -36.85L28.55 -36.8L28.75 -36.8" />
<path style="fill:#9BC1E7;fill-opacity:1" d="M27.85,-49.75L22.65 -51.65L16.4 -53.3L12.5 -54.35L9.3 -55.5L5.75 -55.85Q4.2 -56.25 3.55 -57.1Q4.05 -58.5 5.5 -58.5Q28.2 -53.3 28.2 -50.75L27.85 -49.75M39.3,-38.8Q39.2 -39.7 38.6 -39.9L37.7 -40L29.5 -39.45L24.7 -39.7L20.25 -39.35L16 -39L8.9 -38.2L2.15 -37.35Q0.4 -37.35 0.05 -37.75L-0.1 -38L0.75 -40.15L0.95 -40.15L6.25 -40.6L6.5 -40.65L6.55 -40.65L14.35 -41.5L15.1 -41.65L16.25 -41.65L23.4 -41.85L23.55 -41.85L26.5 -41.95L38.55 -42.4Q39.85 -42.4 40.05 -41.25L40.05 -39.05L39.3 -38.8M-11.5,-19.45L-11.35 -19.5L-9.5 -19.75L-8.8 -19.85Q-7.7 -20 -6.85 -20.65Q-5.6 -21.5 -4.7 -23.05L-4.6 -23.3Q-4.25 -22.05 -4.25 -21.35Q-4.25 -17.4 -7.95 -16.9L-10.55 -16.8Q-11.7 -16.7 -11.7 -16.2L-14.8 -15.55L-20.2 -14.6L-26.2 -13.55L-29.2 -13.1L-30.4 -13.3L-30.45 -15.3L-30.5 -15.4Q-29.6 -16.15 -28.05 -16.25L-25.3 -16.2L-22.95 -16.4L-22.7 -16.5L-20.3 -17.2L-20 -17.3L-17.95 -17.85L-14.9 -18.7L-11.5 -19.45" />
<path style="fill:#476C91;fill-opacity:1" d="M8.05,-49.95L15.05 -49.85L18.3 -49.6L21 -49.15L21.1 -49.15L21.4 -49.05L24.85 -47.5L23.3 -47.55L21.3 -47.75L20.7 -47.85L16.25 -48.15L12.9 -47.9L12.65 -47.85L9.3 -47.65L6.4 -47.75Q5 -47.9 4.55 -48.15Q3.15 -48.9 3.15 -51.4Q3.1 -52.4 3.35 -53.65L3.35 -53.85Q6.05 -50.5 8.05 -49.95M28.55,-36.8L28.55 -36.65Q28.55 -36.35 35.9 -36.65Q37.05 -36.65 38.4 -35.15L39.5 -33.75Q39.2 -33.05 38.7 -33.3L37.25 -33.4Q32.6 -33.65 26.6 -33.5L20.65 -33.5L14.35 -33.55L10.6 -33.4L6.4 -32.9L6.3 -32.9Q4.5 -32.2 3.6 -28.1L3.55 -28.7L4.15 -30.9L5.1 -33.5L5.1 -33.55L5.6 -33.95L7.45 -34.4L10.15 -34.4L10.55 -34.4L13.25 -34.7L14 -34.9L21.45 -36.25L28.55 -36.8M3.55,-28L3.5 -27.6L2.3 -19.6Q1.85 -17.4 1.05 -15.95Q0.2 -14.55 -1.05 -13.95Q-2.55 -13.2 -6.05 -12.65Q-10.05 -11.5 -28.8 -8.75L-28.95 -8.75Q-30.5 -8.85 -30.55 -11.1L-25.95 -11.6L-25.8 -11.65L-21.15 -12.15Q-19.75 -12.15 -16.7 -13.35L-14.6 -13.85L-11.7 -14.25Q-7.05 -14.75 -4.25 -16.1Q-2.05 -17.1 -1.15 -18.8Q-0.75 -19.55 -0.1 -22.15Q0.7 -25.55 3.55 -28" />
<path style="fill:#E7B66C;fill-opacity:1" d="M-8.8,-19.85L-12.8 -26.75Q-14 -28.9 -14 -29.35L-13.8 -30.45L-13.5 -31.55L-13.4 -31.9Q-13.05 -33.15 -13.05 -33.95L-13.25 -35.45L-14 -36.65L-14.3 -37L-15 -37.45L-16.2 -37.75L-16.85 -37.65L-18.6 -37.2L-19.55 -37.45L-19.95 -37.75Q-18.95 -39.15 -16.7 -39.15L-14.65 -38.75Q-13.4 -38.2 -12.55 -36.85L-12.05 -35.95Q-11.35 -34.35 -11.35 -32.3L-11.8 -31.1L-12.3 -30.05L-11.1 -27.75L-11.05 -27.6L-9.45 -24.8L-7.9 -22.9Q-6.85 -21.55 -6.85 -20.65Q-7.7 -20 -8.8 -19.85M-17.6,-35.2L-17.55 -35.35L-17.55 -35.45Q-17.3 -36.05 -16.7 -36.05Q-16.1 -36.05 -15.55 -35.45L-15.45 -35.3L-15.25 -35.15Q-14.35 -34.4 -14.35 -33.65Q-14.35 -33.25 -14.5 -33L-14.65 -32.15L-15.05 -31.55Q-15.6 -31 -16.55 -31Q-17.7 -31 -18.1 -31.85L-18.35 -33L-18.25 -33.85L-17.6 -35.2" />
<path style="fill:#BD7D1B;fill-opacity:1" d="M6.25,-40.65Q6.25 -45 6.4 -47.2L6.4 -47.75L9.3 -47.65L12.65 -47.85Q12.1 -43.55 15.05 -43.4L16.2 -43.5L19.75 -43.65L22.95 -43.5L23.5 -43.5L23.55 -41.85L23.4 -41.85L16.25 -41.65L15.1 -41.65L14.35 -41.5L6.55 -40.65L6.5 -40.65L6.25 -40.65M-22.7,-16.5L-22.95 -16.5L-21.85 -23.05L-20.55 -29.3L-20.15 -31.15L-19.4 -31.55Q-18.95 -30.45 -18.95 -28.95Q-18.95 -27.2 -19.7 -21.75L-20.3 -17.2L-22.7 -16.5" />
<path style="fill:none;stroke-width:1;stroke-linecap:butt;stroke-linejoin:miter;stroke-miterlimit:3;stroke:#8C1D1D;stroke-opacity:1" d="M13.6,-26L13.6 -26.65L13.8 -26.5" />
<path style="fill:none;stroke-width:1;stroke-linecap:butt;stroke-linejoin:miter;stroke-miterlimit:3;stroke:#6B3510;stroke-opacity:1" d="M-22.95,-16.5L-21.85 -23.05L-20.55 -29.3L-20.15 -31.15M-20.15,-31.55Q-20.7 -32.05 -20.8 -32.95L-20.85 -34.35L-20.85 -34.55Q-20.85 -36.65 -19.95 -37.75Q-18.95 -39.15 -16.7 -39.15L-14.65 -38.75Q-13.4 -38.2 -12.55 -36.85L-12.05 -35.95Q-11.35 -34.35 -11.35 -32.3L-11.8 -31.1L-12.3 -30.05L-11.1 -27.75L-11.05 -27.6L-9.45 -24.8L-7.9 -22.9Q-6.85 -21.55 -6.85 -20.65M23.25,-46.9L23.5 -44.95L23.5 -43.5L23.55 -41.85M12.65,-47.85Q12.1 -43.55 15.05 -43.4L16.2 -43.5L19.75 -43.65L22.95 -43.5M6.25,-40.6L6.25 -40.65Q6.25 -45 6.4 -47.2M-15.25,-35.15L-15.45 -35.3L-15.55 -35.45Q-16.1 -36.05 -16.7 -36.05Q-17.3 -36.05 -17.55 -35.45L-17.55 -35.35L-17.6 -35.2L-18.25 -33.85L-18.35 -33L-18.1 -31.85Q-17.7 -31 -16.55 -31Q-15.6 -31 -15.05 -31.55L-14.65 -32.15L-14.5 -33M-18.25,-33.85L-18.1 -34.3L-17.6 -35.2M-18.1,-18.2L-17.5 -22.3L-16.7 -26.8L-14.05 -23.25Q-12.6 -21.4 -11.5 -19.45" />
<path style="fill:none;stroke-width:1;stroke-linecap:butt;stroke-linejoin:miter;stroke-miterlimit:3;stroke:#3A1313;stroke-opacity:1" d="M6.55,-24.15L6.6 -25.65L6.55 -27.2L6.65 -27.9L7.65 -28.05L9.85 -27.55Q10.55 -27 10.55 -25.7L10.5 -23.9M13.8,-26.5L13.85 -26.65L13.9 -26.7L14.85 -26.8L16.25 -26.65L16.5 -25L16.5 -24.8L16.25 -23Q15.9 -22.65 14.6 -22.65L13.6 -22.65Q13.4 -22.8 13.4 -23.9L13.45 -24L13.55 -25.2L13.6 -26M13.8,-26.5L13.6 -26M6.55,-24.15L6.5 -23.75L6.5 -21.65Q6.7 -20.85 7.8 -20.85Q9.7 -20.85 10.25 -22.45L10.5 -23.9" />
<path style="fill:none;stroke-width:1;stroke-linecap:butt;stroke-linejoin:miter;stroke-miterlimit:3;stroke:#233F5B;stroke-opacity:1" d="M3.35,-53.85L3.35 -53.65Q3.1 -52.4 3.15 -51.4Q3.15 -48.9 4.55 -48.15Q5 -47.9 6.4 -47.75L9.3 -47.65L12.65 -47.85L12.9 -47.9L16.25 -48.15L20.7 -47.85L21.3 -47.75L23.3 -47.55L24.85 -47.5M3.35,-53.85L3.35 -56.15L3.55 -57.1Q4.05 -58.5 5.5 -58.5Q28.2 -53.3 28.2 -50.75L28.15 -49.65Q28.05 -48.35 27.7 -48Q27.15 -47.5 24.95 -47.5L24.85 -47.5M40.05,-39.05L40.05 -41.25Q39.85 -42.4 38.55 -42.4L26.5 -41.95L23.55 -41.85L23.4 -41.85L16.25 -41.65L15.1 -41.65L14.35 -41.5L6.55 -40.65L6.5 -40.65L6.25 -40.6L0.95 -40.15L0.75 -40.15L-0.1 -38M40.05,-39.05L40 -36.15L39.5 -33.75Q39.2 -33.05 38.7 -33.3L37.25 -33.4Q32.6 -33.65 26.6 -33.5L20.65 -33.5L14.35 -33.55L10.6 -33.4L6.4 -32.9L6.3 -32.9Q4.5 -32.2 3.6 -28.1L3.55 -28L3.5 -27.6L2.3 -19.6Q1.85 -17.4 1.05 -15.95Q0.2 -14.55 -1.05 -13.95Q-2.55 -13.2 -6.05 -12.65Q-10.05 -11.5 -28.8 -8.75L-28.95 -8.75M37.15,-33.15Q36.75 -30.5 35.6 -26.6L34.9 -24.4L32.5 -17.3L31.85 -15.45L31.25 -13.85L29.6 -10.4L26.7 -6.35Q24.85 -3.9 23 -2.8Q21.15 -1.75 17.95 -0.35Q14.8 0.95 6.2 2.65Q-0.45 3.95 -10.4 3.95L-17.55 3.9L-24.45 2.95L-27.6 2.4Q-29.15 1.8 -28.95 -0.15L-28.95 -0.4L-28.8 -3.2L-28.85 -4.65L-28.95 -7.35L-28.95 -8.75Q-30.5 -8.85 -30.55 -11.1L-30.4 -13.3L-30.45 -15.3L-30.5 -15.4Q-29.6 -16.15 -28.05 -16.25L-25.3 -16.2L-22.95 -16.4L-22.95 -16.5M-22.7,-16.5L-20.3 -17.2L-20 -17.3L-17.95 -17.85L-14.9 -18.7L-11.5 -19.45L-11.35 -19.5L-9.5 -19.75L-8.8 -19.85Q-7.7 -20 -6.85 -20.65Q-5.6 -21.5 -4.7 -23.05L-4.6 -23.3Q-4 -24.55 -2.55 -29.05Q-1.6 -31.7 -0.65 -36.05L-0.1 -38M-22.7,-16.5L-22.95 -16.4" />
</g>
</svg>
