<?xml version="1.0" encoding="utf-8"?>
<svg version="1.1" id="Layer_1"
xmlns="http://www.w3.org/2000/svg"
xmlns:xlink="http://www.w3.org/1999/xlink"
xmlns:author="http://www.sothink.com"
width="50px" height="65px"
xml:space="preserve">
<g id="27" transform="matrix(1, 0, 0, 1, 24.1, 32.75)">
<path style="fill:#FFCC00;fill-opacity:1" d="M0.25,-27.2L0.4 -29.1Q0.4 -30.7 -0.1 -31.6L-0.2 -32.2L0.25 -32.4L1 -32.45L1 -32.75L1.05 -32.75Q1.05 -30.95 1.55 -26.2L2.15 -20.15Q1.95 -14.95 2.3 -12.3Q2.5 -10.5 3.1 -9.3L3.6 -9.2L4.7 -9.65L4.8 -9.65Q6.05 -9.65 8.25 -10.85L10.7 -12.15L10.55 -12.05Q10.2 -10.1 9.45 -8.95Q8.95 -8 8.95 -6.6Q8.8 -6.1 8.95 -5.75Q9.25 -5.05 10.85 -5.05Q14.25 -5.05 20.9 -9.2L24.95 -10.6L19.75 -7Q10.45 -0.05 10.45 3.75Q10.45 5.9 12.15 7.9L16.15 12.55L20.05 18L20.1 18.05L15.1 14.4Q9.4 9.85 5.5 9.85Q3.25 9.85 1.5 14.1L1.05 15.15L0.85 16.15Q-0.9 18.45 -2.2 22.8L-3.95 29.2Q-4.5 31.35 -5.05 31.95Q-4.4 26.3 -3.95 13.7L-3.85 13.55L-3.65 12.2Q-3.65 6.05 -10.9 7.5Q-17.2 8.8 -21.55 10.05L-24.1 10.85L-22.05 9.55L-12.85 6.25Q-8.95 4.65 -7.7 3Q-6.75 1.8 -6.75 -0.35Q-6.75 -3.45 -10.75 -6.5L-13.3 -8.15L-14.25 -8.95L-14.5 -9.15L-14.4 -9.15L-8.3 -8.6Q-4.4 -8.6 -2.7 -10.85Q-1.05 -13 -0.6 -18.7L-0.05 -24.65L0.25 -26.45L0.25 -27.2M10.9,-6.8L10.75 -6.8L10.85 -6.9L10.9 -6.8M13.95,11.2L13.9 11.05L13.8 11.1L13.95 11.2M9.6,9.1L10.05 9.25L9.9 9L9.6 9.1M3.6,8.55L3.8 8.4L3.65 8.35L3.6 8.55M10.1,4.05L10.2 3.55L10.05 3.65L10.1 4.05" />
</g>
</svg>
