<?xml version="1.0" encoding="utf-8"?>
<svg version="1.1" id="Layer_1"
xmlns="http://www.w3.org/2000/svg"
xmlns:xlink="http://www.w3.org/1999/xlink"
xmlns:author="http://www.sothink.com"
width="101px" height="122px"
xml:space="preserve">
<g id="136" transform="matrix(1, 0, 0, 1, 39.55, 62.25)">
<path style="fill:#5C9595;fill-opacity:1" d="M25.8,2.9Q17.35 1.15 13.9 3.85L9.35 7.85L6.75 7.85Q7.3 4.45 5.4 3.1L9.5 -1.7Q12.2 -4.25 15.3 -4.55Q22.05 -5.15 29.9 -3.25Q33.8 -2.3 40.8 0.15L37.2 5.5L25.8 2.9M-36.1,49.35L-36.45 42.55L-36.65 38.35Q-34.95 38.4 -33.7 39.55L-31.6 42.25Q-28.85 46 -24.15 46.15L-23.95 46.15Q-23.95 45.7 -20.3 45.55L-16.1 45.55L-10.85 46.15Q-8.75 46.15 -0.75 44.15L8.55 41.95L21.3 41.1L19.55 47.55L19.4 47.9L18.6 47.55Q-5.3 51.4 -36.1 49.35M-4.45,21.35L-1 21.35Q-5 25.2 -9.2 25.2L-17.55 24.45L-17.55 24.4L-16.1 24.1L-13.9 23.85L-13.05 21.35L-5.75 21.35L-4.45 21.35M22.4,19.85Q21.5 19.55 21.45 18.6L21.6 17.7Q22.1 16.25 23.2 16.9Q24.3 17.5 23.75 19.05Q23.4 20.2 22.4 19.85M13.65,29.95Q11.25 29.95 10.65 28.3L10.45 26.5Q10.45 23.2 14.3 22.15Q18.1 21.05 18.1 24.85Q18.1 26.05 17.35 27.55Q16.1 29.95 13.65 29.95M-20.85,30.65Q-18.65 32.35 -18.65 34.5Q-18.65 36.25 -20 38.05Q-22.05 40.65 -25.9 40.65Q-29.3 40.65 -31.3 37Q-32.3 35.15 -32.6 33.45Q-32.6 30.55 -30.4 29.3Q-28.5 28.2 -25.6 28.65Q-22.85 29.05 -20.85 30.65M-13.3,30.75Q-11.15 31.4 -11.15 33.15Q-11.15 35.35 -13.1 35.35Q-14.8 35.35 -15.35 34.05L-15.5 32.65Q-15.5 30.15 -13.3 30.75" />
<path style="fill:#6AA6A6;fill-opacity:1" d="M8.55,41.95L-0.75 44.15Q-8.75 46.15 -10.85 46.15L-16.1 45.55L-20.3 45.55Q-23.95 45.7 -23.95 46.15L-24.15 46.15Q-28.85 46 -31.6 42.25L-33.7 39.55Q-34.95 38.4 -36.65 38.35Q-37.1 32.1 -37.9 25.75L-37.5 25.75Q-36.25 25.75 -34.9 26.9L-33.6 28.05Q-33.05 28.05 -31.5 26.8Q-30 25.5 -29.15 25.5Q-28.6 25.5 -24.85 27.3L-20.25 29.35L-18.6 29.35L-18.05 26.95Q-17.55 25.25 -17.55 24.45L-9.2 25.2Q-5 25.2 -1 21.35L-4.45 21.35L-1.85 19.65Q0.8 17.8 1.65 17.8Q2.25 17.8 4.3 19.9L6.3 21.35L9 22Q9.9 22 10.55 21.35Q11.2 20.65 11.55 19.1Q11.75 18.1 12.3 17.5Q13.3 16.35 15.4 16.5L12.95 12.65Q11.45 10.25 12.25 7.85L9.35 7.85L13.9 3.85Q17.35 1.15 25.8 2.9L37.2 5.5L29.7 16.75L26.2 22.15L25.6 21.95Q23.2 31.55 22 37.75L21.3 41.1L8.55 41.95M18.6,47.55L19.4 47.9L18.7 49.85L18.6 47.55M23.75,19.05Q24.3 17.5 23.2 16.9Q22.1 16.25 21.6 17.7L21.45 18.6Q21.5 19.55 22.4 19.85Q23.4 20.2 23.75 19.05M17.35,27.55Q18.1 26.05 18.1 24.85Q18.1 21.05 14.3 22.15Q10.45 23.2 10.45 26.5L10.65 28.3Q11.25 29.95 13.65 29.95Q16.1 29.95 17.35 27.55M-13.05,21.35Q-11.4 16.7 -10 16.25L-8.15 19.3Q-6.95 20.95 -5.75 21.35L-13.05 21.35M-25.6,28.65Q-28.5 28.2 -30.4 29.3Q-32.6 30.55 -32.6 33.45Q-32.3 35.15 -31.3 37Q-29.3 40.65 -25.9 40.65Q-22.05 40.65 -20 38.05Q-18.65 36.25 -18.65 34.5Q-18.65 32.35 -20.85 30.65Q-22.85 29.05 -25.6 28.65M-15.5,32.65L-15.35 34.05Q-14.8 35.35 -13.1 35.35Q-11.15 35.35 -11.15 33.15Q-11.15 31.4 -13.3 30.75Q-15.5 30.15 -15.5 32.65" />
<path style="fill:#609393;fill-opacity:1" d="M17.95,49.85L18.7 49.85L18 51.3L17.95 49.85" />
<path style="fill:#A13838;fill-opacity:1" d="M27.6,-45.7Q23.85 -46.95 21.55 -48Q20.95 -48.3 20.45 -48.55Q17.45 -50.25 18 -51.95L18.95 -54Q22.4 -51.9 27.3 -49.65Q32.55 -47.3 37.75 -45.55Q39.4 -45 40.4 -41.3L40.55 -40.85Q39.9 -41 39.15 -41.3L38.95 -41.35L34.55 -43L31.95 -43.95Q29.25 -44.95 27.6 -45.7M-18.75,3.35L-19.45 3.15L-33.85 -1.25L-34.25 -1.35Q-35.9 -2 -36.85 -2.65Q-38.4 -3.7 -39.05 -5.5L-38.2 -8.05L-38.1 -8.25L-37.55 -9.9L-37.4 -10.35L-36.9 -8.85Q-35.75 -5.5 -34.45 -5.05L-30.3 -4.15Q-29.6 -3.9 -28 -2.7L-27.35 -2.2L-25.9 -1.35L-24.05 -1.1L-23.75 -1.1L-21.8 -1.05Q-21.2 -0.85 -18.95 0.5L-18.35 0.9L-15.65 2.15L-10.6 3.3L-3.85 3.7L-3.3 3.6Q-1.55 3.2 -0.25 2.25L0.5 1.5L5.15 -4.15Q6 -5.4 6.8 -6.1Q8.2 -7.4 10.15 -7.9Q12.7 -8.6 13.75 -12.1Q15.35 -14.3 17.25 -16.05Q18.1 -16.85 18.9 -17.45Q21.3 -19.4 22.8 -18.9Q23.75 -18.55 25 -14.3Q26.25 -10.1 29.45 -9Q31.8 -8.2 34 -9.4L38.7 -9.65L41.1 -7.1Q43.55 -4.55 46.35 -3.55Q47.65 -3.15 48.85 -2.25Q49.65 -1.8 50.75 -1.3L50.55 -0.65Q49.9 1.2 49.75 2.2Q47.4 2.55 43.9 1.3L40.8 0.15Q33.8 -2.3 29.9 -3.25Q22.05 -5.15 15.3 -4.55Q12.2 -4.25 9.5 -1.7L5.4 3.1L5.15 3.4Q2.65 6.5 0.55 7.5Q-2.25 9 -6 7.65Q-10.95 5.8 -18.65 3.4L-18.75 3.35M17.95,49.85L18 51.3Q15.8 55.7 12.3 57.4Q9.3 58.8 3.6 58.9L-9.2 58.75L-28.8 58.7Q-34.2 58.25 -35.35 55.05L-35.9 51.75Q1.15 53.45 17.95 49.85M41.75,-17.95Q41.3 -15.75 41.6 -15.15Q41.95 -14.65 46.1 -13.25Q50.55 -11.75 51.1 -11.85L51.3 -11.85L50.8 -10.25L50.55 -9.4Q48.8 -9.05 46.35 -9.9Q41.4 -11.55 40.3 -12.15Q37.05 -14.05 38.05 -16.9Q38.75 -18.95 39.6 -19.35L42.2 -19.75L41.75 -17.95" />
<path style="fill:#C7ECEC;fill-opacity:1" d="M18.6,47.55L18.7 49.85L17.95 49.85Q1.15 53.45 -35.9 51.75L-36.1 49.35Q-5.3 51.4 18.6 47.55" />
<path style="fill:#F3B2B2;fill-opacity:1" d="M26.4,-61.7Q28.1 -61.95 31.8 -60.7L35.25 -59.25L36.15 -58.9Q38.9 -57.8 40.55 -57.4L41.25 -57.25Q43.2 -56.65 43.8 -55.25Q44.5 -53.7 43.5 -50.85L41.2 -52L41.4 -52.7Q42.3 -55 40.5 -55.6L35.3 -56.9Q31.8 -57.75 30.35 -58.25L26.25 -59.65Q25.15 -60.2 24.5 -60.75Q25.3 -61.5 26.4 -61.7M36.95,-36.05L36.9 -36L34.55 -30.1L29.15 -29.9L20.85 -33.1Q19.4 -34 19.35 -35.5Q19.4 -36.95 20.6 -40.55Q22.15 -45.15 25.95 -44.25L29.05 -43.65L29.4 -43.65L31.95 -43.95L34.55 -43L38.95 -41.35L36.95 -36.05M26.95,-40.9L26.65 -40.3Q25.7 -38.05 26.45 -36.85Q27.15 -35.75 30 -34.8Q32.6 -33.9 33.25 -34.3L33.8 -34.9L34.65 -36.95Q35.3 -38.8 34.5 -39.5Q33.95 -40.1 31.4 -40.95L28.6 -41.75Q27.85 -41.75 27.35 -41.3L27.05 -41.05L26.95 -40.9" />
<path style="fill:#DE7676;fill-opacity:1" d="M45.4,-45.2Q44.1 -41.45 43.45 -40.95Q42.9 -40.55 42 -40.6L42 -41.1L42.45 -46.95L41.95 -47.85Q41.05 -48.7 39 -49.35Q35.25 -50.35 34 -50.95Q28.65 -53.25 24.8 -54.55Q21.55 -55.65 20.1 -56.6L20.6 -57.9L20.85 -58.7L23.05 -57.95Q23.4 -59.85 24.5 -60.75Q25.15 -60.2 26.25 -59.65L30.35 -58.25Q31.8 -57.75 35.3 -56.9L40.5 -55.6Q42.3 -55 41.4 -52.7L41.2 -52L43.5 -50.85Q46.55 -48.7 45.4 -45.2M50.55,-0.65L50.75 -1.3Q51.4 -3.05 52.8 -5.85L54 -8.6L54.8 -10.6Q56.45 -15.55 55.85 -17.85Q55.1 -20.85 50.45 -22.45L49.9 -22.55L26.9 -27.95L26.6 -29.1L26.5 -29.05L25.7 -28.75L24.3 -28.05L20.05 -29.85L16.15 -31.55L13.6 -32.4Q14.45 -35.15 16.95 -40.4Q19.6 -45.7 20.45 -48.55Q20.95 -48.3 21.55 -48Q23.85 -46.95 27.6 -45.7Q29.25 -44.95 31.95 -43.95L29.4 -43.65L29.05 -43.65L25.95 -44.25Q22.15 -45.15 20.6 -40.55Q19.4 -36.95 19.35 -35.5Q19.4 -34 20.85 -33.1L29.15 -29.9L34.55 -30.1L36.05 -29.65L41.7 -27.65L50.35 -24.35L50.65 -24.2L51.05 -24.05Q54.15 -22.9 58.45 -22.15Q61.1 -21.1 59.5 -16.5L55.9 -7.8L54.3 -3.6Q54 -1.8 53.35 -0.55Q52.15 1.8 49.75 2.2Q49.9 1.2 50.55 -0.65M-18.35,-4.15L-18.25 -4.1L-13.45 -2.25Q-7.65 -0.3 -3.9 -0.4Q-5.15 1.45 -8.35 1.05L-14.7 -0.8L-19.25 -2.35Q-23.8 -3.85 -26 -4.95Q-29.6 -6.65 -30.5 -10.25Q-31 -12.15 -30.9 -13.65L-31.95 -13.75L-33.05 -13.9Q-34.2 -14.25 -34.65 -15.2L-34.75 -15.65Q-32.95 -17.3 -29.65 -16.2L-28.5 -15.65L-28.6 -15.35L-28.2 -15.35Q-26.65 -14.1 -27.15 -11.5Q-27.9 -7.95 -25.3 -7.1L-19.75 -4.75L-18.35 -4.15M-8.6,-34.25L-7.8 -37.9Q-6.75 -40.95 -4.3 -42.15Q-1.8 -43.4 -1.5 -44.35Q-0.9 -46.1 -1.8 -47.45Q-2.7 -48.8 -4.7 -49.5L-6.05 -49.7L-7.25 -49.85Q-8.05 -50.1 -8.4 -50.5L-7.25 -50.95Q-5.7 -51.2 -2.95 -50.3Q2.1 -48.6 0.55 -44Q-0.2 -41.8 -1 -41.35L-4.1 -40.85L-4.75 -40.5L-7.95 -30.85L-9.25 -31.25L-8.6 -34.25M42.5,-20.7L43.1 -21.95L52.85 -18.65L53.3 -17L53.35 -15.45Q52.3 -12.3 51.3 -11.85L51.8 -14.1Q51.7 -16.1 49 -17.65Q48.1 -18.2 44.4 -19.1Q43.3 -19.4 42.55 -19.8L42.2 -19.95L42.25 -20.1L42.3 -20.25L42.5 -20.7M-4.1,-44.65Q-4.8 -44.4 -5.6 -44.65L-6.4 -45.05L-7 -45.9L-6.4 -47.65L-6.25 -47.6L-6 -47.75L-5.15 -48.05L-3.9 -47.05Q-3.1 -46.2 -3.25 -45.8Q-3.5 -44.95 -4.1 -44.65" />
<path style="fill:#BD4C4C;fill-opacity:1" d="M24.8,-54.55Q28.65 -53.25 34 -50.95Q35.25 -50.35 39 -49.35Q41.05 -48.7 41.95 -47.85L42.45 -46.95L42 -41.1L42 -40.6L40.55 -40.85L40.4 -41.3Q39.4 -45 37.75 -45.55Q32.55 -47.3 27.3 -49.65Q22.4 -51.9 18.95 -54L19.15 -54.4L20.05 -56.45L20.1 -56.6Q21.55 -55.65 24.8 -54.55M25.7,-28.75L26.5 -29.05L26.6 -29.1L26.9 -27.95L49.9 -22.55L50.45 -22.45Q55.1 -20.85 55.85 -17.85Q56.45 -15.55 54.8 -10.6L54 -8.6L52.8 -5.85Q51.4 -3.05 50.75 -1.3Q49.65 -1.8 48.85 -2.25Q47.65 -3.15 46.35 -3.55Q43.55 -4.55 41.1 -7.1L38.7 -9.65L34 -9.4Q31.8 -8.2 29.45 -9Q26.25 -10.1 25 -14.3Q23.75 -18.55 22.8 -18.9Q21.3 -19.4 18.9 -17.45Q18.1 -16.85 17.25 -16.05Q15.35 -14.3 13.75 -12.1Q12.7 -8.6 10.15 -7.9Q8.2 -7.4 6.8 -6.1Q6 -5.4 5.15 -4.15L0.5 1.5L-0.25 2.25Q-1.55 3.2 -3.3 3.6L-3.85 3.7L-10.6 3.3L-15.65 2.15L-18.35 0.9L-18.95 0.5Q-21.2 -0.85 -21.8 -1.05L-23.75 -1.1L-24.05 -1.1L-25.9 -1.35L-27.35 -2.2L-28 -2.7Q-29.6 -3.9 -30.3 -4.15L-34.45 -5.05Q-35.75 -5.5 -36.9 -8.85L-37.4 -10.35L-35.65 -14.7L-34.75 -15.65L-34.65 -15.2Q-34.2 -14.25 -33.05 -13.9L-31.95 -13.75L-30.9 -13.65Q-31 -12.15 -30.5 -10.25Q-29.6 -6.65 -26 -4.95Q-23.8 -3.85 -19.25 -2.35L-14.7 -0.8L-8.35 1.05Q-5.15 1.45 -3.9 -0.4Q-2.05 -0.55 -0.7 -1.15L-0.2 -1.4Q2.95 -3.15 9.65 -13.75L13.95 -19.55L16.2 -21.8Q18.3 -24 20.75 -25.75L21 -25.95L24.3 -28.05L25.7 -28.75M-8.4,-50.5Q-8.05 -50.1 -7.25 -49.85L-6.05 -49.7L-4.7 -49.5Q-2.7 -48.8 -1.8 -47.45Q-0.9 -46.1 -1.5 -44.35Q-1.8 -43.4 -4.3 -42.15Q-6.75 -40.95 -7.8 -37.9L-8.6 -34.25L-9.25 -31.25L-10.95 -31.65L-14.3 -31.95Q-11.7 -36.75 -9.45 -42.75L-9.4 -42.85Q-10.25 -43.65 -10.4 -45.25Q-10.55 -46.8 -10.15 -48Q-9.5 -49.8 -8.4 -50.5M42.2,-19.75L39.6 -19.35Q38.75 -18.95 38.05 -16.9Q37.05 -14.05 40.3 -12.15Q41.4 -11.55 46.35 -9.9Q48.8 -9.05 50.55 -9.4L50.8 -10.25L51.3 -11.85L51.1 -11.85Q50.55 -11.75 46.1 -13.25Q41.95 -14.65 41.6 -15.15Q41.3 -15.75 41.75 -17.95L42.2 -19.75M42.55,-19.8Q43.3 -19.4 44.4 -19.1Q48.1 -18.2 49 -17.65Q51.7 -16.1 51.8 -14.1L51.3 -11.85Q52.3 -12.3 53.35 -15.45L53.3 -17L52.85 -18.65L43.1 -21.95L42.5 -20.7L42.35 -20.45L42.3 -20.25L42.25 -20.1L42.2 -19.95L42.55 -19.8M-3.25,-45.8Q-3.1 -46.2 -3.9 -47.05L-5.15 -48.05L-6 -47.75L-6.25 -47.6L-6.4 -47.65L-7 -45.9L-6.4 -45.05L-5.6 -44.65Q-4.8 -44.4 -4.1 -44.65Q-3.5 -44.95 -3.25 -45.8" />
<path style="fill:#202020;fill-opacity:1" d="M27.05,-41.05L27.35 -41.3Q27.85 -41.75 28.6 -41.75L31.4 -40.95Q33.95 -40.1 34.5 -39.5Q35.3 -38.8 34.65 -36.95L33.8 -34.9Q27.4 -37.9 27.05 -41.05" />
<path style="fill:#333333;fill-opacity:1" d="M27.05,-41.05Q27.4 -37.9 33.8 -34.9L33.25 -34.3Q32.6 -33.9 30 -34.8Q27.15 -35.75 26.45 -36.85Q25.7 -38.05 26.65 -40.3L26.95 -40.9L27.05 -41.05" />
<path style="fill:#AD4C4C;fill-opacity:1" d="M19.1,-26.7Q16.05 -28.35 12.9 -29.45L9.5 -30.3L6.5 -31.05Q5.6 -31.35 5.2 -31.8Q6.4 -33.15 8 -33.35Q9.6 -33.55 13.6 -32.4L16.15 -31.55L20.05 -29.85L24.3 -28.05L21 -25.95L20.75 -25.75L19.1 -26.7M16.2,-21.8L13.95 -19.55L-1.1 -25.95L-9.7 -28.1L-15.25 -29.45L-18 -30.25L-18.9 -30.6L-17.4 -31.5L-14.3 -31.95L-10.95 -31.65L-9.25 -31.25L-7.95 -30.85L-1.8 -28.95L2.8 -27.3L6.9 -25.65Q12.75 -23.4 15.6 -22.45L16.2 -21.8" />
<path style="fill:#8C2F2F;fill-opacity:1" d="M15.6,-22.45Q12.75 -23.4 6.9 -25.65L2.8 -27.3Q3.8 -30.3 5.2 -31.8Q5.6 -31.35 6.5 -31.05L9.5 -30.3L12.9 -29.45Q16.05 -28.35 19.1 -26.7L20.75 -25.75Q18.3 -24 16.2 -21.8L15.6 -22.45" />
<path style="fill:#802B2B;fill-opacity:1" d="M-0.9,-2.95L-1.25 -6.55L0.7 -6.2L3.6 -11.5Q6.25 -16.15 6.6 -17.3Q7 -18.4 6.35 -18.8L4.35 -19.45Q1.5 -20.4 0.9 -19.8L-0.05 -17.8L-1.35 -15.6Q-3.6 -11.75 -4.85 -7.55L-4 -7.25L-7.45 -5.6Q-10.4 -4.4 -11.55 -4.65L-12.45 -6.8Q-13.05 -8.25 -12.85 -8.85L-15.75 -8.85L-15.75 -8.95L-15.6 -15Q-15.55 -15.65 -15.75 -16.1L-14.85 -17.75Q-12.2 -22.4 -11.85 -23.55Q-11.45 -24.65 -12.1 -25L-14.1 -25.7Q-16.95 -26.65 -17.5 -26L-18.2 -24.6L-19.75 -21.8L-22.05 -17.1L-23 -21.7L-23.55 -25.35Q-21.15 -29.05 -18.9 -30.6L-18 -30.25L-15.25 -29.45L-9.7 -28.1L-1.1 -25.95L13.95 -19.55L9.65 -13.75Q2.95 -3.15 -0.2 -1.4L-0.7 -1.15L-0.9 -2.95M-10.45,-18.65Q-12.7 -14.8 -13.95 -10.6L-10.7 -9.75L-8.4 -9.3L-5.5 -14.6Q-2.85 -19.2 -2.5 -20.35Q-2.1 -21.45 -2.75 -21.85L-4.75 -22.55Q-7.6 -23.5 -8.2 -22.85L-9 -21.2L-10.45 -18.65" />
<path style="fill:#4D1313;fill-opacity:1" d="M-0.7,-1.15Q-2.05 -0.55 -3.9 -0.4Q-7.65 -0.3 -13.45 -2.25L-18.25 -4.1L-18.35 -4.15Q-18.35 -6.3 -18.6 -7.3Q-17.7 -7.45 -16.75 -8.15L-15.75 -8.95L-15.75 -8.85L-12.85 -8.85Q-13.05 -8.25 -12.45 -6.8L-11.55 -4.65Q-10.4 -4.4 -7.45 -5.6L-4 -7.25L-2.4 -6.85L-1.6 -6.65L-1.3 -7.55L-1.25 -7.7Q0.1 -9.7 0.5 -10.55L1.45 -13.15Q2.3 -15.65 1.8 -16.4Q1.5 -17 -0.05 -17.8L0.9 -19.8Q1.5 -20.4 4.35 -19.45L6.35 -18.8Q7 -18.4 6.6 -17.3Q6.25 -16.15 3.6 -11.5L0.7 -6.2L-1.25 -6.55L-0.9 -2.95L-0.7 -1.15M-5.75,21.35Q-6.95 20.95 -8.15 19.3L-10 16.25Q-11.4 16.7 -13.05 21.35L-13.9 23.85L-16.1 24.1L-16.25 23.85L-19.7 20.3L-22.3 17.45Q-22.3 16.85 -20.7 14.15L-19.15 11.3Q-19.15 10.95 -20.2 9.6Q-21.25 8.25 -21.25 7.55Q-21.25 6.45 -20.05 4.9L-18.75 3.35L-18.65 3.4Q-10.95 5.8 -6 7.65Q-2.25 9 0.55 7.5Q2.65 6.5 5.15 3.4L5.4 3.1Q7.3 4.45 6.75 7.85L9.35 7.85L12.25 7.85Q11.45 10.25 12.95 12.65L15.4 16.5Q13.3 16.35 12.3 17.5Q11.75 18.1 11.55 19.1Q11.2 20.65 10.55 21.35Q9.9 22 9 22L6.3 21.35L4.3 19.9Q2.25 17.8 1.65 17.8Q0.8 17.8 -1.85 19.65L-4.45 21.35L-5.75 21.35M-18.25,-17.25L-18.3 -17.25L-17.25 -19.8Q-16.45 -22.15 -17 -23.35L-18.2 -24.6L-17.5 -26Q-16.95 -26.65 -14.1 -25.7L-12.1 -25Q-11.45 -24.65 -11.85 -23.55Q-12.2 -22.4 -14.85 -17.75L-15.75 -16.1Q-16.3 -17.25 -18.25 -17.25M-8.25,-16.2Q-7.45 -18.5 -7.4 -19Q-7.2 -20.6 -8.6 -21.05L-9 -21.2L-8.2 -22.85Q-7.6 -23.5 -4.75 -22.55L-2.75 -21.85Q-2.1 -21.45 -2.5 -20.35Q-2.85 -19.2 -5.5 -14.6L-8.4 -9.3L-10.7 -9.75L-8.25 -16.2" />
<path style="fill:#5B1919;fill-opacity:1" d="M-1.6,-6.65L-2.4 -6.85L-4 -7.25L-4.85 -7.55Q-3.6 -11.75 -1.35 -15.6L-0.05 -17.8Q1.5 -17 1.8 -16.4Q2.3 -15.65 1.45 -13.15L0.5 -10.55Q0.1 -9.7 -1.25 -7.7L-1.3 -7.55L-1.6 -6.65M-18.3,-17.25L-22.05 -17L-22.05 -17.1L-19.75 -21.8L-18.2 -24.6L-17 -23.35Q-16.45 -22.15 -17.25 -19.8L-18.3 -17.25M-10.7,-9.75L-13.95 -10.6Q-12.7 -14.8 -10.45 -18.65L-9 -21.2L-8.6 -21.05Q-7.2 -20.6 -7.4 -19Q-7.45 -18.5 -8.25 -16.2L-10.7 -9.75" />
<path style="fill:none;stroke-width:1;stroke-linecap:butt;stroke-linejoin:miter;stroke-miterlimit:3;stroke:#1E3535;stroke-opacity:1" d="M40.8,0.15L37.2 5.5L29.7 16.75L26.2 22.15M25.6,21.95Q23.2 31.55 22 37.75L21.3 41.1L19.55 47.55L19.4 47.9L18.7 49.85L18 51.3Q15.8 55.7 12.3 57.4Q9.3 58.8 3.6 58.9L-9.2 58.75L-28.8 58.7Q-34.2 58.25 -35.35 55.05L-35.9 51.75L-36.1 49.35L-36.45 42.55L-36.65 38.35Q-37.1 32.1 -37.9 25.75L-37.5 25.75Q-36.25 25.75 -34.9 26.9L-33.6 28.05Q-33.05 28.05 -31.5 26.8Q-30 25.5 -29.15 25.5Q-28.6 25.5 -24.85 27.3L-20.25 29.35L-18.6 29.35L-18.05 26.95Q-17.55 25.25 -17.55 24.45L-17.55 24.4L-16.1 24.1M-16.25,23.85L-19.7 20.3L-22.3 17.45Q-22.3 16.85 -20.7 14.15L-19.15 11.3Q-19.15 10.95 -20.2 9.6Q-21.25 8.25 -21.25 7.55Q-21.25 6.45 -20.05 4.9L-18.75 3.35M-4,-7.25L-3.1 -7.8L-1.3 -7.8L-1.3 -7.55L-1.25 -6.55L-0.9 -2.95L-0.7 -1.15M-4,-7.25L-7.45 -5.6Q-10.4 -4.4 -11.55 -4.65L-12.45 -6.8Q-13.05 -8.25 -12.85 -8.85L-15.75 -8.85L-15.75 -8.95L-16.75 -8.15Q-17.7 -7.45 -18.6 -7.3Q-18.35 -6.3 -18.35 -4.15L-18.25 -4.1M5.4,3.1Q7.3 4.45 6.75 7.85L9.35 7.85L12.25 7.85Q11.45 10.25 12.95 12.65L15.4 16.5Q13.3 16.35 12.3 17.5Q11.75 18.1 11.55 19.1Q11.2 20.65 10.55 21.35Q9.9 22 9 22L6.3 21.35L4.3 19.9Q2.25 17.8 1.65 17.8Q0.8 17.8 -1.85 19.65L-4.45 21.35L-4.9 21.5L-5.75 21.35Q-6.95 20.95 -8.15 19.3L-10 16.25Q-11.4 16.7 -13.05 21.35L-13.9 23.85L-16.1 24.1M-18.65,3.4L-18.75 3.35M-18.3,-17.25L-18.25 -17.25Q-16.3 -17.25 -15.75 -16.1Q-15.55 -15.65 -15.6 -15L-15.75 -8.95L-15.25 -9.4M-18.3,-17.25L-22.05 -17L-22.05 -17.1L-23 -21.7L-23.55 -25.35L-23.6 -26.25" />
<path style="fill:none;stroke-width:1;stroke-linecap:butt;stroke-linejoin:miter;stroke-miterlimit:3;stroke:#8A1E1E;stroke-opacity:1" d="M41.2,-52L43.5 -50.85Q44.5 -53.7 43.8 -55.25Q43.2 -56.65 41.25 -57.25L40.55 -57.4Q38.9 -57.8 36.15 -58.9L35.25 -59.25L31.8 -60.7Q28.1 -61.95 26.4 -61.7Q25.3 -61.5 24.5 -60.75Q23.4 -59.85 23.05 -57.95L26.35 -56.8Q28.5 -55.45 32.65 -54.4L39.65 -52.6L41.2 -52M13.6,-32.4Q14.45 -35.15 16.95 -40.4Q19.6 -45.7 20.45 -48.55Q17.45 -50.25 18 -51.95L18.95 -54L19.15 -54.4L20.05 -56.45L20.1 -56.6L20.6 -57.9L20.85 -58.7L23.05 -57.95M20.45,-48.55Q20.95 -48.3 21.55 -48Q23.85 -46.95 27.6 -45.7Q29.25 -44.95 31.95 -43.95L34.55 -43L38.95 -41.35L39.15 -41.3Q39.9 -41 40.55 -40.85L42 -40.6Q42.9 -40.55 43.45 -40.95Q44.1 -41.45 45.4 -45.2Q46.55 -48.7 43.5 -50.85M33.8,-34.9L34.65 -36.95Q35.3 -38.8 34.5 -39.5Q33.95 -40.1 31.4 -40.95L28.6 -41.75Q27.85 -41.75 27.35 -41.3L27.05 -41.05M33.8,-34.9L33.25 -34.3Q32.6 -33.9 30 -34.8Q27.15 -35.75 26.45 -36.85Q25.7 -38.05 26.65 -40.3L26.95 -40.9L27.05 -41.05M29.15,-29.9L34.55 -30.1L36.9 -36L36.95 -36.05L38.95 -41.35M29.15,-29.9L26.6 -29.1L26.5 -29.05L25.7 -28.75L24.3 -28.05L21 -25.95L20.75 -25.75Q18.3 -24 16.2 -21.8L13.95 -19.55L9.65 -13.75Q2.95 -3.15 -0.2 -1.4L-0.7 -1.15Q-2.05 -0.55 -3.9 -0.4M-29.65,-16.2Q-32.95 -17.3 -34.75 -15.65L-35.65 -14.7L-37.4 -10.35M24.3,-28.05L20.05 -29.85L16.15 -31.55L13.6 -32.4Q9.6 -33.55 8 -33.35Q6.4 -33.15 5.2 -31.8M34.55,-30.1L36.05 -29.65L41.7 -27.65L50.35 -24.35L50.65 -24.2L51.05 -24.05Q54.15 -22.9 58.45 -22.15Q61.1 -21.1 59.5 -16.5L55.9 -7.8L54.3 -3.6Q54 -1.8 53.35 -0.55Q52.15 1.8 49.75 2.2Q47.4 2.55 43.9 1.3L40.8 0.15Q33.8 -2.3 29.9 -3.25Q22.05 -5.15 15.3 -4.55Q12.2 -4.25 9.5 -1.7L5.4 3.1L5.15 3.4Q2.65 6.5 0.55 7.5Q-2.25 9 -6 7.65Q-10.95 5.8 -18.65 3.4M-18.75,3.35L-19.45 3.15L-33.85 -1.25L-34.25 -1.35Q-35.9 -2 -36.85 -2.65Q-38.4 -3.7 -39.05 -5.5L-38.2 -8.05L-38.1 -8.25L-37.55 -9.9L-37.4 -10.35M15.6,-22.45Q12.75 -23.4 6.9 -25.65L2.8 -27.3L-1.8 -28.95L-7.95 -30.85L-9.25 -31.25L-10.95 -31.65L-14.3 -31.95L-17.4 -31.5L-18.9 -30.6M2.8,-27.3Q3.8 -30.3 5.2 -31.8M-1.25,-6.55L0.7 -6.2L3.6 -11.5Q6.25 -16.15 6.6 -17.3Q7 -18.4 6.35 -18.8L4.35 -19.45Q1.5 -20.4 0.9 -19.8L-0.05 -17.8L-1.35 -15.6Q-3.6 -11.75 -4.85 -7.55L-4 -7.25M-1.25,-6.55L-1.6 -6.65L-2.4 -6.85L-4 -7.25M-18.25,-4.1L-13.45 -2.25Q-7.65 -0.3 -3.9 -0.4M51.3,-11.85L51.1 -11.85Q50.55 -11.75 46.1 -13.25Q41.95 -14.65 41.6 -15.15Q41.3 -15.75 41.75 -17.95L42.2 -19.75L42.2 -19.95L42.25 -20.1L42.3 -20.25L42.35 -20.45L42.5 -20.7L43.1 -21.95L52.85 -18.65L53.3 -17L53.35 -15.45Q52.3 -12.3 51.3 -11.85M42.5,-20.7L42.3 -20.25M-14.3,-31.95Q-11.7 -36.75 -9.45 -42.75L-9.4 -42.85Q-10.25 -43.65 -10.4 -45.25Q-10.55 -46.8 -10.15 -48Q-9.5 -49.8 -8.4 -50.5L-7.25 -50.95Q-5.7 -51.2 -2.95 -50.3Q2.1 -48.6 0.55 -44Q-0.2 -41.8 -1 -41.35L-4.1 -40.85M-4.75,-40.5L-7.95 -30.85M-3.25,-45.8Q-3.1 -46.2 -3.9 -47.05L-5.15 -48.05L-6 -47.75L-6.25 -47.6L-6.4 -47.65L-7 -45.9L-6.4 -45.05L-5.6 -44.65Q-4.8 -44.4 -4.1 -44.65Q-3.5 -44.95 -3.25 -45.8M-22.05,-17.1L-19.75 -21.8L-18.2 -24.6L-17.5 -26Q-16.95 -26.65 -14.1 -25.7L-12.1 -25Q-11.45 -24.65 -11.85 -23.55Q-12.2 -22.4 -14.85 -17.75L-15.75 -16.1M-28.5,-15.65L-28.6 -15.35L-28.2 -15.35L-28.5 -15.65L-29.65 -16.2M-23.55,-25.35Q-21.15 -29.05 -18.9 -30.6M-28.2,-15.35Q-26.65 -14.1 -27.15 -11.5Q-27.9 -7.95 -25.3 -7.1L-19.75 -4.75L-18.35 -4.15M-9,-21.2L-8.2 -22.85Q-7.6 -23.5 -4.75 -22.55L-2.75 -21.85Q-2.1 -21.45 -2.5 -20.35Q-2.85 -19.2 -5.5 -14.6L-8.4 -9.3L-10.7 -9.75L-13.95 -10.6Q-12.7 -14.8 -10.45 -18.65L-9 -21.2" />
</g>
</svg>
