<?xml version="1.0" encoding="utf-8"?>
<svg version="1.1" id="Layer_1"
xmlns="http://www.w3.org/2000/svg"
xmlns:xlink="http://www.w3.org/1999/xlink"
xmlns:author="http://www.sothink.com"
width="47px" height="47px"
xml:space="preserve">
<g id="239" transform="matrix(1, 0, 0, 1, 22.45, 22.7)">
<path style="fill:#5B7979;fill-opacity:1" d="M16.3,-15.2Q22.8 -8.7 22.8 0.45Q22.8 9.6 16.3 16.1Q9.8 22.6 0.65 22.6Q-8.5 22.6 -15 16.1Q-21.45 9.6 -21.45 0.45Q-21.45 -8.7 -15 -15.2Q-8.5 -21.7 0.65 -21.7Q9.8 -21.7 16.3 -15.2" />
<path style="fill:none;stroke-width:2;stroke-linecap:butt;stroke-linejoin:miter;stroke-miterlimit:3;stroke:#2A3C3C;stroke-opacity:1" d="M16.3,-15.2Q22.8 -8.7 22.8 0.45Q22.8 9.6 16.3 16.1Q9.8 22.6 0.65 22.6Q-8.5 22.6 -15 16.1Q-21.45 9.6 -21.45 0.45Q-21.45 -8.7 -15 -15.2Q-8.5 -21.7 0.65 -21.7Q9.8 -21.7 16.3 -15.2z" />
<path style="fill:#C75454;fill-opacity:1" d="M0.9,-12.8L4 -10.1Q7.25 -7.35 7.95 -7.35Q9.2 -7.35 9.6 -7.8L9.8 -8.65Q9.8 -11 5.35 -13.1Q0.9 -15.2 0.9 -12.8M13.35,-5.4Q13.35 -7.25 11.9 -6.8Q10.4 -6.35 10.4 -5.45L10.55 -4.9Q10.9 -4.2 12 -4.2Q13.35 -4.2 13.35 -5.4M5.3,10.6Q-2.6 10.6 -8.85 6.55Q-15.5 2.25 -16 -4.7Q-14.85 -8.45 -11.85 -11.5Q-6.8 -16.5 0.35 -16.5Q7.5 -16.5 12.55 -11.5Q17.55 -6.45 17.55 0.7Q17.55 3.75 16.65 6.35Q10.8 10.6 5.3 10.6M-8.3,-5.35Q-11.5 -6.3 -11.5 -2.25L-10.8 -0.45Q-9.7 1.45 -7.75 1.45Q-5.05 1.45 -5.05 -1.6Q-5.05 -4.4 -8.3 -5.35M-1.05,2.5Q-1.05 0.9 -2.4 0.9Q-3.75 0.95 -3.75 2.55L-3.7 3.4Q-3.45 4.2 -2.4 4.2Q-1.05 4.2 -1.05 2.5" />
<path style="fill:#A33F3F;fill-opacity:1" d="M16.65,6.35Q15.4 10 12.55 12.9Q7.5 17.9 0.35 17.9Q-6.8 17.9 -11.85 12.9Q-16.85 7.85 -16.85 0.7Q-16.85 -2.2 -16 -4.7Q-15.5 2.25 -8.85 6.55Q-2.6 10.6 5.3 10.6Q10.8 10.6 16.65 6.35M-5.05,-1.6Q-5.05 1.45 -7.75 1.45Q-9.7 1.45 -10.8 -0.45L-11.5 -2.25Q-11.5 -6.3 -8.3 -5.35Q-5.05 -4.4 -5.05 -1.6M-2.4,4.2Q-3.45 4.2 -3.7 3.4L-3.75 2.55Q-3.75 0.95 -2.4 0.9Q-1.05 0.9 -1.05 2.5Q-1.05 4.2 -2.4 4.2" />
<path style="fill:#E79696;fill-opacity:1" d="M5.35,-13.1Q9.8 -11 9.8 -8.65L9.6 -7.8Q9.2 -7.35 7.95 -7.35Q7.25 -7.35 4 -10.1L0.9 -12.8Q0.9 -15.2 5.35 -13.1M12,-4.2Q10.9 -4.2 10.55 -4.9L10.4 -5.45Q10.4 -6.35 11.9 -6.8Q13.35 -7.25 13.35 -5.4Q13.35 -4.2 12 -4.2" />
<path style="fill:none;stroke-width:2;stroke-linecap:butt;stroke-linejoin:miter;stroke-miterlimit:3;stroke:#8C2D2D;stroke-opacity:1" d="M-16,-4.7Q-14.85 -8.45 -11.85 -11.5Q-6.8 -16.5 0.35 -16.5Q7.5 -16.5 12.55 -11.5Q17.55 -6.45 17.55 0.7Q17.55 3.75 16.65 6.35Q15.4 10 12.55 12.9Q7.5 17.9 0.35 17.9Q-6.8 17.9 -11.85 12.9Q-16.85 7.85 -16.85 0.7Q-16.85 -2.2 -16 -4.7z" />
</g>
</svg>
