<?xml version="1.0" encoding="utf-8"?>
<svg version="1.1" id="Layer_1"
xmlns="http://www.w3.org/2000/svg"
xmlns:xlink="http://www.w3.org/1999/xlink"
xmlns:author="http://www.sothink.com"
width="171px" height="270px"
xml:space="preserve">
<g id="346" transform="matrix(1, 0, 0, 1, 0.1, -299.45)">
<path style="fill:#000000;fill-opacity:0.2" d="M82.6,567.25Q76.95 565.25 76.95 562.3Q76.95 559.4 82.6 557.3Q88.15 555.25 96.15 555.25Q104.1 555.25 109.65 557.3Q115.3 559.4 115.3 562.3Q115.3 565.25 109.65 567.25Q104.1 569.35 96.15 569.35Q88.15 569.35 82.6 567.25" />
<path style="fill:#FC850F;fill-opacity:1" d="M117.55,527.95Q115.4 528.95 114.3 527.75Q112.45 525.7 113.15 516.35L114.5 504.8Q114.65 503.2 114.4 497.65L114.2 493.25L113.3 486.65Q95.6 492 76.95 486.65L76 493.5L75.8 497.9Q75.55 503.45 75.7 505.05L77.05 516.6Q77.75 525.95 75.9 528Q74.05 530.05 69.05 525.65L65.95 522.4L67.55 523.8L69.4 525.15L71.4 526.6Q73.2 527.7 74.5 527.7L75.1 527.55L75.35 527Q75.35 525.85 73.55 523.25L71.1 519.95L69.4 518.2L67.45 516.6L65.25 514.7Q63.25 513.4 61.95 514.15Q60.8 513.85 60.25 515.35Q59.85 516.3 59.85 517.25Q59.85 518.2 60.2 518.7L61.55 520.15L64 521.2L64.3 521.35L63.55 523.15Q62.05 525.35 59.35 524.7Q56.65 524.1 56.1 521.2L56.1 518.4L55.85 518.4Q54.55 518.35 53.4 517.2Q51.95 515.85 51.55 513.45Q51.2 511.25 53.7 508.95L56.25 507.1Q56.55 504.6 59.6 503.35Q62.5 502.2 64.65 503.25Q66.2 504 67.7 508.65Q68.8 503.35 69.05 497.9Q69.35 491.05 68.3 484Q58.55 478.7 50.5 470.05Q34.5 452.65 43.2 435.65Q47.65 426.9 50.05 415.15L51.55 405.15Q48.9 402.3 45.25 399.7Q38 394.5 33.2 395.7Q28.4 396.9 25.1 411.7L24.2 415.95Q23.2 421.15 22.7 426.25L26.3 426.65Q30.05 427.55 30.65 429.75Q31.3 432.2 29.15 434.6Q27.2 436.8 25.55 436.5Q24.75 436.35 22.45 433.7Q20.4 431.4 19.6 432Q18.9 432.5 21.2 436.85Q23.55 441.35 22.75 442.55Q21.6 444.3 19.6 444.7Q17.65 445.1 15.85 444.05L15.75 444L14.8 445.3Q13.45 446.5 11.65 446.3Q10.4 446.2 9.05 445.3Q7.45 444.35 6.95 442.85L6.9 442.65Q5.7 442.7 4.4 442.15Q1.8 441 1.45 437.85Q1.1 434.75 4.1 430.55L7.15 427Q8 421.7 9.8 415.95Q12.15 408.15 16.15 399.5Q23.05 384.4 27.4 383Q31.05 381.8 39 386Q42.95 388.1 46.2 390.45L45.35 387.65L45.15 387L45 386.4L43.75 381.85L41.7 372.65L37.65 373.05L43.35 361.6L35.6 363.4L43.75 353.8L36.6 352.15L47.05 347.05L40.9 343.15L51.2 341.75L51.05 339.4Q50.75 335.6 50.6 331.8L50.5 329.85L50.5 329.5L50.4 325.1L50.35 321.75L50.35 321.35Q50.35 301.6 54.6 300.95Q58.9 300.35 66.8 315.15L69.95 321.35L71.75 325.1L73.65 329.5L73.8 329.85L73.85 330.05L74.2 329.85L74.8 329.5L77.25 328.1Q80.95 326.1 82.7 325.95Q84.25 325.85 85.9 327.45Q87.65 329.1 88.6 329.2Q89.8 329.3 92.75 328.4L96.4 327.4Q97.9 327.4 100.35 329.5L100.5 329.65L100.6 329.5Q101.65 327.3 102.85 325.1L104.85 321.35L108.2 315.65Q116.65 301.9 120.55 303.2Q124.3 304.45 123.3 321.35L123.2 322.9L123.05 325.1L122.7 329.5L122.65 329.85L122.45 331.8L121.45 339.4L121.2 341.1L128.75 345.4L120.15 349.3L131.4 354.6L122.8 356.85L127.95 358.9L123.25 363.85L126.7 366.9L123.75 378.75L121.6 386.4L121.4 387L121.2 387.65L119.45 393L119.25 393.45L118.95 394.25Q127.25 388.05 131.2 385.95Q139.15 381.75 142.8 382.95Q147.15 384.35 154.05 399.45Q158.05 408.1 160.4 415.9Q162.2 421.65 163.05 426.95L166.1 430.5Q169.1 434.7 168.75 437.8Q168.4 440.95 165.8 442.1Q164.5 442.65 163.3 442.6L163.25 442.8Q162.75 444.3 161.15 445.25Q159.8 446.15 158.55 446.25Q156.75 446.45 155.4 445.25L154.45 443.95L154.35 444Q152.55 445.05 150.6 444.65Q148.6 444.25 147.45 442.5Q146.65 441.3 149 436.8Q151.3 432.45 150.6 431.95Q149.8 431.35 147.75 433.65Q145.45 436.3 144.65 436.45Q143 436.75 141.05 434.55Q138.9 432.15 139.55 429.7Q140.15 427.5 143.9 426.6L147.5 426.2Q147 421.1 146 415.9L145.1 411.65Q141.8 396.85 137 395.65Q132.2 394.45 124.95 399.65Q121.3 402.25 119.05 404.05Q121.75 417.3 132.85 428.8Q135 432.55 136.65 436.4Q141.8 448.75 139.6 457.35Q137.4 465.95 128.75 475.3Q125.15 479.25 121.8 482Q120.85 491.1 121.15 497.65Q121.4 503.1 122.5 508.4Q124 503.75 125.55 503Q127.7 501.95 130.6 503.1Q133.65 504.35 133.95 506.85L136.5 508.7Q139 511 138.65 513.2Q138.25 515.6 136.8 516.95Q135.65 518.1 134.35 518.15L134.1 518.15L134.1 520.95Q133.55 523.85 130.85 524.45Q128.15 525.1 126.65 522.9L125.8 520.75L127.35 519.65Q129.8 517.95 129.8 516.8L129.55 515.8L128.35 514.65Q127.4 513.85 127.05 513.7Q125.9 513.05 125 513.3Q123.75 513.8 122.55 515.1L120.55 517.4Q118.95 519.1 117.45 521.45Q115.45 524.55 115.45 526.25Q115.45 526.65 115.75 527.15Q116.25 527.95 117.3 527.95L117.55 527.95M64.35,318.85Q58.75 306.35 56.45 306.95Q54.3 307.5 54.45 321.35L54.45 323.05L54.5 325.1L54.7 329.5L54.7 329.85L54.8 331.8L55.2 338.45L58.3 335.8L61.35 337.45L62.2 333.95L65.05 334.6L65.45 331.1L69.55 331.5L68.95 329.85L68.85 329.5L67.05 325.1L65.45 321.35L64.35 318.85M75.35,360.15L76.9 363.7Q79.6 367.3 85.2 367.7Q93.2 368.3 99.1 363.95Q103.8 360.45 104.15 356.2L104.15 355.45L104.15 355.15L104.05 354.2Q103.8 352.65 103.05 351.4Q101.9 349.7 99.7 348.55Q98.4 347.9 96.95 347.55L94.4 347.2L94.35 347.2L94.6 346.9Q95.25 346 95.5 344.7Q96.1 341.8 93.4 339.4L93.2 339.25Q90.35 336.8 87.55 338.8L86.85 339.4Q85.95 340.25 85.35 341.35Q86.05 344 85.7 346.9L85.6 347.55L85.3 348.95Q83.5 349.9 81.8 351.4L82.55 350.65L83.1 350L83.95 349.3L84.55 348.6L84.8 348.3L84.95 347.95Q85.6 346.85 85.6 345.15L85.5 342.6L85.15 341.3Q85 340.4 84.65 339.95L84.55 339.9L82.8 337.8L82.2 337.6L81.95 337.5L81.8 337.35L81.2 337.25L80.95 337.1L80.4 337.1L79.55 337.1L79.15 337.05L79.05 337.1L77.65 337.1L76.35 337.3Q75.85 337.45 75.35 337.85L74.6 338.65L73.2 340.3L73.1 340.35Q72.5 341.6 72.25 342.4Q72 342.9 72 343.45L71.8 344.5L71.45 346.6L71.35 347.15L71.3 347.65Q71.15 347.95 71.15 348.75L71.55 353.75Q71.65 354.55 72.75 356.25L74 358.8L74.1 358.85Q74 358.95 74.25 359.35L74.6 359.85L74.8 359.9L76.35 358L76.9 357.1L77.3 356.7L75.35 360.15M77.55,356.35L77.6 356.1L77.8 356L77.65 356.2L77.55 356.35M79,354.3L78.4 355.15L78.15 355.45L78 355.65Q78.5 354.6 79.95 353.15L80.5 352.65L79 354.3M59.35,375.25L57.2 381.8Q55.5 388.85 57.45 391.4Q60.95 395.85 66.9 394.7Q69.1 394.3 70.35 393.65Q72.15 392.75 72.85 391.2Q73.5 389.75 72.05 385.9L70.5 382.3L67.7 381.85L66.4 381.5L65.3 381.15Q63 380.3 60.7 377.9L60.5 377.7L60.15 377.35Q59.7 376.85 59.45 375.85L59.4 375.65L59.35 375.25M51.6,376.25L50.05 376.45L48.65 376.7L47.35 377.05L46.25 377.25L45.5 377.35L44.5 377.65Q43.7 377.9 43.7 378.1L43.85 378.45L44 378.9L43.8 379.45L43.6 379.85L43.85 380.45L44.6 380.5L48.6 378.55Q49.55 378.1 51.05 377.55L53.15 376.7L53.25 376.5L53 376.25L51.6 376.25M51,381.6Q49.75 381.4 48.05 382.3Q45.15 383.75 45.15 384.1L45.3 384.45L45 384.85L45.1 385.1L46.65 384.65L48.25 383.7Q51.25 382.3 51.25 381.85L51 381.6M46.4,389.2L46.85 389.25Q46.5 389.45 46.5 389.75L46.85 390.15L46.7 390.3L46.6 390.55L46.7 390.8L47.1 390.85Q49.05 389.3 50.3 388.55L52.3 387.35L53.75 386.25L53.65 386Q51.4 386.3 49.6 387.1Q48.9 387.35 48 388.1L47 388.5Q46.15 388.85 46.15 389L46.2 389.15L46.4 389.2M47.95,393.8L48.2 393.85Q48.05 394.15 48.2 394.3L48.6 394.3L54.2 390.25L54.35 390L54.25 389.75L53.35 389.75Q51.9 390.15 51.1 390.75L47.95 392.4Q48.15 393.2 47.85 393.6L47.95 393.8M49.55,395.5L49.6 395.7L49.45 395.75L49.35 395.95L49.75 396.6L51.95 394.8L54.05 392.75L54 392.55Q53.4 392.45 52.75 392.9L51.6 393.85L50.3 394.7Q49.55 395.15 49.55 395.5M109.65,321.35L107.7 325.1L105.55 329.5L105.35 329.85L104.9 330.8L108.25 333.15L111.95 332.3L111.55 336.6L114.6 334.75L116.05 339.3L117.3 331.8L117.6 329.85L117.65 329.5L118.2 325.15L118.2 325.1L118.65 321.35Q119.75 310.7 118.1 310Q116.25 309.2 110.4 319.9L109.65 321.35M117.2,378.45L119.8 379.35L122.5 380.05L123.2 379.95L123.3 379.75L123.2 379.55L123.1 379.35L123.3 379.1Q123.35 378.9 122.55 378.7L121.1 378.35L117.25 377.75L117.15 377.85L117 378.05L117.2 378.45M117.75,383.3L119.1 383.8L120.15 384.2L121.55 384.6L121.8 384.5L121.85 384.25L121.7 383.65L121.25 383.35L120.75 383.15L119.75 382.7L117.6 382.5L117.35 382.6Q117.25 383.05 117.75 383.3M121.1,386.75L121 386.55L121.6 386.3L121.35 385.85L117.85 385.05L113.75 384.25L113.5 384.3Q113.45 384.9 114.5 385.4L116 386.05L118.05 386.75L120.35 387.3L120.65 387.05L120.95 387L121.1 386.75M120.1,388.75Q120.1 388.3 117.6 387.8L113.6 387.25L113.35 387.5L113.55 387.8Q116.6 389.25 117.55 389.35L119.1 389.6L119.85 389.85L119.95 389.7L120 389.55L119.9 389.4L119.75 389.2L120.1 388.75M115.8,393L118.7 394L119.25 393.45L119 393.15L119.35 392.85Q119.35 392.5 118.55 392.3L117 392Q115 391.45 113.6 391.35L113.25 391.75L113.35 392.05L115.8 393M74.2,400.7L73.1 401.3L72.3 401.45L70.8 401.55L68.65 401.35L67.9 400.9L67.5 400.9L67.45 400.95L67.4 400.95L67.4 401L67.3 401.2L67.35 401.25L67.35 401.3L68.6 402.15L69.05 402.5Q70 403.05 71.55 403.05L72.85 403L74.35 401.75L75.25 400.7L75.15 400.4L74.2 400.7M57.6,400.7L60.5 398L60.4 397.75L59.3 398.05L58.3 398.3L56.55 399.3L54.9 400.25Q53.8 400.95 53.6 401.35L54.2 401.6Q53.95 402.15 54.35 402.25L54.5 402.5L54.6 402.7L54.85 402.75L56.4 401.75L57.6 400.7" />
<path style="fill:#E66006;fill-opacity:1" d="M117.3,527.95Q116.25 527.95 115.75 527.15Q115.45 526.65 115.45 526.25Q115.45 524.55 117.45 521.45Q118.95 519.1 120.55 517.4L122.55 515.1Q123.75 513.8 125 513.3Q125.9 513.05 127.05 513.7Q127.4 513.85 128.35 514.65L129.55 515.8L129.8 516.8Q129.8 517.95 127.35 519.65L125.8 520.75L125.6 520.9L124.1 522.35L123.65 522.8L121.45 525.1L121.15 525.4L121 525.55L120.1 526.5Q118.8 527.8 117.55 527.95L117.3 527.95M65.95,522.4L65.8 522.25Q65.25 521.75 64.3 521.35L64 521.2L61.55 520.15L60.2 518.7Q59.85 518.2 59.85 517.25Q59.85 516.3 60.25 515.35Q60.8 513.85 61.95 514.15Q63.25 513.4 65.25 514.7L67.45 516.6L69.4 518.2L71.1 519.95L73.55 523.25Q75.35 525.85 75.35 527L75.1 527.55L74.5 527.7Q73.2 527.7 71.4 526.6L69.4 525.15L67.55 523.8L65.95 522.4M65.45,321.35L67.05 325.1L68.85 329.5L68.95 329.85L69.55 331.5L65.45 331.1L65.05 334.6L62.2 333.95L61.35 337.45L58.3 335.8L55.2 338.45L54.8 331.8L54.7 329.85L54.7 329.5L54.5 325.1L54.45 323.05L54.45 321.35Q54.3 307.5 56.45 306.95Q58.75 306.35 64.35 318.85L65.45 321.35M110.4,319.9Q116.25 309.2 118.1 310Q119.75 310.7 118.65 321.35L118.2 325.1L118.2 325.15L117.65 329.5L117.6 329.85L117.3 331.8L116.05 339.3L114.6 334.75L111.55 336.6L111.95 332.3L108.25 333.15L104.9 330.8L105.35 329.85L105.55 329.5L107.7 325.1L109.65 321.35L110.4 319.9" />
<path style="fill:#FF6D6B;fill-opacity:1" d="M89.5,347.5L89.65 347.5L90.15 347.4L94.35 347.2L94.4 347.2L96.95 347.55Q98.4 347.9 99.7 348.55Q101.9 349.7 103.05 351.4Q103.8 352.65 104.05 354.2L104.15 355.15L104.15 355.45L104.15 356.2Q103.8 360.45 99.1 363.95Q93.2 368.3 85.2 367.7Q79.6 367.3 76.9 363.7L75.35 360.15L77.3 356.7L77.55 356.35L77.65 356.2L77.8 356L77.9 355.9L78 355.65L78.15 355.45L78.4 355.15L79 354.3L80.5 352.65L81.45 351.75L81.7 351.5L81.8 351.4Q83.5 349.9 85.3 348.95Q87.15 347.95 89.1 347.55L89.5 347.5" />
<path style="fill:#FF2E28;fill-opacity:1" d="M59.4,375.65L59.45 375.85Q59.7 376.85 60.15 377.35L60.5 377.7L60.7 377.9Q63 380.3 65.3 381.15L66.4 381.5L67.7 381.85L70.5 382.3L72.05 385.9Q73.5 389.75 72.85 391.2Q72.15 392.75 70.35 393.65Q69.1 394.3 66.9 394.7Q60.95 395.85 57.45 391.4Q55.5 388.85 57.2 381.8L59.35 375.25L59.4 375.65M64.2,381.3L63.45 380.85L63.2 384.4Q63.2 386.1 63.5 387.2Q64.05 389.4 64.85 390.1L65.05 390L65.1 389.4L64.85 387.75L65.05 386.4L65.35 384.85Q65.35 384.4 65.7 383.35L66.25 382.45L66.7 381.85L66.65 381.65L66.55 381.6L65.85 381.6L65.75 381.6L65.5 381.4L64.8 381.3L64.2 381.3" />
<path style="fill:#FFFFFF;fill-opacity:1" d="M81.7,351.5L81.45 351.75L80.5 352.65L79.95 353.15Q78.5 354.6 78 355.65L77.9 355.9L77.8 356L77.6 356.1L77.55 356.35L77.3 356.7L76.9 357.1L76.35 358L74.8 359.9L74.6 359.85L74.25 359.35Q74 358.95 74.1 358.85L74 358.8L72.75 356.25Q71.65 354.55 71.55 353.75L71.15 348.75Q71.15 347.95 71.3 347.65L71.35 347.15L71.45 346.6L71.8 344.5L72 343.45Q72 342.9 72.25 342.4Q72.5 341.6 73.1 340.35L73.2 340.3L74.6 338.65L75.35 337.85Q75.85 337.45 76.35 337.3L77.65 337.1L79.05 337.1L79.15 337.05L79.55 337.1L80.4 337.1L80.95 337.1L81.2 337.25L81.8 337.35L81.95 337.5L82.2 337.6L82.8 337.8L84.55 339.9L84.65 339.95Q85 340.4 85.15 341.3L85.5 342.6L85.6 345.15Q85.6 346.85 84.95 347.95L84.8 348.3L84.55 348.6L83.95 349.3L83.1 350L82.55 350.65L81.8 351.4L81.7 351.5M89.1,347.55Q87.15 347.95 85.3 348.95L85.6 347.55L85.7 346.9Q86.05 344 85.35 341.35Q85.95 340.25 86.85 339.4L87.55 338.8Q90.35 336.8 93.2 339.25L93.4 339.4Q96.1 341.8 95.5 344.7Q95.25 346 94.6 346.9L94.35 347.2L90.15 347.4L90.2 347.35L90.25 347.25L89.85 346.95L90.65 346.05L90.95 345L90.95 344.95Q90.95 343.85 90.2 343.4L89.6 343L88.55 343.15Q87.45 343.45 87.45 345.4L87.7 346.55L88.55 347.1L89.5 347.5L89.1 347.55M78.4,348.6Q79.25 349.95 80.45 349.8L80.95 349.8L81.2 349.75L81.75 349.15L82.6 347.8L82.65 346.3Q82.65 343.15 80.25 343.5Q77.8 343.85 77.8 346.9Q77.8 347.6 78.4 348.6" />
<path style="fill:#582903;fill-opacity:1" d="M77.8,346.9Q77.8 343.85 80.25 343.5Q82.65 343.15 82.65 346.3L82.6 347.8L81.75 349.15L81.2 349.75L80.95 349.8L80.45 349.8Q79.25 349.95 78.4 348.6Q77.8 347.6 77.8 346.9M53,376.25L53.25 376.5L53.15 376.7L51.05 377.55Q49.55 378.1 48.6 378.55L44.6 380.5L43.85 380.45L43.6 379.85L43.8 379.45L44 378.9L43.85 378.45L43.7 378.1Q43.7 377.9 44.5 377.65L45.5 377.35L46.25 377.25L47.35 377.05L48.65 376.7L50.05 376.45L51.6 376.25L53 376.25M51.25,381.85Q51.25 382.3 48.25 383.7L46.65 384.65L45.1 385.1L45 384.85L45.3 384.45L45.15 384.1Q45.15 383.75 48.05 382.3Q49.75 381.4 51 381.6L51.25 381.85M46.2,389.15L46.15 389Q46.15 388.85 47 388.5L48 388.1Q48.9 387.35 49.6 387.1Q51.4 386.3 53.65 386L53.75 386.25L52.3 387.35L50.3 388.55Q49.05 389.3 47.1 390.85L46.7 390.8L46.6 390.55L46.7 390.3L46.85 390.15L46.5 389.75Q46.5 389.45 46.85 389.25L46.4 389.2L46.2 389.15M47.85,393.6Q48.15 393.2 47.95 392.4L51.1 390.75Q51.9 390.15 53.35 389.75L54.25 389.75L54.35 390L54.2 390.25L48.6 394.3L48.2 394.3Q48.05 394.15 48.2 393.85L47.95 393.8L47.85 393.6M50.3,394.7L51.6 393.85L52.75 392.9Q53.4 392.45 54 392.55L54.05 392.75L51.95 394.8L49.75 396.6L49.35 395.95L49.45 395.75L49.6 395.7L49.55 395.5Q49.55 395.15 50.3 394.7M64.8,381.3L65.5 381.4L65.75 381.6L65.85 381.6L66.55 381.6L66.65 381.65L66.7 381.85L66.25 382.45L65.7 383.35Q65.35 384.4 65.35 384.85L65.05 386.4L64.85 387.75L65.1 389.4L65.05 390L64.85 390.1Q64.05 389.4 63.5 387.2Q63.2 386.1 63.2 384.4L63.45 380.85L64.2 381.3L64.8 381.3M89.65,347.5L89.5 347.5L88.55 347.1L87.7 346.55L87.45 345.4Q87.45 343.45 88.55 343.15L89.6 343L90.2 343.4Q90.95 343.85 90.95 344.95L90.95 345L90.65 346.05L89.85 346.95L90.25 347.25L90.2 347.35L90.15 347.4L89.65 347.5M117,378.05L117.15 377.85L117.25 377.75L121.1 378.35L122.55 378.7Q123.35 378.9 123.3 379.1L123.1 379.35L123.2 379.55L123.3 379.75L123.2 379.95L122.5 380.05L119.8 379.35L117.2 378.45L117 378.05M117.35,382.6L117.6 382.5L119.75 382.7L120.75 383.15L121.25 383.35L121.7 383.65L121.85 384.25L121.8 384.5L121.55 384.6L120.15 384.2L119.1 383.8L117.75 383.3Q117.25 383.05 117.35 382.6M120.95,387L120.65 387.05L120.35 387.3L118.05 386.75L116 386.05L114.5 385.4Q113.45 384.9 113.5 384.3L113.75 384.25L117.85 385.05L121.35 385.85L121.6 386.3L121 386.55L121.1 386.75L120.95 387M119.75,389.2L119.9 389.4L120 389.55L119.95 389.7L119.85 389.85L119.1 389.6L117.55 389.35Q116.6 389.25 113.55 387.8L113.35 387.5L113.6 387.25L117.6 387.8Q120.1 388.3 120.1 388.75L119.75 389.2M113.35,392.05L113.25 391.75L113.6 391.35Q115 391.45 117 392L118.55 392.3Q119.35 392.5 119.35 392.85L119 393.15L119.25 393.45L118.7 394L115.8 393L113.35 392.05M75.15,400.4L75.25 400.7L74.35 401.75L72.85 403L71.55 403.05Q70 403.05 69.05 402.5L68.6 402.15L67.35 401.3L67.35 401.25L67.3 401.2L67.4 401L67.4 400.95L67.45 400.95L67.5 400.9L67.9 400.9L68.65 401.35L70.8 401.55L72.3 401.45L73.1 401.3L74.2 400.7L75.15 400.4M56.4,401.75L54.85 402.75L54.6 402.7L54.5 402.5L54.35 402.25Q53.95 402.15 54.2 401.6L53.6 401.35Q53.8 400.95 54.9 400.25L56.55 399.3L58.3 398.3L59.3 398.05L60.4 397.75L60.5 398L57.6 400.7L56.4 401.75" />
<path style="fill:#000000;fill-opacity:0.2" d="M61.35,307.2Q60.95 305.8 60 304.7L60.5 305.1L60.85 305.45Q63.5 308.95 66.8 315.15L69.95 321.35L71.4 324.35Q70.95 324.7 70.95 325.15L70.95 325.25L70.75 324.8L68.15 319.65L66.9 316.65L66.15 315.3L65.6 314.6L65 313.95L64.25 312.45L63.6 311L62.7 309.4Q61.9 308.15 61.55 308.15L61.3 308.3L60.75 307.7Q59.8 306.9 59.7 306.5L59.25 305.85L59.3 305.7L60.2 306.65Q60.65 307.35 60.95 307.35L61.35 307.2M62.55,310.55L62.25 310.05L62.25 309.95L62.6 310.5L62.55 310.55M65.75,318.45L67.5 321.8L69.05 325.05L70.8 328.35L71.3 329.5L70.8 330.45L70.35 331.4Q69.8 332.1 68.45 332.1L66.15 331.95Q65.25 332.4 65.4 333.55Q65.6 334.8 64.8 335.25L64.25 335.3Q64.2 335.05 63.6 334.95L62.4 334.7Q61.65 335.2 61.45 336.2L61.05 337.8Q59.35 336.45 58.5 336.45L56.4 338L54.75 339.35L54.75 339.15L54.8 339.15L54.95 338.7L54.75 337.25L54.65 336.3Q53.85 330.6 53.75 328.5Q53.25 320.4 53.25 318.15L53.4 314.85L53.75 314.7Q53.75 313.4 53.9 312.35L54.15 310.05Q54.35 308.3 54.65 307.35Q55.15 305.55 56.95 305.55Q57.35 305.55 58 305.85L58.3 306Q60.6 308.5 62.5 311.9L65.75 318.45M56.6,302.85L56.25 302.85Q54.15 304.05 53.55 306.4Q53.2 307.7 52.95 310.35L52.65 314.1L52.55 318.05Q52.55 321.15 53.1 328.65Q53.2 331.6 53.7 335.2L54 337.15L53.95 340.65Q53.95 341.15 54.6 341.4L55.05 341.4L55.2 341.9L54.7 343.15Q54.15 344.1 54.15 344.4Q54.15 344.8 55 345.15Q55.85 345.55 55.85 346.05Q55.85 346.7 53.65 348.95Q51.45 351.15 51.45 351.65Q51.45 352.05 52.05 352.4L52.65 352.95L52.5 353.3L52.35 353.6Q52.35 354 52.7 354L55.2 354.3Q55.55 354.45 55.95 354.75Q55.35 355.2 53.65 357.15Q51.6 359.4 51.6 360.1L52.05 360.75L52.65 360.8L52.8 361.4L52.65 361.4Q52.65 361.8 53 362.55Q53.45 363.45 54 363.45L56.25 362.4L57.65 360.9L59.2 359.15Q59.75 358.35 60.55 357.95Q60.05 359.65 59.45 364.8L59.1 372.15Q58.9 376.75 57.6 379.35Q56.15 382.3 56.15 386.75L56.15 388.95Q56.25 390.2 56.85 391.25Q57.5 392.45 59.1 393.45Q60.25 394.25 61.25 394.45L66.95 394.95Q66.95 395.35 67.4 395.75L67.4 395.8L67.45 395.8L68.05 396.2L69.8 397.1Q71.65 398.45 73.1 398.9Q77.85 400.45 86.6 401.55L88.45 401.7Q93.9 401.7 100.95 399.35Q109.2 396.55 115.65 391.65L119.8 388.95L121.05 388.1L119.45 393L119.25 393.45L118.95 394.25L122.4 391.75L121.8 393Q121.25 394.35 121.2 395.3L120.75 396.4L120.25 397.85L120.2 397.85L117.65 402Q116.6 403.95 114.45 406.2L109.85 410.1Q107.85 411.5 103.45 413.2L96.9 415.65Q94.25 416.8 87.3 417.75L80.85 418.85L72.05 419.9Q64.9 419.9 61.95 418.55L58.95 417.2Q57.2 417.2 56.05 419.65L53.9 424.55Q52.35 427.25 51.85 428.65L51.8 428.85Q51.45 429.4 51.15 430.7Q50.9 431.85 50.9 433.6L51.35 438.15Q51.5 439.35 52.85 442.8L54.3 447.4Q55.15 450.25 56.45 452.1Q57.95 454.2 61 456.7Q64.2 459.25 67.8 461.25Q71.95 463.55 76.75 464.6Q82.95 465.9 97.2 466.95L97.5 467.1L101.55 467.15L103.9 467.25L103.85 467.15L107.7 467.1L114.35 466.5L118.2 465.75L123.6 463.85Q125.65 463.1 128.25 461.05L132.15 457.95L136.3 455.05L139.65 452L140.25 451.25Q140.35 454.5 139.6 457.35Q137.4 465.95 128.75 475.3Q125.85 478.5 123.1 480.9Q122.25 481.15 121.2 481.75Q119.35 482.75 118.8 483.6Q118.35 484.35 118.15 485.5L117.9 487.5Q117.45 490.2 117.45 495.4Q117.45 502.05 117.9 504.8L118.4 509.55Q118.65 514.2 119.9 514.2Q120.4 514.2 121.25 511.65L122.25 508.35L122.4 507.85L122.5 508.4Q124 503.75 125.55 503Q126.05 502.75 126.6 502.65L126.55 502.65Q125.55 503.35 124.95 504.2Q124.05 505.55 124.05 507.15Q124.05 508.45 124.75 509.4Q126.05 511.2 129.4 511.2Q132.55 511.2 134.45 507.9L134.75 507.4L136.5 508.7Q138.6 510.65 138.7 512.55L137.75 514.35L136.8 515.15Q137.7 514.35 137.7 512.7Q137.7 511.65 137.05 510.25Q136.3 508.55 135.35 508.65Q135 508.5 133.6 509.95L132.6 511.3Q132.15 511.6 132.05 512L132 512.9Q132 513.8 132.65 514.7Q133.65 516.15 135.75 516.15Q137.05 516.15 138.1 515.15L136.8 516.95Q135.65 518.1 134.35 518.15L134.1 518.15L134.1 518.75L133.65 518.45Q131.45 517 130.5 518.1Q129.35 519.35 128.95 520.15Q128.4 521.1 128.4 522.15Q128.4 522.95 129 523.9L129.6 524.6Q127.8 524.55 126.65 522.9L125.8 520.75L125.6 520.9L125.45 521.05L125.6 520L125.55 519.15L123.9 519.2Q116.7 525.05 115.15 528.3L114.3 527.75Q112.45 525.7 113.15 516.35L114.5 504.8Q114.65 503.2 114.4 497.65L114.2 493.25L113.3 486.65Q95.6 492 76.95 486.65L76.9 486.95L76.4 486.6Q74.7 485.5 73.2 484.95Q72.55 485.85 72.1 489.05Q71.75 491.7 71.75 493.85Q71.75 496.3 72.6 508.55L73.05 522.95Q73.1 524.05 73.8 527L74.7 528.65Q72.7 528.9 69.05 525.65L65.8 522.25Q65.25 521.75 64.3 521.35L63.55 523.15Q62.05 525.35 59.35 524.7Q56.65 524.1 56.1 521.2L56.1 518.4L55.85 518.4Q54.55 518.35 53.4 517.2Q51.95 515.85 51.55 513.45Q51.2 511.25 53.7 508.95L56.25 507.1Q56.55 504.6 59.6 503.35Q62.5 502.2 64.65 503.25Q66.2 504 67.7 508.65Q68.8 503.35 69.05 497.9Q69.35 491.05 68.3 484Q58.55 478.7 50.5 470.05Q34.5 452.65 43.2 435.65Q47.65 426.9 50.05 415.15L51.55 405.15Q49.6 403.05 47.1 401.05L46.85 400.5L47.75 401.1Q48.15 401.1 48.05 400.95L48.15 400.9L48.15 400.65L47.3 399.8L45.75 397.85Q44.7 396.15 43.35 394.8Q39.25 390.8 36.65 389.55L34.65 388.4L30.9 388.5L29.6 389.1Q28.25 389.75 26.85 391.8Q24.85 395 23.55 397.8L20.65 403.65Q18.95 407.15 18.15 409.5Q17.15 412.3 16.45 415.3Q15.45 419.2 15.45 421.4Q15.45 423.05 16.8 432.9L17.3 438.65Q17.4 440.55 18.2 441.45L19.8 442.7Q20.9 443.4 21.9 443.55Q20.95 444.45 19.6 444.7Q17.65 445.1 15.85 444.05L15.75 444L14.8 445.3Q13.45 446.5 11.65 446.3Q10.4 446.2 9.05 445.3Q7.45 444.35 6.95 442.85L6.9 442.65Q5.7 442.7 4.4 442.15Q1.8 441 1.45 437.85Q1.1 434.75 4.1 430.55L7.15 427Q8 421.7 9.8 415.95Q12.15 408.15 16.15 399.5Q23.05 384.4 27.4 383Q31.05 381.8 39 386Q42.95 388.1 46.2 390.45L45.35 387.65L45.15 387L45 386.4L43.75 381.85L41.7 372.65L37.65 373.05L43.35 361.6L35.6 363.4L43.75 353.8L36.6 352.15L47.05 347.05L40.9 343.15L51.2 341.75L51.05 339.4Q50.75 335.6 50.6 331.8L50.5 329.85L50.5 329.5L50.4 325.1L50.35 321.75L50.35 321.35Q50.35 301.6 54.6 300.95Q56.55 300.7 59.25 303.55Q58.7 303.25 58.2 303.1L56.6 302.85M57.7,310.8Q55.9 308.2 55.05 310.35Q54.45 311.65 54.45 316.8Q54.45 320 54.6 321.6L54.6 327.45L54.9 331.25Q55.15 333.65 55.9 333.65Q56.7 333.65 58 331.4L59.55 328.4L59.55 329Q59.65 329.25 60.05 329.25Q60.8 329.25 61.8 326.55L62.2 327.6Q62.55 328.4 62.9 328.4Q63.25 328.4 63.3 327.9L63.3 327.2Q63.3 324.65 61.9 320.6L59.55 314.25L57.7 310.8M76.6,336.75L76.45 336.85L75.75 337.65L74.75 339.2L74.35 340.7L74 342.5Q74 344.55 74.6 346.05Q75.85 349.05 79.05 349.05Q82.8 349.05 84.5 345.6Q85.5 343.55 85.5 341.45L85.45 340.6L85.5 340.65Q85.95 339.65 86.5 339Q87.5 337.8 90 337.8Q93.25 337.8 94.65 340.65L95.7 342.5L95.85 344L95.55 345.95Q95.55 346.25 98.35 347.7Q101.4 349.3 102.3 351.3Q104.55 356.05 104.55 357.45Q104.55 359.65 103.7 362.65Q102.75 366.1 101.3 367.85L99.3 370.4Q98 371.85 96.45 372.6L94.45 373.85L92.4 374.75L90.4 375.65L84.5 376.25L83.1 376.25Q78.25 375.45 76.4 373.3Q75.7 372.5 74.7 369.45Q74.3 368.2 74.5 365.7Q74.65 363.15 74.3 361.85L73.05 358.2L72.55 356.35Q72.15 355.15 71.4 354.3L67.75 350.65Q65.05 348.4 62.4 347.85Q65.7 346 68.2 343.6L72.8 339Q74.5 337.55 76 336.95L76.6 336.75M59.8,371.9L59.9 372.9Q59.9 376.7 63.1 378.9Q67.2 381.7 77.15 382.65L82.05 382.65Q89.15 381.85 95.55 380.25L105 377.55Q108.6 376.55 112.2 374.35Q115.3 372.45 117.75 370.1L117.75 370.2Q116.25 375.25 110.1 378.6Q105.6 381 95.85 384.15L87.25 386.3L77.55 388.5L75.2 389Q73.75 389.35 73.5 389.7L73.1 390.8L72.75 391.95L70.25 393.95L68.35 394.7L68.2 394.45L66.85 394.2L63.75 394.2L62.85 393.75L60.4 393.6L59.75 393.15Q58.2 392.2 57.6 391.05Q56.9 389.6 56.85 388.8L56.85 386.8Q56.85 382.7 58.25 379.65Q59.75 376.6 59.75 372.5L59.8 371.9M59.7,389.55Q60.05 390.45 60.75 391.2Q61.7 392.3 62.85 392.4L63.5 391.5L63.75 390.6L63.45 387.15L62.6 383.6Q61.55 380.95 60.3 382.5Q59.1 383.95 59.1 386.4Q59.1 387.55 59.7 389.55M69.6,384.3Q68 383.35 67.55 385.15Q67.4 385.7 67.4 387.45L67.5 389.2Q67.7 390.1 68.55 390.95L69.65 391.05Q70.95 391.05 70.95 388.75L70.6 386.35Q70.2 384.65 69.6 384.3M122.25,311.55L122.3 311.45L122.3 311.55L122.25 311.55M123.25,312.25L122.65 309.35Q122.1 307.05 120.05 305.7Q118.75 305.2 116.5 307.55L113.25 311.55Q111.6 313.7 109.2 317.7Q108 319.6 106.1 323.35Q103.95 327.6 103.65 329.5Q102.95 330.35 102.05 330.5Q101.2 330 100.8 329.15L102.85 325.1L104.85 321.35L108.2 315.65Q116.65 301.9 120.55 303.2Q123.15 304.05 123.5 312.7L123.25 312.25M122.45,331.8L122.15 334.4L121.35 337.25L120.5 340.2L120.35 340.2L120.55 339.45L120.75 337.85L121.65 334.8L122.7 328.8L122.75 328.85L122.7 329.5L122.65 329.85L122.45 331.8M120.9,315.1L120.35 326.55Q120.45 327.5 119.45 331.8Q118.6 335.35 118.4 337.25L118.3 337.4Q117 339.5 116 339.5Q115.4 339.5 115.15 338Q114.9 336.25 114.3 335.75L113.7 335.75L112.05 337.05L111.65 337.05L111.15 336L111.5 333.5L111.05 332.7L110.1 332.7Q109.15 333.3 108.3 333.3Q106.95 333.3 105.6 332.2Q104.8 331.55 104.55 331.1L104.6 331.05L104.45 330.65L104.45 330.6L104.6 330.45Q104.7 329.55 106.95 324.95L108.35 322.35Q109.1 320.65 109.95 319.5Q112.3 315.7 113.75 313.8L115.7 310.9Q116.85 309.3 119.1 308.25Q120.1 308.75 120.4 309.8L120.6 311.55L120.9 315.1M116.7,312.5Q115.95 311.65 115 312.6L114 313.85Q113.05 314.75 112.15 316.4L110.85 318.75L108.6 323.45Q106.5 328 106.5 328.8L106.55 329.3Q106.65 329.55 107.1 329.6L107.7 329.6L110.25 328.2L110.25 328.5L110.7 328.65Q111.35 328.65 112.4 327.6L112.5 327.75L112.5 329.3L112.85 329.4Q114.7 329.4 115.95 322.4Q116.9 317.3 116.9 315L116.7 312.5M88,339.15Q87.3 340.35 87.3 341.2Q87.3 341.9 88.1 342.95Q89.3 344.4 91.3 344.4Q93.9 344.4 93.9 342Q93.9 339.85 90.65 338.4Q89.05 337.45 88 339.15M82.75,337.25L84.3 338.3L84.65 338.8L83.15 337.55Q81.15 336.4 78.05 336.45Q79.5 336.2 81.15 336.45Q81.55 336.5 82.75 337.25M121.35,340L121.4 339.9L121.4 340L121.35 340M102.8,353.7Q102.8 351.35 100.95 349.75Q98.15 347.3 91.7 347.4L87.15 348L85.8 348.4Q85.05 348.6 84.6 348.9L81.75 351.2Q78.5 353.7 78.5 356Q78.5 358.3 82.35 359.9Q85.55 361.2 88.6 361.2Q92.3 361.2 96 359.65Q97.9 358.9 99 358.1L102.1 355.75Q102.8 355 102.8 353.7M140.25,390.35Q141.3 390.85 141.75 391.55L142.9 392.8L144 394.05L147.05 399.15Q148.35 401.2 149.25 404.15L150.75 409.4L151.15 411.9L151.5 414.6Q151.8 415.55 151.65 417.15L151.65 419.7Q152.05 423.25 152.55 424.8Q153.45 427.5 153.45 429.95Q153.45 433.65 153 434.55L151.8 437.1Q151.2 438.35 151.2 439.35Q151.2 439.95 151.55 440.8Q152 441.8 152.7 442.05L153.05 442.05L154.9 440.95Q155.75 440.15 155.85 439.55L156.1 438Q156.25 437.05 156.9 436.7Q157.3 437.25 157.5 438.15L157.8 439.55Q157.8 440.05 158.5 441Q159.4 442.25 160.65 442.25Q161.6 442.25 162.2 440.7Q162.6 439.6 162.6 438.75L162.25 436.5L161.85 434.75L161.9 434.35Q162.05 433.95 162.6 433.95Q162.9 433.95 163.65 435.85Q164.45 437.7 166.95 437.7Q168.4 437.7 168.75 436.95L168.8 436.9L168.75 437.8Q168.4 440.95 165.8 442.1Q164.5 442.65 163.3 442.6L163.25 442.8Q162.75 444.3 161.15 445.25Q159.8 446.15 158.55 446.25Q156.75 446.45 155.4 445.25L154.45 443.95L154.35 444Q152.55 445.05 150.6 444.65Q148.6 444.25 147.45 442.5Q146.65 441.3 149 436.8Q151.3 432.45 150.6 431.95Q149.8 431.35 147.75 433.65Q145.45 436.3 144.65 436.45Q143 436.75 141.05 434.55Q138.9 432.15 139.55 429.7Q140.15 427.5 143.9 426.6L147.5 426.2Q147 421.1 146 415.9L145.1 411.65Q141.8 396.85 137 395.65Q132.2 394.45 124.95 399.65L119.8 403.5L119.4 401.45L120.05 400.7L120.95 399.75L121.75 398.6Q125.75 395.45 128.4 393.65L132.25 391.15Q135.3 389.5 137.45 389.55Q139 389.7 140.25 390.35M30.65,432.1L30.2 432.45L29.4 432.45Q27.45 432.45 25.15 430.65Q22.95 428.95 22.95 427.95Q22.95 427.15 23.35 426.6L23.55 426.35L26.3 426.65Q30.05 427.55 30.65 429.75Q30.95 430.95 30.65 432.1M65.2,504.4Q64 503.3 61.65 503.1Q60.1 503.35 58.6 504.2Q57 505.05 57 505.85Q57 507.5 57.35 508.2L57.95 508.8L59.25 509.1L61.15 509.1L63 509.3Q64.4 510.05 65.5 511.65Q66.7 513.4 67.65 514.05L68.55 513.9L68.55 512.85Q68.55 511.4 67.85 509.65L66.3 506.15L65.2 504.4M54.35,509Q52.65 509.85 52.5 510.45L52.05 511.45Q51.9 511.7 51.9 512.1Q51.9 513.75 52.15 514.25Q52.55 515.1 54.1 515.1Q56.4 515.1 56.6 511.5Q56.2 509.55 55.4 509L54.35 509M56.4,521.25Q56.4 522.05 56.85 522.75Q57.3 523.45 58.5 524L59.7 524.15L60.9 523.95L61.2 522.95Q61.2 522.2 60.85 521.6L59.55 519.95Q59.05 519.55 58 519.55L56.85 519.75Q56.4 520.1 56.4 521.25M116.1,528.3L116.1 528.4L116.05 528.4L116.1 528.3" />
<path style="fill:#FFFFFF;fill-opacity:0.4" d="M101.25,354.45Q100.5 355.1 99.2 355.4L96.25 356.15L92.4 356.2L88.6 355.75Q86.55 355.25 85.65 354.7L83.95 353.6L83.45 352.95L83.45 352.45Q83.45 351.7 84.1 350.95Q84.8 350.15 85.9 349.65L88 348.55Q89.5 347.8 91.25 347.45L94.9 347.45Q98.5 347.7 100.65 349.45Q102.4 350.85 102.4 352.3Q102.4 353.35 101.25 354.45" />
<path style="fill:none;stroke-width:2;stroke-linecap:round;stroke-linejoin:miter;stroke-miterlimit:3;stroke:#AE4200;stroke-opacity:1" d="M65.45,321.35L67.05 325.1L68.85 329.5L68.95 329.85L69.55 331.5L65.45 331.1L65.05 334.6L62.2 333.95L61.35 337.45L58.3 335.8L55.2 338.45L54.8 331.8L54.7 329.85L54.7 329.5L54.5 325.1L54.45 323.05L54.45 321.35Q54.3 307.5 56.45 306.95Q58.75 306.35 64.35 318.85L65.45 321.35M110.4,319.9Q116.25 309.2 118.1 310Q119.75 310.7 118.65 321.35L118.2 325.1L118.2 325.15L117.65 329.5L117.6 329.85L117.3 331.8L116.05 339.3L114.6 334.75L111.55 336.6L111.95 332.3L108.25 333.15L104.9 330.8L105.35 329.85L105.55 329.5L107.7 325.1L109.65 321.35L110.4 319.9" />
<path style="fill:none;stroke-width:3;stroke-linecap:butt;stroke-linejoin:miter;stroke-miterlimit:3;stroke:#AE4200;stroke-opacity:1" d="M146,415.9L145.1 411.65Q141.8 396.85 137 395.65Q132.2 394.45 124.95 399.65Q121.3 402.25 119.05 404.05Q121.75 417.3 132.85 428.8Q135 432.55 136.65 436.4Q141.8 448.75 139.6 457.35Q137.4 465.95 128.75 475.3Q125.15 479.25 121.8 482Q120.85 491.1 121.15 497.65Q121.4 503.1 122.5 508.4M76.95,486.65L76 493.5L75.8 497.9Q75.55 503.45 75.7 505.05L77.05 516.6Q77.75 525.95 75.9 528Q74.05 530.05 69.05 525.65L64.45 520.85L63.55 523.15Q62.05 525.35 59.35 524.7Q56.65 524.1 56.1 521.2L56.1 518.4M26.3,426.65Q30.05 427.55 30.65 429.75Q31.3 432.2 29.15 434.6Q27.2 436.8 25.55 436.5Q24.75 436.35 22.45 433.7Q20.4 431.4 19.6 432Q18.9 432.5 21.2 436.85Q23.55 441.35 22.75 442.55Q21.6 444.3 19.6 444.7Q17.65 445.1 15.85 444.05L15.75 444M51.55,400.4L49.7 398.15L48.7 396.6Q47.45 394.25 46.2 390.45" />
<path style="fill:none;stroke-width:3;stroke-linecap:round;stroke-linejoin:miter;stroke-miterlimit:3;stroke:#AE4200;stroke-opacity:1" d="M46.2,390.45L45.35 387.65L45.15 387L45 386.4L43.75 381.85L41.7 372.65L37.65 373.05L43.35 361.6L35.6 363.4L43.75 353.8L36.6 352.15L47.05 347.05L40.9 343.15L51.2 341.75L51.05 339.4Q50.75 335.6 50.6 331.8L50.5 329.85L50.5 329.5L50.4 325.1L50.35 321.75L50.35 321.35Q50.35 301.6 54.6 300.95Q58.9 300.35 66.8 315.15L69.95 321.35M46.2,390.45L46.65 390.6M154.45,443.95L154.7 443.8Q157 442.35 156.6 438L155.7 434M15.75,444L15.5 443.85Q13.2 442.4 13.6 438.05L14.5 434.05M56.25,507.1Q55.95 509.3 58.45 511.8L60.95 513.9L64.05 513.25M56.1,518.4Q57.55 518.25 60.95 516.35M122.5,508.4L122.2 509.35Q121.35 512.1 120.85 514.65M133.95,506.85Q134.25 509.05 131.75 511.55L129.25 513.65L126.15 513M134.1,518.15L134.3 517.9" />
<path style="fill:none;stroke-width:2;stroke-linecap:round;stroke-linejoin:miter;stroke-miterlimit:3;stroke:#AE4200;stroke-opacity:1" d="M94.35,347.2L94.4 347.2" />
<path style="fill:none;stroke-width:2;stroke-linecap:round;stroke-linejoin:miter;stroke-miterlimit:3;stroke:#582903;stroke-opacity:1" d="M70.5,382.3L78.55 382.7L81.25 382.65Q91 382.25 102.85 378.5L104.7 377.9L105.3 377.7L110.1 375.85L110.55 375.65L111.6 375.15Q117.5 372.3 118.3 369.4L118.3 369.3Q118.25 368.65 115.35 368.15L112.15 367.75" />
<path style="fill:none;stroke-width:3;stroke-linecap:round;stroke-linejoin:miter;stroke-miterlimit:3;stroke:#AE4200;stroke-opacity:1" d="M69.95,321.35L71.75 325.1L73.65 329.5L73.8 329.85L73.85 330.05L74.2 329.85L74.8 329.5L77.25 328.1Q80.95 326.1 82.7 325.95Q84.25 325.85 85.9 327.45Q87.65 329.1 88.6 329.2Q89.8 329.3 92.75 328.4L96.4 327.4Q97.9 327.4 100.35 329.5L100.5 329.65L100.6 329.5Q101.65 327.3 102.85 325.1L104.85 321.35L108.2 315.65Q116.65 301.9 120.55 303.2Q124.3 304.45 123.3 321.35L123.2 322.9L123.05 325.1L122.7 329.5L122.65 329.85L122.45 331.8L121.45 339.4L121.2 341.1L128.75 345.4L120.15 349.3L131.4 354.6L122.8 356.85L127.95 358.9L123.25 363.85L126.7 366.9L123.75 378.75L121.6 386.4L121.4 387L121.2 387.65L119.45 393L118.95 394.25M147.5,426.2Q147 421.1 146 415.9M113.3,486.65Q95.6 492 76.95 486.65M22.7,426.25L26.3 426.65M51.75,400.6L51.55 400.4M160.4,431.5L162.15 435.55Q163.8 440.05 163.45 442.1L163.3 442.6M9.8,431.55L8.05 435.6Q6.4 440.1 6.75 442.15L6.9 442.65M69.35,514.9L68 509.6L67.7 508.65M55.9,518.15L56.1 518.4M129.25,516.1Q132.65 518 134.1 518.15" />
<path style="fill:none;stroke-width:3;stroke-linecap:round;stroke-linejoin:miter;stroke-miterlimit:3;stroke:#AE4200;stroke-opacity:1" d="M118.95,394.25Q127.25 388.05 131.2 385.95Q139.15 381.75 142.8 382.95Q147.15 384.35 154.05 399.45Q158.05 408.1 160.4 415.9Q162.2 421.65 163.05 426.95L166.1 430.5Q169.1 434.7 168.75 437.8Q168.4 440.95 165.8 442.1Q164.5 442.65 163.3 442.6L163.25 442.8Q162.75 444.3 161.15 445.25Q159.8 446.15 158.55 446.25Q156.75 446.45 155.4 445.25L154.45 443.95M122.5,508.4Q124 503.75 125.55 503Q127.7 501.95 130.6 503.1Q133.65 504.35 133.95 506.85L136.5 508.7Q139 511 138.65 513.2Q138.25 515.6 136.8 516.95Q135.65 518.1 134.35 518.15L134.1 518.15M56.1,518.4L55.85 518.4Q54.55 518.35 53.4 517.2Q51.95 515.85 51.55 513.45Q51.2 511.25 53.7 508.95L56.25 507.1Q56.55 504.6 59.6 503.35Q62.5 502.2 64.65 503.25Q66.2 504 67.7 508.65M15.75,444L14.8 445.3Q13.45 446.5 11.65 446.3Q10.4 446.2 9.05 445.3Q7.45 444.35 6.95 442.85L6.9 442.65Q5.7 442.7 4.4 442.15Q1.8 441 1.45 437.85Q1.1 434.75 4.1 430.55L7.15 427Q8 421.7 9.8 415.95Q12.15 408.15 16.15 399.5Q23.05 384.4 27.4 383Q31.05 381.8 39 386Q42.95 388.1 46.2 390.45" />
<path style="fill:none;stroke-width:2;stroke-linecap:round;stroke-linejoin:miter;stroke-miterlimit:3;stroke:#582903;stroke-opacity:1" d="M71.55,354.3L71.25 351.4L71.15 348.8L71.2 347.55L71.2 346.9Q71.45 342.2 73.15 339.65L73.35 339.4Q75.35 336.55 79.1 336.5Q82.8 336.45 84.4 339.05L84.6 339.4L85.35 341.35Q85.95 340.25 86.85 339.4L87.55 338.8Q90.35 336.8 93.2 339.25L93.4 339.4Q96.1 341.8 95.5 344.7Q95.25 346 94.6 346.9L94.35 347.2M85.3,348.95L85.6 347.55L85.7 346.9Q86.05 344 85.35 341.35M59.35,375.25L59.4 375.65L59.45 375.85Q59.7 376.85 60.15 377.35L60.5 377.7L60.7 377.9Q63 380.3 65.3 381.15L66.4 381.5L67.7 381.85L70.5 382.3M59.35,375.25L57.2 381.8Q55.5 388.85 57.45 391.4Q60.95 395.85 66.9 394.7Q69.1 394.3 70.35 393.65Q72.15 392.75 72.85 391.2Q73.5 389.75 72.05 385.9L70.5 382.3" />
<path style="fill:none;stroke-width:2;stroke-linecap:round;stroke-linejoin:miter;stroke-miterlimit:3;stroke:#993127;stroke-opacity:1" d="M94.4,347.2L96.95 347.55Q98.4 347.9 99.7 348.55Q101.9 349.7 103.05 351.4Q103.8 352.65 104.05 354.2L104.15 355.15L104.15 355.45L104.15 356.2Q103.8 360.45 99.1 363.95Q93.2 368.3 85.2 367.7Q79.6 367.3 76.9 363.7L75.35 360.15Q76.2 358.25 77.65 356.2L78.15 355.45L78.4 355.15L79 354.3Q80.35 352.65 81.8 351.4Q83.5 349.9 85.3 348.95" />
<path style="fill:none;stroke-width:2;stroke-linecap:round;stroke-linejoin:miter;stroke-miterlimit:3;stroke:#582903;stroke-opacity:1" d="M60.75,348.5Q65.7 348.45 69.05 351.4Q70.45 352.6 71.55 354.3M75.3,365.1Q74.45 359.8 72.65 356.2L72.25 355.45L72.1 355.15L71.55 354.3M61.15,357.1L59.6 366.05L59.25 369.3Q58.95 373.05 59.3 375.15L59.35 375.25" />
<path style="fill:none;stroke-width:2;stroke-linecap:round;stroke-linejoin:miter;stroke-miterlimit:3;stroke:#993127;stroke-opacity:1" d="M85.3,348.95Q87.15 347.95 89.1 347.55L89.95 347.4L94.35 347.2" />
<path style="fill:none;stroke-width:3;stroke-linecap:butt;stroke-linejoin:miter;stroke-miterlimit:3;stroke:#AE4200;stroke-opacity:1" d="M154.45,443.95L154.35 444Q152.55 445.05 150.6 444.65Q148.6 444.25 147.45 442.5Q146.65 441.3 149 436.8Q151.3 432.45 150.6 431.95Q149.8 431.35 147.75 433.65Q145.45 436.3 144.65 436.45Q143 436.75 141.05 434.55Q138.9 432.15 139.55 429.7Q140.15 427.5 143.9 426.6L147.5 426.2M134.1,518.15L134.1 520.95Q133.55 523.85 130.85 524.45Q128.15 525.1 126.65 522.9L125.75 520.6L121.15 525.4Q116.15 529.8 114.3 527.75Q112.45 525.7 113.15 516.35L114.5 504.8Q114.65 503.2 114.4 497.65L114.2 493.25L113.3 486.65M67.7,508.65Q68.8 503.35 69.05 497.9Q69.35 491.05 68.3 484Q58.55 478.7 50.5 470.05Q34.5 452.65 43.2 435.65Q47.65 426.9 50.05 415.15L51.55 405.15Q48.9 402.3 45.25 399.7Q38 394.5 33.2 395.7Q28.4 396.9 25.1 411.7L24.2 415.95Q23.2 421.15 22.7 426.25M118.95,394.25L118.6 395.2L118.55 395.4L118.5 395.45L117.5 397.85Q114.6 404.35 96.25 410Q89.25 412.2 82.6 413.35L74.1 414Q69.65 413.05 61.85 408.3L57.55 405.45L54.2 402.85L51.75 400.6" />
<path style="fill:#582903;fill-opacity:1" d="M72.2,331.35Q73 329.75 74.75 327.8Q75.65 326.7 77.65 325.6Q78.4 325.1 79.7 324.6L81.7 324.05L81.85 324.1L81.9 324.25L81.65 324.7L81.4 325.1L81.4 325.2L83.95 324.65L84.05 324.85L83.25 325.5L85.7 326.35L86.55 326.75L87.05 327.3L86.95 327.5Q83.65 328.15 81.45 329.05L77.55 330.7L76 331.45L74.25 332.35L73.45 332.9L71.25 334.15L71 334.1L70.95 333.7Q70.95 333.1 72.2 331.35M93.3,325.45L94.9 325.9L96.55 326.7Q98.1 327.6 98.85 328.45Q100.25 330 100.85 331.3Q101.85 332.7 101.85 333.15L101.85 333.5L101.65 333.5L99.9 332.5L99.25 332.1L97.85 331.35L96.6 330.75L93.5 329.45Q91.75 328.75 89.1 328.2L89.05 328.05L89.45 327.6L90.1 327.3L92.05 326.6L91.45 326.1L91.5 325.95L93.55 326.4L93.55 326.3L93.35 326L93.15 325.65L93.2 325.5L93.3 325.45" />
</g>
</svg>
