<?xml version="1.0" encoding="utf-8"?>
<svg version="1.1" id="Layer_1"
xmlns="http://www.w3.org/2000/svg"
xmlns:xlink="http://www.w3.org/1999/xlink"
xmlns:author="http://www.sothink.com"
width="17px" height="16px"
xml:space="preserve">
<g id="104" transform="matrix(1, 0, 0, 1, 7.75, 8.7)">
<path style="fill:#BBB7B7;fill-opacity:1" d="M0.65,-1.9Q0.35 -0.95 -0.55 -0.95L-1.25 -1.35L-1.6 -1.75L-2.45 -3.6L-2.5 -3.55L-2.75 -5.9Q-2.75 -6.9 -2.25 -7.55Q-1.7 -8.2 -0.75 -8.2Q0.85 -8.2 0.85 -4.15Q0.85 -2.5 0.65 -1.9M-0.35,-4.3Q0.25 -4.3 0.25 -5.5Q0.25 -6.35 -0.4 -6.75Q-1.15 -7.15 -1.15 -6.1Q-1.2 -4.3 -0.35 -4.3M-1.15,1.9L-1.35 2.3Q-1.6 3.05 -2.4 4.1L-2.4 4.2L-4 5.65Q-4.85 6.25 -5.65 6.2Q-6.55 6.05 -7.1 5.2Q-7.95 3.9 -4.6 1.65L-2.65 0.6Q-1.65 0.3 -1.2 1.1L-1.15 1.9M-6.1,4.1Q-6 5 -5.15 4.3Q-3.7 3.4 -4.1 2.65Q-4.4 2.2 -5.3 2.85Q-6.05 3.3 -6.1 4.1M6.05,2.8Q4.55 1.8 4.1 2.5Q3.75 3 4.8 3.6L6.25 3.7Q7 3.3 6.05 2.8M7.65,4.25Q6.85 5.6 3.45 3.45L1.6 2.05Q0.95 1.3 1.5 0.5L2.2 0.1L2.65 0.1L4.7 0.3L4.75 0.25L6.8 1.2Q7.65 1.7 7.9 2.5Q8.15 3.4 7.65 4.25" />
<path style="fill:#FFF7F7;fill-opacity:1" d="M-1.15,-6.1Q-1.15 -7.15 -0.4 -6.75Q0.25 -6.35 0.25 -5.5Q0.25 -4.3 -0.35 -4.3Q-1.2 -4.3 -1.15 -6.1M-5.3,2.85Q-4.4 2.2 -4.1 2.65Q-3.7 3.4 -5.15 4.3Q-6 5 -6.1 4.1Q-6.05 3.3 -5.3 2.85M6.25,3.7L4.8 3.6Q3.75 3 4.1 2.5Q4.55 1.8 6.05 2.8Q7 3.3 6.25 3.7" />
<path style="fill:none;stroke-width:1;stroke-linecap:butt;stroke-linejoin:miter;stroke-miterlimit:3;stroke:#545353;stroke-opacity:1" d="M0.65,-1.9Q0.35 -0.95 -0.55 -0.95L-1.25 -1.35L-1.6 -1.75L-2.45 -3.6L-2.5 -3.55L-2.75 -5.9Q-2.75 -6.9 -2.25 -7.55Q-1.7 -8.2 -0.75 -8.2Q0.85 -8.2 0.85 -4.15Q0.85 -2.5 0.65 -1.9M-1.15,1.9L-1.35 2.3Q-1.6 3.05 -2.4 4.1L-2.4 4.2L-4 5.65Q-4.85 6.25 -5.65 6.2Q-6.55 6.05 -7.1 5.2Q-7.95 3.9 -4.6 1.65L-2.65 0.6Q-1.65 0.3 -1.2 1.1L-1.15 1.9M7.65,4.25Q6.85 5.6 3.45 3.45L1.6 2.05Q0.95 1.3 1.5 0.5L2.2 0.1L2.65 0.1L4.7 0.3L4.75 0.25L6.8 1.2Q7.65 1.7 7.9 2.5Q8.15 3.4 7.65 4.25" />
<path style="fill:#AD4E4E;fill-opacity:1" d="M0.55,-1.35Q0.05 -1.35 0.05 -0.8Q0.05 0.4 1.3 0.4Q1.7 0.4 1.7 -0.15Q1.7 -1.35 0.55 -1.35M1.75,2Q1 2.8 -0.1 2.8Q-1.2 2.8 -2 2Q-2.75 1.3 -2.75 0.25Q-2.75 -0.8 -2 -1.6Q-1.2 -2.3 -0.1 -2.3Q1 -2.3 1.75 -1.6Q2.6 -0.8 2.6 0.25Q2.6 1.3 1.75 2" />
<path style="fill:#D99191;fill-opacity:1" d="M1.7,-0.15Q1.7 0.4 1.3 0.4Q0.05 0.4 0.05 -0.8Q0.05 -1.35 0.55 -1.35Q1.7 -1.35 1.7 -0.15" />
<path style="fill:none;stroke-width:1;stroke-linecap:butt;stroke-linejoin:miter;stroke-miterlimit:3;stroke:#6B2222;stroke-opacity:1" d="M1.75,2Q1 2.8 -0.1 2.8Q-1.2 2.8 -2 2Q-2.75 1.3 -2.75 0.25Q-2.75 -0.8 -2 -1.6Q-1.2 -2.3 -0.1 -2.3Q1 -2.3 1.75 -1.6Q2.6 -0.8 2.6 0.25Q2.6 1.3 1.75 2z" />
</g>
</svg>
