<?xml version="1.0" encoding="utf-8"?>
<svg version="1.1" id="Layer_1"
xmlns="http://www.w3.org/2000/svg"
xmlns:xlink="http://www.w3.org/1999/xlink"
xmlns:author="http://www.sothink.com"
width="54px" height="58px"
xml:space="preserve">
<g id="123" transform="matrix(1, 0, 0, 1, 26.9, 29.05)">
<path style="fill:#18212A;fill-opacity:1" d="M-26.7,11.8L-26.7 11.1L-26.5 -2.65L-26.5 -2.8Q-26.5 -12.65 -26.9 -18.95Q-26.15 -21.45 -26.45 -23.05Q-26.35 -24.7 -25.35 -25.85L-25.3 -25.9Q-23.45 -28.05 -18.65 -28.75Q-16.5 -29.05 -6.45 -29.05L2 -28.75L6.2 -28.6Q16.45 -28.15 20.9 -28.3Q23.95 -28.45 25.3 -26.65L26.2 -24.6Q27 -20.75 27 -10.95L26.9 -2.75L26.75 10.85Q2.35 -0.95 -26.7 11.8" />
<path style="fill:#222E3A;fill-opacity:1" d="M-26.7,11.8Q2.35 -0.95 26.75 10.85L26.7 13.05Q26.65 21.75 24.25 24.6L23 25.75Q20.55 27.55 16 27.95Q10.15 28.4 -0.35 28.2L-2.8 28.15L-2.9 28.15L-15.6 27.75L-17.9 27.45L-21.05 26.55L-23.75 25L-24.9 23.7Q-26.95 20.45 -26.7 11.8" />
</g>
</svg>
