<?xml version="1.0" encoding="utf-8"?>
<svg version="1.1" id="Layer_1"
xmlns="http://www.w3.org/2000/svg"
xmlns:xlink="http://www.w3.org/1999/xlink"
xmlns:author="http://www.sothink.com"
width="48px" height="10px"
xml:space="preserve">
<g id="206" transform="matrix(1, 0, 0, 1, 22.2, 6)">
<path style="fill:#C9DCF3;fill-opacity:0.988235" d="M2.05,-2.35Q1.8 -2 1.35 -2Q0.65 -2 0.35 -2.5L0.2 -3Q0.2 -3.85 1.25 -3.85Q2.25 -3.85 2.25 -2.95L2.05 -2.35M19.55,-0.45L21.9 -0.15L23.9 -0.35L24.8 -0.6L25.65 -0.35L25.65 -0.1Q25.65 0.85 22.75 1.8Q18.15 3.3 8.55 3.3L-0.95 2.75L-10.5 2.15L-10.5 2.1L-16.05 2.1L-16.4 1.95L-16.5 1.6L-15.65 1.1L-14 0.5L-15.3 -0.1Q-16.25 -0.55 -16.35 -0.95L-16.25 -1.25L-15.5 -1.35L-13.6 -1.1L-13.05 -0.9L-12.3 -0.9Q-12.9 -2.35 -13.95 -3.15L-14.85 -3.6L-14.85 -3.95L-12.4 -3.3L-10.9 -2.55Q-10.3 -2.6 -8.4 -1.45L-4.85 0.6Q-3.25 0.6 -1.4 -0.15L-2.5 -1Q-2.85 -1.3 -2.85 -1.75Q-2.85 -2.2 -2.55 -2.3L-1.35 -2.3L0.15 -0.7Q1.65 0.6 3.4 0.6L11 -0.5L10.7 -0.95L10.7 -1.65L11.25 -1.7Q12.65 -1.7 13.15 -0.9Q13.65 -0.15 15.55 -0.15L19.55 -0.45M-22.2,-6L-19.65 -5.95Q-18 -5.5 -18 -5.1Q-18 -4.9 -18.15 -4.85L-18.95 -4.8L-21.3 -5.1Q-22.2 -5.35 -22.2 -5.6L-22.2 -6M-19.85,-2.6Q-19.25 -3.2 -18.6 -3.2Q-18 -3.2 -18 -2.6L-18.1 -2.25Q-18.15 -2.2 -18.35 -2.1L-19.35 -2.1L-19.85 -2.6M-7.05,-3.35L-7.6 -3.3Q-8.4 -3.3 -8.7 -3.8L-8.85 -4.3Q-8.85 -5 -7.95 -4.8Q-7.05 -4.6 -7.05 -4L-7.05 -3.35M-4.85,-1.05Q-5.55 -1.05 -5.45 -1.95Q-4.8 -1.95 -4.5 -1.35Q-4.5 -1.05 -4.85 -1.05M-1.95,-1.5L-1.5 -1.35L-1.5 -1.5L-1.95 -1.55L-1.95 -1.5" />
</g>
</svg>
