<?xml version="1.0" encoding="utf-8"?>
<svg version="1.1" id="Layer_1"
xmlns="http://www.w3.org/2000/svg"
xmlns:xlink="http://www.w3.org/1999/xlink"
xmlns:author="http://www.sothink.com"
width="305px" height="243px"
xml:space="preserve">
<g id="211" transform="matrix(1, 0, 0, 1, 152.4, 121.55)">
<linearGradient
id="LinearGradID_11" gradientUnits="userSpaceOnUse" gradientTransform="matrix(0.000457764, 0.0311279, -0.0538177, 0.00109863, -0.3, -40.75)" spreadMethod ="pad" x1="-819.2" y1="0" x2="819.2" y2="0" >
<stop  offset="0" style="stop-color:#66CCFF;stop-opacity:1" />
<stop  offset="1" style="stop-color:#FFFFFF;stop-opacity:1" />
</linearGradient>
<path style="fill:url(#LinearGradID_11) " d="M-78.9,-49.3Q-76.55 -47.4 -71.8 -46.75L-62.3 -46.3L-55.55 -46.75Q-51.7 -47.5 -50.55 -49.55L-50.15 -50.2L-49.5 -49.85Q-46.6 -48.2 -43.6 -47.65L-43.45 -47.6L-43.45 -47.35L-43.6 -47.35L-44.15 -47.2Q-58.25 -43.65 -58.25 -28.8L-58.2 -28.15L-58.2 -27.9L-57.05 -18.2L-142.05 -18.2L-142.05 -109.55L142.25 -109.55L142.25 -18.2L12.1 -18.2L10.8 -20.95L4.5 -34.1L0.75 -40.85L-3.05 -46.6L6.9 -52.05Q15.05 -56.2 21.8 -57.5Q29.25 -58.85 37.4 -64.35L50.3 -72.85Q51.3 -74.35 53.75 -75.5Q56.25 -76.65 58.5 -76.65L64.4 -76.95Q65.15 -77.1 69.35 -78.75L69.4 -78.75L73.7 -80.5Q75.8 -81.3 77.05 -83.3L77.3 -83.75L78.55 -86.7L79.45 -89.5L80.3 -93.45Q80.3 -94.4 79.55 -96L77.85 -97.8L66.35 -91.1L66.35 -91.25Q66.2 -91.55 64.85 -91.75Q63.55 -91.75 61.25 -90.2L57.6 -87.45Q52.5 -83.45 49.5 -81.95L34.45 -78.2Q26.1 -76.05 21.4 -72.15L19.15 -69.8Q17.9 -68.45 16.6 -68.1L9.2 -66.25L2.15 -64.3Q-4.8 -65.3 -9 -64.45L-16.45 -62.65L-24.45 -60.5Q-27.35 -59.35 -28.8 -57.75Q-28.5 -59.65 -28.5 -61.9Q-28.5 -67.1 -30.15 -72.15L-28.95 -73.85L-28.85 -75.1Q-28.85 -76.65 -29.5 -78.2Q-30.25 -80.1 -31.45 -80.1L-33.1 -79.05L-36.5 -86L-36.5 -86.1Q-36 -86.9 -35.45 -88.45Q-34.8 -90.25 -34.8 -91.55Q-34.8 -95.8 -37.1 -99.2Q-39.25 -102.3 -42.35 -103.5L-41.8 -100.9Q-41.55 -99.4 -41.75 -98.4L-41.8 -98.35L-41.8 -98.4Q-42.8 -99.1 -46.35 -99.85L-51.75 -100.7Q-55.85 -100.7 -59.25 -99.35Q-62.85 -97.9 -65 -95.15Q-62.1 -93.35 -61.05 -93.2Q-62.45 -92.8 -64.45 -90.65Q-65.65 -89.25 -66.75 -88.65L-68.05 -88.35L-69.95 -88.75L-69.95 -87.9Q-69.05 -84.4 -66.6 -83.15Q-67.4 -80.95 -69.8 -79.5Q-72.1 -78.15 -74.55 -78.2Q-75.1 -75.35 -69.95 -73.6L-68.55 -73.25Q-69.25 -72.9 -70.05 -72.7Q-73.5 -71.55 -76 -72Q-75.3 -70.35 -73.75 -69Q-72.2 -67.65 -70.6 -67.15L-66.55 -66.8Q-64.8 -66.55 -64.8 -64.35Q-64.8 -62.8 -67.15 -60.05Q-69.05 -57.8 -70.35 -57.1Q-70 -56.2 -68.55 -56.05L-65.95 -56.05Q-66.55 -53.5 -69.75 -51.75Q-72.8 -50.05 -76.2 -50.05L-78.45 -50.2L-78.9 -49.3M-40,-27.6L-36.5 -26.7L-36.9 -26.1L-37.1 -25.1L-33.3 -18.2L-46.2 -18.2Q-45.4 -24.15 -43.55 -27.65L-43.55 -28.05L-40 -27.6M-23.5,-25.65L-23.3 -25.65L-22.35 -28.9L-22.3 -28.9L-22.2 -28.8L-23.2 -25.55L-23.5 -25.65" />
<path style="fill:#F0B98F;fill-opacity:1" d="M-21.05,51.3L-19.9 50.7L-17.05 49.5L-13.45 46.7Q-13.35 46.55 -13.15 46.5L-10.65 46.95Q-6.8 46.95 -6 45.1Q-5.65 44.45 -5.65 39.8L-5.65 37.75L-5.75 36.3Q-6.7 20.6 -16.15 2.2Q-20.2 -5.7 -27.5 -18.2L-33.8 -28.75L-33.8 -30Q-32.1 -31.3 -29.75 -31.3Q-28.7 -31.3 -22.35 -28.9L-23.3 -25.65L-23.5 -25.65L-23.2 -25.55L-22.2 -28.8L-10.6 -24.2L-3.25 -21L-3.3 -18.2Q-3.55 -14.9 -4.45 -10.1Q-5.7 -2.8 -5.7 0.15L-5.7 0.25L-5.2 1.75L-1.9 11.35L4.25 24.3L7.1 30.2L10.05 36.9L11.55 41.4L11.8 42.25Q6.15 46.95 -4.55 51.1L-8.25 52.45L-8.4 52.55L-18.2 56.05L-19.7 56.55L-27.25 59.2L-32.05 60.85L-32.05 61.3L-33.35 61.65L-35.7 57.7Q-37.35 54.9 -38.9 52.9L-40.5 50.95L-41.85 49.65L-42.15 49.45Q-43.2 48.5 -44.2 48.05L-54.85 44.05L-56.45 50.95L-56.75 52.75L-56.95 53.95L-57.35 57.6Q-57.65 60.65 -57.45 63.2L-57.45 63.35L-57.15 65.4L-56.75 69.2L-58.45 69.5L-61.45 69.95L-60.9 65.6L-60.85 65.45L-60.85 65.1L-60.2 58.35L-60.1 57.55L-60.1 57.4L-59.4 42.15L-59.1 36.35Q-58.85 31.65 -56.95 23.7L-54.85 15.45Q-51.3 2.6 -51.3 -6.05Q-51.3 -12.4 -52.85 -18.2L-53.25 -19.6Q-55.15 -26 -55.15 -28.2L-55.15 -28.3Q-55.1 -34.2 -49.4 -38.2L-44.8 -41.05L-43.35 -42.15L-43.45 -47.35L-43.45 -47.6L-40.65 -47.4Q-34.7 -47.4 -31.6 -51.3Q-30.45 -52.65 -29.7 -54.45L-28.8 -57.75Q-27.35 -59.35 -24.45 -60.5L-16.45 -62.65L-9 -64.45Q-4.8 -65.3 2.15 -64.3L9.2 -66.25L16.6 -68.1Q17.9 -68.45 19.15 -69.8L21.4 -72.15Q26.1 -76.05 34.45 -78.2L49.5 -81.95Q52.5 -83.45 57.6 -87.45L61.25 -90.2Q63.55 -91.75 64.85 -91.75Q66.2 -91.55 66.35 -91.25L66.35 -91.1L77.85 -97.8L79.55 -96Q80.3 -94.4 80.3 -93.45L79.45 -89.5L78.55 -86.7L77.3 -83.75Q73.95 -81.95 68.6 -81.4L56.5 -80.55Q54.25 -80.2 50.65 -78.65Q47.6 -77.45 43.7 -75.5Q34.05 -70.6 30.1 -68.85L15.9 -62.5Q7.5 -58.75 4.05 -57.55Q-1.1 -56.75 -5.9 -55.3Q-15.35 -52.4 -15.35 -48.65Q-15.35 -46.6 -9 -41.6Q-3.3 -37.2 -1.1 -36.4L0.75 -40.85L4.5 -34.1L10.8 -20.95L12.1 -18.2L15.55 -11.55L6.8 -16.4L6 -18.2L5.9 -18.35Q2.1 -25.85 -4.3 -28.35L-17.2 -33.75Q-24.95 -36.75 -30.05 -36.75Q-35.65 -36.75 -37.75 -34.05Q-39.2 -32.15 -40 -27.6L-43.55 -28.05L-43.55 -27.65Q-45.4 -24.15 -46.2 -18.2Q-46.85 -13.15 -46.75 -6.4Q-46.55 9 -46.9 15L-46.2 15Q-42.2 13.65 -35.45 12.45L-24.95 10.55L-24.95 10.7L-25.1 15.3L-36.9 18.65L-48.2 21.6L-50.75 30.3L-53.1 38.25L-53.25 38.6L-52.15 38.6Q-46.2 41.2 -40.25 46.5L-39.75 46.95L-35.5 51L-33.55 52.85L-28.9 57L-27.15 58.8Q-26.55 57 -25.45 55.25Q-24.45 53.7 -23.4 52.8L-23.1 52.55Q-22.45 52.05 -21.05 51.3M-81.7,32.35Q-82.65 30.75 -82.65 29.45Q-82.65 26.35 -75.55 23L-71.7 21.35L-60.4 17.9L-61.65 23.4L-74.1 26.5L-74.3 26.65Q-78.45 28.4 -81.7 32.35M-62.1,34.05L-62.1 36.35L-62.2 40.8Q-67.45 37.95 -67.45 35.8Q-67.45 34.05 -66.75 33Q-66.15 32.1 -65.25 31.95L-65.25 32.7L-62.1 34.05" />
<path style="fill:#E2A474;fill-opacity:1" d="M-1.1,-36.4Q-3.3 -37.2 -9 -41.6Q-15.35 -46.6 -15.35 -48.65Q-15.35 -52.4 -5.9 -55.3Q-1.1 -56.75 4.05 -57.55Q7.5 -58.75 15.9 -62.5L30.1 -68.85Q34.05 -70.6 43.7 -75.5Q47.6 -77.45 50.65 -78.65Q54.25 -80.2 56.5 -80.55L68.6 -81.4Q73.95 -81.95 77.3 -83.75L77.05 -83.3Q75.8 -81.3 73.7 -80.5L69.4 -78.75L69.35 -78.75Q65.15 -77.1 64.4 -76.95L58.5 -76.65Q56.25 -76.65 53.75 -75.5Q51.3 -74.35 50.3 -72.85L37.4 -64.35Q29.25 -58.85 21.8 -57.5Q15.05 -56.2 6.9 -52.05L-3.05 -46.6L0.75 -40.85L-1.1 -36.4M-73.7,39.8L-73.75 39.75L-76.15 37.95Q-80.15 34.8 -81.7 32.35Q-78.45 28.4 -74.3 26.65L-74.1 26.5L-61.65 23.4L-60.4 17.9L-59 12.95Q-55.55 2.15 -55.55 -4.3Q-55.55 -7.45 -56.9 -16.95L-57.05 -18.2L-58.2 -27.9L-58.2 -28.15L-58.25 -28.8Q-58.25 -43.65 -44.15 -47.2L-43.6 -47.35L-43.45 -47.35L-43.35 -42.15L-44.8 -41.05L-49.4 -38.2Q-55.1 -34.2 -55.15 -28.3L-55.15 -28.2Q-55.15 -26 -53.25 -19.6L-52.85 -18.2Q-51.3 -12.4 -51.3 -6.05Q-51.3 2.6 -54.85 15.45L-56.95 23.7Q-58.85 31.65 -59.1 36.35L-59.4 42.15L-60.1 57.4L-60.1 57.55L-60.2 58.35L-60.85 65.1L-60.85 65.45L-60.9 65.6L-61.45 69.95L-65.35 70.5Q-63.5 67.7 -62.8 65.95L-62.5 65.25Q-62.45 65 -62.8 64.8L-62.65 58.45L-62.65 58.35L-62.4 47.75L-62.3 47.1L-73.7 39.8M-10.6,-24.2L-22.2 -28.8L-22.3 -28.9L-22.35 -28.9Q-28.7 -31.3 -29.75 -31.3Q-32.1 -31.3 -33.8 -30L-34.3 -29.55Q-35.45 -28.6 -36.5 -26.7L-40 -27.6Q-39.2 -32.15 -37.75 -34.05Q-35.65 -36.75 -30.05 -36.75Q-24.95 -36.75 -17.2 -33.75L-4.3 -28.35Q2.1 -25.85 5.9 -18.35L6 -18.2L6.8 -16.4L3.1 -18.2L-3.25 -21L-10.6 -24.2M-54.85,44.05L-44.2 48.05Q-43.2 48.5 -42.15 49.45L-41.85 49.65L-40.5 50.95L-38.9 52.9Q-37.35 54.9 -35.7 57.7L-33.35 61.65Q-37.05 62.65 -44.7 65.55Q-51.65 68.2 -56.75 69.2L-57.15 65.4L-57.45 63.35L-57.45 63.2L-56.55 63.2L-55.5 63.15L-54.65 62.2L-53.55 62.75Q-46.5 61.25 -44.15 57.9L-51.1 54.1L-55.3 51.65L-56.45 50.95L-54.85 44.05M-12.1,36.1Q-12.5 32.95 -13.25 29.6L-13.35 29.45Q-15.55 19.4 -20.75 7.3L-21.3 6L-24.35 -0.6Q-28.85 -9.85 -33.3 -18.2L-37.1 -25.1L-36.9 -26.1L-36.5 -26.7L-33.8 -28.75L-27.5 -18.2Q-20.2 -5.7 -16.15 2.2Q-6.7 20.6 -5.75 36.3L-5.65 37.75L-5.65 39.8Q-5.65 44.45 -6 45.1Q-6.8 46.95 -10.65 46.95L-13.15 46.5Q-11.65 45.1 -11.65 43.15Q-11.65 40.5 -11.95 37.7L-12.1 36.1M-37,28.6Q-44.95 30.15 -50.75 30.3L-48.2 21.6L-36.9 18.65L-25.1 15.3L-25.1 15.45L-24.65 21.9L-23.8 26.35L-37 28.6M-65.25,31.95Q-66.15 32.1 -66.75 33Q-67.45 34.05 -67.45 35.8Q-67.45 37.95 -62.2 40.8L-62.1 36.35L-62.1 34.05L-62.1 31.4L-65.05 31.4L-65.25 31.65L-65.25 31.95" />
<path style="fill:#F7D54D;fill-opacity:1" d="M5.4,-13.85Q4.45 -14.8 1.15 -14.8L-0.15 -13.3Q-0.65 -12.55 -0.65 -11.4Q-0.65 -10.55 -0.3 -9.75Q0.35 -8.15 2.05 -8.15Q3.3 -8.15 4.3 -9.45Q5.1 -9.95 5.3 -11.1L5.65 -12.6L5.4 -13.85M-5.2,1.75L-5.7 0.25L-5.7 0.15Q-5.7 -2.8 -4.45 -10.1Q-3.55 -14.9 -3.3 -18.2L-3.25 -21L3.1 -18.2L6.8 -16.4L15.55 -11.55L15.65 -11.25L17.55 -7.95Q18.45 -5.9 19 -3.25Q14.4 -3.1 12.05 6.55Q11.35 9.25 10.85 12.75Q10.25 16.9 10 21.95L10 22.45Q7.6 23.5 4.25 24.3L-1.9 11.35L-5.2 1.75M8.1,13.65L8.1 13.4L7.45 13.1Q7.9 13.65 8.1 13.65M11.75,-8.1L12.05 -6.1Q12.65 -3.9 13.65 -3.9Q14.35 -3.9 14.45 -4.15L14.45 -7.1Q13.45 -9.45 12.6 -9.6Q11.75 -9.65 11.75 -8.1M8.8,1.15L8.9 2.3L8.7 2.3L8.7 0.95L8.8 1.15M9.85,1.85Q9.85 -0.8 6.9 -1.85Q4 -2.95 4 0.95Q4 1.6 4.3 2.45Q5.1 4.2 7.2 4.2L8.8 3.35Q9.85 2.5 9.85 1.85M2.25,14L1.9 14.3Q1.25 14.3 1.15 14.45L1.15 15.25Q1.15 16.45 1.9 17.8Q2.7 19.25 4.1 20.05L4.65 19.15L4.7 18.55Q4.7 15.15 2.1 13.65L2.25 14M-13.35,29.45L-16.75 30.2L-20.5 30Q-23.35 29.4 -23.7 27.25L-23.8 26.35L-24.65 21.9L-25.1 15.45L-25.1 15.3L-24.95 10.7L-24.95 10.55Q-24.75 8.25 -23.7 7.3L-20.75 7.3Q-15.55 19.4 -13.35 29.45M-18.35,19.4Q-20.75 18.5 -20.75 23.35Q-20.75 27.1 -18.15 27.1Q-16.45 27.1 -16.15 26.35Q-16 26.05 -16 24.55Q-16 20.2 -18.35 19.4M-19.55,11.8Q-19.8 11.05 -20.95 10.3Q-21.6 10.7 -21.6 11.8Q-21.6 14.45 -19.8 15Q-19.5 14.55 -19.5 13.4L-19.55 11.8" />
<path style="fill:#FFFFCC;fill-opacity:1" d="M5.65,-12.6L5.3 -11.1Q5.1 -9.95 4.3 -9.45Q3.3 -8.15 2.05 -8.15Q0.35 -8.15 -0.3 -9.75Q-0.65 -10.55 -0.65 -11.4Q-0.65 -12.55 -0.15 -13.3L1.15 -14.8Q4.45 -14.8 5.4 -13.85L5.65 -12.6M12.6,-9.6Q13.45 -9.45 14.45 -7.1L14.45 -4.15Q14.35 -3.9 13.65 -3.9Q12.65 -3.9 12.05 -6.1L11.75 -8.1Q11.75 -9.65 12.6 -9.6M8.7,0.95L8.7 2.3L8.9 2.3L8.8 1.15L8.7 0.95M8.8,3.35L7.2 4.2Q5.1 4.2 4.3 2.45Q4 1.6 4 0.95Q4 -2.95 6.9 -1.85Q9.85 -0.8 9.85 1.85Q9.85 2.5 8.8 3.35M2.1,13.65Q4.7 15.15 4.7 18.55L4.65 19.15L4.1 20.05Q2.7 19.25 1.9 17.8Q1.15 16.45 1.15 15.25L1.15 14.45Q1.25 14.3 1.9 14.3L2.25 14L2.1 13.65M-16,24.55Q-16 26.05 -16.15 26.35Q-16.45 27.1 -18.15 27.1Q-20.75 27.1 -20.75 23.35Q-20.75 18.5 -18.35 19.4Q-16 20.2 -16 24.55M-19.5,13.4Q-19.5 14.55 -19.8 15Q-21.6 14.45 -21.6 11.8Q-21.6 10.7 -20.95 10.3Q-19.8 11.05 -19.55 11.8L-19.5 13.4" />
<linearGradient
id="LinearGradID_12" gradientUnits="userSpaceOnUse" gradientTransform="matrix(-0.000457764, 0.0788269, -0.062149, -0.000930786, -0.3, 43.45)" spreadMethod ="pad" x1="-819.2" y1="0" x2="819.2" y2="0" >
<stop  offset="0" style="stop-color:#BAE7BF;stop-opacity:1" />
<stop  offset="1" style="stop-color:#61B46A;stop-opacity:1" />
</linearGradient>
<path style="fill:url(#LinearGradID_12) " d="M85.6,28.4L86.25 27.35L84.25 25.9L83.45 25.35L79.85 22.05L80.45 21.95L80.45 21.6L81.1 21.6L80.75 21.25L99.9 21.35Q100.4 21.2 100.7 20.3L78.75 19.65Q76.8 18.3 74.2 17.15L72.1 15.45Q70.3 14.15 68.45 14.1L68.35 15.05Q64.05 13.8 60.2 13.8Q49 13.8 39.15 19L39.05 19L38.6 18.05L31.85 8.2L30.2 5.75L30 5.45Q23.95 -3.25 19.15 -3.25L19 -3.25Q18.45 -5.9 17.55 -7.95L15.65 -11.25L15.55 -11.55L12.1 -18.2L142.25 -18.2L142.25 109.9L-142.05 109.9L-142.05 94.15L-141.9 94.15L-139.5 93.55L-139.3 93.55L-138.1 93.75L-139.6 95.5Q-139.25 96.05 -135.65 96.25L-133.05 96.1L-133.25 96.35Q-133.25 98.1 -132.95 97.5L-109.95 95.8L-103.1 96.5L-97.35 97.2L-93.55 97.85L-86 98.55L-81.05 99L-75.15 99.2L-71.2 98.6L-59.4 97.7L-43.85 97.4Q-39.85 97.2 -38 95.9L-15.25 95.5Q-14.8 95.35 -14.45 94.45L-15.05 94.3L-14.2 94.3Q-6.25 95.45 -3.9 96.25Q-1.35 97.1 0.15 99.3Q-0.3 99.9 -7.1 100.2L-7.65 100.05Q-7.85 100 -7.85 100.95Q-7.85 102.7 -7.6 101.8L-6 102.15L-7.3 102.1Q-7.85 102.1 -7.85 103.1Q-7.85 104.8 -7.6 104L-5.2 104.15L1.45 103.75L6.2 103.15L9.05 103.75Q8.2 103.7 8.45 104.8Q8.7 105.95 11.2 105.5L25.65 105.05L39.45 104.8L42.25 103.3L43.95 103.3L43.8 101.7L49.15 101.5L51.95 101.2L52.75 101.25L52.75 101.05L61.45 100.5Q70.7 99.75 72.95 98L79.75 97.7Q80.9 97.1 83.45 96.35Q85.65 95.75 87.45 94.45L111.85 94.15Q124.35 93.6 128.35 92.4Q130.3 91.9 130.3 90.75L130.3 90.05L131.55 89.85Q131.25 88.7 130.3 88.25L128.55 87.5L99.3 87.35L99.3 87.7L89 88.5Q85.45 89.1 83.4 90.35L83.7 91.95L80.4 92.05L88.9 85.15Q93.75 81.5 97.2 75.25L99.6 70.4Q101.4 66.6 102.75 64.25L103.1 64L124.6 64.35L126.95 64.85L127.9 64.55L127.75 63.8Q127.5 63.5 126.35 63.15L124.75 62.5L105 62.45L109.9 58.05L113.2 54.8Q120.8 46.4 120.8 39.8Q120.8 35.35 117.65 30.5Q114.4 25.5 110.85 25.5Q105.7 25.5 93.55 31.25Q90.65 30.3 86.45 27.5L85.6 28.4M-82.7,68.25L-104.1 69.5L-104.7 69.35Q-104.9 69.25 -104.9 70.25Q-104.9 72 -104.55 71.15L-98.4 71.3L-90.25 70.75L-82.7 70.25L-83.55 73.1L-85.05 73.5Q-87.2 74.1 -87.2 74.55L-87.2 74L-87.25 74L-88 74.15L-93.8 75.75L-99.9 77.3L-105.35 77.65Q-108.25 75.55 -110.15 70.4L-110.95 68.2L-111.65 65.4L-109.75 65.55L-90.85 64.85Q-90.4 64.85 -90.1 63.8L-99.5 63.3L-108.5 63.15L-108.5 63.45L-112.05 63.85L-114 55.65Q-115.7 48.3 -118.45 42.55Q-122.45 33.9 -127.3 31.95L-128.8 31.95Q-129.1 32.7 -129.1 34.7L-128.6 41.7L-128.4 43.75Q-127.8 50.2 -127.8 52.85Q-127.8 56.45 -129.1 63.95Q-130.35 71.55 -130.35 74.65Q-130.35 78.3 -128.5 82.6L-130.35 82.5L-136.25 82.35L-137.85 83.85L-142.05 83.85L-142.05 -18.2L-57.05 -18.2L-56.9 -16.95Q-55.55 -7.45 -55.55 -4.3Q-55.55 2.15 -59 12.95L-60.4 17.9L-71.7 21.35L-75.55 23Q-82.65 26.35 -82.65 29.45Q-82.65 30.75 -81.7 32.35Q-80.15 34.8 -76.15 37.95L-96.55 38.15L-97.15 38Q-97.35 37.95 -97.35 38.9Q-97.35 40.65 -97.05 39.75L-78.3 39.95L-73.95 39.8L-73.7 39.8L-62.3 47.1L-62.4 47.75L-62.65 58.35L-62.65 58.45L-62.8 64.8Q-62.45 65 -62.5 65.25L-62.8 65.95Q-63.5 67.7 -65.35 70.5L-68.6 70.9L-69 70.9L-71.95 65.15L-72 65Q-73.6 61.9 -75.15 60.85Q-76 60.2 -76.8 60.2Q-78.1 60.2 -79.25 61.7L-80.3 63.45L-81.35 65.95L-82.05 68.15L-82.7 68.25M7.45,13.1L8.1 13.4L8.1 13.65Q7.9 13.65 7.45 13.1M122.75,1L119.25 0.45L119.25 1.4Q119.6 1.9 121.95 2.05Q122.4 1.9 122.75 1M102.3,3.35L99.3 3.2Q99.1 3.05 98.9 3.05Q98.5 2.95 98.5 4.05Q98.5 5.1 98.7 5.1L98.8 4.95L105.35 4.95L105.7 3.9L102.3 3.35M99.75,37.4L99.8 37.3L99.95 37.3L99.75 37.4M90.8,90.9L86.65 91.45L87.25 90.9L90.8 90.9M37.55,97.45L36.85 96.25L37.25 95.9L38.8 96.2L39.25 96.35L39.35 96.35L39.45 95.5L43.45 95.25Q42.3 96.05 41.75 96.95L37.55 97.45M48.6,94.55L50.35 94.45L52.8 94.6L48.6 94.55M106.05,91.45L125.2 91.45L114.7 91.8L100.5 92.1L106.05 91.45M45.2,4.55L43.7 4.25L43.7 4.5Q39.45 3.35 39.25 3.5Q39.25 4.95 39.55 5.45L43.2 5.7L43.9 5L44.4 5.45Q45.1 5.25 45.2 4.55M-132.95,85L-128.45 84.55L-128.85 85.25L-132.95 85M-131.75,91.5L-129.15 89.45L-130.4 87.95L-129.4 87.85Q-129.3 90.1 -127.95 91.3L-131.75 91.5M-105.85,92.2L-107.65 92L-107.1 91.95L-100.55 92.35L-105.85 92.2M-92.25,94.45L-92 93.75L-92.5 93.35L-91.25 93.55L-84.2 94.6L-92.25 94.45M-64.45,92.95Q-68.4 95 -75.9 95L-76.4 95Q-71.25 94.5 -64.75 92.5L-63.1 92L-64.45 92.95M11.8,42.25L11.55 41.4L11.65 41.55L12 42L11.95 42.1L11.8 42.25M4.25,24.3Q7.6 23.5 10 22.45Q9.65 27.2 9.65 32.7Q9.65 34.95 10.05 36.9L7.1 30.2L4.25 24.3M36.7,100.3L38.8 100.15L39.15 100.15L38.85 99.6L40.25 99.3L41.95 99.2L40.65 99.45Q40 100 39.65 100.6L39.05 100.35L36.7 100.3M6.4,92.7L6.4 95.1L6.25 95L5.05 94.85Q3.8 93.15 3.8 92.85L3.75 91.85L6.4 92.7M15.9,99.7L17.55 99.5L21.95 100.05L15.9 99.7M-12,92.55L-12.45 92.7L-12.95 92.65L-12 92.55M56.85,96.5L56.65 96.55L56.6 96.5L56.85 96.5M103.05,120.5Q92.8 121.1 78.1 121.1L59.75 120.5L103.05 120.5M-33.3,-18.2Q-28.85 -9.85 -24.35 -0.6L-21.3 6L-20.75 7.3L-23.7 7.3Q-24.75 8.25 -24.95 10.55L-35.45 12.45Q-42.2 13.65 -46.2 15L-46.9 15Q-46.55 9 -46.75 -6.4Q-46.85 -13.15 -46.2 -18.2L-33.3 -18.2M-13.15,46.5Q-13.35 46.55 -13.45 46.7L-17.05 49.5L-19.9 50.7L-21.05 51.3L-28.3 51.1L-35.5 51L-39.75 46.95L-40.25 46.5Q-46.2 41.2 -52.15 38.6L-53.25 38.6L-53.1 38.25L-50.75 30.3Q-44.95 30.15 -37 28.6L-23.8 26.35L-23.7 27.25Q-23.35 29.4 -20.5 30L-16.75 30.2L-13.35 29.45L-13.25 29.6Q-12.5 32.95 -12.1 36.1L-20.35 35.95L-20.7 35.8Q-21.1 35.75 -21.1 36.8Q-21.1 38.45 -20.8 37.55L-11.95 37.7Q-11.65 40.5 -11.65 43.15Q-11.65 45.1 -13.15 46.5M-65.25,31.65L-65.05 31.4L-62.1 31.4L-62.1 34.05L-65.25 32.7L-65.25 31.95L-65.25 31.65M-57.35,57.6L-56.95 53.95L-56.15 54.25L-53.75 54.75L-51.85 54.25L-51.1 54.1L-44.15 57.9Q-46.5 61.25 -53.55 62.75L-54.65 62.2L-55.5 63.15L-56.55 63.2L-57.45 63.2Q-57.65 60.65 -57.35 57.6M-55.3,51.65L-56.75 52.75L-56.45 50.95L-55.3 51.65M-61.6,95.65L-61.5 95.8L-62.5 95.8L-61.6 95.65M-23.4,52.8Q-24.45 53.7 -25.45 55.25Q-26.55 57 -27.15 58.8L-28.9 57L-33.55 52.85L-23.4 52.8M-95.15,15.3L-105.7 14.6L-115.9 14.4L-117.5 14.25Q-117.5 15.7 -117.2 16.2L-95.95 16.35Q-95.4 16.35 -95.15 15.3M-96.85,94.3L-95.45 94.3L-95.25 94.4L-96.85 94.3M-90.1,101.65L-93.55 101.05L-96.55 100.9L-96.85 101.2L-97.35 101.8L-96 103.7Q-95.8 104.15 -94.65 104.15L-92 103.75L-90.1 103.3L-90.1 101.65M-99.6,102.4L-99.55 101.4Q-99.55 100.35 -99.8 100.2Q-99.95 100.2 -100.1 100.35L-110.45 98.75Q-120.25 97.8 -124.4 100.35L-122.95 102.45L-100.1 102.45L-99.6 102.4M-73.9,99.65L-74 100.75L-73.7 101.95L-67.25 101.7Q-66.35 101.55 -66.15 100.9L-66.6 100L-73.9 99.65" />
<path style="fill:#7EC9E2;fill-opacity:1" d="M19,-3.25L19.15 -3.25Q23.95 -3.25 30 5.45L30.2 5.75L31.85 8.2L38.6 18.05L39.05 19Q36.4 20.45 33.8 22.2L32.3 23.35L30.45 20.2L27.1 14.15L24.85 10.15Q21.55 4.45 19.75 3.35Q19.3 3.05 18.95 3.05Q17.5 3.05 15.95 5Q14.4 6.9 13.15 6.9Q12.55 6.9 12.05 6.55Q14.4 -3.1 19 -3.25M68.35,15.05L68.45 14.1Q70.3 14.15 72.1 15.45L74.2 17.15L74.95 17.8L74.7 17.8L72.3 18.1L68.2 18.1L68.2 15.3L68.35 15.05M37.55,97.45L37.75 97.8L38.85 99.6L39.15 100.15L38.8 100.15L36.7 100.3Q35.25 100.55 34.05 101.05L31.7 101.8L30.7 100.2L27.45 95.75L18.1 89.7L15.2 88.7L10 86.9Q8 86.2 6.6 85.2L6.65 84.45L6.7 83.7Q7.7 79.1 11.8 79.1Q13.2 79.1 17 80.75L17.4 80.9Q21.5 82.7 28.1 86.3Q31.5 87.7 34.3 92.1L36.85 96.25L37.55 97.45M42.25,33.1L43.7 23.95L45.35 23.95L47.9 24.45Q49.95 25.05 49.95 25.9L49.1 28.15L43.3 39.6L42.05 39.15L41.25 38.7L42.25 33.1M-76.15,66.4Q-77.3 64.05 -78.5 62.5L-79.25 61.7Q-78.1 60.2 -76.8 60.2Q-76 60.2 -75.15 60.85Q-73.6 61.9 -72 65L-71.95 65.15L-69 70.9L-72.75 71.45L-74.1 71.6Q-74.9 68.95 -76.15 66.4M-111.65,65.4L-110.95 68.2L-110.15 70.4Q-108.25 75.55 -105.35 77.65L-111.1 78.35L-113.8 78.7L-116.05 74.25L-117.45 70.4Q-118.8 66.4 -120.25 60.1Q-122.45 51.3 -124.55 47.25Q-126.2 44.15 -128.6 41.7L-129.1 34.7Q-129.1 32.7 -128.8 31.95L-127.3 31.95Q-122.45 33.9 -118.45 42.55Q-115.7 48.3 -114 55.65L-112.05 63.85L-111.65 65.4" />
<path style="fill:#FFFFFF;fill-opacity:1" d="M-142.05,83.85L-142.05 94.15L-142.05 109.9L142.25 109.9L142.25 -18.2L142.25 -109.55L-142.05 -109.55L-142.05 -18.2L-142.05 83.85M80.75,26.05Q80.1 26.75 79.55 28.75Q77.65 26.6 77.65 25Q77.65 22.25 79.85 22.05L83.45 25.35Q81.7 25 80.75 26.05M64.35,32.35L60.25 32.35L57.1 34.75Q55.25 36.65 55.25 39.3Q55.25 42.4 57.3 45.8Q59.65 49.6 62.55 48.2L55.85 52.3Q53.65 52.3 51.35 50.1L50.9 49.6Q48.6 47 48.1 44.05L48 43.25Q49.85 38.75 51.55 35.35Q55.15 28.4 59 28.4Q60.45 28.4 64.6 31.55L64.35 32.35M103.05,120.5L59.75 120.5L-151.9 120.5L-151.9 -121.05L151.95 -121.05L151.95 120.5L103.05 120.5M-34.05,-77L-35.05 -77.3Q-36.3 -77.3 -37.85 -76.4Q-38.25 -77.4 -38.45 -79.35L-38.4 -79.35L-37.45 -79.2L-33.7 -79.2L-32.85 -76.35L-34.05 -77M-31.05,-60.5L-31.6 -60.6Q-33.6 -58 -37.75 -57.1L-44.6 -56.3L-46 -56.2L-49 -60L-48.7 -60.35L-45 -60.15Q-41.85 -60.15 -37.25 -62.1Q-33.5 -63.7 -31.4 -65.45L-31.2 -65Q-30.85 -62.65 -31.05 -60.5M-46,-73.05L-46 -73L-46.35 -72.75L-47.15 -72.9L-48.2 -72.6L-49 -71.8Q-49.55 -70.9 -49.55 -69.75L-49.35 -68.25L-48.6 -67.15L-48.3 -66.65L-49.4 -66.4Q-50.15 -66.4 -51.25 -68.7Q-52.25 -70.75 -52.35 -71.8L-51.15 -72.9L-49.2 -74.45L-47.35 -75.5L-46 -73.05" />
<path style="fill:#BAE7BF;fill-opacity:1" d="M78.75,19.65L100.7 20.3Q100.4 21.2 99.9 21.35L80.75 21.25L78.75 19.65M105,62.45L124.75 62.5L126.35 63.15Q127.5 63.5 127.75 63.8L127.9 64.55L126.95 64.85L124.6 64.35L103.1 64L105 62.45M-84.2,94.6L-79.65 95.15L-76.4 95L-75.9 95Q-68.4 95 -64.45 92.95L-63.1 92Q-55.6 89.75 -52.05 89.75L-34.85 91.95L-18.5 93.25Q-18.6 93.1 -18.75 93.1L-18.4 93.1L-12.95 92.65L-12.45 92.7L-12 92.55L-9 92.05L-5.9 91.5L-1.3 90.9L2.9 91.5L3.75 91.85L3.8 92.85Q3.8 93.15 5.05 94.85L6.25 95L6.4 95.1L6.4 98Q6.7 101.2 8.65 101.2L12.65 100.35L15.9 99.7L21.95 100.05L24.35 100.75Q28.1 101.95 30.3 101.95L31.7 101.8L34.05 101.05Q35.25 100.55 36.7 100.3L39.05 100.35L39.65 100.6Q40 100 40.65 99.45L41.95 99.2L40.25 99.3L38.85 99.6L37.75 97.8L37.55 97.45L41.75 96.95Q42.3 96.05 43.45 95.25L45.2 95L48.6 94.55L52.8 94.6L58.7 95.9Q63.65 97.35 66.75 97.35Q72.55 97.35 78.05 93.7L80.4 92.05L83.7 91.95L83.4 90.35Q85.45 89.1 89 88.5L99.3 87.7L99.3 87.35L128.55 87.5L130.3 88.25Q131.25 88.7 131.55 89.85L130.3 90.05L130.3 90.75Q130.3 91.9 128.35 92.4Q124.35 93.6 111.85 94.15L87.45 94.45Q85.65 95.75 83.45 96.35Q80.9 97.1 79.75 97.7L72.95 98Q70.7 99.75 61.45 100.5L52.75 101.05L52.75 101.25L51.95 101.2L49.15 101.5L43.8 101.7L43.95 103.3L42.25 103.3L39.45 104.8L25.65 105.05L11.2 105.5Q8.7 105.95 8.45 104.8Q8.2 103.7 9.05 103.75L6.2 103.15L1.45 103.75L-5.2 104.15L-7.6 104Q-7.85 104.8 -7.85 103.1Q-7.85 102.1 -7.3 102.1L-6 102.15L-7.6 101.8Q-7.85 102.7 -7.85 100.95Q-7.85 100 -7.65 100.05L-7.1 100.2Q-0.3 99.9 0.15 99.3Q-1.35 97.1 -3.9 96.25Q-6.25 95.45 -14.2 94.3L-15.05 94.3L-14.45 94.45Q-14.8 95.35 -15.25 95.5L-38 95.9Q-39.85 97.2 -43.85 97.4L-59.4 97.7L-71.2 98.6L-75.15 99.2L-81.05 99L-86 98.55L-93.55 97.85L-97.35 97.2L-103.1 96.5L-109.95 95.8L-132.95 97.5Q-133.25 98.1 -133.25 96.35L-133.05 96.1L-135.65 96.25Q-139.25 96.05 -139.6 95.5L-138.1 93.75L-139.3 93.55L-139.5 93.55L-141.9 94.15L-142.05 94.15L-142.05 83.85L-137.85 83.85L-136.25 82.35L-130.35 82.5L-128.5 82.6L-127.9 83.95L-128 84L-128.45 84.55L-132.95 85L-128.85 85.25Q-129.4 86.25 -129.4 87.5L-129.4 87.85L-130.4 87.95L-129.15 89.45L-131.75 91.5L-127.95 91.3Q-127.1 92.05 -125.7 92.4L-123.05 92.55L-122.8 92.65Q-122.85 92.35 -122.35 92.35L-107.65 92L-105.85 92.2L-100.55 92.35L-92.5 93.35L-92 93.75L-92.25 94.45L-84.2 94.6M121.95,2.05Q119.6 1.9 119.25 1.4L119.25 0.45L122.75 1Q122.4 1.9 121.95 2.05M105.7,3.9L105.35 4.95L98.8 4.95L98.7 5.1Q98.5 5.1 98.5 4.05Q98.5 2.95 98.9 3.05Q99.1 3.05 99.3 3.2L102.3 3.35L105.7 3.9M87.25,90.9L86.65 91.45L90.8 90.9L87.25 90.9M100.5,92.1L114.7 91.8L125.2 91.45L106.05 91.45L100.5 92.1M44.4,5.45L43.9 5L43.2 5.7L39.55 5.45Q39.25 4.95 39.25 3.5Q39.45 3.35 43.7 4.5L43.7 4.25L45.2 4.55Q45.1 5.25 44.4 5.45M56.6,96.5L56.65 96.55L56.85 96.5L56.6 96.5M-23.1,52.55L-23.4 52.8L-33.55 52.85L-35.5 51L-28.3 51.1L-21.05 51.3Q-22.45 52.05 -23.1 52.55M-11.95,37.7L-20.8 37.55Q-21.1 38.45 -21.1 36.8Q-21.1 35.75 -20.7 35.8L-20.35 35.95L-12.1 36.1L-11.95 37.7M-76.15,37.95L-73.75 39.75L-73.7 39.8L-73.95 39.8L-78.3 39.95L-97.05 39.75Q-97.35 40.65 -97.35 38.9Q-97.35 37.95 -97.15 38L-96.55 38.15L-76.15 37.95M-55.3,51.65L-51.1 54.1L-51.85 54.25L-53.75 54.75L-56.15 54.25L-56.95 53.95L-56.75 52.75L-55.3 51.65M-62.5,95.8L-61.5 95.8L-61.6 95.65L-62.5 95.8M-95.95,16.35L-117.2 16.2Q-117.5 15.7 -117.5 14.25L-115.9 14.4L-105.7 14.6L-95.15 15.3Q-95.4 16.35 -95.95 16.35M-112.05,63.85L-108.5 63.45L-108.5 63.15L-99.5 63.3L-90.1 63.8Q-90.4 64.85 -90.85 64.85L-109.75 65.55L-111.65 65.4L-112.05 63.85M-82.7,70.25L-90.25 70.75L-98.4 71.3L-104.55 71.15Q-104.9 72 -104.9 70.25Q-104.9 69.25 -104.7 69.35L-104.1 69.5L-82.7 68.25L-82.05 68.15L-82.7 70.25M-95.25,94.4L-95.45 94.3L-96.85 94.3L-95.25 94.4M-90.1,103.3L-92 103.75L-94.65 104.15Q-95.8 104.15 -96 103.7L-97.35 101.8L-96.85 101.2L-96.55 100.9L-93.55 101.05L-90.1 101.65L-90.1 103.3M-100.1,102.45L-122.95 102.45L-124.4 100.35Q-120.25 97.8 -110.45 98.75L-100.1 100.35Q-99.95 100.2 -99.8 100.2Q-99.55 100.35 -99.55 101.4L-99.6 102.4L-100.1 102.45M-66.6,100L-66.15 100.9Q-66.35 101.55 -67.25 101.7L-73.7 101.95L-74 100.75L-73.9 99.65L-66.6 100" />
<path style="fill:#2A2727;fill-opacity:1" d="M86.7,30.75L86.6 31.4L86.45 31.55Q85.85 31.7 85.1 31.1Q84.4 30.5 83.6 29.15L83.5 29.3L83.6 28.4L85.6 28.4Q85.65 28.95 86.25 29.3Q86.7 29.6 86.7 30.75M66.85,36.95L69.05 39.45L69.05 41.25L67.55 41.25Q64.05 40.3 65.35 36.95L66.85 36.95" />
<path style="fill:#515050;fill-opacity:1" d="M83.45,25.35L84.25 25.9L86.25 27.35L85.6 28.4L86.45 27.5Q90.65 30.3 93.55 31.25Q90.4 32.7 86.8 34.6L84.1 32.7Q81.15 30.5 79.55 28.75Q80.1 26.75 80.75 26.05Q81.7 25 83.45 25.35M86.25,29.3Q85.65 28.95 85.6 28.4L83.6 28.4L83.5 29.3L83.6 29.15Q84.4 30.5 85.1 31.1Q85.85 31.7 86.45 31.55L86.6 31.4L86.7 30.75Q86.7 29.6 86.25 29.3M83.8,26.8L83.8 27.4Q84 27.95 85.25 27.95L85.65 27.7L85.6 27.5Q84.85 26.45 84 26.15L83.8 26.8M64.6,31.55L64.75 31.7L68.35 34.6L72.2 38Q72.8 38.9 74.75 40.5L74.95 40.95L70.1 43.75L63.4 47.7L63.35 47.75L62.55 48.2Q59.65 49.6 57.3 45.8Q55.25 42.4 55.25 39.3Q55.25 36.65 57.1 34.75L60.25 32.35L64.35 32.35L64.6 31.55M65,35.5Q65.65 36.65 66.95 36.65L67.8 35.15Q67.8 33.55 66.2 33.3Q64.6 33.1 64.6 34.3L65 35.5M65.35,36.95Q64.05 40.3 67.55 41.25L69.05 41.25L69.05 39.45L66.85 36.95L65.35 36.95" />
<path style="fill:#F5EEEE;fill-opacity:1" d="M84,26.15Q84.85 26.45 85.6 27.5L85.65 27.7L85.25 27.95Q84 27.95 83.8 27.4L83.8 26.8L84 26.15M64.6,34.3Q64.6 33.1 66.2 33.3Q67.8 33.55 67.8 35.15L66.95 36.65Q65.65 36.65 65 35.5L64.6 34.3" />
<path style="fill:#BFBFE9;fill-opacity:1" d="M-18.2,56.05L-8.4 52.55L-8.25 52.45L-4.55 51.1Q6.15 46.95 11.8 42.25L11.95 42.1L12 42L13.6 40.5Q23.05 30.95 28.95 25.95L32.3 23.35L33.8 22.2Q36.4 20.45 39.05 19L39.15 19Q49 13.8 60.2 13.8Q64.05 13.8 68.35 15.05L68.2 15.3L68.2 18.1L72.3 18.1L74.7 17.8L74.95 17.8L74.2 17.15Q76.8 18.3 78.75 19.65L80.75 21.25L81.1 21.6L80.45 21.6L80.45 21.95L79.85 22.05Q77.65 22.25 77.65 25Q77.65 26.6 79.55 28.75Q81.15 30.5 84.1 32.7L86.8 34.6Q90.4 32.7 93.55 31.25Q105.7 25.5 110.85 25.5Q114.4 25.5 117.65 30.5Q120.8 35.35 120.8 39.8Q120.8 46.4 113.2 54.8Q113.4 52.55 114.6 49.2Q116.05 45.25 116.05 42.4Q116.05 38.3 114.45 35.2Q112.4 31.4 108.55 31.4Q103.85 31.4 97.1 36.25Q93.8 38.6 84.45 46.85Q66.85 62.3 56.85 62.3Q53.5 62.3 51.55 60.65Q49.5 58.95 49.5 55.95Q49.5 54.05 50.45 51.95Q50.85 50.85 51.35 50.1Q53.65 52.3 55.85 52.3L62.55 48.2L63.35 47.75L63.4 47.7L70.1 43.75L74.95 40.95L78.65 38.9L83.05 36.55L77.85 31.55Q68.8 22.95 63.8 22.95Q59.05 22.95 51.45 26.9L49.1 28.15L49.95 25.9Q49.95 25.05 47.9 24.45L45.35 23.95L43.7 23.95L42.25 33.1L41.75 33.6Q39.45 36.25 34.45 40.2L25.3 47.15L24.25 47.9Q18.7 52.15 11.6 55.4Q7.05 57.55 1.3 58.9Q-3.4 59.95 -4.4 59.45L-4.65 59.1L-4.45 59.05L-4.65 59.05L-10.35 58.7L-10.7 58.65L-14.4 58.05L-18.05 57.2L-19.7 56.55L-18.2 56.05" />
<path style="fill:#7D7DB8;fill-opacity:1" d="M99.95,37.3Q100.55 37.4 101.3 38Q102.3 38.75 102.3 39.6Q102.3 41.25 101.3 42.75Q100.15 44.45 98.6 44.45L96.6 44.15Q95.6 43.7 95.6 42Q95.6 39 98.2 37.85L99.75 37.4L99.95 37.3" />
<path style="fill:#A4A4E2;fill-opacity:1" d="M-2.85,89.35L-5.9 91.5L-9 92.05L-12 92.55L-12.95 92.65L-18.4 93.1L-18.75 93.1Q-18.6 93.1 -18.5 93.25L-34.85 91.95L-52.05 89.75Q-55.6 89.75 -63.1 92L-64.75 92.5Q-71.25 94.5 -76.4 95L-79.65 95.15L-84.2 94.6L-91.25 93.55L-92.5 93.35L-100.55 92.35L-107.1 91.95L-107.65 92L-122.35 92.35Q-122.85 92.35 -122.8 92.65L-123.05 92.55L-125.7 92.4Q-127.1 92.05 -127.95 91.3Q-129.3 90.1 -129.4 87.85L-129.4 87.5Q-129.4 86.25 -128.85 85.25L-128.45 84.55L-128 84L-127.9 83.95L-126.4 82.7Q-124.85 81.6 -122.4 80.7Q-119.2 79.55 -113.8 78.7L-111.1 78.35L-105.35 77.65L-99.9 77.3L-93.8 75.75L-88 74.15L-87.25 74L-87.2 74L-87.2 74.55Q-87.2 74.1 -85.05 73.5L-83.55 73.1L-75.6 71.75L-74.1 71.6L-72.75 71.45L-69 70.9L-68.6 70.9L-65.35 70.5L-61.45 69.95L-58.45 69.5L-56.75 69.2Q-51.65 68.2 -44.7 65.55Q-37.05 62.65 -33.35 61.65L-32.05 61.3L-32.05 60.85L-27.25 59.2L-19.7 56.55L-18.05 57.2L-14.4 58.05L-10.7 58.65L-10.35 58.7L-4.65 59.05L-4.45 59.05L-4.65 59.1L-4.4 59.45Q-3.4 59.95 1.3 58.9Q7.05 57.55 11.6 55.4Q18.7 52.15 24.25 47.9L25.3 47.15L34.45 40.2Q39.45 36.25 41.75 33.6L42.25 33.1L41.25 38.7L42.05 39.15L43.3 39.6L49.1 28.15L51.45 26.9Q59.05 22.95 63.8 22.95Q68.8 22.95 77.85 31.55L83.05 36.55L78.65 38.9L74.95 40.95L74.75 40.5Q72.8 38.9 72.2 38L68.35 34.6L64.75 31.7L64.6 31.55Q60.45 28.4 59 28.4Q55.15 28.4 51.55 35.35Q49.85 38.75 48 43.25L48.1 44.05Q48.6 47 50.9 49.6L51.35 50.1Q50.85 50.85 50.45 51.95Q49.5 54.05 49.5 55.95Q49.5 58.95 51.55 60.65Q53.5 62.3 56.85 62.3Q66.85 62.3 84.45 46.85Q93.8 38.6 97.1 36.25Q103.85 31.4 108.55 31.4Q112.4 31.4 114.45 35.2Q116.05 38.3 116.05 42.4Q116.05 45.25 114.6 49.2Q113.4 52.55 113.2 54.8L109.9 58.05L105 62.45L103.1 64L102.75 64.25Q99.15 67 96.3 68.35Q85.2 73.65 77.35 76.05Q67.35 79.1 57.9 79.1Q52.15 79.1 43.15 76.05L41.55 75.45L27.7 76.95Q21.4 78.05 17.4 80.9L17 80.75Q13.2 79.1 11.8 79.1Q7.7 79.1 6.7 83.7L6.65 84.45Q0.85 86.95 -2.85 89.35M98.2,37.85Q95.6 39 95.6 42Q95.6 43.7 96.6 44.15L98.6 44.45Q100.15 44.45 101.3 42.75Q102.3 41.25 102.3 39.6Q102.3 38.75 101.3 38Q100.55 37.4 99.95 37.3L99.8 37.3L99.75 37.4L98.2 37.85" />
<path style="fill:#E5E5F7;fill-opacity:1" d="M78.05,93.7Q72.55 97.35 66.75 97.35Q63.65 97.35 58.7 95.9L52.8 94.6L50.35 94.45L48.6 94.55L45.2 95L43.45 95.25L39.45 95.5L39.35 96.35L39.25 96.35L38.8 96.2L37.25 95.9L36.85 96.25L34.3 92.1Q31.5 87.7 28.1 86.3Q21.5 82.7 17.4 80.9Q21.4 78.05 27.7 76.95L41.55 75.45L43.15 76.05Q52.15 79.1 57.9 79.1Q67.35 79.1 77.35 76.05Q85.2 73.65 96.3 68.35Q99.15 67 102.75 64.25Q101.4 66.6 99.6 70.4L97.2 75.25Q93.75 81.5 88.9 85.15L80.4 92.05L78.05 93.7M6.65,84.45L6.6 85.2L6.4 92.1L6.4 92.7L3.75 91.85L2.9 91.5L-1.3 90.9L-5.9 91.5L-2.85 89.35Q0.85 86.95 6.65 84.45" />
<path style="fill:#5BABC6;fill-opacity:1" d="M-82.05,68.15L-81.35 65.95L-80.3 63.45L-79.25 61.7L-78.5 62.5Q-77.3 64.05 -76.15 66.4Q-74.9 68.95 -74.1 71.6L-75.6 71.75L-83.55 73.1L-82.7 70.25L-82.05 68.15M-113.8,78.7Q-119.2 79.55 -122.4 80.7Q-124.85 81.6 -126.4 82.7L-127.9 83.95L-128.5 82.6Q-130.35 78.3 -130.35 74.65Q-130.35 71.55 -129.1 63.95Q-127.8 56.45 -127.8 52.85Q-127.8 50.2 -128.4 43.75L-128.6 41.7Q-126.2 44.15 -124.55 47.25Q-122.45 51.3 -120.25 60.1Q-118.8 66.4 -117.45 70.4L-116.05 74.25L-113.8 78.7M11.65,41.55L11.55 41.4L10.05 36.9Q9.65 34.95 9.65 32.7Q9.65 27.2 10 22.45L10 21.95Q10.25 16.9 10.85 12.75Q11.35 9.25 12.05 6.55Q12.55 6.9 13.15 6.9Q14.4 6.9 15.95 5Q17.5 3.05 18.95 3.05Q19.3 3.05 19.75 3.35Q21.55 4.45 24.85 10.15L27.1 14.15L30.45 20.2L32.3 23.35L28.95 25.95Q23.05 30.95 13.6 40.5L12 42L11.65 41.55M30.3,101.95Q28.1 101.95 24.35 100.75L21.95 100.05L17.55 99.5L15.9 99.7L12.65 100.35L8.65 101.2Q6.7 101.2 6.4 98L6.4 95.1L6.4 92.7L6.4 92.1L6.6 85.2Q8 86.2 10 86.9L15.2 88.7L18.1 89.7L27.45 95.75L30.7 100.2L31.7 101.8L30.3 101.95" />
<path style="fill:#956F4A;fill-opacity:1" d="M-41.8,-98.35L-41.75 -98.4Q-41.55 -99.4 -41.8 -100.9L-42.35 -103.5Q-39.25 -102.3 -37.1 -99.2Q-34.8 -95.8 -34.8 -91.55Q-34.8 -90.25 -35.45 -88.45Q-36 -86.9 -36.5 -86.1L-36.8 -86.25L-36.8 -85.85Q-37.2 -85.85 -38.4 -87.05L-38.65 -87.3L-38.65 -88.35Q-38.65 -91 -39 -92.2Q-39.25 -93.2 -40.55 -95.45L-41.15 -94.5Q-41.45 -94.1 -42 -94.1Q-52.7 -97.05 -53.3 -95.8L-53.35 -95.6L-57.5 -95.6Q-57.05 -95.45 -56.5 -94.5L-56.05 -93.45L-57.35 -92.15Q-58.85 -90.85 -59.9 -90.2L-62.3 -88.6L-64.55 -88.5L-66.65 -88.65L-66.75 -88.65Q-65.65 -89.25 -64.45 -90.65Q-62.45 -92.8 -61.05 -93.2Q-62.1 -93.35 -65 -95.15Q-62.85 -97.9 -59.25 -99.35Q-55.85 -100.7 -51.75 -100.7L-46.35 -99.85Q-42.8 -99.1 -41.8 -98.4L-41.8 -98.35M-43.05,-85.4L-43.4 -84.25L-43.55 -83.65Q-43.65 -82.85 -44.35 -82.85Q-45 -82.85 -46.3 -83.35Q-47.55 -83.95 -48.35 -83.95Q-51.95 -83.95 -54.9 -81.65Q-58.45 -78.85 -58.45 -74.05Q-58.45 -70.3 -57.1 -67.5L-58.2 -67.5L-60.85 -67.15Q-62.1 -67.15 -64.55 -68.7L-67.65 -70.65L-67.55 -70.8Q-65.05 -71.85 -63.25 -74.9Q-61.5 -77.7 -61.5 -80.25Q-61.5 -81.1 -62.6 -81.8L-64.2 -83.05L-58.6 -86.85Q-53.45 -90 -51.95 -90L-50.3 -89.05Q-48.9 -88.05 -48.6 -88.05Q-47.9 -88.05 -46.55 -89.2Q-45.2 -90.35 -44.4 -90.35Q-43.8 -90.35 -42.8 -86.4L-43.05 -85.4" />
<path style="fill:#705133;fill-opacity:1" d="M-78.45,-50.2L-76.2 -50.05Q-72.8 -50.05 -69.75 -51.75Q-66.55 -53.5 -65.95 -56.05L-68.55 -56.05Q-70 -56.2 -70.35 -57.1Q-69.05 -57.8 -67.15 -60.05Q-64.8 -62.8 -64.8 -64.35Q-64.8 -66.55 -66.55 -66.8L-70.6 -67.15Q-72.2 -67.65 -73.75 -69Q-75.3 -70.35 -76 -72Q-73.5 -71.55 -70.05 -72.7Q-69.25 -72.9 -68.55 -73.25L-69.95 -73.6Q-75.1 -75.35 -74.55 -78.2Q-72.1 -78.15 -69.8 -79.5Q-67.4 -80.95 -66.6 -83.15Q-69.05 -84.4 -69.95 -87.9L-69.95 -88.75L-68.05 -88.35L-66.75 -88.65L-66.65 -88.65L-64.55 -88.5L-62.3 -88.6L-59.9 -90.2Q-58.85 -90.85 -57.35 -92.15L-56.05 -93.45L-56.5 -94.5Q-57.05 -95.45 -57.5 -95.6L-53.35 -95.6L-53.3 -95.8Q-52.7 -97.05 -42 -94.1Q-41.45 -94.1 -41.15 -94.5L-40.55 -95.45Q-39.25 -93.2 -39 -92.2Q-38.65 -91 -38.65 -88.35L-38.65 -87.3Q-39.75 -88.3 -40.45 -88.3Q-41.95 -88.3 -42.6 -87L-42.8 -86.4Q-43.8 -90.35 -44.4 -90.35Q-45.2 -90.35 -46.55 -89.2Q-47.9 -88.05 -48.6 -88.05Q-48.9 -88.05 -50.3 -89.05L-51.95 -90Q-53.45 -90 -58.6 -86.85L-64.2 -83.05L-62.6 -81.8Q-61.5 -81.1 -61.5 -80.25Q-61.5 -77.7 -63.25 -74.9Q-65.05 -71.85 -67.55 -70.8L-67.65 -70.65L-64.55 -68.7Q-62.1 -67.15 -60.85 -67.15L-58.2 -67.5L-57.1 -67.5L-56.85 -66.95L-55.25 -63.7L-55.5 -63.1Q-55.75 -62.65 -55.95 -62.65Q-56.5 -62.65 -57.1 -63.1L-57.35 -63.3L-58.6 -64.15L-59.05 -64.2Q-61.1 -64.2 -62.4 -62.5Q-63.45 -60.95 -63.45 -58.85Q-63.45 -57.05 -61.8 -55.8Q-60.4 -54.85 -59.05 -54.85Q-58.05 -54.85 -57.05 -55.3Q-56.15 -55.75 -55.9 -56.35Q-53.95 -52.7 -50.15 -50.2L-50.55 -49.55Q-51.7 -47.5 -55.55 -46.75L-62.3 -46.3L-71.8 -46.75Q-76.55 -47.4 -78.9 -49.3L-78.45 -50.2M-37.45,-79.2L-38.4 -79.35L-38.45 -79.35L-39 -79.8L-39.6 -81.65L-38.15 -81.85L-35.7 -81.1Q-34.6 -80.7 -33.85 -79.95L-33.85 -79.5L-33.7 -79.2L-37.45 -79.2M-53.55,-71.05Q-54.3 -71.05 -54.9 -71.55L-51.35 -76.1Q-49.5 -78.6 -48 -79.15L-47.5 -77.3L-46.8 -75.7L-47.3 -75.5L-47.35 -75.5L-49.2 -74.45L-51.15 -72.9L-52.35 -71.8L-53.55 -71.05" />
<path style="fill:#FFC599;fill-opacity:1" d="M-43.6,-47.65Q-46.6 -48.2 -49.5 -49.85L-50.15 -50.2Q-53.95 -52.7 -55.9 -56.35Q-56.15 -55.75 -57.05 -55.3Q-58.05 -54.85 -59.05 -54.85Q-60.4 -54.85 -61.8 -55.8Q-63.45 -57.05 -63.45 -58.85Q-63.45 -60.95 -62.4 -62.5Q-61.1 -64.2 -59.05 -64.2L-58.6 -64.15L-57.35 -63.3L-57.1 -63.1Q-56.5 -62.65 -55.95 -62.65Q-55.75 -62.65 -55.5 -63.1L-55.25 -63.7L-56.85 -66.95L-57.1 -67.5Q-58.45 -70.3 -58.45 -74.05Q-58.45 -78.85 -54.9 -81.65Q-51.95 -83.95 -48.35 -83.95Q-47.55 -83.95 -46.3 -83.35Q-45 -82.85 -44.35 -82.85Q-43.65 -82.85 -43.55 -83.65L-43.4 -84.25L-43.05 -85.4L-42.8 -86.4L-42.6 -87Q-41.95 -88.3 -40.45 -88.3Q-39.75 -88.3 -38.65 -87.3L-38.4 -87.05Q-37.2 -85.85 -36.8 -85.85L-36.8 -86.25L-36.5 -86.1L-36.5 -86L-33.1 -79.05L-31.45 -80.1Q-30.25 -80.1 -29.5 -78.2Q-28.85 -76.65 -28.85 -75.1L-28.95 -73.85L-30.15 -72.15Q-28.5 -67.1 -28.5 -61.9Q-28.5 -59.65 -28.8 -57.75L-29.7 -54.45Q-30.45 -52.65 -31.6 -51.3Q-34.7 -47.4 -40.65 -47.4L-43.45 -47.6L-43.6 -47.65M-36.5,-26.7Q-35.45 -28.6 -34.3 -29.55L-33.8 -30L-33.8 -28.75L-36.5 -26.7M-37.85,-76.4L-37.6 -75.4Q-36.85 -73.05 -36 -73.05L-32.7 -73.45L-32.7 -75.2L-32.85 -76.35L-33.7 -79.2L-33.85 -79.5L-33.85 -79.95Q-34.6 -80.7 -35.7 -81.1L-38.15 -81.85L-39.6 -81.65L-39 -79.8L-38.45 -79.35Q-38.25 -77.4 -37.85 -76.4M-31.05,-60.5Q-30.85 -62.65 -31.2 -65L-31.4 -65.45Q-33.5 -63.7 -37.25 -62.1Q-41.85 -60.15 -45 -60.15L-48.7 -60.35L-49 -60L-46 -56.2L-44.55 -54.4Q-42.55 -51.95 -39.15 -51.95Q-34.8 -51.95 -32.6 -55.8Q-31.3 -57.95 -31.05 -60.5M-46.6,-67.25Q-43.95 -68.15 -43.95 -68.6Q-43.95 -69.2 -45.4 -71.95L-46 -73L-46 -73.05L-47.35 -75.5L-47.3 -75.5L-46.8 -75.7L-47.5 -77.3L-48 -79.15Q-49.5 -78.6 -51.35 -76.1L-54.9 -71.55Q-54.3 -71.05 -53.55 -71.05L-52.35 -71.8Q-52.25 -70.75 -51.25 -68.7Q-50.15 -66.4 -49.4 -66.4L-48.3 -66.65L-46.6 -67.25" />
<path style="fill:#466D95;fill-opacity:1" d="M-32.85,-76.35L-32.7 -75.2L-32.7 -73.45L-36 -73.05Q-36.85 -73.05 -37.6 -75.4L-37.85 -76.4Q-36.3 -77.3 -35.05 -77.3L-34.05 -77L-32.85 -76.35M-35.1,-74.8L-35.6 -74.05Q-35.6 -73.3 -34.9 -73.3Q-34.4 -73.3 -34.4 -74.3L-34.6 -74.8L-35.1 -74.8M-34.05,-76.1L-34.3 -76.55L-34.8 -76.55L-34.9 -76.2Q-34.9 -75.55 -34.4 -75.55Q-34.05 -75.55 -34.05 -76.1M-48.3,-66.65L-48.6 -67.15L-49.35 -68.25L-49.55 -69.75Q-49.55 -70.9 -49 -71.8L-48.2 -72.6L-47.15 -72.9L-46.35 -72.75L-46 -73L-45.4 -71.95Q-43.95 -69.2 -43.95 -68.6Q-43.95 -68.15 -46.6 -67.25L-48.3 -66.65M-45.2,-69.5L-45.35 -69.65L-45.7 -70.35Q-46.8 -70.5 -46.8 -69.5Q-46.8 -68.85 -46.35 -68.6L-45.75 -68.6L-45.35 -69L-45.2 -69.05L-45.2 -69.5M-46.7,-72.1L-46.75 -71.7Q-46.75 -70.95 -46.1 -70.95Q-45.8 -70.95 -45.8 -71.55L-46.1 -72.1L-46.7 -72.1M-46.3,-71.7L-46.15 -71.5L-46.2 -71.5L-46.3 -71.7M-45.8,-69.75L-45.9 -69.6L-45.9 -69.75L-45.8 -69.75" />
<path style="fill:#FCFCFC;fill-opacity:1" d="M-34.4,-75.55Q-34.9 -75.55 -34.9 -76.2L-34.8 -76.55L-34.3 -76.55L-34.05 -76.1Q-34.05 -75.55 -34.4 -75.55M-46.1,-72.1L-45.8 -71.55Q-45.8 -70.95 -46.1 -70.95Q-46.75 -70.95 -46.75 -71.7L-46.7 -72.1L-46.1 -72.1M-46.2,-71.5L-46.15 -71.5L-46.3 -71.7L-46.2 -71.5" />
<path style="fill:#000000;fill-opacity:1" d="M-34.6,-74.8L-34.4 -74.3Q-34.4 -73.3 -34.9 -73.3Q-35.6 -73.3 -35.6 -74.05L-35.1 -74.8L-34.6 -74.8M-45.2,-69.05L-45.35 -69L-45.75 -68.6L-46.35 -68.6Q-46.8 -68.85 -46.8 -69.5Q-46.8 -70.5 -45.7 -70.35L-45.35 -69.65L-45.2 -69.5L-45.2 -69.05M-45.9,-69.75L-45.9 -69.6L-45.8 -69.75L-45.9 -69.75" />
<path style="fill:#541E1E;fill-opacity:1" d="M-32.6,-55.8Q-34.8 -51.95 -39.15 -51.95Q-42.55 -51.95 -44.55 -54.4L-46 -56.2L-44.6 -56.3L-37.75 -57.1Q-33.6 -58 -31.6 -60.6L-31.05 -60.5Q-31.3 -57.95 -32.6 -55.8" />
<path style="fill:none;stroke-width:1;stroke-linecap:butt;stroke-linejoin:miter;stroke-miterlimit:3;stroke:#333333;stroke-opacity:1" d="M77.85,-97.8L66.35 -91.1L66.4 -90.25Q66.4 -89.65 66.8 -89.5M77.85,-97.8Q78.7 -97.8 79.55 -96Q80.3 -94.4 80.3 -93.45L79.45 -89.5L78.55 -86.7L77.3 -83.75L77.05 -83.3Q75.8 -81.3 73.7 -80.5L69.4 -78.75L69.35 -78.75Q65.15 -77.1 64.4 -76.95L58.5 -76.65Q56.25 -76.65 53.75 -75.5Q51.3 -74.35 50.3 -72.85L37.4 -64.35Q29.25 -58.85 21.8 -57.5Q15.05 -56.2 6.9 -52.05L-3.05 -46.6L0.75 -40.85L4.5 -34.1L10.8 -20.95L12.1 -18.2M-142.05,94.15L-142.05 109.9L142.25 109.9L142.25 -18.2L142.25 -109.55L-142.05 -109.55L-142.05 -18.2M-81.7,32.35Q-82.65 30.75 -82.65 29.45Q-82.65 26.35 -75.55 23L-71.7 21.35L-60.4 17.9L-59 12.95Q-55.55 2.15 -55.55 -4.3Q-55.55 -7.45 -56.9 -16.95L-57.05 -18.2L-58.2 -27.9L-58.2 -28.15L-58.25 -28.8Q-58.25 -43.65 -44.15 -47.2M-43.6,-47.35L-43.6 -47.65Q-46.6 -48.2 -49.5 -49.85L-50.15 -50.2M-50.55,-49.55Q-51.7 -47.5 -55.55 -46.75L-62.3 -46.3L-71.8 -46.75Q-76.55 -47.4 -78.9 -49.3Q-79.85 -50.05 -80.35 -51.05L-78.45 -50.2L-76.2 -50.05Q-72.8 -50.05 -69.75 -51.75Q-66.55 -53.5 -65.95 -56.05L-68.55 -56.05Q-70 -56.2 -70.35 -57.1Q-69.05 -57.8 -67.15 -60.05Q-64.8 -62.8 -64.8 -64.35Q-64.8 -66.55 -66.55 -66.8L-70.6 -67.15Q-72.2 -67.65 -73.75 -69Q-75.3 -70.35 -76 -72Q-73.5 -71.55 -70.05 -72.7Q-69.25 -72.9 -68.55 -73.25L-69.95 -73.6Q-75.1 -75.35 -74.55 -78.2Q-72.1 -78.15 -69.8 -79.5Q-67.4 -80.95 -66.6 -83.15Q-69.05 -84.4 -69.95 -87.9L-69.95 -88.75L-68.05 -88.35L-66.75 -88.65Q-65.65 -89.25 -64.45 -90.65Q-62.45 -92.8 -61.05 -93.2Q-62.1 -93.35 -65 -95.15Q-62.85 -97.9 -59.25 -99.35Q-55.85 -100.7 -51.75 -100.7L-46.35 -99.85Q-42.8 -99.1 -41.8 -98.4L-41.75 -98.4Q-41.55 -99.4 -41.8 -100.9L-42.35 -103.5Q-39.25 -102.3 -37.1 -99.2Q-34.8 -95.8 -34.8 -91.55Q-34.8 -90.25 -35.45 -88.45Q-36 -86.9 -36.5 -86.1L-36.5 -86L-33.1 -79.05L-31.45 -80.1Q-30.25 -80.1 -29.5 -78.2Q-28.85 -76.65 -28.85 -75.1L-28.95 -73.85L-30.15 -72.15Q-28.5 -67.1 -28.5 -61.9Q-28.5 -59.65 -28.8 -57.75Q-27.35 -59.35 -24.45 -60.5L-16.45 -62.65L-9 -64.45Q-4.8 -65.3 2.15 -64.3L9.2 -66.25L16.6 -68.1Q17.9 -68.45 19.15 -69.8L21.4 -72.15Q26.1 -76.05 34.45 -78.2L49.5 -81.95Q52.5 -83.45 57.6 -87.45L61.25 -90.2Q63.55 -91.75 64.85 -91.75Q66.2 -91.55 66.35 -91.25L66.35 -91.1M-43.55,-28.05L-40 -27.6L-36.5 -26.7Q-35.45 -28.6 -34.3 -29.55L-33.8 -30Q-32.1 -31.3 -29.75 -31.3Q-28.7 -31.3 -22.35 -28.9L-22.3 -28.9L-22.2 -28.8L-10.6 -24.2L-3.25 -21L3.1 -18.2L6.8 -16.4L15.55 -11.55L15.65 -11.25L17.55 -7.95Q18.45 -5.9 19 -3.25L19.15 -3.25Q23.95 -3.25 30 5.45L30.2 5.75L31.85 8.2L38.6 18.05M-3.25,-21L-3.3 -18.2Q-3.55 -14.9 -4.45 -10.1Q-5.7 -2.8 -5.7 0.15L-5.7 0.25L-5.2 1.75Q-3.95 3.95 0.15 7.6Q4.65 11.5 7.45 13.1L8.1 13.4L8.1 13.65Q7.9 13.65 7.45 13.1M32.3,23.35L33.8 22.2Q36.4 20.45 39.05 19L39.15 19Q49 13.8 60.2 13.8Q64.05 13.8 68.35 15.05L68.45 14.1Q70.3 14.15 72.1 15.45L74.2 17.15Q76.8 18.3 78.75 19.65M80.75,21.25L81.1 21.6L80.45 21.6M80.45,21.95L79.85 22.05L83.45 25.35L84.25 25.5L84.25 25.9L86.25 27.35L86.45 27.5Q90.65 30.3 93.55 31.25Q105.7 25.5 110.85 25.5Q114.4 25.5 117.65 30.5Q120.8 35.35 120.8 39.8Q120.8 46.4 113.2 54.8L109.9 58.05L105 62.45L103.1 64L102.75 64.25Q101.4 66.6 99.6 70.4L97.2 75.25Q93.75 81.5 88.9 85.15L80.4 92.05M15.55,-11.55L12.1 -18.2M86.25,29.3Q85.65 28.95 85.6 28.4L83.6 28.4L83.5 29.3L83.6 29.15Q84.4 30.5 85.1 31.1Q85.85 31.7 86.45 31.55L86.6 31.4L86.7 30.75Q86.7 29.6 86.25 29.3M79.55,28.75Q80.1 26.75 80.75 26.05Q81.7 25 83.45 25.35L84.25 25.9M83.05,36.55L86.8 34.6L84.1 32.7Q81.15 30.5 79.55 28.75Q77.65 26.6 77.65 25Q77.65 22.25 79.85 22.05M86.8,34.6Q90.4 32.7 93.55 31.25M99.75,37.4L99.8 37.3L99.95 37.3Q100.55 37.4 101.3 38Q102.3 38.75 102.3 39.6Q102.3 41.25 101.3 42.75Q100.15 44.45 98.6 44.45L96.6 44.15Q95.6 43.7 95.6 42Q95.6 39 98.2 37.85L99.75 37.4L99.95 37.3M102.75,64.25Q99.15 67 96.3 68.35Q85.2 73.65 77.35 76.05Q67.35 79.1 57.9 79.1Q52.15 79.1 43.15 76.05L41.55 75.45L27.7 76.95Q21.4 78.05 17.4 80.9Q21.5 82.7 28.1 86.3Q31.5 87.7 34.3 92.1L36.85 96.25M37.25,95.9L38.8 96.2M39.25,96.35L39.35 96.35L39.45 95.5L43.45 95.25L45.2 95L48.6 94.55L50.35 94.45L52.8 94.6L58.7 95.9Q63.65 97.35 66.75 97.35Q72.55 97.35 78.05 93.7L80.4 92.05M74.2,17.15L74.95 17.8L74.7 17.8L72.3 18.1L68.2 18.1L68.2 15.3L68.35 15.05M80.75,21.25L78.75 19.65M42.25,33.1L43.7 23.95L45.35 23.95L47.9 24.45Q49.95 25.05 49.95 25.9L49.1 28.15L43.3 39.6L42.05 39.15L41.25 38.7L42.25 33.1M83.05,36.55L78.65 38.9L74.95 40.95L70.1 43.75L63.4 47.7L63.35 47.75L62.55 48.2L55.85 52.3Q53.65 52.3 51.35 50.1L50.9 49.6Q48.6 47 48.1 44.05L48 43.25Q49.85 38.75 51.55 35.35Q55.15 28.4 59 28.4Q60.45 28.4 64.6 31.55L64.75 31.7L68.35 34.6L72.2 38Q72.8 38.9 74.75 40.5M62.55,48.2Q59.65 49.6 57.3 45.8Q55.25 42.4 55.25 39.3Q55.25 36.65 57.1 34.75L60.25 32.35L64.35 32.35M-19.7,56.55L-27.25 59.2L-32.05 60.85L-32.05 61.3L-33.35 61.65Q-37.05 62.65 -44.7 65.55Q-51.65 68.2 -56.75 69.2L-58.45 69.5L-61.45 69.95L-65.35 70.5L-68.6 70.9L-69 70.9L-72.75 71.45L-74.1 71.6L-75.6 71.75L-83.55 73.1L-85.05 73.5Q-87.2 74.1 -87.2 74.55L-87.2 74L-87.25 74L-88 74.15L-93.8 75.75L-99.9 77.3L-105.35 77.65L-111.1 78.35L-113.8 78.7Q-119.2 79.55 -122.4 80.7Q-124.85 81.6 -126.4 82.7L-127.9 83.95L-128 84L-128.45 84.55L-128.85 85.25Q-129.4 86.25 -129.4 87.5L-129.4 87.85Q-129.3 90.1 -127.95 91.3Q-127.1 92.05 -125.7 92.4L-123.05 92.55L-122.8 92.65Q-122.85 92.35 -122.35 92.35L-107.65 92L-107.1 91.95L-100.55 92.35L-92.5 93.35L-91.25 93.55L-84.2 94.6L-79.65 95.15L-76.4 95Q-71.25 94.5 -64.75 92.5L-63.1 92Q-55.6 89.75 -52.05 89.75L-34.85 91.95L-18.5 93.25Q-18.6 93.1 -18.75 93.1L-18.8 93.1M65.35,36.95Q64.05 40.3 67.55 41.25L69.05 41.25L69.05 39.45L66.85 36.95L65.35 36.95M32.3,23.35L28.95 25.95Q23.05 30.95 13.6 40.5L12 42L11.95 42.1L12.4 42.75M10.05,36.9L7.1 30.2L4.25 24.3Q7.6 23.5 10 22.45L10 21.95Q10.25 16.9 10.85 12.75Q11.35 9.25 12.05 6.55Q14.4 -3.1 19 -3.25M10,22.45Q9.65 27.2 9.65 32.7Q9.65 34.95 10.05 36.9L11.55 41.4L11.65 41.55M4.25,24.3L-1.9 11.35L-5.2 1.75M-12.1,36.1L-11.95 37.7Q-11.65 40.5 -11.65 43.15Q-11.65 45.1 -13.15 46.5Q-13.35 46.55 -13.45 46.7L-17.05 49.5L-4.55 51.1Q6.15 46.95 11.8 42.25L11.55 41.4M11.8,42.25L11.95 42.1L11.65 41.55M-5.9,91.5L-2.85 89.35Q0.85 86.95 6.65 84.45L6.7 83.7Q7.7 79.1 11.8 79.1Q13.2 79.1 17 80.75L17.4 80.9M6.65,84.45L6.6 85.2L6.4 92.1L6.4 92.7L6.4 95.1L6.4 98Q6.7 101.2 8.65 101.2L12.65 100.35L15.9 99.7L17.55 99.5L21.95 100.05L24.35 100.75Q28.1 101.95 30.3 101.95L31.7 101.8L34.05 101.05Q35.25 100.55 36.7 100.3L38.8 100.15L39.15 100.15L38.85 99.6L37.75 97.8L37.55 97.45L36.85 96.25M3.75,91.85L2.9 91.5L-1.3 90.9L-5.9 91.5L-9 92.05L-12 92.55M-12.95,92.65L-18.4 93.1L-18.4 93.3L-18.5 93.25L-18.4 93.1L-18.75 93.1M3.75,91.85L6.4 92.7M41.55,75.45L29.8 71.2M103.05,120.5L59.75 120.5L-151.9 120.5L-151.9 -121.05L151.95 -121.05L151.95 120.5L103.05 120.5M-57.1,-67.5Q-58.45 -70.3 -58.45 -74.05Q-58.45 -78.85 -54.9 -81.65Q-51.95 -83.95 -48.35 -83.95Q-47.55 -83.95 -46.3 -83.35Q-45 -82.85 -44.35 -82.85Q-43.65 -82.85 -43.55 -83.65L-43.4 -84.25L-43.05 -85.4L-42.8 -86.4L-42.6 -87Q-41.95 -88.3 -40.45 -88.3Q-39.75 -88.3 -38.65 -87.3L-38.4 -87.05Q-37.2 -85.85 -36.8 -85.85L-36.8 -86.25L-36.5 -86.1M-38.45,-79.35L-39 -79.8L-39.6 -81.65L-38.15 -81.85L-35.7 -81.1Q-34.6 -80.7 -33.85 -79.95L-33.85 -79.5L-33.7 -79.2L-32.85 -76.35L-32.7 -75.2L-32.7 -73.45L-36 -73.05Q-36.85 -73.05 -37.6 -75.4L-37.85 -76.4Q-38.25 -77.4 -38.45 -79.35L-38.4 -79.35L-37.45 -79.2L-33.7 -79.2M-37.85,-76.4Q-36.3 -77.3 -35.05 -77.3L-34.05 -77L-32.85 -76.35M-30.15,-72.15L-31.05 -74.45L-33.1 -79.05M-41.6,-66.4L-39.8 -67.85Q-39.2 -68.4 -38 -68.4L-36.25 -68M-31.4,-65.45Q-33.5 -63.7 -37.25 -62.1Q-41.85 -60.15 -45 -60.15L-48.7 -60.35M-49,-60L-46 -56.2L-44.6 -56.3L-37.75 -57.1Q-33.6 -58 -31.6 -60.6M-46,-56.2L-44.55 -54.4Q-42.55 -51.95 -39.15 -51.95Q-34.8 -51.95 -32.6 -55.8Q-31.3 -57.95 -31.05 -60.5Q-30.85 -62.65 -31.2 -65M-28.8,-57.75L-29.7 -54.45L-28.45 -53.55L-25.95 -52.4M-29.7,-54.45Q-30.45 -52.65 -31.6 -51.3Q-34.7 -47.4 -40.65 -47.4L-43.45 -47.6L-43.45 -47.35L-43.35 -42.15M-41.75,-98.4L-41.8 -98.35L-41.8 -98.4M-52.35,-71.8L-51.15 -72.9L-49.2 -74.45L-47.35 -75.5L-47.3 -75.5L-46.8 -75.7L-47.5 -77.3L-48 -79.15Q-49.5 -78.6 -51.35 -76.1L-54.9 -71.55Q-54.3 -71.05 -53.55 -71.05L-52.35 -71.8Q-52.25 -70.75 -51.25 -68.7Q-50.15 -66.4 -49.4 -66.4L-48.3 -66.65L-48.6 -67.15L-49.35 -68.25L-49.55 -69.75Q-49.55 -70.9 -49 -71.8L-48.2 -72.6L-47.15 -72.9L-46.35 -72.75M-46,-73L-46 -73.05L-47.35 -75.5M-57.1,-67.5L-56.85 -66.95L-55.25 -63.7L-55.5 -63.1Q-55.75 -62.65 -55.95 -62.65Q-56.5 -62.65 -57.1 -63.1L-57.35 -63.3L-58.6 -64.15L-59.05 -64.2Q-61.1 -64.2 -62.4 -62.5Q-63.45 -60.95 -63.45 -58.85Q-63.45 -57.05 -61.8 -55.8Q-60.4 -54.85 -59.05 -54.85Q-58.05 -54.85 -57.05 -55.3Q-56.15 -55.75 -55.9 -56.35Q-53.95 -52.7 -50.15 -50.2M-46,-73L-45.4 -71.95Q-43.95 -69.2 -43.95 -68.6Q-43.95 -68.15 -46.6 -67.25L-48.3 -66.65M-58.05,-60.9Q-58.4 -61.25 -58.9 -61.25L-59.9 -60.6L-60.25 -59.45M-68.55,-73.25Q-66.45 -74.05 -64.95 -75.35M-43.45,-47.6L-43.6 -47.65M-43.6,-47.35L-43.45 -47.35M-43.55,-28.05L-44.9 -28.15L-49.35 -27.65L-49.15 -26.85M-46.2,-18.2Q-46.85 -13.15 -46.75 -6.4Q-46.55 9 -46.9 15L-46.9 15.1L-47.15 17.25L-48.2 21.6L-50.75 30.3Q-44.95 30.15 -37 28.6L-23.8 26.35M-46.2,15Q-42.2 13.65 -35.45 12.45L-24.95 10.55Q-24.75 8.25 -23.7 7.3L-20.75 7.3L-21.3 6L-24.35 -0.6Q-28.85 -9.85 -33.3 -18.2M-46.2,-18.2Q-45.4 -24.15 -43.55 -27.65M-3.05,-46.6L-6.5 -44.85M-36.5,-26.7L-36.9 -26.1L-37.1 -25.1L-33.3 -18.2M-23.2,-25.55L-23.3 -25.65L-23.5 -25.65L-23.2 -25.55Q-17.35 -23.65 -13.25 -18.2Q-10.85 -15.05 -9.05 -10.65L-5.7 0.25M-24.95,10.55L-24.95 10.7L-25.1 15.3L-25.1 15.45L-24.65 21.9L-23.8 26.35L-23.7 27.25Q-23.35 29.4 -20.5 30L-16.75 30.2L-13.35 29.45Q-15.55 19.4 -20.75 7.3M-50.75,30.3L-53.1 38.25L-53.25 38.6L-52.15 38.6Q-46.2 41.2 -40.25 46.5L-39.75 46.95L-35.5 51M-27.15,58.8Q-26.55 57 -25.45 55.25Q-24.45 53.7 -23.4 52.8L-23.1 52.55Q-22.45 52.05 -21.05 51.3L-19.9 50.7Q-17.6 49.5 -17.15 49.5L-17.05 49.5M-12.1,36.1Q-12.5 32.95 -13.25 29.6L-13.35 29.45M-60.4,17.9L-61.65 23.4Q-62.25 26.9 -62.2 29.6L-62.1 31.4L-62.1 34.05L-62.1 36.35L-62.2 40.8L-62.3 47.1L-62.4 47.75L-62.65 58.35L-62.65 58.45L-62.8 64.8Q-62.45 65 -62.5 65.25L-62.8 65.95Q-63.5 67.7 -65.35 70.5M-62.1,31.4L-65.05 31.4L-65.25 31.65L-65.25 31.95L-65.25 32.7L-62.1 34.05M-81.7,32.35Q-80.15 34.8 -76.15 37.95L-73.75 39.75L-73.7 39.8L-62.3 47.1M-53.25,38.6L-53.85 40.5L-54.85 44.05M-55.3,51.65L-51.1 54.1L-44.15 57.9Q-46.5 61.25 -53.55 62.75L-54.65 62.2L-55.5 63.15L-56.55 63.2M-55.3,51.65L-56.45 50.95L-56.75 52.75L-56.95 53.95L-57.35 57.6Q-57.65 60.65 -57.45 63.2L-57.45 63.35L-57.15 65.4L-56.75 69.2M-56.45,50.95L-54.85 44.05M-82.05,68.15L-81.35 65.95L-80.3 63.45L-79.25 61.7Q-78.1 60.2 -76.8 60.2Q-76 60.2 -75.15 60.85Q-73.6 61.9 -72 65L-71.95 65.15L-69 70.9M-62.8,65.95L-62.8 65.15L-62.8 64.8M-19.7,56.55L-18.2 56.05L-8.4 52.55L-8.25 52.45L-4.55 51.1M-18.2,56.05L-18.3 55.65M-33.55,52.85L-28.9 57L-27.15 58.8L-27.25 59.2M-33.55,52.85L-35.5 51M-12.95,92.65L-12 92.55M-111.65,65.4L-112.05 63.85L-114 55.65Q-115.7 48.3 -118.45 42.55Q-122.45 33.9 -127.3 31.95L-128.8 31.95Q-129.1 32.7 -129.1 34.7L-128.6 41.7L-128.4 43.75Q-127.8 50.2 -127.8 52.85Q-127.8 56.45 -129.1 63.95Q-130.35 71.55 -130.35 74.65Q-130.35 78.3 -128.5 82.6L-127.9 83.95M-142.05,94.15L-142.05 83.85L-142.05 -18.2M-118.75,93.1L-122.25 92.65L-122.8 92.65L-122.45 93.1L-123.05 92.55M-111.65,65.4L-110.95 68.2L-110.15 70.4Q-108.25 75.55 -105.35 77.65M-83.55,73.1L-82.7 70.25M-82.05,68.15L-82.7 70.25" />
</g>
</svg>
