<?xml version="1.0" encoding="utf-8"?>
<svg version="1.1" id="Layer_1"
xmlns="http://www.w3.org/2000/svg"
xmlns:xlink="http://www.w3.org/1999/xlink"
xmlns:author="http://www.sothink.com"
width="339px" height="289px"
xml:space="preserve">
<g id="357" transform="matrix(1, 0, 0, 1, 171.45, 146.7)">
<path style="fill:#212525;fill-opacity:1" d="M-150,-77.75L-149.05 -74.9Q-142.4 -55.45 -133.1 -39.85Q-109.9 -1.05 -59 31Q-34.35 46.5 -4.25 61Q26.35 75.75 56.15 86.3Q118.15 108.3 150 104.1L150 125L146 125L-150 125L-150 -77.75" />
<path style="fill:#80A6A6;fill-opacity:1" d="M159.65,136.5Q154.7 140.9 144.8 140.9L17.1 140.4Q-100.6 139.9 -114.65 139.3L-131.6 138.7L-145.1 138.4Q-155.6 138.15 -159.9 138.25Q-164.2 138.35 -167.45 133.9Q-170.75 129.35 -170.4 116.5Q-170.05 103.65 -170.05 88.1Q-170.05 22.5 -166.75 -127.05L-166.7 -128.2Q-166.7 -132.9 -164.6 -136.25L-158.85 -135.6Q-155.1 -135.45 -150.15 -135.8L-145.2 -136.2Q-130.2 -136.2 -84.25 -135Q-38.25 -133.85 -11.3 -133.85Q-2.1 -133.85 46.4 -135.6L63 -134.45Q93.95 -134.75 93.95 -135L93.95 -135.6L92.8 -135.6L93.9 -135.85L93.95 -135.6Q111.8 -135.6 121.55 -135.15L147 -133.25Q155.35 -132.55 158.7 -114.55Q160.65 -103.85 160.65 -87.75Q160.65 -66.9 158.55 -50.1Q156.45 -33.3 156.45 6.5Q156.45 11.7 157.35 36.8L158.25 63.05L156.75 79.7Q155.25 94.3 155.25 96.95L155.75 103.05L156 106.15L157.05 116.6L157.65 123.15Q158.2 128.6 159.45 132.85L160.45 135.75L159.65 136.5M-152.4,-124.35Q-155.85 -124.35 -155.95 -111.8L-155.3 -98.75L-155.3 -96.05L-156.65 -48.55Q-157.95 -6.35 -157.65 2.4Q-157.05 18.45 -159.9 51.45Q-163.05 87.7 -163.05 105.9Q-163.05 122.05 -160.65 126.75Q-156.75 134.45 -142.5 134.45L-124.85 134L-104.55 132.75Q-101.3 131.95 -85.05 132.95L-66.6 133.95L-40.35 133.5Q-20.1 133 -14.8 133.9Q-9.5 134.8 5.2 133.5L23.75 132.15L33.55 132.75L43.35 133.35L135.05 131.55L140.5 131.8Q142.9 131.9 144 130.95Q145.4 129.75 146 125L150 125L150 104.1L150 -125L-150 -125L-150 -123.75Q-151.55 -124.35 -152.4 -124.35" />
<path style="fill:#9BC6C6;fill-opacity:1" d="M-150,125L146 125Q145.4 129.75 144 130.95Q142.9 131.9 140.5 131.8L135.05 131.55L43.35 133.35L33.55 132.75L23.75 132.15L5.2 133.5Q-9.5 134.8 -14.8 133.9Q-20.1 133 -40.35 133.5L-66.6 133.95L-85.05 132.95Q-101.3 131.95 -104.55 132.75L-124.85 134L-142.5 134.45Q-156.75 134.45 -160.65 126.75Q-163.05 122.05 -163.05 105.9Q-163.05 87.7 -159.9 51.45Q-157.05 18.45 -157.65 2.4Q-157.95 -6.35 -156.65 -48.55L-155.3 -96.05L-155.3 -98.75L-155.95 -111.8Q-155.85 -124.35 -152.4 -124.35Q-151.55 -124.35 -150 -123.75L-150 -77.75L-150 125" />
<path style="fill:#9BC9C9;fill-opacity:1" d="M-163.1,-138.3Q-157.8 -144.15 -146.05 -143.5Q-138 -143.1 -31.85 -143Q74.25 -142.95 115.95 -143.75Q157.65 -144.6 161.75 -136.15Q165.8 -127.75 165.9 -124.55L165.95 -121.2Q167.5 -67.8 164.95 20.65Q162.4 109.1 163.5 120.6Q164.5 131.15 160.45 135.75L159.45 132.85Q158.2 128.6 157.65 123.15L157.05 116.6L156 106.15L155.75 103.05L155.25 96.95Q155.25 94.3 156.75 79.7L158.25 63.05L157.35 36.8Q156.45 11.7 156.45 6.5Q156.45 -33.3 158.55 -50.1Q160.65 -66.9 160.65 -87.75Q160.65 -103.85 158.7 -114.55Q155.35 -132.55 147 -133.25L121.55 -135.15Q111.8 -135.6 93.95 -135.6L93.9 -135.85L92.8 -135.6L93.95 -135.6L93.95 -135Q93.95 -134.75 63 -134.45L46.4 -135.6Q-2.1 -133.85 -11.3 -133.85Q-38.25 -133.85 -84.25 -135Q-130.2 -136.2 -145.2 -136.2L-150.15 -135.8Q-155.1 -135.45 -158.85 -135.6L-164.6 -136.25L-163.1 -138.3" />
<path style="fill:#1A1E1E;fill-opacity:1" d="M56.15,86.3Q26.35 75.75 -4.25 61Q-34.35 46.5 -59 31Q-109.9 -1.05 -133.1 -39.85Q-142.4 -55.45 -149.05 -74.9L-150 -77.75L-150 -123.75L-150 -125L150 -125L150 104.1Q118.15 108.3 56.15 86.3" />
<path style="fill:none;stroke-width:2;stroke-linecap:butt;stroke-linejoin:miter;stroke-miterlimit:3;stroke:#435B5B;stroke-opacity:1" d="M160.45,135.75Q164.5 131.15 163.5 120.6Q162.4 109.1 164.95 20.65Q167.5 -67.8 165.95 -121.2L165.9 -124.55Q165.8 -127.75 161.75 -136.15Q157.65 -144.6 115.95 -143.75Q74.25 -142.95 -31.85 -143Q-138 -143.1 -146.05 -143.5Q-157.8 -144.15 -163.1 -138.3L-164.6 -136.25Q-166.7 -132.9 -166.7 -128.2L-166.75 -127.05Q-170.05 22.5 -170.05 88.1Q-170.05 103.65 -170.4 116.5Q-170.75 129.35 -167.45 133.9Q-164.2 138.35 -159.9 138.25Q-155.6 138.15 -145.1 138.4L-131.6 138.7L-114.65 139.3Q-100.6 139.9 17.1 140.4L144.8 140.9Q154.7 140.9 159.65 136.5L160.45 135.75M-150,-123.75L-150 -125L150 -125L150 104.1L150 125L146 125L-150 125L-150 -77.75M-150,-123.75L-150 -77.75" />
<path style="fill:#669900;fill-opacity:0.101961" d="M62.55,-56.75L51.4 -56.75L51.4 -44.65L61.85 -44.65L61.85 -32.45L51.4 -32.45L51.4 -18.35L63.65 -18.35L63.65 -5.55L34.75 -5.55L34.75 -69.6L62.55 -69.6L62.55 -56.75M28.9,-69.6L28.9 -56.75L17.75 -56.75L17.75 -44.65L28.2 -44.65L28.2 -32.45L17.75 -32.45L17.75 -18.35L30 -18.35L30 -5.55L1.1 -5.55L1.1 -69.6L28.9 -69.6M58,32.3Q62.25 33.45 64.45 35.95Q66.7 38.5 67.25 41.6Q67.8 44.7 67.8 53.8L67.8 76.25Q67.8 84.85 67 87.75Q66.15 90.65 64.15 92.3Q62.15 93.95 59.15 94.6L50.2 95.25L29.2 95.25L29.2 31.2L41.7 31.2Q53.75 31.2 58 32.3M45.85,42.15L45.85 84.3Q49.45 84.3 50.3 82.85Q51.15 81.4 51.15 75L51.15 50.1Q51.15 45.75 50.85 44.55Q50.6 43.3 49.6 42.75Q48.6 42.15 45.85 42.15M23.35,44.05L12.2 44.05L12.2 56.15L22.65 56.15L22.65 68.35L12.2 68.35L12.2 82.45L24.45 82.45L24.45 95.25L-4.45 95.25L-4.45 31.2L23.35 31.2L23.35 44.05M-14.7,-68.65Q-10.55 -67.75 -7.9 -64Q-5.3 -60.3 -5.3 -52.1Q-5.3 -44.65 -7.15 -42.05Q-9 -39.5 -14.5 -38.95Q-9.55 -37.75 -7.85 -35.7Q-6.15 -33.65 -5.7 -31.9Q-5.3 -30.2 -5.3 -22.45L-5.3 -5.55L-20.75 -5.55L-20.75 -26.85Q-20.75 -31.95 -21.55 -33.2Q-22.4 -34.4 -25.85 -34.4L-25.85 -5.55L-42.5 -5.55L-42.5 -69.6L-30.7 -69.6L-14.7 -68.65M-25.85,-58.65L-25.85 -44.4Q-23 -44.4 -21.85 -45.15Q-20.75 -45.95 -20.75 -50.15L-20.75 -53.7Q-20.75 -56.75 -21.85 -57.7Q-22.95 -58.65 -25.85 -58.65M-58.1,-56.75L-58.1 -44.65L-47.8 -44.65L-47.8 -32.45L-58.1 -32.45L-58.1 -5.55L-74.75 -5.55L-74.75 -69.6L-46.55 -69.6L-46.55 -56.75L-58.1 -56.75M-20.25,32.15Q-16.1 33.05 -13.45 36.8Q-10.85 40.5 -10.85 48.7Q-10.85 56.15 -12.7 58.75Q-14.55 61.3 -20.05 61.85Q-15.1 63.05 -13.4 65.1Q-11.7 67.15 -11.25 68.9Q-10.85 70.6 -10.85 78.35L-10.85 95.25L-26.3 95.25L-26.3 73.95Q-26.3 68.85 -27.1 67.6Q-27.95 66.4 -31.4 66.4L-31.4 95.25L-48.05 95.25L-48.05 31.2L-36.25 31.2L-20.25 32.15M-31.4,42.15L-31.4 56.4Q-28.55 56.4 -27.4 55.65Q-26.3 54.85 -26.3 50.65L-26.3 47.1Q-26.3 44.05 -27.4 43.1Q-28.5 42.15 -31.4 42.15M-52.1,31.2L-52.1 44.05L-63.65 44.05L-63.65 56.15L-53.35 56.15L-53.35 68.35L-63.65 68.35L-63.65 95.25L-80.3 95.25L-80.3 31.2L-52.1 31.2" />
<path style="fill:#669900;fill-opacity:0.101961" d="M73.5,-58.2L83.95 -58.2L83.95 -46L73.5 -46L73.5 -31.9L85.75 -31.9L85.75 -19.1L56.85 -19.1L56.85 -83.15L84.65 -83.15L84.65 -70.3L73.5 -70.3L73.5 -58.2M51,-70.3L39.85 -70.3L39.85 -58.2L50.3 -58.2L50.3 -46L39.85 -46L39.85 -31.9L52.1 -31.9L52.1 -19.1L23.2 -19.1L23.2 -83.15L51 -83.15L51 -70.3M1.35,-63.7L1.35 -67.25Q1.35 -70.3 0.25 -71.25Q-0.85 -72.2 -3.75 -72.2L-3.75 -57.95Q-0.9 -57.95 0.25 -58.7Q1.35 -59.5 1.35 -63.7M14.95,-55.6Q13.1 -53.05 7.6 -52.5Q12.55 -51.3 14.25 -49.25Q15.95 -47.2 16.4 -45.45Q16.8 -43.75 16.8 -36L16.8 -19.1L1.35 -19.1L1.35 -40.4Q1.35 -45.5 0.55 -46.75Q-0.3 -47.95 -3.75 -47.95L-3.75 -19.1L-20.4 -19.1L-20.4 -83.15L-8.6 -83.15L7.4 -82.2Q11.55 -81.3 14.2 -77.55Q16.8 -73.85 16.8 -65.65Q16.8 -58.2 14.95 -55.6M89.9,40.25L89.9 62.7Q89.9 71.3 89.1 74.2Q88.25 77.1 86.25 78.75Q84.25 80.4 81.25 81.05L72.3 81.7L51.3 81.7L51.3 17.65L63.8 17.65Q75.85 17.65 80.1 18.75Q84.35 19.9 86.55 22.4Q88.8 24.95 89.35 28.05Q89.9 31.15 89.9 40.25M72.95,31Q72.7 29.75 71.7 29.2Q70.7 28.6 67.95 28.6L67.95 70.75Q71.55 70.75 72.4 69.3Q73.25 67.85 73.25 61.45L73.25 36.55Q73.25 32.2 72.95 31M45.45,30.5L34.3 30.5L34.3 42.6L44.75 42.6L44.75 54.8L34.3 54.8L34.3 68.9L46.55 68.9L46.55 81.7L17.65 81.7L17.65 17.65L45.45 17.65L45.45 30.5M9.4,45.2Q7.55 47.75 2.05 48.3Q7 49.5 8.7 51.55Q10.4 53.6 10.85 55.35Q11.25 57.05 11.25 64.8L11.25 81.7L-4.2 81.7L-4.2 60.4Q-4.2 55.3 -5 54.05Q-5.85 52.85 -9.3 52.85L-9.3 81.7L-25.95 81.7L-25.95 17.65L-14.15 17.65L1.85 18.6Q6 19.5 8.65 23.25Q11.25 26.95 11.25 35.15Q11.25 42.6 9.4 45.2M-36,-58.2L-25.7 -58.2L-25.7 -46L-36 -46L-36 -19.1L-52.65 -19.1L-52.65 -83.15L-24.45 -83.15L-24.45 -70.3L-36 -70.3L-36 -58.2M-9.3,42.85Q-6.45 42.85 -5.3 42.1Q-4.2 41.3 -4.2 37.1L-4.2 33.55Q-4.2 30.5 -5.3 29.55Q-6.4 28.6 -9.3 28.6L-9.3 42.85M-30,30.5L-41.55 30.5L-41.55 42.6L-31.25 42.6L-31.25 54.8L-41.55 54.8L-41.55 81.7L-58.2 81.7L-58.2 17.65L-30 17.65L-30 30.5" />
<path style="fill:#669900;fill-opacity:1" d="M70.4,-52.7L70.4 -40.5L59.95 -40.5L59.95 -26.4L72.2 -26.4L72.2 -13.6L43.3 -13.6L43.3 -77.65L71.1 -77.65L71.1 -64.8L59.95 -64.8L59.95 -52.7L70.4 -52.7M36.75,-52.7L36.75 -40.5L26.3 -40.5L26.3 -26.4L38.55 -26.4L38.55 -13.6L9.65 -13.6L9.65 -77.65L37.45 -77.65L37.45 -64.8L26.3 -64.8L26.3 -52.7L36.75 -52.7M1.4,-50.1Q-0.45 -47.55 -5.95 -47Q-1 -45.8 0.7 -43.75Q2.4 -41.7 2.85 -39.95Q3.25 -38.25 3.25 -30.5L3.25 -13.6L-12.2 -13.6L-12.2 -34.9Q-12.2 -40 -13 -41.25Q-13.85 -42.45 -17.3 -42.45L-17.3 -13.6L-33.95 -13.6L-33.95 -77.65L-22.15 -77.65L-6.15 -76.7Q-2 -75.8 0.65 -72.05Q3.25 -68.35 3.25 -60.15Q3.25 -52.7 1.4 -50.1M54.4,34.1L54.4 76.25Q58 76.25 58.85 74.8Q59.7 73.35 59.7 66.95L59.7 42.05Q59.7 37.7 59.4 36.5Q59.15 35.25 58.15 34.7Q57.15 34.1 54.4 34.1M76.35,45.75L76.35 68.2Q76.35 76.8 75.55 79.7Q74.7 82.6 72.7 84.25Q70.7 85.9 67.7 86.55L58.75 87.2L37.75 87.2L37.75 23.15L50.25 23.15Q62.3 23.15 66.55 24.25Q70.8 25.4 73 27.9Q75.25 30.45 75.8 33.55Q76.35 36.65 76.35 45.75M31.2,48.1L31.2 60.3L20.75 60.3L20.75 74.4L33 74.4L33 87.2L4.1 87.2L4.1 23.15L31.9 23.15L31.9 36L20.75 36L20.75 48.1L31.2 48.1M-12.2,-58.2L-12.2 -61.75Q-12.2 -64.8 -13.3 -65.75Q-14.4 -66.7 -17.3 -66.7L-17.3 -52.45Q-14.45 -52.45 -13.3 -53.2Q-12.2 -54 -12.2 -58.2M-38,-64.8L-49.55 -64.8L-49.55 -52.7L-39.25 -52.7L-39.25 -40.5L-49.55 -40.5L-49.55 -13.6L-66.2 -13.6L-66.2 -77.65L-38 -77.65L-38 -64.8M-27.7,23.15L-11.7 24.1Q-7.55 25 -4.9 28.75Q-2.3 32.45 -2.3 40.65Q-2.3 48.1 -4.15 50.7Q-6 53.25 -11.5 53.8Q-6.55 55 -4.85 57.05Q-3.15 59.1 -2.7 60.85Q-2.3 62.55 -2.3 70.3L-2.3 87.2L-17.75 87.2L-17.75 65.9Q-17.75 60.8 -18.55 59.55Q-19.4 58.35 -22.85 58.35L-22.85 87.2L-39.5 87.2L-39.5 23.15L-27.7 23.15M-22.85,48.35Q-20 48.35 -18.85 47.6Q-17.75 46.8 -17.75 42.6L-17.75 39.05Q-17.75 36 -18.85 35.05Q-19.95 34.1 -22.85 34.1L-22.85 48.35M-44.8,48.1L-44.8 60.3L-55.1 60.3L-55.1 87.2L-71.75 87.2L-71.75 23.15L-43.55 23.15L-43.55 36L-55.1 36L-55.1 48.1L-44.8 48.1" />
</g>
</svg>
