<?xml version="1.0" encoding="utf-8"?>
<svg version="1.1" id="Layer_1"
xmlns="http://www.w3.org/2000/svg"
xmlns:xlink="http://www.w3.org/1999/xlink"
xmlns:author="http://www.sothink.com"
width="25px" height="45px"
xml:space="preserve">
<g id="268" transform="matrix(1, 0, 0, 1, 11.95, 22.2)">
<path style="fill:#C5DBDB;fill-opacity:1" d="M-11.45,-21.65L0.1 -21.7Q3.45 -21.55 3.95 -20.05L4.1 -18.6L6.7 -19.15Q8.45 -19.15 10.1 -17.85Q11.85 -16.5 11.85 -14.75Q11.85 -12.9 10.15 -11.45L9.2 -12.55Q6.95 -15.45 6.1 -15.5Q2.45 -15.7 0.7 -17.05L-0.6 -18.35L-4.5 -17.85L-6.85 -17.95L-9.05 -18.1L-11.35 -18.35L-11.45 -18.35L-11.45 -21.65M-0.6,16.7L-1.3 18.45Q-4.95 18.45 -7.65 17.15Q-10.75 15.65 -10.75 13.2Q-10.75 9.8 -10.35 8.65Q-9.75 7.05 -8.15 6.55L-8 9Q-7.5 13.2 -5.85 14.2L-0.6 16.7" />
<path style="fill:#AABFBF;fill-opacity:1" d="M10.05,-11.4Q8.6 -10.2 4.35 -10.45L3.9 -10.7L3.85 -10.45L3.7 -9.55Q3.1 -6.25 1.5 -3.4Q0.75 -1.9 -3.85 0.85L-8.2 3.5L-8.15 6.55Q-9.75 7.05 -10.35 8.65Q-10.75 9.8 -10.75 13.2Q-10.75 15.65 -7.65 17.15Q-4.95 18.45 -1.3 18.45L-0.6 16.7L-0.1 16.9L2.15 18Q4.1 19.15 4.1 20.2Q4.1 21.75 3.6 21.45L0.95 21.5Q-1.15 21.8 -5.45 21.55L-11.45 21.4L-11.45 -18.35L-11.35 -18.35L-9.05 -18.1L-6.85 -17.95L-4.5 -17.85L-0.6 -18.35L0.7 -17.05Q2.45 -15.7 6.1 -15.5Q6.95 -15.45 9.2 -12.55L10.15 -11.45L10.05 -11.4" />
<path style="fill:none;stroke-width:1;stroke-linecap:butt;stroke-linejoin:miter;stroke-miterlimit:3;stroke:#435B5B;stroke-opacity:1" d="M-8.15,6.55L-8.2 3.5L-3.85 0.85Q0.75 -1.9 1.5 -3.4Q3.1 -6.25 3.7 -9.55L3.85 -10.45L3.9 -10.7L4.35 -10.45Q8.6 -10.2 10.05 -11.4L10.15 -11.45Q11.85 -12.9 11.85 -14.75Q11.85 -16.5 10.1 -17.85Q8.45 -19.15 6.7 -19.15L4.1 -18.6L3.95 -20.05Q3.45 -21.55 0.1 -21.7L-11.45 -21.65M-11.45,21.4L-5.45 21.55Q-1.15 21.8 0.95 21.5L3.6 21.45Q4.1 21.75 4.1 20.2Q4.1 19.15 2.15 18L-0.1 16.9L-0.6 16.7M4.35,-10.45L3.85 -10.45M-8.15,6.55L-8 9Q-7.5 13.2 -5.85 14.2L-0.6 16.7" />
</g>
</svg>
