<?xml version="1.0" encoding="utf-8"?>
<svg version="1.1" id="Layer_1"
xmlns="http://www.w3.org/2000/svg"
xmlns:xlink="http://www.w3.org/1999/xlink"
xmlns:author="http://www.sothink.com"
width="36px" height="38px"
xml:space="preserve">
<g id="108" transform="matrix(1, 0, 0, 1, 17.6, 19.15)">
<path style="fill:#A4C2E0;fill-opacity:1" d="M12.65,7.9L12.7 7.8L12.75 7.8L12.9 7.5L12.95 7.45Q14.4 4.4 14.4 1.85Q14.4 -2.15 12.35 -6.1L12.35 -6.15Q12.75 -6.7 12.75 -7.15Q12.75 -7.8 11.95 -8L11.2 -8.05L10.3 -9.35Q5.95 -15.35 0.7 -15.35L0.15 -15.35Q-0.25 -15.7 -1 -15.7Q-1.9 -15.7 -2.2 -15.15L-2.2 -15.1L-2.5 -15.1L-6.35 -14.9L-9.5 -15L-6 -16.65Q-3.5 -17.55 1.6 -17.7Q6.65 -17.85 11.9 -11.95Q17.15 -6.05 17.1 1.2Q17 8.05 12.6 12.35L12.55 12.3Q11.35 11.05 11.35 10.45L12.6 7.95L12.65 7.9M9.35,5.1L9.9 3.95L9.9 4.1Q9.9 8.2 6.85 10.7Q4.05 13 0 13Q-5.45 13 -9.05 9.8Q-12.65 6.6 -12.65 1.85Q-12.65 -0.65 -11.4 -2.85Q-10.6 -4.2 -9.65 -4.75Q-10.5 -2.5 -10.5 -0.4L-10.5 0.3Q-10.3 6 -6.95 8.4Q-3.45 10.9 1.05 10.9Q5.5 10.9 8.15 7.1L9.35 5.1" />
<path style="fill:#8CAAC9;fill-opacity:1" d="M12.6,7.95L11.35 10.45Q11.35 11.05 12.55 12.3L12.6 12.35L12.1 12.8Q7.25 17.2 3.35 17.55L-4.05 17.15L-8.95 15.85L-11.75 14.1L-14.55 11.15Q-16.05 9.35 -16.55 6.75Q-17.1 4.15 -17.1 0.05Q-17.1 -3.3 -16.15 -6.2L-14.95 -9.55L-13.65 -11.45Q-12.6 -12.9 -10.55 -14.3L-9.5 -15L-6.35 -14.9L-2.5 -15.1L-2.2 -15.1L-2.2 -15.15Q-1.9 -15.7 -1 -15.7Q-0.25 -15.7 0.15 -15.35L0.7 -15.35Q5.95 -15.35 10.3 -9.35L11.2 -8.05L11.95 -8Q12.75 -7.8 12.75 -7.15Q12.75 -6.7 12.35 -6.15L12.35 -6.1Q14.4 -2.15 14.4 1.85Q14.4 4.4 12.95 7.45L12.9 7.5L12.75 7.8L12.7 7.8L12.65 7.9L12.6 7.95M-11.4,-2.85Q-12.65 -0.65 -12.65 1.85Q-12.65 6.6 -9.05 9.8Q-5.45 13 0 13Q4.05 13 6.85 10.7Q9.9 8.2 9.9 4.1L9.9 3.95Q10.75 1.9 10.75 0Q10.75 -4.4 7.75 -7.5Q4.8 -10.6 0.8 -10.6L-4.65 -9.75Q-6.75 -9.05 -7.95 -7.9L-8.45 -7.4L-9.65 -4.75Q-10.6 -4.2 -11.4 -2.85" />
<path style="fill:#232121;fill-opacity:1" d="M1.9,-6.8Q2 -5.95 2.4 -5.15Q3.1 -3.5 4.4 -3.5Q6 -3.5 6 -5.15Q6 -6.75 3.95 -7.45Q1.9 -8.15 1.9 -6.8M6.8,-3.3Q5.8 -3.3 5.8 -2.05L5.9 -1.5Q6.2 -0.8 6.9 -0.8Q7.5 -0.8 7.7 -1.25L7.75 -2Q7.75 -3.35 6.8 -3.3M9.35,5.1Q-2.5 8.4 -10.5 0.3L-10.5 -0.4Q-10.5 -2.5 -9.65 -4.75L-8.45 -7.4L-7.95 -7.9Q-6.75 -9.05 -4.65 -9.75L0.8 -10.6Q4.8 -10.6 7.75 -7.5Q10.75 -4.4 10.75 0Q10.75 1.9 9.9 3.95L9.35 5.1" />
<path style="fill:#A39C9C;fill-opacity:1" d="M3.95,-7.45Q6 -6.75 6 -5.15Q6 -3.5 4.4 -3.5Q3.1 -3.5 2.4 -5.15Q2 -5.95 1.9 -6.8Q1.9 -8.15 3.95 -7.45M7.75,-2L7.7 -1.25Q7.5 -0.8 6.9 -0.8Q6.2 -0.8 5.9 -1.5L5.8 -2.05Q5.8 -3.3 6.8 -3.3Q7.75 -3.35 7.75 -2" />
<path style="fill:#333333;fill-opacity:1" d="M8.15,7.1Q5.5 10.9 1.05 10.9Q-3.45 10.9 -6.95 8.4Q-10.3 6 -10.5 0.3Q-2.5 8.4 9.35 5.1L8.15 7.1" />
<path style="fill:none;stroke-width:1;stroke-linecap:butt;stroke-linejoin:miter;stroke-miterlimit:3;stroke:#34495F;stroke-opacity:1" d="M0.15,-15.35Q0.55 -15 0.55 -14.25Q0.55 -12.65 -0.7 -12.65Q-1.35 -12.65 -1.85 -13.1Q-2.45 -13.55 -2.45 -14.15L-2.4 -14.45L-2.2 -15.1M-9.5,-15L-10.55 -14.3Q-12.6 -12.9 -13.65 -11.45L-14.95 -9.55L-16.15 -6.2Q-17.1 -3.3 -17.1 0.05Q-17.1 4.15 -16.55 6.75Q-16.05 9.35 -14.55 11.15L-11.75 14.1L-8.95 15.85L-4.05 17.15L3.35 17.55Q7.25 17.2 12.1 12.8L12.6 12.35Q17 8.05 17.1 1.2Q17.15 -6.05 11.9 -11.95Q6.65 -17.85 1.6 -17.7Q-3.5 -17.55 -6 -16.65L-9.5 -15M12.6,7.95Q12.25 8.35 11.9 8.35Q11.05 8.35 11.05 7.25L11.05 6.6Q11.15 6.2 11.8 6.2L12.6 6.45Q13 6.7 13 7.1L12.95 7.45L12.9 7.5M12.35,-6.1L11.65 -5.65Q11.2 -5.65 10.75 -6.15Q10.3 -6.7 10.3 -7.4Q10.3 -7.9 10.45 -8.2L11.2 -8.05L11.95 -8Q12.75 -7.8 12.75 -7.15Q12.75 -6.7 12.35 -6.15L12.35 -6.1M9.35,5.1L9.9 3.95Q10.75 1.9 10.75 0Q10.75 -4.4 7.75 -7.5Q4.8 -10.6 0.8 -10.6L-4.65 -9.75Q-6.75 -9.05 -7.95 -7.9L-8.45 -7.4L-9.65 -4.75Q-10.5 -2.5 -10.5 -0.4L-10.5 0.3Q-10.3 6 -6.95 8.4Q-3.45 10.9 1.05 10.9Q5.5 10.9 8.15 7.1L9.35 5.1M0.15,-15.35Q-0.25 -15.7 -1 -15.7Q-1.9 -15.7 -2.2 -15.15L-2.2 -15.1M-15.05,-1.45L-14.8 -1.95Q-15.5 -1.75 -15.5 -1.1Q-15.5 -0.65 -14.95 -0.2L-13.95 0.25L-13.05 -0.45L-12.65 -1.25Q-12.65 -1.85 -13.2 -2.2L-14.15 -2.45L-14.5 -2.4L-14.8 -1.95M-9.1,11.05Q-10.25 10.9 -10.25 12.35Q-10.25 13.45 -8.9 13.45L-8.25 13.05Q-7.95 12.65 -7.95 12.3Q-7.95 11.25 -9.1 11.05M2.95,14.3L2.45 13.6L1.75 13.3L0.85 13.75L0.55 14.6L0.95 15.3L1.65 15.7Q2.3 15.7 2.65 15.15L2.95 14.3M0.85,13.75L0.4 14.05" />
</g>
</svg>
