<?xml version="1.0" encoding="utf-8"?>
<svg version="1.1" id="Layer_1"
xmlns="http://www.w3.org/2000/svg"
xmlns:xlink="http://www.w3.org/1999/xlink"
xmlns:author="http://www.sothink.com"
width="5px" height="136px"
xml:space="preserve">
<g id="111" transform="matrix(1, 0, 0, 1, 2.35, 68.05)">
<path style="fill:#BB9250;fill-opacity:1" d="M-1.85,62.95L-1.7 52.55L-1.3 33.9L-0.9 17.45L-0.9 17.4L-0.9 15.75L-0.75 -2.1L-0.65 -7.7L-0.45 -14.4L-0.15 -28.25L-0.35 -37.25L-0.7 -48.5L-1.4 -65.55L-1.4 -67.45Q1.55 -66.9 1.9 -54.2L1.8 -37.5L1.6 -19.75L1.35 -7.8L1.2 -1.85L1.15 -1.85L1.15 13.6L1 18L0.95 19.05L0.95 19.8L0.95 19.95L0.7 38.45Q0.7 44 0.3 52.55L-0.15 63.2L-0.15 63.3L-0.35 67.1L-0.55 67.3L-1 67.45Q-1.35 67.45 -1.5 65.9L-1.85 62.95" />
<path style="fill:none;stroke-width:1;stroke-linecap:round;stroke-linejoin:miter;stroke-miterlimit:3;stroke:#6D501F;stroke-opacity:1" d="M-1.85,62.95L-1.7 52.55L-1.3 33.9L-0.9 17.45L-0.9 17.4L-0.9 15.75L-0.75 -2.1L-0.65 -7.7L-0.45 -14.4L-0.15 -28.25L-0.35 -37.25L-0.7 -48.5L-1.4 -65.55L-1.4 -67.45Q1.55 -66.9 1.9 -54.2L1.8 -37.5L1.6 -19.75L1.35 -7.8L1.2 -1.85L1.15 -1.85L1.15 13.6L1 18L0.95 19.05L0.95 19.8L0.95 19.95L0.7 38.45Q0.7 44 0.3 52.55L-0.15 63.2L-0.15 63.3L-0.35 67.1L-0.55 67.3L-1 67.45Q-1.35 67.45 -1.5 65.9L-1.85 62.95z" />
<path style="fill:none;stroke-width:1;stroke-linecap:butt;stroke-linejoin:miter;stroke-miterlimit:3;stroke:#6D501F;stroke-opacity:1" d="M-1.85,62.95L-1.85 65.95" />
</g>
</svg>
