<?xml version="1.0" encoding="utf-8"?>
<svg version="1.1" id="Layer_1"
xmlns="http://www.w3.org/2000/svg"
xmlns:xlink="http://www.w3.org/1999/xlink"
xmlns:author="http://www.sothink.com"
width="129px" height="254px"
xml:space="preserve">
<g id="349" transform="matrix(1, 0, 0, 1, -22.6, -321.9)">
<path style="fill:#000000;fill-opacity:0.2" d="M62.35,553.45Q76 549.55 95.5 549.35Q115.1 549.2 128.7 552.85Q142.5 556.5 142.55 561.85Q142.6 567.2 128.85 570.95Q115.35 574.9 95.75 575.05Q76.25 575.25 62.5 571.55Q48.65 568.05 48.6 562.7Q48.55 557.35 62.35 553.45" />
<path style="fill:#FC850F;fill-opacity:1" d="M54.25,343.8L54.25 345.5L54.3 347.55L54.5 351.95L54.5 352.3L54.6 354.25L55 360.9L58.1 358.25L61.15 359.9L62 356.4L64.85 357.05L65.25 353.55L69.35 353.95L68.75 352.3L68.65 351.95L66.85 347.55L65.25 343.8L64.15 341.3Q58.55 328.8 56.25 329.4Q54.1 329.95 54.25 343.8M93.6,550.05L93.55 550.15Q91.5 553.4 88 556.1L88.1 555.9L86 553.4L83.7 550.9L83.1 550.9L83.1 551.55L84.55 553.95Q85.5 555.4 86.6 556.4L86.95 556.45L87.1 556.2L86.75 555.65L87.45 556.15L87.9 556.15Q85.7 557.85 82.95 559.3Q79.65 561.1 76.95 562L76.5 562.3Q73.9 563.9 68.05 564.05L54.1 563.3L53.75 563.2L53.55 563.15L49.1 562.2Q49.5 559.15 50.55 555.8Q52.6 549.15 55.85 547.85Q59.1 546.55 63.55 548.65Q65.75 549.65 67.3 550.95Q69.6 543.85 70.45 536.2Q71.35 527.95 70.6 519.05Q64.3 518.1 57.5 515.55Q51.45 513.25 45.55 504.1Q39.9 495.25 39.75 488.85Q39.65 483.3 41.3 478.1L42.95 473.95Q29.4 466.55 25.9 459.8Q22.85 453.9 24.95 447.4Q25.75 444.9 27.3 442.4Q28.6 440.25 30.45 438.1Q32.75 435.45 42.25 428.9L51.35 422.85L49.5 420.6L48.5 419.05Q47.25 416.7 46 412.9L45.15 410.1L44.95 409.45L44.8 408.85L43.55 404.3L41.5 395.1L37.45 395.5L43.15 384.05L35.4 385.85L43.55 376.25L36.4 374.6L46.85 369.5L40.7 365.6L51 364.2L50.85 361.85Q50.55 358.05 50.4 354.25L50.3 352.3L50.3 351.95L50.2 347.55L50.15 344.2L50.15 343.8Q50.15 324.05 54.4 323.4Q58.7 322.8 66.6 337.6L69.75 343.8L71.55 347.55L73.45 351.95L73.6 352.3L73.65 352.5L74 352.3L74.6 351.95L77.05 350.55Q80.75 348.55 82.5 348.4Q84.05 348.3 85.7 349.9Q87.45 351.55 88.4 351.65Q89.6 351.75 92.55 350.85L96.2 349.85Q97.7 349.85 100.15 351.95L100.3 352.1L100.4 351.95L102.65 347.55L104.65 343.8L108 338.1Q116.45 324.35 120.35 325.65Q124.1 326.9 123.1 343.8L123 345.35L122.85 347.55L122.5 351.95L122.45 352.3L122.25 354.25L121.25 361.85L121 363.55L128.55 367.85L119.95 371.75L131.2 377.05L122.6 379.3L127.75 381.35L123.05 386.3L126.5 389.35L123.55 401.2L123.5 401.35L119.85 400.15Q117.5 399.55 117.5 400.3Q117.5 400.75 119.35 401.4L121.95 402.4L122.75 402.4L123.3 402.1L121.4 408.85L121.3 409.2Q120.9 408.8 118.15 408.25L114.35 407.6L114.25 407.7L114.1 407.9L116.35 409.2Q118.75 410.3 119.95 410.3L121 410.1L120.4 411.95L117.2 410.75Q114.7 409.95 113.45 410.25L113.35 410.55Q113.8 411.1 115.6 411.7L119 412.9L119.6 412.9L119.85 412.4L120.3 412.3L119.25 415.45L118.75 416.7L116.65 416.05Q114.35 415.45 113.25 415.35L113.15 415.4L113 415.6Q113 416.05 115.05 416.95L117.9 417.8L118.4 417.7L118.35 417.85L118.3 417.9L117.55 419.8L129.85 426.6Q138.4 432.35 143.5 438.1Q145.35 440.25 146.65 442.4Q148.2 444.9 149 447.4Q151.1 453.9 148.05 459.8Q145.85 463.95 139.8 468.4L140.65 471.3Q141.6 474.95 142.1 478.75Q143.7 490.75 140.25 499.15Q136.8 507.55 128.8 513.35Q124.8 516.3 121.45 517.5Q120.5 529.1 121.25 536.2Q122.1 543.85 124.4 550.95Q125.95 549.65 128.15 548.65Q132.6 546.55 135.85 547.85Q139.1 549.15 141.15 555.8Q142.2 559.15 142.6 562.2L138.15 563.15L137.95 563.2L137.6 563.3L123.65 564.05Q114.45 563.85 113.35 559.95Q112.25 556.1 112.7 537.05L113.35 519Q106.3 520.55 99.35 520.8L98.5 532L95.6 531.55L94.1 531.3Q92.95 531.25 92.5 531.65L92.6 531.9L94.15 532.5L96.1 533.1L97.6 533.05L98 532.6L98.45 532.35L97.2 540.15L96.95 540.05L95.55 539.65L91.35 538.95L91.1 539.1L91.35 539.55L91.7 539.65L91.95 540.05Q92.45 540.15 94.15 540.8L96.05 541.3L96.95 541.25Q95.65 546.55 93.85 549.65L92.4 548.5Q91.4 547.7 90.2 547.1Q89.4 546.9 88.2 546.1Q87.3 545.5 86.25 545.5L87.25 546.85L88.55 548.15L90.2 549.4L92.3 550.65L92.85 550.6L93.6 550.05M78.65,359.5L78.15 359.6L77.45 359.85L75.9 360.25L74.9 360.6L73.65 361.3L73.15 361.85L72.85 362.45L72.55 363.05Q72.4 363.25 72.4 363.65Q71.65 364.8 71.5 366L71.2 367.15L71 368.3L70.95 369.5L70.8 370.7L70.9 371.15L70.9 373.05L71.25 374.75L71.45 375.55L71.55 376L71.7 376.4L71.8 376.45L73.55 380.85L73.95 381.55L74.65 382.3L74.9 382.3L75.25 381.85L75.45 381.4L75.7 380.95L75.9 380.45L76.55 379.5L77.1 378.55L77.75 377.6Q77.9 377.25 78.5 376.65L80 374.8Q81.1 373.6 82.1 372.95L84.3 371.1Q85.25 370.1 85.25 367.25L85.15 366.05L84.95 364.85L84.45 362.3L84.35 362.25Q83.75 359.95 81.2 359.65L81.05 359.55L80.6 359.55L79.8 359.45L79.1 359.45L78.65 359.5M94.4,369.35Q95.05 368.45 95.3 367.15Q95.9 364.25 93.2 361.85L93 361.7Q90.15 359.25 87.35 361.25L86.65 361.85Q85.75 362.7 85.15 363.8Q85.85 366.45 85.5 369.35L85.4 370L85.1 371.4Q83.3 372.35 81.6 373.85Q80.15 375.1 78.8 376.75L78.2 377.6L77.95 377.9L77.45 378.65Q76 380.7 75.15 382.6L76.7 386.15Q79.4 389.75 85 390.15Q93 390.75 98.9 386.4Q103.6 382.9 103.95 378.65L103.95 377.9L103.95 377.6L103.85 376.65Q103.6 375.1 102.85 373.85Q101.7 372.15 99.5 371Q98.2 370.35 96.75 370L94.2 369.65L94.15 369.65L94.4 369.35M110.2,342.35L109.45 343.8L107.5 347.55L105.35 351.95L105.15 352.3L104.7 353.25L108.05 355.6L111.75 354.75L111.35 359.05L114.4 357.2L115.85 361.75L117.1 354.25L117.4 352.3L117.45 351.95L118 347.6L118 347.55L118.45 343.8Q119.55 333.15 117.9 332.45Q116.05 331.65 110.2 342.35M122.9,430.45L119 429.25L119.05 432.8Q119.25 436.75 119.95 438.7Q121.1 441.8 133.2 455.85Q135.25 454.25 136.15 451.65Q137.6 447.65 134.2 442.4Q131.9 438.8 127.15 434.25L122.9 430.45M117.4,405.75L117.35 406.05Q117.35 406.25 118.7 406.9L120.5 407.55L121.2 407.4L121.5 406.9L121.25 406.6Q118 405.7 117.4 405.75M63.85,412.2L63.8 412.25L63.75 412.55L64.2 413.8L64.85 415.2L65.85 416.6Q66.65 417.25 68.85 417.45L69.5 417.55L70.35 417.6L72.45 417.1L72.6 416.85L72.5 416.65L69.7 416.15Q67.4 415.75 66.55 414.9L65.05 413.55L64.5 412.75L63.85 412.2M52.35,406.7Q50.9 406.75 50.05 407.15L48.45 407.9Q46.55 408.55 45.65 409.5L45.6 409.75L46.2 410.55L46.6 410.55L49.6 408.95L52.6 406.95L52.35 406.7M47.7,400.5L50.75 398.7L50.5 398.45Q47.25 398.9 45.55 400.05Q44.9 400.45 44.8 400.6L43.9 401Q43.25 401.45 43.25 402.35L43.5 402.6L43.85 402.6L45.75 401.55Q47.1 400.75 47.7 400.5M45.1,405.9L45.6 405.95Q49.35 403.85 49.35 403.15L49.25 402.85L47.85 403.25L46.6 403.75Q45.9 403.9 45.35 404.35Q44.75 404.85 44.75 405.35L45.1 405.9M47.35,414.3L47.1 414.85L47.2 415.05L47.85 415.1L50.9 413.4Q54 411.5 54 411.05L53.9 410.75Q52.45 411 50.65 412L47.55 413.75L47.35 414.3M46.95,412.15L46.75 412.65L46.8 412.9L47.05 412.95Q47.85 412.95 50.3 411.25L52.15 410.3Q53.35 409.65 53.35 409.2L53.25 408.95L51.4 409.35L50.1 410Q47.15 411.4 47.15 411.85L46.95 412.15M50,420.7L50.1 420.9L50.45 420.95Q50.3 421.25 50.45 421.4L50.95 421.45Q55.85 417.8 55.85 417.15L55.6 416.85L53.9 417.45L52.45 418.2Q51.9 418.7 51.3 419.15L50.45 419.65Q50.05 419.9 50.05 420.1L50.1 420.25L50.35 420.3L50 420.7M42.75,438.55Q40.95 440.55 39.75 442.4Q36.35 447.65 37.8 451.65Q39.75 457.1 46.65 458.2L50.55 458.5Q54.65 449.2 54.6 430.55L50.1 431.95L42.75 438.55M79.15,543.8Q88.55 536.25 92.35 520.8Q85.6 520.5 78.35 518.8L79 537.05L79.15 543.8M98.5,525.1L94.35 525.1Q93.75 525.1 93.6 525.55L94.35 525.9L94.45 526.05L98.45 526.2L98.6 525.9L98.5 525.65L98.75 525.35L98.5 525.1" />
<path style="fill:#E66006;fill-opacity:1" d="M56.25,329.4Q58.55 328.8 64.15 341.3L65.25 343.8L66.85 347.55L68.65 351.95L68.75 352.3L69.35 353.95L65.25 353.55L64.85 357.05L62 356.4L61.15 359.9L58.1 358.25L55 360.9L54.6 354.25L54.5 352.3L54.5 351.95L54.3 347.55L54.25 345.5L54.25 343.8Q54.1 329.95 56.25 329.4M117.9,332.45Q119.55 333.15 118.45 343.8L118 347.55L118 347.6L117.45 351.95L117.4 352.3L117.1 354.25L115.85 361.75L114.4 357.2L111.35 359.05L111.75 354.75L108.05 355.6L104.7 353.25L105.15 352.3L105.35 351.95L107.5 347.55L109.45 343.8L110.2 342.35Q116.05 331.65 117.9 332.45" />
<path style="fill:#FF6D6B;fill-opacity:1" d="M88.9,370L89.75 369.85L94.15 369.65L94.2 369.65L96.75 370Q98.2 370.35 99.5 371Q101.7 372.15 102.85 373.85Q103.6 375.1 103.85 376.65L103.95 377.6L103.95 377.9L103.95 378.65Q103.6 382.9 98.9 386.4Q93 390.75 85 390.15Q79.4 389.75 76.7 386.15L75.15 382.6Q76 380.7 77.45 378.65L77.95 377.9L78.2 377.6L78.8 376.75Q80.15 375.1 81.6 373.85Q83.3 372.35 85.1 371.4Q86.95 370.4 88.9 370" />
<path style="fill:#FFFFFF;fill-opacity:1" d="M79.1,359.45L79.8 359.45L80.6 359.55L81.05 359.55L81.2 359.65Q83.75 359.95 84.35 362.25L84.45 362.3L84.95 364.85L85.15 366.05L85.25 367.25Q85.25 370.1 84.3 371.1L82.1 372.95Q81.1 373.6 80 374.8L78.5 376.65Q77.9 377.25 77.75 377.6L77.1 378.55L76.55 379.5L75.9 380.45L75.7 380.95L75.45 381.4L75.25 381.85L74.9 382.3L74.65 382.3L73.95 381.55L73.55 380.85L71.8 376.45L71.7 376.4L71.55 376L71.45 375.55L71.25 374.75L70.9 373.05L70.9 371.15L70.8 370.7L70.95 369.5L71 368.3L71.2 367.15L71.5 366Q71.65 364.8 72.4 363.65Q72.4 363.25 72.55 363.05L72.85 362.45L73.15 361.85L73.65 361.3L74.9 360.6L75.9 360.25L77.45 359.85L78.15 359.6L78.65 359.5L79.1 359.45M78.2,370.75Q78.45 371.65 79.55 372.4L80.6 372.45Q82.2 371.65 82.2 369.55L81.95 367.7Q81.55 366.35 80.7 366.1Q78.1 365.65 78.1 369.25L78.2 370.75M85.1,371.4L85.4 370L85.5 369.35Q85.85 366.45 85.15 363.8Q85.75 362.7 86.65 361.85L87.35 361.25Q90.15 359.25 93 361.7L93.2 361.85Q95.9 364.25 95.3 367.15Q95.05 368.45 94.4 369.35L94.15 369.65L89.75 369.85L88.9 370Q86.95 370.4 85.1 371.4M90.4,366.3Q90.25 365.55 89.6 365.2Q88.6 364.85 88.15 365.95L87.85 367.15L88.1 368.3Q88.5 369.2 89.4 369.2Q89.85 369.2 90.15 368.65L90.45 367.5L90.4 366.3" />
<path style="fill:#582903;fill-opacity:1" d="M122.75,402.4L121.95 402.4L119.35 401.4Q117.5 400.75 117.5 400.3Q117.5 399.55 119.85 400.15L123.5 401.35L123.75 401.6L123.3 402.1L122.75 402.4M119.95,410.3Q118.75 410.3 116.35 409.2L114.1 407.9L114.25 407.7L114.35 407.6L118.15 408.25Q120.9 408.8 121.3 409.2L121.35 409.3L121 410.1L119.95 410.3M119.85,412.4L119.6 412.9L119 412.9L115.6 411.7Q113.8 411.1 113.35 410.55L113.45 410.25Q114.7 409.95 117.2 410.75L120.4 411.95L120.45 411.95L120.5 412.15L120.3 412.3L119.85 412.4M117.9,417.8L115.05 416.95Q113 416.05 113 415.6L113.15 415.4L113.25 415.35Q114.35 415.45 116.65 416.05L118.75 416.7L119.1 416.95L118.85 417.6L118.4 417.7L117.9 417.8M98,532.6L97.6 533.05L96.1 533.1L94.15 532.5L92.6 531.9L92.5 531.65Q92.95 531.25 94.1 531.3L95.6 531.55L98.5 532L98.6 532.2L98.45 532.35L98 532.6M96.05,541.3L94.15 540.8Q92.45 540.15 91.95 540.05L91.7 539.65L91.35 539.55L91.1 539.1L91.35 538.95L95.55 539.65L96.95 540.05L97.2 540.15L97.55 540.45L97.35 540.7L97.65 540.95L97.45 541.2L96.95 541.25L96.05 541.3M92.85,550.6L92.3 550.65L90.2 549.4L88.55 548.15L87.25 546.85L86.25 545.5Q87.3 545.5 88.2 546.1Q89.4 546.9 90.2 547.1Q91.4 547.7 92.4 548.5L93.85 549.65L94.1 549.85L93.95 550.1L93.6 550.05L92.85 550.6M88,556.1L87.95 556.15L87.9 556.15L87.45 556.15L86.75 555.65L87.1 556.2L86.95 556.45L86.6 556.4Q85.5 555.4 84.55 553.95L83.1 551.55L83.1 550.9L83.7 550.9L86 553.4L88.1 555.9L88 556.1M78.1,369.25Q78.1 365.65 80.7 366.1Q81.55 366.35 81.95 367.7L82.2 369.55Q82.2 371.65 80.6 372.45L79.55 372.4Q78.45 371.65 78.2 370.75L78.1 369.25M90.45,367.5L90.15 368.65Q89.85 369.2 89.4 369.2Q88.5 369.2 88.1 368.3L87.85 367.15L88.15 365.95Q88.6 364.85 89.6 365.2Q90.25 365.55 90.4 366.3L90.45 367.5M121.25,406.6L121.5 406.9L121.2 407.4L120.5 407.55L118.7 406.9Q117.35 406.25 117.35 406.05L117.4 405.75Q118 405.7 121.25 406.6M64.5,412.75L65.05 413.55L66.55 414.9Q67.4 415.75 69.7 416.15L72.5 416.65L72.6 416.85L72.45 417.1L70.35 417.6L69.5 417.55L68.85 417.45Q66.65 417.25 65.85 416.6L64.85 415.2L64.2 413.8L63.75 412.55L63.8 412.25L63.85 412.2L64.5 412.75M52.6,406.95L49.6 408.95L46.6 410.55L46.2 410.55L45.6 409.75L45.65 409.5Q46.55 408.55 48.45 407.9L50.05 407.15Q50.9 406.75 52.35 406.7L52.6 406.95M45.75,401.55L43.85 402.6L43.5 402.6L43.25 402.35Q43.25 401.45 43.9 401L44.8 400.6Q44.9 400.45 45.55 400.05Q47.25 398.9 50.5 398.45L50.75 398.7L47.7 400.5Q47.1 400.75 45.75 401.55M44.75,405.35Q44.75 404.85 45.35 404.35Q45.9 403.9 46.6 403.75L47.85 403.25L49.25 402.85L49.35 403.15Q49.35 403.85 45.6 405.95L45.1 405.9L44.75 405.35M47.55,413.75L50.65 412Q52.45 411 53.9 410.75L54 411.05Q54 411.5 50.9 413.4L47.85 415.1L47.2 415.05L47.1 414.85L47.35 414.3L47.55 413.75M47.15,411.85Q47.15 411.4 50.1 410L51.4 409.35L53.25 408.95L53.35 409.2Q53.35 409.65 52.15 410.3L50.3 411.25Q47.85 412.95 47.05 412.95L46.8 412.9L46.75 412.65L46.95 412.15L47.15 411.85M50.35,420.3L50.1 420.25L50.05 420.1Q50.05 419.9 50.45 419.65L51.3 419.15Q51.9 418.7 52.45 418.2L53.9 417.45L55.6 416.85L55.85 417.15Q55.85 417.8 50.95 421.45L50.45 421.4Q50.3 421.25 50.45 420.95L50.1 420.9L50 420.7L50.35 420.3M98.75,525.35L98.5 525.65L98.6 525.9L98.45 526.2L94.45 526.05L94.35 525.9L93.6 525.55Q93.75 525.1 94.35 525.1L98.5 525.1L98.75 525.35" />
<path style="fill:#000000;fill-opacity:0.2" d="M56.6,323.95Q60.55 326.25 66.6 337.6L68.65 341.6L69.15 342.9L72.6 352.35Q70.9 351.2 68.65 346.2Q66.2 340.35 64.95 337.95L63.1 334.3L60.9 330.65L58.7 327.5L58.8 327.45L58.85 327.15L58.3 326.5L57.75 325.95Q57.75 325.6 57.4 325.5L56.85 325.4L56.7 325.2L56.35 324.55L56.6 323.95M57.6,327.4L57.9 327.75L60.45 331.35Q61.55 332.75 62.7 335L64.55 338.7L66.15 342.3L67.95 345.95L69.55 349.6L69.75 350L70 350.9L70.25 352Q70.1 354.75 68.9 354.75Q68.35 354.2 66.7 354.2Q65.1 354.2 65.1 355.7L65.05 357.35L61.95 357.05Q61.55 357.45 61.55 358.3L61.4 359.7L60.95 359.7Q58.95 358.65 58.1 358.65Q57.2 358.65 56.2 359.65L54.95 360.6L54.6 360.55L54.35 358.4L54.15 356.15L54.05 353.9L53.75 351.65L53.45 342.65L53.7 341.1L53.5 339.95L53.3 339.4Q53.3 336.85 54.1 333.45Q54.85 330.05 56 327.6L57.6 327.4M55.4,324.6Q54 326.4 53.4 328.8Q53.15 329.9 52.65 333.9L52.2 344.1L52.4 348.05L52.65 352.95L52.95 357.3Q53.15 360.5 53.6 361.4Q53.65 362.3 54.65 364.75L53.55 367.35L52.8 368.55Q52.05 369.8 52.05 370.05Q52.05 370.5 52.9 370.8Q53.75 371.15 53.75 371.85Q53.75 373.45 54.6 373.7L54.3 375.65L54.35 376.2L54.8 376.2L55.1 376.25Q54.75 377.3 54.75 377.85L55.2 378.6Q55.2 379.9 54.35 381.1Q53.45 382.35 53.3 384.15Q53.3 386 52.95 386.9L52.3 388.5Q52.05 389 52.05 389.7L52.65 390.85Q53.25 391.85 53.25 393.05L52.95 396.95Q52.9 397.65 53.4 398.9L53.75 399.8L53.75 399.9L54 400.65L54 400.95L54.1 401L55.5 406.8Q56.55 410.5 58.65 413.6L61 417.1Q62.5 419.15 64.2 420.45Q68.05 423.35 70.6 424.4Q73.8 425.7 78.3 425.7L87.15 424.85L90.5 423.9L94.3 422.8L98.55 421.95Q107.3 420.3 112.8 416.25L118.2 412.45L120.9 410.5L120.4 411.95L120.45 411.95L120.5 412.15L120.3 412.3L119.25 415.45L118.75 416.7L119.1 416.95L118.85 417.6L118.4 417.7L118.35 417.85L118.3 417.9L117.55 419.8L118.35 420.25L118.05 421.5Q117.3 423.45 115.5 425.7Q113.05 428.9 105.75 433.35Q100 436.95 90.95 439.95L81.8 442.65Q74.25 444.6 71 444.6L68.4 444.3L66.8 444Q65.25 444 64.65 446Q64.35 447.05 64.35 448.3Q64.35 449.55 65 450.55L65.45 451.45L65.05 451.3L65 451.3L62.9 450.9Q60.55 450.9 58.7 452.5Q57.65 453.4 57.05 454.5Q55.4 457.6 53.4 458.45L51.45 458.55L50.6 458.35Q54.65 449.1 54.6 430.55L51.85 431.4L52.2 430.35Q52.2 428.1 49.25 428.9Q46.75 429.6 43.35 432.05L39.3 435.05Q37.5 436.5 36.3 438Q31.35 443.9 31.35 450.95Q31.35 454.6 34.05 458.25L36.95 461.95Q39.05 464.15 41.55 465.15L48 467.25Q49.5 467.75 50.95 468.75L53.4 470.4L56.1 471.95L57.05 472.75L58.1 473.55L61.1 475.35Q63.15 476.4 65.1 476.4Q67.5 476.4 67.5 474.35Q67.5 473 66.7 472.5L62.7 470.7L58.95 468.95Q57.45 468.1 57.45 466.9Q57.45 466.25 58.05 466.1L59.55 466.1L62.25 467.05L65.5 467.7Q68.25 467.7 68.25 465.25L68.2 464.35L67.65 463.25L68.1 463.65L68.65 464.65L69.1 465.25L69.1 465.35L69.3 466.85L69.05 469.1L68.15 470.55Q67.7 471 67.7 471.5L67.8 473.7L67.7 475.85Q67.5 478.2 65.55 480.35L63.2 480.35L62.35 480.45L61.95 480.9Q61.95 482.8 63.15 486.1Q64.4 489.45 65.7 490.95Q69.8 495.65 75.15 497.4Q79.85 498.95 88.05 498.95L93.75 498.75L111.9 497.4Q120.1 496.35 121.5 495.6Q122.2 495.25 127.65 493.15Q132.05 491.45 133.5 490.2L137.9 486.75Q140.65 484.6 141.5 483.2L142.45 481.75Q143.25 491.8 140.25 499.15Q136.8 507.55 128.8 513.35Q125.2 516 122.15 517.25Q120.05 517.75 119.2 518.35Q118.35 518.9 118.05 520.05L117.3 523.8L116.9 527.4L116.55 531.4Q116.55 536.2 117 540.6L117 548.15Q117.1 559.25 125.95 559.25Q128.5 559.25 130.4 558.2L132.05 557L133.65 558.4Q134.45 559.05 135.6 559.05Q137.1 559.05 137.55 558Q139.7 557.95 140.65 557.2L141.3 556.25Q142.25 559.35 142.6 562.2L138.15 563.15L137.95 563.2L137.6 563.3L123.65 564.05Q114.45 563.85 113.35 559.95Q112.25 556.1 112.7 537.05L113.35 519Q106.3 520.55 99.35 520.8L99.2 522.75L96.5 523.7Q94.15 524.6 94.7 526.05L93.35 531.45Q92.25 535.8 88.1 542.3Q86.4 545.2 84 547.8L81 550.4L79.7 551.4Q79 552.15 79.25 553.05L78.8 558.5L78.3 561.25L78.25 561.5L76.95 562L76.5 562.3Q73.9 563.9 68.05 564.05L54.1 563.3L53.75 563.2L53.55 563.15L49.1 562.2Q49.45 559.45 50.35 556.45Q51.5 557.85 53.4 557.85L54.2 557.65L54.45 557.4L55.1 557.85Q55.65 558.3 56.45 558.3L58.25 557.8L59.25 557.25L60.5 558.25Q62.35 559.2 65.25 559.2Q67.9 559.2 69.1 558.4Q70.5 557.45 72.75 553.8Q73.35 552.75 73.6 550.8L73.95 547.65L74.7 541.5L74.9 537.8L74.85 535.3Q74.85 521.05 72.05 519.15L70.65 519.35L70.6 519.05Q64.3 518.1 57.5 515.55Q51.45 513.25 45.55 504.1Q39.9 495.25 39.75 488.85Q39.65 483.3 41.3 478.1L42.95 473.95Q29.4 466.55 25.9 459.8Q22.85 453.9 24.95 447.4Q25.75 444.9 27.3 442.4Q28.6 440.25 30.45 438.1Q32.75 435.45 42.25 428.9L51.35 422.85L49.5 420.6L48.5 419.05Q47.25 416.7 46 412.9L45.15 410.1L44.95 409.45L44.8 408.85L43.55 404.3L41.5 395.1L37.45 395.5L43.15 384.05L35.4 385.85L43.55 376.25L36.4 374.6L46.85 369.5L40.7 365.6L51 364.2L50.85 361.85Q50.55 358.05 50.4 354.25L50.3 352.3L50.3 351.95L50.2 347.55L50.15 344.2L50.15 343.8Q50.15 324.05 54.4 323.4L55.5 323.5L55.55 323.85L55.4 323.85L55.35 324.15L55.4 324.6M54.65,334.1L54.6 337.5L54.3 344.35L54.55 347.6L54.75 350.7L54.8 353.85Q54.8 354.65 55.1 355.6Q55.5 357 56.25 357Q57.3 357 58.3 355L59.3 352.2L59.4 352.2L59.5 352.7Q59.65 353 60.15 353Q61.4 353 61.95 348.5Q61.95 349.35 62.55 349.35Q63.05 349.35 63.05 348.7Q63.05 345.25 58.5 334.8Q57.8 333.75 56.6 333.15Q55 332.35 54.65 334.1M80.25,358.5Q81.75 358.5 82.6 359.35L83.15 359.9L82.9 359.7Q81.15 358.55 78.7 358.95Q76.2 359.35 74.5 361.15Q72.6 363.2 72.6 366.3Q72.6 367.9 73.15 369.1Q74.2 371.6 77.1 371.6Q79.45 371.6 81.4 369.95L83.4 367.8Q83.95 367.35 84.4 365.95Q84.8 364.65 84.8 363.5Q84.8 362.35 84.4 361.45L84.65 361.95L85.25 363Q85.6 363 85.85 362.65L86.75 361.65Q87.8 360.9 88.85 360.65L88.5 360.9Q86.9 362.2 86.9 364.15Q86.9 364.9 87.45 365.55Q88.5 366.8 91 366.8Q92.7 366.8 93.65 366.15Q94.35 365.65 94.35 365L93.6 362.85L92.85 361.7L93.5 362.35Q95.15 364.25 95.15 366.7L94.75 367.65L94.35 368.45Q94.35 369 95 369.15L96.65 369.6L97.5 370.25L96 369.9L91.25 369.8Q91.25 370.1 90.45 370.1Q88.25 370.25 86.95 370.85L84.95 371.7Q82.15 372.35 79.7 375.25Q77.4 377.85 77.4 379.65Q77.4 382.2 83.7 382.65L87.95 382.65L93.15 382Q96.35 381.3 98.55 379.5L100.9 377.05Q101.7 375.85 101.7 374.4Q101.7 371.95 99.2 370.8L99.3 370.8L99.3 370.85Q100.15 370.7 101.4 372.15L103.35 374.75Q104.4 376.25 104.4 379.15Q104.4 383.8 100.35 388.85L98.5 391.35Q97.2 392.9 95.7 393.8Q94.3 394.65 91.35 395.6Q87.15 396.9 83.4 396.9Q80.45 396.9 78.15 395.25Q76.7 394.2 75.9 392.9L75.75 392.5Q74.85 391.05 74.7 390.3Q73.95 386.95 73.95 385.95Q73.95 385.55 74.55 385.5L75.1 385.6L75.15 385.15L75.05 384.9L74.85 384.75L74.4 384.95L74.3 384.65L73.5 382.1L72.6 379.5Q71.2 376.65 69.45 374.4Q69.2 373.5 68.7 373.2L67.2 372.15L65.45 371.05Q64.1 370.45 62.45 370.4Q64.35 369.65 66.3 368.05L69.95 364.5Q71.75 362.15 73.1 361.05Q75.5 359.1 79.8 358.65L80.25 358.5M58.9,387.3Q59.1 388.5 60 389.85L61.45 392.4Q62.4 393.85 63.75 394.95L66.45 397.45Q68.15 398.95 69.9 399.6L71.8 400.3L74.25 401L78.75 402.05L82.6 402.45L91.9 401.55Q95.95 400.7 104.3 398.1Q107.1 397.2 110.9 394.65Q114.6 392.1 115.65 390.45Q114.75 393.2 112.5 395.7Q110 398.6 106.2 400.65Q102 402.9 94.5 404.6Q87 406.3 80.3 406.5L75.05 406.5L71.05 405.7Q67.85 404.75 66.5 403.4L63.65 401Q61.75 399.45 61.1 398.4L58 392.85Q57.2 390.85 57.2 387.75L57.2 386.5L57.6 384.65Q57.95 383.45 59.1 381.45L58.85 384.8L58.9 387.3M123,345.35L122.85 347.55L122.5 351.95L122.45 352.3L122.25 354.25L121.25 361.85L121.2 362.45Q120.1 362.25 119.85 361.8L119.85 360.6L119.8 359.95L120.05 360.15L120.35 360L120.45 358.65L120.3 356L119.9 355.95L120.7 348.2Q121.7 338.8 121.7 336.15Q121.7 334.75 121.05 332.1L120.2 330.3L120.9 329.75L120.45 329.25L120.3 328.65Q119.95 328.2 119.3 328L119.3 327.9L119.85 326.55L120.5 325.9L120.7 325.8Q124.05 327.65 123.1 343.8L123 345.35M118.8,326.2L117.95 328.1L116.55 329.9L115.2 331.65L112.8 335.1L110.4 338.6L106.85 345.1Q104.7 349.1 103.95 351.05L103.9 351.1Q102.8 352.25 101.55 352.25Q101.05 352.25 100.55 351.65L102.65 347.55L104.65 343.8L108 338.1Q115.3 326.2 119.2 325.6L118.8 326.2M120.35,332.1L120.9 334.35L121.05 336.2L120.75 341.25L120.15 347.1L119.55 351.95Q119 356.9 119 358.1L119 358.2Q118.15 360.6 116.85 361.8L116.4 361.85Q115.85 361.3 115.2 359.7Q114.55 358.2 113.7 357.45L112.8 357.45Q111.95 358 111.05 358.5L111 358.05L111.15 356.35Q111.2 355.25 110.75 354.9L110.1 354.9L107.6 355.5L105.45 353.85L104.25 352.8L105.15 351.3L105.5 351.65L105.8 351.25Q105.45 352.05 105.45 352.25Q105.45 353.15 106.2 353.25L106.85 353.25Q107.9 353.15 108.95 352.25L110.15 351.35L110.4 351.5L110.7 351.65Q111.3 351.65 112.35 350.75L112.35 351.45L112.75 351.5Q114.6 351.5 116.3 337.25Q116.3 333.2 113.55 336.8L113.6 336.55L113.5 336.25L114.15 335.15Q115.45 333 116.25 332.15Q117.4 330.9 118.35 330.75L119.75 330.45Q120.15 331.15 120.35 332.1M127.95,429.9Q129.9 431.2 131.7 433.25L133.5 435.05L135 436.65L136.35 438.35L137.7 440.1L139.5 443.55Q141.15 447.25 141.15 450.65Q141.15 455.6 137.7 460.1L137.25 460.75L136.2 461.15Q133.9 462.35 132.5 462.65L130.3 463.4L123.6 464L118.65 464Q117.95 463.75 112.25 465.15Q111.05 465.5 110.05 466.25Q108.95 467.05 108.95 467.75Q108.95 468.35 109.2 468.6Q109.65 469.05 111 469.05L112.2 468.85L113.15 468.6Q113.55 468.6 113.4 468.9L116.85 469.2L117.3 469.65L114.25 471.8Q111.75 473.5 111.1 474.35Q109.5 475.2 109.5 476.05Q109.5 476.55 109.65 476.8Q110 477.2 111.1 477.2Q112.7 477.2 116.6 475.05L118.85 473.75L117.6 475.35L114.95 477.7Q113.4 479.15 113.4 480.3L113.45 480.7L113.3 480.75L113.25 480.8L113.25 481.7L113.9 483.3L112.7 482.3L110.75 480.15L109.65 480.15Q107.6 480.5 106.7 478.75Q106.1 477.6 106.1 476.1Q106.1 475.35 106.45 474.15L106.8 472.4Q106.8 470.8 105.35 469.85Q103.85 468.9 103.85 467.85Q103.85 466.8 104.8 465.15Q105.85 463.35 107 462.75Q107.8 462.35 112.15 461.1Q114.6 460.4 114.6 458.95Q114.6 457.9 112.4 455.4Q110.15 452.95 110.15 452.4L110.4 451.85L110.4 451.9L111.05 452.4L113 453.05Q114.55 453.85 115.5 454.85Q116.5 456 116.85 456.95L117.45 458Q118.2 459 119.15 459Q119.95 459 120.15 457.5L120.85 458.05Q122.3 459 124.5 459Q126.25 459 128.7 458.1L131.4 456.9L133.2 455.8L133.2 455.85Q135.25 454.25 136.15 451.65Q137.6 447.65 134.2 442.4Q131.9 438.8 127.15 434.25L122.9 430.45L119.75 429.5L119.15 428.1Q118.25 425.95 118.2 424.95L119.2 424.85Q119.65 424.85 120.8 425.4L123.3 426.75L127.95 429.9M119.25,420.8L119.25 420.75L119.3 420.8L119.25 420.8M120.05,474.1L120.25 474.7L120.35 474.9L120.35 475.2L120.5 475.25L120.5 475.55L119.85 478.05L119.85 478.1L119 479L117.5 480.25Q116.1 481.2 114.9 481.2L114.3 480.9L114.05 480.3Q114.05 479.75 115.2 478.35L116.35 477.4L117.8 476.25L119.3 474.45L119.6 474.5L120.05 474.1M140.1,469.35L140.65 471.3L140.95 472.45Q136.7 475.9 131.4 477.3L129.5 477.95L127.55 478.55Q126.8 478.7 125.9 479.4L124.95 480.25L126 478.2Q126.35 477.3 128 476.2L130.8 474.3Q133.3 472.3 136.35 470.85L139.65 469.5L140.1 469.35M53.3,478L54.35 479.7L55.55 481.2Q56.7 482 59.5 482Q60.5 482 60.55 481.6L60.35 481.05L60.9 480.5Q60.9 479.95 58.35 477.85Q55.5 475.5 53.95 475.5Q52.95 475.5 52.95 476.65Q52.95 477.35 53.3 478M79.15,543.8Q88.55 536.25 92.35 520.8Q85.6 520.5 78.35 518.8L79 537.05L79.15 543.8" />
<path style="fill:#FFFFFF;fill-opacity:0.4" d="M93.3,370.3Q97.45 370.25 99.25 371.5Q100.35 372.3 100.35 373.4Q100.35 374.9 98.55 376.25Q98.1 376.6 97.6 376.9L96.15 377.5L92.15 378.25L90.1 378.5L85.8 378.45Q83.3 378.05 82.3 377.5Q81.45 377 81.45 376.15Q81.45 375.25 82 374.55L83.75 372.95L86.55 371.4Q87.8 370.8 88 370.75L93.3 370.3" />
<path style="fill:none;stroke-width:2;stroke-linecap:round;stroke-linejoin:miter;stroke-miterlimit:3;stroke:#AE4200;stroke-opacity:1" d="M64.15,341.3L65.25 343.8L66.85 347.55L68.65 351.95L68.75 352.3L69.35 353.95L65.25 353.55L64.85 357.05L62 356.4L61.15 359.9L58.1 358.25L55 360.9L54.6 354.25L54.5 352.3L54.5 351.95L54.3 347.55L54.25 345.5L54.25 343.8Q54.1 329.95 56.25 329.4Q58.55 328.8 64.15 341.3M117.9,332.45Q119.55 333.15 118.45 343.8L118 347.55L118 347.6L117.45 351.95L117.4 352.3L117.1 354.25L115.85 361.75L114.4 357.2L111.35 359.05L111.75 354.75L108.05 355.6L104.7 353.25L105.15 352.3L105.35 351.95L107.5 347.55L109.45 343.8L110.2 342.35Q116.05 331.65 117.9 332.45" />
<path style="fill:none;stroke-width:2;stroke-linecap:round;stroke-linejoin:miter;stroke-miterlimit:3;stroke:#582903;stroke-opacity:1" d="M60.15,378.95L59.35 380.65Q58.55 382.7 58.5 384.25L58.5 385.3Q58.7 390.45 63.25 395.55Q71.25 404.6 88.8 402.5Q103.3 400.7 111.1 395.3L114.3 392.65Q116.55 390.35 116.65 388.35Q116.7 386.85 114.75 384.9L112.75 383.25" />
<path style="fill:none;stroke-width:3;stroke-linecap:butt;stroke-linejoin:miter;stroke-miterlimit:3;stroke:#AE4200;stroke-opacity:1" d="M106.45,471.3Q104.55 470.05 104.15 469.15Q103.5 467.65 104.8 464.75Q105.9 462.3 110.35 461.7Q114.8 461.1 115.15 460.2Q115.65 459 112.4 456.4Q108.95 453.6 108.9 452.45Q108.8 450.55 111.95 449.65Q115.1 448.75 117 450.15Q118.75 451.4 119.95 454.95L120.8 458.2Q123.85 458.75 127.3 458.2" />
<path style="fill:none;stroke-width:3;stroke-linecap:round;stroke-linejoin:miter;stroke-miterlimit:3;stroke:#AE4200;stroke-opacity:1" d="M51.35,422.85L49.5 420.6L48.5 419.05Q47.25 416.7 46 412.9L45.15 410.1L44.95 409.45L44.8 408.85L43.55 404.3L41.5 395.1L37.45 395.5L43.15 384.05L35.4 385.85L43.55 376.25L36.4 374.6L46.85 369.5L40.7 365.6L51 364.2L50.85 361.85Q50.55 358.05 50.4 354.25L50.3 352.3L50.3 351.95L50.2 347.55L50.15 344.2L50.15 343.8Q50.15 324.05 54.4 323.4Q58.7 322.8 66.6 337.6M112.3,479.85Q114.25 479.1 116.5 477.35L120.15 473.95M50.55,458.5Q54.65 449.2 54.6 430.55L50.1 431.95L42.75 438.55M61.65,479.85Q59.7 479.1 57.45 477.35L53.8 473.95M59.1,563.45L58.8 559.7Q58.7 555.65 59.8 554.4Q60.9 553.15 63.75 553.85Q65.15 554.2 66.35 554.8M138.15,563.15L137.75 558.75Q137.15 554.25 136 552.95Q134.85 551.65 133.5 551.2L132.4 550.95" />
<path style="fill:none;stroke-width:2;stroke-linecap:round;stroke-linejoin:miter;stroke-miterlimit:3;stroke:#AE4200;stroke-opacity:1" d="M94.15,369.65L94.2 369.65" />
<path style="fill:none;stroke-width:3;stroke-linecap:round;stroke-linejoin:miter;stroke-miterlimit:3;stroke:#AE4200;stroke-opacity:1" d="M66.6,337.6L69.75 343.8L71.55 347.55L73.45 351.95L73.6 352.3L73.65 352.5L74 352.3L74.6 351.95L77.05 350.55Q80.75 348.55 82.5 348.4Q84.05 348.3 85.7 349.9Q87.45 351.55 88.4 351.65Q89.6 351.75 92.55 350.85L96.2 349.85Q97.7 349.85 100.15 351.95L100.3 352.1L100.4 351.95L102.65 347.55L104.65 343.8L108 338.1Q116.45 324.35 120.35 325.65Q124.1 326.9 123.1 343.8L123 345.35L122.85 347.55L122.5 351.95L122.45 352.3L122.25 354.25L121.25 361.85L121 363.55L128.55 367.85L119.95 371.75L131.2 377.05L122.6 379.3L127.75 381.35L123.05 386.3L126.5 389.35L123.55 401.2L121.4 408.85L121.2 409.45L121 410.1L119.25 415.45L118.75 416.7L118.4 417.65L118.35 417.85L118.3 417.9L117.55 419.8M142.6,562.2L138.15 563.15M41.3,478.1L42.95 473.95M127.3,458.2Q130.95 457.6 133.2 455.85M117.3,468L112.6 470.15Q108.05 471.95 106.65 471.4M42.75,438.55Q40.95 440.55 39.75 442.4Q36.35 447.65 37.8 451.65Q39.75 457.1 46.65 458.2L50.55 458.5M67.5,471.3L67.3 471.4M56.65,468L61.35 470.15Q65.9 471.95 67.3 471.4M59.3,550.95L58.2 551.2Q56.85 551.65 55.7 552.95Q54.55 554.25 53.95 558.75L53.55 563.15M125.35,554.8Q126.55 554.2 127.95 553.85Q130.8 553.15 131.9 554.4Q133 555.65 132.9 559.7L132.6 563.45" />
<path style="fill:none;stroke-width:3;stroke-linecap:round;stroke-linejoin:miter;stroke-miterlimit:3;stroke:#AE4200;stroke-opacity:1" d="M67.3,471.4L67.95 475.65Q68 479.95 64.85 480.3L61.65 479.85L60.45 482.5Q58.6 485.1 55.3 484.55Q52 484 49.6 480.15L47.85 476.4L42.95 473.95Q29.4 466.55 25.9 459.8Q22.85 453.9 24.95 447.4Q25.75 444.9 27.3 442.4Q28.6 440.25 30.45 438.1Q32.75 435.45 42.25 428.9L51.35 422.85L51.55 423.05L54 425.3Q55.5 426.6 57.35 427.9L61.65 430.75Q69.45 435.5 73.9 436.45L82.4 435.8Q89.05 434.65 96.05 432.45Q114.4 426.8 117.3 420.3L117.55 419.8L129.85 426.6Q138.4 432.35 143.5 438.1Q145.35 440.25 146.65 442.4Q148.2 444.9 149 447.4Q151.1 453.9 148.05 459.8Q145.85 463.95 139.8 468.4L135.35 471.4Q130.45 474.45 126.1 476.4L124.35 480.15Q121.95 484 118.65 484.55Q115.35 485.1 113.5 482.5L112.3 479.85M138.15,563.15L137.95 563.2L137.6 563.3L132.6 563.45L123.65 564.05Q114.45 563.85 113.35 559.95Q112.25 556.1 112.7 537.05L113.35 519Q106.3 520.55 99.35 520.8L98.45 532.3Q96.9 544.85 93.55 550.15Q90.2 555.45 82.95 559.3Q79.65 561.1 76.95 562L76.5 562.3Q73.9 563.9 68.05 564.05L59.1 563.45L54.1 563.3L53.75 563.2L53.55 563.15M133.2,455.85Q121.1 441.8 119.95 438.7Q119.25 436.75 119.05 432.8L119 429.25L122.9 430.45L127.15 434.25Q131.9 438.8 134.2 442.4Q137.6 447.65 136.15 451.65Q135.25 454.25 133.2 455.85M106.65,471.4L106 475.65Q105.95 479.95 109.1 480.3L112.3 479.85M79.15,543.8Q88.55 536.25 92.35 520.8Q85.6 520.5 78.35 518.8L79 537.05L79.15 543.8Q79.25 556.85 78.35 559.95Q78 561.15 76.95 562M99.35,520.8L92.35 520.8" />
<path style="fill:none;stroke-width:2;stroke-linecap:round;stroke-linejoin:miter;stroke-miterlimit:3;stroke:#582903;stroke-opacity:1" d="M71.35,376.75L71.05 373.85L70.95 371.25L71 370L71 369.35Q71.25 364.65 72.95 362.1L73.15 361.85Q75.15 359 78.9 358.95Q82.6 358.9 84.2 361.5L84.4 361.85L85.15 363.8Q85.75 362.7 86.65 361.85L87.35 361.25Q90.15 359.25 93 361.7L93.2 361.85Q95.9 364.25 95.3 367.15Q95.05 368.45 94.4 369.35L94.15 369.65M85.1,371.4L85.4 370L85.5 369.35Q85.85 366.45 85.15 363.8" />
<path style="fill:none;stroke-width:2;stroke-linecap:round;stroke-linejoin:miter;stroke-miterlimit:3;stroke:#993127;stroke-opacity:1" d="M94.2,369.65L96.75 370Q98.2 370.35 99.5 371Q101.7 372.15 102.85 373.85Q103.6 375.1 103.85 376.65L103.95 377.6L103.95 377.9L103.95 378.65Q103.6 382.9 98.9 386.4Q93 390.75 85 390.15Q79.4 389.75 76.7 386.15L75.15 382.6Q76 380.7 77.45 378.65L77.95 377.9L78.2 377.6L78.8 376.75Q80.15 375.1 81.6 373.85Q83.3 372.35 85.1 371.4" />
<path style="fill:none;stroke-width:2;stroke-linecap:round;stroke-linejoin:miter;stroke-miterlimit:3;stroke:#582903;stroke-opacity:1" d="M60.55,370.95Q65.5 370.9 68.85 373.85Q70.25 375.05 71.35 376.75M75.1,387.55Q74.25 382.25 72.45 378.65L72.05 377.9L71.9 377.6L71.35 376.75" />
<path style="fill:none;stroke-width:2;stroke-linecap:round;stroke-linejoin:miter;stroke-miterlimit:3;stroke:#993127;stroke-opacity:1" d="M85.1,371.4Q86.95 370.4 88.9 370L89.75 369.85L94.15 369.65" />
<path style="fill:none;stroke-width:3;stroke-linecap:butt;stroke-linejoin:miter;stroke-miterlimit:3;stroke:#AE4200;stroke-opacity:1" d="M139.8,468.4L140.65 471.3Q141.6 474.95 142.1 478.75Q143.7 490.75 140.25 499.15Q136.8 507.55 128.8 513.35Q124.8 516.3 121.45 517.5Q120.5 529.1 121.25 536.2Q122.1 543.85 124.4 550.95Q125.95 549.65 128.15 548.65Q132.6 546.55 135.85 547.85Q139.1 549.15 141.15 555.8Q142.2 559.15 142.6 562.2M53.55,563.15L49.1 562.2Q49.5 559.15 50.55 555.8Q52.6 549.15 55.85 547.85Q59.1 546.55 63.55 548.65Q65.75 549.65 67.3 550.95Q69.6 543.85 70.45 536.2Q71.35 527.95 70.6 519.05Q64.3 518.1 57.5 515.55Q51.45 513.25 45.55 504.1Q39.9 495.25 39.75 488.85Q39.65 483.3 41.3 478.1M106.65,471.4L106.45 471.3M50.55,458.5L53.15 458.2Q53.4 456.7 54 454.95Q55.2 451.4 56.95 450.15Q58.85 448.75 62 449.65Q65.15 450.55 65.05 452.45Q65 453.6 61.55 456.4Q58.3 459 58.8 460.2Q59.15 461.1 63.6 461.7Q68.05 462.3 69.15 464.75Q70.45 467.65 69.8 469.15Q69.4 470.05 67.5 471.3" />
<path style="fill:#582903;fill-opacity:1" d="M74.6,349.95Q75.5 348.85 77.5 347.75L79.55 346.75Q80.85 346.3 81.55 346.2L81.7 346.25L81.75 346.4L81.5 346.85L81.25 347.25L81.25 347.35L83.8 346.8L83.9 347L83.1 347.65L85.55 348.5L86.4 348.9L86.9 349.45L86.8 349.65Q83.5 350.3 81.3 351.2L77.4 352.85L75.85 353.6L74.1 354.5L73.3 355.05L71.1 356.3L70.85 356.25L70.8 355.85Q70.8 355.25 72.05 353.5Q72.85 351.9 74.6 349.95M102.7,355.95L102.7 356.3L102.5 356.3L100.75 355.3Q100.35 355.2 100.1 354.9Q99.65 354.7 98.7 354.15L97.45 353.55L94.35 352.25Q92.6 351.55 89.95 351L89.9 350.85L90.3 350.4L90.95 350.1L92.9 349.4L92.3 348.9L92.35 348.75L94.4 349.2L94.4 349.1L94.2 348.8L94 348.45L94.05 348.3L94.15 348.25L95.75 348.7L97.4 349.5Q98.95 350.4 99.7 351.25Q101.1 352.8 101.7 354.1Q102.7 355.5 102.7 355.95" />
</g>
</svg>
