<?xml version="1.0" encoding="utf-8"?>
<svg version="1.1" id="Layer_1"
xmlns="http://www.w3.org/2000/svg"
xmlns:xlink="http://www.w3.org/1999/xlink"
xmlns:author="http://www.sothink.com"
width="35px" height="18px"
xml:space="preserve">
<g id="181" transform="matrix(1, 0, 0, 1, 17, 8.85)">
<path style="fill:#C23030;fill-opacity:1" d="M-0.45,-6.35L-1.05 -6.8Q-1.55 -7.15 -1.8 -7.15L-2.7 -7.1L-2.65 -8.1L0.1 -8.1L2.4 -4.6L0.65 -4.6L-0.45 -6.35M-10.1,-4.6L-11.95 -4.6L-12.75 -6.35Q-13.05 -6.95 -13.9 -6.95L-15.75 -6.8L-16.2 -6.8L-16.2 -8.25L-12.2 -8.35L-10.1 -4.6M16.5,-0.2L15.95 0.65L15.15 0.95L13.65 1.25Q12 1.25 10.65 0L10.2 -0.5L10.1 -0.6L9.7 -1L9.7 -4.5Q13.75 -4.15 16.5 -0.2M13.45,-2.05Q12.7 -3 11.7 -3Q11.05 -3 11.05 -2.4Q12.25 0.05 13.45 0.05Q14.05 0.05 14.05 -0.7Q14.05 -1.25 13.45 -2.05M-1.2,6.05L-0.85 5.9L-0.55 5.1L0.25 3.9L2.15 3.9L-0.25 7.35L-2.75 7.5L-2.8 5.9L-1.2 6.05M-15.4,3.55L-14.75 5.9L-14.15 6.65L-13.15 6.7L-10.9 6.55L-11.95 8.15L-16.5 8.3L-16.4 2.75L-15.55 2.7L-15.4 3.55" />
<path style="fill:#BFBFC2;fill-opacity:1" d="M9.7,-4.6L9.7 -4.5L9.7 -1L9.7 -0.45L7.15 0.4L5.35 0.9L4.15 0.9L-2 0.45L-5.35 0.15L-6.8 -0.2L-8.05 -0.5L-9.4 -0.4L-9.4 -0.75L-14.45 -0.75L-14.45 -2.1L-14.45 -4.6L-11.95 -4.6L-10.1 -4.6L-2.85 -4.6L0.65 -4.6L2.4 -4.6L9.55 -4.6L9.7 -4.6" />
<path style="fill:#9C2525;fill-opacity:1" d="M-2.7,-7.1L-1.8 -7.15Q-1.55 -7.15 -1.05 -6.8L-0.45 -6.35L0.65 -4.6L-2.85 -4.6L-2.7 -7.1M-16.3,-2.1L-16.2 -6.8L-15.75 -6.8L-13.9 -6.95Q-13.05 -6.95 -12.75 -6.35L-11.95 -4.6L-14.45 -4.6L-14.45 -2.1L-16.3 -2.1M-9.4,0.9L-14.45 0.9L-16.5 0.9L-16.5 -0.75L-14.45 -0.75L-9.4 -0.75L-9.4 -0.4L-9.4 0.9M9.7,-0.45L9.7 -1L10.1 -0.6L10.2 -0.5L10.65 0Q12 1.25 13.65 1.25L15.15 0.95L15.95 0.65Q13.6 3.65 9.7 3.9L9.7 -0.45M0.25,3.9L-0.55 5.1L-0.85 5.9L-1.2 6.05L-2.8 5.9L-2.9 3.9L0.25 3.9M-15.55,2.7L-14.45 2.6L-14.45 3.9L-9.2 3.9L-10.9 6.55L-13.15 6.7L-14.15 6.65L-14.75 5.9L-15.4 3.55L-15.55 2.7" />
<path style="fill:#F0A1A1;fill-opacity:1" d="M14.05,-0.7Q14.05 0.05 13.45 0.05Q12.25 0.05 11.05 -2.4Q11.05 -3 11.7 -3Q12.7 -3 13.45 -2.05Q14.05 -1.25 14.05 -0.7" />
<path style="fill:#A2A2A3;fill-opacity:1" d="M-2.9,3.9L-9.2 3.9L-14.45 3.9L-14.45 2.6L-14.45 0.9L-9.4 0.9L-9.4 -0.4L-8.05 -0.5L-6.8 -0.2L-5.35 0.15L-2 0.45L4.15 0.9L5.35 0.9L7.15 0.4L9.7 -0.45L9.7 3.9L2.15 3.9L0.25 3.9L-2.9 3.9" />
<path style="fill:none;stroke-width:1;stroke-linecap:butt;stroke-linejoin:miter;stroke-miterlimit:3;stroke:#585454;stroke-opacity:1" d="M0.65,-4.6L2.4 -4.6L0.1 -8.1L-2.65 -8.1L-2.7 -7.1M0.65,-4.6L-2.85 -4.6L-10.1 -4.6L-11.95 -4.6L-14.45 -4.6L-14.45 -2.1L-14.45 -0.75L-9.4 -0.75L-9.4 -0.4M9.7,3.9L9.7 -0.45L9.7 -1L9.7 -4.5L9.55 -4.6L2.4 -4.6M15.95,0.65L16.5 -0.2Q13.75 -4.15 9.7 -4.5L9.7 -4.6L9.55 -4.6M15.95,0.65Q13.6 3.65 9.7 3.9L2.15 3.9L-0.25 7.35L-2.75 7.5L-2.8 5.9L-2.9 3.9L-9.2 3.9L-10.9 6.55L-11.95 8.15L-16.5 8.3L-16.4 2.75L-15.55 2.7L-14.45 2.6L-14.45 0.9L-16.5 0.9L-16.5 -0.75L-14.45 -0.75M2.15,3.9L0.25 3.9M-16.2,-6.8L-16.3 -2.1L-14.45 -2.1M-16.2,-6.8L-16.2 -8.25L-12.2 -8.35L-10.1 -4.6M-2.85,-4.6L-2.7 -7.1M-9.2,3.9L-14.45 3.9L-14.45 2.6M-14.45,0.9L-9.4 0.9L-9.4 -0.4M-2.9,3.9L0.25 3.9" />
</g>
</svg>
