<?xml version="1.0" encoding="utf-8"?>
<svg version="1.1" id="Layer_1"
xmlns="http://www.w3.org/2000/svg"
xmlns:xlink="http://www.w3.org/1999/xlink"
xmlns:author="http://www.sothink.com"
width="96px" height="39px"
xml:space="preserve">
<g id="54" transform="matrix(1, 0, 0, 1, 45.75, 29.95)">
<path style="fill:#C9DAF1;fill-opacity:1" d="M25.5,-27.75Q26.85 -29.1 28.35 -29.1Q30.3 -29.1 30.3 -27.65Q30.3 -26.8 28.45 -25.7L26.45 -24.4L26.35 -24.35L25.95 -24.3Q25.6 -24.3 25 -24.65Q24.3 -25.1 24.3 -25.55Q24.3 -26.55 25.5 -27.75M25.7,-3.6Q23.95 -3.6 23.3 -4.75Q22.65 -5.85 20.4 -5.85Q16.1 -5.85 12.05 -4.1Q8.05 -2.4 6.25 -2.4Q4.35 -2.4 4.15 -4.1Q3.95 -5.85 1.25 -5.85Q-1.7 -5.85 -4.35 -4.5Q-7.05 -3.2 -8 -3.2Q-9.1 -3.2 -9.75 -4.15Q-10.4 -5.1 -11.4 -5.1Q-12.55 -5.1 -13.9 -3.95Q-15.25 -2.85 -15.75 -2.85L-18.7 -5.25Q-21.35 -7.65 -22.15 -7.65Q-23.65 -7.65 -23.75 -6.25Q-29.5 -13.2 -36.05 -13.2Q-37.8 -13.2 -40.75 -11.55Q-43.7 -9.9 -44.15 -9.9Q-44.85 -9.9 -45.1 -10.25L-45.25 -10.95L-45.25 -11.85Q-45.15 -14.3 -43.2 -15.95Q-41 -17.85 -37.65 -17.85Q-31.75 -17.85 -25 -13.95Q-18.25 -10.05 -15.3 -10.05Q-14.05 -10.05 -12.5 -9.2Q-10.95 -8.4 -10.4 -8.4Q-10.1 -8.4 -8.35 -9.15Q-6.55 -9.9 -6 -9.9L-3.7 -9.3L-1.55 -8.7Q-0.45 -8.7 0.9 -9.9L2.55 -11.1Q5.15 -11.1 6.7 -9.9Q8.3 -8.7 10.1 -8.7L11.5 -9L12.55 -9.35L12.65 -9.45Q15.45 -11 22.55 -15.75Q29.5 -19.85 34.35 -19.85Q37.35 -19.85 40.8 -18.15Q44.9 -16.2 44.9 -13.55Q44.9 -12.85 44.4 -12.45Q44 -12.15 43.5 -12.15Q42.7 -12.15 40.05 -13.05Q37.45 -14 36 -14Q34.8 -14 34.8 -12.85Q34.8 -11.55 38.05 -10Q41.3 -8.45 41.3 -7.55Q41.3 -5.5 36.3 -4.6L30.15 -3.9L28.4 -3.55L25.7 -3.6M45.65,-7.15L45.55 -7.6L45.45 -8Q45.45 -8.6 45.8 -8.85L46.85 -9.05Q48.15 -9.05 48.85 -8Q49.5 -7.1 49.5 -5.75L49.35 -4.3Q49.05 -3.45 48 -3.45Q46.2 -3.45 45.7 -6.8L45.65 -7.15M-28.4,-29.1L-26.6 -29.45Q-25.65 -29.45 -24 -28.75Q-21.9 -27.95 -21.9 -26.9Q-21.9 -25.85 -22.45 -25.7L-24.15 -25.7Q-25.2 -25.7 -25.8 -26.05L-26.6 -26.3L-27.55 -26.4L-27.9 -26.55L-28.6 -26.9Q-29.4 -27.35 -29.4 -28.1Q-29.4 -28.7 -28.4 -29.1" />
<path style="fill:#A9BEDB;fill-opacity:1" d="M28.4,-3.55Q26.2 -2.95 23.95 -1.7Q20.85 0.05 18.3 2.85Q17.85 3.4 16.75 6.05Q16.05 7.9 14.7 7.85L7.85 7.85L-6.9 7.85L-11.95 8.15L-15.75 7.85L-15.75 7.5L-16.05 7.5Q-19.05 -0.3 -23.2 -5.6L-23.75 -6.25Q-23.65 -7.65 -22.15 -7.65Q-21.35 -7.65 -18.7 -5.25L-15.75 -2.85Q-15.25 -2.85 -13.9 -3.95Q-12.55 -5.1 -11.4 -5.1Q-10.4 -5.1 -9.75 -4.15Q-9.1 -3.2 -8 -3.2Q-7.05 -3.2 -4.35 -4.5Q-1.7 -5.85 1.25 -5.85Q3.95 -5.85 4.15 -4.1Q4.35 -2.4 6.25 -2.4Q8.05 -2.4 12.05 -4.1Q16.1 -5.85 20.4 -5.85Q22.65 -5.85 23.3 -4.75Q23.95 -3.6 25.7 -3.6L28.4 -3.55" />
<path style="fill:none;stroke-width:1;stroke-linecap:butt;stroke-linejoin:miter;stroke-miterlimit:3;stroke:#5C8BBB;stroke-opacity:1" d="M24.3,-25.55Q24.3 -25.1 25 -24.65Q25.6 -24.3 25.95 -24.3L26.35 -24.35L26.45 -24.4L28.45 -25.7Q30.3 -26.8 30.3 -27.65Q30.3 -29.1 28.35 -29.1Q26.85 -29.1 25.5 -27.75Q24.3 -26.55 24.3 -25.55M-16.05,7.5Q-19.05 -0.3 -23.2 -5.6L-23.75 -6.25Q-29.5 -13.2 -36.05 -13.2Q-37.8 -13.2 -40.75 -11.55Q-43.7 -9.9 -44.15 -9.9Q-44.85 -9.9 -45.1 -10.25L-45.25 -10.95L-45.25 -11.85Q-45.15 -14.3 -43.2 -15.95Q-41 -17.85 -37.65 -17.85Q-31.75 -17.85 -25 -13.95Q-18.25 -10.05 -15.3 -10.05Q-14.05 -10.05 -12.5 -9.2Q-10.95 -8.4 -10.4 -8.4Q-10.1 -8.4 -8.35 -9.15Q-6.55 -9.9 -6 -9.9L-3.7 -9.3L-1.55 -8.7Q-0.45 -8.7 0.9 -9.9L2.55 -11.1Q5.15 -11.1 6.7 -9.9Q8.3 -8.7 10.1 -8.7L11.5 -9L12.55 -9.35L12.65 -9.45Q15.45 -11 22.55 -15.75Q29.5 -19.85 34.35 -19.85Q37.35 -19.85 40.8 -18.15Q44.9 -16.2 44.9 -13.55Q44.9 -12.85 44.4 -12.45Q44 -12.15 43.5 -12.15Q42.7 -12.15 40.05 -13.05Q37.45 -14 36 -14Q34.8 -14 34.8 -12.85Q34.8 -11.55 38.05 -10Q41.3 -8.45 41.3 -7.55Q41.3 -5.5 36.3 -4.6L30.15 -3.9L28.4 -3.55Q26.2 -2.95 23.95 -1.7Q20.85 0.05 18.3 2.85Q17.85 3.4 16.75 6.05Q16.05 7.9 14.7 7.85L7.85 7.85L-6.9 7.85L-11.95 8.15L-15.75 7.85L-15.75 7.5M26.45,-24.4L26.65 -24.45L27.9 -24.65M45.7,-6.8Q46.2 -3.45 48 -3.45Q49.05 -3.45 49.35 -4.3L49.5 -5.75Q49.5 -7.1 48.85 -8Q48.15 -9.05 46.85 -9.05L45.8 -8.85Q45.45 -8.6 45.45 -8L45.55 -7.6L45.65 -7.15L45.7 -6.8M-29.4,-28.1Q-29.4 -27.35 -28.6 -26.9L-27.9 -26.55L-27.55 -26.4L-26.6 -26.3L-25.8 -26.05Q-25.2 -25.7 -24.15 -25.7L-22.45 -25.7Q-21.9 -25.85 -21.9 -26.9Q-21.9 -27.95 -24 -28.75Q-25.65 -29.45 -26.6 -29.45L-28.4 -29.1Q-29.4 -28.7 -29.4 -28.1M-27.9,-26.55L-27.9 -26.4L-27.55 -26.4" />
</g>
</svg>
