<?xml version="1.0" encoding="utf-8"?>
<svg version="1.1" id="Layer_1"
xmlns="http://www.w3.org/2000/svg"
xmlns:xlink="http://www.w3.org/1999/xlink"
xmlns:author="http://www.sothink.com"
width="48px" height="24px"
xml:space="preserve">
<g id="192" transform="matrix(1, 0, 0, 1, 23.65, 12.2)">
<path style="fill:#6E6E98;fill-opacity:1" d="M23.1,0.25L23.1 6.5Q23.55 9.8 20.4 10.85L16.55 10.75L13.15 10.7L11.75 10.8L11.4 10.8L-6.45 10.6L-6.85 10.7L-6.85 10.55L-14.1 10.7Q-18.8 10.7 -19.25 6.6L-19.25 6.75Q-22.2 7.75 -22.9 4.95L-23.15 -0.05L-23.1 -3.95Q-22.95 -6.5 -22.1 -7.25L-19.05 -7.2L-19.2 -6.25L-19.25 -6.25L-19.25 -5.6L-19.25 -4.95L-19.35 -4.35L-19.55 -2.45L-19.5 -0.85L-19.2 -0.35Q-18.3 0.85 -17.05 0.85Q-16.05 0.85 -15.9 -1.45L-15.9 -5L-15.65 -9.9L-13.1 -10L-13 -10L-12.95 -10L-7.2 -10.3L-6.85 -4.8L-6.8 -4L-6.8 -3.45L-6.8 -2.6L-6.8 -0.05L-1.75 0.1Q2.45 0.1 2.55 -3.9L2.45 -8L2.55 -10.4L7.45 -10.5L11.55 -10.7L11.2 -10.55Q11.2 -5.15 10.85 0L11.9 -0.1L15.3 -0.3L16.55 -0.25L20.3 0L23.1 0.25" />
<path style="fill:#8C8CB6;fill-opacity:1" d="M-6.45,-10.35Q-2.75 -10.6 2.55 -10.4L2.45 -8L2.55 -3.9Q2.45 0.1 -1.75 0.1L-6.8 -0.05L-6.8 -2.6L-6.8 -3.45L-6.8 -4L-6.85 -4.8L-7.2 -10.3L-6.45 -10.35M-19.55,-2.45L-19.35 -4.35L-19.25 -4.95L-19.25 -5.6L-19.2 -6.25L-19.05 -7.2Q-18.65 -9.65 -17.15 -9.9L-15.65 -9.9L-15.9 -5L-15.9 -1.45Q-16.05 0.85 -17.05 0.85Q-18.3 0.85 -19.2 -0.35L-19.5 -0.85L-19.55 -2.45M20.3,0L16.55 -0.25L15.3 -0.3L11.9 -0.1L10.85 0Q11.2 -5.15 11.2 -10.55L11.55 -10.7L12.8 -10.65L16.5 -10.75L19.75 -10.9Q22.75 -9.95 23.05 -7.05L23.1 0.25L20.3 0M1.75,-7.8L1.6 -8.65Q1.2 -9.15 -0.5 -9.35L-5.4 -9.6Q-6 -9.45 -6 -8.75L-5.85 -8.3L-5.5 -7.5L-5.5 -7.15L-5.35 -6.8Q-5.15 -6.45 -4 -6.35L-0.15 -6.25Q1.35 -6.25 1.7 -6.95L1.75 -7.8M17.5,-9.1L17.3 -8.45Q17.3 -7.4 17.5 -7.15Q18.2 -6.15 20.95 -6.15Q21.75 -6.15 21.75 -7.25Q21.75 -8.4 20.1 -8.95L18.4 -9.3L17.5 -9.1M12.55,-7.45Q13.25 -6 15.15 -6.55Q15.6 -6.75 15.6 -7.75Q15.6 -9.45 13.9 -9.6Q12.2 -9.7 12.2 -9.05Q12.2 -8.15 12.55 -7.45M-17.85,-7.85Q-17.85 -6.75 -17.1 -6.75Q-16.45 -6.75 -16.45 -7.95Q-16.45 -9 -17.15 -9.1Q-17.85 -9.25 -17.85 -7.85M-1.85,-8.9L-1.4 -8.9L-1.4 -8.85L-1.85 -8.9M-4.5,-7L-4.6 -7L-5 -7.4L-4.5 -7" />
<path style="fill:#B7B7DE;fill-opacity:1" d="M1.7,-6.95Q1.35 -6.25 -0.15 -6.25L-4 -6.35Q-5.15 -6.45 -5.35 -6.8L-5.5 -7.15L-5.5 -7.5L-5.85 -8.3L-6 -8.75Q-6 -9.45 -5.4 -9.6L-0.5 -9.35Q1.2 -9.15 1.6 -8.65L1.75 -7.8L1.7 -6.95M18.4,-9.3L20.1 -8.95Q21.75 -8.4 21.75 -7.25Q21.75 -6.15 20.95 -6.15Q18.2 -6.15 17.5 -7.15Q17.3 -7.4 17.3 -8.45L17.5 -9.1L18.4 -9.3M12.2,-9.05Q12.2 -9.7 13.9 -9.6Q15.6 -9.45 15.6 -7.75Q15.6 -6.75 15.15 -6.55Q13.25 -6 12.55 -7.45Q12.2 -8.15 12.2 -9.05M-17.15,-9.1Q-16.45 -9 -16.45 -7.95Q-16.45 -6.75 -17.1 -6.75Q-17.85 -6.75 -17.85 -7.85Q-17.85 -9.25 -17.15 -9.1M-1.4,-8.85L-1.4 -8.9L-1.85 -8.9L-1.4 -8.85M-5,-7.4L-4.6 -7L-4.5 -7L-5 -7.4" />
<path style="fill:none;stroke-width:1;stroke-linecap:butt;stroke-linejoin:miter;stroke-miterlimit:3;stroke:#585454;stroke-opacity:1" d="M11.55,-10.7L7.45 -10.5L2.55 -10.4Q-2.75 -10.6 -6.45 -10.35L-7.2 -10.3L-12.95 -10L-13 -10L-13.1 -10L-15.65 -9.9M-19.25,-5.6L-19.25 -4.95L-19.35 -4.35L-19.55 -2.45L-19.5 -0.85L-19.4 1.4L-19.3 5.35L-19.25 6.6Q-18.8 10.7 -14.1 10.7L-6.85 10.55L-6.45 10.6L11.4 10.8M11.75,10.8L13.15 10.7L16.55 10.75L16.55 -0.25L16.5 -10.75M11.55,-10.7L12.8 -10.65L16.5 -10.75L19.75 -10.9Q22.75 -9.95 23.05 -7.05L23.1 0.25L23.1 6.5Q23.55 9.8 20.4 10.85L16.55 10.75M-19.25,6.6L-19.25 6.75Q-22.2 7.75 -22.9 4.95L-23.15 -0.05L-23.1 -3.95Q-22.95 -6.5 -22.1 -7.25L-19.05 -7.2Q-18.65 -9.65 -17.15 -9.9L-15.65 -9.9M-19.2,-6.25L-19.25 -5.6L-19.25 -6.25L-19.2 -6.25L-19.05 -7.2" />
</g>
</svg>
