<?xml version="1.0" encoding="utf-8"?>
<svg version="1.1" id="Layer_1"
xmlns="http://www.w3.org/2000/svg"
xmlns:xlink="http://www.w3.org/1999/xlink"
xmlns:author="http://www.sothink.com"
width="68px" height="13px"
xml:space="preserve">
<g id="118" transform="matrix(1, 0, 0, 1, 33.8, 6.05)">
<path style="fill:#EC7558;fill-opacity:1" d="M-33.25,-3L-33.25 -4.15L-33.15 -4.3Q-32.45 -5.4 -30.35 -5.55L-26.85 -5.3L-26.6 -5.3L-23.25 -5.3L-22.85 -5.25Q-20.8 -5.05 -20.8 -4.15L-20.85 -2.9L-20.85 -2.85L-21.05 0.2L-21.1 1.25L-22.15 1.2L-24.35 1.05L-28.25 0.5L-29.2 0.3L-29.1 -0.25Q-29.1 -1.2 -30.15 -1.2Q-31.15 -1.2 -31.2 -0.15L-33.1 -0.65L-33.3 -0.7L-33.25 -3M-27.25,-3.7Q-28.15 -3.6 -28.15 -2.85L-28.1 -2.35L-27.65 -1.9L-27.4 -1.65L-26.35 -1.65Q-25.65 -1.65 -25.65 -2.55L-25.9 -3.15Q-26.05 -3.8 -27 -3.75L-27.25 -3.7M-24.05,-0.15L-24.1 0.05L-24.15 0.3Q-24.25 0.95 -23.15 0.95Q-22.3 0.95 -22.15 0.25L-22.15 -0.05Q-22.15 -0.95 -23.1 -0.95Q-23.85 -0.95 -24 -0.4L-24.05 -0.15" />
<path style="fill:#D75535;fill-opacity:1" d="M-33.3,0.05L-33.3 -0.7L-33.1 -0.65L-33.3 0.05M-21.15,2.1L-22.15 1.2L-21.1 1.25L-21.15 2.1" />
<path style="fill:#B4472C;fill-opacity:1" d="M-21.2,3.8Q-21.4 4.8 -21.9 5.1L-24.6 5.3L-25.35 5.3L-29.3 5.3L-29.35 5.3Q-32.2 5.1 -32.7 4.15Q-33.35 2.8 -33.3 0.05L-33.1 -0.65L-31.2 -0.15L-31.2 -0.1Q-31.6 0.95 -30.15 0.95Q-29.65 0.95 -29.3 0.45L-29.2 0.3L-28.25 0.5L-24.35 1.05L-22.15 1.2L-21.15 2.1Q-21.1 3.1 -21.2 3.8M-27.25,1.1Q-28 1.65 -28 2Q-28 2.75 -27.1 3.05L-26.1 3.05Q-25.5 2.55 -25.5 2.1Q-25.5 1.55 -26.2 1.1L-27.25 1.1" />
<path style="fill:#8E341E;fill-opacity:1" d="M-31.2,-0.15Q-31.15 -1.2 -30.15 -1.2Q-29.1 -1.2 -29.1 -0.25L-29.2 0.3L-29.3 0.45Q-29.65 0.95 -30.15 0.95Q-31.6 0.95 -31.2 -0.1L-31.2 -0.15M-27,-3.75Q-26.05 -3.8 -25.9 -3.15L-25.65 -2.55Q-25.65 -1.65 -26.35 -1.65L-27.4 -1.65L-27.65 -1.9L-28.1 -2.35L-28.15 -2.85Q-28.15 -3.6 -27.25 -3.7L-27 -3.75M-24,-0.4Q-23.85 -0.95 -23.1 -0.95Q-22.15 -0.95 -22.15 -0.05L-22.15 0.25Q-22.3 0.95 -23.15 0.95Q-24.25 0.95 -24.15 0.3L-24.1 0.05L-24.05 -0.15L-24 -0.4M-26.2,1.1Q-25.5 1.55 -25.5 2.1Q-25.5 2.55 -26.1 3.05L-27.1 3.05Q-28 2.75 -28 2Q-28 1.65 -27.25 1.1L-26.2 1.1" />
<path style="fill:#FA9049;fill-opacity:1" d="M30.2,1.05L30.2 1L23.75 1.35L23.7 -4.75L32.45 -5.25Q33.1 -4.85 33.25 -4.05L33.3 -2.55L33.2 1L30.2 1.05M-21.05,0.2L-20.85 -2.85L-20.85 -2.9L-6.75 -3L-6.7 -0.1L-21.05 0.2" />
<path style="fill:#FF6600;fill-opacity:1" d="M33.2,1L33.15 3.1Q33.25 5.4 29.15 5.5L23.8 5.6L22.9 5.6L23.8 5.2L23.75 1.35L30.2 1L30.2 1.05L33.2 1M-6.7,-0.1L-6.65 0.8L-6.65 1L-6.5 3.8L-21.2 3.8Q-21.1 3.1 -21.15 2.1L-21.1 1.25L-21.05 0.2L-6.7 -0.1" />
<path style="fill:none;stroke-width:1;stroke-linecap:butt;stroke-linejoin:miter;stroke-miterlimit:3;stroke:#833825;stroke-opacity:1" d="M23.8,5.2L23.75 1.35L23.7 -4.75L32.45 -5.25Q33.1 -4.85 33.25 -4.05L33.3 -2.55L33.2 1L33.15 3.1Q33.25 5.4 29.15 5.5L23.8 5.6M23.8,5.2L23.8 5.6M-21.2,3.8Q-21.1 3.1 -21.15 2.1L-21.1 1.25L-21.05 0.2L-20.85 -2.85L-20.85 -2.9L-20.8 -4.15Q-20.8 -5.05 -22.85 -5.25L-23.25 -5.3L-26.6 -5.3L-26.85 -5.3L-30.35 -5.55Q-32.45 -5.4 -33.15 -4.3L-33.25 -4.15L-33.25 -3L-33.3 -0.7L-33.3 0.05M-6.5,3.8L-21.2 3.8Q-21.4 4.8 -21.9 5.1L-24.6 5.3L-25.35 5.3L-29.3 5.3L-29.35 5.3Q-32.2 5.1 -32.7 4.15Q-33.35 2.8 -33.3 0.05M-20.85,-2.9L-6.75 -3" />
</g>
</svg>
