<?xml version="1.0" encoding="utf-8"?>
<svg version="1.1" id="Layer_1"
xmlns="http://www.w3.org/2000/svg"
xmlns:xlink="http://www.w3.org/1999/xlink"
xmlns:author="http://www.sothink.com"
width="50px" height="77px"
xml:space="preserve">
<g id="38" transform="matrix(1, 0, 0, 1, 25.7, 71.3)">
<path style="fill:#77F5DB;fill-opacity:1" d="M10.45,-55.35Q12.7 -50.85 12.65 -47.1Q12.6 -38.25 14.25 -37.2L15.4 -36.05Q15.95 -34.75 15.95 -30.9L15.5 -22.6Q15.05 -17 15.05 -14.35Q15.05 -11.15 15.8 -5.25L16.5 2.6Q16.5 4.2 12.95 4.7L12.3 4.8L7.65 4.95L6.6 4.95L-5.6 4.45L-7.7 4.35L-13.45 4.1L-19.7 3.85L-15.85 -19.55Q-13.15 -35.55 -12.3 -35.55L-11.15 -35.25L-10.05 -34.95Q-7.85 -34.95 -6.85 -43.05Q-6.3 -47.1 -6.15 -51.75Q-6.95 -54.65 -4.85 -55.35L-0.3 -56.25Q0.55 -56.5 2.1 -58.55Q3.5 -60.35 5.1 -60.35Q8 -60.35 10.45 -55.35M3.05,-63.3Q1.2 -63.3 1.2 -65.1Q1.2 -66.9 3.2 -66.9L4.4 -66.6L4.7 -65.55L4.4 -64.2Q4 -63.3 3.05 -63.3M16.65,-48.2Q17.35 -48.2 17.7 -47.3L18 -45.75Q18 -44.3 17.45 -43.2Q16.8 -42 15.8 -42Q15.2 -42 14.75 -43.2Q14.45 -44.15 14.45 -45L14.55 -45.8L15 -46.4Q15 -47.05 15.3 -47.5Q15.75 -48.2 16.65 -48.2M-2.1,-63.3Q-3.1 -61.55 -4.7 -61.55L-5.05 -62.25L-6.25 -64.3Q-7.65 -66.85 -7.65 -67.65Q-7.65 -69.35 -6.45 -70.4Q-5.45 -71.3 -4.25 -71.3Q-1.2 -71.3 -1.2 -66.75Q-1.2 -64.85 -2.1 -63.3M-19.2,-28.65Q-19.65 -27.8 -20.55 -27.8Q-21.1 -27.8 -21.8 -28.3Q-22.7 -29 -23.2 -30.2Q-22.8 -31.95 -21.6 -31.95Q-18.9 -31.95 -18.9 -30Q-18.9 -29.3 -19.2 -28.65" />
<path style="fill:#D2DEEE;fill-opacity:1" d="M8.95,-0.2L11.55 -0.15L21.6 0Q23.4 0.7 23.4 1.75Q23.4 2.7 22.65 3L19.15 3.5L-4.1 5.25L-18.3 5.25L-24.75 4Q-25.7 3.8 -25.7 3.2Q-25.7 2 -23.8 1.25Q-21.3 0.2 -16.55 0.6L-8.9 0.45L6.75 -0.15L8.95 -0.2" />
</g>
</svg>
