<?xml version="1.0" encoding="utf-8"?>
<svg version="1.1" id="Layer_1"
xmlns="http://www.w3.org/2000/svg"
xmlns:xlink="http://www.w3.org/1999/xlink"
xmlns:author="http://www.sothink.com"
width="147px" height="252px"
xml:space="preserve">
<g id="352" transform="matrix(1, 0, 0, 1, -18.45, -323.25)">
<path style="fill:#000000;fill-opacity:0.2" d="M62.35,553.45Q76 549.55 95.5 549.35Q115.1 549.2 128.7 552.85Q142.5 556.5 142.55 561.85Q142.6 567.2 128.85 570.95Q115.35 574.9 95.75 575.05Q76.25 575.25 62.5 571.55Q48.65 568.05 48.6 562.7Q48.55 557.35 62.35 553.45" />
<path style="fill:#FC850F;fill-opacity:1" d="M48.7,332.45Q46.5 333.9 50.3 347.95Q52.2 355 54.55 361.75L58.7 360.3L58.5 354.75L63.2 357.45L62.8 352.5L66.1 354.95L66.7 351.9L71.2 351.5Q66.45 346.15 61.25 341.1Q50.9 331 48.7 332.45M87.95,556.15L82.55 559.65Q78.7 561.75 75.55 562.8Q72.95 563.95 68.05 564.05L54.1 563.3L53.75 563.2L53.55 563.15L49.1 562.2Q49.5 559.15 50.55 555.8Q52.6 549.15 55.85 547.85Q59.1 546.55 63.55 548.65Q65.75 549.65 67.3 550.95Q69.6 543.85 70.45 536.2Q71.35 527.95 70.6 519.05Q64.3 518.1 57.5 515.55Q51.45 513.25 45.55 504.1L43.45 500.55Q39.85 493.95 39.75 488.85Q39.65 483.3 42.35 476.5L45.6 470.05L39 468.85Q29.3 466.9 27 465.35Q15.35 457.35 22.95 446.25Q27.45 439.7 40.9 434.4Q47.65 431.75 53.45 430.4L52.6 429.5Q49.3 426.1 45.35 413.35L45.6 413.35Q45.85 413.7 46.25 413.7L47.3 412.95Q48.2 412.7 50.3 411.25L52.15 410.3Q53.35 409.65 53.35 409.2L53.25 408.95L51.4 409.35L50.9 409.6Q49 410.1 47.55 410.9Q46.3 411.6 45.8 412.35L45.2 412.85L44.65 410.9L44.85 410.95Q44.75 411.35 45.2 411.35Q45.65 411.35 46.55 410.55L46.6 410.55L49.6 408.95L52.6 406.95L52.35 406.7Q50.9 406.75 50.05 407.15L48.45 407.9Q46.55 408.55 45.65 409.5L45.65 409.7L44.9 410.05Q44.55 410.3 44.55 410.6L43.6 406.95L43.85 407.15L44.35 407.2L45.75 406.1L46.4 405.5Q49.35 403.75 49.35 403.15L49.25 402.85L47.85 403.25L46.6 403.75Q45.9 403.9 45.35 404.35L45.25 404.45L44.55 404.75Q43.5 405.3 43.5 406.1L43.45 406.4L42.6 403.05L42.7 403.05L43.55 402.6L43.85 402.6L45.75 401.55Q47.1 400.75 47.7 400.5L50.75 398.7L50.5 398.45Q47.9 398.8 46.35 399.6L44.35 400.3L43.25 400.8L42.4 401.5L42.45 401.65L42.65 401.7L42.35 402.05L40.9 396.55L30.05 394.3L40.7 385.5L30.65 384.9L41.95 377.5L35.15 373.4L46.85 368.9L43.15 363.15L48.85 364.6Q46.25 355.6 44.55 346.15Q41.15 327.25 45.8 325.05Q50.45 322.85 63.85 335.9Q70.6 342.45 76.35 349.4L83.7 345.3L88.6 348.4L97.45 346.75L101.3 349.4Q106.35 342.4 112.2 335.9Q123.95 322.9 128.15 325.45Q132.35 328 128 344.7Q125.8 353.05 122.8 360.9L131.85 365.6L123.85 369.3L133.45 374.4L125.3 376.85L130 381.35L126.1 384.45L129.4 389.55L125.7 395.7L127.75 402.05L127.1 402.7L125.1 402.05Q124.55 401.65 123.55 401.4L123.5 401.35L119.85 400.15Q117.5 399.55 117.5 400.3Q117.5 400.75 119.35 401.4Q121.4 402.1 121.85 402.35L121.9 402.4Q124.15 403.35 124.85 403.8L125.15 403.8L125.7 404.15L124.25 405.55L123.9 407.85L123.75 407.7L123.45 407.55L123.5 407.5L123.85 407.1Q123.35 406.6 121.55 406.2L119.35 405.9L118.75 405.95L117.4 405.75L117.35 406.05Q117.35 406.25 118.7 406.9L120 407.45L120.5 407.45Q122.05 408 123.1 408.7L123.45 408.7L123.55 408.4L123.45 408.1L123.55 408.1L123.85 408.15L123.6 409.65L121.65 409L120.9 408.95L118.15 408.25L114.35 407.6L114.25 407.7L114.1 407.9L116.35 409.2L117.7 409.75L119.9 410.5L121.8 411.3L122.45 411.3L122.55 411.1L122.35 410.9L123.05 410.9L123.1 410.6L123.2 410.15L123.5 410.1L123.2 412.05L122.9 413.4L122.75 413.3L122.8 413.3L122.85 412.95L122.55 412.6L122.5 412.6L122.15 412.65L120.95 412.35L119.7 411.9L118.9 411.55L118.3 411.15L118.2 411.1L118.05 411.05L117.2 410.75Q114.7 409.95 113.45 410.25L113.35 410.55L113.8 410.95Q114.95 411.2 116.1 411.8L118.25 412.7L120.65 413.95L121.65 414.65L121.3 414.35L121.7 414.25L121.95 414.45Q122.15 414.65 122.4 414.65L122.6 414.65L122.35 415.5L122.35 415.55L122.3 415.65Q120.95 420.3 119.15 423.15L118.75 423.75L120.75 428.85L115.85 436.25L113.8 432.55L102.75 440.75L92.5 438.75L90.15 435.6Q87.4 432.55 85.35 433Q83.3 433.45 78.9 437.65L74.9 441.8Q71.15 440.35 66.6 438.2Q60.95 435.55 57.3 433.2L51.95 435.45L54.35 439.75L48.4 441.15Q41.15 443.3 39.05 445.9Q36.75 448.75 36.85 450.8Q36.95 452.45 38.65 453.85Q39.9 454.9 44.55 454.8L48.9 454.5L52.85 452.3L53.2 452.15L55.65 442.1L60.2 450.35Q64.4 450.75 64.6 455.75Q64.65 458.25 63.9 460.7L64.65 461.05Q67.45 462.6 66.4 466.05Q65.35 469.5 62.4 469.85L61.5 469.9L61.85 472.65Q61.95 476.25 60.55 477.85Q59.8 478.75 58.15 479Q56.65 488.1 64.85 495.65Q66.4 492.7 68.45 489.8Q72.5 484 74.9 484.15Q76.85 484.3 79.9 488.6Q83.1 493.15 85.15 493.8Q87.2 494.45 90.05 489.6Q93.15 484.35 96.2 484.15Q99.6 483.9 101.85 488.15Q104.3 492.65 105.2 492.8Q106.95 493.1 111.5 487.35L115.65 481.5L122.6 488.6Q129.85 495.25 131.6 493Q133.35 490.75 133.8 483.8L133.85 477.25Q132.05 478.3 128.65 478.85Q124.35 479.5 122.9 477.8Q121.5 476.2 121.6 472.6L121.95 469.85L121.05 469.8Q118.1 469.45 117.05 466Q116 462.55 118.8 461L119.55 460.65Q118.8 458.2 118.85 455.7Q119.05 450.7 123.25 450.3Q125.1 450.15 127.7 451.05L130.6 452.25L134.55 454.45L138.9 454.75Q143.55 454.85 144.8 453.8Q146.5 452.4 146.6 450.75Q146.7 448.7 144.4 445.85Q142.3 443.25 135.05 441.1L129.6 439.75L131.15 430.65Q136.45 431.95 142.55 434.35Q156 439.65 160.5 446.2Q168.1 457.3 156.45 465.3Q154.15 466.85 144.45 468.8L138.85 469.85L141.7 476.15Q143.25 482.55 142.7 489Q142.2 494.45 140.25 499.15L139.65 500.55Q136.1 508.05 128.8 513.35Q124.8 516.3 121.45 517.5Q120.5 529.1 121.25 536.2Q122.1 543.85 124.4 550.95Q125.95 549.65 128.15 548.65Q132.6 546.55 135.85 547.85Q139.1 549.15 141.15 555.8Q142.2 559.15 142.6 562.2L138.15 563.15L137.95 563.2L137.6 563.3L123.65 564.05Q114.45 563.85 113.35 559.95Q112.25 556.1 112.7 537.05L113.35 519Q106.3 520.55 99.35 520.8L98.5 532L95.6 531.55L94.1 531.3Q92.95 531.25 92.5 531.65L92.6 531.9L94.15 532.5L96.1 533.1L97.6 533.05L98 532.6L98.45 532.35L97.2 540.15L96.95 540.05L95.55 539.65L91.35 538.95L91.1 539.1L91.35 539.55L91.7 539.65L91.95 540.05Q92.45 540.15 94.15 540.8L96.05 541.3L96.95 541.25Q95.65 546.55 93.85 549.65L92.4 548.5Q91.4 547.7 90.2 547.1Q89.4 546.9 88.2 546.1Q87.3 545.5 86.25 545.5L87.25 546.85L88.55 548.15L90.2 549.4L92.3 550.65L92.85 550.6L93.6 550.05L93.55 550.15Q91.55 553.35 88 556.15L88 556.1L88.1 555.9L86 553.4L83.7 550.9L83.1 550.9L83.1 551.55L84.55 553.95Q85.5 555.4 86.6 556.4L86.95 556.45L87.1 556.2L86.75 555.65L87.45 556.15L87.95 556.15M121.9,413.75L121.95 413.7L122 413.4L122.05 413.4L122.2 413.55L122.7 413.8L122.8 413.8L122.7 414.3L121.9 413.75M79.15,375.6L78.55 376.5L78.3 376.8L77.75 377.55L75.35 381.65L76.95 385.35Q78.55 387.4 81.05 388.45Q83.05 389.3 85.65 389.5Q90.55 389.85 94.7 388.45Q97.6 387.45 100.15 385.6Q105.05 381.95 105.4 377.55L105.4 376.8L105.4 376.5L105.3 375.5Q105.05 373.9 104.25 372.6Q103.05 370.85 100.75 369.65Q99.4 368.95 97.9 368.6L95.25 368.25L95.2 368.25L95.45 367.95Q96.15 367 96.4 365.65Q97 362.65 94.2 360.15L94 360Q91 357.45 88.1 359.55Q87.65 359.85 87.35 360.15Q86.4 361.05 85.8 362.2Q86.5 364.9 86.15 367.95L86.05 368.6L85.75 370.05Q83.85 371.05 82.1 372.6L80.6 374.05L81.25 373.3Q81.65 372.85 82.35 372.3L83.45 371.35L84.1 370.9L84.7 370.45L85 369.85L85.2 369.2L85.3 368.9L85.5 368.55L85.6 368.25L85.6 368.1L85.75 367.9L86 365.3L85.95 363.85L85.7 362.3L85.5 361.55L85.15 360.75L84.65 359.95L84.25 359.2L83.45 358.7L83 358.3Q82.55 358.05 82.15 357.9L80.35 357.6L79.5 357.6Q76.7 358.1 75.85 358.55L74.5 359.6L73.75 360.4L73.35 360.9L73.05 361.4Q72.45 362 71.95 363.5L71.85 363.55L71.7 364.15L71.6 364.8L71.55 365.45L71.4 366.1L71.4 368.05L71.1 372.25L71.3 374.4L71.7 375.45L72.25 376.55L72.75 377.5L73.1 378.5L74 380.45L74.1 380.5Q74 380.9 74.65 381.35L74.9 381.35L75.95 380.15L76.7 379L77.25 378.15L77.8 377.1Q78.05 376.6 79.45 375.2L80 374.65L79.15 375.6M52.5,391.95Q52.3 397.8 53.8 402.45L54.55 404.4Q56.5 408.25 60.85 412L63.65 414.2L64.2 415.1L64.95 415.85L65.05 415.95L66.85 415.65L67.8 415.5L66.85 415L67.35 415L71.55 414.75L74.7 414.4L78.2 413.9L87.35 412.2L95 410.5L97.35 409.9L100.5 409.15L105.25 407.85L112.4 405.55L113.8 404.7L114.65 403.55L114.8 403.3L117 398.4L117.55 396.8L119.55 390.6L118.1 391.8L114.65 394.1L114.05 394.4L112.4 395.25L108.05 397.1L100.5 399.25L95 400.3L94.85 400.3L86.9 401.2Q82.2 401.45 78.2 401L74.7 400.45Q70.7 399.6 67.5 397.95L67.35 397.9L66.9 397.65L63.65 395.55Q58.45 391.5 56.85 385.1Q56.2 382.4 56.25 379.65L56.4 377.95L55.15 380.6Q53.8 383.55 53.4 385.05Q52.65 388.05 52.5 391.95M124.7,331.35Q123.25 330.25 115.2 340.05L107.45 350.05L109.5 351.9L112.8 351.1L113 355.15L116.45 352.7L118.5 357.65L122.45 345.2Q126.15 332.5 124.7 331.35M122,415.65L120.6 414.65L121.05 415.15Q121.55 415.65 121.95 415.65L122 415.65M115.05,416.95L116.6 417.55L116.6 417.65Q117.5 418 120.45 419.65L120.8 419.5L121.05 419.1L120.65 418.6L120.75 418.45L120.7 418.3L120.4 418L120.5 418L120.65 417.9L120.75 417.7L120.7 417.5Q120.45 417.2 119.75 417L119.05 416.9L118.75 416.7L116.65 416.05Q114.35 415.45 113.25 415.35L113.15 415.4L113 415.6Q113 416.05 115.05 416.95M46.9,414.15Q46.1 414.55 46.1 414.85L46.2 415.05L46.5 415.15L46.3 415.4Q46.3 415.75 46.45 415.9L46.75 415.9L47.9 415.15L48.05 415L50.9 413.4Q54 411.5 54 411.05L53.9 410.75Q52.45 411 50.65 412L47.55 413.75L47.5 413.85L46.9 414.15M51.8,418.7L50.6 419.3Q48.45 420.2 48.45 421.05L48.8 421.4L48.55 421.95L48.7 422.35Q49.6 422.45 50.1 422.9L51.65 420.95Q55.85 417.75 55.85 417.15L55.6 416.85L53.9 417.45L52.45 418.2L51.8 418.7M72.1,425.45L70.2 425.45L67.8 424.85L65.8 424.05L64.25 423.4L62.35 422Q62.2 422.1 62.2 422.3Q62.2 423.6 63.35 424.8Q64.4 425.9 66.2 426.55L66.25 426.6Q66.75 427.05 67.85 427.05L70.4 426.45L73.25 425.35L72.1 425.45M69.05,426.4L69.25 426.35L69.05 426.45L69.05 426.4M79,537.05L79.15 543.8Q88.55 536.25 92.35 520.8Q85.6 520.5 78.35 518.8L79 537.05M98.5,525.65L98.75 525.35L98.5 525.1L94.35 525.1Q93.75 525.1 93.6 525.55L94.35 525.9L94.45 526.05L98.45 526.2L98.6 525.9L98.5 525.65" />
<path style="fill:#E66006;fill-opacity:1" d="M61.25,341.1Q66.45 346.15 71.2 351.5L66.7 351.9L66.1 354.95L62.8 352.5L63.2 357.45L58.5 354.75L58.7 360.3L54.55 361.75Q52.2 355 50.3 347.95Q46.5 333.9 48.7 332.45Q50.9 331 61.25 341.1M122.45,345.2L118.5 357.65L116.45 352.7L113 355.15L112.8 351.1L109.5 351.9L107.45 350.05L115.2 340.05Q123.25 330.25 124.7 331.35Q126.15 332.5 122.45 345.2" />
<path style="fill:#FFFFFF;fill-opacity:1" d="M80,374.65L79.45 375.2Q78.05 376.6 77.8 377.1L77.25 378.15L76.7 379L75.95 380.15L74.9 381.35L74.65 381.35Q74 380.9 74.1 380.5L74 380.45L73.1 378.5L72.75 377.5L72.25 376.55L71.7 375.45L71.3 374.4L71.1 372.25L71.4 368.05L71.4 366.1L71.55 365.45L71.6 364.8L71.7 364.15L71.85 363.55L71.95 363.5Q72.45 362 73.05 361.4L73.35 360.9L73.75 360.4L74.5 359.6L75.85 358.55Q76.7 358.1 79.5 357.6L80.35 357.6L82.15 357.9Q82.55 358.05 83 358.3L83.45 358.7L84.25 359.2L84.65 359.95L85.15 360.75L85.5 361.55L85.7 362.3L85.95 363.85L86 365.3L85.75 367.9L85.6 368.1L85.6 368.25L85.5 368.55L85.3 368.9L85.2 369.2L85 369.85L84.7 370.45L84.1 370.9L83.45 371.35L82.35 372.3Q81.65 372.85 81.25 373.3L80.6 374.05L80 374.65M90.6,368.45L89.7 368.6Q87.65 369 85.75 370.05L86.05 368.6L86.15 367.95Q86.5 364.9 85.8 362.2Q86.4 361.05 87.35 360.15Q87.65 359.85 88.1 359.55Q91 357.45 94 360L94.2 360.15Q97 362.65 96.4 365.65Q96.15 367 95.45 367.95L95.2 368.25L90.6 368.45M79.85,370.6L80.7 370.6L81.15 370.45L81.6 370.45L82.1 370.35L83.25 368.9L83.35 367.7Q83.35 364.9 81.4 363.9L81.2 363.9Q80.75 363.6 80.15 363.55Q77.7 363.25 77.7 366.95Q77.7 367.9 78.25 368.8L78.5 369.2Q78.95 370.05 79.85 370.6M53.4,385.05Q53.8 383.55 55.15 380.6L56.4 377.95L56.25 379.65Q56.2 382.4 56.85 385.1Q58.45 391.5 63.65 395.55L66.9 397.65L67.35 397.9L67.5 397.95Q70.7 399.6 74.7 400.45L78.2 401Q82.2 401.45 86.9 401.2L94.85 400.3L95 400.3L100.5 399.25L108.05 397.1L112.4 395.25L114.05 394.4L114.65 394.1L118.1 391.8L119.55 390.6L117.55 396.8L117 398.4L114.8 403.3L114.65 403.55L113.8 404.7L112.4 405.55L105.25 407.85L100.5 409.15L97.35 409.9L95 410.5L87.35 412.2L78.2 413.9L74.7 414.4L71.55 414.75L67.35 415L66.85 415L67.8 415.5L66.85 415.65L65.05 415.95L64.95 415.85L64.2 415.1L63.65 414.2L60.85 412Q56.5 408.25 54.55 404.4L53.8 402.45Q52.3 397.8 52.5 391.95Q52.65 388.05 53.4 385.05M90.3,367.95Q92.1 367.95 92.1 365.95Q92.1 363.75 90.15 363.45Q88.2 363.1 88.2 365.65Q88.2 367 89.2 367.8L90.3 367.95" />
<path style="fill:#FF6D6B;fill-opacity:1" d="M95.2,368.25L95.25 368.25L97.9 368.6Q99.4 368.95 100.75 369.65Q103.05 370.85 104.25 372.6Q105.05 373.9 105.3 375.5L105.4 376.5L105.4 376.8L105.4 377.55Q105.05 381.95 100.15 385.6Q97.6 387.45 94.7 388.45Q90.55 389.85 85.65 389.5Q83.05 389.3 81.05 388.45Q78.55 387.4 76.95 385.35L75.35 381.65L77.75 377.55L78.3 376.8L78.55 376.5L79.15 375.6L80 374.65L80.6 374.05L82.1 372.6Q83.85 371.05 85.75 370.05Q87.65 369 89.7 368.6L90.6 368.45L95.2 368.25" />
<path style="fill:#AAD614;fill-opacity:1" d="M54.35,439.75L51.95 435.45L57.3 433.2Q60.95 435.55 66.6 438.2Q71.15 440.35 74.9 441.8L78.9 437.65Q83.3 433.45 85.35 433Q87.4 432.55 90.15 435.6L92.5 438.75L102.75 440.75L113.8 432.55L115.85 436.25L120.75 428.85L121.8 427.25L132.65 421.7L131.15 430.65L129.6 439.75L127.7 451.05Q125.1 450.15 123.25 450.3Q119.05 450.7 118.85 455.7Q118.8 458.2 119.55 460.65L118.8 461Q116 462.55 117.05 466Q118.1 469.45 121.05 469.8L121.95 469.85L121.6 472.6Q121.5 476.2 122.9 477.8Q124.35 479.5 128.65 478.85Q132.05 478.3 133.85 477.25L133.8 483.8Q133.35 490.75 131.6 493Q129.85 495.25 122.6 488.6L115.65 481.5L111.5 487.35Q106.95 493.1 105.2 492.8Q104.3 492.65 101.85 488.15Q99.6 483.9 96.2 484.15Q93.15 484.35 90.05 489.6Q87.2 494.45 85.15 493.8Q83.1 493.15 79.9 488.6Q76.85 484.3 74.9 484.15Q72.5 484 68.45 489.8Q66.4 492.7 64.85 495.65Q56.65 488.1 58.15 479Q59.8 478.75 60.55 477.85Q61.95 476.25 61.85 472.65L61.5 469.9L62.4 469.85Q65.35 469.5 66.4 466.05Q67.45 462.6 64.65 461.05L63.9 460.7Q64.65 458.25 64.6 455.75Q64.4 450.75 60.2 450.35L55.65 442.1L54.35 439.75" />
<path style="fill:#582903;fill-opacity:1" d="M125.15,403.8L124.85 403.8Q124.15 403.35 121.9 402.4L121.85 402.35Q121.4 402.1 119.35 401.4Q117.5 400.75 117.5 400.3Q117.5 399.55 119.85 400.15L123.5 401.35L123.55 401.4Q124.55 401.65 125.1 402.05L127.1 402.7L127.25 402.75L127.4 402.9L127.5 403.15L127.4 403.35L127.25 403.55L127.2 403.8L126.9 403.85L126.55 403.7Q126.5 403.55 126.25 403.55L126.55 403.8L126.55 403.95L126 403.95Q125.85 403.95 125.85 404.05L125.75 404.15L125.7 404.15L125.15 403.8M123.55,408.1L123.45 408.1L123.55 408.4L123.45 408.7L123.1 408.7Q122.05 408 120.5 407.45L120 407.45L118.7 406.9Q117.35 406.25 117.35 406.05L117.4 405.75L118.75 405.95L119.35 405.9L121.55 406.2Q123.35 406.6 123.85 407.1L123.5 407.5L123.45 407.55L123.75 407.7L123.9 407.85L123.95 407.95L123.95 408.15L123.85 408.15L123.55 408.1M123.2,410.15L123.1 410.6L123.05 410.9L122.35 410.9L122.55 411.1L122.45 411.3L121.8 411.3L119.9 410.5L117.7 409.75L116.35 409.2L114.1 407.9L114.25 407.7L114.35 407.6L118.15 408.25L120.9 408.95L121.65 409L123.6 409.65L123.65 409.65L123.75 409.85L123.6 410.1L123.5 410.1L123.2 410.15M122.7,414.3L122.7 414.6L122.6 414.65L122.4 414.65Q122.15 414.65 121.95 414.45L121.7 414.25L121.3 414.35L121.65 414.65L120.65 413.95L118.25 412.7L116.1 411.8Q114.95 411.2 113.8 410.95L113.35 410.55L113.45 410.25Q114.7 409.95 117.2 410.75L118.05 411.05L118.2 411.1L118.3 411.15L118.9 411.55L119.7 411.9L120.95 412.35L122.15 412.65L122.5 412.6L122.55 412.6L122.85 412.95L122.8 413.3L122.75 413.3L122.9 413.4L122.95 413.45L122.95 413.75L122.8 413.8L122.7 413.8L122.2 413.55L122.05 413.4L122 413.4L121.95 413.7L121.9 413.75L122.7 414.3M98,532.6L97.6 533.05L96.1 533.1L94.15 532.5L92.6 531.9L92.5 531.65Q92.95 531.25 94.1 531.3L95.6 531.55L98.5 532L98.6 532.2L98.45 532.35L98 532.6M96.05,541.3L94.15 540.8Q92.45 540.15 91.95 540.05L91.7 539.65L91.35 539.55L91.1 539.1L91.35 538.95L95.55 539.65L96.95 540.05L97.2 540.15L97.55 540.45L97.35 540.7L97.65 540.95L97.45 541.2L96.95 541.25L96.05 541.3M92.85,550.6L92.3 550.65L90.2 549.4L88.55 548.15L87.25 546.85L86.25 545.5Q87.3 545.5 88.2 546.1Q89.4 546.9 90.2 547.1Q91.4 547.7 92.4 548.5L93.85 549.65L94.1 549.85L93.95 550.1L93.6 550.05L92.85 550.6M87.45,556.15L86.75 555.65L87.1 556.2L86.95 556.45L86.6 556.4Q85.5 555.4 84.55 553.95L83.1 551.55L83.1 550.9L83.7 550.9L86 553.4L88.1 555.9L88 556.1L88 556.15L87.95 556.15L87.45 556.15M45.8,412.35Q46.3 411.6 47.55 410.9Q49 410.1 50.9 409.6L51.4 409.35L53.25 408.95L53.35 409.2Q53.35 409.65 52.15 410.3L50.3 411.25Q48.2 412.7 47.3 412.95L46.25 413.7Q45.85 413.7 45.6 413.35L45.2 413.3L45.1 413.1L45.2 412.85L45.8 412.35M44.9,410.05L45.65 409.7L45.65 409.5Q46.55 408.55 48.45 407.9L50.05 407.15Q50.9 406.75 52.35 406.7L52.6 406.95L49.6 408.95L46.6 410.55L46.55 410.55Q45.65 411.35 45.2 411.35Q44.75 411.35 44.85 410.95L44.65 410.9L44.6 410.9L44.55 410.65L44.55 410.6Q44.55 410.3 44.9 410.05M43.5,406.1Q43.5 405.3 44.55 404.75L45.25 404.45L45.35 404.35Q45.9 403.9 46.6 403.75L47.85 403.25L49.25 402.85L49.35 403.15Q49.35 403.75 46.4 405.5L45.75 406.1L44.35 407.2L43.85 407.15L43.6 406.95L43.45 406.9L43.35 406.65L43.45 406.4L43.5 406.1M42.6,403.05L42.45 403L42.35 402.55L42.4 402.35L42.3 402.15L42.35 402.05L42.65 401.7L42.45 401.65L42.4 401.5L43.25 400.8L44.35 400.3L46.35 399.6Q47.9 398.8 50.5 398.45L50.75 398.7L47.7 400.5Q47.1 400.75 45.75 401.55L43.85 402.6L43.55 402.6L42.7 403.05L42.6 403.05M78.5,369.2L78.25 368.8Q77.7 367.9 77.7 366.95Q77.7 363.25 80.15 363.55Q80.75 363.6 81.2 363.9L81.4 363.9Q83.35 364.9 83.35 367.7L83.25 368.9L82.1 370.35L81.6 370.45L81.15 370.45L80.7 370.6L79.85 370.6Q78.95 370.05 78.5 369.2M89.2,367.8Q88.2 367 88.2 365.65Q88.2 363.1 90.15 363.45Q92.1 363.75 92.1 365.95Q92.1 367.95 90.3 367.95L89.2 367.8M121.95,415.65Q121.55 415.65 121.05 415.15L120.6 414.65L122 415.65L121.95 415.65M113,415.6L113.15 415.4L113.25 415.35Q114.35 415.45 116.65 416.05L118.75 416.7L119.05 416.9L119.75 417Q120.45 417.2 120.7 417.5L120.75 417.7L120.65 417.9L120.5 418L120.4 418L120.7 418.3L120.75 418.45L120.65 418.6L121.05 419.1L120.8 419.5L120.45 419.65Q117.5 418 116.6 417.65L116.6 417.55L115.05 416.95Q113 416.05 113 415.6M47.5,413.85L47.55 413.75L50.65 412Q52.45 411 53.9 410.75L54 411.05Q54 411.5 50.9 413.4L48.05 415L47.9 415.15L46.75 415.9L46.45 415.9Q46.3 415.75 46.3 415.4L46.5 415.15L46.2 415.05L46.1 414.85Q46.1 414.55 46.9 414.15L47.5 413.85M52.45,418.2L53.9 417.45L55.6 416.85L55.85 417.15Q55.85 417.75 51.65 420.95L50.1 422.9Q49.6 422.45 48.7 422.35L48.55 421.95L48.8 421.4L48.45 421.05Q48.45 420.2 50.6 419.3L51.8 418.7L52.45 418.2M73.25,425.35L70.4 426.45L67.85 427.05Q66.75 427.05 66.25 426.6L66.2 426.55Q64.4 425.9 63.35 424.8Q62.2 423.6 62.2 422.3Q62.2 422.1 62.35 422L64.25 423.4L65.8 424.05L67.8 424.85L70.2 425.45L72.1 425.45L73.25 425.35M69.05,426.45L69.25 426.35L69.05 426.4L69.05 426.45M98.6,525.9L98.45 526.2L94.45 526.05L94.35 525.9L93.6 525.55Q93.75 525.1 94.35 525.1L98.5 525.1L98.75 525.35L98.5 525.65L98.6 525.9" />
<path style="fill:#39481C;fill-opacity:1" d="M108.45,448.25Q108.75 447.35 110.5 445.25L111.1 445.6Q109.2 447.6 109.2 450.2L109.5 454.75L109.45 456.9Q109.25 458.2 108.5 459.15L108 459.5L106.15 459.4Q105.5 458.8 105.5 456.4Q105.5 455.2 106.25 454.75Q107.1 455.3 106.9 455.7L106.5 456.55L106.85 458.4Q108.3 457.7 108.5 456.55L108.5 454.6L108.4 452.55L108.25 450.8Q108.25 448.8 108.45 448.25M102.4,457.25L102.05 459.3L101.5 461L100.4 460.9Q99.95 459.75 99.25 457L99.15 458.9Q98.9 460.15 98.25 461.15L97 461.25Q95.45 461.25 94.65 459.2L94 456.4L93.7 454.1L93.5 451.75L93.4 451.75L93.35 455Q93.35 456.3 93.85 457.25L93.85 457.35L93.35 457.4Q92.75 456.2 92.55 454.5L92.5 451.4Q92.5 448.6 93.35 448.9Q94.2 449.2 94.75 453Q94.95 456.35 95.25 457.55Q95.95 460.1 97.75 460.1Q98.25 457.15 98.25 451.5L98.25 451.4Q98.35 451.25 98.75 451.25Q99.3 451.25 100 454.25L100.9 459L101.5 457L102.1 456.85L102.25 456.8L102.4 457.25M106.9,469.75L107.65 474.25Q108.1 473.4 108.1 471.9L108 469.15L108.1 469.1L108.6 469L109.15 469.1L109.7 472.2L110 474.8L110 475.1L109.75 475.4L108.9 474.35L108.75 474.35Q108.75 475.1 108.25 475.65L107.15 475.65Q106.6 474.9 106.4 472.5Q106.25 470.3 105.25 469.5L105.1 473.75L104.9 478.1L104.75 478.4L104 478.35L104 470.65Q103.55 468.75 104.95 468.4Q106.3 468.1 106.9 469.75M83.25,455Q83.75 456.65 83.75 459.15Q83.75 460.45 83.2 462.45Q82.55 464.75 81.75 465L80.5 465L79.65 464.65Q78.3 462.45 77.6 459.15Q77 456.3 77 453.5Q77 451.2 77.5 450.85Q78.15 451.5 78.05 451.75L77.85 452.05Q77.85 454.85 78.55 458.6Q79.4 463.2 80.6 463.9L81.65 463.85Q82.45 461.85 82.65 459.65L82.75 455.25L83.25 455M85.75,453.35L85.35 453.35L85.15 453.25L85.1 452.8L85.45 452.3L86 451.75L86.85 451.85Q88.4 453.7 88.95 455.4Q89.4 456.8 89.4 458.9L89.35 461L88.25 463.5L87.4 463.4Q86.5 462.6 86.3 461.7L86.25 460.15L86.3 458.65Q86.45 457.85 87.25 457.25Q87.55 457.95 87.3 459.75Q87.05 461.4 87.75 462.25Q88.35 461.55 88.45 460.6L88.5 458.8Q88.5 455.65 86.6 452.75L85.9 452.75L85.75 453.35M82.1,470L82.35 473.45Q82.35 475.75 83.35 476.75Q84.55 476 84.95 474.9L85.5 472.9L85.75 472.85Q86.1 473.2 86.1 473.8L85.4 475.95Q84.6 477.55 83.9 477.65L83 477.6Q81.5 475.25 81.5 474.8L81.65 470L82.1 470M98.45,463.4L98.5 463.8Q98.5 466 97.65 471L97.25 471Q97.1 470.65 97.1 469.9L97.5 466.6Q97.9 463.8 98.25 463.35L98.45 463.4M93.9,468.25Q94 469.25 94.6 471.05L95.35 473.75L95.35 473.85Q93.8 472.35 93.15 469.7L92.5 465.35L92.4 465.25L90.4 481.75L90.25 481.9L89.4 481.85Q89.25 481.65 89.25 480.9Q89.25 480 90 476.25L90.15 473.9L90.25 471.5Q91.15 465.1 92.5 462.5Q93.3 463.4 93.6 465.25L93.9 468.25M98.8,464.8Q99 463.5 99.6 463.15L99.8 470.3Q100.25 474.6 102.4 477.25L103.6 477.5L103.85 477.75L103.35 478.1L102.5 478.25Q100.45 477.75 99.45 473.25Q98.75 470.25 98.75 467.2L98.8 464.8M72.65,450.5L72.4 451.85L72 452.85Q72.25 453.25 73.35 453.35L73.7 453.6L73.9 454.2L73.75 455.85L73.75 457.85L73.65 458Q72.8 457.4 72.75 456.25L72.75 454.25L71.75 454.1L71.05 453.55L71 453L71.75 450.4L71.5 449.75L71.15 449.25L70.25 448.6L69.35 447.75Q70.35 447.1 71.55 448.2Q72.65 449.25 72.65 450.5M72.75,466.25Q73.85 468.05 73.75 471.35Q73.7 475.5 74 476.75L74.15 476.75L74.75 471.65L74.8 471.6L75.25 471.5Q76.15 471.5 76.7 473.8L77.5 477.5Q78 477 78 475.9L78 473.75L78 473.65Q78.1 473.5 78.5 473.5Q79 473.5 79.65 476.55L80.75 481.25L80.6 481.5Q79.6 480.9 79.2 479.7L78.65 477.75L78.55 478.45Q78.45 478.9 78 479.15L77.15 479.15Q76.65 478.4 76.2 476.85L75.5 474.5L75.1 476.45Q74.95 477.7 74.5 478.25L73.15 478.15Q72.85 476.1 72.7 472.7L72.35 467.25Q71.1 468.6 70.3 470.8Q69.55 472.75 69.35 474.75L69 474.75Q68.85 474 68.85 472.9Q68.85 471.8 70 469.2Q71.2 466.55 72 466.25L72.75 466.25" />
<path style="fill:#000000;fill-opacity:0.2" d="M46.2,326.15L46.15 326.15L46.1 326.3L45.65 328.5L45 333.05Q45 335.9 45.8 340.95Q46.55 345.5 47.25 348.05L49.55 355.5Q50.2 357.95 50.85 359.25L52.1 361.25Q52.65 362.7 52.5 364.1Q52.4 364.65 52.75 365.3L53.6 366.5L54 367.65L54 368.95L53.65 371.35L53.3 374.15L53.3 375.05L53.45 375.5L53.6 375.95L53.3 377.45L53.4 378L53.15 378Q53.3 379.05 52.85 380.2L51.75 382.2Q50.25 384.55 50.4 386.4Q49.7 388.75 49.35 390.6L49.15 392.7L48.9 394.9L49.3 397.7Q49.75 400.6 50.1 401.4Q50.8 403.15 51 404.7Q51.2 405.8 52.2 408.05Q53.35 410.9 56.55 414.6L59.85 417.8Q60.5 418.35 62.1 419.15L62.55 419.4L65.6 421.8Q67.1 422.7 69.35 423.6L71.1 424.7Q72.9 425.6 74.35 425.6L77.3 425.9L79.5 426.15L81.85 425.8L85.55 425.4L88.2 425.7L90.35 426Q93.5 426 97.65 423.8L99.1 423.45L102.8 422.85L106.5 422.45L108.2 422Q110.8 421.2 113.7 419.6Q116.8 417.85 118.2 416.25Q119.5 414.75 121.9 412.65L123.3 411.45L123.2 412.05L122.9 413.4L122.95 413.45L122.95 413.75L122.8 413.8L122.7 414.3L122.7 414.6L122.6 414.65L122.35 415.5L122.35 415.55L122.3 415.65Q120.95 420.3 119.15 423.15L118.75 423.75L120.35 427.85L119.3 429.35L118.25 431.4Q117.3 433.25 117.3 433.55L117.3 433.95L117.55 433.95L117.45 434.25L117.55 434.55L117.75 434.6Q119.4 432.8 120.8 431.85L122.85 430.45Q124.65 429.3 125.2 429.3L125.4 429.45L125.4 430.5Q124.65 433.6 124.95 435.45Q125.2 436.8 124.75 438.2Q124.25 439.85 124.25 440.55Q124.25 442.2 124.95 445.25Q125.2 446.25 126.35 448Q127.2 449.2 127.9 449.7L127.7 450.9Q126.65 451.15 125.65 452.15Q124.2 453.7 124.2 455.75Q124.2 457 125.4 459.3L123.95 460.7Q122.45 461.95 122.45 463.15Q122.45 467.3 128.55 468.3L128.45 468.35Q125.7 471.1 125.7 473.9L126.15 476.3Q126.9 478.65 128.8 478.65Q132.2 478.65 133.45 477.25Q134.7 475.75 134.7 471.75L134.55 468.5Q134.6 467.5 136.05 466.95L139.05 466.2Q148.5 463.95 151.8 462.6Q155.75 461 158.4 458.45Q162 454.95 162 450.4L161.95 448.9L161.7 448.15Q167.1 458 156.45 465.3Q154.15 466.85 144.45 468.8L138.85 469.85L139.95 472.1Q138.3 470.45 136.65 471.2Q135.2 471.9 135.2 473.65L135.3 476.4Q134.75 479.55 134.75 481.8L134.1 487.05Q133.15 492.3 132.4 493.8Q130.65 497.25 126.4 497.25L124.25 496.95L123.8 496.55L122.9 495.75L121.2 494.25L119.75 492.9L118.2 489.75Q117.35 487.75 116.4 486.6L115.95 486.6Q112.3 490.05 111.6 490.95L109.5 493.45Q108.05 494.85 106.55 495.45L105.6 495.45L103.2 494.45Q102.75 494.4 102.2 493.85L101.4 493.05L99.4 491.35Q97.55 489.9 96.65 489.9Q95.6 489.9 93.6 491.55L91.05 493.8L88.75 496L86 498.05Q84.85 497.9 84 497.3L82.65 496.2Q80.8 494.95 79.7 494.1L76.95 491.65Q74.9 489.9 74.1 489.9Q73.3 489.9 72.25 491.15L70.5 493.35L68.5 495.1Q66.2 496.8 64.8 496.8Q64 496.8 61.3 494.35L58.5 491.7Q57 490.65 55.35 488.8L52.8 486.05L52.35 486.05L51.65 486.35Q51.35 486.5 51.2 486.9L51.05 488.15L53.75 494.55Q54.5 496.1 56.2 497.9L59.7 501.2Q63.25 504.55 72.9 507.05Q80.4 509 89.7 510L93.6 510L93.85 510L97.05 510.35Q98.95 510.35 109.85 507.65Q120.4 505.05 123 504.05Q125.65 503.05 131.4 499.85L139.65 494.3L140.15 494.45L140.85 494.55L141.55 494.05L142 493.55Q141.35 496.45 140.25 499.15L139.65 500.55Q136.1 508.05 128.8 513.35Q125.7 515.65 123 516.9Q122.05 516.75 120.45 517.35Q118.35 518.15 117.75 519.6Q117.35 520.7 117 522.75Q116.6 525.05 116.6 528.95L116.65 530.65L116.6 533.1L116.45 537.3L116.5 542.3L117.3 548.55Q117.85 552.15 118.5 554Q120.45 559.1 126.35 559.1L129 558.9Q130.85 558.45 131.7 557L133.15 557.7L136.3 557.75L136.5 557.55L136.95 557.75L140 557.6L141.5 556.9Q142.25 559.65 142.6 562.2L138.15 563.15L137.95 563.2L137.6 563.3L123.65 564.05Q114.45 563.85 113.35 559.95Q112.25 556.1 112.7 537.05L113.35 519Q106.3 520.55 99.35 520.8L99.15 523.3L95 524.25Q94.2 524.45 94.1 525.25L93.9 526.8L93.05 529.35L92.1 531.95L89.9 537.15Q88.45 540.25 86.9 542.3L85.05 544.85L82.5 547.4L80.65 548.6Q79.65 549.25 79.55 549.8L79.65 552.45Q79.45 557.1 78.7 561.6L75.55 562.8Q72.95 563.95 68.05 564.05L54.1 563.3L53.75 563.2L53.55 563.15L49.1 562.2Q49.5 559.2 50.5 555.95Q51.4 557.25 52.65 557.25Q53.7 557.25 54.6 556.65L55.2 557.3Q55.8 557.75 56.8 557.75L58.25 557.45Q59.1 557 59.55 556.85Q60.4 557.7 61 557.95Q62.3 558.6 64.95 558.75L65 558.75L65.7 558.6Q67.2 559.45 69.6 557.05Q71.7 554.9 72.75 552.3Q73.3 551 73.65 548.7L74.25 545.25L74.85 531.15L74.6 524.7L74.15 521.4Q74.05 519.35 72.35 518.25L71.9 518.25L70.55 519.05Q64.25 518.1 57.5 515.55Q51.45 513.25 45.55 504.1L43.45 500.55Q39.85 493.95 39.75 488.85Q39.65 483.3 42.35 476.5L45.6 470.05L39 468.85Q29.3 466.9 27 465.35Q15.35 457.35 22.95 446.25Q27.45 439.7 40.9 434.4Q47.65 431.75 53.45 430.4L52.6 429.5Q49.3 426.1 45.35 413.35L45.6 413.35L45.2 413.3L45.1 413.1L45.2 412.85L44.65 410.9L44.6 410.9L44.55 410.65L44.55 410.6L43.6 406.95L43.45 406.9L43.35 406.65L43.45 406.4L42.6 403.05L42.45 403L42.35 402.55L42.4 402.35L42.3 402.15L42.35 402.05L40.9 396.55L30.05 394.3L40.7 385.5L30.65 384.9L41.95 377.5L35.15 373.4L46.85 368.9L43.15 363.15L48.85 364.6Q46.25 355.6 44.55 346.15Q41.15 327.25 45.8 325.05Q46.4 324.75 47.15 324.75Q46.6 325.15 46.25 325.95L46.2 326.15M49.5,331.05L50.55 330.6L53.85 332.25Q56.2 333.8 61.1 338.4L67.35 344.55L70.35 347.9L70.8 348.3L70.95 348.9L71.3 350.55L71 351.2L70.5 351.8Q70 352.1 69.45 352.35L68.05 352.45Q67.45 352.05 66.75 352.8Q66.55 353 66.45 354.4Q66.4 355.5 65.8 355.5L63.45 353.6L62.7 353.7L62.7 354.3L63 355.75L63.3 357.35L63.25 357.9L62.7 358.4L62.25 358.5L60.65 357.15L59.35 356.05L59.45 355.65L59.4 355.35Q58.7 355.15 58.5 355.35Q58.35 355.5 58.35 355.85Q58.35 356.25 58.65 356.3L58.75 356.3Q58.5 356.6 58.45 357.4L58.4 359.1Q58.9 360.2 57.45 360.75L54.75 361.8L54.75 361.4Q54.75 359.8 54.25 358.5L53.25 355.7L53.85 355.95L54.45 355.5Q54.75 356.45 55.2 356.45Q55.95 356.45 56.8 354L57.65 350.85L57.9 351.05L58.35 351.2Q59.85 351.2 59.7 348.6L60 348.9L60.6 349.2L61.1 349.05L61.2 348.3Q61.2 346.6 59.25 343.8Q57.9 341.9 55.05 338.75L52.7 336.3Q50.95 334.8 49.1 334.95Q48.4 335 48.25 337.7L48.2 335.5Q48.2 334.05 48.5 332.55L48.75 331.75L49.5 331.05M74.55,358.85Q74 359.5 73.2 361.05Q72.9 361.7 72.15 365.4L72.35 366.85L72.65 368.55Q73.45 370.35 74.25 370.95Q75.05 371.55 76.85 371.55Q81.9 371.55 84.15 367.5Q85.5 365.05 85.5 362.4L85.4 361.15L85.8 361.2L87.1 359.95L87.7 359.5Q86.6 360.55 86.6 362.85Q86.6 363.6 87.3 364.35Q88.5 365.75 91.25 365.75Q94.4 365.75 94.4 363.05Q94.4 360.15 92.9 359.1Q94.4 359.7 95.3 361.25Q96.3 362.9 96.3 364.6L95.75 367.25L97.55 368.65L94.1 368.5L91.4 368.75L88.7 369.3L86.7 369.95Q83.6 370.95 80.9 373.75Q78.3 376.45 78.3 378.3Q78.3 379.85 80.1 381.05Q82.95 382.95 89.55 382.95Q93.45 382.95 96.9 381.15L99.75 379.2L101.4 376.85Q102.3 375.2 102.3 373.85Q102.3 372.4 101.85 371.3Q105.6 374.25 105.6 377.45Q105.6 378.95 105.25 380.25L104.6 383.45Q104.45 384.8 103.55 386.55L101.85 389.55Q100.2 392.45 95.7 395.55Q94.95 396.1 91.25 397.5Q86.9 399.15 84.95 399.15Q82.15 399.15 80.85 398.55L79.4 397.55L76.5 395.1Q75.85 394.5 75.1 392.7Q74.4 390.9 74.4 389.85L74.7 386.1Q74.7 381.4 71.8 376.7Q68.05 370.7 61.4 369.2L61.5 369.15Q64.65 367.3 67.4 364.9L71.75 360.6L75 358.35L74.55 358.85M55.1,379.1Q55.75 378 56.4 377.55L57.45 384.05Q57.75 385.4 58.65 387.3L60.35 390.6Q64.7 398.85 78.9 400.95L83.7 400.95L84 401.1L88.25 401.1L90.3 400.95L95.5 399.85L99.45 398.75Q102.85 398.15 107.6 396.45Q116.55 393.15 119.3 389.85L119.05 391.2L118.8 392L118.35 393.95L117.6 396L116.6 398.1L115.15 402.35Q113.8 405.6 111.45 405.95Q109.65 406.25 107.95 407Q106.05 407.8 105 408.05L95.3 410.3L91.35 411.5L88.35 412.4L82.25 413.55L75.65 414.15L69.25 414.6Q65.45 414.6 64.25 413.9Q63.5 413.1 62.55 412.8Q61.8 412.6 61 411.85L59.85 410.55L58.6 409.25Q61.25 411.75 66 412.5L68.85 412.5L71.35 412.25L72.45 411.95L77.15 411.9L81.55 411.45L87.15 410.55L92.75 409.8L96.6 409.05L102.45 407.35L106.8 406.05Q113 404.5 114.75 401.85Q117.15 397.2 117.15 396.4L117.05 396L116.7 395.9Q116.6 395.9 114.65 396.8Q112.55 397.7 111.45 398.3L110.5 398.65L109.5 398.9L106.8 399.65Q105.25 400.7 103.8 401Q102.5 401.25 99.7 402.2L96.3 403.05Q90.4 403.55 88.9 404.15Q88.15 404.45 87.5 405.8L87.15 405.9Q86.15 405.8 85.55 404.9Q85 404.1 82.7 404.1L75.15 403.4L71.45 402.65Q70.25 402.65 69.8 403.25Q69.35 403.95 69.6 405.6Q67.7 405.65 67.3 404.75L67.1 403.25L66.5 401.8Q66.05 401 65.25 400.35L62.95 399.1Q61.55 398.5 61.1 398.1L58.4 395.1L56.4 392.3Q55.2 390.5 53.85 389.4Q52.9 388.9 52.8 389.95L52.8 391.65L52.55 393.3L52.5 392.3Q52.5 389.55 52.95 386.6Q53.05 385.8 53.7 383.35L54.3 380.85L54.55 380L55.1 379.1M127.2,326.9Q125.9 327 123.75 328.2Q120.25 330.3 119.55 330.95L113.6 337.05Q111.95 338.7 109.25 342.45Q106.95 345.6 106.1 347.55L105.95 347.75L105.15 348.95Q104.65 349.55 103.25 349.65Q102.45 349.25 101.95 348.5Q106.75 341.95 112.2 335.9Q119.5 327.85 123.9 325.75L123.9 325.85L124.35 325.95L125.6 325.5Q126.4 325.5 127.1 326.7L127.2 326.9M126.3,331.4L126.65 332.45L126.95 333.2L124.8 343.5L122.45 351Q121.85 353.6 121.25 354.75L120.55 356.45L118.85 357.6L117.95 357.6Q117.35 356.95 116.9 355.35Q116.45 353.9 115.55 353.1L115.05 353.1Q114.5 353.2 113.8 353.95L112.5 355.05L112.65 353.2Q112.6 351.65 111.9 351.65L110.75 351.85L110.25 352.2L109.8 352.2Q108.7 351.6 107.8 350.65L107.55 350.4L109.15 348.8L109.2 348.9Q109.45 349.5 109.9 349.5Q110.6 349.5 113.55 347.85L114.1 348L114.45 348.05L114.9 347.85L115.5 347.7L115.55 349.2L115.95 349.25Q117.2 348.05 118.25 345.85L119.75 342.3L121.7 338.75Q122.85 336.55 122.85 335Q122.85 334.2 122.3 333.9Q121 334.1 120.05 334.55Q121.85 332.9 124.85 331.4L126.3 331.4M132,430.85L132.85 431.1L132.8 432.25Q132.8 434.7 135.4 435.8L142.95 439.2Q145.6 440.7 147.35 443.05Q149.1 445.4 149.1 447.4Q149.1 449.65 147.85 451.5Q146.75 453.05 145.1 453.55Q146.5 452.25 146.6 450.75Q146.7 448.7 144.4 445.85Q142.3 443.25 135.05 441.1L130.8 440L131.4 435.9L131.75 432.75L132 431.25L132 430.85M88.35,434.45Q85.9 433.05 84.05 434.1L81.45 436.1L78.95 438.3L76.6 440.5L73.55 442.35Q73.2 441.05 71.7 440.7Q68.15 439.35 67.55 439.35L67.3 439.4L66.1 438.55Q65.55 438.2 61.4 435.9L59.2 434.65L56.55 433.95L54.6 435Q53.8 435.3 53.65 435.6L53.55 436.35L53.75 437.4L54.5 438.65L55.3 438.1Q55.85 437.75 56.9 437.7Q61.35 438.65 63.7 439.55L67.45 441.15L67.8 441.85L69.2 444.8Q70.2 447.75 70.25 450.05Q70.35 451.8 70.95 455.25L71.1 456.6L71.1 456.9L71.1 459.45L70.95 463.35L70.4 469.95L69.75 476.45L69.35 479.55L68.9 483.1L69.05 484.5L69.5 484.55L71.15 483.5Q72.8 482.4 74.3 482.4Q76.5 482.4 78.1 483.75L79.55 485.1L79.95 485L79.95 484.2Q78.7 480.1 78.15 473.9L77.25 463.55L75.6 453.3L74.7 448.2L74.25 445.5L73.85 444.4L73.75 443.3Q75.25 443 76.6 442.05Q78.15 440.8 78.9 440.4Q79.95 439.5 81 438.85Q83.05 437.6 85.6 437.6L87.75 437.75L89.1 439.55L90.5 440.75L91.65 441.8Q92.25 442.8 92.6 445.3L92.55 446.3L92.3 452.1Q92.25 456.6 91.5 463.55Q90.75 471.6 90.2 475.05L89.4 480.45Q88.65 485.5 88.65 486.6Q88.65 486.95 89 487.2L88.7 487.35L88.65 487.65L88.7 488.1L88.75 488.2L89.1 488.25L92.05 485.35Q95.45 482.45 97.85 482.45Q99.8 482.45 100.85 484.1L101.95 485.7Q102.45 485.7 102.45 485.1Q100.5 476.25 100.25 474L99.3 462.9L98.7 457.35Q98.8 453.65 98.55 451.8L98.25 449.05L97.95 446.3L97.6 443.5Q97.15 441.85 95.25 440.75L94.5 440.75L94.5 440.8L92.7 439.35L91.8 438.25L91.05 437.1Q90.35 435.6 88.35 434.45M114.8,436.35L114.05 436.25Q114.2 435.75 113.95 435.25L113.4 434.45Q112 434.6 111.65 438.35Q111.5 439.6 111.5 443.6L111.65 449.7L111.9 455.85L111.65 474.45L111.8 478.95Q111.95 481.8 112.75 481.8L113.75 481.2Q114.6 480.55 115.05 480.45L116.2 481.4Q116.8 482 117.45 482L117.85 481.75L117.9 481.2L117.5 479.95L117 478.65Q116.8 478.25 116.55 475.95L115.55 470.45Q114.05 463.7 114.05 459.55L114.35 448.35L114.45 442.65Q114.45 441.05 114.7 439.6L114.9 436.9L114.8 436.35M133.8,479.85L133.5 479.55L131.55 479.8L128.85 480.45L128.85 481.2Q128.85 481.9 129.2 483.45L128.8 484.75L128.25 486.3L125.1 486.65L123.15 486.35L122.85 486.45Q122.75 487.45 125.4 489.8Q128.2 492.35 130.15 492.35Q131.65 492.35 132.15 490.95L132.35 489.45L132.6 487.75L132.95 486.2Q133.35 485.35 133.35 483.05L133.6 481.4L133.8 479.85M54.9,403.95L58.1 408.7L55.65 405.6L54.4 403.25L54.9 403.95M49.05,437.25Q48.5 436.75 47.75 436.65L44.45 436.35Q44.2 436.7 43.35 436.95Q39.6 437.95 37.4 438.95Q35.25 439.95 32.75 441.75Q29.05 444.45 27.1 447.75Q25.25 450.85 25.25 453.9Q25.25 456.05 25.9 457.15L29.1 460.85Q30.45 462.3 34.65 463.3L44.1 465.15L48 466.05L49.15 466.85L50.15 467.55L50.25 468.3L50.9 468.8L51.3 469.2Q51.7 469.7 51.8 471Q51.95 472.5 54 474.85Q56.4 477.6 58.7 477.6L60.2 477.05L61.5 475.8L61.8 474.4L61.95 473.2L61.35 471.8L60.75 470.7L60.85 470.5L60.9 470.55Q63.65 470.7 65.25 468Q66.5 465.9 66.5 463.75Q66.5 462.45 66.05 462L63.75 460.2L63.8 460L62.65 459.25L61.05 458.4L59.15 457.85L55.4 457.95L55.1 457.8L54.9 457.55L53.25 457.85L51.75 458.15L51.6 458.1L51.6 457.8Q51.6 457.25 53.15 457L56.75 456.45L57.45 456.45L57.6 456.6L60.1 456.85L61.65 457.05L63.15 456.7Q64.3 456.2 64.25 455.4L64.7 455.4L64.85 456.1Q64.8 454.9 63.75 453.4Q62.15 451.05 59.3 451.05L58.75 451.1L56.75 450.9L54.15 451.1L53.35 451.45L55.65 442.1L54.35 439.75L51.4 440.4L49.8 438.15L49.05 437.25M78.65,439.5L78.8 439.5L78.35 439.8L78.65 439.5M61.65,468.95L59.7 468.9Q57.1 468.8 54.25 467.8Q51.3 466.8 51.3 465.95L51.35 465.5L53.25 465.95L55.65 466.25L57.15 466.5L61.95 466.5L64.25 465.6Q65.3 465.1 65.7 465.2L65.45 466.65L65.15 467.15L64.55 467.55L64.2 468L63.9 468.6L61.65 468.95M79.15,543.8Q88.55 536.25 92.35 520.8Q85.6 520.5 78.35 518.8L79 537.05L79.15 543.8" />
<path style="fill:#FFFFFF;fill-opacity:0.4" d="M88.55,369.3Q90.9 368.65 94.7 368.55Q98.35 368.5 100.3 369.55Q101.65 370.3 101.65 371.15Q101.65 372.25 101 373.15L98.85 375.3L96.45 376.95Q95.45 377.75 94.9 377.8Q94.7 377.8 94.45 377.95L93.8 378.15L92.65 378.3L91.35 378.5Q82.15 378 82.15 374.95Q82.15 373.45 83.75 371.95L86.05 370.3Q87.9 369.1 88.4 369.1L88.6 369.1L88.55 369.3" />
<path style="fill:none;stroke-width:3;stroke-linecap:round;stroke-linejoin:miter;stroke-miterlimit:3;stroke:#39481C;stroke-opacity:1" d="M58.15,479Q57.1 485.45 60.9 491.15M58,446.35L60.2 450.35" />
<path style="fill:none;stroke-width:3;stroke-linecap:butt;stroke-linejoin:miter;stroke-miterlimit:3;stroke:#39481C;stroke-opacity:1" d="M133.8,483.8L133.85 477.25M128.8,444.45L127.7 451.05M60.9,491.15Q62.45 493.45 64.85 495.65" />
<path style="fill:none;stroke-width:3;stroke-linecap:round;stroke-linejoin:miter;stroke-miterlimit:3;stroke:#AE4200;stroke-opacity:1" d="M118.75,423.75L121.1 428.85" />
<path style="fill:none;stroke-width:2;stroke-linecap:round;stroke-linejoin:miter;stroke-miterlimit:3;stroke:#AE4200;stroke-opacity:1" d="M61.25,341.1Q66.45 346.15 71.2 351.5L66.7 351.9L66.1 354.95L62.8 352.5L63.2 357.45L58.5 354.75L58.7 360.3L54.55 361.75Q52.2 355 50.3 347.95Q46.5 333.9 48.7 332.45Q50.9 331 61.25 341.1M122.45,345.2L118.5 357.65L116.45 352.7L113 355.15L112.8 351.1L109.5 351.9L107.45 350.05L115.2 340.05Q123.25 330.25 124.7 331.35Q126.15 332.5 122.45 345.2" />
<path style="fill:none;stroke-width:3;stroke-linecap:round;stroke-linejoin:miter;stroke-miterlimit:3;stroke:#39481C;stroke-opacity:1" d="M64.85,495.65Q66.4 492.7 68.45 489.8Q72.5 484 74.9 484.15Q76.85 484.3 79.9 488.6Q83.1 493.15 85.15 493.8Q87.2 494.45 90.05 489.6Q93.15 484.35 96.2 484.15Q99.6 483.9 101.85 488.15Q104.3 492.65 105.2 492.8Q106.95 493.1 111.5 487.35L115.65 481.5L122.6 488.6Q129.85 495.25 131.6 493Q133.35 490.75 133.8 483.8" />
<path style="fill:none;stroke-width:3;stroke-linecap:round;stroke-linejoin:miter;stroke-miterlimit:3;stroke:#AE4200;stroke-opacity:1" d="M129.75,438.9L131.25 439.2L134.65 440.1L135.05 440.2Q142.3 442.35 144.4 444.95Q146.7 447.8 146.6 449.85Q146.5 451.5 144.8 452.9Q143.55 453.95 138.9 453.85L134.55 453.55M119.55,460.65Q118.8 458.2 118.85 455.7Q119.05 450.7 123.25 450.3Q125.1 450.15 127.7 451.05L130.6 452.25L134.55 454.45M119.55,460.65Q122.05 459.6 127.1 459.1L132.5 458.75M121.95,469.85Q124.25 469.8 128.4 468.5L132.9 466.9M63.9,460.7L64.05 461.45M45.6,470.05L45.85 469.45M63.9,460.7Q61.4 459.65 56.35 459.15L50.95 458.8M59.1,563.45L58.8 559.7Q58.7 555.65 59.8 554.4Q60.9 553.15 63.75 553.85Q65.15 554.2 66.35 554.8M138.15,563.15L137.75 558.75Q137.15 554.25 136 552.95Q134.85 551.65 133.5 551.2L132.4 550.95" />
<path style="fill:none;stroke-width:2;stroke-linecap:round;stroke-linejoin:miter;stroke-miterlimit:3;stroke:#AE4200;stroke-opacity:1" d="M95.2,368.25L95.25 368.25" />
<path style="fill:none;stroke-width:3;stroke-linecap:round;stroke-linejoin:miter;stroke-miterlimit:3;stroke:#39481C;stroke-opacity:1" d="M129.75,438.9L128.8 444.45M55.65,442.1L58 446.35" />
<path style="fill:none;stroke-width:3;stroke-linecap:round;stroke-linejoin:miter;stroke-miterlimit:3;stroke:#AE4200;stroke-opacity:1" d="M131.15,430.65Q136.45 431.95 142.55 434.35Q154.85 439.2 159.7 445.1L160.5 446.2Q168.1 457.3 156.45 465.3Q155.4 466 152.85 466.8L144.45 468.8L138.85 469.85L141.7 476.15Q143.25 482.55 142.7 489Q142.2 494.45 140.25 499.15L139.65 500.55Q136.1 508.05 128.8 513.35Q124.8 516.3 121.45 517.5Q120.5 529.1 121.25 536.2Q122.1 543.85 124.4 550.95L126.9 549.3L128.15 548.65Q132.6 546.55 135.85 547.85Q139.1 549.15 141.15 555.8Q142.2 559.15 142.6 562.2L138.15 563.15L137.95 563.2L137.6 563.3L132.6 563.45L123.65 564.05L122.3 564Q114.35 563.55 113.35 559.95Q112.25 556.1 112.7 537.05L113.35 519Q106.3 520.55 99.35 520.8L98.45 532.3Q96.9 544.85 93.55 550.15Q90.2 555.45 82.55 559.65Q78.7 561.75 75.55 562.8Q72.95 563.95 68.05 564.05L59.1 563.45L54.1 563.3L53.75 563.2L53.55 563.15L49.1 562.2Q49.5 559.15 50.55 555.8Q52.6 549.15 55.85 547.85Q59.1 546.55 63.55 548.65Q65.75 549.65 67.3 550.95Q69.6 543.85 70.45 536.2Q71.35 527.95 70.6 519.05Q64.3 518.1 57.5 515.55Q51.45 513.25 45.55 504.1L43.45 500.55Q39.85 493.95 39.75 488.85Q39.65 483.3 42.35 476.5L45.6 470.05L39 468.85Q29.3 466.9 27 465.35Q15.35 457.35 22.95 446.25Q27.45 439.7 40.9 434.4Q47.65 431.75 53.45 430.4L52.6 429.5Q49 425.8 44.6 410.8L40.9 396.55L30.05 394.3L40.7 385.5L30.65 384.9L41.95 377.5L35.15 373.4L46.85 368.9L43.15 363.15L48.85 364.6Q46.25 355.6 44.55 346.15Q41.15 327.25 45.8 325.05Q50.45 322.85 63.85 335.9Q70.6 342.45 76.35 349.4L83.7 345.3L88.6 348.4L97.45 346.75L101.3 349.4Q106.35 342.4 112.2 335.9Q123.95 322.9 128.15 325.45Q132.35 328 128 344.7Q125.8 353.05 122.8 360.9L131.85 365.6L123.85 369.3L133.45 374.4L125.3 376.85L130 381.35L126.1 384.45L129.4 389.55L125.7 395.7L127.75 402.05L124.25 405.55L123.2 412.05Q121.6 419.3 119.15 423.15L118.75 423.75Q115.75 427.5 104.35 433.3L94.95 437.75L92.35 438.9M138.85,469.85L135.15 470.4L135.15 473.4Q134.95 476.5 133.95 477.15L133.85 477.25Q132.05 478.3 128.65 478.85Q124.35 479.5 122.9 477.8Q121.5 476.2 121.6 472.6L121.95 469.85L121.05 469.8Q118.1 469.45 117.05 466Q116 462.55 118.8 461L119.55 460.65M54.35,439.75L48.4 441.15Q41.15 443.3 39.05 445.9Q36.75 448.75 36.85 450.8Q36.95 452.45 38.65 453.85Q39.9 454.9 44.55 454.8L48.9 454.5L52.85 452.3L53.2 452.15L55.65 442.1M57.3,433.2L53.45 430.4M53.2,452.15Q57.5 450.1 60.2 450.35Q64.4 450.75 64.6 455.75Q64.65 458.25 63.9 460.7L64.65 461.05Q67.45 462.6 66.4 466.05Q65.35 469.5 62.4 469.85L61.5 469.9L61.85 472.65Q61.95 476.25 60.55 477.85Q59.8 478.75 58.15 479L53.15 478.55Q50.6 477.95 49.5 477.2Q48.5 476.55 48.3 473.45L48.3 470.45L45.6 470.05M79.15,543.8Q88.55 536.25 92.35 520.8Q85.6 520.5 78.35 518.8L79 537.05L79.15 543.8Q79.25 556.85 78.35 559.95Q77.85 561.8 75.55 562.8M99.35,520.8L92.35 520.8" />
<path style="fill:none;stroke-width:3;stroke-linecap:round;stroke-linejoin:miter;stroke-miterlimit:3;stroke:#39481C;stroke-opacity:1" d="M92.35,438.9L98.4 440L102.75 440.75L113.8 432.55L115.85 436.25L119 431.55L120.75 428.85L121.8 427.25L132.65 421.7L131.15 430.65L129.75 438.9M92.35,438.9L90.85 436.45L90.15 435.6Q87.4 432.55 85.35 433Q83.3 433.45 78.9 437.65L74.9 441.8Q71.15 440.35 66.6 438.2Q60.95 435.55 57.3 433.2L51.95 435.45L54.35 439.75L55.65 442.1" />
<path style="fill:none;stroke-width:2;stroke-linecap:round;stroke-linejoin:miter;stroke-miterlimit:3;stroke:#582903;stroke-opacity:1" d="M71.4,375.6L71.05 372.6L70.95 369.9L71 368.6L71 367.95Q71.3 363.05 73.05 360.4L73.25 360.15Q75.35 357.2 79.25 357.15Q83.15 357.1 84.8 359.8L85 360.15L85.8 362.2Q86.4 361.05 87.35 360.15Q87.65 359.85 88.1 359.55Q91 357.45 94 360L94.2 360.15Q97 362.65 96.4 365.65Q96.15 367 95.45 367.95L95.2 368.25M85.75,370.05L86.05 368.6L86.15 367.95Q86.5 364.9 85.8 362.2M119.55,390.6L117.55 396.8L117 398.4L114.8 403.3L114.65 403.55L113.8 404.7L112.4 405.55L105.25 407.85L100.5 409.15L97.35 409.9L95 410.5L87.35 412.2L78.2 413.9L74.7 414.4L71.55 414.75L67.35 415L64.85 414.95L63.65 414.2L60.85 412Q56.5 408.25 54.55 404.4L53.8 402.45Q52.3 397.8 52.5 391.95Q52.65 388.05 53.4 385.05Q53.8 383.55 55.15 380.6L56.4 377.95L56.25 379.65Q56.2 382.4 56.85 385.1Q58.45 391.5 63.65 395.55L66.9 397.65L67.35 397.9L67.5 397.95Q70.7 399.6 74.7 400.45L78.2 401Q82.2 401.45 86.9 401.2L94.85 400.3L95 400.3L100.5 399.25L108.05 397.1L112.4 395.25L114.05 394.4L114.65 394.1L118.1 391.8L119.55 390.6M108.05,397.1L106.75 402.05L107.85 401.7L112.4 400.15L114.05 399.55L114.65 399.35L117 398.4M105.25,407.85L106.75 402.05L100.5 403.9L95 405.25L87.1 406.75L87.35 412.2M86.9,401.2L87.1 406.75L87 406.75L78.2 407.1L74.7 406.9L69.3 406.45L71.55 414.75M54.55,404.4L66.8 406.15L67.35 406.25L69.3 406.45L66.9 397.65" />
<path style="fill:none;stroke-width:2;stroke-linecap:round;stroke-linejoin:miter;stroke-miterlimit:3;stroke:#993127;stroke-opacity:1" d="M95.25,368.25L97.9 368.6Q99.4 368.95 100.75 369.65Q103.05 370.85 104.25 372.6Q105.05 373.9 105.3 375.5L105.4 376.5L105.4 376.8L105.4 377.55Q105.05 381.95 100.15 385.6Q97.6 387.45 94.7 388.45Q90.55 389.85 85.65 389.5Q83.05 389.3 81.05 388.45Q78.55 387.4 76.95 385.35L75.35 381.65L77.75 377.55L78.3 376.8L78.55 376.5L79.15 375.6Q80.55 373.9 82.1 372.6Q83.85 371.05 85.75 370.05" />
<path style="fill:none;stroke-width:2;stroke-linecap:round;stroke-linejoin:miter;stroke-miterlimit:3;stroke:#582903;stroke-opacity:1" d="M60.1,369.6Q65.3 369.55 68.8 372.6Q70.25 373.85 71.4 375.6M116.9,386.5L118.75 388.05Q120.45 389.8 119.55 390.6M75.3,386.8Q74.4 381.3 72.55 377.55L72.1 376.8L71.95 376.5L71.4 375.6" />
<path style="fill:none;stroke-width:2;stroke-linecap:round;stroke-linejoin:miter;stroke-miterlimit:3;stroke:#993127;stroke-opacity:1" d="M85.75,370.05Q87.65 369 89.7 368.6L90.6 368.45L95.2 368.25" />
<path style="fill:none;stroke-width:3;stroke-linecap:round;stroke-linejoin:miter;stroke-miterlimit:3;stroke:#AE4200;stroke-opacity:1" d="M50.55,466.95L55.05 468.55Q59.2 469.85 61.5 469.9M59.3,550.95L58.2 551.2Q56.85 551.65 55.7 552.95Q54.55 554.25 53.95 558.75L53.55 563.15M125.35,554.8Q126.55 554.2 127.95 553.85Q130.8 553.15 131.9 554.4Q133 555.65 132.9 559.7L132.6 563.45" />
<path style="fill:#582903;fill-opacity:1" d="M78.3,350.65L76.55 351.55L75.75 352.1L73.55 353.35L73.3 353.3L73.25 352.9Q73.25 352.3 74.5 350.55Q75.3 348.95 77.05 347Q77.95 345.9 79.95 344.8Q80.7 344.3 82 343.8L84 343.25L84.15 343.3L84.2 343.45L83.95 343.9L83.7 344.3L83.7 344.4L86.25 343.85L86.35 344.05Q86.35 344.25 85.55 344.7L88 345.55L88.85 345.95L89.35 346.5L89.25 346.7Q85.95 347.35 83.75 348.25L79.85 349.9Q79.4 350.05 78.3 350.65M93.75,345.1L93.8 344.95L95.85 345.4L95.85 345.3L95.65 345L95.45 344.65L95.5 344.5L95.6 344.45L97.2 344.9L98.85 345.7Q100.4 346.6 101.15 347.45Q102.55 349 103.15 350.3Q104.15 351.7 104.15 352.15L104.15 352.5L103.95 352.5L102.2 351.5L101.55 351.1L100.15 350.35L98.9 349.75L95.8 348.45Q94.05 347.75 91.4 347.2L91.35 347.05L91.75 346.6L92.4 346.3L94.35 345.6L93.75 345.1" />
</g>
</svg>
