<?xml version="1.0" encoding="utf-8"?>
<svg version="1.1" id="Layer_1"
xmlns="http://www.w3.org/2000/svg"
xmlns:xlink="http://www.w3.org/1999/xlink"
xmlns:author="http://www.sothink.com"
width="26px" height="30px"
xml:space="preserve">
<g id="193" transform="matrix(1, 0, 0, 1, 13.85, 14.9)">
<path style="fill:#F3B288;fill-opacity:1" d="M9.4,9.3L9 3.25L9.1 -0.8L9.1 -6.25L9 -9.55Q8.8 -11.2 7.85 -12.1L4.95 -13L4.9 -13L4.95 -14.3L11.2 -14.05L11.25 -12.5L11.25 -12.25L11.3 -1.4L11.25 -0.05Q11 5.15 11.25 9.3L9.4 9.3M-9,8.85L-9.4 5.6L-9.2 0.3L-9.05 -5.75L-9.15 -9.9Q-9.45 -12 -10.7 -12L-11.85 -11.8L-12.95 -12L-13 -13.05L-13 -13.4L-9.7 -13.55L-6.8 -13.65L-6.7 -11.9L-6.8 -5.6L-6.8 -1.65L-6.9 2.25L-7.1 8.95L-9 8.85" />
<path style="fill:#DE7D3D;fill-opacity:1" d="M4.95,9.3L4.8 3.15L4.75 -4.8Q4.7 -9.9 4.8 -12.25L4.9 -13L4.95 -13L7.85 -12.1Q8.8 -11.2 9 -9.55L9.1 -6.25L9.1 -0.8L9 3.25L9.4 9.3L4.95 9.3M-9.6,8.9L-13.25 8.8L-13.15 4.9L-12.95 -2.95L-12.95 -11.6L-12.95 -11.7L-12.95 -12L-11.85 -11.8L-10.7 -12Q-9.45 -12 -9.15 -9.9L-9.05 -5.75L-9.2 0.3L-9.4 5.6L-9 8.85L-9.6 8.9" />
<path style="fill:#B86128;fill-opacity:1" d="M9.4,9.3L11.25 9.3L11.15 13.5L5.05 13.6Q4.85 10.85 4.95 9.3L9.4 9.3M-9,8.85L-7.1 8.95L-7.15 14.25L-10.05 14.3L-12.35 14.25L-13.25 14.25Q-13.45 11.35 -13.25 8.8L-9.6 8.9L-9 8.85" />
<path style="fill:none;stroke-width:1;stroke-linecap:butt;stroke-linejoin:miter;stroke-miterlimit:3;stroke:#91491A;stroke-opacity:1" d="M4.9,-13L4.95 -14.3L11.2 -14.05L11.25 -12.5L11.25 -12.25L11.3 -1.4L11.25 -0.05Q11 5.15 11.25 9.3L11.15 13.5L5.05 13.6Q4.85 10.85 4.95 9.3L4.8 3.15L4.75 -4.8Q4.7 -9.9 4.8 -12.25L4.9 -13M4.95,9.3L9.4 9.3L11.25 9.3M-12.95,-12L-13 -13.05L-13 -13.4L-9.7 -13.55L-6.8 -13.65L-6.7 -11.9L-6.8 -5.6L-6.8 -1.65L-6.9 2.25L-7.1 8.95L-7.15 14.25L-10.05 14.3L-12.35 14.25L-13.25 14.25Q-13.45 11.35 -13.25 8.8L-13.15 4.9L-12.95 -2.95L-12.95 -11.6L-12.95 -11.7L-12.95 -12M-13.25,8.8L-9.6 8.9L-9 8.85L-7.1 8.95" />
</g>
</svg>
