<?xml version="1.0" encoding="utf-8"?>
<svg version="1.1" id="Layer_1"
xmlns="http://www.w3.org/2000/svg"
xmlns:xlink="http://www.w3.org/1999/xlink"
xmlns:author="http://www.sothink.com"
width="82px" height="31px"
xml:space="preserve">
<g id="59" transform="matrix(1, 0, 0, 1, 40.55, 21.75)">
<path style="fill:#C9DAF1;fill-opacity:1" d="M0.6,-16.75Q0.1 -16.4 -1.5 -16.4Q-4.15 -16.4 -4.15 -18.55L-4.05 -19.6L-3.95 -19.75L-3.35 -20.55Q-2.55 -21.2 -2 -21.2Q-1.05 -21.2 -0.05 -20.5Q1.15 -19.7 1.15 -18.55Q1.15 -17.15 0.6 -16.75M36.7,-1.65Q37.1 -2.15 38.05 -2.15Q40 -2.15 40 0.7L39.85 2.05Q39.55 2.8 38.6 2.8Q37.7 2.8 36.95 2.05L36.4 1.15L36.4 0.4L36.4 -0.15Q36.4 -1.25 36.7 -1.65M-4.15,-10.45L-2.95 -8L-1.45 -4.75Q-0.55 -3.25 1 -1.7Q1.45 -1.25 1.45 1.15Q1.45 3.1 2.8 4.15Q10.25 3.95 16.4 1.85Q23.2 -0.5 24.05 -0.5Q27.7 -0.5 39.25 5.1L39.25 5.5L31.75 6.8L22.2 7.9L6.4 7.3L-9.25 6.7L-15.1 7.45L-22.45 8.2L-29.15 7.7L-35.5 7.15L-39.15 7.35Q-33.1 2.05 -25.55 2.05L-15.45 3.1L-5.2 4L-3.65 1.3Q-3.05 -0.05 -3.05 -1.85Q-3.05 -4.3 -4.85 -9.95L-4.15 -10.45" />
<path style="fill:none;stroke-width:1;stroke-linecap:butt;stroke-linejoin:miter;stroke-miterlimit:3;stroke:#5C8BBB;stroke-opacity:1" d="M1.15,-18.55Q1.15 -19.7 -0.05 -20.5Q-1.05 -21.2 -2 -21.2Q-2.55 -21.2 -3.35 -20.55L-3.95 -19.75L-4.05 -19.6L-4.15 -18.55Q-4.15 -16.4 -1.5 -16.4Q0.1 -16.4 0.6 -16.75Q1.15 -17.15 1.15 -18.55M36.7,-1.65Q37.1 -2.15 38.05 -2.15Q40 -2.15 40 0.7L39.85 2.05Q39.55 2.8 38.6 2.8Q37.7 2.8 36.95 2.05L36.4 1.15L36.4 0.4L36.4 -0.15Q36.4 -1.25 36.7 -1.65" />
<path style="fill:none;stroke-width:1;stroke-linecap:round;stroke-linejoin:miter;stroke-miterlimit:3;stroke:#5C8BBB;stroke-opacity:1" d="M-4.15,-10.45L-2.95 -8L-1.45 -4.75Q-0.55 -3.25 1 -1.7Q1.45 -1.25 1.45 1.15Q1.45 3.1 2.8 4.15M-5.2,4L1.35 4.15L2.8 4.15" />
<path style="fill:none;stroke-width:1;stroke-linecap:butt;stroke-linejoin:miter;stroke-miterlimit:3;stroke:#5C8BBB;stroke-opacity:1" d="M2.8,4.15Q10.25 3.95 16.4 1.85Q23.2 -0.5 24.05 -0.5Q27.7 -0.5 39.25 5.1L39.25 5.5L31.75 6.8L22.2 7.9L6.4 7.3L-9.25 6.7L-15.1 7.45L-22.45 8.2L-29.15 7.7L-35.5 7.15L-39.15 7.35Q-33.1 2.05 -25.55 2.05L-15.45 3.1L-5.2 4L-3.65 1.3Q-3.05 -0.05 -3.05 -1.85Q-3.05 -4.3 -4.85 -9.95L-4.85 -11.15L-4.7 -11.3L-4.15 -10.45" />
</g>
</svg>
