<?xml version="1.0" encoding="utf-8"?>
<svg version="1.1" id="Layer_1"
xmlns="http://www.w3.org/2000/svg"
xmlns:xlink="http://www.w3.org/1999/xlink"
xmlns:author="http://www.sothink.com"
width="28px" height="30px"
xml:space="preserve">
<g id="79" transform="matrix(1, 0, 0, 1, 13.65, 14.6)">
<path style="fill:#E58888;fill-opacity:1" d="M9.85,11.8L9.8 10.35L10.2 4.25L10.55 -2.6L10.55 -6.25Q10.45 -7.35 9.55 -10.05Q9.1 -11.35 7.9 -11.7L6.25 -11.9L3.15 -11.65L-0.65 -11.9L-3.55 -12.15L-7.55 -11.75L-10.6 -11.4Q-11.45 -11.4 -11.8 -11.7L-11.95 -11.8Q-10.8 -12.95 -8.75 -13.3L-2.85 -13.6L2.8 -13.7Q8.1 -14.45 10 -13.7Q11.95 -12.9 12.5 -9.6Q13.45 -3.9 13.15 3.5Q12.8 10.9 11.75 12.65Q10.5 11.75 9.85 11.8" />
<path style="fill:#C95E5E;fill-opacity:1" d="M-9.65,8.45Q-10.75 7.9 -11.9 7.3L-12.5 0.35L-13.15 -9.6L-12.55 -11.05L-11.95 -11.8L-11.8 -11.7Q-11.45 -11.4 -10.6 -11.4L-7.55 -11.75L-3.55 -12.15L-0.65 -11.9L3.15 -11.65L6.25 -11.9L7.9 -11.7Q9.1 -11.35 9.55 -10.05Q10.45 -7.35 10.55 -6.25L10.55 -2.6L10.2 4.25L9.8 10.35L9.85 11.8L6.45 12L6.9 4.95Q7.35 -3.25 6.95 -5.75Q6.55 -7.95 5.8 -8.25L2 -8.05L0.75 -8L-4.15 -7.7L-4.2 -7.7L-5.25 -7.6Q-9.05 -6.95 -9.25 -5.55L-9.05 -4.2L-6.25 -4.35L-6.1 0.25L-6 5.4L-6 8.45L-6 9.45L-7.05 9.15L-8.45 8.8L-9.65 8.45M0.85,-4.8L3 -4.85Q4.15 -4.85 4.65 -3.3Q5.05 -2 5.05 0.7L4.8 3.85Q4.5 6.1 4.5 7.45L4.5 11.85L0.8 11.7Q0.7 7.95 0.75 3.45L0.85 -4.8M-4.4,10.2L-4.35 8.5Q-4.3 4.7 -4.5 2.8L-4.8 -2.85L-4.8 -4.45L-2.65 -4.6L-0.65 -4.7L-0.65 -4.1Q-0.65 -2.05 -1.1 1.45L-1.45 5.9Q-1.25 9.45 -1.4 11.35Q-3 10.95 -4.4 10.2" />
<path style="fill:#A84141;fill-opacity:1" d="M-8.45,8.8L-7.05 9.15L-6 9.45L-6 8.45L-6 5.4L-6.1 0.25L-6.25 -4.35L-9.05 -4.2L-9.25 -5.55Q-9.05 -6.95 -5.25 -7.6L-4.2 -7.7L-4.15 -7.7L0.75 -8L0.85 -7.1L2 -8.05L5.8 -8.25Q6.55 -7.95 6.95 -5.75Q7.35 -3.25 6.9 4.95L6.45 12L9.85 11.8Q10.5 11.75 11.75 12.65Q10.95 13.2 10.25 13.25L9.15 13.4L6.4 13.8L4.5 13.95L0.85 14.05L-2.15 14L-4.45 13.8L-8.6 13.2Q-12.05 13.6 -11.95 11.35L-11.9 7.3Q-10.75 7.9 -9.65 8.45L-8.45 8.8M0.75,3.45Q0.7 7.95 0.8 11.7L4.5 11.85L4.5 7.45Q4.5 6.1 4.8 3.85L5.05 0.7Q5.05 -2 4.65 -3.3Q4.15 -4.85 3 -4.85L0.85 -4.8L0.75 3.45M-1.4,11.35Q-1.25 9.45 -1.45 5.9L-1.1 1.45Q-0.65 -2.05 -0.65 -4.1L-0.65 -4.7L-2.65 -4.6L-4.8 -4.45L-4.8 -2.85L-4.5 2.8Q-4.3 4.7 -4.35 8.5L-4.4 10.2Q-3 10.95 -1.4 11.35" />
<path style="fill:none;stroke-width:1;stroke-linecap:butt;stroke-linejoin:miter;stroke-miterlimit:3;stroke:#7E2323;stroke-opacity:1" d="M11.75,12.65Q12.8 10.9 13.15 3.5Q13.45 -3.9 12.5 -9.6Q11.95 -12.9 10 -13.7Q8.1 -14.45 2.8 -13.7L-2.85 -13.6L-8.75 -13.3Q-10.8 -12.95 -11.95 -11.8M11.75,12.65Q10.95 13.2 10.25 13.25L9.15 13.4L6.4 13.8L4.5 13.95L0.85 14.05L-2.15 14L-4.45 13.8L-8.6 13.2Q-12.05 13.6 -11.95 11.35L-11.9 7.3L-12.5 0.35L-13.15 -9.6L-12.55 -11.05L-11.95 -11.8M0.75,-8L2 -8.05L5.8 -8.25Q6.55 -7.95 6.95 -5.75Q7.35 -3.25 6.9 4.95L6.45 12M0.75,-8L-4.15 -7.7L-4.2 -7.7L-5.25 -7.6Q-9.05 -6.95 -9.25 -5.55L-9.05 -4.2M-8.45,8.8Q-8.4 11.15 -8.6 13.2M0.85,-7.1L0.85 -4.8M0.8,11.7L0.85 14.05M0.8,11.7Q0.7 7.95 0.75 3.45L0.85 -4.8M6.4,13.8L6.4 13.4L6.45 12M-4.4,10.2L-4.35 8.5Q-4.3 4.7 -4.5 2.8L-4.8 -2.85L-4.8 -4.45Q-4.75 -6.15 -4.1 -6.95M-4.4,10.2L-4.45 13.8M-8.45,8.8L-8.5 6.95L-8.8 1.2Q-8.75 -1.7 -9.05 -4.2" />
</g>
</svg>
