<?xml version="1.0" encoding="utf-8"?>
<svg version="1.1" id="Layer_1"
xmlns="http://www.w3.org/2000/svg"
xmlns:xlink="http://www.w3.org/1999/xlink"
xmlns:author="http://www.sothink.com"
width="220px" height="251px"
xml:space="preserve">
<g id="354" transform="matrix(1, 0, 0, 1, 11.3, -324.75)">
<path style="fill:#000000;fill-opacity:0.2" d="M62.35,553.45Q76 549.55 95.5 549.35Q115.1 549.2 128.7 552.85Q142.5 556.5 142.55 561.85Q142.6 567.2 128.85 570.95Q115.35 574.9 95.75 575.05Q76.25 575.25 62.5 571.55Q48.65 568.05 48.6 562.7Q48.55 557.35 62.35 553.45" />
<path style="fill:#FC850F;fill-opacity:1" d="M48.7,332.45Q46.5 333.9 50.3 347.95Q52.2 355 54.55 361.75L58.7 360.3L58.5 354.75L63.2 357.45L62.8 352.5L66.1 354.95L66.7 351.9L71.2 351.5Q66.45 346.15 61.25 341.1Q50.9 331 48.7 332.45M52.25,428L51.2 427.65Q48.45 423.4 45.35 413.35L45.6 413.35Q45.85 413.7 46.25 413.7L47.3 412.95Q48.2 412.7 50.3 411.25L52.15 410.3Q53.35 409.65 53.35 409.2L53.25 408.95L51.4 409.35L50.9 409.6Q49 410.1 47.55 410.9Q46.3 411.6 45.8 412.35L45.2 412.85L44.65 410.9L44.85 410.95Q44.75 411.35 45.2 411.35Q45.65 411.35 46.55 410.55L46.6 410.55L49.6 408.95L52.6 406.95L52.35 406.7Q50.9 406.75 50.05 407.15L48.45 407.9Q46.55 408.55 45.65 409.5L45.65 409.7L44.9 410.05Q44.55 410.3 44.55 410.6L43.6 406.95L43.85 407.15L44.35 407.2L45.75 406.1L46.4 405.5Q49.35 403.75 49.35 403.15L49.25 402.85L47.85 403.25L46.6 403.75Q45.9 403.9 45.35 404.35L45.25 404.45L44.55 404.75Q43.5 405.3 43.5 406.1L43.45 406.4L42.6 403.05L42.7 403.05L43.55 402.6L43.85 402.6L45.75 401.55Q47.1 400.75 47.7 400.5L50.75 398.7L50.5 398.45Q47.9 398.8 46.35 399.6L44.35 400.3L43.25 400.8L42.4 401.5L42.45 401.65L42.65 401.7L42.35 402.05L40.9 396.55L30.05 394.3L40.7 385.5L30.65 384.9L41.95 377.5L35.15 373.4L46.85 368.9L43.15 363.15L48.85 364.6Q46.25 355.6 44.55 346.15Q41.15 327.25 45.8 325.05Q50.45 322.85 63.85 335.9Q70.6 342.45 76.35 349.4L83.7 345.3L88.6 348.4L97.45 346.75L101.3 349.4Q106.35 342.4 112.2 335.9Q123.95 322.9 128.15 325.45Q132.35 328 128 344.7Q125.8 353.05 122.8 360.9L131.85 365.6L123.85 369.3L133.45 374.4L125.3 376.85L130 381.35L126.1 384.45L129.4 389.55L125.7 395.7L127.75 402.05L127.1 402.7L125.1 402.05Q124.55 401.65 123.55 401.4L123.5 401.35L119.85 400.15Q117.5 399.55 117.5 400.3Q117.5 400.75 119.35 401.4Q121.4 402.1 121.85 402.35L121.9 402.4Q124.15 403.35 124.85 403.8L125.15 403.8L125.7 404.15L124.25 405.55L123.9 407.85L123.75 407.7L123.45 407.55L123.5 407.5L123.85 407.1Q123.35 406.6 121.55 406.2L119.35 405.9L118.75 405.95L117.4 405.75L117.35 406.05Q117.35 406.25 118.7 406.9L120 407.45L120.5 407.45Q122.05 408 123.1 408.7L123.45 408.7L123.55 408.4L123.45 408.1L123.55 408.1L123.85 408.15L123.6 409.65L121.65 409L120.9 408.95L118.15 408.25L115.5 407.75L115.7 405.5L115.65 401.25L117.1 386.9Q114.6 389.7 110.15 392.2L107.9 393.4Q102.25 396.2 95.2 397.75L90.2 398.7L79.3 399.1Q74.1 398.7 70.6 397.05Q68.7 396.15 67.3 394.9Q60.3 388.7 59.25 380.85Q58.7 377.3 58.7 375.9Q52.75 386.35 52.35 400.2L53.3 403.15Q54.7 406.7 56.7 409.8Q63.2 419.55 73.65 420.5L74.6 420.6Q82.1 421.1 91.25 419.4L99.45 417.45L106.6 415.3Q112.8 413.2 114.2 411.5L114.5 411.1L116.1 411.8L118.25 412.7L120.65 413.95L121.65 414.65L121.3 414.35L121.7 414.25L121.95 414.45Q122.15 414.65 122.4 414.65L122.6 414.65Q121.15 420 119.15 423.15L118.75 423.75L118.5 424Q85.05 433.35 52.25 428M122.75,413.3L122.8 413.3L122.85 412.95L122.55 412.6L122.5 412.6L122.15 412.65L120.95 412.35L119.7 411.9L118.9 411.55L118.3 411.15L118.2 411.1L118.05 411.05L117.2 410.75L114.9 410.2L115.35 408.7L116.35 409.2L117.7 409.75L119.9 410.5L121.8 411.3L122.45 411.3L122.55 411.1L122.35 410.9L123.05 410.9L123.1 410.6L123.2 410.15L123.5 410.1L123.55 410.1L123.2 412.05L122.9 413.4L122.75 413.3M121.9,413.75L121.95 413.7L122 413.4L122.05 413.4L122.2 413.55L122.7 413.8L122.8 413.8L122.7 414.3L121.9 413.75M187.2,465.85Q185.15 464 185.7 460.2Q186.25 456.6 188.1 456.05L186.85 455Q185.55 453.6 185.15 451.9Q184.7 450 186.4 447.95Q187.95 446 189.45 445.8L190.85 445.65Q189.9 444.05 189.25 442.15Q187.9 438.4 189.45 436.95Q191.35 435.1 197.15 434.65L198.25 434.55Q205.35 434.1 207.3 436.75Q209.05 439.15 206.4 443.75Q205.05 446.05 203.4 447.85Q204.1 449.85 202.95 453.6L201.65 456.9L202.6 457.05L202.55 460.3Q202.25 463.7 201.15 464.6Q199.45 466 194.55 466.75L192.8 467Q188.75 467.3 187.2 465.85M92.4,548.5Q91.4 547.7 90.2 547.1Q89.4 546.9 88.2 546.1Q87.3 545.5 86.25 545.5L87.25 546.85L88.55 548.15L90.2 549.4L92.3 550.65L92.85 550.6L93.6 550.05L93.55 550.15Q89.25 556.9 82.55 560.55Q80.95 561.45 78.65 562.05L75.15 562.95Q72.55 563.95 68.05 564.05L54.1 563.3L53.75 563.2L53.55 563.15L49.1 562.2Q49.5 559.15 50.55 555.8Q52.6 549.15 55.85 547.85Q59.1 546.55 63.55 548.65Q65.75 549.65 67.3 550.95Q69.6 543.85 70.45 536.2Q71.35 527.95 70.6 519.05Q64.3 518.1 57.5 515.55Q53.95 514.25 49.5 509L60.95 507.35L77 505.4L109.65 504.6L137.7 504.1Q134.35 509.35 128.8 513.35Q124.8 516.3 121.45 517.5Q120.5 529.1 121.25 536.2Q122.1 543.85 124.4 550.95Q125.95 549.65 128.15 548.65Q132.6 546.55 135.85 547.85Q139.1 549.15 141.15 555.8Q142.2 559.15 142.6 562.2L138.15 563.15L137.95 563.2L137.6 563.3L123.65 564.05Q114.45 563.85 113.35 559.95Q112.25 556.1 112.7 537.05L113.35 519Q106.3 520.55 99.35 520.8L98.5 532L95.6 531.55L94.1 531.3Q92.95 531.25 92.5 531.65L92.6 531.9L94.15 532.5L96.1 533.1L97.6 533.05L98 532.6L98.45 532.35Q97.9 536.65 97.15 540.15L96.95 540.05L95.55 539.65L91.35 538.95L91.1 539.1L91.35 539.55L91.7 539.65L91.95 540.05Q92.45 540.15 94.15 540.8L96.05 541.3L96.9 541.25Q95.65 546.55 93.85 549.65L92.4 548.5M5.8,443.05Q9.25 443.8 10.4 444.85Q11.95 446.3 10.6 450.05L9 453.55L10.4 453.7Q11.9 453.9 13.45 455.85Q15.15 457.9 14.7 459.8Q14.3 461.5 13 462.9L11.75 463.95Q13.6 464.5 14.15 468.1Q14.7 471.9 12.65 473.75Q11.2 475.1 7.65 474.9L5.3 474.65L3.85 474.4Q0.15 473.7 -1.3 472.5Q-2.4 471.6 -2.7 468.2L-2.75 464.95L-1.8 464.8L-3.1 461.5Q-4.25 457.75 -3.55 455.75L-6.55 451.65Q-9.2 447.05 -7.45 444.65Q-6 442.65 -1.05 442.4L5.8 443.05M76.8,357.8L75.7 358.25L74.95 358.9L74.35 359.55Q72.9 360.8 72.35 362.1L72.25 362.15L71.9 362.85L71.65 363.5Q71.4 364 71.4 364.9L71.55 366.25L71.6 367.65L71.6 372.95Q71.6 374.6 71.95 375.6L72.2 376.25L72.5 376.95L72.85 377.6L73.15 378.25L73.25 378.3L73.55 379.05L73.8 379.4L73.95 379.8L74.65 381.3L74.95 381.3L77.25 378.25L79.4 375.15Q79.95 374.25 80.7 373.65Q81.35 373 81.55 372.85L82.4 372.15L84.05 370.75Q85.4 369.7 85.35 369.25L85.75 368.55L85.85 367.75L85.95 366.1L85.9 364.7L85.6 363.2L85.35 362.5L85.25 361.75L84.65 360.25L84.3 359.9L84.1 359.5L83.45 358.75Q82.85 358 81.45 357.6L81 357.55L80.85 357.45L79.75 357.4L79.15 357.45L79 357.55L77.9 357.6L76.8 357.8M95.45,367.95Q96.15 367 96.4 365.65Q97 362.65 94.2 360.15L94 360Q91 357.45 88.1 359.55Q87.65 359.85 87.35 360.15Q86.4 361.05 85.8 362.2Q86.5 364.9 86.15 367.95L86.05 368.6L85.75 370.05Q83.85 371.05 82.1 372.6Q80.55 373.9 79.15 375.6L78.55 376.5L78.3 376.8L77.75 377.55L75.35 381.65L76.95 385.35Q78.55 387.4 81.05 388.45Q83.05 389.3 85.65 389.5Q90.55 389.85 94.7 388.45Q97.6 387.45 100.15 385.6Q105.05 381.95 105.4 377.55L105.4 376.8L105.4 376.5L105.3 375.5Q105.05 373.9 104.25 372.6Q103.05 370.85 100.75 369.65Q99.4 368.95 97.9 368.6L95.25 368.25L95.2 368.25L95.45 367.95M124.7,331.35Q123.25 330.25 115.2 340.05L107.45 350.05L109.5 351.9L112.8 351.1L113 355.15L116.45 352.7L118.5 357.65L122.45 345.2Q126.15 332.5 124.7 331.35M115.05,416.95L116.6 417.55L116.6 417.65Q117.5 418 120.45 419.65L120.8 419.5L121.05 419.1L120.65 418.6L120.75 418.45L120.7 418.3L120.4 418L120.5 418L120.65 417.9L120.75 417.7L120.7 417.5Q120.45 417.2 119.75 417L119.05 416.9L118.75 416.7L116.65 416.05Q114.35 415.45 113.25 415.35L113.15 415.4L113 415.6Q113 416.05 115.05 416.95M46.9,414.15Q46.1 414.55 46.1 414.85L46.2 415.05L46.5 415.15L46.3 415.4Q46.3 415.75 46.45 415.9L46.75 415.9L47.9 415.15L48.05 415L50.9 413.4Q54 411.5 54 411.05L53.9 410.75Q52.45 411 50.65 412L47.55 413.75L47.5 413.85L46.9 414.15M52.45,418.2L51.8 418.7L50.6 419.3Q48.45 420.2 48.45 421.05L48.8 421.4L48.55 421.95L48.7 422.35Q49.6 422.45 50.1 422.9L51.65 420.95Q55.85 417.75 55.85 417.15L55.6 416.85L53.9 417.45L52.45 418.2M72.1,425.45L70.2 425.45L67.8 424.85L65.8 424.05L64.25 423.4L62.35 422Q62.2 422.1 62.2 422.3Q62.2 423.6 63.35 424.8Q64.4 425.9 66.2 426.55L66.25 426.6Q66.75 427.05 67.85 427.05L70.4 426.45L73.25 425.35L72.1 425.45M69.05,426.4L69.25 426.35L69.05 426.45L69.05 426.4M79.15,543.8Q88.55 536.25 92.35 520.8Q85.6 520.5 78.35 518.8L79 537.05L79.15 543.8M98.75,525.35L98.5 525.1L94.35 525.1Q93.75 525.1 93.6 525.55L94.35 525.9L94.45 526.05L98.45 526.2L98.6 525.9L98.5 525.65L98.75 525.35M83.1,550.9L83.1 551.55L84.55 553.95Q85.5 555.4 86.6 556.4L86.95 556.45L87.1 556.2L86.75 555.65L87.45 556.15L87.95 556.15L88 556.15L88 556.1L88.1 555.9L86 553.4L83.7 550.9L83.1 550.9" />
<path style="fill:#E66006;fill-opacity:1" d="M61.25,341.1Q66.45 346.15 71.2 351.5L66.7 351.9L66.1 354.95L62.8 352.5L63.2 357.45L58.5 354.75L58.7 360.3L54.55 361.75Q52.2 355 50.3 347.95Q46.5 333.9 48.7 332.45Q50.9 331 61.25 341.1M122.45,345.2L118.5 357.65L116.45 352.7L113 355.15L112.8 351.1L109.5 351.9L107.45 350.05L115.2 340.05Q123.25 330.25 124.7 331.35Q126.15 332.5 122.45 345.2" />
<path style="fill:#FFFFFF;fill-opacity:1" d="M77.9,357.6L79 357.55L79.15 357.45L79.75 357.4L80.85 357.45L81 357.55L81.45 357.6Q82.85 358 83.45 358.75L84.1 359.5L84.3 359.9L84.65 360.25L85.25 361.75L85.35 362.5L85.6 363.2L85.9 364.7L85.95 366.1L85.85 367.75L85.75 368.55L85.35 369.25Q85.4 369.7 84.05 370.75L82.4 372.15L81.55 372.85Q81.35 373 80.7 373.65Q79.95 374.25 79.4 375.15L77.25 378.25L74.95 381.3L74.65 381.3L73.95 379.8L73.8 379.4L73.55 379.05L73.25 378.3L73.15 378.25L72.85 377.6L72.5 376.95L72.2 376.25L71.95 375.6Q71.6 374.6 71.6 372.95L71.6 367.65L71.55 366.25L71.4 364.9Q71.4 364 71.65 363.5L71.9 362.85L72.25 362.15L72.35 362.1Q72.9 360.8 74.35 359.55L74.95 358.9L75.7 358.25L76.8 357.8L77.9 357.6M79.85,370.6L80.7 370.6L81.15 370.45L81.6 370.45L82.1 370.35L83.25 368.9L83.35 367.7Q83.35 364.9 81.4 363.9L81.2 363.9Q80.75 363.6 80.15 363.55Q77.7 363.25 77.7 366.95Q77.7 367.9 78.25 368.8L78.5 369.2Q78.95 370.05 79.85 370.6M115.1,407.7L115.05 408.55L115.35 408.7L114.9 410.2L114.5 410.2L113.8 410.95L114.5 411.1L114.2 411.5Q112.8 413.2 106.6 415.3L99.45 417.45L91.25 419.4Q82.1 421.1 74.6 420.6L73.65 420.5Q63.2 419.55 56.7 409.8Q54.7 406.7 53.3 403.15L52.35 400.2Q52.75 386.35 58.7 375.9Q58.7 377.3 59.25 380.85Q60.3 388.7 67.3 394.9Q68.7 396.15 70.6 397.05Q74.1 398.7 79.3 399.1L90.2 398.7L95.2 397.75Q102.25 396.2 107.9 393.4L110.15 392.2Q114.6 389.7 117.1 386.9L115.65 401.25L115.7 405.5L115.5 407.75L115.1 407.7M85.75,370.05L86.05 368.6L86.15 367.95Q86.5 364.9 85.8 362.2Q86.4 361.05 87.35 360.15Q87.65 359.85 88.1 359.55Q91 357.45 94 360L94.2 360.15Q97 362.65 96.4 365.65Q96.15 367 95.45 367.95L95.2 368.25L90.6 368.45L89.7 368.6Q87.65 369 85.75 370.05M90.3,367.95Q92.1 367.95 92.1 365.95Q92.1 363.75 90.15 363.45Q88.2 363.1 88.2 365.65Q88.2 367 89.2 367.8L90.3 367.95" />
<path style="fill:#FF6D6B;fill-opacity:1" d="M89.7,368.6L90.6 368.45L95.2 368.25L95.25 368.25L97.9 368.6Q99.4 368.95 100.75 369.65Q103.05 370.85 104.25 372.6Q105.05 373.9 105.3 375.5L105.4 376.5L105.4 376.8L105.4 377.55Q105.05 381.95 100.15 385.6Q97.6 387.45 94.7 388.45Q90.55 389.85 85.65 389.5Q83.05 389.3 81.05 388.45Q78.55 387.4 76.95 385.35L75.35 381.65L77.75 377.55L78.3 376.8L78.55 376.5L79.15 375.6Q80.55 373.9 82.1 372.6Q83.85 371.05 85.75 370.05Q87.65 369 89.7 368.6" />
<path style="fill:#AAD614;fill-opacity:1" d="M49.5,509L49.2 508.65Q42.55 509 38.75 508.55Q34.4 508 17.2 511.8L0.85 515.7Q2.1 513.2 3.15 509.8Q5.3 503.05 4.55 498.7Q2.55 486.35 2.9 481.9L3.85 474.4L5.3 474.65L7.65 474.9Q11.2 475.1 12.65 473.75Q14.7 471.9 14.15 468.1Q13.6 464.5 11.75 463.95L13 462.9Q14.3 461.5 14.7 459.8Q15.15 457.9 13.45 455.85Q11.9 453.9 10.4 453.7L9 453.55L10.6 450.05Q11.95 446.3 10.4 444.85Q9.25 443.8 5.8 443.05L-1.05 442.4Q-4.05 427.65 -11.3 412.9Q19.3 417.1 51.2 427.65L51.3 427.85L52.25 428Q85.05 433.35 118.5 424L118.65 424L127.2 421.35Q135.85 418.7 138 418.45Q141.45 418.05 157.45 418.85Q177.85 416.2 199 402.05Q201.2 416.8 197.15 434.65Q191.35 435.1 189.45 436.95Q187.9 438.4 189.25 442.15Q189.9 444.05 190.85 445.65L189.45 445.8Q187.95 446 186.4 447.95Q184.7 450 185.15 451.9Q185.55 453.6 186.85 455L188.1 456.05Q186.25 456.6 185.7 460.2Q185.15 464 187.2 465.85Q188.75 467.3 192.8 467L191.4 473.35Q190.55 477.45 190.9 481.25Q191.15 484.05 194.8 491.3Q194.55 494.75 193.7 500.8Q193.25 506 194.6 509.95L165.05 506L137.7 504.1L109.65 504.6L77 505.4L60.95 507.35L49.5 509" />
<path style="fill:#582903;fill-opacity:1" d="M125.15,403.8L124.85 403.8Q124.15 403.35 121.9 402.4L121.85 402.35Q121.4 402.1 119.35 401.4Q117.5 400.75 117.5 400.3Q117.5 399.55 119.85 400.15L123.5 401.35L123.55 401.4Q124.55 401.65 125.1 402.05L127.1 402.7L127.25 402.75L127.4 402.9L127.5 403.15L127.4 403.35L127.25 403.55L127.2 403.8L126.9 403.85L126.55 403.7Q126.5 403.55 126.25 403.55L126.55 403.8L126.55 403.95L126 403.95Q125.85 403.95 125.85 404.05L125.75 404.15L125.7 404.15L125.15 403.8M123.55,408.1L123.45 408.1L123.55 408.4L123.45 408.7L123.1 408.7Q122.05 408 120.5 407.45L120 407.45L118.7 406.9Q117.35 406.25 117.35 406.05L117.4 405.75L118.75 405.95L119.35 405.9L121.55 406.2Q123.35 406.6 123.85 407.1L123.5 407.5L123.45 407.55L123.75 407.7L123.9 407.85L123.95 407.95L123.95 408.15L123.85 408.15L123.55 408.1M115.35,408.7L115.05 408.55L115.1 407.7L115.5 407.75L118.15 408.25L120.9 408.95L121.65 409L123.6 409.65L123.65 409.65L123.75 409.85L123.6 410.1L123.55 410.1L123.5 410.1L123.2 410.15L123.1 410.6L123.05 410.9L122.35 410.9L122.55 411.1L122.45 411.3L121.8 411.3L119.9 410.5L117.7 409.75L116.35 409.2L115.35 408.7M122.7,414.3L122.7 414.6L122.6 414.65L122.4 414.65Q122.15 414.65 121.95 414.45L121.7 414.25L121.3 414.35L121.65 414.65L120.65 413.95L118.25 412.7L116.1 411.8L114.5 411.1L113.8 410.95L114.5 410.2L114.9 410.2L117.2 410.75L118.05 411.05L118.2 411.1L118.3 411.15L118.9 411.55L119.7 411.9L120.95 412.35L122.15 412.65L122.5 412.6L122.55 412.6L122.85 412.95L122.8 413.3L122.75 413.3L122.9 413.4L122.95 413.45L122.95 413.75L122.8 413.8L122.7 413.8L122.2 413.55L122.05 413.4L122 413.4L121.95 413.7L121.9 413.75L122.7 414.3M98,532.6L97.6 533.05L96.1 533.1L94.15 532.5L92.6 531.9L92.5 531.65Q92.95 531.25 94.1 531.3L95.6 531.55L98.5 532L98.6 532.2L98.45 532.35L98 532.6M96.05,541.3L94.15 540.8Q92.45 540.15 91.95 540.05L91.7 539.65L91.35 539.55L91.1 539.1L91.35 538.95L95.55 539.65L96.95 540.05L97.15 540.15L97.2 540.15L97.55 540.45L97.35 540.7L97.65 540.95L97.45 541.2L96.95 541.25L96.9 541.25L96.05 541.3M93.85,549.65L94.1 549.85L93.95 550.1L93.6 550.05L92.85 550.6L92.3 550.65L90.2 549.4L88.55 548.15L87.25 546.85L86.25 545.5Q87.3 545.5 88.2 546.1Q89.4 546.9 90.2 547.1Q91.4 547.7 92.4 548.5L93.85 549.65M45.35,413.35L45.2 413.3L45.1 413.1L45.2 412.85L45.8 412.35Q46.3 411.6 47.55 410.9Q49 410.1 50.9 409.6L51.4 409.35L53.25 408.95L53.35 409.2Q53.35 409.65 52.15 410.3L50.3 411.25Q48.2 412.7 47.3 412.95L46.25 413.7Q45.85 413.7 45.6 413.35L45.35 413.35M44.9,410.05L45.65 409.7L45.65 409.5Q46.55 408.55 48.45 407.9L50.05 407.15Q50.9 406.75 52.35 406.7L52.6 406.95L49.6 408.95L46.6 410.55L46.55 410.55Q45.65 411.35 45.2 411.35Q44.75 411.35 44.85 410.95L44.65 410.9L44.6 410.9L44.55 410.65L44.55 410.6Q44.55 410.3 44.9 410.05M43.6,406.95L43.45 406.9L43.35 406.65L43.45 406.4L43.5 406.1Q43.5 405.3 44.55 404.75L45.25 404.45L45.35 404.35Q45.9 403.9 46.6 403.75L47.85 403.25L49.25 402.85L49.35 403.15Q49.35 403.75 46.4 405.5L45.75 406.1L44.35 407.2L43.85 407.15L43.6 406.95M42.6,403.05L42.45 403L42.35 402.55L42.4 402.35L42.3 402.15L42.35 402.05L42.65 401.7L42.45 401.65L42.4 401.5L43.25 400.8L44.35 400.3L46.35 399.6Q47.9 398.8 50.5 398.45L50.75 398.7L47.7 400.5Q47.1 400.75 45.75 401.55L43.85 402.6L43.55 402.6L42.7 403.05L42.6 403.05M78.5,369.2L78.25 368.8Q77.7 367.9 77.7 366.95Q77.7 363.25 80.15 363.55Q80.75 363.6 81.2 363.9L81.4 363.9Q83.35 364.9 83.35 367.7L83.25 368.9L82.1 370.35L81.6 370.45L81.15 370.45L80.7 370.6L79.85 370.6Q78.95 370.05 78.5 369.2M89.2,367.8Q88.2 367 88.2 365.65Q88.2 363.1 90.15 363.45Q92.1 363.75 92.1 365.95Q92.1 367.95 90.3 367.95L89.2 367.8M113,415.6L113.15 415.4L113.25 415.35Q114.35 415.45 116.65 416.05L118.75 416.7L119.05 416.9L119.75 417Q120.45 417.2 120.7 417.5L120.75 417.7L120.65 417.9L120.5 418L120.4 418L120.7 418.3L120.75 418.45L120.65 418.6L121.05 419.1L120.8 419.5L120.45 419.65Q117.5 418 116.6 417.65L116.6 417.55L115.05 416.95Q113 416.05 113 415.6M47.5,413.85L47.55 413.75L50.65 412Q52.45 411 53.9 410.75L54 411.05Q54 411.5 50.9 413.4L48.05 415L47.9 415.15L46.75 415.9L46.45 415.9Q46.3 415.75 46.3 415.4L46.5 415.15L46.2 415.05L46.1 414.85Q46.1 414.55 46.9 414.15L47.5 413.85M53.9,417.45L55.6 416.85L55.85 417.15Q55.85 417.75 51.65 420.95L50.1 422.9Q49.6 422.45 48.7 422.35L48.55 421.95L48.8 421.4L48.45 421.05Q48.45 420.2 50.6 419.3L51.8 418.7L52.45 418.2L53.9 417.45M73.25,425.35L70.4 426.45L67.85 427.05Q66.75 427.05 66.25 426.6L66.2 426.55Q64.4 425.9 63.35 424.8Q62.2 423.6 62.2 422.3Q62.2 422.1 62.35 422L64.25 423.4L65.8 424.05L67.8 424.85L70.2 425.45L72.1 425.45L73.25 425.35M69.05,426.45L69.25 426.35L69.05 426.4L69.05 426.45M98.5,525.65L98.6 525.9L98.45 526.2L94.45 526.05L94.35 525.9L93.6 525.55Q93.75 525.1 94.35 525.1L98.5 525.1L98.75 525.35L98.5 525.65M83.7,550.9L86 553.4L88.1 555.9L88 556.1L88 556.15L87.95 556.15L87.45 556.15L86.75 555.65L87.1 556.2L86.95 556.45L86.6 556.4Q85.5 555.4 84.55 553.95L83.1 551.55L83.1 550.9L83.7 550.9" />
</g>
</svg>
