<?xml version="1.0" encoding="utf-8"?>
<svg version="1.1" id="Layer_1"
xmlns="http://www.w3.org/2000/svg"
xmlns:xlink="http://www.w3.org/1999/xlink"
xmlns:author="http://www.sothink.com"
width="103px" height="103px"
xml:space="preserve">
<g id="227" transform="matrix(1, 0, 0, 1, 34.5, 42.5)">
<path style="fill:#B63A3A;fill-opacity:1" d="M39.85,-24.9Q53.95 -14.1 53.95 0.55Q53.95 14.8 44.15 23.7Q34.8 32.2 21 32.2Q3.95 32.2 -4.45 23.7Q-13.15 14.95 -13.15 -3.5Q-13.15 -14.25 -7.55 -21.2Q-4.85 -24.5 2 -29.65L8.5 -34.25L8.5 -33.6Q10.55 -34.8 13 -34.8Q19.45 -34.8 26.6 -32.2Q33.85 -29.5 39.85 -24.9M15.2,-5.9Q20.8 -3.5 26.85 -3.5Q32.5 -3.5 34.3 -4.65Q36.15 -5.9 36.15 -9.9Q36.15 -16.1 26.85 -21.9Q18.85 -26.8 13.95 -26.8Q11.05 -26.8 8.8 -24.15L8.6 -23.95Q7.8 -23 7.3 -21.85L7.05 -20.95Q6.6 -19.15 6.6 -17.35Q6.6 -9.55 15.2 -5.9" />
<path style="fill:#A62F2F;fill-opacity:1" d="M26.6,-32.2Q19.45 -34.8 13 -34.8Q10.55 -34.8 8.5 -33.6L8.5 -34.25L2 -29.65Q-4.85 -24.5 -7.55 -21.2Q-13.15 -14.25 -13.15 -3.5Q-13.15 14.95 -4.45 23.7Q3.95 32.2 21 32.2Q34.8 32.2 44.15 23.7Q53.95 14.8 53.95 0.55Q53.95 -14.1 39.85 -24.9Q33.85 -29.5 26.6 -32.2M51.5,30.35Q37.6 45.2 17 45.2Q-0.5 45.2 -11.9 30.35Q-22.35 16.7 -22.35 -1.6Q-22.35 -21.15 -8.4 -34.8Q2.95 -41.5 17 -41.5Q37.9 -41.5 52.7 -26.75Q62.8 -16.65 66 -3.75Q64.15 16.95 51.5 30.35" />
<path style="fill:#C64747;fill-opacity:1" d="M6.6,-17.35Q6.6 -19.15 7.05 -20.95L7.3 -21.85Q7.8 -23 8.6 -23.95L8.8 -24.15Q11.05 -26.8 13.95 -26.8Q18.85 -26.8 26.85 -21.9Q36.15 -16.1 36.15 -9.9Q36.15 -5.9 34.3 -4.65Q32.5 -3.5 26.85 -3.5Q20.8 -3.5 15.2 -5.9Q6.6 -9.55 6.6 -17.35" />
<path style="fill:#9C2929;fill-opacity:1" d="M66,-3.75Q67.5 2.3 67.5 9Q67.5 29.9 52.7 44.7Q37.9 59.5 17 59.5Q-3.9 59.5 -18.75 44.7Q-33.5 29.9 -33.5 9Q-33.5 -11.9 -18.75 -26.75Q-13.9 -31.55 -8.4 -34.8Q-22.35 -21.15 -22.35 -1.6Q-22.35 16.7 -11.9 30.35Q-0.5 45.2 17 45.2Q37.6 45.2 51.5 30.35Q64.15 16.95 66 -3.75" />
<path style="fill:none;stroke-width:2;stroke-linecap:butt;stroke-linejoin:miter;stroke-miterlimit:3;stroke:#AF1B1B;stroke-opacity:1" d="M-8.4,-34.8Q2.95 -41.5 17 -41.5Q37.9 -41.5 52.7 -26.75Q62.8 -16.65 66 -3.75Q67.5 2.3 67.5 9Q67.5 29.9 52.7 44.7Q37.9 59.5 17 59.5Q-3.9 59.5 -18.75 44.7Q-33.5 29.9 -33.5 9Q-33.5 -11.9 -18.75 -26.75Q-13.9 -31.55 -8.4 -34.8z" />
<path style="fill:#FFFFFF;fill-opacity:1" d="M7.75,-15.5L40.45 3.45Q50.05 7.4 44.1 12.6L42.1 10.6Q39.55 8.3 35.65 6.6L30.05 4.2Q26.85 2.7 25.45 1.3Q21.85 -2.2 15.9 -5.95Q8.3 -10.8 4 -10.8L-0.15 -10.55L-2.25 -10.7Q-0.95 -19.65 7.75 -15.5" />
<path style="fill:#E7D8D8;fill-opacity:1" d="M40.6,14.95L31.25 20.85L22 19Q17.4 17.75 14.85 14.05L12.25 10.35Q10.5 7.7 9.8 5.6Q8.95 2.85 6.55 0.15Q3.95 -2.8 1.9 -2.8Q-0.75 -2.8 -2.3 1.05L-2.45 -7.8L-2.25 -10.7L-0.15 -10.55L4 -10.8Q8.3 -10.8 15.9 -5.95Q21.85 -2.2 25.45 1.3Q26.85 2.7 30.05 4.2L35.65 6.6Q39.55 8.3 42.1 10.6L44.1 12.6L40.6 14.95" />
<path style="fill:#D9C7C7;fill-opacity:1" d="M-2.3,1.05Q-0.75 -2.8 1.9 -2.8Q3.95 -2.8 6.55 0.15Q8.95 2.85 9.8 5.6Q10.5 7.7 12.25 10.35L14.85 14.05Q17.4 17.75 22 19L31.25 20.85L6.8 36.15Q-2.25 42 -1.7 29.85L-2.3 1.05" />
<path style="fill:none;stroke-width:2;stroke-linecap:butt;stroke-linejoin:miter;stroke-miterlimit:3;stroke:#AF1B1B;stroke-opacity:1" d="M31.25,20.85L40.6 14.95L44.1 12.6Q50.05 7.4 40.45 3.45L7.75 -15.5Q-0.95 -19.65 -2.25 -10.7L-2.45 -7.8L-2.3 1.05M31.25,20.85L6.8 36.15Q-2.25 42 -1.7 29.85L-2.3 1.05" />
</g>
</svg>
