<?xml version="1.0" encoding="utf-8"?>
<svg version="1.1" id="Layer_1"
xmlns="http://www.w3.org/2000/svg"
xmlns:xlink="http://www.w3.org/1999/xlink"
xmlns:author="http://www.sothink.com"
width="24px" height="46px"
xml:space="preserve">
<g id="254" transform="matrix(1, 0, 0, 1, 9, 22.3)">
<path style="fill:#AABFBF;fill-opacity:1" d="M-3.75,4.5Q-3.75 10.55 2.8 15.35Q8.55 19.55 14.1 19.7L14.1 22.9L13.85 22.9Q4.6 22.9 -1.95 16.35Q-8.5 9.8 -8.5 0.55Q-8.5 -8.7 -1.95 -15.25L-0.95 -16.2Q-0.15 -15.55 0.4 -15.55Q1.6 -15.55 6.3 -17.2Q10.05 -18.55 14.1 -18.8L14.1 -15.5L14 -15.5Q7.3 -15.5 2.55 -10.75Q-1.4 -6.85 -2.1 -1.6Q-3.75 0.1 -3.75 4.5M14.1,-3.85L14.1 6.15L13.75 5.8L9.15 10.35Q7.85 11.65 6.55 10.35L3.7 7.45Q2.4 6.15 3.7 4.85L8.35 0.25L4 -4.15Q2.7 -5.5 4.05 -6.8L6.4 -9L9.25 -6.1Q12.1 -3.6 12.95 -3.6L14.1 -3.85" />
<path style="fill:#C5DBDB;fill-opacity:1" d="M-2.1,-1.6L-2.25 0.7Q-2.25 7.4 2.55 12.15Q7.3 16.9 14 16.9L14.1 16.9L14.1 19.7Q8.55 19.55 2.8 15.35Q-3.75 10.55 -3.75 4.5Q-3.75 0.1 -2.1 -1.6M6.3,-17.2Q1.6 -15.55 0.4 -15.55Q-0.15 -15.55 -0.95 -16.2Q5.3 -21.8 13.85 -21.8L14.1 -21.8L14.1 -18.8Q10.05 -18.55 6.3 -17.2M12.95,-3.6Q12.1 -3.6 9.25 -6.1L6.4 -9L7 -9.6Q8.3 -10.9 9.6 -9.6L13.85 -5.15L14.1 -5.4L14.1 -3.85L12.95 -3.6" />
<path style="fill:none;stroke-width:1;stroke-linecap:butt;stroke-linejoin:miter;stroke-miterlimit:3;stroke:#70643A;stroke-opacity:1" d="M14.1,-15.5L14 -15.5Q7.3 -15.5 2.55 -10.75Q-1.4 -6.85 -2.1 -1.6L-2.25 0.7Q-2.25 7.4 2.55 12.15Q7.3 16.9 14 16.9L14.1 16.9M14.1,22.9L13.85 22.9Q4.6 22.9 -1.95 16.35Q-8.5 9.8 -8.5 0.55Q-8.5 -8.7 -1.95 -15.25L-0.95 -16.2Q5.3 -21.8 13.85 -21.8L14.1 -21.8M14.1,6.15L13.75 5.8L9.15 10.35Q7.85 11.65 6.55 10.35L3.7 7.45Q2.4 6.15 3.7 4.85L8.35 0.25L4 -4.15Q2.7 -5.5 4.05 -6.8L6.4 -9L7 -9.6Q8.3 -10.9 9.6 -9.6L13.85 -5.15L14.1 -5.4" />
</g>
</svg>
