<?xml version="1.0" encoding="utf-8"?>
<svg version="1.1" id="Layer_1"
xmlns="http://www.w3.org/2000/svg"
xmlns:xlink="http://www.w3.org/1999/xlink"
xmlns:author="http://www.sothink.com"
width="70px" height="67px"
xml:space="preserve">
<g id="19" transform="matrix(1, 0, 0, 1, 33.6, 36.45)">
<path style="fill:#232222;fill-opacity:1" d="M17.85,-30.15Q19.15 -28.05 19.15 -25.2L19 -23.05Q18.7 -22.15 17.2 -20.7L16 -19.8L12.7 -19.2Q11.75 -19.1 11.3 -18.2Q10.85 -17.4 10 -17.4Q9.3 -17.4 9 -18.75L8.35 -21.75Q7.05 -26.1 2 -26.1Q-3.4 -26.1 -4.85 -22.55L-5.75 -20.15Q-6.3 -19.05 -7.45 -19.05Q-8.5 -19.05 -8.65 -19.35Q-8.8 -19.6 -9.3 -19.6L-11.05 -16.55Q-12.85 -13.5 -15.2 -13.5Q-18.5 -13.5 -19.95 -16.4Q-20.75 -18.05 -20.75 -19.55Q-20.75 -20.35 -19.2 -22.35Q-17.75 -24.35 -16.8 -25Q-15.4 -26 -15.1 -27.75Q-14.8 -29.85 -14.25 -30.45Q-10.9 -34.4 -6.85 -35.7Q-0.15 -37.9 9.15 -33.65Q15.4 -34.05 17.85 -30.15M24.3,-6.95L22.2 -8.4Q21.2 -9 21.2 -9.3Q21.2 -10.05 23.6 -10.55Q26 -11 28.8 -10.65Q36.35 -9.75 36.35 -4.45Q36.35 -0.85 32.65 1.45L30.15 3.35Q29 4.6 29 6.55L29.5 11.95Q29.5 14.75 28.85 16.25Q27.2 19.95 22.15 19.95Q16.25 19.95 14.35 17.35Q13.5 16.25 13.5 14.15Q13.5 11.45 12.65 10.05Q11.8 8.65 11.8 8.05Q11.8 7 13.1 7L17.4 7.45Q23.05 7.45 25.8 3.8Q27.2 1.9 27.45 -0.05Q27.45 -4.45 24.3 -6.95M3.1,14.45Q5.7 14.45 6.6 17.05Q7 18.3 6.9 19.65Q6.9 21.75 6.35 22.6Q5.05 24.55 0.75 24.7Q0.1 25.25 -1.05 27.95Q-2.75 30.35 -6.65 30.35Q-11.4 30.35 -14.95 26.2Q-17.95 22.7 -17.95 19.45L-17.8 16.9Q-17.55 15.25 -16.7 14.15L-15.7 13Q-14.95 12.25 -13.55 11.5Q-12.05 10.75 -11.25 11.1Q-9.75 11.9 -7 11.8Q-6.25 12.25 -6.2 14.1Q-6.2 15.6 -3.8 15.6Q-0.6 15.6 0.55 15.05Q1.7 14.45 3.1 14.45M-20.4,-4.5Q-20.4 -3.6 -22 -2.2Q-23.65 -0.8 -23.65 -0.2L-23.35 0.8Q-22.9 1.55 -21.9 1.55L-19.4 1.1Q-18.45 1.1 -18.1 1.55Q-17.95 1.75 -17.95 2.05Q-17.95 2.65 -18.6 3.95Q-19.25 5.2 -19.25 6.7Q-19.25 8 -19.8 8.95Q-20.9 10.95 -23.9 10.95Q-30.05 10.95 -32.4 7Q-33.6 4.95 -33.6 2.65Q-33.6 -2.25 -31.75 -4.15Q-30.05 -5.85 -25.95 -5.85L-22.8 -6.25Q-21.2 -6.25 -20.6 -5.4L-20.4 -4.5M-6.25,8.65Q-6.25 7.35 -4.85 7.8Q-3.45 8.25 -3.45 9.55L-3.55 10.5Q-3.85 11.15 -4.75 11.15Q-5.7 11.15 -6.05 9.9L-6.25 8.65M-9.5,2.35Q-15.3 2.35 -15.3 1.15Q-15.3 -1 -11.55 -1.2Q-7.8 -1.4 -7.8 1Q-7.8 2.35 -9.5 2.35" />
</g>
</svg>
