<?xml version="1.0" encoding="utf-8"?>
<svg version="1.1" id="Layer_1"
xmlns="http://www.w3.org/2000/svg"
xmlns:xlink="http://www.w3.org/1999/xlink"
xmlns:author="http://www.sothink.com"
width="51px" height="45px"
xml:space="preserve">
<g id="142" transform="matrix(1, 0, 0, 1, 25.3, 22.4)">
<path style="fill:#7B7979;fill-opacity:1" d="M-1.05,-18.35L-1.5 -19.95L4.5 -20.8L4.5 -19.15L-1.05 -18.35M-8.9,-17.25L-17.65 -16.05L-17.65 -17.65L-9.1 -18.85L-8.9 -17.25" />
<path style="fill:#8F3636;fill-opacity:1" d="M1.15,-14.2Q2 -13.95 1.9 -12.6L1.9 -12.55Q1.8 -11.2 1 -11.3L-0.4 -11.3L-0.65 -14.25L-0.35 -14.25L1.15 -14.2M-6.5,-13.8L-5.8 -13.9L-5.15 -13.85L-4.2 -13.5L-4.2 -10.9L-6.6 -10.9Q-7 -12.1 -7 -13.3L-6.8 -13.5L-6.5 -13.8M-13.3,-11.9L-13.05 -12.8L-11.9 -12.9Q-11.2 -12.9 -10.8 -12.5Q-10.4 -12.05 -10.4 -11.1Q-10.4 -10.55 -10.8 -9.9L-13 -9.9L-13.15 -11.35L-13.25 -11.75L-13.3 -11.9M19.25,8.85L19 7.3L19.45 7.2L19.9 9.65L19.8 10.35L19.35 10.3L19.25 8.85M-2.05,16.8L-4.15 17.45L-6.15 18.1L-7.65 17.05L-9.15 15.85L-10.5 17.1L-11.95 18.1L-13.15 17.3Q-14.2 16.5 -14.4 16.5Q-14.9 16.5 -16.05 18.75L-16.95 20.5Q-20.85 19.45 -22.15 16.3L-22.65 14.1L-22.8 13.25Q-22.75 12.05 -22.15 11.3Q-21.95 10.95 -20.15 9.95L-19.7 11.7Q-19.15 13.6 -16.3 13.6L-12.5 13.15L-9 12.65Q-6.05 12.55 -5.2 11.85Q-4.4 11.3 -4.4 9.2L-4.4 9.15L-4.45 7.75L-1.95 7L0.45 8L0.9 8.2L-0.8 9.45Q-1.95 10.5 -1.8 12.8Q-1.85 13.9 -1.3 14.55L-0.25 15.35L0.25 15.6L3.75 15.7L4.7 15.4L6.55 15.3L8.3 15.15L9.7 14.9L10.45 14.85L12.25 14.6L12.95 14.5L14.55 14.3L14.5 14.2L14.65 14.15L14.8 14.25L17.05 15.35L17.45 15.6L16.75 16.25Q15.1 17.55 13.05 18.2L10.35 18.7L2.45 19.75L2.35 19.8L0.6 20.05L-0.5 18.4Q-1.65 16.8 -2.05 16.8M4.9,15.1L4.9 15.2L4.7 15.4L4.65 15.25L4.9 15.1" />
<path style="fill:#FF6633;fill-opacity:1" d="M2.6,-11.25L3.3 -9.6L0.15 -9.2L0.1 -9.2L-8.35 -8.3L-9.85 -8.45L-13.1 -7.9L-16.1 -7.7L-16.15 -10.85L-15.75 -11L-13.25 -11.75L-13.15 -11.35L-13 -9.9L-10.8 -9.9Q-10.4 -10.55 -10.4 -11.1Q-10.4 -12.05 -10.8 -12.5L-6.8 -13.5L-7 -13.3Q-7 -12.1 -6.6 -10.9L-4.2 -10.9L-4.2 -13.5L-5.15 -13.85L-2.85 -14.2L-0.8 -14.3L-0.35 -14.25L-0.65 -14.25L-0.4 -11.3L1 -11.3Q1.8 -11.2 1.9 -12.55L1.9 -12.6L2.6 -11.25" />
<path style="fill:#F38D6B;fill-opacity:1" d="M-13.25,-11.75L-15.75 -11L-16.3 -12.5Q-16.3 -14.55 -9.75 -15.5L-8.5 -15.7L-2.95 -16.2L-2.85 -14.2L-2.85 -16.2L-1.75 -16.2L-0.7 -16.15L-0.6 -16.15L-0.55 -16.15Q2.6 -16.05 3.9 -15.2Q6.2 -13.95 6.05 -10L3.3 -9.6L2.6 -11.25L1.9 -12.6Q2 -13.95 1.15 -14.2L-0.35 -14.25L-0.8 -14.3L-2.85 -14.2L-5.15 -13.85L-5.8 -13.9L-6.5 -13.8L-6.8 -13.5L-10.8 -12.5Q-11.2 -12.9 -11.9 -12.9L-13.05 -12.8L-13.3 -11.9L-13.25 -11.75" />
<path style="fill:#D97979;fill-opacity:1" d="M-0.6,-16.15L-0.7 -16.15L-1.75 -16.2L-2.85 -16.2L-2.9 -16.2Q-3 -17.25 -3.45 -18Q-3.95 -18.9 -4.9 -19.45L-5.65 -19.85L-8.5 -21.35L-7.4 -21.75L-5 -21.9Q-1.75 -21.9 -1.5 -20.05L-1.5 -19.95L-1.05 -18.35L-0.95 -18.05Q-0.45 -16.9 -0.6 -16.15M-24.8,-3.7L-24.45 -5.05Q-23.8 -6.65 -21.1 -7.45L-16.1 -7.7L-13.1 -7.9L-9.85 -8.45L-8.35 -8.3L0.1 -9.2L0.15 -9.2L3.3 -9.6L6.05 -10L6.75 -10.1L10.25 -10.7L13.15 -11.3L12.6 -9.8L12.6 -9.7L11.95 -8L12.2 -7.85L11 -7.7L7.4 -7.25L4.45 -7L3.6 -7L1.25 -6.85L0.3 -6.8L-0.4 -6.75L-0.45 -6.75L-10.65 -6.1L-16.2 -5.3L-16.3 -5.3L-17.45 -5.05L-17.55 -5.05L-21.1 -4.05Q-22.9 -3.35 -24.35 -3.35L-24.6 -3.35L-24.8 -3.7" />
<path style="fill:#B15151;fill-opacity:1" d="M-4.95,5.25L-4.95 5.2L-5.2 4.35L-6.25 0.3Q-6.7 -2.7 -8.05 -3.65Q-9.05 -4.3 -11.75 -4.3L-16.05 -4L-17.2 -3.8Q-19.4 -3.35 -20.5 -2.35L-23.2 -2.4Q-24.4 -2.4 -24.6 -3.35L-24.35 -3.35Q-22.9 -3.35 -21.1 -4.05L-17.55 -5.05L-17.45 -5.05L-16.3 -5.3L-16.2 -5.3L-10.65 -6.1L-0.45 -6.75L-0.4 -6.75L0.3 -6.8L1.25 -6.85L3.6 -7L4.45 -7L7.4 -7.25L11 -7.7L12.2 -7.85L13.9 -7.15Q15.2 -6.55 15.2 -6.1L14.8 -4.4Q14.35 -3.2 14.35 -2.6Q14.35 -1.95 15.7 -1.75L16.6 -1.7L17.6 -1.7L17.3 -0.5L17.3 0.1L19.2 0.4L19 2.1L18 2.3L16.15 2.8Q15.5 2.95 14.8 4.25L13.85 5.8L13.65 5.8L11.6 6.3L10.45 6.55L9.6 6.65L7.25 7.15L2.95 7.95Q2.15 7.7 1.65 7.95L1.15 8.1L0.9 8.2L0.45 8L-1.95 7L-4.45 7.75L-4.95 5.25M4.4,0.3Q4.9 -0.25 4.9 -1L4.85 -2.5L5.4 -2.55L4.85 -2.6Q4.7 -3.85 4.35 -4.35Q3.65 -5.5 1.25 -5.5L0.35 -5.45L0.3 -5.45L-0.4 -5.45L-1.5 -5.3L-2.55 -4.85Q-3.15 -4.5 -3.15 -3.9L-3 -2.45L-2.8 -1L-2.6 0.45Q-2.55 1.7 0 1.7L1.85 1.55L3.1 1.15Q4 0.8 4.4 0.3" />
<path style="fill:#333333;fill-opacity:1" d="M1.05,-3.8Q1.25 -2.8 2.15 -2.8Q2.95 -2.8 2.95 -3.55Q2.95 -4.1 2.05 -4.3Q1.05 -4.5 1.05 -3.8M4.85,-2.5L4.9 -1Q4.9 -0.25 4.4 0.3L3.1 0L-0.4 -0.75L-1.45 -3.2Q-1.85 -4.35 -2.55 -4.85L-1.5 -5.3L-0.4 -5.45L0.3 -5.45L0.35 -5.45L1.25 -5.5Q3.65 -5.5 4.35 -4.35Q4.7 -3.85 4.85 -2.6L4.85 -2.5M-12.85,0.05L-14.45 -1.25L-15.65 -2.05L-15.95 -2.15Q-16.45 -2.15 -18.55 -0.15L-19.3 -0.6Q-19.85 -1.3 -20.6 -1.6L-21 -1.75L-20.5 -2.35Q-19.4 -3.35 -17.2 -3.8L-16.05 -4L-11.75 -4.3Q-9.05 -4.3 -8.05 -3.65Q-6.7 -2.7 -6.25 0.3L-5.2 4.35L-4.95 5.2L-4.95 5.25L-4.45 7.75L-4.4 9.15L-4.4 9.2L-5.7 8.75L-6.1 8.7L-7.15 7.05Q-7.9 5.85 -7.9 5.25L-7.45 4.25L-6.4 2.95L-9.45 -0.75Q-9.95 -1.7 -11.1 -2.3Q-13 -3.35 -13 -1L-12.8 0L-12.85 0.05" />
<path style="fill:#878686;fill-opacity:1" d="M2.05,-4.3Q2.95 -4.1 2.95 -3.55Q2.95 -2.8 2.15 -2.8Q1.25 -2.8 1.05 -3.8Q1.05 -4.5 2.05 -4.3M-10.25,-1.55Q-10.95 -1.55 -12.8 0L-13 -1Q-13 -3.35 -11.1 -2.3Q-9.95 -1.7 -9.45 -0.75L-10.25 -1.55" />
<path style="fill:#916B91;fill-opacity:1" d="M4.85,-2.5L4.85 -2.6L5.4 -2.55L4.85 -2.5" />
<path style="fill:#411B1B;fill-opacity:1" d="M16.6,-1.7L15.7 -1.75Q14.35 -1.95 14.35 -2.6Q14.35 -3.2 14.8 -4.4L15.2 -6.1Q15.2 -6.55 13.9 -7.15L12.2 -7.85L11.95 -8L12.6 -9.7L12.6 -9.8L13.9 -9.95L16.7 -9.6Q18.65 -9.1 19.15 -8.05L20.75 -9.05Q22.05 -9.8 22.75 -9.8Q23.15 -9.8 24.85 -7.55L22.05 -6.15Q20.9 -5.2 21.65 -2.65L20.35 -2.65L19.15 -3.1L18.2 -3.35Q17.6 -3.35 17.2 -2.75L16.6 -1.7M-0.5,18.4L-1.9 19.3L-3.45 18.9Q-3.8 18.9 -5.05 19.95L-6.3 21L-7.75 20.1Q-9 19.15 -9.45 19.15L-10.6 20L-12.55 21.3L-16.05 18.75Q-14.9 16.5 -14.4 16.5Q-14.2 16.5 -13.15 17.3L-11.95 18.1L-10.5 17.1L-9.15 15.85L-7.65 17.05L-6.15 18.1L-4.15 17.45L-2.05 16.8Q-1.65 16.8 -0.5 18.4" />
<path style="fill:#515151;fill-opacity:1" d="M3.1,1.15L1.85 1.55L0 1.7Q-2.55 1.7 -2.6 0.45L-2.8 -1L-3 -2.45L-3.15 -3.9Q-3.15 -4.5 -2.55 -4.85Q-1.85 -4.35 -1.45 -3.2L-0.4 -0.75L3.1 0L4.4 0.3Q4 0.8 3.1 1.15M-13.8,8.55Q-13.3 8.55 -12.65 9.7L-11.85 10.8Q-11.35 10.8 -10 9.9Q-8.7 8.95 -6.1 8.95L-6.1 8.7L-5.7 8.75L-4.4 9.2Q-4.4 11.3 -5.2 11.85Q-6.05 12.55 -9 12.65L-12.5 13.15L-16.3 13.6Q-19.15 13.6 -19.7 11.7L-20.15 9.95L-20.3 9L-20.45 8.25Q-19.6 8.5 -18.8 9.05L-17.15 10.3Q-16.65 10.3 -15.45 9.45Q-14.55 8.75 -14.05 8.6L-13.8 8.55" />
<path style="fill:#9F7A9F;fill-opacity:1" d="M-24.6,-3.35L-24.8 -3.4L-24.8 -3.7L-24.6 -3.35" />
<path style="fill:#B65C5C;fill-opacity:1" d="M-2.95,-16.2L-8.5 -15.7L-8.9 -17.25L-9.1 -18.85L-9.15 -20.3Q-9.15 -21 -8.5 -21.35L-5.65 -19.85L-4.9 -19.45Q-3.95 -18.9 -3.45 -18Q-3 -17.25 -2.9 -16.2L-2.95 -16.2" />
<path style="fill:#E9BAE9;fill-opacity:1" d="M-2.9,-16.2L-2.85 -16.2L-2.85 -14.2L-2.95 -16.2L-2.9 -16.2" />
<path style="fill:#705470;fill-opacity:1" d="M-16.3,-12.5L-15.75 -11L-16.15 -10.85L-16.3 -12.5" />
<path style="fill:#1C1B1B;fill-opacity:1" d="M-14.05,8.6L-14.15 7.65L-14.05 4.25L-15.35 3.95L-16.6 3.5L-16.6 2.3L-16 0Q-15.65 -1.2 -15.65 -2.05L-14.45 -1.25L-12.85 0.05L-12.8 0Q-10.95 -1.55 -10.25 -1.55L-9.45 -0.75L-6.4 2.95L-7.45 4.25L-7.9 5.25Q-7.9 5.85 -7.15 7.05L-6.1 8.7L-6.1 8.95Q-8.7 8.95 -10 9.9Q-11.35 10.8 -11.85 10.8L-12.65 9.7Q-13.3 8.55 -13.8 8.55L-14.05 8.6" />
<path style="fill:#9BC1E7;fill-opacity:1" d="M15.05,5.65L13.85 5.8L14.8 4.25Q15.5 2.95 16.15 2.8L18 2.3L19 2.1L20.05 1.85L20.45 1.75L20.7 2.9L18.1 3.4L17.2 3.7Q16.55 3.85 15.6 5.4L15.55 5.45L15.05 5.65M17.05,15.35L17.25 15.25L18.2 14.7L18.9 14.45L20.95 14.25Q21.6 14.1 21.8 13.35L21.8 11.6L21.85 10.6Q22.5 10.75 22.55 10.95L23.1 15.1Q22.75 15.65 20.8 15.8L17.5 15.6L17.45 15.6L17.05 15.35M4.1,9.4L3.95 9.45L3.2 9.35L0.35 11.3Q-0.2 11.75 -0.85 13.5L-1.3 14.55Q-1.85 13.9 -1.8 12.8Q-1.95 10.5 -0.8 9.45L0.9 8.2L1.15 8.1L1.65 7.95Q2.15 7.7 2.95 7.95L2.9 7.95L3 8L3.05 8L3.25 8.05L3.95 8.8L4.3 9.4L4.1 9.4" />
<path style="fill:#6699CC;fill-opacity:1" d="M19,7.3Q18.75 6.25 18.05 5.8L17.6 5.55L16.1 5.25L15.55 5.45L15.6 5.4Q16.55 3.85 17.2 3.7L18.1 3.4L20.7 2.9L20.9 3.65Q21.4 5.3 21.2 6Q21.05 6.65 19.45 7.2L19 7.3M14.8,14.25L16.05 13.9L16.5 13.7L17 13.7L18.75 13.1L19.2 12.8L19.6 11.5L19.35 10.3L19.8 10.35L21.3 10.45L21.85 10.6L21.8 11.6L21.8 13.35Q21.6 14.1 20.95 14.25L18.9 14.45L18.2 14.7L17.25 15.25L17.05 15.35L14.8 14.25M8.5,12.5L8.45 10.75L8.3 9.85Q7.95 8.3 7.6 7.7L7.25 7.15L9.6 6.65L9.8 7.2L10.35 9.35L10.55 10.45L10.65 12.35L8.5 12.5M-0.25,15.35L-1.3 14.55L-0.85 13.5Q-0.2 11.75 0.35 11.3L3.2 9.35L3.95 9.45L4.1 9.4L4.3 9.4L4.4 9.6L4.5 9.95L4.8 11.8L4.85 11.9L4.9 12.65L4 12.65L3.85 12.8L1.45 14.85L-0.25 15.35" />
<path style="fill:#BABDBF;fill-opacity:1" d="M10.45,6.55L11.6 6.3L13.65 5.8L13.85 5.8L15.05 5.65L15.55 5.45L16.1 5.25L17.6 5.55L18.05 5.8Q18.75 6.25 19 7.3L19.25 8.85L18.95 8.9L17.95 9.65L16.85 10.8Q16.45 11.2 13.5 11.85L13.5 11.9L11.75 12.3L10.65 12.35L10.55 10.45L10.35 9.35L9.8 7.2L9.6 6.65L10.45 6.55M7.25,7.15L7.6 7.7Q7.95 8.3 8.3 9.85L8.45 10.75L8.5 12.5L8.35 12.5L4.9 12.65L4.85 11.9L4.8 11.8L4.5 9.95L4.4 9.6L4.3 9.4L3.95 8.8L3.25 8.05L3.05 8L3 8L2.9 7.95L2.95 7.95L7.25 7.15" />
<path style="fill:#989898;fill-opacity:1" d="M14.65,14.15L14.5 14.2L14.55 14.3L12.95 14.5L12.25 14.6L10.45 14.85L10.65 13.1L10.65 12.35L11.75 12.3L13.5 11.9L13.5 11.85Q16.45 11.2 16.85 10.8L17.95 9.65L18.95 8.9L19.25 8.85L19.35 10.3L19.6 11.5L19.2 12.8L18.75 13.1L17 13.7L16.5 13.7L16.05 13.9L14.8 14.25L14.65 14.15M4.9,12.65L8.35 12.5L8.5 12.5L8.5 13.5L8.3 15.15L6.55 15.3L4.7 15.4L4.9 15.2L4.9 15.1L5 13.55L4.9 12.65" />
<path style="fill:#476C91;fill-opacity:1" d="M8.5,13.5L8.5 12.5L10.65 12.35L10.65 13.1L10.45 14.85L9.7 14.9L8.3 15.15L8.5 13.5M5,13.55L4.9 15.1L4.65 15.25L4.7 15.4L3.75 15.7L0.25 15.6L-0.25 15.35L1.45 14.85L3.85 12.8L4 12.65L4.9 12.65L5 13.55" />
<path style="fill:none;stroke-width:1;stroke-linecap:butt;stroke-linejoin:miter;stroke-miterlimit:3;stroke:#545353;stroke-opacity:1" d="M4.5,-20.8L-1.5 -19.95M-1.05,-18.35L4.5 -19.15M-8.9,-17.25L-17.65 -16.05M-17.65,-17.65L-9.1 -18.85" />
<path style="fill:none;stroke-width:1;stroke-linecap:butt;stroke-linejoin:miter;stroke-miterlimit:3;stroke:#742323;stroke-opacity:1" d="M-9.1,-18.85L-9.15 -20.3Q-9.15 -21 -8.5 -21.35L-7.4 -21.75L-5 -21.9Q-1.75 -21.9 -1.5 -20.05L-1.5 -19.95L-1.05 -18.35L-0.95 -18.05Q-0.45 -16.9 -0.6 -16.15M-0.35,-14.25L-0.65 -14.25L-0.4 -11.3L1 -11.3Q1.8 -11.2 1.9 -12.55L1.9 -12.6Q2 -13.95 1.15 -14.2L-0.35 -14.25M-5.15,-13.85L-4.2 -13.5L-4.2 -10.9L-6.6 -10.9Q-7 -12.1 -7 -13.3L-6.8 -13.5M-10.8,-12.5Q-10.4 -12.05 -10.4 -11.1Q-10.4 -10.55 -10.8 -9.9L-13 -9.9L-13.15 -11.35L-13.25 -11.75M-2.95,-16.2L-8.5 -15.7L-9.75 -15.5Q-16.3 -14.55 -16.3 -12.5L-16.15 -10.85L-16.1 -7.7L-13.1 -7.9L-9.85 -8.45L-8.35 -8.3L0.1 -9.2L0.15 -9.2L3.3 -9.6M19,2.1L19.2 0.4L17.3 0.1L17.3 -0.5L17.6 -1.7L16.6 -1.7L15.7 -1.75Q14.35 -1.95 14.35 -2.6Q14.35 -3.2 14.8 -4.4L15.2 -6.1Q15.2 -6.55 13.9 -7.15L12.2 -7.85L11.95 -8L12.6 -9.7L12.6 -9.8L13.15 -11.3L10.25 -10.7L6.75 -10.1L7.4 -7.25L10.45 6.55M6.75,-10.1L6.05 -10L3.3 -9.6M12.6,-9.8L13.9 -9.95L16.7 -9.6Q18.65 -9.1 19.15 -8.05L20.75 -9.05Q22.05 -9.8 22.75 -9.8Q23.15 -9.8 24.85 -7.55L22.05 -6.15Q20.9 -5.2 21.65 -2.65L20.35 -2.65L19.15 -3.1L18.2 -3.35Q17.6 -3.35 17.2 -2.75L16.6 -1.7M6.05,-10Q6.2 -13.95 3.9 -15.2Q2.6 -16.05 -0.55 -16.15L-0.6 -16.15L-0.7 -16.15L-1.75 -16.2L-2.85 -16.2M19.45,7.2L19.9 9.65L19.8 10.35M17.45,15.6L16.75 16.25Q15.1 17.55 13.05 18.2L10.35 18.7L2.45 19.75L2.35 19.8L0.6 20.05L-0.5 18.4L-1.9 19.3L-3.45 18.9Q-3.8 18.9 -5.05 19.95L-6.3 21L-7.75 20.1Q-9 19.15 -9.45 19.15L-10.6 20L-12.55 21.3L-16.05 18.75L-16.95 20.5Q-20.85 19.45 -22.15 16.3L-22.65 14.1L-22.8 13.25Q-22.75 12.05 -22.15 11.3Q-21.95 10.95 -20.15 9.95M-20.5,-2.35L-23.2 -2.4Q-24.4 -2.4 -24.6 -3.35M-24.8,-3.4L-24.8 -3.7L-24.45 -5.05Q-23.8 -6.65 -21.1 -7.45L-16.1 -7.7M1.75,21.85L1.9 21.4M13.05,18.2L12.25 14.6M-24.8,-3.7L-24.6 -3.35M-2.95,-16.2L-2.9 -16.2L-2.85 -16.2M-5.15,-13.85L-5.8 -13.9L-6.5 -13.8L-6.8 -13.5M-8.5,-15.7L-8.9 -17.25M-9.1,-18.85L-8.9 -17.25M-10.8,-12.5Q-11.2 -12.9 -11.9 -12.9L-13.05 -12.8L-13.3 -11.9L-13.25 -11.75M-16.05,18.75Q-14.9 16.5 -14.4 16.5Q-14.2 16.5 -13.15 17.3L-11.95 18.1L-10.5 17.1L-9.15 15.85L-7.65 17.05L-6.15 18.1L-4.15 17.45L-2.05 16.8Q-1.65 16.8 -0.5 18.4" />
<path style="fill:none;stroke-width:1;stroke-linecap:butt;stroke-linejoin:miter;stroke-miterlimit:3;stroke:#272727;stroke-opacity:1" d="M4.4,0.3Q4.9 -0.25 4.9 -1L4.85 -2.5L4.85 -2.6Q4.7 -3.85 4.35 -4.35Q3.65 -5.5 1.25 -5.5L0.35 -5.45L0.3 -5.45L-0.4 -5.45L-1.5 -5.3L-2.55 -4.85Q-3.15 -4.5 -3.15 -3.9L-3 -2.45L-2.8 -1L-2.6 0.45Q-2.55 1.7 0 1.7L1.85 1.55L3.1 1.15Q4 0.8 4.4 0.3M-21,-1.75L-20.5 -2.35Q-19.4 -3.35 -17.2 -3.8L-16.05 -4L-11.75 -4.3Q-9.05 -4.3 -8.05 -3.65Q-6.7 -2.7 -6.25 0.3L-5.2 4.35L-4.95 5.2L-4.95 5.25L-4.45 7.75L-4.4 9.15L-4.4 9.2Q-4.4 11.3 -5.2 11.85Q-6.05 12.55 -9 12.65L-12.5 13.15L-16.3 13.6Q-19.15 13.6 -19.7 11.7L-20.15 9.95L-20.3 9L-20.45 8.25Q-19.6 8.5 -18.8 9.05L-17.15 10.3Q-16.65 10.3 -15.45 9.45Q-14.55 8.75 -14.05 8.6L-14.15 7.65L-14.05 4.25L-15.35 3.95L-16.6 3.5L-16.6 2.3L-16 0Q-15.65 -1.2 -15.65 -2.05L-15.95 -2.15Q-16.45 -2.15 -18.55 -0.15L-19.3 -0.6Q-19.85 -1.3 -20.6 -1.6M-15.65,-2.05L-14.45 -1.25L-12.85 0.05L-12.8 0Q-10.95 -1.55 -10.25 -1.55L-9.45 -0.75L-6.4 2.95L-7.45 4.25L-7.9 5.25Q-7.9 5.85 -7.15 7.05L-6.1 8.7L-6.1 8.95Q-8.7 8.95 -10 9.9Q-11.35 10.8 -11.85 10.8L-12.65 9.7Q-13.3 8.55 -13.8 8.55L-14.05 8.6" />
<path style="fill:none;stroke-width:1;stroke-linecap:butt;stroke-linejoin:miter;stroke-miterlimit:3;stroke:#2C2C2C;stroke-opacity:1" d="M10.45,6.55L11.6 6.3L13.65 5.8L13.85 5.8L14.8 4.25Q15.5 2.95 16.15 2.8L18 2.3L19 2.1L20.05 1.85L20.45 1.75L20.7 2.9L20.9 3.65Q21.4 5.3 21.2 6Q21.05 6.65 19.45 7.2M19.8,10.35L21.3 10.45L21.85 10.6Q22.5 10.75 22.55 10.95L23.1 15.1Q22.75 15.65 20.8 15.8L17.5 15.6L17.45 15.6M13.85,5.8L15.05 5.65L15.55 5.45L16.1 5.25L17.6 5.55L18.05 5.8Q18.75 6.25 19 7.3L19.45 7.2M19.8,10.35L19.35 10.3L19.6 11.5L19.2 12.8L18.75 13.1L17 13.7L16.5 13.7L16.05 13.9L14.8 14.25L17.05 15.35L17.45 15.6M19.35,10.3L19.25 8.85L19 7.3M4.3,9.4L3.95 8.8L3.25 8.05L3.05 8L3 8L2.9 7.95L2.95 7.95Q2.15 7.7 1.65 7.95L1.15 8.1L0.9 8.2L-0.8 9.45Q-1.95 10.5 -1.8 12.8Q-1.85 13.9 -1.3 14.55M4.3,9.4L4.4 9.6L4.5 9.95L4.8 11.8L4.85 11.9L4.9 12.65M10.45,6.55L9.6 6.65L7.25 7.15L2.95 7.95L3 8M8.3,15.15L9.7 14.9L10.45 14.85L12.25 14.6L12.95 14.5L14.55 14.3L14.5 14.2L14.65 14.15L14.8 14.25L14.55 14.3M8.3,15.15L6.55 15.3L4.7 15.4L3.75 15.7L0.25 15.6L-0.25 15.35L-1.3 14.55M4.9,15.1L4.9 15.2L4.7 15.4L4.65 15.25L4.9 15.1L5 13.55L4.9 12.65" />
</g>
</svg>
