<?xml version="1.0" encoding="utf-8"?>
<svg version="1.1" id="Layer_1"
xmlns="http://www.w3.org/2000/svg"
xmlns:xlink="http://www.w3.org/1999/xlink"
xmlns:author="http://www.sothink.com"
width="43px" height="35px"
xml:space="preserve">
<g id="183" transform="matrix(1, 0, 0, 1, 22, 19.55)">
<path style="fill:#333333;fill-opacity:1" d="M-12.1,-5.85Q-10.2 -5.75 -9.5 -5.2Q-8.55 -4.4 -8.45 -2.05L-7.9 1.1L-7.55 3.75L-7.6 4.85L-7.6 4.9L-8.5 4.5L-11.1 4.35L-13.15 3.9Q-14.1 3.6 -14.95 2.85Q-16.2 1.85 -16.95 -1.65Q-17.45 -3.8 -18.85 -4.4L-18.45 -4.85Q-16.8 -6.2 -12.1 -5.85M-11.45,-0.3Q-10.8 -0.25 -10.6 -0.95L-10.5 -1.9Q-10.4 -3.45 -11.7 -4.3Q-13.05 -5.2 -13.15 -3.4Q-12.9 -0.4 -11.45 -0.3" />
<path style="fill:#9F7A9F;fill-opacity:1" d="M-21.45,-6.1L-21.35 -5.8L-21.5 -5.85L-21.45 -6.1" />
<path style="fill:#705470;fill-opacity:1" d="M-14.85,-11.15L-14.85 -12.4L-14.55 -11.25L-14.85 -11.15" />
<path style="fill:#878686;fill-opacity:1" d="M-13.15,-3.4Q-13.05 -5.2 -11.7 -4.3Q-10.4 -3.45 -10.5 -1.9L-10.6 -0.95Q-10.8 -0.25 -11.45 -0.3Q-12.9 -0.4 -13.15 -3.4" />
<path style="fill:#383737;fill-opacity:1" d="M-19.3,-3.25L-18.85 -4.4Q-17.45 -3.8 -16.95 -1.65Q-16.2 1.85 -14.95 2.85Q-14.1 3.6 -13.15 3.9L-11.1 4.35L-8.5 4.5L-7.6 4.9Q-7.7 6.5 -8.35 6.85Q-9 7.35 -11.1 7.25L-13.6 7.5L-16.35 7.65Q-18.4 7.5 -18.7 6L-18.9 4.65L-19 3.95L-19.1 2.25L-19.25 -0.9L-19.25 -2.1L-19.3 -3.25" />
<path style="fill:#BBB9B9;fill-opacity:1" d="M-9.15,-14.45Q-9.5 -15.95 -9.35 -18L-8.8 -18.8L-6.85 -17.5Q-5.15 -16.5 -5.1 -14.5L-9.15 -14.45" />
<path style="fill:#C63333;fill-opacity:1" d="M-14.55,-11.25Q-8.55 -12.8 -5.2 -12.95L-3.7 -12.95Q-2.15 -12.85 -1.45 -10.45L-1.05 -9.15L-3.3 -9.05L-3.35 -9.05L-9.45 -8.8L-10.5 -8.95L-12.85 -8.7L-15 -8.7L-14.85 -11.15L-14.55 -11.25M8.3,10.2L7.15 11.35Q5.1 12.85 2.4 12.95L-3.3 13.3L-3.4 13.35L-8.35 13.55L-15.95 13.25Q-18.25 12.75 -19.5 11.4L-16.95 11.55L-11.65 11.35L-5.9 11.15L-0.2 11.15L3.55 10.65L8.1 10.2L8.3 10.2M15.2,-5.5L16.9 -1.65L16.75 -1.6L15.7 -1.3Q15.4 -1.35 14.3 -2.95L13.1 -4.65L15.2 -5.5" />
<path style="fill:#E26161;fill-opacity:1" d="M-1.45,-10.45Q-2.15 -12.85 -3.7 -12.95L-5.2 -12.95Q-8.55 -12.8 -14.55 -11.25L-14.85 -12.4Q-14.75 -13.95 -10 -14.35L-9.15 -14.45L-5.1 -14.5L-4.25 -14.45L-3.45 -14.35L-3.4 -14.35Q-1.15 -14.1 -0.25 -13.4Q1.25 -12.3 1 -9.35L-1.05 -9.15L-1.45 -10.45M9.25,8.5L8.3 10.2L8.1 10.2L3.55 10.65L-0.2 11.15L-5.9 11.15L-11.65 11.35L-16.95 11.55L-19.5 11.4L-20.5 9.85Q-6.55 10.5 9.25 8.5M17.2,-6.2L17.6 -4.15L17.8 -1.85L16.9 -1.65L15.2 -5.5L16.65 -6.1L17.2 -6.2" />
<path style="fill:#FFFFFF;fill-opacity:1" d="M17.4,-11.7Q19.15 -11.7 19.6 -11.3L19.95 -10.6Q17.7 -10.55 15.9 -9.7Q12.9 -8.25 9.3 -7.8L8.95 -7.8L4.4 -7.3L-0.35 -7.1L-1 -7.15L-3.35 -7.2L-11.2 -7.2L-16.2 -6.8L-18.8 -6.15L-21.15 -5.8L-21.35 -5.8L-21.45 -6.1L-21.15 -7.15Q-20.55 -8.3 -18.6 -8.75L-15 -8.7L-12.85 -8.7L-10.5 -8.95L-9.45 -8.8L-3.35 -9.05L-3.3 -9.05L-1.05 -9.15L1 -9.35L4.05 -9.65L8.65 -10.35L17.4 -11.7M-4.25,-14.45L-5.1 -14.5Q-5.15 -16.5 -6.85 -17.5L-8.8 -18.8L-8 -19.05L-6.3 -19Q-3.95 -18.85 -3.9 -17.45L-3.6 -15.85Q-3.35 -14.95 -3.45 -14.35L-4.25 -14.45" />
<path style="fill:#E5E3E3;fill-opacity:1" d="M-18.45,-4.85L-20.4 -5Q-21.25 -5.1 -21.35 -5.8L-21.15 -5.8L-18.8 -6.15L-16.2 -6.8L-11.2 -7.2L-3.35 -7.2L-1 -7.15L-0.35 -7.1L4.4 -7.3L8.95 -7.8L9.3 -7.8Q12.9 -8.25 15.9 -9.7Q17.7 -10.55 19.95 -10.6L20.1 -8.95Q20.1 -7.55 17.2 -6.3L16.65 -6.1L15.2 -5.5L13.1 -4.65L11.95 -4.05L10.75 -2.7Q9.55 -1 9.45 1.25L9.45 2.2L9.5 3.1L9.4 3.1L9.35 3.1L8.25 3.25Q7.05 3.6 5.55 4.95Q3.5 6.95 1.7 6.8Q0.55 6.7 -2.55 5.05L-4.1 4.2Q-5.65 3.35 -5.7 3.35L-7.55 3.75L-7.9 1.1L-8.45 -2.05Q-8.55 -4.4 -9.5 -5.2Q-10.2 -5.75 -12.1 -5.85Q-16.8 -6.2 -18.45 -4.85" />
<path style="fill:#C9C5C5;fill-opacity:1" d="M-20.5,9.85L-20.7 9.4L-20.9 7.65L-20.95 7Q-20.85 6.05 -20.4 5.6Q-20.25 5.35 -18.9 4.65L-18.7 6Q-18.4 7.5 -16.35 7.65L-13.6 7.5L-11.1 7.25Q-9 7.35 -8.35 6.85Q-7.7 6.5 -7.6 4.9L-7.6 4.85L-7.55 3.75L-5.7 3.35Q-5.65 3.35 -4.1 4.2L-2.55 5.05Q0.55 6.7 1.7 6.8Q3.5 6.95 5.55 4.95Q7.05 3.6 8.25 3.25L9.35 3.1L9.4 3.1L9.5 3.1L9.75 6.55L9.25 8.5Q-6.55 10.5 -20.5 9.85" />
<path style="fill:none;stroke-width:1;stroke-linecap:butt;stroke-linejoin:miter;stroke-miterlimit:3;stroke:#4D4B4B;stroke-opacity:1" d="M9.3,-7.8L8.65 -10.35L4.05 -9.65L1 -9.35L-1.05 -9.15L-3.3 -9.05L-3.35 -9.05L-9.45 -8.8L-10.5 -8.95L-12.85 -8.7L-15 -8.7L-18.6 -8.75Q-20.55 -8.3 -21.15 -7.15L-21.45 -6.1L-21.35 -5.8M-21.5,-5.85L-21.45 -6.1M16.65,-6.1L17.2 -6.3Q20.1 -7.55 20.1 -8.95L19.95 -10.6L19.6 -11.3Q19.15 -11.7 17.4 -11.7L8.65 -10.35M16.65,-6.1L15.2 -5.5L13.1 -4.65L11.95 -4.05L10.75 -2.7Q9.55 -1 9.45 1.25L9.45 2.2L9.5 3.1L9.75 6.55L9.25 8.5L8.3 10.2L7.15 11.35Q5.1 12.85 2.4 12.95L-3.3 13.3L-3.4 13.35L-8.35 13.55L-15.95 13.25Q-18.25 12.75 -19.5 11.4L-20.5 9.85L-20.7 9.4L-20.9 7.65L-20.95 7Q-20.85 6.05 -20.4 5.6Q-20.25 5.35 -18.9 4.65L-19 3.95L-19.1 2.25L-19.25 -0.9L-19.25 -2.1L-19.35 -2.4L-19.35 -3.1L-19.3 -3.25L-18.85 -4.4L-18.45 -4.85L-20.4 -5Q-21.25 -5.1 -21.35 -5.8M13.1,-4.65L14.3 -2.95Q15.4 -1.35 15.7 -1.3L16.75 -1.6L16.9 -1.65L17.8 -1.85L17.6 -4.15L17.2 -6.2M9.3,-7.8L10.75 -2.7M-7.55,3.75L-7.6 4.85L-7.6 4.9Q-7.7 6.5 -8.35 6.85Q-9 7.35 -11.1 7.25L-13.6 7.5L-16.35 7.65Q-18.4 7.5 -18.7 6L-18.9 4.65M-5.1,-14.5L-9.15 -14.45Q-9.5 -15.95 -9.35 -18L-8.8 -18.8L-8 -19.05L-6.3 -19Q-3.95 -18.85 -3.9 -17.45L-3.6 -15.85Q-3.35 -14.95 -3.45 -14.35L-3.4 -14.35Q-1.15 -14.1 -0.25 -13.4Q1.25 -12.3 1 -9.35M-5.1,-14.5L-4.25 -14.45L-3.45 -14.35M-9.15,-14.45L-10 -14.35Q-14.75 -13.95 -14.85 -12.4M-15,-8.7L-14.85 -11.15L-14.85 -12.4M-19.25,-2.1L-19.3 -3.25M-7.55,3.75L-7.9 1.1L-8.45 -2.05Q-8.55 -4.4 -9.5 -5.2Q-10.2 -5.75 -12.1 -5.85Q-16.8 -6.2 -18.45 -4.85M9.25,8.5Q-6.55 10.5 -20.5 9.85" />
<path style="fill:#C63333;fill-opacity:1" d="M-1.55,-4.35L-0.15 -4.6L0.9 -4.15Q1.55 -3.65 1.65 -2.85Q1.75 -2.05 2.1 -1.75Q2.45 -1.45 3.3 -1.45Q4.4 -1.4 4.4 0.75L4.45 1.85L3.95 1.7L3.1 1.7L3.1 4.3L-0.6 4.25Q-1.55 4.15 -1.7 3.65L-1.7 2.7Q-1.55 1.95 -2.2 1.85L-3.45 1.65Q-3.9 1.4 -3.9 0.5L-4.1 -1.2Q-4.3 -2.05 -4.1 -2.4L-1.45 -2.65L-1.55 -4.1L-1.55 -4.35" />
<path style="fill:#E26161;fill-opacity:1" d="M4.4,0.75Q4.4 -1.4 3.3 -1.45Q2.45 -1.45 2.1 -1.75Q1.75 -2.05 1.65 -2.85Q1.55 -3.65 0.9 -4.15L-0.15 -4.6L-1.55 -4.35L-1.45 -5.4Q-1.25 -5.9 -0.3 -5.8L2.55 -5.85Q3.25 -5.85 3.3 -4.65L3.3 -2.85L4.8 -2.95Q5.65 -2.95 5.85 -2L5.85 -0.2L5.85 1.2Q5.7 1.9 5 1.9L4.45 1.85L4.4 0.75" />
<path style="fill:none;stroke-width:1;stroke-linecap:butt;stroke-linejoin:miter;stroke-miterlimit:3;stroke:#434141;stroke-opacity:1" d="M4.45,1.85L5 1.9Q5.7 1.9 5.85 1.2L5.85 -0.2L5.85 -2Q5.65 -2.95 4.8 -2.95L3.3 -2.85L3.3 -4.65Q3.25 -5.85 2.55 -5.85L-0.3 -5.8Q-1.25 -5.9 -1.45 -5.4L-1.55 -4.35M4.45,1.85L3.95 1.7L3.1 1.7L3.1 4.3L-0.6 4.25Q-1.55 4.15 -1.7 3.65L-1.7 2.7Q-1.55 1.95 -2.2 1.85L-3.45 1.65Q-3.9 1.4 -3.9 0.5L-4.1 -1.2Q-4.3 -2.05 -4.1 -2.4L-1.45 -2.65L-1.55 -4.1L-1.55 -4.35" />
</g>
</svg>
