<?xml version="1.0" encoding="utf-8"?>
<svg version="1.1" id="Layer_1"
xmlns="http://www.w3.org/2000/svg"
xmlns:xlink="http://www.w3.org/1999/xlink"
xmlns:author="http://www.sothink.com"
width="252px" height="252px"
xml:space="preserve">
<g id="236" transform="matrix(1, 0, 0, 1, 126, 126)">
<radialGradient
id="RadialGradID_30" gradientUnits="userSpaceOnUse" gradientTransform="matrix(0.175797, 0, 0, 0.175797, -1.5, -2)" spreadMethod ="pad" cx="0" cy="0" r="819.2" fx="0" fy="0" >
<stop  offset="0"  style="stop-color:#FFFFFF;stop-opacity:0.309804" />
<stop  offset="0.854902"  style="stop-color:#FFFFFF;stop-opacity:0" />
</radialGradient>
<path style="fill:url(#RadialGradID_30) " d="M68.7,-104.9L69.7 -104.3L78.95 -98.35L4.6 -3.45L4.5 -2.4L4.6 -2.35L98.5 -74.7Q105.15 -66.65 110.7 -57.25L113.35 -52.55L116.4 -46.55L7.55 -1.1L11.5 0.55L124.4 -13.2Q126.05 -2.9 126 8.05Q125.95 14.2 125.4 20.15L24.1 5.85L116.6 44.7L115.05 48.7L112 55.45L109.2 60.75L107.45 63.9Q104.35 69.3 100.9 74.2L10.25 3.9L6.6 3.35L79.25 96.7Q71.3 103.35 61.85 108.95Q56.55 112.15 51.15 114.7L5.45 6.55L20.4 124.35Q10.1 126 -0.85 126L-13 125.5L3.75 2.95L0 2.4L-0.35 2.8L-49.2 117.6Q-53.8 115.4 -58.4 112.7L-61.05 111.1L-66.55 107.6Q-71.75 104.05 -76.45 100.1L-0.35 2.8L-0.15 2.4L-0.75 2.35L-2.2 2.9L-100.95 79.1Q-103.9 74.95 -106.65 70.35L-108.15 67.6Q-112.9 59.15 -116.25 50.45L-2.2 2.9L-1.35 2.25L-1.85 2.15L-125.65 17.3Q-126.05 12.15 -126 6.85L-125.95 3.7Q-125.75 -6 -124.15 -15.15L-1.85 2.15L-1.15 2.1L0.5 0.8L3.8 -6.75L-11.3 -125.55L-0.85 -126Q10.5 -126 21.15 -124.2L5.7 -11.3L49.5 -114.15Q59.25 -110.4 68.7 -104.9M2.45,-0.7L3.4 -1.4L3.15 -1.6L2.45 -0.7M3.95,-2.65L4.3 -2.45L4.25 -3L3.95 -2.65M0.4,1.9L3.35 1.55L3 0.75L0.4 1.9M6.7,1.15L5.1 -0.1L4.6 0.1L4.75 0.95L5 1.35L6.7 1.15M-51.55,-115.6L-46.9 -117.5L1.15 -3.65L-75.5 -102.05Q-71.3 -105.05 -66.75 -107.75Q-62.8 -110.1 -58.8 -112.05Q-55.15 -113.8 -51.55 -115.6M-110.8,-62.1Q-105.1 -71.95 -102.4 -76.1L-101.05 -76.55L-0.65 -4.55L-117.45 -46.8L-115.65 -52.85L-110.8 -62.1" />
</g>
</svg>
