<?xml version="1.0" encoding="utf-8"?>
<svg version="1.1" id="Layer_1"
xmlns="http://www.w3.org/2000/svg"
xmlns:xlink="http://www.w3.org/1999/xlink"
xmlns:author="http://www.sothink.com"
width="141px" height="142px"
xml:space="preserve">
<g id="83" transform="matrix(1, 0, 0, 1, 61.3, -46.5)">
<path style="fill:#746127;fill-opacity:1" d="M35.95,88.85Q34.45 99.4 34.45 104.35Q34.45 113.45 36.1 117.15Q37.2 119.65 39.7 120.35Q42.55 121.15 43.25 122.05Q44.9 124.1 44.9 130.4Q44.9 135.25 42.3 139.8Q38.4 146.6 30.35 146.6Q25.9 146.6 21.05 141.35Q15.85 135.7 15.85 129.2Q15.85 127.15 18.7 121.65L19.15 120.8L21.45 116.75L22.85 116.25Q27.65 115.15 28.6 114Q30.25 112.1 30.6 107.7Q31.05 101.5 31.2 100.95Q32.15 97.2 33.5 88.35Q34.8 79.5 35.75 75.75L37.75 76L35.95 88.85M-29.85,79.95L-29.85 76.75L-25.3 77.4L-22 105.5Q-21.25 111.45 -17.75 116.3Q-15.8 118.55 -14.25 121.05Q-11.2 125.9 -11.2 130Q-11.2 140.7 -24.95 140.7Q-32.6 140.7 -36.05 135.5Q-38.65 131.55 -38.65 125.1Q-38.65 121.55 -38.35 120.2L-38.15 120.15L-38 119.85Q-37.45 121.15 -36.5 121.45L-34 121.55Q-29.1 121.55 -27.9 116.95Q-27.55 115.55 -27.55 109.7Q-27.55 103.7 -28.4 95.05L-29.85 79.95" />
<path style="fill:none;stroke-width:1;stroke-linecap:butt;stroke-linejoin:miter;stroke-miterlimit:3;stroke:#784B21;stroke-opacity:1" d="M37.75,76L37.75 75.75L35.75 75.75Q34.8 79.5 33.5 88.35Q32.15 97.2 31.2 100.95Q31.05 101.5 30.6 107.7Q30.25 112.1 28.6 114Q27.65 115.15 22.85 116.25L21.45 116.75L19.15 120.8L18.7 121.65Q15.85 127.15 15.85 129.2Q15.85 135.7 21.05 141.35Q25.9 146.6 30.35 146.6Q38.4 146.6 42.3 139.8Q44.9 135.25 44.9 130.4Q44.9 124.1 43.25 122.05Q42.55 121.15 39.7 120.35Q37.2 119.65 36.1 117.15Q34.45 113.45 34.45 104.35Q34.45 99.4 35.95 88.85L37.75 76M19.15,120.8Q19.2 117.9 21.45 116.75L22.05 115.95M-29.85,79.95L-29.85 76.75L-25.3 77.4L-22 105.5Q-21.25 111.45 -17.75 116.3Q-15.8 118.55 -14.25 121.05Q-11.2 125.9 -11.2 130Q-11.2 140.7 -24.95 140.7Q-32.6 140.7 -36.05 135.5Q-38.65 131.55 -38.65 125.1Q-38.65 121.55 -38.35 120.2L-38.15 120.15L-38 119.85Q-37.45 121.15 -36.5 121.45L-34 121.55Q-29.1 121.55 -27.9 116.95Q-27.55 115.55 -27.55 109.7Q-27.55 103.7 -28.4 95.05L-29.85 79.95" />
<path style="fill:#8C8CB6;fill-opacity:1" d="M11.25,79.05Q11.25 80.7 14.8 80.7Q16.55 80.7 16.55 79.5L16.55 79.3L17.35 79.2L21.5 79.3L23.85 78.95Q24.25 78.7 24.25 78.05Q24.25 77.2 23.1 77L21.05 76.75L17.9 76.7L15.3 76.6L12.5 76.35L5.45 75.75Q2.2 75.65 2.2 77.65L2.3 78.3Q2.45 78.7 3.3 79.05L8.5 79.05L8.8 78.9L11.25 78.9L11.25 79.05M5.35,81.05Q4.55 81.1 4.05 81.45Q3.2 81.85 3.2 83L3.2 83.05L3.2 83.25L3.2 83.35Q2.85 83.9 2.65 84.7L2.6 84.7Q1.7 84.75 0.8 83.75L0.25 83.2L0.2 80.1L0.2 79.2L0.25 78.05Q0.6 74.55 3.3 74.8L14.25 75.4L22.85 75.75L24 75.75Q24.7 76.15 25.15 77.25L25.2 77.3L25.25 77.4L25.6 78.9L25.6 79.65L25.55 81.15L25.5 85.2L24.05 85.5L22.7 85.45L18.5 84.85L15.6 84.35Q14.9 82.85 14.25 82.35Q13.1 81.45 8.3 81.4L7.15 81.35L6.75 81.35Q6.2 81 5.35 81.05M19.9,83.6Q20.45 84.7 21.95 84.7Q22.9 84.7 23.55 83.65L24 82.4Q24 80.3 21.25 80.55Q20.15 80.75 19.8 81.35Q19.65 81.65 19.65 82.4L19.9 83.6M30.25,83.7L27.85 83.95L27.85 82.2L27.85 80.95L27.75 79.05L28.9 79.05Q30.25 79.35 30.45 79.7L30.55 81.3L30.55 83.75L30.25 83.7M30.05,81.3L30.15 80.65Q30.15 79.8 29.25 79.6Q28.35 79.5 28.35 80.6L28.45 81.1Q28.65 81.65 29.3 81.65Q29.9 81.65 30.05 81.3M13.55,152.25L13.5 143.3L13.75 143.15L14.85 143.2L18 143.1L20.65 143L20.75 143L21.45 143.25Q23.35 144.15 23.55 146.25L23.6 152.5L21.25 152.3L18.05 152.05L16.95 152.05L14.05 152.2L13.55 152.25M11.2,120.9L12.05 122.55L12.65 124.05L11.65 124.85L11.35 124.4Q10.35 123.05 8.5 123.05L6.9 123.5L2.5 125L3.2 121.75L9.15 119.3L10 118.85L11.1 120.75L11.2 120.9M-0.05,124.9L0.3 125.7L-3.5 126.95L-6.2 127.75L-5.75 125.4L-0.8 123.4L-0.05 124.9M-8.65,138.95Q-8.35 137.5 -7.25 137.15L-3.4 136.95L0.25 136.6L0.6 136.55L1.55 136.45L1.25 136.15Q0.7 135.3 0.7 134.55Q0.7 134 1 133.35Q1.55 132.5 2.7 131.4Q4.2 130.05 5.35 129.7Q5.05 130.5 5.05 131.3L5.05 131.4Q5.1 132.45 5.7 133.35L6.5 134.25L8.85 136.15L9.45 136.2Q11.6 136.35 12.9 137Q13.85 137.5 14.35 138.3L14.35 139.4L10.3 138.95L4.85 138.5L2.25 138.55L-7.35 139.05L-8.7 139.15L-8.65 138.95M2.3,144.7L2.7 144.7L2.7 144.75L2.3 144.7M5.4,145.65L5.4 145.4L5.25 144.9Q4.9 144.45 3.45 144.3L-0.7 144.1Q-1.2 144.2 -1.2 144.8L-1.1 145.2Q-0.9 145.4 -0.8 145.9L-0.8 146.2L-0.65 146.5Q-0.5 146.8 0.5 146.85L3.75 146.95Q5.05 146.95 5.35 146.35L5.4 146.05L5.4 145.65M6,145.45L6.1 148.95Q6.05 150.5 5.3 151.35Q4.35 152.35 2.4 152.35L-1.9 152.25L-1.9 150.05L-1.9 149.35L-1.9 148.85L-1.9 148.65L-1.8 143.5L-1.6 143.45Q1.3 143.25 5.45 143.4L6.1 143.4L6 145.45M14.6,145.95Q15.2 147.15 16.85 146.7Q17.2 146.5 17.2 145.65Q17.2 144.2 15.75 144.1Q14.3 144 14.3 144.55Q14.3 145.35 14.6 145.95M18.85,144.5L18.65 145.05L18.85 146.2Q19.45 147.05 21.8 147.05Q22.45 147.05 22.45 146.1Q22.45 145.1 21.05 144.65L19.6 144.35L18.85 144.5M-12.35,146.15Q-12 144.05 -10.75 143.85L-9.45 143.85L-9.65 148L-9.65 151.05Q-9.8 153 -10.65 153Q-11.7 153 -12.5 152L-12.75 151.55L-12.8 150.2L-12.6 148.55L-12.55 148.05L-12.55 147.35L-12.5 146.95L-12.35 146.15M-10.7,146.5Q-10.15 146.5 -10.15 145.5Q-10.15 144.6 -10.75 144.5Q-11.35 144.4 -11.35 145.6Q-11.35 146.5 -10.7 146.5M-0.35,145.95L0.05 146.3L-0.05 146.3L-0.35 145.95" />
<path style="fill:#B7B7DE;fill-opacity:1" d="M13.95,77.45Q11.35 77.15 11.25 78.9L8.8 78.9L8.5 79.05L3.3 79.05Q2.45 78.7 2.3 78.3L2.2 77.65Q2.2 75.65 5.45 75.75L12.5 76.35L15.3 76.6L17.9 76.7L21.05 76.75L23.1 77Q24.25 77.2 24.25 78.05Q24.25 78.7 23.85 78.95L21.5 79.3L17.35 79.2L16.55 79.3Q16.35 77.75 13.95 77.45M29.3,81.65Q28.65 81.65 28.45 81.1L28.35 80.6Q28.35 79.5 29.25 79.6Q30.15 79.8 30.15 80.65L30.05 81.3Q29.9 81.65 29.3 81.65M2.7,144.75L2.7 144.7L2.3 144.7L2.7 144.75M5.4,146.05L5.35 146.35Q5.05 146.95 3.75 146.95L0.5 146.85Q-0.5 146.8 -0.65 146.5L-0.8 146.2L-0.8 145.9Q-0.9 145.4 -1.1 145.2L-1.2 144.8Q-1.2 144.2 -0.7 144.1L3.45 144.3Q4.9 144.45 5.25 144.9L5.4 145.4L5.4 145.65L5.4 146.05M14.3,144.55Q14.3 144 15.75 144.1Q17.2 144.2 17.2 145.65Q17.2 146.5 16.85 146.7Q15.2 147.15 14.6 145.95Q14.3 145.35 14.3 144.55M19.6,144.35L21.05 144.65Q22.45 145.1 22.45 146.1Q22.45 147.05 21.8 147.05Q19.45 147.05 18.85 146.2L18.65 145.05L18.85 144.5L19.6 144.35M-11.35,145.6Q-11.35 144.4 -10.75 144.5Q-10.15 144.6 -10.15 145.5Q-10.15 146.5 -10.7 146.5Q-11.35 146.5 -11.35 145.6M-0.05,146.3L0.05 146.3L-0.35 145.95L-0.05 146.3" />
<path style="fill:#595980;fill-opacity:1" d="M16.55,79.3L16.55 79.5Q16.55 80.7 14.8 80.7Q11.25 80.7 11.25 79.05L11.25 78.9Q11.35 77.15 13.95 77.45Q16.35 77.75 16.55 79.3M13.8,78.75L13 78.9Q12.65 79.1 12.65 79.5Q12.65 80.3 14.1 80.3Q14.95 80.3 14.95 79.55L14.9 79.3Q14.75 78.75 13.8 78.75M6.75,81.35Q4.7 81.5 3.6 82.75L3.2 83.35L3.2 83.25L3.2 83.05L3.2 83Q3.2 81.85 4.05 81.45Q4.55 81.1 5.35 81.05Q6.2 81 6.75 81.35M19.65,82.4Q19.65 81.65 19.8 81.35Q20.15 80.75 21.25 80.55Q24 80.3 24 82.4L23.55 83.65Q22.9 84.7 21.95 84.7Q20.45 84.7 19.9 83.6L19.65 82.4M20.85,82.75L21 83.3Q21.25 83.85 21.95 83.85Q22.4 83.85 22.7 83.4L22.85 82.8Q22.85 81.95 21.85 81.9Q20.85 81.85 20.85 82.75" />
<path style="fill:#3D3D5F;fill-opacity:1" d="M14.9,79.3L14.95 79.55Q14.95 80.3 14.1 80.3Q12.65 80.3 12.65 79.5Q12.65 79.1 13 78.9L13.8 78.75Q14.75 78.75 14.9 79.3M21.85,81.9Q22.85 81.95 22.85 82.8L22.7 83.4Q22.4 83.85 21.95 83.85Q21.25 83.85 21 83.3L20.85 82.75Q20.85 81.85 21.85 81.9" />
<path style="fill:#ECECF7;fill-opacity:1" d="M6.75,81.35L7.15 81.35L8.3 81.4Q13.1 81.45 14.25 82.35Q14.9 82.85 15.6 84.35Q16.45 86.25 17.3 89.8L17.45 90.45L18.1 93.55Q17.45 94.35 17.1 95.1Q16.55 96.25 16.55 97.4Q16.55 99 17.15 100.3L16.85 101.55L16.8 101.8L16.35 100.45L16 99.1Q15.05 95.4 14.4 90.2L14.3 89.6L14.2 88.8L13.9 87.65L13.2 86.2L12.85 85.8L12.05 85.05L11.3 84.65Q10.1 84.15 8.2 84L7.55 83.95L6.55 83.85L4.5 83.4L4.4 83.35L3.6 82.75Q4.7 81.5 6.75 81.35M-1.65,95.85L-1.2 96.15L-2.15 97.45L-4.1 97.3L-5.85 97L-6.5 96.75L-6.25 95.85Q-5.9 95.3 -5.4 95.3L-4.65 95.4L-1.65 95.85M19.1,105.05L19.55 102.75L19.6 102.8L19.9 105.05L19.1 105.05M35.2,133.25L34.25 134.4Q32.35 133.2 31.75 133.1L28 133L24.3 132.85L11.85 131.6L10 131.5L8.7 131.5L5.05 131.4L5.05 131.3Q5.05 130.5 5.35 129.7L5.45 129.45L8.85 129.25L14.25 129.6L20.35 129.85Q23.05 129.65 24.85 129.8L25.1 129.9L25.1 129.85L26.7 129.9L32.2 130.45L33.2 130.7Q33.9 131 34.4 131.6Q34.95 132.25 35.2 133.25M58.2,118L58.2 118.2L59.5 125.75L58.7 125.4L56.35 124.35L55.65 118.35L55.45 116L55.4 115.85Q54.3 109.4 50.15 109.4L46 109.65Q44.85 109.55 44.15 108.9L45.25 108.1Q46.75 107.25 49.1 107.25L50.35 107.3Q54.9 107.4 55.95 108.85L56.45 110.1L57.75 115.75L58.2 118M-10.1,131.2L-8.05 130.35L-7.15 131.6L-7.75 131.6L-9.25 131.6Q-14.35 131.45 -15.9 130.5Q-15.9 128.6 -11.1 128.6L-10.1 131.2M21.85,96.1Q21.85 95.05 22.75 95.55Q23.7 96.05 23.7 96.8Q23.7 97.25 23.2 97.25Q22.7 97.25 22.2 96.7L21.85 96.1M-8.45,94.85L-9.5 96.8Q-10.6 98.85 -10.6 100Q-10.6 100.45 -9.45 100.9Q-8.3 101.3 -8.3 101.6Q-8.3 102.3 -9.95 102.3Q-11.05 102.3 -11.5 101.2L-11.75 100.1Q-11.75 97.9 -10.1 95.65Q-8.45 93.4 -8.45 94.85M-3.95,131.5L-3.4 131.3L-3.4 131.5L-3.95 131.5" />
<path style="fill:#C3C3E2;fill-opacity:1" d="M7.65,86.8L7.5 87.1L7.25 87.65Q6.8 87.8 6.45 88.1Q5.6 88.75 5.6 89.75Q5.6 90.6 5.95 91.3Q6.3 92 7 92.55Q8.2 93.5 9.65 93.5Q11.75 93.5 11.75 91.55L11.75 90.6L11.8 90.55L12.15 90.15L12.85 88.95L12.95 88.15L12.9 87.6L12.55 86.9L11.9 86.4L11.7 86.3L9.75 85.9L8.45 86.2Q8 86.4 7.65 86.8M14.35,99.9Q13.3 99.45 12.4 98.65Q11.6 97.95 9.4 97.75L5.85 97.35Q3.7 96.8 3.3 92.45L3.25 92.3L3.15 91.45Q2.8 89.6 2 88.6L2.5 85.2L2.65 84.7Q2.85 83.9 3.2 83.35L3.6 82.75L4.4 83.35L4.5 83.4L6.55 83.85L7.55 83.95L8.2 84Q10.1 84.15 11.3 84.65L12.05 85.05L12.85 85.8L13.2 86.2L13.9 87.65L14.2 88.8L14.3 89.6L14.4 90.2Q15.05 95.4 16 99.1L16.35 100.45L14.35 99.9M21.75,98.65L18.95 97.05L18.9 97L18.65 96.75L17.1 95.1Q17.45 94.35 18.1 93.55L18.3 93.3L21.4 90.1L21.65 90.25Q21.9 90 22.3 90Q24.1 90 25.3 94.25Q26.2 97.5 26.2 100.15L26.1 101.9Q25.9 102.85 25.35 103.05L25 103.1Q23.15 103.1 22 99.5L21.95 99.4L21.75 98.65M-3.25,98.75L-3.35 98.8L-5.2 100.6L-6 98.65L-6.35 97.75Q-7.3 99.5 -7.3 100.65L-7.1 101.85L-7.05 101.95Q-8.5 102.8 -9.7 102.8L-10.75 102.7L-11.65 102.25Q-12.5 101.6 -12.5 100.4Q-12.5 97.75 -10.5 95Q-9.05 92.85 -7.05 91.5L-6.8 91.35L-6.25 91L-4.85 90.4L-2.65 90Q-1.05 90 -0.5 90.45L-0.05 91L0.15 91.65L0.2 92.45L0.45 92.3L0.75 93.05L1.15 94.1L1.95 96.95Q1.95 98.65 1.6 99.95L1.85 100.25L2.9 101.65Q3.5 102.15 3.7 103.6L3.75 104.95L3.55 104.95L2.15 102.45L-0.45 99.7L-0.8 99.55L-1 99.5L-3.25 98.75M-1.2,96.1L-0.3 94.5L-2.3 94.05Q-3.45 94.05 -4.65 95.4L-5.4 95.3Q-5.9 95.3 -6.25 95.85L-6.5 96.75L-5.85 97L-4.1 97.3L-2.15 97.45L-1.2 96.15L-1.2 96.1M23.1,121.05L14.2 120.75L11.1 120.75L10 118.85Q11.65 117.8 12.5 116.2L16.85 116.25L24.05 116.05L24.65 116.1L24.15 121.15L23.1 121.05M25.15,126.65L25.35 126.65L25.55 126.65L25.65 126.8L25.25 126.8L25.15 128.55L23.9 128.25L24.9 128.25L25.15 126.65M-36.3,171L-36.55 169.2Q-37.7 160.8 -41.6 158.7Q-46.95 155.8 -50.05 151.15L-51.05 149.5L-48.15 147.65Q-44.45 145.35 -40.65 145.35L-37.25 146L-33.65 146.65L-26.95 146.15L-23.45 145.85L-20.8 145.65Q-17.2 145.65 -16.9 148.5Q-16.55 151.85 -15.8 153.9L-15.7 156.1L-15.65 156.5Q-15.05 158.9 -12.55 158.05L-12.55 157.9Q-12.15 161.4 -8.15 161.4L-7.4 161.4Q-7.6 163.5 -7.4 165.8L-6.65 165.8L-4.7 165.85L-2.2 165.8L-2.15 161.3L-1.95 161.3L-1.95 161.4L-1.6 161.35L8.15 161.45L8.15 161.6L8.2 165.25L13.4 165.15L13.5 161.6L13.5 161.5L13.65 161.5L13.95 161.5L15.1 161.4L18.05 161.45L18.15 161.45L21.3 161.55Q24 160.65 23.6 157.85L23.6 154.4Q26.4 153.55 27.25 152.85Q29.5 151.1 33.4 147L35.6 144.7L35.8 144.45L38.4 141.65L38.45 141.55L39.1 140.8Q39.75 140.15 44.65 138.4Q49.6 136.55 51.2 136.55L56.45 137.4L60.85 138.2L66.75 137.5L73.15 136.85L73.8 136.85Q73.05 140.5 70.55 142.6L67.85 144.45L66.45 145.25L61.15 148.3Q51.15 154.6 46.15 162.7L46.25 162.75Q45.55 163.7 43.4 170.15L42.75 170.15L28.4 170.3L18.25 170.4L-36.3 171M-16.05,133.65L-16.3 131.6L-16.35 131.5L-15.9 130.5Q-14.35 131.45 -9.25 131.6L-7.75 131.6L-7.15 131.6Q-6.55 132.3 -6.15 132.3L-3.95 131.5L-3.4 131.5L-3.4 136.45L-9.5 135.35L-16.05 133.65M-5.85,113.5L-5.9 113.6L-5.95 113.85L-6.05 114.1L-6.1 114.3L-6.05 115.25L-6.05 117.1L-5.2 117.3L-8.45 118.65L-8.5 115.45L-8.5 115.25L-8.5 114.3L-8.45 113.4Q-7.6 112.8 -7.1 112.8Q-7 112.8 -5.85 113.5M19.1,105.05L18.25 105.05L18.4 102.05L18.8 97.75L18.85 97.45L19.1 97.4Q19.8 97.4 20 98.15L20.1 99.45L19.65 102.15L19.6 102.65L19.55 102.75L19.1 105.05M22.2,96.7Q22.7 97.25 23.2 97.25Q23.7 97.25 23.7 96.8Q23.7 96.05 22.75 95.55Q21.85 95.05 21.85 96.1L22.2 96.7M42.35,114.1L42.8 111.15Q43.25 109.75 44.15 108.9Q44.85 109.55 46 109.65L50.15 109.4Q54.3 109.4 55.4 115.85L55.45 116L55.65 118.35L56.35 124.35L56.1 124.3Q55.55 124.3 54 125Q52.45 125.65 51.6 125.65Q50.3 125.65 49.6 124.5Q48.95 123.3 47.15 123.25L44.3 122.95Q42.95 122.65 42.3 121.65Q41.8 120.75 41.6 119.2L41.5 118.1L42.35 114.1M47,112.95Q45.75 112.95 45.1 114.15L44.8 115.2L44.7 115.95Q44.7 117.3 45.55 118.6L46.1 119.35L46.5 119.8Q47.7 121 49 121Q50.8 121 51.5 120.2Q51.95 119.65 52.05 118.65L52.1 117.75L52.05 117.45L52.15 117.3L52.75 116.3L52.95 114.4Q52.95 113.1 52.15 112.35Q51.35 111.5 50.1 111.5Q48.9 111.5 48.05 112.15L47.9 112.35L47.8 112.35L47.1 112.95L47 112.95M49.2,144.45L49.8 145.1L51.25 145.4Q53.15 145.4 54.6 144.45L56.05 143.1Q57.5 141.25 57.5 139.45Q57.5 138.6 55.6 138L55.25 137.95L55.35 138.05Q55.15 137.9 54.65 138.05L54.6 138.05L54.45 138.15Q53.15 138.85 51.55 140.25Q49.1 142.45 49.1 144.1L49.2 144.45M-0.8,113.9L-0.45 113.75Q1.1 113.1 2 113.1L4.6 113.3L0.65 114.95L-0.8 113.9M33.05,135.7L31.15 137L30.75 137.15Q27.75 136.3 25 136.3L21.05 136.7L16.5 137.1L15.7 137.1L12.9 137Q11.6 136.35 9.45 136.2L8.85 136.15L6.5 134.25L5.7 133.35Q5.1 132.45 5.05 131.4L8.7 131.5L10 131.5L11.85 131.6L24.3 132.85L28 133L31.75 133.1Q32.35 133.2 34.25 134.4L33.05 135.7M46.6,163.05L46.75 163.2L46.55 163.1L46.55 163.05L46.6 163.05M-10.1,95.65Q-11.75 97.9 -11.75 100.1L-11.5 101.2Q-11.05 102.3 -9.95 102.3Q-8.3 102.3 -8.3 101.6Q-8.3 101.3 -9.45 100.9Q-10.6 100.45 -10.6 100Q-10.6 98.85 -9.5 96.8L-8.45 94.85Q-8.45 93.4 -10.1 95.65" />
<path style="fill:#8080AD;fill-opacity:1" d="M10,91.2L8.9 90.95L8.15 90.45Q7.15 89.5 7.15 88.25L7.25 87.65L7.5 87.1L7.65 86.8L8.15 86.4L8.45 86.2L9.75 85.9L11.7 86.3L11.9 86.4L12.55 86.9L12.9 87.6L12.95 88.15L12.85 88.95L12.15 90.15L11.8 90.55L11.75 90.6Q11 91.2 10 91.2M11.2,86.8L11.05 86.75Q9.65 86.2 9.65 87.25Q9.65 87.7 10.15 88.3L10.45 88.7L10.75 88.85L11.35 89.05L12.2 88.9L12.4 88.25Q12.4 87.35 11.2 86.8M38.35,107.2Q38.6 105.95 39.05 105Q39.6 103.85 40.45 103.25L40.8 103.05Q41.95 102.35 43.8 102.3L49.85 103.3L55.65 104.4L59.7 105L62.9 105.55Q64.65 105.75 65.2 106.65L65.35 107.3L65.45 110.3L65.45 111.75L65.4 113.55Q63.6 114.55 63 114.65L60.6 115.25L57.75 115.75L56.45 110.1L61.2 110.4Q63.9 110.4 63.9 108.65L63.85 108Q63.65 107.55 62.9 107.4L60.3 107.4Q53.25 106.1 49.15 105Q44.55 103.85 43 103.85Q41.25 103.95 41.25 105.55Q41.25 106.65 42.45 107.2L45.25 108.1L44.15 108.9Q43.25 109.75 42.8 111.15L42.35 114.1L40.25 112.4L39 111.15L38.85 110.95L38.35 111.15L38.15 111.15L37.95 111.15Q38 108.85 38.35 107.2M49.4,113.35L49.65 114.2L50.25 114.95L51.1 115.25L51.7 115.1L51.75 114.1Q51.75 113 50.6 112.7Q49.4 112.4 49.4 113.35M49.35,118.2Q47.8 118.2 47.1 117.6Q46.35 117.05 46.3 115.7L46.3 115.55Q46.3 114.05 46.55 113.6L47.1 112.95L47.8 112.35L47.9 112.35L48.05 112.15Q48.9 111.5 50.1 111.5Q51.35 111.5 52.15 112.35Q52.95 113.1 52.95 114.4L52.75 116.3L52.15 117.3L52.05 117.45Q51.2 118.2 49.35 118.2" />
<path style="fill:#6E6E98;fill-opacity:1" d="M8.45,86.2L8.15 86.4L7.65 86.8Q8 86.4 8.45 86.2M24.8,87.8Q24.05 88.85 22.65 89.1L17.3 89.8Q16.45 86.25 15.6 84.35L18.5 84.85L22.7 85.45L24.05 85.5L25.5 85.2L25.35 86.3L24.8 87.8M0.55,87.8L0.4 86.9Q0.25 85.95 0.25 83.2L0.8 83.75Q1.7 84.75 2.6 84.7L2.65 84.7L2.5 85.2L2 88.6L1.95 88.85L1.65 90.4Q0.9 89.5 0.55 87.8M27.75,86L27.85 83.95L30.25 83.7L30.55 83.75L30.4 85.8Q30.35 86.35 29.35 86.75L27.6 86.85L27.6 86.8L27.75 86M13.5,161.5Q13.3 158 13.5 153.6L13.55 152.45L13.55 152.25L14.05 152.2L16.95 152.05L18.05 152.05L21.25 152.3L23.6 152.5L23.6 154.4L23.6 157.85Q24 160.65 21.3 161.55L18.15 161.45L18.05 161.45L15.1 161.4L13.95 161.5L13.65 161.5L13.5 161.5M0.3,125.7L0.5 126.2L2.4 125.25L2.5 125L6.9 123.5L8.5 123.05Q10.35 123.05 11.35 124.4L11.65 124.85L7.6 126.75L7.5 126.75L7.45 126.8L7.25 126.9L6.9 127.2Q6.3 127.7 5.75 128.7L5.45 129.45L5.35 129.7Q4.2 130.05 2.7 131.4Q1.55 132.5 1 133.35Q0.7 134 0.7 134.55Q0.7 135.3 1.25 136.15L1.55 136.45L0.6 136.55L0.25 136.6L-3.4 136.95L-3.4 136.45L-3.4 131.5L-3.4 131.3L-3.95 131.5L-6.15 132.3Q-6.55 132.3 -7.15 131.6L-8.05 130.35L-6.55 129.65L-6.25 128.05L-6.2 127.75L-3.5 126.95L0.3 125.7M14.35,139.45L14.35 139.75L5.5 139.8L-8.75 139.8L-8.7 139.15L-7.35 139.05L2.25 138.55L4.85 138.5L10.3 138.95L14.35 139.4L14.35 139.45M13.5,143.3L13.5 143.2L13.5 143.15L13.75 143.15L13.5 143.3M-1.6,161.35L-1.95 161.4L-1.95 161.3L-2.15 161.3L-2 155.55L-1.9 152.25L2.4 152.35Q4.35 152.35 5.3 151.35Q6.05 150.5 6.1 148.95L6 145.45L6.1 143.4L8 143.4Q7.9 145.4 7.95 149.55L8 156.35L8.15 161.45L-1.6 161.35M-7.4,161.4L-8.15 161.4Q-12.15 161.4 -12.55 157.9L-12.55 158.05Q-15.05 158.9 -15.65 156.5L-15.7 156.1L-15.8 153.9L-15.85 152.25L-15.8 148.9Q-15.7 146.75 -14.95 146.1L-12.35 146.15L-12.5 146.95L-12.55 146.95L-12.55 147.35L-12.55 148.05L-12.6 148.55L-12.8 150.2L-12.75 151.55L-12.5 152Q-11.7 153 -10.65 153Q-9.8 153 -9.65 151.05L-9.65 148L-9.45 143.85L-7.3 143.75L-7.2 143.75L-7.15 143.75L-7.15 151.15Q-7.15 155.9 -7.3 157.85L-7.4 161.15L-7.4 161.4" />
<path style="fill:#FF9B58;fill-opacity:1" d="M-0.15,80.05L-1.25 79.9L-3.05 80.25Q-2.95 79 -2.4 78.5Q-1.85 78 -0.4 78L0 78.1L0.25 78.05L0.2 79.2L0.2 80.1L-0.15 80.05" />
<path style="fill:#FF6600;fill-opacity:1" d="M0.2,80.1L0.25 83.2Q0.25 85.95 0.4 86.9L0.55 87.8L-0.95 87.9Q-2.1 87.9 -2.4 87.15L-2.65 85.05L-3.05 80.6L-3.05 80.25L-1.25 79.9L-0.15 80.05L0.2 80.1M27.6,86.8Q27.15 88.2 26 88.2Q25.05 88.2 24.8 87.8L25.35 86.3L25.5 85.2L25.6 85.15L26.5 84.5Q27.1 84 27.55 83.95L27.85 83.95L27.75 86L27.6 86.8" />
<path style="fill:#A9A9CB;fill-opacity:1" d="M7.25,87.65L7.15 88.25Q7.15 89.5 8.15 90.45L8.9 90.95L10 91.2Q11 91.2 11.75 90.6L11.75 91.55Q11.75 93.5 9.65 93.5Q8.2 93.5 7 92.55Q6.3 92 5.95 91.3Q5.6 90.6 5.6 89.75Q5.6 88.75 6.45 88.1Q6.8 87.8 7.25 87.65M52.05,117.45L52.1 117.75L52.05 118.65Q51.95 119.65 51.5 120.2Q50.8 121 49 121Q47.7 121 46.5 119.8L46.1 119.35L45.55 118.6Q44.7 117.3 44.7 115.95L44.8 115.2L45.1 114.15Q45.75 112.95 47 112.95L47.1 112.95L46.55 113.6Q46.3 114.05 46.3 115.55L46.3 115.7Q46.35 117.05 47.1 117.6Q47.8 118.2 49.35 118.2Q51.2 118.2 52.05 117.45" />
<path style="fill:#8D8DB1;fill-opacity:1" d="M21.95,99.4L22 99.5Q23.15 103.1 25 103.1L25.05 103.35Q22 104.05 19.6 102.8L19.55 102.75L19.6 102.65L19.65 102.15L20.1 99.45L20 98.15Q19.8 97.4 19.1 97.4L18.85 97.45L18.8 97.75L18.4 102.05L18.25 105.05L16.2 105L3.75 104.95L3.7 103.6Q3.5 102.15 2.9 101.65L1.85 100.25L1.6 99.95Q1.95 98.65 1.95 96.95L1.15 94.1L0.75 93.05L0.8 92.8L1.65 90.4L1.95 88.85L2 88.6Q2.8 89.6 3.15 91.45L3.25 92.3L3.3 92.45Q3.7 96.8 5.85 97.35L9.4 97.75Q11.6 97.95 12.4 98.65Q13.3 99.45 14.35 99.9L16.35 100.45L16.8 101.8L16.85 101.55L17.15 100.3Q16.55 99 16.55 97.4Q16.55 96.25 17.1 95.1L18.65 96.75L18.9 97L18.95 97.05L21.75 98.65L21.95 99.4M-1,99.5L-0.8 99.55L-0.45 99.7L2.15 102.45L3.55 104.95L1.15 104.9L-1.85 104.9L-1.7 103.85L-4 104.25L-4.5 104.25L-6.15 104.1L-6.25 104.1L-9.75 103.05L-9.7 102.8Q-8.5 102.8 -7.05 101.95L-7.1 101.85L-7.3 100.65Q-7.3 99.5 -6.35 97.75L-6 98.65L-5.2 100.6L-3.35 98.8L-3.25 98.75L-1 99.5M-1.2,96.15L-1.65 95.85L-4.65 95.4Q-3.45 94.05 -2.3 94.05L-0.3 94.5L-1.2 96.1L-1.2 96.15M25.55,126.65L25.85 126.65L25.8 126.8L25.65 126.8L25.55 126.65M24.9,128.25L23.9 128.25L25.15 128.55L25.1 129.85L24.85 129.8Q23.05 129.65 20.35 129.85L14.25 129.6L8.85 129.25L5.45 129.45L5.75 128.7Q6.3 127.7 6.9 127.2L7.25 126.9L7.65 126.9L14.4 126.85L18.85 126.9L25.15 126.65L24.9 128.25M38.9,128.6L39.05 127.8Q40.1 122.55 41 119.8L41.25 119L41.5 118.1L41.6 119.2Q41.8 120.75 42.3 121.65Q42.95 122.65 44.3 122.95L47.15 123.25Q48.95 123.3 49.6 124.5Q50.3 125.65 51.6 125.65Q52.45 125.65 54 125Q55.55 124.3 56.1 124.3L56.35 124.35L58.7 125.4L59.5 125.75L59.75 127.15L59.55 127.15L58.8 127.15L54.9 127.1L50.3 127L44.6 127.15L42.75 127.2L41 127.25Q39.95 127.45 38.9 128.6M-52.7,141.45L-50.85 141.5L-46.65 141.5L-42.95 141.6L-39.95 141.55L-35.5 141.3L-34.15 141.4L-25.65 141.25L-23.35 141.25L-19.55 141.3L-19.25 141.3L-13.45 141.3L-10.7 141.2Q-10.2 141.25 -9.8 140.9L-9.7 140.85L-9.35 140.25L-9.25 138.9L-9.25 138.1L-9.25 136.5L-9.55 136L-9.95 135.65L-15.9 135.65L-16.05 133.65L-9.5 135.35L-3.4 136.45L-3.4 136.95L-7.25 137.15Q-8.35 137.5 -8.65 138.95L-8.7 139.15L-8.75 139.8L5.5 139.8L14.35 139.75L14.35 139.45L14.35 139.4L14.35 138.3Q13.85 137.5 12.9 137L15.7 137.1L16.5 137.1L21.05 136.7L25 136.3Q27.75 136.3 30.75 137.15L28.8 137.4L24.05 137.3L23.25 137.3Q21.45 137.3 20.8 137.9L20.5 138.5L20.5 139.2L20.5 139.65L20.35 141.8L20.35 141.95Q20.35 142.7 20.65 143L18 143.1L14.85 143.2L13.75 143.15L13.5 143.15L13.5 143L13.45 141.65L8.15 141.45L8.1 142.55L8 143.2L8 143.4L6.1 143.4L5.45 143.4Q1.3 143.25 -1.6 143.45L-1.8 143.5L-1.9 142L-4.4 142.1L-7.2 142.2L-7.2 142.5L-7.15 143.4L-7.15 143.65L-7.15 143.75L-7.2 143.75L-7.3 143.75L-9.45 143.85L-10.75 143.85Q-12 144.05 -12.35 146.15L-14.95 146.1Q-15.7 146.75 -15.8 148.9L-15.85 152.25L-15.8 153.9Q-16.55 151.85 -16.9 148.5Q-17.2 145.65 -20.8 145.65L-23.45 145.85L-26.95 146.15L-33.65 146.65L-37.25 146L-40.65 145.35Q-44.45 145.35 -48.15 147.65L-51.05 149.5Q-52.3 147.05 -52.65 144.45L-52.75 141.45L-52.7 141.45M-11.7,127L-11.2 128.25L-13.5 128.25L-14.1 126.9L-11.8 127L-11.7 127M-7.1,112.8Q-7.6 112.8 -8.45 113.4Q-8.45 110.9 -8.25 110.25L-7 110.3L-1.8 110.15L-1.2 110.15L9.85 110.25L9.95 112.5L6.45 112.65L6.4 112.55L6.3 112.6L4.6 113.3L2 113.1Q1.1 113.1 -0.45 113.75L-0.8 113.9L-2.25 112.9L-2.9 113.2Q-3.55 112.8 -4.75 112.8Q-5.3 112.8 -5.65 113.25L-5.85 113.5Q-7 112.8 -7.1 112.8M74.1,133.5L73.8 136.85L73.15 136.85L66.75 137.5L60.85 138.2L56.45 137.4L51.2 136.55Q49.6 136.55 44.65 138.4Q39.75 140.15 39.1 140.8L38.45 141.55L38.4 141.65L35.8 144.45L35.6 144.7L33.4 147Q29.5 151.1 27.25 152.85Q26.4 153.55 23.6 154.4L23.6 152.5L23.55 146.25Q23.35 144.15 21.45 143.25L23.45 143.35L25.9 143.3L26.85 143.25L30.6 143.1Q32.6 143.05 34.2 141.95L34.35 141.9L34.6 141.7L36.1 140.55L38.2 138.4L40.45 135.65Q41.35 134.4 43 133.9L43.4 133.8L47.3 133.35L50.4 133.3L52.3 133.3L53.25 133.25L53.8 133.25L55.4 133.2L59.55 133.05L61.25 133.05L61.4 133.05Q67.05 133.05 69.2 133.2L73.05 133.35L73.35 133.35L74.1 133.35L74.1 133.5M-12.5,146.95L-12.55 147.35L-12.55 146.95L-12.5 146.95" />
<path style="fill:#B1B1DB;fill-opacity:1" d="M12.4,88.25L12.2 88.9L11.35 89.05L10.75 88.85L10.45 88.7L10.15 88.3Q9.65 87.7 9.65 87.25Q9.65 86.2 11.05 86.75L11.2 86.8Q12.4 87.35 12.4 88.25M50.6,112.7Q51.75 113 51.75 114.1L51.7 115.1L51.1 115.25L50.25 114.95L49.65 114.2L49.4 113.35Q49.4 112.4 50.6 112.7" />
<path style="fill:#F58D48;fill-opacity:1" d="M25.6,77.25Q27.3 77.25 27.65 78.6L27.75 79.05L27.85 80.95L27.85 82.2L27.85 83.95L27.55 83.95Q27.1 84 26.5 84.5L25.6 85.15L25.5 85.2L25.55 81.15L25.6 79.65L25.6 78.9L25.25 77.4L25.6 77.25" />
<path style="fill:#CDAD2D;fill-opacity:1" d="M37.95,111.15Q36.85 110.95 35.8 110.25Q35.85 109.35 36.15 108.5Q36.55 107.4 37.4 107.3L38.35 107.2Q38 108.85 37.95 111.15M68.7,112.8Q66.75 112.8 65.6 111.95L65.45 111.75L65.45 110.3L65.35 107.3L65.3 106.85L65.2 106.65Q65 105.15 65.55 104.7Q65.9 104.3 67.4 104.2Q69.5 104.15 69.95 105.35L70.1 109.1L69.9 112.3L69.9 112.7L68.7 112.8M67.3,108.5L67.75 108.25Q68.9 108.25 69.25 107.8L69.4 106.6Q69.4 105.35 67.75 105.6Q66.1 105.85 66.1 107.05L66.5 107.8Q66.95 108.5 67.3 108.5" />
<path style="fill:#A9A9D4;fill-opacity:1" d="M55.95,108.85Q54.9 107.4 50.35 107.3L49.1 107.25Q46.75 107.25 45.25 108.1L42.45 107.2Q41.25 106.65 41.25 105.55Q41.25 103.95 43 103.85Q44.55 103.85 49.15 105Q53.25 106.1 60.3 107.4L62.9 107.4Q63.65 107.55 63.85 108L63.9 108.65Q63.9 110.4 61.2 110.4L56.45 110.1L55.95 108.85" />
<path style="fill:#E2CE7A;fill-opacity:1" d="M66.5,107.8L66.1 107.05Q66.1 105.85 67.75 105.6Q69.4 105.35 69.4 106.6L69.25 107.8Q68.9 108.25 67.75 108.25L67.3 108.5Q66.95 108.5 66.5 107.8" />
<path style="fill:#AD8F1B;fill-opacity:1" d="M37.95,111.15L37.9 112.25L38.05 113.8Q37.15 113.95 36.55 113.3Q35.8 112.6 35.8 111.15L35.8 110.3L35.8 110.25Q36.85 110.95 37.95 111.15M65.3,114.6L65.4 113.7L65.4 113.55L65.45 111.75L65.6 111.95Q66.75 112.8 68.7 112.8L69.9 112.7L69.65 114.95L69.65 115.7Q69.55 119 66.75 119.05L65.3 118.7Q64.9 118.25 64.9 117.05L64.9 116.2Q65.2 115.75 65.3 114.6" />
<path style="fill:#6A6A93;fill-opacity:1" d="M37.9,112.25L37.95 111.15L38.15 111.15L38.35 111.15L38.85 110.95L39 111.15L40.25 112.4L42.35 114.1L41.5 118.1L41.25 119L40.4 118.3Q38.55 116.1 38.05 113.8L37.9 112.25M57.75,115.75L60.6 115.25L63 114.65Q63.6 114.55 65.4 113.55L65.4 113.7L65.3 114.6L64.9 116.1L64.9 116.2L64.65 116.4L59.7 117.65L58.2 118L57.75 115.75" />
<path style="fill:#F3B288;fill-opacity:1" d="M3.75,104.95L16.2 105L18.25 105.05L19.1 105.05L19.9 105.05L21.2 105.05L23.3 105.1L26.4 105.1Q28.25 105.05 28.75 105.6Q29.1 105.95 29.1 107.3L29.05 108.5L28.8 109.4Q28.5 108.5 27.55 108Q25.05 106.7 23.8 106.7L20.1 106.9L18.85 106.9L18.2 106.85L16.05 106.75L9.75 106.35L4.75 105.95L3.75 106L1.5 106.2L1.15 106.25L-0.85 106.4L-1.75 106.4L-2.05 106.4L-3.95 106.45L-6.3 106.45L-8.25 106.5L-11.1 106.5L-11.5 106.5L-11.45 106.3L-11.35 105.4L-11.35 105L-10.5 104.9L-7.35 104.8L-6.2 104.8L-4.25 104.85L-3.95 104.85L-1.85 104.9L1.15 104.9L3.55 104.95L3.75 104.95M11.1,120.75L14.2 120.75L23.1 121.05L24.15 121.15Q26.2 121.35 26.65 121.7Q27.2 122.05 27.2 123.85L27.1 125.45L26.15 123.45L25.8 123.1L25.05 122.9L23.9 122.95L23.65 122.9L18 122.25L12.7 122.55L12.05 122.55L11.2 120.9L11.1 120.75M76.8,132.15L76.8 131.6L76.75 131.35Q76.65 128.85 73.6 128.85L60 128.7L52.15 128.65L48.9 128.5L46.3 128.25L44.1 128.55L43.1 128.7L39.4 129.2L38.8 129.15L38.5 129.05L38.9 128.6Q39.95 127.45 41 127.25L42.75 127.2L44.6 127.15L50.3 127L54.9 127.1L58.8 127.15L59.55 127.15L59.75 127.15L61.2 127.15L72.25 127.15L77.05 127.35L77.7 129.8L77.65 131.5L77.65 131.6L77.65 132.15L77.1 132.15L76.8 132.15M-9.95,135.65L-9.55 136L-9.25 136.5L-9.25 138.1L-9.25 138.9L-9.35 140.25L-9.7 140.85L-9.85 140.8Q-10.05 139.5 -10.65 138.8L-10.8 138.6Q-11.7 137.6 -13.75 137.65L-14.65 137.6L-15.75 137.5L-15.9 137.45L-16.95 137.3L-19.35 137L-20.15 136.95L-26.1 137.3L-33.45 137.9L-36.05 137.5L-37 137.3L-40.55 136.7L-44.7 136.95L-46.95 136.65L-49.6 136.3Q-53 137.2 -53.2 136.8L-53.25 136.7L-55.15 136.7Q-55.1 136 -54.85 135.6L-15.9 135.65L-9.95 135.65M-15.6,122.7L-15.6 122.5L-15.5 121.85L-15.5 121.4Q-15.45 121 -15.05 120.9L-14.15 120.85L-13.5 122.5L-15.6 122.7M20.5,139.2L20.5 138.5L20.8 137.9Q21.45 137.3 23.25 137.3L24.05 137.3L28.8 137.4L30.75 137.15L31.15 137L31.1 137.25Q30.8 138.2 30.15 138.7L28.55 139.15L27.1 139.45L26.8 139.45L20.5 139.2M13.5,143.2L13.5 143.3L13.55 152.25L13.55 152.45L13.5 153.6Q13.3 158 13.5 161.5L13.5 161.6L11.9 161.6L11.6 156.4L11.65 152.95L11.65 148.3L11.6 145.5Q11.4 144.1 10.6 143.3L8.15 142.55L8.1 142.55L8.15 141.45L13.45 141.65L13.5 143L13.5 143.15L13.5 143.2M-2,155.55L-2.15 161.3L-3.8 161.2L-4.1 158.45L-3.95 153.9L-3.8 148.75L-3.9 145.2Q-4.05 144 -4.6 143.65L-5.25 143.4L-6.2 143.6L-7.15 143.4L-7.2 142.5L-7.2 142.2L-4.4 142.1L-1.9 142L-1.8 143.5L-1.9 148.65L-1.9 148.85L-1.9 149.35L-1.9 150.05L-1.9 152.25L-2 155.55M-12.1,122.45L-11.85 122.35L-11.8 122.45L-12.1 122.45" />
<path style="fill:#BB662E;fill-opacity:1" d="M-52.75,141.45Q-54.5 141.3 -54.85 140.9Q-55.2 140.6 -55.25 138.15L-53.95 138L-51.85 139.15L-51.7 139.2L-50.7 139.4L-49.65 139.45L-47.7 139.95L-45.8 140.15L-43.9 139.9L-41.55 139.45L-39.6 139.35L-37.6 139.45L-33.55 139.6L-29.2 139.2L-27 139.6L-24.5 139.9L-20.95 139.6L-19.3 139.65L-17.45 139.85L-16.15 140.05L-14 140.3L-10.7 140.55L-9.85 140.8L-9.8 140.9Q-10.2 141.25 -10.7 141.2L-13.45 141.3L-19.25 141.3L-19.55 141.3L-23.35 141.25L-25.65 141.25L-34.15 141.4L-35.5 141.3L-39.95 141.55L-42.95 141.6L-46.65 141.5L-50.85 141.5L-52.7 141.45L-52.75 141.45M20.75,143L20.65 143Q20.35 142.7 20.35 141.95L20.35 141.8L21.1 141.75L23.85 141.95L25.45 142.1L26.45 142.15Q31.3 142.15 34.2 139.55L36.05 137.2L36.1 137.05L37.85 133.5L37.95 133.35Q38.8 131.9 39.9 131.9L40.75 132L41.05 132.1L42.1 132.3L43 132.1L44.5 131.3Q46.15 130.3 47.7 130.3L50.8 130.5L54.15 130.4L65.45 131.3L73.95 132.05L76.8 132.15L76.9 133.35L74.1 133.35L73.35 133.35L73.05 133.35L69.2 133.2Q67.05 133.05 61.4 133.05L61.25 133.05L59.55 133.05L55.4 133.2L53.8 133.25L53.25 133.25L52.3 133.3L50.4 133.3L47.3 133.35L43.4 133.8L43 133.9Q41.35 134.4 40.45 135.65L38.2 138.4L36.1 140.55L34.6 141.7L34.35 141.9L34.2 141.95Q32.6 143.05 30.6 143.1L26.85 143.25L25.9 143.3L23.45 143.35L21.45 143.25L20.75 143" />
<path style="fill:#DE7D3D;fill-opacity:1" d="M-8.25,110.25L-9.65 110.15L-11.35 109.7Q-11.85 109.15 -11.85 108.45L-11.5 106.5L-11.1 106.5L-8.25 106.5L-6.3 106.45L-3.95 106.45L-2.05 106.4L-1.75 106.4L-0.85 106.4L1.15 106.25L1.5 106.2L3.75 106L4.75 105.95L9.75 106.35L16.05 106.75L18.2 106.85L18.85 106.9L20.1 106.9L23.8 106.7Q25.05 106.7 27.55 108Q28.5 108.5 28.8 109.4L28.6 109.75L28.35 110.25L27.65 110.5L25.9 110.5L24.85 110.5L21.65 110.4L17.25 110.3L9.85 110.25L-1.2 110.15L-1.8 110.15L-7 110.3L-8.25 110.25M25.55,126.65L25.35 126.65L25.15 126.65L18.85 126.9L14.4 126.85L7.65 126.9L7.25 126.9L7.45 126.8L7.5 126.75L7.6 126.75L11.65 124.85L12.65 124.05L12.05 122.55L12.7 122.55L18 122.25L23.65 122.9L23.9 122.95L25.05 122.9L25.8 123.1L26.15 123.45L27.1 125.45L26.95 125.9L25.85 126.65L25.55 126.65M20.5,139.65L20.5 139.2L26.8 139.45L27.1 139.45L28.55 139.15L30.15 138.7Q30.8 138.2 31.1 137.25L31.15 137L33.05 135.7L34.25 134.4L35.2 133.25L35.8 132.45L36.5 131.6L37.25 130.6L38.5 129.05L38.8 129.15L39.4 129.2L43.1 128.7L44.1 128.55L46.3 128.25L48.9 128.5L52.15 128.65L60 128.7L73.6 128.85Q76.65 128.85 76.75 131.35L76.8 131.6L76.8 132.15L77.1 132.15L77.65 132.15Q77.6 133.3 77.4 133.35L76.9 133.35L76.8 132.15L73.95 132.05L65.45 131.3L54.15 130.4L50.8 130.5L47.7 130.3Q46.15 130.3 44.5 131.3L43 132.1L42.1 132.3L41.05 132.1L40.75 132L39.9 131.9Q38.8 131.9 37.95 133.35L37.85 133.5L36.1 137.05L36.05 137.2L34.2 139.55Q31.3 142.15 26.45 142.15L25.45 142.1L23.85 141.95L21.1 141.75L20.35 141.8L20.5 139.65M-53.25,136.7L-53.2 136.8Q-53 137.2 -49.6 136.3L-46.95 136.65L-44.7 136.95L-40.55 136.7L-37 137.3L-36.05 137.5L-33.45 137.9L-26.1 137.3L-20.15 136.95L-19.35 137L-16.95 137.3L-15.9 137.45L-15.75 137.5L-14.65 137.6L-13.75 137.65Q-11.7 137.6 -10.8 138.6L-10.65 138.8Q-10.05 139.5 -9.85 140.8L-9.7 140.85L-9.8 140.9L-9.85 140.8L-10.7 140.55L-14 140.3L-16.15 140.05L-17.45 139.85L-19.3 139.65L-20.95 139.6L-24.5 139.9L-27 139.6L-29.2 139.2L-33.55 139.6L-37.6 139.45L-39.6 139.35L-41.55 139.45L-43.9 139.9L-45.8 140.15L-47.7 139.95L-49.65 139.45L-50.7 139.4L-51.7 139.2L-51.85 139.15L-53.95 138L-55.25 138.15L-55.25 137.8L-55.15 136.7L-53.25 136.7M-11.8,127L-14.1 126.9L-14.15 126.9Q-15.95 126.6 -15.9 125.45L-15.6 122.7L-13.5 122.5L-13.35 122.95L-12.1 122.45L-11.8 122.45L-11.4 123.4L-13.05 124.05L-12.5 125.35L-10.85 124.7L-10.3 126.05L-11.2 126.5L-11.8 126.8L-11.7 127L-11.8 127M8.15,161.6L8.15 161.45L8 156.35L7.95 149.55Q7.9 145.4 8 143.4L8 143.2L8.1 142.55L8.15 142.55L10.6 143.3Q11.4 144.1 11.6 145.5L11.65 148.3L11.65 152.95L11.6 156.4L11.9 161.6L8.15 161.6M-4.3,161.25L-7.4 161.15L-7.3 157.85Q-7.15 155.9 -7.15 151.15L-7.15 143.75L-7.15 143.65L-7.15 143.4L-6.2 143.6L-5.25 143.4L-4.6 143.65Q-4.05 144 -3.9 145.2L-3.8 148.75L-3.95 153.9L-4.1 158.45L-3.8 161.2L-4.3 161.25" />
<path style="fill:#6E6E8C;fill-opacity:1" d="M49.1,144.1Q49.1 142.45 51.55 140.25Q53.15 138.85 54.45 138.15L54.6 138.05L54.65 138.05Q55.15 137.9 55.35 138.05L55.25 137.95L55.6 138Q57.5 138.6 57.5 139.45Q57.5 141.25 56.05 143.1L54.6 144.45Q53.15 145.4 51.25 145.4L49.8 145.1L49.2 144.45L49.1 144.1" />
<path style="fill:#FF0000;fill-opacity:0" d="M35.2,133.25Q34.95 132.25 34.4 131.6L36.5 131.6L35.8 132.45L35.2 133.25M70.55,142.6Q73.05 140.5 73.8 136.85L74.1 133.5L74.1 133.35L76.9 133.35L77.4 133.35Q77.6 133.3 77.65 132.15L77.65 131.6L78.95 131.6L78.95 144.45L67.85 144.45L70.55 142.6" />
<path style="fill:#2B2B33;fill-opacity:1" d="M13.2,114.1L13.25 113.9Q11.55 112.8 9.95 112.5L9.85 110.25L17.25 110.3L21.65 110.4L24.85 110.5L24.85 111.2L24.75 114.25Q17.85 114.95 13.2 114.1" />
<path style="fill:#3D3D48;fill-opacity:1" d="M24.75,114.25L24.65 116.05L24.65 116.1L24.05 116.05L16.85 116.25L12.5 116.2L13.05 114.7L13.2 114.1Q17.85 114.95 24.75 114.25" />
<path style="fill:#C23030;fill-opacity:1" d="M-11.1,128.6L-11.2 128.25L-11.7 127L-11.8 126.8L-11.2 126.5L-10.8 127L-10.75 127.1L-9.6 128.65L-9.5 128.75L-8.8 129.15L-8.75 129.15L-8 128.9L-6.25 128.05L-6.55 129.65L-8.05 130.35L-10.1 131.2L-11.1 128.6M-10.7,119.55L-11.9 118.45L-13 118.35L-14.4 119.1L-14.75 119.25L-15.2 118.1L-12.1 116.7L-9.25 118.95L-10.7 119.55M8.55,113.25L8.25 113.55L8.25 113.9Q9.5 115 10.35 115.15L10.9 115.05Q11.35 114.85 11.1 114.25L10.25 113.4L10 113.3L8.55 113.25M13.25,113.9L13.2 114.1L13.05 114.7L12.5 115.2L11.45 115.95L11.35 116L8.65 115.9L8.15 115.65L8.05 115.65L7.6 115.4L6.45 112.65L9.95 112.5Q11.55 112.8 13.25 113.9M0.65,114.95L-0.75 115.5L-2.15 114.5Q-2.3 114.35 -2.8 114.35L-3.45 114.3L-4.2 114.6L-4.45 113.8L-2.9 113.2L-2.25 112.9L-0.8 113.9L0.65 114.95M2.5,125L2.4 125.25L0.5 126.2L0.3 125.7L-0.05 124.9L1.25 124.55L1.5 124.25L1.45 123.6L1.7 122.35L3.2 121.75L2.5 125" />
<path style="fill:#F0A1A1;fill-opacity:1" d="M10,113.3L10.25 113.4L11.1 114.25Q11.35 114.85 10.9 115.05L10.35 115.15Q9.5 115 8.25 113.9L8.25 113.55L8.55 113.25L10 113.3" />
<path style="fill:#BFBFC2;fill-opacity:1" d="M-7.45,121.8L-11.4 123.4L-11.8 122.45L-11.85 122.35L-12.65 120.35L-10.7 119.55L-9.25 118.95L-8.45 118.65L-5.2 117.3L-3.5 116.6L-0.75 115.5L0.65 114.95L4.6 113.3L6.3 112.6L6.4 112.55L6.45 112.65L7.6 115.4L7.75 115.85L6.05 117.35L4.8 118.3L3.85 118.7L-1.2 120.35L-2.75 120.85L-3.95 121.2L-5.15 121.4L-6.25 121.55L-7.35 122.1L-7.45 121.8" />
<path style="fill:#9C2525;fill-opacity:1" d="M-12.1,122.45L-13.35 122.95L-13.5 122.5L-14.15 120.85L-14.75 119.25L-14.4 119.1L-13 118.35L-11.9 118.45L-10.7 119.55L-12.65 120.35L-11.85 122.35L-12.1 122.45M12.5,116.2Q11.65 117.8 10 118.85L9.15 119.3L7.75 115.85L7.6 115.4L8.05 115.65L8.15 115.65L8.65 115.9L11.35 116L11.45 115.95L12.5 115.2L13.05 114.7L12.5 116.2M-4.2,114.6L-3.45 114.3L-2.8 114.35Q-2.3 114.35 -2.15 114.5L-0.75 115.5L-3.5 116.6L-4.2 114.6M-0.8,123.4L1.7 122.35L1.45 123.6L1.5 124.25L1.25 124.55L-0.05 124.9L-0.8 123.4M-11.4,123.4L-7.45 121.8L-7.35 122.1L-6.9 123.1L-10.85 124.7L-12.5 125.35L-13.05 124.05L-11.4 123.4M-10.3,126.05L-9.95 127L-9.9 127.1L-5.75 125.4L-6.2 127.75L-6.25 128.05L-8 128.9L-8.75 129.15L-8.8 129.15L-9.5 128.75L-9.6 128.65L-10.75 127.1L-10.8 127L-11.2 126.5L-10.3 126.05" />
<path style="fill:#A2A2A3;fill-opacity:1" d="M-0.8,123.4L-5.75 125.4L-9.9 127.1L-9.95 127L-10.3 126.05L-10.85 124.7L-6.9 123.1L-7.35 122.1L-6.25 121.55L-5.15 121.4L-3.95 121.2L-2.75 120.85L-1.2 120.35L3.85 118.7L4.8 118.3L6.05 117.35L7.75 115.85L9.15 119.3L3.2 121.75L1.7 122.35L-0.8 123.4" />
<path style="fill:#B86128;fill-opacity:1" d="M8.15,161.6L11.9 161.6L13.5 161.6L13.4 165.15L8.2 165.25L8.15 161.6M-3.8,161.2L-2.15 161.3L-2.2 165.8L-4.7 165.85L-6.65 165.8L-7.4 165.8Q-7.6 163.5 -7.4 161.4L-7.4 161.15L-4.3 161.25L-3.8 161.2" />
<path style="fill:#C65E5E;fill-opacity:1" d="M42.35,174.05Q40.9 179.45 39.95 181.3Q38.75 183.75 33.6 184.25L23.65 185.1Q18.85 185.5 14 185.05L7.2 184.5L0.35 184.65Q-3.9 184.8 -6.6 184.5Q-11 184.05 -20.7 184.8Q-29.05 184.9 -32.8 181.05Q-34.65 179.15 -35.5 175.65L-35.5 174.25L42.35 174.05" />
<path style="fill:#E8E8F3;fill-opacity:1" d="M18.25,170.4L28.4 170.3L42.75 170.15L42.75 172.6L42.35 174.05L-35.5 174.25L-35.8 174.25L-36.3 171L18.25 170.4" />
<path style="fill:#BBB7B7;fill-opacity:1" d="M-20.05,116.75L-19.75 116.1L-19.55 116L-19.45 115.9L-19.15 115.9L-17.8 116L-17.75 116L-16.45 116.6Q-15.9 116.9 -15.7 117.45Q-15.55 118 -15.9 118.55Q-16.4 119.4 -18.6 118.05L-19.8 117.15L-20.05 116.75M-22.15,114.1L-22.45 113.5L-22.5 113.55L-22.7 112.05Q-22.7 111.4 -22.35 111Q-22 110.55 -21.35 110.55Q-20.35 110.55 -20.35 113.15L-20.35 114.2L-20.45 114.6L-20.45 114.65L-21.1 114.45L-21.9 114.7L-22.15 114.1M-23.5,119.45L-23.7 119.6L-24.55 119.8L-24.75 119.75L-25.5 119.15Q-26.05 118.35 -23.85 116.85L-22.6 116.2L-22.4 116.15L-22.1 116.85L-21.65 117.15L-21.75 117.3L-22.4 118.45L-22.4 118.5L-23 119.05L-23.5 119.45M-16.8,118.2Q-16.3 117.95 -16.9 117.6Q-17.9 116.95 -18.2 117.45Q-18.4 117.75 -17.75 118.1L-16.8 118.2M-21.6,111.9Q-21.65 113.1 -21.1 113.1Q-20.7 113.1 -20.7 112.3Q-20.7 111.75 -21.15 111.5Q-21.6 111.25 -21.6 111.9M-24.85,118.45Q-24.75 119 -24.2 118.6Q-23.3 118 -23.55 117.5Q-23.75 117.2 -24.35 117.65Q-24.8 117.95 -24.85 118.45" />
<path style="fill:#E5E3E3;fill-opacity:1" d="M-23,119.05L-22.4 118.5L-22.4 118.45L-21.75 117.3L-21.65 117.15L-21.1 117.25Q-20.55 117.25 -20.15 116.85L-20.05 116.75L-19.8 117.15Q-20.35 117.9 -22.05 118.65L-22.55 118.85L-23 119.05M-52.5,119.9L-54.15 119.8Q-54.9 119.7 -54.95 119.1L-54.8 119.1L-52.8 118.8L-50.6 118.25L-46.3 117.9L-39.6 117.9L-37.6 117.95L-37.05 118L-33 117.8L-29.1 117.4L-28.8 117.4Q-25.75 117 -23.2 115.75L-22.4 115.45L-22.45 115.85L-22.4 116.15L-22.6 116.2L-23.85 116.85Q-26.05 118.35 -25.5 119.15L-24.75 119.75L-25.55 120.1L-26.55 120.6L-27.55 121.75Q-28.6 123.2 -28.7 125.1L-28.7 125.95L-28.65 126.7L-28.75 126.7L-29.7 126.8Q-30.75 127.1 -32 128.3Q-33.75 130 -35.3 129.85Q-36.3 129.75 -38.95 128.35L-40.25 127.65L-41.6 126.9L-43.2 127.25L-43.5 125L-43.95 122.3Q-44.05 120.3 -44.85 119.6Q-45.45 119.15 -47.1 119.05Q-51.1 118.75 -52.5 119.9M-19.75,115.85Q-19.75 115.35 -20 115L-19.7 115L-19.55 116L-19.75 116.1L-19.75 115.85M-32.95,125.65L-32.5 125.65Q-31.9 125.65 -31.75 125.05L-31.75 123.9L-31.75 122.35Q-31.95 121.55 -32.65 121.55L-33.95 121.6L-33.95 120.1Q-34 119.05 -34.55 119.05L-37 119.1Q-37.8 119 -38 119.45L-38.05 120.35L-38.05 120.55L-38 121.8L-40.25 122L-40.25 123.05Q-40.1 123.75 -40.1 124.5Q-40.1 125.25 -39.7 125.45L-38.65 125.65Q-38.05 125.7 -38.2 126.35L-38.2 127.15Q-38.05 127.6 -37.25 127.7L-34.1 127.7L-34.1 125.5L-33.4 125.5L-32.95 125.65" />
<path style="fill:#C63333;fill-opacity:1" d="M-24.75,119.75L-24.55 119.8L-23.7 119.6L-22.3 122.65L-22.45 122.7L-23.35 122.95L-24.55 121.55L-25.55 120.1L-24.75 119.75M-29.65,132.75L-30.65 133.75Q-32.4 135 -34.7 135.1L-39.55 135.4L-39.65 135.45L-43.9 135.6L-50.35 135.35Q-52.35 134.95 -53.4 133.8L-51.2 133.9L-46.7 133.75L-41.8 133.55L-36.9 133.55L-33.7 133.15L-29.85 132.75L-29.65 132.75M-49.15,114.45Q-44.05 113.1 -41.2 113L-39.9 113Q-38.6 113.1 -38 115.15L-37.65 116.25L-39.55 116.35L-39.6 116.35L-44.8 116.55L-45.7 116.4L-47.7 116.6L-49.55 116.6L-49.45 114.55L-49.15 114.45M-22.1,116.85L-22.4 116.15L-22.45 115.85L-22.4 115.45L-22.1 114.85L-21.9 114.7L-21.1 114.45L-20.45 114.65Q-20.3 114.7 -20.15 114.85L-20 115Q-19.75 115.35 -19.75 115.85L-19.75 116.1L-20.05 116.75L-20.15 116.85Q-20.55 117.25 -21.1 117.25L-21.65 117.15L-22.1 116.85M-33.4,125.5L-34.1 125.5L-34.1 127.7L-37.25 127.7Q-38.05 127.6 -38.2 127.15L-38.2 126.35Q-38.05 125.7 -38.65 125.65L-39.7 125.45Q-40.1 125.25 -40.1 124.5Q-40.1 123.75 -40.25 123.05L-40.25 122L-38 121.8L-38.05 120.55L-38.05 120.35L-36.9 120.1Q-36.4 120.1 -36 120.5Q-35.45 120.95 -35.35 121.6Q-35.25 122.3 -34.95 122.55L-33.95 122.8Q-33 122.85 -33 124.7L-32.95 125.65L-33.4 125.5M-21.35,115.35Q-21.35 115.95 -20.5 115.95Q-20 115.95 -20 115.5Q-20 115.15 -20.45 115.05L-20.65 115L-20.7 115Q-21.2 114.9 -21.3 115.15L-21.35 115.35" />
<path style="fill:#FFFFFF;fill-opacity:1" d="M-55.05,118.85L-54.8 117.95Q-54.3 116.95 -52.65 116.6L-49.55 116.6L-47.7 116.6L-45.7 116.4L-44.8 116.55L-39.6 116.35L-39.55 116.35L-37.65 116.25L-35.9 116.05L-33.3 115.8L-29.35 115.2L-22.15 114.1L-21.9 114.7L-22.1 114.85L-22.4 115.45L-23.2 115.75Q-25.75 117 -28.8 117.4L-29.1 117.4L-33 117.8L-37.05 118L-37.6 117.95L-39.6 117.9L-46.3 117.9L-50.6 118.25L-52.8 118.8L-54.8 119.1L-54.95 119.1L-55.05 118.85M-41.45,110.25Q-41.85 109.55 -42.6 109.1L-43.05 108.85L-44.25 108L-43.6 107.8L-42.15 107.85Q-40.45 107.95 -40.15 108.8L-40.1 109.15L-39.9 110.2L-39.8 110.5Q-39.6 111.3 -39.7 111.8L-40.4 111.7L-41.1 111.65Q-41.1 110.85 -41.45 110.25M-20.45,114.6L-20.35 114.2L-20 114.4L-19.7 115L-20 115L-20.15 114.85Q-20.3 114.7 -20.45 114.65L-20.45 114.6" />
<path style="fill:#FFF7F7;fill-opacity:1" d="M-17.75,118.1Q-18.4 117.75 -18.2 117.45Q-17.9 116.95 -16.9 117.6Q-16.3 117.95 -16.8 118.2L-17.75 118.1M-21.15,111.5Q-20.7 111.75 -20.7 112.3Q-20.7 113.1 -21.1 113.1Q-21.65 113.1 -21.6 111.9Q-21.6 111.25 -21.15 111.5M-24.35,117.65Q-23.75 117.2 -23.55 117.5Q-23.3 118 -24.2 118.6Q-24.75 119 -24.85 118.45Q-24.8 117.95 -24.35 117.65" />
<path style="fill:#393943;fill-opacity:1" d="M-5.85,113.5L-5.65 113.25Q-5.3 112.8 -4.75 112.8Q-3.55 112.8 -2.9 113.2L-4.45 113.8L-4.2 114.6L-3.5 116.6L-5.2 117.3L-6.05 117.1L-6.05 115.25L-6.05 114.1L-5.95 113.85L-5.9 113.6L-5.85 113.5" />
<path style="fill:#7B7979;fill-opacity:1" d="M-44.75,110.25L-60.8 110.45L-60.75 109.1L-44.75 108.85L-44.75 110.25M-40.1,109.15L-40.15 108.8L-24.2 108.55L-24.05 110L-39.9 110.2L-40.1 109.15" />
<path style="fill:#E26161;fill-opacity:1" d="M-23.7,119.6L-23.5 119.45L-23 119.05L-22.55 118.85L-22.05 118.75L-21.75 120.5Q-21.5 121.65 -21.55 122.45L-22.3 122.65L-23.7 119.6M-28.85,131.3L-28.95 131.6L-29.65 132.75L-29.85 132.75L-33.7 133.15L-36.9 133.55L-41.8 133.55L-46.7 133.75L-51.2 133.9L-53.4 133.8L-54.25 132.45L-31.35 131.6L-28.85 131.3M-49.45,113.45Q-49.35 112.15 -45.3 111.8L-44.55 111.7L-41.1 111.65L-40.4 111.7L-39.7 111.8L-39.65 111.8Q-37.75 112 -36.95 112.6Q-35.7 113.55 -35.9 116.05L-37.65 116.25L-38 115.15Q-38.6 113.1 -39.9 113L-41.2 113Q-44.05 113.1 -49.15 114.45L-49.45 113.45M-38,119.45Q-37.8 119 -37 119.1L-34.55 119.05Q-34 119.05 -33.95 120.1L-33.95 121.6L-32.65 121.55Q-31.95 121.55 -31.75 122.35L-31.75 123.9L-31.75 125.05Q-31.9 125.65 -32.5 125.65L-32.95 125.65L-33 124.7Q-33 122.85 -33.95 122.8L-34.95 122.55Q-35.25 122.3 -35.35 121.6Q-35.45 120.95 -36 120.5Q-36.4 120.1 -36.9 120.1L-38.05 120.35L-38 119.45" />
<path style="fill:#EC8484;fill-opacity:1" d="M-21.3,115.15Q-21.2 114.9 -20.7 115L-20.65 115L-20.45 115.05Q-20 115.15 -20 115.5Q-20 115.95 -20.5 115.95Q-21.35 115.95 -21.35 115.35L-21.3 115.15" />
<path style="fill:#C9C5C5;fill-opacity:1" d="M-31.35,131.6L-54.25 132.45L-54.4 132.05L-54.45 131.6L-54.6 130.6L-54.65 130.05Q-54.55 129.2 -54.15 128.85Q-54.05 128.6 -52.9 128L-52.7 129.15Q-52.45 130.45 -50.7 130.6L-48.35 130.45L-46.2 130.25L-43.9 129.9Q-43.3 129.6 -43.25 128.25L-43.25 128.2L-43.2 127.25L-41.6 126.9L-40.25 127.65L-38.95 128.35Q-36.3 129.75 -35.3 129.85Q-33.75 130 -32 128.3Q-30.75 127.1 -29.7 126.8L-28.75 126.7L-28.65 126.7L-28.45 129.65L-28.85 131.3L-31.35 131.6" />
<path style="fill:#BBB9B9;fill-opacity:1" d="M-44.75,108.85L-44.75 108.7Q-44.7 108.2 -44.25 108L-43.05 108.85L-42.6 109.1Q-41.85 109.55 -41.45 110.25Q-41.1 110.85 -41.1 111.65L-44.55 111.7L-44.75 110.25L-44.75 108.85" />
<path style="fill:#333333;fill-opacity:1" d="M-47.1,119.05Q-45.45 119.15 -44.85 119.6Q-44.05 120.3 -43.95 122.3L-43.5 125L-43.2 127.25L-43.25 128.2L-43.25 128.25Q-43.6 128 -44 127.9L-46.2 127.75L-47.95 127.4Q-48.8 127.1 -49.5 126.5Q-50.6 125.65 -51.2 122.65Q-51.65 120.8 -52.85 120.3L-52.5 119.9Q-51.1 118.75 -47.1 119.05M-45.7,122.45Q-45.65 121.1 -46.75 120.4Q-47.9 119.6 -47.95 121.15Q-47.75 123.7 -46.5 123.8Q-45.95 123.85 -45.8 123.25L-45.7 122.45" />
<path style="fill:#9F7A9F;fill-opacity:1" d="M-54.95,119.1L-55.1 119.05L-55.05 118.85L-54.95 119.1" />
<path style="fill:#383737;fill-opacity:1" d="M-43.25,128.25Q-43.3 129.6 -43.9 129.9L-46.2 130.25L-48.35 130.45L-50.7 130.6Q-52.45 130.45 -52.7 129.15L-52.9 128L-52.95 127.4L-53.05 125.95L-53.2 123.3L-53.2 122.25L-53.2 121.3L-52.85 120.3Q-51.65 120.8 -51.2 122.65Q-50.6 125.65 -49.5 126.5Q-48.8 127.1 -47.95 127.4L-46.2 127.75L-44 127.9Q-43.6 128 -43.25 128.25" />
<path style="fill:#705470;fill-opacity:1" d="M-49.15,114.45L-49.45 114.55L-49.45 113.45L-49.15 114.45" />
<path style="fill:#878686;fill-opacity:1" d="M-45.8,123.25Q-45.95 123.85 -46.5 123.8Q-47.75 123.7 -47.95 121.15Q-47.9 119.6 -46.75 120.4Q-45.65 121.1 -45.7 122.45L-45.8 123.25" />
<path style="fill:none;stroke-width:1;stroke-linecap:butt;stroke-linejoin:miter;stroke-miterlimit:3;stroke:#585454;stroke-opacity:1" d="M11.75,90.6L11.8 90.55L12.15 90.15L12.85 88.95L12.95 88.15L12.9 87.6L12.55 86.9L11.9 86.4L11.7 86.3L9.75 85.9L8.45 86.2L8.15 86.4L7.65 86.8L7.5 87.1L7.25 87.65L7.15 88.25Q7.15 89.5 8.15 90.45L8.9 90.95L10 91.2Q11 91.2 11.75 90.6M16.2,105Q16.35 103.5 16.8 101.8L16.85 101.55L17.15 100.3Q16.55 99 16.55 97.4Q16.55 96.25 17.1 95.1Q17.45 94.35 18.1 93.55L17.45 90.45L17.3 89.8Q16.45 86.25 15.6 84.35Q14.9 82.85 14.25 82.35Q13.1 81.45 8.3 81.4L7.15 81.35L6.75 81.35Q4.7 81.5 3.6 82.75L3.2 83.35Q2.85 83.9 2.65 84.7L2.5 85.2L2 88.6M25.5,85.2L25.55 81.15L25.6 79.65L25.6 78.9L25.25 77.4L25.2 77.3L25.15 77.25Q24.7 76.15 24 75.75L22.85 75.75L14.25 75.4L3.3 74.8Q0.6 74.55 0.25 78.05L0.2 79.2L0.2 80.1L0.25 83.2Q0.25 85.95 0.4 86.9L0.55 87.8Q0.9 89.5 1.65 90.4L1.95 88.85L2 88.6M1.65,90.4L0.8 92.8L0.75 93.05L1.15 94.1L1.95 96.95Q1.95 98.65 1.6 99.95L1.85 100.25L2.9 101.65Q3.5 102.15 3.7 103.6L3.75 104.95M-0.3,94.5Q0.2 93.4 0.2 92.45L0.15 91.65L-0.05 91L-0.5 90.45Q-1.05 90 -2.65 90L-4.85 90.4L-6.25 91L-6.8 91.35L-7.05 91.5Q-9.05 92.85 -10.5 95Q-12.5 97.75 -12.5 100.4Q-12.5 101.6 -11.65 102.25L-10.75 102.7L-9.7 102.8Q-8.5 102.8 -7.05 101.95Q-6.15 101.45 -5.2 100.6M-6.35,97.75L-6.5 96.9L-6.5 96.75L-6.25 95.85Q-5.9 95.3 -5.4 95.3L-4.65 95.4M0.45,92.3L0.15 91.65M0.45,92.3L0.75 93.05M18.1,93.55L18.3 93.3L21.4 90.1M21.75,98.65Q21.25 96.65 21.1 94.55L21 92.85L21 92.35L21.1 91.35L21.1 91.3L21.3 90.75L21.65 90.25Q21.9 90 22.3 90Q24.1 90 25.3 94.25Q26.2 97.5 26.2 100.15L26.1 101.9Q25.9 102.85 25.35 103.05L25.05 103.35Q22 104.05 19.6 102.8L19.9 105.05M24.85,110.5L24.85 111.2L24.75 114.25L24.65 116.05L24.65 116.1L24.15 121.15M25.85,126.65L25.8 126.8M25.25,126.8L25.15 128.55L25.1 129.85L26.7 129.9L32.2 130.45L33.2 130.7Q33.9 131 34.4 131.6M38.9,128.6L39.05 127.8Q40.1 122.55 41 119.8L41.25 119L40.4 118.3Q38.55 116.1 38.05 113.8M37.95,111.15Q38 108.85 38.35 107.2Q38.6 105.95 39.05 105Q39.6 103.85 40.45 103.25L40.8 103.05Q41.95 102.35 43.8 102.3L49.85 103.3L55.65 104.4L59.7 105L62.9 105.55Q64.65 105.75 65.2 106.65M65.3,114.6L64.9 116.1L64.9 116.2L64.65 116.4L59.7 117.65L58.2 118L58.2 118.2L59.5 125.75L59.75 127.15M73.8,136.85Q73.05 140.5 70.55 142.6L67.85 144.45L66.45 145.25L61.15 148.3Q51.15 154.6 46.15 162.7L46.25 162.75Q45.55 163.7 43.4 170.15L42.75 172.6L42.35 174.05Q40.9 179.45 39.95 181.3Q38.75 183.75 33.6 184.25L23.65 185.1Q18.85 185.5 14 185.05L7.2 184.5L0.35 184.65Q-3.9 184.8 -6.6 184.5Q-11 184.05 -20.7 184.8Q-29.05 184.9 -32.8 181.05Q-34.65 179.15 -35.5 175.65L-35.8 174.25L-36.3 171L-36.55 169.2Q-37.7 160.8 -41.6 158.7Q-46.95 155.8 -50.05 151.15L-51.05 149.5Q-52.3 147.05 -52.65 144.45L-52.75 141.45M-15.9,135.65L-16.05 133.65L-16.3 131.6L-16.35 131.5L-15.9 130.5Q-15.9 128.6 -11.1 128.6L-11.2 128.25M-13.5,128.25L-14.1 126.9M-14.15,120.85L-14.75 119.25L-15.2 118.1L-12.1 116.7L-9.25 118.95L-8.45 118.65L-8.5 115.45L-8.5 115.25L-8.5 114.3L-8.45 113.4Q-8.45 110.9 -8.25 110.25M-6.2,104.8L-6.15 104.1L-6.25 104.1L-9.75 103.05L-10.4 102.8L-10.75 102.7M17.15,100.3Q17.5 98.95 17.9 98.25L18.35 97.75L18.45 97.65L18.75 97.5L18.85 97.45L19.1 97.4Q19.8 97.4 20 98.15L20.1 99.45L19.65 102.15L19.6 102.65L19.55 102.75L19.6 102.8M19.1,105.05L19.55 102.75M8.45,86.2Q8 86.4 7.65 86.8M27.75,79.05L28.9 79.05Q30.25 79.35 30.45 79.7L30.55 81.3L30.55 83.75L30.4 85.8Q30.35 86.35 29.35 86.75L27.6 86.85L27.6 86.8M25.5,85.2L25.35 86.3L24.8 87.8Q24.05 88.85 22.65 89.1L17.3 89.8M25.6,77.25L25.2 77.3M21.1,94.55L23.05 95.3Q24.25 95.9 24.25 96.65Q24.25 97.45 23.55 98.25L22.6 99L21.95 99.4L22 99.5Q23.15 103.1 25 103.1L25.35 103.05M65.35,107.3L65.2 106.65M41.25,119L41.5 118.1L42.35 114.1L42.8 111.15Q43.25 109.75 44.15 108.9L45.25 108.1Q46.75 107.25 49.1 107.25L50.35 107.3Q54.9 107.4 55.95 108.85L56.45 110.1L57.75 115.75L58.2 118M47.1,112.95L47.8 112.35L47.9 112.35L48.05 112.15Q48.9 111.5 50.1 111.5Q51.35 111.5 52.15 112.35Q52.95 113.1 52.95 114.4L52.75 116.3L52.15 117.3L52.05 117.45M47.1,112.95L46.55 113.6Q46.3 114.05 46.3 115.55L46.3 115.7Q46.35 117.05 47.1 117.6Q47.8 118.2 49.35 118.2Q51.2 118.2 52.05 117.45M37.95,111.15L37.9 112.25L38.05 113.8M13.5,143.15L13.75 143.15L14.85 143.2L18 143.1L20.65 143L20.75 143L21.45 143.25Q23.35 144.15 23.55 146.25L23.6 152.5L23.6 154.4L23.6 157.85Q24 160.65 21.3 161.55L18.15 161.45L18.05 161.45L15.1 161.4L13.95 161.5M49.2,144.45L49.8 145.1L51.25 145.4Q53.15 145.4 54.6 144.45L56.05 143.1Q57.5 141.25 57.5 139.45Q57.5 138.6 55.6 138L55.25 137.95L55.35 138.05Q55.15 137.9 54.65 138.05L54.6 138.05L54.45 138.15Q53.15 138.85 51.55 140.25Q49.1 142.45 49.1 144.1L49.2 144.45M73.8,136.85L74.1 133.5L74.1 133.35M24.05,116.05L16.85 116.25L12.5 116.2Q11.65 117.8 10 118.85L11.1 120.75M12.05,122.55L12.65 124.05L11.65 124.85L7.6 126.75L7.5 126.75L7.45 126.8L7.25 126.9L6.9 127.2Q6.3 127.7 5.75 128.7L5.45 129.45L8.85 129.25L14.25 129.6L20.35 129.85Q23.05 129.65 24.85 129.8L25.1 129.85L25.1 129.9L24.85 129.8M-1,99.5Q-1.65 100.05 -1.65 100.55L-1.5 101L-1.25 101.45L-1.2 101.5L-0.1 102.9L0.05 103.1Q0.95 104.15 1.15 104.9M4.6,113.3L6.3 112.6L6.4 112.55L6.45 112.65L9.95 112.5L9.85 110.25M7.75,115.85L7.6 115.4L6.45 112.65L6.3 112.6M13.05,114.7L13.2 114.1L13.25 113.9Q11.55 112.8 9.95 112.5M7.75,115.85L9.15 119.3L10 118.85M4.6,113.3L0.65 114.95L-0.75 115.5L-3.5 116.6L-5.2 117.3L-8.45 118.65M-0.8,123.4L-0.05 124.9L0.3 125.7L0.5 126.2L2.4 125.25L2.5 125L3.2 121.75L1.7 122.35M3.2,121.75L9.15 119.3M13.05,114.7L12.5 116.2M12.05,122.55L11.2 120.9L11.1 120.75M5.45,129.45L5.35 129.7Q5.05 130.5 5.05 131.3L5.05 131.4Q5.1 132.45 5.7 133.35L6.5 134.25L8.85 136.15L9.45 136.2Q11.6 136.35 12.9 137M35.2,133.25Q34.95 132.25 34.4 131.6M-5.75,125.4L-6.2 127.75L-6.25 128.05L-6.55 129.65L-8.05 130.35L-7.15 131.6Q-6.55 132.3 -6.15 132.3L-3.95 131.5L-3.4 131.3L1.2 129.45L3.3 128.55L6.9 127L7.2 126.9L7.45 126.8M-3.4,131.3L-3.4 131.5L-3.4 136.45L-3.4 136.95L0.25 136.6L0.6 136.55L1.55 136.45L4.55 136.25L4.75 136.25L8.85 136.15M-3.4,136.95L-7.25 137.15Q-8.35 137.5 -8.65 138.95L-8.7 139.15L-8.75 139.8L5.5 139.8L14.35 139.75L14.35 139.45L14.35 139.4L14.35 138.3Q13.85 137.5 12.9 137M6.1,143.4L5.45 143.4Q1.3 143.25 -1.6 143.45L-1.8 143.5M6.1,143.4L8 143.4M14.35,139.45L15.7 139.55L16.3 139.6L20.5 139.65M25.15,126.65L24.9 128.25M13.65,161.5L13.5 161.5M18.05,152.05L18.05 161.45M18.05,152.05L18 143.1M21.75,98.65L21.95 99.4M-1,99.5L-0.8 99.35L-0.75 99.3L0.2 98.95Q0.8 98.95 1.6 99.95M-6.35,97.75L-6 98.65L-5.2 100.6L-3.35 98.8L-3.25 98.75L-2.15 97.45L-1.2 96.15M-1.65,95.85L-4.65 95.4M-0.3,94.5L-1.2 96.1L-1.2 96.15M-6.15,104.1L-4.5 104.25L-4 104.25L-3.95 104.85M-4,104.25L-1.7 103.85L-0.1 102.9M-1.7,103.85L-1.85 104.9M-14.15,120.85L-13.5 122.5L-13.35 122.95L-12.1 122.45L-11.85 122.35L-12.65 120.35L-10.7 119.55L-9.25 118.95M-11.85,122.35L-11.8 122.45L-11.4 123.4L-7.45 121.8L-7.35 122.1L-6.9 123.1L-10.85 124.7L-10.3 126.05L-9.95 127L-9.9 127.1L-5.75 125.4L-0.8 123.4L1.7 122.35M0.65,114.95L-0.8 113.9L-2.25 112.9L-2.9 113.2L-4.45 113.8L-4.2 114.6M-5.85,113.5L-5.65 113.25Q-5.3 112.8 -4.75 112.8Q-3.55 112.8 -2.9 113.2M-3.5,116.6L-4.2 114.6M-5.85,113.5L-5.9 113.6L-5.95 113.85L-6.05 114.1L-6.05 115.25L-6.05 117.1L-5.2 117.3M-6.05,114.1L-6.1 114.3L-6.05 115.25M-52.7,141.45L-52.7 141.9L-51.35 141.9M-15.8,153.9L-15.85 152.25L-15.8 148.9Q-15.7 146.75 -14.95 146.1L-12.35 146.15Q-12 144.05 -10.75 143.85L-9.45 143.85L-7.3 143.75L-7.2 143.75L-7.15 143.75M-11.2,126.5L-11.8 126.8L-11.7 127L-11.2 128.25M-8.05,130.35L-10.1 131.2L-11.1 128.6M-11.2,126.5L-10.3 126.05M-10.85,124.7L-12.5 125.35L-13.05 124.05L-11.4 123.4M-12.55,147.35L-12.55 146.95L-12.5 146.95L-12.55 147.35L-12.55 148.05L-12.6 148.55L-12.8 150.2L-12.75 151.55M-12.5,146.95L-12.35 146.15M-8.65,138.95L-9.25 138.9M-7.4,161.4L-8.15 161.4Q-12.15 161.4 -12.55 157.9L-12.55 156.85L-12.55 155.95L-12.65 153.5L-12.75 151.55M-12.55,157.9L-12.55 158.05Q-15.05 158.9 -15.65 156.5L-15.7 156.1M-15.8,153.9L-15.7 156.1M-1.6,161.35L-1.95 161.3L-2.15 161.3M-1.6,161.35L8.15 161.45" />
<path style="fill:none;stroke-width:1;stroke-linecap:butt;stroke-linejoin:miter;stroke-miterlimit:3;stroke:#C65307;stroke-opacity:1" d="M25.6,77.25Q27.3 77.25 27.65 78.6L27.75 79.05L27.85 80.95L27.85 82.2L27.85 83.95L27.75 86L27.6 86.8Q27.15 88.2 26 88.2Q25.05 88.2 24.8 87.8M0.55,87.8L-0.95 87.9Q-2.1 87.9 -2.4 87.15L-2.65 85.05L-3.05 80.6L-3.05 80.25Q-2.95 79 -2.4 78.5Q-1.85 78 -0.4 78L0 78.1" />
<path style="fill:none;stroke-width:1;stroke-linecap:butt;stroke-linejoin:miter;stroke-miterlimit:3;stroke:#56470D;stroke-opacity:1" d="M65.2,106.65Q65 105.15 65.55 104.7Q65.9 104.3 67.4 104.2Q69.5 104.15 69.95 105.35L70.1 109.1L69.9 112.3L69.9 112.7L69.65 114.95L69.65 115.7Q69.55 119 66.75 119.05L65.3 118.7Q64.9 118.25 64.9 117.05L64.9 116.2Q65.2 115.75 65.3 114.6L65.4 113.7L65.4 113.55L65.45 111.75M65.2,106.65L65.3 106.85L65.35 107.3L65.45 110.3L65.45 111.75" />
<path style="fill:none;stroke-width:1;stroke-linecap:butt;stroke-linejoin:miter;stroke-miterlimit:3;stroke:#91491A;stroke-opacity:1" d="M1.15,104.9L3.55 104.95L3.75 104.95L16.2 105M19.9,105.05L21.2 105.05L23.3 105.1L26.4 105.1Q28.25 105.05 28.75 105.6Q29.1 105.95 29.1 107.3L29.05 108.5L28.8 109.4L28.6 109.75L28.35 110.25L27.65 110.5L25.9 110.5L24.85 110.5M11.1,120.75L14.2 120.75L23.1 121.05L24.15 121.15Q26.2 121.35 26.65 121.7Q27.2 122.05 27.2 123.85L27.1 125.45L26.95 125.9L25.85 126.65M36.5,131.6L37.25 130.6L38.5 129.05L38.9 128.6M59.75,127.15L61.2 127.15L72.25 127.15L77.05 127.35L77.7 129.8L77.65 131.5L77.65 131.6M-52.75,141.45Q-54.5 141.3 -54.85 140.9Q-55.2 140.6 -55.25 138.15L-55.25 137.8L-55.15 136.7Q-55.1 136 -54.85 135.6L-15.9 135.65M-14.1,126.9L-14.15 126.9Q-15.95 126.6 -15.9 125.45L-15.6 122.7L-15.6 122.5L-15.55 121.85L-15.5 121.85L-15.5 121.4Q-15.45 121 -15.05 120.9L-14.15 120.85M9.85,110.25L-1.2 110.15L-1.8 110.15L-7 110.3L-8.25 110.25L-9.65 110.15L-11.35 109.7Q-11.85 109.15 -11.85 108.45L-11.5 106.5L-11.45 106.3L-11.35 105.4L-11.35 105L-10.5 104.9L-7.35 104.8L-6.2 104.8M18.25,105.05L19.1 105.05M59.75,127.15L59.55 127.15L58.8 127.15L54.9 127.1L50.3 127L44.6 127.15L42.75 127.2L41 127.25Q39.95 127.45 38.9 128.6M21.45,143.25L23.45 143.35L25.9 143.3L26.85 143.25L30.6 143.1Q32.6 143.05 34.2 141.95L34.35 141.9L34.6 141.7L36.1 140.55L38.2 138.4L40.45 135.65Q41.35 134.4 43 133.9L43.4 133.8L47.3 133.35L50.4 133.3L52.3 133.3L53.25 133.25L53.8 133.25L55.4 133.2L59.55 133.05L61.25 133.05L61.4 133.05Q67.05 133.05 69.2 133.2L73.05 133.35L73.35 133.35L74.1 133.35L76.9 133.35L77.4 133.35Q77.6 133.3 77.65 132.15L77.65 131.6M20.5,139.65L20.35 141.8L20.35 141.95Q20.35 142.7 20.65 143M9.85,110.25L17.25 110.3L21.65 110.4L24.85 110.5M7.25,126.9L7.65 126.9L14.4 126.85L18.85 126.9L25.15 126.65L25.35 126.65L25.55 126.65L25.85 126.65M19.9,105.05L19.1 105.05M18.25,105.05L16.2 105M1.15,104.9L-1.85 104.9L-3.95 104.85L-4.25 104.85L-6.2 104.8M20.5,139.65L20.5 139.2L20.5 138.5L20.8 137.9Q21.45 137.3 23.25 137.3L24.05 137.3L28.8 137.4L30.75 137.15L31.15 137L33.05 135.7L34.25 134.4L35.2 133.25M8,143.4L8 143.2L8.1 142.55L8.15 141.45L13.45 141.65L13.5 143L13.5 143.15M8,143.4Q7.9 145.4 7.95 149.55L8 156.35L8.15 161.45L8.15 161.6L11.9 161.6L13.5 161.6L13.5 161.5Q13.3 158 13.5 153.6L13.55 152.45L13.55 152.25L13.5 143.3L13.5 143.2L13.5 143.15M-2.15,161.3L-2.2 165.8L-4.7 165.85L-6.65 165.8L-7.4 165.8Q-7.6 163.5 -7.4 161.4L-7.4 161.15L-7.3 157.85Q-7.15 155.9 -7.15 151.15L-7.15 143.75L-7.15 143.65L-7.15 143.4L-7.2 142.5L-7.2 142.2L-4.4 142.1L-1.9 142L-1.8 143.5L-1.9 148.65L-1.9 148.85L-1.9 149.35M-1.9,150.05L-1.9 152.25M36.5,131.6L35.8 132.45L35.2 133.25M13.5,161.6L13.4 165.15L8.2 165.25L8.15 161.6M-15.5,121.85L-15.6 122.5M-23.35,141.25L-25.65 141.25L-34.15 141.4L-35.5 141.3L-39.95 141.55L-42.95 141.6L-46.65 141.5L-50.85 141.5L-52.7 141.45M-23.35,141.25L-19.55 141.3L-19.25 141.3L-13.45 141.3L-10.7 141.2Q-10.2 141.25 -9.8 140.9L-9.7 140.85L-9.35 140.25L-9.25 138.9L-9.25 138.1L-9.25 136.5L-9.55 136L-9.95 135.65L-15.9 135.65M-14.1,126.9L-11.8 127L-11.7 127M-7.4,161.15L-4.3 161.25L-3.8 161.2L-2.15 161.3L-2 155.55L-1.9 152.25M-52.75,141.45L-52.7 141.45" />
<path style="fill:none;stroke-width:1;stroke-linecap:butt;stroke-linejoin:miter;stroke-miterlimit:3;stroke:#776313;stroke-opacity:1" d="M38.05,113.8Q37.15 113.95 36.55 113.3Q35.8 112.6 35.8 111.15L35.8 110.3L35.8 110.25Q35.85 109.35 36.15 108.5Q36.55 107.4 37.4 107.3L38.35 107.2" />
<path style="fill:none;stroke-width:1;stroke-linecap:butt;stroke-linejoin:miter;stroke-miterlimit:3;stroke:#8D8DB1;stroke-opacity:1" d="M28.4,170.3L38.45 149.65Q36.65 147.4 35.6 144.7L34.6 141.7M5.4,145.65L5.4 146.05M5.45,143.4L5.5 139.8M18.15,161.45L18.25 170.4M38.45,149.65Q42.4 154.6 49.8 157.15M-23.7,156.35L-23.45 145.85L-23.35 141.25M-15.7,156.1L-23.7 156.35L-27.95 156.5L-28.7 170.4" />
<path style="fill:none;stroke-width:1;stroke-linecap:butt;stroke-linejoin:miter;stroke-miterlimit:3;stroke:#545353;stroke-opacity:1" d="M-19.55,116L-19.45 115.9L-19.15 115.9L-17.8 116L-17.75 116L-16.45 116.6Q-15.9 116.9 -15.7 117.45Q-15.55 118 -15.9 118.55Q-16.4 119.4 -18.6 118.05L-19.8 117.15M-44.75,110.25L-60.8 110.45L-60.75 109.1L-44.75 108.85M-40.15,108.8L-24.2 108.55L-24.05 110L-39.9 110.2M-21.9,114.7L-22.15 114.1L-22.45 113.5L-22.5 113.55L-22.7 112.05Q-22.7 111.4 -22.35 111Q-22 110.55 -21.35 110.55Q-20.35 110.55 -20.35 113.15L-20.35 114.2L-20.45 114.6L-20.45 114.65Q-20.3 114.7 -20.15 114.85L-20 115Q-19.75 115.35 -19.75 115.85L-19.75 116.1M-19.55,116L-19.75 116.1L-20.05 116.75L-19.8 117.15M-20.05,116.75L-20.15 116.85Q-20.55 117.25 -21.1 117.25L-21.65 117.15L-21.75 117.3L-22.4 118.45L-22.4 118.5L-23 119.05M-20.45,114.65L-21.1 114.45L-21.9 114.7L-22.1 114.85L-22.4 115.45L-22.45 115.85L-22.4 116.15L-22.1 116.85L-21.65 117.15M-22.4,116.15L-22.6 116.2L-23.85 116.85Q-26.05 118.35 -25.5 119.15L-24.75 119.75L-24.55 119.8L-23.7 119.6L-23.5 119.45L-23 119.05" />
<path style="fill:none;stroke-width:1;stroke-linecap:butt;stroke-linejoin:miter;stroke-miterlimit:3;stroke:#4D4B4B;stroke-opacity:1" d="M-19.8,117.15Q-20.35 117.9 -22.05 118.65L-22.55 118.85M-22.05,118.75L-21.75 120.5Q-21.5 121.65 -21.55 122.45L-22.3 122.65L-22.45 122.7L-23.35 122.95L-24.55 121.55L-25.55 120.1L-26.55 120.6L-27.55 121.75Q-28.6 123.2 -28.7 125.1L-28.7 125.95L-28.65 126.7L-28.45 129.65L-28.85 131.3L-28.95 131.6L-29.65 132.75L-30.65 133.75Q-32.4 135 -34.7 135.1L-39.55 135.4L-39.65 135.45L-43.9 135.6L-50.35 135.35Q-52.35 134.95 -53.4 133.8L-54.25 132.45L-54.4 132.05L-54.45 131.6L-54.6 130.6L-54.65 130.05Q-54.55 129.2 -54.15 128.85Q-54.05 128.6 -52.9 128L-52.95 127.4L-53.05 125.95L-53.2 123.3L-53.2 122.25L-53.25 122L-53.25 121.4L-53.2 121.3L-52.85 120.3L-52.5 119.9L-54.15 119.8Q-54.9 119.7 -54.95 119.1M-55.1,119.05L-55.05 118.85L-54.8 117.95Q-54.3 116.95 -52.65 116.6L-49.55 116.6L-49.45 114.55L-49.45 113.45Q-49.35 112.15 -45.3 111.8L-44.55 111.7L-44.75 110.25L-44.75 108.85L-44.75 108.7Q-44.7 108.2 -44.25 108L-43.6 107.8L-42.15 107.85Q-40.45 107.95 -40.15 108.8L-40.1 109.15L-39.9 110.2L-39.8 110.5Q-39.6 111.3 -39.7 111.8L-39.65 111.8Q-37.75 112 -36.95 112.6Q-35.7 113.55 -35.9 116.05L-33.3 115.8L-29.35 115.2L-22.15 114.1M-20.35,114.2L-20 114.4L-19.7 115L-19.55 116M-23,119.05L-22.55 118.85M-41.1,111.65L-40.4 111.7L-39.7 111.8M-37.65,116.25L-39.55 116.35L-39.6 116.35L-44.8 116.55L-45.7 116.4L-47.7 116.6L-49.55 116.6M-37.65,116.25L-35.9 116.05M-28.8,117.4L-29.35 115.2M-28.8,117.4L-27.55 121.75M-25.55,120.1L-24.75 119.75M-43.2,127.25L-43.25 128.2L-43.25 128.25Q-43.3 129.6 -43.9 129.9L-46.2 130.25L-48.35 130.45L-50.7 130.6Q-52.45 130.45 -52.7 129.15L-52.9 128M-54.25,132.45L-31.35 131.6L-28.85 131.3M-41.1,111.65L-44.55 111.7M-55.05,118.85L-54.95 119.1M-53.2,121.3L-53.2 122.25M-43.2,127.25L-43.5 125L-43.95 122.3Q-44.05 120.3 -44.85 119.6Q-45.45 119.15 -47.1 119.05Q-51.1 118.75 -52.5 119.9" />
<path style="fill:none;stroke-width:1;stroke-linecap:butt;stroke-linejoin:miter;stroke-miterlimit:3;stroke:#434141;stroke-opacity:1" d="M-32.95,125.65L-32.5 125.65Q-31.9 125.65 -31.75 125.05L-31.75 123.9L-31.75 122.35Q-31.95 121.55 -32.65 121.55L-33.95 121.6L-33.95 120.1Q-34 119.05 -34.55 119.05L-37 119.1Q-37.8 119 -38 119.45L-38.05 120.35L-38.05 120.55L-38 121.8L-40.25 122L-40.25 123.05Q-40.1 123.75 -40.1 124.5Q-40.1 125.25 -39.7 125.45L-38.65 125.65Q-38.05 125.7 -38.2 126.35L-38.2 127.15Q-38.05 127.6 -37.25 127.7L-34.1 127.7L-34.1 125.5L-33.4 125.5L-32.95 125.65z" />
<path style="fill:#B19541;fill-opacity:1" d="M-0.8,160.6Q-1.25 156.85 -1.2 153.15L-1.15 150.55L-1.7 153.1Q-3.2 158.85 -5.9 164.55L-9.05 161.5Q-12 158.2 -14.5 153.5Q-16.4 149.85 -16.8 149.85L-20.4 150.85Q-23.25 151.85 -26.55 151.85Q-31.25 151.85 -34.35 150.95Q-38.35 149.75 -40.2 146.85L-40.3 146.7L-40.7 146.95L-48.8 145.1L-51.45 144.55Q-50.5 141.25 -48.55 136.7Q-42.75 137.65 -41.6 138.45L-37.1 142.85Q-35.05 144.95 -31.5 144.95Q-24.45 144.95 -19.4 141.05Q-14.15 137 -14.15 130.75Q-14.15 126.45 -14.5 124.35Q-15.1 121 -16.9 119.45L-9.55 124.6Q-5.45 127.6 -1.05 128.05Q5.1 128.65 7.85 130Q12 131.95 12.55 136.45Q13.75 145.6 22.85 152.2Q31.35 158.35 40.7 158.35Q44.75 158.35 50.8 155.6L56.05 153.05L56.05 153.1Q56.05 155.5 52.85 159.85L48.2 165.9Q47.6 166.8 47.05 169L46.05 173.35L45.4 176.05L44.25 176.05Q38.35 176.05 35.9 174.25Q33.45 172.45 31.7 172.45L25.2 172.9L21.55 173.1Q9.65 173.1 1.15 169.05L0.75 168.85Q-0.3 165.15 -0.8 160.6M5.45,140.2Q5.45 145.65 8.1 148.9Q10.75 152.15 15.2 152.15L17.8 151.85Q15.1 148.95 11.2 143.45L6.1 135.8Q5.6 136.4 5.5 137.95L5.45 140.2M1.2,132Q-1.25 131.6 -1.25 134.5L-0.75 136.05Q0 137.6 1.35 137.6Q2.6 137.6 3.2 136.55Q3.65 135.75 3.65 134.55Q3.65 132.35 1.2 132M38.2,162.1L38.2 161.55Q38.2 159.45 35.7 160.35L35.6 161.3L35.7 162.3L36.9 162.45L38.05 162.3L38.2 162.1M45.75,163.25Q45.75 160.8 43 160.55Q40.2 160.3 40.2 162.3L40.5 163.5Q41.25 164.75 43.65 164.75L45.4 164.4Q45.75 164.05 45.75 163.25M-4.65,132.55L-3.7 133.05L-3.05 132.7Q-2.55 132.3 -2.55 131.85Q-2.55 131 -2.7 131.25Q-4.05 131.05 -4.65 131.25L-4.8 131.4L-4.85 131.9L-4.65 132.55M-11.2,154.2L-10.8 154.05L-10.7 152.9Q-10.7 151.15 -14 152.15Q-13.85 152.55 -13.85 153.55Q-13.6 154.3 -12.2 154.3L-11.2 154.2" />
<path style="fill:#987E32;fill-opacity:1" d="M1.2,170.35L0.85 169.15L0.75 168.85L1.15 169.05Q9.65 173.1 21.55 173.1L25.2 172.9L31.7 172.45Q33.45 172.45 35.9 174.25Q38.35 176.05 44.25 176.05L45.4 176.05Q44.75 178.35 43.85 179.9L43.05 181.05L39.2 184.3Q35.3 187.15 32.8 187.15L29.6 186.65L26.15 186.15L24 186.4L23.25 186.5L20.4 186.8L11.3 185.85L10.75 185.8Q6.6 184.85 4.45 180.15L4.2 179.3L1.2 170.35M5.5,137.95Q5.6 136.4 6.1 135.8L11.2 143.45Q15.1 148.95 17.8 151.85L15.2 152.15Q10.75 152.15 8.1 148.9Q5.45 145.65 5.45 140.2L5.5 137.95M3.65,134.55Q3.65 135.75 3.2 136.55Q2.6 137.6 1.35 137.6Q0 137.6 -0.75 136.05L-1.25 134.5Q-1.25 131.6 1.2 132Q3.65 132.35 3.65 134.55M38.05,162.3L36.9 162.45L35.7 162.3L35.6 161.3L35.7 160.35Q38.2 159.45 38.2 161.55L38.2 162.1L38.05 162.3M45.4,164.4L43.65 164.75Q41.25 164.75 40.5 163.5L40.2 162.3Q40.2 160.3 43 160.55Q45.75 160.8 45.75 163.25Q45.75 164.05 45.4 164.4M-8.65,169.75L-9.05 170.4Q-12.2 175.65 -15.7 179.7Q-19.35 183.9 -23.4 186.75Q-30.2 186.25 -33.45 182.55Q-35.3 180.55 -39.3 171.1L-41.65 164.6Q-43.05 160.85 -44.55 159.4Q-46.35 157.7 -49.85 155.3Q-52.4 153.1 -52.4 149.7Q-52.4 147.7 -51.45 144.55L-48.8 145.1L-40.7 146.95L-40.3 146.7L-40.2 146.85Q-38.35 149.75 -34.35 150.95Q-31.25 151.85 -26.55 151.85Q-23.25 151.85 -20.4 150.85L-16.8 149.85Q-16.4 149.85 -14.5 153.5Q-12 158.2 -9.05 161.5L-5.9 164.55L-8.65 169.75M-4.85,131.9L-4.8 131.4L-4.65 131.25Q-4.05 131.05 -2.7 131.25Q-2.55 131 -2.55 131.85Q-2.55 132.3 -3.05 132.7L-3.7 133.05L-4.65 132.55L-4.85 131.9M-12.2,154.3Q-13.6 154.3 -13.85 153.55Q-13.85 152.55 -14 152.15Q-10.7 151.15 -10.7 152.9L-10.8 154.05L-11.2 154.2L-12.2 154.3" />
<path style="fill:#D0B154;fill-opacity:1" d="M-23.35,73.95L-23.3 74.45L-23 74.5Q-21.6 74.75 -20 76.4Q-20.9 76.15 -21.5 77.25Q-20.8 79.15 -18.75 79.85L-18 79.6L-17.95 79.1Q-17.4 80.15 -17.4 81Q-18.25 81.4 -19.35 82.1L-20.55 82.6Q-21.25 82.6 -22.15 80.6L-23.45 77.95L-23.1 80.75L-21.4 93.4Q-19.8 102.25 -17.25 107.85Q-10.45 122.85 6.75 122.85Q15.8 122.85 21.8 115.7L24.05 112.55Q26.2 109.1 27.85 104.55Q29.7 99.5 32.05 89.35Q33.95 80.85 35.25 77.6L36.4 77.6Q36.55 89.7 30.2 105.15L25.5 113.45L23.2 117.1Q19.15 123.45 19.15 129.5Q19.15 135.7 21.4 138.8Q24.1 142.35 30.25 142.35Q37.1 142.35 40 138.1Q42.3 134.7 42.3 128Q42.3 121.35 40.7 113.8Q39.1 106.25 39.1 97L39.4 89.3L39.7 76.9L41.7 76.9L39.7 76.8L36.4 76.9L35.8 77Q35.6 76.8 35.45 76.85Q33.7 77.1 31.5 75.6Q28.95 73.85 28.95 71.5Q28.95 71 29.55 70.15Q30.25 69.2 31.05 69.2Q31.55 69.2 32.75 70.8Q34.05 72.65 34.95 73.1L34.9 72.8L34.85 72.2L35 71.55Q35.35 70.45 36.5 70.15L36.4 61.35Q37.55 54.95 37.4 47L39.7 47L41.9 48.95Q42.3 49.4 42.3 51.05Q42.3 54.9 41.05 61.4Q39.9 67.3 39.75 70.15L42 70.15L42.65 70.15Q43.3 70.5 43.3 73.55L45.55 74.15Q47.5 74.85 48.9 74.8Q47.25 79.05 46.75 79.05Q45.25 79.05 44.1 78.15L42.55 76.65L42.5 76.7L41.7 76.9L43.1 96.2Q43.9 108.5 46.9 115.3Q56 146.65 56.05 153.05L50.8 155.6Q44.75 158.35 40.7 158.35Q31.35 158.35 22.85 152.2Q13.75 145.6 12.55 136.45Q12 131.95 7.85 130Q5.1 128.65 -1.05 128.05Q-5.45 127.6 -9.55 124.6L-16.9 119.45Q-15.1 121 -14.5 124.35Q-14.15 126.45 -14.15 130.75Q-14.15 137 -19.4 141.05Q-24.45 144.95 -31.5 144.95Q-35.05 144.95 -37.1 142.85L-41.6 138.45Q-42.75 137.65 -48.55 136.7L-46.3 131.75L-38.65 115.65L-32.9 98.05Q-29.75 86.6 -30.55 78.4L-28.85 78.35Q-28.15 80.7 -27.95 83.1L-27.9 87.65Q-27.9 91.75 -31.95 103.95Q-36.05 116.15 -36.05 121.5Q-36.05 128.7 -33.15 132.25Q-30.2 135.8 -24.1 135.8Q-20.25 135.8 -19.05 133.2Q-18.4 131.75 -18.4 128Q-18.4 126.1 -21.25 115.95Q-24.2 105.6 -24.3 103.85L-25.15 90.65Q-25.65 83.15 -26.1 78.7L-26.2 78L-27.9 78.05L-28.95 78.05L-30.55 77.9L-30.65 77.85L-31.1 77.7L-34.3 79.35L-37.35 81.3L-39 81.3L-39.45 80.4L-39.65 79.3Q-39.65 77.7 -37.2 76.35Q-35.5 75.45 -33.25 74.85L-33.15 74.75L-32.9 74.45Q-32.5 74.1 -32.15 74.1L-32.15 74.45L-31.35 74.65L-31.55 73.15L-31.75 72.15L-31.45 71.25L-30.7 70.55L-29.5 70.5L-29.35 60.05L-29.2 49.6L-26.8 49.95Q-24.85 50.3 -24.6 50.55L-25.9 60.4L-27.2 70.55L-24.25 71L-23.95 71.15Q-23.25 71.75 -23.05 73.85L-23.35 73.95M37.9,58.65Q37.9 59.25 38.05 59.4L38.75 59.6L39.2 59.4L40.45 55.2L41.2 51.75Q41.2 50.9 41 50.9Q39.55 50.6 38.6 53.9Q37.9 56.45 37.9 58.65M31.4,72.6L32.15 73.3L32.85 73.1L33 72.9L32.85 71.2L31.7 71.15L31.1 71.2L31.05 71.9L31.4 72.6M46.75,77.15L46.9 76.9L47.05 76.4Q46.85 75.25 45.35 75Q43.8 74.75 43.8 75.65L43.85 76.2L43.85 76.1L44.85 77.05L46.1 77.25L46.75 77.15M47.05,133.8Q47.05 135.75 46.25 140.15Q45.4 144.6 45.4 146.5L45.4 148.95Q45.8 151.35 47.7 151.35Q49.9 151.35 50.8 149.4Q51.35 148.2 51.35 146.55L50.7 143.05Q50 140.65 50 139.1Q48.7 135.35 47.85 133.95Q47.05 132.7 47.05 133.8M46.75,130.75Q47.7 130.75 47.95 130.25L48.05 129.3Q48.05 127.65 46.4 127.3Q44.75 127 44.75 128.6Q44.65 129.1 44.85 129.65Q45.25 130.75 46.75 130.75M-27.65,52.55L-27.75 55.1L-27.7 56.5Q-27.55 57.35 -26.9 57.85L-26.1 57.45Q-26.1 56 -25.75 54.8L-25.45 53.15Q-25.45 52.65 -25.55 52.65L-25.65 52.55L-27 52.5L-27.65 52.55M-28.55,73.3L-26.25 73.3L-25.65 73.2L-25.5 73L-25.45 72.45Q-25.45 71.65 -27.05 71.5L-29.5 71.5L-29.65 71.65L-29.7 72.15L-28.55 73.3M-32.45,76.35Q-34.25 75.65 -35.3 76.05Q-36.2 76.4 -36.2 77.15L-36.15 78.05L-35.25 78.2L-34 77.75Q-32.8 77.2 -32.3 76.7L-32.45 76.35M-19.55,106L-19.7 105.5L-20.85 105.45L-21.45 105.5L-21.5 106.7Q-21.65 108.85 -20.4 108.85L-19.7 108.6L-19.55 108.2L-19.55 106M-15.95,115.35Q-15.95 112.95 -17.9 110.45Q-19.85 107.95 -19.85 111.45L-19.2 114.1Q-18.35 116.7 -17.25 116.7L-16.1 116.55L-15.95 115.35" />
<path style="fill:#EED589;fill-opacity:1" d="M38.6,53.9Q39.55 50.6 41 50.9Q41.2 50.9 41.2 51.75L40.45 55.2L39.2 59.4L38.75 59.6L38.05 59.4Q37.9 59.25 37.9 58.65Q37.9 56.45 38.6 53.9M31.05,71.9L31.1 71.2L31.7 71.15L32.85 71.2L33 72.9L32.85 73.1L32.15 73.3L31.4 72.6L31.05 71.9M-17.95,79.1L-18 79.6L-18.75 79.85Q-20.8 79.15 -21.5 77.25Q-20.9 76.15 -20 76.4L-19.25 76.8Q-17.95 77.8 -17.95 78.85L-17.95 79.1M46.1,77.25L44.85 77.05L43.85 76.1L43.85 76.2L43.8 75.65Q43.8 74.75 45.35 75Q46.85 75.25 47.05 76.4L46.9 76.9L46.75 77.15L46.1 77.25M47.85,133.95Q48.7 135.35 50 139.1Q50 140.65 50.7 143.05L51.35 146.55Q51.35 148.2 50.8 149.4Q49.9 151.35 47.7 151.35Q45.8 151.35 45.4 148.95L45.4 146.5Q45.4 144.6 46.25 140.15Q47.05 135.75 47.05 133.8Q47.05 132.7 47.85 133.95M44.85,129.65Q44.65 129.1 44.75 128.6Q44.75 127 46.4 127.3Q48.05 127.65 48.05 129.3L47.95 130.25Q47.7 130.75 46.75 130.75Q45.25 130.75 44.85 129.65M-27,52.5L-25.65 52.55L-25.55 52.65Q-25.45 52.65 -25.45 53.15L-25.75 54.8Q-26.1 56 -26.1 57.45L-26.9 57.85Q-27.55 57.35 -27.7 56.5L-27.75 55.1L-27.65 52.55L-27 52.5M-29.7,72.15L-29.65 71.65L-29.5 71.5L-27.05 71.5Q-25.45 71.65 -25.45 72.45L-25.5 73L-25.65 73.2L-26.25 73.3L-28.55 73.3L-29.7 72.15M-32.3,76.7Q-32.8 77.2 -34 77.75L-35.25 78.2L-36.15 78.05L-36.2 77.15Q-36.2 76.4 -35.3 76.05Q-34.25 75.65 -32.45 76.35L-32.3 76.7M-19.55,108.2L-19.7 108.6L-20.4 108.85Q-21.65 108.85 -21.5 106.7L-21.45 105.5L-20.85 105.45L-19.7 105.5L-19.55 106L-19.55 108.2M-16.1,116.55L-17.25 116.7Q-18.35 116.7 -19.2 114.1L-19.85 111.45Q-19.85 107.95 -17.9 110.45Q-15.95 112.95 -15.95 115.35L-16.1 116.55" />
<path style="fill:none;stroke-width:1;stroke-linecap:butt;stroke-linejoin:miter;stroke-miterlimit:3;stroke:#695722;stroke-opacity:1" d="M35.8,77Q35.6 76.8 35.45 76.85Q33.7 77.1 31.5 75.6Q28.95 73.85 28.95 71.5Q28.95 71 29.55 70.15Q30.25 69.2 31.05 69.2Q31.55 69.2 32.75 70.8Q34.05 72.65 34.95 73.1L34.9 72.8L34.85 72.2L35 71.55Q35.35 70.45 36.5 70.15L36.4 61.35Q37.55 54.95 37.4 47L39.7 47L41.9 48.95Q42.3 49.4 42.3 51.05Q42.3 54.9 41.05 61.4Q39.9 67.3 39.75 70.15L42 70.15L42.65 70.15Q43.3 70.5 43.3 73.55L45.55 74.15Q47.5 74.85 48.9 74.8Q47.25 79.05 46.75 79.05Q45.25 79.05 44.1 78.15L42.55 76.65L42.5 76.7L41.7 76.9L43.1 96.2Q43.9 108.5 46.9 115.3Q56 146.65 56.05 153.05L56.05 153.1Q56.05 155.5 52.85 159.85L48.2 165.9Q47.6 166.8 47.05 169L46.05 173.35L45.4 176.05Q44.75 178.35 43.85 179.9L43.05 181.05L39.2 184.3Q35.3 187.15 32.8 187.15L29.6 186.65L26.15 186.15L24 186.4L23.25 186.5L20.4 186.8L11.3 185.85L10.75 185.8Q6.6 184.85 4.45 180.15L4.2 179.3L1.6 180.7M34.95,73.1L35.05 73.7Q36.35 73.1 38.85 73.2L42.3 73.4L42.95 73.5L43.3 73.55L43.3 73.6Q43.3 75.95 42.55 76.65M39.7,70.85L39.75 70.15L39.05 70.15L36.6 70.1L36.5 70.15M39.7,76.9L39.7 76.8L36.4 76.9L36.4 77L36.4 77.1L36.4 77.6Q36.55 89.7 30.2 105.15L25.5 113.45L23.2 117.1Q19.15 123.45 19.15 129.5Q19.15 135.7 21.4 138.8Q24.1 142.35 30.25 142.35Q37.1 142.35 40 138.1Q42.3 134.7 42.3 128Q42.3 121.35 40.7 113.8Q39.1 106.25 39.1 97L39.4 89.3L39.7 76.9M41.7,76.9L39.7 76.8M36.4,76.9L35.8 77L35.45 77.05L35.25 77.6Q33.95 80.85 32.05 89.35Q29.7 99.5 27.85 104.55Q26.2 109.1 24.05 112.55L21.8 115.7Q15.8 122.85 6.75 122.85Q-10.45 122.85 -17.25 107.85Q-19.8 102.25 -21.4 93.4L-23.1 80.75L-23.45 77.95L-22.15 80.6Q-21.25 82.6 -20.55 82.6L-19.35 82.1Q-18.25 81.4 -17.4 81Q-17.4 80.15 -17.95 79.1M35.05,73.7L35.15 74.4L35.45 76.85L35.45 77.05M-20,76.4Q-21.6 74.75 -23 74.5L-23 75.4Q-23 76.85 -23.85 77.45L-24.3 77.7L-26.2 78L-26.1 78.7Q-25.65 83.15 -25.15 90.65L-24.3 103.85Q-24.2 105.6 -21.25 115.95Q-18.4 126.1 -18.4 128Q-18.4 131.75 -19.05 133.2Q-20.25 135.8 -24.1 135.8Q-30.2 135.8 -33.15 132.25Q-36.05 128.7 -36.05 121.5Q-36.05 116.15 -31.95 103.95Q-27.9 91.75 -27.9 87.65L-27.95 83.1Q-28.15 80.7 -28.85 78.35M-30.55,78.4Q-29.75 86.6 -32.9 98.05L-38.65 115.65L-46.3 131.75L-48.55 136.7Q-50.5 141.25 -51.45 144.55Q-52.4 147.7 -52.4 149.7Q-52.4 153.1 -49.85 155.3Q-46.35 157.7 -44.55 159.4Q-43.05 160.85 -41.65 164.6L-39.3 171.1Q-35.3 180.55 -33.45 182.55Q-30.2 186.25 -23.4 186.75Q-19.35 183.9 -15.7 179.7L-15.75 179.65L-17.4 178.35M-1.2,153.15Q-1.25 156.85 -0.8 160.6Q-0.3 165.15 0.75 168.85L0.85 169.15L0.9 169.1L1.15 169.05L3.05 168.4M-1.3,169.65L0.85 169.15L1.2 170.35L4.2 179.3L5.4 178.7M47.05,169L46.8 168.55M-26.2,78L-27.9 78.05L-28.95 78.05L-30.55 77.9L-30.65 77.85L-31.1 77.7L-34.3 79.35L-37.35 81.3L-39 81.3L-39.45 80.4L-39.65 79.3Q-39.65 77.7 -37.2 76.35Q-35.5 75.45 -33.25 74.85L-33.15 74.75L-32.9 74.45Q-32.5 74.1 -32.15 74.1L-32.15 74.45L-31.35 74.65L-31.55 73.15L-31.75 72.15L-31.45 71.25L-30.7 70.55L-29.5 70.5L-29.35 60.05L-29.2 49.6L-26.8 49.95Q-24.85 50.3 -24.6 50.55L-25.9 60.4L-27.2 70.55L-24.25 71L-23.95 71.15Q-23.25 71.75 -23.05 73.85L-23 74.5L-23.3 74.45L-23.35 73.95L-25.6 74.5L-27.9 74.8L-31.35 74.65L-31.15 77.7L-31.1 77.7M-27.2,70.55L-28.1 70.5L-29.5 70.5M-23.35,73.95L-23.05 73.85M-5.9,164.55Q-3.2 158.85 -1.7 153.1L-4.95 152.65M-1.15,150.55L-1.2 153.15L-1.7 153.1L-1.15 150.55L-1.1 150.3L-0.95 149.6L-2.75 149.2M-1.2,153.15L-0.85 153.15L2.3 153.35M-15.7,179.7Q-12.2 175.65 -9.05 170.4L-8.65 169.75Q-9.8 168.9 -10.15 168.9M-5.9,164.55L-8.65 169.75L-8.3 170Q-6.85 171.1 -6.2 171.1M-15.7,179.7L-14.15 181.05M-0.6,147.4L-0.95 149.6L0.3 149.75" />
</g>
</svg>
