<?xml version="1.0" encoding="utf-8"?>
<svg version="1.1" id="Layer_1"
xmlns="http://www.w3.org/2000/svg"
xmlns:xlink="http://www.w3.org/1999/xlink"
xmlns:author="http://www.sothink.com"
width="112px" height="93px"
xml:space="preserve">
<g id="134" transform="matrix(1, 0, 0, 1, 56, 48.15)">
<path style="fill:#727272;fill-opacity:1" d="M-18.55,-31.2L-19.25 -32.25L-19.6 -32.95L-16.3 -35.2L-13.1 -30.6Q-12.4 -28.6 -11.45 -27.25L-7.05 -30.15Q-4.4 -31.75 -2.15 -32.75Q1.4 -34.35 3.65 -34.25L3.75 -34.25Q6.5 -34.1 9.65 -31.55L11.2 -30.2Q13.9 -27.5 16.9 -23.1L17.1 -22.8L17.35 -22.45L22.7 -14.45L22.65 -14.4L20.05 -15.65L17.9 -16.35L17.05 -17.65L15.75 -19.55L14.7 -21.1L11 -25.7L8.45 -28.3Q5.65 -30.6 3.65 -30.55Q1.45 -30.4 -4.95 -27.1Q-10.15 -24.5 -12 -23.2Q-13.4 -22.25 -15.1 -20.2Q-16.8 -18.25 -18.05 -17.35Q-19.05 -16.65 -19.95 -16.7Q-19.5 -21 -14.4 -25.1L-12.75 -26.4L-12.65 -26.45L-13.6 -27.75L-15.55 -30.65Q-16.85 -31.75 -18.55 -31.2M9.65,7.2L9.7 7.2L11.85 7.2L15.55 7.15L17.2 7.1L17.75 7.05L19.25 7L19.95 7L25.4 6.8L27.95 6.7L28.35 6.7L29.6 6.8L29.55 11.35L29.55 11.4L23.75 10.45L15.95 10.15L13 10.2L3.85 10.45L0.9 10.2L-10.15 9.05L-19.7 8.45L-19.85 8.45L-23.2 8.55L-23.25 8.55L-28.7 8.85Q-29.5 8.95 -32.55 10.35L-33.4 10.7Q-35.65 11.65 -36.55 11.65L-38.5 11.2L-38.7 11.1Q-37.2 9.3 -34.7 8.35L-32.95 7.8L-32.7 7.75L-24.7 7L-23.35 7L-16.8 7.15L-15.7 7.15L-9.7 7.3L-9.5 7.3L-9.35 7.55L-8.95 7.3L-6.5 7.25L-3.95 7.25L-3.05 7.25L-2.65 7.25L0.6 7.2L1.2 7.2L7.85 7.2L9.65 7.2M27.1,4.05L26.25 4L27 3.15L28.6 1.2L28.55 3.9L27.1 4.05M-40.9,15.35Q-42.05 14.9 -43.5 13.7Q-46.3 11.45 -47.05 9.25Q-47.35 8.4 -47.85 7.9Q-48.75 7.05 -50.3 7.1Q-51.75 7.15 -52.65 6.35L-51.65 5.75L-47.5 5.75L-45.7 6.05Q-44.3 6.4 -44.25 7.25Q-44.15 9.3 -43.3 10.9Q-42.25 12.85 -40.1 13.45L-40.9 15.35M-18.8,4.85L-23 4.45L-27.2 4.05L-30.15 4.25L-30.9 4.35L-34.25 4.65L-34.9 4.55Q-34.6 3.1 -33.5 2.5Q-32.25 1.75 -27.95 1.65L-27.45 1.65L-19.6 2.15Q-17 2.25 -16.65 4.6L-18.8 4.85M-6.4,-42.4Q-7.5 -44.35 -8.1 -44.9Q-9.15 -45.55 -10.75 -44.5L-11.2 -44.3L-12.9 -42.65L-13.15 -42.5Q-13 -44.7 -11.3 -46.2L-10.8 -46.6L-9.8 -47.2L-8.2 -47.65L-6.75 -47.25L-6.25 -46.9L-3.75 -43.75L-2.8 -42.3Q-2.7 -41.95 -2.95 -41.55L-3.55 -40.9L-4.6 -40.15Q-5.6 -40.9 -6.4 -42.4M29.55,11.4L29.9 11.35L37.05 10.45L38.85 10.5Q43.25 10.75 47.8 12.3L48.35 12.45Q49.55 12.9 50.6 14.35L52.5 17.3Q53.55 18.7 55 19.7L53.7 21Q53.05 21.5 51.55 21.5Q50.6 21.55 49.4 20.8L47.25 19.25L46.95 20.05Q46.2 21.3 44.05 21.3Q42.5 21.3 41.15 20.65L38.45 19L38.15 20.05Q37.35 21.55 34.9 21.55Q31.75 21.6 30.6 20.65Q29.45 19.7 29.45 16.95L29.5 13.95L29.55 11.4M41.85,17.95Q42.3 18.7 43.65 18.7Q44.5 18.7 44.8 18L44.85 17.85L44.85 17.75L44.85 17.3Q44.85 15.9 43.25 15.8Q41.65 15.65 41.65 17.15L41.85 17.95M35.8,17.4Q35.8 15.95 34.1 15.9Q32.4 15.85 32.4 17.5L32.55 18.35Q32.95 19.1 34.2 19.1L35.2 18.9L35.5 18.8L35.6 18.45L35.8 17.4M34.05,17.6L34 17.75L33.8 17.6L34.05 17.6" />
<path style="fill:#4D4C4C;fill-opacity:1" d="M19.95,7L19.85 6.65Q21.5 3.55 21.45 2.8L21.4 2.7L21.75 2.6Q22.4 2.6 23.4 3.65Q24.4 4.65 25 4.65L25.5 4.55L25.5 3.8L26.25 4L27.1 4.05L28.55 3.9L28.5 6.4L28.35 6.7L27.95 6.7L25.4 6.8L19.95 7M29.5,13.95L29.45 16.95Q29.45 19.7 30.6 20.65Q31.75 21.6 34.9 21.55Q37.35 21.55 38.15 20.05L38.45 19L41.15 20.65Q42.5 21.3 44.05 21.3Q46.2 21.3 46.95 20.05L47.25 19.25L49.4 20.8Q50.6 21.55 51.55 21.5Q53.05 21.5 53.7 21L55 19.7L55.05 19.65L55.05 19.7L55.5 25.8Q53.25 24.4 52.6 24.4L49.6 24.8L47.05 24.4L44.25 24Q43.7 24 41.9 24.7Q40.1 25.4 39.05 25.4Q34.9 25.4 32.6 23.9Q30.35 22.4 28.25 22.4L25.6 23.1L23.2 23.8Q22.1 23.8 21.05 23.2Q20 22.65 18.95 21.5Q16.9 19.2 13.5 19.2Q9.1 19.2 6.25 21.5Q3.35 23.8 1.05 23.8Q-1.35 23.8 -2.3 22.5Q-2.8 21.85 -3.25 19.65L-3.55 18.65Q-4.8 15.45 -8.95 15.45Q-10.85 15.45 -11.85 18.45L-12.05 19Q-13.15 21.4 -15.7 21.4Q-17.95 21.4 -18.2 18.95L-18.25 18.75Q-18.5 16.05 -21.4 16.05L-23.65 16.5Q-25.8 17.35 -27.3 20.05Q-29.45 24 -33.35 24Q-36.2 24 -38.1 21.1Q-39.15 19.45 -40.35 18.75Q-41.05 18.35 -41.75 18.25L-42.25 18.2L-42.8 18.25L-45.15 18.5L-47.95 18.8Q-49.55 18.8 -50.65 14.75L-50.9 13.75L-51 13.15Q-52.05 8.65 -53 8.65L-53.55 8.75Q-53.2 7.05 -52.65 6.35Q-51.75 7.15 -50.3 7.1Q-48.75 7.05 -47.85 7.9Q-47.35 8.4 -47.05 9.25Q-46.3 11.45 -43.5 13.7Q-42.05 14.9 -40.9 15.35L-40.1 13.45L-39.65 12.5L-38.7 11.1L-38.5 11.2L-36.55 11.65Q-35.65 11.65 -33.4 10.7L-32.55 10.35Q-29.5 8.95 -28.7 8.85L-23.25 8.55L-23.2 8.55L-19.85 8.45L-19.7 8.45L-10.15 9.05L0.9 10.2L3.85 10.45L13 10.2L15.95 10.15L23.75 10.45L29.55 11.4L29.55 11.35L29.9 11.35L29.55 11.4L29.5 13.95M-23.35,7L-24.7 7L-32.7 7.75L-32.95 7.8L-34.7 8.35Q-35.2 6 -34.9 4.55L-34.25 4.65L-30.9 4.35L-30.15 4.25L-27.2 4.05L-23 4.45L-18.8 4.85L-16.65 4.6Q-16.5 5.65 -16.8 7.15L-23.35 7M-14.1,-1.1L-14.85 -2.7L-18.25 -9.95L-19.15 -11.85Q-20.3 -14.3 -19.95 -16.7Q-19.05 -16.65 -18.05 -17.35Q-16.8 -18.25 -15.1 -20.2Q-13.4 -22.25 -12 -23.2Q-10.15 -24.5 -4.95 -27.1Q1.45 -30.4 3.65 -30.55Q5.65 -30.6 8.45 -28.3L11 -25.7L14.7 -21.1L-14.1 -1.1M-15.55,-30.65L-13.6 -27.75L-12.65 -26.45L-12.75 -26.4L-14.4 -25.1L-15.85 -26.85L-18.55 -31.2Q-16.85 -31.75 -15.55 -30.65M-4.6,-40.15L-5.05 -39.85Q-5.9 -39.2 -5.7 -38.5Q-5.35 -37.3 -4.15 -35.65L-2.15 -32.75Q-4.4 -31.75 -7.05 -30.15L-9.8 -33.9Q-12.55 -37.95 -13.05 -40.9L-13.15 -42.5L-12.9 -42.65L-11.2 -44.3L-10.75 -44.5Q-9.15 -45.55 -8.1 -44.9Q-7.5 -44.35 -6.4 -42.4Q-5.6 -40.9 -4.6 -40.15M3.4,-25.6L3.5 -25.5L3.6 -25.35L3.8 -25.1Q5.6 -22.25 6.1 -21.75Q6.75 -21 8.8 -22.5Q10.65 -23.75 9.75 -25.05Q8.45 -26.95 7.6 -27.35L7.3 -27.5Q6.2 -27.75 4.9 -26.8L3.4 -25.6M0.4,-19.35Q-0.75 -21 -1.55 -21.3L-1.65 -21.35Q-2.5 -21.6 -3.55 -20.85Q-4.95 -19.85 -5.25 -18.85L-5.4 -18.3L-5.45 -18.1L-4.8 -17.2L-3.2 -15Q-2.35 -14.25 -0.65 -15.5L1.5 -17.1Q1.55 -17.6 0.4 -19.35M-13.1,-10.45Q-12.1 -8.95 -11.55 -8.75Q-10.7 -8.25 -8.7 -9.6Q-7.5 -10.45 -7.5 -11L-8.55 -12.75Q-9.9 -14.7 -10.4 -14.9L-10.85 -15Q-11.65 -15 -12.85 -14.1Q-14.1 -13.25 -14.15 -12.75L-14.15 -11.75L-13.1 -10.45M-1.95,10.8Q-3.25 10.6 -3.25 11.55L-3.05 12.05Q-2.65 12.75 -1.65 12.75L-0.75 12.5L-0.65 11.9Q-0.65 11 -1.95 10.8M-19,11.45Q-19 9.3 -20.4 9.6Q-21.8 9.9 -21.8 10.9L-21.6 11.65Q-21.2 12.35 -20.1 12.35Q-19.2 12.35 -19.05 12.05L-19 11.45M-27.45,10.15L-27.85 10.95L-27.4 11.7L-26.35 12.35Q-25.45 12.35 -25 11.8Q-24.65 11.4 -24.65 10.9Q-24.65 10.35 -25.35 9.75Q-26.75 9.4 -27.45 10.15M-38.55,14.8Q-38.55 15.8 -37.15 15.8Q-35.55 15.8 -35.55 14.55Q-35.55 13.05 -37.05 13.15Q-38.55 13.25 -38.55 14.8M27.1,15.2Q26.1 15.15 26.1 16.1L26.1 16.7Q26.3 17.35 27.2 17.35Q28.1 17.35 28.1 16.2Q28.1 15.25 27.1 15.2M19,17L20 16.75Q20.5 16.5 20.5 16.1Q20.5 15.1 19 14.85Q17.5 14.65 17.5 16.1L17.55 16.6Q17.85 17 19 17" />
<path style="fill:#2E2C2C;fill-opacity:1" d="M-10.2,6.15L-13.85 -0.6L-14.1 -1.1L14.7 -21.1L15.75 -19.55L17.05 -17.65L17.9 -16.35L17.2 -16.45Q16.1 -16.45 14.65 -14.6Q13.25 -12.85 12.4 -12.8L12.55 -12.4Q12.55 -8.15 11.75 -4.7L8.8 -4.45Q7.9 -4.3 7.9 -2.95Q7.9 -1.25 9.5 -1.25Q11.3 -1.25 11.55 -0.2Q11.95 1.75 13 2.2L15.2 2.6Q15.4 3.55 16.15 5.1L17.2 7.1L15.55 7.15L11.85 7.2L9.7 7.2L9.65 7.2L9.05 5.75Q8.7 4.85 8.7 4.05L8.3 4.05L5.05 5.85L4.25 4.55L3 3.25Q3 4 2.2 5.35L1.2 7.2L0.6 7.2L-2.65 7.25L-3.05 7.25L-3.95 7.25L-6.5 7.25L-8.95 7.3L-9.35 7.55L-9.5 7.3L-10.2 6.15M4.9,-26.8Q6.2 -27.75 7.3 -27.5L7.6 -27.35Q8.45 -26.95 9.75 -25.05Q10.65 -23.75 8.8 -22.5Q6.75 -21 6.1 -21.75Q5.6 -22.25 3.8 -25.1L3.6 -25.35L3.5 -25.5L3.4 -25.6L4.9 -26.8M3.85,-6.3Q4.4 -7.7 8.1 -14L10.05 -13.4L11.65 -12.9L11.1 -13.25Q7.8 -14.95 5.4 -13.3Q3 -11.65 3.35 -7.8L3.45 -6.4L3.85 -6.3M1.5,-17.1L-0.65 -15.5Q-2.35 -14.25 -3.2 -15L-4.8 -17.2L-5.45 -18.1L-5.4 -18.3L-5.25 -18.85Q-4.95 -19.85 -3.55 -20.85Q-2.5 -21.6 -1.65 -21.35L-1.55 -21.3Q-0.75 -21 0.4 -19.35Q1.55 -17.6 1.5 -17.1M-13.95,-11.65L-14.15 -11.75L-14.15 -12.75Q-14.1 -13.25 -12.85 -14.1Q-11.65 -15 -10.85 -15L-10.4 -14.9Q-9.9 -14.7 -8.55 -12.75L-7.5 -11Q-7.5 -10.45 -8.7 -9.6Q-10.7 -8.25 -11.55 -8.75Q-12.1 -8.95 -13.1 -10.45L-13.95 -11.65" />
<path style="fill:#3A3939;fill-opacity:1" d="M20.35,43.6L20.15 43.6L4.5 44.3L-6.5 43.9L-9.05 43.7L-22.65 43.05L-26.3 42.95L-30.15 42.6Q-33.65 42.1 -37.25 40.75L-38.15 40.4Q-39.65 39.8 -42.95 39.55L-48.5 39.35Q-53.6 39.3 -54.8 37.85Q-55.5 36.9 -55.5 32.6L-55.1 24.85L-54.5 17.65L-53.9 10.75L-53.55 8.75L-53 8.65Q-52.05 8.65 -51 13.15L-50.9 13.75L-50.65 14.75Q-49.55 18.8 -47.95 18.8L-45.15 18.5L-42.8 18.25L-42.25 18.2L-41.75 18.25Q-41.05 18.35 -40.35 18.75Q-39.15 19.45 -38.1 21.1Q-36.2 24 -33.35 24Q-29.45 24 -27.3 20.05Q-25.8 17.35 -23.65 16.5L-21.4 16.05Q-18.5 16.05 -18.25 18.75L-18.2 18.95Q-17.95 21.4 -15.7 21.4Q-13.15 21.4 -12.05 19L-11.85 18.45Q-10.85 15.45 -8.95 15.45Q-4.8 15.45 -3.55 18.65L-3.25 19.65Q-2.8 21.85 -2.3 22.5Q-1.35 23.8 1.05 23.8Q3.35 23.8 6.25 21.5Q9.1 19.2 13.5 19.2Q16.9 19.2 18.95 21.5Q20 22.65 21.05 23.2Q22.1 23.8 23.2 23.8L25.6 23.1L28.25 22.4Q30.35 22.4 32.6 23.9Q34.9 25.4 39.05 25.4Q40.1 25.4 41.9 24.7Q43.7 24 44.25 24L47.05 24.4L49.6 24.8L52.6 24.4Q53.25 24.4 55.5 25.8L55.5 26.5Q55.6 32.1 53.9 35.95Q52.15 39.75 50.55 40.55L44.35 42L36.3 42.8L20.65 43.6L20.35 43.6M-9.5,7.3L-9.7 7.3L-9.8 7L-10.15 7L-10.2 6.15L-9.5 7.3M3.45,-6.4L3.35 -7.8Q3 -11.65 5.4 -13.3Q7.8 -14.95 11.1 -13.25L11.65 -12.9L10.05 -13.4L8.1 -14Q4.4 -7.7 3.85 -6.3L3.45 -6.4M7.85,7.2L1.2 7.2L2.2 5.35Q3 4 3 3.25L4.25 4.55L5.05 5.85L8.3 4.05L8.7 4.05Q8.7 4.85 9.05 5.75L9.65 7.2L7.85 7.2M-0.65,11.9L-0.75 12.5L-1.65 12.75Q-2.65 12.75 -3.05 12.05L-3.25 11.55Q-3.25 10.6 -1.95 10.8Q-0.65 11 -0.65 11.9M-19.05,12.05Q-19.2 12.35 -20.1 12.35Q-21.2 12.35 -21.6 11.65L-21.8 10.9Q-21.8 9.9 -20.4 9.6Q-19 9.3 -19 11.45L-19.05 12.05M-24.35,18.4L-24.2 18.55L-23.8 18.6L-23.8 18.4L-24.35 18.4M-25.35,9.75Q-24.65 10.35 -24.65 10.9Q-24.65 11.4 -25 11.8Q-25.45 12.35 -26.35 12.35L-27.4 11.7L-27.85 10.95L-27.45 10.15Q-26.75 9.4 -25.35 9.75M-37.05,13.15Q-35.55 13.05 -35.55 14.55Q-35.55 15.8 -37.15 15.8Q-38.55 15.8 -38.55 14.8Q-38.55 13.25 -37.05 13.15M41.65,17.15Q41.65 15.65 43.25 15.8Q44.85 15.9 44.85 17.3L44.85 17.75L44.85 17.85L44.8 18Q44.5 18.7 43.65 18.7Q42.3 18.7 41.85 17.95L41.65 17.15M28.1,16.2Q28.1 17.35 27.2 17.35Q26.3 17.35 26.1 16.7L26.1 16.1Q26.1 15.15 27.1 15.2Q28.1 15.25 28.1 16.2M35.6,18.45L35.5 18.8L35.2 18.9L34.2 19.1Q32.95 19.1 32.55 18.35L32.4 17.5Q32.4 15.85 34.1 15.9Q35.8 15.95 35.8 17.4L35.6 18.45M33.8,17.6L34 17.75L34.05 17.6L33.8 17.6M17.55,16.6L17.5 16.1Q17.5 14.65 19 14.85Q20.5 15.1 20.5 16.1Q20.5 16.5 20 16.75L19 17Q17.85 17 17.55 16.6" />
<path style="fill:#989696;fill-opacity:1" d="M29.55,11.35L29.6 6.8L35.4 7.2L38.95 7.55L45.15 8.55L47.7 9.2L49.65 9.85Q51.4 10.8 52.65 12.2Q53.85 13.55 54.65 17.25L55.05 19.65L55 19.7Q53.55 18.7 52.5 17.3L50.6 14.35Q49.55 12.9 48.35 12.45L47.8 12.3Q43.25 10.75 38.85 10.5L37.05 10.45L29.9 11.35L29.55 11.35" />
<path style="fill:none;stroke-width:1;stroke-linecap:butt;stroke-linejoin:miter;stroke-miterlimit:3;stroke:#2A2929;stroke-opacity:1" d="M-9.8,7L-10.15 7L-10.2 6.15L-13.85 -0.6L-14.1 -1.1L-14.85 -2.7L-18.25 -9.95L-19.15 -11.85Q-20.3 -14.3 -19.95 -16.7Q-19.5 -21 -14.4 -25.1L-15.85 -26.85L-18.55 -31.2L-19.25 -32.25L-19.6 -32.95L-16.3 -35.2L-13.1 -30.6Q-12.4 -28.6 -11.45 -27.25L-7.05 -30.15L-9.8 -33.9Q-12.55 -37.95 -13.05 -40.9L-13.15 -42.5Q-13 -44.7 -11.3 -46.2L-10.8 -46.6L-9.8 -47.2L-8.2 -47.65L-6.75 -47.25L-6.25 -46.9L-3.75 -43.75L-2.8 -42.3Q-2.7 -41.95 -2.95 -41.55L-3.55 -40.9L-4.6 -40.15L-5.05 -39.85Q-5.9 -39.2 -5.7 -38.5Q-5.35 -37.3 -4.15 -35.65L-2.15 -32.75Q1.4 -34.35 3.65 -34.25L3.75 -34.25Q6.5 -34.1 9.65 -31.55L11.2 -30.2Q13.9 -27.5 16.9 -23.1L17.1 -22.8L17.35 -22.45L22.7 -14.45M9.7,7.2L11.85 7.2L15.55 7.15L17.2 7.1L17.75 7.05L19.25 7L19.95 7M28.6,1.2L28.55 3.9L28.5 6.4M28.35,6.7L29.6 6.8L35.4 7.2L38.95 7.55L45.15 8.55L47.7 9.2L49.65 9.85Q51.4 10.8 52.65 12.2Q53.85 13.55 54.65 17.25L55.05 19.65L55.05 19.7L55.5 25.8L55.5 26.5Q55.6 32.1 53.9 35.95Q52.15 39.75 50.55 40.55L44.35 42L36.3 42.8L20.65 43.6L20.35 43.7L20.35 43.6L20.15 43.6L4.5 44.3L-6.5 43.9L-9.05 43.7L-22.65 43.05L-26.3 42.95L-30.15 42.6Q-33.65 42.1 -37.25 40.75L-38.15 40.4Q-39.65 39.8 -42.95 39.55L-48.5 39.35Q-53.6 39.3 -54.8 37.85Q-55.5 36.9 -55.5 32.6L-55.1 24.85L-54.5 17.65L-53.9 10.75L-53.55 8.75Q-53.2 7.05 -52.65 6.35L-51.65 5.75L-47.5 5.75L-45.7 6.05Q-44.3 6.4 -44.25 7.25Q-44.15 9.3 -43.3 10.9Q-42.25 12.85 -40.1 13.45L-39.65 12.5L-38.7 11.1Q-37.2 9.3 -34.7 8.35Q-35.2 6 -34.9 4.55Q-34.6 3.1 -33.5 2.5Q-32.25 1.75 -27.95 1.65L-27.45 1.65L-19.6 2.15Q-17 2.25 -16.65 4.6Q-16.5 5.65 -16.8 7.15L-15.7 7.15L-9.7 7.3M-2.15,-32.75Q-4.4 -31.75 -7.05 -30.15M3.4,-25.6L3.5 -25.5L3.6 -25.35L3.8 -25.1Q5.6 -22.25 6.1 -21.75Q6.75 -21 8.8 -22.5Q10.65 -23.75 9.75 -25.05Q8.45 -26.95 7.6 -27.35L7.3 -27.5Q6.2 -27.75 4.9 -26.8L3.4 -25.6M14.7,-21.1L17.1 -22.8M14.7,-21.1L-14.1 -1.1M0.4,-19.35Q-0.75 -21 -1.55 -21.3L-1.65 -21.35Q-2.5 -21.6 -3.55 -20.85Q-4.95 -19.85 -5.25 -18.85L-5.4 -18.3L-5.45 -18.1L-4.8 -17.2L-3.2 -15Q-2.35 -14.25 -0.65 -15.5L1.5 -17.1Q1.55 -17.6 0.4 -19.35M-14.4,-25.1L-12.75 -26.4L-12.65 -26.45L-11.45 -27.25M-13.1,-10.45Q-12.1 -8.95 -11.55 -8.75Q-10.7 -8.25 -8.7 -9.6Q-7.5 -10.45 -7.5 -11L-8.55 -12.75Q-9.9 -14.7 -10.4 -14.9L-10.85 -15Q-11.65 -15 -12.85 -14.1Q-14.1 -13.25 -14.15 -12.75L-14.15 -11.75L-13.95 -11.65L-13.1 -10.45L-14.15 -11.75M-3.05,7.25L-2.65 7.25L0.6 7.2L1.2 7.2L7.85 7.2L9.65 7.2M-9.35,7.55L-9.5 7.3L-9.7 7.3M-3.05,7.25L-3.95 7.25L-6.5 7.25L-8.95 7.3M-3.55,18.65L-2.45 18.45L-0.65 18.55Q0.4 18.4 0.6 17.25L1.1 14.05L1.1 13.25L0.9 10.2L0.6 7.2M-23.25,8.55L-23.65 16.5L-23.8 18.4L-23.8 18.6L-18.8 18.9L-18.2 18.95M-23.8,18.6L-24.2 18.55L-24.35 18.4L-23.8 18.4M29.5,13.95L29.55 11.4L29.55 11.35L29.6 6.8M-6.5,43.9Q-5.6 28.75 -5.6 18.9L-7.15 18.95L-12.05 19L-12.2 19L-18.2 18.95M20.35,43.6Q20.1 42.35 20.1 39.4L20.85 26.45L21.05 23.2L21.5 13.55L16 13.55L14.9 13.55L1.1 14.05M-3.55,18.65L-5.6 18.9M-9.5,7.3L-10.2 6.15M-23.25,8.55L-23.35 7L-24.7 7L-32.7 7.75L-32.95 7.8L-34.7 8.35M-41.75,18.25L-41.8 18.45L-42.1 19.85Q-42.95 24.2 -42.95 29.3Q-42.95 33.8 -42 36.2Q-40.9 39.05 -38.15 40.4M-23.8,18.6L-24.35 24.85L-26.3 42.95M-23.35,7L-16.8 7.15M-41.75,18.25L-40.9 15.35L-40.1 13.45M38.85,10.5L38.8 15.4L38.45 19L41.15 20.65Q42.5 21.3 44.05 21.3Q46.2 21.3 46.95 20.05L47.25 19.25L47.75 16.2L47.8 12.3L47.7 9.2M47.25,19.25L49.4 20.8Q50.6 21.55 51.55 21.5Q53.05 21.5 53.7 21L55 19.7L55.05 19.65M38.45,19L38.15 20.05Q37.35 21.55 34.9 21.55Q31.75 21.6 30.6 20.65Q29.45 19.7 29.45 16.95L29.5 13.95L28.75 13.9L21.5 13.55M38.85,10.5L38.95 7.55M28.35,6.7L27.95 6.7L25.4 6.8L19.95 7M20.35,43.6L20.65 43.6" />
<path style="fill:none;stroke-width:1;stroke-linecap:butt;stroke-linejoin:miter;stroke-miterlimit:3;stroke:#2C2C2C;stroke-opacity:1" d="M22.65,-14.4L20.05 -15.65L17.9 -16.35L17.2 -16.45Q16.1 -16.45 14.65 -14.6Q13.25 -12.85 12.4 -12.8M12.55,-12.4Q12.55 -8.15 11.75 -4.7L8.8 -4.45Q7.9 -4.3 7.9 -2.95Q7.9 -1.25 9.5 -1.25Q11.3 -1.25 11.55 -0.2Q11.95 1.75 13 2.2L15.2 2.6Q15.4 3.55 16.15 5.1L17.2 7.1M19.85,6.65Q21.5 3.55 21.45 2.8L21.4 2.7L21.75 2.6Q22.4 2.6 23.4 3.65Q24.4 4.65 25 4.65L25.5 4.55L26.25 4L27 3.15L28.6 1.2M11.65,-12.9L12.35 -12.8L12.4 -12.8M11.65,-12.9L10.05 -13.4L8.1 -14Q4.4 -7.7 3.85 -6.3L3.45 -6.4L1.4 -6.9Q1.9 -5.55 1 -4.7Q0.25 -4 -1.15 -3.85L-1.85 -3.85Q-3.2 -3.85 -4 -2.75Q-4.7 -1.7 -4.7 -0.2Q-4.7 -0.05 -3.75 0.35Q-2.85 0.75 -2.85 1.4Q-2.85 2.1 -3.45 2.7Q-4.1 3.25 -4.1 4.05L-3.55 5.25Q-3.1 6 -3.05 7.25L-3.05 7.5L-2.65 7.25M1.2,7.2L2.2 5.35Q3 4 3 3.25L4.25 4.55L5.05 5.85L8.3 4.05L8.7 4.05Q8.7 4.85 9.05 5.75L9.65 7.2L9.7 7.2" />
</g>
</svg>
