<?xml version="1.0" encoding="utf-8"?>
<svg version="1.1" id="Layer_1"
xmlns="http://www.w3.org/2000/svg"
xmlns:xlink="http://www.w3.org/1999/xlink"
xmlns:author="http://www.sothink.com"
width="2628px" height="276px"
xml:space="preserve">
<g id="212" transform="matrix(1, 0, 0, 1, 1313.9, 137.55)">
<path style="fill:#BAE7BF;fill-opacity:1" d="M58.35,-62.05Q59.15 -61.6 60.65 -61.6L61.9 -61.75Q62.1 -61.85 62.1 -62.45Q62.1 -63.6 59.9 -63.65Q57.7 -63.7 57.7 -62.6Q57.7 -62.35 58.35 -62.05M56.5,-61.7Q56.5 -63.4 57.05 -63.8Q57.55 -64.25 59.35 -64.25Q61.35 -64.25 64.15 -63.1L68.45 -61.2L67.65 -61.3L63.5 -60.65L59.35 -60.05L57.05 -60.05Q56.5 -60.25 56.5 -61.7M86.95,-70.95Q85.15 -71.25 85.15 -69.5Q85.2 -68.9 85.4 -68.2Q85.8 -66.85 86.3 -66.85Q87.5 -66.85 88.15 -67.3Q88.75 -67.65 88.75 -68.25Q88.75 -70.65 86.95 -70.95M89.15,-70.55Q89.7 -69.65 89.7 -67.8Q89.7 -67.1 88.9 -65.25Q88.2 -63.45 88.15 -62.65L85.15 -65.95Q83.45 -68 83.45 -69.05Q83.45 -70.8 84.5 -71.35L86.55 -71.8Q88.45 -71.8 89.15 -70.55M131.4,-32.7Q136.85 -32.7 136.8 -25.95L136.45 -23.95L135.75 -22.2Q135.7 -23.65 132.6 -25.7Q129.55 -27.75 129.55 -30.35L129.65 -31.85Q129.9 -32.7 131.4 -32.7M131.55,-31.3Q131.6 -30.35 132 -29.5Q132.8 -27.75 134.2 -27.75Q134.9 -27.75 135.3 -28.25L135.65 -29.05Q135.65 -30.35 135 -31.05Q134.1 -31.85 131.6 -32.25L131.55 -31.3M150.65,10.25Q150.65 7.95 149.1 8.7Q147.55 9.45 147.55 11.15L148.2 11.8Q149 12.35 149.6 12.35Q150.65 12.35 150.65 10.25M149.75,7.65Q151.85 7.65 151.85 10.6Q151.85 11.7 150.85 14.35Q150 16.8 150.25 18.15Q147.6 17.45 146.75 16.8Q145.6 15.85 145.6 13.75Q145.6 12.2 146.65 10.15Q147.3 8.9 148.05 8.25Q148.85 7.65 149.75 7.65M161.05,91.4L160.05 91.2Q156.2 90.55 156.2 88.3Q156.2 87.5 156.55 84.9L156.95 81.45L156.95 80.1Q156.75 79.25 155.8 79.25Q154.3 79.25 153.6 81.35L152.8 84.3Q152.3 85.45 150.4 87.6Q149.2 89 149.2 91Q149.2 92.2 149.7 94.75Q150.2 97.25 150.2 99Q150.2 102.6 147.5 104.2Q144.8 105.75 144.8 106.35L144.85 106.6L145.8 109.7Q145.8 111.45 143.75 112.85Q141.55 114.3 138.45 114.3Q133.55 114.3 131.65 107.7L131.35 106.55L130.35 103.15Q129.45 101.1 127.95 101.1Q126.5 101.1 125.6 102.15Q124.85 103.05 124.85 104.25L126.05 106.55L127.3 108.7Q129.75 113.6 129.75 117.8Q129.75 120.85 126.75 122.25Q124.9 123.15 120.3 123.7Q115.35 124.35 113.8 124.95Q110.85 126.05 110.85 128.5L110.9 128.7L93.4 128.65Q93.5 125.7 95.6 122.7Q98.25 118.9 102.55 116.85Q104.05 116.1 107.8 115.75L114.5 115.15Q122.75 114.1 122.75 109.9Q122.75 108.15 120.5 106.55Q119.2 105.6 117.05 104.7Q111.35 102.35 111.35 99Q111.35 98.4 112.15 95.9Q112.9 93.3 112.9 92.05L112.45 89.3Q111.5 86.2 108.5 82.45Q104.1 76.95 104.1 76.1Q104.1 75 105.65 74.4L108.25 74Q111.85 74 113.6 76.85Q114.65 78.55 115.55 83.05Q116.2 86.45 116.85 88.25L117.3 89.25Q118.85 92.05 122.25 92.05Q125.1 92.05 127.95 88.7Q130.55 85.65 130.55 83.65Q130.55 82.7 129.9 81.5L127.95 78.85Q125.35 75.85 125.35 74.65Q125.35 73.75 126.9 72.75Q128.3 71.9 128.95 71.9Q130.45 71.9 131.5 73.8L133.25 78Q133.7 79.15 134.3 80.1Q136.6 84.1 140.35 84.1Q144.6 84.1 146.05 80.7Q147.1 78.45 147.1 73.6Q147.1 60.45 137.25 54.95Q132.35 52.65 130.55 51.5Q127.4 49.55 127.45 46.7Q127.45 45.5 128 45Q128.5 44.6 129.8 44.6Q130.85 44.6 133.8 46.65L138.3 49.65L141.95 49.65L142 44.6Q138.85 39.95 138.05 38.3Q136.8 35.95 136.8 32.2Q136.8 28.05 137.05 27.35Q137.55 25.55 140.4 23.6L144.55 23.6Q143.45 33.45 146.65 42.1Q149.85 50.8 156.45 55.1Q159.05 56.8 161.05 59.65L161.05 91.4M139.25,32.2Q139.65 35.45 140.55 35.45Q143.15 35.45 143.15 31.85Q142.65 28.05 142.65 26.15Q142.15 23.65 140.55 25.65Q139 27.6 139 28.9L139.25 32.2M130.7,48.4Q131.8 49.95 133.9 49.95L134.65 49.75L134.8 49.45L132 46.25Q129.95 44.35 129.95 46.8L130.7 48.4M112.1,36.6Q112.2 34.45 111.4 33.7Q111.45 32.3 112.45 30.75Q114.65 30.5 115.95 32.75Q117.1 34.65 117.1 37.05L117.1 39.55Q116.7 41.65 114.5 41.65Q112.1 41.65 112 38.45L112.1 37.05L112.1 36.6M114.65,36.4L115.15 34.8Q115.15 33.25 114 32.35Q112.85 31.5 112.85 33.3Q112.85 35.85 114.25 36.5L114.65 36.4M113.8,79.9Q113.8 77.75 110.45 75.8Q107.05 73.9 107.05 76.55L108.5 78.95Q110.25 81.25 111.85 81.25L113.8 79.9M127.8,74.1L128.45 75.85Q129.3 77.7 130.4 77.7Q131 77.7 131.1 77.3L131.15 76.35Q131.15 74.7 129.5 73.6Q127.8 72.55 127.8 74.1" />
<linearGradient
id="LinearGradID_13" gradientUnits="userSpaceOnUse" gradientTransform="matrix(0.000488281, 0.0742798, -0.0605316, 0.00257874, -0.4, 52.65)" spreadMethod ="pad" x1="-819.2" y1="0" x2="819.2" y2="0" >
<stop  offset="0.380392" style="stop-color:#66CCFF;stop-opacity:1" />
<stop  offset="1" style="stop-color:#FFFFFF;stop-opacity:1" />
</linearGradient>
<path style="fill:url(#LinearGradID_13) " d="M57.05,-60.05L59.35 -60.05L63.5 -60.65L67.65 -61.3L68.45 -61.2L64.15 -63.1Q61.35 -64.25 59.35 -64.25Q57.55 -64.25 57.05 -63.8Q56.5 -63.4 56.5 -61.7Q56.5 -60.25 57.05 -60.05M66.95,80.7L68.4 79.2Q71.05 75.55 70.4 68.05Q70.8 65.95 74.7 58.25Q78.2 51.4 78.25 47.7L77.4 43.25Q80.95 41.8 83.4 39.6Q89.1 34.45 89.1 25Q89.1 21 87.6 15.15Q85.4 6.75 81.6 6.75L78.8 14.3L76.75 18.65Q75.05 21.5 73.35 22.8Q72 15.05 72 11.35Q72 2.1 77.7 -5Q84.45 -13.4 96.1 -13.35Q103.05 -13.35 114.05 -6Q115.95 -4.7 118.9 -2.75Q118.4 -1.7 117.75 0.95L117.3 2.7Q116.05 7.9 116.05 9.75Q116.05 16.5 118.55 21.3Q121.25 26.75 126.95 29.05L127.9 26.65L130.65 18.9Q132.7 13.35 134.7 10.6Q136.2 8.5 145.3 5.1L145.85 4.85L145.95 4.85L146.05 4.8L154.95 1.15Q154.95 0.2 149.55 -1.55Q142.9 -3.75 140.4 -5.4L134.6 -9.75Q131.75 -11.85 128.95 -12.5Q127 -19.75 121.5 -27.35Q113.7 -38.05 105.35 -40.85L105.25 -40.65L105.1 -41L104.95 -41.15Q104.15 -42.8 102.75 -46.95Q100.9 -51.15 97.95 -51.15Q95.75 -51.2 89.35 -47L89.05 -46.8L82.45 -42.65L82.3 -42.6L81.9 -43.25Q52.55 -41.85 33.25 -30.2Q30.6 -28.65 28.3 -26.9Q11.35 -14.35 11.35 5.25Q11.35 11.7 12.65 19.25L11.9 19.3Q8.9 17.45 4.3 11.55Q0.25 6.3 -0.55 6.3Q-2.75 6.3 -3.65 9.2Q-4.2 10.95 -4.2 13.2Q-4.2 18.15 3.9 28.85Q12.45 40.05 18.65 41.55Q20.75 47.05 23.25 50.4Q26.4 54.6 31.4 58.5Q34.3 60.85 40.35 65.15Q43.15 67.25 46.45 74.25Q49.2 80.25 53.8 81.95L53.8 82.05L56.4 82.75Q63.4 83.55 66.95 80.7M43.7,-12.45Q43.5 -12.9 43.95 -12.95L44 -13L44 -12.95L43.7 -12.45M86.55,-71.8L84.5 -71.35Q83.45 -70.8 83.45 -69.05Q83.45 -68 85.15 -65.95L88.15 -62.65Q88.2 -63.45 88.9 -65.25Q89.7 -67.1 89.7 -67.8Q89.7 -69.65 89.15 -70.55Q88.45 -71.8 86.55 -71.8M129.65,-31.85L129.55 -30.35Q129.55 -27.75 132.6 -25.7Q135.7 -23.65 135.75 -22.2L136.45 -23.95L136.8 -25.95Q136.85 -32.7 131.4 -32.7Q129.9 -32.7 129.65 -31.85M148.05,8.25Q147.3 8.9 146.65 10.15Q145.6 12.2 145.6 13.75Q145.6 15.85 146.75 16.8Q147.6 17.45 150.25 18.15Q150 16.8 150.85 14.35Q151.85 11.7 151.85 10.6Q151.85 7.65 149.75 7.65Q148.85 7.65 148.05 8.25M-17.15,33.15L-27.55 33.2L-27.75 33.2L-27.55 29.85L-27.5 19.1Q-27.5 9.15 -27.65 7.05Q-27.95 2.5 -29.4 -3.65L-29.25 -3.7Q-28.3 -4.1 -27.5 -5.05Q-26.45 -6.35 -26.45 -7.35Q-26.45 -9.4 -28.55 -10.5Q-29.1 -10.85 -29.75 -11L-32.15 -11.35Q-33.4 -11.4 -34.25 -10.9L-34.25 -10.85L-34.3 -10.85L-35.2 -9.7L-35.35 -9.55Q-36.3 -8.3 -36.3 -7.4Q-36.3 -6.1 -34.25 -4.7L-33.35 -4.15L-33.25 -4.1L-33.7 -3.45L-33.7 -3L-33.7 -2.95L-55.05 0.75L-67.3 2.55L-67.4 0.7L-67.15 -5.55L-67.3 -10.9Q-62.95 -11.3 -61.6 -14.6Q-60.75 -16.5 -59.5 -21.45L-59.45 -21.45Q-58.6 -21.55 -58.4 -21.75Q-58.15 -22.1 -57.7 -24.55L-56.6 -28L-55.45 -31.55Q-52.4 -40.9 -52.6 -44.7L-52.65 -47.75L-52.35 -56.45L-52.2 -57.95L-51.55 -68.2L-51.5 -68.55L-50.7 -68.55Q-50.05 -68.55 -49.35 -70.55Q-48.7 -72.2 -48.7 -72.75Q-48.7 -73.95 -56.1 -74.3L-60.25 -74.75L-64.45 -75.05Q-64.95 -75.05 -65.3 -74.2L-65.2 -73.8L-65.55 -73.7L-67.7 -74L-71.25 -75.9Q-71.1 -75.15 -72.95 -74L-73 -73.95L-73.7 -75.55L-73.9 -76.9Q-71.2 -78.35 -71.1 -81.85L-70.85 -82.4Q-68.7 -81.75 -66.95 -81.75Q-62.9 -81.75 -61.35 -83.45Q-60.5 -84.35 -60.35 -85.75L-60.35 -86.35L-61.85 -85.3Q-63.2 -84.55 -64.4 -84.55Q-66.65 -84.55 -69.35 -85.95L-70.35 -86.45L-69.8 -87.1L-68.9 -90.2Q-67.6 -89.9 -66.3 -91Q-65.15 -92.05 -65.15 -93.25Q-65.15 -94.55 -65.4 -95.05Q-65.8 -95.75 -66.95 -95.75L-68.45 -95.3Q-68.45 -96.65 -68.8 -97.4Q-68.4 -97.85 -68.4 -98.35Q-68.4 -99 -69.15 -99.75L-69.25 -99.8Q-66 -100.9 -64.3 -102.4Q-62.45 -104.15 -62.45 -106.65Q-62.45 -108.45 -65.3 -111.6L-68.85 -115Q-73.25 -120 -80.45 -120L-85.9 -119.5Q-87.8 -119.05 -91.45 -117.1L-92.9 -116.35Q-97.55 -113.9 -99.3 -112.45Q-102.1 -110.25 -102.1 -107.95Q-102.1 -105 -100.1 -103Q-98.4 -101.4 -94.1 -99.6L-94.5 -98.15Q-94.5 -97.55 -93.65 -97.1L-94 -94.4L-94.85 -95.1L-95.85 -95.4Q-96.6 -95.4 -97.15 -94.55L-97.6 -93.3Q-97.6 -91.85 -96.9 -90.4Q-95.95 -88.7 -94.25 -88.7Q-93.65 -88.7 -92.9 -89.1L-91.7 -85.45L-92.35 -85.05Q-94.75 -83.55 -96.3 -83.55Q-97.7 -83.6 -98.6 -84.4L-100.35 -86L-100.45 -84.95Q-100.45 -83.95 -100 -83.1L-98.45 -81.4Q-96.7 -80.2 -94.25 -80.2Q-92.15 -80.2 -89.9 -81.05Q-88.5 -77.75 -87.1 -76.7Q-87.25 -76.05 -87.55 -75.3L-88.3 -74L-88.35 -73.85L-88.85 -74.2L-90.3 -75.45L-93.15 -73.25L-95.6 -73.25L-95.75 -73.5L-95.85 -74.4L-96.9 -74.4L-105.95 -73.45Q-111.55 -72.9 -114.15 -71.85L-113.15 -69.05Q-112.45 -67.15 -111.65 -66.85L-112 -59.9L-112.15 -56.5L-112.15 -56.4L-112.2 -53.85Q-112.2 -53.1 -112.75 -48.7L-112.75 -48.3L-113.35 -43.15Q-113.35 -41.6 -111.65 -37.25L-109.85 -32.9L-109.5 -30.4Q-109.35 -28.95 -108.6 -28.15L-108.35 -27.9L-108.3 -27.85Q-108.3 -26.55 -107.9 -24.55L-107.2 -21.85Q-106.95 -21.05 -105.95 -20.75L-105.9 -20.75L-105.85 -20.7L-105.5 -13.4Q-105 -9.7 -101.75 -9.25L-101.1 -9.2L-102.25 2.4L-103.9 2.2L-121.1 -0.8L-129.95 -2.6L-130.05 -3.15Q-128.75 -3.4 -128.05 -3.9Q-127 -4.7 -127 -6.65Q-127 -7.3 -128.1 -8.05L-129.6 -8.95L-134.25 -8.95Q-134.25 -8.5 -133.75 -8.5Q-135.8 -7.95 -136.3 -6.85L-136.35 -5.6Q-136.35 -3.65 -133.7 -3.15L-133.75 -2.2Q-135.55 -0.95 -139.65 -0.65L-146.7 -0.55L-152.3 -0.75L-152.35 -0.75Q-154.8 -1 -156.35 -1.5L-161.1 -2.85L-161.05 -128.15L161.15 -127.9L161.05 59.65Q159.05 56.8 156.45 55.1Q149.85 50.8 146.65 42.1Q143.45 33.45 144.55 23.6L140.4 23.6Q137.55 25.55 137.05 27.35Q136.8 28.05 136.8 32.2Q136.8 35.95 138.05 38.3Q138.85 39.95 142 44.6L141.95 49.65L138.3 49.65L133.8 46.65Q130.85 44.6 129.8 44.6Q128.5 44.6 128 45Q127.45 45.5 127.45 46.7Q127.4 49.55 130.55 51.5Q132.35 52.65 137.25 54.95Q147.1 60.45 147.1 73.6Q147.1 78.45 146.05 80.7Q144.6 84.1 140.35 84.1Q136.6 84.1 134.3 80.1Q133.7 79.15 133.25 78L131.5 73.8Q130.45 71.9 128.95 71.9Q128.3 71.9 126.9 72.75Q125.35 73.75 125.35 74.65Q125.35 75.85 127.95 78.85L129.9 81.5Q130.55 82.7 130.55 83.65Q130.55 85.65 127.95 88.7Q125.1 92.05 122.25 92.05Q118.85 92.05 117.3 89.25L116.85 88.25Q116.2 86.45 115.55 83.05Q114.65 78.55 113.6 76.85Q111.85 74 108.25 74L105.65 74.4Q104.1 75 104.1 76.1Q104.1 76.95 108.5 82.45Q111.5 86.2 112.45 89.3L112.9 92.05Q112.9 93.3 112.15 95.9Q111.35 98.4 111.35 99Q111.35 102.35 117.05 104.7Q119.2 105.6 120.5 106.55L-61.35 106.4Q-59.35 101.4 -56.5 96.2Q-54.3 92.25 -51.8 88.45Q-45.7 79.25 -37.7 71L-28.15 70.95L-18.15 70.05L-17.75 69.85Q-16.85 69.3 -15.65 66.55L-14.55 64.05Q-12.6 59 -12.8 52.4L-13 40.3Q-13 36.35 -13.25 35.6Q-13.9 33.75 -16.5 33.25L-16.6 33.25L-17.15 33.15M112.1,37.05L112 38.45Q112.1 41.65 114.5 41.65Q116.7 41.65 117.1 39.55L117.1 37.05Q117.1 34.65 115.95 32.75Q114.65 30.5 112.45 30.75Q111.45 32.3 111.4 33.7Q112.2 34.45 112.1 36.6L112.1 37.05M-75.6,-104.05L-75.35 -104.25L-75.35 -104.05L-75.6 -104.05M-84.9,-93.7Q-84.35 -93.4 -84.05 -93.1L-83.9 -92.75L-84.55 -93.2L-85.25 -93.25L-84.9 -93.7M-87.05,-82.3L-87.1 -82.35L-86.8 -82.55L-87.05 -82.3M-89.75,-51L-89.9 -51.3L-89.75 -51.7L-89.75 -51M-75.8,-93.9L-75.85 -93.5L-76.55 -93.65L-75.8 -93.9M-65.4,26.15Q-66.75 16.95 -66.75 13.25L-66.95 7.4L-55.05 5.15L-53.55 4.8Q-40.45 1.9 -33.85 -0.45L-34.7 33.15L-64.35 33.35L-65.4 26.15M-129.4,0.95L-122.15 2.25L-122 2.25L-105.7 5.65L-105.05 5.8L-104.9 5.8L-102.5 6.3L-102.5 6.4Q-102.5 10.3 -104.35 33.7L-126.5 33.9L-128.55 33.9L-128.55 33.5L-128.55 24.65L-128.65 10.6Q-128.85 5.75 -129.4 0.95M-161.15,33.5L-161.1 0.7L-154.05 1.25L-152.6 1.35L-152.45 1.35L-142.8 2L-138.1 1.95Q-136.15 1.7 -133.9 0.7L-133.9 0.8L-134.45 16.1Q-134.9 27.2 -135.7 33.9L-147.5 33.85L-157.6 33.65L-157.6 33.9L-161.15 33.9L-161.15 33.5" />
<path style="fill:#E1F3E3;fill-opacity:1" d="M57.7,-62.6Q57.7 -63.7 59.9 -63.65Q62.1 -63.6 62.1 -62.45Q62.1 -61.85 61.9 -61.75L60.65 -61.6Q59.15 -61.6 58.35 -62.05Q57.7 -62.35 57.7 -62.6M88.75,-68.25Q88.75 -67.65 88.15 -67.3Q87.5 -66.85 86.3 -66.85Q85.8 -66.85 85.4 -68.2Q85.2 -68.9 85.15 -69.5Q85.15 -71.25 86.95 -70.95Q88.75 -70.65 88.75 -68.25M131.6,-32.25Q134.1 -31.85 135 -31.05Q135.65 -30.35 135.65 -29.05L135.3 -28.25Q134.9 -27.75 134.2 -27.75Q132.8 -27.75 132 -29.5Q131.6 -30.35 131.55 -31.3L131.6 -32.25M149.6,12.35Q149 12.35 148.2 11.8L147.55 11.15Q147.55 9.45 149.1 8.7Q150.65 7.95 150.65 10.25Q150.65 12.35 149.6 12.35M139,28.9Q139 27.6 140.55 25.65Q142.15 23.65 142.65 26.15Q142.65 28.05 143.15 31.85Q143.15 35.45 140.55 35.45Q139.65 35.45 139.25 32.2L139 28.9M129.95,46.8Q129.95 44.35 132 46.25L134.8 49.45L134.65 49.75L133.9 49.95Q131.8 49.95 130.7 48.4L129.95 46.8M114.25,36.5Q112.85 35.85 112.85 33.3Q112.85 31.5 114 32.35Q115.15 33.25 115.15 34.8L114.65 36.4L114.25 36.5M111.85,81.25Q110.25 81.25 108.5 78.95L107.05 76.55Q107.05 73.9 110.45 75.8Q113.8 77.75 113.8 79.9L111.85 81.25M129.5,73.6Q131.15 74.7 131.15 76.35L131.1 77.3Q131 77.7 130.4 77.7Q129.3 77.7 128.45 75.85L127.8 74.1Q127.8 72.55 129.5 73.6" />
<path style="fill:#A4A4E2;fill-opacity:1" d="M82.3,-42.6Q81.25 -42 80.85 -41.95L80.85 -41.35Q80.85 -40.65 81.15 -40.6Q81.25 -40.6 81.4 -40.7L89.4 -41.55L94.1 -41.3L97.7 -40.9L100.05 -40.65L105.25 -40.65L105.35 -40.85Q113.7 -38.05 121.5 -27.35Q127 -19.75 128.95 -12.5Q130.05 -8.5 130.05 -4.55Q130.05 -1.6 129.3 -0.15Q128.5 1.35 126.95 1.35Q125.15 1.35 121.5 -0.95L119 -2.7L119.05 -4.4Q119.05 -13.95 109.7 -20Q100.95 -25.65 88.35 -25.7Q75.05 -25.7 67.95 -17.7Q61.85 -10.85 61.85 -0.45Q61.85 9.5 66.2 18.3Q67.6 21.2 69.7 24.35Q71.95 27.8 75 31.55L75.1 32.05L75.75 35.15L77.4 43.25L78.25 47.7Q78.2 51.4 74.7 58.25Q70.8 65.95 70.4 68.05Q71.05 75.55 68.4 79.2L66.95 80.7L61.25 75.2Q52.85 66.5 44.9 55.35Q39.7 48.05 35.85 41.55Q40.15 42.5 42.1 44.2L43 42.05L44.55 38.25L40 37.6L35.45 37L33.35 37Q25.3 21.8 25.3 11Q25.3 7.05 27.35 -4.45Q29.45 -16 29.45 -19.9Q29.45 -22.8 28.3 -26.9Q30.6 -28.65 33.25 -30.2Q52.55 -41.85 81.9 -43.25L82.3 -42.6M64.55,-26.65Q64.9 -25.95 65.75 -25.95Q66.65 -25.95 70.15 -28.55Q73.45 -31 75.1 -32.75L75 -33Q72.05 -35.05 68 -32.05Q64.3 -29.3 64.3 -27.45L64.55 -26.65M79.85,-33.2Q80.15 -32.65 81.65 -32.65L88.15 -33.15Q92 -33.15 96.8 -31.95Q101.55 -30.8 102.5 -30.8Q103.55 -30.8 103.85 -31.3L104 -32.2Q104 -34.05 99.35 -35.55Q94.2 -37.35 87.5 -36.95Q82.6 -36.3 81.15 -35.65Q79.85 -35.1 79.85 -33.85L79.85 -33.2M41.05,-5.25L40.7 -3.7Q39.9 0.35 39.9 3.2Q39.9 8.55 41.45 14.3Q42.1 16.65 42.85 18.3Q44.55 21.85 46.85 21.85Q47.95 21.85 51.3 11.8Q54.4 2.2 54.4 0.65Q54.4 -2.05 50.75 -7.55Q47.15 -13 45.3 -13L44 -12.95L44 -13L43.95 -12.95Q43.5 -12.9 43.7 -12.45Q42.2 -10.35 41.05 -5.25M102.2,-32.45L102.25 -32.45L102.25 -32.35L102.2 -32.45M59.65,39.45Q60.5 40.75 62.15 40.75Q63.05 40.75 66.7 38.55Q70.85 36 71.5 35.75Q70.9 34.75 70.5 34.6L68.9 34.45Q67.1 34.45 63.6 35.75Q60 37 59.05 37Q59.05 38.5 59.65 39.45M68.55,50.4L68.65 50.7Q69.5 53.3 69.95 53.3Q71.45 53.3 72.85 51.5Q74.25 49.7 74.3 47.85L74.2 46.55L73.9 44.6Q73.3 42.5 73.05 40.9L73 40.35L72.85 40.25Q72.7 40.1 72.35 40.1Q71.05 40.1 69.3 43Q67.65 45.6 67.65 46.75L67.75 47.3L68.55 50.4" />
<path style="fill:#8C8CC6;fill-opacity:1" d="M35.85,41.55Q39.7 48.05 44.9 55.35Q52.85 66.5 61.25 75.2L66.95 80.7Q63.4 83.55 56.4 82.75L53.8 82.05L53.8 81.95Q49.2 80.25 46.45 74.25Q43.15 67.25 40.35 65.15Q34.3 60.85 31.4 58.5Q26.4 54.6 23.25 50.4Q20.75 47.05 18.65 41.55Q16.55 36.45 14.8 29.55Q13.45 24.15 12.65 19.25Q11.35 11.7 11.35 5.25Q11.35 -14.35 28.3 -26.9Q29.45 -22.8 29.45 -19.9Q29.45 -16 27.35 -4.45Q25.3 7.05 25.3 11Q25.3 21.8 33.35 37L30.8 37.05Q28.85 37.4 26.9 39.05Q28.6 39.95 35 41.35L35.85 41.55M75,31.55Q71.95 27.8 69.7 24.35Q67.6 21.2 66.2 18.3Q61.85 9.5 61.85 -0.45Q61.85 -10.85 67.95 -17.7Q75.05 -25.7 88.35 -25.7Q100.95 -25.65 109.7 -20Q119.05 -13.95 119.05 -4.4L119 -2.7L118.9 -2.75Q115.95 -4.7 114.05 -6Q103.05 -13.35 96.1 -13.35Q84.45 -13.4 77.7 -5Q72 2.1 72 11.35Q72 15.05 73.35 22.8L75 31.55M39.45,58.05Q40.6 58.05 41.1 57.7Q41.75 57.2 41.75 56.05Q41.75 51.3 40.55 49.2Q39.95 48.25 39.05 47.8Q33.15 46.5 27 42.7Q26.65 43.45 26.65 44.2Q26.65 46.75 31 52.15L31.55 52.8Q36 58.05 39.45 58.05" />
<path style="fill:#5BABC6;fill-opacity:1" d="M73.35,22.8Q75.05 21.5 76.75 18.65L81.1 27.8Q81.6 28.85 82.85 36.3L83.4 39.6Q80.95 41.8 77.4 43.25L75.75 35.15L75.1 32.05L75 31.55L73.35 22.8M89.35,-47L93.35 -45.9Q94.95 -44.85 96.75 -42.3L97.7 -40.9L94.1 -41.3L89.4 -41.55L81.4 -40.7Q81.25 -40.6 81.15 -40.6Q80.85 -40.65 80.85 -41.35L80.85 -41.95Q81.25 -42 82.3 -42.6L82.45 -42.65L89.05 -46.8L89.35 -47M42.85,18.3Q42.1 16.65 41.45 14.3Q39.9 8.55 39.9 3.2Q39.9 0.35 40.7 -3.7Q42.15 -1.55 42.8 -0.1Q44.95 4.3 44.95 9.6Q44.95 11.85 44 14.3Q43.35 16.05 42.85 18.3M125,21.8Q123.75 18.25 123.75 14.5Q123.75 8.2 127.65 5.85Q130.7 4 132.6 1.4Q133.8 -0.4 134.6 -2.5L140.5 2.35Q142.95 4.15 145.3 5.1Q136.2 8.5 134.7 10.6Q132.7 13.35 130.65 18.9L127.9 26.65Q126.1 25 125 21.8M18.65,41.55Q12.45 40.05 3.9 28.85Q-4.2 18.15 -4.2 13.2Q-4.2 10.95 -3.65 9.2Q-2.75 6.3 -0.55 6.3Q0.25 6.3 4.3 11.55Q8.9 17.45 11.9 19.3L12.65 19.25Q13.45 24.15 14.8 29.55Q16.55 36.45 18.65 41.55" />
<path style="fill:#CDCDEE;fill-opacity:1" d="M64.3,-27.45Q64.3 -29.3 68 -32.05Q72.05 -35.05 75 -33L75.1 -32.75Q73.45 -31 70.15 -28.55Q66.65 -25.95 65.75 -25.95Q64.9 -25.95 64.55 -26.65L64.3 -27.45M79.85,-33.85Q79.85 -35.1 81.15 -35.65Q82.6 -36.3 87.5 -36.95Q94.2 -37.35 99.35 -35.55Q104 -34.05 104 -32.2L103.85 -31.3Q103.55 -30.8 102.5 -30.8Q101.55 -30.8 96.8 -31.95Q92 -33.15 88.15 -33.15L81.65 -32.65Q80.15 -32.65 79.85 -33.2L79.85 -33.85M102.25,-32.35L102.25 -32.45L102.2 -32.45L102.25 -32.35" />
<path style="fill:#84CCE5;fill-opacity:1" d="M35,41.35Q28.6 39.95 26.9 39.05Q28.85 37.4 30.8 37.05L33.35 37L35.45 37L40 37.6L44.55 38.25L43 42.05L42.1 44.2Q40.15 42.5 35.85 41.55L35 41.35M127.9,26.65L126.95 29.05Q121.25 26.75 118.55 21.3Q116.05 16.5 116.05 9.75Q116.05 7.9 117.3 2.7L117.75 0.95Q118.4 -1.7 118.9 -2.75L119 -2.7L121.5 -0.95Q125.15 1.35 126.95 1.35Q128.5 1.35 129.3 -0.15Q130.05 -1.6 130.05 -4.55Q130.05 -8.5 128.95 -12.5Q131.75 -11.85 134.6 -9.75L140.4 -5.4Q142.9 -3.75 149.55 -1.55Q154.95 0.2 154.95 1.15L146.05 4.8L145.95 4.85L145.85 4.85L145.3 5.1Q142.95 4.15 140.5 2.35L134.6 -2.5Q133.8 -0.4 132.6 1.4Q130.7 4 127.65 5.85Q123.75 8.2 123.75 14.5Q123.75 18.25 125 21.8Q126.1 25 127.9 26.65M96.75,-42.3Q94.95 -44.85 93.35 -45.9L89.35 -47Q95.75 -51.2 97.95 -51.15Q100.9 -51.15 102.75 -46.95Q104.15 -42.8 104.95 -41.15L105.1 -41L105.25 -40.65L100.05 -40.65L97.7 -40.9L96.75 -42.3M44,14.3Q44.95 11.85 44.95 9.6Q44.95 4.3 42.8 -0.1Q42.15 -1.55 40.7 -3.7L41.05 -5.25Q42.2 -10.35 43.7 -12.45L44 -12.95L45.3 -13Q47.15 -13 50.75 -7.55Q54.4 -2.05 54.4 0.65Q54.4 2.2 51.3 11.8Q47.95 21.85 46.85 21.85Q44.55 21.85 42.85 18.3Q43.35 16.05 44 14.3M82.85,36.3Q81.6 28.85 81.1 27.8L76.75 18.65L78.8 14.3L81.6 6.75Q85.4 6.75 87.6 15.15Q89.1 21 89.1 25Q89.1 34.45 83.4 39.6L82.85 36.3M59.05,37Q60 37 63.6 35.75Q67.1 34.45 68.9 34.45L70.5 34.6Q70.9 34.75 71.5 35.75Q70.85 36 66.7 38.55Q63.05 40.75 62.15 40.75Q60.5 40.75 59.65 39.45Q59.05 38.5 59.05 37" />
<path style="fill:#9CCBA2;fill-opacity:1" d="M110.9,128.7L110.85 128.5Q110.85 126.05 113.8 124.95Q115.35 124.35 120.3 123.7Q124.9 123.15 126.75 122.25Q129.75 120.85 129.75 117.8Q129.75 113.6 127.3 108.7L126.05 106.55L124.85 104.25Q124.85 103.05 125.6 102.15Q126.5 101.1 127.95 101.1Q129.45 101.1 130.35 103.15L131.35 106.55L131.65 107.7Q133.55 114.3 138.45 114.3Q141.55 114.3 143.75 112.85Q145.8 111.45 145.8 109.7L144.85 106.6L144.8 106.35Q144.8 105.75 147.5 104.2Q150.2 102.6 150.2 99Q150.2 97.25 149.7 94.75Q149.2 92.2 149.2 91Q149.2 89 150.4 87.6Q152.3 85.45 152.8 84.3L153.6 81.35Q154.3 79.25 155.8 79.25Q156.75 79.25 156.95 80.1L156.95 81.45L156.55 84.9Q156.2 87.5 156.2 88.3Q156.2 90.55 160.05 91.2L161.05 91.4L161 128.7L110.9 128.7" />
<path style="fill:#FFFFFF;fill-opacity:1" d="M93.4,128.65L110.9 128.7L161 128.7L161.05 91.4L161.05 59.65L161.15 -127.9L-161.05 -128.15L-161.1 -2.85L-161.1 0.7L-161.15 33.5L-161.15 33.9L-161.15 38.5L-161.15 60.05L-161.15 70.5L-161.15 90.95L-161.2 128.45L-132.35 128.5L-66 128.55L93.4 128.65M-91,-71.05L-88.75 -69.05Q-87.05 -67.75 -85.45 -67.3L-83.7 -67.1L-83.6 -67.1L-83.45 -59.2L-83.95 -51.8L-83.7 -44.1L-83.45 -38.9Q-92.95 -38.95 -94.3 -39.75Q-96.65 -41.15 -96.65 -49L-96.6 -54.45Q-96.7 -58.8 -97.7 -60.2L-98.15 -60.85L-95.15 -60.65L-93.6 -60.75L-93 -62.15L-93 -63.4L-100.25 -63.75L-100.35 -63.65L-101.2 -64.65Q-102.85 -67.1 -103.1 -69.15L-102.45 -69.4Q-95.5 -71.95 -95.5 -72.7L-95.6 -73.25L-93.15 -73.25L-91 -71.05M-91.45,-117.1Q-87.8 -119.05 -85.9 -119.5L-80.45 -120Q-73.25 -120 -68.85 -115L-65.3 -111.6Q-62.45 -108.45 -62.45 -106.65Q-62.45 -104.15 -64.3 -102.4Q-66 -100.9 -69.25 -99.8L-70.45 -101.1Q-70 -101.4 -70 -101.85Q-70 -102.9 -70.55 -104.4L-75.35 -104.05L-75.35 -104.25Q-73.65 -105.05 -73.65 -105.7L-74.5 -106.9Q-75.35 -107.9 -75.65 -107.9L-77.15 -107.4L-77.35 -107.75L-78.1 -109.6L-79.4 -110.5L-81.75 -111L-84.55 -110.6L-87.85 -110.15Q-89.75 -110.15 -90.95 -111.55Q-92.1 -112.8 -92.1 -114.65Q-92.1 -115.9 -91.45 -117.1M-67.6,-35.95L-67.75 -36L-69.45 -36.15L-69.75 -37.3Q-70.25 -38.7 -72.4 -38.7L-79.8 -38.85L-79.75 -39.35L-79.55 -41.6L-79.65 -44.3L-79.65 -48.5L-79.15 -55L-79 -60.45L-78.55 -67.25Q-76.05 -67.75 -73.85 -69Q-71.3 -70.4 -67.7 -74L-65.55 -73.7L-65.2 -73.8Q-64.65 -71.85 -58.75 -70.1Q-54.1 -68.75 -51.5 -68.55L-51.55 -68.2L-52.2 -57.95L-54.55 -57.95Q-55.9 -57.95 -56.35 -57.2Q-56.75 -56.6 -56.75 -55.1L-57 -50.75Q-57 -48.8 -56.55 -48.5L-53 -47.75L-52.65 -47.75L-52.6 -44.7Q-52.4 -40.9 -55.45 -31.55L-56.6 -28L-57.05 -28.1Q-64.5 -28.1 -67.75 -29.7Q-67.3 -30.25 -67.05 -31.6L-67.05 -31.9Q-64.25 -33.2 -62.35 -37.05Q-60.6 -40.7 -60.6 -44.05Q-60.6 -45.6 -61.45 -48.1L-62.45 -48Q-64.05 -43.55 -67.6 -35.95M171.3,136L-171.45 135.7L-171.25 -136.05L171.5 -135.75L171.3 136M-91.35,-94.8L-88.6 -94.55L-86.75 -94.25L-84.9 -93.7L-85.25 -93.25Q-87.7 -93.25 -88.5 -92.2Q-88.95 -91.75 -88.95 -90.95L-88.85 -90.05L-88.05 -89.15Q-89.25 -89.15 -90.05 -89.65L-90.15 -89.9L-90.95 -92.6L-91.35 -94.75L-91.35 -94.8M-73.9,-81.8L-79.8 -81.7L-85.7 -81.25L-87.05 -82.3L-86.8 -82.55Q-83.75 -84.35 -80.1 -84.05L-79.65 -84.05Q-76.55 -84.55 -73.3 -83.25L-73.05 -83.15L-73.9 -81.8M-89.75,-51.7L-89.9 -51.3L-89.75 -51L-89.75 -51.7M-75.8,-93.9L-71.7 -94.9L-71.65 -94.95L-71.65 -93.4L-71.65 -91.6Q-71.85 -90.3 -73.6 -89.9Q-73.3 -90.6 -73.3 -91.1Q-73.3 -91.95 -73.95 -92.7L-74.1 -92.85Q-74.8 -93.4 -75.6 -93.5L-75.85 -93.5L-75.8 -93.9M-68.65,-64L-73.95 -64.35L-75.05 -64.3Q-75.5 -64.15 -75.6 -63.65L-75.6 -63.6L-75.65 -63.5L-75.65 -63.4L-75.8 -61.7Q-75.65 -60.65 -73.85 -60.65L-68.05 -60.55Q-65.15 -60.35 -64.65 -60.55Q-64.1 -60.75 -64.1 -62.95Q-64.1 -64.05 -65.65 -64.1L-68.65 -64M-74.25,-58.85L-75.4 -58.85Q-75.65 -56.8 -75.4 -56.45Q-75.15 -56.15 -73.45 -56.15L-71.85 -56.25L-71.65 -57.8L-71.65 -58.55L-74.15 -58.8L-74.25 -58.85" />
<path style="fill:#4F4E4E;fill-opacity:1" d="M71.6,46.15L71.6 46.65Q71.8 47.3 72.6 47.3L73.1 46.8L73.3 46.15L73.3 46.05L74.1 46.45L74.2 46.55L74.3 47.85Q74.25 49.7 72.85 51.5Q71.45 53.3 69.95 53.3Q69.5 53.3 68.65 50.7L68.55 50.4L67.75 47.3Q68 46.8 68.4 46.5Q69.35 45.65 71.5 45.65L71.7 45.65L71.6 46.15M69.6,48.25L69.55 49.3L69.65 50.35L69.65 50.45Q69.9 51.55 71 51.55Q71.45 51.55 71.85 51.1L72.3 50.2L72.6 48.65L72.35 47.9L72.25 47.85Q71.8 47.3 70.8 47.3Q69.8 47.3 69.6 48.25M40.55,49.2Q41.75 51.3 41.75 56.05Q41.75 57.2 41.1 57.7Q40.6 58.05 39.45 58.05Q36 58.05 31.55 52.8Q31.75 51.2 33.65 50.05Q35.65 48.85 37.85 48.85L40.2 49.1L40.55 49.2M37.1,49.4L37.1 49.95L37.1 50.7Q37.25 51.4 38 51.4Q39.3 51.4 39.3 50.4L39.05 49.6Q38.65 48.95 37.9 48.95Q37.25 48.95 37.1 49.4M39.5,52.5Q38.6 51.4 36.7 51.4Q35.5 51.4 35.25 51.95L35.15 52.8Q35.15 53.6 35.7 54.55Q36.45 55.95 37.95 55.95Q40 55.95 40 53.9Q40 53.15 39.5 52.5" />
<path style="fill:#201F1F;fill-opacity:1" d="M70.8,47.3Q71.8 47.3 72.25 47.85L72.35 47.9L72.6 48.65L72.3 50.2L71.85 51.1Q71.45 51.55 71 51.55Q69.9 51.55 69.65 50.45L69.65 50.35L69.55 49.3L69.6 48.25Q69.8 47.3 70.8 47.3M40,53.9Q40 55.95 37.95 55.95Q36.45 55.95 35.7 54.55Q35.15 53.6 35.15 52.8L35.25 51.95Q35.5 51.4 36.7 51.4Q38.6 51.4 39.5 52.5Q40 53.15 40 53.9" />
<path style="fill:#FCFCFF;fill-opacity:1" d="M74.1,46.45L73.3 46.05Q73.25 45.55 72.45 45.3Q71.8 45.15 71.7 45.65L71.5 45.65Q69.35 45.65 68.4 46.5Q68 46.8 67.75 47.3L67.65 46.75Q67.65 45.6 69.3 43Q71.05 40.1 72.35 40.1Q72.7 40.1 72.85 40.25L73 40.35L73.05 40.9Q73.3 42.5 73.9 44.6L74.2 46.55L74.1 46.45M40.2,49.1L37.85 48.85Q35.65 48.85 33.65 50.05Q31.75 51.2 31.55 52.8L31 52.15Q26.65 46.75 26.65 44.2Q26.65 43.45 27 42.7Q33.15 46.5 39.05 47.8Q39.95 48.25 40.55 49.2L40.2 49.1" />
<path style="fill:#FAF8F8;fill-opacity:1" d="M71.7,45.65Q71.8 45.15 72.45 45.3Q73.25 45.55 73.3 46.05L73.3 46.15L73.1 46.8L72.6 47.3Q71.8 47.3 71.6 46.65L71.6 46.15L71.7 45.65M37.9,48.95Q38.65 48.95 39.05 49.6L39.3 50.4Q39.3 51.4 38 51.4Q37.25 51.4 37.1 50.7L37.1 49.95L37.1 49.4Q37.25 48.95 37.9 48.95" />
<linearGradient
id="LinearGradID_14" gradientUnits="userSpaceOnUse" gradientTransform="matrix(-0.000564575, 0.0547028, -0.06987, -0.000686646, -0.45, 149.25)" spreadMethod ="pad" x1="-819.2" y1="0" x2="819.2" y2="0" >
<stop  offset="0" style="stop-color:#BAE7BF;stop-opacity:1" />
<stop  offset="0.470588" style="stop-color:#61B46A;stop-opacity:1" />
</linearGradient>
<path style="fill:url(#LinearGradID_14) " d="M-66,128.55Q-66.05 118.05 -61.35 106.4L120.5 106.55Q122.75 108.15 122.75 109.9Q122.75 114.1 114.5 115.15L107.8 115.75Q104.05 116.1 102.55 116.85Q98.25 118.9 95.6 122.7Q93.5 125.7 93.4 128.65L-66 128.55" />
<path style="fill:#FCDD61;fill-opacity:1" d="M-99.75,-20.75L-100.2 -20.5L-101.5 -20.5L-104.65 -20.55L-105.85 -20.7L-105.9 -20.75L-105.95 -20.75Q-106.95 -21.05 -107.2 -21.85L-107.9 -24.55Q-108.3 -26.55 -108.3 -27.85Q-107.45 -27.15 -105.95 -26.65L-102.85 -26.05L-99.1 -26.25L-99.75 -20.75M-110.4,-56.5Q-108.95 -56.25 -108.95 -54.5Q-108.95 -52.65 -109.45 -50.75Q-110.1 -48.1 -111.2 -48.1L-112.75 -48.3L-112.75 -48.7Q-112.2 -53.1 -112.2 -53.85L-112.15 -56.4L-112.15 -56.5L-111.8 -56.5L-110.4 -56.5M-111.4,-66.8L-111.65 -66.85Q-112.45 -67.15 -113.15 -69.05L-114.15 -71.85Q-111.55 -72.9 -105.95 -73.45L-96.9 -74.4L-95.85 -74.4L-95.75 -73.5L-95.6 -73.25L-95.5 -72.7Q-95.5 -71.95 -102.45 -69.4L-103.1 -69.15Q-109.55 -66.8 -111.4 -66.8M-79.95,-37.55L-79.8 -36.4L-78.2 -36.5L-75.9 -36.3L-75.7 -35.8L-75.65 -34.15Q-75.7 -30.75 -75.9 -29.25L-75.9 -29.2L-76.1 -28.4L-76.2 -28.3Q-77 -27.5 -82.95 -27.5L-87.1 -27.5Q-88.2 -27.7 -88.65 -28.65L-88.7 -28.85L-88.9 -30L-88.2 -35.25L-88.3 -35.6L-88.35 -36.1Q-88.1 -36.5 -86.9 -36.5L-83.45 -36.35L-83.45 -38.9L-83.7 -44.1L-83.95 -51.8L-83.45 -59.2L-83.6 -67.1L-83.7 -67.1L-85.45 -67.3Q-87.05 -67.75 -88.75 -69.05L-91 -71.05L-93.15 -73.25L-90.3 -75.45L-88.85 -74.2L-88.35 -73.85Q-87 -72.8 -85.9 -72.3Q-83.95 -71.6 -80.1 -71.6Q-77.55 -71.6 -74.25 -73.25Q-73.5 -73.6 -73 -73.95L-72.95 -74Q-71.1 -75.15 -71.25 -75.9L-67.7 -74Q-71.3 -70.4 -73.85 -69Q-76.05 -67.75 -78.55 -67.25L-79 -60.45L-79.15 -55L-79.65 -48.5L-79.65 -44.3L-79.55 -41.6L-79.75 -39.35L-79.8 -38.85L-79.95 -37.55M-58.75,-70.1Q-64.65 -71.85 -65.2 -73.8L-65.3 -74.2Q-64.95 -75.05 -64.45 -75.05L-60.25 -74.75L-56.1 -74.3Q-48.7 -73.95 -48.7 -72.75Q-48.7 -72.2 -49.35 -70.55Q-50.05 -68.55 -50.7 -68.55L-51.5 -68.55Q-54.1 -68.75 -58.75 -70.1M-53,-47.75L-56.55 -48.5Q-57 -48.8 -57 -50.75L-56.75 -55.1Q-56.75 -56.6 -56.35 -57.2Q-55.9 -57.95 -54.55 -57.95L-52.2 -57.95L-52.35 -56.45L-52.65 -47.75L-53 -47.75M-61.05,-21.4Q-65.25 -21.4 -68 -22.5L-68.7 -29.25L-68.2 -29.35Q-67.95 -29.45 -67.75 -29.7Q-64.5 -28.1 -57.05 -28.1L-56.6 -28L-57.7 -24.55Q-58.15 -22.1 -58.4 -21.75Q-58.6 -21.55 -59.45 -21.45L-59.5 -21.45L-61.05 -21.4M-87.7,-104.3L-89.45 -105.8L-88.8 -106.65Q-88.15 -107.05 -87.55 -107.05L-86.1 -106.55Q-85.1 -106.05 -84.85 -106.1Q-84.6 -107.2 -85 -108.25Q-85 -109.2 -80.1 -109.2Q-79.2 -109.2 -79.2 -108.2L-79.55 -106.8Q-79.15 -106.55 -78.85 -106.55L-77.45 -107.2L-77.15 -107.4L-75.65 -107.9Q-75.35 -107.9 -74.5 -106.9L-73.65 -105.7Q-73.65 -105.05 -75.35 -104.25L-75.6 -104.05L-77.7 -103.1L-77.6 -101.1L-77.65 -100.75Q-77.9 -100.5 -78.85 -100.5L-82.5 -100.6L-85.65 -100.9L-85.95 -101.1L-85.7 -102.1Q-85.7 -102.65 -87.55 -104.2L-87.7 -104.3M-80.1,-103.8Q-80.1 -104.5 -80.75 -105Q-81.35 -105.5 -82 -105.5Q-82.45 -105.5 -82.95 -105.05L-83.35 -104.7L-83.6 -104.35L-83.75 -103.8Q-83.75 -102.55 -81.6 -102.55Q-80.95 -102.55 -80.6 -102.9Q-80.1 -103.3 -80.1 -103.8M-99.25,-61Q-100.7 -61.25 -100.7 -61.95L-100.65 -63.45L-100.35 -63.65L-100.25 -63.75L-93 -63.4L-93 -62.15L-93.6 -60.75L-95.15 -60.65L-98.15 -60.85L-99.25 -61M-65.65,-64.1Q-64.1 -64.05 -64.1 -62.95Q-64.1 -60.75 -64.65 -60.55Q-65.15 -60.35 -68.05 -60.55L-73.85 -60.65Q-75.65 -60.65 -75.8 -61.7L-75.65 -63.4L-75.65 -63.5L-75.6 -63.6L-75.6 -63.65Q-75.5 -64.15 -75.05 -64.3L-73.95 -64.35L-68.65 -64L-65.65 -64.1M-74.15,-58.8L-71.65 -58.55L-71.65 -57.8L-71.85 -56.25L-73.45 -56.15Q-75.15 -56.15 -75.4 -56.45Q-75.65 -56.8 -75.4 -58.85L-74.25 -58.85L-74.15 -58.8" />
<path style="fill:#E2DCDC;fill-opacity:1" d="M-108.3,-27.85L-108.35 -27.9L-108.6 -28.15Q-109.35 -28.95 -109.5 -30.4L-109.85 -32.9L-111.65 -37.25Q-113.35 -41.6 -113.35 -43.15L-112.75 -48.3L-111.2 -48.1Q-110.1 -48.1 -109.45 -50.75Q-108.95 -52.65 -108.95 -54.5Q-108.95 -56.25 -110.4 -56.5L-111.8 -56.5L-112.15 -56.5L-112 -59.9L-111.65 -66.85L-111.4 -66.8Q-109.55 -66.8 -103.1 -69.15Q-102.85 -67.1 -101.2 -64.65L-100.35 -63.65L-100.65 -63.45L-100.7 -61.95Q-100.7 -61.25 -99.25 -61L-98.15 -60.85L-97.7 -60.2Q-96.7 -58.8 -96.6 -54.45L-96.65 -49Q-96.65 -41.15 -94.3 -39.75Q-92.95 -38.95 -83.45 -38.9L-83.45 -36.35L-86.9 -36.5Q-88.1 -36.5 -88.35 -36.1L-88.3 -35.6L-88.75 -35.55L-92.25 -35.9L-95.65 -36.1L-99.45 -35.8L-99.55 -35.75L-99.6 -35.75L-99.9 -35.6Q-100.4 -35.15 -100.4 -32.15Q-100.45 -30.8 -100.15 -30.15Q-99.65 -29.35 -98.7 -29.1L-98.75 -28.8L-99.1 -26.25L-102.85 -26.05L-105.95 -26.65Q-107.45 -27.15 -108.3 -27.85M-93.25,-101.1L-94.1 -99.6Q-98.4 -101.4 -100.1 -103Q-102.1 -105 -102.1 -107.95Q-102.1 -110.25 -99.3 -112.45Q-97.55 -113.9 -92.9 -116.35L-91.45 -117.1Q-92.1 -115.9 -92.1 -114.65Q-92.1 -112.8 -90.95 -111.55Q-89.75 -110.15 -87.85 -110.15L-84.55 -110.6L-81.75 -111L-79.4 -110.5L-78.1 -109.6L-77.35 -107.75L-77.15 -107.4L-77.45 -107.2L-78.85 -106.55Q-79.15 -106.55 -79.55 -106.8L-79.2 -108.2Q-79.2 -109.2 -80.1 -109.2Q-85 -109.2 -85 -108.25Q-84.6 -107.2 -84.85 -106.1Q-85.1 -106.05 -86.1 -106.55L-87.55 -107.05Q-88.15 -107.05 -88.8 -106.65L-89.45 -105.8L-87.7 -104.3L-92.95 -104.75L-93.65 -103.2L-94.2 -101.9Q-94.2 -101.4 -93.25 -101.1M-70.9,-36.2L-75.7 -35.8L-75.9 -36.3L-78.2 -36.5L-79.8 -36.4L-79.95 -37.55L-79.8 -38.85L-72.4 -38.7Q-70.25 -38.7 -69.75 -37.3L-69.45 -36.15L-70.9 -36.2M-66.95,-33.55Q-66.95 -35.5 -67.6 -35.95Q-64.05 -43.55 -62.45 -48L-61.45 -48.1Q-60.6 -45.6 -60.6 -44.05Q-60.6 -40.7 -62.35 -37.05Q-64.25 -33.2 -67.05 -31.9L-66.95 -33.55" />
<path style="fill:#FFCC00;fill-opacity:1" d="M-80.6,-102.9Q-80.95 -102.55 -81.6 -102.55Q-83.75 -102.55 -83.75 -103.8L-83.6 -104.35L-83.35 -104.7L-82.95 -105.05Q-82.45 -105.5 -82 -105.5Q-81.35 -105.5 -80.75 -105Q-80.1 -104.5 -80.1 -103.8Q-80.1 -103.3 -80.6 -102.9" />
<path style="fill:#3A3838;fill-opacity:1" d="M-75.35,-104.05L-70.55 -104.4Q-70 -102.9 -70 -101.85Q-70 -101.4 -70.45 -101.1Q-71.25 -100.65 -73.1 -100.6L-77.65 -100.75L-77.6 -101.1L-77.7 -103.1L-75.6 -104.05L-75.35 -104.05M-87.55,-104.2Q-85.7 -102.65 -85.7 -102.1L-85.95 -101.1L-85.65 -100.9L-88.15 -100.6L-93.25 -101.1Q-94.2 -101.4 -94.2 -101.9L-93.65 -103.2L-92.95 -104.75L-87.7 -104.3L-87.55 -104.2M-88.3,-35.6L-88.2 -35.25L-88.9 -30L-88.7 -28.85L-88.65 -28.65L-89.25 -28.75L-92.3 -28.55L-93.85 -28.6L-95.15 -28.75L-97.85 -29L-98.7 -29.1Q-99.65 -29.35 -100.15 -30.15Q-100.45 -30.8 -100.4 -32.15Q-100.4 -35.15 -99.9 -35.6L-99.6 -35.75L-99.55 -35.75L-99.45 -35.8L-95.65 -36.1L-92.25 -35.9L-88.75 -35.55L-88.3 -35.6M-75.9,-29.25Q-75.7 -30.75 -75.65 -34.15L-75.7 -35.8L-70.9 -36.2L-69.45 -36.15L-67.75 -36L-67.6 -35.95Q-66.95 -35.5 -66.95 -33.55L-67.05 -31.9L-67.05 -31.6Q-67.3 -30.25 -67.75 -29.7Q-67.95 -29.45 -68.2 -29.35L-68.7 -29.25Q-70.4 -29.1 -75.9 -29.25M-71.75,-33.35L-68.9 -33.35L-68.45 -33.45L-68.25 -33.9L-68.65 -34.65Q-69.1 -35.15 -69.45 -35.25L-73.95 -34.9L-74.5 -34.2Q-73.25 -33.5 -71.75 -33.35" />
<path style="fill:#545353;fill-opacity:1" d="M-93.65,-97.1Q-94.5 -97.55 -94.5 -98.15L-94.1 -99.6L-93.25 -101.1L-88.15 -100.6L-85.65 -100.9L-82.5 -100.6L-78.85 -100.5Q-77.9 -100.5 -77.65 -100.75L-73.1 -100.6Q-71.25 -100.65 -70.45 -101.1L-69.25 -99.8L-69.15 -99.75Q-68.4 -99 -68.4 -98.35Q-68.4 -97.85 -68.8 -97.4Q-69.65 -96.6 -71.9 -96.25L-72.35 -96.2L-72.85 -96.15L-77 -95.95L-79.3 -95.95L-83.15 -95.95L-84.85 -95.95L-87.85 -96.05L-88.5 -96.1L-90.9 -96.35Q-92.75 -96.6 -93.65 -97.1" />
<path style="fill:#705133;fill-opacity:1" d="M-61.35,-83.45Q-62.9 -81.75 -66.95 -81.75Q-68.7 -81.75 -70.85 -82.4Q-71.95 -82.7 -73.05 -83.15L-73.3 -83.25Q-76.55 -84.55 -79.65 -84.05L-80.1 -84.05Q-83.75 -84.35 -86.8 -82.55L-87.1 -82.35Q-88.55 -81.55 -89.9 -81.05Q-92.15 -80.2 -94.25 -80.2Q-96.7 -80.2 -98.45 -81.4L-100 -83.1Q-97.8 -82.15 -94.85 -82.1L-92.15 -82.45Q-91.7 -82.45 -89.7 -83.4Q-87.7 -84.45 -86.9 -84.55L-85.05 -84.8Q-83.45 -85.25 -83.45 -85.9L-83.5 -86.5L-82.45 -86Q-81.05 -85.45 -80.25 -85.45Q-79.3 -85.45 -78.3 -86.05L-77.45 -86.6Q-77.15 -86.05 -76.25 -85.85L-74.6 -85.7L-73 -85.45L-71.7 -84.9L-69.45 -83.65Q-67.7 -82.7 -65.1 -82.7L-62 -83.2L-61.35 -83.45M-90.9,-96.35L-88.5 -96.1L-87.85 -96.05L-84.85 -95.95L-83.15 -95.95L-84.05 -93.1Q-84.35 -93.4 -84.9 -93.7L-86.75 -94.25L-88.6 -94.55L-91.35 -94.8L-90.9 -96.35M-76.55,-93.65Q-78.65 -92.95 -78.85 -92.7L-79.6 -94.55Q-79.6 -95.1 -77 -95.95L-72.85 -96.15L-72.35 -96.2L-71.7 -94.9L-75.8 -93.9L-76.55 -93.65" />
<path style="fill:#466D95;fill-opacity:1" d="M-84.7,-89.8Q-85.5 -89.15 -87.95 -89.15L-88.05 -89.15L-88.85 -90.05L-88.95 -90.95Q-88.95 -91.75 -88.5 -92.2Q-87.7 -93.25 -85.25 -93.25L-84.55 -93.2L-83.9 -92.75L-83.9 -92.6L-83.9 -91.8Q-84.05 -90.3 -84.7 -89.8M-78.75,-92L-78.85 -92.7Q-78.65 -92.95 -76.55 -93.65L-75.85 -93.5L-75.6 -93.5Q-74.8 -93.4 -74.1 -92.85L-73.95 -92.7Q-73.3 -91.95 -73.3 -91.1Q-73.3 -90.6 -73.6 -89.9L-74.4 -89.75L-75.85 -89.7Q-77.7 -89.7 -78.35 -90.5Q-78.7 -90.9 -78.75 -92M-86.9,-91.15L-87.25 -90.6Q-87.25 -89.9 -86.4 -89.9Q-85.45 -89.9 -85.45 -90.6L-86.1 -91.15L-86.9 -91.15M-84.45,-92.2Q-84.45 -92.75 -85 -92.75Q-85.5 -92.75 -85.5 -92.25L-85.35 -91.9L-84.9 -91.75L-84.6 -91.85Q-84.45 -91.95 -84.45 -92.2M-76,-91Q-76 -91.55 -76.75 -91.55Q-77.55 -91.55 -77.55 -91.05Q-77.55 -90.35 -76.75 -90.35Q-76 -90.35 -76 -91M-74.3,-92.4L-74.35 -92.8L-74.8 -92.95Q-75.4 -92.95 -75.4 -92.65L-75.4 -92.6Q-75.4 -92 -74.75 -92Q-74.3 -92 -74.3 -92.4" />
<path style="fill:#C68C5E;fill-opacity:1" d="M-101.1,-9.2L-101.75 -9.25Q-105 -9.7 -105.5 -13.4L-105.85 -20.7L-104.65 -20.55L-101.5 -20.5L-100.2 -20.5L-99.75 -20.75L-99.75 -20.45L-101.1 -9.2M-73.9,-81.8L-73.05 -83.15Q-71.95 -82.7 -70.85 -82.4L-71.1 -81.85Q-71.2 -78.35 -73.9 -76.9L-73.7 -75.55L-73 -73.95Q-73.5 -73.6 -74.25 -73.25Q-77.55 -71.6 -80.1 -71.6Q-83.95 -71.6 -85.9 -72.3Q-87 -72.8 -88.35 -73.85L-88.3 -74L-87.55 -75.3Q-87.25 -76.05 -87.1 -76.7Q-88.5 -77.75 -89.9 -81.05Q-88.55 -81.55 -87.1 -82.35L-87.05 -82.3L-85.7 -81.25Q-82.95 -79.55 -80.05 -79.55Q-77.7 -79.55 -76 -80.35Q-74.7 -80.9 -73.9 -81.8M-90.9,-96.35L-91.35 -94.8L-91.35 -94.75L-90.95 -92.6L-93.85 -93.15L-93.1 -89.6L-92.9 -89.1Q-93.65 -88.7 -94.25 -88.7Q-95.95 -88.7 -96.9 -90.4Q-97.6 -91.85 -97.6 -93.3L-97.15 -94.55Q-96.6 -95.4 -95.85 -95.4L-94.85 -95.1L-94 -94.4L-93.65 -97.1Q-92.75 -96.6 -90.9 -96.35M-71.65,-93.4L-71.65 -94.95L-71.7 -94.9L-72.35 -96.2L-71.9 -96.25Q-69.65 -96.6 -68.8 -97.4Q-68.45 -96.65 -68.45 -95.3L-68.45 -95.2L-68.45 -94.25L-71.65 -93.4M-79.6,-94.55L-78.85 -92.7L-78.75 -92L-82.25 -91.75L-83.9 -91.8L-83.9 -92.6L-83.9 -92.75L-84.05 -93.1L-83.15 -95.95L-79.3 -95.95L-77 -95.95Q-79.6 -95.1 -79.6 -94.55" />
<path style="fill:#000000;fill-opacity:1" d="M-86.1,-91.15L-85.45 -90.6Q-85.45 -89.9 -86.4 -89.9Q-87.25 -89.9 -87.25 -90.6L-86.9 -91.15L-86.1 -91.15M-76.75,-90.35Q-77.55 -90.35 -77.55 -91.05Q-77.55 -91.55 -76.75 -91.55Q-76 -91.55 -76 -91Q-76 -90.35 -76.75 -90.35" />
<path style="fill:#E2A474;fill-opacity:1" d="M-68.45,-94.25L-68.45 -95.2L-68.45 -95.3L-66.95 -95.75Q-65.8 -95.75 -65.4 -95.05Q-65.15 -94.55 -65.15 -93.25Q-65.15 -92.05 -66.3 -91Q-67.6 -89.9 -68.9 -90.2L-69.8 -87.1L-70.35 -86.45Q-72.55 -87.4 -74.15 -87.4L-77 -87L-77.45 -86.6L-78.3 -86.05Q-79.3 -85.45 -80.25 -85.45Q-81.05 -85.45 -82.45 -86L-83.5 -86.5L-83.9 -86.7L-86.9 -86.6Q-89.6 -86.6 -91.7 -85.45L-92.9 -89.1L-93.1 -89.6L-93.85 -93.15L-90.95 -92.6L-90.15 -89.9L-90.05 -89.65Q-89.25 -89.15 -88.05 -89.15L-87.95 -89.15Q-85.5 -89.15 -84.7 -89.8Q-84.05 -90.3 -83.9 -91.8L-82.25 -91.75L-78.75 -92Q-78.7 -90.9 -78.35 -90.5Q-77.7 -89.7 -75.85 -89.7L-74.4 -89.75L-73.6 -89.9Q-71.85 -90.3 -71.65 -91.6L-71.65 -93.4L-68.45 -94.25M-67.65,-17.95L-68 -22.45L-68 -22.5Q-65.25 -21.4 -61.05 -21.4L-59.5 -21.45Q-60.75 -16.5 -61.6 -14.6Q-62.95 -11.3 -67.3 -10.9L-67.65 -17.95M-81.1,-88.8Q-80.5 -87.15 -79.85 -87.15Q-79.2 -87.15 -79.2 -88.7Q-79.2 -90.1 -80.4 -90.85Q-81.55 -91.65 -81.55 -90.3L-81.1 -88.8M-67.05,-94.9Q-67.7 -94.8 -67.7 -94Q-67.7 -93.45 -66.95 -93.45Q-66.4 -93.45 -66.4 -94.2Q-66.4 -95.05 -67.05 -94.9" />
<path style="fill:#FCF8F8;fill-opacity:1" d="M-84.6,-91.85L-84.9 -91.75L-85.35 -91.9L-85.5 -92.25Q-85.5 -92.75 -85 -92.75Q-84.45 -92.75 -84.45 -92.2Q-84.45 -91.95 -84.6 -91.85M-74.75,-92Q-75.4 -92 -75.4 -92.6L-75.4 -92.65Q-75.4 -92.95 -74.8 -92.95L-74.35 -92.8L-74.3 -92.4Q-74.3 -92 -74.75 -92" />
<path style="fill:#F0C29F;fill-opacity:1" d="M-81.55,-90.3Q-81.55 -91.65 -80.4 -90.85Q-79.2 -90.1 -79.2 -88.7Q-79.2 -87.15 -79.85 -87.15Q-80.5 -87.15 -81.1 -88.8L-81.55 -90.3M-66.4,-94.2Q-66.4 -93.45 -66.95 -93.45Q-67.7 -93.45 -67.7 -94Q-67.7 -94.8 -67.05 -94.9Q-66.4 -95.05 -66.4 -94.2" />
<path style="fill:#9A6F45;fill-opacity:1" d="M-86.9,-86.6L-83.9 -86.7L-83.5 -86.5L-83.45 -85.9Q-83.45 -85.25 -85.05 -84.8L-86.9 -84.55Q-87.7 -84.45 -89.7 -83.4Q-91.7 -82.45 -92.15 -82.45L-94.85 -82.1Q-97.8 -82.15 -100 -83.1Q-100.45 -83.95 -100.45 -84.95L-100.35 -86L-98.6 -84.4Q-97.7 -83.6 -96.3 -83.55Q-94.75 -83.55 -92.35 -85.05L-91.7 -85.45Q-89.6 -86.6 -86.9 -86.6M-62,-83.2L-65.1 -82.7Q-67.7 -82.7 -69.45 -83.65L-71.7 -84.9L-73 -85.45L-74.6 -85.7L-76.25 -85.85Q-77.15 -86.05 -77.45 -86.6L-77 -87L-74.15 -87.4Q-72.55 -87.4 -70.35 -86.45L-69.35 -85.95Q-66.65 -84.55 -64.4 -84.55Q-63.2 -84.55 -61.85 -85.3L-60.35 -86.35L-60.35 -85.75Q-60.5 -84.35 -61.35 -83.45L-62 -83.2" />
<path style="fill:#8DAAAA;fill-opacity:1" d="M-133.9,0.7Q-136.15 1.7 -138.1 1.95L-142.8 2L-152.45 1.35L-152.35 -0.75L-152.3 -0.75L-146.7 -0.55L-139.65 -0.65Q-135.55 -0.95 -133.75 -2.2L-133.9 0.7M-79.7,3.3L-79.35 3.3L-67.3 2.55L-55.05 0.75L-33.7 -2.95L-33.85 -0.45Q-40.45 1.9 -53.55 4.8L-55.05 5.15L-66.95 7.4L-79.45 8.75L-80.65 8.75L-84.85 8.65L-94.25 7.75L-102.5 6.3L-104.9 5.8L-105.05 5.8L-105.7 5.65L-122 2.25L-122.15 2.25L-129.4 0.95L-129.95 -2.6L-121.1 -0.8L-103.9 2.2L-102.25 2.4L-93.55 3.05L-84.25 3.3L-79.7 3.3M-161.15,90.95L-158.95 91L-148.55 91.85Q-142.7 91.85 -131 89.6L-124.85 88.3L-107.9 84.7L-100.8 85.55L-95.7 86.45Q-93.65 86.45 -84.15 84.15Q-74.8 81.85 -70.3 81.85Q-63.1 81.85 -58.7 85.2Q-55.1 87.9 -51.8 88.45Q-54.3 92.25 -56.5 96.2Q-59.35 101.4 -61.35 106.4Q-66.05 118.05 -66 128.55L-132.35 128.5L-161.2 128.45L-161.15 90.95M-31.9,0.85Q-31.9 -1.55 -30.6 -2.35Q-28.45 1.85 -27.95 7.5Q-27.75 9.55 -27.75 17.4Q-27.75 22.35 -27.9 23.55Q-28.35 27.05 -30.1 29.6Q-32.1 26.8 -31.7 22Q-30.85 16.6 -30.85 14.25L-31.9 0.85M-129.85,4.9L-130.9 19.9L-130.6 23.95L-129.85 29.5L-130.25 30Q-130.6 30.35 -131.4 30.35L-132.85 30.1L-133.5 19.75L-133.25 12.1Q-132.95 8.25 -132.95 2.85L-132.45 0.55Q-131.8 -1.15 -131.15 -1.6Q-130.05 -0.6 -129.85 1.45L-129.85 4.9" />
<path style="fill:#748A8A;fill-opacity:1" d="M-152.45,1.35L-152.6 1.35L-154.05 1.25L-161.1 0.7L-161.1 -2.85L-156.35 -1.5Q-154.8 -1 -152.35 -0.75L-152.45 1.35M-133.75,-2.2L-133.7 -3.15L-131.95 -3.05L-130.05 -3.15L-129.95 -2.6L-129.4 0.95Q-128.85 5.75 -128.65 10.6L-128.55 24.65L-128.55 33.5L-128.55 33.9L-135.7 33.9Q-134.9 27.2 -134.45 16.1L-133.9 0.8L-133.9 0.7L-133.75 -2.2M-33.85,-0.45L-33.7 -2.95L-33.7 -3L-33.7 -3.45L-33.25 -4.1Q-31.9 -3.4 -30.85 -3.4L-29.4 -3.65Q-27.95 2.5 -27.65 7.05Q-27.5 9.15 -27.5 19.1L-27.55 29.85L-27.75 33.2L-34.7 33.15L-33.85 -0.45M-148.55,91.85L-158.95 91L-161.15 90.95L-161.15 70.5Q-156.65 72.1 -147.25 72.1L-132.05 71.85L-131.2 71.85Q-123.8 71.6 -119.4 71.7L-96.1 71.6L-75.25 71.35Q-53.45 70.5 -45.35 70.85L-37.7 71Q-45.7 79.25 -51.8 88.45Q-55.1 87.9 -58.7 85.2Q-63.1 81.85 -70.3 81.85Q-74.8 81.85 -84.15 84.15Q-93.65 86.45 -95.7 86.45L-100.8 85.55L-107.9 84.7L-124.85 88.3L-131 89.6Q-142.7 91.85 -148.55 91.85M-30.85,14.25Q-30.85 16.6 -31.7 22Q-32.1 26.8 -30.1 29.6Q-28.35 27.05 -27.9 23.55Q-27.75 22.35 -27.75 17.4Q-27.75 9.55 -27.95 7.5Q-28.45 1.85 -30.6 -2.35Q-31.9 -1.55 -31.9 0.85L-30.85 14.25M-129.85,1.45Q-130.05 -0.6 -131.15 -1.6Q-131.8 -1.15 -132.45 0.55L-132.95 2.85Q-132.95 8.25 -133.25 12.1L-133.5 19.75L-132.85 30.1L-131.4 30.35Q-130.6 30.35 -130.25 30L-129.85 29.5L-130.6 23.95L-130.9 19.9L-129.85 4.9L-129.85 1.45" />
<path style="fill:#FFCB66;fill-opacity:1" d="M-131.95,-3.05L-133.7 -3.15Q-136.35 -3.65 -136.35 -5.6L-136.3 -6.85Q-135.8 -7.95 -133.75 -8.5Q-134.25 -8.5 -134.25 -8.95L-129.6 -8.95L-128.1 -8.05Q-127 -7.3 -127 -6.65Q-127 -4.7 -128.05 -3.9Q-128.75 -3.4 -130.05 -3.15L-131.95 -3.05M-30.85,-3.4Q-31.9 -3.4 -33.25 -4.1L-33.35 -4.15L-34.25 -4.7Q-36.3 -6.1 -36.3 -7.4Q-36.3 -8.3 -35.35 -9.55L-35.2 -9.7L-34.3 -10.85L-34.25 -10.85L-34.25 -10.9Q-33.4 -11.4 -32.15 -11.35L-29.75 -11Q-29.1 -10.85 -28.55 -10.5Q-26.45 -9.4 -26.45 -7.35Q-26.45 -6.35 -27.5 -5.05Q-28.3 -4.1 -29.25 -3.7L-29.4 -3.65L-30.85 -3.4M-133.5,-6.85L-133.35 -5.6L-131.4 -5.35L-129.6 -5.6L-129.4 -5.95L-129.35 -6.75Q-129.35 -7.5 -130.7 -8.1Q-132.15 -8.7 -133.35 -8.1L-133.5 -6.85M-32.4,-7.6Q-32.05 -6.1 -30.1 -6.1Q-27.75 -6.1 -27.75 -8.25Q-27.75 -9.7 -30.1 -10.45Q-32.4 -11.3 -32.4 -8.7Q-32.6 -8.25 -32.4 -7.6M-23.55,64.85Q-35 62.1 -39.2 62.1L-45.7 62.7L-51.9 63.35L-62.2 62.5L-73.15 61.65Q-77.25 61.65 -84.25 63.55Q-91.15 65.45 -101.9 65.4Q-108.9 65.4 -119.95 62.45L-131.2 59.5Q-132.85 59.5 -134.85 60.15L-138.45 60.8Q-140 60.8 -143.2 59.3Q-146.35 57.85 -147.25 57.85Q-148.5 57.85 -153.3 59.3L-158.7 60.8Q-159.6 60.8 -161.15 60.05L-161.15 38.5L-146.7 38.5L-130.45 39L-113.3 39.8L-98.45 38.75L-84.75 37.75L-58.35 38.55Q-48.55 39.4 -23.35 39.45Q-22.05 41.55 -20.9 43.9Q-19.2 47.2 -19.2 48.3L-20.05 52.45L-20.8 57.75Q-20.8 60 -19.3 65.8L-23.55 64.85" />
<path style="fill:#FAE2B5;fill-opacity:1" d="M-133.35,-8.1Q-132.15 -8.7 -130.7 -8.1Q-129.35 -7.5 -129.35 -6.75L-129.4 -5.95L-129.6 -5.6L-131.4 -5.35L-133.35 -5.6L-133.5 -6.85L-133.35 -8.1M-32.4,-8.7Q-32.4 -11.3 -30.1 -10.45Q-27.75 -9.7 -27.75 -8.25Q-27.75 -6.1 -30.1 -6.1Q-32.05 -6.1 -32.4 -7.6Q-32.6 -8.25 -32.4 -8.7" />
<path style="fill:#4A4A4A;fill-opacity:1" d="M-102.25,2.4L-101.1 -9.2L-99.75 -20.45L-99.75 -20.75L-99.1 -26.25L-98.75 -28.8L-98.7 -29.1L-97.85 -29L-95.15 -28.75L-93.85 -28.6L-93.5 -27.1Q-92.35 -26.65 -91.85 -24.35Q-91.5 -22.75 -91.5 -20.35L-91.75 -10.8Q-91.75 -9.1 -93.55 3.05L-102.25 2.4M-79.7,3.3L-84.25 3.3L-84.1 1.9L-84.4 -0.5L-84.1 -5.9L-84.25 -12.55Q-85.1 -13 -86 -14.8L-86.15 -15.1L-85.7 -15L-84.3 -14.7L-84.25 -14.7L-83 -14.55L-81 -14.8Q-80.3 -8.2 -79.7 3.3M-74.5,-34.2L-73.95 -34.9L-69.45 -35.25Q-69.1 -35.15 -68.65 -34.65L-68.25 -33.9L-68.45 -33.45L-68.9 -33.35L-71.75 -33.35Q-73.25 -33.5 -74.5 -34.2M-84.85,8.65L-80.65 8.75L-79.45 8.75L-77.9 33.45L-85.1 33.5Q-84.5 21.25 -84.5 15.6L-84.85 8.65M-102.5,6.4L-102.5 6.3L-94.25 7.75L-98.25 33.65L-104.35 33.7Q-102.5 10.3 -102.5 6.4" />
<path style="fill:#626060;fill-opacity:1" d="M-81,-14.8L-83 -14.55L-84.25 -14.7L-84.3 -14.7L-85.7 -15L-86.15 -15.1L-86 -14.8Q-85.1 -13 -84.25 -12.55L-84.1 -5.9L-84.4 -0.5L-84.1 1.9L-84.25 3.3L-93.55 3.05Q-91.75 -9.1 -91.75 -10.8L-91.5 -20.35Q-91.5 -22.75 -91.85 -24.35Q-92.35 -26.65 -93.5 -27.1L-93.85 -28.6L-92.3 -28.55L-89.25 -28.75L-88.65 -28.65Q-88.2 -27.7 -87.1 -27.5L-82.95 -27.5Q-77 -27.5 -76.2 -28.3L-76.1 -28.4L-75.9 -29.2L-75.9 -29.25Q-70.4 -29.1 -68.7 -29.25L-68 -22.5L-68 -22.45L-67.65 -17.95L-67.3 -10.9L-67.15 -5.55L-67.4 0.7L-67.3 2.55L-79.35 3.3L-79.7 3.3Q-80.3 -8.2 -81 -14.8M-79.45,8.75L-66.95 7.4L-66.75 13.25Q-66.75 16.95 -65.4 26.15L-64.35 33.35L-77.9 33.45L-79.45 8.75M-94.25,7.75L-84.85 8.65L-84.5 15.6Q-84.5 21.25 -85.1 33.5L-98.25 33.65L-94.25 7.75" />
<path style="fill:#461A1A;fill-opacity:1" d="M-76,-80.35Q-77.7 -79.55 -80.05 -79.55Q-82.95 -79.55 -85.7 -81.25L-79.8 -81.7L-73.9 -81.8Q-74.7 -80.9 -76 -80.35" />
<path style="fill:#FCDFA6;fill-opacity:1" d="M-161.15,33.9L-157.6 33.9L-157.6 33.65L-147.5 33.85L-135.7 33.9L-128.55 33.9L-126.5 33.9L-104.35 33.7L-98.25 33.65L-85.1 33.5L-77.9 33.45L-64.35 33.35L-34.7 33.15L-27.75 33.2L-27.55 33.2L-17.15 33.15L-16.6 33.25L-16.5 33.25Q-13.9 33.75 -13.25 35.6Q-13 36.35 -13 40.3L-12.8 52.4Q-12.6 59 -14.55 64.05L-15.65 66.55L-19.3 65.8Q-20.8 60 -20.8 57.75L-20.05 52.45L-19.2 48.3Q-19.2 47.2 -20.9 43.9Q-22.05 41.55 -23.35 39.45Q-48.55 39.4 -58.35 38.55L-84.75 37.75L-98.45 38.75L-113.3 39.8L-130.45 39L-146.7 38.5L-161.15 38.5L-161.15 33.9" />
<path style="fill:#D9AD57;fill-opacity:1" d="M-161.15,60.05Q-159.6 60.8 -158.7 60.8L-153.3 59.3Q-148.5 57.85 -147.25 57.85Q-146.35 57.85 -143.2 59.3Q-140 60.8 -138.45 60.8L-134.85 60.15Q-132.85 59.5 -131.2 59.5L-119.95 62.45Q-108.9 65.4 -101.9 65.4Q-91.15 65.45 -84.25 63.55Q-77.25 61.65 -73.15 61.65L-62.2 62.5L-51.9 63.35L-45.7 62.7L-39.2 62.1Q-35 62.1 -23.55 64.85L-19.3 65.8L-18.7 68.3L-18.15 70.05L-28.15 70.95L-37.7 71L-45.35 70.85Q-53.45 70.5 -75.25 71.35L-96.1 71.6L-119.4 71.7Q-123.8 71.6 -131.2 71.85L-132.05 71.85L-147.25 72.1Q-156.65 72.1 -161.15 70.5L-161.15 60.05" />
<path style="fill:#FFFF66;fill-opacity:1" d="M-18.7,68.3L-19.3 65.8L-15.65 66.55Q-16.85 69.3 -17.75 69.85L-18.15 70.05L-18.7 68.3" />
<path style="fill:none;stroke-width:1;stroke-linecap:butt;stroke-linejoin:miter;stroke-miterlimit:3;stroke:#333333;stroke-opacity:1" d="M57.05,-60.05L59.35 -60.05L63.5 -60.65L67.65 -61.3L68.45 -61.2L64.15 -63.1Q61.35 -64.25 59.35 -64.25Q57.55 -64.25 57.05 -63.8Q56.5 -63.4 56.5 -61.7Q56.5 -60.25 57.05 -60.05M81.9,-43.25Q52.55 -41.85 33.25 -30.2Q30.6 -28.65 28.3 -26.9M33.35,37L35.45 37L40 37.6L44.55 38.25L43 42.05L42.1 44.2Q40.15 42.5 35.85 41.55M53.8,82.05L56.4 82.75Q63.4 83.55 66.95 80.7L68.4 79.2Q71.05 75.55 70.4 68.05Q70.8 65.95 74.7 58.25Q78.2 51.4 78.25 47.7L77.4 43.25L75.75 35.15L75.1 32.05L75 31.55L73.35 22.8M128.95,-12.5Q131.75 -11.85 134.6 -9.75L140.4 -5.4Q142.9 -3.75 149.55 -1.55Q154.95 0.2 154.95 1.15L146.05 4.8L145.95 4.85L145.85 4.85L145.3 5.1Q136.2 8.5 134.7 10.6Q132.7 13.35 130.65 18.9L127.9 26.65L126.95 29.05Q121.25 26.75 118.55 21.3Q116.05 16.5 116.05 9.75Q116.05 7.9 117.3 2.7L117.75 0.95Q118.4 -1.7 118.9 -2.75L119 -2.7L121.5 -0.95Q125.15 1.35 126.95 1.35Q128.5 1.35 129.3 -0.15Q130.05 -1.6 130.05 -4.55Q130.05 -8.5 128.95 -12.5Q127 -19.75 121.5 -27.35Q113.7 -38.05 105.35 -40.85M105.1,-41L105.25 -40.65L100.05 -40.65L97.7 -40.9L94.1 -41.3L89.4 -41.55L81.4 -40.7Q81.25 -40.6 81.15 -40.6Q80.85 -40.65 80.85 -41.35L80.85 -41.95Q81.25 -42 82.3 -42.6L82.45 -42.65L89.05 -46.8L89.35 -47Q95.75 -51.2 97.95 -51.15Q100.9 -51.15 102.75 -46.95Q104.15 -42.8 104.95 -41.15L105.1 -41L105.35 -40.85M43.7,-12.45Q43.5 -12.9 43.95 -12.95L44 -13L44 -12.95L45.3 -13Q47.15 -13 50.75 -7.55Q54.4 -2.05 54.4 0.65Q54.4 2.2 51.3 11.8Q47.95 21.85 46.85 21.85Q44.55 21.85 42.85 18.3Q42.1 16.65 41.45 14.3Q39.9 8.55 39.9 3.2Q39.9 0.35 40.7 -3.7L41.05 -5.25Q42.2 -10.35 43.7 -12.45L44 -12.95L43.95 -12.95M89.15,-70.55Q89.7 -69.65 89.7 -67.8Q89.7 -67.1 88.9 -65.25Q88.2 -63.45 88.15 -62.65L85.15 -65.95Q83.45 -68 83.45 -69.05Q83.45 -70.8 84.5 -71.35L86.55 -71.8Q88.45 -71.8 89.15 -70.55M118.9,-2.75Q115.95 -4.7 114.05 -6Q103.05 -13.35 96.1 -13.35Q84.45 -13.4 77.7 -5Q72 2.1 72 11.35Q72 15.05 73.35 22.8Q75.05 21.5 76.75 18.65L78.8 14.3L81.6 6.75Q85.4 6.75 87.6 15.15Q89.1 21 89.1 25Q89.1 34.45 83.4 39.6Q80.95 41.8 77.4 43.25M129.65,-31.85L129.55 -30.35Q129.55 -27.75 132.6 -25.7Q135.7 -23.65 135.75 -22.2L136.45 -23.95L136.8 -25.95Q136.85 -32.7 131.4 -32.7Q129.9 -32.7 129.65 -31.85M148.05,8.25Q147.3 8.9 146.65 10.15Q145.6 12.2 145.6 13.75Q145.6 15.85 146.75 16.8Q147.6 17.45 150.25 18.15Q150 16.8 150.85 14.35Q151.85 11.7 151.85 10.6Q151.85 7.65 149.75 7.65Q148.85 7.65 148.05 8.25M120.5,106.55Q119.2 105.6 117.05 104.7Q111.35 102.35 111.35 99Q111.35 98.4 112.15 95.9Q112.9 93.3 112.9 92.05L112.45 89.3Q111.5 86.2 108.5 82.45Q104.1 76.95 104.1 76.1Q104.1 75 105.65 74.4L108.25 74Q111.85 74 113.6 76.85Q114.65 78.55 115.55 83.05Q116.2 86.45 116.85 88.25L117.3 89.25Q118.85 92.05 122.25 92.05Q125.1 92.05 127.95 88.7Q130.55 85.65 130.55 83.65Q130.55 82.7 129.9 81.5L127.95 78.85Q125.35 75.85 125.35 74.65Q125.35 73.75 126.9 72.75Q128.3 71.9 128.95 71.9Q130.45 71.9 131.5 73.8L133.25 78Q133.7 79.15 134.3 80.1Q136.6 84.1 140.35 84.1Q144.6 84.1 146.05 80.7Q147.1 78.45 147.1 73.6Q147.1 60.45 137.25 54.95Q132.35 52.65 130.55 51.5Q127.4 49.55 127.45 46.7Q127.45 45.5 128 45Q128.5 44.6 129.8 44.6Q130.85 44.6 133.8 46.65L138.3 49.65L141.95 49.65L142 44.6Q138.85 39.95 138.05 38.3Q136.8 35.95 136.8 32.2Q136.8 28.05 137.05 27.35Q137.55 25.55 140.4 23.6L144.55 23.6Q143.45 33.45 146.65 42.1Q149.85 50.8 156.45 55.1Q159.05 56.8 161.05 59.65L161.15 -127.9L-161.05 -128.15L-161.1 -2.85L-156.35 -1.5Q-154.8 -1 -152.35 -0.75L-152.3 -0.75L-146.7 -0.55L-139.65 -0.65Q-135.55 -0.95 -133.75 -2.2L-133.7 -3.15Q-136.35 -3.65 -136.35 -5.6L-136.3 -6.85Q-135.8 -7.95 -133.75 -8.5Q-134.25 -8.5 -134.25 -8.95L-129.6 -8.95L-128.1 -8.05Q-127 -7.3 -127 -6.65Q-127 -4.7 -128.05 -3.9Q-128.75 -3.4 -130.05 -3.15L-129.95 -2.6L-121.1 -0.8L-103.9 2.2L-102.25 2.4L-101.1 -9.2M-101.75,-9.25Q-105 -9.7 -105.5 -13.4L-105.85 -20.7L-105.9 -20.75L-105.95 -20.75Q-106.95 -21.05 -107.2 -21.85L-107.9 -24.55Q-108.3 -26.55 -108.3 -27.85L-108.35 -27.9L-108.6 -28.15Q-109.35 -28.95 -109.5 -30.4L-109.85 -32.9L-111.65 -37.25Q-113.35 -41.6 -113.35 -43.15L-112.75 -48.3L-112.75 -48.7Q-112.2 -53.1 -112.2 -53.85L-112.15 -56.4L-112.15 -56.5L-112 -59.9L-111.65 -66.85Q-112.45 -67.15 -113.15 -69.05L-114.15 -71.85Q-111.55 -72.9 -105.95 -73.45L-96.9 -74.4L-95.85 -74.4L-95.75 -73.5L-95.6 -73.25L-93.15 -73.25L-90.3 -75.45L-88.85 -74.2L-88.35 -73.85L-88.3 -74L-87.55 -75.3Q-87.25 -76.05 -87.1 -76.7Q-88.5 -77.75 -89.9 -81.05Q-92.15 -80.2 -94.25 -80.2Q-96.7 -80.2 -98.45 -81.4L-100 -83.1Q-100.45 -83.95 -100.45 -84.95L-100.35 -86L-98.6 -84.4Q-97.7 -83.6 -96.3 -83.55Q-94.75 -83.55 -92.35 -85.05L-91.7 -85.45L-92.9 -89.1Q-93.65 -88.7 -94.25 -88.7Q-95.95 -88.7 -96.9 -90.4Q-97.6 -91.85 -97.6 -93.3L-97.15 -94.55Q-96.6 -95.4 -95.85 -95.4L-94.85 -95.1L-94 -94.4L-93.65 -97.1Q-94.5 -97.55 -94.5 -98.15L-94.1 -99.6Q-98.4 -101.4 -100.1 -103Q-102.1 -105 -102.1 -107.95Q-102.1 -110.25 -99.3 -112.45Q-97.55 -113.9 -92.9 -116.35L-91.45 -117.1Q-87.8 -119.05 -85.9 -119.5L-80.45 -120Q-73.25 -120 -68.85 -115L-65.3 -111.6Q-62.45 -108.45 -62.45 -106.65Q-62.45 -104.15 -64.3 -102.4Q-66 -100.9 -69.25 -99.8L-69.15 -99.75Q-68.4 -99 -68.4 -98.35Q-68.4 -97.85 -68.8 -97.4Q-68.45 -96.65 -68.45 -95.3L-66.95 -95.75Q-65.8 -95.75 -65.4 -95.05Q-65.15 -94.55 -65.15 -93.25Q-65.15 -92.05 -66.3 -91Q-67.6 -89.9 -68.9 -90.2L-69.8 -87.1M-83.5,-86.5L-82.45 -86Q-81.05 -85.45 -80.25 -85.45Q-79.3 -85.45 -78.3 -86.05L-77.45 -86.6L-77 -87L-74.15 -87.4Q-72.55 -87.4 -70.35 -86.45L-69.35 -85.95Q-66.65 -84.55 -64.4 -84.55Q-63.2 -84.55 -61.85 -85.3L-60.35 -86.35L-60.35 -85.75Q-60.5 -84.35 -61.35 -83.45Q-62.9 -81.75 -66.95 -81.75Q-68.7 -81.75 -70.85 -82.4M-71.1,-81.85Q-71.2 -78.35 -73.9 -76.9L-73.7 -75.55L-73 -73.95L-72.95 -74Q-71.1 -75.15 -71.25 -75.9L-67.7 -74L-65.55 -73.7M-65.2,-73.8L-65.3 -74.2Q-64.95 -75.05 -64.45 -75.05L-60.25 -74.75L-56.1 -74.3Q-48.7 -73.95 -48.7 -72.75Q-48.7 -72.2 -49.35 -70.55Q-50.05 -68.55 -50.7 -68.55L-51.5 -68.55M-51.55,-68.2L-52.2 -57.95L-52.35 -56.45L-52.65 -47.75L-52.6 -44.7Q-52.4 -40.9 -55.45 -31.55L-56.6 -28L-57.7 -24.55Q-58.15 -22.1 -58.4 -21.75Q-58.6 -21.55 -59.45 -21.45L-59.5 -21.45Q-60.75 -16.5 -61.6 -14.6Q-62.95 -11.3 -67.3 -10.9L-67.15 -5.55L-67.4 0.7L-67.3 2.55L-55.05 0.75L-33.7 -2.95L-33.7 -3L-33.7 -3.45M-33.25,-4.1L-33.35 -4.15L-34.25 -4.7Q-36.3 -6.1 -36.3 -7.4Q-36.3 -8.3 -35.35 -9.55L-35.2 -9.7L-34.3 -10.85L-34.25 -10.85L-34.25 -10.9Q-33.4 -11.4 -32.15 -11.35L-29.75 -11Q-29.1 -10.85 -28.55 -10.5Q-26.45 -9.4 -26.45 -7.35Q-26.45 -6.35 -27.5 -5.05Q-28.3 -4.1 -29.25 -3.7L-29.4 -3.65Q-27.95 2.5 -27.65 7.05Q-27.5 9.15 -27.5 19.1L-27.55 29.85L-27.75 33.2L-27.55 33.2L-17.15 33.15L-16.6 33.15L-16.6 33.25L-16.5 33.25Q-13.9 33.75 -13.25 35.6Q-13 36.35 -13 40.3L-12.8 52.4Q-12.6 59 -14.55 64.05L-15.65 66.55Q-16.85 69.3 -17.75 69.85L-18.15 70.05L-28.15 70.95L-37.7 71Q-45.7 79.25 -51.8 88.45Q-54.3 92.25 -56.5 96.2Q-59.35 101.4 -61.35 106.4M120.5,106.55Q122.75 108.15 122.75 109.9Q122.75 114.1 114.5 115.15L107.8 115.75Q104.05 116.1 102.55 116.85Q98.25 118.9 95.6 122.7Q93.5 125.7 93.4 128.65L110.9 128.7M161.05,91.4L161.05 59.65M111.4,33.7L111.4 33.9Q111.4 34.9 111.55 35.4Q111.65 36 112.1 36.6Q112.2 34.45 111.4 33.7Q111.45 32.3 112.45 30.75Q114.65 30.5 115.95 32.75Q117.1 34.65 117.1 37.05L117.1 39.55Q116.7 41.65 114.5 41.65Q112.1 41.65 112 38.45L112.1 37.05L112.1 36.6M59.65,39.45Q60.5 40.75 62.15 40.75Q63.05 40.75 66.7 38.55Q70.85 36 71.5 35.75Q70.9 34.75 70.5 34.6L68.9 34.45Q67.1 34.45 63.6 35.75Q60 37 59.05 37Q59.05 38.5 59.65 39.45M67.75,47.3L67.65 46.75Q67.65 45.6 69.3 43Q71.05 40.1 72.35 40.1Q72.7 40.1 72.85 40.25L73 40.35L73.05 40.9Q73.3 42.5 73.9 44.6L74.2 46.55L74.3 47.85Q74.25 49.7 72.85 51.5Q71.45 53.3 69.95 53.3Q69.5 53.3 68.65 50.7L68.55 50.4L67.75 47.3M12.65,19.25Q13.45 24.15 14.8 29.55Q16.55 36.45 18.65 41.55Q12.45 40.05 3.9 28.85Q-4.2 18.15 -4.2 13.2Q-4.2 10.95 -3.65 9.2Q-2.75 6.3 -0.55 6.3Q0.25 6.3 4.3 11.55Q8.9 17.45 11.9 19.3M12.65,19.25Q11.35 11.7 11.35 5.25Q11.35 -14.35 28.3 -26.9M18.65,41.55Q20.75 47.05 23.25 50.4Q26.4 54.6 31.4 58.5Q34.3 60.85 40.35 65.15Q43.15 67.25 46.45 74.25Q49.2 80.25 53.8 81.95M33.35,37L30.8 37.05Q28.85 37.4 26.9 39.05Q28.6 39.95 35 41.35L35.85 41.55M31.55,52.8L31 52.15Q26.65 46.75 26.65 44.2Q26.65 43.45 27 42.7Q33.15 46.5 39.05 47.8Q39.95 48.25 40.55 49.2Q41.75 51.3 41.75 56.05Q41.75 57.2 41.1 57.7Q40.6 58.05 39.45 58.05Q36 58.05 31.55 52.8M67.6,71.75L67.3 73.3M49.5,73.7L50.6 75.7M161.05,91.4L161 128.7L110.9 128.7M171.3,136L-171.45 135.7L-171.25 -136.05L171.5 -135.75L171.3 136M-85.65,-100.9L-85.95 -101.1L-85.7 -102.1Q-85.7 -102.65 -87.55 -104.2L-87.7 -104.3L-89.45 -105.8L-88.8 -106.65Q-88.15 -107.05 -87.55 -107.05L-86.1 -106.55Q-85.1 -106.05 -84.85 -106.1Q-84.6 -107.2 -85 -108.25Q-85 -109.2 -80.1 -109.2Q-79.2 -109.2 -79.2 -108.2L-79.55 -106.8Q-79.15 -106.55 -78.85 -106.55L-77.45 -107.2L-77.15 -107.4L-75.65 -107.9Q-75.35 -107.9 -74.5 -106.9L-73.65 -105.7Q-73.65 -105.05 -75.35 -104.25M-75.35,-104.05L-70.55 -104.4Q-70 -102.9 -70 -101.85Q-70 -101.4 -70.45 -101.1L-69.25 -99.8M-80.1,-103.8Q-80.1 -104.5 -80.75 -105Q-81.35 -105.5 -82 -105.5Q-82.45 -105.5 -82.95 -105.05L-83.35 -104.7L-83.6 -104.35L-83.75 -103.8Q-83.75 -102.55 -81.6 -102.55Q-80.95 -102.55 -80.6 -102.9Q-80.1 -103.3 -80.1 -103.8M-93.25,-101.1L-88.15 -100.6L-85.65 -100.9L-82.5 -100.6L-78.85 -100.5Q-77.9 -100.5 -77.65 -100.75L-77.6 -101.1L-77.7 -103.1L-75.6 -104.05L-75.35 -104.25M-77.65,-100.75L-73.1 -100.6Q-71.25 -100.65 -70.45 -101.1M-75.35,-104.05L-75.6 -104.05M-87.7,-104.3L-92.95 -104.75L-93.65 -103.2L-94.2 -101.9Q-94.2 -101.4 -93.25 -101.1L-94.1 -99.6M-91.35,-94.8L-90.9 -96.35L-88.5 -96.1L-87.85 -96.05L-84.85 -95.95L-83.15 -95.95L-79.3 -95.95L-77 -95.95L-72.85 -96.15L-72.35 -96.2L-71.9 -96.25Q-69.65 -96.6 -68.8 -97.4M-83.15,-95.95L-84.05 -93.1L-83.9 -92.75L-83.9 -92.6L-83.9 -91.8M-73.6,-89.9L-74.4 -89.75L-75.85 -89.7Q-77.7 -89.7 -78.35 -90.5Q-78.7 -90.9 -78.75 -92L-78.85 -92.7L-79.6 -94.55Q-79.6 -95.1 -77 -95.95M-84.05,-93.1Q-84.35 -93.4 -84.9 -93.7M-88.05,-89.15L-87.95 -89.15Q-85.5 -89.15 -84.7 -89.8Q-84.05 -90.3 -83.9 -91.8M-88.05,-89.15Q-89.25 -89.15 -90.05 -89.65L-90.15 -89.9L-90.95 -92.6L-91.35 -94.75L-91.35 -94.8L-88.6 -94.55L-86.75 -94.25L-84.9 -93.7M-94,-94.4L-93.85 -93.15L-93.1 -89.6L-92.9 -89.1M-90.9,-96.35Q-92.75 -96.6 -93.65 -97.1M-83.5,-86.5L-83.9 -86.7L-86.9 -86.6Q-89.6 -86.6 -91.7 -85.45M-86.8,-82.55L-87.1 -82.35Q-88.55 -81.55 -89.9 -81.05M-87.1,-82.35L-87.05 -82.3L-85.7 -81.25L-79.8 -81.7L-73.9 -81.8L-73.05 -83.15M-86.8,-82.55Q-83.75 -84.35 -80.1 -84.05L-79.65 -84.05Q-76.55 -84.55 -73.3 -83.25L-73.05 -83.15Q-71.95 -82.7 -70.85 -82.4M-87.1,-76.7L-87 -76.6Q-85.5 -75.7 -81.8 -75.7Q-76.6 -75.7 -74.3 -76.7L-73.9 -76.9M-111.65,-66.85L-111.4 -66.8Q-109.55 -66.8 -103.1 -69.15L-102.45 -69.4Q-95.5 -71.95 -95.5 -72.7L-95.6 -73.25M-100.25,-63.75L-93 -63.4L-93 -62.15L-93.6 -60.75L-95.15 -60.65L-98.15 -60.85M-83.45,-36.35L-83.45 -38.9L-83.7 -44.1L-83.95 -51.8L-83.45 -59.2L-83.6 -67.1L-83.7 -67.1L-85.45 -67.3Q-87.05 -67.75 -88.75 -69.05L-91 -71.05L-93.15 -73.25M-112.75,-48.3L-111.2 -48.1Q-110.1 -48.1 -109.45 -50.75Q-108.95 -52.65 -108.95 -54.5Q-108.95 -56.25 -110.4 -56.5L-111.8 -56.5M-83.6,-67.1L-81.55 -67.05L-78.55 -67.25Q-76.05 -67.75 -73.85 -69Q-71.3 -70.4 -67.7 -74M-88.35,-73.85Q-87 -72.8 -85.9 -72.3Q-83.95 -71.6 -80.1 -71.6Q-77.55 -71.6 -74.25 -73.25Q-73.5 -73.6 -73 -73.95M-100.65,-63.45L-100.7 -61.95Q-100.7 -61.25 -99.25 -61L-98.15 -60.85M-133.7,-3.15L-131.95 -3.05L-130.05 -3.15M-88.75,-35.55L-92.25 -35.9L-95.65 -36.1L-99.45 -35.8L-99.55 -35.75L-99.6 -35.75L-99.9 -35.6Q-100.4 -35.15 -100.4 -32.15Q-100.45 -30.8 -100.15 -30.15Q-99.65 -29.35 -98.7 -29.1L-97.85 -29L-95.15 -28.75L-93.85 -28.6L-92.3 -28.55L-89.25 -28.75L-88.65 -28.65L-88.7 -28.85L-88.9 -30L-88.2 -35.25L-88.3 -35.6M-105.85,-20.7L-104.65 -20.55L-101.5 -20.5L-100.2 -20.5L-99.75 -20.75L-99.1 -26.25L-98.75 -28.8M-102.25,2.4L-93.55 3.05L-84.25 3.3L-84.1 1.9L-84.4 -0.5L-84.1 -5.9L-84.25 -12.55M-86.15,-15.1L-88 -15.5M-83.75,-31.1L-83.95 -32.5L-83.9 -32.75Q-84.5 -31.8 -83.95 -31.25L-83.75 -31.1Q-83.2 -30.75 -82.3 -30.75Q-80.35 -30.75 -80.3 -32.6Q-80.3 -33.65 -80.6 -33.9L-82.15 -34.1Q-82.85 -34.1 -83.45 -33.45L-83.8 -32.9L-83.9 -32.75M-88.65,-28.65Q-88.2 -27.7 -87.1 -27.5L-82.95 -27.5Q-77 -27.5 -76.2 -28.3L-76.1 -28.4L-75.9 -29.2L-75.9 -29.25Q-75.7 -30.75 -75.65 -34.15L-75.7 -35.8L-75.9 -36.3L-78.2 -36.5L-79.8 -36.4L-83.45 -36.35L-86.9 -36.5Q-88.1 -36.5 -88.35 -36.1L-88.3 -35.6M-99.1,-26.25L-102.85 -26.05L-105.95 -26.65Q-107.45 -27.15 -108.3 -27.85M-86.15,-15.1L-85.7 -15L-84.3 -14.7L-84.25 -14.7L-83 -14.55L-81 -14.8L-79.6 -15.2M-84.3,-14.7L-84.25 -12.55M-99.75,-20.75L-99.75 -20.45L-101.1 -9.2M-99.45,-35.8Q-101.05 -40.75 -104.2 -49Q-106.55 -56.1 -106.25 -61.65M-68.45,-95.3L-68.45 -95.2L-68.45 -94.25L-68.7 -91.3L-68.9 -90.2M-73.6,-89.9Q-71.85 -90.3 -71.65 -91.6L-71.65 -93.4L-71.65 -94.95L-71.7 -94.9L-75.8 -93.9M-76.55,-93.65Q-78.65 -92.95 -78.85 -92.7M-71.7,-94.9L-72.35 -96.2M-76.55,-93.65L-75.8 -93.9M-85.7,-81.25Q-82.95 -79.55 -80.05 -79.55Q-77.7 -79.55 -76 -80.35Q-74.7 -80.9 -73.9 -81.8M-68.65,-64L-73.95 -64.35L-75.05 -64.3Q-75.5 -64.15 -75.6 -63.65L-75.6 -63.6L-75.65 -63.5L-75.65 -63.4L-75.8 -61.7Q-75.65 -60.65 -73.85 -60.65L-68.05 -60.55Q-65.15 -60.35 -64.65 -60.55Q-64.1 -60.75 -64.1 -62.95Q-64.1 -64.05 -65.65 -64.1L-68.65 -64M-74.25,-58.85L-75.4 -58.85Q-75.65 -56.8 -75.4 -56.45Q-75.15 -56.15 -73.45 -56.15L-71.85 -56.25L-71.65 -57.8L-71.65 -58.55L-74.15 -58.8L-74.25 -58.85M-79.8,-36.4L-79.95 -37.55L-79.8 -38.85L-79.75 -39.35L-79.55 -41.6L-79.65 -44.3L-79.65 -48.5L-79.15 -55L-79 -60.45L-78.55 -67.25M-65.2,-73.8Q-64.65 -71.85 -58.75 -70.1Q-54.1 -68.75 -51.5 -68.55M-53,-47.75L-56.55 -48.5Q-57 -48.8 -57 -50.75L-56.75 -55.1Q-56.75 -56.6 -56.35 -57.2Q-55.9 -57.95 -54.55 -57.95L-52.2 -57.95M-67.05,-31.6Q-67.3 -30.25 -67.75 -29.7Q-64.5 -28.1 -57.05 -28.1M-75.7,-35.8L-70.9 -36.2L-69.45 -36.15L-67.75 -36L-67.6 -35.95Q-64.05 -43.55 -62.45 -48L-61.9 -49.35Q-59.45 -56.8 -59.7 -62M-67.6,-35.95Q-66.95 -35.5 -66.95 -33.55L-67.05 -31.9M-67.75,-29.7Q-67.95 -29.45 -68.2 -29.35L-68.7 -29.25L-68 -22.5Q-65.25 -21.4 -61.05 -21.4L-59.5 -21.45M-68.7,-29.25Q-70.4 -29.1 -75.9 -29.25M-68,-22.5L-68 -22.45L-67.65 -17.95L-67.3 -10.9M-85.1,33.5Q-84.5 21.25 -84.5 15.6L-84.85 8.65L-80.65 8.75L-79.45 8.75L-66.95 7.4L-55.05 5.15L-53.55 4.8Q-40.45 1.9 -33.85 -0.45L-33.7 -2.95M-33.25,-4.1Q-31.9 -3.4 -30.85 -3.4L-29.4 -3.65M-33.85,-0.45L-34.7 33.15L-27.75 33.2M-17.15,33.15L-16.6 33.25M-34.7,33.15L-64.35 33.35L-77.9 33.45L-85.1 33.5L-98.25 33.65L-104.35 33.7L-126.5 33.9L-128.55 33.9L-135.7 33.9L-147.5 33.85L-157.6 33.65M-157.6,33.9L-161.15 33.9L-161.15 38.5L-161.15 60.05M-84.25,3.3L-79.7 3.3L-79.35 3.3L-67.3 2.55M-66.95,7.4L-66.75 13.25Q-66.75 16.95 -65.4 26.15L-64.35 33.35M-37.7,71L-45.35 70.85Q-53.45 70.5 -75.25 71.35L-96.1 71.6L-119.4 71.7Q-123.8 71.6 -131.2 71.85L-131.75 72.1L-131.75 78.85Q-131.4 82.4 -131 89.35L-131 89.6L-130.7 96.5Q-130.7 99.8 -131.05 106.35L-131.65 114.75Q-132.3 122.8 -132.35 128.5L-66 128.55Q-66.05 118.05 -61.35 106.4M-84.85,8.65L-94.25 7.75M-128.55,33.9L-128.55 33.5L-128.55 24.65L-128.65 10.6Q-128.85 5.75 -129.4 0.95L-122.15 2.25L-122 2.25L-105.7 5.65L-105.05 5.8L-104.9 5.8L-102.5 6.3L-94.25 7.75M-102.5,6.3L-102.5 6.4Q-102.5 10.3 -104.35 33.7M-129.4,0.95L-129.95 -2.6M-135.7,33.9Q-134.9 27.2 -134.45 16.1L-133.9 0.8L-133.9 0.7Q-136.15 1.7 -138.1 1.95L-142.8 2L-152.45 1.35L-152.6 1.35L-154.05 1.25L-161.1 0.7L-161.15 33.5L-157.6 33.65M-161.15,33.9L-161.15 33.5M-131.2,71.85L-132.05 71.85L-147.25 72.1Q-156.65 72.1 -161.15 70.5L-161.15 90.95M-161.15,70.5L-161.15 60.05M-144.3,81.75Q-143.5 82.6 -141.85 82.6Q-139.75 82.6 -139 81.8Q-138.45 81.2 -138.45 79.7Q-138.45 78.6 -139.5 78L-141.55 77.6Q-143.05 77.6 -144.15 78.4L-144.9 79.2Q-145.15 80.7 -144.35 81.6L-144.3 81.75M-144.35,81.6L-145.15 81.3L-145.2 80.3L-144.9 79.2M-127.15,78L-127 78.8L-126.8 79.65L-126.05 80.9Q-125.05 81.8 -123.45 81.8Q-120.3 81.8 -120.3 79.45Q-120.3 78 -121.35 77.15Q-122.4 76.3 -124.2 76.3L-126.65 76.55Q-127.2 76.9 -127.15 78M-132.35,128.5L-161.2 128.45L-161.15 90.95M-161.1,0.7L-161.1 -2.85M-133.9,0.7L-133.75 -2.2M93.4,128.65L-66 128.55" />
</g>
</svg>
