<?xml version="1.0" encoding="utf-8"?>
<svg version="1.1" id="Layer_1"
xmlns="http://www.w3.org/2000/svg"
xmlns:xlink="http://www.w3.org/1999/xlink"
xmlns:author="http://www.sothink.com"
width="48px" height="112px"
xml:space="preserve">
<g id="72" transform="matrix(1, 0, 0, 1, 26.6, 129.5)">
<path style="fill:#BDBDBD;fill-opacity:1" d="M-17.4,-102.45L-17.4 -112.95L-4.2 -112.95L8.3 -112.95L8.95 -102.45L5 -102.45Q6.15 -102.55 7.2 -104Q8.3 -105.4 8.3 -107.35Q8.3 -109.25 7.2 -110.8Q6.15 -112.2 4.6 -112.2Q3.05 -112.2 1.9 -110.8Q0.8 -109.25 0.8 -107.35Q0.8 -105.4 1.9 -104Q3.05 -102.55 4.35 -102.45L-17.4 -102.45M-21.55,-66L-19.6 -85.35L10.5 -85.35L11.2 -85.35L11.65 -82.45Q7.8 -79.95 6.65 -79.95Q3.05 -79.8 0.6 -77.75Q-1.9 -75.45 -1.9 -72.15L-1.65 -65.75L-21.55 -66M1,-41.95L2.45 -26.7Q3.05 -22.65 4.25 -18.8L-26.1 -18.8L-23.75 -41.95L1 -41.95" />
<path style="fill:#FFCC00;fill-opacity:1" d="M4.35,-102.45Q3.05 -102.55 1.9 -104Q0.8 -105.4 0.8 -107.35Q0.8 -109.25 1.9 -110.8Q3.05 -112.2 4.6 -112.2Q6.15 -112.2 7.2 -110.8Q8.3 -109.25 8.3 -107.35Q8.3 -105.4 7.2 -104Q6.15 -102.55 5 -102.45L4.35 -102.45M5.3,-110Q3.7 -110.35 3.7 -108.6L4.05 -107.4Q4.65 -106.2 5.7 -106.2L6.8 -106.4L6.85 -107.6Q6.85 -109.65 5.3 -110" />
<path style="fill:#918F8F;fill-opacity:1" d="M5.5,-118.05L5.45 -116.9L5.45 -116.05Q5.65 -115.35 6.85 -115.35Q7.65 -115.35 7.85 -115.65L8 -116.7Q8 -117.55 7.6 -117.85L5.5 -118.05M4.85,-120.3Q1.45 -125.95 -0.85 -125.95L-1.95 -125.8L-2 -124.7Q-2 -123.55 -1 -121.9Q0.55 -119.35 3.45 -119.35L4.65 -119.55L4.85 -120.3M-7.1,-119.9Q-9.1 -123.15 -9.65 -127.3L-8.1 -127.9L-4.35 -129L-0.05 -127.9Q8.85 -124.55 13.5 -112.95L8.3 -112.95L-4.2 -112.95Q-4.9 -115.95 -7.1 -119.9" />
<path style="fill:#FFFFFF;fill-opacity:1" d="M-1.65,-65.75L-1.9 -72.15Q-1.9 -75.45 0.6 -77.75Q3.05 -79.8 6.65 -79.95Q7.8 -79.95 11.65 -82.45L13.9 -65.5L-1.65 -65.75M1,-41.95L17.2 -41.95L20.4 -18.8L4.25 -18.8Q3.05 -22.65 2.45 -26.7L1 -41.95" />
<path style="fill:#777575;fill-opacity:1" d="M-9.65,-127.3Q-9.1 -123.15 -7.1 -119.9Q-4.9 -115.95 -4.2 -112.95L-17.4 -112.95L-22.2 -112.95Q-19.3 -123.2 -9.65 -127.3" />
<path style="fill:#BD3434;fill-opacity:1" d="M-19.6,-85.35Q-24.55 -85.35 -24.55 -89.4L-24.55 -97.65Q-22.85 -96.55 -18.85 -96.3L-10.1 -96.55L-0.35 -96.15L6.95 -95.9Q8.85 -95.9 9.9 -93.65L12.05 -88.3Q12.6 -87 13.25 -85.95L11.2 -85.35L10.5 -85.35L-19.6 -85.35M-1.65,-65.75Q-1.45 -62.8 -1.05 -60.6Q-0.35 -56.45 0.75 -43.6L1 -41.95L-23.75 -41.95L-21.55 -66L-1.65 -65.75" />
<path style="fill:#D25151;fill-opacity:1" d="M12.05,-88.3L9.9 -93.65Q8.85 -95.9 6.95 -95.9L-0.35 -96.15L-10.1 -96.55L-18.85 -96.3Q-22.85 -96.55 -24.55 -97.65L-24.55 -98.4Q-24.55 -102.45 -19.6 -102.45L-17.4 -102.45L4.35 -102.45L5 -102.45L8.95 -102.45L10.5 -102.45Q15.25 -102.45 15.25 -98.4L15.25 -89.4Q15.25 -86.95 13.25 -85.95Q12.6 -87 12.05 -88.3M13.9,-65.5L17.2 -41.95L1 -41.95L0.75 -43.6Q-0.35 -56.45 -1.05 -60.6Q-1.45 -62.8 -1.65 -65.75L13.9 -65.5" />
<path style="fill:#F7F3F3;fill-opacity:1" d="M6.85,-107.6L6.8 -106.4L5.7 -106.2Q4.65 -106.2 4.05 -107.4L3.7 -108.6Q3.7 -110.35 5.3 -110Q6.85 -109.65 6.85 -107.6" />
<path style="fill:#D9D7D7;fill-opacity:1" d="M7.6,-117.85Q8 -117.55 8 -116.7L7.85 -115.65Q7.65 -115.35 6.85 -115.35Q5.65 -115.35 5.45 -116.05L5.45 -116.9L5.5 -118.05L7.6 -117.85M4.65,-119.55L3.45 -119.35Q0.55 -119.35 -1 -121.9Q-2 -123.55 -2 -124.7L-1.95 -125.8L-0.85 -125.95Q1.45 -125.95 4.85 -120.3L4.65 -119.55" />
<path style="fill:none;stroke-width:1;stroke-linecap:butt;stroke-linejoin:miter;stroke-miterlimit:3;stroke:#855611;stroke-opacity:1" d="M4.35,-102.45Q3.05 -102.55 1.9 -104Q0.8 -105.4 0.8 -107.35Q0.8 -109.25 1.9 -110.8Q3.05 -112.2 4.6 -112.2Q6.15 -112.2 7.2 -110.8Q8.3 -109.25 8.3 -107.35Q8.3 -105.4 7.2 -104Q6.15 -102.55 5 -102.45" />
<path style="fill:none;stroke-width:1;stroke-linecap:butt;stroke-linejoin:miter;stroke-miterlimit:3;stroke:#B82F2F;stroke-opacity:1" d="M-19.6,-85.35Q-24.55 -85.35 -24.55 -89.4L-24.55 -97.65L-24.55 -98.4Q-24.55 -102.45 -19.6 -102.45L-17.4 -102.45L4.35 -102.45L5 -102.45L8.95 -102.45L10.5 -102.45Q15.25 -102.45 15.25 -98.4L15.25 -89.4Q15.25 -86.95 13.25 -85.95L11.2 -85.35L10.5 -85.35L-19.6 -85.35M1,-41.95L-23.75 -41.95L-21.55 -66L-1.65 -65.75L13.9 -65.5L17.2 -41.95M1,-41.95L17.2 -41.95" />
<path style="fill:none;stroke-width:1;stroke-linecap:butt;stroke-linejoin:miter;stroke-miterlimit:3;stroke:#515151;stroke-opacity:1" d="M8.95,-102.45L8.3 -112.95L-4.2 -112.95L-17.4 -112.95L-17.4 -102.45M11.2,-85.35L11.65 -82.45L13.9 -65.5M17.2,-41.95L20.4 -18.8M-26.1,-18.8L-23.75 -41.95M-21.55,-66L-19.6 -85.35M-17.4,-112.95L-22.2 -112.95Q-19.3 -123.2 -9.65 -127.3L-8.1 -127.9L-4.35 -129L-0.05 -127.9Q8.85 -124.55 13.5 -112.95L8.3 -112.95" />
</g>
</svg>
