<?xml version="1.0" encoding="utf-8"?>
<svg version="1.1" id="Layer_1"
xmlns="http://www.w3.org/2000/svg"
xmlns:xlink="http://www.w3.org/1999/xlink"
xmlns:author="http://www.sothink.com"
width="90px" height="32px"
xml:space="preserve">
<g id="286" transform="matrix(1, 0, 0, 1, 44.65, 15.75)">
<path style="fill:#66CC00;fill-opacity:1" d="M3.75,-14.6L-2.65 -14.6Q-5 -14.6 -5 -12.25L-5 12.35Q-5 14.7 -2.65 14.7L3.75 14.7Q6.1 14.7 6.1 12.35L6.1 -12.25Q6.1 -14.6 3.75 -14.6M7.1,-12.25L7.1 12.35Q7.1 15.7 3.75 15.7L-2.65 15.7Q-6 15.7 -6 12.35L-6 -12.25Q-6 -15.6 -2.65 -15.6L3.75 -15.6Q7.1 -15.6 7.1 -12.25M13.6,-12.25L13.6 12.35Q13.6 14.7 15.95 14.7L22.35 14.7Q24.7 14.7 24.7 12.35L24.7 -12.25Q24.7 -14.6 22.35 -14.6L15.95 -14.6Q13.6 -14.6 13.6 -12.25M15.95,-15.6L22.35 -15.6Q25.7 -15.6 25.7 -12.25L25.7 12.35Q25.7 15.7 22.35 15.7L15.95 15.7Q12.6 15.7 12.6 12.35L12.6 -12.25Q12.6 -15.6 15.95 -15.6M32.6,-12.4L32.6 12.2Q32.6 14.55 34.95 14.55L41.35 14.55Q43.7 14.55 43.7 12.2L43.7 -12.4Q43.7 -14.75 41.35 -14.75L34.95 -14.75Q32.6 -14.75 32.6 -12.4M34.95,-15.75L41.35 -15.75Q44.7 -15.75 44.7 -12.4L44.7 12.2Q44.7 15.55 41.35 15.55L34.95 15.55Q31.6 15.55 31.6 12.2L31.6 -12.4Q31.6 -15.75 34.95 -15.75M-41.3,-15.6L-34.9 -15.6Q-31.55 -15.6 -31.55 -12.25L-31.55 12.35Q-31.55 15.7 -34.9 15.7L-41.3 15.7Q-44.65 15.7 -44.65 12.35L-44.65 -12.25Q-44.65 -15.6 -41.3 -15.6M-43.65,-12.25L-43.65 12.35Q-43.65 14.7 -41.3 14.7L-34.9 14.7Q-32.55 14.7 -32.55 12.35L-32.55 -12.25Q-32.55 -14.6 -34.9 -14.6L-41.3 -14.6Q-43.65 -14.6 -43.65 -12.25M-22.05,-15.75L-15.65 -15.75Q-12.3 -15.75 -12.3 -12.4L-12.3 12.2Q-12.3 15.55 -15.65 15.55L-22.05 15.55Q-25.4 15.55 -25.4 12.2L-25.4 -12.4Q-25.4 -15.75 -22.05 -15.75M-24.4,-12.4L-24.4 12.2Q-24.4 14.55 -22.05 14.55L-15.65 14.55Q-13.3 14.55 -13.3 12.2L-13.3 -12.4Q-13.3 -14.75 -15.65 -14.75L-22.05 -14.75Q-24.4 -14.75 -24.4 -12.4" />
<path style="fill:#FFFFFF;fill-opacity:1" d="M-41.3,-14.6L-34.9 -14.6Q-32.55 -14.6 -32.55 -12.25L-32.55 12.35Q-32.55 14.7 -34.9 14.7L-41.3 14.7Q-43.65 14.7 -43.65 12.35L-43.65 -12.25Q-43.65 -14.6 -41.3 -14.6" />
</g>
</svg>
