<?xml version="1.0" encoding="utf-8"?>
<svg version="1.1" id="Layer_1"
xmlns="http://www.w3.org/2000/svg"
xmlns:xlink="http://www.w3.org/1999/xlink"
xmlns:author="http://www.sothink.com"
width="118px" height="48px"
xml:space="preserve">
<g id="361" transform="matrix(1, 0, 0, 1, 58.8, 23.55)">
<path style="fill:#7CA1A1;fill-opacity:1" d="M9.65,-8.55L9.3 -10.05Q8.55 -11.4 6.55 -11.4Q5.2 -11.4 4.5 -9.45L3.75 -7.05Q2.4 -7.8 1.8 -9.2Q1.15 -10.85 0.6 -11.3Q-0.9 -12.25 -2.45 -11.55Q-4.05 -10.8 -4.05 -8.75L-1.85 -2.7Q0.3 3.15 0.3 6.65L-0.05 9Q-0.45 10.35 -0.45 11.35Q-0.45 12.2 -0.15 12.45Q1.15 13.35 6.25 13.35Q7.4 13.35 7.65 12.15L7.65 10.55L7.2 6.85Q6.75 4.7 6.75 2.6Q6.75 -1 8.2 -4.65L9.65 -8.55M52.95,17.6Q50.4 15.35 49.05 14.55Q47.9 13.85 45.9 12.9L43.6 11.9Q42.9 11.9 42 12.4Q41.1 12.9 39.9 12.9L30.4 11.4Q29.9 11.4 24.75 13.45L23.8 12.7L23.5 12.45L22.9 11.9Q21.05 10.05 20.4 7.7L20.45 6.55Q20.5 5.3 20 4.7L19.95 3.6Q20.1 2.35 20.6 1.15L21.3 -1.05Q21.3 -2.25 20.7 -2.3Q20.15 -2.35 19.45 -1.4Q17.55 1 17.55 5.05L17.65 8.35Q17.8 9.45 18.4 10.65L18.95 13.35Q19.35 14.45 19.9 15.35L14.9 17.25L6.15 17.9L-2.45 17.9L-9.4 17.75L-19.2 17.4L-28.35 16.9L-36.15 16.5L-39.2 16.8Q-50.7 16.8 -55.05 10.6L-57.8 5.45L-57.8 -17.5L-57.7 -18.55L-57.3 -18.55L-53.25 -19.15L-48.65 -19.8L-42.25 -19.4Q-33.95 -19.35 -29.75 -19.6L-23.95 -20L-13.9 -20.5L-6.65 -21.05L-1.1 -20.95L7.05 -20.85L14.8 -20.45L22.7 -20.1Q26.7 -19.75 30.35 -20.1L40.45 -20.5L50.4 -19.85Q53.9 -19.2 55.45 -10.65Q56.25 -6.25 56.25 -0.95L55.95 5.35Q55.6 10.3 55.6 11.65Q55.6 14.95 57.35 19.2L57.4 19.3Q54.85 18.9 52.95 17.6M17.4,15.15L17.7 14.25Q17.7 12.75 16.15 12.75Q14.55 12.75 14.55 14.4Q14.55 15.75 16 15.75Q16.95 15.75 17.4 15.15M-44,-10.2Q-46.9 -13.1 -47.75 -5.85Q-48.15 -2.2 -48 2.25L-47.75 8.5Q-47.25 13 -45.45 12.6L-40.05 12.6Q-38.15 12.55 -37.65 11.1L-37.65 4.65L-37.25 4.65Q-32.4 5.15 -31.75 -0.5L-31.5 5.25L-31.65 8.85Q-31.55 11 -30.15 12.3L-23.05 12.45Q-20.75 12.45 -19.7 10.95L-19.5 10.65Q-19.5 11.75 -18.6 12.3Q-17.05 13.35 -12.5 13.35L-10.05 13.05L-9.3 12.3L-8.95 12.7L-6.65 12.9L-1.75 12.35Q-1.2 12.05 -1.2 11.15L-2.4 6.3L-4.05 0.3Q-7.4 -10.85 -13.1 -10.5Q-15.5 -11.5 -16.75 -7.35Q-17.5 -4.65 -17.7 -0.45Q-18.1 3.6 -18.9 5.95L-19.45 9L-21.7 6.75Q-24.3 4.05 -24.6 1.95L-24.8 -1.7L-25.05 -5.4L-25.85 -9Q-26.4 -10.95 -28.65 -10.8Q-30.9 -10.65 -31.2 -8.85L-31.85 -4.8L-31.8 -4.05Q-32.15 -5.55 -33.15 -6.8Q-36 -10.4 -43.05 -10.4L-44 -10.2" />
<path style="fill:#638585;fill-opacity:1" d="M8.2,-4.65Q6.75 -1 6.75 2.6Q6.75 4.7 7.2 6.85L7.65 10.55L7.65 12.15Q7.4 13.35 6.25 13.35Q1.15 13.35 -0.15 12.45Q-0.45 12.2 -0.45 11.35Q-0.45 10.35 -0.05 9L0.3 6.65Q0.3 3.15 -1.85 -2.7L-4.05 -8.75Q-4.05 -10.8 -2.45 -11.55Q-0.9 -12.25 0.6 -11.3Q1.15 -10.85 1.8 -9.2Q2.4 -7.8 3.75 -7.05L4.5 -9.45Q5.2 -11.4 6.55 -11.4Q8.55 -11.4 9.3 -10.05L9.65 -8.55L8.2 -4.65M-57.8,5.45L-55.05 10.6Q-50.7 16.8 -39.2 16.8L-36.15 16.5L-28.35 16.9L-19.2 17.4L-9.4 17.75L-2.45 17.9L6.15 17.9L14.9 17.25L19.9 15.35Q19.35 14.45 18.95 13.35L18.4 10.65Q17.8 9.45 17.65 8.35L17.55 5.05Q17.55 1 19.45 -1.4Q20.15 -2.35 20.7 -2.3Q21.3 -2.25 21.3 -1.05L20.6 1.15Q20.1 2.35 19.95 3.6L20 4.7Q20.5 5.3 20.45 6.55L20.4 7.7Q21.05 10.05 22.9 11.9L23.5 12.45L23.8 12.7L24.75 13.45Q29.9 11.4 30.4 11.4L39.9 12.9Q41.1 12.9 42 12.4Q42.9 11.9 43.6 11.9L45.9 12.9Q47.9 13.85 49.05 14.55Q50.4 15.35 52.95 17.6Q54.85 18.9 57.4 19.3L57.55 19.7Q56.6 22.55 52.8 22.55L-52.75 22.55Q-57.8 22.55 -57.8 17.5L-57.8 5.45M16,15.75Q14.55 15.75 14.55 14.4Q14.55 12.75 16.15 12.75Q17.7 12.75 17.7 14.25L17.4 15.15Q16.95 15.75 16 15.75M-43.05,-10.4Q-36 -10.4 -33.15 -6.8Q-32.15 -5.55 -31.8 -4.05L-31.85 -4.8L-31.2 -8.85Q-30.9 -10.65 -28.65 -10.8Q-26.4 -10.95 -25.85 -9L-25.05 -5.4L-24.8 -1.7L-24.6 1.95Q-24.3 4.05 -21.7 6.75L-19.45 9L-18.9 5.95Q-18.1 3.6 -17.7 -0.45Q-17.5 -4.65 -16.75 -7.35Q-15.5 -11.5 -13.1 -10.5Q-7.4 -10.85 -4.05 0.3L-2.4 6.3L-1.2 11.15Q-1.2 12.05 -1.75 12.35L-6.65 12.9L-8.95 12.7L-9.3 12.3L-10.05 13.05L-12.5 13.35Q-17.05 13.35 -18.6 12.3Q-19.5 11.75 -19.5 10.65L-19.7 10.95Q-20.75 12.45 -23.05 12.45L-30.15 12.3Q-31.55 11 -31.65 8.85L-31.5 5.25L-31.75 -0.5Q-32.4 5.15 -37.25 4.65L-37.65 4.65L-37.65 11.1Q-38.15 12.55 -40.05 12.6L-45.45 12.6Q-47.25 13 -47.75 8.5L-48 2.25Q-48.15 -2.2 -47.75 -5.85Q-46.9 -13.1 -44 -10.2L-43.05 -10.4" />
<path style="fill:#99C9C9;fill-opacity:1" d="M-52.75,-22.55L52.8 -22.55Q57.85 -22.55 57.85 -17.5L57.85 17.5L57.65 19.35L57.55 19.7L57.4 19.3L57.35 19.2Q55.6 14.95 55.6 11.65Q55.6 10.3 55.95 5.35L56.25 -0.95Q56.25 -6.25 55.45 -10.65Q53.9 -19.2 50.4 -19.85L40.45 -20.5L30.35 -20.1Q26.7 -19.75 22.7 -20.1L14.8 -20.45L7.05 -20.85L-1.1 -20.95L-6.65 -21.05L-13.9 -20.5L-23.95 -20L-29.75 -19.6Q-33.95 -19.35 -42.25 -19.4L-48.65 -19.8L-53.25 -19.15L-57.3 -18.55L-57.7 -18.55Q-57.25 -22.55 -52.75 -22.55" />
<path style="fill:#435B5B;fill-opacity:1" d="M-57.8,17.5Q-57.8 22.55 -52.75 22.55L52.8 22.55Q56.6 22.55 57.55 19.7L57.65 19.35L57.85 17.5L57.85 -17.5Q57.85 -22.55 52.8 -22.55L-52.75 -22.55Q-57.25 -22.55 -57.7 -18.55L-57.8 -17.5L-57.8 5.45L-57.8 17.5M58.85,-17.5L58.85 17.5L58.65 19.45L58.15 20.95Q56.8 23.55 52.8 23.55L-52.75 23.55Q-58.8 23.55 -58.8 17.5L-58.8 -17.5L-58.7 -18.95Q-58 -23.55 -52.75 -23.55L52.8 -23.55Q58.85 -23.55 58.85 -17.5" />
<path style="fill:#EED9BA;fill-opacity:1" d="M45.4,-1.1L46.25 -0.25L46.6 0.2L45.4 -1.1" />
<path style="fill:#DB8F1E;fill-opacity:1" d="M32.65,7L32.65 6.45L33.05 6.65L32.65 7" />
<path style="fill:#CBE9E9;fill-opacity:1" d="M46.6,0.2Q47.05 0.9 46.3 1.6L39.85 8L34.35 13.35L32.7 13.4L32.65 7L33.05 6.65L32.65 6.45L32.45 -11.8L32.55 -11.9L34.25 -11.85L43.6 -2.8L44 -2.5L45.4 -1.1L46.6 0.2" />
<path style="fill:#638585;fill-opacity:1" d="M32.65,6.45L32.65 7L32.7 13.4L34.35 13.35L39.85 8L40.2 8Q43.85 8 49.25 5.2L52.05 3.65L52 5.65Q52.25 6.85 52.8 7.65Q51.5 10.7 48.95 13.25Q43.8 18.4 36.5 18.4Q29.2 18.4 24.05 13.25Q18.9 8.1 18.9 0.8Q18.9 -3.85 21 -7.65Q22.85 -6.4 24.35 -3.55Q27.15 1.75 28 2.6L29.95 4.45L30.05 -5.75L30 -5.8L30.05 -6.05L30 -8.15L30.15 -9.4Q30.5 -11.4 31.7 -11.4L32.05 -11.35L32.45 -11.8L32.65 6.45M29.4,1.4L28.9 1.5L28.15 1.1L28.1 0.7L28.15 0.2Q29.5 0.2 29.5 0.85L29.4 1.4" />
<path style="fill:#7CA1A1;fill-opacity:1" d="M52.05,3.65L49.25 5.2Q43.85 8 40.2 8L39.85 8L46.3 1.6Q47.05 0.9 46.6 0.2L46.25 -0.25L45.4 -1.1L44 -2.5L43.6 -2.8L34.25 -11.85L32.55 -11.9L32.45 -11.8L32.05 -11.35L31.7 -11.4Q30.5 -11.4 30.15 -9.4L30 -8.15L30.05 -6.05L30 -5.8L30.05 -5.75L29.95 4.45L28 2.6Q27.15 1.75 24.35 -3.55Q22.85 -6.4 21 -7.65L23.3 -10.8L23.5 -10.5Q24.1 -9.6 24.9 -9.6Q25.35 -9.6 27.7 -12.1Q30 -14.65 36.1 -14.6Q42.15 -14.55 45.65 -10.35Q49.1 -6.15 50.6 -3.45Q51.95 -0.85 52 1L52.05 3.65M29.5,0.85Q29.5 0.2 28.15 0.2L28.1 0.7L28.15 1.1L28.9 1.5L29.4 1.4L29.5 0.85" />
<path style="fill:#99C9C9;fill-opacity:1" d="M24.05,-11.65Q29.2 -16.8 36.5 -16.8Q43.8 -16.8 48.95 -11.65Q54.1 -6.5 54.1 0.8L54.05 2.25Q53.85 5.1 52.8 7.65Q52.25 6.85 52 5.65L52.05 3.65L52 1Q51.95 -0.85 50.6 -3.45Q49.1 -6.15 45.65 -10.35Q42.15 -14.55 36.1 -14.6Q30 -14.65 27.7 -12.1Q25.35 -9.6 24.9 -9.6Q24.1 -9.6 23.5 -10.5L23.3 -10.8L24.05 -11.65" />
<path style="fill:none;stroke-width:1;stroke-linecap:butt;stroke-linejoin:miter;stroke-miterlimit:3;stroke:#435B5B;stroke-opacity:1" d="M23.3,-10.8L21 -7.65Q18.9 -3.85 18.9 0.8Q18.9 8.1 24.05 13.25Q29.2 18.4 36.5 18.4Q43.8 18.4 48.95 13.25Q51.5 10.7 52.8 7.65Q53.85 5.1 54.05 2.25L54.1 0.8Q54.1 -6.5 48.95 -11.65Q43.8 -16.8 36.5 -16.8Q29.2 -16.8 24.05 -11.65L23.3 -10.8M39.85,8L34.35 13.35L32.7 13.4L32.65 7L32.65 6.45L32.45 -11.8L32.55 -11.9L34.25 -11.85L43.6 -2.8L44 -2.5L45.4 -1.1L46.25 -0.25L46.6 0.2Q47.05 0.9 46.3 1.6L39.85 8M46.6,0.2L45.4 -1.1" />
</g>
</svg>
