<?xml version="1.0" encoding="utf-8"?>
<svg version="1.1" id="Layer_1"
xmlns="http://www.w3.org/2000/svg"
xmlns:xlink="http://www.w3.org/1999/xlink"
xmlns:author="http://www.sothink.com"
width="116px" height="257px"
xml:space="preserve">
<g id="350" transform="matrix(1, 0, 0, 1, -29.9, -318.8)">
<path style="fill:#000000;fill-opacity:0.2" d="M62.35,553.45Q76 549.55 95.5 549.35Q115.1 549.2 128.7 552.85Q142.5 556.5 142.55 561.85Q142.6 567.2 128.85 570.95Q115.35 574.9 95.75 575.05Q76.25 575.25 62.5 571.55Q48.65 568.05 48.6 562.7Q48.55 557.35 62.35 553.45" />
<path style="fill:#FC850F;fill-opacity:1" d="M53.55,343.2L53.6 345.35L53.8 349.9L53.8 350.25L53.9 352.3L54.05 355.15L54.3 359.15L57.55 356.45L60.75 358.15L61.65 354.5L64.6 355.2L64.6 355.15L65 351.55L69.3 351.95L68.65 350.25L68.55 349.9L66.7 345.35L65 341.45L63.85 338.85Q58 325.9 55.6 326.55Q53.4 327.1 53.55 341.45L53.55 343.2M96.95,541.25Q95.65 546.55 93.85 549.65L92.4 548.5Q91.4 547.7 90.2 547.1Q89.4 546.9 88.2 546.1Q87.3 545.5 86.25 545.5L87.25 546.85L88.55 548.15L90.2 549.4L92.3 550.65L92.85 550.6L93.6 550.05L93.55 550.15Q89.55 556.45 82.95 560.1Q81.2 560.85 79.4 561.55L76.15 562.5Q73.5 563.95 68.05 564.05L54.1 563.3L53.75 563.2L53.55 563.15L49.1 562.2Q49.5 559.15 50.55 555.8Q52.6 549.15 55.85 547.85Q59.1 546.55 63.55 548.65Q65.75 549.65 67.3 550.95Q69.6 543.85 70.45 536.2Q71.35 527.95 70.6 519.05Q64.3 518.1 57.5 515.55Q51.45 513.25 45.55 504.1Q39.9 495.25 39.75 488.85Q39.65 483.3 42.35 476.5L44.7 471.55Q42.9 469.95 41.5 468Q35 458.95 36.9 448.75Q38 442.95 41.35 438.05Q44.3 433.85 49.05 429.45L53.25 425.9L50.7 423.55L50.55 423.4L50.5 423.35L48.6 421.05L47.55 419.45Q46.25 417 44.9 413.05L44.05 410.15L43.9 409.7L43.85 409.5L43.65 408.85L42.35 404.15L40.2 394.6L36 395.05L41.95 383.15L33.85 385.05L42.35 375.1L34.9 373.35L45.8 368.1L39.4 364.05L50.15 362.6L50 360.15L49.65 355.15L49.5 352.3L49.4 350.25L49.4 349.9L49.3 345.35L49.25 341.85L49.25 341.45Q49.25 321 53.7 320.3Q58.2 319.7 66.45 335.05L69.7 341.45L71.6 345.35L73.6 349.9L73.75 350.25L73.8 350.45L74.15 350.25L74.8 349.9Q75.95 349.15 77.35 348.45Q81.2 346.4 83.05 346.2Q84.65 346.1 86.35 347.75Q88.2 349.5 89.2 349.6L93.5 348.75Q96.7 347.7 97.35 347.7Q98.9 347.7 101.45 349.9L101.6 350.05L101.7 349.9L104.05 345.35L106.15 341.45L109.65 335.55Q118.45 321.3 122.55 322.65Q126.45 323.95 125.4 341.45L125.3 343.05L125.15 345.35L124.8 349.9L124.75 350.25L124.5 352.3L124.2 355.15L123.5 360.15L123.2 361.9L131.1 366.4L122.1 370.4L133.85 375.9L124.9 378.25L130.25 380.35L125.35 385.5L128.95 388.65L125.9 400.95L125.2 403.55L124.95 403.25L125 403L124.85 402.6L125.25 402.2Q124.8 401.75 123.55 401.4L123.5 401.35L119.85 400.15Q117.5 399.55 117.5 400.3Q117.5 400.75 119.35 401.4Q121.4 402.1 121.85 402.35L121.9 402.4Q124.15 403.35 124.85 403.8L125.1 403.8L123.95 407.95L123.75 407.7L123.45 407.55L123.5 407.5L123.85 407.1Q123.35 406.6 121.55 406.2L119.35 405.9L118.75 405.95L117.4 405.75L117.35 406.05Q117.35 406.25 118.7 406.9L120.5 407.55L120.6 407.75L122.95 408.7L123.45 408.7L123.55 408.4L123.45 408.1L123.55 408.1L123.85 408.15L123.65 408.85L123.45 409.5L123.45 409.6L121.65 409L120.9 408.95L118.15 408.25L114.35 407.6L114.25 407.7L114.1 407.9L116.35 409.2L118.45 410.05Q119 410.8 121.6 411.3L122.45 411.3L122.55 411.1L122.35 410.9L123 410.9L122.45 412.55L121.35 412.1L121 411.85L120.2 411.85L117.2 410.75Q114.7 409.95 113.45 410.25L113.35 410.55Q113.8 411.1 115.6 411.7L117.05 412.2L118.75 413.35L118.95 413.7L119.5 413.95L120.3 414.1L120.45 414.3L121.1 414.35L121.9 414.15L121.95 413.95L121.8 413.8L121.95 413.7L122 413.4L122.2 413.35L121.4 415.7L120.85 417L120.7 417.5Q120.45 417.2 119.75 417L119.05 416.9L118.75 416.7L116.65 416.05Q114.35 415.45 113.25 415.35L113.15 415.4L113 415.6Q113 416.05 115.05 416.95L117.9 417.8L117.95 417.8L118.45 418.05L119.05 418.45Q119.5 418.75 119.85 418.85L120.2 418.75L119.6 420.2L119.35 420.75L119.35 420.8L119.2 421.05L122.6 423.1Q126.75 425.7 130.3 428.55Q141.65 437.5 143.15 445Q144.35 451 142.4 456.2Q141.35 458.95 138.6 462.85L136.35 465.2L137.6 468.3Q140.95 473.2 141.7 476.15Q143.25 482.55 142.7 489Q142.2 494.45 140.25 499.15Q136.8 507.55 128.8 513.35Q124.8 516.3 121.45 517.5Q120.5 529.1 121.25 536.2Q122.1 543.85 124.4 550.95Q125.95 549.65 128.15 548.65Q132.6 546.55 135.85 547.85Q139.1 549.15 141.15 555.8Q142.2 559.15 142.6 562.2L138.15 563.15L137.95 563.2L137.6 563.3L123.65 564.05Q114.45 563.85 113.35 559.95Q112.25 556.1 112.7 537.05L113.35 519Q106.3 520.55 99.35 520.8L98.5 532L95.6 531.55L94.1 531.3Q92.95 531.25 92.5 531.65L92.6 531.9L94.15 532.5L96.1 533.1L97.6 533.05L98 532.6L98.45 532.35L97.2 540.15L96.95 540.05L95.55 539.65L91.35 538.95L91.1 539.1L91.35 539.55L91.7 539.65L91.95 540.05Q92.45 540.15 94.15 540.8L96.05 541.3L96.95 541.25M120.4,418L120.5 418L120.5 418.1L120.4 418M76.95,385.35Q78.55 387.4 81.05 388.45Q83.05 389.3 85.65 389.5Q90.55 389.85 94.7 388.45Q97.6 387.45 100.15 385.6Q105.05 381.95 105.4 377.55L105.4 376.8L105.4 376.5L105.3 375.5Q105.05 373.9 104.25 372.6Q103.05 370.85 100.75 369.65Q99.4 368.95 97.9 368.6L95.25 368.25L95.2 368.25L95.45 367.95Q96.15 367 96.4 365.65Q97 362.65 94.2 360.15L94 360Q91 357.45 88.1 359.55Q87.65 359.85 87.35 360.15Q86.4 361.05 85.8 362.2Q86.5 364.9 86.15 367.95L86.05 368.6L85.75 370.05Q83.85 371.05 82.1 372.6Q80.55 373.9 79.15 375.6L78.55 376.5L78.3 376.8L77.75 377.55L76.65 379.25L76.9 378.65L78.45 376.45Q79.55 374.8 80.4 373.9L81.45 372.7L82.85 371.5L83.5 370.9Q83.65 370.7 83.85 370.65L84.25 370.45L85.4 369.35Q86.05 369.3 86.05 366.85L86 365.35L85.7 363.85L85.6 363.8L85.4 362.2L84.85 360.55L83.65 359.05L82.7 358.3Q81.95 357.8 81.25 357.8L78.55 358L78.45 358.05L77.05 358.05Q76 358.1 74.65 359.1L72.9 360.65L72.65 361.4L72.4 362.55L72.05 363.75L71.55 366.1L71 369.05L70.95 372.25L71.15 373.65Q71.15 374.75 71.9 376.4L72.6 377.75L73.25 379.15Q73.5 380 73.9 380.5Q74.35 381.35 74.95 381.85L75.3 381.85L75.4 381.7L76.95 385.35M120.55,341.45Q121.7 330.4 120 329.7Q118.05 328.85 111.95 339.95L111.15 341.45L109.15 345.35L106.9 349.9L106.65 350.25L106.2 351.25L109.7 353.7L113.55 352.8L113.15 357.25L116.35 355.35L117.85 360.05L118.75 355.15L119.15 352.3L119.45 350.25L119.5 349.9L120.1 345.4L120.1 345.35L120.55 341.45M129.8,447.1Q131.65 439.45 123.1 432.3Q123.35 441.95 127.5 450.9Q129.25 449.35 129.8 447.1M62,410.45Q62 411.5 63.25 413.5L64.2 415.1L64.95 415.85L65.7 416.35L65.85 416.6Q66.65 417.25 68.85 417.45L69.5 417.55L70.35 417.6L72.45 417.1L72.6 416.85L72.5 416.65L69.7 416.15L68.15 415.8L68.15 415.7L68.1 415.6Q66.95 415.2 66.2 414.5L64.8 413L63.35 411.45L62.8 410.7Q62.45 410.15 62.1 410.2L62.05 410.25L62 410.45M52.35,406.7Q50.9 406.75 50.05 407.15L48.45 407.9Q46.55 408.55 45.65 409.5L45.65 409.7L44.9 410.05Q44.55 410.3 44.55 410.65L44.6 410.9L44.85 410.95Q44.75 411.35 45.2 411.35Q45.65 411.35 46.55 410.55L46.6 410.55L49.6 408.95L52.6 406.95L52.35 406.7M46.35,399.6L44.35 400.3L43.25 400.8L42.4 401.5L42.45 401.65L42.65 401.7Q42.3 402 42.3 402.15L42.4 402.35L42.35 402.55L42.45 403L42.7 403.05L43.55 402.6L43.85 402.6L45.75 401.55Q47.1 400.75 47.7 400.5L50.75 398.7L50.5 398.45Q47.9 398.8 46.35 399.6M44.55,404.75Q43.5 405.3 43.5 406.1L43.35 406.65L43.45 406.9L43.85 407.15L44.35 407.2L45.75 406.1L46.4 405.5Q49.35 403.75 49.35 403.15L49.25 402.85L47.85 403.25L46.6 403.75Q45.9 403.9 45.35 404.35L45.25 404.45L44.55 404.75M46.25,413.7L47.3 412.95Q48.2 412.7 50.3 411.25L52.15 410.3Q53.35 409.65 53.35 409.2L53.25 408.95L51.4 409.35L50.9 409.6Q49 410.1 47.55 410.9Q46.3 411.6 45.8 412.35Q45.1 412.85 45.1 413.1L45.2 413.3L45.6 413.35Q45.85 413.7 46.25 413.7M47.5,413.85L46.9 414.15Q46.1 414.55 46.1 414.85L46.2 415.05L46.5 415.15L46.3 415.4Q46.3 415.75 46.45 415.9L46.75 415.9L47.9 415.15L48.05 415L50.9 413.4Q54 411.5 54 411.05L53.9 410.75Q52.45 411 50.65 412L47.55 413.75L47.5 413.85M50.2,419.85L49.6 420.35L49.55 420.8L49.6 421.4L49.95 421.4L50.4 421.3L50.45 421.4L50.95 421.45Q55.85 417.8 55.85 417.15L55.6 416.85L53.9 417.45L52.45 418.2Q51.9 418.7 51.3 419.15L51.2 419.25L50.9 419.3L50.5 419.65L50.45 419.65L50.2 419.85M47.45,443Q46.95 446.6 47.85 449.3Q48.6 451.5 50.35 453.55Q53.9 445.2 53.7 434.45Q47.8 440.35 47.45 443M79.15,543.8Q88.55 536.25 92.35 520.8Q85.6 520.5 78.35 518.8L79 537.05L79.15 543.8M98.75,525.35L98.5 525.1L94.35 525.1Q93.75 525.1 93.6 525.55L94.35 525.9L94.45 526.05L98.45 526.2L98.6 525.9L98.5 525.65L98.75 525.35M83.1,550.9L83.1 551.55L84.55 553.95Q85.5 555.4 86.6 556.4L86.95 556.45L87.1 556.2L86.75 555.65L87.45 556.15L87.95 556.15L88 556.1L88.1 555.9L86 553.4L83.7 550.9L83.1 550.9" />
<path style="fill:#E66006;fill-opacity:1" d="M53.55,341.45Q53.4 327.1 55.6 326.55Q58 325.9 63.85 338.85L65 341.45L66.7 345.35L68.55 349.9L68.65 350.25L69.3 351.95L65 351.55L64.6 355.15L64.6 355.2L61.65 354.5L60.75 358.15L57.55 356.45L54.3 359.15L54.05 355.15L53.9 352.3L53.8 350.25L53.8 349.9L53.6 345.35L53.55 343.2L53.55 341.45M120.1,345.35L120.1 345.4L119.5 349.9L119.45 350.25L119.15 352.3L118.75 355.15L117.85 360.05L116.35 355.35L113.15 357.25L113.55 352.8L109.7 353.7L106.2 351.25L106.65 350.25L106.9 349.9L109.15 345.35L111.15 341.45L111.95 339.95Q118.05 328.85 120 329.7Q121.7 330.4 120.55 341.45L120.1 345.35" />
<path style="fill:#FF6D6B;fill-opacity:1" d="M95.2,368.25L95.25 368.25L97.9 368.6Q99.4 368.95 100.75 369.65Q103.05 370.85 104.25 372.6Q105.05 373.9 105.3 375.5L105.4 376.5L105.4 376.8L105.4 377.55Q105.05 381.95 100.15 385.6Q97.6 387.45 94.7 388.45Q90.55 389.85 85.65 389.5Q83.05 389.3 81.05 388.45Q78.55 387.4 76.95 385.35L75.4 381.7L75.7 381.1L76.1 380.3L76.65 379.25L77.75 377.55L78.3 376.8L78.55 376.5L79.15 375.6Q80.55 373.9 82.1 372.6Q83.85 371.05 85.75 370.05Q87.65 369 89.7 368.6L90.6 368.45L95.2 368.25" />
<path style="fill:#FFFFFF;fill-opacity:1" d="M76.1,380.3L75.7 381.1L75.4 381.7L75.3 381.85L74.95 381.85Q74.35 381.35 73.9 380.5Q73.5 380 73.25 379.15L72.6 377.75L71.9 376.4Q71.15 374.75 71.15 373.65L70.95 372.25L71 369.05L71.55 366.1L72.05 363.75L72.4 362.55L72.65 361.4L72.9 360.65L74.65 359.1Q76 358.1 77.05 358.05L78.45 358.05L78.55 358L81.25 357.8Q81.95 357.8 82.7 358.3L83.65 359.05L84.85 360.55L85.4 362.2L85.6 363.8L85.7 363.85L86 365.35L86.05 366.85Q86.05 369.3 85.4 369.35L84.25 370.45L83.85 370.65Q83.65 370.7 83.5 370.9L82.85 371.5L81.45 372.7L80.4 373.9Q79.55 374.8 78.45 376.45L76.9 378.65L76.65 379.25L76.1 380.3M90.6,368.45L89.7 368.6Q87.65 369 85.75 370.05L86.05 368.6L86.15 367.95Q86.5 364.9 85.8 362.2Q86.4 361.05 87.35 360.15Q87.65 359.85 88.1 359.55Q91 357.45 94 360L94.2 360.15Q97 362.65 96.4 365.65Q96.15 367 95.45 367.95L95.2 368.25L90.6 368.45M79.35,364.5Q78.9 364.85 78.55 365.45Q78.1 365.9 78.1 367.25Q78.1 369.55 79.85 370.6L80.7 370.6Q81.45 370.45 82 369.6L82.45 368.25Q82.45 365.35 80.9 364.65Q80.2 363.8 79.35 364.5M90.45,367.7Q91.35 367.7 91.6 366.9L91.7 365.75Q91.7 363.85 90.2 363.65Q88.7 363.45 88.7 365.7L88.8 366.8Q89.15 367.7 90.45 367.7" />
<path style="fill:#582903;fill-opacity:1" d="M124.85,403.8Q124.15 403.35 121.9 402.4L121.85 402.35Q121.4 402.1 119.35 401.4Q117.5 400.75 117.5 400.3Q117.5 399.55 119.85 400.15L123.5 401.35L123.55 401.4Q124.8 401.75 125.25 402.2L124.85 402.6L125 403L124.95 403.25L125.2 403.55L125.3 403.7L125.2 403.8L125.1 403.8L124.85 403.8M123.55,408.1L123.45 408.1L123.55 408.4L123.45 408.7L122.95 408.7L120.6 407.75L120.5 407.55L118.7 406.9Q117.35 406.25 117.35 406.05L117.4 405.75L118.75 405.95L119.35 405.9L121.55 406.2Q123.35 406.6 123.85 407.1L123.5 407.5L123.45 407.55L123.75 407.7L123.95 407.95L123.95 408.15L123.85 408.15L123.55 408.1M122.35,410.9L122.55 411.1L122.45 411.3L121.6 411.3Q119 410.8 118.45 410.05L116.35 409.2L114.1 407.9L114.25 407.7L114.35 407.6L118.15 408.25L120.9 408.95L121.65 409L123.45 409.6L123.65 409.65L123.75 409.85L123.6 410.1L123.2 410.15L123.1 410.6L123.05 410.9L123 410.9L122.35 410.9M122,413.4L121.95 413.7L121.8 413.8L121.95 413.95L121.9 414.15L121.1 414.35L120.45 414.3L120.3 414.1L119.5 413.95L118.95 413.7L118.75 413.35L117.05 412.2L115.6 411.7Q113.8 411.1 113.35 410.55L113.45 410.25Q114.7 409.95 117.2 410.75L120.2 411.85L121 411.85L121.35 412.1L122.45 412.55L122.85 412.95L122.8 413.3L122.2 413.35L122 413.4M120.5,418.1L120.7 418.3L120.75 418.45L120.6 418.65L120.2 418.75L119.85 418.85Q119.5 418.75 119.05 418.45L118.45 418.05L117.95 417.8L117.9 417.8L115.05 416.95Q113 416.05 113 415.6L113.15 415.4L113.25 415.35Q114.35 415.45 116.65 416.05L118.75 416.7L119.05 416.9L119.75 417Q120.45 417.2 120.7 417.5L120.75 417.7L120.65 417.9L120.5 418L120.4 418L120.5 418.1M98,532.6L97.6 533.05L96.1 533.1L94.15 532.5L92.6 531.9L92.5 531.65Q92.95 531.25 94.1 531.3L95.6 531.55L98.5 532L98.6 532.2L98.45 532.35L98 532.6M96.05,541.3L94.15 540.8Q92.45 540.15 91.95 540.05L91.7 539.65L91.35 539.55L91.1 539.1L91.35 538.95L95.55 539.65L96.95 540.05L97.2 540.15L97.55 540.45L97.35 540.7L97.65 540.95L97.45 541.2L96.95 541.25L96.05 541.3M93.85,549.65L94.1 549.85L93.95 550.1L93.6 550.05L92.85 550.6L92.3 550.65L90.2 549.4L88.55 548.15L87.25 546.85L86.25 545.5Q87.3 545.5 88.2 546.1Q89.4 546.9 90.2 547.1Q91.4 547.7 92.4 548.5L93.85 549.65M80.9,364.65Q82.45 365.35 82.45 368.25L82 369.6Q81.45 370.45 80.7 370.6L79.85 370.6Q78.1 369.55 78.1 367.25Q78.1 365.9 78.55 365.45Q78.9 364.85 79.35 364.5Q80.2 363.8 80.9 364.65M88.8,366.8L88.7 365.7Q88.7 363.45 90.2 363.65Q91.7 363.85 91.7 365.75L91.6 366.9Q91.35 367.7 90.45 367.7Q89.15 367.7 88.8 366.8M62.05,410.25L62.1 410.2Q62.45 410.15 62.8 410.7L63.35 411.45L64.8 413L66.2 414.5Q66.95 415.2 68.1 415.6L68.15 415.7L68.15 415.8L69.7 416.15L72.5 416.65L72.6 416.85L72.45 417.1L70.35 417.6L69.5 417.55L68.85 417.45Q66.65 417.25 65.85 416.6L65.7 416.35L64.95 415.85L64.2 415.1L63.25 413.5Q62 411.5 62 410.45L62.05 410.25M52.6,406.95L49.6 408.95L46.6 410.55L46.55 410.55Q45.65 411.35 45.2 411.35Q44.75 411.35 44.85 410.95L44.6 410.9L44.55 410.65Q44.55 410.3 44.9 410.05L45.65 409.7L45.65 409.5Q46.55 408.55 48.45 407.9L50.05 407.15Q50.9 406.75 52.35 406.7L52.6 406.95M50.5,398.45L50.75 398.7L47.7 400.5Q47.1 400.75 45.75 401.55L43.85 402.6L43.55 402.6L42.7 403.05L42.45 403L42.35 402.55L42.4 402.35L42.3 402.15Q42.3 402 42.65 401.7L42.45 401.65L42.4 401.5L43.25 400.8L44.35 400.3L46.35 399.6Q47.9 398.8 50.5 398.45M45.25,404.45L45.35 404.35Q45.9 403.9 46.6 403.75L47.85 403.25L49.25 402.85L49.35 403.15Q49.35 403.75 46.4 405.5L45.75 406.1L44.35 407.2L43.85 407.15L43.45 406.9L43.35 406.65L43.5 406.1Q43.5 405.3 44.55 404.75L45.25 404.45M45.6,413.35L45.2 413.3L45.1 413.1Q45.1 412.85 45.8 412.35Q46.3 411.6 47.55 410.9Q49 410.1 50.9 409.6L51.4 409.35L53.25 408.95L53.35 409.2Q53.35 409.65 52.15 410.3L50.3 411.25Q48.2 412.7 47.3 412.95L46.25 413.7Q45.85 413.7 45.6 413.35M47.55,413.75L50.65 412Q52.45 411 53.9 410.75L54 411.05Q54 411.5 50.9 413.4L48.05 415L47.9 415.15L46.75 415.9L46.45 415.9Q46.3 415.75 46.3 415.4L46.5 415.15L46.2 415.05L46.1 414.85Q46.1 414.55 46.9 414.15L47.5 413.85L47.55 413.75M50.45,419.65L50.5 419.65L50.9 419.3L51.2 419.25L51.3 419.15Q51.9 418.7 52.45 418.2L53.9 417.45L55.6 416.85L55.85 417.15Q55.85 417.8 50.95 421.45L50.45 421.4L50.4 421.3L49.95 421.4L49.6 421.4L49.55 420.8L49.6 420.35L50.2 419.85L50.45 419.65M98.5,525.65L98.6 525.9L98.45 526.2L94.45 526.05L94.35 525.9L93.6 525.55Q93.75 525.1 94.35 525.1L98.5 525.1L98.75 525.35L98.5 525.65M83.7,550.9L86 553.4L88.1 555.9L88 556.1L87.95 556.15L87.45 556.15L86.75 555.65L87.1 556.2L86.95 556.45L86.6 556.4Q85.5 555.4 84.55 553.95L83.1 551.55L83.1 550.9L83.7 550.9" />
<path style="fill:#000000;fill-opacity:0.2" d="M54.1,320.55L54 320.6Q53.1 321.25 53.1 322.05L53.3 322.8L52.95 324.65L52.35 329.1L51.65 333.8Q51.35 335.7 51.35 337.85Q51.35 339.8 51.7 343.15L52.05 348.75L52.35 354.15L52.5 356.85L52.85 358.5L52.85 359.2L52.65 361.45Q52.65 362.25 53.55 363.05Q54.45 363.8 54.45 364.35Q54.45 365.05 52.3 366.85L50.1 368.7Q50.1 369.2 51.85 369.5Q53.6 369.8 53.6 370.5L52.85 372.65L52.05 375.15Q52.05 375.95 53.1 376.2Q54.15 376.5 54.15 376.95L52.4 379.65Q50.5 382.4 50 383.55L47.6 387.5Q45.95 389.8 45.95 390.15Q45.95 390.6 46.25 390.6L46.95 390.6Q48.5 389.8 49.35 390.85Q50.05 391.7 50.1 393.6Q50.2 396.35 50.75 397.2Q51.2 399.35 52 401.7Q53.15 405 55.4 409.7Q58.45 416 65.75 420.2Q73.2 424.55 81.65 424.55L90.9 423.85L99.35 422.45Q106 421 108.65 419.4Q115.25 415.65 120.5 409.85L124.9 404.65L123.95 407.95L123.95 408.15L123.85 408.15L123.65 408.85L123.45 409.5L123.45 409.6L123.65 409.65L123.75 409.85L123.6 410.1L123.2 410.15L123.1 410.6L123.05 410.9L123 410.9L122.45 412.55L122.85 412.95L122.8 413.3L122.2 413.35L121.4 415.7L120.85 417L120.7 417.5L120.75 417.7L120.65 417.9L120.5 418L120.5 418.1L120.7 418.3L120.75 418.45L120.6 418.65L120.2 418.75L119.6 420.2L119.35 420.75L119.35 420.8L119.2 421.05L120.4 421.75Q120.05 422.6 120.05 423.45L120.1 424.65L121.05 426L122.85 427.25L123.75 428.05L124.5 428.7Q126.65 429.8 128.2 431.25L130.95 433.95Q131.85 434.75 133.05 436.7L134.7 439.4Q135.7 440.9 135.9 442.1L136.5 444.85L136.35 447.15L136 448.3L135.45 449.6L134.15 451.95L132.15 454.2Q129.85 456 123.7 458Q117.1 460.1 112.65 460.1L107.2 459.5L104.7 458.85L104.45 458.7L103.4 458.5L102.95 458.4L102.75 458.45L102.75 458.6Q98.1 456.9 98.1 464.05Q98.1 464.9 98.55 466.95Q98.55 467.6 99 468.25L99.4 468.65L98.55 469.3Q98.05 469.85 97.1 471.15Q96.6 471.75 96.5 472.75L96.5 474.35Q96.5 478.55 99.9 480.3Q99.45 482.3 101.25 483.5L102.3 483.5Q104.8 482.95 105.4 480.2L105.55 478.75Q107 477.5 110 476.65L115.1 475.1L119.9 473.45L124.5 471.6Q126.85 470.45 135.05 466.8L136.65 465.9L137.6 468.3L138.55 469.7L135.75 470.75L132.6 471.9L128.4 473.2L124.55 474.3L120.45 475.5L117.3 476.85Q113.3 478.15 111.35 479.2Q108.5 480.75 108.15 482.55Q108 483.95 106.25 485.95Q103.5 489 99.2 489Q95.7 489 94 488Q92.65 486.8 91.7 486.45L90.6 486.45Q86.85 489 83.75 489Q81.95 489 79.6 487.5L77.1 485.4L75 483.45L73.95 481.25L58.8 479.85L56.8 479.45L54.05 479L53 478.6L50.4 478.2L49.2 478.2L49.1 478.25L48.9 478.2Q48.5 478.2 48.3 480.15L48.15 482.25Q48.15 485.7 49.75 488.95Q51.25 491.9 54.75 495.95Q57.9 499.7 64.15 502.45Q71.15 505.6 80.9 506.9L93.75 506.7Q112.1 505.45 121.95 501.9Q130 498.95 137.4 492.15Q140.35 489.35 142.85 485.55L142.7 489Q142.2 494.45 140.25 499.15Q136.8 507.55 128.8 513.35Q124.8 516.3 121.45 517.5L121.45 517.85Q120 518 119.25 518.4Q118.5 518.8 118.05 519.75Q117.2 521.35 116.85 522.65Q116.3 524.85 116.3 528.55L116.55 537.05L116.55 547.1Q117.2 552.65 118.85 555.45Q121.35 559.65 126.65 559.65Q128.65 559.65 130.2 558.9L131.45 558.15L132.35 558.8Q133.45 559.4 134.85 559.4Q135.95 559.4 136.75 558.85L137.55 558.3L138.3 558.6L140.2 558.9L141.95 558.7L142.6 562.2L138.15 563.15L137.95 563.2L137.6 563.3L123.65 564.05Q114.45 563.85 113.35 559.95Q112.25 556.1 112.7 537.05L113.35 519Q106.3 520.55 99.35 520.8L99.2 523.15L97.35 523.65L96.1 523.8Q95.15 524.1 94.95 525L93.9 528.9L92.35 532.8L90.6 536.6L88.6 540.55L86.45 544.35L83.7 548.25L81.9 550.1L80.55 551.2Q80.25 551.45 80.25 552L80.2 554.6L79.5 557.9L78.85 561.35L78.8 561.75L76.15 562.5Q73.5 563.95 68.05 564.05L54.1 563.3L53.75 563.2L53.55 563.15L49.1 562.2Q49.4 559.9 50.05 557.5Q50.9 558.05 52.1 558.05L54.05 557.55L55 558.4Q56.15 559.2 57.15 559.2Q58.05 559.2 58.6 558.7L59.15 558.15L60.3 558.75L60.75 558.8L64.5 559.05L65.55 559.2Q67.7 559.2 69.45 558.1Q71.65 556.75 72.75 553.85L73.5 551L74.1 548L75.15 541.8L75.2 536.3Q75.15 529.8 74.9 526.55Q74.6 522.9 73.7 520.9Q72.35 517.75 69.85 518.95Q63.9 517.95 57.5 515.55Q51.45 513.25 45.55 504.1Q39.9 495.25 39.75 488.85Q39.65 483.3 42.35 476.5L44.7 471.55Q42.9 469.95 41.5 468Q35 458.95 36.9 448.75Q38 442.95 41.35 438.05Q44.3 433.85 49.05 429.45L53.25 425.9L50.7 423.55L50.55 423.4L50.5 423.35L48.6 421.05L47.55 419.45Q46.25 417 44.9 413.05L44.05 410.15L43.9 409.7L43.85 409.5L43.65 408.85L42.35 404.15L40.2 394.6L36 395.05L41.95 383.15L33.85 385.05L42.35 375.1L34.9 373.35L45.8 368.1L39.4 364.05L50.15 362.6L50 360.15L49.65 355.15L49.5 352.3L49.4 350.25L49.4 349.9L49.3 345.35L49.25 341.85L49.25 341.45Q49.25 321 53.7 320.3L54.6 320.35L54.4 320.4L54.2 320.3L54.1 320.55M55.25,324.35L56.9 325.35Q59 326.8 60.45 328.95Q63.85 334.05 65.1 336.45L68.45 343.85L69.15 345.75L70.05 347.6L70.1 347.7L70.15 348.55Q69.95 352.05 67.8 352.05L65.7 351.95Q65.1 352.3 64.85 353.15L64.7 354.35L64.25 355.5L63.05 354.75L62.4 354.75Q61.45 355.25 61.15 356.45L60.75 358.5L59.2 357.5Q58.2 356.8 57 356.75Q56.6 356.95 55.9 358.15Q55.4 359 54.15 359.35L54.15 357.75L53.85 352.3L54.15 354.4Q54.45 355.8 55.35 355.8Q56.2 355.8 57.3 354L58.55 351.35L59.25 351.75Q60.3 351.75 60.8 349.4L61.25 346.55L61.55 347.45Q61.65 347.8 62.45 347.85L62.7 347.25L61.65 342.9L60.3 338.45L58.8 334.05L57.75 331.8L57.25 330.7Q56.7 329.95 55.2 329.7Q54.4 330.35 54.05 331.3L53.75 328.4Q53.75 327.2 54.05 326Q54.3 325.15 55.1 324.45L55.25 324.35M53.7,344.95L53.85 346.5L53.85 352L53.7 346.15L53.7 344.95M53.7,341.9L53.75 340.55L53.8 340.3L53.85 340.65L53.7 341.9M75.9,358Q75.3 358.6 74.6 359.9Q74.3 360.3 73.75 361.9L73.2 363.7L73.95 366.4Q75.3 369 78.6 369Q80.7 369 82.95 367.15Q85.5 365 85.5 362.1L85.3 360.5L85.8 360.9L87.3 359.6Q88.65 358.25 90.95 358.25Q92.4 358.25 93.55 359.3Q92.75 358.85 91.65 358.7Q87.6 358.1 87.6 362.1Q87.6 363.2 88.35 364.25Q89.5 365.85 91.95 365.85Q93.7 365.85 94.8 364.9Q95.7 364.1 95.7 363.35L95.7 363.15L96.15 365.5L95.7 367.05Q95.7 367.4 98.4 368.85L94.2 368.25Q87.7 367.9 82.35 372.2Q77.75 375.8 77.75 378.65Q77.75 380.45 78.9 381.5Q80.5 383.05 84.75 383.7L85.75 383.85Q90.65 383.85 95 382.1Q97.2 381.25 98.55 380.25Q101 378.45 101.7 377.35Q102.3 376.35 102.3 374.55Q102.3 372.1 101.3 370.75L100.85 370.25L103.55 372.35L104.7 375.25Q105.5 377.8 105.5 378.7Q105.5 383.25 101.3 389.1Q99.6 391.5 96.45 394.2Q94.5 395.85 90.65 396.85Q87.05 397.8 83.45 397.8Q78.35 397.8 75.5 393.45Q73.5 390.45 73.5 388.2L73.9 386.3Q74.3 384.95 74.3 383.6Q74.3 381.7 73.55 380L71.6 375.9Q70.8 374.1 67.85 372.3Q66.45 371.45 61.95 369.3L62.15 369.2Q64.75 367.5 67.2 364.5L71.25 359.6Q72.9 358.1 74.45 357.3Q77.35 355.8 81.8 356.55Q83.3 356.8 84.35 358.5L84.55 359Q83.05 356.85 79.6 356.85Q77.05 356.85 75.9 358M53.7,385.2Q54.15 383.2 55.5 382.1Q54.7 388.75 58.65 393.45Q62.3 397.9 64.1 399.2Q68.3 402.15 75.9 402.95L80.7 403.2L84 402.95L96.3 402.75Q102.75 402 109.15 399.35Q115 396.9 117.45 394.35L117.45 394.5L115.35 396.75L112.95 399L109.45 401.2L106.05 403.05Q103.55 404.6 97.3 406.3Q91.25 408 86.7 408.45L82.95 408.45L82.7 408.3L77.75 408.3Q73.5 407.65 71.05 406.7Q68.65 405.6 66.75 405Q64.15 404.1 61.85 402.6Q60.25 401.6 58.95 399.9Q56.1 396.5 54.85 394.1Q53.4 391.3 53.4 388.45Q53.4 386.4 53.7 385.2M122.3,322.6L122.5 322.65L122.25 322.7L122.3 322.6M122.55,331.8L122.9 338.65Q122.9 342.95 122.3 348.45L121.4 353L120.75 357.05L120.2 358.65Q119.5 360.25 118.05 360.05Q117.4 359.35 117.15 357.8Q116.95 356.35 116.1 355.65L115.35 355.65L113.25 357.15Q113.1 356.7 113.2 353.85Q113.25 352.65 110.9 352.65L110.05 352.9Q109.7 353.1 109.55 353.1Q108.6 353.1 107.4 352.15L105.6 350.75L105.3 350.8L106.25 349.6L106.25 349.7Q106.25 350.75 106.65 351L107 350.75L107 350.9L107.7 351.35L108.6 351.35L110.35 350.85Q111.45 350.35 112.2 349.5L112.15 349.8L112.65 349.95Q113.15 349.95 114.6 348.2L114.65 348.3L114.65 348.95L115.1 349.05Q116.05 348.6 117.6 342.4Q119.1 336.5 119.1 334.05L119.05 333.15L118.05 332.1L117.6 332.1L117.35 332.15L118.65 329.55L119.65 328.2L120.9 328.1L122.25 329.3L122.55 331.8M120.1,323.45L119.25 325.65L116.85 329Q113.5 333.65 112.5 335.85L108.85 342.65Q107.3 345.5 106.7 347.45L106 348.5Q104.15 351.4 102.9 351.15Q102.1 350.75 101.7 349.95L101.7 349.9L104.05 345.35L106.15 341.45L109.65 335.55Q116.35 324.7 120.35 322.9L120.1 323.45M85.2,443.9L85.55 444.15Q83.2 445.95 83.05 446.1Q82.5 446.7 82.5 447.75L82.9 450.55L83.25 453.75L83.2 455.05L82.35 456.75L81.75 456.75L81.25 456.45L81.3 456.3L81.15 455.9L80.9 455.85L80.7 455.95Q80.05 455.3 79.8 454.5L79.8 454.35L79.65 453.65L79.65 452.25Q79.65 451.05 79.2 451.05L79.15 451.05L79.1 449.75L79.2 447.5Q79.3 446.95 79.95 446.15L80.1 446L81.45 444.9Q82.75 444.2 85.2 443.9M86.3,443.55Q85.65 442.8 83.05 443.55Q80.75 444.2 79.95 445Q79.05 445.55 78.5 446.6Q77.9 447.7 77.9 448.9L78.35 451.8Q78.75 453.7 79.1 454.4L79.55 455.75L79.85 456.25L77.9 456.95L74.4 457.7L61.9 459.45L59.1 459.2Q54.8 458.2 52.35 455.3L50.55 453Q53.65 445.55 53.7 436.15L53.85 435.9Q54.9 434.25 54.9 433.15Q54.9 432.65 54.5 432.1Q53.95 431.3 52.85 431.4Q49.85 433.05 47.45 436.1Q46.05 437.85 43.8 441.15Q42.5 442.8 41.75 446Q41.1 448.7 41.1 451.2Q41.1 453.85 42.25 456.7Q43.55 459.8 45.8 462.2Q48.2 464.7 52.95 467.75Q54.4 468.75 57.35 469.85Q62.35 471.65 67.7 471.65Q70.3 471.65 71.15 470.85L72 469.25L73.8 467.9Q75.2 467 75.3 466.4L75.25 464.85Q75.25 463.8 75.6 463.25Q76 462.65 77.15 461.75Q78.5 460.7 79.2 460.7Q79.55 460.7 79.55 460.85Q80.5 461.7 80.85 463L81.3 465Q81.5 465.7 83.35 466.9Q85.5 468.3 87.35 468.3L90.1 467.75Q91.7 467.2 92.1 466.85Q93.2 465.85 93.2 464.2Q93.2 463 92.45 461.95Q93.55 462.15 94.05 463.15Q94.4 463.95 94.4 465.45L94.3 467.15Q94.05 467.95 93.2 468.65L91.4 470Q90.25 470.6 88.55 470.85L82.7 472.05Q82.05 472.4 81.6 473.3L81.15 474.9L80.85 476.7Q80.85 478.6 81.65 479.7Q81.4 479.9 81.3 480.25L81.3 481Q81.3 482.7 82.65 483.85Q84.1 485.15 86.45 485.15Q88.6 485.15 89.8 483.3Q90.6 482 90.6 480.85Q90.6 480.05 89.95 479.3L89.7 479.1L90.6 477.6Q91.65 475.4 91.65 473.4L91.6 472.35L90.9 471Q93.5 470.1 94.5 468.35Q95.1 467.2 95.1 465.5Q95.1 463.8 94.8 463Q94.15 461.4 92.1 461.1L91.95 461.3Q91.3 460.55 90.35 460.35L88.8 459.65Q90.55 458.05 91.95 450.6L91.6 448.7Q91.2 447.5 90.65 446.9L89.25 445.05L88.6 443.95Q88.3 443.45 86.45 443.4L86.3 443.55M99.45,439.55L98.25 440.4Q96.5 441.75 95.45 444.15Q94.55 446.25 94.55 448.1Q94.55 449.45 95.25 451Q96.45 453.65 99.05 453.65Q102.3 453.65 103.65 449.7L104.5 447.45L104.75 445.45L104.55 443.85L103.85 441.5Q103.8 441.15 103.15 440.55Q102.5 439.95 101.9 439.7L100.75 439.25Q100.3 439.1 99.45 439.55M129.8,447.1Q131.65 439.45 123.1 432.3Q123.35 441.95 127.5 450.9Q129.25 449.35 129.8 447.1M79.3,519Q78.8 518.5 78.2 518.85L78.4 519.45L79 537.05L79.15 543.8Q88.55 536.25 92.35 520.8Q86.05 520.5 79.35 519.05L79.3 519" />
<path style="fill:#FFFFFF;fill-opacity:0.4" d="M90.8,368.85L93.15 368.7L94.3 368.55Q98.1 368.4 99.85 369.75Q101.05 370.7 101.05 371.85Q101.05 373.45 98.2 375.55L95 377.25L92.7 378.1L91.4 378.4L89.6 378.8L85.75 378.8L85.65 378.7Q82.7 378.35 81.6 377.55Q80.8 376.95 80.8 375.9Q80.8 374.85 81.8 373.8L84 371.8Q85.05 370.75 87.15 370L89.05 369.2L90.8 368.85" />
<path style="fill:none;stroke-width:2;stroke-linecap:round;stroke-linejoin:miter;stroke-miterlimit:3;stroke:#AE4200;stroke-opacity:1" d="M53.55,341.45Q53.4 327.1 55.6 326.55Q58 325.9 63.85 338.85L65 341.45L66.7 345.35L68.55 349.9L68.65 350.25L69.3 351.95L65 351.55L64.6 355.15L64.6 355.2L61.65 354.5L60.75 358.15L57.55 356.45L54.3 359.15L54.05 355.15L53.9 352.3L53.8 350.25L53.8 349.9L53.6 345.35L53.55 343.2L53.55 341.45M111.15,341.45L111.95 339.95Q118.05 328.85 120 329.7Q121.7 330.4 120.55 341.45L120.1 345.35L120.1 345.4L119.5 349.9L119.45 350.25L119.15 352.3L118.75 355.15L117.85 360.05L116.35 355.35L113.15 357.25L113.55 352.8L109.7 353.7L106.2 351.25L106.65 350.25L106.9 349.9L109.15 345.35L111.15 341.45" />
<path style="fill:none;stroke-width:2;stroke-linecap:round;stroke-linejoin:miter;stroke-miterlimit:3;stroke:#582903;stroke-opacity:1" d="M56.45,381.2L55.65 382.7Q54.85 384.35 54.8 385.3Q54.7 386.7 55.5 389.25Q56.55 392.6 58.7 395.3L59.55 396.3Q68.25 405.75 88.4 403.7Q103.35 402.15 111.35 398.2Q112.95 397.4 114.25 396.5Q118.95 393.35 119.1 390Q119.15 388.75 117 386.8L114.8 385.1" />
<path style="fill:none;stroke-width:3;stroke-linecap:butt;stroke-linejoin:miter;stroke-miterlimit:3;stroke:#AE4200;stroke-opacity:1" d="M142.6,562.2L138.15 563.15" />
<path style="fill:none;stroke-width:3;stroke-linecap:round;stroke-linejoin:miter;stroke-miterlimit:3;stroke:#AE4200;stroke-opacity:1" d="M50.55,423.4L50.5 423.35L48.6 421.05L47.55 419.45Q46.25 417 44.9 413.05L44.05 410.15L43.9 409.7L43.85 409.5L43.65 408.85L42.35 404.15L40.2 394.6L36 395.05L41.95 383.15L33.85 385.05L42.35 375.1L34.9 373.35L45.8 368.1L39.4 364.05L50.15 362.6L50 360.15L49.65 355.15L49.5 352.3L49.4 350.25L49.4 349.9L49.3 345.35L49.25 341.85M123.1,432.3Q121.25 430.75 119.1 429.45L117.3 428.45M93.3,478.25Q96.7 481.25 100.7 479.65Q104.5 478.15 104.95 474.55L104.6 471.25M88.5,459.5L85.75 459.2M78.7,467.4L77.7 464.2L77.35 462.65M59.1,563.45L58.8 559.7Q58.7 555.65 59.8 554.4Q60.9 553.15 63.75 553.85Q65.15 554.2 66.35 554.8M138.15,563.15L137.75 558.75Q137.15 554.25 136 552.95Q134.85 551.65 133.5 551.2L132.4 550.95" />
<path style="fill:none;stroke-width:2;stroke-linecap:round;stroke-linejoin:miter;stroke-miterlimit:3;stroke:#AE4200;stroke-opacity:1" d="M95.2,368.25L95.25 368.25M127.5,450.9L127.55 451.2" />
<path style="fill:none;stroke-width:3;stroke-linecap:round;stroke-linejoin:miter;stroke-miterlimit:3;stroke:#AE4200;stroke-opacity:1" d="M49.25,341.85L49.25 341.45Q49.25 321 53.7 320.3Q58.2 319.7 66.45 335.05L69.7 341.45L71.6 345.35L73.6 349.9L73.75 350.25L73.8 350.45L74.15 350.25L74.8 349.9Q75.95 349.15 77.35 348.45Q81.2 346.4 83.05 346.2Q84.65 346.1 86.35 347.75Q88.2 349.5 89.2 349.6L93.5 348.75Q96.7 347.7 97.35 347.7Q98.9 347.7 101.45 349.9L101.6 350.05L101.7 349.9L104.05 345.35L106.15 341.45L109.65 335.55Q118.45 321.3 122.55 322.65Q126.45 323.95 125.4 341.45L125.3 343.05L125.15 345.35L124.8 349.9L124.75 350.25L124.5 352.3L124.2 355.15L123.5 360.15L123.2 361.9L131.1 366.4L122.1 370.4L133.85 375.9L124.9 378.25L130.25 380.35L125.35 385.5L128.95 388.65L125.9 400.95L123.65 408.85L123.45 409.5L123.4 409.7L123.2 410.15L121.4 415.7L120.85 417L120.5 418L120.45 418.2L120.4 418.25L119.6 420.2L119.35 420.75L119.35 420.8L119.2 421.05M141.15,555.8Q142.2 559.15 142.6 562.2M42.35,476.5L44.7 471.55M55.25,432.95L53.7 434.45M116.05,454.15Q124.05 453.85 127.5 450.9M101.75,457.75L104.2 460.3Q106.6 463.35 106.45 465.55Q106.3 467.95 104.4 469.05Q103.05 469.8 100.5 470.05L96.1 469.5L93.75 468.8M97.45,456.5L96.65 456.35Q95.7 456.3 94.8 456.7Q94 457.05 92.9 458.65L92 460.15M51.35,422.85L50.55 423.4M59.3,550.95L58.2 551.2Q56.85 551.65 55.7 552.95Q54.55 554.25 53.95 558.75L53.55 563.15M125.35,554.8Q126.55 554.2 127.95 553.85Q130.8 553.15 131.9 554.4Q133 555.65 132.9 559.7L132.6 563.45" />
<path style="fill:none;stroke-width:3;stroke-linecap:round;stroke-linejoin:miter;stroke-miterlimit:3;stroke:#AE4200;stroke-opacity:1" d="M119.2,421.05L122.6 423.1Q126.75 425.7 130.3 428.55Q141.65 437.5 143.15 445Q144.35 451 142.4 456.2Q141.35 458.95 138.6 462.85L136.35 465.2Q131.55 469.2 120.3 473.5L106.45 478.05L105.05 481.7Q103 485.4 99.7 485.6Q96.2 485.85 94.15 484.35Q92.7 483.25 92.3 481.7Q92.1 480.8 92.65 479.45L93.3 478.25M138.15,563.15L137.95 563.2L137.6 563.3L132.6 563.45L123.65 564.05Q114.45 563.85 113.35 559.95Q112.25 556.1 112.7 537.05L113.35 519Q106.3 520.55 99.35 520.8L98.45 532.3Q96.9 544.85 93.55 550.15Q89.55 556.45 82.95 560.1Q81.2 560.85 79.4 561.55L76.15 562.5Q73.5 563.95 68.05 564.05L59.1 563.45L54.1 563.3L53.75 563.2L53.55 563.15M44.7,471.55Q42.9 469.95 41.5 468Q35 458.95 36.9 448.75Q38 442.95 41.35 438.05Q44.3 433.85 49.05 429.45L53.25 425.9L50.7 423.55L50.55 423.4M53.7,434.45Q53.9 445.2 50.35 453.55Q51.95 455.4 54.4 457.15Q59.2 460.55 70.4 458.75L71 458.65Q76.25 457.75 80.65 456.3Q79.7 454.45 79 452.3Q77.55 447.95 78.65 446.45Q80.05 444.6 82.8 443.65L87.05 443.55Q88.75 444.6 90.15 447.05L90.2 447.15M127.5,450.9Q123.35 441.95 123.1 432.3M119.2,421.05Q115.95 427.55 97.15 433.3Q89.85 435.6 82.9 436.8L74.05 437.45Q69.4 436.5 61.25 431.55L56.75 428.6Q54.85 427.25 53.25 425.9M92,460.15Q93.45 460.6 93.95 461.05Q95.2 462.15 95.2 464.6Q95.25 467.15 93.75 468.8L93.55 469Q92.85 469.8 91.3 470.35L91.1 475.55L91.65 476.45L93.3 478.25M92,460.15L89.3 459.6L88.5 459.5Q90.65 454.3 91.3 451.6Q91.75 449.75 90.2 447.15M44.7,471.55Q51.05 477.15 62.3 478.05Q66.9 478.4 71 478.05L75.5 477.4L76.05 479.6Q76.85 482.05 77.95 483.35Q79.3 485 83.05 485.4Q86.9 485.85 89.25 484.4Q91.3 483.15 90.55 481.1L89.4 479.3L87.8 480.5Q85.7 481.4 80.95 479.15Q76 476.85 75.3 474.15Q74.7 471.8 76.65 469.35L78.7 467.4M89.4,479.3L90.45 477.6L91.1 475.55M91.3,470.35Q88.85 471.2 85.55 471.2Q82.3 471.2 80.85 470.45Q79.7 469.8 78.7 467.4M127.5,450.9Q129.25 449.35 129.8 447.1Q131.65 439.45 123.1 432.3M53.7,434.45Q47.8 440.35 47.45 443Q46.95 446.6 47.85 449.3Q48.6 451.5 50.35 453.55M79.15,543.8Q88.55 536.25 92.35 520.8Q85.6 520.5 78.35 518.8L79 537.05L79.15 543.8Q79.25 556.85 78.35 559.95Q77.9 561.55 76.15 562.5M99.35,520.8L92.35 520.8" />
<path style="fill:none;stroke-width:2;stroke-linecap:round;stroke-linejoin:miter;stroke-miterlimit:3;stroke:#582903;stroke-opacity:1" d="M71.4,375.6L71.05 372.6L70.95 369.9L71 368.6L71 367.95Q71.3 363.05 73.05 360.4L73.25 360.15Q75.35 357.2 79.25 357.15Q83.15 357.1 84.8 359.8L85 360.15L85.8 362.2Q86.4 361.05 87.35 360.15Q87.65 359.85 88.1 359.55Q91 357.45 94 360L94.2 360.15Q97 362.65 96.4 365.65Q96.15 367 95.45 367.95L95.2 368.25M85.75,370.05L86.05 368.6L86.15 367.95Q86.5 364.9 85.8 362.2" />
<path style="fill:none;stroke-width:2;stroke-linecap:round;stroke-linejoin:miter;stroke-miterlimit:3;stroke:#993127;stroke-opacity:1" d="M95.25,368.25L97.9 368.6Q99.4 368.95 100.75 369.65Q103.05 370.85 104.25 372.6Q105.05 373.9 105.3 375.5L105.4 376.5L105.4 376.8L105.4 377.55Q105.05 381.95 100.15 385.6Q97.6 387.45 94.7 388.45Q90.55 389.85 85.65 389.5Q83.05 389.3 81.05 388.45Q78.55 387.4 76.95 385.35L75.35 381.65L77.75 377.55L78.3 376.8L78.55 376.5L79.15 375.6Q80.55 373.9 82.1 372.6Q83.85 371.05 85.75 370.05" />
<path style="fill:none;stroke-width:2;stroke-linecap:round;stroke-linejoin:miter;stroke-miterlimit:3;stroke:#582903;stroke-opacity:1" d="M60.1,369.6Q65.3 369.55 68.8 372.6Q70.25 373.85 71.4 375.6M75.3,386.8Q74.4 381.3 72.55 377.55L72.1 376.8L71.95 376.5L71.4 375.6" />
<path style="fill:none;stroke-width:2;stroke-linecap:round;stroke-linejoin:miter;stroke-miterlimit:3;stroke:#993127;stroke-opacity:1" d="M85.75,370.05Q87.65 369 89.7 368.6L90.6 368.45L95.2 368.25" />
<path style="fill:none;stroke-width:3;stroke-linecap:butt;stroke-linejoin:miter;stroke-miterlimit:3;stroke:#AE4200;stroke-opacity:1" d="M136.35,465.2L137.6 468.3Q140.95 473.2 141.7 476.15Q143.25 482.55 142.7 489Q142.2 494.45 140.25 499.15Q136.8 507.55 128.8 513.35Q124.8 516.3 121.45 517.5Q120.5 529.1 121.25 536.2Q122.1 543.85 124.4 550.95Q125.95 549.65 128.15 548.65Q132.6 546.55 135.85 547.85Q139.1 549.15 141.15 555.8M53.55,563.15L49.1 562.2Q49.5 559.15 50.55 555.8Q52.6 549.15 55.85 547.85Q59.1 546.55 63.55 548.65Q65.75 549.65 67.3 550.95Q69.6 543.85 70.45 536.2Q71.35 527.95 70.6 519.05Q64.3 518.1 57.5 515.55Q51.45 513.25 45.55 504.1Q39.9 495.25 39.75 488.85Q39.65 483.3 42.35 476.5M90.2,447.15Q90.7 445.3 91.85 443.35L93.25 441.35Q95 439.3 97.2 438.9Q100.65 438.3 102.55 439.65Q103.4 440.25 104.1 441.35L105 443.2Q105.7 445 103.8 449.1L101.75 452.85L105.75 453.5L114.75 454.15L116.05 454.15" />
<path style="fill:#582903;fill-opacity:1" d="M80.7,344.7L82.85 344.1L83.05 344.15L83.1 344.3L82.8 344.8L82.55 345.25L82.55 345.35L85.3 344.75L85.4 344.95L84.55 345.65L87.2 346.6L88.15 347L88.7 347.6L88.55 347.85Q85 348.55 82.6 349.5L78.35 351.3Q77.9 351.45 76.7 352.15L74.8 353.1L73.9 353.7L71.55 355.05L71.25 355L71.2 354.55Q71.2 353.9 72.55 352Q73.45 350.3 75.35 348.15Q76.3 346.95 78.45 345.75Q79.3 345.25 80.7 344.7M93.5,345.5L95.75 346L95.75 345.85L95.5 345.55L95.3 345.15L95.35 345L95.45 344.95L97.2 345.45Q98.35 345.85 99 346.3Q100.7 347.3 101.5 348.2Q103 349.9 103.65 351.3Q104.75 352.8 104.75 353.3L104.75 353.7L104.55 353.7L102.65 352.6Q102.2 352.5 101.95 352.15L100.4 351.35L99.05 350.7L95.7 349.3Q93.8 348.55 90.9 347.95L90.85 347.75L91.3 347.3L92 346.95L94.1 346.2L93.45 345.65L93.5 345.5" />
</g>
</svg>
