<?xml version="1.0" encoding="utf-8"?>
<svg version="1.1" id="Layer_1"
xmlns="http://www.w3.org/2000/svg"
xmlns:xlink="http://www.w3.org/1999/xlink"
xmlns:author="http://www.sothink.com"
width="98px" height="37px"
xml:space="preserve">
<g id="56" transform="matrix(1, 0, 0, 1, 46.55, 26.9)">
<path style="fill:#C9DAF1;fill-opacity:1" d="M31.2,-25.25Q31.2 -25.8 31.35 -26.05Q31.6 -26.4 32.45 -26.4Q33.85 -26.4 34.85 -25.35Q35.85 -24.3 35.85 -22.7Q35.85 -20.4 34.55 -20.4Q33.7 -20.4 32.4 -22.45L31.7 -23.6L31.25 -24.7L31.25 -24.8L31.2 -25.25M27.4,-1.4Q25.6 -2.25 24.6 -2.25L19.7 -1.45L15.05 -0.65L12.3 -0.9L9.35 -1.2L3.9 -0.35L-0.55 0.45L-4.1 0L-6.35 0.25L-8.85 0.45L-14.35 0.8Q-16.65 0.8 -19.7 -1.55Q-22.8 -3.9 -24.6 -3.9L-27.25 -3.55L-28.7 -3.1Q-31.05 -3.9 -33.5 -3.9Q-37.8 -3.9 -40.7 -2.7Q-43.55 -1.5 -44.45 -1.5Q-45.35 -1.5 -45.7 -1.9L-46.05 -2.85L-46.05 -4.05Q-45.55 -6.05 -44.25 -7.15Q-43.15 -8.05 -41.1 -8.55L-36.75 -9.65L-33.2 -9.9Q-29.4 -9.9 -20.95 -6.75Q-12.55 -3.6 -9.15 -3.6Q-7.6 -3.6 -5.6 -4.25L-5.25 -4.35Q-4.9 -5.9 -3.95 -7.5Q-3.2 -8.95 -3.2 -10.7Q-3.2 -11.95 -4 -14.15Q-4.8 -16.35 -4.8 -17.25Q-4.8 -19.1 -3.6 -20.55Q-2.5 -21.9 -1.4 -21.9L-0.15 -21.6L1.05 -20.7L1.8 -23.25Q2.35 -24.3 3.9 -24.3Q5.15 -24.3 5.8 -22.25Q6.3 -20.75 6.3 -18.95Q6.3 -17.75 5.3 -15.9Q4.25 -14.05 4.25 -11.65Q4.25 -6.2 6.3 -4.8Q12.55 -5.5 19.8 -9.25Q28.75 -13.85 31 -13.85Q35.3 -13.85 39.05 -12.8Q44.55 -11.3 44.55 -8.25Q44.55 -6.55 42.15 -5.1Q40.15 -3.9 38.85 -3.9Q38.3 -3.9 36.4 -4.95L34.5 -6L34.15 -5.95L34.1 -5.45Q34.1 -4.9 34.7 -4.35Q35.3 -3.8 35.3 -3.05Q35.3 -1.55 32.05 -1.35L28.1 -1.35L27.7 -1.25L27.4 -1.4M49.85,-0.35Q50.9 0.55 50.9 1.85Q50.9 2.65 50.4 3.35Q49.85 4.25 48.95 4.25Q47.2 4.25 46.75 2.45L46.65 0.65L46.65 -0.3L46.7 -0.45L46.7 -1.1L47.65 -1.2Q48.9 -1.2 49.85 -0.35M-30.85,-22.3Q-30.3 -21.7 -30.3 -20.9Q-30.3 -20.2 -31.2 -18.3Q-32.25 -16.05 -33.3 -16.05Q-34.1 -16.05 -34.2 -16.4L-34.2 -17.9L-34.15 -18.6L-33.9 -20.05L-33.8 -20.3L-33.2 -21.95Q-32.75 -22.8 -31.85 -22.8Q-31.3 -22.8 -30.85 -22.3" />
<path style="fill:#A9BEDB;fill-opacity:1" d="M27.7,-1.25Q25.95 -0.85 23.75 0.3Q21 1.7 19.5 3.35L16.2 7.15Q15.2 8 12.5 8L-0.75 8.15L-9.7 8.5L-15.9 8.9L-16 8.9Q-18.05 3.45 -23.2 -0.25Q-25.9 -2.2 -28.7 -3.1L-27.25 -3.55L-24.6 -3.9Q-22.8 -3.9 -19.7 -1.55Q-16.65 0.8 -14.35 0.8L-8.85 0.45L-6.35 0.25L-4.1 0L-0.55 0.45L3.9 -0.35L9.35 -1.2L12.3 -0.9L15.05 -0.65L19.7 -1.45L24.6 -2.25Q25.6 -2.25 27.4 -1.4L27.7 -1.25" />
<path style="fill:none;stroke-width:1;stroke-linecap:butt;stroke-linejoin:miter;stroke-miterlimit:3;stroke:#5C8BBB;stroke-opacity:1" d="M31.25,-24.8L31.25 -24.7L31.7 -23.6L32.4 -22.45Q33.7 -20.4 34.55 -20.4Q35.85 -20.4 35.85 -22.7Q35.85 -24.3 34.85 -25.35Q33.85 -26.4 32.45 -26.4Q31.6 -26.4 31.35 -26.05Q31.2 -25.8 31.2 -25.25L31.25 -24.8M-28.7,-3.1Q-31.05 -3.9 -33.5 -3.9Q-37.8 -3.9 -40.7 -2.7Q-43.55 -1.5 -44.45 -1.5Q-45.35 -1.5 -45.7 -1.9L-46.05 -2.85L-46.05 -4.05Q-45.55 -6.05 -44.25 -7.15Q-43.15 -8.05 -41.1 -8.55L-36.75 -9.65L-33.2 -9.9Q-29.4 -9.9 -20.95 -6.75Q-12.55 -3.6 -9.15 -3.6Q-7.6 -3.6 -5.6 -4.25L-5.25 -4.35Q-4.9 -5.9 -3.95 -7.5Q-3.2 -8.95 -3.2 -10.7Q-3.2 -11.95 -4 -14.15Q-4.8 -16.35 -4.8 -17.25Q-4.8 -19.1 -3.6 -20.55Q-2.5 -21.9 -1.4 -21.9L-0.15 -21.6L1.05 -20.7L1.8 -23.25Q2.35 -24.3 3.9 -24.3Q5.15 -24.3 5.8 -22.25Q6.3 -20.75 6.3 -18.95Q6.3 -17.75 5.3 -15.9Q4.25 -14.05 4.25 -11.65Q4.25 -6.2 6.3 -4.8Q12.55 -5.5 19.8 -9.25Q28.75 -13.85 31 -13.85Q35.3 -13.85 39.05 -12.8Q44.55 -11.3 44.55 -8.25Q44.55 -6.55 42.15 -5.1Q40.15 -3.9 38.85 -3.9Q38.3 -3.9 36.4 -4.95L34.5 -6L34.15 -5.95L34.1 -5.45Q34.1 -4.9 34.7 -4.35Q35.3 -3.8 35.3 -3.05Q35.3 -1.55 32.05 -1.35L28.1 -1.35L27.7 -1.25Q25.95 -0.85 23.75 0.3Q21 1.7 19.5 3.35L16.2 7.15Q15.2 8 12.5 8L-0.75 8.15L-9.7 8.5L-15.9 8.9L-16 8.9Q-18.05 3.45 -23.2 -0.25Q-25.9 -2.2 -28.7 -3.1M-5.25,-4.35L-1.85 -4.95L3.5 -4.65L6.3 -4.8M47.65,-1.2L46.7 -1.1L46.7 -0.45L46.65 -0.3L46.65 0.65L46.75 2.45Q47.2 4.25 48.95 4.25Q49.85 4.25 50.4 3.35Q50.9 2.65 50.9 1.85Q50.9 0.55 49.85 -0.35Q48.9 -1.2 47.65 -1.2M-31.85,-22.8Q-32.75 -22.8 -33.2 -21.95L-33.8 -20.3L-33.9 -20.05L-34.15 -18.6L-34.2 -17.9L-34.2 -16.4Q-34.1 -16.05 -33.3 -16.05Q-32.25 -16.05 -31.2 -18.3Q-30.3 -20.2 -30.3 -20.9Q-30.3 -21.7 -30.85 -22.3Q-31.3 -22.8 -31.85 -22.8" />
</g>
</svg>
