<?xml version="1.0" encoding="utf-8"?>
<svg version="1.1" id="Layer_1"
xmlns="http://www.w3.org/2000/svg"
xmlns:xlink="http://www.w3.org/1999/xlink"
xmlns:author="http://www.sothink.com"
width="196px" height="24px"
xml:space="preserve">
<g id="359" transform="matrix(1, 0, 0, 1, 97.4, 9.9)">
<path style="fill:#ABD4D4;fill-opacity:1" d="M1.25,-7.95L1.25 11.55L0.85 12.55Q0.45 13 -0.15 13L-2.8 13Q-3.35 13 -3.7 12.6Q-4.1 12.15 -4.1 11.55L-4.1 -7.95Q-4.1 -8.6 -3.7 -9Q-3.35 -9.4 -2.8 -9.45L-0.15 -9.45Q0.45 -9.4 0.85 -9L1.25 -7.95M5.65,-9Q6.05 -9.4 6.6 -9.45L10.8 -9.45L11.85 -8.95L12.75 -7.95L21.3 6.6L21.3 -8Q21.35 -8.6 21.7 -9Q22.1 -9.4 22.65 -9.45L25.1 -9.45Q25.7 -9.4 26.05 -9L26.45 -7.95L26.45 11.55Q26.4 12.15 26.05 12.55Q25.7 13 25.1 13L20.4 13Q19.8 13 19.25 12.55L18.3 11.55L10.45 -1.9L10.45 11.55Q10.45 12.15 10.05 12.55Q9.7 13 9.15 13L6.6 13Q6.05 13 5.7 12.55Q5.3 12.15 5.3 11.55L5.3 -7.95Q5.3 -8.6 5.65 -9M39.9,-9.55L43.05 -9.55L46 -9.1Q47.45 -8.7 48.65 -7.95L50.5 -6.1Q51.2 -5.05 51.25 -3.8Q51.2 -3.05 50.95 -2.7L50.35 -2.15L49.8 -2.05L48.1 -2.05Q47.5 -2.05 47 -2.4Q46.55 -2.75 46.2 -3.5Q45.75 -4.35 44.85 -4.7L42.6 -5.1L40.05 -5.1Q37.95 -5.1 36.8 -4.5Q35.65 -3.85 35.2 -2.3Q34.7 -0.8 34.7 1.8Q34.7 4.4 35.15 5.9Q35.55 7.4 36.55 8.1Q37.55 8.7 39.25 8.7L42.15 8.7Q44.55 8.7 45.5 7.7Q46.45 6.7 46.45 5L43.25 5Q42.65 5 42.3 4.55Q41.9 4.15 41.9 3.55L41.9 2.3Q41.9 1.7 42.3 1.3Q42.65 0.85 43.25 0.85L50.35 0.85Q50.95 0.85 51.3 1.3Q51.7 1.7 51.7 2.3L51.7 4.05Q51.7 8.4 49.35 10.75Q47 13.1 42.3 13.15L39.1 13.15Q34.45 13.15 31.9 10.4Q29.4 7.6 29.35 1.8Q29.4 -4 32 -6.8Q34.7 -9.55 39.9 -9.55M76.55,-4.1Q76.9 -4.3 77.4 -3.9L85.5 2.4L86.1 3.1L86.35 4.1L86.35 4.85L86.1 5.8L85.5 6.55L77.4 12.85L76.55 13Q76.2 12.75 76.15 12.2L76.15 9.5Q76.2 8.8 76.55 8.3L77.4 7.4L81.2 4.45L77.4 1.5L76.55 0.6Q76.2 0.1 76.15 -0.6L76.15 -3.3Q76.2 -3.85 76.55 -4.1M-96.1,-9.45L-93.4 -9.45Q-92.8 -9.4 -92.45 -9Q-92.1 -8.6 -92.05 -7.95L-92.05 8.6L-79.7 8.6Q-79.15 8.6 -78.75 9Q-78.4 9.4 -78.35 10.05L-78.35 11.55Q-78.4 12.15 -78.75 12.6Q-79.15 13 -79.7 13L-96.1 13Q-96.65 13 -97 12.6Q-97.4 12.15 -97.4 11.55L-97.4 -7.95L-97.05 -9Q-96.65 -9.4 -96.1 -9.45M-66.65,-5.65Q-69.9 -5.65 -71.3 -3.75Q-72.75 -1.85 -72.75 1.8Q-72.75 5.4 -71.3 7.35Q-69.9 9.25 -66.65 9.25Q-63.4 9.25 -62 7.35Q-60.55 5.4 -60.55 1.8Q-60.55 -1.85 -62 -3.75Q-63.4 -5.65 -66.65 -5.65M-66.65,-9.9Q-63 -9.9 -60.45 -8.7Q-57.9 -7.5 -56.55 -4.95Q-55.25 -2.35 -55.2 1.8Q-55.25 5.95 -56.55 8.55Q-57.9 11.1 -60.45 12.3Q-63 13.5 -66.65 13.5Q-70.3 13.5 -72.85 12.3Q-75.4 11.1 -76.75 8.55Q-78.05 5.95 -78.1 1.8Q-78.05 -2.35 -76.75 -4.95Q-75.4 -7.5 -72.85 -8.7Q-70.3 -9.9 -66.65 -9.9M-43.9,-4.15Q-44.9 -3.35 -45.25 -1.85L-46.5 3.15L-37.5 3.15L-37.5 -5L-41.5 -5Q-42.9 -5 -43.9 -4.15M-41,-9.45L-33.35 -9.45Q-32.8 -9.4 -32.5 -9Q-32.15 -8.6 -32.1 -8L-32.1 11.55Q-32.15 12.15 -32.5 12.6Q-32.9 13 -33.45 13L-36.15 13Q-36.7 13 -37.1 12.6L-37.5 11.55L-37.5 7.6L-47.6 7.6L-48.55 11.55Q-48.7 12.15 -49.15 12.6Q-49.65 13 -50.2 13L-53 13Q-53.6 13 -53.85 12.6Q-54.15 12.15 -54 11.55L-50.4 -3.35Q-49.8 -5.8 -48.35 -7.15Q-46.95 -8.45 -45 -8.95L-41 -9.45M-26.75,-9.45L-18.8 -9.45Q-14.65 -9.45 -12.05 -8.25Q-9.45 -7 -8.2 -4.55Q-7 -2.05 -7 1.8Q-7 5.6 -8.2 8.1Q-9.45 10.6 -12.05 11.8Q-14.65 13 -18.8 13L-26.75 13Q-27.3 13 -27.65 12.6Q-28.05 12.15 -28.05 11.55L-28.05 -7.95Q-28.05 -8.6 -27.7 -9Q-27.3 -9.4 -26.75 -9.45M-18.95,-5L-22.7 -5L-22.7 8.6L-18.95 8.6Q-16.35 8.6 -14.9 7.9Q-13.5 7.2 -12.9 5.7Q-12.35 4.15 -12.35 1.8Q-12.35 -0.6 -12.9 -2.1Q-13.5 -3.6 -14.9 -4.35Q-16.35 -5.05 -18.95 -5" />
<path style="fill:#ABD4D4;fill-opacity:0.2" d="M64.3,-4.1Q64.65 -4.3 65.15 -3.9L73.25 2.4L73.85 3.1L74.1 4.1L74.1 4.85L73.85 5.8L73.25 6.55L65.15 12.85L64.3 13Q63.95 12.75 63.9 12.2L63.9 9.5Q63.95 8.8 64.3 8.3L65.15 7.4L68.95 4.45L65.15 1.5L64.3 0.6Q63.95 0.1 63.9 -0.6L63.9 -3.3Q63.95 -3.85 64.3 -4.1M88.75,-4.1L89.6 -3.9L97.7 2.4L98.3 3.1L98.55 4.1L98.55 4.85L98.3 5.8L97.7 6.55L89.6 12.85L88.75 13Q88.4 12.75 88.35 12.2L88.35 9.5Q88.4 8.8 88.75 8.3L89.6 7.4L93.4 4.45L89.6 1.5L88.75 0.6Q88.4 0.1 88.35 -0.6L88.35 -3.3Q88.4 -3.85 88.75 -4.1" />
</g>
</svg>
