<?xml version="1.0" encoding="utf-8"?>
<svg version="1.1" id="Layer_1"
xmlns="http://www.w3.org/2000/svg"
xmlns:xlink="http://www.w3.org/1999/xlink"
xmlns:author="http://www.sothink.com"
width="65px" height="45px"
xml:space="preserve">
<g id="178" transform="matrix(1, 0, 0, 1, 32.6, 22.6)">
<path style="fill:#8DAD4D;fill-opacity:1" d="M27.65,15.75L29.1 15.8L29.1 16.05L27.65 15.75" />
<path style="fill:#333333;fill-opacity:1" d="M-30.5,9.2L-29.95 5.35L-29.9 4.9L-29.8 4.45L-29.45 4.85L-29 5.35Q-28 6.35 -27.05 6.45Q-23.85 7.45 -21.75 7.45L-21.55 7.45Q-21.65 8.5 -21.9 8.9Q-22.55 9.85 -25.75 9.85L-28.15 9.55L-30.5 9.2M8.15,0.05L9.7 1.1L10.55 1.6L10.35 1.95Q9.8 2.65 8.75 2.65L6.85 2.45Q5.85 2.15 5.85 1.2L5.85 1.1L6 -0.25L5.9 -0.7L5.9 -1.45L8.15 0.05M20.25,2.2Q19.75 2.95 18.65 2.95L16.7 2.8Q15.75 2.45 15.75 1.55L15.8 1L15.9 0.05L15.8 -0.4L15.8 -1.15Q16.8 0.1 18.35 1L18.75 1.2L20.4 2.05L20.25 2.2M-0.55,2.4L-2.45 2.2Q-3.3 1.95 -3.4 1.25L-3.45 0.95L-3.25 -0.5L-3.4 -0.95L-3.4 -1.7Q-2.25 -0.35 -0.4 0.65L0.6 1.2L1.25 1.45L1.05 1.65Q0.55 2.4 -0.55 2.4" />
<path style="fill:#232222;fill-opacity:1" d="M-21.55,7.45L-21.75 7.45Q-23.85 7.45 -27.05 6.45Q-28 6.35 -29 5.35L-29.45 4.85L-29.8 4.45L-29.1 1.55L-28.8 0.7L-28.75 0.7L-24.25 0.35Q-21.9 0.35 -21.55 1.2L-21.5 1.45L-21.45 4.75L-21.45 5.3L-21.55 7.45M0.15,-1.5Q-0.3 -1.5 -0.3 -1.1Q-0.3 -0.7 0.15 -0.7Q0.55 -0.7 0.55 -1.1Q0.55 -1.5 0.15 -1.5M10.55,1.45L10.55 1.6L9.7 1.1L8.15 0.05L5.9 -1.45L5.9 -1.7L6 -2Q6.25 -2.7 6.65 -2.7Q10.8 -2.7 10.8 -1.25L10.65 1.1L10.55 1.45M20.45,1.8L20.4 2.05L18.75 1.2L18.35 1Q16.8 0.1 15.8 -1.15L15.8 -1.4L16 -1.95L16.55 -2.4L18.35 -2.3Q20.65 -2.05 20.65 -0.95L20.6 0.95L20.45 1.8M9.5,-1.15Q9.05 -1.15 9.05 -0.7Q9.05 -0.2 9.4 -0.2L9.9 -0.7Q9.9 -1.15 9.5 -1.15M19.75,-0.5L19.3 -0.95Q18.85 -0.95 18.85 -0.5Q18.85 -0.15 19.3 -0.15Q19.75 -0.15 19.75 -0.5M-3.4,-1.95L-3.15 -2.5L-2.6 -2.95Q1.5 -2.95 1.5 -1.5L1.3 1.2L1.25 1.45L0.6 1.2L-0.4 0.65Q-2.25 -0.35 -3.4 -1.7L-3.4 -1.95M-25.05,2.45Q-24.85 3.45 -24.4 3.45Q-23.95 3.45 -23.55 3.1L-23.15 2.45Q-23.15 2.05 -24.1 1.85Q-25.05 1.65 -25.05 2.45" />
<path style="fill:#ADADAD;fill-opacity:1" d="M0.55,-1.1Q0.55 -0.7 0.15 -0.7Q-0.3 -0.7 -0.3 -1.1Q-0.3 -1.5 0.15 -1.5Q0.55 -1.5 0.55 -1.1M9.9,-0.7L9.4 -0.2Q9.05 -0.2 9.05 -0.7Q9.05 -1.15 9.5 -1.15Q9.9 -1.15 9.9 -0.7M19.3,-0.15Q18.85 -0.15 18.85 -0.5Q18.85 -0.95 19.3 -0.95L19.75 -0.5Q19.75 -0.15 19.3 -0.15M-24.1,1.85Q-23.15 2.05 -23.15 2.45L-23.55 3.1Q-23.95 3.45 -24.4 3.45Q-24.85 3.45 -25.05 2.45Q-25.05 1.65 -24.1 1.85" />
<path style="fill:#EECA3B;fill-opacity:1" d="M16.1,-21Q15.3 -21.2 15.05 -20.75L15 -20.2L15 -19.7Q15.1 -19.2 15.85 -19.2Q16.65 -19.2 16.65 -20.25Q16.65 -20.75 16.1 -21M15.85,-18.2L13.95 -18.15L14.1 -20.45Q14.2 -21.55 14.85 -21.55Q17.25 -21.55 17.25 -20.15L17 -18L15.85 -18.2M29.05,5.05L29.05 0.85L29 0L29.85 0.85Q30.4 1.8 30.55 3.7L30.75 5.05L30.85 5.7L30.5 5.85L29.05 5.9L29.05 5.05M-28.15,9.55L-25.75 9.85Q-22.55 9.85 -21.9 8.9Q-21.65 8.5 -21.55 7.45L-21.45 5.3L27.4 5.05L27.2 6.95L26.95 9.95Q26.95 12.25 27.65 15.75L27.3 15.6L24.25 14.65Q23.8 14.65 21.95 15.85Q20.05 16.95 18.4 16.95Q14.85 16.95 13.85 15.25Q13.3 14.25 13.55 11.45Q13.65 8.7 12.95 7.65Q11.7 5.9 7.75 5.9L3.6 6L-1.15 5.75L-5.05 6.25L-8.3 6.75L-11.5 6.6Q-13.85 6.65 -15.8 7.55Q-16.95 8.15 -17.8 10.1Q-18.55 11.7 -18.8 13.4L-19.35 17.15Q-19.7 18.15 -20.3 18.65L-21.9 18.9L-24.5 18.35L-27.25 17.2L-29.25 16.65Q-30.5 16.2 -31.05 15.65L-31.95 14.55L-31.9 10.25L-31.65 9.4L-30.6 9.2L-30.5 9.2L-28.15 9.55M-28.8,0.7L-29.35 0.8Q-30.1 0.8 -30.1 -0.4Q-30.1 -2.7 -29.15 -3.9L-28.3 -3.3L-26.05 -2.9L-23.85 -3.15L-12.5 -2.9L-7.45 -3.4L-2.6 -3.75L1.8 -3.9L2.1 -3.7L6.55 -3.55L16.55 -3.25L17.9 -3.2L18.4 -3.15L22.1 -3L22.65 -2.95L24.9 -2.7Q26.5 -1.95 27.1 0.9L20.6 0.95L20.65 -0.95Q20.65 -2.05 18.35 -2.3L16.55 -2.4L16 -1.95L15.65 -2L15.25 -1.9L15.2 -1.85Q14.7 -1.6 14.35 -0.65Q14.05 0.15 14 1.05L10.65 1.1L10.8 -1.25Q10.8 -2.7 6.65 -2.7Q6.25 -2.7 6 -2L5.4 -1.75L5.25 -1.65L4.8 -1.1Q4.4 -0.25 4.4 0.8L4.4 1.15L1.3 1.2L1.5 -1.5Q1.5 -2.95 -2.6 -2.95L-3.15 -2.5L-3.5 -2.6L-3.95 -2.45L-4 -2.4Q-4.5 -2.15 -4.8 -1.2Q-5.2 -0.1 -5.2 1.15L-5.2 1.25L-21.5 1.45L-21.55 1.2Q-21.9 0.35 -24.25 0.35L-28.75 0.7L-28.8 0.7M-19.1,-11.9L-19.15 -12.55L-18.7 -15.7L-17.35 -15.45L-13.9 -15.6Q-12.05 -15.6 -11.8 -15.2Q-11.3 -14.65 -10.5 -12.05L-19.1 -11.9M-12.9,-17.4L-15.55 -17.6L-15.55 -19.75Q-15.75 -21.25 -15.25 -21.75L-13.8 -22.1Q-12.05 -22.1 -12.05 -20.55L-12.15 -17.6L-12.15 -17.25L-12.9 -17.4M10.95,-12.2L11.15 -16.15L13.1 -16.1L15.2 -16.35Q17.25 -16.35 17.7 -15.2L18.15 -12.9L18.35 -12.1L12.1 -12.2L10.95 -12.2M-13.25,-18.8Q-12.6 -18.8 -12.6 -19.95Q-12.6 -21 -13.5 -21.2Q-14.4 -21.4 -14.4 -20.25Q-14.05 -18.8 -13.25 -18.8" />
<path style="fill:#F7DA66;fill-opacity:1" d="M18.8,-12.1L18.35 -12.1L18.15 -12.9L17.7 -15.2Q17.25 -16.35 15.2 -16.35L13.1 -16.1L11.15 -16.15L11.1 -17.15Q11.3 -18.15 13.75 -18.15L13.95 -18.15L15.85 -18.2L17 -18L18.15 -17.6Q18.9 -17.2 19.2 -15.6L19.4 -12.4L19.3 -12.05L18.8 -12.1M30.75,5.05L30.55 3.7Q30.4 1.8 29.85 0.85L29 0L29.05 0.85L27.1 0.9Q26.5 -1.95 24.9 -2.7L22.65 -2.95L22.1 -3L18.4 -3.15L17.9 -3.2L16.55 -3.25L6.55 -3.55L2.1 -3.7L1.8 -3.9L-2.6 -3.75L-7.45 -3.4L-12.5 -2.9L-23.85 -3.15L-26.05 -2.9L-28.3 -3.3L-29.15 -3.9Q-28.3 -5 -26.75 -5.25L-22.15 -5.2L-22.1 -5.2L-19.7 -5.3L-16.6 -5.3L-13.3 -5.25L-10.1 -5.45L-8.55 -5.3L-7.2 -5.3L9.2 -6L10.35 -6L13.85 -5.9L20.9 -5.55L21.15 -5.55L22.25 -5.5L22.3 -5.5L22.35 -5.5L26.65 -5.3Q29 -4.55 29 -2.1L29 -1.45L30 -1.45L31.65 -0.95L31.75 0.65L31.75 0.85L31.65 3.9L31.55 4.65L31.45 5.05L30.85 5.7L30.75 5.05M28.7,19.7L27.85 16.7L27.65 15.75Q26.95 12.25 26.95 9.95L27.2 6.95L27.4 5.05L29.05 5.05L29.05 5.9L29.05 7.9L29.1 15.8L27.65 15.75L29.1 16.05M29.1,16.05L29.1 18.05Q29.1 19.1 28.7 19.7M-12.15,-17.25L-12.1 -17.25L-10.7 -17Q-9.1 -16.4 -9.55 -12.55L-9.55 -12.05L-10.5 -12.05Q-11.3 -14.65 -11.8 -15.2Q-12.05 -15.6 -13.9 -15.6L-17.35 -15.45L-18.7 -15.7L-18.5 -16.65Q-17.95 -17.6 -15.55 -17.6L-12.9 -17.4L-12.15 -17.25M4.4,1.15L4.4 0.8Q4.4 -0.25 4.8 -1.1L5.25 -1.65L5.4 -1.75L6 -2L5.9 -1.7L5.9 -1.45L5.9 -0.7L6 -0.25L5.85 1.1L4.4 1.15M14,1.05Q14.05 0.15 14.35 -0.65Q14.7 -1.6 15.2 -1.85L15.25 -1.9L15.65 -2L16 -1.95L15.8 -1.4L15.8 -1.15L15.8 -0.4L15.9 0.05L15.8 1L14 1.05M-5.2,1.25L-5.2 1.15Q-5.2 -0.1 -4.8 -1.2Q-4.5 -2.15 -4 -2.4L-3.95 -2.45L-3.5 -2.6L-3.15 -2.5L-3.4 -1.95L-3.4 -1.7L-3.4 -0.95L-3.25 -0.5L-3.45 0.95L-3.4 1.25L-5.2 1.25" />
<path style="fill:#B89A23;fill-opacity:1" d="M28.7,19.7Q27.9 20.65 25.9 20.5L14.2 20.9Q11.55 20.9 11.45 17.7Q11.9 13.4 11.75 11.5Q11.6 9.55 10.5 9.05Q9.4 8.55 8.15 8.5L2.8 8.3L-0.75 8.3L-10.4 8L-11 8.15Q-13.8 8.15 -14.75 9.3Q-15.8 10.6 -16 15L-16.1 17.95L-16.3 20.95Q-16.55 21.6 -19.95 21.6L-27.45 21.1Q-30.55 20.6 -31.1 20.2Q-32.05 19.5 -32.05 16.8L-31.95 14.55L-31.05 15.65Q-30.5 16.2 -29.25 16.65L-27.25 17.2L-24.5 18.35L-21.9 18.9L-20.3 18.65Q-19.7 18.15 -19.35 17.15L-18.8 13.4Q-18.55 11.7 -17.8 10.1Q-16.95 8.15 -15.8 7.55Q-13.85 6.65 -11.5 6.6L-8.3 6.75L-5.05 6.25L-1.15 5.75L3.6 6L7.75 5.9Q11.7 5.9 12.95 7.65Q13.65 8.7 13.55 11.45Q13.3 14.25 13.85 15.25Q14.85 16.95 18.4 16.95Q20.05 16.95 21.95 15.85Q23.8 14.65 24.25 14.65L27.3 15.6L27.65 15.75L27.85 16.7L28.7 19.7" />
<path style="fill:#F7EEC8;fill-opacity:1" d="M16.65,-20.25Q16.65 -19.2 15.85 -19.2Q15.1 -19.2 15 -19.7L15 -20.2L15.05 -20.75Q15.3 -21.2 16.1 -21Q16.65 -20.75 16.65 -20.25M-14.4,-20.25Q-14.4 -21.4 -13.5 -21.2Q-12.6 -21 -12.6 -19.95Q-12.6 -18.8 -13.25 -18.8Q-14.05 -18.8 -14.4 -20.25" />
<path style="fill:#FAAD39;fill-opacity:1" d="M-10.5,-12.05L-9.55 -12.05L-6.8 -11.9L1.4 -12.05L1.55 -12.05L10.95 -12.2L12.1 -12.2L18.35 -12.1L19.3 -12.05Q21 -11.9 21.65 -10.4Q22.1 -9.5 22.2 -7.35L22.25 -5.9L22.25 -5.7L22.3 -5.7L22.3 -5.5L22.25 -5.5L21.15 -5.55L20.9 -5.55L20.25 -7.3L20.15 -7.5Q19.45 -9.05 18 -9.65L16 -10.05L13.75 -10.05L13.7 -10.15L13.5 -10.05L13.65 -10Q12.55 -9.65 1.55 -10.25L-17.35 -9.75L-17.35 -9.65L-20.9 -9.75L-21.65 -9.65Q-21.3 -11.85 -19.9 -11.9L-19.1 -11.9L-10.5 -12.05M29.05,5.05L27.4 5.05L27.4 4.6L27.1 0.9L29.05 0.85L29.05 5.05M10.8,3.3Q10.8 3.75 9.6 4.1L7.65 4.35Q5.8 4.35 5.05 3.5Q4.45 2.85 4.4 1.15L5.85 1.1L5.85 1.2Q5.85 2.15 6.85 2.45L8.75 2.65Q9.8 2.65 10.35 1.95L10.8 3.3M15.8,1L15.75 1.55Q15.75 2.45 16.7 2.8L18.65 2.95Q19.75 2.95 20.25 2.2L20.5 3.5Q20.5 4.35 20.1 4.6L18.95 4.75L16.25 4.25L15.9 4.1Q13.95 3.2 13.95 1.7L14 1.05L15.8 1M-3.4,1.25Q-3.3 1.95 -2.45 2.2L-0.55 2.4Q0.55 2.4 1.05 1.65L1.35 2.95Q1.35 3.75 0.95 4L-0.2 4.2Q-1.75 4.2 -3.25 3.5Q-5.15 2.7 -5.2 1.25L-3.4 1.25" />
<path style="fill:#DB8606;fill-opacity:1" d="M-22.15,-5.2L-21.7 -9.25L-21.7 -9.5L-21.65 -9.65L-20.9 -9.75L-17.35 -9.65L-17.35 -9.75L1.55 -10.25Q12.55 -9.65 13.65 -10L13.5 -10.05L13.7 -10.15L13.75 -10.05L16 -10.05L18 -9.65Q19.45 -9.05 20.15 -7.5L20.25 -7.3L20.9 -5.55L13.85 -5.9L10.35 -6L9.2 -6L-7.2 -5.3L-8.55 -5.3L-10.1 -5.45L-13.3 -5.25L-16.6 -5.3L-19.7 -5.3L-22.1 -5.2L-22.15 -5.2M4.4,1.15Q4.45 2.85 5.05 3.5Q5.8 4.35 7.65 4.35L9.6 4.1Q10.8 3.75 10.8 3.3L10.35 1.95L10.55 1.6L10.55 1.45L10.65 1.1L14 1.05L13.95 1.7Q13.95 3.2 15.9 4.1L16.25 4.25L18.95 4.75L20.1 4.6Q20.5 4.35 20.5 3.5L20.25 2.2L20.4 2.05L20.45 1.8L20.6 0.95L27.1 0.9L27.4 4.6L27.4 5.05L-21.45 5.3L-21.45 4.75L-21.5 1.45L-5.2 1.25Q-5.15 2.7 -3.25 3.5Q-1.75 4.2 -0.2 4.2L0.95 4Q1.35 3.75 1.35 2.95L1.05 1.65L1.25 1.45L1.3 1.2L4.4 1.15" />
<path style="fill:none;stroke-width:1;stroke-linecap:butt;stroke-linejoin:miter;stroke-miterlimit:3;stroke:#5F4E09;stroke-opacity:1" d="M20.9,-5.55L21.15 -5.55L22.25 -5.5L22.3 -5.5L22.35 -5.5L26.65 -5.3Q29 -4.55 29 -2.1L29 -1.45L30 -1.45L31.65 -0.95L31.75 0.65L31.75 0.85L31.65 3.9L31.55 4.65L31.45 5.05L30.85 5.7L30.5 5.85L29.05 5.9L29.05 7.9L29.1 15.8L29.1 16.05L29.1 18.05Q29.1 19.1 28.7 19.7Q27.9 20.65 25.9 20.5L14.2 20.9Q11.55 20.9 11.45 17.7Q11.9 13.4 11.75 11.5Q11.6 9.55 10.5 9.05Q9.4 8.55 8.15 8.5L2.8 8.3L-0.75 8.3L-10.4 8L-11 8.15Q-13.8 8.15 -14.75 9.3Q-15.8 10.6 -16 15L-16.1 17.95L-16.3 20.95Q-16.55 21.6 -19.95 21.6L-27.45 21.1Q-30.55 20.6 -31.1 20.2Q-32.05 19.5 -32.05 16.8L-31.95 14.55L-31.9 10.25L-31.65 9.4L-30.6 9.2L-30.5 9.2L-29.95 5.35L-29.9 4.9L-29.8 4.45L-29.1 1.55L-28.8 0.7L-29.35 0.8Q-30.1 0.8 -30.1 -0.4Q-30.1 -2.7 -29.15 -3.9Q-28.3 -5 -26.75 -5.25L-22.15 -5.2L-21.7 -9.25L-21.7 -9.5L-21.65 -9.65Q-21.3 -11.85 -19.9 -11.9L-19.1 -11.9L-10.5 -12.05L-9.55 -12.05L-6.8 -11.9L1.4 -12.05L1.55 -12.05L10.95 -12.2L11.15 -16.15L11.1 -17.15Q11.3 -18.15 13.75 -18.15L13.95 -18.15L14.1 -20.45Q14.2 -21.55 14.85 -21.55Q17.25 -21.55 17.25 -20.15L17 -18L18.15 -17.6Q18.9 -17.2 19.2 -15.6L19.4 -12.4M18.35,-12.1L18.8 -12.1L19.3 -12.05Q21 -11.9 21.65 -10.4Q22.1 -9.5 22.2 -7.35L22.25 -5.9L22.3 -5.7M-19.15,-12.55L-18.7 -15.7L-18.5 -16.65Q-17.95 -17.6 -15.55 -17.6L-15.55 -19.75Q-15.75 -21.25 -15.25 -21.75L-13.8 -22.1Q-12.05 -22.1 -12.05 -20.55L-12.15 -17.6M-15.55,-17.6L-12.9 -17.4L-12.15 -17.25L-12.1 -17.25L-10.7 -17Q-9.1 -16.4 -9.55 -12.55M13.95,-18.15L15.85 -18.2L17 -18M18.35,-12.1L12.1 -12.2L10.95 -12.2M29.05,5.9L29.05 5.05L29.05 0.85L29 0L29 -1.45M5.85,1.1L6 -0.25L5.9 -0.7L5.9 -1.45L5.9 -1.7L6 -2Q6.25 -2.7 6.65 -2.7Q10.8 -2.7 10.8 -1.25L10.65 1.1M5.85,1.1L5.85 1.2Q5.85 2.15 6.85 2.45L8.75 2.65Q9.8 2.65 10.35 1.95L10.55 1.6L10.55 1.45L10.65 1.1M20.25,2.2Q19.75 2.95 18.65 2.95L16.7 2.8Q15.75 2.45 15.75 1.55L15.8 1L15.9 0.05L15.8 -0.4L15.8 -1.15L15.8 -1.4L16 -1.95L16.55 -2.4L18.35 -2.3Q20.65 -2.05 20.65 -0.95L20.6 0.95M20.9,-5.55L13.85 -5.9L10.35 -6L9.2 -6L-7.2 -5.3L-8.55 -5.3L-10.1 -5.45L-13.3 -5.25L-16.6 -5.3L-19.7 -5.3L-22.1 -5.2L-22.15 -5.2M20.25,2.2L20.4 2.05L20.45 1.8L20.6 0.95M22.25,-5.9L22.25 -5.7L22.3 -5.7M1.25,1.45L1.05 1.65M-21.5,1.45L-21.45 4.75L-21.45 5.3M1.25,1.45L1.3 1.2L1.5 -1.5Q1.5 -2.95 -2.6 -2.95L-3.15 -2.5L-3.4 -1.95L-3.4 -1.7L-3.4 -0.95L-3.25 -0.5L-3.45 0.95L-3.4 1.25Q-3.3 1.95 -2.45 2.2L-0.55 2.4Q0.55 2.4 1.05 1.65M-21.5,1.45L-21.55 1.2Q-21.9 0.35 -24.25 0.35L-28.75 0.7L-28.8 0.7M-21.55,7.45L-21.45 5.3M-21.55,7.45Q-21.65 8.5 -21.9 8.9Q-22.55 9.85 -25.75 9.85L-28.15 9.55L-30.5 9.2" />
</g>
</svg>
