<?xml version="1.0" encoding="utf-8"?>
<svg version="1.1" id="Layer_1"
xmlns="http://www.w3.org/2000/svg"
xmlns:xlink="http://www.w3.org/1999/xlink"
xmlns:author="http://www.sothink.com"
width="30px" height="28px"
xml:space="preserve">
<g id="100" transform="matrix(1, 0, 0, 1, 14.5, 13.5)">
<path style="fill:#BD3535;fill-opacity:1" d="M-5.05,2.85L-5.15 1.95Q-5.15 0.25 -4.05 -0.95L-3.6 -1.3Q-2.55 -2 -1.3 -2L0.5 -1.55L1.35 -0.95Q2.55 0.25 2.55 1.95L2.55 2.5Q2.4 3.6 1.7 4.4L1.35 4.7Q0.25 5.9 -1.3 5.9L-2.85 5.55L-4.05 4.7Q-4.85 3.95 -5.05 2.85" />
<path style="fill:#FFF7F7;fill-opacity:1" d="M10.85,8.55Q9.55 9.15 8.2 8.35Q6.3 7.25 6.9 6.4Q7.75 5.1 10.5 6.9Q12.2 7.85 10.85 8.55M-0.2,-8.05Q-0.2 -5.85 -1.3 -5.85Q-2.85 -5.85 -2.75 -9.1Q-2.75 -11.05 -1.4 -10.35Q-0.2 -9.6 -0.2 -8.05M-10.1,9.65Q-11.65 10.85 -11.9 9.3Q-11.75 7.85 -10.45 7Q-8.75 5.8 -8.15 6.65Q-7.45 7.95 -10.1 9.65" />
<path style="fill:#F0A998;fill-opacity:1" d="M-1.3,-2Q-2.55 -2 -3.6 -1.3L-5.15 -4.65L-5.25 -4.55L-5.75 -8.75Q-5.75 -10.55 -4.8 -11.75Q-3.85 -13 -2 -13Q0.85 -13 0.85 -5.65Q0.85 -2.6 0.5 -1.55L-1.3 -2M2.55,2.5Q3 2.2 3.4 2.05L4.25 2.05L7.95 2.45L8.1 2.3L11.8 4Q13.4 4.95 13.85 6.4Q14.35 7.95 13.4 9.55Q11.95 11.95 5.7 8.1Q3.05 6.4 2.3 5.55L1.7 4.4Q2.4 3.6 2.55 2.5M-4.05,4.7L-2.85 5.55L-3.1 6.05Q-3.6 7.35 -5.05 9.3L-5.05 9.4L-8.05 12.05Q-9.6 13.15 -11.05 13Q-12.75 12.8 -13.7 11.2Q-15.25 8.95 -9.1 4.85Q-6.5 3.15 -5.5 2.9L-5.05 2.85Q-4.85 3.95 -4.05 4.7M10.5,6.9Q7.75 5.1 6.9 6.4Q6.3 7.25 8.2 8.35Q9.55 9.15 10.85 8.55Q12.2 7.85 10.5 6.9M-1.4,-10.35Q-2.75 -11.05 -2.75 -9.1Q-2.85 -5.85 -1.3 -5.85Q-0.2 -5.85 -0.2 -8.05Q-0.2 -9.6 -1.4 -10.35M-8.15,6.65Q-8.75 5.8 -10.45 7Q-11.75 7.85 -11.9 9.3Q-11.65 10.85 -10.1 9.65Q-7.45 7.95 -8.15 6.65" />
<path style="fill:none;stroke-width:1;stroke-linecap:butt;stroke-linejoin:miter;stroke-miterlimit:3;stroke:#5B1818;stroke-opacity:1" d="M-3.6,-1.3L-5.15 -4.65L-5.25 -4.55L-5.75 -8.75Q-5.75 -10.55 -4.8 -11.75Q-3.85 -13 -2 -13Q0.85 -13 0.85 -5.65Q0.85 -2.6 0.5 -1.55L1.35 -0.95Q2.55 0.25 2.55 1.95L2.55 2.5Q3 2.2 3.4 2.05L4.25 2.05L7.95 2.45L8.1 2.3L11.8 4Q13.4 4.95 13.85 6.4Q14.35 7.95 13.4 9.55Q11.95 11.95 5.7 8.1Q3.05 6.4 2.3 5.55L1.7 4.4L1.35 4.7Q0.25 5.9 -1.3 5.9L-2.85 5.55L-3.1 6.05Q-3.6 7.35 -5.05 9.3L-5.05 9.4L-8.05 12.05Q-9.6 13.15 -11.05 13Q-12.75 12.8 -13.7 11.2Q-15.25 8.95 -9.1 4.85Q-6.5 3.15 -5.5 2.9L-5.05 2.85L-5.15 1.95Q-5.15 0.25 -4.05 -0.95L-3.6 -1.3Q-2.55 -2 -1.3 -2L0.5 -1.55M2.55,2.5Q2.4 3.6 1.7 4.4M-2.85,5.55L-4.05 4.7Q-4.85 3.95 -5.05 2.85" />
</g>
</svg>
