<?xml version="1.0" encoding="utf-8"?>
<svg version="1.1" id="Layer_1"
xmlns="http://www.w3.org/2000/svg"
xmlns:xlink="http://www.w3.org/1999/xlink"
xmlns:author="http://www.sothink.com"
width="26px" height="16px"
xml:space="preserve">
<g id="105" transform="matrix(1, 0, 0, 1, 12.65, 7.4)">
<path style="fill:#6699CC;fill-opacity:1" d="M-0.2,1.75L-0.45 -1.25L-0.3 -3.5L-0.2 -4.05L2.2 -4L2 -3.4Q1.75 -2.75 1.7 -1.15Q1.65 0 1.95 1.45L-0.2 1.75M5.7,-2.4L6.6 -2.6L9.75 -1.15Q10.35 -0.85 11.35 0.75L11.95 1.75L11.1 2.7L9.3 2.5Q8.55 2.35 6.55 0.9L6.4 0.8L5.5 0.95L5.45 0.2L5.45 0.1L5.4 -1.8L5.5 -2.35L5.7 -2.4M-3.9,4.3L-5.95 5.85L-6.15 5.75Q-6.9 5.35 -7.95 5.3L-9.95 5.45Q-10.65 5.45 -11 4.75L-11.3 3L-11.55 2.05L-11 1.8L-9.1 1.25Q-9.35 3.55 -8.05 3.9L-6.2 4.2L-5.75 4.1L-5.7 4.1L-5.25 4.2L-3.9 4.3M-9.3,-1.75Q-11.45 -1.9 -11.7 -2.6Q-12.05 -3.25 -11.85 -5L-11.8 -5.75L-9.15 -5.75L-8.2 -5.6Q-7.55 -5.6 -6.3 -4.2L-6.25 -4.15L-6.8 -4.25Q-8.1 -3.95 -8.65 -3.4Q-9.25 -2.8 -9.3 -1.75" />
<path style="fill:#9BC1E7;fill-opacity:1" d="M6.55,-4L7.9 -4.25L8.4 -4.2Q9.2 -4 10.55 -3.2Q11.85 -2.4 12.15 -0.1Q12.35 0.95 11.95 1.75L11.35 0.75Q10.35 -0.85 9.75 -1.15L6.6 -2.6L5.7 -2.4L5.5 -2.35L5.75 -3L6.3 -3.85L6.5 -3.95L6.55 -3.95L6.6 -4L6.55 -4M-5.95,5.85L-6.35 6.15Q-8.15 7.2 -9.55 6.95L-11.95 6.65L-12.15 2.5L-11.55 2.05L-11.3 3L-11 4.75Q-10.65 5.45 -9.95 5.45L-7.95 5.3Q-6.9 5.35 -6.15 5.75L-5.95 5.85M-5.75,-4.05L-6.25 -4.15L-6.3 -4.2Q-7.55 -5.6 -8.2 -5.6L-9.15 -5.75L-11.8 -5.75L-11.75 -6.9L-11.35 -6.9L-9.25 -6.8L-7.3 -6.65Q-6.65 -6.65 -5.75 -5.5L-4.5 -4.15L-5.75 -4.05" />
<path style="fill:#BABDBF;fill-opacity:1" d="M6.6,-4L6.55 -3.95L6.5 -3.95L6.3 -3.85L5.75 -3L5.5 -2.35L5.4 -1.8L5.45 0.1L5.45 0.2L5.5 0.95L2.1 1.4L1.95 1.45Q1.65 0 1.7 -1.15Q1.75 -2.75 2 -3.4L2.2 -4L6.55 -4L6.6 -4M-3.05,1.8L-3.1 1.75L-6.55 1.3L-7.9 0.4Q-8.2 0.05 -9 -0.15L-9.3 -0.15L-9.3 -1.75Q-9.25 -2.8 -8.65 -3.4Q-8.1 -3.95 -6.8 -4.25L-6.25 -4.15L-5.75 -4.05L-4.5 -4.15L-4.3 -4.15L-2.25 -4.05L-0.2 -4.05L-0.3 -3.5L-0.45 -1.25L-0.2 1.75L-3.05 1.8" />
<path style="fill:#989898;fill-opacity:1" d="M5.6,1.9L5.95 3.35L6 3.45L6.2 3.6L4.35 3.85L2.65 4L2.15 2.45L1.95 1.45L2.1 1.4L5.5 0.95L5.6 1.9M-5.25,4.2L-5.7 4.1L-5.75 4.1L-6.2 4.2L-8.05 3.9Q-9.35 3.55 -9.1 1.25L-9.3 -0.15L-9 -0.15Q-8.2 0.05 -7.9 0.4L-6.55 1.3L-3.1 1.75L-3.05 1.8L-0.2 1.75L-0.05 2.45L0.45 4.1L-2.1 4.25L-3.65 4.3L-3.65 4.2L-3.8 4.2L-3.9 4.3L-5.25 4.2" />
<path style="fill:#476C91;fill-opacity:1" d="M-0.05,2.45L-0.2 1.75L1.95 1.45L2.15 2.45L2.65 4L1.2 4.05L0.45 4.1L-0.05 2.45M5.95,3.35L5.6 1.9L5.5 0.95L6.4 0.8L6.55 0.9Q8.55 2.35 9.3 2.5L11.1 2.7L10.65 3Q8.75 3.8 7.2 3.75L6.2 3.6L6.25 3.45L5.95 3.35" />
<path style="fill:none;stroke-width:1;stroke-linecap:butt;stroke-linejoin:miter;stroke-miterlimit:3;stroke:#2C2C2C;stroke-opacity:1" d="M2.65,4L4.35 3.85L6.2 3.6L6 3.45L5.95 3.35L5.6 1.9L5.5 0.95L5.45 0.2L5.45 0.1L5.4 -1.8L5.5 -2.35L5.75 -3L6.3 -3.85L6.5 -3.95L6.55 -3.95L6.55 -4L2.2 -4L-0.2 -4.05M11.1,2.7L11.95 1.75M6.55,-3.95L6.6 -4L6.55 -4L7.9 -4.25L8.4 -4.2Q9.2 -4 10.55 -3.2Q11.85 -2.4 12.15 -0.1Q12.35 0.95 11.95 1.75M11.1,2.7L10.65 3Q8.75 3.8 7.2 3.75L6.2 3.6L6.25 3.45L5.95 3.35M2.65,4L1.2 4.05L0.45 4.1L-2.1 4.25L-3.65 4.3L-3.9 4.3L-5.95 5.85L-6.35 6.15Q-8.15 7.2 -9.55 6.95L-11.95 6.65L-12.15 2.5L-11.55 2.05L-11 1.8L-9.1 1.25L-9.3 -0.15L-9.3 -1.75Q-11.45 -1.9 -11.7 -2.6Q-12.05 -3.25 -11.85 -5L-11.8 -5.75L-11.75 -6.9L-11.35 -6.9L-9.25 -6.8L-7.3 -6.65Q-6.65 -6.65 -5.75 -5.5L-4.5 -4.15L-4.3 -4.15L-2.25 -4.05L-0.2 -4.05M-6.25,-4.15L-5.75 -4.05L-4.5 -4.15M-6.25,-4.15L-6.8 -4.25Q-8.1 -3.95 -8.65 -3.4Q-9.25 -2.8 -9.3 -1.75M-9.1,1.25Q-9.35 3.55 -8.05 3.9L-6.2 4.2L-5.75 4.1L-5.7 4.1L-5.25 4.2L-3.9 4.3L-3.8 4.2L-3.65 4.2L-3.65 4.3" />
</g>
</svg>
