<?xml version="1.0" encoding="utf-8"?>
<svg version="1.1" id="Layer_1"
xmlns="http://www.w3.org/2000/svg"
xmlns:xlink="http://www.w3.org/1999/xlink"
xmlns:author="http://www.sothink.com"
width="56px" height="31px"
xml:space="preserve">
<g id="147" transform="matrix(1, 0, 0, 1, 26.25, 20.8)">
<path style="fill:#CCCCCC;fill-opacity:1" d="M-4.2,1.85L-10.5 0.95L-10.5 -0.7L-20.1 -0.35L-19.85 -2Q-19.55 -3.05 -19.65 -3.6L-22.65 -3.9L-22.65 -4.5L-22 -6.45Q-21.5 -7.85 -21.35 -8.7L-21.8 -8.9Q-20.8 -9.75 -19.2 -10.35L-15.85 -11.6L-9.9 -13.45L-9.35 -13.55L0.45 -14.25Q8.4 -14.25 13.7 -11.95L13.8 -11.75L13.3 -0.7L13.3 0.05L13.25 0.85L11.2 1.65L11.15 1.6Q10.25 0.15 9.8 0.15Q9.75 0.15 9.05 0.7Q8.25 1.25 8 1.5Q6.55 0.95 4.5 -2.4L3.5 -1.1Q2.55 0.15 2.15 0.15Q1.95 0.15 0.5 -0.9L-1.35 -2.4L-2.95 0.7Q-3.3 1.4 -3.85 1.7L-3.75 1.95L-4.2 1.85" />
<path style="fill:#C44F4F;fill-opacity:1" d="M26.85,0.15Q23.95 1.2 22.55 1.2L16.7 0.55L14.7 0.25L13.3 0.05L13.3 -0.7L13.8 -11.75Q17.3 -12.05 23 -7.9Q28.05 -4.2 29.05 -0.6L26.85 0.15M-9.9,-13.45L-15.85 -11.6L-17.85 -13.65Q-21.2 -16.95 -21.9 -16.95L-24 -16.65Q-23.45 -18.35 -22.25 -19.1L-21.85 -19.55Q-20.85 -20.3 -18.25 -20.3Q-16.7 -20.3 -13.3 -17L-9.9 -13.45M15.8,-8.4L17.35 -6.05Q19.45 -3.6 21.75 -3.6Q22.3 -3.6 22.4 -3.9L22.4 -4.45Q22.4 -6.65 19.1 -8.15Q15.8 -9.7 15.8 -8.4M24.75,-4.1Q23.55 -4.8 23.55 -3.3L23.8 -2.5Q24.2 -1.5 24.95 -1.5Q25.95 -1.5 25.95 -2.05Q25.95 -3.35 24.75 -4.1" />
<path style="fill:#E28D8D;fill-opacity:1" d="M19.1,-8.15Q22.4 -6.65 22.4 -4.45L22.4 -3.9Q22.3 -3.6 21.75 -3.6Q19.45 -3.6 17.35 -6.05L15.8 -8.4Q15.8 -9.7 19.1 -8.15M25.95,-2.05Q25.95 -1.5 24.95 -1.5Q24.2 -1.5 23.8 -2.5L23.55 -3.3Q23.55 -4.8 24.75 -4.1Q25.95 -3.35 25.95 -2.05" />
<path style="fill:#9C2626;fill-opacity:1" d="M13.25,0.85L13.3 0.05L14.7 0.25L16.7 0.55L22.55 1.2Q23.95 1.2 26.85 0.15L29.05 -0.6L29.25 1.05Q29.25 5 22.2 7.85L21.5 8.15L21.6 5.45L21.6 3.9L17.95 4.8Q17.65 4.8 16.85 3.15L16.75 2.95L16.05 1.35Q15.1 1.35 13.85 2.2L13.15 2.7L13.25 0.85M-24,-16.65L-21.9 -16.95Q-21.2 -16.95 -17.85 -13.65L-15.85 -11.6L-19.2 -10.35Q-20.8 -9.75 -21.8 -8.9L-23.95 -9.9L-24.8 -10.3L-24.4 -14.95L-24 -16.65M-20.1,-0.35L-10.5 -0.7L-10.5 0.95L-10.5 1.05Q-10.3 2.75 -12.15 2.65L-15.65 2.6L-18.9 2.65L-19.6 2.6L-23.8 2.4L-23.8 2.35L-23.85 2.35L-25 2.55Q-25.75 2.55 -25.75 1.05L-25.6 -0.25L-23.8 -0.3L-23.8 -0.25L-23.2 -0.25L-20.1 -0.35" />
<path style="fill:#B1ACAC;fill-opacity:1" d="M13.15,2.7L12.6 3.05Q12.05 3.05 11.2 1.65L13.25 0.85L13.15 2.7M-18.9,2.65L-15.65 2.6L-12.15 2.65Q-10.3 2.75 -10.5 1.05L-10.5 0.95L-4.2 1.85L-6.6 1.7Q-6.5 2.75 -6.75 4.55L-6.85 5.15L-7.1 7.35L-7.15 7.45L-7.45 7.5Q-8.3 7.5 -9.2 6.65Q-10.15 5.75 -10.75 5.75L-12.05 7.3Q-13.15 8.85 -13.7 8.85Q-14.95 8.85 -15.6 4.95L-16.35 4.95L-17.7 5.45Q-18.15 5.45 -18.55 4.3L-18.9 2.65" />
<path style="fill:#545454;fill-opacity:1" d="M12.6,3.05L13.15 2.7L13.85 2.2Q15.1 1.35 16.05 1.35L16.75 2.95Q14.05 5.85 13.4 5.85L12.95 5.7L12.6 5.5L11.8 5.1Q11.5 5.1 11.25 5.5L10.7 5.85L9.75 5L8.3 4.1Q7.6 4.1 5.6 5.55L2.9 7.35Q1.5 4.5 -0.1 4.5L-3.6 7.05Q-4.5 7.05 -6.85 5.15L-6.75 4.55Q-6.5 2.75 -6.6 1.7L-4.2 1.85L-3.75 1.95L-3.85 1.7Q-3.3 1.4 -2.95 0.7L-1.35 -2.4L0.5 -0.9Q1.95 0.15 2.15 0.15Q2.55 0.15 3.5 -1.1L4.5 -2.4Q6.55 0.95 8 1.5Q8.25 1.25 9.05 0.7Q9.75 0.15 9.8 0.15Q10.25 0.15 11.15 1.6L11.2 1.65Q12.05 3.05 12.6 3.05" />
<path style="fill:none;stroke-width:1;stroke-linecap:butt;stroke-linejoin:miter;stroke-miterlimit:3;stroke:#353535;stroke-opacity:1" d="M-4.2,1.85L-3.85 1.7Q-3.3 1.4 -2.95 0.7L-1.35 -2.4L0.5 -0.9Q1.95 0.15 2.15 0.15Q2.55 0.15 3.5 -1.1L4.5 -2.4Q6.55 0.95 8 1.5Q8.25 1.25 9.05 0.7Q9.75 0.15 9.8 0.15Q10.25 0.15 11.15 1.6L11.2 1.65M13.15,2.7L13.25 0.85L13.3 0.05L13.3 -0.7L13.8 -11.75Q17.3 -12.05 23 -7.9Q28.05 -4.2 29.05 -0.6L29.25 1.05Q29.25 5 22.2 7.85L21.5 8.15L21.6 5.45L21.6 3.9L17.95 4.8Q17.65 4.8 16.85 3.15L16.75 2.95M13.7,-11.95Q8.4 -14.25 0.45 -14.25L-9.35 -13.55L-9.9 -13.45L-15.85 -11.6L-19.2 -10.35Q-20.8 -9.75 -21.8 -8.9L-21.35 -8.7Q-21.5 -7.85 -22 -6.45L-22.65 -4.5L-22.65 -3.9L-19.65 -3.6Q-19.55 -3.05 -19.85 -2L-20.1 -0.35L-10.5 -0.7L-10.5 0.95M-4.2,1.85L-6.6 1.7Q-6.5 2.75 -6.75 4.55L-6.85 5.15Q-4.5 7.05 -3.6 7.05L-0.1 4.5Q1.5 4.5 2.9 7.35L5.6 5.55Q7.6 4.1 8.3 4.1L9.75 5L10.7 5.85L11.25 5.5Q11.5 5.1 11.8 5.1L12.6 5.5L12.95 5.7L13.4 5.85Q14.05 5.85 16.75 2.95L16.05 1.35Q15.1 1.35 13.85 2.2L13.15 2.7L12.6 3.05Q12.05 3.05 11.2 1.65M13.7,-11.95L13.8 -11.9L13.8 -11.75M-21.8,-8.9L-23.95 -9.9L-24.8 -10.3L-24.4 -14.95L-24 -16.65Q-23.45 -18.35 -22.25 -19.1L-21.85 -19.55Q-20.85 -20.3 -18.25 -20.3Q-16.7 -20.3 -13.3 -17L-9.9 -13.45M-23.8,-0.3L-23.8 -0.25L-23.2 -0.25L-23.8 -0.3L-25.6 -0.25L-25.75 1.05Q-25.75 2.55 -25 2.55L-23.85 2.35L-23.8 2.35L-23.8 2.4L-19.6 2.6L-18.9 2.65L-15.65 2.6L-12.15 2.65Q-10.3 2.75 -10.5 1.05L-10.5 0.95M-23.2,-0.25L-20.1 -0.35M-6.85,5.15L-7.1 7.35L-7.15 7.45L-7.45 7.5Q-8.3 7.5 -9.2 6.65Q-10.15 5.75 -10.75 5.75L-12.05 7.3Q-13.15 8.85 -13.7 8.85Q-14.95 8.85 -15.6 4.95L-16.35 4.95L-17.7 5.45Q-18.15 5.45 -18.55 4.3L-18.9 2.65" />
</g>
</svg>
