<?xml version="1.0" encoding="utf-8"?>
<svg version="1.1" id="Layer_1"
xmlns="http://www.w3.org/2000/svg"
xmlns:xlink="http://www.w3.org/1999/xlink"
xmlns:author="http://www.sothink.com"
width="624px" height="25px"
xml:space="preserve">
<g id="263" transform="matrix(1, 0, 0, 1, 13.2, 12.55)">
<path style="fill:#0000FF;fill-opacity:1" d="M10.2,-5.35L106.5 -5.35Q107.35 -7.35 109 -9Q112.6 -12.55 117.65 -12.55Q122.7 -12.55 126.25 -9Q127.9 -7.35 128.85 -5.35L227.95 -5.35Q228.8 -7.35 230.45 -9Q234.05 -12.55 239.1 -12.55Q244.15 -12.55 247.7 -9Q249.35 -7.35 250.3 -5.35L347.9 -5.35Q348.75 -7 350.15 -8.4Q353.75 -11.95 358.8 -11.95Q363.85 -11.95 367.4 -8.4Q368.8 -7 369.7 -5.35L467.1 -5.35Q467.95 -7 469.35 -8.45Q472.95 -12 478 -12Q483.05 -12 486.6 -8.45Q488.05 -7 488.9 -5.35L587.4 -5.35Q588.25 -7 589.65 -8.4Q593.25 -11.95 598.3 -11.95Q603.35 -11.95 606.9 -8.4Q610.5 -4.8 610.5 0.25Q610.5 5.3 606.9 8.85Q603.35 12.45 598.3 12.45Q593.25 12.45 589.65 8.85Q588.05 7.25 587.2 5.35L489.1 5.35Q488.2 7.2 486.6 8.8Q483.05 12.4 478 12.4Q472.95 12.4 469.35 8.8Q467.75 7.2 466.9 5.35L369.9 5.35Q369 7.25 367.4 8.85Q363.85 12.45 358.8 12.45Q353.75 12.45 350.15 8.85Q348.55 7.25 347.7 5.35L249.9 5.35Q249.05 6.9 247.7 8.25Q244.15 11.85 239.1 11.85Q234.05 11.85 230.45 8.25Q229.1 6.9 228.3 5.35L128.45 5.35Q127.6 6.9 126.25 8.25Q122.7 11.85 117.65 11.85Q112.6 11.85 109 8.25Q107.65 6.9 106.85 5.35L9.8 5.35Q8.95 6.9 7.6 8.25Q4.05 11.85 -1 11.85Q-6.05 11.85 -9.65 8.25Q-13.2 4.7 -13.2 -0.35Q-13.2 -5.4 -9.65 -9Q-6.05 -12.55 -1 -12.55Q4.05 -12.55 7.6 -9Q9.25 -7.35 10.2 -5.35" />
</g>
</svg>
