<?xml version="1.0" encoding="utf-8"?>
<svg version="1.1" id="Layer_1"
xmlns="http://www.w3.org/2000/svg"
xmlns:xlink="http://www.w3.org/1999/xlink"
xmlns:author="http://www.sothink.com"
width="223px" height="243px"
xml:space="preserve">
<g id="355" transform="matrix(1, 0, 0, 1, 12.8, -323.25)">
<path style="fill:#000000;fill-opacity:0.2" d="M50,330.5L51.35 330.5Q55.4 332.5 58.5 335.35L71 347.65L71.45 350.4L71.45 351.15L70.55 351.75L67.6 352.3L66.5 352.65Q65.9 353.2 65.8 354.1L65.7 355.55L64.75 354.8Q64 354.15 63.45 354.15Q62.95 354.15 62.85 354.7L63 357.6L59.3 355.95Q59 355.95 58.75 356.55L58.5 357.45L58.6 359.7Q58.25 361 55.85 361.7L55.2 361.7Q54.5 361.55 54 361.1L52.75 356.45Q53.15 357.3 53.9 357.95L54.65 357.95Q55.5 357.45 55.85 356.25L56.15 354.45Q56.9 351.55 57.6 350.7L58.35 351.2Q58.6 351.5 58.95 351.5Q59.8 351.5 59.8 350.4L59.75 348.9L60.5 349.35L61.2 349.35Q61.5 349.25 61.5 348.55Q61.5 347.4 59.35 344.65Q57.25 341.85 54.7 339.6Q48.75 334.35 48 337.75L47.7 335.3Q47.7 333.95 48.1 332.75Q48.7 330.95 50 330.5M46.65,344.6Q46.75 345.9 47.45 348.15Q48.4 353.15 49.2 355.2L50.5 358.75Q51.15 360.3 52.15 361.35L52.75 362.9Q53.7 365.55 54 367.55L53.55 367.55L52.65 367.2L51.45 367.2L51.15 367.4L51.05 367.7Q51.05 368.25 51.35 368.75L51.95 369.75Q52.5 370.5 52.85 371.7L50.5 372.3Q49.65 372.5 49.65 372.9Q49.65 373.25 50.4 373.7Q51.15 374.2 51.15 374.8Q51.15 376 47.9 377.45Q44.6 378.9 44.6 379.25L44.7 379.55L45 379.65L46.8 379.5Q48.85 379.2 50.35 379.9Q51.6 380.5 51.6 381.15Q51.6 381.65 49.7 383.5Q47.75 385.3 47.75 385.8Q47.75 386.3 48.55 386.55Q49.35 386.85 49.35 387.3Q49.35 388.1 48.25 389.7L47.15 391.4Q47.15 391.95 48.05 392.55Q48.95 393.15 48.95 393.95L48.6 395.4L49.2 397.7L49.35 401.25Q49.35 401.95 49.9 403L50.7 404.85L50.85 407.05L50.75 407.4L51.15 408.75L52.55 411.3L53.1 412.7Q55.75 416.3 57.65 418.1Q61 421.25 64.65 423Q67.1 424.15 69.6 424.65Q70.75 424.9 72.1 425.45L77.15 426.05L77.75 426.25L88.8 426.45L99.3 424.95L104.7 423.2Q111.6 421.35 115.2 419.85Q118.4 418.45 120.1 417.3L122.4 415.4Q121 420.25 119.15 423.15L118.75 423.75L118.5 424L118.65 424L126 421.75L124.75 422.6Q120.65 425.75 106.1 428.15Q94.3 430.1 84.1 430.5L74 430.5Q57.75 429.1 51.5 426.85L50.5 426.5Q48.1 422.15 45.35 413.35L45.2 413.3L45.1 413.1L45.2 412.85L44.65 410.9L44.6 410.9L44.55 410.65L44.55 410.6L43.6 406.95L43.45 406.9L43.35 406.65L43.45 406.4L42.6 403.05L42.45 403L42.35 402.55L42.4 402.35L42.3 402.15L42.35 402.05L40.9 396.55L30.05 394.3L40.7 385.5L30.65 384.9L41.95 377.5L35.15 373.4L46.85 368.9L43.15 363.15L48.85 364.6Q46.25 355.6 44.55 346.15Q41.15 327.25 45.8 325.05Q47.8 324.1 51.4 325.95Q45.3 326 45.3 334.05Q45.3 335.5 45.6 337.5L46.65 344.6M80.45,357.6L82.35 357.7L84.75 359.4L85.25 360.65L85.3 361.1L84.6 359.85Q83.6 358.85 82.5 358.5L78.7 357.75L80.45 357.6M62.05,369.05L65.85 366.9Q68.5 365.15 69.35 363.5Q70.2 362.15 72.6 360.4Q73.75 359.55 74.9 359L74.25 359.8Q72.9 361.85 72.9 364.35L73.1 365.85L73.8 367.8Q74.05 368.55 75.25 369.55Q76.85 370.8 78.5 370.8Q80.65 370.8 83 368.6Q85.7 366.15 85.7 363.15L85.45 361.65L86.05 361.8L87.35 360.55L88 360.1Q87 360.95 87 362Q87 362.95 87.85 364.1Q89.25 366 92 366Q93.9 366 94.7 365.1Q95.25 364.55 95.25 363.75Q95.25 362.65 94.4 361.2Q93.7 360 92.6 359.45Q94.7 359.85 95.5 361.75Q95.9 362.75 95.9 364.65L95.75 366.15Q95.7 367 96.15 367.7Q98.65 368.25 101.85 370.25Q102.9 370.95 103.8 372.4L104.1 372.9Q104.15 373.5 104.9 374.7L105.3 376.55L105.6 380.35L105.55 382.65L104.55 385.35Q102.8 389.2 101.85 390.45Q99.15 394.1 94.3 396.15L89.9 397.6L89.15 397.65L88.1 397.95L83.9 398.25Q82.3 398.25 79.95 396.9Q78 395.75 77.6 395.1L75.35 391.1Q74.65 389.6 74.75 387Q74.85 384.25 74.4 383L72.85 379Q71.85 376.7 70.65 375Q68.7 372.25 66.35 371L62.05 369.05M52.35,355.05L50.4 348.85L51.9 353.15L52.35 355.05M59.45,382.8L62.1 388.8Q63.1 391.65 67.25 394.8Q69.95 396.8 71.5 397.4Q74.35 398.45 80.55 399L84.9 399.05L85.9 399.15L87.8 398.8L87.95 398.75L93.95 398.1L95.4 397.8L108.5 393Q116.85 388.1 118.65 384.8L117.25 387.55Q116.75 388.65 116.75 390L117.45 393.25Q117.45 393.95 116.7 395.3L116.45 397.4L116.45 401.5L116.4 401.45L116.25 399.45L115.95 399.35L115.9 399.4L115.8 397.7Q115.8 395.85 116.6 391.75L116.55 391.5L116.1 391.4L114.15 393.9Q112.5 395.2 110.85 396Q109.25 396.85 108.6 398.6Q107.9 400.55 107.4 400.95L106.95 399.15Q106.5 397.85 105.95 397.85Q105.7 397.85 104.5 398.55L102.6 399.5L92.3 402.2L90.45 404.6L90.2 404.55L90.05 403.8L89.55 403.25Q86 403.65 83.75 403.25L81.35 402.65L74.85 401.7Q73.55 401.7 73.05 402.75Q72.8 403.2 72.3 405.45Q71.25 404.9 70.45 403.25L69.2 400.8Q68.75 400.1 66.45 398.75Q63.95 397.3 63.05 396.35Q61.35 394.6 59.7 391.4L58.5 388.8Q57.7 387.4 56.25 386.4L55.35 386.4L54.55 387.1L54.35 387.35Q54.05 387.45 53.75 387.7L56.6 379.3Q57.15 377.85 58.4 376.8L58.7 379.8Q58.95 381.6 59.45 382.8M78.95,381.15Q80.5 382 85.1 382.95L86.15 382.95L92.1 382.25L94.8 381.5L97.25 380.4L99.2 379.2Q101.5 377.5 102.2 376.45Q102.9 375.4 102.9 373.75Q102.9 372.3 102.35 371.7L99.3 369.45Q98 368.85 96.8 368.6Q94.6 368.15 90.6 368.6Q88.55 368.9 86.45 370.05Q81.6 372.75 79.75 374.45Q77.55 376.5 77.55 378.85Q77.55 380.35 78.95 381.15M123.8,327.3L116.45 334.55L110.4 341.25Q106.7 345.6 105.65 347.85Q104.4 348.95 103.2 348.95L102.45 348.75L102.2 348.2Q106.85 341.85 112.2 335.9Q123.95 322.9 128.15 325.45L126.5 325.9Q124.6 326.5 123.8 327.3M125.35,328.8Q126.55 328.8 126.8 329.75L126.9 331Q126.9 334.65 126.25 337.5L120.8 356.6Q120 357.45 118.5 357.95L117.35 355.65Q116.6 354 115.7 353.15L115.35 353.15Q113.45 354.75 112.85 354.75L112.65 354.7L112.7 352.9Q112.75 351.9 111.75 351.35L110.7 351.3L108.95 351.55L108 350.45L107.25 349.9L108.65 348.45L110.05 346.6Q109.1 348.25 109.1 348.7Q109.1 349.05 109.4 349.35L110.4 349.35L112.8 348.6L113.3 348.75L114.15 348.9L115.15 348.5Q115.5 348.5 115.25 348.6L115.35 349.05L115.25 350.4L115.8 350.45Q116.15 350.45 117.2 349.1L118.5 347.15L120.15 343.7Q122.1 338.4 122.1 336.7Q122.1 335.2 120.85 335.4Q119.75 335.6 117 337.25L119.7 334.05Q120.65 332.55 121.7 331.3Q123.8 328.8 125.35 328.8M198.15,429.95L197.2 434.55L196.4 435.3L196.4 435.65L194.7 436.55Q193.35 437.65 193.35 438.85Q193.35 439.65 194.15 440.75Q195.05 442.1 196.4 442.5L199.95 443.65Q202.2 444.55 202.4 445.5L198.95 445.8L196.7 445.35Q194.95 445.35 193.2 446.25Q190.95 447.35 190.95 449.25Q190.95 450.45 191.55 451.3Q192.2 452.25 193.8 453.15Q195.05 453.9 198.2 454.75Q200.75 455.45 200.75 455.85L200.05 456.6Q199.35 457.05 198.45 457.05Q195.9 456.75 194.2 457.05Q190.95 457.55 190.95 460.35Q190.95 461.55 191.65 462.55Q192.5 463.9 194.15 464.25L199.95 464.3L201.55 464.15L201.15 464.6Q199.45 466 194.55 466.75L192.8 467L191.65 472.2L189.55 472.25Q184.8 472.25 183.25 468.3Q182.6 466.55 182.6 463.25Q182.6 461.6 183.25 459.5L183.85 456.85Q183.85 456.15 182.85 454.9Q181.85 453.65 181.85 452.3Q181.85 450.55 184.1 448.2Q186.35 445.85 186.35 443.45Q186.35 442.5 185.35 440.45Q184.35 438.35 184.35 437.8Q184.35 436.75 186.25 435.1Q187.8 433.75 189.5 432.85Q191.55 431.75 196.35 430.45L198.15 429.95M109.3,411.45L112.35 410.75L114.35 409.7L115.05 408.9L114.6 409.95L113.2 412.05Q112.1 413.25 110.25 413.85Q106.6 414.65 102.6 416.1L94.5 418.35L85.35 420.15L81.45 420.5L81.2 420.35L72.5 419.9Q69.4 419.5 67.55 418.4L65.45 417.35Q64.95 417.2 64.3 416.6L63.3 415.8Q61.3 414.5 59.85 413L58.75 411.75Q60.3 412.6 62.25 413.15L67.2 415.2Q69.8 415.85 72.35 416.85L73.2 416.85L73.85 415.8L75.3 417.4Q76.4 418.4 78.15 418.4L87 417Q90 416.05 91.1 414.8L93.85 416.4Q95.9 416.4 97.5 415.75L101.9 413.85L104.9 412.15Q106.4 411.05 106.95 410.15L107.45 410.85Q108.1 411.45 109.3 411.45M0.55,442.7L1.45 442.7L-1.7 443.15Q-2 442.4 -2.85 443L-3.8 443.85Q-4.35 444.4 -4.35 445.5Q-4.35 447 -3.45 449.15Q-3 450.15 -1.5 450.9L0.3 451.55L2.5 452.05L1.05 453.6L0.65 454.4L0.45 456.2Q0.45 458.2 2.8 460.2Q5.25 462.3 7.95 462.3Q11.2 462.3 12.75 461.3Q11.85 462.25 11.85 462.8L12 463.9L10.5 463.65Q2.4 463.65 2.4 467.9Q2.4 468.95 3.75 470.7Q5.7 473.15 8.7 473.15Q11.8 473.15 13.3 470.9L13.85 469.95L13.85 470.3Q13.85 472.4 11 473.05L5.6 474L3.85 474.5L3.85 474.4Q0.15 473.7 -1.3 472.5Q-2.4 471.6 -2.7 468.2L-2.75 464.95L-1.8 464.8L-3.1 461.5Q-4.25 457.75 -3.55 455.75L-6.55 451.65Q-9.2 447.05 -7.45 444.65Q-6.15 442.85 -2 442.5L0.05 442.6L0.55 442.7M9.25,444.15Q10.35 444.6 10.35 445.9L10.3 446.3L10.2 446.35L10.05 445.85L9.5 445.2L9.2 444.45Q8.9 444.1 7.35 443.7L9.25 444.15M6.8,444.3L7.8 444.45L7.05 444.45L6.8 444.3M11.6,445.8Q11.6 444.65 11.1 444Q12.9 444.65 13.7 445.6Q14.55 446.6 14.4 448.05L14.1 450.1Q14.1 452.85 16.5 454.6Q17.35 455.2 17.85 456.85Q18.25 458.2 18.25 459.25Q18.25 460.85 16.95 462.75Q15.6 464.6 15.6 465.1Q15.6 466 16.6 468.6Q17.6 471.25 17.6 472.95Q17.6 476.15 14.5 478.6Q11.15 481.25 6.4 481.25L3.1 480.45L3.65 476L6 475.35L8.9 475.1Q10.05 475.2 11.5 474.6Q13.7 473.7 14.5 472.7Q15.1 471.9 15.1 470.5L13.25 462.85Q13.25 462.4 14.45 461.4Q15.6 460.45 15.6 459.15Q15.6 456.6 12.75 453.95L9.85 451.55L10.75 449.4Q11.6 447.1 11.6 445.8M9,445.95L8.45 445.55L8.55 445.6L9.05 445.95L9 445.95M8.95,452.5L8.15 452.1L7.85 452L8.45 451.85L8.95 452.5M14.1,458.65L14.05 457.75L14.35 459.1L13.8 460.15L14.1 458.65M64.5,510.9Q64.5 511.7 64.9 511.75Q66 511.95 67.05 512.55L76.05 513.75L81.5 513.75L81.75 513.65L94.85 513.95L97.35 514.2L98.25 514.2L99.25 514.35L103.75 513.65L106.4 514.05L107.4 513.8L124.65 511.65L129.8 510.4Q133 509.55 133.85 509Q131.6 511.35 128.8 513.35Q125 516.15 121.75 517.4L119.7 517.55Q118.9 517.95 117.8 519.05Q117.1 519.6 116.85 520.6L116.15 540.7Q116.15 545.25 116.45 550.35Q116.65 553.15 117.65 555.15Q118.2 556.2 119.9 557.45Q122.45 559.4 125.3 559.4Q129.65 559.4 130.9 558.25Q131.6 556.95 132.5 556.65L133.7 557.15L135.2 557.25L136.55 557.05L136.8 556.8L137.6 557.25L139.3 557.7Q140.65 557.7 141.45 556.95L141.5 556.95Q142.25 559.65 142.6 562.2L137.95 563.2L137.6 563.3L123.65 564.05Q114.45 563.85 113.35 559.95Q112.25 556.1 112.7 537.05L113.35 519Q106.3 520.55 99.35 520.8L99.15 523.3L95.55 523.55Q95.1 523.6 94.9 524L94.65 524.6L94.55 527.1L93.05 532.05L90.75 536.95L84.45 546.95Q83.25 548.45 81.75 549.3Q81.55 549.4 80.8 549.85L79.55 550.4L79.3 550.95L79.25 551.6Q78.45 558.2 78.45 561.65L78.45 562.1L75.15 562.95Q72.55 563.95 68.05 564.05L54.1 563.3L49.1 562.2Q49.4 559.95 50.05 557.5L50.65 557.55Q51.45 557.55 52.25 557.15L53.25 556.95L53.95 557.45L55.5 557.9L57.25 557.5L58.35 556.95Q59.1 556.95 61.3 558.3Q63.45 559.65 65.45 559.65Q67.75 559.65 69.8 557.95Q72.2 556 73.05 552.6Q74.25 548.05 74.25 544.7Q74.25 539.9 74.7 536.85Q75.2 533.05 75.2 528.85Q75.2 524.65 74.6 522.6L74.15 520.9Q73.7 519.95 72.6 519.45L70.65 519.55L70.6 519.05Q64.3 518.1 57.5 515.55Q54.35 514.4 50.5 510.1L51 509.95Q54.75 508.85 58.5 508.25L95.75 504.85L110 504.85L122.55 504.25L123.25 504.35L136.85 504.5L137.35 504.6L135.9 506.6L116.4 507L113.25 507.5L107.75 507.6L107.55 507.45L94.55 508.2Q90.8 507.95 87.3 508.2L83.45 508.2L64.8 510.3Q64.5 510.3 64.5 510.6L64.5 510.9M79.15,543.8Q88.55 536.25 92.35 520.8Q85.6 520.5 78.35 518.8L79.15 543.8" />
<path style="fill:#FFFFFF;fill-opacity:0.4" d="M87.65,369.8Q89.1 368.8 92.55 368.35Q97.55 368.3 100.15 369.85Q102.1 371.05 102.1 372.55Q102.1 374.1 99.4 376Q96.5 378.05 92.85 378.5L91.75 378.6L88.3 378.55Q85.9 378.3 83.9 377.3Q81.9 376.25 81.9 375.25Q81.9 373.85 85 371.3Q85.25 371.05 86.2 370.6L87.65 369.8" />
<path style="fill:none;stroke-width:3;stroke-linecap:round;stroke-linejoin:miter;stroke-miterlimit:3;stroke:#AE4200;stroke-opacity:1" d="M51.2,427.65Q48.15 422.9 44.6 410.8" />
<path style="fill:none;stroke-width:3;stroke-linecap:round;stroke-linejoin:miter;stroke-miterlimit:3;stroke:#39481C;stroke-opacity:1" d="M2.9,481.9L3.85 474.4" />
<path style="fill:none;stroke-width:3;stroke-linecap:butt;stroke-linejoin:miter;stroke-miterlimit:3;stroke:#39481C;stroke-opacity:1" d="M199,402.05Q201.2 416.8 197.15 434.65M192.8,467L191.4 473.35Q190.55 477.45 190.9 481.25Q191.15 484.05 194.8 491.3M-1.05,442.4Q-4.05 427.65 -11.3 412.9" />
<path style="fill:none;stroke-width:3;stroke-linecap:butt;stroke-linejoin:miter;stroke-miterlimit:3;stroke:#AE4200;stroke-opacity:1" d="M137.7,504.1Q134.35 509.35 128.8 513.35Q124.8 516.3 121.45 517.5" />
<path style="fill:none;stroke-width:3;stroke-linecap:round;stroke-linejoin:miter;stroke-miterlimit:3;stroke:#AE4200;stroke-opacity:1" d="M44.6,410.8L40.9 396.55L30.05 394.3L40.7 385.5L30.65 384.9L41.95 377.5L35.15 373.4L46.85 368.9L43.15 363.15L48.85 364.6Q46.25 355.6 44.55 346.15Q41.15 327.25 45.8 325.05Q50.45 322.85 63.85 335.9Q70.6 342.45 76.35 349.4L83.7 345.3L88.6 348.4L97.45 346.75L101.3 349.4Q106.35 342.4 112.2 335.9Q123.95 322.9 128.15 325.45Q132.35 328 128 344.7Q125.8 353.05 122.8 360.9L131.85 365.6L123.85 369.3L133.45 374.4L125.3 376.85L130 381.35L126.1 384.45L129.4 389.55L125.7 395.7L127.75 402.05L124.25 405.55L123.2 412.05Q121.6 419.3 119.15 423.15" />
<path style="fill:none;stroke-width:2;stroke-linecap:round;stroke-linejoin:miter;stroke-miterlimit:3;stroke:#AE4200;stroke-opacity:1" d="M61.25,341.1Q66.45 346.15 71.2 351.5L66.7 351.9L66.1 354.95L62.8 352.5L63.2 357.45L58.5 354.75L58.7 360.3L54.55 361.75Q52.2 355 50.3 347.95Q46.5 333.9 48.7 332.45Q50.9 331 61.25 341.1M122.45,345.2L118.5 357.65L116.45 352.7L113 355.15L112.8 351.1L109.5 351.9L107.45 350.05L115.2 340.05Q123.25 330.25 124.7 331.35Q126.15 332.5 122.45 345.2" />
<path style="fill:none;stroke-width:2;stroke-linecap:butt;stroke-linejoin:miter;stroke-miterlimit:3;stroke:#582903;stroke-opacity:1" d="M114.2,411.5Q115.45 410 115.7 405.5M73.65,420.5Q63.2 419.55 56.7 409.8Q54.7 406.7 53.3 403.15" />
<path style="fill:none;stroke-width:2;stroke-linecap:round;stroke-linejoin:miter;stroke-miterlimit:3;stroke:#AE4200;stroke-opacity:1" d="M95.2,368.25L95.25 368.25" />
<path style="fill:none;stroke-width:3;stroke-linecap:butt;stroke-linejoin:miter;stroke-miterlimit:3;stroke:#AE4200;stroke-opacity:1" d="M53.75,563.2L54.1 563.3" />
<path style="fill:none;stroke-width:3;stroke-linecap:round;stroke-linejoin:miter;stroke-miterlimit:3;stroke:#AE4200;stroke-opacity:1" d="M190.85,445.65Q189.9 444.05 189.25 442.15Q187.9 438.4 189.45 436.95Q191.35 435.1 197.15 434.65L198.25 434.55Q205.35 434.1 207.3 436.75Q209.05 439.15 206.4 443.75M53.55,563.15L53.95 558.75Q54.55 554.25 55.7 552.95Q56.85 551.65 58.2 551.2L59.3 550.95M118.5,424L118.65 424M-3.55,455.75L-6.55 451.65Q-9.2 447.05 -7.45 444.65Q-6 442.65 -1.05 442.4L5.8 443.05Q9.25 443.8 10.4 444.85M138.15,563.15L137.75 558.75Q137.15 554.25 136 552.95Q134.85 551.65 133.5 551.2L132.4 550.95" />
<path style="fill:none;stroke-width:3;stroke-linecap:round;stroke-linejoin:miter;stroke-miterlimit:3;stroke:#39481C;stroke-opacity:1" d="M51,508.85L49.8 509M118.8,423.95L127.2 421.35Q135.85 418.7 138 418.45Q141.45 418.05 157.45 418.85Q177.85 416.2 199 402.05M51,508.85Q42.55 509 38.75 508.55Q34.4 508 17.2 511.8L0.85 515.7Q2.1 513.2 3.15 509.8Q5.3 503.05 4.55 498.7Q2.55 486.35 2.9 481.9" />
<path style="fill:none;stroke-width:2;stroke-linecap:round;stroke-linejoin:miter;stroke-miterlimit:3;stroke:#582903;stroke-opacity:1" d="M71.4,375.6L71.05 372.6L70.95 369.9L71 368.6L71 367.95Q71.3 363.05 73.05 360.4L73.25 360.15Q75.35 357.2 79.25 357.15Q83.15 357.1 84.8 359.8L85 360.15L85.8 362.2Q86.4 361.05 87.35 360.15Q87.65 359.85 88.1 359.55Q91 357.45 94 360L94.2 360.15Q97 362.65 96.4 365.65Q96.15 367 95.45 367.95L95.2 368.25M85.75,370.05L86.05 368.6L86.15 367.95Q86.5 364.9 85.8 362.2M70.6,397.05L72.15 406.25Q61 404.95 52.35 400.2Q52.75 386.35 58.7 375.9Q58.7 377.3 59.25 380.85Q60.3 388.7 67.3 394.9Q68.7 396.15 70.6 397.05Q74.1 398.7 79.3 399.1L90.2 398.7L95.2 397.75Q102.25 396.2 107.9 393.4L110.15 392.2Q114.6 389.7 117.1 386.9L115.65 401.25L115.65 401.3L107.3 403.65L106.6 415.3L99.45 417.45L91.25 419.4M90.2,398.7L90.55 406.2L91.05 406.15Q99.9 405.3 107.3 403.65L107.9 393.4M90.55,406.2Q80.65 407.25 72.15 406.25L74.6 420.6Q82.1 421.1 91.25 419.4L90.55 406.2" />
<path style="fill:none;stroke-width:2;stroke-linecap:round;stroke-linejoin:miter;stroke-miterlimit:3;stroke:#993127;stroke-opacity:1" d="M95.25,368.25L97.9 368.6Q99.4 368.95 100.75 369.65Q103.05 370.85 104.25 372.6Q105.05 373.9 105.3 375.5L105.4 376.5L105.4 376.8L105.4 377.55Q105.05 381.95 100.15 385.6Q97.6 387.45 94.7 388.45Q90.55 389.85 85.65 389.5Q83.05 389.3 81.05 388.45Q78.55 387.4 76.95 385.35L75.35 381.65L77.75 377.55L78.3 376.8L78.55 376.5L79.15 375.6Q80.55 373.9 82.1 372.6Q83.85 371.05 85.75 370.05" />
<path style="fill:none;stroke-width:2;stroke-linecap:butt;stroke-linejoin:miter;stroke-miterlimit:3;stroke:#582903;stroke-opacity:1" d="M117.1,386.9Q118.4 385.4 119.15 383.85Q119.8 382.5 117.8 380.05L115.65 377.9M106.6,415.3Q112.8 413.2 114.2 411.5M74.6,420.6L73.65 420.5" />
<path style="fill:none;stroke-width:2;stroke-linecap:round;stroke-linejoin:miter;stroke-miterlimit:3;stroke:#582903;stroke-opacity:1" d="M60.1,369.6Q65.3 369.55 68.8 372.6Q70.25 373.85 71.4 375.6M53.3,403.15L52.35 400.2M75.3,386.8Q74.4 381.3 72.55 377.55L72.1 376.8L71.95 376.5L71.4 375.6M115.7,405.5L115.65 401.3" />
<path style="fill:none;stroke-width:2;stroke-linecap:round;stroke-linejoin:miter;stroke-miterlimit:3;stroke:#993127;stroke-opacity:1" d="M85.75,370.05Q87.65 369 89.7 368.6L90.6 368.45L95.2 368.25" />
<path style="fill:none;stroke-width:3;stroke-linecap:round;stroke-linejoin:miter;stroke-miterlimit:3;stroke:#AE4200;stroke-opacity:1" d="M206.4,443.75Q205.05 446.05 203.4 447.85M49.8,509Q53.95 514.25 57.5 515.55Q64.3 518.1 70.6 519.05Q71.35 527.95 70.45 536.2Q69.6 543.85 67.3 550.95Q65.75 549.65 63.55 548.65Q59.1 546.55 55.85 547.85Q52.6 549.15 50.55 555.8Q49.5 559.15 49.1 562.2L53.55 563.15M10.4,444.85Q11.95 446.3 10.6 450.05L9 453.55M66.35,554.8Q65.15 554.2 63.75 553.85Q60.9 553.15 59.8 554.4Q58.7 555.65 58.8 559.7L59.1 563.45M54.1,563.3L59.1 563.45M121.45,517.5Q120.5 529.1 121.25 536.2Q122.1 543.85 124.4 550.95Q125.95 549.65 128.15 548.65Q132.6 546.55 135.85 547.85Q139.1 549.15 141.15 555.8Q142.2 559.15 142.6 562.2L138.15 563.15M125.35,554.8Q126.55 554.2 127.95 553.85Q130.8 553.15 131.9 554.4Q133 555.65 132.9 559.7L132.6 563.45" />
<path style="fill:none;stroke-width:3;stroke-linecap:round;stroke-linejoin:miter;stroke-miterlimit:3;stroke:#AE4200;stroke-opacity:1" d="M203.4,447.85Q204.1 449.85 202.95 453.6L201.65 456.9L202.6 457.05L202.55 460.3Q202.25 463.7 201.15 464.6Q199.45 466 194.55 466.75L192.8 467Q188.75 467.3 187.2 465.85Q185.15 464 185.7 460.2Q186.25 456.6 188.1 456.05L186.85 455Q185.55 453.6 185.15 451.9Q184.7 450 186.4 447.95Q187.95 446 189.45 445.8L190.85 445.65Q193.55 445.4 196.65 445.55Q202.65 445.8 203.4 447.85M188.1,456.05L188.25 456L201.65 456.9M9,453.55L10.4 453.7Q11.9 453.9 13.45 455.85Q15.15 457.9 14.7 459.8Q14.3 461.5 13 462.9L11.75 463.95Q13.6 464.5 14.15 468.1Q14.7 471.9 12.65 473.75Q11.2 475.1 7.65 474.9L5.3 474.65L3.85 474.4Q0.15 473.7 -1.3 472.5Q-2.4 471.6 -2.7 468.2L-2.75 464.95L-1.8 464.8L-3.1 461.5Q-4.25 457.75 -3.55 455.75Q-2.8 453.7 3.2 453.45Q6.3 453.3 9 453.55M11.75,463.95L11.6 463.9L-1.8 464.8M79.15,543.8Q88.55 536.25 92.35 520.8Q85.6 520.5 78.35 518.8L79 537.05L79.15 543.8Q79.25 556.85 78.35 559.95Q77.8 561.95 75.15 562.95L78.65 562.05Q80.95 561.45 82.55 560.55Q89.25 556.9 93.55 550.15Q96.9 544.85 98.45 532.3L99.35 520.8L92.35 520.8M59.1,563.45L68.05 564.05Q72.55 563.95 75.15 562.95M138.15,563.15L137.95 563.2L137.6 563.3L132.6 563.45L123.65 564.05Q114.45 563.85 113.35 559.95Q112.25 556.1 112.7 537.05L113.35 519Q106.3 520.55 99.35 520.8" />
<path style="fill:none;stroke-width:3;stroke-linecap:round;stroke-linejoin:miter;stroke-miterlimit:3;stroke:#39481C;stroke-opacity:1" d="M194.8,491.3Q194.55 494.75 193.7 500.8Q193.25 506 194.6 509.95L165.05 506L137.7 504.1L109.65 504.6L77 505.4L60.95 507.35L51 508.85M118.65,424L118.8 423.95" />
<path style="fill:none;stroke-width:3;stroke-linecap:round;stroke-linejoin:miter;stroke-miterlimit:3;stroke:#39481C;stroke-opacity:1" d="M118.8,423.95L118.5 424" />
<path style="fill:none;stroke-width:3;stroke-linecap:butt;stroke-linejoin:miter;stroke-miterlimit:3;stroke:#39481C;stroke-opacity:1" d="M118.5,424Q85.05 433.35 52.25 428L51.3 427.85L51.2 427.65Q19.3 417.1 -11.3 412.9" />
<path style="fill:none;stroke-width:3;stroke-linecap:butt;stroke-linejoin:miter;stroke-miterlimit:3;stroke:#AE4200;stroke-opacity:1" d="M53.55,563.15L53.75 563.2" />
<path style="fill:#582903;fill-opacity:1" d="M78.3,351.65L76.55 352.55L75.75 353.1L73.55 354.35L73.3 354.3L73.25 353.9Q73.25 353.3 74.5 351.55Q75.3 349.95 77.05 348Q77.95 346.9 79.95 345.8Q80.7 345.3 82 344.8L84 344.25L84.15 344.3L84.2 344.45L83.95 344.9L83.7 345.3L83.7 345.4L86.25 344.85L86.35 345.05Q86.35 345.25 85.55 345.7L88 346.55L88.85 346.95L89.35 347.5L89.25 347.7Q85.95 348.35 83.75 349.25L79.85 350.9Q79.4 351.05 78.3 351.65M93.8,345.45L95.85 345.9L95.85 345.8L95.65 345.5L95.45 345.15L95.5 345L95.6 344.95L97.2 345.4L98.85 346.2Q100.4 347.1 101.15 347.95Q102.55 349.5 103.15 350.8Q104.15 352.2 104.15 352.65L104.15 353L103.95 353L102.2 352L101.55 351.6L100.15 350.85L98.9 350.25L95.8 348.95Q94.05 348.25 91.4 347.7L91.35 347.55L91.75 347.1L92.4 346.8L94.35 346.1L93.75 345.6L93.8 345.45" />
</g>
</svg>
