<?xml version="1.0" encoding="utf-8"?>
<svg version="1.1" id="Layer_1"
xmlns="http://www.w3.org/2000/svg"
xmlns:xlink="http://www.w3.org/1999/xlink"
xmlns:author="http://www.sothink.com"
width="180px" height="238px"
xml:space="preserve">
<g id="342" transform="matrix(1, 0, 0, 1, 3.6, -336.2)">
<path style="fill:#000000;fill-opacity:0.2" d="M55.9,554.5Q70.9 551.1 92.25 551.1Q113.5 551.1 128.5 554.5Q143.55 557.85 143.55 562.65Q143.55 567.45 128.5 570.8Q113.5 574.15 92.25 574.15Q70.9 574.15 55.9 570.8Q40.85 567.45 40.85 562.65Q40.85 557.85 55.9 554.5" />
<path style="fill:#FC850F;fill-opacity:1" d="M68.95,367.45Q66.85 361.95 64.35 356.45Q58.75 343.95 56.45 344.55Q54.15 345.15 54.45 360.65Q54.5 364.05 54.7 367.45L55.2 376.05L58.3 373.4L61.35 375.05L62.2 371.55L65.05 372.2L65.45 368.7L69.55 369.1L68.95 367.45M92,558.95L90.65 559.75Q86.2 561.9 81.5 562.6L81.8 562.25L81.45 562.05Q80.65 562.4 79.55 561.25L77.65 559.25Q76.05 557.9 75.4 556.15Q74.8 555.75 74.5 555.75L74.45 556Q74.45 556.45 75.25 557.95L76.2 559.55L77.9 561.3Q79.35 562.55 80.45 562.75L76 563L69.75 562.2Q68.05 564.4 65.25 565.25Q61.8 566.35 59.1 564.05L58.05 563L55.5 563.45Q52.7 563.45 51.75 561.15Q50.65 558.55 51.5 555.2Q52.25 552.05 53.8 551.35Q55 550.8 56.35 551.75L57.45 552.8L61 552.7L61.3 552.9Q65.15 548.35 67.9 539.8Q69.1 536 69.95 531.7Q71.2 525.65 71.8 518.6Q65.65 518.6 59.5 514.95Q53.5 511.45 48.95 505.35Q38.7 491.65 41.8 475.75Q42.6 471.75 46.15 466.45L51.1 458.8Q52.45 455.95 52.35 448.8L52 442.2L51.75 442.4Q37.6 451.85 29.85 466.15L29.15 467.6Q23.8 478.4 16.35 487.25L18.7 488.8Q21.2 490.65 21.65 491.95Q22.25 493.6 21.55 495.2Q20.9 496.85 19.2 497.5Q18 498 16.7 495Q15.5 492.2 14.75 492.75Q13.65 493.55 14.55 499.35Q15.45 505.35 13.7 507.1Q12 508.8 9.75 506.6Q9.05 509.05 6.65 509.25Q4.25 509.45 3 506.35L0.7 506.1Q-1.65 505.35 -2.05 502.95Q-2.4 500.55 -0.6 497L1.25 493.95Q5.05 480.5 14.7 467.6L18.3 463Q30.9 447.9 49.7 435.75L48.7 434.2Q46.9 430.85 45.15 424.6L43.75 419.45L41.7 410.25L37.65 410.65L43.35 399.2L35.6 401L43.75 391.4L36.6 389.75L47.05 384.65L40.9 380.75L51.2 379.35Q50.7 373.4 50.5 367.45Q50.35 363.4 50.35 359.35Q50.3 339.2 54.6 338.55Q58.9 337.95 66.8 352.75Q70.7 360.05 73.8 367.45L73.85 367.65L74.2 367.45Q75.55 366.6 77.25 365.7Q80.95 363.7 82.7 363.55Q84.25 363.45 85.9 365.05Q87.65 366.7 88.6 366.8Q89.8 366.9 92.75 366L96.4 365Q97.95 365 100.5 367.25Q103.95 360.15 108.2 353.25Q116.65 339.5 120.55 340.8Q124.45 342.1 123.2 360.5L122.65 367.45L121.2 378.7L128.75 383L120.15 386.9L131.4 392.2L122.8 394.45L127.95 396.5L123.25 401.45L126.7 404.5L123.75 416.35L123.65 416.75L123.45 416.6L116.7 415.85Q116.45 415.95 116.45 416.2L116.7 416.35L117.9 416.45L117.95 416.55L118.65 416.7L120 416.95L120.75 417.2L121.95 417.45L123.45 417.55L123.05 418.9L122.95 418.85L118.65 418.25Q117.2 418.05 117.2 418.6L117.3 418.9L118 418.95Q118.7 419.5 121.45 420.15L122.2 419.95L122.6 420.05L122.7 419.95L122.6 419.4L122.9 419.4L121.85 422.95L119.15 422.2L114.85 421.35L114.6 421.45Q114.45 421.85 115 422.1L116.55 422.7L117.45 422.9L117.55 423.05L119.35 423.8L121.3 424.35L121.45 424.35L121.4 424.6L120.7 426.8L117.25 425.9L113.2 425.4Q113.45 426.15 114.6 426.6L117.55 427.45L118.55 427.7L119.95 427.95L120.2 427.6L120.15 427.4L120.5 427.35L119.8 429.55L119.35 429.2L118.75 429L116.35 428.95L116.15 428.95L116.1 429.15L116.2 429.4L117.65 429.7Q117.95 430.05 118.8 430.05L119.15 429.9L119.6 430.05L118.5 433.05Q141.75 448.2 154.1 463L157.7 467.6Q167.35 480.5 171.15 493.95L173 497Q174.8 500.55 174.45 502.95Q174.05 505.35 171.7 506.1L169.4 506.35Q168.15 509.45 165.75 509.25Q163.35 509.05 162.65 506.6Q160.4 508.8 158.7 507.1Q156.95 505.35 157.85 499.35Q158.75 493.55 157.65 492.75Q156.9 492.2 155.7 495Q154.4 498 153.2 497.5Q151.5 496.85 150.85 495.2Q150.15 493.6 150.75 491.95Q151.2 490.65 153.7 488.8L156.05 487.25Q148.6 478.4 143.25 467.6L142.55 466.15Q134.75 451.7 120.4 442.2L121.75 449.25Q123.55 456.9 125.65 460L129.05 464Q131.7 466.95 133.2 469.35Q138.25 477.15 138.05 488.2Q137.8 502.05 126 511.5Q120.4 515.9 114.95 517.9Q115.9 526.15 117.05 531.7Q117.9 536 119.1 539.8Q121.85 548.35 125.7 552.9L126 552.7L129.55 552.8L130.65 551.75Q132 550.8 133.2 551.35Q134.75 552.05 135.5 555.2Q136.35 558.55 135.25 561.15Q134.3 563.45 131.5 563.45L128.95 563L127.9 564.05Q125.2 566.35 121.75 565.25Q118.95 564.4 117.25 562.2Q115.5 559.95 109.65 540.5L108.65 518.6L100.25 519.9L100.3 524.35L99.7 524.2L97.95 524.4L94.95 524.45Q94.6 524.45 94.6 524.8L94.9 525.3L96 525.65L98.45 525.95L99.95 525.85L100.3 525.75L100.15 531.8L99.6 531.8Q99.75 531.5 99.55 531.3L96.9 531.8L94.9 532.05L93.85 532.1L93.6 532.4L93.7 532.65L94.5 532.95L96 533.2L97.95 533.45L100.05 533.25L99.65 537.8L99.4 540.1L98.25 540.3L95.75 540.4L92.2 540L90.35 539.6L90.1 539.85L90.45 540.45L91.05 540.9L92.2 541.2L94.15 541.45L94.2 541.55L94.75 541.6L95.75 541.7L95.95 541.85L97.2 541.85L97.25 541.85L98.75 541.95L98.85 541.7L98.7 541.5L99.25 541.25Q97.25 554.45 92.4 558.6L92.35 558.6L92.2 558.45L92.35 558.3L92.45 558.1Q92.45 557.75 91.3 557.6L88.35 557.1Q86.85 556.65 85.65 555.85L83.2 554.3L82.25 553.4Q81.9 553.05 81.45 553.2Q81.45 554.4 84.85 556.7L86.25 557.3Q87.9 558.15 89.45 558.45L90.25 558.65L91.7 558.95L91.9 558.95L92 558.95M121.4,423.75L121.65 423.75L121.6 423.95L121.4 423.75M99.95,524.9L100.3 524.9L100.3 524.95L99.95 524.9M99.95,532.6L99.6 532.45L99.7 532.4L100.1 532.35L100.1 532.65L99.95 532.6M75.35,397.75L76.9 401.3Q79.6 404.9 85.2 405.3Q93.2 405.9 99.1 401.55Q104.2 397.75 104.15 393.05L104.05 391.8Q103.5 388.1 99.7 386.15Q97.35 384.95 94.35 384.8Q95.2 383.8 95.5 382.3Q96.1 379.3 93.2 376.85Q90.35 374.4 87.55 376.4Q86.15 377.45 85.35 378.95Q86.3 382.55 85.3 386.55Q83.75 387.35 82.3 388.55L83.2 387.5L84.1 386.45L84.2 386.5Q84.7 386.35 85.15 384.8L85.6 382.65L85.3 379.9L84.8 378.5L84.2 377.1L84.1 377.05L83.9 376.4L83.55 375.75L83.15 375.25L82.45 374.8L81.6 374.55L79.35 374.55L77.8 374.85L76.45 375.4L75.8 375.7Q75.35 375.95 75.25 376.1L74.3 376.9L72.65 378.45Q72.25 378.85 71.75 380.05L71.5 383.2L71.35 386.4L71.4 388.8L71.5 389.15L71.5 390.5L71.85 391.9L72.9 394.65Q73.35 396.5 74.7 397.35L74.85 397.35L77.45 394.05Q76.15 395.95 75.35 397.75M104.9,368.4L108.25 370.75L111.95 369.9L111.55 374.2L114.6 372.35L116.05 376.9L117.6 367.45L118.2 362.75Q120 348.4 118.1 347.6Q116.25 346.8 110.4 357.5Q107.7 362.45 105.35 367.45L104.9 368.4M60.15,414.95L58.1 419.75Q57.15 422.5 56.9 424.6Q56.65 426.65 57.05 428.1Q58.25 432.3 60.65 434.55Q63.55 437.3 67.3 436.05Q70.7 434.95 69.55 427.1L67.7 419.45L66.4 419.1L65.3 418.75L64 418.15L63.9 418.1L63.85 418.1Q62 416.95 60.15 414.95M44.4,418.95L44.45 419.1L44.65 419.15L44.2 419.35L44.2 419.6L44.3 419.9L45.05 419.9Q51.35 417.55 51.35 416.85L51.1 416.6Q45.8 417.75 44.45 418.8L44.4 418.95M51.7,431.35Q48.85 433.55 48.85 433.85L48.95 434.05L49.3 434.1L54.45 430.2L53.95 429.7L53.6 429.8L53.2 430.2Q52.15 430.9 51.7 431.35M51.6,427.65L50.05 428.55L49.35 429.1L48.5 429.7Q47.8 430 47.65 430.7L47.45 430.8L47.55 431.15L47.75 431.25Q47.65 431.6 47.8 431.8L48.05 431.85L51.45 429.7Q53.95 428 53.95 427.5L53.7 427.1Q52.55 427.15 51.6 427.65M56.1,431.6Q55.15 431.6 54.2 432.2L52.65 433.25Q51.3 433.9 50.2 435.45L50.65 435.65Q50.35 435.95 50.35 436.4L50.45 436.65L50.95 436.65L51.2 436.6L53.9 434.5L56.35 431.9L56.1 431.6M45.6,421.95L45.4 422.25L45.45 422.5L45.7 422.6L45.7 423.05L46.05 423.1L48.25 422.3L49.95 421.3L50.1 421.05L49.85 420.7L47.55 421.1L45.6 421.95M60.35,437.95Q58.55 438.1 57.2 439.15L56.25 439.9Q55.4 440.6 55.4 440.85L55.45 441.05L55.95 441.55L56.45 441.65L56.45 441.85L56.75 441.95L58.9 440.2L60.6 438.3L60.35 437.95M69.95,444.65Q70.75 445.15 71.6 445.15Q72.2 445.15 73.65 444.1L75.1 442.65L75 442.4L74.75 442.35Q74.7 442.35 73.8 442.85L71.35 443.3L69.75 443.15L69.4 442.95Q68.65 442.65 67.9 442.3L67.55 442.3L67.6 442.85L67.95 443.15L68.75 443.8L69.95 444.65M77.35,540.5L74.2 550.65Q89.7 542.9 92.6 520.2Q85.6 520.15 78.35 518.6L77.35 540.5M96.7,549.05L96.2 549.25L93.45 549.2Q93.1 549.2 92.9 549L91.9 548.9L91.65 548.85L90.95 548.75Q89 548.55 88.4 547.85L88.3 547.7L87.8 547.45L87.8 547.55Q88.1 548.4 88.55 548.85L88.8 549.15L89.1 549.35L89.25 549.4L89.3 549.45L89.95 549.7L92 550.55L96.6 551.3L96.7 551.25L96.65 550.9L96.45 550.8L96.55 550.35L96.85 550.15L96.95 549.95L97.1 549.95L97.35 549.7L97.1 549.45L97 549.45L97.15 549.2L97.3 549.1L97.35 548.85L97 548.55L96.7 549.05" />
<path style="fill:#E66006;fill-opacity:1" d="M69.55,369.1L65.45 368.7L65.05 372.2L62.2 371.55L61.35 375.05L58.3 373.4L55.2 376.05L54.7 367.45Q54.5 364.05 54.45 360.65Q54.15 345.15 56.45 344.55Q58.75 343.95 64.35 356.45Q66.85 361.95 68.95 367.45L69.55 369.1M105.35,367.45Q107.7 362.45 110.4 357.5Q116.25 346.8 118.1 347.6Q120 348.4 118.2 362.75L117.6 367.45L116.05 376.9L114.6 372.35L111.55 374.2L111.95 369.9L108.25 370.75L104.9 368.4L105.35 367.45" />
<path style="fill:#FF6D6B;fill-opacity:1" d="M94.35,384.8Q97.35 384.95 99.7 386.15Q103.5 388.1 104.05 391.8L104.15 393.05Q104.2 397.75 99.1 401.55Q93.2 405.9 85.2 405.3Q79.6 404.9 76.9 401.3L75.35 397.75Q76.15 395.95 77.45 394.05L80.4 390.8L82.3 388.55Q83.75 387.35 85.3 386.55Q87.55 385.35 89.95 385L94.35 384.8M80,390.75L80 390.8L79.9 390.85L80 390.75M80.2,390.6L80.1 390.65L80.6 390.1L80.2 390.6" />
<path style="fill:#FFFFFF;fill-opacity:1" d="M80.4,390.8L77.45 394.05L74.85 397.35L74.7 397.35Q73.35 396.5 72.9 394.65L71.85 391.9L71.5 390.5L71.5 389.15L71.4 388.8L71.35 386.4L71.5 383.2L71.75 380.05Q72.25 378.85 72.65 378.45L74.3 376.9L75.25 376.1Q75.35 375.95 75.8 375.7L76.45 375.4L77.8 374.85L79.35 374.55L81.6 374.55L82.45 374.8L83.15 375.25L83.55 375.75L83.9 376.4L84.1 377.05L84.2 377.1L84.8 378.5L85.3 379.9L85.6 382.65L85.15 384.8Q84.7 386.35 84.2 386.5L84.1 386.45L83.2 387.5L82.3 388.55L80.4 390.8M89.95,385Q87.55 385.35 85.3 386.55Q86.3 382.55 85.35 378.95Q86.15 377.45 87.55 376.4Q90.35 374.4 93.2 376.85Q96.1 379.3 95.5 382.3Q95.2 383.8 94.35 384.8L89.95 385M78.3,382.95L78.1 384.4Q78.1 386.1 79.45 386.85L80.45 386.85Q81.8 386.15 82.15 385.45L82.35 384.2Q81.9 381.35 80.05 381.35L78.85 381.7Q78.55 381.9 78.3 382.95M79.9,390.85L80 390.8L80 390.75L79.9 390.85M80.6,390.1L80.1 390.65L80.2 390.6L80.6 390.1M90.7,382.6Q90.7 380.85 89.1 380.45Q88.45 380.4 88 381.3Q87.6 382.05 87.6 382.6Q87.6 383.15 87.75 383.4Q88 383.85 88.85 384.35L89.7 384.35L89.7 384.25L90.1 384.2L90.65 383.3L90.7 382.6" />
<path style="fill:#FF2E28;fill-opacity:1" d="M63.85,418.1Q62.95 417.55 62.6 417.95L62.25 418.9L61.7 420.85L61.35 424.8Q61.35 428.1 62.45 430.7L62.85 430.7L62.95 430.55Q62.6 429.45 62.6 428.15Q62.6 426.9 63.1 423.4L64.2 418.5L64 418.15L65.3 418.75L66.4 419.1L67.7 419.45L69.55 427.1Q70.7 434.95 67.3 436.05Q63.55 437.3 60.65 434.55Q58.25 432.3 57.05 428.1Q56.65 426.65 56.9 424.6Q57.15 422.5 58.1 419.75L60.15 414.95Q62 416.95 63.85 418.1" />
<path style="fill:#582903;fill-opacity:1" d="M121.95,417.45L120.75 417.2L120 416.95L118.65 416.7L117.95 416.55L117.9 416.45L116.7 416.35L116.45 416.2Q116.45 415.95 116.7 415.85L123.45 416.6L123.65 416.75L123.7 416.75L123.7 417.5L123.6 417.6L123.45 417.55L121.95 417.45M122.6,419.4L122.7 419.95L122.6 420.05L122.2 419.95L121.45 420.15Q118.7 419.5 118 418.95L117.3 418.9L117.2 418.6Q117.2 418.05 118.65 418.25L122.95 418.85L123.05 418.9L123.15 418.9L123.2 419.1L123.1 419.35L122.9 419.4L122.6 419.4M121.6,423.95L121.7 424.05L121.7 424.3L121.45 424.35L121.3 424.35L119.35 423.8L117.55 423.05L117.45 422.9L116.55 422.7L115 422.1Q114.45 421.85 114.6 421.45L114.85 421.35L119.15 422.2L121.85 422.95L122.7 423.45L122.65 423.65L121.65 423.75L121.4 423.75L121.6 423.95M120.15,427.4L120.2 427.6L119.95 427.95L118.55 427.7L117.55 427.45L114.6 426.6Q113.45 426.15 113.2 425.4L117.25 425.9L120.7 426.8L120.95 427.1L120.85 427.3L120.5 427.35L120.15 427.4M119.15,429.9L118.8 430.05Q117.95 430.05 117.65 429.7L116.2 429.4L116.1 429.15L116.15 428.95L116.35 428.95L118.75 429L119.35 429.2L119.8 429.55L120 429.7L120.05 429.95L119.6 430.05L119.15 429.9M100.3,524.95L100.6 524.95L100.95 525.35L100.85 525.55L100.3 525.75L99.95 525.85L98.45 525.95L96 525.65L94.9 525.3L94.6 524.8Q94.6 524.45 94.95 524.45L97.95 524.4L99.7 524.2L100.3 524.35L100.5 524.4L100.6 524.6L100.45 524.85L100.3 524.9L99.95 524.9L100.3 524.95M100.1,532.65L100.2 532.9L100.15 533.2L100.05 533.25L97.95 533.45L96 533.2L94.5 532.95L93.7 532.65L93.6 532.4L93.85 532.1L94.9 532.05L96.9 531.8L99.55 531.3Q99.75 531.5 99.6 531.8L100.15 531.8L100.5 531.75L100.6 531.95L100.45 532.2L100.1 532.35L99.7 532.4L99.6 532.45L99.95 532.6L100.1 532.65M98.7,541.5L98.85 541.7L98.75 541.95L97.25 541.85L97.2 541.85L95.95 541.85L95.75 541.7L94.75 541.6L94.2 541.55L94.15 541.45L92.2 541.2L91.05 540.9L90.45 540.45L90.1 539.85L90.35 539.6L92.2 540L95.75 540.4L98.25 540.3L99.4 540.1L99.7 540.05L99.9 540L100.1 540.35L99.25 541.2L99.25 541.25L98.7 541.5M91.9,558.95L91.7 558.95L90.25 558.65L89.45 558.45Q87.9 558.15 86.25 557.3L84.85 556.7Q81.45 554.4 81.45 553.2Q81.9 553.05 82.25 553.4L83.2 554.3L85.65 555.85Q86.85 556.65 88.35 557.1L91.3 557.6Q92.45 557.75 92.45 558.1L92.35 558.3L92.2 558.45L92.35 558.6L92.4 558.6L92.45 558.7L92.4 558.9L92 558.95L91.9 558.95M81.5,562.6L80.85 562.8L80.45 562.75Q79.35 562.55 77.9 561.3L76.2 559.55L75.25 557.95Q74.45 556.45 74.45 556L74.5 555.75Q74.8 555.75 75.4 556.15Q76.05 557.9 77.65 559.25L79.55 561.25Q80.65 562.4 81.45 562.05L81.8 562.25L81.5 562.6M78.85,381.7L80.05 381.35Q81.9 381.35 82.35 384.2L82.15 385.45Q81.8 386.15 80.45 386.85L79.45 386.85Q78.1 386.1 78.1 384.4L78.3 382.95Q78.55 381.9 78.85 381.7M90.65,383.3L90.1 384.2L89.7 384.25L89.7 384.35L88.85 384.35Q88 383.85 87.75 383.4Q87.6 383.15 87.6 382.6Q87.6 382.05 88 381.3Q88.45 380.4 89.1 380.45Q90.7 380.85 90.7 382.6L90.65 383.3M64,418.15L64.2 418.5L63.1 423.4Q62.6 426.9 62.6 428.15Q62.6 429.45 62.95 430.55L62.85 430.7L62.45 430.7Q61.35 428.1 61.35 424.8L61.7 420.85L62.25 418.9L62.6 417.95Q62.95 417.55 63.85 418.1L63.9 418.1L64 418.15M44.45,418.8Q45.8 417.75 51.1 416.6L51.35 416.85Q51.35 417.55 45.05 419.9L44.3 419.9L44.2 419.6L44.2 419.35L44.65 419.15L44.45 419.1L44.4 418.95L44.45 418.8M53.2,430.2L53.6 429.8L53.95 429.7L54.45 430.2L49.3 434.1L48.95 434.05L48.85 433.85Q48.85 433.55 51.7 431.35Q52.15 430.9 53.2 430.2M53.7,427.1L53.95 427.5Q53.95 428 51.45 429.7L48.05 431.85L47.8 431.8Q47.65 431.6 47.75 431.25L47.55 431.15L47.45 430.8L47.65 430.7Q47.8 430 48.5 429.7L49.35 429.1L50.05 428.55L51.6 427.65Q52.55 427.15 53.7 427.1M56.35,431.9L53.9 434.5L51.2 436.6L50.95 436.65L50.45 436.65L50.35 436.4Q50.35 435.95 50.65 435.65L50.2 435.45Q51.3 433.9 52.65 433.25L54.2 432.2Q55.15 431.6 56.1 431.6L56.35 431.9M47.55,421.1L49.85 420.7L50.1 421.05L49.95 421.3L48.25 422.3L46.05 423.1L45.7 423.05L45.7 422.6L45.45 422.5L45.4 422.25L45.6 421.95L47.55 421.1M60.6,438.3L58.9 440.2L56.75 441.95L56.45 441.85L56.45 441.65L55.95 441.55L55.45 441.05L55.4 440.85Q55.4 440.6 56.25 439.9L57.2 439.15Q58.55 438.1 60.35 437.95L60.6 438.3M68.75,443.8L67.95 443.15L67.6 442.85L67.55 442.3L67.9 442.3Q68.65 442.65 69.4 442.95L69.75 443.15L71.35 443.3L73.8 442.85Q74.7 442.35 74.75 442.35L75 442.4L75.1 442.65L73.65 444.1Q72.2 445.15 71.6 445.15Q70.75 445.15 69.95 444.65L68.75 443.8M97,548.55L97.35 548.85L97.3 549.1L97.15 549.2L97 549.45L97.1 549.45L97.35 549.7L97.1 549.95L96.95 549.95L96.85 550.15L96.55 550.35L96.45 550.8L96.65 550.9L96.7 551.25L96.6 551.3L92 550.55L89.95 549.7L89.3 549.45L89.25 549.4L89.1 549.35L88.8 549.15L88.55 548.85Q88.1 548.4 87.8 547.55L87.8 547.45L88.3 547.7L88.4 547.85Q89 548.55 90.95 548.75L91.65 548.85L91.9 548.9L92.9 549Q93.1 549.2 93.45 549.2L96.2 549.25L96.7 549.05L97 548.55" />
<path style="fill:#000000;fill-opacity:0.2" d="M59.45,344.55Q61.55 347.15 62 348.25L63.8 351.65L65.65 355L68.45 361.8L70.6 365.25L71.3 367Q70.85 368.4 69.35 369.35L65.2 369.85Q64.95 370.15 65.3 370.75L65 372.5L62.45 372.4Q61.8 372.75 61.8 373.7L61.3 375.25L59.3 374.45L58 373.85L56.6 374.6L55.2 375.3L54.85 373.95L54.55 372.8L54.5 371.85Q54.4 370.1 54.1 369.65L53.8 367.25L53.8 354.5Q53.55 354.35 53.55 353.85L53.9 350.65L54.3 348.05L54.7 344.95Q55 343.2 56.35 342.2Q57.4 342.5 58.3 343.05L59.45 344.55M63.75,363.95Q63.75 361.9 62.05 356.8Q60.45 352.1 59.55 350.75Q54.7 342.3 54.7 357.1L55.15 363.8L55.2 367.85Q55.35 370.65 56.35 370.65L57.8 370.45Q59.4 368.6 59.8 367.25Q60.75 367.55 61.45 366.3L62.1 364.7L62.3 365.2Q62.45 365.4 63 365.4Q63.65 365.4 63.75 364.9L63.75 363.95M59.1,431.9Q57.35 428.3 57.35 426.1L57.45 422.6Q57.65 421.05 58.2 420.2L58.65 419.35L58.4 418.3L58.6 418Q59.55 416.6 60.25 416Q60.8 416.75 62.45 417.7L65.25 419.2L67.05 420.35Q68.4 421.4 68.75 422.8L69 423.9L68.95 424.05Q68.95 424.35 69.1 424.5L69.4 426.3L70 430.5L69.7 432.65Q69.35 434.1 69.35 434.55L69.55 434.9L69.45 435.05L68.6 435.8L68.5 435.9L69.35 436.55L70.2 435.8L71.65 436.25L75.2 437.2L86.45 437.2L91.6 436.2L94.05 435.6L95.8 435.15L102.2 433.8L105.05 432.9Q107.6 432.25 111.35 430.4L116.85 427.45Q118.95 426.35 121.05 424.05L121.95 423L122.7 423.45L122.65 423.65L121.65 423.75L121.6 423.95L121.7 424.05L121.7 424.3L121.45 424.35L121.4 424.6L120.7 426.8L120.95 427.1L120.85 427.3L120.5 427.35L119.8 429.55L120 429.7L120.05 429.95L119.6 430.05L118.5 433.05L119.85 433.95Q119.3 434.2 118.9 434.95L118.2 436.7L117.25 438.6L116.15 440.35Q111.7 444.8 107.65 446.5Q101.45 449.05 92.2 451.8Q79.45 455.6 71.9 456L68.05 456L62.1 456.25Q59.1 457.5 56.95 461L53.05 467.45Q51.05 470.75 50.4 474.15Q49.9 476.6 49.9 480.6Q49.9 484 50.65 487.15Q51.95 492.35 53.15 493.55L54.2 495.3Q56.25 498.35 59.15 499.9Q64.4 502.75 65.9 503.2Q70.95 504.65 84.85 505.75L97.25 505.75L107.05 504.4Q114.35 503.2 119.2 501.1Q122.75 499.65 126.25 498.15Q130.25 496.35 132.45 494.65Q134.55 493 136.45 490.65L138.05 488.5Q137.65 502.15 126 511.5Q120.4 515.9 114.95 517.9L115 518.4Q114.65 518.05 114 518.15Q112.75 518.25 112.55 519.9L112.15 523.7Q112.15 533.9 114.05 541.9Q115.25 546.95 118.4 551.05L119.9 553.4L121.2 555.6L123.05 558.65Q124.15 560.15 126.4 560.15Q128.2 560.15 129.1 559.45Q130 558.7 130.4 558.7L133.05 558.75Q134.85 557.75 135.75 556.2Q136.2 558.95 135.25 561.15Q134.3 563.45 131.5 563.45L128.95 563L127.9 564.05Q125.2 566.35 121.75 565.25Q118.95 564.4 117.25 562.2Q115.5 559.95 109.65 540.5L108.65 518.6L100.25 519.9L100.3 522.1Q99.9 522.1 99.5 522.35L98.3 522.75L97.45 523.15Q96.8 523.7 96.35 526.15L95.5 529Q94.9 530.9 94.75 531.95Q93.7 537.7 91.7 543.6L89.35 549.5Q87.75 552.7 85.3 555.25L81.75 557.75L77.5 560.35L73.6 562.7L69.75 562.2Q68.05 564.4 65.25 565.25Q61.8 566.35 59.1 564.05L58.05 563L55.5 563.45Q52.7 563.45 51.75 561.15Q50.8 558.9 51.35 556.05L52.15 556.75L54.15 557.85L58 558.65L59.8 559.1L61.15 559.35Q69.05 559.35 72.7 541.85Q73.85 536.25 74.45 529.5L74.8 523.25Q74.8 518.5 73.65 518L73 518Q72.5 518 72.5 518.9L72.5 518.95Q71.8 519.15 71.7 520.05L71.8 518.6Q65.65 518.6 59.5 514.95Q53.5 511.45 48.95 505.35Q38.7 491.65 41.8 475.75Q42.6 471.75 46.15 466.45L51.1 458.8Q52.45 455.95 52.35 448.8L52 442.2L51.75 442.4L50.3 443.4L51.1 442.05L50.5 441.75L50.9 441.4L51.75 440.85L51.2 440.4Q47.25 440.85 43.15 444.2L37.05 449.7L30.8 454.95Q27.3 458 24.95 460.5Q21.3 464.25 16.85 471.1Q14.9 474.1 13.65 476.55Q10.4 481.85 10.4 489.85Q10.4 490.6 10.7 491.8L11 494.3L10.9 496.9Q10.8 499.4 11 500.65L11.65 503.8Q11.7 504.35 12.25 505.5Q12.85 506.9 13.3 506.9Q14.2 506.9 14.25 505.7L14.15 504.25Q14.8 503.7 14.85 502.25Q15 505.8 13.7 507.1Q12 508.8 9.75 506.6Q9.05 509.05 6.65 509.25Q4.25 509.45 3 506.35L0.7 506.1Q-1.65 505.35 -2.05 502.95Q-2.4 500.55 -0.6 497L1.25 493.95Q5.05 480.5 14.7 467.6L18.3 463Q30.9 447.9 49.7 435.75L48.7 434.2Q46.9 430.85 45.15 424.6L43.75 419.45L41.7 410.25L37.65 410.65L43.35 399.2L35.6 401L43.75 391.4L36.6 389.75L47.05 384.65L40.9 380.75L50.5 379.45L51.4 380.4L51.95 380.4L52.5 379.9L52.5 379.95L53.2 381.1L53.9 381.65L54.45 382.25Q52.75 383.1 52.75 383.65L53.4 384.65Q54 385.4 54 385.85Q54 386.85 52.35 388.05Q50.65 389.3 50.65 390.1Q50.65 390.65 51.95 391.75Q53.2 392.85 53.2 393.25L52.45 395Q51.7 396.25 51.7 396.4Q51.7 396.75 52 396.85L52.7 397.45L51.25 399.1Q50.05 400.55 50.05 401.2Q50.05 401.6 51.4 403.55Q52.75 405.5 52.75 406.4L52.45 407.35Q52.15 408 52.15 408.45Q52.15 409.25 52.7 409.85Q53.2 410.5 53.2 411.2L52.75 413.25Q52.75 414 53.15 414.65L54 416.65L54.25 418.4Q54.6 419.5 55.8 420.05L56.45 420.05L56.5 420.05L56.65 420.25L56.55 421L56.15 426.2Q56.15 427.7 56.7 429.2L58.1 432.35L59.2 434.4Q59.65 434.35 60.2 434.65L61.55 435.5L62.35 436Q60.5 434.8 59.1 431.9M74.55,375.05Q76.25 374.15 79.75 373.75Q83 373.9 84.3 375.4L85.6 377.6L87.05 376.35Q88.55 375.2 90.35 375.2Q91.55 375.2 92.4 375.9L93.65 376.8Q94.75 378 95.25 379.4Q95.7 380.75 95.55 381.85L95.35 382.95Q95.35 383.65 95.9 384.3Q96.2 384.65 97.55 385.1Q98.95 385.55 99.3 385.9L99.95 386.5L98.25 385.7Q93.75 384.25 85.3 387.35Q82.55 388.35 80.3 390.6Q77.9 392.95 77.9 395Q77.9 396.15 78.85 397.3Q80.4 399.2 83.75 399.2L90.85 398.65Q95.15 397.75 97.9 395.35L99.95 393.2Q101.65 391.05 101.65 389.6Q101.65 388.5 101.15 387.7Q102.9 389.55 103.6 391.2Q104.4 393 104.4 396.1Q104.4 397.25 103.25 400.65Q102 404.25 101 405.4Q95.95 411.3 89.25 413.15L84.15 413.15Q79.55 411.6 78 410.65Q75.85 409.35 75.6 407.35L75.1 403.55L74.4 399.8L73.4 395.95Q72.7 393.75 71.45 392.25L68.25 388.55Q66.05 386.65 62.45 385.75Q64.55 384.35 67.45 381.15Q70.3 377.95 71.75 377L74.55 375.05M74.15,381.8Q74.15 387.1 78.55 387.1Q81.65 387.1 83.5 384.55Q84.85 382.7 84.85 381.15L84.8 379.1Q84.65 377.9 84.15 377Q83.55 375.7 82.05 374.85Q80.4 373.9 78.8 374.15Q74.15 374.85 74.15 381.8M118.6,343.95Q116.75 344.95 116.2 345.6Q114.6 347.2 112.95 350.05L109.85 354.5Q107.9 357.3 107.25 358.85L105.2 362.9Q103.35 366.65 103.35 367.65L103.4 367.95L103.05 367.6Q101.85 366.45 101.85 365.8L102 364.95L101.95 364.4Q104.8 358.75 108.2 353.25Q116.65 339.5 120.55 340.8Q123.4 341.75 123.5 352L123.3 349.8L123.05 347.6L121.55 345.4L120.15 344.25Q119.2 343.55 118.6 343.95M117.2,350.9Q117 349.85 116.25 349.45L115.2 349.45Q114.3 350.1 113.45 351.4L114.55 349.65L115.9 347.55Q117.45 345.55 118.9 345.55Q120.65 345.55 121.15 349.1L121.35 353.05Q121.35 356.5 120.1 365.55Q119.15 372.45 118.95 375.65L116.8 377.3Q115.5 374.05 114.55 373.05L113.85 373.05L112.65 373.75Q111.8 374.3 111.2 374.35L111.05 374.15L111.7 371.25L111.25 370.25Q110.95 370.1 109.85 370.6L108.3 371.05L108.25 371.05L106.95 370.1Q105.6 369.35 104.25 369.1L104.4 368.9L104.1 368.6L104.85 367.35L105.5 365.85Q107.3 363.25 107.3 362.65Q107.3 359.5 111.6 354.05L112.95 352.1L112.4 353.1L110.4 357.25L108.4 361.3Q106.7 364.1 106.7 365.4L106.7 365.95Q106.8 366.45 107.45 366.45Q108.55 366.45 108.95 366Q109.35 365.55 109.9 365.55L110.2 365.8L111.25 365.65L112.35 364.5L112.4 364.8L112.5 365.15L112.9 365.85Q114.55 364.95 116 359.6Q117.25 355 117.25 352.4L117.2 350.9M93.25,377.45Q92.35 376.15 89.8 375.7Q86.95 376.75 86.95 379.3L87.05 380.3L88 381.75Q88.6 381.95 89.05 382.25L90.85 382.45Q93.85 382.45 93.85 379.6Q93.85 378.25 93.25 377.45M121.2,377.7L121 377.7L121.3 375.6L122.2 367.15L123.15 359.85L123.35 358.1L123.2 360.5L122.65 367.45L121.35 377.9L121.2 377.7M171.2,494L173 497Q174.8 500.55 174.45 502.95Q174.05 505.35 171.7 506.1L169.4 506.35Q168.15 509.45 165.75 509.25Q163.35 509.05 162.65 506.6Q160.4 508.8 158.7 507.1Q156.95 505.35 157.85 499.35Q158.75 493.55 157.65 492.75Q156.9 492.2 155.7 495Q154.4 498 153.2 497.5Q151.5 496.85 150.85 495.2Q150.15 493.6 150.75 491.95Q151.2 490.65 153.7 488.8L156.05 487.25Q148.6 478.4 143.25 467.6L142.55 466.15Q135.35 452.8 122.55 443.7L122.45 443.3L121.75 441.25Q123.85 441.7 126.75 443.55Q128.85 444.9 130.65 446.4L133.5 449.35L137.35 453.05Q140.75 455.85 144.15 460.15L147 463.65L149.55 467.2L153.75 474.3L157.9 481.2L159.8 484.7L161.3 488.1Q161.3 489 161.6 490.1L161.9 493.25L161.6 496.5Q161.25 498.2 161.25 499.45L161.3 499.65L161.25 501.2L161.25 503Q161.45 504.8 162.5 504.8Q163.05 504.8 163.65 502.5L164.2 499.65L163.95 497.95L163.65 497.2L163.7 497.25L164.4 497.45L165.65 497.2L166.65 499.75L167.1 500.6L167.2 501.7Q167.65 504.8 168.4 504.8Q168.95 504.8 169.25 503.45L169.45 501.5L169.15 498.9L169.5 498.75L170.05 498.15Q170.55 498.15 170.45 498.3L171 499.25L171.55 500.3L171.75 501.4Q172.1 502.3 172.8 502.3Q173.25 502.3 173.35 501.95L173.4 501.05Q173.4 500.1 173 498.85L172.15 496.6Q171.75 495.45 170.55 494.4L171.2 494M118.45,407.55L117.3 410.55Q116.25 412.4 114.5 413.4Q109.6 416.1 104.7 417.7Q98.15 420.35 95.5 421.1Q82.75 424.4 75.75 424.4L70.5 423.55L70.1 423.55L70.05 423.3L69.6 423.25L69.1 422.3L68.7 421.05Q68.7 420.65 69 420.5Q68.1 419.4 66.25 418.3L66.2 418.25L68.1 418.65L82.5 419.3L88.55 419L93.8 418.5Q96.25 418.1 96.85 417.7Q97.75 417.1 101.05 416.15L105.55 414.9Q109.35 413.55 112.75 411.6Q116.3 409.55 118.35 407.45L118.45 407.55M60.35,397.75L60.15 399.4L59.9 401.05L59.3 407.65Q59.3 410.1 59.45 410.95Q59.65 412.55 60.6 414.45L61.35 415.45L60.45 414.8L59.8 414.8L58.2 416.7L57.7 414.15Q57.15 411.9 57.15 411.05Q57.15 405.4 57.75 403.3L58.85 399.35Q59.15 398.35 60.3 396.85L60.4 396.75L60.35 397.75M59.1,422.85Q58.85 423.5 58.85 426.05L58.95 428.5Q59.4 431.1 61.1 431.1L62.25 430.55Q61.8 429.5 61.85 427.25Q61.95 425.05 61.45 424.1Q61.15 423.15 60.45 422.5Q59.55 421.6 59.1 422.85M47.2,438.2L46.3 438.2Q46.05 438.3 46.05 438.7L46.6 439.35Q47.3 439.1 47.3 438.6L47.2 438.2M64.1,432Q64.2 432.65 64.85 433.55Q65.6 434.5 66.2 434.5Q67.65 434.5 68.1 432.7L68.3 430.25Q68.3 426 66.2 424.85Q64.1 423.7 64.1 429.65L64.1 432M15,491.2L15.05 489.9L15.4 490.25Q16.8 491.6 17.5 493.85Q18.2 496.3 19.3 497.45Q19.95 497.2 20 496.75L20.1 496.15Q20.7 496.35 21.05 496.15Q20.35 497.05 19.2 497.5Q18 498 16.7 495Q15.6 492.45 14.9 492.7Q14.8 492 15 491.2M20.25,490.35L20.25 490.1Q21.35 491.1 21.65 491.95Q22.25 493.6 21.55 495.2L21.55 495.15L21.5 493.65L20.9 492.25Q20.3 490.95 20.25 490.35M77.35,540.5L74.2 550.65Q89.7 542.9 92.6 520.2Q85.6 520.15 78.35 518.6L77.35 540.5" />
<path style="fill:#FFFFFF;fill-opacity:0.4" d="M90,385.45L93.7 385.45Q97.3 385.5 99.1 386.9Q100.35 387.85 100.35 388.95Q100.35 390.35 97.95 392.05Q97.05 392.65 94.3 393.2L88.45 394.25L84.95 394.25Q82.3 393.65 81.35 393.1Q80.4 392.6 80.4 391.65Q80.4 390.3 83.4 388.15Q84.9 387.05 86 386.55L87.2 385.9L90 385.45" />
<path style="fill:none;stroke-width:2;stroke-linecap:round;stroke-linejoin:miter;stroke-miterlimit:3;stroke:#AE4200;stroke-opacity:1" d="M69.55,369.1L65.45 368.7L65.05 372.2L62.2 371.55L61.35 375.05L58.3 373.4L55.2 376.05L54.7 367.45Q54.5 364.05 54.45 360.65Q54.15 345.15 56.45 344.55Q58.75 343.95 64.35 356.45Q66.85 361.95 68.95 367.45L69.55 369.1M105.35,367.45Q107.7 362.45 110.4 357.5Q116.25 346.8 118.1 347.6Q120 348.4 118.2 362.75L117.6 367.45L116.05 376.9L114.6 372.35L111.55 374.2L111.95 369.9L108.25 370.75L104.9 368.4L105.35 367.45" />
<path style="fill:none;stroke-width:3;stroke-linecap:butt;stroke-linejoin:miter;stroke-miterlimit:3;stroke:#AE4200;stroke-opacity:1" d="M120.4,442.2L121.75 449.25Q123.55 456.9 125.65 460L129.05 464Q131.7 466.95 133.2 469.35Q138.25 477.15 138.05 488.2Q137.8 502.05 126 511.5Q120.4 515.9 114.95 517.9Q115.9 526.15 117.05 531.7Q117.9 536 119.1 539.8Q121.85 548.35 125.7 552.9M29.85,466.15L29.15 467.6Q23.8 478.4 16.35 487.25L18.7 488.8Q21.2 490.65 21.65 491.95Q22.25 493.6 21.55 495.2Q20.9 496.85 19.2 497.5Q18 498 16.7 495Q15.5 492.2 14.75 492.75Q13.65 493.55 14.55 499.35Q15.45 505.35 13.7 507.1Q12 508.8 9.75 506.6" />
<path style="fill:none;stroke-width:3;stroke-linecap:round;stroke-linejoin:miter;stroke-miterlimit:3;stroke:#AE4200;stroke-opacity:1" d="M49.7,435.75L48.7 434.2Q46.9 430.85 45.15 424.6L43.75 419.45L41.7 410.25L37.65 410.65L43.35 399.2L35.6 401L43.75 391.4L36.6 389.75L47.05 384.65L40.9 380.75L51.2 379.35Q50.7 373.4 50.5 367.45Q50.35 363.4 50.35 359.35Q50.3 339.2 54.6 338.55Q58.9 337.95 66.8 352.75Q70.7 360.05 73.8 367.45M162.65,506.6L164.05 504.85Q165 503.35 164.5 499.75L163.85 496.45M169.4,506.35Q170.45 504.3 170 500.8L168.75 495.85M92.6,520.2Q85.6 520.15 78.35 518.6L77.35 540.5M9.75,506.6L8.35 504.85Q7.4 503.35 7.9 499.75L8.55 496.45M125.7,552.9Q124.7 553.65 123.8 554.6" />
<path style="fill:none;stroke-width:2;stroke-linecap:round;stroke-linejoin:miter;stroke-miterlimit:3;stroke:#993127;stroke-opacity:1" d="M94.35,384.8Q97.35 384.95 99.7 386.15Q103.5 388.1 104.05 391.8L104.15 393.05Q104.2 397.75 99.1 401.55Q93.2 405.9 85.2 405.3Q79.6 404.9 76.9 401.3L75.35 397.75Q76.35 395.5 78.15 393.05L79 391.9Q81.95 388.3 85.3 386.55" />
<path style="fill:none;stroke-width:2;stroke-linecap:round;stroke-linejoin:miter;stroke-miterlimit:3;stroke:#582903;stroke-opacity:1" d="M71.55,391.9L72.25 393.05Q74.35 396.85 75.3 402.7M67.7,419.45L75.1 420.25L78.55 420.3L81.25 420.25Q91 419.85 102.85 416.1Q108.5 414.3 112.1 412.5Q117.55 409.75 118.3 407Q118.5 406.3 115.35 405.75L112.15 405.35" />
<path style="fill:none;stroke-width:2;stroke-linecap:round;stroke-linejoin:miter;stroke-miterlimit:3;stroke:#AE4200;stroke-opacity:1" d="M94.35,384.8L94.35 385.05" />
<path style="fill:none;stroke-width:3;stroke-linecap:round;stroke-linejoin:miter;stroke-miterlimit:3;stroke:#AE4200;stroke-opacity:1" d="M73.8,367.45L73.85 367.65L74.2 367.45Q75.55 366.6 77.25 365.7Q80.95 363.7 82.7 363.55Q84.25 363.45 85.9 365.05Q87.65 366.7 88.6 366.8Q89.8 366.9 92.75 366L96.4 365Q97.95 365 100.5 367.25Q103.95 360.15 108.2 353.25Q116.65 339.5 120.55 340.8Q124.45 342.1 123.2 360.5L122.65 367.45L121.2 378.7L128.75 383L120.15 386.9L131.4 392.2L122.8 394.45L127.95 396.5L123.25 401.45L126.7 404.5L123.75 416.35L121.4 424.6L118.5 433.05M142.55,466.15Q134.75 451.7 120.4 442.2M51.75,442.4Q37.6 451.85 29.85 466.15M77.35,540.5L74.2 550.65M3.65,495.85L2.4 500.8Q1.95 504.3 3 506.35M63.2,554.6L61.3 552.9" />
<path style="fill:none;stroke-width:3;stroke-linecap:round;stroke-linejoin:miter;stroke-miterlimit:3;stroke:#AE4200;stroke-opacity:1" d="M9.75,506.6Q9.05 509.05 6.65 509.25Q4.25 509.45 3 506.35L0.7 506.1Q-1.65 505.35 -2.05 502.95Q-2.4 500.55 -0.6 497L1.25 493.95Q5.05 480.5 14.7 467.6L18.3 463Q30.9 447.9 49.7 435.75L51.75 438.2L52.95 439.35L57.55 443.05L61.85 445.9Q69.65 450.65 74.1 451.6L82.6 450.95Q89.25 449.8 96.25 447.6Q114.6 441.95 117.5 435.45L118.5 433.05Q141.75 448.2 154.1 463L157.7 467.6Q167.35 480.5 171.15 493.95L173 497Q174.8 500.55 174.45 502.95Q174.05 505.35 171.7 506.1L169.4 506.35Q168.15 509.45 165.75 509.25Q163.35 509.05 162.65 506.6M125.7,552.9L126 552.7L129.55 552.8L130.65 551.75Q132 550.8 133.2 551.35Q134.75 552.05 135.5 555.2Q136.35 558.55 135.25 561.15Q134.3 563.45 131.5 563.45L128.95 563L127.9 564.05Q125.2 566.35 121.75 565.25Q118.95 564.4 117.25 562.2Q115.5 559.95 109.65 540.5L108.65 518.6L100.25 519.9L100.3 525.35Q100.25 532 99.65 537.8Q97.6 556.4 90.65 559.75Q83.7 563.1 76 563L69.75 562.2Q68.05 564.4 65.25 565.25Q61.8 566.35 59.1 564.05L58.05 563L55.5 563.45Q52.7 563.45 51.75 561.15Q50.65 558.55 51.5 555.2Q52.25 552.05 53.8 551.35Q55 550.8 56.35 551.75L57.45 552.8L61 552.7L61.3 552.9M74.2,550.65Q89.7 542.9 92.6 520.2L100.25 519.9M74.2,550.65L73.9 551.65Q70.9 560.7 69.75 562.2M58.05,563Q56.3 560.95 56.1 558.15Q55.95 555.1 57.45 552.8M129.55,552.8Q131.05 555.1 130.9 558.15Q130.7 560.95 128.95 563" />
<path style="fill:none;stroke-width:3;stroke-linecap:butt;stroke-linejoin:miter;stroke-miterlimit:3;stroke:#AE4200;stroke-opacity:1" d="M162.65,506.6Q160.4 508.8 158.7 507.1Q156.95 505.35 157.85 499.35Q158.75 493.55 157.65 492.75Q156.9 492.2 155.7 495Q154.4 498 153.2 497.5Q151.5 496.85 150.85 495.2Q150.15 493.6 150.75 491.95Q151.2 490.65 153.7 488.8L156.05 487.25Q148.6 478.4 143.25 467.6L142.55 466.15M61.3,552.9Q65.15 548.35 67.9 539.8Q69.1 536 69.95 531.7Q71.2 525.65 71.8 518.6Q65.65 518.6 59.5 514.95Q53.5 511.45 48.95 505.35Q38.7 491.65 41.8 475.75Q42.6 471.75 46.15 466.45L51.1 458.8Q52.45 455.95 52.35 448.8L52 442.2L51.75 442.4M118.5,433.05L117.55 432.45" />
<path style="fill:none;stroke-width:2;stroke-linecap:round;stroke-linejoin:miter;stroke-miterlimit:3;stroke:#582903;stroke-opacity:1" d="M85.3,386.55Q86.3 382.55 85.35 378.95L84.4 376.65Q82.8 374.05 79.1 374.1Q75.2 374.15 73.15 377.25Q71.1 380.3 71.15 386.4Q71.15 389.45 71.55 391.9M85.35,378.95Q86.15 377.45 87.55 376.4Q90.35 374.4 93.2 376.85Q96.1 379.3 95.5 382.3Q95.2 383.8 94.35 384.8M60.15,414.95Q62.75 417.8 65.3 418.75L66.4 419.1L67.7 419.45L69.55 427.1Q70.7 434.95 67.3 436.05Q63.55 437.3 60.65 434.55Q58.25 432.3 57.05 428.1Q56.65 426.65 56.9 424.6Q57.15 422.5 58.1 419.75L60.15 414.95" />
<path style="fill:none;stroke-width:2;stroke-linecap:butt;stroke-linejoin:miter;stroke-miterlimit:3;stroke:#582903;stroke-opacity:1" d="M71.55,391.9Q67.7 386.05 60.75 386.1" />
<path style="fill:none;stroke-width:2;stroke-linecap:round;stroke-linejoin:miter;stroke-miterlimit:3;stroke:#993127;stroke-opacity:1" d="M85.3,386.55Q87.55 385.35 89.95 385L94.35 384.8" />
<path style="fill:none;stroke-width:2;stroke-linecap:round;stroke-linejoin:miter;stroke-miterlimit:3;stroke:#582903;stroke-opacity:1" d="M61.15,394.7L59.6 403.65Q59.05 407.75 59.15 410.45Q59.15 413.85 60.15 414.95" />
<path style="fill:#582903;fill-opacity:1" d="M80.1,361.95Q81.4 361.5 82.1 361.4L82.25 361.45L82.3 361.6L82.05 362.05L81.8 362.45L81.8 362.55L84.35 362L84.45 362.2L83.65 362.85L86.1 363.7L86.95 364.1L87.45 364.65L87.35 364.85Q84.05 365.5 81.85 366.4L77.95 368.05L76.4 368.8L74.65 369.7L73.85 370.25L71.65 371.5L71.4 371.45L71.35 371.05Q71.35 370.45 72.6 368.7Q73.4 367.1 75.15 365.15Q76.05 364.05 78.05 362.95Q78.8 362.45 80.1 361.95M102.25,370.15L102.05 370.15L100.3 369.15L99.65 368.75L98.25 368L97 367.4L93.9 366.1Q92.15 365.4 89.5 364.85L89.45 364.7L89.85 364.25L90.5 363.95L92.45 363.25L91.85 362.75L91.9 362.6L93.95 363.05L93.95 362.95L93.75 362.65L93.55 362.3L93.6 362.15L93.7 362.1L95.3 362.55L96.95 363.35Q98.5 364.25 99.25 365.1Q100.65 366.65 101.25 367.95Q102.25 369.35 102.25 369.8L102.25 370.15" />
</g>
</svg>
