<?xml version="1.0" encoding="utf-8"?>
<svg version="1.1" id="Layer_1"
xmlns="http://www.w3.org/2000/svg"
xmlns:xlink="http://www.w3.org/1999/xlink"
xmlns:author="http://www.sothink.com"
width="164px" height="280px"
xml:space="preserve">
<g id="347" transform="matrix(1, 0, 0, 1, -6.05, -294)">
<path style="fill:#000000;fill-opacity:0.2" d="M73.65,557.85Q82.95 555.2 96.15 555.2Q109.4 555.2 118.6 557.85Q127.95 560.45 127.95 564.15Q127.95 567.85 118.6 570.4Q109.4 573.05 96.15 573.05Q82.95 573.05 73.65 570.4Q64.3 567.85 64.3 564.15Q64.3 560.45 73.65 557.85" />
<path style="fill:#FC850F;fill-opacity:1" d="M61.5,301.85Q59.35 302.45 59.65 318.7L59.85 325.45L59.85 325.8L59.95 327.85L60.35 334.8L63.25 332.05L66.1 333.75L66.9 330.1L69.55 330.8L69.9 327.1L73.75 327.55L73.2 325.8L73.1 325.45L68.9 314.3Q63.65 301.2 61.5 301.85M122.5,564.45Q119.95 565.5 118.3 563.4Q115.45 559.8 115.45 532.45L115.85 504.65Q109.6 506.55 103.05 507.4L98.45 512.65Q94.25 516.85 90.6 518.75L90.4 518.25L91.1 518.45L91.5 517.9L91.4 517.6Q90.5 517.3 88.3 515.65Q86.3 514.2 85.05 514L85 514.25L85.55 515.4L87.8 517.25Q89.2 518.4 90.35 518.9L88.25 519.75Q84.8 520.9 80.7 520.8L77.3 520.45L77.55 532.5Q77.55 559.85 74.7 563.45Q72.15 566.75 67.3 562.25L68.35 563.05Q69.6 564 70.85 564.5L72.35 564.65Q72.35 564.5 72.85 564.4L73.2 563.7L73.25 563.25Q73.25 560.85 71.75 557.9L68.45 552.7L67.45 551.55L66.85 550.8L66.4 550.2L65.2 549.05L63.45 547.8L61.45 548.05Q59.95 548.5 59.45 549.3Q58.3 551.1 58.3 551.9Q58.3 552.6 59.1 553.6L60.15 555L58.8 555.95Q56.25 557.35 54.45 556.45Q53 555.75 52.35 554.7Q51.6 553.5 51.65 551.45L52.15 548.05Q51.3 546.9 51.15 545.45Q50.9 543.1 53.35 541.6L55.85 540.55L55.85 540.3L55.85 540.1Q56.1 537.45 58.7 535.8Q61.65 533.9 64.45 536.4Q66.55 538.25 67.95 541.75Q69.55 531.8 69.85 518.8L69.85 517.9Q67.25 516.7 64.2 514.45Q61.2 512.25 59.2 509.95Q59.5 509 61.55 506.2Q63.95 502.9 63.95 502.45L63.9 502.2L63.35 502.2L60.05 505.35Q57.95 507.45 57.95 507.7L58.2 507.95L58.9 507.5L58.9 507.55L58.45 508.35L58.55 508.65L58.8 508.7L59.2 508.75L58.7 509.35Q57 507.25 56.05 505.05Q54.3 500.85 54.85 495.55L55.75 491.1Q49.3 481.5 51.35 467.85Q58.25 434.35 56.65 408.2Q54.7 404 51.9 399.85Q46.35 391.5 42.3 391.8Q38.25 392.1 36.3 403.75L35.8 407.35Q35.3 411.35 35.15 415.35L38.4 416.5Q41.8 418.15 42.5 420.5Q43.3 423.3 41.85 426Q40.35 428.65 38.4 428.05Q37.3 427.7 35.4 424.25Q33.7 421.25 32.05 421.7Q30.5 422.15 31.15 427.3Q31.8 432.85 30.55 433.95Q28.25 436.05 25.35 436.05Q22.75 436.05 21.35 434L19.5 435.35Q17.25 436.55 15.4 435.6Q13.9 434.8 13.05 433Q12.25 431.2 12.35 429L10.25 427Q8.2 424.6 8.4 422.7Q8.6 420.5 10.15 418.7Q11.65 416.95 13.65 416.2Q14.45 415.9 16.4 416.9L18.15 418L20.85 407.35L21.7 404.3Q25.9 389.75 29 385.45Q31.85 381.45 35.1 379.65Q38.05 378 40.9 378.3Q44.05 378.65 48.2 383.65L51.75 388.55L51.15 386.35L50.95 385.65L50.8 385.05L49.65 380.25L47.75 370.65L43.95 371.05L49.3 359.05L42.05 360.95L49.65 350.9L42.95 349.15L52.75 343.85L47 339.75L56.6 338.3L56.45 335.8L56.05 327.85L55.95 325.8L55.95 325.45Q55.8 321.4 55.8 317.35Q55.75 296.25 59.8 295.55Q63.8 294.9 71.15 310.4Q74.7 317.9 77.55 325.45L77.7 325.8L77.75 326L78.1 325.8L78.65 325.45Q79.65 324.7 80.95 324Q84.4 321.9 86 321.75Q87.45 321.6 89 323.3Q90.65 325.05 91.55 325.15Q92.65 325.25 95.4 324.3Q98.25 323.25 98.8 323.25Q100.2 323.25 102.5 325.45L102.65 325.6L102.75 325.45Q105.9 318.1 109.85 310.95Q117.7 296.55 121.35 297.9Q125 299.25 123.85 318.55L123.35 325.45L123.3 325.8L123.15 327.85L122.2 335.8L121.95 337.6L129 342.1L121 346.2L131.5 351.75L123.45 354.1L128.25 356.25L123.9 361.4L127.1 364.6L124.35 377.05L123.45 380.75L123.4 380.6L122.95 380.55L122.95 380.4L123.45 380.35L123.6 380.05L123.35 379.75L117.1 379Q116.75 378.9 116.75 379.35L116.95 379.7L118.95 380.3L122.35 381.1L123.2 381.1L123.4 381L122.35 385.05L122.15 385.65L122.1 385.9L121.75 385.5L117.1 384.5Q115 384.1 115 384.7L115.1 384.95L116.35 385.6L118.35 386.2L121.75 387.1L120.55 391.35L127.6 383.65Q131.75 378.65 134.9 378.3Q137.75 378 140.7 379.65Q143.95 381.45 146.8 385.45Q149.9 389.75 154.1 404.3L154.95 407.35L157.65 418L159.4 416.9Q161.35 415.9 162.15 416.2Q164.15 416.95 165.65 418.7Q167.2 420.5 167.4 422.7Q167.6 424.6 165.55 427Q164.5 428.2 163.45 429Q163.55 431.2 162.75 433Q161.9 434.8 160.4 435.6Q158.55 436.55 156.3 435.35L154.45 434Q153.05 436.05 150.45 436.05Q147.55 436.05 145.25 433.95Q144 432.85 144.65 427.3Q145.3 422.15 143.75 421.7Q142.1 421.25 140.4 424.25Q138.5 427.7 137.4 428.05Q135.45 428.65 133.95 426Q132.5 423.3 133.3 420.5Q134 418.15 137.4 416.5L140.65 415.35L140 407.35L139.5 403.75Q137.55 392.1 133.5 391.8Q129.45 391.5 123.95 398.7Q121.15 402.25 119.2 405.9L120.75 417.45Q122.55 429.85 123.85 434.2Q124.9 437.7 132.7 450.85Q139.8 464.6 139.25 474.1Q138.75 482.55 130.95 493.6Q127.05 499.15 123.25 503Q123 511.35 123.15 518.75Q123.45 531.75 125.05 541.7Q126.45 538.2 128.55 536.35Q131.35 533.85 134.3 535.75Q136.9 537.4 137.15 540.05L137.15 540.25L137.15 540.5L139.65 541.55Q142.1 543.05 141.85 545.4Q141.7 546.85 140.85 548L141.35 551.4Q141.4 553.45 140.65 554.65Q140 555.7 138.55 556.4Q136.75 557.3 134.2 555.9L132.15 554.45Q133.85 552 133.85 550.6Q133.85 549.25 132.5 548Q131.3 547.15 130.75 546.85L127.95 546.75Q127 546.95 126.25 547.65L125.15 549Q123.95 550.3 123.35 551.55L120.6 556.75Q119.5 559.2 119.5 561.7L119.6 563.15Q119.7 563.55 120.35 563.95Q121.1 564.45 122.05 564.45L122.5 564.45M121.85,386.35L121.55 386.55L120.75 386.3L122 386.2L121.95 386.35L121.95 386.4L121.85 386.35M126.4,561.4L127.6 560.1L126.85 561.05L125.85 562.1L126.4 561.4M79.3,336.65L78.2 337.25L77.55 337.7L76.85 338.4L76.35 339.2L75.8 340.75Q75.35 342.25 75.2 343.85L74.95 346.95L74.7 350.1Q74.7 352.65 75.2 354.2L75.3 354.25Q75.3 354.75 75.65 355.55L76.05 356.6L76.4 357.65L76.8 358.7L77.4 359.7L77.85 359.7L78.45 359.1L78.8 358.55L79.5 357.35L81.05 354.9L81.8 353.7L82.8 352.5L83.85 351.25L85 350.1L85.7 349.5L86.35 348.85Q87.65 348.05 87.7 347.5L87.9 344.65L87.65 341.95L87.5 341.4L87.4 340.9L87.2 340.35Q87.2 339.5 86.4 338.15Q85.45 336.6 84.15 336.1L82.3 336.05L82.2 336.1L80.85 336.1L80.45 336.15L79.3 336.65M96.35,346.45Q96.95 345.55 97.15 344.15Q97.75 341.15 95.2 338.6L95 338.45Q92.35 335.9 89.75 338L89.1 338.6Q88.25 339.5 87.7 340.65Q88.35 343.45 88 346.45L87.65 348.6Q85.95 349.6 84.4 351.2Q83 352.5 81.75 354.2L80.95 355.4L80.5 356.2Q79.15 358.35 78.35 360.35L79.8 364.05Q82.3 367.85 87.55 368.25Q95 368.9 100.55 364.35Q104.9 360.65 105.25 356.2L105.25 355.4L105.15 354.1Q104.9 352.5 104.2 351.2Q103.15 349.4 101.1 348.2Q98.9 346.95 96.1 346.8L96.35 346.45M54.55,379.6L57.4 378.4L58.4 378L58.35 377.85L58.05 377.85L58.1 377.75L57.85 377.5L56.45 377.5L54.1 378.05L52.2 378.85L50.7 379.75Q50.5 379.85 50.25 380.3L49.95 381L50.35 381.6L50.7 381.6L53.1 380.25L53.3 380.15L54.55 379.6M54.85,382.75L51.15 383.35Q51.05 383.6 51.3 383.9L51.55 384.45L51.95 384.5Q54.85 383.4 55.1 383L54.85 382.75M58.5,386.1L54.9 387Q52.7 387.85 52.7 388.9L52.95 389.35Q54.1 389.2 56.05 388L57.65 387.25Q58.6 386.75 58.6 386.35L58.5 386.1M53.7,392.8L54.45 392.75L56.75 391.55L57.65 390.85Q58.25 390.45 58.8 390.35L58.95 390.1L58.85 389.85L57.7 389.85L53.85 391.35L53.7 391.55L53.9 391.7Q53.6 391.8 53.6 392.25L53.7 392.8M54.85,395.25L57.45 393.75L59.35 392.5L59.1 392.25Q57.85 392.4 56.75 392.95L54.55 394.3L54.6 394.45L54.8 394.55L54.6 394.95L54.85 395.25M69.15,379.15L68.9 379.05L68.7 379Q67.1 378.05 65.5 376.15L64.95 375.55Q64.5 375 64.25 373.8L64.2 373.35L62.2 380.2Q60.6 387.6 62.45 390.3Q65.7 394.95 71.25 393.75Q73.3 393.3 74.5 392.65Q76.15 391.7 76.8 390.05Q77.45 388.55 76.05 384.5L74.65 380.75L72 380.25L70.8 379.9L69.75 379.55L69.25 379.35L69.15 379.15M111.9,315.4Q109.45 320.4 107.35 325.45L107.15 325.8L106.75 326.8L109.85 329.25L113.35 328.4L112.95 332.9L115.8 330.95L117.15 335.7L118.3 327.85L118.6 325.8L118.65 325.45L119.15 320.9Q120.85 305.85 119.05 305Q117.35 304.2 111.9 315.4M117.25,383.05Q117.45 383.35 118.6 383.65L120.1 384.05L121.45 384.05L121.55 383.9L121.95 383.85L122.1 383.6L122 383.4L121.8 383.3L117.5 382.75L117.25 383.05M119.4,389.45L120.45 389.45L120.6 389.3L120.8 388.85L121.1 388.45L120.75 388L114.75 387Q114.65 386.9 114.35 387.35Q115.2 388.7 119.3 389.35L119.4 389.45M116.2,393.8L118.85 394.35Q119.6 394.1 119.6 393.3L119.4 392.65L118.85 392.75L116.35 392.7L116.55 392.6L116.25 392.6L114.85 392.6Q114.75 392.6 114.75 392.95Q114.75 393.35 116.2 393.8M78.95,399Q76.35 401.6 73.45 401.6L72.4 401.25L72.1 401.35Q72.3 402 72.85 402.2L74.25 402.6L75.5 402.8L76.65 402.7Q76.65 402.55 77.2 402.5L78.4 401.3Q79.2 400.15 79.2 399.35L78.95 399M66.75,399.05Q66.45 398.95 65.35 399.65L63.45 400.8Q60.65 402.2 60.65 402.85L60.7 403.05Q61.2 403.25 61.3 403.7L61.6 403.75L62.95 403Q64.1 402.3 64.55 401.6L65.8 400.3L66.8 399.25L66.75 399.05M62.6,396.2L62.35 395.85L60.45 396.25L59.45 396.9Q57.9 397.6 57.1 398.2L57.05 398.15L57 398.3L57.2 398.9L57.55 399.45L58.2 399.5L59.45 398.8L60.7 398L61.6 397.2L62.6 396.2M65.85,510.8Q64.7 513.5 64.7 513.8L64.8 514.25L65.1 514.3L65.3 514.2L65.3 514.05L65.45 514.4L65.7 514.45L66.9 511.5L67.85 508.4L67.75 508.1Q67.35 508 67.05 508.5L66.6 509.3Q66.25 509.75 65.85 510.8M80,513.55Q79.45 512.35 79.2 512.4Q78.95 512.45 78.95 513.2Q78.95 513.9 79.8 516.75Q80.15 518.5 81.3 520.4L81.6 520.45L81.65 520.4L81.7 519.9L81.75 519.9L81.85 520.3Q81.9 520.45 82.3 520.45L82.55 520.4L82.6 520.1L80.85 515.7L80 513.55M58.7,499.05L56.9 500.3Q55.7 501.2 55.7 501.7L55.8 501.9L56.2 501.9Q58.9 499.8 58.9 499.35L58.7 499.05M89.85,511.8L91.8 512.8Q93.7 513.7 94.6 513.8L94.85 513.95L96.85 513.9L97.25 513.45L97.6 513.05Q97.3 512.65 95.9 512.3L93.8 511.9L91.8 511.4L90 511.35L89.85 511.8" />
<path style="fill:#E66006;fill-opacity:1" d="M68.9,314.3L73.1 325.45L73.2 325.8L73.75 327.55L69.9 327.1L69.55 330.8L66.9 330.1L66.1 333.75L63.25 332.05L60.35 334.8L59.95 327.85L59.85 325.8L59.85 325.45L59.65 318.7Q59.35 302.45 61.5 301.85Q63.65 301.2 68.9 314.3M125.85,562.1L125.05 563Q123.75 564.25 122.5 564.45L122.05 564.45Q121.1 564.45 120.35 563.95Q119.7 563.55 119.6 563.15L119.5 561.7Q119.5 559.2 120.6 556.75L123.35 551.55Q123.95 550.3 125.15 549L126.25 547.65Q127 546.95 127.95 546.75L130.75 546.85Q131.3 547.15 132.5 548Q133.85 549.25 133.85 550.6Q133.85 552 132.15 554.45L131.6 555.2L129.35 557.85L127.6 560.1L126.4 561.4L125.85 562.1M59.1,553.6Q58.3 552.6 58.3 551.9Q58.3 551.1 59.45 549.3Q59.95 548.5 61.45 548.05L63.45 547.8L65.2 549.05L66.4 550.2L66.85 550.8L67.45 551.55L68.45 552.7L71.75 557.9Q73.25 560.85 73.25 563.25L73.2 563.7L72.85 564.4Q72.35 564.5 72.35 564.65L70.85 564.5Q69.6 564 68.35 563.05L67.3 562.25L66.45 561.6L64.8 560.2L63.4 558.55L62.1 556.9Q60.6 555.75 60.3 555.2L60.15 555L59.1 553.6M119.05,305Q120.85 305.85 119.15 320.9L118.65 325.45L118.6 325.8L118.3 327.85L117.15 335.7L115.8 330.95L112.95 332.9L113.35 328.4L109.85 329.25L106.75 326.8L107.15 325.8L107.35 325.45Q109.45 320.4 111.9 315.4Q117.35 304.2 119.05 305M61.05,555L61.65 555.4L62.1 556.05L63.75 557.95L61 554.4L60.75 554.6L61.05 555" />
<path style="fill:#FF6D6B;fill-opacity:1" d="M92,347L96.1 346.8Q98.9 346.95 101.1 348.2Q103.15 349.4 104.2 351.2Q104.9 352.5 105.15 354.1L105.25 355.4L105.25 356.2Q104.9 360.65 100.55 364.35Q95 368.9 87.55 368.25Q82.3 367.85 79.8 364.05L78.35 360.35Q79.15 358.35 80.5 356.2L80.95 355.4L81.75 354.2Q83 352.5 84.4 351.2Q85.95 349.6 87.65 348.6Q89.75 347.35 92 347" />
<path style="fill:#FF2E28;fill-opacity:1" d="M68.65,379L68.2 379.2Q67.1 377.65 67.1 382.6Q67.1 387.45 68.8 388.7L69.1 388.7L69.2 388.55L69.2 388.05Q68.8 387.1 68.75 386.55L68.7 385.3L68.9 382.7L69.15 381.4L69.6 380L69.45 379.6L69.25 379.35L69.75 379.55L70.8 379.9L72 380.25L74.65 380.75L76.05 384.5Q77.45 388.55 76.8 390.05Q76.15 391.7 74.5 392.65Q73.3 393.3 71.25 393.75Q65.7 394.95 62.45 390.3Q60.6 387.6 62.2 380.2L64.2 373.35L64.25 373.8Q64.5 375 64.95 375.55L65.5 376.15Q67.1 378.05 68.7 379L68.65 379" />
<path style="fill:#FFFFFF;fill-opacity:1" d="M80.45,336.15L80.85 336.1L82.2 336.1L82.3 336.05L84.15 336.1Q85.45 336.6 86.4 338.15Q87.2 339.5 87.2 340.35L87.4 340.9L87.5 341.4L87.65 341.95L87.9 344.65L87.7 347.5Q87.65 348.05 86.35 348.85L85.7 349.5L85 350.1L83.85 351.25L82.8 352.5L81.8 353.7L81.05 354.9L79.5 357.35L78.8 358.55L78.45 359.1L77.85 359.7L77.4 359.7L76.8 358.7L76.4 357.65L76.05 356.6L75.65 355.55Q75.3 354.75 75.3 354.25L75.2 354.2Q74.7 352.65 74.7 350.1L74.95 346.95L75.2 343.85Q75.35 342.25 75.8 340.75L76.35 339.2L76.85 338.4L77.55 337.7L78.2 337.25L79.3 336.65L80.45 336.15M87.65,348.6L88 346.45Q88.35 343.45 87.7 340.65Q88.25 339.5 89.1 338.6L89.75 338Q92.35 335.9 95 338.45L95.2 338.6Q97.75 341.15 97.15 344.15Q96.95 345.55 96.35 346.45L96.1 346.8L92 347Q89.75 347.35 87.65 348.6M85.35,344.1L84.5 343.2Q83.85 342.55 83.05 342.9Q81.7 343.4 81.7 346.05Q81.7 346.9 82 347.65L82.6 348.5L83.55 349.15L84.15 349.2Q84.9 349.2 85.45 348.15Q85.95 347.2 85.95 346.2Q85.95 345.2 85.35 344.1M90.15,345.6Q90.25 346.1 90.85 346.45L91.85 346.45L92.8 345.5L92.95 344.45L92.5 343.15Q91.95 342.15 91.35 342.4Q90.1 342.85 90.1 344.8L90.15 345.6" />
<path style="fill:#582903;fill-opacity:1" d="M123.2,381.1L122.35 381.1L118.95 380.3L116.95 379.7L116.75 379.35Q116.75 378.9 117.1 379L123.35 379.75L123.6 380.05L123.45 380.35L122.95 380.4L122.95 380.55L123.4 380.6L123.45 380.75L123.4 381L123.2 381.1M121.95,386.4L122.1 386.8L122.05 387L121.85 387.1L121.75 387.1L118.35 386.2L116.35 385.6L115.1 384.95L115 384.7Q115 384.1 117.1 384.5L121.75 385.5L122.1 385.9L122.1 385.95L122.05 386.2L122 386.2L120.75 386.3L121.55 386.55L121.85 386.35L121.95 386.4M87.8,517.25L85.55 515.4L85 514.25L85.05 514Q86.3 514.2 88.3 515.65Q90.5 517.3 91.4 517.6L91.5 517.9L91.1 518.45L90.4 518.25L90.6 518.75L90.45 518.9L90.35 518.9Q89.2 518.4 87.8 517.25M59.2,509.95L59.15 510.2L59.1 510.35L59 510.4L58.55 510.4L58.45 510.1Q58.45 509.75 58.7 509.35L59.2 508.75L58.8 508.7L58.55 508.65L58.45 508.35L58.9 507.55L58.9 507.5L58.2 507.95L57.95 507.7Q57.95 507.45 60.05 505.35L63.35 502.2L63.9 502.2L63.95 502.45Q63.95 502.9 61.55 506.2Q59.5 509 59.2 509.95M53.3,380.15L53.1 380.25L50.7 381.6L50.35 381.6L49.95 381L50.25 380.3Q50.5 379.85 50.7 379.75L52.2 378.85L54.1 378.05L56.45 377.5L57.85 377.5L58.1 377.75L58.05 377.85L58.35 377.85L58.4 378L57.4 378.4L54.55 379.6L53.3 380.15M55.1,383Q54.85 383.4 51.95 384.5L51.55 384.45L51.3 383.9Q51.05 383.6 51.15 383.35L54.85 382.75L55.1 383M58.6,386.35Q58.6 386.75 57.65 387.25L56.05 388Q54.1 389.2 52.95 389.35L52.7 388.9Q52.7 387.85 54.9 387L58.5 386.1L58.6 386.35M53.6,392.25Q53.6 391.8 53.9 391.7L53.7 391.55L53.85 391.35L57.7 389.85L58.85 389.85L58.95 390.1L58.8 390.35Q58.25 390.45 57.65 390.85L56.75 391.55L54.45 392.75L53.7 392.8L53.6 392.25M54.6,394.95L54.8 394.55L54.6 394.45L54.55 394.3L56.75 392.95Q57.85 392.4 59.1 392.25L59.35 392.5L57.45 393.75L54.85 395.25L54.6 394.95M68.7,379L68.9 379.05L69.15 379.15L69.25 379.35L69.45 379.6L69.6 380L69.15 381.4L68.9 382.7L68.7 385.3L68.75 386.55Q68.8 387.1 69.2 388.05L69.2 388.55L69.1 388.7L68.8 388.7Q67.1 387.45 67.1 382.6Q67.1 377.65 68.2 379.2L68.65 379L68.7 379M85.95,346.2Q85.95 347.2 85.45 348.15Q84.9 349.2 84.15 349.2L83.55 349.15L82.6 348.5L82 347.65Q81.7 346.9 81.7 346.05Q81.7 343.4 83.05 342.9Q83.85 342.55 84.5 343.2L85.35 344.1Q85.95 345.2 85.95 346.2M90.1,344.8Q90.1 342.85 91.35 342.4Q91.95 342.15 92.5 343.15L92.95 344.45L92.8 345.5L91.85 346.45L90.85 346.45Q90.25 346.1 90.15 345.6L90.1 344.8M117.5,382.75L121.8 383.3L122 383.4L122.1 383.6L121.95 383.85L121.55 383.9L121.45 384.05L120.1 384.05L118.6 383.65Q117.45 383.35 117.25 383.05L117.5 382.75M119.3,389.35Q115.2 388.7 114.35 387.35Q114.65 386.9 114.75 387L120.75 388L121.1 388.45L120.8 388.85L120.6 389.3L120.45 389.45L119.4 389.45L119.3 389.35M114.75,392.95Q114.75 392.6 114.85 392.6L116.25 392.6L116.55 392.6L116.35 392.7L118.85 392.75L119.4 392.65L119.6 393.3Q119.6 394.1 118.85 394.35L116.2 393.8Q114.75 393.35 114.75 392.95M79.2,399.35Q79.2 400.15 78.4 401.3L77.2 402.5Q76.65 402.55 76.65 402.7L75.5 402.8L74.25 402.6L72.85 402.2Q72.3 402 72.1 401.35L72.4 401.25L73.45 401.6Q76.35 401.6 78.95 399L79.2 399.35M66.8,399.25L65.8 400.3L64.55 401.6Q64.1 402.3 62.95 403L61.6 403.75L61.3 403.7Q61.2 403.25 60.7 403.05L60.65 402.85Q60.65 402.2 63.45 400.8L65.35 399.65Q66.45 398.95 66.75 399.05L66.8 399.25M61.6,397.2L60.7 398L59.45 398.8L58.2 399.5L57.55 399.45L57.2 398.9L57 398.3L57.05 398.15L57.1 398.2Q57.9 397.6 59.45 396.9L60.45 396.25L62.35 395.85L62.6 396.2L61.6 397.2M66.6,509.3L67.05 508.5Q67.35 508 67.75 508.1L67.85 508.4L66.9 511.5L65.7 514.45L65.45 514.4L65.3 514.05L65.3 514.2L65.1 514.3L64.8 514.25L64.7 513.8Q64.7 513.5 65.85 510.8Q66.25 509.75 66.6 509.3M80.85,515.7L82.6 520.1L82.55 520.4L82.3 520.45Q81.9 520.45 81.85 520.3L81.75 519.9L81.7 519.9L81.65 520.4L81.6 520.45L81.3 520.4Q80.15 518.5 79.8 516.75Q78.95 513.9 78.95 513.2Q78.95 512.45 79.2 512.4Q79.45 512.35 80 513.55L80.85 515.7M58.9,499.35Q58.9 499.8 56.2 501.9L55.8 501.9L55.7 501.7Q55.7 501.2 56.9 500.3L58.7 499.05L58.9 499.35M90,511.35L91.8 511.4L93.8 511.9L95.9 512.3Q97.3 512.65 97.6 513.05L97.25 513.45L96.85 513.9L94.85 513.95L94.6 513.8Q93.7 513.7 91.8 512.8L89.85 511.8L90 511.35" />
<path style="fill:#000000;fill-opacity:0.2" d="M64.6,301.85Q66.05 303.85 66.8 306.05Q67.65 308.5 68.4 309.6Q69.8 311.65 70.2 313.1Q70.5 314.25 71.7 316.6Q72.95 318.95 73.2 320.1L74.65 324.1L75.2 325.45L75.25 325.9Q75.4 326.6 75.7 327.15L75.5 327.5L75.4 327.8L75.3 327.8L75 327.9L73.4 327.6L70.8 327.6L70.45 328.1L69.9 328.1Q69.3 328.5 69.15 329.4L68.9 330.5L67.4 330.15Q66.95 330.4 66.85 331.1L66.35 331.7L65.7 333.1L65.25 332.9Q64.3 332.55 63.3 332.55Q62.75 332.55 61.75 333.5L61.3 333.95L60.25 334.65L60.2 334.7L60.15 334.6L60 333.4L60 333.25L59.95 333L59.9 333.05L59.75 332.4L59.85 332.05L59.75 331.8L59.7 331.8L59.25 328.95Q58.85 325.75 58.85 323L58.85 316.5L58.85 306.2L59.1 306.35L59.4 306.15L59.7 302.8Q60.15 300.45 61.65 299.7Q62.85 299.35 64.6 301.85M61.8,305.1L61.35 305.1Q60.4 305.95 60.1 307.6L59.85 310.35L59.55 315.65L59.75 319.65L60 323.3L60.35 327.15L60.55 329.5Q60.75 331.05 61.65 331.05Q62.5 331.05 63.3 329.15Q63.75 327.75 64.35 327.15Q66.1 325.4 66.3 323L66.3 323.1L66.5 323.85Q66.7 324.45 67.1 324.45Q67.55 324.45 67.65 323.4L67.65 322.15Q67.65 319 65.55 313.65L64.15 309.35Q63.25 306.7 61.8 305.1M67.7,304.8Q63.8 297.75 61.25 297.75Q59.15 297.75 58.3 303.65Q57.9 306.6 57.9 309.95L58.15 316.3L58.2 322.5Q58.05 325 58.5 328.85L58.9 332.45L58.7 332.85Q58.7 333.3 59 334L59.25 335.35L59.55 336.3L59.55 336.45L59.7 336.8L59.85 337.35L59.85 339.15L60.1 340.25L60.3 341.05L59.05 341.9Q57.8 342.6 57.8 343.35Q57.8 344.1 59.1 344.4L57.45 346.15Q56.1 347.4 56.1 347.85Q56.1 348.6 57.3 348.85Q58.75 349.15 59.1 349.55L57.7 351.7Q56.75 353.2 56.75 353.9L56.85 354.2L56.65 354.65Q56.15 355.85 56.15 356.4Q56.15 356.8 56.55 357L56.9 357L58.95 355.95L58.95 356.1L59.05 356.1L59.1 356.4L58.75 357.9L58.35 360.3L58.35 360.95Q58.45 361.55 58.95 361.55Q59.55 361.55 61.9 358.75L64.1 356.2L64.2 356.4L64.15 356.75L64.25 358.65L64.2 359.6L63.9 362.1L63.3 369.7L63.4 370.85L62.85 376.75L62.85 376.85Q62.15 379.1 62.15 380.1L61.6 383.3Q61.25 385.1 61.25 386.45Q61.25 390.1 62.85 391.5L64.35 392.6L66.15 393.65L68.05 394.4L68.55 394.6L68.55 394.85L68.55 395L68.65 395.75Q68.95 396.75 69.95 397.6Q71.25 398.65 74 399.5L80.7 401.55Q84.95 402.65 88.75 402.65Q95.65 402.65 103.3 399.5Q112.65 395.7 119.6 388.4L120.15 387.85L122 385.65L122.25 385.4L122.15 385.65L122.1 385.9L122.1 385.95L122.05 386.2L122 386.2L121.95 386.35L121.95 386.4L122.1 386.8L122.05 387L121.85 387.1L121.75 387.1L120.55 391.35L122.25 389.55L122.1 391.2Q122.1 391.8 122.35 392.05L122.1 393.6L122.1 394.3Q122.2 394.95 122.65 394.95L126.4 390.7Q130.15 386.4 133.65 386.4Q136.65 386.4 139.6 391.5Q141.1 394.1 142.2 397.1Q143.5 399.75 144.15 402.9L144.8 405.7L145.35 408.8L145.35 411.75Q145.45 413.2 145.85 414.75L146.55 416.65L146.55 416.85L147.6 421.05L148.4 425.25L148.4 427.4Q148.35 428.7 148.8 429.5Q150.6 432.95 152.7 433.4L153.9 433.4Q154.35 433.05 154.7 432L155 430.5Q155 429 154.15 427.45Q153.3 425.9 153.3 425.1L153.35 424.8L154.1 424.8Q156.4 425.25 157.25 427.85L158.1 429.9Q159 431.4 160.7 431.4Q162.2 431.4 162.6 429.7L162.75 427.65Q162.75 426.05 161.85 424.45Q160.65 422.45 158.45 421.65L158.75 421.05Q159.2 420.6 161 420.6Q162.3 420.6 163.8 421.5Q164.6 421.95 165.5 422.55L166.35 422.55L167.2 421.55L167.4 422.7Q167.6 424.6 165.55 427Q164.5 428.2 163.45 429Q163.55 431.2 162.75 433Q161.9 434.8 160.4 435.6Q158.55 436.55 156.3 435.35L154.45 434Q153.05 436.05 150.45 436.05Q147.55 436.05 145.25 433.95Q144 432.85 144.65 427.3Q145.3 422.15 143.75 421.7Q142.1 421.25 140.4 424.25Q138.5 427.7 137.4 428.05Q135.45 428.65 133.95 426Q132.5 423.3 133.3 420.5Q134 418.15 137.4 416.5L140.65 415.35L140 407.35L139.5 403.75Q137.55 392.1 133.5 391.8Q129.45 391.5 123.95 398.7Q121.9 401.3 120.3 403.95Q119.65 404.15 119 404.5Q118.15 404.75 117.3 405.5L115.65 406.95L110.75 410Q105.55 413.15 101.6 414.5Q96.45 416.3 87.3 418.3Q76 420.8 70 420.8L66.15 420.3Q63 420.3 61.55 428.4Q60.8 432.6 60.45 438.15L59.9 446.95Q59.3 453.3 59.25 456.05L59.1 456.05Q59.15 457.8 58.8 461.05Q58.8 462.35 60 469.65L61.35 474.1Q62.25 476.5 63.65 478.4Q65.55 481.05 67.5 482.85Q70.05 485.2 73.65 487.05Q77.65 489.05 81.45 489.95Q85.7 491 95.55 492.2Q95.85 492.55 97.05 492.6L101.4 492.6Q108.05 492.6 115.2 489Q118.85 487.2 121.85 484.95Q129.95 479.95 133.2 474.75Q135.55 470.95 136.05 469.4L136.6 466.85L136.75 466L137 465.75L137.3 463.9L137.65 462.75Q139.55 469 139.25 474.1Q138.75 482.55 130.95 493.6Q127.85 498 124.85 501.35L124.8 501.25L124.7 501.15Q120.5 502.45 119.45 505.05Q118.9 506.6 118.85 509.7Q118.45 511.25 118.65 514.2Q118.8 517.35 118.55 518.6L118.55 525.45L118.85 530.95Q119 534.4 119.25 536.45L119.9 541.95L120.3 544.7Q120.8 546.6 121.95 547.4L122.4 547.4Q123.45 546.65 124.4 543.4L125 541.35L125.05 541.7Q126.15 538.95 127.7 537.2Q126.75 538.65 126.75 539.8Q126.75 541.4 127.4 542.6Q128.65 544.85 131.9 544.85Q134.7 544.85 135.8 542.7Q136.4 541.55 136.4 540.2Q136.4 538.15 135.45 536.75L135.15 536.4Q136.95 537.9 137.15 540.05L137.15 540.25L137.15 540.5L139.65 541.55Q142.1 543.05 141.85 545.4Q141.7 546.85 140.85 548L141.05 549.35Q139.25 549.55 136.95 551.1Q136.05 551.7 135.85 552.4L135.75 553.65Q135.75 556.3 138.25 556.55Q136.55 557.2 134.2 555.9L132.15 554.45L131.7 555.1L130.65 554.15Q129.65 553.75 128.7 554.65L127.1 556.25L124.15 559.35Q121.55 561.95 119.85 561.95L118.25 561.8Q117.9 561.8 117.9 562.2Q117.9 562.55 118.8 563.35Q119.85 564.3 120.9 564.3Q122.5 564.3 127.05 560.4L129 558.35L127.6 560.1L126.85 561.05L125.85 562.1L125.05 563Q123.75 564.25 122.5 564.45Q119.95 565.5 118.3 563.4Q115.45 559.8 115.45 532.45L115.85 504.65Q109.6 506.55 103.05 507.4L99.7 511.25L99.45 511.1L99.65 510.9L97.7 510.75L96.8 510.95L94.55 510.9L90.6 511.05Q90.05 511.1 89.45 511.8L88.2 512.9Q85.7 514.4 81.45 515.25L79.35 515.25Q78.9 514.95 78.65 514.95L78.3 515L78.2 516.9L78.3 519.1L78.6 520.6L78.2 520.55L78.05 519.45L77.1 512.3L76.9 508.3L76.6 506.65L76.8 506.75L77.1 506.7Q77.35 506.15 76.5 505.7L75.9 505.45L75.8 505.4L75 504.95L73.8 504.9Q72.95 505.2 73.2 505.95L73 507.9L72.8 509.85L72.8 517.8L72.9 526.25L72.9 532.05L73.15 534.45L73.1 536.85L73.35 541.75L73.2 547.9L72.9 553.25L72.7 556.2L72.3 559.1L72.25 559.25L72 559.7Q70.9 561 68.85 561L67.3 560.7L66.3 560.4L65.85 560.6L67.5 562.15Q68.8 563.05 70.35 563.25L70.45 563.45L70.05 564.25Q68.75 563.6 67.3 562.25L66.45 561.6L64.8 560.2L63.4 558.55L62.1 556.9Q60.6 555.75 60.3 555.2L60.15 555L58.8 555.95Q56.25 557.35 54.45 556.45Q53 555.75 52.35 554.7Q51.6 553.5 51.65 551.45L52.15 548.05Q51.3 546.9 51.15 545.45Q50.9 543.1 53.35 541.6L55.85 540.55L55.85 540.3L55.85 540.1L55.95 539.45L56.25 539.75L56.7 540.6L57.2 541.4Q57.7 541.95 58.55 541.95Q59.2 541.95 59.95 541.3Q60.65 540.65 61.35 540.65Q62.85 540.65 64.55 543L68 547.35L68.4 547.35Q68.9 546.9 68.9 545.7Q68.9 543.7 68.35 542.2L68 541.4Q69.55 531.6 69.85 518.8L69.85 517.9Q67.25 516.7 64.2 514.45Q61.2 512.25 59.2 509.95L59.15 510.2L59.1 510.35L59 510.4L58.55 510.4L58.45 510.1Q58.45 509.75 58.7 509.35Q57 507.25 56.05 505.05Q54.3 500.85 54.85 495.55L55.75 491.1Q49.3 481.5 51.35 467.85Q58.25 434.35 56.65 408.2Q54.7 404 51.9 399.85Q47.75 393.65 44.5 392.25L45.85 392.75L47.25 393.5L48 393.45L48 392.35Q48 390.05 46.8 387.8Q44.7 384 40.05 384Q37.3 384 35.5 385.4Q34.5 386.15 34.05 387.05L31.25 391.35Q30.3 393 29.4 395.55L28.1 399.65Q27.15 402.75 26.25 408L25.8 412.25L25.6 414.4L25.4 416.55Q25.4 417.8 26 420.25Q26.55 422.75 26.55 424.1Q26.55 426.55 24.8 429.15Q23 431.7 23 433.6Q23 434.6 23.75 435.85Q22.25 435.35 21.35 434L19.5 435.35Q17.25 436.55 15.4 435.6Q13.9 434.8 13.05 433Q12.25 431.2 12.35 429L10.25 427Q8.2 424.6 8.4 422.7Q8.6 420.5 10.15 418.7Q11.65 416.95 13.65 416.2Q14.45 415.9 16.4 416.9L18.15 418L20.85 407.35L21.7 404.3Q25.9 389.75 29 385.45Q31.85 381.45 35.1 379.65Q38.05 378 40.9 378.3Q44.05 378.65 48.2 383.65L51.75 388.55L51.15 386.35L50.95 385.65L50.8 385.05L49.65 380.25L47.75 370.65L43.95 371.05L49.3 359.05L42.05 360.95L49.65 350.9L42.95 349.15L52.75 343.85L47 339.75L56.6 338.3L56.45 335.8L56.05 327.85L55.95 325.8L55.95 325.45Q55.8 321.4 55.8 317.35Q55.75 296.25 59.8 295.55Q63.8 294.9 71.15 310.4Q74.4 317.25 77.05 324.2Q76.65 324.3 76.4 325.05L76.15 325.85L75.8 324.85Q73.5 317 71.1 312.3Q70.35 310.9 69.35 308.6L67.7 304.8M77.4,325.25L77.3 325.4L77.3 325.35L77.4 325.25M79.75,324.7L79.35 325.4L79.35 325.35L79.75 324.7M70.15,328.85L70.1 329.2L69.9 330.75L69.65 330.7L69.75 330.25L70.1 328.85L70.15 328.85M75.8,338.25Q77.05 336.95 78.9 336.2L84.05 336L85.55 336.9L86.7 337.95L87.15 339.25Q87.45 340.2 87.9 340.2L89 338.7Q90.05 337.2 91.85 337.2L92.65 337.4Q90.8 337.4 90.05 338.85Q89.6 339.7 89.6 340.9Q89.6 342.4 90.7 343.4Q91.85 344.45 93.6 344.45Q96.15 344.45 96.15 342.1Q96.15 341.1 95.25 339.45Q94.6 338.3 93.9 337.8Q94.85 338.4 95.7 339.7Q96.9 341.6 96.9 342.8L96.6 344.15Q96.3 345.05 96.3 345.5Q96.3 346.45 97.25 346.9L95.6 346.8Q89.35 346.8 84.8 350.95Q81.15 354.35 81.15 357Q81.15 358.6 82.75 360.1Q84.95 362.05 88.95 362.1L89.95 362.25L91.25 362.4Q94.9 362.4 98.45 359.7Q102.65 356.5 102.65 351.9Q102.65 350.6 102.1 349.65Q104.4 351.5 104.75 352.35Q107.1 357.35 107.1 360Q107.1 361.75 105.75 364.95Q104.4 368.15 103.2 369.3L98.35 373.5Q93.6 376.65 87.9 376.65Q83.05 376.65 80.7 375.05L78.6 372.65Q77.7 371.65 77.4 370.05L77 367.4L77.4 363.75Q77.4 361.9 76.55 359.45L74.7 355.1Q73.75 352.9 71.5 350.8Q69 348.45 66.15 347.55Q68.75 345.75 71.4 342.9L75.8 338.25M77.45,340.35Q77.1 341.5 77.1 344Q77.1 345.55 77.6 346.35L78.55 347.55Q79.7 348.6 81.35 348.6Q84.85 348.6 86.25 345.45Q87 343.75 87 341.7L86.1 338.15Q85.75 336.8 83.5 336.2Q81.2 335.5 79.85 336.75Q78 338.45 77.45 340.35M71.2,380.2L71.9 380.55L72.8 380.8Q73.55 381.05 73.8 381.35Q74.3 381.95 75 383.4L75.2 383.85L75.2 383.9L75.75 385.75L76.25 388.25L76 390L74.25 392L74 392.25L73.5 392.4Q72.85 392.55 72.5 392.8L71.85 393.2L71.05 393.35L70.8 393.4L70.7 393.35L70.2 393.35Q68.95 393.6 68.65 394L67.7 393.65L65.75 392.75Q63.95 392 63 390.5Q62.25 389.45 62.05 388.1L61.95 385.65Q61.95 384.75 62.85 380.55L63.2 377.9L63.4 377.35L63.95 377.2Q64.4 377.05 64.35 376.35Q64.7 377.05 66.7 378.15L67.1 378.4L67.35 378.5L68.25 378.95L68.7 379.15L70.4 379.85L70.85 380.05L70.85 380.1L71.1 380.25L71.2 380.2M71.5,382.2Q71.25 382.2 71.15 382.65L71.1 385.05L71.2 387.9Q71.6 390.75 73.4 390.75Q75.3 390.75 75.3 388.3L74.95 385.85Q74.5 384.25 73.85 383.45L73.45 382.75Q73.15 382.4 72.2 382.35L71.5 382.2M80.6,381.3L83.05 381.1L83.9 380.9L85.9 381L87.75 381L93 380.3L96.4 379.7L98.75 379.05L103.25 377.85L107.1 376.2Q117 371.25 119.1 367.95Q118 372.75 112.8 376.5Q111.3 377.55 106.6 379.35L98.9 382.2L95.1 383.3L90.6 384.35L86.15 385.5L81.75 386.05L78 386.55L77.95 386.6L77.6 386.65L76.65 384.25L75.15 380.8L76.4 380.9Q77.3 380.95 77.6 381.15L80.6 381.3M64.65,380.85L64.2 384L64.55 386.9Q64.75 387.95 65.1 388.35L65.9 389.1L66.8 389.55L67.85 389.55L67.95 387.4L67.7 384.3L67.1 382.65Q66.7 381.65 66.75 381.15Q66.65 379.8 65.8 379.65Q65 379.55 64.65 380.85M68.55,378.25L68.4 378.15L67.3 377.1L68.55 378.15L68.9 378.4L68.55 378.25M73.8,393.45L74.15 393.15L74.25 393.1L75.95 392.1L76.5 391.55L76.75 391.35L76.5 391.8L75.5 392.75L74.65 393.25L74.55 393.15L74.3 393.15L73.8 393.45M122.85,302.05Q122.65 301.45 122.3 301.35L121.55 300.5Q120.65 300.2 119.5 301.4L117.35 303.45Q116.5 304.05 115.85 305.15L114.95 306.75L111 313.25L108.25 319.05Q106.3 323.45 105.9 325.4Q105.55 325.95 105.5 326.55Q105.05 327 104.55 327L103.75 326.75L102.8 325.4Q105.9 318.1 109.85 310.95Q117.7 296.55 121.35 297.9Q125 299.25 123.85 318.55L123.35 325.45L123.3 325.8L123.15 327.85L122.2 335.8L122.15 336.3L121.95 335.85L121.95 335.75L121.65 334.35L122 332.7L122.25 329.55Q122.25 325.6 122.7 323.3L123.4 316.7L123.8 310.7L123.15 303.9L122.85 302.05M121.25,306.9L121.4 309.3L121.55 313.65L121.25 319L120.75 324Q119.9 328.25 119.65 331.65L118.85 333.7Q118.25 335.1 117.05 335.85Q116.75 335.55 116 333.35Q115.4 331.5 114.8 331.5Q114.3 331.5 113.75 332.05L112.8 332.85L112.8 331.05L112.85 329.25L112.5 329.25L111.2 329.45L109.55 329.85L108.9 329.85L107.35 328.25L106.2 326.95L106.55 326.45L107 325.6L107.4 324.2Q107.85 322.85 108.65 321.3L110 318.35L111.3 315.45L114.4 309.55Q116.4 306.1 118.85 303.9L120.6 305.6L121.1 306.55L121.25 306.9M116.7,308.45Q113.65 310.8 111.3 316.5Q108.3 322.5 108.3 324.65Q108.3 325.05 108.45 325.25Q108.75 325.8 109.65 325.8Q110.35 325.8 111.45 325L112.95 323.9L112.95 324L113 324.8Q113.1 325.25 113.7 325.25L114.5 324.65L115.1 323.9L115 325.2Q115 326.15 115.8 326.15L116.15 326.1L117.4 319.25Q117.75 316.7 117.75 313.1L117.75 310.85L117.7 309.6Q117.55 308.95 117.05 308.45L116.7 308.45M41.45,426.65Q40.1 428.55 38.4 428.05Q37.3 427.7 35.4 424.25Q33.7 421.25 32.05 421.7Q31.5 421.85 31.25 422.55Q30.9 421.1 30.9 420.65L31.1 419.65Q31.4 418.65 32.3 418.65Q33.9 418.65 35.9 420.25L37.8 422.15L38.85 424.35L39.15 425.6Q39.65 426.65 41.1 426.65L41.45 426.65M16.15,426.95Q15 429.1 15 431.35Q15 432.25 15.6 432.45L15.95 432.45L17.65 428.7Q18.7 426.4 20.6 425.1Q20.05 424.55 19.1 424.55Q17.4 424.55 16.15 426.95M66.15,511.65L63.6 509.55Q61.35 507.7 59.6 505.1Q58.15 502.85 57.5 500.7Q57.15 500.15 56.65 498.4Q56.25 497 55.5 496.4Q55.35 496.55 55.35 496.95L55.65 498.6L55.35 499.55L55.35 500.7Q55.35 502.75 56.15 504.35L58.85 508.7Q60.05 510.65 62.7 512.75Q63.8 513.6 65.6 514.65Q67.8 516.35 68.1 516.35Q69.05 516.35 69.05 513.4Q69.05 513 68.15 512.65Q66.8 512.15 66.15 511.65M56.55,537.95Q57.25 536.7 58.7 535.8Q61.65 533.9 64.45 536.4L65.75 537.8L63.7 536.4Q61.65 535.5 60 536.1Q58.8 536.45 57 537.5L56.55 537.95M53.85,541.55L53.05 542.1L52.2 542.9Q51.75 543.65 51.75 544.5L51.95 545.95Q52.2 546.65 53.1 547.35L53.9 547.35Q54.65 547.15 55.15 546.05L55.5 544.55L55.15 543Q54.65 541.85 53.85 541.55M61.05,555L61.65 555.4L62.1 556.05L63.75 557.95L61 554.4L60.75 554.6L61.05 555M54.05,551.2L52.95 551.25Q52.8 551.6 52.8 552.3Q52.8 553.35 53.1 554.15L53.9 555.1L54.9 556.05L55.4 556.2L55.8 556.05L55.8 555.75L55.35 555.3Q55.85 555 55.85 553.95L55.8 552.95L54.9 551.7Q54.65 551.35 54.05 551.2M131.65,534.95L131.3 534.95L132.65 535.05L131.65 534.95M141.2,543.15L140.1 542.15Q139.2 541.6 138.75 541.6Q138.15 541.55 137.3 542.3Q136.6 542.95 135.95 544Q135.2 545.3 135.2 546.15Q135.2 546.8 135.7 547.4Q136.6 548.45 138.6 548.45Q140.4 548.45 141.25 546.9Q141.75 546 141.75 545.1L141.7 544.25L141.2 543.15M131.15,555.8L130 557.2Q130.8 556.15 130.8 555.75L130.65 555.3L131.15 555.8" />
<path style="fill:#FFFFFF;fill-opacity:0.4" d="M102.3,350.7Q102.3 351.55 101.65 352.3L99.85 353.9Q97.65 355.65 92.25 356.35L87.95 356.45Q85.15 355.85 84.35 355.25Q83.85 354.85 83.85 353.85Q83.85 350.8 89.55 348.5Q91.8 347.45 94.55 347.35Q97 347.3 99.2 348Q100.65 348.45 101.5 349.25Q102.3 350 102.3 350.7" />
<path style="fill:none;stroke-width:2;stroke-linecap:round;stroke-linejoin:miter;stroke-miterlimit:3;stroke:#AE4200;stroke-opacity:1" d="M68.9,314.3L73.1 325.45L73.2 325.8L73.75 327.55L69.9 327.1L69.55 330.8L66.9 330.1L66.1 333.75L63.25 332.05L60.35 334.8L59.95 327.85L59.85 325.8L59.85 325.45L59.65 318.7Q59.35 302.45 61.5 301.85Q63.65 301.2 68.9 314.3M119.05,305Q120.85 305.85 119.15 320.9L118.65 325.45L118.6 325.8L118.3 327.85L117.15 335.7L115.8 330.95L112.95 332.9L113.35 328.4L109.85 329.25L106.75 326.8L107.15 325.8L107.35 325.45Q109.45 320.4 111.9 315.4Q117.35 304.2 119.05 305" />
<path style="fill:none;stroke-width:3;stroke-linecap:butt;stroke-linejoin:miter;stroke-miterlimit:3;stroke:#AE4200;stroke-opacity:1" d="M165.55,427Q164.5 428.2 163.45 429M139.5,403.75Q137.55 392.1 133.5 391.8Q129.45 391.5 123.95 398.7Q121.15 402.25 119.2 405.9L120.75 417.45Q122.55 429.85 123.85 434.2Q124.9 437.7 132.7 450.85Q139.8 464.6 139.25 474.1Q138.75 482.55 130.95 493.6Q127.05 499.15 123.25 503Q123 511.35 123.15 518.75Q123.45 531.75 125.05 541.7M35.4,424.25Q33.7 421.25 32.05 421.7Q30.5 422.15 31.15 427.3Q31.8 432.85 30.55 433.95Q28.25 436.05 25.35 436.05Q22.75 436.05 21.35 434M48.2,383.65L51.75 388.55M59.4,402.25L57.1 399.9L56.95 399.7L55.2 397.35L54.25 395.7Q53.1 393.25 51.95 389.3L51.75 388.55" />
<path style="fill:none;stroke-width:3;stroke-linecap:round;stroke-linejoin:miter;stroke-miterlimit:3;stroke:#AE4200;stroke-opacity:1" d="M51.75,388.55L51.15 386.35L50.95 385.65L50.8 385.05L49.65 380.25L47.75 370.65L43.95 371.05L49.3 359.05L42.05 360.95L49.65 350.9L42.95 349.15L52.75 343.85L47 339.75L56.6 338.3L56.45 335.8L56.05 327.85L55.95 325.8M51.75,388.55L52.15 388.95M163.45,429Q163.3 426.9 162.45 425.15Q161.25 422.55 157.75 421.95L154.5 421.85M154.45,434L155.2 432.55Q156.15 430.1 153.65 426.65L150.9 423.75M21.35,434L20.6 432.55Q19.65 430.1 22.15 426.65L24.9 423.75M55.85,540.55Q55.9 542.35 57.6 544.65Q59.35 547.05 60.55 547.25Q61.95 547.5 63.65 547.25M125.05,541.7L124.45 543.35Q123.7 545.75 123.45 547.65M137.15,540.5Q137.1 542.3 135.4 544.6Q133.65 547 132.45 547.2Q131.05 547.45 129.35 547.2" />
<path style="fill:none;stroke-width:2;stroke-linecap:round;stroke-linejoin:miter;stroke-miterlimit:3;stroke:#582903;stroke-opacity:1" d="M74.65,380.75L82.15 381.15L84.65 381.1Q93.75 380.7 104.85 376.75L106.55 376.15L112 373.8L113 373.25L115.75 371.55Q118.7 369.4 119.25 367.25L119.25 367.15Q119.2 366.45 116.5 365.95L113.5 365.5" />
<path style="fill:none;stroke-width:2;stroke-linecap:round;stroke-linejoin:miter;stroke-miterlimit:3;stroke:#AE4200;stroke-opacity:1" d="M96.1,346.8L96.1 347.05" />
<path style="fill:none;stroke-width:3;stroke-linecap:round;stroke-linejoin:miter;stroke-miterlimit:3;stroke:#AE4200;stroke-opacity:1" d="M55.95,325.8L55.95 325.45Q55.8 321.4 55.8 317.35Q55.75 296.25 59.8 295.55Q63.8 294.9 71.15 310.4Q74.7 317.9 77.55 325.45L77.7 325.8L77.75 326L78.1 325.8L78.65 325.45Q79.65 324.7 80.95 324Q84.4 321.9 86 321.75Q87.45 321.6 89 323.3Q90.65 325.05 91.55 325.15Q92.65 325.25 95.4 324.3Q98.25 323.25 98.8 323.25Q100.2 323.25 102.5 325.45L102.65 325.6L102.75 325.45Q105.9 318.1 109.85 310.95Q117.7 296.55 121.35 297.9Q125 299.25 123.85 318.55L123.35 325.45L123.3 325.8L123.15 327.85L122.2 335.8L121.95 337.6L129 342.1L121 346.2L131.5 351.75L123.45 354.1L128.25 356.25L123.9 361.4L127.1 364.6L124.35 377.05L122.35 385.05L122.15 385.65L121.95 386.35L120.55 391.35M167.4,422.7Q167.6 424.6 165.55 427M140,407.35L139.5 403.75M38.4,428.05Q37.3 427.7 35.4 424.25M40.9,378.3Q44.05 378.65 48.2 383.65M62.55,405L59.4 402.25M21.3,421.85L18.05 421.95Q14.55 422.55 13.35 425.15Q12.5 426.9 12.35 429M69.55,547.7L68.55 543.4L67.95 541.75M59.6,550.9L55.45 550.55Q54.5 550.2 53.45 549.4L52.15 548.05M133.4,550.85L137.55 550.5L139.55 549.35L140.85 548" />
<path style="fill:none;stroke-width:3;stroke-linecap:round;stroke-linejoin:miter;stroke-miterlimit:3;stroke:#AE4200;stroke-opacity:1" d="M163.45,429Q163.55 431.2 162.75 433Q161.9 434.8 160.4 435.6Q158.55 436.55 156.3 435.35L154.45 434M125.05,541.7Q126.45 538.2 128.55 536.35Q131.35 533.85 134.3 535.75Q136.9 537.4 137.15 540.05L137.15 540.25L137.15 540.5L139.65 541.55Q142.1 543.05 141.85 545.4Q141.7 546.85 140.85 548L141.35 551.4Q141.4 553.45 140.65 554.65Q140 555.7 138.55 556.4Q136.75 557.3 134.2 555.9L132 554.35L126.85 561.05Q121.15 567.05 118.3 563.4Q115.45 559.8 115.45 532.45L115.85 504.65Q109.6 506.55 103.05 507.4L98.45 512.65Q92.9 518.2 88.25 519.75Q84.8 520.9 80.7 520.8L77.3 520.45L77.55 532.5Q77.55 559.85 74.7 563.45Q71.85 567.1 66.15 561.1L61 554.4L58.8 555.95Q56.25 557.35 54.45 556.45Q53 555.75 52.35 554.7Q51.6 553.5 51.65 551.45L52.15 548.05Q51.3 546.9 51.15 545.45Q50.9 543.1 53.35 541.6L55.85 540.55L55.85 540.3L55.85 540.1Q56.1 537.45 58.7 535.8Q61.65 533.9 64.45 536.4Q66.55 538.25 67.95 541.75Q69.55 531.8 69.85 518.8L69.85 517.9Q67.25 516.7 64.2 514.45Q58.15 510 56.05 505.05Q54.3 500.85 54.85 495.55L55.75 491.1M21.35,434L19.5 435.35Q17.25 436.55 15.4 435.6Q13.9 434.8 13.05 433Q12.25 431.2 12.35 429M69.85,517.9Q70 511.3 69.75 503.05Q60.45 498.15 55.75 491.1M103.05,507.4Q90.15 509 76.95 505.9L77.3 520.45" />
<path style="fill:none;stroke-width:2;stroke-linecap:round;stroke-linejoin:miter;stroke-miterlimit:3;stroke:#582903;stroke-opacity:1" d="M74.8,354.2Q74.6 352.8 74.55 351.2L74.45 348.45L74.5 346.45Q74.7 341.55 76.3 338.9L76.5 338.6Q78.35 335.65 81.85 335.6Q85.3 335.55 86.8 338.25L87 338.6L87.7 340.65Q88.25 339.5 89.1 338.6L89.75 338Q92.35 335.9 95 338.45L95.2 338.6Q97.75 341.15 97.15 344.15Q96.95 345.55 96.35 346.45L96.1 346.8M87.65,348.6L88 346.45Q88.35 343.45 87.7 340.65M64.2,373.35L64.25 373.8Q64.5 375 64.95 375.55L65.5 376.15Q67.6 378.65 69.75 379.55L70.8 379.9L72 380.25L74.65 380.75M64.2,373.35L62.2 380.2Q60.6 387.6 62.45 390.3Q65.7 394.95 71.25 393.75Q73.3 393.3 74.5 392.65Q76.15 391.7 76.8 390.05Q77.45 388.55 76.05 384.5L74.65 380.75" />
<path style="fill:none;stroke-width:2;stroke-linecap:round;stroke-linejoin:miter;stroke-miterlimit:3;stroke:#993127;stroke-opacity:1" d="M96.1,346.8Q98.9 346.95 101.1 348.2Q103.15 349.4 104.2 351.2Q104.9 352.5 105.15 354.1L105.25 355.4L105.25 356.2Q104.9 360.65 100.55 364.35Q95 368.9 87.55 368.25Q82.3 367.85 79.8 364.05L78.35 360.35Q79.15 358.35 80.5 356.2L80.95 355.4L81.75 354.2Q83 352.5 84.4 351.2Q85.95 349.6 87.65 348.6Q89.75 347.35 92 347L96.1 346.8z" />
<path style="fill:none;stroke-width:2;stroke-linecap:round;stroke-linejoin:miter;stroke-miterlimit:3;stroke:#582903;stroke-opacity:1" d="M64.7,348.15Q69.35 348.1 72.45 351.2Q73.8 352.45 74.8 354.2M78.3,365.55Q77.5 360 75.85 356.2L75.45 355.4L74.8 354.2M65.9,354.35L64.45 363.75L64.1 367.15Q63.85 371.05 64.15 373.25L64.2 373.35" />
<path style="fill:none;stroke-width:3;stroke-linecap:butt;stroke-linejoin:miter;stroke-miterlimit:3;stroke:#AE4200;stroke-opacity:1" d="M120.55,391.35L127.6 383.65Q131.75 378.65 134.9 378.3Q137.75 378 140.7 379.65Q143.95 381.45 146.8 385.45Q149.9 389.75 154.1 404.3L154.95 407.35L157.65 418L159.4 416.9Q161.35 415.9 162.15 416.2Q164.15 416.95 165.65 418.7Q167.2 420.5 167.4 422.7M154.45,434Q153.05 436.05 150.45 436.05Q147.55 436.05 145.25 433.95Q144 432.85 144.65 427.3Q145.3 422.15 143.75 421.7Q142.1 421.25 140.4 424.25Q138.5 427.7 137.4 428.05Q135.45 428.65 133.95 426Q132.5 423.3 133.3 420.5Q134 418.15 137.4 416.5L140.65 415.35L140 407.35M55.75,491.1Q49.3 481.5 51.35 467.85Q58.25 434.35 56.65 408.2Q54.7 404 51.9 399.85Q46.35 391.5 42.3 391.8Q38.25 392.1 36.3 403.75L35.8 407.35Q35.3 411.35 35.15 415.35L38.4 416.5Q41.8 418.15 42.5 420.5Q43.3 423.3 41.85 426Q40.35 428.65 38.4 428.05M12.35,429L10.25 427Q8.2 424.6 8.4 422.7Q8.6 420.5 10.15 418.7Q11.65 416.95 13.65 416.2Q14.45 415.9 16.4 416.9L18.15 418L20.85 407.35L21.7 404.3Q25.9 389.75 29 385.45Q31.85 381.45 35.1 379.65Q38.05 378 40.9 378.3M120.55,391.35L120.35 391.95L119.85 393.25L119.55 394.25L119.5 394.45L119.45 394.5L118.5 397.05Q115.8 403.85 98.65 409.75Q92.15 412.05 85.9 413.25Q80 414.4 78 413.95Q73.85 412.95 66.55 408L62.55 405" />
<path style="fill:#582903;fill-opacity:1" d="M80.45,322.2Q81.2 321.7 82.5 321.2Q83.8 320.75 84.5 320.65L84.65 320.7L84.7 320.85L84.45 321.3L84.2 321.7L84.2 321.8L86.75 321.25L86.85 321.45L86.05 322.1L88.5 322.95L89.35 323.35L89.85 323.9L89.75 324.1Q86.45 324.75 84.25 325.65L80.35 327.3Q79.9 327.45 78.8 328.05L77.05 328.95L76.25 329.5L74.05 330.75L73.8 330.7L73.75 330.3Q73.75 329.7 75 327.95Q75.8 326.35 77.55 324.4Q78.45 323.3 80.45 322.2M98.8,321.25L100.45 322.05L102.75 323.8Q104.15 325.35 104.75 326.65Q105.75 328.05 105.75 328.5L105.75 328.85L105.55 328.85L103.8 327.85L103.15 327.45L101.75 326.7L100.5 326.1L97.4 324.8Q95.65 324.1 93 323.55L92.95 323.4L93.35 322.95L94 322.65L95.95 321.95L95.35 321.45L95.4 321.3L97.45 321.75L97.45 321.65L97.25 321.35L97.05 321L97.1 320.85L97.2 320.8L98.8 321.25" />
</g>
</svg>
