<?xml version="1.0" encoding="utf-8"?>
<svg version="1.1" id="Layer_1"
xmlns="http://www.w3.org/2000/svg"
xmlns:xlink="http://www.w3.org/1999/xlink"
xmlns:author="http://www.sothink.com"
width="32px" height="62px"
xml:space="preserve">
<g id="266" transform="matrix(1, 0, 0, 1, 14.55, 53.95)">
<path style="fill:#BDBDBD;fill-opacity:1" d="M-8.1,-38.75L-8.1 -44.45L0.45 -44.45L8.55 -44.45L8.95 -38.75L6.4 -38.75Q7.15 -38.8 7.8 -39.6Q8.55 -40.35 8.55 -41.4Q8.55 -42.45 7.8 -43.3Q7.15 -44.05 6.15 -44.05Q5.15 -44.05 4.4 -43.3Q3.7 -42.45 3.7 -41.4Q3.7 -40.35 4.4 -39.6Q5.15 -38.8 6 -38.75L-8.1 -38.75M-10.75,-18.9L-9.5 -29.45L9.95 -29.45L10.4 -29.45L10.7 -27.85Q8.2 -26.5 7.45 -26.5Q5.15 -26.4 3.55 -25.3Q1.95 -24.05 1.95 -22.25Q1.95 -20.35 2.1 -18.75L-10.75 -18.9M3.8,-5.8L4.75 2.5Q5.15 4.7 5.9 6.8L-13.7 6.8L-12.2 -5.8L3.8 -5.8" />
<path style="fill:#FFCC00;fill-opacity:1" d="M6,-38.75Q5.15 -38.8 4.4 -39.6Q3.7 -40.35 3.7 -41.4Q3.7 -42.45 4.4 -43.3Q5.15 -44.05 6.15 -44.05Q7.15 -44.05 7.8 -43.3Q8.55 -42.45 8.55 -41.4Q8.55 -40.35 7.8 -39.6Q7.15 -38.8 6.4 -38.75L6 -38.75" />
<path style="fill:#FFFFFF;fill-opacity:1" d="M2.1,-18.75Q1.95 -20.35 1.95 -22.25Q1.95 -24.05 3.55 -25.3Q5.15 -26.4 7.45 -26.5Q8.2 -26.5 10.7 -27.85L12.15 -18.65L2.1 -18.75M4.75,2.5L3.8 -5.8L14.3 -5.8L16.35 6.8L5.9 6.8Q5.15 4.7 4.75 2.5" />
<path style="fill:#C68383;fill-opacity:1" d="M10.95,-31.05L9.55 -33.95Q8.9 -35.15 7.65 -35.15L2.95 -35.3L-3.35 -35.55L-9 -35.4Q-11.6 -35.55 -12.7 -36.15L-12.7 -36.55Q-12.7 -38.75 -9.5 -38.75L-8.1 -38.75L6 -38.75L6.4 -38.75L8.95 -38.75L9.95 -38.75Q13 -38.75 13 -36.55L13 -31.65Q13 -30.3 11.75 -29.75L10.95 -31.05M3.8,-5.8L3.65 -6.7L2.5 -15.95L2.1 -18.75L12.15 -18.65L14.3 -5.8L3.8 -5.8" />
<path style="fill:#AD6565;fill-opacity:1" d="M-9.5,-29.45Q-12.7 -29.45 -12.7 -31.65L-12.7 -36.15Q-11.6 -35.55 -9 -35.4L-3.35 -35.55L2.95 -35.3L7.65 -35.15Q8.9 -35.15 9.55 -33.95L10.95 -31.05L11.75 -29.75L10.4 -29.45L9.95 -29.45L-9.5 -29.45M2.1,-18.75L2.5 -15.95L3.65 -6.7L3.8 -5.8L-12.2 -5.8L-10.75 -18.9L2.1 -18.75" />
<path style="fill:#918F8F;fill-opacity:1" d="M-1.45,-48.25Q-2.7 -50 -3.05 -52.3L0.35 -53.2Q8.2 -52.2 11.9 -44.45L8.55 -44.45L0.45 -44.45Q0 -46.1 -1.45 -48.25" />
<path style="fill:#777575;fill-opacity:1" d="M0.45,-44.45L-8.1 -44.45L-11.2 -44.45Q-9.3 -50.05 -3.05 -52.3Q-2.7 -50 -1.45 -48.25Q0 -46.1 0.45 -44.45" />
<path style="fill:none;stroke-width:1.5;stroke-linecap:butt;stroke-linejoin:miter;stroke-miterlimit:3;stroke:#515151;stroke-opacity:1" d="M-8.1,-44.45L-11.2 -44.45Q-9.3 -50.05 -3.05 -52.3L0.35 -53.2Q8.2 -52.2 11.9 -44.45L8.55 -44.45M10.4,-29.45L9.95 -29.45L-9.5 -29.45M12.15,-18.65L2.1 -18.75L-10.75 -18.9M3.8,-5.8L14.3 -5.8M3.8,-5.8L-12.2 -5.8" />
<path style="fill:none;stroke-width:1.5;stroke-linecap:round;stroke-linejoin:miter;stroke-miterlimit:3;stroke:#515151;stroke-opacity:1" d="M6,-38.75Q5.15 -38.8 4.4 -39.6Q3.7 -40.35 3.7 -41.4Q3.7 -42.45 4.4 -43.3Q5.15 -44.05 6.15 -44.05Q7.15 -44.05 7.8 -43.3Q8.55 -42.45 8.55 -41.4Q8.55 -40.35 7.8 -39.6Q7.15 -38.8 6.4 -38.75" />
<path style="fill:none;stroke-width:1.5;stroke-linecap:round;stroke-linejoin:miter;stroke-miterlimit:3;stroke:#515151;stroke-opacity:1" d="M6.4,-38.75L8.95 -38.75L8.55 -44.45L0.45 -44.45L-8.1 -44.45L-8.1 -38.75L6 -38.75L6.4 -38.75z" />
<path style="fill:none;stroke-width:1.5;stroke-linecap:butt;stroke-linejoin:miter;stroke-miterlimit:3;stroke:#515151;stroke-opacity:1" d="M8.95,-38.75L9.95 -38.75Q13 -38.75 13 -36.55L13 -31.65Q13 -30.3 11.75 -29.75L10.4 -29.45L10.7 -27.85L12.15 -18.65L14.3 -5.8L16.35 6.8L5.9 6.8L-13.7 6.8L-12.2 -5.8L-10.75 -18.9L-9.5 -29.45Q-12.7 -29.45 -12.7 -31.65L-12.7 -36.15L-12.7 -36.55Q-12.7 -38.75 -9.5 -38.75L-8.1 -38.75" />
</g>
</svg>
