<?xml version="1.0" encoding="utf-8"?>
<svg version="1.1" id="Layer_1"
xmlns="http://www.w3.org/2000/svg"
xmlns:xlink="http://www.w3.org/1999/xlink"
xmlns:author="http://www.sothink.com"
width="215px" height="161px"
xml:space="preserve">
<g id="338" transform="matrix(1, 0, 0, 1, 18.1, -411.85)">
<path style="fill:#000000;fill-opacity:0.2" d="M162.9,567.4Q133 572.05 90.6 572.05Q48.2 572.05 18.35 567.4Q-11.55 562.75 -11.55 556.1Q-11.55 549.45 18.35 544.8Q48.2 540.1 90.6 540.1Q133 540.1 162.9 544.8Q192.75 549.45 192.75 556.1Q192.75 562.75 162.9 567.4" />
<path style="fill:#FC850F;fill-opacity:1" d="M-8,556.35L-7.9 558.05Q-7.7 559.05 -6.9 559.65L-6.5 559.7L-5.4 559.85Q-2.95 558.85 -0.55 554.75L1.2 552Q2.25 550.25 2.25 549.15L2.15 548.1L0.65 546.95L-3.1 547.2L-3.85 547.55L-4.8 547.9Q-5.45 547.9 -6.2 548.5L-6.4 548.9Q-7.45 548.4 -8.5 547.55Q-10.9 545.65 -10.95 543.65Q-11 541.65 -9.2 541.3L-7.4 541.3Q-8 539.35 -6.85 538.05Q-5.15 536.2 -2.65 537.7Q-1.4 538.45 -0.5 539.6Q-0.25 538.55 0.55 538.05Q2.45 536.9 4.8 538.9Q6.85 540.6 7.7 543.15Q8.35 544.95 5.8 550.15L3.1 554.95L33.3 556.75L30.1 553.85L24.2 551.4Q17.9 548.65 15.85 546.85Q12.8 544.2 8.3 538.7Q3.1 532.25 1.8 528.65L1 526.05L1.35 526.1L1.55 525.9Q1.45 526.4 1.6 526.8L1.95 526.85Q3.3 525.8 5.1 525.15Q6.95 524.45 8.5 523.2L8.25 522.95Q6.7 523.05 5.6 523.55L3.8 524.3L2.2 524.8Q1.1 525.25 0.9 525.6Q-0.85 518.05 2.4 511.15Q3.6 508.6 5.4 506.4L6.95 504.75Q8.75 503.7 10.9 503.1Q15.15 501.9 16.7 504Q18.05 505.8 15.35 510.1Q11.8 515.75 11.3 519.1Q10.65 523.65 14.35 528.3Q16.2 530.65 18.15 532.1Q15.7 520.9 20.2 513.05Q23 508.15 30.35 503.3L37.15 499.4L41 494.55Q29.25 482.45 15.4 476.4Q10.5 471.1 6.85 466.15Q2.3 460.1 -0.45 454.6Q-3.3 454 -6.45 453Q-12.75 451.05 -14.3 449.25Q-16 447.3 -14.45 444.9Q-13.2 443 -11.2 442.2L-11.55 439.55Q-11.75 436.75 -10.7 435.95Q-8.6 434.4 -6.35 435.7Q-5.8 434.55 -4.85 433.6Q-2.95 431.65 -1 432.6Q0.95 433.55 2.75 438.4L4.1 442.8L3.4 442.4L1.25 442.2Q-1.5 442.5 -3.5 444.7Q-3.95 445.2 -4.1 446.3L-4.25 448L-4.2 448.45L-4.25 448.95Q-4.25 450 -3.45 450.6L-1.75 451.5L-1.6 451.6L-0.65 452.1L-0.25 452.25L0.15 452.5L1.65 452.7L3.35 452.6L3.35 452.5L4.6 452.35L6.2 451.1Q7 450.15 7 449.4L6.95 448.5L7 447.75L6.7 446.2L5.85 444.45Q5.3 443.25 4.45 443L4.2 442.85Q4.5 440.65 5.25 438.7Q6.8 434.65 9.25 436.2Q11.7 437.75 9.95 443.15Q9.05 445.85 7.7 448.2Q12.65 454.7 18.45 461.35Q28.45 472.85 40.9 484.75L35.05 473.3L35.35 473.3L38.95 471.95L42.1 470.45L42.75 469.8L42.5 469.55L40.25 469.75Q38.95 470.1 38.35 470.5L36.1 471.4Q34.85 471.8 34.85 472.1L35.05 472.4Q34.75 472.35 34.7 472.55L30.5 464.35L36.9 465.65L31 454.35L35.9 454.35L32.8 446.7L40.75 448.2L42.8 444.1L47.65 445.4Q46.7 438.25 46.5 430.95Q46.1 416.4 49.95 415.7Q53.85 415 62.4 426.7Q66.7 432.55 70.2 438.5Q72.05 437.15 74.45 435.8Q79.2 433.05 81.95 432.85Q84.25 432.7 87.2 435.1Q90.05 437.45 91.7 437.2Q93.25 436.95 96.65 435Q99.65 433.25 101.15 433.35Q104 433.55 108.05 436.2Q113.7 430.2 120 424.35Q132.7 412.6 136.25 413.4Q139.8 414.2 137.25 430.9Q135.95 439.25 133.95 447.45L140.05 448.75L135.95 456.15L140.85 455.9L137.75 462.05L142.1 463.3L138.6 472.35L138.35 472.05L135.9 471.35L132.1 470.7L131.85 470.85L132.05 471.25L137.1 473L137.2 472.95L137.4 472.8L137.55 472.75Q137.8 472.75 137.8 472.9Q137.75 473.05 138.2 473.05L138.35 473.05L137 476.5Q136.65 476.2 135.2 475.8L132.85 475.2L132.6 475.5L133.7 476.25Q134.9 477 135.5 477L136.35 476.8L136.85 476.9L135.6 480.1Q135.3 479.85 134.7 479.55L132.75 478.75L131 478L128.5 478.05Q128.5 478.55 130.8 479.7Q133.05 480.85 134.1 480.9L134.5 480.8L134.85 480.4L135.35 480.65L134.5 482.9Q133.3 482.2 131.7 481.45L128 479.8L127.15 479.85L127.1 480.1Q127.1 480.35 128.05 481.05L129.6 482.05L131.55 483.2L134.25 483.55L133.6 485.2L133.05 485L131.1 484Q130.4 483.6 129.15 483.1Q127.4 482.45 126.6 482.7L126.5 482.9L126.35 483.1Q126.35 483.6 128.75 484.95L132 486.75L132.6 486.75L132.85 486.25L133.2 486.3L133.35 486.05L133.85 486L134.1 485.65L133.9 485.25L133.7 485.25Q147.6 472.5 157.3 461.35L168.05 448.2Q166.7 445.85 165.8 443.15Q164.05 437.75 166.5 436.2Q168.95 434.65 170.5 438.7Q171.3 440.7 171.6 443L171.35 443.15Q169 445 169 447Q169 448.6 170.35 449.3L171.95 450.15L175.9 450.9L177.85 450.85L177.85 450.75Q180.15 450.8 181.2 449.5Q181.85 448.65 181.85 447.6L181.6 446.05Q181.35 445.35 180.55 444.4L179.05 442.8L178.1 441.95L174.6 441.55L174.45 441.65Q173.5 441.45 171.65 442.95Q172.15 440.75 173 438.4Q174.8 433.55 176.75 432.6Q178.7 431.65 180.6 433.6Q181.55 434.55 182.1 435.7Q184.35 434.4 186.45 435.95Q187.5 436.75 187.3 439.55L186.95 442.2Q188.95 443 190.2 444.9Q191.75 447.3 190.05 449.25Q188.5 451.05 182.2 453L176.2 454.6Q173.45 460.1 168.9 466.15Q165.25 471.1 160.35 476.4Q146.5 482.45 134.75 494.55L137 498.15L140.7 499.7Q145.15 501.75 149.1 504.1Q161.6 511.6 163.9 519.4Q166.2 527.2 159.35 541.1Q155.95 548.05 152.1 553.45L179 551.4Q177.95 548.35 177.35 545.05Q176.1 538.45 178.2 537.3Q179.8 536.4 181.6 536.65Q183.2 536.85 184.5 537.8L187.45 537.2Q190.5 536.95 191.2 538.65L191.65 540.75L193.35 542.3Q194.95 544.1 194.35 545.5Q193.75 546.9 191.3 547.5L189.2 547.8Q188.4 545 186.4 543.7Q181.35 543.35 181.35 546.6L181.6 548L181.9 549.2L182.05 549.95L182.2 550.55L182.85 551.85Q183.4 553.1 184.45 554.45L185.85 555.65Q187.3 556.7 187.95 556.7L189.5 556.6Q190.05 556.1 190.15 555.3L190.2 553.8L189.55 549.25L190.55 551.75Q191.8 556.05 189.75 557.8Q187.7 559.55 168.05 559.25L148.75 558.55Q94.5 566.65 40.25 560.05L17.05 561.4Q-6.45 562.3 -7.9 560.3Q-9.35 558.3 -7.9 553.5L-7.5 552.5Q-8 554.75 -8 556.35M123.15,428.3L114.2 438.2L120.1 438.95L121.65 443.05L125.5 442.55L128.05 446.65L131.6 433.65Q134.95 420.45 133.65 419.5Q132.35 418.55 123.15 428.3M100.1,448.15Q97.85 443.95 93.25 443.55Q90.15 443.3 88.05 445.6Q87.05 446.7 86.6 447.9L85.55 446.4Q83.8 444.2 80.95 443.5Q77.6 442.7 74.25 444.65Q70.85 446.6 70.4 453.2Q70.2 456.5 70.65 459.4Q73.25 461.35 75.35 464.45Q76.6 466.3 77.55 468.5L82.25 470.2Q87.85 471.9 92.45 471.75Q98.9 471.6 104.9 467.95Q111.65 463.8 110.4 458.7Q109.15 453.65 102.05 452.4L101.4 452.3Q101.2 450.25 100.1 448.15M51.5,423.35Q49.65 424.6 51.3 435Q52.15 440.15 53.35 445.1L56.35 444.85L57.4 440.75L59.7 443.55L60.7 441.25L65.6 440.25Q62.85 435.55 59.7 431.05Q53.4 422.1 51.5 423.35M39.35,475.2Q40.55 474.55 41.35 474.45L41.8 474.1L42 473.8L41.9 473.55L40.1 473.8L38.9 474.3L37.45 474.8Q37 475 37 475.55L37.1 475.75L37.75 475.8Q38.15 475.8 39.35 475.2M38,477.3Q37.6 477.35 37.6 477.7L37.7 477.9L38.35 478L38.6 478.3L41.45 477.95Q41.6 477.7 42.25 477.65L43.05 477.6L44.7 476.9Q46.45 476.15 46.6 475.8L46.35 475.55L45.2 475.7L45 475.55L43.45 475.75L42.6 476.05L40.8 476.5L39.25 476.9L38.7 477.2L38 477.3M38.65,479.35L38.6 479.55L38.65 479.75L38.85 479.8L39.35 479.8L39.6 480.15L40 480.25Q39.9 480.55 39.95 480.75L40.3 480.75L42.65 480.25Q43.5 480.15 44.35 479.45L45.7 478.8Q46.75 478.25 46.75 477.9L46.65 477.6L44.85 477.75Q43.15 478 42.75 478.3Q42.25 478.65 41.1 478.8L39.3 479.1L38.65 479.35M46.65,451Q43.95 450.3 41.1 453.55Q37.9 457.25 38.95 462.5Q40.05 467.85 44.6 469.7L46 470.15L51.5 470.45L48.45 460.45Q48.75 458.3 48.7 456.05Q48.55 451.5 46.65 451M49.25,481.95L43.7 482.25Q40.35 482.7 40.35 483.15L40.85 484.05L41.95 484Q41.4 484.05 41.4 484.3L41.45 484.45L41.75 484.5L42.35 484.5Q49.5 483.35 49.5 482.25L49.25 481.95M43.6,490.25L45.35 490L45.1 490.05L44.4 490.35L44.3 490.55L44.35 490.75L44.85 490.75L47.8 489.85L50.55 489.3Q51.5 489.1 51.5 488.75Q51.5 488.3 50.75 488.3L46.1 488.5L44.8 488.65L43.1 489L43 489L43 489.15L43.2 490L43.5 490.05L43.6 490.25M55.8,485.45Q55.6 485.35 55.35 485.6Q55.5 486.75 56.2 487.4Q56.95 488.05 59.45 488.7L60.9 488.95L61.8 489.15L64.7 489.2Q66.1 489.15 66.6 488.7L66.5 488.5L61.85 487.85L59.5 487.25L57.55 486.3Q56.7 485.8 56.3 485.8L55.8 485.45M10.25,505.3L8.9 504.45Q8.1 504.05 8.1 504.9Q8.1 505.45 9.8 506.45Q11.4 507.4 12.1 507.45L12.3 507.4L12.35 507.15Q12.35 506.85 11.55 506.15L10.25 505.3M9,511.65Q8.55 511 6.6 510.3Q4.65 509.6 3.6 509.8L3.6 510.45L4.15 510.9L4.75 511.1L5.8 511.4L7.55 511.7L7.7 511.8L8.85 511.8L9 511.65M1.05,516.45L0.75 517.35L0.85 517.55L1.1 517.65L1.2 518L1.45 518.05L2.95 517.95L4.45 518.15L5.8 518.05L5.85 517.8Q5.85 517.35 4.3 516.9L1.25 516.45L1.05 516.45M9.5,531.7Q9 531.55 6.9 532.9Q5.9 533.5 5.65 533.85Q5.5 534.05 5.5 534.7L5.6 534.9L5.85 535L5.95 535.55L6.35 535.6L8.25 533.9L9.75 532.05L9.5 531.7M14.75,535.15L14.65 534.75Q14.25 534.65 13.95 535.1L13.45 535.85L12.05 537.25Q10.5 539.15 10.5 539.95L10.6 540.4L10.85 540.45Q10.7 540.8 10.9 541.15L11.4 541.45L13.1 538.5L14.15 536.8Q14.75 535.75 14.75 535.15M14.45,543.05L14.3 543.65Q14.3 544.2 14.45 544.55L14.7 544.6L16.1 541.8L16 541.5Q15.65 541.55 15.2 541.9L14.8 542.4L14.45 543.05M20.55,542.15Q19.85 541.85 18.3 544Q16.8 546.05 16.8 546.9L16.85 547.15L17.1 547.2L17.45 547L17.45 547.1Q17.3 547.4 17.45 547.65L17.85 547.7L19.55 544.75L20.6 542.5L20.55 542.15" />
<path style="fill:#E66006;fill-opacity:1" d="M174.45,441.65L174.6 441.55L178.1 441.95L179.05 442.8L180.55 444.4Q181.35 445.35 181.6 446.05L181.85 447.6Q181.85 448.65 181.2 449.5Q180.15 450.8 177.85 450.75L177.85 450.85L175.9 450.9L171.95 450.15L170.35 449.3Q169 448.6 169 447Q169 445 171.35 443.15L171.6 443L171.65 442.95Q173.5 441.45 174.45 441.65M189.2,547.8L189.45 548.7L189.55 549.25L190.2 553.8L190.15 555.3Q190.05 556.1 189.5 556.6L187.95 556.7Q187.3 556.7 185.85 555.65L184.45 554.45Q183.4 553.1 182.85 551.85L182.2 550.55L182.05 549.95L181.9 549.2L181.6 548L181.35 546.6Q181.35 543.35 186.4 543.7Q188.4 545 189.2 547.8M-7.5,552.5L-7.45 552.3Q-7 550.2 -6.4 548.9L-6.2 548.5Q-5.45 547.9 -4.8 547.9L-3.85 547.55L-3.1 547.2L0.65 546.95L2.15 548.1L2.25 549.15Q2.25 550.25 1.2 552L-0.55 554.75Q-2.95 558.85 -5.4 559.85L-6.5 559.7L-6.9 559.65Q-7.7 559.05 -7.9 558.05L-8 556.35Q-8 554.75 -7.5 552.5M4.1,442.8L4.2 442.85L4.45 443Q5.3 443.25 5.85 444.45L6.7 446.2L7 447.75L6.95 448.5L7 449.4Q7 450.15 6.2 451.1L4.6 452.35L3.35 452.5L3.35 452.6L1.65 452.7L0.15 452.5L-0.25 452.25L-0.65 452.1L-1.6 451.6L-1.75 451.5L-3.45 450.6Q-4.25 450 -4.25 448.95L-4.2 448.45L-4.25 448L-4.1 446.3Q-3.95 445.2 -3.5 444.7Q-1.5 442.5 1.25 442.2L3.4 442.4L4.1 442.8M133.65,419.5Q134.95 420.45 131.6 433.65L128.05 446.65L125.5 442.55L121.65 443.05L120.1 438.95L114.2 438.2L123.15 428.3Q132.35 418.55 133.65 419.5M59.7,431.05Q62.85 435.55 65.6 440.25L60.7 441.25L59.7 443.55L57.4 440.75L56.35 444.85L53.35 445.1Q52.15 440.15 51.3 435Q49.65 424.6 51.5 423.35Q53.4 422.1 59.7 431.05" />
<path style="fill:#FF6D6B;fill-opacity:1" d="M80,459.45Q84.6 455.1 88.35 453.6Q89.15 453.25 89.9 453.05Q95.9 451.45 101.4 452.3L102.05 452.4Q109.15 453.65 110.4 458.7Q111.65 463.8 104.9 467.95Q98.9 471.6 92.45 471.75Q87.85 471.9 82.25 470.2L77.55 468.5Q76.6 466.3 75.35 464.45Q77.25 462.05 80 459.45" />
<path style="fill:#FFFFFF;fill-opacity:1" d="M75.35,464.45Q73.25 461.35 70.65 459.4Q70.2 456.5 70.4 453.2Q70.85 446.6 74.25 444.65Q77.6 442.7 80.95 443.5Q83.8 444.2 85.55 446.4L86.6 447.9Q87.05 446.7 88.05 445.6Q90.15 443.3 93.25 443.55Q97.85 443.95 100.1 448.15Q101.2 450.25 101.4 452.3Q95.9 451.45 89.9 453.05Q89.15 453.25 88.35 453.6Q84.6 455.1 80 459.45Q77.25 462.05 75.35 464.45M91.45,448.45Q90.75 448.8 90.5 449.35Q90.35 449.7 90.35 450.4L90.45 451.25L91.7 452.1L92.95 452.1L94.05 451.15L94.2 450.25Q94.2 448.3 91.45 448.45M82.45,453.05L82 451.1Q81.4 449.55 80.45 449.6Q78.45 448.9 77.5 450.8Q77.05 451.75 76.95 452.9L77.15 454.1L78.05 455.3L79.4 455.6Q81.15 455.6 81.95 454.55Q82.45 453.85 82.45 453.05" />
<path style="fill:#FF2E28;fill-opacity:1" d="M48.7,456.05Q48.75 458.3 48.45 460.45L51.5 470.45L46 470.15L44.6 469.7Q40.05 467.85 38.95 462.5Q37.9 457.25 41.1 453.55Q43.95 450.3 46.65 451Q48.55 451.5 48.7 456.05M45.6,456.45L45.35 456.2Q44.8 456.35 44.2 457.9Q43.9 458.55 43.9 458.95L43.95 459.8Q43.95 461.3 44.4 462.4Q45.3 464.7 47.75 464.7L49.1 464.65L49.15 464.45L49.1 464.15L49.35 463.9L48.95 463.45Q46.45 463.35 45.4 461.75Q44.7 460.7 44.7 459.4L44.9 457.95Q44.95 457.6 45.3 457L45.6 456.45" />
<path style="fill:#582903;fill-opacity:1" d="M1,526.05L0.95 526.05L0.85 525.75L0.9 525.6Q1.1 525.25 2.2 524.8L3.8 524.3L5.6 523.55Q6.7 523.05 8.25 522.95L8.5 523.2Q6.95 524.45 5.1 525.15Q3.3 525.8 1.95 526.85L1.6 526.8Q1.45 526.4 1.55 525.9L1.35 526.1L1 526.05M35.05,473.3L34.85 473.25L34.6 472.75L34.7 472.55Q34.75 472.35 35.05 472.4L34.85 472.1Q34.85 471.8 36.1 471.4L38.35 470.5Q38.95 470.1 40.25 469.75L42.5 469.55L42.75 469.8L42.1 470.45L38.95 471.95L35.35 473.3L35.05 473.3M138.6,472.35L138.6 472.4L138.5 472.95L138.35 473.05L138.2 473.05Q137.75 473.05 137.8 472.9Q137.8 472.75 137.55 472.75L137.4 472.8L137.2 472.95L137.1 473L132.05 471.25L131.85 470.85L132.1 470.7L135.9 471.35L138.35 472.05L138.6 472.35M137,476.5L137.1 476.7L136.95 476.95L136.85 476.9L136.35 476.8L135.5 477Q134.9 477 133.7 476.25L132.6 475.5L132.85 475.2L135.2 475.8Q136.65 476.2 137 476.5M135.6,480.1L135.85 480.5L135.7 480.65L135.35 480.65L134.85 480.4L134.5 480.8L134.1 480.9Q133.05 480.85 130.8 479.7Q128.5 478.55 128.5 478.05L131 478L132.75 478.75L134.7 479.55Q135.3 479.85 135.6 480.1M134.5,482.9L135 483.25Q134.75 483.55 134.35 483.55L134.25 483.55L131.55 483.2L129.6 482.05L128.05 481.05Q127.1 480.35 127.1 480.1L127.15 479.85L128 479.8L131.7 481.45Q133.3 482.2 134.5 482.9M133.6,485.2L133.7 485.25L133.9 485.25L134.1 485.65L133.85 486L133.35 486.05L133.2 486.3L132.85 486.25L132.6 486.75L132 486.75L128.75 484.95Q126.35 483.6 126.35 483.1L126.5 482.9L126.6 482.7Q127.4 482.45 129.15 483.1Q130.4 483.6 131.1 484L133.05 485L133.6 485.2M94.2,450.25L94.05 451.15L92.95 452.1L91.7 452.1L90.45 451.25L90.35 450.4Q90.35 449.7 90.5 449.35Q90.75 448.8 91.45 448.45Q94.2 448.3 94.2 450.25M81.95,454.55Q81.15 455.6 79.4 455.6L78.05 455.3L77.15 454.1L76.95 452.9Q77.05 451.75 77.5 450.8Q78.45 448.9 80.45 449.6Q81.4 449.55 82 451.1L82.45 453.05Q82.45 453.85 81.95 454.55M37.75,475.8L37.1 475.75L37 475.55Q37 475 37.45 474.8L38.9 474.3L40.1 473.8L41.9 473.55L42 473.8L41.8 474.1L41.35 474.45Q40.55 474.55 39.35 475.2Q38.15 475.8 37.75 475.8M38.7,477.2L39.25 476.9L40.8 476.5L42.6 476.05L43.45 475.75L45 475.55L45.2 475.7L46.35 475.55L46.6 475.8Q46.45 476.15 44.7 476.9L43.05 477.6L42.25 477.65Q41.6 477.7 41.45 477.95L38.6 478.3L38.35 478L37.7 477.9L37.6 477.7Q37.6 477.35 38 477.3L38.7 477.2M39.3,479.1L41.1 478.8Q42.25 478.65 42.75 478.3Q43.15 478 44.85 477.75L46.65 477.6L46.75 477.9Q46.75 478.25 45.7 478.8L44.35 479.45Q43.5 480.15 42.65 480.25L40.3 480.75L39.95 480.75Q39.9 480.55 40 480.25L39.6 480.15L39.35 479.8L38.85 479.8L38.65 479.75L38.6 479.55L38.65 479.35L39.3 479.1M45.3,457Q44.95 457.6 44.9 457.95L44.7 459.4Q44.7 460.7 45.4 461.75Q46.45 463.35 48.95 463.45L49.35 463.9L49.1 464.15L49.15 464.45L49.1 464.65L47.75 464.7Q45.3 464.7 44.4 462.4Q43.95 461.3 43.95 459.8L43.9 458.95Q43.9 458.55 44.2 457.9Q44.8 456.35 45.35 456.2L45.6 456.45L45.3 457M49.5,482.25Q49.5 483.35 42.35 484.5L41.75 484.5L41.45 484.45L41.4 484.3Q41.4 484.05 41.95 484L40.85 484.05L40.35 483.15Q40.35 482.7 43.7 482.25L49.25 481.95L49.5 482.25M43.5,490.05L43.2 490L43 489.15L43 489L43.1 489L44.8 488.65L46.1 488.5L50.75 488.3Q51.5 488.3 51.5 488.75Q51.5 489.1 50.55 489.3L47.8 489.85L44.85 490.75L44.35 490.75L44.3 490.55L44.4 490.35L45.1 490.05L45.35 490L43.6 490.25L43.5 490.05M56.3,485.8Q56.7 485.8 57.55 486.3L59.5 487.25L61.85 487.85L66.5 488.5L66.6 488.7Q66.1 489.15 64.7 489.2L61.8 489.15L60.9 488.95L59.45 488.7Q56.95 488.05 56.2 487.4Q55.5 486.75 55.35 485.6Q55.6 485.35 55.8 485.45L56.3 485.8M11.55,506.15Q12.35 506.85 12.35 507.15L12.3 507.4L12.1 507.45Q11.4 507.4 9.8 506.45Q8.1 505.45 8.1 504.9Q8.1 504.05 8.9 504.45L10.25 505.3L11.55 506.15M8.85,511.8L7.7 511.8L7.55 511.7L5.8 511.4L4.75 511.1L4.15 510.9L3.6 510.45L3.6 509.8Q4.65 509.6 6.6 510.3Q8.55 511 9 511.65L8.85 511.8M1.25,516.45L4.3 516.9Q5.85 517.35 5.85 517.8L5.8 518.05L4.45 518.15L2.95 517.95L1.45 518.05L1.2 518L1.1 517.65L0.85 517.55L0.75 517.35L1.05 516.45L1.25 516.45M9.75,532.05L8.25 533.9L6.35 535.6L5.95 535.55L5.85 535L5.6 534.9L5.5 534.7Q5.5 534.05 5.65 533.85Q5.9 533.5 6.9 532.9Q9 531.55 9.5 531.7L9.75 532.05M14.15,536.8L13.1 538.5L11.4 541.45L10.9 541.15Q10.7 540.8 10.85 540.45L10.6 540.4L10.5 539.95Q10.5 539.15 12.05 537.25L13.45 535.85L13.95 535.1Q14.25 534.65 14.65 534.75L14.75 535.15Q14.75 535.75 14.15 536.8M14.8,542.4L15.2 541.9Q15.65 541.55 16 541.5L16.1 541.8L14.7 544.6L14.45 544.55Q14.3 544.2 14.3 543.65L14.45 543.05L14.8 542.4M20.6,542.5L19.55 544.75L17.85 547.7L17.45 547.65Q17.3 547.4 17.45 547.1L17.45 547L17.1 547.2L16.85 547.15L16.8 546.9Q16.8 546.05 18.3 544Q19.85 541.85 20.55 542.15L20.6 542.5" />
<path style="fill:#000000;fill-opacity:0.2" d="M178.15,433.1Q176.95 433.75 176.15 435.5Q175.5 436.95 175.5 438.05L175.55 438.9L176.45 439.6Q178.65 439.3 179.55 437.6L180.6 435.2L179.85 434.25L179.55 433.7L179.15 433.1L178.15 433.1M167.15,437.35Q166.9 437.7 166.9 438.45L167.6 440.8Q168.5 443.1 169.45 443.1Q170.7 443.1 170.7 441L170.15 438.8Q169.55 437.2 168.95 436.7L168.25 436.7Q167.45 436.95 167.15 437.35M171.65,442.95Q172.15 440.75 173 438.4Q174.8 433.55 176.75 432.6Q178.7 431.65 180.6 433.6Q181.55 434.55 182.1 435.7Q184.35 434.4 186.45 435.95Q187.5 436.75 187.3 439.55L186.95 442.2Q188.95 443 190.2 444.9Q191.15 446.35 190.9 447.65L190.55 446Q189.95 443.85 188.8 443.85Q187.55 443.85 186.7 444.8Q186.1 445.45 185.85 446.4Q185.6 447.3 184.5 447.95L182.3 449.25L180.1 450.35L178.1 450.9L175.3 451.45Q173.45 451.65 172.05 452.7Q171.3 453.3 170.3 454.4Q167.25 456.9 164.1 460.95L158.9 468Q156.05 471.65 152.65 474.65Q151.05 476 148.15 477.8Q145.05 479.75 143.9 480.65Q135.3 487.4 132 492.45L131.95 492.2L131.95 489.1L134.1 484.85Q147.75 472.35 157.3 461.35L168.05 448.2Q166.7 445.85 165.8 443.15Q164.05 437.75 166.5 436.2Q168.95 434.65 170.5 438.7Q171.3 440.7 171.6 443L171.65 442.95M180.55,443.9Q183 443.05 184.85 441.75Q186.85 440.3 186.85 439.1L186.45 438.1L185.75 437.25Q184.3 437.1 182.1 439.65Q180.05 442.05 180.05 443.15L180.15 443.6L180.55 443.9M164.15,527.45Q163.2 533.3 159.35 541.1Q155.95 548.05 152.1 553.45Q151.15 554.25 151.15 554.55Q151.15 555 151.5 555.5Q151.95 556.2 152.75 556.15L170.7 556.15L180.45 555Q181.55 554.6 181.55 553.3Q181.55 552.45 181 551.25L180.6 549.25L180.4 546.95Q180.4 545.55 180.8 544.25L181.2 543.45Q182.8 543.45 184.25 542.65Q185.85 541.85 185.85 540.85Q185.85 539.7 184.4 538.65Q183.05 537.65 181.3 537.4Q177.8 537 176.95 539.65Q177.2 537.85 178.2 537.3Q179.8 536.4 181.6 536.65Q183.2 536.85 184.5 537.8L187.45 537.2Q189.5 537.05 190.5 537.75L189.4 537.65Q187.05 537.8 187.05 540.45L187.1 541.1L188.1 541.9L190 542.05L190.65 542.5Q191.15 542.5 191.15 542.25Q191.1 541.7 190.65 541.35L191.35 540.45L191.6 540.05L191.65 540.75L193.35 542.3L193.65 542.65Q192.15 542.55 191.1 543.7Q190.15 544.65 190.15 545.25L190.2 545.9Q190.4 546.35 191.1 546.4L192 546.4Q193.35 546.65 194.4 545.4L194.35 545.5Q193.75 546.9 191.3 547.5L189.2 547.8L189.45 548.7L189.55 549.25L190.55 551.75Q191.8 556.05 189.75 557.8Q187.7 559.55 168.05 559.25L148.75 558.55Q94.5 566.65 40.25 560.05L17.05 561.4Q-6.45 562.3 -7.9 560.3Q-9.35 558.3 -7.9 553.5L-7.5 552.5L-7.45 552.3Q-7 550.2 -6.4 548.9Q-7.45 548.4 -8.5 547.55Q-10.9 545.65 -10.95 543.65Q-11 541.65 -9.2 541.3L-7.4 541.3Q-8 539.35 -6.85 538.05Q-5.15 536.2 -2.65 537.7Q-1.4 538.45 -0.5 539.6Q-0.25 538.55 0.55 538.05Q2.45 536.9 4.8 538.9Q6.85 540.6 7.7 543.15Q8.35 544.95 5.8 550.15L3.1 554.95L4.55 555.05L2.8 555.35L2.85 555.2L4.9 549.95Q6.55 545.3 6.55 543.75Q6.55 542.25 5.25 540.3Q3.85 538.15 2.25 537.9L2.2 538.35L2.2 538.6Q1.45 538.55 1.3 538.85L1.25 539.55L2.25 541.75Q3.2 543.75 3.2 546.3Q3.2 549.1 2.05 552.15Q0.85 555.15 0.85 555.6Q0.85 557 1.95 557.7Q4.5 559.3 12.35 559.3L20 558.75L28.7 558.5Q31.9 558.8 31.9 557.6L31.8 557.25L31.35 557.15L28.35 557.25L27.65 556.95L28 556.85L28.15 556.45L33.3 556.75L30.1 553.85L24.2 551.4Q17.9 548.65 15.85 546.85Q12.8 544.2 8.3 538.7Q3.1 532.25 1.8 528.65L1 526.05L0.95 526.05L0.85 525.75L0.9 525.6Q-0.85 518.05 2.4 511.15Q3.6 508.6 5.4 506.4L6.95 504.75Q7.85 504.2 8.85 503.8L9 503.9L9.5 504L10.8 503.5L11.8 503.5L12.2 504.4L10.3 507Q8.1 509.75 7.3 511.75L6.65 514.8Q6.15 517.75 6.15 519Q6.15 521.75 6.55 523.45L8.2 528.4Q9.1 531.1 10.55 533.6Q12.85 537.6 14.8 537.6Q16.05 537.6 16.05 535.5L15.85 531.85L16.05 530.25L18.15 532.1Q15.7 520.9 20.2 513.05Q23 508.15 30.35 503.3L37.15 499.4L41 494.55Q29.25 482.45 15.4 476.4Q10.5 471.1 6.85 466.15Q2.3 460.1 -0.45 454.6Q-3.3 454 -6.45 453Q-12.75 451.05 -14.3 449.25Q-16 447.3 -14.45 444.9Q-13.2 443 -11.2 442.2L-11.55 439.55Q-11.75 436.75 -10.7 435.95Q-8.6 434.4 -6.35 435.7Q-5.8 434.55 -4.85 433.6Q-2.95 431.65 -1 432.6Q0.95 433.55 2.75 438.4L3.85 441.85L3.3 440.75Q2.85 440.75 2.75 440.35L2.65 440.1L2.65 439.9Q2.65 439.2 1.9 437.4L0.65 434.9Q-1.4 432.35 -1.9 432.35Q-2.25 432.3 -2.25 434.15L-2.25 435.7L-1.4 437.65L0.35 440.3L0.65 441.5L0.4 442.55L-0.3 443.55L-1.2 443.55L-2.15 442.65Q-2.35 442.4 -2.7 442.35Q-3 440.25 -5.2 438.05Q-7.05 435.45 -8.4 435.45Q-9.5 435.5 -9.5 437L-9.1 438.65L-8.1 440.25L-6 442L-4.2 443.05L-3.45 445.4L-3.75 446.2L-4.3 447L-5.75 446.9L-7.4 444.9Q-9.4 442.8 -10.55 443.1Q-11.4 443.35 -11.6 444.2L-11.65 445.35Q-11.65 447.65 -8.6 448.55L-6.6 448.55L-6.05 448.95L-5.8 448.95L-4.05 449.85L-2 450.8Q-1.7 451.75 0.35 452.3Q3.3 453.15 4.4 454.6L8.3 459.45L11.6 464.15Q12.65 466.15 15.2 469Q16.35 470.3 20.15 472.7L22.8 474.95L25.6 477.15Q30.35 480.3 32.3 481.45Q36.95 484.3 38.35 484.3L39.1 484.15L39.15 483.65L38.85 482.8L40.9 484.75L35.05 473.3L34.85 473.25L34.6 472.75L34.7 472.55L30.5 464.35L36.9 465.65L31 454.35L35.9 454.35L32.8 446.7L40.75 448.2L42.8 444.1L46.6 445.15L47.3 446L48.2 446.55L48.7 446.6L48.7 446.7L49.5 449.3Q50.3 451.6 50.3 454.4L49.85 458.5Q49.85 460.95 51.3 464.9Q52.85 468.9 54.4 470.35L60.5 475.7Q62.75 477.4 63.95 477.75L69.2 479.25L73.8 479.8L81.45 479.6Q80.35 478.75 79.45 476.05Q78.9 474.45 78.85 473.75L78.9 471.85L78.95 470.8Q78.5 470.15 77.85 470.1L77.85 470.25Q77.05 467.85 75.4 465.4Q73 461.85 69.65 458.5Q69.05 457.9 67.3 457.1L64.9 456.05L61.45 454.85L59.4 454.35L61.2 453.15L64.85 449.1Q70 443.15 77.75 443.15Q83.1 443.15 84.6 445L85.3 446.25Q85.6 446.8 86.05 446.8Q86.7 446.8 86.95 446.3L87.5 445.3Q88.7 443.75 93.65 443.75Q97.4 443.75 99.5 447.7L100.75 450.4L101.5 451.45L101.45 451.6L101.5 452.15Q106.45 451.8 109 455.15Q110.75 457.45 110.75 460.15Q110.75 462.15 109.9 464.8L109.15 466.85L109.25 467.15L107.8 469.35L106 471.35L102.8 474.6L100.1 476.6L100.9 476.45Q104.4 475.9 107.3 474.6Q110.6 473.1 111.7 472.85Q115.6 471.9 119.25 469.3L125.2 464.75L125.25 464.85L123.9 467.9Q122.75 470.4 121.8 471.6Q120.5 473.15 117.65 474.95L113.05 477.6Q111.45 478.6 108.15 479.75L101.55 481.95Q95.95 483.85 87.8 484.85L72.25 485.75L67.75 484.95Q64.9 484.2 63.05 483.35L57.6 480.6Q56.05 479.65 52.3 476.7L48.85 473.95Q47.9 473.95 47.9 475.55Q47.9 477.3 51.65 485.5Q52.75 488.45 55.5 490L58.35 492.2Q60.5 493.35 66.1 493.4L66.1 493.3L66.15 493.4L66.85 493.4L66.45 493.5L71.1 493.35L72.9 493.1L74.85 492.95L81.25 492.6L87.15 492.2L91.6 492.4L91.8 492.5L94.2 492.7L95.5 492.85Q101.05 493 102.9 493.65L107 494.3Q112.7 495.35 115.5 496.5Q117.25 497.2 120.8 498.85L120.9 498.95L121 498.95L121.85 499.35L119.35 498.8L99.1 495.65L86.15 495.65L85.85 495.7L79 495.8Q65.2 498.15 57.25 501.35L50.85 503.95L47.7 505.55Q44.25 506.3 41.25 508.95L36.25 514.2Q32.65 518 31.75 519.65Q30.75 521.45 30.75 524.5Q30.75 526.5 30.9 527.2L32 530.75Q32.45 532.15 34.25 533.95Q36.05 535.9 37.95 536.85L42.25 539.15Q44.75 540.2 49.8 541.05L60.7 543L80.45 544.95L96 545.05L102.65 545.1L107.25 545.25L109.2 545.5L111.45 545.7L113.8 545.8L121.2 545.15L128 544.45Q133.9 544.25 137.35 543.1L146.2 540.2Q156 536.75 159.6 532.55L164 527.6L164.15 527.45M177.85,542.5Q177.95 542.5 178.5 542.85L178.45 543.95L178.55 545.4L177.85 543.35L177.85 542.5M178.7,550.5Q177.85 547.85 177.35 545.05L177.25 544.45L178.65 548.55L178.8 548.9L178.7 549.8L178.7 550.5M134.8,416.45L132.65 417.45L130.5 418.6Q124.9 422.55 123.2 424.5L120.5 427.85L117.75 431.1Q113.85 435 113 436.75Q112 437.3 111.1 437.3Q109.4 437.3 108.9 436.65L108.25 436Q113.8 430.1 120 424.35Q132.7 412.6 136.25 413.4Q139.8 414.2 137.25 430.9L134.8 443.95L134.3 444.5L133.7 445.35L133.7 445.3L133.8 445Q134.4 443.35 135 440.3L136.35 433Q136.85 431.5 137.3 426.7L137.75 420.15L137.8 420L137.8 419.7L137.8 419.6L137.8 418.9L137.7 416.55Q137.5 415.5 136.95 415.15L136.7 414.55Q136.4 414.35 135.95 415.05L134.8 416.45M135.4,420.3L135.25 422.65L134.65 430.35L132.95 439.15L131.85 444.7L131.75 444.85Q130.7 446.85 129.25 446.85Q128.6 446.85 127 444.65Q125.85 443 124.7 442.55L124.7 442.35L124.55 441.95L124.2 441.85L121.9 442.1L120.8 439.15Q120.05 437.7 119 437.55L119.9 437.3L120.95 437.3L121.65 437.8Q121.9 438.1 122.35 438.15L123.4 437.9L123.55 438.65Q123.75 439.35 124.3 439.35Q124.95 439.35 126.95 436.35Q128.9 433.3 129.4 431.55L130.8 427.35Q131.7 424.8 131.7 423.3L131.65 422.45Q131.45 421.75 130.65 421.75Q130.4 421.75 129.8 422.1Q129.1 422.5 129.05 422.9Q128.05 423.5 126.6 424.65L125.3 425.75Q126.3 424.45 127.2 423.75Q128.55 422.6 130.45 421.2Q133.3 419.1 134.1 419.1L134.9 419.2L135.4 420.3M121,430.7L118 434.05Q115.35 436.85 115.1 437.45Q114.4 437.7 114.35 437.9L114.1 437.9L115.2 436.75L115.85 436.05L117.7 433.7L120.45 431.2L121 430.7M106.25,454.1Q104 452.55 99.2 452.4L93.15 452.4Q90.05 451.85 84.75 455.4Q79.7 458.8 79.7 460.6Q79.7 461.5 80.65 462.15Q81.05 462.6 81.75 462.95Q83 463.65 86.9 464.75L88.8 464.75Q88.85 464.95 89.25 464.95L89.7 464.8L89.75 464.75L92.1 464.75Q95.2 464.4 98.35 463.2Q99.9 462.9 100.9 462.4L102.8 461.4L105.9 459.45Q107.9 457.8 107.9 456.7Q107.9 455.2 106.25 454.1M97.35,449.15Q98.15 448.35 98.15 447.3Q98.15 444.15 93.25 443.85Q88.35 443.55 88.35 446.45Q88.35 448.4 90.5 449.35Q92.2 450.1 94.75 450.1Q96.4 450.1 97.35 449.15M86.15,448.7Q86.15 446.55 83.35 445Q80.5 443.35 76.75 443.65Q74.1 445.05 73.3 446.45Q72.7 447.5 72.7 449.7Q72.7 455.7 78.3 455.7Q81.9 455.7 84.3 452.7Q86.15 450.4 86.15 448.7M83.6,479.35L83.65 479.4L83.95 479.4L83.6 479.35M134.9,483.2L135 483.25L134.75 483.45L134.9 483.2M49.65,418.55Q49.1 419.8 49.1 421.55L48.9 426.8Q48.9 429.25 49.55 434.9L50.2 443.1Q50.25 445.3 48.85 445.3L47.7 444.95L47.6 444.9Q46.7 438 46.5 430.95Q46.1 416.4 49.95 415.7L51.35 415.8L51.25 415.8Q49.7 416.05 49.7 417.2L49.95 418L49.65 418.55M52.1,416.75L52.25 416.15Q55.55 417.75 60.85 424.6L58.45 421.9L54.8 418.65L54.05 418.15L52.4 417.1L52.35 416.75L52.1 416.75M52.95,420.15L53.65 420.85L55.05 422.35L60.15 427.95Q61.5 429.55 64.25 433.65L65.9 436.65L66.95 437.95L67.25 438.9Q67.25 439.45 66.5 439.8Q64.15 439.95 62.8 440.4L60.85 441.1Q60.3 441.3 60.1 442.15L59.55 443.05L57.8 441.85Q57.1 441.85 56.85 443.1L56.6 444.9L54.85 444.9L53.3 444.1L52.4 443.65L52.4 443.35L51.25 438.35Q50.1 432.8 50.1 427.15Q50 425.4 50.3 423.65Q50.9 420.15 52.9 420.15L52.95 420.15M51.3,425.5Q50.5 425.9 50.4 426.3Q50.25 426.7 50.25 428.35Q50.25 429.6 50.85 432.3L51.65 436.4L52.6 441.15Q53.25 444.4 54.1 444.4Q55.15 444.4 55.8 442.85L56.35 441L56.75 440.05L56.9 439.1L57.65 438.5Q58.15 438 57.9 437.6L59.55 437.85L59.6 437.4Q59.6 436.45 57.85 432.75L56.05 429.2L52.7 425.3Q52.15 425 51.3 425.5M66.85,433.15L66.85 433.1L69.5 437.35L69.4 437.45Q69.1 436.8 68.65 436.8L68.6 436.8L68.05 435.65L66.85 433.15M9.25,436.2Q11.7 437.75 9.95 443.15L9 445.65L7.35 446.05L7.75 445.05L7.9 445.05Q8.7 445.05 9.45 442.6Q10.05 440.6 10.05 439.6Q10.05 436 8.5 437.7Q6.95 439.35 6.9 443.1L5.55 444.15L4.6 444.15L4.6 444.1L4.2 442.8Q4.5 440.6 5.25 438.7Q6.8 434.65 9.25 436.2M43.05,454.95Q41.65 457 41.65 459.7Q41.65 461.35 42.5 462L44.05 462Q45 461.55 46.45 459.15Q47.95 456.65 47.95 455.35Q47.95 453.15 46.4 452.65Q44.45 452.95 43.05 454.95M24.3,556.7L27 556.6L27.4 556.85L24.6 557L21.3 557.05L22.3 556.85L24.3 556.7M13.65,556.1L7.55 555.55L5.6 555.1L19.4 555.95L13.65 556.1M123.65,498.9L123 498.55L123.25 498.5L123.65 498.9M-8.45,542Q-9.7 541.7 -9.7 542.95L-9.2 543.85Q-8.55 544.85 -8.05 544.85Q-7.7 544.85 -7.45 544.5L-7.2 543.6Q-7.2 542.35 -8.45 542M-1.6,539.15Q-2.2 537.65 -4.9 537.2Q-5.6 537.65 -5.6 538.65Q-5.6 539.45 -5 540.45Q-4.05 541.9 -2.35 541.9L-1.4 541.8Q-1.3 541.9 -1.3 541.4Q-1.3 539.8 -1.6 539.15" />
<path style="fill:#FFFFFF;fill-opacity:0.4" d="M106.3,456Q106.3 458.5 100.25 459.65L99.05 459.75L96.15 459.95L92.65 460.05Q83.35 459.4 83.35 458.05Q83.35 457.2 84.55 456.3L86.65 455.1L89.5 453.7Q90.25 453.2 93.7 452.95L97.3 452.75L97.3 452.7L100.55 452.7Q103.55 452.95 105.1 454.05Q106.3 454.9 106.3 456" />
<path style="fill:none;stroke-width:2;stroke-linecap:butt;stroke-linejoin:miter;stroke-miterlimit:3;stroke:#AE4200;stroke-opacity:1" d="M131.6,433.65L128.05 446.65L125.5 442.55L121.65 443.05L120.1 438.95L114.2 438.2L123.15 428.3Q132.35 418.55 133.65 419.5Q134.95 420.45 131.6 433.65M59.7,431.05Q62.85 435.55 65.6 440.25L60.7 441.25L59.7 443.55L57.4 440.75L56.35 444.85L53.35 445.1Q52.15 440.15 51.3 435Q49.65 424.6 51.5 423.35Q53.4 422.1 59.7 431.05M46.65,506.55Q51.75 503.25 60.85 500.2Q79.05 494.05 99.1 495.3Q119.15 496.55 130.3 503.2Q135.9 506.55 137.5 509.6" />
<path style="fill:none;stroke-width:2;stroke-linecap:round;stroke-linejoin:miter;stroke-miterlimit:3;stroke:#582903;stroke-opacity:1" d="M77.55,468.5L78.65 471.5M70.65,459.4Q64.15 454.3 53.3 454.85" />
<path style="fill:none;stroke-width:3;stroke-linecap:round;stroke-linejoin:miter;stroke-miterlimit:3;stroke:#AE4200;stroke-opacity:1" d="M177,442.35L178.4 439.65Q180.2 436.75 182.1 435.7M182.55,544.2Q183.65 543.7 184.65 542.85Q186.65 541.25 186.15 539.85Q185.8 538.75 184.5 537.8M-3.8,546.5Q-6.55 543.9 -7.4 541.3M-4.85,446.15Q-5.8 444.9 -7 443.8Q-9.5 441.5 -10.95 442.05L-11.2 442.2" />
<path style="fill:none;stroke-width:3;stroke-linecap:round;stroke-linejoin:miter;stroke-miterlimit:3;stroke:#AE4200;stroke-opacity:1" d="M-7.4,541.3L-9.2 541.3Q-11 541.65 -10.95 543.65Q-10.9 545.65 -8.5 547.55Q-7.3 548.5 -6.1 549.05L-7.9 553.5Q-9.35 558.3 -7.9 560.3Q-6.45 562.3 17.05 561.4L40.25 560.05Q94.5 566.65 148.75 558.55L168.05 559.25Q187.7 559.55 189.75 557.8Q191.8 556.05 190.55 551.75L188.95 547.8L191.3 547.5Q193.75 546.9 194.35 545.5Q194.95 544.1 193.35 542.3L191.65 540.75L191.2 538.65Q190.5 536.95 187.45 537.2L184.5 537.8Q183.2 536.85 181.6 536.65Q179.8 536.4 178.2 537.3Q176.1 538.45 177.35 545.05Q177.95 548.35 179 551.4L152.1 553.45Q155.95 548.05 159.35 541.1Q166.2 527.2 163.9 519.4Q161.6 511.6 149.1 504.1Q145.15 501.75 140.7 499.7L137 498.15L134.75 494.55Q146.5 482.45 160.35 476.4Q165.25 471.1 168.9 466.15Q173.45 460.1 176.2 454.6L182.2 453Q188.5 451.05 190.05 449.25Q191.75 447.3 190.2 444.9Q188.95 443 186.95 442.2L187.3 439.55Q187.5 436.75 186.45 435.95Q184.35 434.4 182.1 435.7Q181.55 434.55 180.6 433.6Q178.7 431.65 176.75 432.6Q174.8 433.55 173 438.4Q172.1 440.85 171.6 443.1Q171.3 440.75 170.5 438.7Q168.95 434.65 166.5 436.2Q164.05 437.75 165.8 443.15Q166.7 445.85 168.05 448.2L157.3 461.35Q147.55 472.6 133.5 485.4L142.1 463.3L137.75 462.05L140.85 455.9L135.95 456.15L140.05 448.75L133.95 447.45Q135.95 439.25 137.25 430.9Q139.8 414.2 136.25 413.4Q132.7 412.6 120 424.35Q113.7 430.2 108.05 436.2Q104 433.55 101.15 433.35Q99.65 433.25 96.65 435Q93.25 436.95 91.7 437.2Q90.05 437.45 87.2 435.1Q84.25 432.7 81.95 432.85Q79.2 433.05 74.45 435.8Q72.05 437.15 70.2 438.5Q66.7 432.55 62.4 426.7Q53.85 415 49.95 415.7Q46.1 416.4 46.5 430.95Q46.7 438.25 47.65 445.4L42.8 444.1L40.75 448.2L32.8 446.7L35.9 454.35L31 454.35L36.9 465.65L30.5 464.35L40.9 484.75Q28.45 472.85 18.45 461.35Q12.65 454.7 7.7 448.2Q9.05 445.85 9.95 443.15Q11.7 437.75 9.25 436.2Q6.8 434.65 5.25 438.7Q4.45 440.75 4.15 443.1Q3.65 440.85 2.75 438.4Q0.95 433.55 -1 432.6Q-2.95 431.65 -4.85 433.6Q-5.8 434.55 -6.35 435.7Q-8.6 434.4 -10.7 435.95Q-11.75 436.75 -11.55 439.55L-11.2 442.2Q-13.2 443 -14.45 444.9Q-16 447.3 -14.3 449.25Q-12.75 451.05 -6.45 453Q-3.3 454 -0.45 454.6Q2.3 460.1 6.85 466.15Q10.5 471.1 15.4 476.4Q29.25 482.45 41 494.55L37.15 499.4L30.35 503.3Q23 508.15 20.2 513.05Q15.7 520.9 18.15 532.1Q19.7 539 23.55 545.45Q26.4 550.1 30.1 553.85L33.3 556.75L3.1 554.95L5.8 550.15Q8.35 544.95 7.7 543.15Q6.85 540.6 4.8 538.9Q2.45 536.9 0.55 538.05Q-0.25 538.55 -0.5 539.6Q-1.4 538.45 -2.65 537.7Q-5.15 536.2 -6.85 538.05Q-8 539.35 -7.4 541.3M18.15,532.1Q16.2 530.65 14.35 528.3Q10.65 523.65 11.3 519.1Q11.8 515.75 15.35 510.1Q18.05 505.8 16.7 504Q15.15 501.9 10.9 503.1Q8.75 503.7 6.95 504.75L5.4 506.4Q3.6 508.6 2.4 511.15Q-1.5 519.45 1.8 528.65Q3.1 532.25 8.3 538.7Q12.8 544.2 15.85 546.85Q17.9 548.65 24.2 551.4L30.1 553.85" />
<path style="fill:none;stroke-width:3;stroke-linecap:butt;stroke-linejoin:miter;stroke-miterlimit:3;stroke:#AE4200;stroke-opacity:1" d="M133.5,485.4L131.1 491.5M186.95,442.2L186.7 442.05Q185.25 441.5 182.75 443.8Q181.55 444.9 180.6 446.15M191.65,540.75Q191.65 542.75 189.7 543.85Q188.7 544.35 187.7 544.5M40.9,484.75L44.35 491.5M-6.35,435.7Q-4.45 436.75 -2.65 439.65L-1.25 442.35M-0.5,539.6Q-0.95 541.25 -0.25 544.05Q0.1 545.45 0.55 546.5" />
<path style="fill:none;stroke-width:2;stroke-linecap:round;stroke-linejoin:miter;stroke-miterlimit:3;stroke:#993127;stroke-opacity:1" d="M75.35,464.45Q77.25 462.05 80 459.45Q84.6 455.1 88.35 453.6Q89.15 453.25 89.9 453.05Q95.9 451.45 101.4 452.3L102.05 452.4Q109.15 453.65 110.4 458.7Q111.65 463.8 104.9 467.95Q98.9 471.6 92.45 471.75Q87.85 471.9 82.25 470.2L77.55 468.5" />
<path style="fill:none;stroke-width:2;stroke-linecap:round;stroke-linejoin:miter;stroke-miterlimit:3;stroke:#582903;stroke-opacity:1" d="M101.4,452.3Q101.2 450.25 100.1 448.15Q97.85 443.95 93.25 443.55Q90.15 443.3 88.05 445.6Q87.05 446.7 86.6 447.9Q88.15 450.7 88.35 453.6M86.6,447.9L85.55 446.4Q83.8 444.2 80.95 443.5Q77.6 442.7 74.25 444.65Q70.85 446.6 70.4 453.2Q70.2 456.5 70.65 459.4Q73.25 461.35 75.35 464.45M51.5,470.45L46 470.15L44.6 469.7Q40.05 467.85 38.95 462.5Q37.9 457.25 41.1 453.55Q43.95 450.3 46.65 451Q48.55 451.5 48.7 456.05Q48.75 458.3 48.45 460.45L51.5 470.45M77.55,468.5Q76.6 466.3 75.35 464.45" />
<path style="fill:none;stroke-width:2;stroke-linecap:butt;stroke-linejoin:miter;stroke-miterlimit:3;stroke:#582903;stroke-opacity:1" d="M51.5,470.45L52.9 472.25Q54.75 474.45 57.25 476.2Q59.15 477.55 61.25 478.6Q67.95 481.8 76.55 481.5Q104 480.55 118.5 472.25L122.35 469.7Q124.5 468 125.9 466.25Q127.9 463.7 127.25 462.75Q126.45 461.6 123.85 460.4L121.4 459.45" />
<path style="fill:#582903;fill-opacity:1" d="M97.5,431.8L97.55 431.65L99.6 432.1L99.6 432L99.4 431.7L99.2 431.35L99.25 431.2L99.35 431.15L100.95 431.6L102.6 432.4Q104.15 433.3 104.9 434.15Q106.3 435.7 106.9 437Q107.9 438.4 107.9 438.85L107.9 439.2L107.7 439.2L105.95 438.2Q105.55 438.1 105.3 437.8L103.9 437.05L102.65 436.45L99.55 435.15L95.15 433.9L95.1 433.75L95.5 433.3L96.15 433L98.1 432.3L97.5 431.8M81.65,431.85L84.2 431.3L84.3 431.5L83.5 432.15L85.95 433L86.8 433.4L87.3 433.95L87.2 434.15Q83.9 434.8 81.7 435.7L77.8 437.35Q77.35 437.5 76.25 438.1L74.5 439L73.7 439.55L71.5 440.8L71.25 440.75L71.2 440.35Q71.2 439.75 72.45 438Q73.25 436.4 75 434.45Q75.9 433.35 77.9 432.25Q78.65 431.75 79.95 431.25L81.95 430.7L82.1 430.75L82.15 430.9L81.9 431.35L81.65 431.75L81.65 431.85" />
</g>
</svg>
