<?xml version="1.0" encoding="utf-8"?>
<svg version="1.1" id="Layer_1"
xmlns="http://www.w3.org/2000/svg"
xmlns:xlink="http://www.w3.org/1999/xlink"
xmlns:author="http://www.sothink.com"
width="54px" height="59px"
xml:space="preserve">
<g id="44" transform="matrix(1, 0, 0, 1, 30.45, 53.55)">
<path style="fill:#77F5DB;fill-opacity:1" d="M7.05,-46.8Q6.55 -46.8 6.15 -47.3L6.35 -49.35L6.45 -49.7Q7.8 -50.05 8.15 -49.45L8.25 -48.5Q8.25 -46.8 7.05 -46.8M1,-28.65Q1.85 -28.65 2 -27.8L2 -26.5L1.4 -17.6Q1.4 -8.95 4.1 0.6L4.1 4.4L-1.3 5.05L-10.05 5.25L-14.35 5.1L-15.15 5.05L-19.4 4.45L-19.45 4.4L-19.4 4.15L-19.35 3.8Q-18.15 -4.25 -13.05 -13.35Q-10 -18.8 -3 -29.45L-1.9 -28.8L-1.5 -27.5Q-0.6 -27.6 0 -28.15Q0.55 -28.65 1 -28.65M19.15,-18.9L19.45 -19.75Q19.95 -20.4 20.85 -20.4Q23.1 -20.4 23.1 -18.05L22.8 -16.55Q22.3 -15.35 21.3 -15.35Q20.75 -15.35 19.8 -16.25Q18.95 -17.1 18.9 -17.65L19.15 -18.65L19.15 -18.9M-6.75,-53.55Q-6.4 -53.55 -5.6 -52.95Q-4.7 -52.3 -4.7 -51.65Q-4.7 -49.7 -6.5 -49.7Q-8 -49.7 -8.2 -51.15L-8.25 -51.65L-8 -52.9Q-7.55 -53.55 -6.75 -53.55M-26,0.3Q-25.4 0.7 -25.4 1.45Q-25.4 3.8 -27.2 3.8Q-27.65 3.8 -28.4 3.2L-29 2.55L-28.3 0.65L-28.1 0.3L-27.05 0Q-26.5 0 -26 0.3" />
<path style="fill:#D2DEEE;fill-opacity:1" d="M7.35,2.9L-0.3 3.05L-8.25 3.8L-19.5 3.8Q-20.9 3.75 -21 2.35Q-21 0.9 -19.5 0.9L-8.3 0.75L-0.6 0L7.05 -0.15L9.2 0.15Q9.75 0.55 9.75 1.15Q9.75 2.5 7.35 2.9M-27.95,2.9Q-29.8 2.9 -30.3 2.2L-30.45 1.45Q-30.45 0.2 -26.45 -0.45Q-22.5 -1.1 -22.5 0.85Q-22.5 2.9 -27.95 2.9" />
</g>
</svg>
