<?xml version="1.0" encoding="utf-8"?>
<svg version="1.1" id="Layer_1"
xmlns="http://www.w3.org/2000/svg"
xmlns:xlink="http://www.w3.org/1999/xlink"
xmlns:author="http://www.sothink.com"
width="33px" height="25px"
xml:space="preserve">
<g id="48" transform="matrix(1, 0, 0, 1, 21.9, 20.3)">
<path style="fill:#77F5DB;fill-opacity:1" d="M5.25,-13.85L5.7 -14.15Q6 -14.45 6.45 -14.45L7.35 -14.15Q7.95 -13.8 7.95 -13.35L7.65 -12.45Q7.25 -11.85 6.45 -11.85Q5.6 -11.85 5.35 -12.5L5.25 -13.85M-5.3,-19.2Q-4.4 -18.6 -4.4 -18Q-4.4 -17 -5 -16.25Q-5.7 -15.35 -6.9 -15.35Q-7.45 -15.35 -7.95 -15.65L-8.4 -16.05L-8.5 -16.85L-8.55 -17.15Q-8.65 -18.4 -8.3 -19.05Q-7.9 -19.8 -6.95 -19.8Q-6.2 -19.8 -5.3 -19.2" />
<path style="fill:none;stroke-width:1;stroke-linecap:butt;stroke-linejoin:miter;stroke-miterlimit:3;stroke:#628FBE;stroke-opacity:1" d="M5.35,-12.5Q5.6 -11.85 6.45 -11.85Q7.25 -11.85 7.65 -12.45L7.95 -13.35Q7.95 -13.8 7.35 -14.15L6.45 -14.45Q6 -14.45 5.7 -14.15L5.25 -13.85L5.35 -12.5z" />
<path style="fill:none;stroke-width:1;stroke-linecap:round;stroke-linejoin:miter;stroke-miterlimit:3;stroke:#628FBE;stroke-opacity:1" d="M-6.95,-19.8Q-7.9 -19.8 -8.3 -19.05Q-8.65 -18.4 -8.55 -17.15L-8.5 -16.85" />
<path style="fill:none;stroke-width:1;stroke-linecap:round;stroke-linejoin:miter;stroke-miterlimit:3;stroke:#628FBE;stroke-opacity:1" d="M-8.5,-16.85L-8.4 -16.05M-8.5,-16.85L-8.55 -16.55L-8.4 -16.05" />
<path style="fill:none;stroke-width:1;stroke-linecap:butt;stroke-linejoin:miter;stroke-miterlimit:3;stroke:#628FBE;stroke-opacity:1" d="M-8.4,-16.05L-7.95 -15.65Q-7.45 -15.35 -6.9 -15.35Q-5.7 -15.35 -5 -16.25Q-4.4 -17 -4.4 -18Q-4.4 -18.6 -5.3 -19.2Q-6.2 -19.8 -6.95 -19.8" />
<path style="fill:#D2DEEE;fill-opacity:1" d="M-11.85,-0.3L9.15 -0.3Q10.35 0.3 10.65 1.15Q10.65 1.9 9.25 2.05Q5.9 2.35 1.5 3.8L-15.65 3.95L-17.45 4.1Q-20.4 4.1 -21.35 3.4Q-21.9 3.05 -21.9 2.1Q-21.9 1.15 -20.9 0.8Q-18.9 0.15 -11.85 -0.15L-11.85 -0.3" />
</g>
</svg>
