<?xml version="1.0" encoding="utf-8"?>
<svg version="1.1" id="Layer_1"
xmlns="http://www.w3.org/2000/svg"
xmlns:xlink="http://www.w3.org/1999/xlink"
xmlns:author="http://www.sothink.com"
width="19px" height="23px"
xml:space="preserve">
<g id="196" transform="matrix(1, 0, 0, 1, -18.25, 12.95)">
<path style="fill:#FFCC00;fill-opacity:1" d="M31.25,8.3L25.55 5.9L24.35 7.5Q23.25 8.55 23.25 8.75Q22.7 8.5 22.15 7.2L21.15 4.8L19.8 3.1Q18.75 1.75 18.75 1.35L20.55 -1.85L22.2 -5.35L22.4 -6.05L22.55 -7.5L23.1 -12L25.4 -9.45Q26.45 -8.25 28.7 -9.15L31.4 -9.15L31.25 -6.15Q31.25 -5.05 33.4 -2.9L36.15 -0.6L33.4 0.9Q31.1 2.15 31.1 3Q31.1 4.25 32.05 8.1L31.25 8.3M22.65,-1.45L22.8 0.95Q22.8 1.25 23.3 1.6L24.4 2L25.85 2.35L27 2.6Q27.85 2.6 27.85 1.75L27.35 0.45L30.15 0Q30.6 -0.2 30.6 -0.75L29.05 -2L27.5 -2.95L27.85 -3.55L28.2 -4.35Q28.2 -4.95 27.85 -5.05L25.95 -4.75L23.6 -4.25Q22.8 -4.15 22.8 -3.45L22.65 -1.45" />
<path style="fill:#FFFFCC;fill-opacity:1" d="M22.8,-3.45Q22.8 -4.15 23.6 -4.25L25.95 -4.75L27.85 -5.05Q28.2 -4.95 28.2 -4.35L27.85 -3.55L27.5 -2.95L29.05 -2L30.6 -0.75Q30.6 -0.2 30.15 0L27.35 0.45L27.85 1.75Q27.85 2.6 27 2.6L25.85 2.35L24.4 2L23.3 1.6Q22.8 1.25 22.8 0.95L22.65 -1.45L22.8 -3.45" />
<path style="fill:none;stroke-width:1;stroke-linecap:butt;stroke-linejoin:miter;stroke-miterlimit:3;stroke:#FF9900;stroke-opacity:1" d="M31.25,8.3L25.55 5.9L24.35 7.5Q23.25 8.55 23.25 8.75Q22.7 8.5 22.15 7.2L21.15 4.8L19.8 3.1Q18.75 1.75 18.75 1.35L20.55 -1.85L22.2 -5.35L22.4 -6.05L22.55 -7.5L23.1 -12L25.4 -9.45Q26.45 -8.25 28.7 -9.15L31.4 -9.15L31.25 -6.15Q31.25 -5.05 33.4 -2.9L36.15 -0.6L33.4 0.9Q31.1 2.15 31.1 3Q31.1 4.25 32.05 8.1L32.1 8.3L31.25 8.3z" />
</g>
</svg>
