<?xml version="1.0" encoding="utf-8"?>
<svg version="1.1" id="Layer_1"
xmlns="http://www.w3.org/2000/svg"
xmlns:xlink="http://www.w3.org/1999/xlink"
xmlns:author="http://www.sothink.com"
width="73px" height="48px"
xml:space="preserve">
<g id="180" transform="matrix(1, 0, 0, 1, 36.9, 24.95)">
<path style="fill:#FF0000;fill-opacity:0" d="M-36.9,-24.95L35.2 -24.95L35.2 23.05L-36.9 23.05L-36.9 -24.95" />
<path style="fill:#FFCC00;fill-opacity:1" d="M-29.5,-0.15Q-29.5 0.5 -28.1 1.7Q-26.35 3.2 -24.45 3L-23.25 3Q-22.85 2.65 -22.75 1.95L-22.75 0.75L-22.8 0.05Q-22.95 -0.55 -23.5 -0.65L-23.5 -0.75L-23.1 -0.9L-22.9 -1.25L-27.4 -1.45Q-29.5 -0.85 -29.5 -0.15M-23.35,-4.55L-22.75 -4.1L-21.8 -3.25Q-21.4 -2.85 -21.4 -1.45L-22 3.7Q-22.05 5.65 -23.35 6.1L-25.95 6.25Q-29.9 6.25 -32.1 4.85Q-34.25 3.55 -35.95 0.15L-31.9 -3Q-28.65 -5.15 -27 -5.15L-23.75 -4.65L-23.35 -4.55" />
<path style="fill:#FF6600;fill-opacity:1" d="M-27.4,-1.45L-22.9 -1.25L-23.1 -0.9L-23.5 -0.75L-23.5 -0.65Q-22.95 -0.55 -22.8 0.05L-22.75 0.75L-22.75 1.95Q-22.85 2.65 -23.25 3L-24.45 3Q-26.35 3.2 -28.1 1.7Q-29.5 0.5 -29.5 -0.15Q-29.5 -0.85 -27.4 -1.45" />
<path style="fill:none;stroke-width:1;stroke-linecap:butt;stroke-linejoin:miter;stroke-miterlimit:3;stroke:#FF6600;stroke-opacity:1" d="M-23.75,-4.65L-27 -5.15Q-28.65 -5.15 -31.9 -3L-35.95 0.15Q-34.25 3.55 -32.1 4.85Q-29.9 6.25 -25.95 6.25L-23.35 6.1Q-22.05 5.65 -22 3.7L-21.4 -1.45Q-21.4 -2.85 -21.8 -3.25L-22.75 -4.1L-23.35 -4.55L-23.75 -4.65z" />
<path style="fill:#9C2626;fill-opacity:1" d="M-14.7,-9.35Q-17.2 -8.4 -18.25 -6.95L-18.5 -6.6L-18.7 -6.2L-20.45 -6.1L-19.9 -13.95L-19.5 -15.65L-17.4 -15.95Q-16.7 -15.95 -13.35 -12.65L-11.35 -10.6L-14.7 -9.35M17,11.05L17.05 10.8L17.05 10.75L17.75 1.85L17.8 1.05L19.2 1.25L21.2 1.55L27.05 2.2Q28.45 2.2 31.35 1.15Q32.55 0.7 33.55 0.4L33.75 2.05Q33.75 6 26.7 8.85Q21.75 10.9 17.25 11.15L17 11.05M-5.75,14.9L-9.1 19.85Q-10.55 21.25 -14.2 21.25L-16 21.35L-16.05 21.35L-17.65 21.1Q-17.65 20.95 -18 21.1Q-19.75 19.95 -20.1 16.5L-20.4 10.6L-20.95 8.1L-20.9 7.85L-20.85 7.85L-19.9 8.1L-19.3 8.1L-19.3 10.5L-18.7 10.9Q-12.9 14.3 -5.75 14.9M-19.3,0.75L-18.7 0.75L-6 0.3L-6 1.95L-6 2.05Q-5.8 3.75 -7.65 3.65L-11.15 3.6L-15.1 3.6L-19.3 3.4L-19.3 3.35L-19.35 3.35L-20.5 3.55Q-21.25 3.55 -21.25 2.05L-21.1 0.75L-19.3 0.7L-19.3 0.75" />
<path style="fill:#CCCCCC;fill-opacity:1" d="M-19.3,0.7L-19.3 -2Q-19.35 -4.75 -18.7 -6.2L-18.5 -6.6L-18.25 -6.95Q-17.2 -8.4 -14.7 -9.35L-11.35 -10.6L-5.4 -12.45L-4.85 -12.55L4.95 -13.25Q12.9 -13.25 18.2 -10.95L18.3 -10.75L17.8 0.3L17.8 1.05L17.75 1.85L14.75 2.95Q11.35 4 8.55 4L0.75 2.95L-6 1.95L-6 0.3L-18.7 0.75L-19.3 0.7" />
<path style="fill:#C44F4F;fill-opacity:1" d="M-11.35,-10.6L-13.35 -12.65Q-16.7 -15.95 -17.4 -15.95L-19.5 -15.65Q-18.95 -17.35 -17.75 -18.1L-17.35 -18.55Q-16.35 -19.3 -13.75 -19.3Q-12.2 -19.3 -8.8 -16L-5.4 -12.45L-11.35 -10.6M18.3,-10.75Q21.8 -11.05 27.5 -6.9Q32.55 -3.2 33.55 0.4Q32.55 0.7 31.35 1.15Q28.45 2.2 27.05 2.2L21.2 1.55L19.2 1.25L17.8 1.05L17.8 0.3L18.3 -10.75M20.3,-7.4Q20.85 -6.3 21.85 -5.05Q23.95 -2.6 26.25 -2.6Q26.8 -2.6 26.9 -2.9L26.9 -3.45Q26.9 -5.65 23.6 -7.15Q20.3 -8.7 20.3 -7.4M28.05,-2.3L28.3 -1.5Q28.7 -0.5 29.45 -0.5Q30.45 -0.5 30.45 -1.05Q30.45 -2.35 29.25 -3.1Q28.05 -3.8 28.05 -2.3" />
<path style="fill:#B1ACAC;fill-opacity:1" d="M-18.7,10.9L-19.3 10.5L-19.3 8.1L-19.3 3.4L-15.1 3.6L-11.15 3.6L-7.65 3.65Q-5.8 3.75 -6 2.05L-6 1.95L0.75 2.95L8.55 4Q11.35 4 14.75 2.95L17.75 1.85L17.05 10.75L17.05 10.8L17 11.05L16.95 11.15Q4.25 15.8 -5.75 14.9Q-12.9 14.3 -18.7 10.9" />
<path style="fill:#8E8D8D;fill-opacity:1" d="M-18.7,-6.2Q-19.35 -4.75 -19.3 -2L-19.3 0.7L-21.1 0.75L-21.25 2.05Q-21.25 3.55 -20.5 3.55L-19.35 3.35L-19.3 3.35L-19.3 3.4L-19.3 8.1L-19.9 8.1L-20.85 7.85L-20.9 7.85L-22.55 7.55Q-23.95 7.35 -24.3 6.1Q-24.75 4.75 -24.75 0.3Q-24.75 -3.45 -23.35 -4.9Q-22.4 -5.85 -20.45 -6.1L-18.7 -6.2" />
<path style="fill:#E28D8D;fill-opacity:1" d="M23.6,-7.15Q26.9 -5.65 26.9 -3.45L26.9 -2.9Q26.8 -2.6 26.25 -2.6Q23.95 -2.6 21.85 -5.05Q20.85 -6.3 20.3 -7.4Q20.3 -8.7 23.6 -7.15M29.25,-3.1Q30.45 -2.35 30.45 -1.05Q30.45 -0.5 29.45 -0.5Q28.7 -0.5 28.3 -1.5L28.05 -2.3Q28.05 -3.8 29.25 -3.1" />
<path style="fill:none;stroke-width:1;stroke-linecap:butt;stroke-linejoin:miter;stroke-miterlimit:3;stroke:#353535;stroke-opacity:1" d="M-20.9,7.85L-22.55 7.55Q-23.95 7.35 -24.3 6.1Q-24.75 4.75 -24.75 0.3Q-24.75 -3.45 -23.35 -4.9Q-22.4 -5.85 -20.45 -6.1L-19.9 -13.95L-19.5 -15.65Q-18.95 -17.35 -17.75 -18.1L-17.35 -18.55Q-16.35 -19.3 -13.75 -19.3Q-12.2 -19.3 -8.8 -16L-5.4 -12.45L-4.85 -12.55L4.95 -13.25Q12.9 -13.25 18.2 -10.95L18.3 -10.9L18.3 -10.75Q21.8 -11.05 27.5 -6.9Q32.55 -3.2 33.55 0.4L33.75 2.05Q33.75 6 26.7 8.85Q21.75 10.9 17.25 11.15L17.15 11.15L16.95 11.2L16.95 11.15Q4.25 15.8 -5.75 14.9L-9.1 19.85Q-10.55 21.25 -14.2 21.25L-16 21.35L-16.05 21.35L-17.65 21.1Q-17.65 20.95 -18 21.1Q-19.75 19.95 -20.1 16.5L-20.4 10.6L-20.95 8.1M-20.9,7.85L-20.85 7.85L-19.9 8.1M-19.3,8.1L-19.3 3.4L-19.3 3.35L-19.35 3.35L-20.5 3.55Q-21.25 3.55 -21.25 2.05L-21.1 0.75L-19.3 0.7L-19.3 -2Q-19.35 -4.75 -18.7 -6.2L-20.45 -6.1M-18.7,-6.2L-18.5 -6.6L-18.25 -6.95Q-17.2 -8.4 -14.7 -9.35L-11.35 -10.6L-5.4 -12.45M17.15,11.15L16.95 11.15L17 11.05L17.05 10.8L17.05 10.75L17.75 1.85L17.8 1.05L17.8 0.3L18.3 -10.75M-6,1.95L-6 2.05Q-5.8 3.75 -7.65 3.65L-11.15 3.6L-15.1 3.6L-19.3 3.4M17,11.05L17.25 11.15M-6,1.95L-6 0.3L-18.7 0.75L-19.3 0.75L-19.3 0.7L-18.7 0.75M-19.3,8.1L-19.3 10.5L-18.7 10.9Q-12.9 14.3 -5.75 14.9" />
<path style="fill:#EEA78C;fill-opacity:1" d="M14.65,-13.45L14.3 -14.8L14.3 -15.2L16.05 -15.65L17.3 -16.35L18.5 -17.1L18.65 -17.1Q18.6 -16.85 19.25 -15.75L19.9 -14.45Q19.9 -13.85 17.9 -13.1Q16.1 -12.4 15.15 -12.4Q14.9 -12.4 14.65 -13.45" />
<path style="fill:none;stroke-width:1;stroke-linecap:butt;stroke-linejoin:miter;stroke-miterlimit:3;stroke:#854A34;stroke-opacity:1" d="M15.15,-12.4Q16.1 -12.4 17.9 -13.1Q19.9 -13.85 19.9 -14.45L19.25 -15.75Q18.6 -16.85 18.65 -17.1L18.5 -17.1L17.3 -16.35L16.05 -15.65L14.3 -15.2L14.3 -14.8L14.65 -13.45Q14.9 -12.4 15.15 -12.4z" />
<path style="fill:#EEA78C;fill-opacity:1" d="M10.45,-8.9L10.4 -9.15L10.5 -9.4L10.8 -10.15L11.75 -10.4Q12.9 -10.4 13.1 -6.75Q13.15 -5.85 13.85 -4.7Q14.5 -3.6 14.5 -2.9Q14.5 -2.05 13.75 -1.3Q13 -0.55 12.2 -0.55Q11.5 -0.55 10.8 -0.95Q10 -1.4 10 -2Q10 -2.65 10.6 -3.2Q11.2 -3.8 11.2 -4.3L10.8 -7L10.45 -8.9M-11.75,-7.6L-11.15 -8.5L-9.45 -7.65Q-7.85 -6.85 -7.45 -6.85Q-6.75 -6.85 -5.55 -8.6L-4.45 -10.3L-4.3 -11.15L-4.05 -11.55L-3.65 -11.65L-2.5 -11L-1.4 -10Q-1.4 -9.5 -3.9 -6.85Q-6.45 -4.15 -7.15 -4.15Q-7.9 -4.15 -9.7 -5.1L-12.25 -6.4L-11.75 -7.6" />
<path style="fill:none;stroke-width:1;stroke-linecap:butt;stroke-linejoin:miter;stroke-miterlimit:3;stroke:#854A34;stroke-opacity:1" d="M10.8,-7L11.2 -4.3Q11.2 -3.8 10.6 -3.2Q10 -2.65 10 -2Q10 -1.4 10.8 -0.95Q11.5 -0.55 12.2 -0.55Q13 -0.55 13.75 -1.3Q14.5 -2.05 14.5 -2.9Q14.5 -3.6 13.85 -4.7Q13.15 -5.85 13.1 -6.75Q12.9 -10.4 11.75 -10.4L10.8 -10.15L10.5 -9.4L10.4 -9.15L10.45 -8.9L10.8 -7M-12.25,-6.4L-9.7 -5.1Q-7.9 -4.15 -7.15 -4.15Q-6.45 -4.15 -3.9 -6.85Q-1.4 -9.5 -1.4 -10L-2.5 -11L-3.65 -11.65L-4.05 -11.55L-4.3 -11.15L-4.45 -10.3L-5.55 -8.6Q-6.75 -6.85 -7.45 -6.85Q-7.85 -6.85 -9.45 -7.65L-11.15 -8.5L-11.75 -7.6L-12.25 -6.4" />
<path style="fill:#2F9EBF;fill-opacity:1" d="M15.15,-14L15.6 -11.8Q15.6 -10.85 13.7 -10.75L11.45 -10.85L9.25 -10.55L6.75 -10.3L3.1 -10.55L2.65 -10.85L0.45 -9.55Q-0.9 -8.5 -1.75 -8.5Q-4.95 -10.85 -4.95 -11.35Q-4.95 -12.5 -2.75 -14.55Q-0.6 -16.5 0.4 -16.5L1.35 -16.35L2.45 -15.7Q2.9 -16.1 4.3 -16.3L8.85 -17.05L11.85 -16.7L14.5 -16.2L15.15 -14M12.2,-14.45L13.1 -14.2Q13.4 -14.2 13.6 -14.45L13.8 -14.9Q13.8 -16.1 10.05 -16.15L4 -15.65Q2.6 -15.35 2.6 -14.7Q2.6 -13.95 3.3 -13.95L3.95 -14.15L6.55 -14.4L10.45 -14.75L12.2 -14.45M-3.85,-12.4Q-3.8 -11.7 -3.15 -11.7L-0.75 -13.5L1.3 -15.4Q1.3 -17.05 -1.25 -15.1Q-3.85 -13.2 -3.85 -12.4M-10.3,-8.6L-10.3 -8.35L-10.5 -8.35L-10.55 -8.25L-12.05 -5.45Q-12.9 -3.9 -14.1 -3.9L-14.95 -4.15L-15.4 -4.95Q-15.4 -6.15 -13.9 -7.6Q-12.45 -9 -11.4 -9L-10.3 -8.6" />
<path style="fill:#85CBE0;fill-opacity:1" d="M10.45,-14.75L6.55 -14.4L3.95 -14.15L3.3 -13.95Q2.6 -13.95 2.6 -14.7Q2.6 -15.35 4 -15.65L10.05 -16.15Q13.8 -16.1 13.8 -14.9L13.6 -14.45Q13.4 -14.2 13.1 -14.2L12.2 -14.45L10.45 -14.75M-1.25,-15.1Q1.3 -17.05 1.3 -15.4L-0.75 -13.5L-3.15 -11.7Q-3.8 -11.7 -3.85 -12.4Q-3.85 -13.2 -1.25 -15.1" />
<path style="fill:none;stroke-width:1;stroke-linecap:butt;stroke-linejoin:miter;stroke-miterlimit:3;stroke:#0E576E;stroke-opacity:1" d="M15.15,-14L15.6 -11.8Q15.6 -10.85 13.7 -10.75L11.45 -10.85L9.25 -10.55L6.75 -10.3L3.1 -10.55L2.65 -10.85L0.45 -9.55Q-0.9 -8.5 -1.75 -8.5Q-4.95 -10.85 -4.95 -11.35Q-4.95 -12.5 -2.75 -14.55Q-0.6 -16.5 0.4 -16.5L1.35 -16.35L2.45 -15.7Q2.9 -16.1 4.3 -16.3L8.85 -17.05L11.85 -16.7L14.5 -16.2L15.15 -14M2.65,-10.85Q1.8 -11.6 1.8 -13.75Q1.8 -15.15 2.3 -15.6L2.45 -15.7M-10.3,-8.6L-10.3 -8.35L-10.5 -8.35L-10.55 -8.25L-12.05 -5.45Q-12.9 -3.9 -14.1 -3.9L-14.95 -4.15L-15.4 -4.95Q-15.4 -6.15 -13.9 -7.6Q-12.45 -9 -11.4 -9L-10.3 -8.6" />
<path style="fill:#2F9EBF;fill-opacity:1" d="M13.4,-12.6Q14.15 -11.6 14.15 -10.1Q14.15 -8.6 10.25 -8.6Q9.7 -8.6 9.7 -8.85L9.6 -10.2L9.05 -12.05L9.1 -12.5L9.3 -12.65L9.35 -12.9Q9.65 -13.7 11.15 -13.7Q12.55 -13.7 13.4 -12.6M10.85,-12.5L13.1 -9.75Q13.8 -9.75 13.8 -10.55Q13.8 -11.9 12.35 -12.95Q10.85 -13.95 10.85 -12.5" />
<path style="fill:#85CBE0;fill-opacity:1" d="M12.35,-12.95Q13.8 -11.9 13.8 -10.55Q13.8 -9.75 13.1 -9.75L10.85 -12.5Q10.85 -13.95 12.35 -12.95" />
<path style="fill:none;stroke-width:1;stroke-linecap:butt;stroke-linejoin:miter;stroke-miterlimit:3;stroke:#0E576E;stroke-opacity:1" d="M13.4,-12.6Q14.15 -11.6 14.15 -10.1Q14.15 -8.6 10.25 -8.6Q9.7 -8.6 9.7 -8.85L9.6 -10.2L9.05 -12.05L9.1 -12.5L9.3 -12.65L9.35 -12.9Q9.65 -13.7 11.15 -13.7Q12.55 -13.7 13.4 -12.6z" />
<path style="fill:#F0D2C6;fill-opacity:1" d="M24.15,-22.2L24.05 -21.85L23.65 -21.5Q23.35 -21.2 22.75 -21.2Q22.05 -21.2 21.4 -22.15L21.25 -22.3L20.9 -22.95Q20.9 -24 22.45 -23.6Q23.25 -23.35 23.65 -22.95L23.95 -22.45L24.1 -22.35L24.15 -22.2M24.45,-15.75Q25.35 -15.75 25.35 -14.15Q25.35 -13.35 24.75 -13.35Q24.4 -13.35 24.05 -13.95L23.6 -15Q23.6 -15.5 24.05 -15.65L24.45 -15.75" />
<path style="fill:#EEA78C;fill-opacity:1" d="M23.85,-19.7L23.6 -19.5L23.2 -20Q22.75 -20.45 21.3 -20.45L20.9 -20.45L18.95 -19.95Q17.65 -19.35 17.65 -18.3L17.65 -18.25Q17.7 -17.6 18 -17.1L18.45 -16.7Q19.25 -16.1 20.55 -16.1L21.05 -16.1Q22.95 -16.15 23.55 -17.1L23.65 -17.05L24.05 -16.75L24.2 -16.6L24.75 -16.2L25.35 -16.2L25.75 -15.35L25.75 -15.3L25.8 -15L25.85 -14.85L26.4 -13.6Q26.4 -13.05 24.05 -12.3L23.9 -12.3L23.6 -12.25L22.75 -11.9L22.4 -11.85L21.4 -11.65L21.3 -11.65L21.05 -11.65L20.25 -11.85L19.15 -13.05L18.9 -13.6Q18.3 -14.4 18.3 -14.95L17.85 -16.1Q17.5 -16.75 17.5 -17.15L17.35 -18.4L17.05 -19.35Q16.9 -19.7 16.9 -20Q16.9 -21.4 17.4 -22.3Q18.2 -24.1 20.55 -24.1Q22.4 -24.1 23.2 -23.55L23.65 -22.95Q23.25 -23.35 22.45 -23.6Q20.9 -24 20.9 -22.95L21.25 -22.3L21.4 -22.15Q22.05 -21.2 22.75 -21.2Q23.35 -21.2 23.65 -21.5L24.05 -21.85L24.15 -22.2L24.1 -22.35L25.05 -20.9L25.2 -20.45L24.35 -20.2L24.05 -19.85L23.85 -19.7M24.05,-15.65Q23.6 -15.5 23.6 -15L24.05 -13.95Q24.4 -13.35 24.75 -13.35Q25.35 -13.35 25.35 -14.15Q25.35 -15.75 24.45 -15.75L24.05 -15.65" />
<path style="fill:#91857F;fill-opacity:1" d="M24.05,-19.85L24.35 -20.2L25.2 -20.45Q26.35 -20.45 26.35 -18.3Q26.35 -16.7 25.4 -16.25L25.35 -16.2L24.75 -16.2L24.2 -16.6L24.05 -16.75L23.65 -17.05L23.55 -17.1Q22.95 -16.15 21.05 -16.1L20.55 -16.1Q19.25 -16.1 18.45 -16.7L18 -17.1Q17.7 -17.6 17.65 -18.25L17.65 -18.3Q17.65 -19.35 18.95 -19.95L20.9 -20.45L21.3 -20.45Q22.75 -20.45 23.2 -20L23.6 -19.5L23.85 -19.7L24.05 -19.85M25.65,-19.2Q25.65 -19.95 25 -19.95Q24.35 -19.95 24.35 -19.3Q24.35 -18.5 25 -18.5Q25.3 -18.5 25.5 -18.75L25.65 -19.2M21.6,-18.95Q21.6 -18 22.35 -18L22.85 -18.3L23 -18.6Q23 -19.45 22.35 -19.7Q21.6 -19.8 21.6 -18.95" />
<path style="fill:#B6B4B3;fill-opacity:1" d="M25.5,-18.75Q25.3 -18.5 25 -18.5Q24.35 -18.5 24.35 -19.3Q24.35 -19.95 25 -19.95Q25.65 -19.95 25.65 -19.2L25.5 -18.75M22.35,-19.7Q23 -19.45 23 -18.6L22.85 -18.3L22.35 -18Q21.6 -18 21.6 -18.95Q21.6 -19.8 22.35 -19.7" />
<path style="fill:none;stroke-width:1;stroke-linecap:butt;stroke-linejoin:miter;stroke-miterlimit:3;stroke:#544741;stroke-opacity:1" d="M25.2,-20.45Q26.35 -20.45 26.35 -18.3Q26.35 -16.7 25.4 -16.25L25.35 -16.2M23.6,-19.5L23.2 -20Q22.75 -20.45 21.3 -20.45L20.9 -20.45Q20.45 -20 20.35 -19.45L20.25 -18.9L20.25 -18.4L20.45 -17.1Q20.6 -16.35 21.05 -16.1M23.6,-19.5L23.85 -18.3L23.55 -17.1M23.65,-17.05L24.05 -16.75L24.2 -16.6L24.75 -16.2L25.35 -16.2M25.2,-20.45L24.35 -20.2L24.05 -19.85L23.85 -19.7" />
<path style="fill:none;stroke-width:1;stroke-linecap:round;stroke-linejoin:miter;stroke-miterlimit:3;stroke:#854A34;stroke-opacity:1" d="M17.65,-18.25Q17.45 -18.3 17.35 -18.4Q17.1 -18.4 17.1 -18.5L17.05 -19.05L17.05 -19.35M17.35,-18.4L17.05 -19.35" />
<path style="fill:none;stroke-width:1;stroke-linecap:butt;stroke-linejoin:miter;stroke-miterlimit:3;stroke:#854A34;stroke-opacity:1" d="M17.05,-19.35Q16.9 -19.7 16.9 -20Q16.9 -21.4 17.4 -22.3Q18.2 -24.1 20.55 -24.1Q22.4 -24.1 23.2 -23.55L23.65 -22.95L23.95 -22.45L24.1 -22.35L25.05 -20.9" />
<path style="fill:none;stroke-width:1;stroke-linecap:round;stroke-linejoin:miter;stroke-miterlimit:3;stroke:#854A34;stroke-opacity:1" d="M25.35,-16.2L25.75 -15.35L25.75 -15.3L25.8 -15L25.85 -14.85L26.4 -13.6Q26.4 -13.05 24.05 -12.3L23.9 -12.3L23.6 -12.25L22.75 -11.9L22.4 -11.85L21.4 -11.65L21.3 -11.65L21.05 -11.65L20.25 -11.85L19.15 -13.05L18.9 -13.6Q18.3 -14.4 18.3 -14.95L17.85 -16.1Q17.5 -16.75 17.5 -17.15L17.35 -18.4" />
<path style="fill:none;stroke-width:1;stroke-linecap:round;stroke-linejoin:miter;stroke-miterlimit:3;stroke:#544741;stroke-opacity:1" d="M23.55,-17.1Q22.95 -16.15 21.05 -16.1L20.55 -16.1Q19.25 -16.1 18.45 -16.7L18 -17.1Q17.7 -17.6 17.65 -18.25M20.9,-20.45L18.95 -19.95Q17.65 -19.35 17.65 -18.3L17.65 -18.25" />
</g>
</svg>
