<?xml version="1.0" encoding="utf-8"?>
<svg version="1.1" id="Layer_1"
xmlns="http://www.w3.org/2000/svg"
xmlns:xlink="http://www.w3.org/1999/xlink"
xmlns:author="http://www.sothink.com"
width="47px" height="30px"
xml:space="preserve">
<g id="198" transform="matrix(1, 0, 0, 1, -17.35, 18.4)">
<path style="fill:#FFCC00;fill-opacity:1" d="M19.8,-17.55Q24.75 -14.3 24.75 -12.25Q22.55 -10.65 21.75 -10.65Q19.85 -10.65 19.75 -13.35L19.8 -17.55M35.4,-13.55L34.65 -11.55Q33.65 -9.6 32.4 -9.6Q31.9 -9.6 30.45 -10.5L28.85 -11.55Q28.95 -12.35 30.65 -13.3Q32.35 -14.25 33.7 -14.25L34.65 -14.25Q35.4 -14.1 35.4 -13.55M21.95,-1.35Q22.4 -0.4 23.65 -0.4L24.85 -0.6L25.35 0Q25.75 0.55 26.35 0.55Q26.75 0.55 27.4 -0.05L28.1 -0.7L28.9 -0.35Q29.45 -0.05 29.7 -0.05Q30.35 -0.05 30.5 -0.75L30.5 -1.7L30.35 -3.05Q29.85 -4 27.95 -3.65Q28.05 -4.5 26.8 -4.5Q21.8 -3.7 21.75 -2.4L21.75 -2.7L21.85 -3.9L22.3 -4.25L24.9 -7.1L25.8 -6.3L26.7 -5.6Q26.95 -5.6 28.25 -6.35Q29.55 -7.1 30.05 -7.1Q30.05 -5.35 31.6 -4.05Q32.3 -3.45 34.5 -2.3L32.05 -0.5Q30.75 0.5 31.5 2.25L29.6 2.25L28.85 1.8L28.1 1.35L27.25 2.25L26.45 3.3Q25 2.05 22.3 1Q21.8 0.8 21.75 -2.25L21.95 -1.35M40.45,-5.9L43.4 -5Q45.55 -4.3 46.4 -4.4L50.8 -3.6L55.65 -2.5L59.15 -1.7L63 -1L62.95 -0.75L50.45 0.85L40.9 2.25L40.35 2Q40.7 1.1 42.4 -1.25L41.15 -3.25L39.75 -5.6L39.75 -5.9L40.45 -5.9M32.4,11Q31.6 11 30.15 9.7L27.95 7.95L27.65 7.55L27.65 6.35L29.75 6.05L31.95 6.2Q33.9 6.5 33.9 7.05Q32.85 11 32.4 11M20.25,11L17.85 11L17.85 9.95L18.25 9L18.45 7.65L18.8 6.75Q19.1 6.05 20 6.05L22.05 6.5Q23.1 7.05 23.1 7.95Q23.1 9.45 22.4 9.85L20.25 11" />
<path style="fill:#FFFFCC;fill-opacity:1" d="M21.75,-2.25L21.75 -2.4Q21.8 -3.7 26.8 -4.5Q28.05 -4.5 27.95 -3.65Q29.85 -4 30.35 -3.05L30.5 -1.7L30.5 -0.75Q30.35 -0.05 29.7 -0.05Q29.45 -0.05 28.9 -0.35L28.1 -0.7L27.4 -0.05Q26.75 0.55 26.35 0.55Q25.75 0.55 25.35 0L24.85 -0.6L23.65 -0.4Q22.4 -0.4 21.95 -1.35L21.75 -2.25" />
<path style="fill:none;stroke-width:1;stroke-linecap:butt;stroke-linejoin:miter;stroke-miterlimit:3;stroke:#FF9900;stroke-opacity:1" d="M19.75,-13.35Q19.85 -10.65 21.75 -10.65Q22.55 -10.65 24.75 -12.25Q24.75 -14.3 19.8 -17.55L19.75 -13.35M34.65,-14.25L33.7 -14.25Q32.35 -14.25 30.65 -13.3Q28.95 -12.35 28.85 -11.55L30.45 -10.5Q31.9 -9.6 32.4 -9.6Q33.65 -9.6 34.65 -11.55L35.4 -13.55Q35.4 -14.1 34.65 -14.25M21.75,-2.4L21.75 -2.7L21.85 -3.9L22.3 -4.25L24.9 -7.1L25.8 -6.3L26.7 -5.6Q26.95 -5.6 28.25 -6.35Q29.55 -7.1 30.05 -7.1Q30.05 -5.35 31.6 -4.05Q32.3 -3.45 34.5 -2.3L32.05 -0.5Q30.75 0.5 31.5 2.25L29.6 2.25L28.85 1.8L28.1 1.35L27.25 2.25L26.45 3.3Q25 2.05 22.3 1Q21.8 0.8 21.75 -2.25M39.75,-5.6L41.15 -3.25L42.4 -1.25Q40.7 1.1 40.35 2L40.3 2.1L40.9 2.25L50.45 0.85L62.95 -0.75M63,-1L59.15 -1.7L55.65 -2.5L50.8 -3.6L46.4 -4.4Q45.55 -4.3 43.4 -5L40.45 -5.9L39.75 -5.9M63,-1L63.55 -0.95M33.9,7.05Q33.9 6.5 31.95 6.2L29.75 6.05L27.65 6.35L27.65 7.55L27.95 7.95L30.15 9.7Q31.6 11 32.4 11Q32.85 11 33.9 7.05M22.4,9.85Q23.1 9.45 23.1 7.95Q23.1 7.05 22.05 6.5L20 6.05Q19.1 6.05 18.8 6.75L18.45 7.65L18.25 9L17.85 9.95L17.85 11L20.25 11L22.4 9.85" />
</g>
</svg>
