<?xml version="1.0" encoding="utf-8"?>
<svg version="1.1" id="Layer_1"
xmlns="http://www.w3.org/2000/svg"
xmlns:xlink="http://www.w3.org/1999/xlink"
xmlns:author="http://www.sothink.com"
width="71px" height="72px"
xml:space="preserve">
<g id="127" transform="matrix(1, 0, 0, 1, 35.3, 35.6)">
<path style="fill:#8CAAC9;fill-opacity:1" d="M-31.55,-31.75Q-30.65 -31.2 -28.4 -31.2L-23.7 -31.55L-19.65 -31.95L-7.45 -32.35L0.45 -31.95L0.5 -32.3L0.55 -32.8L0.85 -33L1.4 -33.2Q2.8 -33.2 2.8 -32.25L2.8 -31.7L3.15 -31.65L10.95 -31L17.6 -31.4L24.25 -31.95L27.05 -31.45L27.6 -31.7L28.35 -31.6Q30.05 -31.1 30.05 -29.45L30.05 -29.35Q31.85 -27.25 31.85 -23.7L31.55 -20.25Q31.25 -18.4 31.25 -16.1L31.55 -4.15L31.8 -3.9Q32.3 -3.3 32.3 -2.45Q32.3 -1.75 32 -1.45L31.65 -1.2L31.65 0Q31.65 4 31.1 9.6Q30.5 15.25 30.5 19.05L31.6 28.2L31.65 28.5L32.35 28.3Q32.65 30.05 32.35 31.2Q31.8 33.2 29.45 33.3L27.85 33.35L18.65 34.3L9.5 35.15L-1.25 34.95L-2.55 34.95L-2.6 34.95L-17.15 34.25Q-27.75 33.25 -30.1 31.75L-31.7 30.25L-31.95 29.9L-32 29.85L-32.05 29.75L-32.15 29.6Q-34.2 26.35 -34.2 19.65L-33.9 11.95L-33.75 8.7L-33.3 -0.65L-33.35 -2.55L-33.75 -6.15L-34.2 -12L-34.35 -18.25Q-36.05 -27.65 -31.6 -31.7L-31.55 -31.75M-1.5,30.55L8.7 30.85Q13.4 30.85 18 29.7Q23.1 28.45 23.1 26.75L23 25.75L24.25 24.6Q26.65 21.75 26.7 13.05L26.75 10.85L26.9 -2.75L27 -10.95Q27 -20.75 26.2 -24.6L25.3 -26.65Q23.95 -28.45 20.9 -28.3Q16.45 -28.15 6.2 -28.6L2 -28.75L-6.45 -29.05Q-16.5 -29.05 -18.65 -28.75Q-23.45 -28.05 -25.3 -25.9L-25.35 -25.85L-26.8 -24.95Q-29.45 -22.9 -29.45 -19.35L-29.05 -16.7Q-28.7 -15.05 -28.7 -13.75Q-28.7 -9.15 -29.05 -5.1L-29.2 -3.2L-29.05 -2.65L-29.25 -1.7L-29.45 6.45L-29.3 11.85L-29.2 13.65Q-29 16.65 -29.25 21.15Q-29.4 24.3 -24.65 26.8L-21.75 28.05L-20.35 28.55L-18.3 29L-18.2 29.05L-15.9 29.4L-15.8 29.4L-6.85 30.2L-3.65 30.4Q-3.3 30.1 -2.8 30.1L-1.7 30.4L-1.5 30.55M-4.05,32.05L-4.05 32.15L-4 32.2L-4.05 32.05" />
<path style="fill:#AAC7E5;fill-opacity:1" d="M31.65,28.5L31.6 28.2L30.5 19.05Q30.5 15.25 31.1 9.6Q31.65 4 31.65 0L31.65 -1.2L32 -1.45Q32.3 -1.75 32.3 -2.45Q32.3 -3.3 31.8 -3.9L31.55 -4.15L31.25 -16.1Q31.25 -18.4 31.55 -20.25L31.85 -23.7Q31.85 -27.25 30.05 -29.35L30.05 -29.45Q30.05 -31.1 28.35 -31.6L27.6 -31.7L27.05 -31.45L24.25 -31.95L17.6 -31.4L10.95 -31L3.15 -31.65L2.8 -31.7L2.8 -32.25Q2.8 -33.2 1.4 -33.2L0.85 -33L0.55 -32.8L0.5 -32.3L0.45 -31.95L-7.45 -32.35L-19.65 -31.95L-23.7 -31.55L-28.4 -31.2Q-30.65 -31.2 -31.55 -31.75L-31.4 -31.9L-31.3 -32L-31.2 -32.05L-30.95 -32.25Q-29.75 -33.2 -28.1 -33.8Q-24.85 -35 -18.95 -35.1L-8.4 -34.95L1.35 -34.9L1.4 -34.9L8.65 -34.8L27.6 -34.65L27.75 -34.65L28.9 -34.55Q32.45 -33.85 33.85 -28.7Q34.75 -25.4 34.75 -19.2L34.6 -2.45L34.6 -2.35L33.8 13.85Q33.1 23.2 32.35 28.3L31.65 28.5M-1.7,30.4L-2.8 30.1Q-3.3 30.1 -3.65 30.4L-6.85 30.2L-15.8 29.4L-15.9 29.4L-18.2 29.05L-18.3 29L-20.35 28.55L-21.75 28.05L-24.65 26.8Q-29.4 24.3 -29.25 21.15Q-29 16.65 -29.2 13.65L-29.3 11.85L-29.45 6.45L-29.25 -1.7L-29.05 -2.65L-29.2 -3.2L-29.05 -5.1Q-28.7 -9.15 -28.7 -13.75Q-28.7 -15.05 -29.05 -16.7L-29.45 -19.35Q-29.45 -22.9 -26.8 -24.95L-25.35 -25.85Q-26.35 -24.7 -26.45 -23.05L-26.45 -22.75Q-26.45 -20.7 -26.9 -18.95Q-26.5 -12.65 -26.5 -2.8L-26.5 -2.65L-26.7 11.1L-26.7 11.8Q-26.95 20.45 -24.9 23.7L-23.75 25L-21.05 26.55L-17.9 27.45L-15.6 27.75L-2.9 28.15L-2.8 28.15L-0.35 28.2Q10.15 28.4 16 27.95Q20.55 27.55 23 25.75L23.1 26.75Q23.1 28.45 18 29.7Q13.4 30.85 8.7 30.85L-1.5 30.55L-1.7 30.4" />
<path style="fill:none;stroke-width:1;stroke-linecap:butt;stroke-linejoin:miter;stroke-miterlimit:3;stroke:#34495F;stroke-opacity:1" d="M32.35,28.3Q33.1 23.2 33.8 13.85L34.6 -2.35L34.6 -2.45L34.75 -19.2Q34.75 -25.4 33.85 -28.7Q32.45 -33.85 28.9 -34.55L27.75 -34.65L27.6 -34.65L8.65 -34.8L1.4 -34.9L1.35 -34.9L-8.4 -34.95L-18.95 -35.1Q-24.85 -35 -28.1 -33.8Q-29.75 -33.2 -30.95 -32.25L-31.2 -32.05L-31.3 -32L-31.4 -31.9L-31.55 -31.75M0.45,-31.95L0.5 -32.3L0.55 -32.8L0.85 -33L1.4 -33.2Q2.8 -33.2 2.8 -32.25L2.8 -31.7M27.05,-31.45L27.6 -31.7L28.35 -31.6Q30.05 -31.1 30.05 -29.45L30.05 -29.35M31.55,-4.15L31.8 -3.9Q32.3 -3.3 32.3 -2.45Q32.3 -1.75 32 -1.45L31.65 -1.2M32.35,28.3Q32.65 30.05 32.35 31.2Q31.8 33.2 29.45 33.3L27.85 33.35L18.65 34.3L9.5 35.15L-1.25 34.95L-2.55 34.95L-2.6 34.95L-17.15 34.25Q-27.75 33.25 -30.1 31.75L-31.7 30.25L-31.95 29.9L-32 29.85L-32.05 29.75L-32.15 29.6Q-34.2 26.35 -34.2 19.65L-33.9 11.95L-33.75 8.7L-33.3 -0.65L-33.35 -2.55L-33.75 -6.15L-34.2 -12L-34.35 -18.25Q-36.05 -27.65 -31.6 -31.7L-31.55 -31.75M23,25.75L24.25 24.6Q26.65 21.75 26.7 13.05L26.75 10.85L26.9 -2.75L27 -10.95Q27 -20.75 26.2 -24.6L25.3 -26.65Q23.95 -28.45 20.9 -28.3Q16.45 -28.15 6.2 -28.6L2 -28.75L-6.45 -29.05Q-16.5 -29.05 -18.65 -28.75Q-23.45 -28.05 -25.3 -25.9L-25.35 -25.85Q-26.35 -24.7 -26.45 -23.05Q-26.15 -21.45 -26.9 -18.95Q-26.5 -12.65 -26.5 -2.8L-26.5 -2.65L-26.7 11.1L-26.7 11.8Q-26.95 20.45 -24.9 23.7L-23.75 25L-21.05 26.55L-17.9 27.45L-15.6 27.75L-2.9 28.15L-2.8 28.15L-0.35 28.2Q10.15 28.4 16 27.95Q20.55 27.55 23 25.75M-1.5,30.55Q-0.95 30.9 -0.95 31.6Q-0.95 32.1 -1.5 32.55L-2.15 32.95L-2.55 33Q-3.3 33 -4 32.25L-4 32.2L-4.05 32.15L-4.05 32.05L-4.1 31.6Q-4.15 30.95 -3.8 30.55L-3.65 30.4Q-3.3 30.1 -2.8 30.1L-1.7 30.4L-1.5 30.55M-29.25,-1.7L-29.4 -1.55Q-29.8 -1 -30.45 -1Q-31.85 -1 -31.85 -2.7L-31.8 -3L-31.4 -3.6L-31.3 -3.95L-30.85 -4L-29.7 -3.7L-29.2 -3.2L-29.05 -2.65L-29.25 -1.7M27.05,-31.45Q26.65 -31.1 26.65 -30.1Q26.65 -29.1 27.15 -28.4Q27.7 -27.65 28.7 -27.65Q29.25 -27.65 29.65 -28.15Q30.05 -28.65 30.05 -29.35M0.45,-31.95L0.45 -31.9Q0.45 -31.3 1.1 -30.95L2.1 -30.75L2.65 -31.1L2.8 -31.7M31.55,-4.15Q31.1 -4.55 30.55 -4.55L29.8 -4.3L29.55 -4.1L29.3 -3.8Q28.9 -3.25 28.9 -2.75Q28.9 -1.1 30.75 -1.1L31.65 -1.2M26.7,27Q26.25 27.15 26.15 27.75L26.1 28.1L26 28.5Q26 29.25 26.5 29.75Q27 30.2 27.65 30.2Q28.5 30.2 28.9 29.25L29.2 28Q29.2 26.9 27.55 26.9L26.75 26.95L26.7 27M-27.55,-30Q-28.2 -30.4 -28.7 -30.4L-29.35 -30.25L-29.7 -30.05L-29.85 -29.8L-29.9 -29Q-29.9 -28.1 -29.3 -27.5Q-28.75 -27 -28.05 -27Q-27.5 -27 -27.15 -27.65Q-26.8 -28.25 -26.8 -29Q-26.8 -29.55 -27.55 -30M-26.45,-23.05L-26.45 -22.75Q-26.45 -20.7 -26.9 -18.95M-29.8,26.35L-30.25 27.2L-29.95 28.5Q-29.65 28.9 -29.05 28.9Q-28.35 28.9 -28 28.15L-27.75 27Q-27.75 26.5 -28.2 26.25L-29.05 26Q-29.35 26 -29.8 26.35M-4.05,32.05L-4 32.2" />
</g>
</svg>
