<?xml version="1.0" encoding="utf-8"?>
<svg version="1.1" id="Layer_1"
xmlns="http://www.w3.org/2000/svg"
xmlns:xlink="http://www.w3.org/1999/xlink"
xmlns:author="http://www.sothink.com"
width="34px" height="31px"
xml:space="preserve">
<g id="162" transform="matrix(1, 0, 0, 1, 14.35, 14.05)">
<path style="fill:#83679F;fill-opacity:1" d="M16.7,14.25L15.75 14.75L-2.8 -4.2L-2.05 -5.7L16.7 14.25M11.5,15.4L10.55 16.15L-7.2 -1.65L-5.55 -2.05L11.5 15.4M-6.7,-5.9L-6.85 -5.8L-7.85 -5.55Q-8.7 -5.55 -9.3 -6.15Q-9.85 -6.75 -9.85 -7.6Q-9.85 -8.45 -9.3 -9.05L-8.6 -9.5L-7.85 -9.65Q-7 -9.65 -6.45 -9.05Q-5.85 -8.45 -5.85 -7.6Q-5.85 -6.75 -6.45 -6.15L-6.7 -5.9M-7.4,-8.85Q-8.4 -8.85 -8.4 -8.05Q-8.15 -7.05 -7.45 -7.05L-6.8 -7.45L-6.55 -8.05L-6.65 -8.45Q-6.85 -8.85 -7.4 -8.85" />
<path style="fill:#666699;fill-opacity:1" d="M-2.05,-5.7L-2.8 -4.2L-3.55 -3.4L-4.15 -2.85L-5.55 -2.05L-7.2 -1.65L-7.8 -1.65Q-10.3 -1.65 -12.1 -3.4Q-13.85 -5.15 -13.85 -7.6Q-13.85 -10.05 -12.1 -11.8Q-10.3 -13.55 -7.8 -13.55Q-5.3 -13.55 -3.55 -11.8Q-1.75 -10.05 -1.75 -7.6L-1.75 -7.5Q-1.75 -6.55 -2.05 -5.7M-11.8,-5.05Q-10.6 -2.95 -8.4 -2.95Q-7.4 -2.95 -6.4 -3.5Q-5.5 -3.95 -5.5 -4.2L-5.55 -4.55Q-5.7 -4.85 -6.25 -4.85L-8.95 -4.85L-10 -5.95L-10.45 -7.05Q-10.55 -7.8 -11.55 -8.05Q-12.55 -8.3 -12.55 -7.35Q-12.55 -6.4 -11.8 -5.05M-2.9,-6.75L-2.7 -7.95Q-2.7 -9.2 -3.65 -10.6Q-5.15 -12.8 -8.2 -12.8L-9.6 -12.35L-10 -11.8Q-10 -10.5 -8.75 -10.5Q-6.95 -10.5 -5.7 -9.15L-5.05 -7.3Q-4.55 -5.85 -3.75 -5.85Q-3.2 -5.85 -2.9 -6.65L-2.9 -6.75M-9.3,-9.05Q-9.85 -8.45 -9.85 -7.6Q-9.85 -6.75 -9.3 -6.15Q-8.7 -5.55 -7.85 -5.55L-6.85 -5.8L-6.7 -5.9Q-6.3 -6.05 -6 -6.4Q-5.4 -7 -5.4 -7.85Q-5.4 -8.7 -6 -9.3Q-6.55 -9.9 -7.4 -9.9Q-8.1 -9.9 -8.6 -9.5L-9.3 -9.05" />
<path style="fill:#A0A0D0;fill-opacity:1" d="M-2.9,-6.65Q-3.2 -5.85 -3.75 -5.85Q-4.55 -5.85 -5.05 -7.3L-5.7 -9.15Q-6.95 -10.5 -8.75 -10.5Q-10 -10.5 -10 -11.8L-9.6 -12.35L-8.2 -12.8Q-5.15 -12.8 -3.65 -10.6Q-2.7 -9.2 -2.7 -7.95L-2.9 -6.75L-2.9 -6.65M-6.65,-8.45L-6.55 -8.05L-6.8 -7.45L-7.45 -7.05Q-8.15 -7.05 -8.4 -8.05Q-8.4 -8.85 -7.4 -8.85Q-6.85 -8.85 -6.65 -8.45" />
<path style="fill:#C0A7D9;fill-opacity:1" d="M-2.05,-5.7Q-1.75 -6.55 -1.75 -7.5L17.95 13.65L16.7 14.25L-2.05 -5.7M-5.55,-2.05L-4.15 -2.85L12.1 14.75L11.5 15.4L-5.55 -2.05" />
<path style="fill:#474774;fill-opacity:1" d="M-12.55,-7.35Q-12.55 -8.3 -11.55 -8.05Q-10.55 -7.8 -10.45 -7.05L-10 -5.95L-8.95 -4.85L-6.25 -4.85Q-5.7 -4.85 -5.55 -4.55L-5.5 -4.2Q-5.5 -3.95 -6.4 -3.5Q-7.4 -2.95 -8.4 -2.95Q-10.6 -2.95 -11.8 -5.05Q-12.55 -6.4 -12.55 -7.35" />
<path style="fill:none;stroke-width:1;stroke-linecap:butt;stroke-linejoin:miter;stroke-miterlimit:3;stroke:#483957;stroke-opacity:1" d="M-7.2,-1.65L-7.8 -1.65Q-10.3 -1.65 -12.1 -3.4Q-13.85 -5.15 -13.85 -7.6Q-13.85 -10.05 -12.1 -11.8Q-10.3 -13.55 -7.8 -13.55Q-5.3 -13.55 -3.55 -11.8Q-1.75 -10.05 -1.75 -7.6L-1.75 -7.5L17.95 13.65L16.7 14.25L15.75 14.75L-2.8 -4.2L-3.55 -3.4L-4.15 -2.85L12.1 14.75L11.5 15.4L10.55 16.15L-7.2 -1.65L-5.55 -2.05L-4.15 -2.85M-6.7,-5.9L-6.85 -5.8L-7.85 -5.55Q-8.7 -5.55 -9.3 -6.15Q-9.85 -6.75 -9.85 -7.6Q-9.85 -8.45 -9.3 -9.05L-8.6 -9.5L-7.85 -9.65Q-7 -9.65 -6.45 -9.05Q-5.85 -8.45 -5.85 -7.6Q-5.85 -6.75 -6.45 -6.15L-6.7 -5.9M-1.75,-7.5Q-1.75 -6.55 -2.05 -5.7L-2.8 -4.2" />
</g>
</svg>
