<?xml version="1.0" encoding="utf-8"?>
<svg version="1.1" id="Layer_1"
xmlns="http://www.w3.org/2000/svg"
xmlns:xlink="http://www.w3.org/1999/xlink"
xmlns:author="http://www.sothink.com"
width="151px" height="30px"
xml:space="preserve">
<g id="70" transform="matrix(1, 0, 0, 1, 75.45, 14.75)">
<path style="fill:#A0BFBF;fill-opacity:1" d="M64.55,-9L-64.15 -9Q-68.7 -9 -68.7 -5.75L-68.7 6.05Q-68.7 9.3 -64.15 9.3L64.55 9.3Q69.1 9.3 69.1 6.05L69.1 -5.75Q69.1 -9 64.55 -9M74.5,-8.85L74.5 8.85Q74.5 13.75 69.6 13.75L-69.55 13.75Q-74.45 13.75 -74.45 8.85L-74.45 -8.85Q-74.45 -13.75 -69.55 -13.75L69.6 -13.75Q74.5 -13.75 74.5 -8.85" />
<path style="fill:none;stroke-width:2;stroke-linecap:butt;stroke-linejoin:miter;stroke-miterlimit:3;stroke:#505D5D;stroke-opacity:1" d="M64.55,-9L-64.15 -9Q-68.7 -9 -68.7 -5.75L-68.7 6.05Q-68.7 9.3 -64.15 9.3L64.55 9.3Q69.1 9.3 69.1 6.05L69.1 -5.75Q69.1 -9 64.55 -9M69.6,-13.75L-69.55 -13.75Q-74.45 -13.75 -74.45 -8.85L-74.45 8.85Q-74.45 13.75 -69.55 13.75L69.6 13.75Q74.5 13.75 74.5 8.85L74.5 -8.85Q74.5 -13.75 69.6 -13.75" />
</g>
</svg>
