<?xml version="1.0" encoding="utf-8"?>
<svg version="1.1" id="Layer_1"
xmlns="http://www.w3.org/2000/svg"
xmlns:xlink="http://www.w3.org/1999/xlink"
xmlns:author="http://www.sothink.com"
width="173px" height="276px"
xml:space="preserve">
<g id="344" transform="matrix(1, 0, 0, 1, -0.85, -296.85)">
<path style="fill:#000000;fill-opacity:0.2" d="M77.4,556.4Q84.6 553.7 94.85 553.7Q105.1 553.7 112.25 556.4Q119.5 559.1 119.5 562.9Q119.5 566.7 112.25 569.35Q105.1 572.05 94.85 572.05Q84.6 572.05 77.4 569.35Q70.15 566.7 70.15 562.9Q70.15 559.1 77.4 556.4" />
<path style="fill:#FC850F;fill-opacity:1" d="M102.4,530.9Q101.2 535.45 98.05 537Q93.6 539.2 89.1 536.7Q85.4 534.6 84.5 531.9Q83.85 529.95 84.75 526.05L87.1 517.7Q90.7 504.85 89.4 495.8L78.35 494.6L74.1 498.05Q69.9 501.95 70.4 504.05L71.1 505.25Q72.35 506.7 75.65 508.7Q78.7 510.5 79.8 511.8Q80.45 512.5 80.45 513Q80.55 514.55 79.8 516.75L77.55 521.6Q74.5 527.1 72.45 527.6Q70.55 528.05 68.9 526.8L67.65 528.35Q66.05 529.75 64.25 529Q63.25 528.6 62.5 527.5L59.6 526.55Q56.7 525.15 56.65 522.9Q56.6 520.45 57.75 518.2Q58.65 516.3 59.6 515.85Q61.15 515.1 64.05 514.3L66.7 513.65L64.25 510.6Q61.95 507.45 61.5 505.25L61.35 504.5Q61.15 502.15 66.25 496.55L71.4 491.4Q55.5 486.6 47.1 471.55Q39.05 457.1 43.95 444.9Q46.75 437.95 48.7 430.5Q51.8 418.85 51.75 409.65L43.85 413.4Q35.05 418.65 30.65 425.85Q26.3 433.05 24.65 446.25L24.25 450.4Q23.85 454.55 23.9 458L29.55 459.35Q35.05 461.5 34.15 465.75Q33.3 469.8 28.4 467.55L25 465.65Q23.35 464.8 23.1 465.15Q22.9 465.45 25.7 470.9Q28.4 476.25 26.55 478.05Q23.7 480.9 20.15 477Q17.8 481.1 15.9 481.75Q14.55 482.2 12.85 481.3Q11.35 480.5 9.95 478.9Q9.6 478.5 9.55 477.85Q8.65 477.75 7.5 477.15Q5.2 475.95 4.05 473.35Q2.5 469.85 7 465.1L11.8 461.05Q11.85 455.45 12.4 450.4Q16.65 410.55 51.35 402.5L51.55 397.8L49.7 395.55L48.7 394Q47.75 392.25 46.85 389.75L49.85 386.8Q53.1 384.15 53.1 383.6L52.85 383.35L50.5 384.6L48.45 386.15L47.65 386.95L47.05 387.75L46.7 388.55L46.6 389L45.35 385.05L45.15 384.4L45 383.8L44.9 383.6L45.1 383.6L47.7 381.25L50.85 378.85L50.75 378.65Q49.05 378.8 47.15 380.35Q45.15 381.8 44.6 382.35L44 380.1L47.9 377.3L52.1 374.25L51.85 374L51.5 374L47.85 375.75Q45.5 376.9 43.85 378.35Q43.85 378.65 44.1 378.8Q43.9 378.8 43.8 378.95L43.7 379L41.7 370.05L37.65 370.45L43.35 359L35.6 360.8L43.75 351.2L36.6 349.55L47.05 344.45L40.9 340.55L51.2 339.15Q50.7 333.2 50.5 327.25L50.5 326.9L50.35 319.15Q50.3 299 54.6 298.35Q58.9 297.75 66.8 312.55Q70.6 319.7 73.65 326.9L73.8 327.25L73.85 327.45L74.2 327.25L74.8 326.9L77.25 325.5Q80.95 323.5 82.7 323.35Q84.25 323.25 85.9 324.85Q87.65 326.5 88.6 326.6Q89.8 326.7 92.75 325.8L96.4 324.8Q97.9 324.8 100.35 326.9L100.5 327.05L100.6 326.9Q104 319.9 108.2 313.05Q116.65 299.3 120.55 300.6Q124.45 301.9 123.2 320.3L122.7 326.9L122.65 327.25L121.2 338.5L128.75 342.8L120.15 346.7L131.4 352L122.8 354.25L127.95 356.3L123.25 361.25L126.7 364.3L123.75 376.15L123.55 376.85L122.6 376.55L123.2 376.5L123.35 376.25L123.1 376L118.1 375.25L115.85 375.25L115.6 375.5L115.7 375.7Q117.5 377.15 122 377.35L122.6 377.55L123.3 377.3L123.45 377.35L122.55 380.5L122.5 380.4L120.6 380.1L118.2 379.85Q117.95 379.95 117.95 380.15L118.05 380.45L119.05 380.8L120.15 381.1L122.45 380.85L121.6 383.8L121.4 384.4L121.2 385.05L118.6 392.6L118.55 392.8L120.3 402.1Q158.1 410.55 162.35 450.4Q162.9 455.45 162.95 461.05L167.75 465.1Q172.25 469.85 170.7 473.35Q169.55 475.95 167.25 477.15L165.2 477.85L164.8 478.9Q163.4 480.5 161.9 481.3Q160.2 482.2 158.85 481.75Q156.95 481.1 154.6 477Q151.05 480.9 148.2 478.05Q146.35 476.25 149.05 470.9Q151.85 465.45 151.65 465.15Q151.4 464.8 149.75 465.65L146.35 467.55Q141.45 469.8 140.6 465.75Q139.7 461.5 145.2 459.35L150.85 458L150.5 450.4L150.1 446.25Q148.45 433.05 144.1 425.85Q139.7 418.65 130.9 413.4L121.8 410.45L121.7 416.9Q121.95 423.95 123.85 426.65L127.35 430.5Q130.25 433.5 132 436.1Q137.7 444.6 137.15 456.55Q136.3 474.7 124.85 484.95Q120 489.3 115.3 491.05L120.05 495.8Q125.15 501.4 124.95 503.75L124.8 504.5Q124.35 506.7 122.05 509.85L119.6 512.9L122.25 513.55Q125.15 514.35 126.7 515.1Q127.65 515.55 128.55 517.45Q129.7 519.7 129.65 522.15Q129.6 524.4 126.7 525.8L123.8 526.75Q123.05 527.85 122.05 528.25Q120.25 529 118.65 527.6L117.4 526.05Q115.75 527.3 113.85 526.85Q111.8 526.35 108.75 520.85Q107.25 518.1 106.5 516Q105.75 513.8 105.85 512.25Q105.85 511.75 106.5 511.05Q107.6 509.75 110.65 507.95Q113.95 505.95 115.2 504.5L115.9 503.3Q116.4 501.2 112.2 497.3L108 493.85L98.25 495.55L99.55 500.2L99.5 500.2L99 499.95L92.1 499.95L91.85 500.3L93 500.75L95.6 501.2L95.7 501.3L98.5 501.35L99.65 501.2L99.75 501L99.8 501.25Q101.4 507.6 102.3 513.2L102.1 512.95L101.6 512.9L101.35 512.7L98.9 513L96.9 513.3L93.9 513.55L92.75 513.4L92.05 513.2L91.75 513.3Q91.75 513.95 92.65 514.1L95.35 514.45L95.6 514.6L98.6 514.6L100.95 514.35L100.95 514.25L102.2 513.95L102.35 513.55L102.45 514.2Q103.9 524.25 102.65 530L101.6 530.45Q100.75 530.6 100.05 531.05L97.25 531.05L92.8 530.15Q90.95 529.7 90.15 528.9Q89.85 529.05 89.85 529.35L89.9 529.8L90.6 530.2L92 531.1L94.65 531.85L96.85 532.35L97.35 532.35Q100.15 532.15 101.2 531.55L102.4 530.9M99.5,500.7L99.6 500.6L99.65 500.6L99.75 500.95L99.5 500.7M54.45,320.45L54.7 326.9L54.7 327.25L55.2 335.85L58.3 333.2L61.35 334.85L62.2 331.35L65.05 332L65.45 328.5L69.55 328.9L68.95 327.25L68.85 326.9L64.35 316.25Q58.75 303.75 56.45 304.35Q54.15 304.95 54.45 320.45M78.85,334.05L77.85 334.25L77.7 334.35L77.25 334.35Q76 334.45 74.5 335.35Q73.55 335.85 73.25 336.85L73.2 337.6L73.05 338.35L72.75 339.05L72.6 339.85Q72.2 340.75 72.2 341.35Q72.05 341.65 72 342.85L71.6 345.9L71.6 348.15L71.55 348.3L71.6 349.7L71.7 350.45L71.9 351.15L72 351.2L72.35 352.05L72.75 352.95L72.85 353L73.15 353.85L73.25 354.25L73.45 354.7L74.15 356.4L74.4 356.75L74.6 356.85L75.05 356.85L75.6 356.2L76.1 355.5L77.1 354L79.45 351.1L79.85 350.55L80.5 349.8L81.2 349L81.4 349L81.8 348.45L85.1 345.8Q85.55 345.15 85.55 343.5L85.4 342.35L85.25 338.85Q85.05 337.3 84.5 336.5L83.6 335.35L82.85 334.75Q82.45 334.5 81.7 334.4L81.5 334.4Q81.35 334.2 80.75 334.15L80.15 334.15L80 334.05L78.85 334.05M94.6,344.3Q95.25 343.4 95.5 342.1Q96.1 339.1 93.2 336.65Q90.35 334.2 87.55 336.2Q86.15 337.25 85.35 338.75Q86.05 341.4 85.7 344.3L85.3 346.35Q83.5 347.3 81.8 348.8Q80.35 350.05 79 351.7L78.15 352.85Q76.35 355.3 75.35 357.55L76.9 361.1Q79.6 364.7 85.2 365.1Q93.2 365.7 99.1 361.35Q104.2 357.55 104.15 352.85L104.05 351.6Q103.8 350.05 103.05 348.8Q101.9 347.1 99.7 345.95Q97.35 344.75 94.35 344.6L94.6 344.3M63.5,377.6L63.5 377.65Q61.8 376.6 60.15 374.75L58.1 379.55L57.65 380.95L57 383.8L56.9 384.4L56.85 385.05Q56.7 386.7 57.05 387.9Q58.25 392.1 60.65 394.35Q63.55 397.1 67.3 395.85Q69.35 395.2 69.75 392Q70 389.95 69.55 386.9L67.7 379.25L66.4 378.9L65.3 378.55L64.2 378.05Q63.9 377.6 63.5 377.6M48.7,393.05L51.75 389.8L53.85 387.35L53.6 387.1L53.35 387.15L51.65 388.4Q50.5 389.2 50.1 389.8Q48.25 392 48.25 392.5L48.35 393.05L48.7 393.05M49.75,395L50 395.25L50.4 395.15L50.1 395.6L50.2 395.8L50.6 395.8L53.25 392.6L55.25 390.05L55.15 389.8Q54.5 389.9 53.6 390.7L52.1 392.15L50.5 393.9L49.75 395M110.4,317.3Q107.8 322.1 105.55 326.9L105.35 327.25L104.9 328.2L108.25 330.55L111.95 329.7L111.55 334L114.6 332.15L116.05 336.7L117.6 327.25L117.65 326.9L118.2 322.55Q120 308.2 118.1 307.4Q116.25 306.6 110.4 317.3M114.95,383.3Q115.2 383.65 115.7 383.85L116.8 384.3L117.8 384.85L119.6 385.35L120.75 385.25L120.85 384.7L120.45 384.1L115.2 383L114.95 383.3M119.9,386.55L117 385.9L115.7 385.5L113.45 385.25L113.2 385.5L113.3 385.8L116.1 387.15L118.95 388.2Q119.3 388.2 119.3 388L119.85 387.45L120.2 386.9L120.15 386.65L119.9 386.55M112.95,388.25Q112.95 388.55 113.7 388.85L115.15 389.6L117.05 390.3L118.7 390.75L119.15 390.3L119.45 389.75Q119.45 389.35 116.4 388.65L113.2 388L112.95 388.25M74.6,400.5L74.35 400.25L73.25 400.3L71.7 400.55L66.1 400.5L65.85 400.85L66.8 401.25L68.1 401.6L69.6 401.85L71.25 402L72.45 401.75Q72.75 401.5 73.8 401.1L74.6 400.5M61.25,398.15Q60.4 398 59.35 398.55L58.05 399.3Q57.4 399.55 56.7 400.2L56.15 400.65Q56 400.8 56 401.25L56.1 401.45L56.7 401.45L56.75 401.55L56.55 401.95L56.85 402.35Q61.35 399.3 61.35 398.45L61.25 398.15M92.1,506.95Q92.1 507.75 92.75 507.85L97 507.85L100.85 507.45L101.05 507.1L100.6 506.8L100.25 506.45L100.5 506.1L100.4 505.85L99.25 506L98.25 506.3Q97.8 506.3 97.55 506.55L94.8 506.8L92.1 506.95M92.15,521.15L90.8 520.85L90.75 521.15L90.85 521.4L92.25 522.15L95.25 522.7L95.35 522.8L102.1 522.85L102.2 522.75L102.7 522.7L102.85 522.4L102.75 522.15L102.4 522.15L102.6 522.05Q103.1 521.95 103.1 521.35L103 520.85L100 521.35L96.7 521.65L92.15 521.15" />
<path style="fill:#E66006;fill-opacity:1" d="M56.45,304.35Q58.75 303.75 64.35 316.25L68.85 326.9L68.95 327.25L69.55 328.9L65.45 328.5L65.05 332L62.2 331.35L61.35 334.85L58.3 333.2L55.2 335.85L54.7 327.25L54.7 326.9L54.45 320.45Q54.15 304.95 56.45 304.35M118.1,307.4Q120 308.2 118.2 322.55L117.65 326.9L117.6 327.25L116.05 336.7L114.6 332.15L111.55 334L111.95 329.7L108.25 330.55L104.9 328.2L105.35 327.25L105.55 326.9Q107.8 322.1 110.4 317.3Q116.25 306.6 118.1 307.4" />
<path style="fill:#FF6D6B;fill-opacity:1" d="M89.95,344.8L94.35 344.6Q97.35 344.75 99.7 345.95Q101.9 347.1 103.05 348.8Q103.8 350.05 104.05 351.6L104.15 352.85Q104.2 357.55 99.1 361.35Q93.2 365.7 85.2 365.1Q79.6 364.7 76.9 361.1L75.35 357.55Q76.35 355.3 78.15 352.85L79 351.7Q80.35 350.05 81.8 348.8Q83.5 347.3 85.3 346.35Q87.55 345.15 89.95 344.8" />
<path style="fill:#FF2E28;fill-opacity:1" d="M63.05,377.8L63.05 377.5L62.85 377.3Q61.7 379.05 61.7 380.9L61.45 384.5L61.55 387.1Q61.75 388.55 62.55 389.7L62.85 389.7L62.95 389.55Q62.7 387.65 63.2 384.2L63.7 381.45L64.35 378.7L64.2 378.1L64.2 378.05L65.3 378.55L66.4 378.9L67.7 379.25L69.55 386.9Q70 389.95 69.75 392Q69.35 395.2 67.3 395.85Q63.55 397.1 60.65 394.35Q58.25 392.1 57.05 387.9Q56.7 386.7 56.85 385.05L56.9 384.4L57 383.8L57.65 380.95L58.1 379.55L60.15 374.75Q61.8 376.6 63.5 377.65L63.05 377.8" />
<path style="fill:#FFFFFF;fill-opacity:1" d="M80,334.05L80.15 334.15L80.75 334.15Q81.35 334.2 81.5 334.4L81.7 334.4Q82.45 334.5 82.85 334.75L83.6 335.35L84.5 336.5Q85.05 337.3 85.25 338.85L85.4 342.35L85.55 343.5Q85.55 345.15 85.1 345.8L81.8 348.45L81.4 349L81.2 349L80.5 349.8L79.85 350.55L79.45 351.1L77.1 354L76.1 355.5L75.6 356.2L75.05 356.85L74.6 356.85L74.4 356.75L74.15 356.4L73.45 354.7L73.25 354.25L73.15 353.85L72.85 353L72.75 352.95L72.35 352.05L72 351.2L71.9 351.15L71.7 350.45L71.6 349.7L71.55 348.3L71.6 348.15L71.6 345.9L72 342.85Q72.05 341.65 72.2 341.35Q72.2 340.75 72.6 339.85L72.75 339.05L73.05 338.35L73.2 337.6L73.25 336.85Q73.55 335.85 74.5 335.35Q76 334.45 77.25 334.35L77.7 334.35L77.85 334.25L78.85 334.05L80 334.05M80.6,346.35Q81.75 346.35 82.3 345.45L82.65 344.25L82.2 342.55Q81.6 341.3 80.7 341.1Q79.75 341 79.25 342.1Q78.8 343 78.8 343.95L79 345.2Q79.4 346.35 80.6 346.35M85.3,346.35L85.7 344.3Q86.05 341.4 85.35 338.75Q86.15 337.25 87.55 336.2Q90.35 334.2 93.2 336.65Q96.1 339.1 95.5 342.1Q95.25 343.4 94.6 344.3L94.35 344.6L89.95 344.8Q87.55 345.15 85.3 346.35M90.95,342.1Q90.95 341.5 90.2 340.75Q89.35 339.85 88.55 340.65Q87.85 341.45 87.85 342.3Q87.85 343.8 89.7 344.1L90.55 343.2L90.95 342.1" />
<path style="fill:#582903;fill-opacity:1" d="M123.3,377.3L122.6 377.55L122 377.35Q117.5 377.15 115.7 375.7L115.6 375.5L115.85 375.25L118.1 375.25L123.1 376L123.35 376.25L123.2 376.5L122.6 376.55L123.55 376.85L123.75 376.9L123.85 377.1L123.7 377.35L123.45 377.35L123.3 377.3M120.15,381.1L119.05 380.8L118.05 380.45L117.95 380.15Q117.95 379.95 118.2 379.85L120.6 380.1L122.5 380.4L122.55 380.5L122.6 380.6L122.45 380.85L120.15 381.1M99.75,500.95L99.75 501L99.65 501.2L98.5 501.35L95.7 501.3L95.6 501.2L93 500.75L91.85 500.3L92.1 499.95L99 499.95L99.5 500.2L99.55 500.2L99.7 500.45L99.65 500.6L99.6 500.6L99.5 500.7L99.75 500.95M102.2,513.95L100.95 514.25L100.95 514.35L98.6 514.6L95.6 514.6L95.35 514.45L92.65 514.1Q91.75 513.95 91.75 513.3L92.05 513.2L92.75 513.4L93.9 513.55L96.9 513.3L98.9 513L101.35 512.7L101.6 512.9L102.1 512.95L102.3 513.2L102.35 513.45L102.35 513.55L102.2 513.95M101.2,531.55Q100.15 532.15 97.35 532.35L96.85 532.35L94.65 531.85L92 531.1L90.6 530.2L89.9 529.8L89.85 529.35Q89.85 529.05 90.15 528.9Q90.95 529.7 92.8 530.15L97.25 531.05L100.05 531.05Q100.75 530.6 101.6 530.45L102.65 530L102.85 529.85L103.1 530.1L102.4 530.9L101.2 531.55M46.7,388.55L47.05 387.75L47.65 386.95L48.45 386.15L50.5 384.6L52.85 383.35L53.1 383.6Q53.1 384.15 49.85 386.8L46.85 389.75L46.6 389.7L46.5 389.35L46.6 389L46.7 388.55M47.15,380.35Q49.05 378.8 50.75 378.65L50.85 378.85L47.7 381.25L45.1 383.6L44.9 383.6L44.7 383.55L44.6 383.35L44.8 383.15L44.8 383.1L44.35 382.9L44.35 382.65L44.6 382.35Q45.15 381.8 47.15 380.35M44,380.1L43.6 380.35L43.2 380.3L43.1 380.1L43.5 379.25L43.6 379.05L43.7 379L43.8 378.95Q43.9 378.8 44.1 378.8Q43.85 378.65 43.85 378.35Q45.5 376.9 47.85 375.75L51.5 374L51.85 374L52.1 374.25L47.9 377.3L44 380.1M79,345.2L78.8 343.95Q78.8 343 79.25 342.1Q79.75 341 80.7 341.1Q81.6 341.3 82.2 342.55L82.65 344.25L82.3 345.45Q81.75 346.35 80.6 346.35Q79.4 346.35 79 345.2M64.2,378.05L64.2 378.1L64.35 378.7L63.7 381.45L63.2 384.2Q62.7 387.65 62.95 389.55L62.85 389.7L62.55 389.7Q61.75 388.55 61.55 387.1L61.45 384.5L61.7 380.9Q61.7 379.05 62.85 377.3L63.05 377.5L63.05 377.8L63.5 377.65L63.5 377.6Q63.9 377.6 64.2 378.05M48.35,393.05L48.25 392.5Q48.25 392 50.1 389.8Q50.5 389.2 51.65 388.4L53.35 387.15L53.6 387.1L53.85 387.35L51.75 389.8L48.7 393.05L48.35 393.05M50.5,393.9L52.1 392.15L53.6 390.7Q54.5 389.9 55.15 389.8L55.25 390.05L53.25 392.6L50.6 395.8L50.2 395.8L50.1 395.6L50.4 395.15L50 395.25L49.75 395L50.5 393.9M90.55,343.2L89.7 344.1Q87.85 343.8 87.85 342.3Q87.85 341.45 88.55 340.65Q89.35 339.85 90.2 340.75Q90.95 341.5 90.95 342.1L90.55 343.2M115.2,383L120.45 384.1L120.85 384.7L120.75 385.25L119.6 385.35L117.8 384.85L116.8 384.3L115.7 383.85Q115.2 383.65 114.95 383.3L115.2 383M120.15,386.65L120.2 386.9L119.85 387.45L119.3 388Q119.3 388.2 118.95 388.2L116.1 387.15L113.3 385.8L113.2 385.5L113.45 385.25L115.7 385.5L117 385.9L119.9 386.55L120.15 386.65M113.2,388L116.4 388.65Q119.45 389.35 119.45 389.75L119.15 390.3L118.7 390.75L117.05 390.3L115.15 389.6L113.7 388.85Q112.95 388.55 112.95 388.25L113.2 388M73.8,401.1Q72.75 401.5 72.45 401.75L71.25 402L69.6 401.85L68.1 401.6L66.8 401.25L65.85 400.85L66.1 400.5L71.7 400.55L73.25 400.3L74.35 400.25L74.6 400.5L73.8 401.1M61.35,398.45Q61.35 399.3 56.85 402.35L56.55 401.95L56.75 401.55L56.7 401.45L56.1 401.45L56 401.25Q56 400.8 56.15 400.65L56.7 400.2Q57.4 399.55 58.05 399.3L59.35 398.55Q60.4 398 61.25 398.15L61.35 398.45M94.8,506.8L97.55 506.55Q97.8 506.3 98.25 506.3L99.25 506L100.4 505.85L100.5 506.1L100.25 506.45L100.6 506.8L101.05 507.1L100.85 507.45L97 507.85L92.75 507.85Q92.1 507.75 92.1 506.95L94.8 506.8M96.7,521.65L100 521.35L103 520.85L103.1 521.35Q103.1 521.95 102.6 522.05L102.4 522.15L102.75 522.15L102.85 522.4L102.7 522.7L102.2 522.75L102.1 522.85L95.35 522.8L95.25 522.7L92.25 522.15L90.85 521.4L90.75 521.15L90.8 520.85L92.15 521.15L96.7 521.65" />
<path style="fill:#000000;fill-opacity:0.2" d="M62.25,305.3L60.55 303L59.05 301.4L60.05 302.05L60.4 302.3Q62.3 304.7 64.65 308.65L64.05 307.7L62.25 305.3M67.1,318.8L68.9 322.1L70.65 326L70.65 326.15L70.4 328.05Q70.15 328.85 69.75 329.1L66.3 329.3Q65 329.95 65 330.95L65 332.55L64.65 332.55L63.2 332.1Q62 332.1 61.95 333.05L61.65 335.3Q61.1 335.35 60.25 334.5Q59.35 333.6 58.65 333.6Q58.15 333.6 56.7 334.9L55.2 336.3L55.1 336.2L54.95 335.05L54.6 334L54.4 332.85L54.65 332.75L54.65 331.8L54.35 329.3L54.5 328.2Q54.55 327.65 54.2 326.6L54.15 316.65L54.8 322.05L54.8 328.35L55.1 329.75Q55.3 330.55 55.95 330.9L57.3 330.9L59.25 329.35Q60.25 328.35 60.3 327.65L60.75 328.05Q61.3 328.05 61.9 326.4L62.4 323.9L62.5 324.45Q62.6 324.75 63.1 324.75L63.35 324.45L63.5 323.85Q63.5 322.1 61.6 316.95L59.25 311.1Q58.35 309.3 57.15 307.8Q56.15 307.15 55.05 308.6Q54.85 309.1 54.8 310.2Q54.25 312.2 54.15 315.45L54.15 314.45L54.65 309.05Q54.35 308.3 54.35 307.95Q54.35 306.85 54.85 305.15Q55.65 302.55 57.15 302.55Q58.55 302.55 59.95 304.4L62.55 308.7Q63.95 311.25 65.55 315.45L67.1 318.8M53.15,306L52.75 310.4L52.5 315.4L52.65 315.45L52.65 316.05L52.65 316.7L52.5 318L52.8 320.7L53.1 325.85L53.3 331.1L53.75 334.25L54.15 335.75L54.15 335.95L54.45 336.75L54.3 338.15L54.4 340.05Q54.65 341.2 55.8 341.6L54.1 343.25Q52.95 344.4 52.95 345Q52.95 345.55 54.25 346.9L55.55 348.5L54.55 350.4Q53.55 352.15 53.55 352.6Q53.55 353.05 54 353.7L54.45 354.95Q54.45 355.75 53.4 357.3L52.85 358.45L52.25 359.85L52.7 360.9L53.25 361.85L53.5 363.05Q53.65 363.75 54 363.9L54.05 363.95L54.15 364.05L54.5 364.1Q55.8 364.1 57.1 360.55Q58.2 357.55 59.45 356.25L59.7 356.4L60.15 356.3L60.2 356.6L59.5 362.15L59.3 363.8L58.7 369.05L58.9 371.1L59.25 372.95Q59.55 373.95 60.4 375.3Q61.45 376.85 62.15 376.85Q62.55 376.85 62.55 376.65L62.55 376.35Q61.55 375.5 60.9 374.5L62.25 375.9Q63.4 377.05 68.45 378.2L84.3 379.95L89.55 379.95L89.6 379.8Q95.1 378.85 102.8 375.75L108.55 373.75L116.1 371.15L116.1 371.25Q114.05 374.8 107.35 378Q101.95 380.6 94.35 382.55L86.25 384.6L79.2 385.5L78.1 385.75L78 385.7L77.55 385.7L73.15 386.3L69.9 386.55L69.9 388.15L69.8 389.6L69.7 391.9L69.45 393Q69.3 393.95 68.25 395.25L68.25 395.3L67.05 395.85L66.35 396.05Q64.85 396.45 64.85 396.85Q64.85 397.8 67.1 399.15L69.9 400.7L73.2 402.45L75.9 403.05L81.8 403.55Q91.35 403.55 103.95 397.95Q113.55 393.7 118.25 388.85L121 385.75L118.6 392.6L118.55 392.8L119.1 395.9Q118.95 395.55 118.4 396.3L117.85 397.2L117.4 397.85L116.75 398.85L115.25 400.75L113.45 402.45L108.2 406.15L102.45 409.35Q96.75 411.95 87.55 414.6Q76.3 417.85 69 418.25L60.65 418.35L60.6 418.4L60.35 418.2Q57.2 424 55.2 432.5Q53.25 440.75 53.25 447.65Q53.25 452.15 54.4 455.65Q55.65 459.3 58.85 464.1Q62 468.55 66.45 472.2Q69.4 474.65 75.7 476.5Q82.05 478.4 87 478.2L91.8 478.2L92.3 478.05L96.95 478.05Q114.05 477.45 124.95 468Q134.3 459.95 136.55 447.2Q137.4 451.6 137.15 456.55Q136.3 474.7 124.85 484.95Q120 489.3 115.3 491.05L115.35 491.1L113.55 491.2Q112.5 491.45 112.5 492.05Q112.5 492.85 116.2 496.9Q119.85 500.9 119.85 503Q119.85 505.85 115.2 508.95L113.15 510.35Q112.1 511.3 112.35 512L112.2 515.15Q112.2 517.6 113.4 520.05Q115 523.4 117.9 523.4Q119.15 523.4 119.4 522.85L119.45 521.95L119.4 521.1L118.7 519.95L119 519.9Q119.8 520.35 120.3 521.1L120.75 522.35Q121 524.7 123.2 524.7Q124.5 524.7 125.05 523.95Q125.65 523.1 125.6 520.95L125.95 521.25L127.15 521.55Q128.75 521.55 129.25 519.15Q129.7 520.6 129.65 522.15Q129.6 524.4 126.7 525.8L123.8 526.75Q123.05 527.85 122.05 528.25Q120.25 529 118.65 527.6L117.4 526.05Q115.75 527.3 113.85 526.85Q111.8 526.35 108.75 520.85Q107.25 518.1 106.5 516Q105.75 513.8 105.85 512.25Q105.85 511.75 106.5 511.05Q107.6 509.75 110.65 507.95Q113.95 505.95 115.2 504.5L115.9 503.3Q116.4 501.2 112.2 497.3L108 493.85L98.25 495.55L98.85 497.7L95.1 498.2Q93.65 498.35 93.65 499.4L93.85 501.1L94.05 503.35Q94.05 506.2 92.85 515.1L91.9 520.55Q91.05 525.45 91.05 527Q91.05 528.5 92.25 530.6Q94.05 533.85 97.35 533.85Q99.95 533.85 101.85 532.65Q100.55 535.8 98.05 537Q93.6 539.2 89.1 536.7Q85.4 534.6 84.5 531.9Q83.85 529.95 84.75 526.05L87.1 517.7Q90.7 504.85 89.4 495.8L79.55 494.8L79.5 494.75L79.15 494.4L77.7 494.25L76.5 493.95L75.3 493.85L74.55 493.95Q73.4 493.8 71.45 495.4L68.25 498.5L65.85 501.05Q64.95 502.25 64.95 503.45Q64.95 505.05 66.25 506.75Q67.25 508 69.6 509.9Q72.35 512.1 73.05 513.4Q73.65 514.45 73.65 516.5Q73.65 518.65 71.5 520.65Q69.3 522.6 69.3 524.3Q69.3 525.85 71 527.7Q69.9 527.55 68.9 526.8L67.65 528.35Q66.05 529.75 64.25 529Q63.25 528.6 62.5 527.5L59.6 526.55Q56.7 525.15 56.65 522.9Q56.6 520.45 57.75 518.2Q58.65 516.3 59.6 515.85Q61.15 515.1 64.05 514.3L66.7 513.65L64.25 510.6Q61.95 507.45 61.5 505.25L61.35 504.5Q61.15 502.15 66.25 496.55L71.4 491.4Q55.5 486.6 47.1 471.55Q39.05 457.1 43.95 444.9Q46.75 437.95 48.7 430.5Q51.8 418.85 51.75 409.65L51.1 410L51.2 409.2Q51.2 408.35 50 407.8Q48.3 407 45.45 408.05Q45 408.2 43.5 408.95L41.25 410.1Q37.05 412.55 33.15 415.8Q30.1 418.45 27.7 421.85Q26.55 423.45 23.9 427.95Q20.75 433.4 18.95 439.85Q17.25 446.2 17.25 452.05L17.3 452.85L17.25 452.85L17.3 453Q17.35 453.75 17.55 454.2L17.7 455.2Q17.45 455.25 17.45 455.4L17.7 456.75L18.15 458.1L18.5 460.85L19.65 466.25L20.15 469.05Q20.4 470.7 20.85 471.75L21.4 473.1L22.35 474.45L23.75 475.85Q25.05 476.9 25.85 476.9Q27.05 476.9 27.3 475.4Q27.45 477.15 26.55 478.05Q23.7 480.9 20.15 477Q17.8 481.1 15.9 481.75Q14.55 482.2 12.85 481.3Q11.35 480.5 9.95 478.9Q9.6 478.5 9.55 477.85Q8.65 477.75 7.5 477.15Q5.2 475.95 4.05 473.35Q2.5 469.85 7 465.1L11.8 461.05Q11.85 455.45 12.4 450.4Q16.65 410.55 51.35 402.5L51.55 397.8L49.7 395.55L48.7 394Q47.75 392.25 46.85 389.75L46.6 389.7L46.5 389.35L46.6 389L45.35 385.05L45.15 384.4L45 383.8L44.9 383.6L44.7 383.55L44.6 383.35L44.8 383.15L44.8 383.1L44.35 382.9L44.35 382.65L44.6 382.35L44 380.1L43.6 380.35L43.2 380.3L43.1 380.1L43.5 379.25L43.6 379.05L43.7 379L41.7 370.05L37.65 370.45L43.35 359L35.6 360.8L43.75 351.2L36.6 349.55L47.05 344.45L40.9 340.55L51.2 339.15Q50.7 333.2 50.5 327.25L50.5 326.9L50.35 319.15Q50.3 299 54.6 298.35Q56.3 298.1 58.6 300.3Q56.55 299.6 54.9 301.2Q53.95 302.15 53.55 303.55L53.15 306M64.55,343.5L68 341.55L70.4 339.4L72.45 337.2L73 336.95L73.5 336.5Q73.85 335.8 74.55 335.45L75.2 335.2Q74.1 336.2 73.7 337.5Q73.4 338.4 73.4 340.65Q73.4 342.85 73.75 344.1Q74.65 347.1 77.4 347.1Q81.85 347.1 83.6 343.5Q85.05 340.7 85.05 338.8L84.75 337.2L84.45 336.4Q84.95 337.2 85.3 337.2Q86.15 337.2 87.7 336Q89.25 334.8 90.6 334.8Q92.35 334.8 94.1 336.85Q95.85 338.95 95.85 341.25L95.4 342.85Q94.95 343.6 94.95 343.95Q94.95 344.4 95.3 344.55Q100.4 344.4 102.95 348.25Q104.6 350.8 104.6 353.4Q104.6 356.15 101.55 364.65Q100.25 367.3 96.6 369.8Q91 373.65 83.25 373.65Q81.7 373.65 79.1 371.75Q76.15 369.6 75.45 367.1Q74.85 364.45 74.85 363.35L74.6 361.55L74.3 359.7Q74.25 358.15 73.2 355.9L71.3 352.2Q70.25 350.15 67.9 348.35Q64.95 346.1 61.35 345.75Q61.9 345 64.55 343.5M79.05,356.7Q80.6 358.2 86.45 358.2Q90.5 358.2 95.35 356.75Q102.9 354.45 102.9 350Q102.9 348.25 101.4 346.85Q98.95 344.55 93.3 344.7Q88.25 345.2 85.1 346.2Q82.6 347.05 81.2 348.75Q79.2 351.25 78.9 351.9Q78.5 352.65 78.5 354.55Q78.5 356.2 79.05 356.7M59.85,382.35L59.6 384.1L59.4 385.95L59.65 387.7Q60.05 389.4 60.65 389.4Q61.8 389.4 62.15 387.35L62.25 385.05L62.1 382.6Q61.9 380.1 61.35 380.1L60.75 379.85Q60.2 379.8 60.3 380.6L59.85 382.35M65.45,381.3L65.1 386.35L65.4 390.3Q65.5 391.35 65.75 392.15L66.15 393.15L66.75 393.6L67.4 393.75L67.85 393.9Q69.2 393.9 69.2 389.1L68.85 385.05Q68.3 381 67.2 381Q66.8 381.25 66.35 381.45L66.05 381.3L65.75 381.15L65.45 381.25L65.45 381.3M120.45,303Q118.7 303 115.65 306.05L113.25 309.35L109.35 315.9L105.6 322.55L103.85 325.85L102.6 327.6L101.4 328.95L100.85 328.95L100.8 328.6Q100.8 328.1 103.5 322.5Q106.25 316.85 107.45 315L112.05 308.15L112.4 307.4L112.8 306.45L114.15 304.7Q116.7 302 118.8 301.65L119.25 301.65L119.55 301.95Q120.4 301.8 120.85 302.3L121.2 303L120.9 303.05L120.45 303M116.05,307.2Q117.05 306.2 117.9 305.9L119.4 305.9L120.4 307.05L121.2 308.15L121.05 309.2L120.9 310.5L120.75 312.9L120.85 318.4Q120.8 321 120.2 324.3L119.7 330L119.05 332.8L118.85 334L117.85 335.85Q117.15 337 115.65 337.35Q115.4 336.85 114.9 334.6Q114.5 332.85 114 332.85Q113.5 332.85 112.55 333.8L111.5 334.8L111.4 331.85Q111.45 330.05 110.85 330.05L108 331.2L106.15 329.6L104.4 328.25L104.75 327.55L105 326.15L106.55 323.25L109.95 317.4Q111.9 313.25 112.95 311.55Q114.2 309.3 114.8 308.6L116.05 307.2M116.95,310.85Q116.55 309.9 115.8 310.05Q115.05 310.25 113.25 312.05Q112.35 312.9 111.8 314.35L110.85 316.85L108.25 321.8Q106.1 325.9 106.1 326.55Q106.1 327.2 106.7 327.45L107.85 327.45L109.05 326.85Q109.9 326.45 110.1 326.4L110.15 326.8L110.65 326.9L111.8 326.15L112.5 325.2L112.55 325.9Q112.65 326.4 113.15 326.4Q114.25 326.4 115.8 320Q117.15 314.2 117.15 312.1L116.95 310.85M87.2,338.25Q87.2 339.35 88.3 340.55Q89.55 341.9 91.15 341.9Q92.6 341.9 93.3 340.8Q93.8 340.05 93.8 339.15Q93.8 338.4 93.05 337.3Q92.1 336 90.9 335.7Q87.2 335 87.2 338.25M163.4,468.9Q164.65 469.65 165.6 471.05L166.35 472.2Q167.3 473.25 168.95 473.25Q170.35 473.25 171.1 472L170.7 473.35Q169.55 475.95 167.25 477.15L165.2 477.85L164.8 478.9Q163.4 480.5 161.9 481.3Q160.2 482.2 158.85 481.75Q156.95 481.1 154.6 477Q151.05 480.9 148.2 478.05Q146.35 476.25 149.05 470.9Q151.85 465.45 151.65 465.15Q151.4 464.8 149.75 465.65L146.35 467.55Q141.45 469.8 140.6 465.75Q139.7 461.5 145.2 459.35L150.85 458L150.5 450.4L150.1 446.25Q148.45 433.05 144.1 425.85Q139.7 418.65 130.9 413.4L122.8 410.8L122.75 410.7L121.75 408.4L124.55 408L126.8 408.65L129.8 409.65L134.15 411.9Q139.55 414.95 141.8 417.05L146.2 421.8Q149.35 425.6 150.6 428.25L153.15 433.85Q154.4 437 154.95 439.5L156.3 444.95L156.65 447.8L157.05 449.75L157 450.2L157.05 451.85L157 453.55L156.9 455.1Q156.45 459.15 155.75 461.55L155.4 463.25L155 464.75Q155.1 465.45 154.55 466.45L153.65 468L152.15 471.35Q151.4 473.2 151.4 474.6L151.5 475.6Q151.8 476.6 153.05 476.6Q154.2 476.6 154.9 475.5Q155.5 474.6 155.9 472.65L156.75 468.35L157.85 468.3Q158.55 468.5 158.95 469.95L159.3 472.05L159.1 473.65L158.9 475.2Q158.9 476.25 159.5 477.25Q160.35 478.55 162 478.8L162.9 478.8Q164.1 478 164.1 475.35Q164.1 473.65 163.6 471.85Q163.1 470 163.1 469.25L163.2 468.95L163.4 468.9M148.7,458.85L145.4 459.75Q142.1 460.85 142.1 462.05L142.55 462.7Q143.25 463.2 144.6 463.2Q146.85 463.2 148.7 461.65Q150.2 460.45 150.2 459.75Q150.2 458.85 148.7 458.85M22.75,462.55Q23.25 461.75 24.45 461.75Q25.65 461.75 28.35 463.7L29.65 464.95L29.8 465.15Q30.85 466.2 32.85 466.65Q33.65 466.45 34.15 465.9Q33.2 469.75 28.4 467.55L25 465.65Q23.4 464.8 23.1 465.15Q22.55 463.9 22.55 463.45L22.75 462.55M15.9,467.85Q15 468.5 14.45 469.8Q13.4 472.55 13.4 474.15Q13.4 477.8 16.65 479.9L17.25 479.9L18.5 478.8L18.6 477.8Q18.6 476.65 17.65 473.25Q16.8 470.1 17 469.1Q17 467.05 15.9 467.85M8.7,468.7Q6.05 470.9 6.05 473.55Q6.05 474.5 6.2 474.85Q6.5 475.65 7.7 475.85Q8.8 475.25 9.4 474L10.2 472.1L11.3 468.25Q11.3 466.5 8.7 468.7M58.65,523.35L58.75 524.4Q58.95 525.45 59.75 525.45Q60.9 525.45 60.9 521.55L60.75 520.8L60.85 520.4L61.05 519.9L60.95 519.65Q60.05 519.65 59.3 521.35Q58.65 522.7 58.65 523.35M63.75,525.55Q63.6 525.85 63.6 526.2Q63.6 526.85 63.95 527.7Q64.5 528.9 65.45 528.9Q66.8 528.9 66.8 526.85Q66.45 524.25 65.1 523.95Q64.25 523.75 64.05 524.7L63.75 525.55M64.7,527.55L64.4 526.95L64.4 526.85L64.8 527.55L64.7 527.55" />
<path style="fill:#FFFFFF;fill-opacity:0.4" d="M94.7,344.8Q98.3 345.25 100.45 346.7Q102.4 348.05 102.4 349.7Q102.4 351.2 101.2 351.9L96.15 353.4L92.35 353.4Q88.5 353.25 85.85 352Q83.55 350.9 83.55 349.75Q83.55 348.3 86 346.85Q88.55 345.35 92.05 344.8L94.7 344.8" />
<path style="fill:none;stroke-width:2;stroke-linecap:round;stroke-linejoin:miter;stroke-miterlimit:3;stroke:#AE4200;stroke-opacity:1" d="M56.45,304.35Q58.75 303.75 64.35 316.25L68.85 326.9L68.95 327.25L69.55 328.9L65.45 328.5L65.05 332L62.2 331.35L61.35 334.85L58.3 333.2L55.2 335.85L54.7 327.25L54.7 326.9L54.45 320.45Q54.15 304.95 56.45 304.35M118.1,307.4Q120 308.2 118.2 322.55L117.65 326.9L117.6 327.25L116.05 336.7L114.6 332.15L111.55 334L111.95 329.7L108.25 330.55L104.9 328.2L105.35 327.25L105.55 326.9Q107.8 322.1 110.4 317.3Q116.25 306.6 118.1 307.4" />
<path style="fill:none;stroke-width:3;stroke-linecap:butt;stroke-linejoin:miter;stroke-miterlimit:3;stroke:#AE4200;stroke-opacity:1" d="M130.9,413.4L121.8 410.45L121.7 416.9Q121.95 423.95 123.85 426.65L127.35 430.5Q130.25 433.5 132 436.1Q137.7 444.6 137.15 456.55Q136.3 474.7 124.85 484.95Q120 489.3 115.3 491.05M47.1,471.55Q39.05 457.1 43.95 444.9Q46.75 437.95 48.7 430.5Q51.8 418.85 51.75 409.65L43.85 413.4Q35.05 418.65 30.65 425.85Q26.3 433.05 24.65 446.25L24.25 450.4Q23.85 454.55 23.9 458L29.55 459.35Q35.05 461.5 34.15 465.75Q33.3 469.8 28.4 467.55L25 465.65Q23.35 464.8 23.1 465.15Q22.9 465.45 25.7 470.9Q28.4 476.25 26.55 478.05Q23.7 480.9 20.15 477" />
<path style="fill:none;stroke-width:3;stroke-linecap:round;stroke-linejoin:miter;stroke-miterlimit:3;stroke:#AE4200;stroke-opacity:1" d="M51.55,397.8L49.7 395.55L48.7 394Q47 390.85 45.35 385.05L45.15 384.4L45 383.8L43.75 379.25L41.7 370.05L37.65 370.45L43.35 359L35.6 360.8L43.75 351.2L36.6 349.55L47.05 344.45L40.9 340.55L51.2 339.15Q50.7 333.2 50.5 327.25L50.5 326.9L50.35 319.15Q50.3 299 54.6 298.35M165.2,477.85Q165.5 475.9 164.25 471.65L162.95 467.8M115.3,491.05L114.9 490.65M154.6,477L155.95 475.2Q156.85 473.85 157.1 470.5L157.2 467.4M20.15,477L18.8 475.2Q17.9 473.85 17.65 470.5L17.55 467.4M68.9,526.8Q67.4 525.65 66.7 523.7Q66.15 522.2 67.8 520.05L69.55 518.15M123.8,526.75Q124.7 525.35 124.9 523.2Q125.1 521.3 124.7 519.9Q124.3 518.55 122.55 517.95L120.85 517.6" />
<path style="fill:none;stroke-width:2;stroke-linecap:round;stroke-linejoin:miter;stroke-miterlimit:3;stroke:#582903;stroke-opacity:1" d="M67.7,379.25L78.55 380.1L81.25 380.05Q91 379.65 102.85 375.9Q108.1 374.25 111.6 372.55Q117.5 369.7 118.3 366.8Q118.5 366.1 115.35 365.55L112.15 365.15" />
<path style="fill:none;stroke-width:2;stroke-linecap:round;stroke-linejoin:miter;stroke-miterlimit:3;stroke:#AE4200;stroke-opacity:1" d="M94.35,344.6L94.35 344.85" />
<path style="fill:none;stroke-width:3;stroke-linecap:round;stroke-linejoin:miter;stroke-miterlimit:3;stroke:#AE4200;stroke-opacity:1" d="M54.6,298.35Q58.9 297.75 66.8 312.55Q70.6 319.7 73.65 326.9L73.8 327.25L73.85 327.45L74.2 327.25L74.8 326.9L77.25 325.5Q80.95 323.5 82.7 323.35Q84.25 323.25 85.9 324.85Q87.65 326.5 88.6 326.6Q89.8 326.7 92.75 325.8L96.4 324.8Q97.9 324.8 100.35 326.9L100.5 327.05L100.6 326.9Q104 319.9 108.2 313.05Q116.65 299.3 120.55 300.6Q124.45 301.9 123.2 320.3L122.7 326.9L122.65 327.25L121.2 338.5L128.75 342.8L120.15 346.7L131.4 352L122.8 354.25L127.95 356.3L123.25 361.25L126.7 364.3L123.75 376.15L121.6 383.8L121.4 384.4L121.2 385.05L118.6 392.6L118.55 392.8M144.1,425.85Q139.7 418.65 130.9 413.4M71.4,491.4Q55.5 486.6 47.1 471.55M11.8,467.8L10.5 471.65Q9.25 475.9 9.55 477.85M65.45,518.35L63.75 518.7Q62 519.3 61.6 520.65Q61.2 522.05 61.4 523.95Q61.6 526.1 62.5 527.5M116.75,517.4L118.5 519.3Q120.15 521.45 119.6 522.95Q118.9 524.9 117.4 526.05" />
<path style="fill:none;stroke-width:3;stroke-linecap:round;stroke-linejoin:miter;stroke-miterlimit:3;stroke:#AE4200;stroke-opacity:1" d="M20.15,477Q17.8 481.1 15.9 481.75Q14.55 482.2 12.85 481.3Q11.35 480.5 9.95 478.9Q9.6 478.5 9.55 477.85Q8.65 477.75 7.5 477.15Q5.2 475.95 4.05 473.35Q2.5 469.85 7 465.1L11.8 461.05Q11.85 455.45 12.4 450.4Q16.65 410.55 51.35 402.5L51.55 397.8L51.75 398Q54.05 400.35 57.55 402.85L61.85 405.7Q69.65 410.45 74.1 411.4L82.6 410.75Q89.25 409.6 96.25 407.4Q114.6 401.75 117.5 395.25L118.5 392.85L118.55 392.8L120.3 402.1Q158.1 410.55 162.35 450.4Q162.9 455.45 162.95 461.05L167.75 465.1Q172.25 469.85 170.7 473.35Q169.55 475.95 167.25 477.15L165.2 477.85L164.8 478.9Q163.4 480.5 161.9 481.3Q160.2 482.2 158.85 481.75Q156.95 481.1 154.6 477M115.3,491.05L120.05 495.8Q125.15 501.4 124.95 503.75L124.8 504.5Q124.35 506.7 122.05 509.85L119.6 512.9L122.25 513.55Q125.15 514.35 126.7 515.1Q127.65 515.55 128.55 517.45Q129.7 519.7 129.65 522.15Q129.6 524.4 126.7 525.8L123.8 526.75Q123.05 527.85 122.05 528.25Q120.25 529 118.65 527.6L117.4 526.05Q115.75 527.3 113.85 526.85Q111.8 526.35 108.75 520.85Q107.25 518.1 106.5 516Q105.75 513.8 105.85 512.25Q105.85 511.75 106.5 511.05Q107.6 509.75 110.65 507.95Q113.95 505.95 115.2 504.5L115.9 503.3Q116.4 501.2 112.2 497.3L108 493.85L98.25 495.55L99.8 501.25Q101.55 508.15 102.45 514.2Q105.2 533.5 98.05 537Q93.6 539.2 89.1 536.7Q85.4 534.6 84.5 531.9Q83.85 529.95 84.75 526.05L87.1 517.7Q90.7 504.85 89.4 495.8L78.35 494.6L74.1 498.05Q69.9 501.95 70.4 504.05L71.1 505.25Q72.35 506.7 75.65 508.7Q78.7 510.5 79.8 511.8Q80.45 512.5 80.45 513Q80.55 514.55 79.8 516.75L77.55 521.6Q74.5 527.1 72.45 527.6Q70.55 528.05 68.9 526.8L67.65 528.35Q66.05 529.75 64.25 529Q63.25 528.6 62.5 527.5M98.25,495.55L89.4 495.8" />
<path style="fill:none;stroke-width:2;stroke-linecap:round;stroke-linejoin:miter;stroke-miterlimit:3;stroke:#582903;stroke-opacity:1" d="M71.55,351.7L71.25 348.8L71.15 346.2L71.2 344.3Q71.45 339.6 73.15 337.05Q75.2 333.95 79.1 333.9Q82.8 333.85 84.4 336.45L85.35 338.75Q86.15 337.25 87.55 336.2Q90.35 334.2 93.2 336.65Q96.1 339.1 95.5 342.1Q95.25 343.4 94.6 344.3L94.35 344.6M85.3,346.35L85.7 344.3Q86.05 341.4 85.35 338.75M60.15,374.75Q62.75 377.6 65.3 378.55L66.4 378.9L67.7 379.25M60.15,374.75L58.1 379.55L57.65 380.95L57 383.8L56.9 384.4L56.85 385.05Q56.7 386.7 57.05 387.9Q58.25 392.1 60.65 394.35Q63.55 397.1 67.3 395.85Q69.35 395.2 69.75 392Q70 389.95 69.55 386.9L67.7 379.25" />
<path style="fill:none;stroke-width:2;stroke-linecap:round;stroke-linejoin:miter;stroke-miterlimit:3;stroke:#993127;stroke-opacity:1" d="M94.35,344.6Q97.35 344.75 99.7 345.95Q101.9 347.1 103.05 348.8Q103.8 350.05 104.05 351.6L104.15 352.85Q104.2 357.55 99.1 361.35Q93.2 365.7 85.2 365.1Q79.6 364.7 76.9 361.1L75.35 357.55Q76.35 355.3 78.15 352.85L79 351.7Q80.35 350.05 81.8 348.8Q83.5 347.3 85.3 346.35Q87.55 345.15 89.95 344.8L94.35 344.6z" />
<path style="fill:none;stroke-width:2;stroke-linecap:round;stroke-linejoin:miter;stroke-miterlimit:3;stroke:#582903;stroke-opacity:1" d="M60.75,345.9Q65.7 345.85 69.05 348.8Q70.45 350 71.55 351.7M75.3,362.5Q74.35 356.65 72.25 352.85L71.55 351.7M61.15,354.5L59.6 363.45Q58.8 369.6 59.3 372.55Q59.55 374.1 60.15 374.75" />
<path style="fill:none;stroke-width:3;stroke-linecap:butt;stroke-linejoin:miter;stroke-miterlimit:3;stroke:#AE4200;stroke-opacity:1" d="M154.6,477Q151.05 480.9 148.2 478.05Q146.35 476.25 149.05 470.9Q151.85 465.45 151.65 465.15Q151.4 464.8 149.75 465.65L146.35 467.55Q141.45 469.8 140.6 465.75Q139.7 461.5 145.2 459.35L150.85 458L150.5 450.4L150.1 446.25Q148.45 433.05 144.1 425.85M62.5,527.5L59.6 526.55Q56.7 525.15 56.65 522.9Q56.6 520.45 57.75 518.2Q58.65 516.3 59.6 515.85Q61.15 515.1 64.05 514.3L66.7 513.65L64.25 510.6Q61.95 507.45 61.5 505.25L61.35 504.5Q61.15 502.15 66.25 496.55L71.4 491.4" />
<path style="fill:#582903;fill-opacity:1" d="M74.05,329.5L71.85 330.75L71.6 330.7L71.55 330.3Q71.55 329.7 72.8 327.95Q73.6 326.35 75.35 324.4Q76.25 323.3 78.25 322.2L80.3 321.2Q81.6 320.75 82.3 320.65L82.45 320.7L82.5 320.85L82.25 321.3L82 321.7L82 321.8L84.55 321.25L84.65 321.45L83.85 322.1L86.3 322.95L87.15 323.35L87.65 323.9L87.55 324.1Q84.25 324.75 82.05 325.65L78.15 327.3L76.6 328.05L74.85 328.95L74.05 329.5M100.1,325.15Q101.5 326.7 102.1 328Q103.1 329.4 103.1 329.85L103.1 330.2L102.9 330.2L101.15 329.2Q100.75 329.1 100.5 328.8L99.1 328.05L97.85 327.45L94.75 326.15Q93 325.45 90.35 324.9L90.3 324.75L90.7 324.3L91.35 324L93.3 323.3Q92.7 322.95 92.7 322.8L92.75 322.65L94.8 323.1L94.8 323L94.6 322.7L94.4 322.35L94.45 322.2L94.55 322.15L96.15 322.6Q97.2 323 97.8 323.4Q99.35 324.3 100.1 325.15" />
</g>
</svg>
