<?xml version="1.0" encoding="utf-8"?>
<svg version="1.1" id="Layer_1"
xmlns="http://www.w3.org/2000/svg"
xmlns:xlink="http://www.w3.org/1999/xlink"
xmlns:author="http://www.sothink.com"
width="118px" height="48px"
xml:space="preserve">
<g id="217" transform="matrix(1, 0, 0, 1, 58.8, 23.55)">
<path style="fill:#A16000;fill-opacity:1" d="M-57.7,-18.55L-57.8 -17.5L-57.8 5.45L-57.8 17.5Q-57.8 22.55 -52.75 22.55L52.8 22.55Q56.6 22.55 57.55 19.7L57.65 19.35L57.85 17.5L57.85 -17.5Q57.85 -22.55 52.8 -22.55L-52.75 -22.55Q-57.25 -22.55 -57.7 -18.55M58.85,-17.5L58.85 17.5L58.65 19.45L58.15 20.95Q56.8 23.55 52.8 23.55L-52.75 23.55Q-58.8 23.55 -58.8 17.5L-58.8 -17.5L-58.7 -18.95Q-58 -23.55 -52.75 -23.55L52.8 -23.55Q58.85 -23.55 58.85 -17.5" />
<path style="fill:#FAA72B;fill-opacity:1" d="M4.45,-4.95Q4.05 -5.4 3.35 -5.4Q2.8 -5.4 2.15 -5.05Q1.5 -4.7 0.9 -4.7Q-0.4 -4.7 -0.4 -5.8L-0.35 -7.4Q-1.2 -9.15 -1.95 -8Q-2.55 -7.1 -2.55 -6.05Q-2.55 -1.1 2.4 -2.4Q2.4 0.8 2.55 2.45L2.55 8.7Q2 10.5 2.05 11.3Q2.25 13.2 4.85 13.2Q6.45 13.2 7.65 12.25Q8.7 11.45 8.7 10.7Q8.85 9.3 7.5 9.3Q7.1 9.3 6.1 10.05Q5.05 10.8 4.8 10.8L4.8 9.6L4.95 9.3L4.95 1.8L4.8 1.5L4.8 -4.35L4.45 -4.95M9.4,-2.3Q13.55 -2.3 13.55 -4.85Q13.55 -5.7 12.8 -6Q11.95 -6.4 11.1 -4.95L9.4 -4.7L7.95 -5.1Q6.8 -5.1 6.8 -3.9Q6.8 -3.5 7.15 -3.05Q7.85 -2.3 9.4 -2.3M-57.8,-17.5L-57.7 -18.55L-57.3 -18.55L-48.65 -19.8L-42.25 -19.4Q-33.95 -19.35 -29.75 -19.6L-6.65 -21.05L22.7 -20.1Q26.7 -19.75 30.35 -20.1L40.45 -20.5L50.4 -19.85Q53.9 -19.2 55.45 -10.65Q56.25 -6.25 56.25 -0.95L55.95 5.35Q55.6 10.3 55.6 11.65Q55.6 14.95 57.35 19.2L57.4 19.3Q54.85 18.9 52.95 17.6Q50.4 15.35 49.05 14.55Q47.9 13.85 45.9 12.9L43.6 11.9Q42.9 11.9 42 12.4Q41.1 12.9 39.9 12.9L30.4 11.4Q29.9 11.4 24.75 13.45L22.9 11.9Q21.05 10.05 20.4 7.7L20.45 6.55Q20.5 5.3 20 4.7L19.95 3.6Q20.1 2.35 20.6 1.15L21.3 -1.05Q21.3 -2.25 20.7 -2.3Q20.15 -2.35 19.45 -1.4Q17.55 1 17.55 5.05L17.65 8.35Q17.8 9.45 18.4 10.65L18.95 13.35Q19.35 14.45 19.9 15.35L14.9 17.25L6.15 17.9L-9.4 17.75L-36.15 16.5L-39.2 16.8Q-50.7 16.8 -55.05 10.6L-57.8 5.45L-57.8 -17.5M17.7,14.25Q17.7 12.75 16.15 12.75Q14.55 12.75 14.55 14.4Q14.55 15.75 16 15.75Q16.95 15.75 17.4 15.15L17.7 14.25M-50.4,-4.4L-50.6 2.1Q-50.8 4.95 -50.5 7.65Q-50 13.1 -47.75 13.1Q-43.2 13.1 -43.2 11.25L-43.35 10.65Q-43.6 10.05 -44.3 10.05L-45.1 10.3L-47.55 10.55Q-48.05 8.7 -48.15 6.3L-47.9 -6.3Q-47.9 -8.6 -49.15 -8.6Q-50.4 -8.65 -50.4 -4.4M-38.3,-8.15Q-39.2 -7.6 -39.1 -6.45L-38.65 -0.15Q-38.15 3.9 -36.95 3.9Q-36.35 3.9 -36 3.45L-35.75 2.75Q-35.75 1.6 -36.1 -1L-36.45 -5.1L-36.3 -7.65Q-36.55 -9.3 -38.3 -8.15M-29.05,-9.1Q-30.35 -8.95 -30.6 -6.6L-30.6 2.25L-31.2 8.75L-30.85 11.15Q-30.2 13.5 -28.55 13.5L-27.75 13.35Q-27.05 13.85 -25.95 13.85L-21.75 13.85L-20.2 13.45L-13.7 12.9Q-11.7 12.5 -11.7 11.3Q-11.7 10.95 -11.85 10.65Q-12.15 10.05 -12.9 10.05L-23.75 11.45Q-26.35 11.45 -26.5 11Q-26.95 10 -27.15 9.9Q-28.05 9.35 -28.5 10.05L-28.85 8.7L-28.2 2.9L-28.2 -6.15L-27.75 -7.85Q-27.75 -9.2 -29.05 -9.1M-25.75,-3.05Q-25.1 -2.3 -22.8 -2.3Q-20.35 -2.3 -19.2 -3.1Q-18.45 -3.65 -18.45 -4.45Q-18.45 -6.05 -19.65 -5.6Q-22.4 -4.7 -23.7 -4.7L-24.15 -4.9L-24.9 -5.1Q-26 -5.1 -26 -3.8L-25.75 -3.05M-14.9,-6.05Q-15.45 -7.55 -16.5 -7.45Q-17.55 -7.35 -17.55 -6.15Q-16.55 -3.4 -15.15 -0.7Q-13 3.5 -11.4 4.45Q-11.35 5.1 -9.5 9Q-9.3 10.3 -8.6 11.3Q-7.25 13.2 -3.95 13.2Q-2.2 13.2 -1.35 12.4Q-0.8 11.8 -0.8 11.1Q-0.8 9.9 -2.15 9.9Q-3.25 9.9 -3.3 10.8L-4.55 10.8Q-5.85 10.8 -7 8.65L-8 6.2Q-8.6 4.85 -9.35 3.9L-9.3 3.55L-10.95 1.35Q-12.8 -1.2 -13.5 -2.85L-14.9 -6.05M-18.9,3.4Q-18.9 1.85 -22.1 2.35Q-25.35 2.85 -25.35 3.85Q-25.35 5.25 -23.3 5.25Q-21.4 5.25 -20.1 4.65Q-18.9 4.1 -18.9 3.4M-32.75,11.15Q-33.1 10.55 -33.8 10.55L-36.5 10.1Q-38.15 7.05 -39.9 4.95L-42 1.65Q-42.55 0.4 -43.9 0.05Q-45.3 -0.35 -45.3 1.1Q-45.3 1.6 -41.1 7.35L-38.7 11.7Q-37.85 13.2 -34.85 13.2Q-33.4 13.2 -32.9 12.75Q-32.6 12.45 -32.6 11.8L-32.75 11.15" />
<path style="fill:#FAC26E;fill-opacity:1" d="M-52.75,-22.55L52.8 -22.55Q57.85 -22.55 57.85 -17.5L57.85 17.5L57.65 19.35L57.55 19.7L57.4 19.3L57.35 19.2Q55.6 14.95 55.6 11.65Q55.6 10.3 55.95 5.35L56.25 -0.95Q56.25 -6.25 55.45 -10.65Q53.9 -19.2 50.4 -19.85L40.45 -20.5L30.35 -20.1Q26.7 -19.75 22.7 -20.1L-6.65 -21.05L-29.75 -19.6Q-33.95 -19.35 -42.25 -19.4L-48.65 -19.8L-57.3 -18.55L-57.7 -18.55Q-57.25 -22.55 -52.75 -22.55" />
<path style="fill:#DB8F1E;fill-opacity:1" d="M4.8,-4.35L4.8 1.5L4.95 1.8L4.95 9.3L4.8 9.6L4.8 10.8Q5.05 10.8 6.1 10.05Q7.1 9.3 7.5 9.3Q8.85 9.3 8.7 10.7Q8.7 11.45 7.65 12.25Q6.45 13.2 4.85 13.2Q2.25 13.2 2.05 11.3Q2 10.5 2.55 8.7L2.55 2.45Q2.4 0.8 2.4 -2.4Q-2.55 -1.1 -2.55 -6.05Q-2.55 -7.1 -1.95 -8Q-1.2 -9.15 -0.35 -7.4L-0.4 -5.8Q-0.4 -4.7 0.9 -4.7Q1.5 -4.7 2.15 -5.05Q2.8 -5.4 3.35 -5.4Q4.05 -5.4 4.45 -4.95L4.8 -4.35M7.15,-3.05Q6.8 -3.5 6.8 -3.9Q6.8 -5.1 7.95 -5.1L9.4 -4.7L11.1 -4.95Q11.95 -6.4 12.8 -6Q13.55 -5.7 13.55 -4.85Q13.55 -2.3 9.4 -2.3Q7.85 -2.3 7.15 -3.05M57.55,19.7Q56.6 22.55 52.8 22.55L-52.75 22.55Q-57.8 22.55 -57.8 17.5L-57.8 5.45L-55.05 10.6Q-50.7 16.8 -39.2 16.8L-36.15 16.5L-9.4 17.75L6.15 17.9L14.9 17.25L19.9 15.35Q19.35 14.45 18.95 13.35L18.4 10.65Q17.8 9.45 17.65 8.35L17.55 5.05Q17.55 1 19.45 -1.4Q20.15 -2.35 20.7 -2.3Q21.3 -2.25 21.3 -1.05L20.6 1.15Q20.1 2.35 19.95 3.6L20 4.7Q20.5 5.3 20.45 6.55L20.4 7.7Q21.05 10.05 22.9 11.9L24.75 13.45Q29.9 11.4 30.4 11.4L39.9 12.9Q41.1 12.9 42 12.4Q42.9 11.9 43.6 11.9L45.9 12.9Q47.9 13.85 49.05 14.55Q50.4 15.35 52.95 17.6Q54.85 18.9 57.4 19.3L57.55 19.7M17.4,15.15Q16.95 15.75 16 15.75Q14.55 15.75 14.55 14.4Q14.55 12.75 16.15 12.75Q17.7 12.75 17.7 14.25L17.4 15.15M-49.15,-8.6Q-47.9 -8.6 -47.9 -6.3L-48.15 6.3Q-48.05 8.7 -47.55 10.55L-45.1 10.3L-44.3 10.05Q-43.6 10.05 -43.35 10.65L-43.2 11.25Q-43.2 13.1 -47.75 13.1Q-50 13.1 -50.5 7.65Q-50.8 4.95 -50.6 2.1L-50.4 -4.4Q-50.4 -8.65 -49.15 -8.6M-36.3,-7.65L-36.45 -5.1L-36.1 -1Q-35.75 1.6 -35.75 2.75L-36 3.45Q-36.35 3.9 -36.95 3.9Q-38.15 3.9 -38.65 -0.15L-39.1 -6.45Q-39.2 -7.6 -38.3 -8.15Q-36.55 -9.3 -36.3 -7.65M-27.75,-7.85L-28.2 -6.15L-28.2 2.9L-28.85 8.7L-28.5 10.05Q-28.05 9.35 -27.15 9.9Q-26.95 10 -26.5 11Q-26.35 11.45 -23.75 11.45L-12.9 10.05Q-12.15 10.05 -11.85 10.65Q-11.7 10.95 -11.7 11.3Q-11.7 12.5 -13.7 12.9L-20.2 13.45L-21.75 13.85L-25.95 13.85Q-27.05 13.85 -27.75 13.35L-28.55 13.5Q-30.2 13.5 -30.85 11.15L-31.2 8.75L-30.6 2.25L-30.6 -6.6Q-30.35 -8.95 -29.05 -9.1Q-27.75 -9.2 -27.75 -7.85M-26,-3.8Q-26 -5.1 -24.9 -5.1L-24.15 -4.9L-23.7 -4.7Q-22.4 -4.7 -19.65 -5.6Q-18.45 -6.05 -18.45 -4.45Q-18.45 -3.65 -19.2 -3.1Q-20.35 -2.3 -22.8 -2.3Q-25.1 -2.3 -25.75 -3.05L-26 -3.8M-13.5,-2.85Q-12.8 -1.2 -10.95 1.35L-9.3 3.55L-9.35 3.9Q-8.6 4.85 -8 6.2L-7 8.65Q-5.85 10.8 -4.55 10.8L-3.3 10.8Q-3.25 9.9 -2.15 9.9Q-0.8 9.9 -0.8 11.1Q-0.8 11.8 -1.35 12.4Q-2.2 13.2 -3.95 13.2Q-7.25 13.2 -8.6 11.3Q-9.3 10.3 -9.5 9Q-11.35 5.1 -11.4 4.45Q-13 3.5 -15.15 -0.7Q-16.55 -3.4 -17.55 -6.15Q-17.55 -7.35 -16.5 -7.45Q-15.45 -7.55 -14.9 -6.05L-13.5 -2.85M-20.1,4.65Q-21.4 5.25 -23.3 5.25Q-25.35 5.25 -25.35 3.85Q-25.35 2.85 -22.1 2.35Q-18.9 1.85 -18.9 3.4Q-18.9 4.1 -20.1 4.65M-32.6,11.8Q-32.6 12.45 -32.9 12.75Q-33.4 13.2 -34.85 13.2Q-37.85 13.2 -38.7 11.7L-41.1 7.35Q-45.3 1.6 -45.3 1.1Q-45.3 -0.35 -43.9 0.05Q-42.55 0.4 -42 1.65L-39.9 4.95Q-38.15 7.05 -36.5 10.1L-33.8 10.55Q-33.1 10.55 -32.75 11.15L-32.6 11.8" />
<path style="fill:#FAA72B;fill-opacity:1" d="M30.4,-7Q30 -6.3 30 -5.8L37.4 2.4L33.05 6.65Q30.9 5.5 28 2.6Q27.15 1.75 24.35 -3.55Q22.85 -6.4 21 -7.65L23.3 -10.8L23.5 -10.5Q24.1 -9.6 24.9 -9.6Q25.35 -9.6 27.7 -12.1Q30 -14.65 36.1 -14.6Q42.15 -14.55 45.65 -10.35Q49.1 -6.15 50.6 -3.45Q51.95 -0.85 52 1L52.05 3.65L54.05 2.25Q53.85 5.1 52.8 7.65Q52.25 6.85 52 5.65L52.05 3.65L49.25 5.2Q43.85 8 40.2 8L39.85 8L46.3 1.6Q47.05 0.9 46.6 0.2L46.25 -0.25L45.4 -1.1L44 -2.5L43.6 -2.8L34.25 -11.85L32.55 -11.9L30.2 -9.45Q29.4 -8.6 30.3 -7.7L30.65 -7.35L30.4 -7M31.8,1.4Q30.3 1.35 30.3 2.8L30.5 3.7Q30.9 4.7 31.9 4.7Q32.45 4.7 32.9 4Q33.3 3.4 33.3 2.85Q33.3 1.45 31.8 1.4M28.15,0.2L28.1 0.7L28.15 1.1L28.9 1.5L29.4 1.4L29.5 0.85Q29.5 0.2 28.15 0.2" />
<path style="fill:#EED9BA;fill-opacity:1" d="M34.35,13.35Q33.5 14.2 32.65 13.35L30.3 10.95Q29.5 10.1 30.35 9.25L33.05 6.65L37.4 2.4L39.05 0.75L30.65 -7.35L30.3 -7.7Q29.4 -8.6 30.2 -9.45L32.55 -11.9L34.25 -11.85L43.6 -2.8L44 -2.5L45.4 -1.1L46.25 -0.25L46.6 0.2Q47.05 0.9 46.3 1.6L39.85 8L34.35 13.35" />
<path style="fill:#FFC877;fill-opacity:1" d="M52.05,3.65L52 1Q51.95 -0.85 50.6 -3.45Q49.1 -6.15 45.65 -10.35Q42.15 -14.55 36.1 -14.6Q30 -14.65 27.7 -12.1Q25.35 -9.6 24.9 -9.6Q24.1 -9.6 23.5 -10.5L23.3 -10.8L24.05 -11.65Q29.2 -16.8 36.5 -16.8Q43.8 -16.8 48.95 -11.65Q54.1 -6.5 54.1 0.8L54.05 2.25L52.05 3.65" />
<path style="fill:#DB8F1E;fill-opacity:1" d="M39.85,8L40.2 8Q43.85 8 49.25 5.2L52.05 3.65L52 5.65Q52.25 6.85 52.8 7.65Q51.5 10.7 48.95 13.25Q43.8 18.4 36.5 18.4Q29.2 18.4 24.05 13.25Q18.9 8.1 18.9 0.8Q18.9 -3.85 21 -7.65Q22.85 -6.4 24.35 -3.55Q27.15 1.75 28 2.6Q30.9 5.5 33.05 6.65L30.35 9.25Q29.5 10.1 30.3 10.95L32.65 13.35Q33.5 14.2 34.35 13.35L39.85 8M37.4,2.4L30 -5.8Q30 -6.3 30.4 -7L30.65 -7.35L39.05 0.75L37.4 2.4M33.3,2.85Q33.3 3.4 32.9 4Q32.45 4.7 31.9 4.7Q30.9 4.7 30.5 3.7L30.3 2.8Q30.3 1.35 31.8 1.4Q33.3 1.45 33.3 2.85M29.5,0.85L29.4 1.4L28.9 1.5L28.15 1.1L28.1 0.7L28.15 0.2Q29.5 0.2 29.5 0.85" />
<path style="fill:none;stroke-width:1;stroke-linecap:butt;stroke-linejoin:miter;stroke-miterlimit:3;stroke:#A16000;stroke-opacity:1" d="M54.05,2.25L54.1 0.8Q54.1 -6.5 48.95 -11.65Q43.8 -16.8 36.5 -16.8Q29.2 -16.8 24.05 -11.65L23.3 -10.8M54.05,2.25Q53.85 5.1 52.8 7.65Q51.5 10.7 48.95 13.25Q43.8 18.4 36.5 18.4Q29.2 18.4 24.05 13.25Q18.9 8.1 18.9 0.8Q18.9 -3.85 21 -7.65L23.3 -10.8M30.65,-7.35L30.3 -7.7Q29.4 -8.6 30.2 -9.45L32.55 -11.9L34.25 -11.85L43.6 -2.8L44 -2.5L45.4 -1.1L46.25 -0.25L46.6 0.2Q47.05 0.9 46.3 1.6L39.85 8M33.05,6.65L37.4 2.4M30.65,-7.35L39.05 0.75L37.4 2.4M33.05,6.65L30.35 9.25Q29.5 10.1 30.3 10.95L32.65 13.35Q33.5 14.2 34.35 13.35L39.85 8M46.6,0.2L45.4 -1.1" />
</g>
</svg>
