<?xml version="1.0" encoding="utf-8"?>
<svg version="1.1" id="Layer_1"
xmlns="http://www.w3.org/2000/svg"
xmlns:xlink="http://www.w3.org/1999/xlink"
xmlns:author="http://www.sothink.com"
width="16px" height="11px"
xml:space="preserve">
<g id="28" transform="matrix(1, 0, 0, 1, 7.45, 5.35)">
<path style="fill:#A2CBF3;fill-opacity:1" d="M6.15,-2.5L6 -2.4L5.7 -2.5L5.15 -2.65L4.45 -2.5L3.65 -2.6L3.15 -2.25L3.05 -2.25L3.15 -4.55L3.95 -4.55L5.6 -4.5L5.65 -4.5L6.8 -4.4L6.8 -2.4L6.6 -2.4L6.15 -2.5M-6.5,-0.95L-2.55 -1.25L2.15 -1.35L2.1 0.4Q1.7 0.35 1.25 -0.1L1 0.2L0.75 0.3L0.4 0.1L0.1 -0.45Q-0.2 0.1 -0.65 0.1Q-1.05 0.1 -1.15 -0.6L-1.2 -0.45L-1.75 0.1L-1.95 0.4L-2.45 0.1Q-2.85 0.85 -3.1 0.7L-3.5 0.4L-3.85 0.05L-4.55 0.7L-5.1 0.35L-5.45 0.05L-5.9 0.5L-6.2 0.85L-6.6 0.8L-6.5 -0.95" />
<path style="fill:#71A2D2;fill-opacity:1" d="M6.6,-2.4L6.6 -2.35Q6.95 -2.3 6.95 -1.8L6.9 -1.05L6.9 -0.65L7.05 1.25L7.1 1.45L7.15 1.95L7.15 2L7.05 2.85L7.05 3.7Q7 4.45 6.15 4.45L4.15 4.55L3.05 4.5L2.9 2.9L3 2.9L2.95 2.6L3 2.05L2.9 2.05L3 -1.4L3.05 -1.4L3.05 -1.55L3.15 -2.25L3.65 -2.6L4.45 -2.5L5.15 -2.65L5.7 -2.5L6 -2.4L6.15 -2.5L6.6 -2.4" />
<path style="fill:#4B729A;fill-opacity:1" d="M2.05,2.1L-1.3 2.15L-4.85 2.25L-6.65 2.15L-6.6 0.8L-6.2 0.85L-5.9 0.5L-5.45 0.05L-5.1 0.35L-4.55 0.7L-3.85 0.05L-3.5 0.4L-3.1 0.7Q-2.85 0.85 -2.45 0.1L-1.95 0.4L-1.75 0.1L-1.2 -0.45L-1.15 -0.6Q-1.05 0.1 -0.65 0.1Q-0.2 0.1 0.1 -0.45L0.4 0.1L0.75 0.3L1 0.2L1.25 -0.1Q1.7 0.35 2.1 0.4L2.05 2.1" />
<path style="fill:#333333;fill-opacity:1" d="M4.1,-5.35L5.6 -5.3L7.4 -5.05L7.6 -4.9L7.65 -4.65L7.65 -2.05L7.65 -0.9L7.85 1.25L7.8 2.15L7.9 2.4L7.9 3.7Q7.9 5.2 6.2 5.3L4.2 5.4L2.55 5.25L2.35 5.15L2.25 4.9L2.05 2.9L-1.3 3L-4.85 3.1Q-7.55 3.1 -7.45 2.15L-7.35 -1.3L-7.2 -1.55L-6.95 -1.7L-2.55 -2.1L2.2 -2.25L2.3 -4.95L2.45 -5.25L2.75 -5.35L4.1 -5.35M3.05,-1.55L3.05 -1.4L3 -1.4L2.9 2.05L3 2.05L2.95 2.6L3 2.9L2.9 2.9L3.05 4.5L4.15 4.55L6.15 4.45Q7 4.45 7.05 3.7L7.05 2.85L7.15 2L7.15 1.95L7.1 1.45L7.05 1.25L6.9 -0.65L6.9 -1.05L6.95 -1.8Q6.95 -2.3 6.6 -2.35L6.6 -2.4L6.8 -2.4L6.8 -4.4L5.65 -4.5L5.6 -4.5L3.95 -4.55L3.15 -4.55L3.05 -2.25L3.15 -2.25L3.05 -1.55M-6.6,0.8L-6.65 2.15L-4.85 2.25L-1.3 2.15L2.05 2.1L2.1 0.4L2.15 -1.35L-2.55 -1.25L-6.5 -0.95L-6.6 0.8" />
</g>
</svg>
