<?xml version="1.0" encoding="utf-8"?>
<svg version="1.1" id="Layer_1"
xmlns="http://www.w3.org/2000/svg"
xmlns:xlink="http://www.w3.org/1999/xlink"
xmlns:author="http://www.sothink.com"
width="169px" height="200px"
xml:space="preserve">
<g id="335" transform="matrix(1, 0, 0, 1, 2.1, -368.55)">
<path style="fill:#000000;fill-opacity:0.2" d="M24.7,556.6Q24.7 551.7 41.5 548.25Q58.3 544.8 82.1 544.8Q105.9 544.8 122.7 548.25Q139.5 551.7 139.5 556.6Q139.5 561.5 122.7 564.95Q105.9 568.4 82.1 568.4Q58.3 568.4 41.5 564.95Q24.7 561.5 24.7 556.6" />
<path style="fill:#FC850F;fill-opacity:1" d="M151.95,553.85Q149 556.3 146.45 555.7Q144.35 555.2 140.65 548.45Q137.15 542.05 134.4 542.15Q131.2 542.3 125.45 547.5Q122.6 550.1 120.4 552.65Q84.15 570.65 42.75 548.8Q41.1 546.8 38.75 544.95Q34.05 541.25 30.5 541.9Q27.7 542.4 25.95 547.95Q24.2 553.65 21.25 554.45Q17.55 555.45 12 551.45L7.2 547.25L4.05 548.1Q0.7 548.55 -0.25 546.5Q-1.2 544.45 0.4 543Q1.35 542.5 2.25 541.95Q0.2 540.2 0.5 537.8Q0.85 535.45 3.85 535.35L6.75 535.75Q7.3 533.65 9.25 533.2Q11.8 532.6 15.5 535.4Q17.35 536.8 18.7 538.3Q20.05 536.7 22.25 535.1Q26.6 531.85 30.75 531.9Q34.15 531.95 38.8 535.45Q36.55 531.5 35.15 527.4Q32.5 519.5 35.3 512.95Q33.75 506.15 32.85 499.75L33.2 499.75L33 500.15Q33 500.9 33.35 501.25L33.75 501.3L37.25 498.1L38.9 496.3L38.8 496.05Q36.9 496.3 35.1 497.35L33.8 498.45L32.8 499.45Q28.95 471.95 37.15 452.3L36.95 451.9Q32.8 443.05 28.95 436.15Q24.85 418.9 23.85 405.5L19.2 399.85L16.65 396.25Q15.45 394.4 14.95 392Q14.4 389.25 15.35 388.05Q16.7 386.3 19.6 389.3Q18.55 387 18 384.5Q16.9 379.5 19.45 378.35Q21.7 377.35 23.95 379.6Q25.55 381.25 26.8 384.15Q27 382.85 27.6 381.5Q28.8 378.9 30.75 378.85Q32.85 378.8 34.2 382.3Q35.35 385.35 35.1 388.05L34.05 395.75L38.3 394.1Q42.75 393 43.55 396Q44.1 398.05 42.1 399.85L39.8 401.4Q37.55 402.55 35.1 403.15L37.85 411.5L46.1 414.95Q41.45 410.75 41.95 404.4L50.2 411.3Q49.5 401.3 49.55 391.15Q49.65 370.85 53.5 370.1Q57.35 369.35 65.8 384.4Q70.05 391.9 73.5 399.55L83.7 395.45L87.55 399.05L92.95 396.2L99.85 398.25Q103.45 391.65 107.75 385.1Q116.4 372 120.1 372.4Q123.8 372.8 122.55 393.9Q121.95 404.45 120.6 414.9L126.5 410.55Q125.65 416.15 121.85 419.75L128.2 418.1L132.8 403.15Q130.35 402.55 128.1 401.4Q126.7 400.65 125.8 399.85Q123.8 398.05 124.35 396Q125.15 393 129.6 394.1L133.85 395.75Q133.05 391.05 132.8 388.05Q132.55 385.35 133.7 382.3Q135.05 378.8 137.15 378.85Q139.1 378.9 140.3 381.5Q140.9 382.85 141.1 384.15Q142.35 381.25 143.95 379.6Q146.2 377.35 148.45 378.35Q151 379.5 149.9 384.5Q149.35 387 148.3 389.3Q151.2 386.3 152.55 388.05Q153.5 389.25 152.95 392Q152.45 394.4 151.25 396.25L148.7 399.85L144.05 405.5Q143.05 418.9 138.95 436.15Q132.45 447.7 126.8 459.7Q119.8 474.6 119.75 478.85Q119.7 482.8 123.75 488.4L133.9 501.45Q139.8 509.5 137.05 522.8Q135.85 528.6 133.75 533.2Q135.9 532.3 137.75 532.2Q140.8 532.1 143.8 536.45Q145.3 538.65 146.2 540.85Q147.7 538.3 149.65 535.9Q153.6 531.05 156.15 531.65Q158.7 532.25 159.2 534.7Q159.5 535.95 159.25 537.05L162.25 537.6Q165.1 538.85 164.6 542.15Q164.1 545.3 160.7 545.3L162.2 547Q163.45 548.95 162.3 550.35Q161.2 551.75 158.3 550.8L155.65 549.6L155.6 549.7L155.65 549.45L156.05 548.4Q156.45 547.55 156.45 546.65Q156.45 545.65 155.9 545.15L155 544.4L153.3 544.15L151.95 544.35Q150.35 544.35 148.45 546.55Q145.85 549.35 145.85 552.55L145.95 553.95Q146.4 555.2 148.2 555.2L150.6 554.55L151.8 553.8L151.95 553.85M23.45,395Q22.8 395.85 22.65 396.75L22.6 398.5Q22.6 400.35 23.2 401.85Q24.4 404.85 27.5 404.85Q33 404.85 33 400.1Q33 398.4 32.35 396.65Q31.4 394.1 29.55 393.3L28.75 392.95L27.55 392.5L26.35 392.85L25.2 393.3Q24.4 393.65 23.45 395M53.2,393.7Q53.6 401.45 54.4 409.1L56.35 404.95L58.15 407L58.4 402.9L61.5 405.45L62.5 402.9L67.9 401.85Q65.6 395.55 62.8 389.35Q57.2 376.95 54.85 377.55Q52.5 378.15 53.2 393.7M117.55,378.6Q116.1 378.45 110.2 389.3L104.65 400.15L109.85 397.25L107.8 402.65L111.4 400.6L110.65 405.7L113.7 404.7L115.75 410.05L117.55 394.4Q119 378.75 117.55 378.6M144.55,395.35Q144.1 394.65 142.25 394L139.2 393.8Q136.8 394.35 135.5 396.1Q134.45 397.55 134.45 399.1L134.5 400.1L135.1 401.35Q135.9 403.1 139 403.1L141.45 402.85L142.6 402.2Q143.3 401.8 144.2 400.9Q145.2 399.7 145.2 398.05L144.95 396.8L144.55 395.75L144.55 395.35M124.85,445.45Q125.1 445.45 125.2 445.6L125.7 445.55L125.7 445.3Q125.5 444.65 123.15 443.65Q121.05 442.4 120.45 442.5L120.45 442.8L120.95 443.45L121.9 444Q123.85 445.45 124.85 445.45M81,407.45L79.45 407.15L77.7 407.3L76.4 407.55Q75.6 407.55 75.35 407.8L74.9 407.95L74.5 408.15L74.05 408.2Q73.5 408.6 73.25 409.2L72.8 410.3L72.7 410.35L71.95 412.55L71.35 414.8Q70.9 417.65 70.9 419.25L70.95 420.7L71.2 422.1L72.05 425L72.15 425.05L72.25 425.65L72.55 426.4L72.9 427.25L73.3 428.05L73.95 428.8L74.4 428.85L74.5 428.8L74.8 428L75.55 426.9L76.15 425.7L78.95 421.9L79.6 421.15L80.3 420.4L81.75 418.8Q82.05 418.55 84 417.45L84.6 416.9L84.7 416.05L84.5 414.15L84.2 412.15L83.95 411.2L83.5 410.2L83 409.2L82.3 408.2L81 407.45M77.75,423.65Q75.55 426.95 74.8 430L75.85 431.45Q77.3 433.1 79.1 434.35Q84.8 438.35 91.95 436.65Q99.35 434.85 102.25 429.9Q104.1 426.7 103.7 423.35Q103.3 420.2 100.8 418.05Q98.7 416.3 95.55 415.85Q95.8 411.3 95 409.8Q94.25 408.4 92.75 407.45Q90.85 406.3 88.9 406.7Q87.1 407.1 85.75 409.5Q85.1 410.7 84.8 411.8Q85.35 414.5 85.05 417.25Q80.75 419.2 77.75 423.65M120.95,446.45Q120.95 447 121.75 447.45L123.95 448.55L124.6 448.55L124.7 448.3L125.2 447.95L125.15 447.75Q124.35 447 123.1 446.55Q121.9 446.1 121 446.2L120.95 446.45M120.65,449.55Q123.15 451 123.95 450.85L124.25 450.4Q124.25 450 123.05 449.25L121.5 448.25Q120.45 447.55 119.65 447.2Q118.2 446.5 118.2 447.6Q118.2 448.15 120.65 449.55M118.35,451.15L119.55 452.05L121.15 452.85L122.85 453.6L123.35 453.3L123.45 453.1L123.1 452.7L123.35 452.4Q123.35 452.05 120.35 451.05L118.55 450.35L117.2 450.05L117.45 450.6L118.35 451.15M116.35,454.5L117.95 455.4L119.55 456.55Q120.5 457.15 120.8 457.15L121.2 456.95Q121.95 456.85 121.95 456.6Q121.95 455.85 121.55 455.5L119.65 454.6Q117.2 453.1 115.45 453.45Q115.35 454 116.35 454.5M47.45,437.3L47.35 437L47.1 436.9L45.1 436.35L42.4 436.3L41.25 436.15L40.7 436.25L40.8 436.55L41.1 436.6L40.35 436.8L40.35 437Q39.95 437.2 39.95 437.6L40.05 437.8L40.6 437.55L40.8 437.5L40.9 437.65L40.85 437.65Q40.7 437.75 40.7 437.95L41.05 438.05L43.45 437.85L43.45 437.75L45.45 437.5L47.4 437.55L47.45 437.3M40.6,438.95Q40.6 439.35 40.95 439.6L42.15 439.65L44.05 439.45L44.85 438.9L44.7 438.5L40.65 438.7L40.6 438.95M44.35,440.7L44.3 440.75L41.85 441.15L41.2 441.35Q40.35 441.6 40.35 441.95L40.85 442.7L41.6 442.7L41.7 442.7L44.35 442.25L45.5 441.9L45.75 441.9L45.95 441.85L46.65 441.6L47.85 441.05L47.45 440.7L46.6 440.7L46.45 440.6L44.95 440.65L44.5 440.7L44.35 440.7M41.3,444.5L40.7 444.75Q40.35 444.9 40.35 445.2L40.45 445.4L40.95 445.4L41.2 445.35L41.4 445.2L41.35 445.3L41.6 445.95L42.55 445.7L42.5 445.75Q41.85 446 41.85 446.35L41.9 446.55L42.2 446.6L45.1 445.6L47.05 445.1Q47.7 445 48.2 444.45L48.1 444.25L47.5 443.8L45.95 443.7L43.95 443.9L43.45 444.15L42.2 444.25L41.3 444.5M60,442.45L58.4 440.5Q57.5 439.3 57.2 437.6L54.8 438.7Q52.25 440.15 50.75 442.4L50.5 442.8Q48.55 445.95 48.3 449.75Q48 454 50.75 456.05L52.45 456.95Q56.8 458.65 61.55 453.2L65.4 447.35Q62.85 445.55 60.65 443.15L60.7 442.95L60.6 442.75L60 442.45M38.2,463.1L40.75 463.05L41.25 462.55L41 462.3L39.65 462.05L37.45 462.25L34.4 462.8L34.6 463.65L35 463.7L36.35 463.45L38.2 463.1M33.5,468.9L33.25 469.4L32.65 470.1L32.9 470.45L33.75 470.45Q38.9 468.75 38.9 468.4L38.65 468.05L37.45 468.15L34.5 468.4L33.5 468.9M35.95,475.05L34.5 475.55L33.25 476Q32.25 476.4 32.25 476.55L32.35 476.75L32.65 476.8L32.45 476.9L31.95 477.15L31.9 477.7Q31.9 478.35 32.15 478.45L33.8 477.8L35.1 477.05Q38 475.75 39 475.4L39.15 475.15L38.9 474.8L35.95 475.05M36.95,483.95L35.45 484.65Q34.75 484.8 33.95 485.5L32.95 486Q32.3 486.3 32.3 486.55L32.35 486.7L32.55 486.75L32.95 486.75L32.75 486.8Q31.75 487.6 31.75 488.1L31.85 488.4L32.15 488.45L35.65 485.8L37.6 484.6L38.55 484.1L39.15 483.55L38.9 483.3Q38 483.4 36.95 483.95M32.5,492.9L32.45 493.05L32.7 493.7L32.4 494.35L32.5 494.75L32.9 494.75Q36 492.2 36 491.75L35.75 491.45L35.15 491.45Q34.25 491.45 32.5 492.9M64.4,469L65.1 468.55L65 468.25L64.75 468.2L62.45 468.45Q61.45 468.45 58.75 466.9L57.25 465.55L55.95 464.65L55.95 465.2L56.8 467.45Q57.6 468.75 59.95 469.2L60.2 469.35L63.35 469.35L64.4 469M47.6,448.4L47.2 447.7L44.25 447.9L42.8 448.2L41.9 448.45L41.85 448.95L41.85 449.2L41.95 449.4L42.2 449.45L42.45 450.1L43.05 450.1L45.25 449.35L46.95 448.85L47.6 448.4M45.35,457.35L45.25 457.8Q45.45 457.75 45.45 457.95Q45.4 458.2 45.7 458.2L46.2 458.2L48.1 457.7L49.95 456.95L50.1 456.65L49.85 456.35L49.3 456.25L46.7 456.45L45.9 456.7L45.1 457L45.1 457.2L45.25 457.2L45.35 457.35M47.15,475.75Q42.65 487 46.2 500.25Q48.95 497.3 50.05 494.55Q51.25 491.4 51.2 486.3L47.15 475.75M34.25,506.5L34.35 506.75L34.75 506.8L34.75 506.85L34.4 507.45L34.5 507.75L35 507.8L37.7 505.3L39.25 503.65L39.2 503.35Q38.8 503.2 38.4 503.35L37.75 503.75L36.5 504.45L35.1 505.45Q34.25 506.15 34.25 506.5M8.95,544.3Q8 545.15 8 546.25L8.2 547.55Q8.3 548.25 9.15 548.8Q9.95 548.9 10.55 549.4L11.35 550.15L13.05 551.4Q13.8 551.95 15.15 552.45L16.4 553.15L19.25 553.7L19.35 553.8L20 553.85L21.85 553.6L22.55 552.85L22.65 552.35Q22.65 551.05 20.85 548.95Q19.3 547.05 17.65 546Q15.05 544.35 13.15 543.5Q10.35 543.1 8.95 544.3" />
<path style="fill:#E66006;fill-opacity:1" d="M151.8,553.8L150.6 554.55L148.2 555.2Q146.4 555.2 145.95 553.95L145.85 552.55Q145.85 549.35 148.45 546.55Q150.35 544.35 151.95 544.35L153.3 544.15L155 544.4L155.9 545.15Q156.45 545.65 156.45 546.65Q156.45 547.55 156.05 548.4L155.65 549.45L155.6 549.7L152.1 553.85L151.95 553.85L151.8 553.8M25.2,393.3L26.35 392.85L27.55 392.5L28.75 392.95L29.55 393.3Q31.4 394.1 32.35 396.65Q33 398.4 33 400.1Q33 404.85 27.5 404.85Q24.4 404.85 23.2 401.85Q22.6 400.35 22.6 398.5L22.65 396.75Q22.8 395.85 23.45 395Q24.4 393.65 25.2 393.3M54.85,377.55Q57.2 376.95 62.8 389.35Q65.6 395.55 67.9 401.85L62.5 402.9L61.5 405.45L58.4 402.9L58.15 407L56.35 404.95L54.4 409.1Q53.6 401.45 53.2 393.7Q52.5 378.15 54.85 377.55M117.55,394.4L115.75 410.05L113.7 404.7L110.65 405.7L111.4 400.6L107.8 402.65L109.85 397.25L104.65 400.15L110.2 389.3Q116.1 378.45 117.55 378.6Q119 378.75 117.55 394.4M144.55,395.75L144.95 396.8L145.2 398.05Q145.2 399.7 144.2 400.9Q143.3 401.8 142.6 402.2L141.45 402.85L139 403.1Q135.9 403.1 135.1 401.35L134.5 400.1L134.45 399.1Q134.45 397.55 135.5 396.1Q136.8 394.35 139.2 393.8L142.25 394Q144.1 394.65 144.55 395.35L144.55 395.75M13.15,543.5Q15.05 544.35 17.65 546Q19.3 547.05 20.85 548.95Q22.65 551.05 22.65 552.35L22.55 552.85L21.85 553.6L20 553.85L19.35 553.8L19.25 553.7L16.4 553.15L15.15 552.45Q13.8 551.95 13.05 551.4L11.35 550.15L10.55 549.4Q9.95 548.9 9.15 548.8Q8.3 548.25 8.2 547.55L8 546.25Q8 545.15 8.95 544.3Q10.35 543.1 13.15 543.5" />
<path style="fill:#FFFFFF;fill-opacity:1" d="M82.3,408.2L83 409.2L83.5 410.2L83.95 411.2L84.2 412.15L84.5 414.15L84.7 416.05L84.6 416.9L84 417.45Q82.05 418.55 81.75 418.8L80.3 420.4L79.6 421.15L78.95 421.9L76.15 425.7L75.55 426.9L74.8 428L74.5 428.8L74.4 428.85L73.95 428.8L73.3 428.05L72.9 427.25L72.55 426.4L72.25 425.65L72.15 425.05L72.05 425L71.2 422.1L70.95 420.7L70.9 419.25Q70.9 417.65 71.35 414.8L71.95 412.55L72.7 410.35L72.8 410.3L73.25 409.2Q73.5 408.6 74.05 408.2L74.5 408.15L74.9 407.95L75.35 407.8Q75.6 407.55 76.4 407.55L77.7 407.3L79.45 407.15L81 407.45L82.3 408.2M87.2,413.9L87.45 414.7Q87.85 415.35 88.85 415.35Q89.65 415.35 90.1 414.7L90.45 413.65Q90.45 412.05 88.85 412Q87.2 411.95 87.2 413.9M89.4,415.95Q87.05 416.3 85.05 417.25Q85.35 414.5 84.8 411.8Q85.1 410.7 85.75 409.5Q87.1 407.1 88.9 406.7Q90.85 406.3 92.75 407.45Q94.25 408.4 95 409.8Q95.8 411.3 95.55 415.85Q92.85 415.4 89.4 415.95M81.1,414.75L80.65 413.95Q80.4 413.25 79.75 412.8L78.2 412.7Q76.7 413.5 76.7 415.7L77.05 417.1Q77.6 418.45 78.75 418.45L80.3 417.6Q81.15 416.65 81.15 415.55L81.1 414.75" />
<path style="fill:#FF6D6B;fill-opacity:1" d="M85.05,417.25Q87.05 416.3 89.4 415.95Q92.85 415.4 95.55 415.85Q98.7 416.3 100.8 418.05Q103.3 420.2 103.7 423.35Q104.1 426.7 102.25 429.9Q99.35 434.85 91.95 436.65Q84.8 438.35 79.1 434.35Q77.3 433.1 75.85 431.45L74.8 430Q75.55 426.95 77.75 423.65Q80.75 419.2 85.05 417.25" />
<path style="fill:#FF2E28;fill-opacity:1" d="M65.4,447.35L61.55 453.2Q56.8 458.65 52.45 456.95L50.75 456.05Q48 454 48.3 449.75Q48.55 445.95 50.5 442.8L50.75 442.4Q52.25 440.15 54.8 438.7L57.2 437.6Q57.5 439.3 58.4 440.5L60 442.45L59.8 442.3Q59.25 441.95 58.95 441.9Q57.5 442.5 56.05 443.85Q54.85 444.95 54.2 446L52.85 448.3Q52.4 449.25 52.4 450.45L52.45 450.9L52.7 450.9Q53.05 449 55.7 446.55Q56.6 445.65 57.7 444.9Q58.3 444.4 59.4 443.95L60.65 443.15Q62.85 445.55 65.4 447.35" />
<path style="fill:#582903;fill-opacity:1" d="M32.85,499.75L32.75 499.55L32.8 499.45L33.8 498.45L35.1 497.35Q36.9 496.3 38.8 496.05L38.9 496.3L37.25 498.1L33.75 501.3L33.35 501.25Q33 500.9 33 500.15L33.2 499.75L32.85 499.75M121.9,444L120.95 443.45L120.45 442.8L120.45 442.5Q121.05 442.4 123.15 443.65Q125.5 444.65 125.7 445.3L125.7 445.55L125.2 445.6Q125.1 445.45 124.85 445.45Q123.85 445.45 121.9 444M88.85,412Q90.45 412.05 90.45 413.65L90.1 414.7Q89.65 415.35 88.85 415.35Q87.85 415.35 87.45 414.7L87.2 413.9Q87.2 411.95 88.85 412M81.15,415.55Q81.15 416.65 80.3 417.6L78.75 418.45Q77.6 418.45 77.05 417.1L76.7 415.7Q76.7 413.5 78.2 412.7L79.75 412.8Q80.4 413.25 80.65 413.95L81.1 414.75L81.15 415.55M121,446.2Q121.9 446.1 123.1 446.55Q124.35 447 125.15 447.75L125.2 447.95L124.7 448.3L124.6 448.55L123.95 448.55L121.75 447.45Q120.95 447 120.95 446.45L121 446.2M118.2,447.6Q118.2 446.5 119.65 447.2Q120.45 447.55 121.5 448.25L123.05 449.25Q124.25 450 124.25 450.4L123.95 450.85Q123.15 451 120.65 449.55Q118.2 448.15 118.2 447.6M117.45,450.6L117.2 450.05L118.55 450.35L120.35 451.05Q123.35 452.05 123.35 452.4L123.1 452.7L123.45 453.1L123.35 453.3L122.85 453.6L121.15 452.85L119.55 452.05L118.35 451.15L117.45 450.6M115.45,453.45Q117.2 453.1 119.65 454.6L121.55 455.5Q121.95 455.85 121.95 456.6Q121.95 456.85 121.2 456.95L120.8 457.15Q120.5 457.15 119.55 456.55L117.95 455.4L116.35 454.5Q115.35 454 115.45 453.45M47.4,437.55L45.45 437.5L43.45 437.75L43.45 437.85L41.05 438.05L40.7 437.95Q40.7 437.75 40.85 437.65L40.9 437.65L40.8 437.5L40.6 437.55L40.05 437.8L39.95 437.6Q39.95 437.2 40.35 437L40.35 436.8L41.1 436.6L40.8 436.55L40.7 436.25L41.25 436.15L42.4 436.3L45.1 436.35L47.1 436.9L47.35 437L47.45 437.3L47.4 437.55M40.65,438.7L44.7 438.5L44.85 438.9L44.05 439.45L42.15 439.65L40.95 439.6Q40.6 439.35 40.6 438.95L40.65 438.7M44.5,440.7L44.95 440.65L46.45 440.6L46.6 440.7L47.45 440.7L47.85 441.05L46.65 441.6L45.95 441.85L45.75 441.9L45.5 441.9L44.35 442.25L41.7 442.7L41.6 442.7L40.85 442.7L40.35 441.95Q40.35 441.6 41.2 441.35L41.85 441.15L44.3 440.75L44.35 440.7L44.5 440.7M42.2,444.25L43.45 444.15L43.95 443.9L45.95 443.7L47.5 443.8L48.1 444.25L48.2 444.45Q47.7 445 47.05 445.1L45.1 445.6L42.2 446.6L41.9 446.55L41.85 446.35Q41.85 446 42.5 445.75L42.55 445.7L41.6 445.95L41.35 445.3L41.4 445.2L41.2 445.35L40.95 445.4L40.45 445.4L40.35 445.2Q40.35 444.9 40.7 444.75L41.3 444.5L42.2 444.25M60.6,442.75L60.7 442.95L60.65 443.15L59.4 443.95Q58.3 444.4 57.7 444.9Q56.6 445.65 55.7 446.55Q53.05 449 52.7 450.9L52.45 450.9L52.4 450.45Q52.4 449.25 52.85 448.3L54.2 446Q54.85 444.95 56.05 443.85Q57.5 442.5 58.95 441.9Q59.25 441.95 59.8 442.3L60 442.45L60.6 442.75M36.35,463.45L35 463.7L34.6 463.65L34.4 462.8L37.45 462.25L39.65 462.05L41 462.3L41.25 462.55L40.75 463.05L38.2 463.1L36.35 463.45M34.5,468.4L37.45 468.15L38.65 468.05L38.9 468.4Q38.9 468.75 33.75 470.45L32.9 470.45L32.65 470.1L33.25 469.4L33.5 468.9L34.5 468.4M38.9,474.8L39.15 475.15L39 475.4Q38 475.75 35.1 477.05L33.8 477.8L32.15 478.45Q31.9 478.35 31.9 477.7L31.95 477.15L32.45 476.9L32.65 476.8L32.35 476.75L32.25 476.55Q32.25 476.4 33.25 476L34.5 475.55L35.95 475.05L38.9 474.8M38.9,483.3L39.15 483.55L38.55 484.1L37.6 484.6L35.65 485.8L32.15 488.45L31.85 488.4L31.75 488.1Q31.75 487.6 32.75 486.8L32.95 486.75L32.55 486.75L32.35 486.7L32.3 486.55Q32.3 486.3 32.95 486L33.95 485.5Q34.75 484.8 35.45 484.65L36.95 483.95Q38 483.4 38.9 483.3M35.15,491.45L35.75 491.45L36 491.75Q36 492.2 32.9 494.75L32.5 494.75L32.4 494.35L32.7 493.7L32.45 493.05L32.5 492.9Q34.25 491.45 35.15 491.45M63.35,469.35L60.2 469.35L59.95 469.2Q57.6 468.75 56.8 467.45L55.95 465.2L55.95 464.65L57.25 465.55L58.75 466.9Q61.45 468.45 62.45 468.45L64.75 468.2L65 468.25L65.1 468.55L64.4 469L63.35 469.35M46.95,448.85L45.25 449.35L43.05 450.1L42.45 450.1L42.2 449.45L41.95 449.4L41.85 449.2L41.85 448.95L41.9 448.45L42.8 448.2L44.25 447.9L47.2 447.7L47.6 448.4L46.95 448.85M45.25,457.2L45.1 457.2L45.1 457L45.9 456.7L46.7 456.45L49.3 456.25L49.85 456.35L50.1 456.65L49.95 456.95L48.1 457.7L46.2 458.2L45.7 458.2Q45.4 458.2 45.45 457.95Q45.45 457.75 45.25 457.8L45.35 457.35L45.25 457.2M35.1,505.45L36.5 504.45L37.75 503.75L38.4 503.35Q38.8 503.2 39.2 503.35L39.25 503.65L37.7 505.3L35 507.8L34.5 507.75L34.4 507.45L34.75 506.85L34.75 506.8L34.35 506.75L34.25 506.5Q34.25 506.15 35.1 505.45" />
<path style="fill:#000000;fill-opacity:0.2" d="M19.3,380.3Q19.3 381.45 20.05 383.05L21.8 387.15L23.4 390.5L24.65 392.25L25.95 393.2L25.2 393.3L24.2 393.75Q22.8 394.25 22.6 394.85L22.5 394.7L21.4 392.7L21.05 392.45Q20.9 392.35 20.9 392.05L20.35 391.3L19.9 390.65L18.35 388.2L19.6 389.3Q18.55 387 18 384.5Q16.9 379.5 19.45 378.35L20.95 378.05L19.9 378.8Q19.3 379.5 19.3 380.3M16.3,387.8L16.3 388.45L16.7 390.9L17.4 393.05L18.65 395.25Q20.15 397.25 21.75 397.25L22.4 398L23.65 399.95Q24.25 401.15 25.4 401.95L26.3 402.55L26.6 403.1Q27.3 404.55 27.3 405.95L27.15 407.15L27.3 408.45L27.4 409.2L27.4 411.3Q27.55 413.95 28.15 416.7L28.4 418.05L28.6 418.7L28.9 419.35L29.05 420.65Q29.05 421.15 29.55 421.95Q29.85 423.1 30.8 424.45Q32.3 426.65 34.3 426.65L34.65 426.45L34.05 425.8L33.9 425.65L33.45 424.9L32.35 421.9L31.95 420.15L31.65 417.9L31.7 416.9L32.15 415.7L33.2 416L33.8 416.45L34.35 416.85L35.25 417.25Q35.45 417.25 35.65 417.05L35.05 414.95L35 413.3Q35 411.45 35.35 410.8L36.4 408.25L35.95 407L35.45 405.55L35.6 405.4L35.75 405.2L34.75 403.3L34.45 402.25L33.9 401.15L33.95 400.7L34.4 399.6L35.45 399.75Q38.25 399.75 40.7 397.9Q42.9 396.2 42.9 394.8L42.9 394.75L43.55 396Q44.1 398.05 42.1 399.85L39.8 401.4Q37.55 402.55 35.1 403.15L37.85 411.5L46.1 414.95Q41.45 410.75 41.95 404.4L43.15 405.4L43.15 405.75L44.6 408.6Q45.5 410.3 46.65 411.55L48.8 414.45L49.85 416.05L50.5 417.5Q50.6 418 48.35 418.05Q48.05 418.1 48.05 418.5Q48.05 419.05 49.3 421L49.15 421.2L46.9 420.85L45.7 420.4Q45.4 420.4 45.4 420.9Q45.4 421.45 47 424.55L48.55 427.8Q48.55 428.55 47.35 429Q46.15 429.4 46.15 429.65L46.35 429.9L46.55 430.3L46.5 430.45L46.35 430.45L45.25 430.05L44.95 430.1L44.9 430.35L45.4 431.45L46.05 432.95L46.75 434.3Q47.35 435.15 47.35 435.6L47.05 436.05L45.85 436.4Q45.65 436.45 45.65 436.95L46.05 438.8L46.4 441.3L46.65 443.55L46.9 445.7Q46.9 447.75 47.15 449.05L47.45 451.45Q47.6 452.4 48.15 452.4L48.5 452.15Q48.15 451.2 47.95 449.9L48 449.9L48.35 449.85L48.55 448.85L48.8 449.6Q48.8 450 49.1 450.3L49.45 450.95L50.2 452.25L50.95 452.9L51.95 453.15L53.2 453.3Q55.1 453.3 56.15 452.3L57.3 450.85Q58.05 450.15 58.15 449.2L58.3 447.45Q58.3 446.9 57.55 446Q56.65 444.9 55.65 445L55.85 444.2L56.05 443.6L56.15 442.15L55.7 440.35L54.9 439.45Q54.35 438.95 54.3 438.55L54.2 437.65L54.25 437.25L54.2 436.75L54.15 436.75L54.1 436.25L54.05 434.7Q54.05 433.3 54.3 432.05L54.85 430.75L55.05 430.1L55.4 429.35Q56.15 427.4 56.85 426.6L58.15 425.3L58.55 425.05L58.6 425.05Q57.55 427.35 57.2 428.8L56.55 432.6L56.7 433.2L56.55 433.75L56.45 434.95Q56.45 435.4 56.8 436.2L56.8 436.85L57.3 437.5L58.05 440.1L58.85 441.4L59.7 442.65Q60.6 444.4 61.55 445.2L64.7 447.35L68.15 449.75L70.1 450.85L72.65 451.6Q73.25 451.65 74.4 452.35L75.75 452.8L77.35 453.15L80.9 453.3L81.8 453.2L84.55 453.15L84.95 453.15L86.65 453.1L87.45 453.05L87.55 453L90.55 452.45L92.35 452.1L92.75 451.95L96 451L103.6 448.35Q108.35 446.6 110.8 445.1Q111.55 444.6 114.5 443.2Q116.65 442.2 117.3 441.3Q116.75 443.3 112.7 446.45L105.7 451.3Q104 452.4 100.7 452.95L98.55 453.55L96.35 454.2L94 454.8L92.2 455.45Q88.65 456.4 81.75 456.65L81.5 456.55L78.45 456.5L74.45 455.95L72 455.2L69.75 454.35Q68.3 453.55 67.2 453.55Q66.35 453.55 65.6 454.7Q64.5 456.3 63.35 457.05L61.05 458.4L59.2 459.05L57 459.3L55.7 459.5L53.95 458.95L53.5 458.55Q52.9 458.15 52.4 458.2L52.4 458.3L52.35 458.25L51.9 457.75L50.95 456.8L48.9 454.55L48.75 454.6L48.7 454.7L49.5 456.25L50.75 457.8L51.7 458.65L51.75 458.7L52.05 459.05L52.7 459.75Q53.9 460.7 54.8 462.5Q55.55 464.05 58.6 468Q58.95 468.45 60.3 469.3L62.35 470.25L66.75 471.9L71.15 473.5Q73.7 474.35 77.85 475L81.35 475L81.45 474.9L86.6 474.4L89.25 473.85L93.95 472.8L97.55 471.75Q100.55 470.8 102.05 470.05L108.7 466.65L110.3 465.5L111.7 464.4L113.1 463.15L114.35 462L114.8 461.4L115.55 460.85L116.35 459.65L118 457.2L120.8 452.3L121.95 449.9L123 447.45L124.35 444.5L124.5 444.2L124.6 444.3L124.95 443.9L125.05 443.5L125.55 442.55L126.05 440.75L125.7 440.45L124.9 440.6L124.95 440.55L126.4 437.6L127.4 434.8L128.45 431.95L129.15 429L129.1 428.25L128.65 428.2Q128.3 428.2 127.25 428.65L125.7 429.35L128.4 423.95L129.75 420.6L130.55 418.35L130.1 417.8L129.6 417.8Q128.55 418.45 126.75 418.95L123.05 419.75L123.05 419.7L123.25 419.4L128.2 418.1L132.8 403.15Q130.35 402.55 128.1 401.4Q126.7 400.65 125.8 399.85Q123.8 398.05 124.35 396Q125.15 393 129.6 394.1L133.85 395.75Q133.05 391.05 132.8 388.05Q132.55 385.35 133.7 382.3Q135.05 378.8 137.15 378.85L137.85 378.95Q137.3 379 136.85 379.55Q135.95 380.55 135.65 381.7Q135.4 382.4 135.4 383.9Q135.4 385.6 135.65 386.8L135.85 388.2Q136.1 389.15 136.7 389.65L137.35 389.65Q138.3 388.55 139.15 386.35Q140.05 384 140.05 382.4L140 381.35L139.6 380.25L140.3 381.5Q140.9 382.85 141.1 384.15Q142.35 381.25 143.95 379.6Q146.2 377.35 148.45 378.35L149.45 379.1Q148.7 378.9 147.5 379.7Q146.65 380.2 146 381.45L145.15 383.45L143.65 387.15Q142.9 389.35 142.9 390.85L143.05 392.2L143.4 392.25Q143.9 392.25 145.55 389.75L148.25 387.25L149.75 385.2L148.3 389.3Q151.2 386.3 152.55 388.05L152.6 388.1Q151.7 388 150.6 389.45L148.75 392.4L147.35 394.65L146.35 395.75Q145.3 396.6 144.55 396.6Q144 396.6 142.3 395.75Q140.6 394.9 139.2 394.9Q138.45 394.9 137.2 395.85L136.05 396.9Q135.3 398.1 135.3 399.4L135.45 401.9L135.95 402.85L136.4 404.35L136.3 404.35Q136.3 407.55 134.9 413.9Q134.9 414.35 135.2 414.65L135.8 414.65Q135.05 416.65 135.05 418.55Q135.05 419.15 135.35 419.55L135.65 420.35L135.45 421.5L135.15 423L134.9 425.6L134.65 428.3L134.05 430.85L131.05 441.45Q129.35 446.8 127.1 452.05L124.9 457.3L124.85 457.5L123.95 459.2L121.15 465.65Q119.35 469.85 118.9 471.15L118.7 471.75L118.6 472.05L117.3 473.95Q116 476.35 114.8 477.6L113.15 479.35L111.1 481.2L108.55 482.9L105.65 484.4L99.35 487.15L95.45 488.5L94.1 489.15L87.05 491.2Q81.95 492.6 76.95 493.05L72.9 493.2L70.5 492.95L68.35 492.5L65.3 491.7L62.95 490.95Q61.1 489.65 60.85 489.65Q60.55 489.65 60.15 491.3Q59.65 493.4 58.65 494.7L53.9 499.95L50.9 502.65L48 505.2L46.8 506.5L45.85 507.8L45.6 508.15L44.7 510.05Q43.95 512 43.95 512.2L43.55 514.3Q43.2 516.15 43.2 516.65L43.3 520.05L43.7 521.85L43.75 522.7L44.2 523.65Q44.3 524.5 45.75 527.2Q46.55 528.7 48.95 530.75L53.25 534.05Q54.25 534.75 56 535.65L59.2 537.25L64.8 539.5Q67.15 540.45 76.35 541.15L81.35 541.25Q87.75 541.25 98.55 538.95L103.35 537.65L108.05 535.9L113.95 533.15L116.05 531.8L119.95 529.65L121.9 528.45L123.1 527.5L126.6 525Q132.7 521.25 136.05 515.95L137.85 512.6Q138.2 517.25 137.05 522.8Q135.9 528.3 134 532.7L132.3 533.75L129.4 535.8L126.8 537.8L124.45 540.05L122.55 542.1Q120.9 544.1 120.9 544.75L121.2 545.15L121.65 544.7L121.85 544.9Q123.95 542.35 127.8 540.55Q133.3 537.8 136.35 537.8Q138 537.8 138.85 538.4Q139.85 539.1 141.8 541.95L142.4 543.05L142.95 544.3L143.7 545.95Q143.95 546.5 145.15 546.5Q146.15 546.5 147.2 544.8L148.4 542.7Q149.1 541.7 150.1 540.8Q151.05 539.6 152.2 538.7L153.65 538.45Q154.85 538.45 156.3 539.55Q157.6 540.45 157.9 541.2L158 542Q158 542.5 158.3 542.9L158.9 543.65Q159.3 544.25 159.3 544.7Q159.3 545.3 158.75 546.05Q158.15 546.75 158.15 547.7Q158.15 548.8 159.15 550.45L159.65 551.15L158.3 550.8L155.65 549.6L155.6 549.7L152.1 553.85L151.95 553.85Q149 556.3 146.45 555.7Q144.35 555.2 140.65 548.45Q137.15 542.05 134.4 542.15Q131.2 542.3 125.45 547.5Q122.6 550.1 120.4 552.65Q84.15 570.65 42.75 548.8Q41.1 546.8 38.75 544.95Q34.05 541.25 30.5 541.9Q27.7 542.4 25.95 547.95Q24.2 553.65 21.25 554.45Q17.55 555.45 12 551.45L7.2 547.25L4.05 548.1L0.9 547.75Q2.4 547.7 3.15 546.2L3.6 545.15L4.4 544.1L4.35 543.95L3.05 543.5L2 542.55Q1.4 542.55 0.2 543.2L0.4 543Q1.35 542.5 2.25 541.95Q1.15 541 0.7 539.85Q2.25 541.65 4.3 541.65Q5.25 541.65 6.75 539.95Q8.25 538.2 10.05 538.2Q11.75 538.2 12.9 539.2L14.3 540.7L16.35 542.15Q18.3 543.5 19.3 543.5Q20.55 543.5 22.05 542.4L23.8 540.8Q25.25 539.4 26.65 538.9L30.25 538.45L34.45 539.05Q37.6 539.7 39.5 540.65Q40.15 540.95 42.25 542.75Q43.95 544.15 45.5 544.4L46.1 544.4L46.55 543.75L45.25 541.6L43.35 538.9L38.85 534.55L37.7 533.4Q36.2 530.45 35.15 527.4Q32.5 519.5 35.3 512.95Q33.75 506.15 32.85 499.75L32.75 499.55L32.8 499.45Q28.95 471.95 37.15 452.3L36.95 451.9Q32.8 443.05 28.95 436.15Q24.85 418.9 23.85 405.5L19.2 399.85L16.65 396.25Q15.45 394.4 14.95 392Q14.4 389.25 15.35 388.05Q15.95 387.25 16.9 387.45L16.3 387.8M31.75,379.45Q30.95 379.95 30.55 382.5Q30.3 384.15 30.3 386Q30.3 387.9 31.05 391.35L31.3 394.05L31.3 394.85L30.15 394.1L29.15 393.65L27.85 393.2L27.75 393.2L27.9 392.8L27.9 391.8L27.45 388.1L26.8 385.2L25.35 381.95L24.2 380.25L23.2 378.95L23.95 379.6Q25.55 381.25 26.8 384.15Q27 382.85 27.6 381.5Q28.8 378.9 30.75 378.85Q31.6 378.85 32.3 379.4L31.75 379.45M53.5,373.3Q52.95 374.3 52.75 375.85L52.4 378.3L52.3 383.25L52.05 385.8L52.05 387L51.9 388.3L52.05 389.35L51.9 390.35L51.9 394.2L51.8 399L51.8 401.8Q51.65 402.8 52.05 404.7L52.3 407.55Q52.3 408.6 52.45 408.95L52.5 409.15L51.55 409.6Q51.05 409.3 50.1 409.3Q49.5 400.3 49.55 391.15Q49.65 370.85 53.5 370.1Q54.8 369.85 56.6 371.35L55.15 371.55L54.4 372.1L53.9 372.7L53.5 373.3M55.55,375.35Q56.3 375.35 57.3 376.35L58.65 377.85L59.8 379.45L60.5 380.3L61.15 381.05L64.1 387.45L65.65 390.6L67.15 393.8Q67.9 395.8 68.9 397.5L69.5 398.4L70.15 400.15L69.9 401L69.2 401.9L68 402.45L66.2 402.65L65.1 402.9Q61.9 402.65 61.9 404Q62.15 405.75 61.2 405.75Q60.9 405.75 60.2 405.05Q59.55 404.35 58.85 404.3Q58.35 404.75 58.35 405.65L58.15 407Q57.2 406.05 56.8 406.05Q56.55 406.05 55.65 407.9L54.5 409.6L54.2 409.05L53.65 408.9L53.65 408.3L53.35 405.3Q53.1 403.3 53.15 402.35L52.75 396.25L52.9 395.1L52.75 393.9L52.6 391.55L52.65 391.4L52.65 386.3Q52.65 384.9 52.9 383.4L53.15 380.4L53.05 378.35Q53.2 377.2 54.55 375.6L55.55 375.35M55.4,380.1L55.15 378.8Q55.15 377.45 54.15 377.85Q53.55 378.4 53.45 379.6L53.3 381.3L53.05 384.8L53.05 386.65L53.3 388.5L53.15 390.3L53.3 392.1L53.4 395.75L53.5 397.6L53.8 399.4Q53.95 400.8 54.15 401.2L54.5 402.15Q54.8 402.75 55.85 402.8L56.9 401.35Q57.35 400.4 58.05 399.95L60.15 399.5L60.65 399.8L61.15 400.05Q61.9 400.05 61.9 398.4Q61.9 394.6 59.4 387.95Q57.8 383.9 56.95 382.7L56.2 381.4L55.4 380.3L55.4 380.1M118.9,375.25L116.95 376.9Q115.8 377.7 114.05 380.1Q110.55 384.55 109.55 386.55L106.05 392.95Q104.75 395.3 104.1 396.95Q102.8 398.3 101.6 398.65Q100.7 398.15 100.5 397.35L100.45 397.15Q103.8 391.1 107.75 385.1Q116.4 372 120.1 372.4Q121.15 372.5 121.85 374.35L121.3 374.3Q120.1 374.3 118.9 375.25M115.5,382.65Q114.15 382.7 113.6 383.25L113.05 384.15L112.15 385.95Q110.7 388.4 110.3 389.4L108.45 392.9L107.5 394.6Q106.95 395.85 106.95 396.45L107.05 397.1L107.3 397.15L110.1 395.7L111.1 395.7Q111.5 396.1 111.5 396.45L111.3 397.3L111.3 398.35L111.95 398.55L112.4 398.65L113.2 398.4L113.45 399.95L113.85 400Q115.35 400 116.3 386.45L116.4 384.5L116.35 383.5Q116.15 382.9 115.5 382.65M115.65,379.85L117.2 378.35Q118.1 377.55 119 377.55Q119.35 377.55 119.7 378.65L120.05 380.45L120.05 383.6L119.8 388.7L119.95 389.95Q119.7 390.65 119.8 391.25L119.55 393.8L119.55 397.65L118.8 403.55L118.3 408.55L118.15 408.85L117.25 410L117.05 410.1L116.6 410.25Q116.15 410.25 115.4 408.95L114.75 407.65L113.25 404.9L112.5 404.9L110.55 405.5L110.55 404.45L110.9 402.3L110.6 401.8L110.1 401.8L108.7 402.15L107.55 402.85L107.55 402.8L107.8 401.25Q107.8 400.95 108.1 400.4L108.4 399.5Q108.4 399.1 108.1 399.05L107.5 399.05Q106.9 399.1 105.95 399.65L104.55 400.3L104.4 400.25L105.45 397.65Q105.6 397 106.1 396.1L106.9 394.8L110.05 388.8L113.05 382.8Q113.7 381.5 115.65 379.85M126.4,394.5L126 395L125.55 395.7Q125.55 396.15 126.15 397L128.85 398.25Q130 398.8 131.8 398.8L132.95 398.2L133.4 397.25L133.25 396.5Q133 396.15 131.85 395.55Q130.75 394.8 130.6 394.8L127.5 394.45L126.4 394.5M124.3,412.8L123.25 413.5L121.15 414.85L120.9 414.75L120.85 414.7L126.5 410.55L126 412.95Q125.75 412.2 125.4 412.2L124.3 412.8M120.65,414.5L120.25 413.9L120.45 413.9L120.75 413.8L120.65 414.5M82.8,407.75L84.05 408.45L84.6 409.05L85.1 409.5Q85.65 409.5 86.4 407.6Q87.6 406.4 89.7 406.05Q94.25 406.75 95.45 410.25L95.9 412.8L95.85 414.1Q95.8 414.9 95.9 415.4Q95.95 415.75 97.65 416.3L98.4 416.75Q96.8 416.2 93.45 416.1L91.15 416.1L88.7 416.2L85.2 416.95Q83.15 417.45 82.55 418.2L80.8 419.8Q79.7 420.75 79.15 421.55L77.65 423.4L76.3 425.2L75.4 427L74.3 428.85L73.45 427.15L72.8 425.55Q72.6 424.7 71.25 422.2L71.05 421.9L71.3 421.4L70.9 418.75L70.8 416Q70.8 413.1 71.15 412.3L72.05 410.4L73.45 408.7L74.2 408.2L74.65 407.95L73.55 409.3Q72.2 411.15 72.2 412.95Q72.2 414.1 72.95 415.75Q73.4 416.8 73.9 417.25Q75 418.2 77.15 418.2Q79.05 418.2 81.45 416.85Q84.6 415 84.6 412.1Q84.6 410.5 83.65 408.95Q82.9 407.75 81.75 407.15L82.8 407.75M88.5,407.35Q87.75 407.85 87.35 408.45Q86.9 409.05 86.85 409.6L86.85 410.65Q86.85 411.75 87.25 412.55Q88.1 414.2 90.35 414.2Q92.7 414.2 93.75 412.7Q94.45 411.7 94.45 410.5Q94.45 409.35 93.65 408.3Q92.5 406.75 90.1 406.9Q89.45 406.65 88.5 407.35M99.5,417.25L99.55 417.25Q102.25 418.55 102.6 419.65L103.35 421.45L103.3 421.5L103.15 421.35L102.45 421.1L102.3 421.05L101.9 419.85Q101.45 418.65 100.8 418.15L99.5 417.25M88.2,429.45Q94.15 428.9 98.25 426.6Q102.05 424.45 102.35 422L103.1 422.7L103.3 424.6L103.3 425.95L103.05 427.4L103.1 427.6L102.65 428.35L101.8 430.2Q101.25 431.2 100.2 432L98 433.45L95.4 434.95L92.35 436.15Q91.05 436.75 89.7 436.65L87.6 437Q85.55 437 82.6 435.9Q80.1 434.95 79.45 434.3L75.25 430.55L75.35 430.5L75.4 430.2Q75.4 428.3 77.1 425.55Q77.7 424.4 78.75 423.65L78.7 424.4Q78.7 428.6 84.95 429.45L88.2 429.45M85.8,437.5L87.65 437.65L89.4 437.5L90.15 437.3Q92.55 437.3 96.45 435.15L101 432.25Q101.85 431.6 102.35 430.6L103.25 428.7L104.35 427Q104.4 427.15 104.65 427.15L104.75 427.15L104.95 428.25L105.05 430Q105.05 432.85 104.2 434.75Q103.4 436.5 100.7 439.8Q99.5 441.2 95.05 443.7Q88.7 446.35 86.6 446.35Q83.6 446.35 81.75 445.4L80.15 444.2L77.95 442.55L77.05 441.55L76.65 440.7Q75.65 439.25 75.3 437.15L74.9 435.65L75.3 435.4L74.8 432.05L74.8 431.8L74.8 430.95L74.9 430.95L78.9 434.7Q79.65 435.3 81.85 436.3Q84.5 437.5 85.8 437.5M70.1,414.55L70.15 416.05L70.3 418.3L70.55 420.7L70.5 420.9L67.55 418.8L67.15 418.55Q66.25 417.9 65.3 417.5L63.3 417.05L61.4 416.7Q63.25 414.8 65.7 412.95Q68.5 410.8 71.05 409.65L71.35 410L71.6 409.85L71.1 410.8Q70.5 411.95 70.4 412.6L70.1 414.55M49.65,444.95L49.6 445.05L49.75 444.7L49.65 444.95M32.75,401.9Q32.7 402.3 32.8 402.7L32.2 402.3L32.65 401.95L32.75 401.9M36.4,469.75L36.05 472.5L35.55 476.8L35.1 480.75L34.8 485.45L34.8 486.45L35.05 487.5L34.95 487.85L35 488.45L35.3 493.3L35.45 495.3L35.9 499.2L36.15 500.2L36.55 501.2L36.65 502.15Q36.9 502.9 37.95 502.9Q38.55 502.9 39.15 502.5Q40.65 501.45 41.25 501.1L43.2 499.9L44.65 498.85L45.55 497.5L46.2 500.25Q48.95 497.3 50.05 494.55Q51.25 491.4 51.2 486.3L47.15 475.75L46.35 477.9Q46.1 477.75 45.6 477.9L44.1 476.3L42.8 474.7L41.55 473L40.55 471.4L39.35 469.7Q38.6 468.65 37.85 468.3Q36.7 468.15 36.4 469.75" />
<path style="fill:#FFFFFF;fill-opacity:0.4" d="M90.2,415.9L91.35 415.65L94.6 415.25Q95.65 415.65 95.95 416.1L97.4 416.25L97.7 416.5L98.6 416.85L99.7 417.85L100.8 418.9L101.05 419.9L100.6 421.2L99.35 422.45Q98.8 422.95 97.1 423.45L93.3 424.35L92.45 424.45L89 424.45Q85.65 424 83.85 422.95Q82.25 422 82.25 420.9Q82.25 419.6 84 418.35Q85.9 417.05 88.95 416.45Q89.25 416.15 90.2 415.9" />
<path style="fill:none;stroke-width:2;stroke-linecap:butt;stroke-linejoin:miter;stroke-miterlimit:3;stroke:#AE4200;stroke-opacity:1" d="M54.85,377.55Q57.2 376.95 62.8 389.35Q65.6 395.55 67.9 401.85L62.5 402.9L61.5 405.45L58.4 402.9L58.15 407L56.35 404.95L54.4 409.1Q53.6 401.45 53.2 393.7Q52.5 378.15 54.85 377.55M117.55,394.4L115.75 410.05L113.7 404.7L110.65 405.7L111.4 400.6L107.8 402.65L109.85 397.25L104.65 400.15L110.2 389.3Q116.1 378.45 117.55 378.6Q119 378.75 117.55 394.4" />
<path style="fill:none;stroke-width:3;stroke-linecap:round;stroke-linejoin:miter;stroke-miterlimit:3;stroke:#AE4200;stroke-opacity:1" d="M18,384.5Q16.9 379.5 19.45 378.35Q21.7 377.35 23.95 379.6Q25.55 381.25 26.8 384.15M23.05,393.75Q21.45 391.15 19.6 389.3M46.1,542.4Q43.95 539.8 40.9 537.15L39.05 535.65L38.8 535.45M12.05,542.15L6.9 539.85Q6.25 537.65 6.75 535.75M154.65,541.15L159.25 537.05" />
<path style="fill:none;stroke-width:3;stroke-linecap:round;stroke-linejoin:miter;stroke-miterlimit:3;stroke:#AE4200;stroke-opacity:1" d="M26.8,384.15Q27 382.85 27.6 381.5Q28.8 378.9 30.75 378.85Q32.85 378.8 34.2 382.3Q35.35 385.35 35.1 388.05L34.05 395.75L38.3 394.1Q42.75 393 43.55 396Q44.1 398.05 42.1 399.85L39.8 401.4Q37.55 402.55 35.1 403.15L37.85 411.5L46.1 414.95Q41.45 410.75 41.95 404.4L50.2 411.3Q49.5 401.3 49.55 391.15Q49.65 370.85 53.5 370.1Q57.35 369.35 65.8 384.4Q70.05 391.9 73.5 399.55L83.7 395.45L87.55 399.05L92.95 396.2L99.85 398.25Q103.45 391.65 107.75 385.1Q116.4 372 120.1 372.4Q123.8 372.8 122.55 393.9Q121.95 404.45 120.6 414.9L126.5 410.55Q125.65 416.15 121.85 419.75L128.2 418.1L132.8 403.15Q130.35 402.55 128.1 401.4Q126.7 400.65 125.8 399.85Q123.8 398.05 124.35 396Q125.15 393 129.6 394.1L133.85 395.75Q133.05 391.05 132.8 388.05Q132.55 385.35 133.7 382.3Q135.05 378.8 137.15 378.85Q139.1 378.9 140.3 381.5Q140.9 382.85 141.1 384.15Q142.35 381.25 143.95 379.6Q146.2 377.35 148.45 378.35Q151 379.5 149.9 384.5Q149.35 387 148.3 389.3Q151.2 386.3 152.55 388.05Q153.5 389.25 152.95 392Q152.45 394.4 151.25 396.25L148.7 399.85L144.05 405.5Q143.05 418.9 138.95 436.15Q132.45 447.7 126.8 459.7Q119.8 474.6 119.75 478.85Q119.7 482.8 123.75 488.4L133.9 501.45Q139.8 509.5 137.05 522.8Q135.85 528.6 133.75 533.2Q135.9 532.3 137.75 532.2Q140.8 532.1 143.8 536.45Q145.3 538.65 146.2 540.85Q147.7 538.3 149.65 535.9Q153.6 531.05 156.15 531.65Q158.7 532.25 159.2 534.7Q159.5 535.95 159.25 537.05L162.25 537.6Q165.1 538.85 164.6 542.15Q164.1 545.3 160.7 545.3L162.2 547Q163.45 548.95 162.3 550.35Q161.2 551.75 158.3 550.8L155.65 549.6L152.8 553.05Q149.35 556.4 146.45 555.7Q144.35 555.2 140.65 548.45Q137.15 542.05 134.4 542.15Q131.2 542.3 125.45 547.5Q122.6 550.1 120.4 552.65Q84.15 570.65 42.75 548.8Q41.1 546.8 38.75 544.95Q34.05 541.25 30.5 541.9Q27.7 542.4 25.95 547.95Q24.2 553.65 21.25 554.45Q17.55 555.45 12 551.45L7.2 547.25L4.05 548.1Q0.7 548.55 -0.25 546.5Q-1.2 544.45 0.4 543Q1.35 542.5 2.25 541.95Q0.2 540.2 0.5 537.8Q0.85 535.45 3.85 535.35L6.75 535.75Q7.3 533.65 9.25 533.2Q11.8 532.6 15.5 535.4Q17.35 536.8 18.7 538.3Q20.05 536.7 22.25 535.1Q26.6 531.85 30.75 531.9Q34.15 531.95 38.8 535.45Q36.55 531.5 35.15 527.4Q32.5 519.5 35.3 512.95Q27.05 476.6 37.15 452.3L36.95 451.9Q32.8 443.05 28.95 436.15Q24.85 418.9 23.85 405.5L19.2 399.85L16.65 396.25Q15.45 394.4 14.95 392Q14.4 389.25 15.35 388.05Q16.7 386.3 19.6 389.3M37.85,411.5L36.9 411.1Q37.6 417.65 42 422.35L33.55 419.25Q34.95 424.6 41.5 428L34.55 429.25L39.2 432.85Q41.7 453.6 49.75 466.5Q58.05 479.85 71.45 483.55Q80.45 486.05 96.85 480.2Q112.65 474.55 116.5 468.45Q118.7 464.9 123.1 452.9L127 441.55L124.15 441.3Q128.05 436.65 130.05 427.95L123.4 430.5Q128.35 425.2 131.6 417.2L128.2 418.1M37.15,452.3Q41.95 462.65 47.15 475.75L51.2 486.3Q51.25 491.4 50.05 494.55Q48.95 497.3 46.2 500.25L40.2 506.05Q36.95 509.15 35.3 512.95M46.2,500.25Q42.65 487 47.15 475.75" />
<path style="fill:none;stroke-width:3;stroke-linecap:butt;stroke-linejoin:miter;stroke-miterlimit:3;stroke:#AE4200;stroke-opacity:1" d="M19.6,389.3Q18.55 387 18 384.5M26.8,384.15L27.4 385.75Q28.15 388.25 28.7 392.15M141.1,384.15L140.5 385.75Q139.75 388.25 139.2 392.15M148.3,389.3Q146.45 391.15 144.85 393.75M2.25,541.95Q3.35 542.95 4.6 543.45L8.2 543.45M133.75,533.2Q130.4 534.6 126.3 538.1Q122.95 540.95 120.6 543.75M160.7,545.3L157.95 544.9L156.7 544.45" />
<path style="fill:none;stroke-width:2;stroke-linecap:round;stroke-linejoin:miter;stroke-miterlimit:3;stroke:#582903;stroke-opacity:1" d="M95.55,415.85Q95.8 411.3 95 409.8Q94.25 408.4 92.75 407.45Q90.85 406.3 88.9 406.7Q87.1 407.1 85.75 409.5Q85.1 410.7 84.8 411.8Q85.35 414.5 85.05 417.25M84.8,411.8Q84.15 409 82.7 407.8Q80.35 405.9 77.05 406.7Q73.7 407.5 72.2 410.35Q70.25 414.05 70.5 419.05Q70.65 421.55 71.15 423.3M57.2,437.6Q57.5 439.3 58.4 440.5Q61.55 444.6 65.4 447.35M57.2,437.6L54.8 438.7Q52.25 440.15 50.75 442.4L50.5 442.8Q48.55 445.95 48.3 449.75Q48 454 50.75 456.05L52.45 456.95Q56.8 458.65 61.55 453.2L65.4 447.35" />
<path style="fill:none;stroke-width:2;stroke-linecap:round;stroke-linejoin:miter;stroke-miterlimit:3;stroke:#993127;stroke-opacity:1" d="M85.05,417.25Q87.05 416.3 89.4 415.95Q92.85 415.4 95.55 415.85Q98.7 416.3 100.8 418.05Q103.3 420.2 103.7 423.35Q104.1 426.7 102.25 429.9Q99.35 434.85 91.95 436.65Q84.8 438.35 79.1 434.35Q77.3 433.1 75.85 431.45L74.8 430Q75.55 426.95 77.75 423.65Q80.75 419.2 85.05 417.25z" />
<path style="fill:none;stroke-width:2;stroke-linecap:butt;stroke-linejoin:miter;stroke-miterlimit:3;stroke:#582903;stroke-opacity:1" d="M71.15,423.3Q73.65 427.4 74.55 434.35M65.4,447.35Q68.2 449.35 71.45 450.6Q81.6 454.5 95.5 450.85Q103 448.85 110.1 445.1L111.05 444.55Q117.45 441 117.55 440Q117.7 438.9 116.25 437.3L114.75 435.9M71.15,423.3Q67.5 417.2 60.2 417.7" />
<path style="fill:none;stroke-width:2;stroke-linecap:round;stroke-linejoin:miter;stroke-miterlimit:3;stroke:#582903;stroke-opacity:1" d="M59.2,424.4L57.85 429Q57.35 431.2 57.15 433.05Q56.85 435.65 57.2 437.6" />
<path style="fill:#582903;fill-opacity:1" d="M79.3,394.6L81.3 394.05L81.45 394.1L81.5 394.25L81.25 394.7L81 395.1L81 395.2L83.55 394.65L83.65 394.85L82.85 395.5L85.3 396.35L86.15 396.75L86.65 397.3L86.55 397.5Q83.25 398.15 81.05 399.05L77.15 400.7Q76.7 400.85 75.6 401.45L73.85 402.35L73.05 402.9L70.85 404.15L70.6 404.1L70.55 403.7Q70.55 403.1 71.8 401.35Q72.6 399.75 74.35 397.8Q75.25 396.7 77.25 395.6Q78 395.1 79.3 394.6M91.1,395.25L93.15 395.7L93.15 395.6L92.95 395.3L92.75 394.95L92.8 394.8L92.9 394.75L94.5 395.2Q95.55 395.6 96.15 396Q97.7 396.9 98.45 397.75Q99.85 399.3 100.45 400.6Q101.45 402 101.45 402.45L101.45 402.8L101.25 402.8L99.5 401.8L98.85 401.4L97.45 400.65L96.2 400.05L93.1 398.75Q91.35 398.05 88.7 397.5L88.65 397.35L89.05 396.9L89.7 396.6L91.65 395.9L91.05 395.4L91.1 395.25" />
</g>
</svg>
