<?xml version="1.0" encoding="utf-8"?>
<svg version="1.1" id="Layer_1"
xmlns="http://www.w3.org/2000/svg"
xmlns:xlink="http://www.w3.org/1999/xlink"
xmlns:author="http://www.sothink.com"
width="43px" height="25px"
xml:space="preserve">
<g id="188" transform="matrix(1, 0, 0, 1, 21.3, 11.9)">
<path style="fill:#FF0000;fill-opacity:0" d="M-21.3,-11.9L21.4 -11.9L21.4 12.3L-21.3 12.3L-21.3 -11.9" />
<path style="fill:#FFFF00;fill-opacity:1" d="M-4.55,-3.5L-4.3 3.7Q-12.65 3.1 -18.8 -0.55Q-11.65 -4.5 -4.55 -3.5" />
<path style="fill:none;stroke-width:1;stroke-linecap:butt;stroke-linejoin:miter;stroke-miterlimit:3;stroke:#FF9900;stroke-opacity:1" d="M-4.55,-3.5L-4.65 -4.7M-4.55,-3.5L-4.15 -3.6" />
<path style="fill:none;stroke-width:1;stroke-linecap:round;stroke-linejoin:miter;stroke-miterlimit:3;stroke:#FF9900;stroke-opacity:1" d="M-4.55,-3.5L-4.3 3.7Q-12.65 3.1 -18.8 -0.55Q-11.65 -4.5 -4.55 -3.5z" />
<path style="fill:#EC6363;fill-opacity:1" d="M3.3,-5.25Q2.85 -6.3 2.55 -7.9L2.05 -10.6L2 -10.85L2.55 -10.95L3.25 -9.8L4.1 -7.5Q4.7 -5.95 5.25 -5.25L3.3 -5.25M10.3,3.4Q12.8 2.85 14.45 2Q16.7 0.7 18.65 -1.9L20.7 0.05Q18.75 2.45 16 4.1Q13.1 5.8 10.75 5.9L10.25 5.9L10.25 5.8L10.3 3.4M0.75,11.05L2.05 8.9L3.25 6.3L3.75 5.4L5.35 5.3L3.1 8.45L0.75 11.35L0.75 11.05" />
<path style="fill:#BDB8B8;fill-opacity:1" d="M3.75,5.4L3.7 5.4L0.35 5.6L0.3 5.6L-0.1 5.6Q-3.3 5.6 -3.25 4.5L-3.25 3L-3.6 3L-3.85 2.95L-4.1 3.85Q-4.05 4.6 -5.35 4.5L-7.35 4.4L-7.4 2.65Q-7.35 -0.1 -6.9 -1.4Q-6.45 -2.6 -5.7 -2.75Q-4.65 -2.8 -3.65 -1.9L-3.5 -1.7L-2.45 -1.05L-1.15 -1.85Q0 -2.85 0.7 -2.9L3 -2.9Q4.75 -2.75 5.35 -2.9Q7.15 -3.15 8.45 -3.85Q9.65 -4.6 10.1 -5.4L10.8 -5.5L10.7 -4.65L10.4 -2.55L10.3 3.4L10.25 5.8L7.15 5.5L5.35 5.3L3.75 5.4" />
<path style="fill:#DB3434;fill-opacity:1" d="M2.05,-10.6L2.55 -7.9Q2.85 -6.3 3.3 -5.25L1.05 -5.2Q1.15 -7.75 0.8 -8.75L0.8 -10.75L2 -10.85L2.05 -10.6M14.45,2Q12.8 2.85 10.3 3.4L10.4 -2.55L10.7 -4.65L10.8 -5.5L11.2 -5.5Q13.55 -6.15 16.55 -3.85L18.65 -1.9Q16.7 0.7 14.45 2M0.75,11.35L0.6 11.45L0.4 11.45L-0.2 11.4L-1.35 11.45L0.25 5.75L0.3 5.6L0.35 5.6L3.7 5.4L3.75 5.4L3.25 6.3L2.05 8.9L0.75 11.05L0.75 11.35" />
<path style="fill:#9C9C9C;fill-opacity:1" d="M5.25,-5.25L7.1 -5.35L10.1 -5.4Q9.65 -4.6 8.45 -3.85Q7.15 -3.15 5.35 -2.9Q4.75 -2.75 3 -2.9L0.7 -2.9Q0 -2.85 -1.15 -1.85L-2.45 -1.05L-3.5 -1.7L-3.65 -1.9Q-4.65 -2.8 -5.7 -2.75Q-6.45 -2.6 -6.9 -1.4Q-7.35 -0.1 -7.4 2.65L-7.35 4.4L-8.1 4.15Q-8.8 3.5 -8.75 -0.05L-8.55 -3.15Q-8.25 -4.85 -7.5 -4.9L-4.8 -4.85L-4.1 -4.8Q-3.8 -4.75 -3.75 -4.1L-3.55 -2.95L-3.5 -2.85Q-3.25 -2.45 -2.75 -3.1L-2.65 -3.85Q-2.45 -4.95 -1.25 -5.05L1.05 -5.2L3.3 -5.25L5.25 -5.25" />
<path style="fill:none;stroke-width:1;stroke-linecap:butt;stroke-linejoin:miter;stroke-miterlimit:3;stroke:#3C3B3B;stroke-opacity:1" d="M2,-10.85L0.8 -10.75L0.8 -8.75Q1.15 -7.75 1.05 -5.2L3.3 -5.25L5.25 -5.25M2,-10.85L2.55 -10.95L3.25 -9.8L4.1 -7.5Q4.7 -5.95 5.25 -5.25L7.1 -5.35L10.1 -5.4L10.8 -5.5L11.2 -5.5Q13.55 -6.15 16.55 -3.85L18.65 -1.9L20.7 0.05Q18.75 2.45 16 4.1Q13.1 5.8 10.75 5.9L10.25 5.9L10.25 5.8L7.15 5.5L5.35 5.3L3.1 8.45L0.75 11.35L0.6 11.45L0.4 11.45L-0.2 11.4L-1.35 11.45L0.25 5.75L0.3 5.6L-0.1 5.6Q-3.3 5.6 -3.25 4.5L-3.25 3L-3.6 3L-3.85 2.95L-4.1 3.85Q-4.05 4.6 -5.35 4.5L-7.35 4.4L-8.1 4.15Q-8.8 3.5 -8.75 -0.05L-8.55 -3.15Q-8.25 -4.85 -7.5 -4.9L-4.8 -4.85L-4.1 -4.8Q-3.8 -4.75 -3.75 -4.1L-3.55 -2.95L-3.5 -2.85Q-3.25 -2.45 -2.75 -3.1L-2.65 -3.85Q-2.45 -4.95 -1.25 -5.05L1.05 -5.2M10.8,-5.5L10.7 -4.65L10.4 -2.55L10.3 3.4L10.25 5.8M0.3,5.6L0.35 5.6L3.7 5.4L3.75 5.4L5.35 5.3" />
</g>
</svg>
