<?xml version="1.0" encoding="utf-8"?>
<svg version="1.1" id="Layer_1"
xmlns="http://www.w3.org/2000/svg"
xmlns:xlink="http://www.w3.org/1999/xlink"
xmlns:author="http://www.sothink.com"
width="125px" height="94px"
xml:space="preserve">
<g id="277" transform="matrix(1, 0, 0, 1, 62.2, 46.8)">
<path style="fill:#8C8CB6;fill-opacity:1" d="M40,-21.4Q41.05 -21.7 41.05 -22.75L41.05 -23L41.95 -23.1L46.8 -22.95L49.55 -23.35Q50.05 -23.65 50.05 -24.45Q50.05 -25.4 48.7 -25.65L46.3 -25.95L42.6 -26L39.55 -26.1L36.3 -26.4L28 -27.1Q24.2 -27.25 24.2 -24.9L24.3 -24.15Q24.5 -23.65 25.5 -23.25L26.9 -23.25L26.85 -23.05L25.8 -20Q25.55 -19.65 25.45 -19.1L24.4 -16.65Q23.5 -16.75 22.55 -17.75L21.9 -18.4L21.85 -22.05L21.85 -23.05L21.95 -24.4Q22.35 -28.5 25.5 -28.25L38.35 -27.5L48.4 -27.1L49.75 -27.1Q50.55 -26.65 51.1 -25.35L51.15 -25.3L51.2 -25.2L51.6 -23.4L51.6 -22.55L51.55 -20.8L51.5 -16.05L49.8 -15.7L48.25 -15.75L43.3 -16.45L40.85 -16.9L40 -21.4M57.1,-17.8L54.25 -17.5L54.25 -19.55L54.25 -21L54.15 -23.25L55.5 -23.25Q57.1 -22.9 57.3 -22.5L57.45 -20.6L57.4 -17.75L57.1 -17.8M-44.05,14.5L-41.8 14.2L-40.7 14.1L-41 13.75Q-41.7 12.75 -41.7 11.9Q-41.7 11.25 -41.3 10.5Q-40.7 9.45 -39.35 8.2Q-37.6 6.6 -36.25 6.2Q-36.6 7.15 -36.6 8.05Q-36.6 9.35 -35.8 10.5L-34.9 11.5Q-32.9 12.95 -32.1 13.75L-31.4 13.8L-30.75 13.85Q-28.35 14.15 -26.95 15L-27 17.45L-30.45 17.05L-31.05 17L-36.8 16.5L-39.85 16.55L-43.95 16.7L-52.7 17.25Q-52.35 15.35 -51 14.95L-46.45 14.7L-44.05 14.5M30.3,-20.15L31.4 -20.95L31.4 -20.9L30.3 -20.15M56.85,-20.6L56.95 -21.35Q56.95 -22.4 55.9 -22.6Q54.85 -22.75 54.85 -21.45L54.95 -20.85Q55.2 -20.2 55.95 -20.2Q56.65 -20.2 56.85 -20.6M46.5,-21.5Q45.25 -21.25 44.85 -20.55L44.65 -19.35L44.95 -17.95Q45.6 -16.65 47.35 -16.65Q48.45 -16.65 49.2 -17.85Q49.75 -18.75 49.75 -19.3Q49.75 -21.8 46.5 -21.5M12.7,18.05L11.45 18L8.05 18.2L7.45 18.25L7.4 7.75L7.7 7.6L8.95 7.65L12.65 7.55L15.9 7.4Q18.8 8.3 19.2 11.1L19.2 11.25L19.25 13.35L19.25 17.5L19.25 18.55L16.45 18.3L12.7 18.05M13.65,9.2Q13.45 9.35 13.45 9.85L13.55 10.85L13.65 11.15Q14.35 12.15 17.1 12.15Q17.9 12.15 17.9 11.1L17.9 11.05Q17.9 9.9 16.25 9.35L14.55 9L13.65 9.2M11.75,10.55Q11.75 8.85 10.05 8.7Q8.35 8.6 8.35 9.25Q8.35 10.05 8.6 10.65L8.7 10.85Q9.4 12.3 11.3 11.75Q11.7 11.55 11.75 10.8L11.75 10.55M-43.45,-1.2L-42.55 0.6L-42.15 1.55L-45.2 2.55L-49.7 3.9L-49.25 1.2L-43.45 -1.2M-28.85,0.5L-29.2 0Q-30.35 -1.6 -32.55 -1.6L-34.4 -1.05L-39.55 0.65L-38.75 -3.1L-31.75 -5.95L-30.75 -6.5L-29.4 -4.1L-27.7 -0.75L-27.65 -0.45L-28.15 0.05L-28.25 0.15L-28.85 0.5M-9.7,10L-9.35 10.8L-9.35 11.15L-9.2 11.5L-8.6 11.85L-7.85 11.95L-4 12.05Q-2.5 12.05 -2.15 11.35L-2.1 10.65L-2.1 10.5Q-2.1 9.8 -2.25 9.65Q-2.65 9.15 -4.35 8.95L-9.25 8.7Q-9.85 8.85 -9.85 9.55L-9.7 10M-8.45,11.3L-8.85 10.9L-8.35 11.3L-8.45 11.3M-5.7,9.4L-5.25 9.4L-5.25 9.45L-5.7 9.4M-10.55,8L-10.3 7.95Q-6.6 7.7 -1.3 7.9L-1.3 8.05L-1.4 10.3L-1.35 10.6L-1.3 13.1L-1.3 14.4Q-1.35 15.95 -1.95 16.9Q-3 18.4 -5.6 18.4L-6.25 18.4L-10.65 18.25L-10.65 15.7L-10.65 14.85L-10.65 14.3L-10.65 14L-10.55 8M-23.05,12.05L-22.9 11.1Q-22.5 8.65 -21 8.4L-19.5 8.4L-19.75 13.3L-19.75 16.85L-19.85 17.9Q-20.15 19.15 -20.9 19.15Q-22.15 19.15 -23.05 17.95L-23.1 17.85L-23.35 17.45L-23.4 15.85L-23.2 13.95L-23.1 13.35L-23.1 12.6L-23.05 12.05M-20.3,10.35Q-20.3 9.3 -21 9.2Q-21.7 9.05 -21.7 10.45Q-21.7 11.55 -20.95 11.55Q-20.3 11.55 -20.3 10.35" />
<path style="fill:#FF9B58;fill-opacity:1" d="M21.45,-22.1L20.15 -22.25L18.05 -21.85Q18.15 -23.3 18.8 -23.9Q19.45 -24.5 21.15 -24.5L21.65 -24.35L21.95 -24.4L21.85 -23.05L21.85 -22.05L21.45 -22.1" />
<path style="fill:#FF6600;fill-opacity:1" d="M53.95,-14.2Q53.45 -12.55 52.1 -12.55Q50.95 -12.55 50.7 -13L51.35 -14.75L51.5 -16.05L51.6 -16.1Q51.95 -16.2 52.7 -16.85Q53.4 -17.45 53.9 -17.5L54.25 -17.5L54.15 -15.1L53.95 -14.2M22.3,-13L20.5 -12.9Q19.2 -12.9 18.8 -13.75Q18.5 -14.4 18.5 -16.2L18.05 -21.45L18.05 -21.85L20.15 -22.25L21.45 -22.1L21.85 -22.05L21.9 -18.4Q21.95 -15.15 22.1 -14.05L22.3 -13" />
<path style="fill:#6E6E98;fill-opacity:1" d="M54.15,-15.1L54.25 -17.5L57.1 -17.8L57.4 -17.75L57.25 -15.35Q57.2 -14.7 56 -14.25L53.95 -14.1L53.95 -14.2L54.15 -15.1M51.5,-16.05L51.35 -14.75L50.7 -13Q49.8 -11.8 48.15 -11.45L42.05 -10.65L41.2 -14.75L40.85 -16.9L43.3 -16.45L48.25 -15.75L49.8 -15.7L51.5 -16.05M-17.35,29L-17.95 29Q-19.9 29 -21.1 28.3Q-22.4 27.55 -22.85 26.05L-23.1 24.9L-23.1 25.05Q-26.05 26.05 -26.75 23.25L-26.95 20.8L-27 18.25L-27 17.95L-27.1 17.95L-31.1 17.95L-43.75 18L-52.75 18L-52.7 17.25L-43.95 16.7L-39.85 16.55L-36.8 16.5L-31.05 17L-30.45 17.05L-27 17.45L-26.95 15L-26.95 14.35Q-26.8 11.8 -25.95 11.05L-22.9 11.1L-23.05 12.05L-23.1 12.05L-23.1 12.6L-23.1 13.35L-23.2 13.95L-23.4 15.85L-23.35 17.45L-23.1 17.85L-23.05 17.95Q-22.15 19.15 -20.9 19.15Q-20.15 19.15 -19.85 17.9L-19.75 16.85L-19.75 13.3L-19.5 8.4L-16.95 8.3L-16.85 8.3L-16.8 8.3L-16.8 16.95L-17 24.8L-17.1 28.7L-17.1 29L-17.35 29M-46.45,14.7L-46.5 8.05L-49.7 9.25Q-50.5 9.25 -51.9 6.95L-50.15 6.15L-49.8 4.25L-49.7 3.9L-45.2 2.55L-42.15 1.55L-41.9 2.1L-39.65 1L-39.55 0.65L-34.4 -1.05L-32.55 -1.6Q-30.35 -1.6 -29.2 0L-28.85 0.5L-28.25 0.15L-28.45 0.65Q-29.1 2.4 -29.8 6.4L-30.7 13.4L-30.75 13.85L-31.4 13.8L-32.1 13.75Q-32.9 12.95 -34.9 11.5L-35.8 10.5Q-36.6 9.35 -36.6 8.05Q-36.6 7.15 -36.25 6.2Q-37.6 6.6 -39.35 8.2Q-40.7 9.45 -41.3 10.5Q-41.7 11.25 -41.7 11.9Q-41.7 12.75 -41 13.75L-40.7 14.1L-41.8 14.2L-44.05 14.5L-46.45 14.7M23.75,-15.35L22.45 -12.35L22.3 -13L22.1 -14.05Q21.95 -15.15 21.9 -18.4L22.55 -17.75Q23.5 -16.75 24.4 -16.65L23.75 -15.35M16.45,18.3L19.25 18.55L19.25 23.25L19.25 24.8Q19.7 28.1 16.55 29.15L12.7 29.05L9.3 29L7.9 29.1L7.75 29.1L7.55 29.1L7.4 29.1Q7.15 25 7.4 19.85L7.45 18.5L7.45 18.25L8.05 18.2L11.45 18L12.7 18.05L16.45 18.3M-0.8,29L-10.1 28.9L-10.3 28.9L-10.7 29L-10.7 28.85L-10.95 28.85L-10.75 22.15L-10.65 18.25L-6.25 18.4L-5.6 18.4Q-3 18.4 -1.95 16.9Q-1.35 15.95 -1.3 14.4L-1.3 13.1L-1.35 10.6L-1.4 10.3L-1.3 8.05L-1.3 7.9L0.95 7.9Q0.85 10.25 0.9 15.1L0.95 23.05L1.1 29.05L-0.8 29M7.4,7.65L7.7 7.6L7.4 7.75L7.4 7.65" />
<path style="fill:#F58D48;fill-opacity:1" d="M51.5,-16.05L51.55 -20.8L51.6 -22.55L51.6 -23.4L51.2 -25.2L51.65 -25.35Q53.6 -25.35 54.05 -23.8L54.15 -23.25L54.25 -21L54.25 -19.55L54.25 -17.5L53.9 -17.5Q53.4 -17.45 52.7 -16.85Q51.95 -16.2 51.6 -16.1L51.5 -16.05" />
<path style="fill:#B7B7DE;fill-opacity:1" d="M32.1,-25.1Q27.85 -25.1 26.95 -23.4L26.9 -23.25L25.5 -23.25Q24.5 -23.65 24.3 -24.15L24.2 -24.9Q24.2 -27.25 28 -27.1L36.3 -26.4L39.55 -26.1L42.6 -26L46.3 -25.95L48.7 -25.65Q50.05 -25.4 50.05 -24.45Q50.05 -23.65 49.55 -23.35L46.8 -22.95L41.95 -23.1L41.05 -23Q40.85 -24.8 37.95 -25.1L35.9 -24.95L32.1 -25.1M55.95,-20.2Q55.2 -20.2 54.95 -20.85L54.85 -21.45Q54.85 -22.75 55.9 -22.6Q56.95 -22.4 56.95 -21.35L56.85 -20.6Q56.65 -20.2 55.95 -20.2M14.55,9L16.25 9.35Q17.9 9.9 17.9 11.05L17.9 11.1Q17.9 12.15 17.1 12.15Q14.35 12.15 13.65 11.15L13.55 10.85L13.45 9.85Q13.45 9.35 13.65 9.2L14.55 9M11.75,10.8Q11.7 11.55 11.3 11.75Q9.4 12.3 8.7 10.85L8.6 10.65Q8.35 10.05 8.35 9.25Q8.35 8.6 10.05 8.7Q11.75 8.85 11.75 10.55L11.75 10.8M-9.85,9.55Q-9.85 8.85 -9.25 8.7L-4.35 8.95Q-2.65 9.15 -2.25 9.65Q-2.1 9.8 -2.1 10.5L-2.1 10.65L-2.15 11.35Q-2.5 12.05 -4 12.05L-7.85 11.95L-8.6 11.85L-9.2 11.5L-9.35 11.15L-9.35 10.8L-9.7 10L-9.85 9.55M-8.35,11.3L-8.85 10.9L-8.45 11.3L-8.35 11.3M-5.25,9.45L-5.25 9.4L-5.7 9.4L-5.25 9.45M-20.95,11.55Q-21.7 11.55 -21.7 10.45Q-21.7 9.05 -21 9.2Q-20.3 9.3 -20.3 10.35Q-20.3 11.55 -20.95 11.55" />
<path style="fill:#595980;fill-opacity:1" d="M41.05,-22.75Q41.05 -21.7 40 -21.4L39.15 -24.05Q38.6 -24.7 35.9 -24.95L37.95 -25.1Q40.85 -24.8 41.05 -23L41.05 -22.75M49.75,-19.3Q49.75 -18.75 49.2 -17.85Q48.45 -16.65 47.35 -16.65Q45.6 -16.65 44.95 -17.95L44.65 -19.35L44.85 -20.55Q45.25 -21.25 46.5 -21.5Q49.75 -21.8 49.75 -19.3M46.05,-18.9L46.25 -18.3Q46.55 -17.65 47.35 -17.65Q47.9 -17.65 48.2 -18.15L48.4 -18.85Q48.4 -19.85 47.25 -19.9Q46.05 -19.95 46.05 -18.9" />
<path style="fill:#3D3D5F;fill-opacity:1" d="M47.25,-19.9Q48.4 -19.85 48.4 -18.85L48.2 -18.15Q47.9 -17.65 47.35 -17.65Q46.55 -17.65 46.25 -18.3L46.05 -18.9Q46.05 -19.95 47.25 -19.9" />
<path style="fill:#A4A4CD;fill-opacity:1" d="M34.75,-14.95Q34.6 -15.55 34.6 -16.2L34.55 -16.55L34.55 -16.65Q34.35 -19.55 32.45 -19.55L30.9 -19.35L30.65 -19.35L29.8 -19.6L29.85 -19.7L30.1 -19.95L30.15 -20.05L30.25 -20.1L30.3 -20.15L31.4 -20.9L32.75 -21.25Q34.2 -21.25 35.15 -20.35Q36.2 -19.4 36.2 -17.75L36.15 -16.9Q36 -16 35.45 -15.45Q35.15 -15.15 34.75 -14.95" />
<path style="fill:#C3C3E2;fill-opacity:1" d="M-54.5,36.45L-54.55 36.3L-56.8 28.85L-49.35 28.85L-41.15 29.5L-35.25 29.75L-29.05 29L-22.45 28.2L-21.1 28.3Q-19.9 29 -17.95 29L-17.35 29L-17.1 29.05Q-17.3 31.45 -17.1 34.15L-16.2 34.15L-13.9 34.2L-11 34.15L-10.95 29.15L-10.1 28.9L-0.8 29L1.1 29.3Q1 30.85 1.2 33.5L7.3 33.4L7.4 29.2L7.4 29.15L7.75 29.1L7.9 29.1L9.3 29L12.7 29.05L16.55 29.15Q19.7 28.1 19.25 24.8L19.25 23.25Q20.95 22.7 23.55 22.65Q29.25 22.6 32.4 21Q35.3 19.55 38.7 16.25L41.9 13.1L41.8 14Q41.8 14.8 42.25 15.3Q42.7 15.75 43.4 15.75Q45.25 15.75 46.15 14Q46.8 12.75 46.8 11.25Q46.8 9.85 46.4 9.4L46 9.15Q47 8.3 47.9 7.8L51.2 6.15Q52.8 5.3 55.95 5.15L54.45 8.45L51.4 14L48.55 20.55Q46.7 24.6 43.75 27.75L42.4 29.95Q-1.05 37.55 -54.5 36.3L-54.5 36.45M-9.25,-10.1L-6.7 -10L-7.3 -11.75L-9.65 -12.75Q-10.5 -13.2 -10.5 -14.55Q-10.5 -15.7 -9.5 -16.35Q-8.55 -16.95 -7.1 -16.95Q-5.5 -16.95 -4.5 -16.15Q-3.45 -15.3 -2.4 -14.9L-2.4 -14.8L-2.6 -13.5L2.4 -12.8Q5.95 -12.45 7.85 -12.85L10.95 -13.3L11.15 -8.9Q13.4 -8.25 13.4 -5.15L13.15 -0.2Q11.65 0.1 10.45 1.2L10.25 0.15Q9.95 -1.85 9.95 -4.45Q9.4 -5.7 7.65 -6.8Q5.9 -7.95 4.55 -8L-2.2 -8.55L-6.4 -8.95L-8.55 -9.1L-11.45 -8.75L-13.05 -9.1L-13.15 -9.15L-13.05 -9.25L-12.35 -9.65L-12.2 -9.7L-9.25 -10.1M37.05,-0.7L36.1 -0.65Q34.6 -0.65 33.35 -2Q32.1 -3.35 31.1 -3.35L29.1 -2.85L26 -2.35Q23.7 -2.35 22.75 -3.5Q21.55 -5 21.55 -9.1L21.65 -10.3L22.45 -12.35L23.75 -15.35L24.4 -16.65L25.45 -19.1Q25.55 -19.65 25.8 -20L26.85 -23.05Q27.3 -22.7 28 -22.7L30.85 -22.9L33.55 -23.15L34.85 -23Q36.25 -22.65 37.05 -21.4L37.35 -20.85Q37.85 -19.75 38.25 -17.1L38.45 -15.65L38.5 -14.9L38.6 -13.85L38.65 -13.2L38.75 -12.05L38.95 -10.25L39.8 -2.1Q38.3 -1.55 37.05 -0.7M30.25,-20.1L30.15 -20.05L30.1 -19.95L29.85 -19.7L29.8 -19.6L29.45 -18.95L29.4 -18.95L29.25 -18.95Q28.35 -18.9 27.5 -17.9L27.05 -17.2Q26.7 -16.65 26.65 -15.95L26.6 -15.55Q26.6 -13.5 28.5 -12.35Q30 -11.45 31.6 -11.45Q32.9 -11.45 34.45 -12.3L34.65 -12.4Q36.05 -13.3 36.05 -14.25L35.85 -15.1L35.8 -15.15L35.45 -15.45Q36 -16 36.15 -16.9L36.2 -17.75Q36.2 -19.4 35.15 -20.35Q34.2 -21.25 32.75 -21.25L31.4 -20.9L31.4 -20.95L30.3 -20.15L30.25 -20.1" />
<path style="fill:#8080AD;fill-opacity:1" d="M29.45,-18.95L29.8 -19.6L30.65 -19.35L30.9 -19.35L32.45 -19.55Q34.35 -19.55 34.55 -16.65L34.55 -16.55L34.6 -16.2Q34.6 -15.55 34.75 -14.95L32.8 -14.6Q31.45 -14.6 30.5 -15.2Q29.9 -15.55 29.6 -16.1L29.5 -16.3L29.2 -17.45L29.2 -17.75L29.4 -18.75L29.45 -18.95" />
<path style="fill:#ECECF7;fill-opacity:1" d="M40.85,-16.9L41.2 -14.75L42.05 -10.65L43.55 -3.15L41.55 -2.7L39.8 -2.1L38.95 -10.25L38.75 -12.05L38.65 -13.2L38.6 -13.85L38.5 -14.9L38.45 -15.65L38.25 -17.1Q37.85 -19.75 37.35 -20.85L37.05 -21.4Q36.25 -22.65 34.85 -23L33.55 -23.15L30.85 -22.9L28 -22.7Q27.3 -22.7 26.85 -23.05L26.9 -23.25L26.95 -23.4Q27.85 -25.1 32.1 -25.1L35.9 -24.95Q38.6 -24.7 39.15 -24.05L40 -21.4L40.85 -16.9M9.85,1.75L10.45 1.2Q11.65 0.1 13.15 -0.2L14 -0.3L18 -0.25L20.7 -0.1L26.25 0.25Q32.45 0 35.45 0.45Q34.7 1.15 33.2 3.4L19.9 2.85L12.8 2.35L11.9 2.3L9.2 2.6L9.85 1.75" />
<path style="fill:#A9A9CB;fill-opacity:1" d="M29.4,-18.75L29.2 -17.75L29.2 -17.45L29.5 -16.3L29.6 -16.1Q29.9 -15.55 30.5 -15.2Q31.45 -14.6 32.8 -14.6L34.75 -14.95Q35.15 -15.15 35.45 -15.45L35.8 -15.15L35.85 -15.1L36.05 -14.25Q36.05 -13.3 34.65 -12.4L34.45 -12.3Q32.9 -11.45 31.6 -11.45Q30 -11.45 28.5 -12.35Q26.6 -13.5 26.6 -15.55L26.65 -15.95Q26.7 -16.65 27.05 -17.2L27.5 -17.9Q28.35 -18.9 29.25 -18.95L29.4 -18.95L29.45 -18.95L29.4 -18.75" />
<path style="fill:#8D8DB1;fill-opacity:1" d="M19.25,18.55L19.25 17.5L29.55 16.6Q32.1 16 34.5 13.15L37.85 8.75Q41.4 4.85 48.8 3.05L55.55 2.8L56.75 2.85L55.95 5.15Q52.8 5.3 51.2 6.15L47.9 7.8Q47 8.3 46 9.15L44.85 8.95L44.6 9.05Q44.35 9.2 44 9.5L43.25 10.2L42.95 10.55L42.75 10.85Q42.05 11.95 41.9 13.1L38.7 16.25Q35.3 19.55 32.4 21Q29.25 22.6 23.55 22.65Q20.95 22.7 19.25 23.25L19.25 18.55M-55.25,25.8Q-52.85 25.55 -48.15 25.75L-43.65 26L-31.4 25.6L-24.35 25.95L-22.85 26.05Q-22.4 27.55 -21.1 28.3L-22.45 28.2L-29.05 29L-35.25 29.75L-41.15 29.5L-49.35 28.85L-56.8 28.85L-57.65 25.85L-55.25 25.8M-12.2,-9.7L-12.1 -14.55L-12.2 -20.2L-8.65 -19.95Q-5.85 -19.85 -2.35 -19.9L-2.4 -16.25L-2.4 -14.9Q-3.45 -15.3 -4.5 -16.15Q-5.5 -16.95 -7.1 -16.95Q-8.55 -16.95 -9.5 -16.35Q-10.5 -15.7 -10.5 -14.55Q-10.5 -13.2 -9.65 -12.75L-7.3 -11.75L-6.7 -10L-9.25 -10.1L-12.2 -9.7M35.65,0.25L35.45 0.45Q32.45 0 26.25 0.25L20.7 -0.1L18 -0.25L20.25 -6.35L21.65 -10.3L21.55 -9.1Q21.55 -5 22.75 -3.5Q23.7 -2.35 26 -2.35L29.1 -2.85L31.1 -3.35Q32.1 -3.35 33.35 -2Q34.6 -0.65 36.1 -0.65L37.05 -0.7L36.6 -0.45L35.65 0.25M7.4,29.1L7.55 29.1L7.75 29.1L7.4 29.15L7.4 29.1M1.1,29.05L1.1 29.2L1.1 29.3L-0.8 29L1.1 29.05M-10.7,29L-10.3 28.9L-10.1 28.9L-10.95 29.15L-10.95 28.85L-10.7 28.85L-10.7 29M-17.1,29L-17.1 29.05L-17.35 29L-17.1 29" />
<path style="fill:#484858;fill-opacity:1" d="M-3.35,-29.95L-3.4 -34.2L-5.85 -34.55L-6.6 -34.65L-7.1 -34.7L-9.75 -35Q-10.3 -35 -10.2 -37.5L-10.1 -41.2L-8.7 -41.65L-8.6 -41.7L-6.8 -42.2L-3.4 -42.55Q-2.75 -42.65 -2.75 -43.7L-2.8 -45.45Q-2.45 -46.15 -1.6 -46.3L-0.1 -46.3Q0.1 -45.45 -0.3 -42.95Q2.45 -42.55 6.75 -40.4L10.65 -38.1Q11.45 -37.5 11.45 -37.1Q11.45 -34.5 10.8 -33.65Q10.35 -33.05 9.25 -33.05L8.75 -33.1L6.6 -33.45L5.15 -33.7Q2.45 -34.05 -0.1 -33.7L-0.3 -29.6L-3.35 -29.95M2.05,-39.75L0.15 -39.95L0.05 -37.15L0.1 -36.25L0.75 -36.15L3.7 -35.9L4.05 -35.9L4.4 -39.05L2.05 -39.75M6.2,-37.95L6.1 -37L6 -36.25Q6 -35.25 6.85 -35.2L9.1 -34.85Q9.45 -35.55 9.45 -36.8L8.15 -37.55L6.4 -38.35L6.2 -37.95M-6.8,-40.1L-8.25 -40.25L-8.35 -36.65L-6.8 -36.3L-5.75 -36.15L-4.5 -36L-4.2 -36L-4.2 -37.6L-4.25 -39.25Q-4.3 -39.85 -5.2 -39.9L-6.8 -40.1" />
<path style="fill:#F3B288;fill-opacity:1" d="M59.6,-0.3Q58.9 -1.95 57.2 -1.95L43.95 -0.8L43.35 -0.75L40.05 -0.55L36.6 -0.45L37.05 -0.7Q38.3 -1.55 39.8 -2.1L41.55 -2.7L43.55 -3.15L47.25 -3.7L53.3 -4.2L59.05 -4.6Q61.15 -4.6 61.25 -3.55Q61.5 -0.55 61.7 0L61.7 2L60.55 2.45L59.6 -0.3M-43.35,18.3L-31.1 18.05L-27.1 17.95L-27 17.95L-27 18.25L-26.95 20.8L-31.15 20.85L-37.55 21L-52.4 21.45L-55.75 21.2L-58.5 20.95L-61.5 20.7L-61.25 18.45L-43.7 18.3L-43.35 18.3M-0.3,-29.6L0.55 -29.5Q3.3 -29.1 6.7 -29.4Q10.25 -29.7 11.8 -26.85Q12.9 -24.85 12.9 -22.3Q12.9 -19.75 12.5 -19.5L11.05 -19.35L10.15 -21.7L9.2 -24.7Q8.45 -26.05 6.7 -26.55L2 -27.15L-3.3 -27.55L-11.6 -26.55L-13.4 -27Q-12.8 -28.7 -11.65 -29.35L-4.95 -30L-3.35 -29.95L-0.3 -29.6M7.4,29.15L7.4 29.2L5.55 29.2L5.55 29.1L5.15 23.15L5.25 19.1L5.25 13.65L5.15 10.35Q4.95 8.7 4 7.8Q3.55 7.4 1.1 6.9L1.05 6.9L1.1 5.6L7.35 5.85L7.4 7.45L7.4 7.65L7.4 7.75L7.45 18.25L7.45 18.5L7.4 19.85Q7.15 25 7.4 29.1L7.4 29.15M19.2,11.25L19.2 11.1L22.2 10.95Q24.9 10.65 26.85 9.8L26.8 11.2L26.75 11.85Q26.35 13.55 23.75 13.55L19.25 13.35L19.2 11.25M-10.65,14L-10.65 14.3L-10.65 14.85L-10.65 15.7L-10.65 18.25L-10.75 22.15L-10.95 28.85L-12.85 28.75L-13.25 25.5L-13.05 20.2L-12.9 14.15L-13 10Q-13.2 8.6 -13.8 8.15Q-14.15 7.9 -14.55 7.9L-15.7 8.1L-16.8 7.9L-16.85 6.85L-16.85 6.5L-13.55 6.35L-10.65 6.25L-10.55 8L-10.65 14" />
<path style="fill:#DE7D3D;fill-opacity:1" d="M19.25,13.35L23.75 13.55Q26.35 13.55 26.75 11.85L26.8 11.2L26.85 9.8L28 9.2Q30.3 7.8 32.4 4.6L33.2 3.4Q34.7 1.15 35.45 0.45L35.65 0.25L36.6 -0.45L40.05 -0.55L43.35 -0.75L43.95 -0.8L57.2 -1.95Q58.9 -1.95 59.6 -0.3L60.55 2.45L56.75 2.85L55.55 2.8L48.8 3.05Q41.4 4.85 37.85 8.75L34.5 13.15Q32.1 16 29.55 16.6L19.25 17.5L19.25 13.35M-57.65,25.85Q-59.5 25.6 -60.55 24.6Q-62 23.2 -61.65 20.65L-61.25 18.45L-61.5 20.7L-58.5 20.95L-55.75 21.2L-52.4 21.45L-37.55 21L-31.15 20.85L-26.95 20.8L-26.75 23.25Q-26.05 26.05 -23.1 25.05L-23.1 24.9L-22.85 26.05L-24.35 25.95L-31.4 25.6L-43.65 26L-48.15 25.75Q-52.85 25.55 -55.25 25.8L-57.65 25.85M-12.2,-20.2Q-13.95 -20.4 -13.95 -20.75L-13.95 -21.9Q-14.05 -25.15 -13.4 -27L-11.6 -26.55L-3.3 -27.55L2 -27.15L6.7 -26.55Q8.45 -26.05 9.2 -24.7L10.15 -21.7L11.05 -19.35L10.8 -19.35L9 -19.4L3.95 -19.7L-2.35 -19.9Q-5.85 -19.85 -8.65 -19.95L-12.2 -20.2M1.1,29.2L1.1 29.05L0.95 23.05L0.9 15.1Q0.85 10.25 0.95 7.9L0.95 7.65L1.05 6.9L1.1 6.9Q3.55 7.4 4 7.8Q4.95 8.7 5.15 10.35L5.25 13.65L5.25 19.1L5.15 23.15L5.55 29.1L5.55 29.2L1.1 29.2M-17.1,28.7L-17 24.8L-16.8 16.95L-16.8 8.3L-16.8 8.2L-16.8 8.1L-16.8 7.9L-15.7 8.1L-14.55 7.9Q-14.15 7.9 -13.8 8.15Q-13.2 8.6 -13 10L-12.9 14.15L-13.05 20.2L-13.25 25.5L-12.85 28.75L-13.45 28.8L-17.1 28.7" />
<path style="fill:#393943;fill-opacity:1" d="M7.85,-12.85Q5.95 -12.45 2.4 -12.8L-2.6 -13.5L-2.4 -14.8L-2.4 -14.9L-2.4 -16.25L-2.35 -19.9L3.95 -19.7L9 -19.4L10.8 -19.35Q10.7 -16.2 10.9 -13.6L10.95 -13.3L7.85 -12.85M-10.25,-5.3Q-9.95 -6.7 -8.5 -6.7Q-7.5 -6.7 -7.1 -6.15L-6.4 -4.1L-6.4 -2.75L-10.4 -2.9L-10.25 -5.3M-3.35,-2.65L-3.2 -4.75Q-2.85 -6.2 -1.65 -6.2Q-0.8 -6.2 -0.4 -4.95Q-0.1 -4.05 -0.1 -3.05Q-0.1 -2.45 -0.55 -2.35L-1.5 -2.35Q-3.65 -2.35 -3.35 -2.65" />
<path style="fill:#A9A9C9;fill-opacity:1" d="M-43.7,18.3L-43.75 18L-31.1 17.95L-31.1 18.05L-43.35 18.3L-43.7 18.3M-44.05,-12.7L-45.15 -13.45L-46.6 -12.85L-46.85 -16.8L-46.85 -17.05L-46.4 -16.95Q-30.1 -21.55 -29.4 -21.55Q-27.8 -21.55 -26.35 -18.1L-44.05 -12.7M-28.05,1L-26.05 1.25L-22.5 0.85L-19.65 1L-16.7 1.25L-14.7 1.25Q-14.1 1.1 -14.1 -0.15Q-14.1 -1.2 -14.6 -1.8L-14.75 -2.05L-14.7 -2.05L-14.4 -2.4L-14.4 -5.4Q-14.4 -8.15 -13.15 -9.15L-13.05 -9.1L-11.45 -8.75L-8.55 -9.1L-6.4 -8.95L-2.2 -8.55L4.55 -8Q5.9 -7.95 7.65 -6.8Q9.4 -5.7 9.95 -4.45Q9.95 -1.85 10.25 0.15L10.45 1.2L9.85 1.75L9.2 2.6Q8.25 3.9 7.85 5.65L7.4 7.45L7.35 5.85L1.1 5.6L1.05 6.9L0.95 7.65L0.95 7.9L-1.3 7.9Q-6.6 7.7 -10.3 7.95L-10.55 8L-10.65 6.25L-13.55 6.35L-16.85 6.5L-16.85 6.85L-16.8 7.9L-16.8 8.1L-18.2 7.35Q-20.45 6.05 -22.3 6.5Q-25.1 7.15 -27.05 3.55L-28.05 1M-23.9,-10.75L-21.85 -3.75L-21.15 -1.95L-22.35 -2.05Q-26.45 -2.05 -27.7 -0.75L-29.4 -4.1L-30.75 -6.5Q-28.05 -8.2 -27.2 -11.35L-27 -12.35L-28.8 -13.3L-25.1 -14.45L-23.9 -10.75M-10.4,-2.9L-6.4 -2.75L-6.4 -4.1L-7.1 -6.15Q-7.5 -6.7 -8.5 -6.7Q-9.95 -6.7 -10.25 -5.3L-10.4 -2.9M-1.5,-2.35L-0.55 -2.35Q-0.1 -2.45 -0.1 -3.05Q-0.1 -4.05 -0.4 -4.95Q-0.8 -6.2 -1.65 -6.2Q-2.85 -6.2 -3.2 -4.75L-3.35 -2.65Q-3.65 -2.35 -1.5 -2.35" />
<path style="fill:#8686AA;fill-opacity:1" d="M-21,8.4Q-22.5 8.65 -22.9 11.1L-25.95 11.05Q-26.8 11.8 -26.95 14.35L-26.95 15Q-28.35 14.15 -30.75 13.85L-30.7 13.4L-29.8 6.4Q-29.1 2.4 -28.45 0.65L-28.25 0.15L-28.15 0.05L-28.05 1L-27.05 3.55Q-25.1 7.15 -22.3 6.5Q-20.45 6.05 -18.2 7.35L-16.8 8.1L-16.8 8.2L-16.8 8.3L-16.85 8.3L-16.95 8.3L-19.5 8.4L-21 8.4M-23.1,12.6L-23.1 12.05L-23.05 12.05L-23.1 12.6M-27.1,17.95L-31.1 18.05L-31.1 17.95L-27.1 17.95" />
<path style="fill:#C5C5E0;fill-opacity:1" d="M-24.3,-18.75L-26.35 -18.1Q-27.8 -21.55 -29.4 -21.55Q-30.1 -21.55 -46.4 -16.95L-46.85 -17.05Q-46.75 -19.8 -44.25 -20.55Q-40.5 -21.15 -38.2 -22.2L-27.3 -24.45Q-26.15 -24.45 -23.95 -18.9L-24.3 -18.75M-14.6,-1.8Q-14.1 -1.2 -14.1 -0.15Q-14.1 1.1 -14.7 1.25L-16.7 1.25L-19.65 1L-22.5 0.85L-26.05 1.25L-28.05 1L-28.15 0.05L-27.65 -0.45L-27.7 -0.75Q-26.45 -2.05 -22.35 -2.05L-21.15 -1.95L-21.85 -3.75L-23.9 -10.75L-25.1 -14.45L-22.9 -15.15L-22.6 -15.25Q-20.8 -10 -18.45 -1.75L-16.95 -1.7L-14.75 -2.05L-14.6 -1.8" />
<path style="fill:#8282AD;fill-opacity:1" d="M-26.35,-18.1L-24.3 -18.75L-23.95 -18.9L-22.6 -15.25L-22.9 -15.15L-25.1 -14.45L-28.8 -13.3Q-31.9 -14.65 -34.9 -13.7L-34.95 -13.8L-35.1 -13.75L-41.75 -11.05L-44.05 -12.7L-26.35 -18.1" />
<path style="fill:#9E9EBF;fill-opacity:1" d="M15.9,7.4L12.65 7.55L8.95 7.65L7.7 7.6L7.4 7.65L7.4 7.45L7.85 5.65Q8.25 3.9 9.2 2.6L11.9 2.3L12.8 2.35L19.9 2.85L33.2 3.4L32.4 4.6Q30.3 7.8 28 9.2L26.85 9.8Q24.9 10.65 22.2 10.95L19.2 11.1Q18.8 8.3 15.9 7.4" />
<path style="fill:#676783;fill-opacity:1" d="M42.75,10.85L42.95 10.55L43.25 10.2L44 9.5Q44.35 9.2 44.6 9.05L44.85 8.95L46 9.15L46.4 9.4Q46.8 9.85 46.8 11.25Q46.8 12.75 46.15 14Q45.25 15.75 43.4 15.75Q42.7 15.75 42.25 15.3Q41.8 14.8 41.8 14L41.9 13.1Q42.05 11.95 42.75 10.85" />
<path style="fill:#C65E5E;fill-opacity:1" d="M40.1,33.05Q35.9 38.25 30.75 41.35Q23.2 45.9 14.1 45.95Q5 46 2.85 46.15L-5.65 46.35L-17.1 46.35Q-41.05 45.95 -46.95 44.4Q-50.85 43.4 -53.4 38.75Q2.25 40.5 40.1 33.05" />
<path style="fill:#E8E8F3;fill-opacity:1" d="M-53.4,38.75L-54.5 36.45L-54.5 36.3Q-1.05 37.55 42.4 29.95L40.1 33.05Q2.25 40.5 -53.4 38.75" />
<path style="fill:#B86128;fill-opacity:1" d="M1.1,29.2L5.55 29.2L7.4 29.2L7.3 33.4L1.2 33.5Q1 30.85 1.1 29.3L1.1 29.2M-17.1,29L-17.1 28.7L-13.45 28.8L-12.85 28.75L-10.95 28.85L-10.95 29.15L-11 34.15L-13.9 34.2L-16.2 34.15L-17.1 34.15Q-17.3 31.45 -17.1 29.05L-17.1 29" />
<path style="fill:#C23030;fill-opacity:1" d="M-49.8,4.25L-50.15 6.15L-51.9 6.95L-54.35 8.05L-56.35 2.85L-55.6 2.5L-55.1 3.2L-53.6 5.15L-52.8 5.6L-52.7 5.6L-51.8 5.25L-49.8 4.25M-55,-5.65L-56.4 -7L-57.7 -7.1L-59.35 -6.25L-59.75 -6.1L-60.3 -7.45L-56.65 -9.05L-53.3 -6.35L-55 -5.65M-41.75,-11.05L-43.35 -10.4L-45 -11.65L-45.7 -11.8L-46.55 -11.8L-47.4 -11.45L-47.7 -12.4L-46.6 -12.85L-45.15 -13.45L-44.05 -12.7L-41.75 -11.05M-28.8,-13.3L-27 -12.35L-27.2 -11.35L-27.8 -10.75Q-28.5 -10.15 -29.1 -9.9Q-30.65 -9.3 -32.35 -9.95L-32.95 -10.2L-33.1 -10.25L-33.6 -10.5L-34.9 -13.7Q-31.9 -14.65 -28.8 -13.3M-38.75,-3.1L-39.55 0.65L-39.65 1L-41.9 2.1L-42.15 1.55L-42.55 0.6L-41 0.15L-40.75 -0.15L-40.75 -1L-40.5 -2.4L-38.75 -3.1M-30.5,-12.9L-32.5 -13.1Q-33.1 -12.9 -32.85 -12.3L-32.7 -12.15Q-30.8 -10.5 -29.75 -10.95Q-29.2 -11.15 -29.45 -11.85Q-29.65 -12.35 -30.4 -12.85L-30.5 -12.9" />
<path style="fill:#9C2525;fill-opacity:1" d="M-51.8,5.25L-52.7 5.6L-52.8 5.6L-53.6 5.15L-55.1 3.2L-55.6 2.5L-54.6 1.95L-54.15 3.15L-49.25 1.2L-49.7 3.9L-49.8 4.25L-51.8 5.25M-55.25,0.4L-57.15 1.2L-57.8 -0.35L-55.9 -1.15L-51.2 -3.05L-51.05 -2.7L-50.55 -1.5L-55.25 0.4M-56.4,-2.4L-58.1 -1.7L-59.75 -6.1L-59.35 -6.25L-57.7 -7.1L-56.4 -7L-55 -5.65L-57.35 -4.7L-56.4 -2.4M-46.55,-11.8L-45.7 -11.8L-45 -11.65L-43.35 -10.4L-46.6 -9.05L-47.4 -11.45L-46.55 -11.8M-31.75,-5.95L-33.35 -9.95L-33.6 -10.5L-33.1 -10.25L-32.95 -10.2L-32.35 -9.95Q-30.65 -9.3 -29.1 -9.9Q-28.5 -10.15 -27.8 -10.75L-27.2 -11.35Q-28.05 -8.2 -30.75 -6.5L-31.75 -5.95M-43.45,-1.2L-40.5 -2.4L-40.75 -1L-40.75 -0.15L-41 0.15L-42.55 0.6L-43.45 -1.2" />
<path style="fill:#BFBFC2;fill-opacity:1" d="M-34.95,-13.8L-34.9 -13.7L-33.6 -10.5L-33.35 -9.95L-35.45 -8.25L-36.9 -7.05L-38 -6.6L-43.9 -4.75L-45.85 -4.05L-47.1 -3.75L-48.6 -3.55L-49.85 -3.3L-51.05 -2.7L-51.2 -3.05L-55.9 -1.15L-56.4 -2.4L-57.35 -4.7L-55 -5.65L-53.3 -6.35L-46.6 -9.05L-43.35 -10.4L-41.75 -11.05L-35.1 -13.75L-34.95 -13.8" />
<path style="fill:#A2A2A3;fill-opacity:1" d="M-49.25,1.2L-54.15 3.15L-54.6 1.95L-55.25 0.4L-50.55 -1.5L-51.05 -2.7L-49.85 -3.3L-48.6 -3.55L-47.1 -3.75L-45.85 -4.05L-43.9 -4.75L-38 -6.6L-36.9 -7.05L-35.45 -8.25L-33.35 -9.95L-31.75 -5.95L-38.75 -3.1L-40.5 -2.4L-43.45 -1.2L-49.25 1.2" />
<path style="fill:#F0A1A1;fill-opacity:1" d="M-30.4,-12.85Q-29.65 -12.35 -29.45 -11.85Q-29.2 -11.15 -29.75 -10.95Q-30.8 -10.5 -32.7 -12.15L-32.85 -12.3Q-33.1 -12.9 -32.5 -13.1L-30.5 -12.9L-30.4 -12.85" />
<path style="fill:none;stroke-width:1;stroke-linecap:butt;stroke-linejoin:miter;stroke-miterlimit:3;stroke:#585454;stroke-opacity:1" d="M22.45,-12.35L23.75 -15.35L24.4 -16.65L25.45 -19.1Q25.55 -19.65 25.8 -20L26.85 -23.05L26.9 -23.25L26.95 -23.4Q27.85 -25.1 32.1 -25.1L35.9 -24.95Q38.6 -24.7 39.15 -24.05L40 -21.4L40.85 -16.9L41.2 -14.75L42.05 -10.65M21.95,-24.4Q22.35 -28.5 25.5 -28.25L38.35 -27.5L48.4 -27.1L49.75 -27.1Q50.55 -26.65 51.1 -25.35L51.15 -25.3L51.65 -25.35M54.15,-23.25L55.5 -23.25Q57.1 -22.9 57.3 -22.5L57.45 -20.6L57.4 -17.75L57.25 -15.35Q57.2 -14.7 56 -14.25L53.95 -14.1L53.95 -14.2M51.5,-16.05L51.35 -14.75L50.7 -13Q49.8 -11.8 48.15 -11.45L42.05 -10.65L43.55 -3.15M56.75,2.85L55.95 5.15L54.45 8.45L51.4 14L48.55 20.55Q46.7 24.6 43.75 27.75L42.4 29.95L40.1 33.05Q35.9 38.25 30.75 41.35Q23.2 45.9 14.1 45.95Q5 46 2.85 46.15L-5.65 46.35L-17.1 46.35Q-41.05 45.95 -46.95 44.4Q-50.85 43.4 -53.4 38.75L-54.5 36.45L-54.55 36.3L-56.8 28.85L-57.65 25.85M-43.7,18.3L-43.75 18L-52.75 18L-52.7 17.25Q-52.35 15.35 -51 14.95L-46.45 14.7L-46.5 8.05L-49.7 9.25Q-50.5 9.25 -51.9 6.95L-54.35 8.05L-56.35 2.85L-55.6 2.5L-54.6 1.95L-55.25 0.4L-57.15 1.2L-57.8 -0.35L-55.9 -1.15L-56.4 -2.4L-58.1 -1.7L-59.75 -6.1L-60.3 -7.45L-56.65 -9.05L-53.3 -6.35L-46.6 -9.05L-47.4 -11.45L-47.7 -12.4L-46.6 -12.85L-46.85 -16.8L-46.85 -17.05Q-46.75 -19.8 -44.25 -20.55Q-40.5 -21.15 -38.2 -22.2L-27.3 -24.45Q-26.15 -24.45 -23.95 -18.9L-22.6 -15.25Q-20.8 -10 -18.45 -1.75L-16.95 -1.7L-14.75 -2.05L-14.7 -2.05L-14.4 -2.4L-14.4 -5.4Q-14.4 -8.15 -13.15 -9.15L-13.05 -9.25L-12.35 -9.65L-12.2 -9.7L-12.1 -14.55L-12.2 -20.2M-3.35,-29.95L-3.4 -34.2L-5.85 -34.55L-6.6 -34.65L-7.1 -34.7L-9.75 -35Q-10.3 -35 -10.2 -37.5L-10.1 -41.2L-8.7 -41.65L-8.6 -41.7L-6.8 -42.2L-3.4 -42.55Q-2.75 -42.65 -2.75 -43.7L-2.8 -45.45Q-2.45 -46.15 -1.6 -46.3L-0.1 -46.3Q0.1 -45.45 -0.3 -42.95Q2.45 -42.55 6.75 -40.4L10.65 -38.1Q11.45 -37.5 11.45 -37.1Q11.45 -34.5 10.8 -33.65Q10.35 -33.05 9.25 -33.05L8.75 -33.1L6.6 -33.45L5.15 -33.7Q2.45 -34.05 -0.1 -33.7L-0.3 -29.6M10.8,-19.35Q10.7 -16.2 10.9 -13.6L10.95 -13.3L11.15 -8.9Q13.4 -8.25 13.4 -5.15L13.15 -0.2L14 -0.3L18 -0.25L20.25 -6.35L21.65 -10.3L22.45 -12.35L22.3 -13M21.95,-24.4L21.85 -23.05L21.85 -22.05L21.9 -18.4Q21.95 -15.15 22.1 -14.05L22.3 -13M2.05,-39.75L0.15 -39.95L0.05 -37.15L0.1 -36.25L0.75 -36.15L3.7 -35.9L4.05 -35.9L4.4 -39.05L2.05 -39.75M6.2,-37.95L6.1 -37L6 -36.25Q6 -35.25 6.85 -35.2L9.1 -34.85Q9.45 -35.55 9.45 -36.8L8.15 -37.55L6.4 -38.35L6.2 -37.95M-2.35,-19.9L-2.4 -16.25L-2.4 -14.9M-2.4,-14.8L-2.6 -13.5L2.4 -12.8Q5.95 -12.45 7.85 -12.85L10.95 -13.3M10.45,1.2Q11.65 0.1 13.15 -0.2M-6.7,-10L-2.4 -9.8L3.95 -9.4L10.75 -9L11.15 -8.9M31.4,-20.9L31.4 -20.95L30.3 -20.15L31.4 -20.9L32.75 -21.25Q34.2 -21.25 35.15 -20.35Q36.2 -19.4 36.2 -17.75L36.15 -16.9Q36 -16 35.45 -15.45M34.75,-14.95L32.8 -14.6Q31.45 -14.6 30.5 -15.2Q29.9 -15.55 29.6 -16.1L29.5 -16.3L29.2 -17.45L29.2 -17.75L29.4 -18.75L29.45 -18.95L29.8 -19.6L29.85 -19.7L30.1 -19.95L30.15 -20.05L30.25 -20.1L30.3 -20.15M34.75,-14.95Q35.15 -15.15 35.45 -15.45M18,-0.25L20.7 -0.1L26.25 0.25Q32.45 0 35.45 0.45M51.5,-16.05L51.55 -20.8L51.6 -22.55L51.6 -23.4L51.2 -25.2L51.15 -25.3M46,9.15L46.4 9.4Q46.8 9.85 46.8 11.25Q46.8 12.75 46.15 14Q45.25 15.75 43.4 15.75Q42.7 15.75 42.25 15.3Q41.8 14.8 41.8 14L41.9 13.1M7.4,7.65L7.7 7.6L8.95 7.65L12.65 7.55L15.9 7.4Q18.8 8.3 19.2 11.1L19.2 11.25L19.25 13.35L19.25 17.5L19.25 18.55L19.25 23.25L19.25 24.8Q19.7 28.1 16.55 29.15L12.7 29.05L9.3 29L7.9 29.1M1.1,29.05L-0.8 29L-10.1 28.9M-17.1,29L-17.35 29L-17.95 29Q-19.9 29 -21.1 28.3M46,9.15L44.85 8.95L44.6 9.05Q44.35 9.2 44 9.5L43.25 10.2L42.95 10.55L42.75 10.85Q42.05 11.95 41.9 13.1M10.45,1.2L9.85 1.75L9.2 2.6Q8.25 3.9 7.85 5.65L7.4 7.45M12.7,18.05L12.65 7.55M7.4,29.1L7.55 29.1M12.7,18.05L12.7 29.05M-26.35,-18.1L-44.05 -12.7L-45.15 -13.45L-46.6 -12.85M-26.35,-18.1L-24.3 -18.75M-53.3,-6.35L-55 -5.65L-57.35 -4.7L-56.4 -2.4M-55.9,-1.15L-51.2 -3.05L-51.05 -2.7L-50.55 -1.5L-55.25 0.4M-38.75,-3.1L-31.75 -5.95L-33.35 -9.95L-33.6 -10.5L-34.9 -13.7L-35.1 -13.75L-41.75 -11.05L-43.35 -10.4L-46.6 -9.05M-42.55,0.6L-42.15 1.55L-41.9 2.1L-39.65 1L-39.55 0.65L-38.75 -3.1L-40.5 -2.4L-43.45 -1.2L-42.55 0.6M-44.05,-12.7L-41.75 -11.05M-6.8,-40.1L-8.25 -40.25L-8.35 -36.65L-6.8 -36.3L-5.75 -36.15L-4.5 -36L-4.2 -36L-4.2 -37.6L-4.25 -39.25Q-4.3 -39.85 -5.2 -39.9L-6.8 -40.1M-25.1,-14.45L-28.8 -13.3L-27 -12.35L-27.2 -11.35Q-28.05 -8.2 -30.75 -6.5L-29.4 -4.1L-27.7 -0.75Q-26.45 -2.05 -22.35 -2.05L-21.15 -1.95M-25.1,-14.45L-22.9 -15.15M-28.8,-13.3Q-31.9 -14.65 -34.9 -13.7L-34.95 -13.8L-35.1 -13.75M-31.75,-5.95L-30.75 -6.5M-27.7,-0.75L-27.65 -0.45L-28.15 0.05L-28.25 0.15L-28.45 0.65Q-29.1 2.4 -29.8 6.4L-30.7 13.4L-30.75 13.85Q-28.35 14.15 -26.95 15L-26.95 14.35Q-26.8 11.8 -25.95 11.05L-22.9 11.1Q-22.5 8.65 -21 8.4L-19.5 8.4M-6.7,-10L-9.25 -10.1L-12.2 -9.7M-10.25,-5.3Q-9.95 -6.7 -8.5 -6.7Q-7.5 -6.7 -7.1 -6.15L-6.4 -4.1L-6.4 -2.75L-10.4 -2.9L-10.25 -5.3M-3.35,-2.65L-3.2 -4.75Q-2.85 -6.2 -1.65 -6.2Q-0.8 -6.2 -0.4 -4.95Q-0.1 -4.05 -0.1 -3.05Q-0.1 -2.45 -0.55 -2.35L-1.5 -2.35Q-3.65 -2.35 -3.35 -2.65M-18.45,-1.75L-21.15 -1.95M-10.95,28.85L-10.7 28.85L-10.3 28.9L-10.1 28.9M-10.55,8L-10.3 7.95Q-6.6 7.7 -1.3 7.9L0.95 7.9M-16.8,8.3L-16.85 8.3L-16.95 8.3L-19.5 8.4M-23.05,12.05L-23.1 12.6L-23.1 13.35L-23.2 13.95L-23.4 15.85L-23.35 17.45L-23.35 17.85L-23.25 19.7L-23.2 20.65L-23.15 23.65L-23.1 24.9L-22.85 26.05Q-22.4 27.55 -21.1 28.3M-28.25,0.15L-28.85 0.5L-33.6 2.75L-33.7 2.75L-33.75 2.8L-34.4 3.05L-38.65 4.85L-44.45 7.25L-46.5 8.05M-23.1,12.6L-23.1 12.05L-23.05 12.05L-22.9 11.1M-33.75,2.8Q-34.05 2.9 -34.4 3.25L-35.75 5.05L-36.25 6.2Q-36.6 7.15 -36.6 8.05Q-36.6 9.35 -35.8 10.5L-34.9 11.5Q-32.9 12.95 -32.1 13.75L-31.4 13.8L-30.75 13.85M-40.7,14.1L-37.15 13.85L-36.9 13.85Q-34.15 13.65 -32.1 13.75M-23.1,24.9L-23.1 25.05Q-26.05 26.05 -26.75 23.25L-26.95 20.8L-27 18.25L-27 17.95L-27.1 17.95L-31.1 17.95L-31.1 18.05M-31.1,17.95L-43.75 18M-27,17.95L-27 17.45L-26.95 15M-49.7,3.9L-49.8 4.25L-50.15 6.15L-51.9 6.95M-49.7,3.9L-49.25 1.2L-54.15 3.15L-54.6 1.95M-40.7,14.1L-41.8 14.2L-44.05 14.5L-46.45 14.7M-43.45,-1.2L-49.25 1.2" />
<path style="fill:none;stroke-width:1;stroke-linecap:butt;stroke-linejoin:miter;stroke-miterlimit:3;stroke:#C65307;stroke-opacity:1" d="M51.65,-25.35Q53.6 -25.35 54.05 -23.8L54.15 -23.25L54.25 -21L54.25 -19.55L54.25 -17.5L54.15 -15.1L53.95 -14.2Q53.45 -12.55 52.1 -12.55Q50.95 -12.55 50.7 -13M22.3,-13L20.5 -12.9Q19.2 -12.9 18.8 -13.75Q18.5 -14.4 18.5 -16.2L18.05 -21.45L18.05 -21.85Q18.15 -23.3 18.8 -23.9Q19.45 -24.5 21.15 -24.5L21.65 -24.35" />
<path style="fill:none;stroke-width:1;stroke-linecap:butt;stroke-linejoin:miter;stroke-miterlimit:3;stroke:#91491A;stroke-opacity:1" d="M39.8,-2.1L41.55 -2.7L43.55 -3.15L47.25 -3.7L53.3 -4.2L59.05 -4.6Q61.15 -4.6 61.25 -3.55Q61.5 -0.55 61.7 0L61.7 2L60.55 2.45L56.75 2.85M-22.85,26.05L-24.35 25.95L-31.4 25.6L-43.65 26L-48.15 25.75Q-52.85 25.55 -55.25 25.8L-57.65 25.85Q-59.5 25.6 -60.55 24.6Q-62 23.2 -61.65 20.65L-61.25 18.45L-43.7 18.3M-0.3,-29.6L0.55 -29.5Q3.3 -29.1 6.7 -29.4Q10.25 -29.7 11.8 -26.85Q12.9 -24.85 12.9 -22.3Q12.9 -19.75 12.5 -19.5L11.05 -19.35L10.8 -19.35L9 -19.4L3.95 -19.7L-2.35 -19.9Q-5.85 -19.85 -8.65 -19.95L-12.2 -20.2Q-13.95 -20.4 -13.95 -20.75L-13.95 -21.9Q-14.05 -25.15 -13.4 -27Q-12.8 -28.7 -11.65 -29.35L-4.95 -30L-3.35 -29.95M39.8,-2.1Q38.3 -1.55 37.05 -0.7L36.6 -0.45M35.45,0.45L35.65 0.25L36.6 -0.45M19.25,17.5L29.55 16.6Q32.1 16 34.5 13.15L37.85 8.75Q41.4 4.85 48.8 3.05L55.55 2.8L56.75 2.85M1.05,6.9L1.1 5.6L7.35 5.85L7.4 7.45L7.4 7.65L7.4 7.75L7.45 18.25L7.45 18.5L7.4 19.85Q7.15 25 7.4 29.1L7.4 29.15L7.4 29.2L7.3 33.4L1.2 33.5Q1 30.85 1.1 29.3M-10.65,18.25L-10.75 22.15L-10.95 28.85L-10.95 29.15L-11 34.15L-13.9 34.2L-16.2 34.15L-17.1 34.15Q-17.3 31.45 -17.1 29.05M35.45,0.45Q34.7 1.15 33.2 3.4L32.4 4.6Q30.3 7.8 28 9.2L26.85 9.8M19.2,11.1L22.2 10.95Q24.9 10.65 26.85 9.8M1.05,6.9L0.95 7.65L0.95 7.9Q0.85 10.25 0.9 15.1L0.95 23.05L1.1 29.05L1.1 29.2L5.55 29.2L7.4 29.2M1.1,29.2L1.1 29.3M-0.3,-29.6L-3.35 -29.95M-12.85,28.75L-13.45 28.8L-17.1 28.7L-17 24.8L-16.8 16.95L-16.8 8.3L-16.8 8.2L-16.8 8.1L-16.8 7.9L-16.85 6.85L-16.85 6.5L-13.55 6.35L-10.65 6.25L-10.55 8M-12.85,28.75L-10.95 28.85M-10.65,15.7L-10.65 14.85L-10.65 14.3L-10.65 14L-10.55 8M-31.1,18.05L-27.1 17.95M-17.1,28.7L-17.1 29L-17.1 29.05M-31.1,18.05L-43.35 18.3L-43.7 18.3" />
</g>
</svg>
