<?xml version="1.0" encoding="utf-8"?>
<svg version="1.1" id="Layer_1"
xmlns="http://www.w3.org/2000/svg"
xmlns:xlink="http://www.w3.org/1999/xlink"
xmlns:author="http://www.sothink.com"
width="78px" height="78px"
xml:space="preserve">
<g id="244" transform="matrix(1, 0, 0, 1, 63.9, 38.65)">
<path style="fill:#7EA3A3;fill-opacity:1" d="M8.1,31.4Q8.1 22.55 9.1 -9.1Q9 -19.2 8.7 -23.95Q8.3 -30.1 7.2 -31.8Q5.9 -33.8 1.65 -33.8L-7.7 -33.4L-29.85 -34.1L-52.15 -34.8L-59.95 -34.4L-61.75 -34.55Q-59.9 -37.65 -54.95 -37.65L4.7 -37.65Q12.65 -37.65 12.65 -29.7L12.65 29.95Q12.65 35 9.45 36.85Q8.1 33.6 8.1 31.4M2.85,28.35L2.95 29.3Q2.95 32.05 -7.9 33L-20.15 33.4L-30.95 33.8L-40.9 34.15L-51.2 33.45Q-55.75 31.9 -56.7 25.85L-57.95 15.2Q-58.3 10.55 -58.3 3.15Q-57.8 -9.1 -57.9 -16.4Q-57.95 -21.95 -57.05 -24.2Q-56.05 -26.7 -53.5 -27.2Q-54.4 -25.7 -54.4 -23.35L-54.4 23.35Q-54.4 29.6 -48.2 29.6L-1.45 29.6Q1.3 29.6 2.85 28.35" />
<path style="fill:#668585;fill-opacity:1" d="M-61.75,-34.55L-59.95 -34.4L-52.15 -34.8L-29.85 -34.1L-7.7 -33.4L1.65 -33.8Q5.9 -33.8 7.2 -31.8Q8.3 -30.1 8.7 -23.95Q9 -19.2 9.1 -9.1Q8.1 22.55 8.1 31.4Q8.1 33.6 9.45 36.85Q7.6 37.9 4.7 37.9L-54.95 37.9Q-62.9 37.9 -62.9 29.95L-62.9 -29.7Q-62.9 -32.7 -61.75 -34.55M-57.05,-24.2Q-57.95 -21.95 -57.9 -16.4Q-57.8 -9.1 -58.3 3.15Q-58.3 10.55 -57.95 15.2L-56.7 25.85Q-55.75 31.9 -51.2 33.45L-40.9 34.15L-30.95 33.8L-20.15 33.4L-7.9 33Q2.95 32.05 2.95 29.3L2.85 28.35Q4.75 26.8 4.75 23.35L4.75 -23.35Q4.75 -29.6 -1.45 -29.6L-48.2 -29.6Q-52.05 -29.6 -53.5 -27.2Q-56.05 -26.7 -57.05 -24.2" />
<path style="fill:none;stroke-width:2;stroke-linecap:butt;stroke-linejoin:miter;stroke-miterlimit:3;stroke:#435B5B;stroke-opacity:1" d="M9.45,36.85Q12.65 35 12.65 29.95L12.65 -29.7Q12.65 -37.65 4.7 -37.65L-54.95 -37.65Q-59.9 -37.65 -61.75 -34.55M9.45,36.85Q7.6 37.9 4.7 37.9L-54.95 37.9Q-62.9 37.9 -62.9 29.95L-62.9 -29.7Q-62.9 -32.7 -61.75 -34.55M-53.5,-27.2Q-52.05 -29.6 -48.2 -29.6L-1.45 -29.6Q4.75 -29.6 4.75 -23.35L4.75 23.35Q4.75 26.8 2.85 28.35M-53.5,-27.2Q-54.4 -25.7 -54.4 -23.35L-54.4 23.35Q-54.4 29.6 -48.2 29.6L-1.45 29.6Q1.3 29.6 2.85 28.35" />
</g>
</svg>
