<?xml version="1.0" encoding="utf-8"?>
<svg version="1.1" id="Layer_1"
xmlns="http://www.w3.org/2000/svg"
xmlns:xlink="http://www.w3.org/1999/xlink"
xmlns:author="http://www.sothink.com"
width="24px" height="23px"
xml:space="preserve">
<g id="275" transform="matrix(1, 0, 0, 1, 11.9, 11.75)">
<path style="fill:#6D961D;fill-opacity:1" d="M10.75,-10.4L-2 10.4L-10.2 -0.25Q-7.85 0.9 -6.75 1.9Q-3 4.8 -2.5 4.8L-0.95 3.2L2.1 -0.3L8.2 -8.1L10.75 -10.4" />
<path style="fill:#ABD756;fill-opacity:1" d="M-10.7,-0.95L-2.55 1.45L8.2 -8.1L2.1 -0.3L-0.95 3.2L-2.5 4.8Q-3 4.8 -6.75 1.9Q-7.85 0.9 -10.2 -0.25L-10.7 -0.95" />
<path style="fill:none;stroke-width:1;stroke-linecap:butt;stroke-linejoin:miter;stroke-miterlimit:3;stroke:#3B4D18;stroke-opacity:1" d="M-10.2,-0.25L-2 10.4L10.75 -10.4L8.2 -8.1L-2.55 1.45L-10.7 -0.95L-10.2 -0.25z" />
</g>
</svg>
