<?xml version="1.0" encoding="utf-8"?>
<svg version="1.1" id="Layer_1"
xmlns="http://www.w3.org/2000/svg"
xmlns:xlink="http://www.w3.org/1999/xlink"
xmlns:author="http://www.sothink.com"
width="13px" height="12px"
xml:space="preserve">
<g id="119" transform="matrix(1, 0, 0, 1, 8.4, 5.3)">
<path style="fill:#FFCC00;fill-opacity:1" d="M-7.85,2L-4.5 0.25Q-4.5 -0.25 -5.35 -1.15L-6.5 -2.4L-6.4 -2.45L-4.8 -2.35L-3.65 -2.45L-2.7 -2.35Q-2.05 -2.35 -1.4 -3.4L-0.75 -4.7L-0.4 -4.65L1.15 -3.35L1.7 -2.8L2.45 -2.35L3.1 -1.8L2.85 -0.9L2.45 -0.4L1.6 0.55L0.95 1.75L1.1 1.95Q1.1 2.35 2.35 3.2L3.5 4.35L3.55 4.6Q3.5 4.85 1.95 5.2L-0.05 5.55L-0.5 5.6L-3.15 6.1L-3.5 6L-3.5 5.55L-3.25 5.2L-3.05 4.05L-2.9 3.65L-2.9 3.35L-7.9 2.15L-7.85 2" />
<path style="fill:none;stroke-width:1;stroke-linecap:butt;stroke-linejoin:miter;stroke-miterlimit:3;stroke:#FF6600;stroke-opacity:1" d="M-7.9,2.15L-2.9 3.35L-2.9 3.65L-3.05 4.05L-3.25 5.2L-3.5 5.55L-3.5 6L-3.15 6.1L-0.5 5.6L-0.05 5.55L1.95 5.2Q3.5 4.85 3.55 4.6L3.5 4.35L2.35 3.2Q1.1 2.35 1.1 1.95L0.95 1.75L1.6 0.55L2.45 -0.4L2.85 -0.9L3.1 -1.8L2.45 -2.35L1.7 -2.8L1.15 -3.35L-0.4 -4.65L-0.75 -4.7L-1.4 -3.4Q-2.05 -2.35 -2.7 -2.35L-3.65 -2.45L-4.8 -2.35L-6.4 -2.45L-6.5 -2.4L-5.35 -1.15Q-4.5 -0.25 -4.5 0.25L-7.85 2M-7.9,2.15L-7.9 2.1L-7.85 2" />
</g>
</svg>
