<?xml version="1.0" encoding="utf-8"?>
<svg version="1.1" id="Layer_1"
xmlns="http://www.w3.org/2000/svg"
xmlns:xlink="http://www.w3.org/1999/xlink"
xmlns:author="http://www.sothink.com"
width="33px" height="31px"
xml:space="preserve">
<g id="67" transform="matrix(1, 0, 0, 1, 16.35, 15.45)">
<path style="fill:#505D5D;fill-opacity:1" d="M-14.35,-11.9L-14.35 12.95Q-14.35 13.4 -13.95 13.4L13.95 13.4L14.3 13.35L14.35 13.15L14.35 12.95L14.35 11.85L14.35 -13.05Q14.35 -13.45 13.95 -13.45L-13.95 -13.45Q-14.35 -13.45 -14.35 -13.05L-14.35 -12.9L-14.35 -11.9M16.35,-13.05L16.35 12.95Q16.35 14.1 15.8 14.65Q15.25 15.4 13.95 15.4L-13.95 15.4Q-16.35 15.4 -16.35 12.95L-16.35 -13.05Q-16.35 -15.45 -13.95 -15.45L13.95 -15.45Q16.35 -15.45 16.35 -13.05M6.75,-9.8L4.3 -9.8L4.15 -9.8L4 -9.8L3.7 -9.8Q3.05 -9.8 2.75 -9.45L2.7 -9.4L2.65 -9.35L2.45 -8.55L2.45 7.45Q2.45 8.7 3.7 8.7L6.75 8.7L7.45 8.6Q7.9 8.25 7.9 7.45L7.9 -8.55Q7.9 -9.75 6.75 -9.8M-3,9.6L-3.8 9.7L-6.85 9.7Q-9 9.65 -9 7.45L-9 -8.55L-8.9 -9.3L-8.85 -9.4Q-8.5 -10.75 -6.85 -10.8L-6.5 -10.7L-3.8 -10.8Q-1.55 -10.8 -1.55 -8.55L-1.55 7.45Q-1.55 8.75 -2.35 9.3L-2.35 9.35L-2.75 9.55L-2.85 9.6L-3 9.6M-3.75,-9.8L-6.45 -9.7L-6.8 -9.8Q-7.7 -9.75 -7.9 -9.1L-8 -8.55L-8 7.45Q-8 8.65 -6.85 8.7L-3.8 8.7L-3.2 8.65L-2.9 8.5Q-2.55 8.15 -2.55 7.45L-2.55 -8.55Q-2.55 -9.8 -3.75 -9.8" />
<path style="fill:#BFDEDE;fill-opacity:1" d="M14.15,11.85L13.75 11.9L12.5 7.9L12.2 -3.5L12.15 -9.4Q11.65 -12.05 8.6 -12.3L4.5 -12.7L-0.3 -12.95L-8.9 -12.4L-13.05 -11.95Q-13.55 -12.75 -14.35 -12.9L-14.35 -13.05Q-14.35 -13.45 -13.95 -13.45L13.95 -13.45Q14.35 -13.45 14.35 -13.05L14.35 11.85L14.15 11.85" />
<path style="fill:#A0BFBF;fill-opacity:1" d="M-14.35,-11.9L-14.35 -12.9Q-13.55 -12.75 -13.05 -11.95L-8.9 -12.4L-0.3 -12.95L4.5 -12.7L8.6 -12.3Q11.65 -12.05 12.15 -9.4L12.2 -3.5L12.5 7.9L13.75 11.9L14.15 11.85L14.35 11.85L14.35 12.95L14.35 13.15L13.85 12.3L13.75 11.9L10.75 12L4.35 11.5L-0.5 12Q-9.5 12 -10.9 10.85Q-12.75 9.3 -12.75 0.3L-12.3 -7.75Q-12.3 -10.65 -13.05 -11.95L-14.35 -11.9M-2.85,9.6L-2.75 9.55L-2.35 9.35L-2.35 9.3Q-1.55 8.75 -1.55 7.45L-1.55 -8.55Q-1.55 -10.8 -3.8 -10.8L-6.5 -10.7L-6.85 -10.8Q-8.5 -10.75 -8.85 -9.4L-8.9 -9.3L-9.55 -9.45Q-10.95 -9.45 -11.2 -7.3L-11.2 -3.65L-10.95 2L-10.7 6.15Q-10.7 8.95 -9.95 9.85Q-9.1 10.85 -6.4 10.85L-4.2 10.75Q-3.1 10.5 -3 9.6L-2.85 9.6" />
<path style="fill:#BFE0E0;fill-opacity:1" d="M7.9,-8.55L7.9 7.45Q7.9 8.25 7.45 8.6L6.75 8.7L3.7 8.7Q2.45 8.7 2.45 7.45L2.45 -8.55L2.65 -9.35L2.7 -9.4L2.75 -9.45Q3.05 -9.8 3.7 -9.8L4 -9.8L4.15 -9.8L4.3 -9.8L6.75 -9.8Q7.9 -9.75 7.9 -8.55M-2.55,-8.55L-2.55 7.45Q-2.55 8.15 -2.9 8.5L-3.2 8.65L-3.8 8.7L-6.85 8.7Q-8 8.65 -8 7.45L-8 -8.55L-7.9 -9.1Q-7.7 -9.75 -6.8 -9.8L-6.45 -9.7L-3.75 -9.8Q-2.55 -9.8 -2.55 -8.55" />
<path style="fill:#839F9F;fill-opacity:1" d="M-13.05,-11.95Q-12.3 -10.65 -12.3 -7.75L-12.75 0.3Q-12.75 9.3 -10.9 10.85Q-9.5 12 -0.5 12L4.35 11.5L10.75 12L13.75 11.9L13.85 12.3L14.35 13.15L14.3 13.35L13.95 13.4L-13.95 13.4Q-14.35 13.4 -14.35 12.95L-14.35 -11.9L-13.05 -11.95M-9,-8.55L-9 7.45Q-9 9.65 -6.85 9.7L-3.8 9.7L-3 9.6Q-3.1 10.5 -4.2 10.75L-6.4 10.85Q-9.1 10.85 -9.95 9.85Q-10.7 8.95 -10.7 6.15L-10.95 2L-11.2 -3.65L-11.2 -7.3Q-10.95 -9.45 -9.55 -9.45L-8.9 -9.3L-9 -8.55" />
</g>
</svg>
