<?xml version="1.0" encoding="utf-8"?>
<svg version="1.1" id="Layer_1"
xmlns="http://www.w3.org/2000/svg"
xmlns:xlink="http://www.w3.org/1999/xlink"
xmlns:author="http://www.sothink.com"
width="50px" height="50px"
xml:space="preserve">
<g id="292" transform="matrix(1, 0, 0, 1, 24.6, 24.6)">
<path style="fill:#66CC00;fill-opacity:1" d="M19.45,-23.6L-19.45 -23.6Q-23.6 -23.6 -23.6 -19.45L-23.6 19.45Q-23.6 23.6 -19.45 23.6L19.45 23.6Q23.6 23.6 23.6 19.45L23.6 -19.45Q23.6 -23.6 19.45 -23.6M24.6,-19.45L24.6 19.45Q24.6 24.6 19.45 24.6L-19.45 24.6Q-24.6 24.6 -24.6 19.45L-24.6 -19.45Q-24.6 -24.6 -19.45 -24.6L19.45 -24.6Q24.6 -24.6 24.6 -19.45" />
<path style="fill:#5AA60F;fill-opacity:1" d="M8.7,-6.55L9.2 -5.85L9.45 -4.7L9.45 -2.05Q9.45 -0.4 8.4 0.25Q7.4 0.95 5.5 0.95L3.95 0.95L3.95 5.55L2.45 5.55L2.45 -7.2L5.8 -7.2L6.9 -7.15L7.85 -7L8.7 -6.55M3.95,-0.25L5.7 -0.25Q6.65 -0.25 7.3 -0.65Q7.9 -1.1 7.9 -2.15L7.9 -4.45L7.7 -5.35L7.05 -5.8L6.35 -5.95L5.7 -6L3.95 -6L3.95 -0.25M-7.25,-7.2L-7.25 -1.7L-1.75 -1.7L-1.75 -7.2L-0.2 -7.2L-0.2 5.55L-1.75 5.55L-1.75 -0.35L-7.25 -0.35L-7.25 5.55L-8.75 5.55L-8.75 -7.2L-7.25 -7.2" />
<path style="fill:#52980C;fill-opacity:1" d="M23.6,-19.45L23.6 19.45Q23.6 23.6 19.45 23.6L-19.45 23.6Q-23.6 23.6 -23.6 19.45L-23.6 -19.45Q-23.6 -23.6 -19.45 -23.6L19.45 -23.6Q23.6 -23.6 23.6 -19.45M13.3,-13L-14.55 -13Q-14.45 2.7 -13.65 6.45Q-9.9 11.7 -0.35 16.05Q6.75 12.4 13.1 5.7Q13.65 -2.25 13.3 -13" />
<path style="fill:none;stroke-width:1;stroke-linecap:butt;stroke-linejoin:miter;stroke-miterlimit:3;stroke:#66CC00;stroke-opacity:1" d="M13.1,5.7Q6.75 12.4 -0.35 16.05Q-9.9 11.7 -13.65 6.45Q-14.45 2.7 -14.55 -13L13.3 -13Q13.65 -2.25 13.1 5.7z" />
</g>
</svg>
