<?xml version="1.0" encoding="utf-8"?>
<svg version="1.1" id="Layer_1"
xmlns="http://www.w3.org/2000/svg"
xmlns:xlink="http://www.w3.org/1999/xlink"
xmlns:author="http://www.sothink.com"
width="75px" height="73px"
xml:space="preserve">
<g id="11" transform="matrix(1, 0, 0, 1, 42.15, 38.2)">
<path style="fill:#232222;fill-opacity:1" d="M12,-15.45Q12 -13.9 11.5 -12.3L11.45 -12.15Q13.35 -11.55 15.9 -9.35Q23.05 -3.15 23.05 3Q22.75 7 21.05 10.7Q17.7 18 10.6 18Q7.65 18 5.55 16.7L3.35 14.9Q2.25 16.8 0.7 18.15Q-2.55 21 -6.75 21Q-13.1 21 -15.8 16.95Q-17.8 14.05 -17.25 11.55Q-23.5 9.25 -23.5 4.6Q-23.5 2.15 -22.85 0.85Q-22 -0.85 -19.25 -3.25Q-18.7 -3.75 -15.75 -4.75L-11.85 -6.15Q-11.25 -6.45 -11.05 -7.05L-12.6 -9.15Q-14.2 -10.95 -14.55 -12.05Q-14.75 -12.6 -14.75 -14.45Q-14.75 -18.05 -12.3 -21.25Q-8.75 -25.8 -1.5 -26.6Q1.75 -26.95 5.15 -24.75L9 -21.85Q10.95 -20.25 11.6 -18.55Q12 -17.45 12 -15.45" />
<path style="fill:#FF6600;fill-opacity:1" d="M32.3,-28.9Q32.3 -27.95 31 -27Q29.4 -25.85 26.9 -25.85Q24.2 -25.85 23.5 -27.15Q23.15 -27.8 23.35 -28.5Q23.35 -31.6 27.85 -31.1Q32.3 -30.65 32.3 -28.9M7.85,-25.9Q9.85 -25.8 10.85 -24.65Q11.4 -23.95 13.05 -23.45L15.1 -22.85Q17.85 -21.55 19.4 -18.45Q20.65 -15.95 20.65 -13.7Q20.35 -12.05 19.7 -10.5L18.55 -8.4Q20.05 -7.7 21.8 -6.05Q27.15 -1.1 27.15 3.75Q27.15 6.55 24.9 8.65Q22.35 11 16.6 12.7L17.2 15Q17.2 16.05 16.1 17.55Q14.45 19.8 11.55 19.8Q9.3 19.8 9 19.2L8.25 18.6Q7.4 18.6 6.9 19.3L6.5 20.2Q6.5 20.95 7.2 20.95L7.6 20.95L8 20.85L8.4 20.9L8.7 20.85Q9.5 20.85 9.6 21.7L9.1 22.65Q8.7 23.05 8.2 23.1Q7.5 23.65 6.2 24.25Q3.25 25.55 -0.1 25.55Q-2.1 25.55 -2.85 24.95L-3.8 24.3L-4.7 24.95Q-5.6 25.55 -8.05 25.55Q-11.55 25.55 -13.5 22.6Q-14.8 20.65 -14.8 19.25Q-14.8 16.7 -12.45 13.75Q-12.35 13.2 -11.6 12.55L-10.9 11.65L-10.8 10.7Q-11 10.35 -11.7 10.05L-13.65 9.65Q-16.35 9.65 -16.1 11.85Q-15.85 14 -17.15 14Q-22.05 14 -24.3 10.25Q-25.65 8 -25.65 5.85Q-25.65 4.8 -25.25 3.95L-25.3 3.55Q-25.3 2.6 -24.75 1.65L-24.8 1.35L-23.3 -0.55L-24 -2.35L-24.45 -5.05L-24.25 -6.85Q-23.65 -8.3 -21.4 -8.2L-21 -9.6Q-20.5 -10.55 -19.25 -11.2L-18.8 -11.4L-18.65 -12.8L-18.05 -14.6L-18.1 -14.9Q-21.35 -15 -22.2 -16.8L-22.45 -19.25Q-22.45 -21.9 -19.3 -24.35L-17.6 -25.4Q-17.35 -25.85 -16.25 -25.8Q-14.8 -25.7 -14.8 -27.15L-15.2 -28.15Q-15.7 -28.8 -16.35 -28.8Q-17.2 -28.8 -17.95 -28.3Q-18.75 -27.8 -19.1 -27.8Q-20.05 -27.8 -20.15 -28.45Q-20.45 -28.75 -20.35 -29.35Q-20.35 -33.1 -17.65 -35.6Q-15.15 -37.9 -11.65 -38.15Q-8.1 -38.45 -5.7 -36.5Q-3 -34.25 -3 -30L-3.1 -29.15Q-3.3 -28.65 -3.9 -28.65Q-4.45 -28.65 -4.75 -28.95Q-5.05 -29.3 -5.85 -29.3Q-6.5 -29.3 -7.05 -27.7L-6.65 -27.05Q-6.2 -26.6 -5.75 -26.6L-5.05 -27.25L-4.05 -27.95Q-3.25 -27.95 -3.15 -27L-3.2 -26.7L-1.85 -26.25Q0.65 -25.25 1.4 -23.3L1.5 -23.45Q3.25 -25.2 4.85 -25.55L7.85 -25.9M11.9,-27.1Q11.9 -29.85 17.45 -28.15Q23 -26.4 23 -23.05Q23 -22.3 22.6 -21.45Q22.05 -20.25 21 -20.25Q20.2 -20.25 19.05 -21.95L17.5 -24.15Q16.45 -24.9 13.75 -25.6Q11.9 -26.05 11.9 -27.1M17.1,-36.05Q19.95 -36.7 19.95 -33.7Q19.95 -32.75 19.4 -31.85Q18.5 -30.4 16.6 -30.4Q14.7 -30.4 14.25 -31.35L14.2 -32.45Q14.2 -35.45 17.1 -36.05M32.8,17.5Q32.55 21.35 30.35 21.35Q28.1 21.35 26.7 18.6L25.75 16.05Q25.75 12.25 29.3 13.1Q32.8 13.9 32.8 17.5M2.85,34.5Q-0.3 34.5 -2.45 32.45Q-4.05 30.9 -4.05 29.8Q-4.05 28.4 -3 28.4Q-2.6 28.4 -2 28.75L-1.05 29.05Q1.15 29.05 6.05 27.55Q8.75 26.7 8.75 28.7Q8.75 29.9 7.45 31.85Q5.65 34.5 2.85 34.5M-37.2,-1.35Q-37.2 3.1 -40.1 3.1Q-41.8 3.1 -42.15 1.4L-42.15 -0.35Q-42.15 -4.85 -39.65 -4.8Q-37.2 -4.75 -37.2 -1.35M-32.4,-7.1Q-31.95 -8.6 -29.05 -9.1Q-25.65 -9.65 -25.65 -7.65L-26.2 -6.7L-26.2 -6.2Q-26.2 -5.2 -27.6 -3.6Q-29 -2.05 -29 -1.3Q-29 0.7 -27.85 3.5L-26.7 6.15Q-26.7 7.15 -27.85 7.15Q-31.4 7.15 -33.35 3.45Q-34.6 1.05 -34.6 -0.55Q-34.6 -2.3 -34 -4.3Q-33.4 -6.3 -32.4 -7.1" />
<path style="fill:#FFCC00;fill-opacity:1" d="M24.2,-28.45Q24.2 -29.15 24.5 -29.35L26 -29.55Q28.05 -29.55 28.05 -28.35L27.75 -27.6Q27.3 -27.25 26.1 -27.25Q24.65 -27.25 24.3 -27.85Q24.1 -28.1 24.2 -28.45M17.95,-31.7Q17.7 -31.45 17.3 -31.45Q16.75 -31.45 16.4 -32.05L16.15 -32.6Q16.15 -33.9 17.2 -33.65Q18.2 -33.4 18.2 -32.25L17.95 -31.7M15.85,-26.1Q15.25 -26.2 15.25 -26.65Q15.25 -28.2 17.95 -27.1Q20.65 -26.05 20.65 -24.05Q20.65 -23.2 19.75 -23.2Q19 -23.2 18.55 -24L17.9 -25.1Q16.85 -25.95 15.85 -26.1M17.9,-15.2Q17.9 -12.35 15.4 -12.35Q14.3 -12.35 12.5 -14.6L10.05 -17.85L6.65 -20.85Q5.75 -21.65 5.75 -23.35Q5.75 -24.3 7.65 -23.95Q9.45 -23.65 11.85 -22.35Q17.9 -18.95 17.9 -15.2M6.55,-9.65L3.45 -10.85Q-0.2 -12.1 -2.85 -12.1L-8.65 -11.4L-11.65 -10.75Q-13.05 -10.75 -13.45 -11.2L-13.55 -11.8Q-13.55 -13.65 -10.25 -15.1Q-7.05 -16.5 -2.9 -16.75Q1.55 -16.95 4.4 -15.6Q7.7 -14 7.7 -10.65Q7.7 -9.65 6.55 -9.65M5.6,-3.55Q5.6 -5.95 8.05 -5.1Q10.5 -4.3 10.5 -1.7Q10.5 1.9 8.95 1.9Q8.5 1.9 7 -0.8L5.6 -3.55M22.5,-3.15Q25.45 -0.25 25.45 1.75Q25.45 3.85 24.55 5.75Q22.95 9.25 18.95 9.25Q16.45 9.25 15.95 7.4L15.95 5.5Q15.95 3.55 16.35 0.95L17.15 -3.6Q19.2 -6.4 22.5 -3.15M30.25,19.1Q28.05 19.1 27.4 17.9Q27.15 17.4 27.15 16.35Q27.15 13.8 29.35 14.45Q31.55 15.1 31.55 17.15Q31.55 19.1 30.25 19.1M4.7,21.2L4.6 21.9Q4.1 22.4 1.95 22.4Q-0.55 22.4 -1.55 21.85Q-2.6 21.25 -4.15 21.25Q-5.25 21.25 -5.8 21.6L-7.35 21.9Q-9.95 21.9 -11.2 19.6L-11.95 17.35Q-11.95 15.25 -10.85 14.7Q-8.6 13.6 -1.25 15.75L2.15 18.55Q4.7 20.85 4.7 21.2M5.4,31.65Q5.4 33.1 3.2 33.1Q0.85 33.1 0.05 32.55Q-0.4 32.25 -0.4 31.6Q-0.4 30.8 2.5 29.9Q5.4 29 5.4 31.65M-16.05,-30.4Q-17.3 -30.4 -17.65 -31.3L-17.75 -32.25Q-17.75 -36.2 -11.8 -36.2Q-9.45 -36.2 -7.7 -35.4Q-5.85 -34.5 -5.85 -33.05Q-5.85 -32.15 -6.1 -31.75Q-6.5 -31.1 -7.8 -31.1L-8.75 -31.35L-9.7 -31.6L-14.2 -31L-16.05 -30.4M-37.9,-1.05Q-37.9 0.85 -39.15 0.85Q-40.05 0.85 -40.25 -0.15L-40.25 -1.15Q-40.25 -3.35 -39.05 -3.05Q-37.9 -2.7 -37.9 -1.05M-32.7,-2.65Q-32.7 -4.7 -30.75 -6.15Q-28.8 -7.65 -28.8 -5.45Q-28.8 -4.7 -29.5 -3.05Q-30.35 -0.95 -31.35 -0.95Q-32.45 -0.95 -32.7 -1.8L-32.7 -2.65M-20.7,-5.55Q-19.3 -5.55 -19.3 -3.9Q-19.3 -2.35 -20.45 -2.35Q-21.45 -2.35 -21.9 -3.35L-22.15 -4.25Q-22.15 -5.6 -20.7 -5.55M-4.7,-20.7Q-5.85 -20.1 -9.05 -19.35L-13.1 -18.1Q-16.35 -17.05 -16.95 -17.05Q-18.6 -17.05 -19.15 -18.95L-19.35 -20.85Q-19.35 -26.35 -11.45 -25.85Q-8.5 -25.65 -6 -24.65Q-3.55 -23.6 -3.55 -22.6Q-3.55 -21.4 -4.7 -20.7M-17.5,10.3Q-18 11.7 -19.4 11.7Q-22.45 11.7 -23.5 8.6Q-24 7.05 -23.9 5.45Q-23.9 3.35 -22.85 2.5Q-21.9 1.7 -20.55 2.25Q-17.25 3.6 -17.25 8.7Q-17.25 9.6 -17.5 10.3M-9.8,17.55L-9.8 17.6L-9.85 17.85L-9.7 18.5Q-9.5 19.05 -8.95 19.1L-9.4 18.25L-9.8 17.55M-30.2,3.8Q-31 3.8 -31.3 2.8L-31.45 1.8Q-31.45 0.15 -30.35 0.65Q-29.3 1.15 -29.3 2.9L-29.55 3.5Q-29.8 3.8 -30.2 3.8" />
</g>
</svg>
