<?xml version="1.0" encoding="utf-8"?>
<svg version="1.1" id="Layer_1"
xmlns="http://www.w3.org/2000/svg"
xmlns:xlink="http://www.w3.org/1999/xlink"
xmlns:author="http://www.sothink.com"
width="53px" height="43px"
xml:space="preserve">
<g id="143" transform="matrix(1, 0, 0, 1, 26.2, 21.2)">
<path style="fill:#953636;fill-opacity:1" d="M-11.5,6.7L-13.55 6.5Q-15.25 6.4 -16.05 5.75L-16.55 5.1L-16.6 5.1L-17 3.1L-17 1.65L-15.25 1.95L-14.15 2.05L-10.9 2.3L-6.25 2.45L-5.7 2.5L0.05 2.45L6.5 2.45L7.7 2.5L13.4 2L15.45 1.65L18.05 0.95Q18.05 4.35 16.35 4.95L11.5 5.8L11.5 5.85L9.2 5.5Q2.85 5.5 -0.35 6.55L-2.9 7.25Q-3.6 6.8 -4.65 6.75L-10.75 6.75L-11.5 6.7M-7.85,18.5L1.25 18.95L1.25 19.05L10.1 18.55L11.15 18.55L10.2 19.9Q9.2 20.6 5.95 20.6L3.7 20.35L-7.45 20.65Q-9.6 20.65 -11.25 19.65Q-13.15 18.5 -13.15 16.75Q-9.85 18.1 -7.85 18.5" />
<path style="fill:#B44E4E;fill-opacity:1" d="M-1.95,12.2Q-1.8 11.25 -1.8 10Q-1.8 8.05 -2.9 7.25L-0.35 6.55Q2.85 5.5 9.2 5.5L11.5 5.85L11.65 11.2L11.65 12.6L11.7 12.6L13.4 12.35Q14.2 12.35 14.1 13.05Q14.05 13.75 14.6 13.75L15.9 13.7L18.05 13.6L19.25 13.55Q19.2 14.65 18.7 14.75L16.25 14.75L15.95 14.75L15.95 16L13.7 16.35L11.65 16.15L11.15 18.55L10.1 18.55L1.25 19.05L1.25 18.95L-7.85 18.5Q-9.85 18.1 -13.15 16.75L-13.15 16.7L-12.95 15.8L-12 16.65Q-10.8 17.35 -8.55 17.35L-4.35 17.2Q-1.65 16.7 -1.15 14.75L-1.05 13.8Q-1.05 13.3 -1.95 12.2M0.9,9.75Q0.4 10.3 0.4 11.25Q0.4 12.55 1.5 13.35Q2.55 14.1 4.3 14.1Q5.65 14.1 6.7 13.55Q8 12.75 8 11.5L7.75 10.65L7.3 10.1L7.3 9.9Q7.3 7.75 6.5 7.45L2.9 7.1L1.7 7.1L1.6 7.7L1.6 8.25L1.5 9.25L0.9 9.75" />
<path style="fill:#DE7878;fill-opacity:1" d="M11.65,11.2L15.45 11.2Q15.8 11.35 15.8 12.4L15.8 12.45L16.25 12.45L19.15 12.45L19.25 13.25L19.25 13.55L18.05 13.6L15.9 13.7L14.6 13.75Q14.05 13.75 14.1 13.05Q14.2 12.35 13.4 12.35L11.7 12.6L11.65 12.6L11.65 11.2M-4.3,14.95Q-3.65 14.8 -3.15 14.4Q-2.3 13.7 -1.95 12.2Q-1.05 13.3 -1.05 13.8L-1.15 14.75Q-1.65 16.7 -4.35 17.2L-8.55 17.35Q-10.8 17.35 -12 16.65L-12.95 15.8L-12.9 15.55Q-12.6 15.1 -12.2 15.2L-11.75 15.2L-4.3 14.95M7.3,10.1L7.75 10.65L8 11.5Q8 12.75 6.7 13.55Q5.65 14.1 4.3 14.1Q2.55 14.1 1.5 13.35Q0.4 12.55 0.4 11.25Q0.4 10.3 0.9 9.75L1.5 9.25L1.35 10.25Q1.35 11.5 2.35 11.85L4.3 12L6.65 11.85L7.3 10.6L7.3 10.1" />
<path style="fill:#232222;fill-opacity:1" d="M-9.15,12.35L-11.85 9.6L-11.6 7.4L-11.55 7.1L-11.5 6.7L-10.75 6.75L-4.65 6.75Q-3.6 6.8 -2.9 7.25Q-1.8 8.05 -1.8 10Q-1.8 11.25 -1.95 12.2Q-2.3 13.7 -3.15 14.4Q-7.4 13.45 -9.15 12.35M7.3,10.6Q5 10.15 4 9.75Q2.7 9.25 1.6 8.25L1.6 7.7L1.7 7.1L2.9 7.1L6.5 7.45Q7.3 7.75 7.3 9.9L7.3 10.1L7.3 10.6M5.95,8.95Q6.05 8.5 5.45 8.5Q4.95 8.5 4.95 9Q4.95 9.6 5.5 9.6Q5.95 9.6 5.95 8.95M-3.7,9.55Q-3.7 8.55 -4.7 8.2Q-5.7 7.85 -5.7 8.9Q-5.55 10.3 -4.3 10.3Q-3.7 10.3 -3.7 9.55" />
<path style="fill:#3A3939;fill-opacity:1" d="M-3.15,14.4Q-3.65 14.8 -4.3 14.95L-11.75 15.2L-11.85 10.55L-11.85 9.6L-9.15 12.35Q-7.4 13.45 -3.15 14.4M4,9.75Q5 10.15 7.3 10.6L6.65 11.85L4.3 12L2.35 11.85Q1.35 11.5 1.35 10.25L1.5 9.25L1.6 8.25Q2.7 9.25 4 9.75" />
<path style="fill:#7B7B7B;fill-opacity:1" d="M5.5,9.6Q4.95 9.6 4.95 9Q4.95 8.5 5.45 8.5Q6.05 8.5 5.95 8.95Q5.95 9.6 5.5 9.6M-4.3,10.3Q-5.55 10.3 -5.7 8.9Q-5.7 7.85 -4.7 8.2Q-3.7 8.55 -3.7 9.55Q-3.7 10.3 -4.3 10.3" />
<path style="fill:#ECD784;fill-opacity:1" d="M22.65,-2.15Q24.1 -3.25 22.65 -4.7Q21.2 -6.25 21.3 -7.1L21.35 -8.45Q21.35 -12 18.1 -14.3L18.25 -14.95Q18.4 -15.9 17.35 -15.9Q16.6 -15.9 16.55 -15.25L15.15 -15.85L14.2 -16.2L14.3 -16.7L13.85 -17.7Q13.35 -18.15 13.35 -18.55L14.8 -20.1L15 -20.1L15.05 -20.1Q18.9 -19.7 21.9 -17.4Q25.45 -14.65 25.65 -11.55L25.7 -7.7L25.6 -6.6L25.55 -6.1L25.15 -5Q24.9 -4.15 23.6 -2.65L21.1 -0.5Q21.2 -1.1 22.65 -2.15M-20.6,-16.05Q-21.95 -16.05 -23.5 -16.65L-23.9 -16.85L-23.45 -17.45Q-21.2 -20.2 -16.95 -20.55L-15.7 -20.55L-14.9 -20.6L-15.8 -19.05L-16.85 -17.65L-15.8 -16.7L-20.6 -16.05" />
<path style="fill:#EECA3B;fill-opacity:1" d="M-15,-8.3L-15.35 -8.25Q-17.85 -8.25 -21.3 -9.55Q-23.65 -10.45 -25.65 -11.75Q-25.4 -14.65 -23.9 -16.85L-23.5 -16.65Q-21.95 -16.05 -20.6 -16.05L-15.8 -16.7Q-14.85 -15.8 -14.85 -15.55L-14.9 -15.25L-15.5 -13.65Q-16.15 -11.85 -16.05 -11.45L-14.9 -11.25L-14.3 -11.15Q-13.4 -10.9 -13.4 -10.4L-12.9 -8.6L-15 -8.3M7.1,-4.25Q4.3 -4.25 1.65 -5.25L1.5 -5.75L1.5 -6.9Q2.05 -6.65 3.45 -6.9L5.15 -7.2Q5.4 -7.2 5.85 -5.9Q6.3 -4.65 6.75 -4.65Q10.1 -4.65 11.45 -6.2Q12.3 -7.2 13.85 -10.4Q13.15 -10.4 12.5 -11.3Q11.85 -12.15 11.85 -12.85Q11.85 -13.4 13.1 -14.65L13.15 -14.65L13.5 -15.05L14.2 -16.2L15.15 -15.85L16.55 -15.25L16.5 -15.05L16.65 -14.55Q16.85 -14 17.5 -14Q17.9 -14 18.1 -14.3Q21.35 -12 21.35 -8.45L21.3 -7.1Q18.6 -5.8 15.4 -5.05L7.1 -4.25M-16.6,-11.9Q-16.6 -12.4 -16.95 -12.6L-18.5 -12.25L-18.65 -11.75L-18.35 -11.2Q-18 -10.8 -17.5 -10.8Q-16.6 -10.8 -16.6 -11.9" />
<path style="fill:#A8902F;fill-opacity:1" d="M-12.9,-8.6L-12.4 -7.35L-11.35 -5.1Q-9.3 -7.05 -8.15 -7.05Q-7.65 -7.05 -6.9 -6.2L-5.75 -4.75L-5.4 -4.9L-4.9 -5.3L-4.05 -6.05Q-3.65 -5.45 -3.3 -3.75Q-3.05 -2.65 -2.25 -2.6Q-2.25 -2.8 -1.15 -3Q0.1 -3.2 1.45 -3L1.9 -3L1.9 -3.6L1.8 -4.55L1.65 -5.25Q4.3 -4.25 7.1 -4.25L15.4 -5.05Q18.6 -5.8 21.3 -7.1Q21.2 -6.25 22.65 -4.7Q24.1 -3.25 22.65 -2.15Q21.2 -1.1 21.1 -0.5L19.6 0.3L18.05 0.95L15.45 1.65L13.4 2L7.7 2.5L6.5 2.45L0.05 2.45L-5.7 2.5L-6.25 2.45L-10.9 2.3L-14.15 2.05L-15.25 1.95L-17 1.65L-20.75 0.55Q-23.15 -0.55 -24.5 -3.75Q-25.85 -6.95 -25.7 -10.85L-25.65 -11.75Q-23.65 -10.45 -21.3 -9.55Q-17.85 -8.25 -15.35 -8.25L-15 -8.3L-12.9 -8.6M9.1,-1.05Q9.1 -0.05 10.1 -0.05L10.75 -0.5L10.95 -1.15Q10.95 -1.9 10.05 -1.7Q9.1 -1.4 9.1 -1.05" />
<path style="fill:#8E7820;fill-opacity:1" d="M17.7,-14.85Q18.15 -14.85 18.15 -15.2Q18.15 -15.75 17.2 -15.65L17.2 -14.9L17.7 -14.85M17.35,-15.9Q18.4 -15.9 18.25 -14.95L18.1 -14.3Q17.9 -14 17.5 -14Q16.85 -14 16.65 -14.55L16.5 -15.05L16.55 -15.25Q16.6 -15.9 17.35 -15.9M10.05,-1.7Q10.95 -1.9 10.95 -1.15L10.75 -0.5L10.1 -0.05Q9.1 -0.05 9.1 -1.05Q9.1 -1.4 10.05 -1.7M10.6,-1.45Q9.7 -2.1 9.7 -0.9L10.2 -0.85L10.6 -0.9L10.6 -1.45M-17.05,-11.55L-16.7 -11.6L-16.7 -11.95L-17 -12.3Q-17.6 -12.3 -17.5 -11.6L-17.05 -11.55M-17.5,-10.8Q-18 -10.8 -18.35 -11.2L-18.65 -11.75L-18.5 -12.25L-16.95 -12.6Q-16.6 -12.4 -16.6 -11.9Q-16.6 -10.8 -17.5 -10.8" />
<path style="fill:#CBB457;fill-opacity:1" d="M17.2,-14.9L17.2 -15.65Q18.15 -15.75 18.15 -15.2Q18.15 -14.85 17.7 -14.85L17.2 -14.9M10.6,-0.9L10.2 -0.85L9.7 -0.9Q9.7 -2.1 10.6 -1.45L10.6 -0.9M-17.5,-11.6Q-17.6 -12.3 -17 -12.3L-16.7 -11.95L-16.7 -11.6L-17.05 -11.55L-17.5 -11.6" />
<path style="fill:#695B24;fill-opacity:1" d="M-13.4,-10.4Q-13.4 -10.9 -14.3 -11.15L-14.9 -11.25L-16.05 -11.45Q-16.15 -11.85 -15.5 -13.65L-14.9 -15.25L-12.85 -13.7L-11.3 -12.55L-8.7 -14.6L-7.65 -14.15L-6.65 -13.7L-5.6 -14.6L-4.6 -15.65L-5.3 -17.1L-4.2 -17.8L-2.85 -18.2Q-2.35 -18.2 -1.8 -16.15Q-1.3 -14.15 -0.45 -14.15L1.95 -13.75L4.1 -13.2L5.2 -15.5Q6.95 -15.35 7 -15L7.2 -14.05Q7.4 -13.45 7.65 -13.45Q7.9 -13.45 8.9 -14L10.25 -14.75L9.75 -16L9.75 -16.5L10.4 -16.5Q11.2 -16.4 12.15 -15.5Q12.6 -15.1 13.15 -14.65L13.1 -14.65Q11.85 -13.4 11.85 -12.85Q11.85 -12.15 12.5 -11.3Q13.15 -10.4 13.85 -10.4Q12.3 -7.2 11.45 -6.2Q10.1 -4.65 6.75 -4.65Q6.3 -4.65 5.85 -5.9Q5.4 -7.2 5.15 -7.2L3.45 -6.9Q2.05 -6.65 1.5 -6.9L1.5 -5.75L1.65 -5.25L1.8 -4.55L1.9 -3.6L1.9 -3L1.45 -3Q0.1 -3.2 -1.15 -3Q-2.25 -2.8 -2.25 -2.6Q-3.05 -2.65 -3.3 -3.75Q-3.65 -5.45 -4.05 -6.05L-4.9 -5.3L-5.4 -4.9L-5.75 -4.75L-6.9 -6.2Q-7.65 -7.05 -8.15 -7.05Q-9.3 -7.05 -11.35 -5.1L-12.4 -7.35L-12.9 -8.6L-13.4 -10.4" />
<path style="fill:none;stroke-width:1;stroke-linecap:butt;stroke-linejoin:miter;stroke-miterlimit:3;stroke:#742323;stroke-opacity:1" d="M18.05,0.95Q18.05 4.35 16.35 4.95L11.5 5.8L11.5 5.85L11.65 11.2L15.45 11.2Q15.8 11.35 15.8 12.4L15.8 12.45M16.25,12.45L19.15 12.45L19.25 13.25L19.25 13.55Q19.2 14.65 18.7 14.75L16.25 14.75M15.9,13.7L15.95 14.05L15.95 14.75L15.95 16L13.7 16.35L11.65 16.15L11.15 18.55L10.2 19.9Q9.2 20.6 5.95 20.6L3.7 20.35L-7.45 20.65Q-9.6 20.65 -11.25 19.65Q-13.15 18.5 -13.15 16.75L-13.15 16.7L-12.95 15.8L-12.9 15.55Q-12.6 15.1 -12.2 15.2L-11.75 15.2L-11.85 10.55L-11.85 9.6L-11.6 7.4L-11.55 7.1M-1.95,12.2Q-1.8 11.25 -1.8 10Q-1.8 8.05 -2.9 7.25Q-3.6 6.8 -4.65 6.75L-10.75 6.75L-11.5 6.7L-13.55 6.5Q-15.25 6.4 -16.05 5.75L-16.55 5.1L-16.6 5.1L-17 3.1L-17 1.65M1.6,8.25L1.5 9.25L1.35 10.25Q1.35 11.5 2.35 11.85L4.3 12L6.65 11.85L7.3 10.6M1.6,8.25L1.6 7.7L1.7 7.1L2.9 7.1L6.5 7.45Q7.3 7.75 7.3 9.9L7.3 10.1L7.3 10.6M15.9,13.7L15.8 12.45M11.65,16.15L11.65 15.5L11.65 12.6L11.65 11.2M-1.95,12.2Q-2.3 13.7 -3.15 14.4Q-3.65 14.8 -4.3 14.95L-11.75 15.2" />
<path style="fill:none;stroke-width:1;stroke-linecap:butt;stroke-linejoin:miter;stroke-miterlimit:3;stroke:#5F4E09;stroke-opacity:1" d="M15.45,1.65L13.4 2L7.7 2.5L6.5 2.45L0.05 2.45L-5.7 2.5L-6.25 2.45L-10.9 2.3L-14.15 2.05L-15.25 1.95L-17 1.65L-20.75 0.55Q-23.15 -0.55 -24.5 -3.75Q-25.85 -6.95 -25.7 -10.85L-25.65 -11.75Q-25.4 -14.65 -23.9 -16.85L-23.45 -17.45Q-21.2 -20.2 -16.95 -20.55L-15.7 -20.55L-14.9 -20.6L-15.8 -19.05L-16.85 -17.65L-15.8 -16.7Q-14.85 -15.8 -14.85 -15.55L-14.9 -15.25L-12.85 -13.7L-11.3 -12.55L-8.7 -14.6L-7.65 -14.15L-6.65 -13.7L-5.6 -14.6L-4.6 -15.65L-5.3 -17.1L-4.2 -17.8L-2.85 -18.2Q-2.35 -18.2 -1.8 -16.15Q-1.3 -14.15 -0.45 -14.15L1.95 -13.75L4.1 -13.2L5.2 -15.5Q6.95 -15.35 7 -15L7.2 -14.05Q7.4 -13.45 7.65 -13.45Q7.9 -13.45 8.9 -14L10.25 -14.75L9.75 -16L9.75 -16.5L10.4 -16.5Q11.2 -16.4 12.15 -15.5Q12.6 -15.1 13.15 -14.65L13.5 -15.05L14.2 -16.2L14.3 -16.7L13.85 -17.7Q13.35 -18.15 13.35 -18.55L14.8 -20.1L15 -20.1M15.05,-20.1Q18.9 -19.7 21.9 -17.4Q25.45 -14.65 25.65 -11.55L25.7 -7.7L25.6 -6.6L25.55 -6.1L25.15 -5Q24.9 -4.15 23.6 -2.65L21.1 -0.5L19.6 0.3L18.05 0.95M-14.9,-11.25L-14.3 -11.15Q-13.4 -10.9 -13.4 -10.4L-12.9 -8.6L-12.4 -7.35L-11.35 -5.1Q-9.3 -7.05 -8.15 -7.05Q-7.65 -7.05 -6.9 -6.2L-5.75 -4.75L-5.4 -4.9L-4.9 -5.3L-4.05 -6.05Q-3.65 -5.45 -3.3 -3.75Q-3.05 -2.65 -2.25 -2.6Q-2.25 -2.8 -1.15 -3Q0.1 -3.2 1.45 -3L1.9 -3L1.9 -3.6L1.8 -4.55L1.65 -5.25L1.5 -5.75L1.5 -6.9Q2.05 -6.65 3.45 -6.9L5.15 -7.2Q5.4 -7.2 5.85 -5.9Q6.3 -4.65 6.75 -4.65Q10.1 -4.65 11.45 -6.2Q12.3 -7.2 13.85 -10.4Q13.15 -10.4 12.5 -11.3Q11.85 -12.15 11.85 -12.85Q11.85 -13.4 13.1 -14.65L13.15 -14.65M15.45,1.65L18.05 0.95M-14.9,-11.25L-16.05 -11.45Q-16.15 -11.85 -15.5 -13.65L-14.9 -15.25" />
<path style="fill:none;stroke-width:1;stroke-linecap:butt;stroke-linejoin:miter;stroke-miterlimit:3;stroke:#7B660E;stroke-opacity:1" d="M15,-20.1L15.05 -20.1M15.15,-15.85L15.05 -20.1M15.15,-15.85L15.4 -5.05L15.4 -3.65L15.45 1.65M7.7,2.5L7.65 -0.75Q7.75 -2.6 9.3 -3L12.2 -3.45L15.4 -3.65M-15,-8.3L-14.9 -11.25M-15,-8.3L-15.25 1.95M-5.4,-4.9L-5.75 1.4L-5.7 2.5" />
</g>
</svg>
