<?xml version="1.0" encoding="utf-8"?>
<svg version="1.1" id="Layer_1"
xmlns="http://www.w3.org/2000/svg"
xmlns:xlink="http://www.w3.org/1999/xlink"
xmlns:author="http://www.sothink.com"
width="549px" height="330px"
xml:space="preserve">
<g id="271" transform="matrix(1, 0, 0, 1, 274.15, 164.6)">
<path style="fill:#333232;fill-opacity:1" d="M-263.65,-13.1L-263.65 -42.5L-263.65 -73.65L-263.65 -103.95L-263.65 -135.15L-263.65 -147.85Q-263.65 -158.45 -252.85 -158.45L-236.35 -158.45L-209.4 -158.45L-181.6 -158.45L-153 -158.45L-125.2 -158.45L-96.6 -158.45L-69.6 -158.45L-41 -158.45L-13.2 -158.45L15.4 -158.45L42.3 -158.45L69.25 -158.45L97.05 -158.45L125.65 -158.45L153.45 -158.45L182.05 -158.45L209.05 -158.45L237.65 -158.45L254.85 -158.45Q264.2 -158.45 265.45 -150.45L265.65 -147.85L265.65 -135.15L265.65 -103.95L265.65 -73.65L265.65 -42.5L265.65 -13.1L265.65 18.05L265.65 48.35L265.65 79.5L265.65 109.8L265.65 139.2L265.65 148.45L265.45 151.1Q264.2 159.05 254.85 159.05L237.65 159.05L209.05 159.05L182.05 159.05L153.45 159.05L125.65 159.05L97.05 159.05L69.25 159.05L42.3 159.05L15.4 159.05L-13.2 159.05L-41 159.05L-69.6 159.05L-96.6 159.05L-125.2 159.05L-153 159.05L-181.6 159.05L-209.4 159.05L-236.35 159.05L-252.85 159.05Q-263.65 159.05 -263.65 148.45L-263.65 139.2L-263.65 109.8L-263.65 79.5L-263.65 48.35L-263.65 18.05L-263.65 -13.1" />
<path style="fill:none;stroke-width:1;stroke-linecap:round;stroke-linejoin:miter;stroke-miterlimit:3;stroke:#3C3B3B;stroke-opacity:1" d="M125.65,-159.25L125.65 -158.45M97.05,-159.25L97.05 -158.45M42.3,-159.25L42.3 -158.45M15.4,-159.25L15.4 -158.45M-181.6,-159.4L-181.6 -158.45M-236.35,-159.25L-236.35 -158.45M-13.2,-159.25L-13.2 -158.45M-265.6,139.2L-263.65 139.2" />
<path style="fill:none;stroke-width:2;stroke-linecap:round;stroke-linejoin:miter;stroke-miterlimit:3;stroke:#252525;stroke-opacity:1" d="M-236.35,-158.45L-209.4 -158.45L-181.6 -158.45L-153 -158.45L-125.2 -158.45L-96.6 -158.45L-69.6 -158.45L-41 -158.45L-13.2 -158.45L15.4 -158.45L42.3 -158.45L69.25 -158.45L97.05 -158.45L125.65 -158.45L153.45 -158.45L182.05 -158.45L209.05 -158.45L237.65 -158.45L254.85 -158.45Q264.2 -158.45 265.45 -150.45L265.65 -147.85L265.65 -135.15L265.65 -103.95L265.65 -73.65L265.65 -42.5L265.65 -13.1L265.65 18.05L265.65 48.35L265.65 79.5L265.65 109.8L265.65 139.2L265.65 148.45L265.45 151.1Q264.2 159.05 254.85 159.05L237.65 159.05M182.05,159.05L209.05 159.05L237.65 159.05M182.05,159.05L153.45 159.05L125.65 159.05L97.05 159.05L69.25 159.05M15.4,159.05L42.3 159.05L69.25 159.05M15.4,159.05L-13.2 159.05L-41 159.05L-69.6 159.05L-96.6 159.05L-125.2 159.05M-236.35,-158.45L-252.85 -158.45Q-263.65 -158.45 -263.65 -147.85L-263.65 -135.15L-263.65 -103.95M-263.65,-42.5L-263.65 -13.1M-263.65,-42.5L-263.65 -73.65L-263.65 -103.95M-153,159.05L-125.2 159.05M-153,159.05L-181.6 159.05L-209.4 159.05L-236.35 159.05M-263.65,18.05L-263.65 48.35L-263.65 79.5M-263.65,139.2L-263.65 109.8L-263.65 79.5M-263.65,139.2L-263.65 148.45Q-263.65 159.05 -252.85 159.05L-236.35 159.05M-263.65,18.05L-263.65 -13.1" />
<path style="fill:none;stroke-width:1;stroke-linecap:butt;stroke-linejoin:miter;stroke-miterlimit:3;stroke:#3C3B3B;stroke-opacity:1" d="M153.45,-158.45L153.45 -159.25M182.05,-158.45L182.05 -159.25M209.05,-158.45L209.05 -159.25M69.25,-158.45L69.25 -159.25M237.65,-158.45L237.65 -159.25M237.65,159.05L237.65 159.7M182.05,159.05L182.05 159.7M209.05,159.05L209.05 159.7M153.45,159.05L153.45 159.7M125.65,159.05L125.65 159.7M97.05,159.05L97.05 159.7M69.25,159.05L69.25 159.7M15.4,159.05L15.4 159.7M42.3,159.05L42.3 159.7M-13.2,159.05L-13.2 159.7M-153,-158.45L-153 -159.25M-209.4,-158.45L-209.4 -159.25M-125.2,-158.45L-125.2 -159.25M-96.6,-158.45L-96.6 -159.25M-69.6,-158.45L-69.6 -159.25M-41,-158.45L-41 -159.25M-41,159.05L-41 159.7M-69.6,159.05L-69.6 159.7M-96.6,159.05L-96.6 159.7M-125.2,159.05L-125.2 159.7M-153,159.05L-153 159.7M-181.6,159.05L-181.6 159.7M-209.4,159.05L-209.4 159.7M-236.35,159.05L-236.35 159.7" />
<path style="fill:none;stroke-width:1;stroke-linecap:round;stroke-linejoin:miter;stroke-miterlimit:3;stroke:#3C3B3B;stroke-opacity:1" d="M125.65,-158.45L125.65 -135.15L153.45 -135.15L153.45 -158.45M42.3,-103.95L69.25 -103.95L97.05 -103.95L125.65 -103.95L125.65 -135.15L97.05 -135.15L97.05 -103.95L97.05 -73.65L125.65 -73.65L125.65 -103.95L153.45 -103.95L153.45 -135.15L182.05 -135.15L182.05 -158.45M97.05,-158.45L97.05 -135.15L69.25 -135.15L69.25 -103.95L69.25 -73.65L97.05 -73.65L97.05 -42.5L125.65 -42.5L125.65 -73.65L153.45 -73.65L153.45 -103.95L182.05 -103.95L182.05 -135.15L209.05 -135.15L209.05 -158.45M42.3,-158.45L42.3 -135.15L69.25 -135.15L69.25 -158.45M-13.2,-73.65L-41 -73.65L-41 -103.95L-13.2 -103.95L15.4 -103.95L42.3 -103.95L42.3 -135.15L15.4 -135.15L15.4 -103.95L15.4 -73.65L42.3 -73.65L42.3 -103.95M15.4,-158.45L15.4 -135.15L-13.2 -135.15L-13.2 -103.95L-13.2 -73.65L15.4 -73.65L15.4 -42.5L-13.2 -42.5L-13.2 -13.1L-13.2 18.05L15.4 18.05L15.4 48.35L42.3 48.35L42.3 79.5L69.25 79.5L69.25 48.35L97.05 48.35L97.05 79.5L125.65 79.5L125.65 109.8L153.45 109.8L153.45 79.5L182.05 79.5L182.05 109.8L153.45 109.8L153.45 139.2L182.05 139.2L182.05 159.05M42.3,-42.5L42.3 -73.65L69.25 -73.65L69.25 -42.5L97.05 -42.5L97.05 -13.1L125.65 -13.1L125.65 -42.5L153.45 -42.5L153.45 -73.65L182.05 -73.65L182.05 -103.95L209.05 -103.95L209.05 -135.15L237.65 -135.15L237.65 -158.45M-41,109.8L-41 79.5L-41 48.35L-41 18.05L-41 -13.1L-13.2 -13.1L15.4 -13.1L42.3 -13.1L42.3 -42.5L15.4 -42.5L15.4 -13.1L15.4 18.05L42.3 18.05L42.3 -13.1L69.25 -13.1L69.25 -42.5L42.3 -42.5M69.25,18.05L69.25 -13.1L97.05 -13.1L97.05 18.05L125.65 18.05L125.65 -13.1L153.45 -13.1L153.45 -42.5L182.05 -42.5L182.05 -73.65L209.05 -73.65L209.05 -103.95L237.65 -103.95L237.65 -135.15L265.45 -135.15L265.45 -150.45M265.65,-135.15L265.45 -135.15L265.45 -103.95L265.65 -103.95M209.05,-73.65L209.05 -42.5L237.65 -42.5L237.65 -73.65L209.05 -73.65M182.05,-13.1L182.05 18.05L153.45 18.05L153.45 -13.1L182.05 -13.1L182.05 -42.5L209.05 -42.5L209.05 -13.1L237.65 -13.1L237.65 -42.5L265.45 -42.5L265.45 -73.65L237.65 -73.65L237.65 -103.95L265.45 -103.95L265.45 -73.65L265.65 -73.65M182.05,-13.1L209.05 -13.1L209.05 18.05L237.65 18.05L237.65 -13.1L265.45 -13.1L265.45 -42.5L265.65 -42.5M209.05,18.05L209.05 48.35L237.65 48.35L237.65 18.05L265.45 18.05L265.45 -13.1L265.65 -13.1M265.65,18.05L265.45 18.05L265.45 48.35L265.65 48.35M209.05,18.05L182.05 18.05L182.05 48.35L209.05 48.35L209.05 79.5L237.65 79.5L237.65 48.35L265.45 48.35L265.45 79.5L265.65 79.5M69.25,18.05L97.05 18.05L97.05 48.35L125.65 48.35L125.65 79.5L153.45 79.5L153.45 48.35L182.05 48.35L182.05 79.5L209.05 79.5L209.05 109.8L237.65 109.8L237.65 79.5L265.45 79.5L265.45 109.8L265.65 109.8M209.05,109.8L209.05 139.2L237.65 139.2L237.65 109.8L265.45 109.8L265.45 139.2L265.65 139.2M209.05,109.8L182.05 109.8L182.05 139.2L209.05 139.2L209.05 159.05M237.65,159.05L237.65 139.2L265.45 139.2L265.45 151.1M125.65,18.05L125.65 48.35L153.45 48.35L153.45 18.05L125.65 18.05M69.25,18.05L42.3 18.05L42.3 48.35L69.25 48.35L69.25 18.05M-96.6,-13.1L-69.6 -13.1L-69.6 18.05L-41 18.05L-13.2 18.05L-13.2 48.35L15.4 48.35L15.4 79.5L42.3 79.5L42.3 109.8L69.25 109.8L69.25 79.5L97.05 79.5L97.05 109.8L125.65 109.8L125.65 139.2L153.45 139.2L153.45 159.05M42.3,109.8L42.3 139.2L69.25 139.2L69.25 109.8L97.05 109.8L97.05 139.2L125.65 139.2L125.65 159.05M42.3,109.8L15.4 109.8L15.4 139.2L42.3 139.2L42.3 159.05M69.25,159.05L69.25 139.2L97.05 139.2L97.05 159.05M-69.6,18.05L-69.6 48.35L-41 48.35L-13.2 48.35L-13.2 79.5L15.4 79.5L15.4 109.8L-13.2 109.8L-13.2 139.2L15.4 139.2L15.4 159.05M-181.6,-158.45L-181.6 -135.15L-153 -135.15L-153 -158.45M-236.35,-158.45L-236.35 -135.15L-209.4 -135.15L-209.4 -158.45M-263.65,-135.15L-236.35 -135.15L-236.35 -103.95L-209.4 -103.95L-209.4 -135.15L-181.6 -135.15L-181.6 -103.95L-153 -103.95L-153 -135.15L-125.2 -135.15L-125.2 -158.45M-263.65,-103.95L-236.35 -103.95L-236.35 -73.65L-209.4 -73.65L-209.4 -103.95L-181.6 -103.95L-181.6 -73.65L-153 -73.65L-153 -103.95L-125.2 -103.95L-125.2 -135.15L-96.6 -135.15L-96.6 -158.45M-263.65,-13.1L-236.35 -13.1L-236.35 -42.5L-263.65 -42.5M-236.35,18.05L-236.35 -13.1L-209.4 -13.1L-209.4 -42.5L-236.35 -42.5L-236.35 -73.65L-263.65 -73.65M-209.4,18.05L-209.4 -13.1L-181.6 -13.1L-153 -13.1L-153 -42.5L-181.6 -42.5L-181.6 -13.1L-181.6 18.05L-153 18.05L-153 -13.1L-125.2 -13.1L-125.2 -42.5L-153 -42.5L-153 -73.65L-125.2 -73.65L-125.2 -103.95L-96.6 -103.95L-96.6 -135.15L-69.6 -135.15L-69.6 -158.45M-209.4,-73.65L-181.6 -73.65L-181.6 -42.5L-209.4 -42.5L-209.4 -73.65M-41,-103.95L-41 -135.15L-69.6 -135.15L-69.6 -103.95L-41 -103.95M-13.2,-158.45L-13.2 -135.15L-41 -135.15L-41 -158.45M-96.6,-13.1L-96.6 18.05L-125.2 18.05L-125.2 -13.1L-96.6 -13.1L-96.6 -42.5L-125.2 -42.5L-125.2 -73.65L-96.6 -73.65L-96.6 -103.95L-69.6 -103.95L-69.6 -73.65L-41 -73.65L-41 -42.5L-13.2 -42.5L-13.2 -73.65M-96.6,-42.5L-69.6 -42.5L-69.6 -73.65L-96.6 -73.65L-96.6 -42.5M-41,-13.1L-41 -42.5L-69.6 -42.5L-69.6 -13.1L-41 -13.1M-69.6,18.05L-96.6 18.05L-96.6 48.35L-69.6 48.35L-69.6 79.5L-41 79.5L-13.2 79.5L-13.2 109.8L-41 109.8L-41 139.2L-13.2 139.2L-13.2 159.05M-153,18.05L-153 48.35L-125.2 48.35L-125.2 18.05L-153 18.05M-181.6,18.05L-181.6 48.35L-153 48.35L-153 79.5L-125.2 79.5L-125.2 48.35L-96.6 48.35L-96.6 79.5L-69.6 79.5L-69.6 109.8L-41 109.8M-96.6,109.8L-125.2 109.8L-125.2 79.5L-96.6 79.5L-96.6 109.8L-69.6 109.8L-69.6 139.2L-41 139.2L-41 159.05M-96.6,109.8L-96.6 139.2L-69.6 139.2L-69.6 159.05M-125.2,159.05L-125.2 139.2L-125.2 109.8L-153 109.8L-153 139.2L-125.2 139.2L-96.6 139.2L-96.6 159.05M-263.65,48.35L-236.35 48.35L-236.35 79.5L-209.4 79.5L-209.4 48.35L-181.6 48.35L-181.6 79.5L-153 79.5L-153 109.8L-181.6 109.8L-181.6 139.2L-153 139.2L-153 159.05M-236.35,18.05L-236.35 48.35L-209.4 48.35L-209.4 18.05L-236.35 18.05L-263.65 18.05M-181.6,18.05L-209.4 18.05M-263.65,79.5L-236.35 79.5L-236.35 109.8L-209.4 109.8L-209.4 79.5L-181.6 79.5L-181.6 109.8L-209.4 109.8L-209.4 139.2L-181.6 139.2L-181.6 159.05M-236.35,159.05L-236.35 139.2L-263.65 139.2M-263.65,109.8L-236.35 109.8L-236.35 139.2L-209.4 139.2L-209.4 159.05" />
<path style="fill:#668585;fill-opacity:1" d="M262.55,163.6L-262.55 163.6Q-273.15 163.6 -273.15 153L-273.15 -153Q-273.15 -156.6 -271.9 -158.9L-269.65 -158.7L-265.05 -159.35L-264.35 -159.45L-253.25 -160.55L-224.35 -159.25L-224.25 -159.25L-222.95 -159.2L-209.4 -158.5L-208.4 -158.45L-197.2 -157.9L-191.15 -158.45L-184.65 -159.1L-181.6 -159.4L-166 -160.35L-165.4 -160.35L-165.7 -160.25L-160.95 -160.25Q-154.9 -160.4 -152.4 -160.1L-143.05 -159.3L-142.75 -159.3L-142.95 -159.25L-132.9 -159.7L-118.05 -160.35L-109.95 -160L-104.55 -159.7L-81.15 -160.35L-75.25 -160.3L-67.65 -159.7L-65.2 -159.7L-64.4 -159.45L-62.15 -159.25L-45.75 -161.1L-16.85 -159.8L-16.75 -159.8L-15.45 -159.75L-1.9 -159.05L-0.9 -159L10.3 -158.45L16.35 -159L22.85 -159.65L25.9 -159.95L41.5 -160.9L42.1 -160.9L41.8 -160.8L46.55 -160.8Q52.6 -160.95 55.1 -160.65L64.45 -159.85L64.75 -159.85L64.55 -159.8L74.6 -160.25L89.45 -160.9L97.55 -160.55L102.95 -160.25L126.35 -160.9L132.25 -160.85L139.85 -160.25L145.3 -160.25L145.3 -160.35L146.9 -160.35Q149.5 -159.1 164.35 -159.1L170.4 -159.5L176.85 -159.9L186.2 -159.5L203.95 -159.7L208.1 -160L212.6 -160.35Q219.1 -160.35 227.3 -159.95Q236 -159.55 244 -159.5L251 -159.2Q254.6 -159 256.6 -159.1L263.45 -158.8L263.7 -158.75Q264.95 -158.5 265.85 -158.05L266.9 -157.4Q269 -155.85 269 -152.6Q269 -149.2 268.5 -144.8Q268 -140.4 268 -137.95Q268 -134.65 268.5 -123L269 -105.35Q269 -102.3 269.3 -100.65L269.6 -96.3L269 -89.2L269 -88.9L269 -88.8L268.8 -77.5L268.6 -65.7L269 -40L269.7 -28.75L270.4 -17.45Q270.4 -14.75 269.8 -8.85Q269.2 -2.95 269.2 -0.2L269.35 2.65L269.6 6.3L268.55 31.85Q267.6 53.45 267.6 57.65Q267.6 65.35 268.7 79.05Q269.6 90.3 269.25 99.75L269.25 99.95L269.2 100.35Q269.1 102.45 269.15 118.45Q269.15 134.4 268.45 145.6Q267.8 155.75 267.7 146.35L267.6 148Q267.6 152.8 268.85 156.75Q269.6 159.1 270.75 160.7Q268.1 163.6 262.55 163.6M-264.15,-130.05Q-264.55 -124.2 -264.55 -106.1Q-264.55 -99.4 -263.75 -79.65Q-262.95 -59.9 -262.95 -53.65Q-262.95 -50.7 -263.75 -44.85Q-264.55 -39 -264.55 -29.7L-264.15 8.15L-264.15 10.6Q-263.25 13.55 -263.05 18.1L-262.95 26Q-262.95 36.35 -264.55 63.35Q-266.2 90.4 -266.2 102.2Q-266.2 120.1 -264.15 133.75Q-263.55 137.85 -262.75 141.15L-262.95 143Q-262.95 152.75 -252.8 156.05Q-246.7 158.05 -232.9 158.05Q-225 158.05 -217.5 156.85L-204.65 155.65L-192 156.85L-180.05 158.05Q-177.8 158.05 -174.1 157.05Q-170.45 156.05 -169.1 156.05L-139.4 158.9L-132.1 158.3L-124.4 157.65L-114.05 158.5L-103.25 159.3L-88.5 158.7Q-75.25 158.05 -58.15 158.05L-45.05 158.05L-31.4 157.85Q-27.45 157.6 -21.7 157.85L-13.45 157.25L2.2 158.05L14.55 157.45Q23.7 156.85 24.8 157.25L38.15 157.85L53 158.05L65.4 157.65L77.6 156.85L81.4 157.25L86.15 157.65Q86.15 157.15 108.3 157.25Q130.05 157.35 130.45 156.9L143.55 157.7L156.5 158.5L156.85 158.55L156.9 158.55L162.2 158.05L167.85 157.25L171.2 157.65L174.55 158.05L184.05 157.25L197.75 156.45L225.35 156.85L239.95 157.65L250.35 156.85Q254.8 155.6 256.2 152.35Q262.3 150.65 262.3 142.95L262.3 -143.3Q262.3 -153.2 252.2 -153.2L-249.8 -153.2Q-256.3 -153.2 -258.6 -149.1Q-262.9 -148.1 -264.15 -130.05M130.45,156.9L128 156.85L129.6 156.5Q130.45 156.25 130.45 156.85L130.45 156.9" />
<path style="fill:#7A9F9F;fill-opacity:1" d="M263.7,-158.75L263.45 -158.8L256.6 -159.1Q254.6 -159 251 -159.2L244 -159.5Q236 -159.55 227.3 -159.95Q219.1 -160.35 212.6 -160.35L208.1 -160L203.95 -159.7L186.2 -159.5L176.85 -159.9L170.4 -159.5L164.35 -159.1Q149.5 -159.1 146.9 -160.35L145.3 -160.35L145.3 -160.25L139.85 -160.25L132.25 -160.85L126.35 -160.9L102.95 -160.25L97.55 -160.55L89.45 -160.9L74.6 -160.25L64.55 -159.8L64.75 -159.85L64.45 -159.85L55.1 -160.65Q52.6 -160.95 46.55 -160.8L41.8 -160.8L42.1 -160.9L41.5 -160.9L25.9 -159.95L22.85 -159.65L16.35 -159L10.3 -158.45L-0.9 -159L-1.9 -159.05L-15.45 -159.75L-16.75 -159.8L-16.85 -159.8L-45.75 -161.1L-62.15 -159.25L-64.4 -159.45L-65.2 -159.7L-67.65 -159.7L-75.25 -160.3L-81.15 -160.35L-104.55 -159.7L-109.95 -160L-118.05 -160.35L-132.9 -159.7L-142.95 -159.25L-142.75 -159.3L-143.05 -159.3L-152.4 -160.1Q-154.9 -160.4 -160.95 -160.25L-165.7 -160.25L-165.4 -160.35L-166 -160.35L-181.6 -159.4L-184.65 -159.1L-191.15 -158.45L-197.2 -157.9L-208.4 -158.45L-209.4 -158.5L-222.95 -159.2L-224.25 -159.25L-224.05 -159.3L-224.35 -159.3L-224.35 -159.25L-253.25 -160.55L-264.35 -159.45L-265.05 -159.35L-269.65 -158.7L-271.9 -158.9L-271.85 -159.05Q-269.45 -163.6 -262.55 -163.6L262.55 -163.6Q273.15 -163.6 273.15 -153L273.15 153Q273.15 158.05 270.75 160.7Q269.6 159.1 268.85 156.75Q267.6 152.8 267.6 148L267.7 146.35Q267.8 155.75 268.45 145.6Q269.15 134.4 269.15 118.45Q269.1 102.45 269.2 100.35L269.25 99.95L269.25 99.75Q269.6 90.3 268.7 79.05Q267.6 65.35 267.6 57.65Q267.6 53.45 268.55 31.85L269.6 6.3L269.35 2.65L269.2 -0.2Q269.2 -2.95 269.8 -8.85Q270.4 -14.75 270.4 -17.45L269.7 -28.75L269 -40L268.6 -65.7L268.8 -77.5L269 -88.8L269 -88.9L269 -89.2L269.6 -96.3L269.3 -100.65Q269 -102.3 269 -105.35L268.5 -123Q268 -134.65 268 -137.95Q268 -140.4 268.5 -144.8Q269 -149.2 269 -152.6Q269 -155.85 266.9 -157.4L265.85 -158.05Q264.95 -158.5 263.7 -158.75M-258.6,-149.1Q-259.9 -146.8 -259.9 -143.3L-259.9 142.95Q-259.9 152.85 -249.8 152.85L252.2 152.85L256.2 152.35Q254.8 155.6 250.35 156.85L239.95 157.65L225.35 156.85L197.75 156.45L184.05 157.25L174.55 158.05L171.2 157.65L167.85 157.25L162.2 158.05L156.9 158.55L156.85 158.55L156.5 158.5L143.55 157.7L130.45 156.9Q130.05 157.35 108.3 157.25Q86.15 157.15 86.15 157.65L81.4 157.25L77.6 156.85L65.4 157.65L53 158.05L38.15 157.85L24.8 157.25Q23.7 156.85 14.55 157.45L2.2 158.05L-13.45 157.25L-21.7 157.85Q-27.45 157.6 -31.4 157.85L-45.05 158.05L-58.15 158.05Q-75.25 158.05 -88.5 158.7L-103.25 159.3L-114.05 158.5L-124.4 157.65L-132.1 158.3L-139.4 158.9L-169.1 156.05Q-170.45 156.05 -174.1 157.05Q-177.8 158.05 -180.05 158.05L-192 156.85L-204.65 155.65L-217.5 156.85Q-225 158.05 -232.9 158.05Q-246.7 158.05 -252.8 156.05Q-262.95 152.75 -262.95 143L-262.75 141.15Q-263.55 137.85 -264.15 133.75Q-266.2 120.1 -266.2 102.2Q-266.2 90.4 -264.55 63.35Q-262.95 36.35 -262.95 26L-263.05 18.1Q-263.25 13.55 -264.15 10.6L-264.15 8.15L-264.55 -29.7Q-264.55 -39 -263.75 -44.85Q-262.95 -50.7 -262.95 -53.65Q-262.95 -59.9 -263.75 -79.65Q-264.55 -99.4 -264.55 -106.1Q-264.55 -124.2 -264.15 -130.05Q-262.9 -148.1 -258.6 -149.1M130.45,156.85Q130.45 156.25 129.6 156.5L128 156.85L130.45 156.9L130.45 156.85" />
<path style="fill:none;stroke-width:2;stroke-linecap:butt;stroke-linejoin:miter;stroke-miterlimit:3;stroke:#435B5B;stroke-opacity:1" d="M270.75,160.7Q273.15 158.05 273.15 153L273.15 -153Q273.15 -163.6 262.55 -163.6L-262.55 -163.6Q-269.45 -163.6 -271.85 -159.05L-271.9 -158.9Q-273.15 -156.6 -273.15 -153L-273.15 153Q-273.15 163.6 -262.55 163.6L262.55 163.6Q268.1 163.6 270.75 160.7M256.2,152.35Q262.3 150.65 262.3 142.95L262.3 -143.3Q262.3 -153.2 252.2 -153.2L-249.8 -153.2Q-256.3 -153.2 -258.6 -149.1Q-259.9 -146.8 -259.9 -143.3L-259.9 142.95Q-259.9 152.85 -249.8 152.85L252.2 152.85L256.2 152.35" />
<path style="fill:none;stroke-width:1;stroke-linecap:butt;stroke-linejoin:miter;stroke-miterlimit:3;stroke:#435B5B;stroke-opacity:1" d="M263.7,-158.75L263.95 -159Q264.5 -159.45 265.15 -159.45Q265.95 -159.45 266.45 -158.75Q266.85 -158.15 266.9 -157.4M-265.05,-159.35L-264.35 -159.45M263.45,-158.8L263 -157.95L262.8 -156.85Q262.8 -155.65 263.4 -155.25Q263.8 -154.95 264.65 -154.95Q266.9 -154.95 266.9 -157.25L266.9 -157.4M263.7,-158.75Q263.35 -158.35 263.3 -157.8M-265.05,-159.35L-265.45 -159.15L-266 -158.5L-266.6 -157.5L-266.75 -156.6Q-266.75 -155.55 -265.9 -154.95Q-265.25 -154.5 -264.45 -154.5Q-263.4 -154.5 -262.75 -155.15Q-262 -155.85 -262 -157Q-262 -158.25 -262.85 -158.95Q-263.5 -159.45 -264.35 -159.45M-264.75,152Q-265.65 151.3 -266.55 151.3Q-267.3 151.3 -267.8 151.95L-268.85 153.25L-268.95 153.95Q-268.95 155.4 -268 156.25Q-267.2 156.95 -266.25 156.95Q-265.1 156.95 -264.35 155.8Q-263.7 154.85 -263.7 153.95Q-263.7 152.8 -264.75 152M-268.45,152.25L-268.85 153.25M263.25,153.15L262.6 153.7L262.45 153.9L262.15 154.4L261.95 155.5Q261.95 156.65 263 157.45Q263.85 158.1 264.55 158.1Q265.8 158.1 266.6 156.75Q267.2 155.7 267.2 155Q267.2 154 266.15 153.15Q265.25 152.4 264.65 152.4Q264.2 152.4 263.25 153.15M262.45,153.9L261.75 154.75" />
</g>
</svg>
