<?xml version="1.0" encoding="utf-8"?>
<svg version="1.1" id="Layer_1"
xmlns="http://www.w3.org/2000/svg"
xmlns:xlink="http://www.w3.org/1999/xlink"
xmlns:author="http://www.sothink.com"
width="37px" height="33px"
xml:space="preserve">
<g id="35" transform="matrix(1, 0, 0, 1, 18.9, 27.5)">
<path style="fill:#77F5DB;fill-opacity:1" d="M12.55,-6.15Q14.45 0.9 14.45 2.6Q14.45 3.6 12.65 4.1L10.5 4.4L6.75 4.05L4.05 3.8L-10.5 4.4L-13.85 4.4Q-15.95 4.25 -15.95 3.2L-15.9 2.45L-15.8 2.4L-14.85 1.95Q-12.75 -0.05 -10.8 -3.35L-6.75 -10.35L-5.6 -9.2Q-5.1 -8.55 -4.4 -8.55Q-0.75 -8.55 1.6 -17.15Q2.8 -21.6 3.8 -27.5L4.45 -20Q4.85 -15.8 6.45 -13.85Q7.15 -13.85 7.7 -14.95L8.55 -16.55Q10.35 -14.2 12.55 -6.15" />
<path style="fill:#D2DEEE;fill-opacity:1" d="M7.95,-0.7Q10.5 -0.35 11.75 0.4Q12.35 -1.15 14.65 -0.2Q17.7 1.05 17.7 2.25Q17.7 3.1 17.1 3.8Q16.35 4.7 15.05 4.7Q13.2 4.7 12.35 3.9Q11.7 4.4 10.2 4.4L7.65 2.9L7.5 3.1Q6.5 4.4 4.95 4.4Q3.05 4.4 2.25 3.65L1.55 4.35Q0.4 5.25 -0.9 5.25Q-2.75 5.25 -3.75 3.6L-3.9 3.35L-3.95 3.45Q-4.4 4.4 -6.05 4.4Q-8.15 4.4 -8.85 2.9Q-9.2 2.2 -9.15 1.6Q-9.15 -0.4 -6.45 -0.85Q-4.25 -1.2 -3.85 0.9L-3.3 0.35Q-2.2 -0.5 -0.9 -0.75Q1.3 -1.2 2.1 0.25Q2.85 -0.95 5 -0.9L5.65 -0.85L7.95 -0.7M-13.25,3.05Q-13.7 4.1 -15.2 4.1Q-17.3 4.1 -18.3 2.6L-18.9 1.3Q-18.9 -1.25 -15.95 -1.1Q-13.8 -1 -13.25 0.65Q-12.75 -0.2 -11.5 -0.3Q-9.45 -0.5 -9.45 1.65Q-9.45 4.1 -11.55 4.1Q-12.75 4.1 -13.25 3.05" />
</g>
</svg>
