<?xml version="1.0" encoding="utf-8"?>
<svg version="1.1" id="Layer_1"
xmlns="http://www.w3.org/2000/svg"
xmlns:xlink="http://www.w3.org/1999/xlink"
xmlns:author="http://www.sothink.com"
width="61px" height="49px"
xml:space="preserve">
<g id="155" transform="matrix(1, 0, 0, 1, 28.9, 42.8)">
<path style="fill:#FF0000;fill-opacity:0" d="M31.4,-42.65L31.4 5.65L-28.9 5.65L-28.9 -42.65L31.4 -42.65" />
<path style="fill:#DC5B5B;fill-opacity:1" d="M-17.95,-28.25Q-22.3 -25 -24.55 -25L-26.1 -25.2Q-27.15 -26.05 -27.4 -27.25Q-27.65 -28.45 -25.75 -30.3L-23.55 -32.5L-20.8 -34.7L-17.95 -36.85L-17.9 -36.9Q-17.5 -37.3 -16.9 -37.3Q-15.15 -37.3 -12.9 -34.7Q-10.6 -32.05 -10.6 -29.95L-10.65 -29.35L-11.15 -28.7L-11.75 -28.6Q-13.6 -28.6 -15.1 -30.5L-17.95 -28.25M-18.7,-32.9L-19.55 -32.6L-20 -31.95Q-20 -31.25 -19.1 -31.25Q-18.5 -31.25 -18.25 -31.65L-18.05 -32.15L-18.15 -32.55L-18.7 -32.9M-21.35,-31.6Q-23.25 -31.6 -25.9 -27.45Q-26 -26.65 -25.1 -26.65Q-23.6 -26.65 -21.85 -28.55Q-20.35 -30.15 -20.35 -30.65L-20.45 -31.15Q-20.65 -31.6 -21.35 -31.6" />
<path style="fill:#BD3434;fill-opacity:1" d="M-14.4,-25.05Q-18.2 -21 -20.1 -21Q-22.3 -21 -24.6 -23.3L-26.1 -25.2L-24.55 -25Q-22.3 -25 -17.95 -28.25L-15.1 -30.5Q-13.6 -28.6 -11.75 -28.6L-11.45 -28.35L-14.4 -25.05" />
<path style="fill:#E79696;fill-opacity:1" d="M-18.15,-32.55L-18.05 -32.15L-18.25 -31.65Q-18.5 -31.25 -19.1 -31.25Q-20 -31.25 -20 -31.95L-19.55 -32.6L-18.7 -32.9L-18.15 -32.55M-20.45,-31.15L-20.35 -30.65Q-20.35 -30.15 -21.85 -28.55Q-23.6 -26.65 -25.1 -26.65Q-26 -26.65 -25.9 -27.45Q-23.25 -31.6 -21.35 -31.6Q-20.65 -31.6 -20.45 -31.15" />
<path style="fill:none;stroke-width:1;stroke-linecap:butt;stroke-linejoin:miter;stroke-miterlimit:3;stroke:#B82F2F;stroke-opacity:1" d="M-17.95,-36.85Q-18.3 -36.45 -18.3 -35.9L-18.2 -35.6L-15.7 -31.3L-15.1 -30.5Q-13.6 -28.6 -11.75 -28.6L-11.15 -28.7L-10.65 -29.35L-10.6 -29.95Q-10.6 -32.05 -12.9 -34.7Q-15.15 -37.3 -16.9 -37.3Q-17.5 -37.3 -17.9 -36.9L-17.95 -36.85L-20.8 -34.7L-23.55 -32.5L-25.75 -30.3Q-27.65 -28.45 -27.4 -27.25Q-27.15 -26.05 -26.1 -25.2L-24.6 -23.3Q-22.3 -21 -20.1 -21Q-18.2 -21 -14.4 -25.05L-11.45 -28.35M-11.45,-28.35L-11.15 -28.7" />
<path style="fill:#F3AB40;fill-opacity:1" d="M-13.75,-25.7Q-13.75 -25.2 -14.55 -24.75L-17.1 -23.95Q-19 -23.6 -21.95 -27.2Q-24.95 -30.85 -24.25 -33.15L-24.25 -33.55L-23.15 -34.4Q-22.2 -35.15 -22.2 -34.95L-21.85 -32.5Q-21.5 -30.25 -19 -27.95Q-16.55 -25.7 -13.75 -25.7" />
<path style="fill:none;stroke-width:1;stroke-linecap:butt;stroke-linejoin:miter;stroke-miterlimit:3;stroke:#A36D1C;stroke-opacity:1" d="M-13.75,-25.7Q-13.75 -25.2 -14.55 -24.75L-17.1 -23.95Q-19 -23.6 -21.95 -27.2Q-24.95 -30.85 -24.25 -33.15L-24.25 -33.55L-23.15 -34.4Q-22.2 -35.15 -22.2 -34.95L-21.85 -32.5Q-21.5 -30.25 -19 -27.95Q-16.55 -25.7 -13.75 -25.7z" />
<path style="fill:#F3AB40;fill-opacity:1" d="M-10.9,-38.1L-9.9 -37.4L-9.2 -36.7Q-9.2 -36.35 -11.1 -34.55L-13.6 -32.4L-14.15 -32.95Q-14.7 -33.55 -14.7 -34L-13.1 -35.9L-10.9 -38.1" />
<path style="fill:none;stroke-width:1;stroke-linecap:butt;stroke-linejoin:miter;stroke-miterlimit:3;stroke:#A36D1C;stroke-opacity:1" d="M-10.9,-38.1L-9.9 -37.4L-9.2 -36.7Q-9.2 -36.35 -11.1 -34.55L-13.6 -32.4L-14.15 -32.95Q-14.7 -33.55 -14.7 -34L-13.1 -35.9L-10.9 -38.1z" />
<path style="fill:#FFFF00;fill-opacity:1" d="M-7.35,-40.8L-7.1 -40.8Q-7.85 -39.8 -7.8 -39.3L-5.4 -37.6L-6.35 -37.2Q-7.25 -37 -7.5 -36.7L-7.8 -35.4Q-7.95 -34.6 -8.25 -34.6L-9.45 -35.6Q-10.35 -36.6 -10.6 -36.6L-11.5 -36.4L-12.6 -36.3L-12.4 -38.2L-12.6 -38.85L-13.3 -39.9L-12.55 -40L-11.6 -39.85L-11.7 -39.9L-11.7 -41L-11.6 -41.7L-9.65 -40.3L-7.35 -40.8" />
<path style="fill:none;stroke-width:1;stroke-linecap:butt;stroke-linejoin:miter;stroke-miterlimit:3;stroke:#FF9900;stroke-opacity:1" d="M-7.35,-40.8L-7.1 -40.8Q-7.85 -39.8 -7.8 -39.3L-5.4 -37.6L-6.35 -37.2Q-7.25 -37 -7.5 -36.7L-7.8 -35.4Q-7.95 -34.6 -8.25 -34.6L-9.45 -35.6Q-10.35 -36.6 -10.6 -36.6L-11.5 -36.4L-12.6 -36.3L-12.4 -38.2L-12.6 -38.85L-13.3 -39.9L-12.55 -40L-11.6 -39.85L-11.7 -39.9L-11.7 -41L-11.6 -41.7L-9.65 -40.3L-7.35 -40.8z" />
<path style="fill:#EEA78C;fill-opacity:1" d="M-14.4,-15.35Q-12.4 -13.7 -11.9 -12Q-11.45 -10.3 -12.3 -7.85Q-13.2 -5.4 -10.85 -4.9L-12.9 -3.95Q-16.4 -4.65 -15.65 -7.3Q-14.9 -10 -15.05 -10.65Q-15.25 -11.35 -18.85 -14.4L-18.2 -15.45L-17 -16.75Q-16.45 -17 -14.4 -15.35" />
<path style="fill:#2F9EBF;fill-opacity:1" d="M-5.4,-26.05Q-6.25 -25.85 -8.95 -22.15Q-11.7 -18.5 -15.5 -18.6Q-19.3 -18.75 -19.1 -20.3Q-18.9 -21.85 -15.15 -25.55Q-11.4 -29.25 -9.9 -29.4L-8.4 -29.6L-7.8 -29.65Q-6.35 -29.4 -5.5 -27.9Q-4.55 -26.3 -5.4 -26.05" />
<path style="fill:none;stroke-width:1;stroke-linecap:butt;stroke-linejoin:miter;stroke-miterlimit:3;stroke:#854A34;stroke-opacity:1" d="M-17,-16.75L-18.2 -15.45L-18.85 -14.4Q-15.25 -11.35 -15.05 -10.65Q-14.9 -10 -15.65 -7.3Q-16.4 -4.65 -12.9 -3.95L-10.85 -4.9Q-13.2 -5.4 -12.3 -7.85Q-11.45 -10.3 -11.9 -12Q-12.4 -13.7 -14.4 -15.35Q-16.45 -17 -17 -16.75z" />
<path style="fill:none;stroke-width:1;stroke-linecap:butt;stroke-linejoin:miter;stroke-miterlimit:3;stroke:#0E576E;stroke-opacity:1" d="M-5.5,-27.9Q-6.35 -29.4 -7.8 -29.65L-8.4 -29.6L-9.9 -29.4Q-11.4 -29.25 -15.15 -25.55Q-18.9 -21.85 -19.1 -20.3Q-19.3 -18.75 -15.5 -18.6Q-11.7 -18.5 -8.95 -22.15Q-6.25 -25.85 -5.4 -26.05Q-4.55 -26.3 -5.5 -27.9z" />
<path style="fill:#EEA78C;fill-opacity:1" d="M-4.75,-14.75L-4.7 -14.7L-4.65 -14.5L-4.45 -14.05L-4.6 -14.3L-4.75 -14.75" />
<path style="fill:#73C95E;fill-opacity:1" d="M20.9,-19.3Q21.6 -18.8 21.6 -18.3L21.6 -18.25L20.4 -18.45L18.6 -18.95Q14.05 -21.55 8.4 -21.55Q4.35 -21.55 0.3 -20.2L-1.8 -19.45L-6.05 -17.5L-6.6 -18.6L-6.35 -18.8Q-4.55 -20.05 -2.7 -20.8L-2.65 -20.8L-1.25 -21.35L-0.45 -21.6L0.3 -21.75L7.8 -22.4L9.5 -22.2L10.75 -22.05L10.85 -22L16.9 -20.9Q19.75 -20.15 20.9 -19.35L20.9 -19.3" />
<path style="fill:#4D9F38;fill-opacity:1" d="M-1.5,-16.5L-1.5 -16.45Q-3.2 -15.5 -4.25 -15L-4.7 -14.75L-4.75 -14.75L-5.95 -15.25L-7.5 -15.8L-8.65 -15.45L-9.9 -15.15Q-10.6 -15.15 -11.05 -15.6Q-11.45 -16 -11.45 -16.7Q-11.45 -18.35 -10.15 -18.35L-9.05 -18.05L-8.25 -17.75Q-7.65 -17.75 -6.85 -18.55L-6.6 -18.6L-6.05 -17.5L-1.8 -19.45L0.3 -20.2Q4.35 -21.55 8.4 -21.55Q14.05 -21.55 18.6 -18.95L20.4 -18.45L21.6 -18.25Q21.6 -17.85 21.1 -17.6L20.45 -17.4L20.25 -17.4L20.1 -17.45L17.7 -18.15L15 -18.95L12 -19.35L8.75 -19.25L5.55 -19L3.45 -18.55L1 -17.65L0.3 -17.35L-0.6 -16.95L-1.5 -16.5M-20.15,-4.15L-19.7 -4.1Q-17.3 -4.1 -12.5 -5.55Q-7.45 -7.05 -4.7 -7.2Q-1.75 -7.3 2.15 -8.2L8.2 -9.7L11.95 -10.5L15.25 -11.05L17.9 -11.6L20.4 -12.35L25.8 -13.55Q28 -14.15 30.45 -15.2L30.55 -14.85Q30.55 -12.95 27.7 -12.2L27.65 -12.2L26.7 -12L17.45 -10.15L10.45 -8.4L5.6 -7.3L-1.25 -5.9L-8.75 -4.45L-12.55 -3.85L-15.75 -3.2L-16.65 -3L-18.45 -2.75Q-20.2 -2.75 -20.2 -3.75L-20.15 -4.15" />
<path style="fill:#81D26C;fill-opacity:1" d="M-6.1,-7.65L-3.4 -8.2L1.85 -9.25L9.45 -10.8L16.75 -12.35L22.95 -13.85L24.4 -14.35Q26.25 -15 27.5 -15.75L27.65 -15.85L27.3 -16.05L29.3 -15.85Q30.15 -15.6 30.45 -15.2Q28 -14.15 25.8 -13.55L20.4 -12.35L17.9 -11.6L15.25 -11.05L11.95 -10.5L8.2 -9.7L2.15 -8.2Q-1.75 -7.3 -4.7 -7.2Q-7.45 -7.05 -12.5 -5.55Q-17.3 -4.1 -19.7 -4.1L-20.15 -4.15Q-19.85 -5.05 -18.3 -5.45L-17.6 -5.55L-15.85 -5.8L-12.75 -6.35L-9.75 -6.85L-7 -7.4L-6.2 -7.6L-6.1 -7.65" />
<path style="fill:#A8A778;fill-opacity:1" d="M-15.95,-2L-16.65 -3L-15.75 -3.2L-12.55 -3.85L-8.75 -4.45L-1.25 -5.9L5.6 -7.3L10.45 -8.4L17.45 -10.15L26.7 -12L27.65 -12.2L27.1 -10.85L26.1 -9.3L21.75 -9.3Q17.15 -6.85 14.3 -6.65L8.15 -5.9L6.05 -4.8Q4.7 -4.05 3.1 -4.15Q0.15 -4.35 -4.35 -3.1Q-8.65 -1.85 -9.1 -1.95L-11.45 -1.7L-14.2 -1.05L-15.3 -0.9L-15.95 -2" />
<path style="fill:#E7E5A5;fill-opacity:1" d="M25.4,-8.3L24.4 -6.95L21.55 -3.7Q20.25 -2.4 16.95 -0.75Q14.3 0.6 12 1.4L6.75 3L0.9 4.3L-4.1 4.65L-9 4.7L-12.2 4.25Q-13.2 3.85 -13.7 2.85L-14.7 0.3L-15.3 -0.9L-14.2 -1.05L-11.45 -1.7L-9.1 -1.95Q-8.65 -1.85 -4.35 -3.1Q0.15 -4.35 3.1 -4.15Q4.7 -4.05 6.05 -4.8L8.15 -5.9L14.3 -6.65Q17.15 -6.85 21.75 -9.3L26.1 -9.3L25.4 -8.3M-11.95,0.5L-11.75 0.45L-11.95 0.45L-11.95 0.5" />
<path style="fill:#F5F055;fill-opacity:1" d="M21.6,-18.3Q21.6 -18.8 20.9 -19.3Q22.45 -18.9 24.55 -17.65L25.05 -17.35L25.85 -16.85L26.1 -16.75L27.3 -16.05L27.5 -15.75Q26.25 -15 24.4 -14.35L22.95 -13.85L16.75 -12.35L9.45 -10.8L1.85 -9.25L-3.4 -8.2L-6.1 -7.65L-4.2 -12.65L-4.2 -12.7L-4.15 -12.75L-3.6 -13.6L-2.95 -14.85L-1.4 -16.3L-1.35 -16.3L-0.6 -16.95L0.3 -17.35L1 -17.65L3.45 -18.55L5.55 -19L8.75 -19.25L12 -19.35L15 -18.95L17.7 -18.15L20.1 -17.45L20.25 -17.4L20.45 -17.4L21.1 -17.6Q21.6 -17.85 21.6 -18.25L21.6 -18.3M12.6,-17.4L7.75 -17.6Q0 -17.6 0 -14.5L0 -13.85Q0.2 -13.25 1.25 -13.25Q3.15 -13.25 11 -15.25L15.2 -15.25L15.7 -15.6L15.85 -15.95Q15.85 -16.6 14.95 -16.9L12.6 -17.4" />
<path style="fill:#FAF7AC;fill-opacity:1" d="M14.95,-16.9Q15.85 -16.6 15.85 -15.95L15.7 -15.6L15.2 -15.25L11 -15.25Q3.15 -13.25 1.25 -13.25Q0.2 -13.25 0 -13.85L0 -14.5Q0 -17.6 7.75 -17.6L12.6 -17.4L14.95 -16.9" />
<path style="fill:none;stroke-width:1;stroke-linecap:butt;stroke-linejoin:miter;stroke-miterlimit:3;stroke:#465827;stroke-opacity:1" d="M30.45,-15.2Q30.15 -15.6 29.3 -15.85L27.3 -16.05L26.1 -16.75L25.85 -16.85L25.05 -17.35L24.55 -17.65Q22.45 -18.9 20.9 -19.3Q21.6 -18.8 21.6 -18.3L21.6 -18.25Q21.6 -17.85 21.1 -17.6L20.45 -17.4L20.25 -17.4L20.1 -17.45L17.7 -18.15L15 -18.95L12 -19.35L8.75 -19.25L5.55 -19L3.45 -18.55L1 -17.65L0.3 -17.35L-0.6 -16.95L-1.35 -16.3L-1.4 -16.3L-2.95 -14.85L-3.6 -13.6L-4.15 -12.75L-4.2 -12.7L-4.2 -12.65L-6.1 -7.65L-3.4 -8.2L1.85 -9.25L9.45 -10.8L16.75 -12.35L22.95 -13.85L24.4 -14.35Q26.25 -15 27.5 -15.75M-6.85,-18.55Q-7.65 -17.75 -8.25 -17.75L-9.05 -18.05L-10.15 -18.35Q-11.45 -18.35 -11.45 -16.7Q-11.45 -16 -11.05 -15.6Q-10.6 -15.15 -9.9 -15.15L-8.65 -15.45L-7.5 -15.8L-5.95 -15.25L-4.75 -14.75L-4.7 -14.75L-4.25 -15Q-3.2 -15.5 -1.5 -16.45L-1.5 -16.5L-0.6 -16.95M-6.6,-18.6L-6.35 -18.8Q-4.55 -20.05 -2.7 -20.8L-2.65 -20.8L-1.25 -21.35L-0.45 -21.6L0.3 -21.75L7.8 -22.4L9.5 -22.2L10.75 -22.05L10.85 -22L16.9 -20.9Q19.75 -20.15 20.9 -19.35L20.9 -19.3M-15.3,-0.9L-14.7 0.3L-13.7 2.85Q-13.2 3.85 -12.2 4.25L-9 4.7L-4.1 4.65L0.9 4.3L6.75 3L12 1.4Q14.3 0.6 16.95 -0.75Q20.25 -2.4 21.55 -3.7L24.4 -6.95L25.4 -8.3L26.1 -9.3L27.1 -10.85L27.65 -12.2L26.7 -12L17.45 -10.15L10.45 -8.4L5.6 -7.3L-1.25 -5.9L-8.75 -4.45L-12.55 -3.85L-15.75 -3.2L-16.65 -3L-15.95 -2L-15.3 -0.9M27.3,-16.05L27.65 -15.85L27.5 -15.75M30.45,-15.2L30.55 -14.85Q30.55 -12.95 27.7 -12.2L27.65 -12.2M-4.25,-15L-4.6 -14.75L-4.7 -14.75M-16.65,-3L-18.45 -2.75Q-20.2 -2.75 -20.2 -3.75L-20.15 -4.15Q-19.85 -5.05 -18.3 -5.45L-17.6 -5.55L-15.85 -5.8L-12.75 -6.35L-9.75 -6.85L-7 -7.4L-6.2 -7.6L-6.1 -7.65" />
<path style="fill:#2F9EBF;fill-opacity:1" d="M-20.45,-18.55L-20.25 -19.2L-19.5 -20.7L-19.15 -21.2L-18.9 -21.55L-18.5 -21.85Q-18.1 -21.95 -16 -20.75Q-13.9 -19.5 -13.9 -19.1L-14.05 -17.45L-13.7 -16.65L-13.3 -16L-14.45 -14.7L-17.65 -11.95L-19.65 -14.75Q-21.1 -17 -20.8 -17.6L-20.5 -18.45L-20.45 -18.55" />
<path style="fill:none;stroke-width:1;stroke-linecap:butt;stroke-linejoin:miter;stroke-miterlimit:3;stroke:#0E576E;stroke-opacity:1" d="M-20.5,-18.45L-20.8 -17.6Q-21.1 -17 -19.65 -14.75L-17.65 -11.95L-14.45 -14.7L-13.3 -16L-13.7 -16.65L-14.05 -17.45L-13.9 -19.1Q-13.9 -19.5 -16 -20.75Q-18.1 -21.95 -18.5 -21.85L-18.9 -21.55L-19.15 -21.2L-19.5 -20.7L-20.25 -19.2L-20.45 -18.55L-20.5 -18.45z" />
<path style="fill:#EEA78C;fill-opacity:1" d="M-0.75,-31.2L-1 -30.85L-1.15 -30.7L-1.4 -30.55L-1.75 -31Q-2.2 -31.4 -3.5 -31.4L-3.9 -31.4L-5.65 -30.95Q-6.9 -30.4 -6.9 -29.4L-6.9 -29.35L-6.55 -28.3L-6.15 -27.9Q-5.4 -27.35 -4.2 -27.35L-3.75 -27.35Q-2 -27.4 -1.45 -28.3L-1.35 -28.25L-1 -27.95L-0.85 -27.8L-0.35 -27.45L0.2 -27.45L0.6 -26.65L0.6 -26.6L0.65 -26.35L0.7 -26.2L1.15 -25Q1.15 -24.5 -1 -23.8L-1.1 -23.8L-1.4 -23.75L-2.2 -23.45L-2.5 -23.4L-3.4 -23.2L-3.5 -23.2L-3.75 -23.2L-4.5 -23.4L-5.5 -24.5L-5.7 -25L-6.3 -24.75L-6.6 -24.75Q-7.4 -24.75 -7.95 -25.4Q-8.45 -26.2 -8.45 -27.35L-8.45 -27.9L-8.4 -28.4Q-8.2 -29 -7.6 -29.4L-7.35 -29.6L-7.2 -29.5L-7.4 -30.4L-7.55 -31Q-7.55 -32.3 -7.15 -33.15Q-6.4 -34.8 -4.2 -34.8Q-2.5 -34.8 -1.75 -34.3L-1.35 -33.75Q-1.7 -34.1 -2.45 -34.35Q-3.9 -34.75 -3.9 -33.75L-3.55 -33.15L-3.4 -33Q-2.85 -32.1 -2.2 -32.1Q-1.6 -32.1 -1.35 -32.4L-1 -32.7L-0.9 -33.05L-0.95 -33.2L-0.05 -31.85L0.05 -31.4L-0.75 -31.2M-10.2,-26.25L-9.35 -25.75L-8.95 -24.95Q-8.95 -24.15 -10.15 -22.95L-11 -21.95L-11.35 -21.35Q-11.35 -21.1 -9.95 -19.85L-9.4 -19.3L-7.95 -17.75Q-7.4 -16.95 -7.4 -16.3Q-7.4 -15.6 -7.9 -15.15Q-8.35 -14.75 -9 -14.75Q-9.55 -14.75 -10.4 -16L-11.7 -17.75L-11.85 -17.9L-14 -19.55L-14.35 -19.85Q-14.85 -20.45 -14.85 -21.4L-14.75 -21.95Q-14.4 -22.8 -13.1 -24.05L-11.6 -25.35L-11.2 -25.75L-10.95 -25.9L-10.2 -26.25M-9.9,-25.2Q-11.25 -25.2 -12.3 -23.3L-12.85 -21.95L-13 -21.3Q-13 -20.95 -12 -19.85L-11.85 -19.65L-10.6 -18.35L-10.2 -17.75L-8.4 -15.35Q-7.75 -15.35 -7.75 -15.95Q-7.75 -16.45 -8.65 -17.75L-10.35 -19.85L-11.75 -21.4L-11.65 -21.95Q-11.4 -22.7 -10.45 -23.45L-9.3 -24.7L-9.4 -24.95Q-9.5 -25.2 -9.9 -25.2M-0.35,-24.8Q0.2 -24.8 0.2 -25.55Q0.2 -27.05 -0.65 -27.05L-1 -26.95Q-1.4 -26.8 -1.4 -26.35L-1 -25.35Q-0.7 -24.8 -0.35 -24.8" />
<path style="fill:#F0D2C6;fill-opacity:1" d="M-1.35,-33.75L-1.05 -33.3L-0.95 -33.2L-0.9 -33.05L-1 -32.7L-1.35 -32.4Q-1.6 -32.1 -2.2 -32.1Q-2.85 -32.1 -3.4 -33L-3.55 -33.15L-3.9 -33.75Q-3.9 -34.75 -2.45 -34.35Q-1.7 -34.1 -1.35 -33.75M-9.4,-24.95L-9.3 -24.7L-10.45 -23.45Q-11.4 -22.7 -11.65 -21.95L-11.75 -21.4L-10.35 -19.85L-8.65 -17.75Q-7.75 -16.45 -7.75 -15.95Q-7.75 -15.35 -8.4 -15.35L-10.2 -17.75L-10.6 -18.35L-11.85 -19.65L-12 -19.85Q-13 -20.95 -13 -21.3L-12.85 -21.95L-12.3 -23.3Q-11.25 -25.2 -9.9 -25.2Q-9.5 -25.2 -9.4 -24.95M-1,-25.35L-1.4 -26.35Q-1.4 -26.8 -1 -26.95L-0.65 -27.05Q0.2 -27.05 0.2 -25.55Q0.2 -24.8 -0.35 -24.8Q-0.7 -24.8 -1 -25.35" />
<path style="fill:#B6B4B3;fill-opacity:1" d="M0.35,-29.85L-0.1 -29.6Q-0.75 -29.6 -0.75 -30.35Q-0.75 -30.95 -0.1 -30.95Q0.5 -30.95 0.5 -30.25L0.35 -29.85M-2.1,-29.4Q-2.3 -29.15 -2.55 -29.15Q-3.2 -29.15 -3.2 -30Q-3.2 -30.8 -2.55 -30.7Q-1.95 -30.5 -1.95 -29.7L-2.1 -29.4" />
<path style="fill:#91857F;fill-opacity:1" d="M0.5,-30.25Q0.5 -30.95 -0.1 -30.95Q-0.75 -30.95 -0.75 -30.35Q-0.75 -29.6 -0.1 -29.6L0.35 -29.85L0.5 -30.25M0.05,-31.4Q1.1 -31.4 1.1 -29.4Q1.1 -27.9 0.25 -27.5L0.2 -27.45L-0.35 -27.45L-0.85 -27.8L-1 -27.95L-1.35 -28.25L-1.45 -28.3Q-2 -27.4 -3.75 -27.35L-4.2 -27.35Q-5.4 -27.35 -6.15 -27.9L-6.55 -28.3L-6.9 -29.35L-6.9 -29.4Q-6.9 -30.4 -5.65 -30.95L-3.9 -31.4L-3.5 -31.4Q-2.2 -31.4 -1.75 -31L-1.4 -30.55L-1.15 -30.7L-1 -30.85L-0.75 -31.2L0.05 -31.4M-1.95,-29.7Q-1.95 -30.5 -2.55 -30.7Q-3.2 -30.8 -3.2 -30Q-3.2 -29.15 -2.55 -29.15Q-2.3 -29.15 -2.1 -29.4L-1.95 -29.7" />
<path style="fill:none;stroke-width:1;stroke-linecap:butt;stroke-linejoin:miter;stroke-miterlimit:3;stroke:#854A34;stroke-opacity:1" d="M0.2,-27.45L0.6 -26.65L0.6 -26.6L0.65 -26.35L0.7 -26.2L1.15 -25Q1.15 -24.5 -1 -23.8L-1.1 -23.8L-1.4 -23.75L-2.2 -23.45L-2.5 -23.4L-3.4 -23.2L-3.5 -23.2L-3.75 -23.2L-4.5 -23.4L-5.5 -24.5L-5.7 -25L-6.3 -24.75L-6.6 -24.75Q-7.4 -24.75 -7.95 -25.4Q-8.45 -26.2 -8.45 -27.35L-8.45 -27.9L-8.4 -28.4Q-8.2 -29 -7.6 -29.4M-7.35,-29.6L-7.4 -30.1L-7.4 -30.4L-7.55 -31Q-7.55 -32.3 -7.15 -33.15Q-6.4 -34.8 -4.2 -34.8Q-2.5 -34.8 -1.75 -34.3L-1.35 -33.75L-1.05 -33.3L-0.95 -33.2L-0.05 -31.85M-6.9,-29.35L-7.2 -29.5L-7.05 -28.35L-6.7 -27.35L-6.3 -26.3Q-6.3 -25.75 -5.7 -25M-10.2,-26.25L-9.35 -25.75L-8.95 -24.95Q-8.95 -24.15 -10.15 -22.95L-11 -21.95L-11.35 -21.35Q-11.35 -21.1 -9.95 -19.85L-9.4 -19.3L-7.95 -17.75Q-7.4 -16.95 -7.4 -16.3Q-7.4 -15.6 -7.9 -15.15Q-8.35 -14.75 -9 -14.75Q-9.55 -14.75 -10.4 -16L-11.7 -17.75L-11.85 -17.9L-14 -19.55L-14.35 -19.85Q-14.85 -20.45 -14.85 -21.4L-14.75 -21.95Q-14.4 -22.8 -13.1 -24.05L-11.6 -25.35L-11.2 -25.75L-10.95 -25.9L-10.2 -26.25M-7.35,-29.6L-7.2 -29.5L-7.4 -30.4" />
<path style="fill:none;stroke-width:1;stroke-linecap:butt;stroke-linejoin:miter;stroke-miterlimit:3;stroke:#544741;stroke-opacity:1" d="M-1.15,-30.7L-1 -30.85L-0.75 -31.2L0.05 -31.4Q1.1 -31.4 1.1 -29.4Q1.1 -27.9 0.25 -27.5L0.2 -27.45L-0.35 -27.45L-0.85 -27.8L-1 -27.95L-1.35 -28.25M-1.45,-28.3Q-2 -27.4 -3.75 -27.35L-4.2 -27.35Q-5.4 -27.35 -6.15 -27.9L-6.55 -28.3L-6.9 -29.35M-1.45,-28.3Q-1.15 -28.7 -1.15 -29.4Q-1.15 -30.1 -1.4 -30.55L-1.75 -31Q-2.2 -31.4 -3.5 -31.4L-3.9 -31.4L-4.4 -30.5L-4.5 -29.95L-4.5 -29.5L-4.3 -28.3L-3.75 -27.35M-3.9,-31.4L-5.65 -30.95Q-6.9 -30.4 -6.9 -29.4L-6.9 -29.35" />
<path style="fill:#2F9EBF;fill-opacity:1" d="M-11.75,-26.65L-10.35 -27.1Q-8.55 -27.1 -8.4 -24.9L-8.4 -24.55Q-8.4 -23.95 -8.9 -23.2Q-9.4 -22.4 -9.95 -22.4Q-10.65 -22.4 -12 -23.5Q-13.4 -24.6 -13.4 -25.3L-13.05 -25.75L-12.4 -26.2Q-11.9 -26.55 -11.75 -26.65M-11,-25.8Q-10.35 -24.35 -9.7 -24.35Q-9.4 -24.35 -9.1 -24.85L-8.85 -25.4Q-8.85 -26.2 -9.9 -26.45Q-11 -26.7 -11 -25.8" />
<path style="fill:#63CCEC;fill-opacity:1" d="M-9.9,-26.45Q-8.85 -26.2 -8.85 -25.4L-9.1 -24.85Q-9.4 -24.35 -9.7 -24.35Q-10.35 -24.35 -11 -25.8Q-11 -26.7 -9.9 -26.45" />
<path style="fill:none;stroke-width:1;stroke-linecap:butt;stroke-linejoin:miter;stroke-miterlimit:3;stroke:#0E576E;stroke-opacity:1" d="M-11.75,-26.65L-10.35 -27.1Q-8.55 -27.1 -8.4 -24.9L-8.4 -24.55Q-8.4 -23.95 -8.9 -23.2Q-9.4 -22.4 -9.95 -22.4Q-10.65 -22.4 -12 -23.5Q-13.4 -24.6 -13.4 -25.3L-13.05 -25.75L-12.4 -26.2Q-11.9 -26.55 -11.75 -26.65z" />
</g>
</svg>
