<?xml version="1.0" encoding="utf-8"?>
<svg version="1.1" id="Layer_1"
xmlns="http://www.w3.org/2000/svg"
xmlns:xlink="http://www.w3.org/1999/xlink"
xmlns:author="http://www.sothink.com"
width="29px" height="22px"
xml:space="preserve">
<g id="86" transform="matrix(1, 0, 0, 1, 15.95, 8.15)">
<path style="fill:#D75656;fill-opacity:1" d="M2.5,0.1Q1.85 -0.9 0.3 -1.1L-3.55 -1.1L-6.1 -0.9L-7.45 -1.35Q-6.65 -3.45 -4.55 -4L-2.9 -4.2Q1.9 -4.2 3.9 -3.4L4.65 -3Q6.6 -1.55 6.6 3.55L6.35 7.8L6.35 7.85L6 12.25L3.6 12.05Q3.7 1.9 2.5 0.1" />
<path style="fill:#E9522D;fill-opacity:1" d="M-2.9,-4.2L-4.55 -4Q-3.9 -6.4 -3.35 -6.9Q-2.6 -7.65 -0.35 -7.65Q1.5 -7.65 2.45 -6.9Q3.75 -5.9 3.9 -3.4Q1.9 -4.2 -2.9 -4.2M6.35,7.85L8.2 7.65L9.7 7.45Q11.7 7.45 12.15 8.4Q12.6 9.3 12.4 12.8L6 12.25L6.35 7.85M-8.45,11.65L-15.45 11.6L-15.45 8.2Q-14.75 7.4 -12.2 7.4L-8.2 7.5L-8.45 11.65" />
<path style="fill:#BD3535;fill-opacity:1" d="M-8.2,7.5L-8.1 7.45L-8.15 7.05Q-7.9 4.35 -7.95 0.7L-7.45 -1.35L-6.1 -0.9L-3.55 -1.1L0.3 -1.1Q1.85 -0.9 2.5 0.1Q3.7 1.9 3.6 12.05L-4.85 11.7L-8.45 11.65L-8.2 7.5" />
<path style="fill:none;stroke-width:1;stroke-linecap:butt;stroke-linejoin:miter;stroke-miterlimit:3;stroke:#5B1818;stroke-opacity:1" d="M-15.45,11.6L-15.45 8.2Q-14.75 7.4 -12.2 7.4L-8.2 7.5L-8.1 7.45L-8.15 7.05Q-7.9 4.35 -7.95 0.7L-7.45 -1.35Q-6.65 -3.45 -4.55 -4Q-3.9 -6.4 -3.35 -6.9Q-2.6 -7.65 -0.35 -7.65Q1.5 -7.65 2.45 -6.9Q3.75 -5.9 3.9 -3.4L4.65 -3Q6.6 -1.55 6.6 3.55L6.35 7.8L6.35 7.85L8.2 7.65L9.7 7.45Q11.7 7.45 12.15 8.4Q12.6 9.3 12.4 12.8M-4.55,-4L-2.9 -4.2Q1.9 -4.2 3.9 -3.4M6.35,7.85L6 12.25M-8.45,11.65L-8.2 7.5" />
</g>
</svg>
