<?xml version="1.0" encoding="utf-8"?>
<svg version="1.1" id="Layer_1"
xmlns="http://www.w3.org/2000/svg"
xmlns:xlink="http://www.w3.org/1999/xlink"
xmlns:author="http://www.sothink.com"
width="314px" height="261px"
xml:space="preserve">
<g id="115" transform="matrix(1, 0, 0, 1, 190.65, 285.8)">
<path style="fill:#D75535;fill-opacity:1" d="M122.65,-271.75L118.75 -272.1L114.25 -271.5L107.2 -270.9L96.8 -271.65L88.5 -272.4L85.05 -271.8L81.15 -271.2L74.6 -271.8L68.05 -272.4Q60.8 -272.4 53.4 -271.05Q45.95 -269.7 43.45 -269.7L42.2 -269.7L28.5 -270.75L16.65 -271.8L-3.95 -269.1Q-22.3 -266.4 -25.85 -265.5Q-28.6 -264.8 -30.9 -260.15L-33.85 -253.2Q-35.05 -250.65 -38.4 -246.7Q-41.45 -243.1 -42.25 -240.9Q-44.95 -233.35 -50.85 -230.55Q-55.85 -228.2 -65 -228.6Q-70.1 -228.85 -75.6 -228.45L-80.45 -228L-103.25 -226.85L-113.1 -228.3Q-121.5 -229.8 -125.8 -229.8L-129.75 -229.35L-133.45 -228.9L-144.8 -229.35L-154.1 -229.8L-157.75 -229.65L-163.25 -229.8L-167.4 -230.65L-171.8 -231.3L-177.65 -230.85L-183.8 -230.4Q-185.6 -230.4 -189.75 -231.85Q-190.15 -234.65 -190.15 -238.55L-189.85 -244.35Q-181.1 -242.65 -169.85 -242.25L-128.5 -240L-112.4 -239.45Q-103.95 -239.6 -98 -239.1L-82.9 -238L-76.35 -237.7L-69.65 -237.6Q-62.7 -237.6 -59.75 -239.5Q-57.2 -241.1 -56.6 -244.9L-56.5 -245.9Q-51.1 -253.3 -44.95 -263.95L-43.45 -266.5L-41.2 -270.35Q-39.7 -273.4 -37.4 -275.8L-32.4 -275.7Q-25.75 -275.7 -16.35 -277.2L1.05 -279.3Q12.2 -279.9 36.5 -279.9L37.45 -279.9Q59 -280.05 60.85 -279.4L61 -279.6L61 -279.3L82.2 -279.9L88.85 -279.6L94.95 -279.3L112.25 -280.75L122.65 -281.65L122.65 -271.75M20.1,-257.8L20.25 -258.1L20.75 -258.95L21.65 -259.45Q22.6 -259.45 23.5 -258.9Q24.55 -258.3 24.55 -257.35Q24.55 -256.45 23.75 -255.45Q22.9 -254.35 21.9 -254.35Q20.9 -254.35 20.25 -255.15Q19.75 -255.85 19.75 -256.65Q19.75 -257.1 20.1 -257.8M83.6,-261.35Q86.15 -261.35 86.15 -259.1Q86.15 -257.7 85.95 -257.35Q85.45 -256.5 83.6 -256.5L81.9 -256.75Q81.05 -257.15 81.05 -258.5L81.45 -259.55L81.85 -260.35L82.25 -261L82.65 -261.3L83.6 -261.35M-153.9,-216.95L-151.7 -216.95L-150.85 -216L-150.65 -215Q-150.65 -213.2 -152.25 -213.2Q-152.7 -213.2 -153.6 -213.75Q-154.7 -214.45 -154.7 -215.25L-154.35 -216.35L-153.9 -216.95M-78.45,-218.15Q-78.25 -218.6 -77.8 -218.6Q-76.7 -218.6 -75.9 -218.1L-75.55 -217.8Q-75.1 -217.3 -75.1 -216.6Q-75.1 -216.05 -75.65 -215.35L-75.75 -215.2Q-76.4 -214.6 -77.15 -214.6Q-79.1 -214.6 -79.1 -216.3L-79.1 -216.4L-78.55 -217.85L-78.45 -218.15M-32.15,-244.1L-32 -244.25Q-31.6 -244.65 -30.95 -244.65Q-28.95 -244.65 -28.95 -242.4Q-28.95 -240.9 -30.45 -240.9Q-32.6 -240.9 -32.6 -242.65L-32.55 -243.1L-32.5 -243.45L-32.15 -244.1" />
<path style="fill:#C44D30;fill-opacity:1" d="M122.65,-265.55L92.85 -265Q88.55 -252.7 86.6 -252.7L80.55 -252.8Q78.8 -253 78.15 -254.1Q77.7 -254.85 76.9 -258.3L75.1 -264.65L44.65 -264.1L31.45 -263.85Q30.55 -261.95 30 -259.05L28.4 -251.1L17.3 -251.1Q16.05 -253.8 15.15 -258.2L14.1 -263.55L-4.65 -263.25L-12.45 -263.55L-19.3 -263.3Q-23.85 -263.2 -27.1 -259.2L-31.5 -252.65L-26.85 -247.5L-23 -243.35L-28.35 -236.35L-39.05 -239.4Q-47.7 -223.75 -58.6 -223L-69.5 -222.45Q-70.25 -220.95 -70.7 -218.5L-71.6 -211.35Q-73 -211.65 -76.4 -211.35L-78 -211.25Q-81.95 -211.25 -82.6 -213.75L-83.95 -219.9L-84.4 -221.85Q-105.15 -221.1 -115.65 -221.1Q-135.05 -221.1 -144.8 -221.55L-147.15 -210.5L-157.35 -210.5L-158.95 -222.85Q-165.1 -223.25 -173.5 -223.25L-176.9 -222.75L-180.45 -222.3Q-186.75 -222.3 -188.9 -228.2L-189.75 -231.85Q-185.6 -230.4 -183.8 -230.4L-177.65 -230.85L-171.8 -231.3L-167.4 -230.65L-163.25 -229.8L-157.75 -229.65L-154.1 -229.8L-144.8 -229.35L-133.45 -228.9L-129.75 -229.35L-125.8 -229.8Q-121.5 -229.8 -113.1 -228.3L-103.25 -226.85L-80.45 -228L-75.6 -228.45Q-70.1 -228.85 -65 -228.6Q-55.85 -228.2 -50.85 -230.55Q-44.95 -233.35 -42.25 -240.9Q-41.45 -243.1 -38.4 -246.7Q-35.05 -250.65 -33.85 -253.2L-30.9 -260.15Q-28.6 -264.8 -25.85 -265.5Q-22.3 -266.4 -3.95 -269.1L16.65 -271.8L28.5 -270.75L42.2 -269.7L43.45 -269.7Q45.95 -269.7 53.4 -271.05Q60.8 -272.4 68.05 -272.4L74.6 -271.8L81.15 -271.2L85.05 -271.8L88.5 -272.4L96.8 -271.65L107.2 -270.9L114.25 -271.5L118.75 -272.1L122.65 -271.75L122.65 -265.55M19.75,-256.65Q19.75 -255.85 20.25 -255.15Q20.9 -254.35 21.9 -254.35Q22.9 -254.35 23.75 -255.45Q24.55 -256.45 24.55 -257.35Q24.55 -258.3 23.5 -258.9Q22.6 -259.45 21.65 -259.45L20.75 -258.95L20.25 -258.1L20.1 -257.8Q19.75 -257.1 19.75 -256.65M82.65,-261.3L82.25 -261L81.85 -260.35L81.45 -259.55L81.05 -258.5Q81.05 -257.15 81.9 -256.75L83.6 -256.5Q85.45 -256.5 85.95 -257.35Q86.15 -257.7 86.15 -259.1Q86.15 -261.35 83.6 -261.35L82.65 -261.3M-154.4,-216.95L-154.35 -216.35L-154.7 -215.25Q-154.7 -214.45 -153.6 -213.75Q-152.7 -213.2 -152.25 -213.2Q-150.65 -213.2 -150.65 -215L-150.85 -216L-151.7 -216.95L-153.9 -216.95L-154.4 -216.95M-78.5,-218.05L-78.55 -217.85L-79.1 -216.4L-79.1 -216.3Q-79.1 -214.6 -77.15 -214.6Q-76.4 -214.6 -75.75 -215.2L-75.65 -215.35Q-75.1 -216.05 -75.1 -216.6Q-75.1 -217.3 -75.55 -217.8L-75.9 -218.1Q-76.7 -218.6 -77.8 -218.6Q-78.25 -218.6 -78.45 -218.15L-78.5 -218.05M-32.35,-244.1L-32.5 -243.45L-32.55 -243.1L-32.6 -242.65Q-32.6 -240.9 -30.45 -240.9Q-28.95 -240.9 -28.95 -242.4Q-28.95 -244.65 -30.95 -244.65Q-31.6 -244.65 -32 -244.25L-32.15 -244.1L-32.35 -244.1" />
<path style="fill:#EC7254;fill-opacity:1" d="M-1.9,-284.65L33 -284.9L122.65 -285.3L122.65 -281.65L112.25 -280.75L94.95 -279.3L88.85 -279.6L82.2 -279.9L61 -279.3L61 -279.6L60.85 -279.4Q59 -280.05 37.45 -279.9L36.5 -279.9Q12.2 -279.9 1.05 -279.3L-16.35 -277.2Q-25.75 -275.7 -32.4 -275.7L-37.4 -275.8Q-27.3 -286.35 -1.9 -284.65M-188.3,-249.8L-177.1 -249.45L-173.1 -249.2L-169.95 -249.15L-122.15 -247.15L-77.25 -245.2L-71.05 -245.15L-65.9 -245.35L-56.8 -245.55L-56.5 -245.9L-56.6 -244.9Q-57.2 -241.1 -59.75 -239.5Q-62.7 -237.6 -69.65 -237.6L-76.35 -237.7L-82.9 -238L-98 -239.1Q-103.95 -239.6 -112.4 -239.45L-128.5 -240L-169.85 -242.25Q-181.1 -242.65 -189.85 -244.35Q-189.45 -248.25 -188.3 -249.8" />
<path style="fill:none;stroke-width:1;stroke-linecap:butt;stroke-linejoin:miter;stroke-miterlimit:3;stroke:#833825;stroke-opacity:1" d="M92.85,-265L122.65 -265.55L122.65 -271.75L122.65 -281.65L122.65 -285.3L33 -284.9L-1.9 -284.65Q-27.3 -286.35 -37.4 -275.8Q-39.7 -273.4 -41.2 -270.35L-43.45 -266.5L-44.95 -263.95Q-51.1 -253.3 -56.5 -245.9M-188.3,-249.8Q-189.45 -248.25 -189.85 -244.35L-190.15 -238.55Q-190.15 -234.65 -189.75 -231.85M75.1,-264.65L76.9 -258.3Q77.7 -254.85 78.15 -254.1Q78.8 -253 80.55 -252.8L86.6 -252.7Q88.55 -252.7 92.85 -265L75.1 -264.65L44.65 -264.1L31.45 -263.85Q30.55 -261.95 30 -259.05L28.4 -251.1L17.3 -251.1Q16.05 -253.8 15.15 -258.2L14.1 -263.55L-4.65 -263.25L-12.45 -263.55L-19.3 -263.3Q-23.85 -263.2 -27.1 -259.2L-31.5 -252.65L-26.85 -247.5L-23 -243.35L-28.35 -236.35L-39.05 -239.4Q-47.7 -223.75 -58.6 -223L-69.5 -222.45Q-70.25 -220.95 -70.7 -218.5L-71.6 -211.35Q-73 -211.65 -76.4 -211.35L-78 -211.25Q-81.95 -211.25 -82.6 -213.75L-83.95 -219.9L-84.4 -221.85Q-105.15 -221.1 -115.65 -221.1Q-135.05 -221.1 -144.8 -221.55L-147.15 -210.5L-157.35 -210.5L-158.95 -222.85Q-165.1 -223.25 -173.5 -223.25L-176.9 -222.75L-180.45 -222.3Q-186.75 -222.3 -188.9 -228.2L-189.75 -231.85M19.75,-256.65Q19.75 -255.85 20.25 -255.15Q20.9 -254.35 21.9 -254.35Q22.9 -254.35 23.75 -255.45Q24.55 -256.45 24.55 -257.35Q24.55 -258.3 23.5 -258.9Q22.6 -259.45 21.65 -259.45L20.75 -258.95L20.25 -258.1L20.1 -257.8Q19.75 -257.1 19.75 -256.65M31.45,-263.85L14.1 -263.55M82.65,-261.3L82.25 -261L81.85 -260.35L81.45 -259.55L81.05 -258.5Q81.05 -257.15 81.9 -256.75L83.6 -256.5Q85.45 -256.5 85.95 -257.35Q86.15 -257.7 86.15 -259.1Q86.15 -261.35 83.6 -261.35L82.65 -261.3M-154.35,-216.35L-154.7 -215.25Q-154.7 -214.45 -153.6 -213.75Q-152.7 -213.2 -152.25 -213.2Q-150.65 -213.2 -150.65 -215L-150.85 -216L-151.7 -216.95L-153.9 -216.95L-154.35 -216.35L-154.4 -216.95L-153.9 -216.95M-144.8,-221.55L-151.95 -222.15L-158.95 -222.85M-84.4,-221.85L-82.3 -221.95L-75.5 -222.2L-69.5 -222.45M-188.6,-250.1L-188.6 -249.8L-188.3 -249.8L-177.1 -249.45L-173.1 -249.2L-169.95 -249.15L-122.15 -247.15L-77.25 -245.2L-71.05 -245.15L-65.9 -245.35L-56.8 -245.55L-56.5 -245.9M-78.55,-217.85L-79.1 -216.4L-79.1 -216.3Q-79.1 -214.6 -77.15 -214.6Q-76.4 -214.6 -75.75 -215.2L-75.65 -215.35Q-75.1 -216.05 -75.1 -216.6Q-75.1 -217.3 -75.55 -217.8L-75.9 -218.1Q-76.7 -218.6 -77.8 -218.6Q-78.25 -218.6 -78.45 -218.15L-78.55 -217.85L-78.5 -218.05L-78.45 -218.15M-32.5,-243.45L-32.55 -243.1L-32.6 -242.65Q-32.6 -240.9 -30.45 -240.9Q-28.95 -240.9 -28.95 -242.4Q-28.95 -244.65 -30.95 -244.65Q-31.6 -244.65 -32 -244.25L-32.15 -244.1L-32.5 -243.45L-32.35 -244.1L-32.15 -244.1M-39.05,-239.4L-39 -239.5L-31.5 -252.65" />
<path style="fill:#EC7558;fill-opacity:1" d="M-161.75,-174.65L-162.35 -177.1L-162.4 -177.5Q-162.7 -179 -162.6 -179.55Q-162.4 -180.5 -159.6 -181.05L-159.55 -180.85L-158.75 -180.85L-157.6 -181.1L-156.2 -175.7L-156.15 -175.5L-155.9 -173.7L-156.1 -173.75L-158.65 -174.15L-159 -174.15L-161.35 -173.2L-161.4 -173.4L-161.65 -174.3L-161.75 -174.65M-157.85,-183.9Q-157.45 -186.7 -153.95 -187.5L-153.7 -187.6L-153.3 -187.65L-151.5 -184.7L-153.05 -184.35L-153.65 -184.2L-154.6 -184.3L-155.2 -184.1L-155.4 -183.85L-157.05 -183.65L-157.85 -183.9M-122.35,-160.05L-123.75 -162.55L-123.9 -163L-124.4 -164.5L-125.05 -167.1L-125.2 -167.65L-125.65 -170.2L-124.95 -169.8L-124.4 -169.15L-124.2 -168.75L-122.8 -170.7L-122.55 -171.05L-122.1 -168.4L-122.05 -167.95L-121.45 -163.6L-121.35 -162.85L-121.25 -161.9L-121.25 -161L-121.35 -160L-122.35 -160.05M-158.95,-163.5L-159.25 -164.5L-159.3 -164.7L-159.35 -165.95L-156.25 -166.85L-156.25 -166.75L-154.85 -167.1L-154.3 -164.6L-153.5 -161.35L-152.9 -159Q-153.7 -159.15 -154.7 -159.85L-155.6 -160.35L-156.35 -160.65L-157.2 -160.8L-158.25 -160.25L-158.3 -160.6L-158.95 -163.5M-40.1,-166.7L-41.5 -169.2L-41.65 -169.65L-42.15 -171.15L-42.8 -173.75L-42.95 -174.3L-43.4 -176.85Q-43.1 -176.8 -42.7 -176.45L-42.15 -175.8L-41.95 -175.4L-40.55 -177.35L-40.3 -177.7L-39.85 -175.05L-39.8 -174.6L-39.2 -170.25L-39.1 -169.5L-39 -168.55L-39 -167.65L-39.1 -166.65L-40.1 -166.7M-76.05,-167.25L-76.7 -170.15L-77 -171.15L-77.05 -171.35L-77.1 -172.6Q-75.35 -172.95 -74 -173.5L-74 -173.4L-72.6 -173.75L-72.05 -171.25L-71.25 -168L-70.65 -165.65Q-71.45 -165.8 -72.45 -166.5L-73.35 -167L-74.1 -167.3L-74.95 -167.45L-76 -166.9L-76.05 -167.25M-79.5,-181.3L-80.1 -183.75L-80.15 -184.15Q-80.45 -185.65 -80.35 -186.2Q-80.15 -187.15 -77.35 -187.7L-77.3 -187.5L-76.5 -187.5L-75.35 -187.75L-73.95 -182.35L-73.9 -182.15L-73.65 -180.35L-73.85 -180.4L-76.4 -180.8L-76.75 -180.8L-79.1 -179.85L-79.15 -180.05L-79.4 -180.95L-79.5 -181.3M-74.8,-190.3Q-75.3 -190.35 -75.6 -190.55Q-75.2 -193.35 -71.7 -194.15L-71.45 -194.25L-71.05 -194.3L-69.25 -191.35L-70.8 -191L-71.4 -190.85L-72.35 -190.95L-72.95 -190.75L-73.15 -190.5L-74.8 -190.3M-123.15,-134.4L-123.75 -134.25L-124.7 -134.35L-125.3 -134.15L-125.5 -133.9L-127.15 -133.7Q-127.65 -133.75 -127.95 -133.95Q-127.55 -136.75 -124.05 -137.55L-123.8 -137.65L-123.4 -137.7L-121.6 -134.75L-123.15 -134.4M-92.45,-110.1L-93.85 -112.6L-94 -113.05L-94.5 -114.55L-95.15 -117.15L-95.3 -117.7L-95.75 -120.25L-95.05 -119.85L-94.5 -119.2L-94.3 -118.8L-92.9 -120.75L-92.65 -121.1L-92.2 -118.45L-92.15 -118L-91.55 -113.65L-91.45 -112.9L-91.35 -111.95L-91.35 -111.05L-91.45 -110.05L-92.45 -110.1M-126.3,-125.75L-126.25 -125.55L-126 -123.75L-126.2 -123.8L-128.75 -124.2L-129.1 -124.2L-131.45 -123.25L-131.5 -123.45L-131.75 -124.35L-131.85 -124.7L-132.45 -127.15L-132.5 -127.55Q-132.8 -129.05 -132.7 -129.6Q-132.5 -130.55 -129.7 -131.1L-129.65 -130.9L-128.85 -130.9L-127.7 -131.15L-126.3 -125.75" />
<path style="fill:#D75535;fill-opacity:1" d="M-124.4,-160.1L-125.3 -160.1L-127.25 -159.85L-128.65 -159.2Q-129.65 -158.55 -130.3 -158.4L-131.6 -158.2L-134.4 -158.25L-137.75 -158.35L-140.95 -157.5L-144.1 -156.85Q-145.85 -156.7 -147 -158.6Q-148.5 -161.05 -149.05 -161.4L-149.8 -162.15Q-151.05 -163.95 -152.45 -169.05Q-153.2 -171.8 -154.25 -173.45L-155.9 -173.7L-156.15 -175.5L-156.2 -175.7L-157.6 -181.1L-157.9 -182.05L-157.85 -183.9L-157.05 -183.65L-155.4 -183.85L-155.2 -184.1L-154.6 -184.3L-153.65 -184.2L-153.05 -184.35L-151.5 -184.7L-150.7 -183.3L-149 -183.55L-147.45 -183.95Q-146.7 -183.95 -146.3 -182.85L-146.25 -182.75L-146.15 -182.2Q-145.8 -180.5 -145.05 -180.5L-143.2 -181Q-141.6 -181.55 -141.15 -181.8L-139.85 -179.1L-142.75 -178.75Q-144.7 -178.3 -145.5 -176.75L-146 -176.3L-146.6 -174.55L-146.7 -173.8L-146.65 -172.75Q-147.6 -172.3 -148.05 -170.75Q-148.5 -169 -148.05 -167.3Q-147.5 -164.9 -144 -163.9L-143.1 -163.65L-140.2 -163.4Q-137.7 -164 -136.6 -165.05L-136.5 -165.25Q-135.75 -166.3 -136.05 -168.1Q-135.1 -168.65 -134.6 -169.4Q-133.8 -170.6 -133.9 -172.6L-132.65 -172.85L-130.7 -172.85Q-130.75 -172 -129.85 -170.55L-128.75 -168.75Q-126.75 -170.25 -125.9 -170.25L-125.65 -170.2L-125.2 -167.65L-125.05 -167.1L-124.4 -164.5L-123.9 -163L-123.75 -162.55L-122.35 -160.05L-122.75 -160.1L-124.1 -160.2L-124.4 -160.1M-121.35,-160L-121.7 -159.1L-122.35 -160.05L-121.35 -160M-47.6,-167.65Q-48.4 -167.7 -48.6 -168.35L-48.9 -171L-53.45 -171.15L-55.35 -170.95Q-56 -170.6 -56.85 -168.75L-57.8 -165.95Q-58.05 -165.45 -58.5 -165.25L-59.6 -165.15Q-61.4 -165.4 -62.45 -163.5Q-63.8 -163.7 -64.75 -165.25Q-66.25 -167.7 -66.8 -168.05L-67.55 -168.8Q-68.8 -170.6 -70.2 -175.7Q-70.95 -178.45 -72 -180.1L-73.65 -180.35L-73.9 -182.15L-73.95 -182.35L-75.35 -187.75L-75.65 -188.7L-75.6 -190.55Q-75.3 -190.35 -74.8 -190.3L-73.15 -190.5L-72.95 -190.75L-72.35 -190.95L-71.4 -190.85L-70.8 -191L-69.25 -191.35L-68.45 -189.95L-66.75 -190.2L-65.2 -190.6Q-64.45 -190.6 -64.05 -189.5L-64 -189.4L-63.9 -188.85Q-63.55 -187.15 -62.8 -187.15L-60.95 -187.65Q-59.35 -188.2 -58.9 -188.45L-57.6 -185.75L-60.5 -185.4Q-62.45 -184.95 -63.25 -183.4L-63.75 -182.95L-64.35 -181.2L-64.45 -180.45L-64.4 -179.4Q-65.35 -178.95 -65.8 -177.4Q-66.25 -175.65 -65.8 -173.95Q-65.25 -171.55 -61.75 -170.55L-60.85 -170.3L-57.95 -170.05Q-55.45 -170.65 -54.35 -171.7L-54.25 -171.9Q-53.5 -172.95 -53.8 -174.75Q-52.85 -175.3 -52.35 -176.05Q-51.55 -177.25 -51.65 -179.25L-50.4 -179.5L-48.45 -179.5Q-48.5 -178.65 -47.6 -177.2L-46.5 -175.4Q-44.5 -176.9 -43.65 -176.9L-43.4 -176.85L-42.95 -174.3L-42.8 -173.75L-42.15 -171.15L-41.65 -169.65L-41.5 -169.2L-40.1 -166.7L-39.1 -166.65L-39.45 -165.75L-40.1 -166.7L-40.5 -166.75L-41.85 -166.85L-42.15 -166.75L-43.05 -166.75L-44.7 -166.55Q-45.3 -167.45 -46.2 -167.6L-46.35 -167.9L-47.6 -167.65M-52.85,-164.95L-53.9 -165L-53.55 -165.15L-52.85 -164.95M-65.85,-163.85Q-65.3 -163.65 -65.2 -163.35Q-65.55 -161.5 -66.05 -161.4Q-67.15 -161.15 -67.8 -162.35Q-68.4 -163.6 -66.85 -163.95L-65.85 -163.85M-147.45,-156.7Q-147.8 -154.85 -148.3 -154.75Q-149.4 -154.5 -150.05 -155.7Q-150.65 -156.95 -149.1 -157.3L-148.1 -157.2L-147.45 -156.7M-117.3,-115.75L-118.7 -115.4L-120 -115.05L-120.1 -115.05Q-120.45 -115.05 -121.65 -117.3L-122.45 -118.75L-122.55 -119.1Q-123.3 -121.85 -124.35 -123.5L-126 -123.75L-126.25 -125.55L-126.3 -125.75L-127.7 -131.15L-128 -132.1L-127.95 -133.95Q-127.65 -133.75 -127.15 -133.7L-125.5 -133.9L-125.3 -134.15L-124.7 -134.35L-123.75 -134.25L-123.15 -134.4L-121.6 -134.75L-120.8 -133.35L-119.1 -133.6L-117.55 -134Q-116.8 -134 -116.4 -132.9L-116.35 -132.8L-116.25 -132.25Q-115.9 -130.55 -115.15 -130.55L-113.3 -131.05L-111.25 -131.85L-109.95 -129.15L-112.85 -128.8Q-114.8 -128.35 -115.6 -126.8L-116.1 -126.35Q-116.55 -125.8 -116.7 -124.6L-116.8 -123.85L-116.75 -122.8Q-117.7 -122.35 -118.15 -120.8Q-118.6 -119.05 -118.15 -117.35L-117.3 -115.75M-91.45,-110.05L-91.8 -109.15L-92.45 -110.1L-91.45 -110.05M-94.5,-110.15L-95.4 -110.15L-97.35 -109.9L-97.9 -109.65L-98.75 -111.9L-99.5 -111.9Q-99.7 -111.7 -100.2 -111.45L-101.1 -111.2L-101.65 -112.4Q-102.15 -113.4 -102.45 -113.4Q-103.25 -113.4 -105.3 -111.95L-107.55 -114.45L-106.7 -115.1L-106.6 -115.3Q-105.85 -116.35 -106.15 -118.15L-104.7 -119.45Q-103.9 -120.65 -104 -122.65L-102.75 -122.9L-100.8 -122.9Q-100.85 -122.05 -99.95 -120.6L-98.85 -118.8Q-96.85 -120.3 -96 -120.3L-95.75 -120.25L-95.3 -117.7L-95.15 -117.15L-94.5 -114.55L-94 -113.05L-93.85 -112.6L-92.45 -110.1L-92.85 -110.15L-94.2 -110.25L-94.5 -110.15M-111,-113.4L-113.9 -111.75L-115.2 -114.3L-115.2 -114.35L-114.1 -113.95L-113.2 -113.7L-111 -113.4" />
<path style="fill:#FA9049;fill-opacity:1" d="M-162.35,-177.1L-161.75 -174.65L-166.4 -173.45L-166.4 -173.5Q-166.9 -173.9 -168.1 -174.4L-167.65 -176.1L-167.6 -176.25L-162.4 -177.5L-162.35 -177.1M-158.3,-160.6L-163.1 -159.35Q-163.25 -159.95 -164 -160.3L-165.1 -160.9L-164.45 -162.15L-158.95 -163.5L-158.3 -160.6M-80.85,-166Q-81 -166.6 -81.75 -166.95L-82.85 -167.55L-82.2 -168.8L-76.7 -170.15L-76.05 -167.25L-80.85 -166M-84.15,-180.1L-84.15 -180.15L-85.85 -181.05L-85.4 -182.75L-85.35 -182.9L-80.15 -184.15L-80.1 -183.75L-79.5 -181.3L-84.15 -180.1M-136.5,-123.5L-136.5 -123.55L-138.2 -124.45L-137.75 -126.15L-137.7 -126.3L-132.5 -127.55L-132.45 -127.15L-131.85 -124.7L-136.5 -123.5" />
<path style="fill:#B4472C;fill-opacity:1" d="M-121.7,-159.1Q-122.3 -158.4 -123.5 -158.05L-124.4 -157.8L-127.25 -156.95L-129.6 -156.35L-129.95 -156.3L-129.8 -155.9Q-129.05 -153.35 -129.65 -152.7Q-129.9 -152.45 -132.25 -151.9Q-140.75 -149.9 -143.95 -150.8L-144.5 -153.15L-148.45 -152.5Q-151.1 -152.3 -152 -155.45L-153.5 -155.2L-156.2 -154.8Q-157.65 -155.05 -157.75 -156.8L-157.8 -157.25L-157.65 -157.3L-158 -158.95L-158.25 -160.25L-157.2 -160.8L-156.35 -160.65L-155.6 -160.35L-154.7 -159.85Q-153.7 -159.15 -152.9 -159L-153.5 -161.35L-154.3 -164.6L-154.85 -167.1L-155.3 -169.6L-156.8 -169.25L-158.05 -168.8L-159.65 -168.3L-160.55 -170.55L-160.65 -170.95L-161.35 -173.2L-159 -174.15L-158.65 -174.15L-156.1 -173.75L-155.9 -173.7L-154.25 -173.45Q-153.2 -171.8 -152.45 -169.05Q-151.05 -163.95 -149.8 -162.15L-149.05 -161.4Q-148.5 -161.05 -147 -158.6Q-145.85 -156.7 -144.1 -156.85L-140.95 -157.5L-137.75 -158.35L-134.4 -158.25L-131.6 -158.2L-130.3 -158.4Q-129.65 -158.55 -128.65 -159.2L-127.25 -159.85L-125.3 -160.1L-124.4 -160.1L-124.1 -160.2L-122.75 -160.1L-122.35 -160.05L-121.7 -159.1M-43.05,-166.75L-42.15 -166.75L-41.85 -166.85L-40.5 -166.75L-40.1 -166.7L-39.45 -165.75Q-40.05 -165.05 -41.25 -164.7L-42.15 -164.45L-43.65 -164L-44.15 -165.5L-44.7 -166.55L-43.05 -166.75M-76,-166.9L-74.95 -167.45L-74.1 -167.3L-73.35 -167L-72.45 -166.5Q-71.45 -165.8 -70.65 -165.65L-71.25 -168L-72.05 -171.25L-72.6 -173.75L-73.05 -176.25L-74.55 -175.9L-75.8 -175.45Q-77.25 -174.9 -77.4 -174.95L-78.3 -177.2L-78.4 -177.6L-79.1 -179.85L-76.75 -180.8L-76.4 -180.8L-73.85 -180.4L-73.65 -180.35L-72 -180.1Q-70.95 -178.45 -70.2 -175.7Q-68.8 -170.6 -67.55 -168.8L-66.8 -168.05Q-66.25 -167.7 -64.75 -165.25Q-63.8 -163.7 -62.45 -163.5L-62.85 -162.75L-63.8 -159.45L-66.2 -159.15Q-68.85 -158.95 -69.75 -162.1L-71.25 -161.85L-73.95 -161.45Q-75.4 -161.7 -75.5 -163.45L-75.55 -163.9L-75.4 -163.95L-75.75 -165.6L-76 -166.9M-54.25,-171.9L-54.35 -171.7Q-55.45 -170.65 -57.95 -170.05L-60.85 -170.3L-61.75 -170.55Q-65.25 -171.55 -65.8 -173.95Q-66.25 -175.65 -65.8 -177.4Q-65.35 -178.95 -64.4 -179.4L-64.3 -178.2Q-62.85 -172.2 -57 -173.55Q-55 -174.05 -53.8 -174.75Q-53.5 -172.95 -54.25 -171.9M-66.85,-163.95Q-68.4 -163.6 -67.8 -162.35Q-67.15 -161.15 -66.05 -161.4Q-65.55 -161.5 -65.2 -163.35Q-65.3 -163.65 -65.85 -163.85L-66.85 -163.95M-136.5,-165.25L-136.6 -165.05Q-137.7 -164 -140.2 -163.4L-143.1 -163.65L-144 -163.9Q-147.5 -164.9 -148.05 -167.3Q-148.5 -169 -148.05 -170.75Q-147.6 -172.3 -146.65 -172.75L-146.55 -171.55Q-145.1 -165.55 -139.25 -166.9Q-137.25 -167.4 -136.05 -168.1Q-135.75 -166.3 -136.5 -165.25M-148.1,-157.2L-149.1 -157.3Q-150.65 -156.95 -150.05 -155.7Q-149.4 -154.5 -148.3 -154.75Q-147.8 -154.85 -147.45 -156.7L-148.1 -157.2M-144.55,-153.2L-144.5 -153.15L-144.35 -153.2L-144.55 -153.2M-97.35,-108.35L-97.9 -109.65L-97.35 -109.9L-95.4 -110.15L-94.5 -110.15L-94.2 -110.25L-92.85 -110.15L-92.45 -110.1L-91.8 -109.15Q-92.4 -108.45 -93.6 -108.1L-94.5 -107.85L-96.8 -107.15L-97.2 -108.05L-97.35 -108.35M-131.45,-123.25L-129.1 -124.2L-128.75 -124.2L-126.2 -123.8L-126 -123.75L-124.35 -123.5Q-123.3 -121.85 -122.55 -119.1L-122.45 -118.75L-123.2 -119.55L-124.4 -119.25L-125.25 -118.75L-125.4 -119.65L-126.9 -119.3L-128.15 -118.85L-129.75 -118.35Q-129.95 -118.4 -130.65 -120.6L-130.75 -121L-131.45 -123.25M-113.2,-113.7L-114.1 -113.95L-115.2 -114.35Q-116.55 -114.9 -117.3 -115.75L-118.15 -117.35Q-118.6 -119.05 -118.15 -120.8Q-117.7 -122.35 -116.75 -122.8L-116.65 -121.6Q-115.2 -115.6 -109.35 -116.95Q-107.35 -117.45 -106.15 -118.15Q-105.85 -116.35 -106.6 -115.3L-106.7 -115.1L-107.55 -114.45Q-108.6 -113.85 -110.3 -113.45L-111 -113.4L-113.2 -113.7" />
<path style="fill:#FF6600;fill-opacity:1" d="M-160.65,-170.95L-166.75 -169.5L-167.7 -171.2L-167.05 -172.2Q-166.45 -173.15 -166.4 -173.45L-161.75 -174.65L-161.65 -174.3L-161.4 -173.4L-161.35 -173.2L-160.65 -170.95M-158.3,-160.6L-158.25 -160.25L-158 -158.95L-157.65 -157.3L-157.8 -157.25L-157.75 -156.8L-162.55 -155.65L-163.55 -157.2L-163.3 -158.15L-163.1 -159.15L-163.1 -159.35L-158.3 -160.6M-76.05,-167.25L-76 -166.9L-75.75 -165.6L-75.4 -163.95L-75.55 -163.9L-75.5 -163.45L-80.3 -162.3L-81.3 -163.85L-81.05 -164.8L-80.85 -165.8L-80.85 -166L-76.05 -167.25M-79.5,-181.3L-79.4 -180.95L-79.15 -180.05L-79.1 -179.85L-78.4 -177.6L-84.5 -176.15L-85.45 -177.85L-84.8 -178.85Q-84.2 -179.8 -84.15 -180.1L-79.5 -181.3M-130.75,-121L-136.85 -119.55L-137.8 -121.25L-137.15 -122.25Q-136.55 -123.2 -136.5 -123.5L-131.85 -124.7L-131.75 -124.35L-131.5 -123.45L-131.45 -123.25L-130.75 -121" />
<path style="fill:#B4CEE9;fill-opacity:1" d="M-64.35,-181.2L-63.75 -182.95L-63.25 -183.4Q-62.45 -184.95 -60.5 -185.4L-57.6 -185.75L-55.3 -185.4Q-52.7 -184.55 -52 -181.65L-51.65 -179.25Q-51.55 -177.25 -52.35 -176.05L-52.75 -176.55Q-53.15 -177.1 -53.8 -179.6Q-54.9 -183.8 -59.15 -183.2L-60.05 -183.05Q-61.1 -182.8 -62.45 -181.65Q-63.8 -180.6 -64.2 -180.5L-64.45 -180.45L-64.35 -181.2M-146.6,-174.55L-146 -176.3L-145.5 -176.75Q-144.7 -178.3 -142.75 -178.75L-139.85 -179.1L-137.55 -178.75Q-134.95 -177.9 -134.25 -175L-133.9 -172.6Q-133.8 -170.6 -134.6 -169.4L-135 -169.9Q-135.4 -170.45 -136.05 -172.95Q-137.15 -177.15 -141.4 -176.55L-142.3 -176.4Q-143.35 -176.15 -144.7 -175Q-146.05 -173.95 -146.45 -173.85L-146.7 -173.8L-146.6 -174.55M-116.7,-124.6Q-116.55 -125.8 -116.1 -126.35L-115.6 -126.8Q-114.8 -128.35 -112.85 -128.8L-109.95 -129.15L-107.65 -128.8Q-105.05 -127.95 -104.35 -125.05L-104 -122.65Q-103.9 -120.65 -104.7 -119.45L-105.1 -119.95Q-105.5 -120.5 -106.15 -123Q-107.25 -127.2 -111.5 -126.6L-112.4 -126.45Q-113.45 -126.2 -114.8 -125.05Q-116.15 -124 -116.55 -123.9L-116.8 -123.85L-116.7 -124.6" />
<path style="fill:#6A86A3;fill-opacity:1" d="M-60,-180.15Q-59.75 -180.95 -59 -181.1L-57.85 -181.1Q-57.1 -180.95 -56.95 -180.5Q-56.8 -179.9 -57.3 -179.2Q-57.65 -178.6 -58.2 -178.45L-58.95 -178.35Q-59.75 -178.5 -60.15 -179.7L-60 -180.15M-139.2,-173.85Q-139.05 -173.25 -139.55 -172.55Q-139.9 -171.95 -140.45 -171.8L-141.2 -171.7Q-142 -171.85 -142.4 -173.05L-142.25 -173.5Q-142 -174.3 -141.25 -174.45L-140.1 -174.45Q-139.35 -174.3 -139.2 -173.85M-110.2,-124.5Q-109.45 -124.35 -109.3 -123.9Q-109.15 -123.3 -109.65 -122.6L-110.55 -121.85L-111.3 -121.75Q-112.1 -121.9 -112.5 -123.1L-112.35 -123.55Q-112.1 -124.35 -111.35 -124.5L-110.2 -124.5" />
<path style="fill:#8CAAC9;fill-opacity:1" d="M-60.15,-179.7Q-59.75 -178.5 -58.95 -178.35L-58.2 -178.45Q-57.65 -178.6 -57.3 -179.2Q-56.8 -179.9 -56.95 -180.5Q-57.1 -180.95 -57.85 -181.1L-59 -181.1Q-59.75 -180.95 -60 -180.15L-60.15 -179.7M-64.45,-180.45L-64.2 -180.5Q-63.8 -180.6 -62.45 -181.65Q-61.1 -182.8 -60.05 -183.05L-59.15 -183.2Q-54.9 -183.8 -53.8 -179.6Q-53.15 -177.1 -52.75 -176.55L-52.35 -176.05Q-52.85 -175.3 -53.8 -174.75Q-55 -174.05 -57 -173.55Q-62.85 -172.2 -64.3 -178.2L-64.4 -179.4L-64.45 -180.45M-140.1,-174.45L-141.25 -174.45Q-142 -174.3 -142.25 -173.5L-142.4 -173.05Q-142 -171.85 -141.2 -171.7L-140.45 -171.8Q-139.9 -171.95 -139.55 -172.55Q-139.05 -173.25 -139.2 -173.85Q-139.35 -174.3 -140.1 -174.45M-136.05,-168.1Q-137.25 -167.4 -139.25 -166.9Q-145.1 -165.55 -146.55 -171.55L-146.65 -172.75L-146.7 -173.8L-146.45 -173.85Q-146.05 -173.95 -144.7 -175Q-143.35 -176.15 -142.3 -176.4L-141.4 -176.55Q-137.15 -177.15 -136.05 -172.95Q-135.4 -170.45 -135 -169.9L-134.6 -169.4Q-135.1 -168.65 -136.05 -168.1M-106.15,-118.15Q-107.35 -117.45 -109.35 -116.95Q-115.2 -115.6 -116.65 -121.6L-116.75 -122.8L-116.8 -123.85L-116.55 -123.9Q-116.15 -124 -114.8 -125.05Q-113.45 -126.2 -112.4 -126.45L-111.5 -126.6Q-107.25 -127.2 -106.15 -123Q-105.5 -120.5 -105.1 -119.95L-104.7 -119.45L-106.15 -118.15M-111.35,-124.5Q-112.1 -124.35 -112.35 -123.55L-112.5 -123.1Q-112.1 -121.9 -111.3 -121.75L-110.55 -121.85L-109.65 -122.6Q-109.15 -123.3 -109.3 -123.9Q-109.45 -124.35 -110.2 -124.5L-111.35 -124.5" />
<path style="fill:#772D1B;fill-opacity:1" d="M-122.8,-170.7L-124.2 -168.75L-124.4 -169.15L-124.95 -169.8L-125.65 -170.2L-125.9 -170.25Q-126.75 -170.25 -128.75 -168.75L-129.85 -170.55Q-130.75 -172 -130.7 -172.85L-132.65 -172.85L-133.9 -172.6L-134.25 -175Q-134.95 -177.9 -137.55 -178.75L-139.85 -179.1L-141.15 -181.8Q-141.6 -181.55 -143.2 -181L-145.05 -180.5Q-145.8 -180.5 -146.15 -182.2L-146.25 -182.75L-146.3 -182.85Q-145.15 -183.8 -140.6 -186.35Q-140.1 -186.35 -138.3 -184.95L-136.25 -183.55L-133.85 -183.95Q-132.8 -183.95 -132.1 -182.3L-131.6 -181.55Q-130.7 -180.7 -128.85 -180.7Q-127.55 -180.7 -126.6 -179.3L-126.2 -178.6Q-125.45 -177 -124.4 -176.65L-123.8 -176.55L-123.2 -173.95L-123.1 -173.5L-123 -173L-122.6 -171.4L-122.55 -171.05L-122.8 -170.7M-53.55,-165.15L-53.9 -165L-56.4 -163.5Q-58.8 -161.85 -59.1 -161.85L-60.2 -162.85L-60.85 -163.6L-61.85 -163.5L-62.45 -163.5Q-61.4 -165.4 -59.6 -165.15L-58.5 -165.25Q-58.05 -165.45 -57.8 -165.95L-56.85 -168.75Q-56 -170.6 -55.35 -170.95L-53.45 -171.15L-48.9 -171L-48.6 -168.35Q-48.4 -167.7 -47.6 -167.65L-46.35 -167.9L-48.85 -165.55L-49.65 -164.85Q-50.45 -164.25 -50.9 -164.25Q-51.35 -164.25 -52.3 -164.7L-52.85 -164.95L-53.55 -165.15M-43.65,-176.9Q-44.5 -176.9 -46.5 -175.4L-47.6 -177.2Q-48.5 -178.65 -48.45 -179.5L-50.4 -179.5L-51.65 -179.25L-52 -181.65Q-52.7 -184.55 -55.3 -185.4L-57.6 -185.75L-58.9 -188.45Q-59.35 -188.2 -60.95 -187.65L-62.8 -187.15Q-63.55 -187.15 -63.9 -188.85L-64 -189.4L-64.05 -189.5Q-62.9 -190.45 -58.35 -193Q-57.85 -193 -56.05 -191.6L-54 -190.2L-51.6 -190.6Q-50.55 -190.6 -49.85 -188.95L-49.35 -188.2Q-48.45 -187.35 -46.6 -187.35Q-45.3 -187.35 -44.35 -185.95L-43.95 -185.25Q-43.2 -183.65 -42.15 -183.3L-41.55 -183.2L-40.95 -180.6L-40.85 -180.15L-40.75 -179.65L-40.35 -178.05L-40.3 -177.7L-40.55 -177.35L-41.95 -175.4L-42.15 -175.8L-42.7 -176.45Q-43.1 -176.8 -43.4 -176.85L-43.65 -176.9M-92.9,-120.75L-94.3 -118.8L-94.5 -119.2L-95.05 -119.85L-95.75 -120.25L-96 -120.3Q-96.85 -120.3 -98.85 -118.8L-99.95 -120.6Q-100.85 -122.05 -100.8 -122.9L-102.75 -122.9L-104 -122.65L-104.35 -125.05Q-105.05 -127.95 -107.65 -128.8L-109.95 -129.15L-111.25 -131.85L-113.3 -131.05L-115.15 -130.55Q-115.9 -130.55 -116.25 -132.25L-116.35 -132.8L-116.4 -132.9L-110.7 -136.4Q-110.2 -136.4 -108.4 -135L-106.35 -133.6L-103.95 -134Q-102.9 -134 -102.2 -132.35L-101.7 -131.6Q-100.8 -130.75 -98.95 -130.75Q-97.65 -130.75 -96.7 -129.35L-96.3 -128.65Q-95.55 -127.05 -94.5 -126.7L-93.9 -126.6L-93.3 -124L-93.2 -123.55L-93.1 -123.05L-92.7 -121.45L-92.65 -121.1L-92.9 -120.75M-97.2,-108.05L-97.65 -107.95L-99.9 -107.4L-100.2 -107.3L-102.5 -106.85Q-102.75 -106.85 -104.4 -107.4Q-105.5 -107.4 -107.85 -105.9L-110.15 -106.85L-111.8 -105.85L-113.45 -104.85Q-113.8 -104.85 -114.55 -106Q-115.3 -107.15 -115.7 -107.15L-117.15 -106.55L-117.65 -106.25L-118.85 -105.75L-119.1 -107.35L-119.4 -108.9Q-119.75 -111 -121.2 -111L-120 -115.05L-118.7 -115.4L-117.3 -115.75Q-116.55 -114.9 -115.2 -114.35L-115.2 -114.3L-113.9 -111.75L-111 -113.4L-110.3 -113.45Q-108.6 -113.85 -107.55 -114.45L-105.3 -111.95Q-103.25 -113.4 -102.45 -113.4Q-102.15 -113.4 -101.65 -112.4L-101.1 -111.2L-100.2 -111.45Q-99.7 -111.7 -99.5 -111.9L-98.75 -111.9L-97.9 -109.65L-97.35 -108.35L-97.2 -108.05" />
<path style="fill:none;stroke-width:1;stroke-linecap:butt;stroke-linejoin:miter;stroke-miterlimit:3;stroke:#833825;stroke-opacity:1" d="M-159.55,-180.85L-158.75 -180.85L-157.6 -181.1L-157.9 -182.05L-157.85 -183.9Q-157.45 -186.7 -153.95 -187.5L-153.7 -187.6L-153.3 -187.65L-151.5 -184.7L-150.7 -183.3L-149 -183.55L-147.45 -183.95Q-146.7 -183.95 -146.3 -182.85Q-145.15 -183.8 -140.6 -186.35Q-140.1 -186.35 -138.3 -184.95L-136.25 -183.55L-133.85 -183.95Q-132.8 -183.95 -132.1 -182.3L-131.6 -181.55Q-130.7 -180.7 -128.85 -180.7Q-127.55 -180.7 -126.6 -179.3L-126.2 -178.6Q-125.45 -177 -124.4 -176.65L-123.8 -176.55L-123.2 -173.95L-123.1 -173.5L-123 -173L-122.6 -171.4L-122.55 -171.05L-122.1 -168.4L-122.05 -167.95L-121.45 -163.6L-121.35 -162.85L-121.25 -161.9L-121.25 -161L-121.35 -160L-121.7 -159.1Q-122.3 -158.4 -123.5 -158.05L-124.4 -157.8L-127.25 -156.95L-129.6 -156.35L-129.95 -156.3L-129.8 -155.9Q-129.05 -153.35 -129.65 -152.7Q-129.9 -152.45 -132.25 -151.9Q-140.75 -149.9 -143.95 -150.8L-144.5 -153.15L-148.45 -152.5Q-151.1 -152.3 -152 -155.45L-153.5 -155.2L-156.2 -154.8Q-157.65 -155.05 -157.75 -156.8L-162.55 -155.65L-163.55 -157.2L-163.3 -158.15L-163.1 -159.15L-163.1 -159.35Q-163.25 -159.95 -164 -160.3L-165.1 -160.9L-164.45 -162.15L-158.95 -163.5L-159.25 -164.5L-159.3 -164.7L-159.35 -165.95L-156.25 -166.85M-156.25,-166.75L-154.85 -167.1L-155.3 -169.6L-156.8 -169.25L-158.05 -168.8L-159.65 -168.3L-160.55 -170.55L-160.65 -170.95L-166.75 -169.5L-167.7 -171.2L-167.05 -172.2Q-166.45 -173.15 -166.4 -173.45M-77.3,-187.5L-76.5 -187.5L-75.35 -187.75L-75.65 -188.7L-75.6 -190.55Q-75.2 -193.35 -71.7 -194.15L-71.45 -194.25L-71.05 -194.3L-69.25 -191.35L-68.45 -189.95L-66.75 -190.2L-65.2 -190.6Q-64.45 -190.6 -64.05 -189.5Q-62.9 -190.45 -58.35 -193Q-57.85 -193 -56.05 -191.6L-54 -190.2L-51.6 -190.6Q-50.55 -190.6 -49.85 -188.95L-49.35 -188.2Q-48.45 -187.35 -46.6 -187.35Q-45.3 -187.35 -44.35 -185.95L-43.95 -185.25Q-43.2 -183.65 -42.15 -183.3L-41.55 -183.2L-40.95 -180.6L-40.85 -180.15L-40.75 -179.65L-40.35 -178.05L-40.3 -177.7L-39.85 -175.05L-39.8 -174.6L-39.2 -170.25L-39.1 -169.5L-39 -168.55L-39 -167.65L-39.1 -166.65L-39.45 -165.75Q-40.05 -165.05 -41.25 -164.7L-42.15 -164.45L-43.65 -164L-44.15 -165.5L-44.7 -166.55Q-45.3 -167.45 -46.2 -167.6L-46.35 -167.9L-48.85 -165.55L-49.65 -164.85Q-50.45 -164.25 -50.9 -164.25Q-51.35 -164.25 -52.3 -164.7L-52.85 -164.95M-53.9,-165L-56.4 -163.5Q-58.8 -161.85 -59.1 -161.85L-60.2 -162.85L-60.85 -163.6M-62.45,-163.5L-62.85 -162.75L-63.8 -159.45L-66.2 -159.15Q-68.85 -158.95 -69.75 -162.1L-71.25 -161.85L-73.95 -161.45Q-75.4 -161.7 -75.5 -163.45L-80.3 -162.3L-81.3 -163.85L-81.05 -164.8L-80.85 -165.8L-80.85 -166Q-81 -166.6 -81.75 -166.95L-82.85 -167.55L-82.2 -168.8L-76.7 -170.15L-77 -171.15L-77.05 -171.35L-77.1 -172.6Q-75.35 -172.95 -74 -173.5M-74,-173.4L-72.6 -173.75L-73.05 -176.25L-74.55 -175.9L-75.8 -175.45Q-77.25 -174.9 -77.4 -174.95L-78.3 -177.2L-78.4 -177.6L-84.5 -176.15L-85.45 -177.85L-84.8 -178.85Q-84.2 -179.8 -84.15 -180.1L-84.15 -180.15L-85.85 -181.05L-85.4 -182.75L-85.35 -182.9L-80.15 -184.15Q-80.45 -185.65 -80.35 -186.2Q-80.15 -187.15 -77.35 -187.7M-40.3,-177.7L-40.55 -177.35L-41.95 -175.4L-42.15 -175.8L-42.7 -176.45Q-43.1 -176.8 -43.4 -176.85M-41.85,-166.85L-42.15 -166.75L-43.05 -166.75Q-43.5 -167.05 -43.7 -167.7Q-44.1 -168.9 -43 -169.15L-42.15 -169.05L-42.1 -169.05Q-41.4 -168.85 -41.25 -168.25Q-41.15 -167.75 -41.3 -167.35L-41.85 -166.85M-64.05,-189.5L-64 -189.4L-63.9 -188.85Q-63.55 -187.15 -62.8 -187.15L-60.95 -187.65Q-59.35 -188.2 -58.9 -188.45L-57.6 -185.75M-51.65,-179.25L-50.4 -179.5L-48.45 -179.5Q-48.5 -178.65 -47.6 -177.2L-46.5 -175.4Q-44.5 -176.9 -43.65 -176.9L-43.4 -176.85M-71.4,-190.85L-72.35 -190.95L-72.95 -190.75L-73.15 -190.5L-73.25 -190.25L-73.3 -189.8L-73.3 -189.5Q-73 -188.3 -71.65 -188.65Q-71.2 -188.75 -70.95 -189.35Q-70.6 -189.95 -70.7 -190.45Q-70.8 -190.75 -71.4 -190.85M-73.05,-176.25L-73.6 -179.85L-73.65 -180.35L-73.9 -182.15L-73.95 -182.35L-75.35 -187.75M-79.1,-179.85L-78.4 -177.6M-62.45,-163.5Q-61.4 -165.4 -59.6 -165.15L-58.5 -165.25Q-58.05 -165.45 -57.8 -165.95L-56.85 -168.75Q-56 -170.6 -55.35 -170.95L-53.45 -171.15L-48.9 -171L-48.6 -168.35Q-48.4 -167.7 -47.6 -167.65L-46.35 -167.9M-79.1,-179.85L-79.15 -180.05L-79.4 -180.95L-79.5 -181.3L-80.1 -183.75L-80.15 -184.15M-70.65,-165.65L-69.9 -162.55L-69.75 -162.1M-66.85,-163.95Q-68.4 -163.6 -67.8 -162.35Q-67.15 -161.15 -66.05 -161.4Q-65.55 -161.5 -65.2 -163.35Q-65.3 -163.65 -65.85 -163.85L-66.85 -163.95M-61.35,-164.1L-60.85 -163.6M-70.65,-165.65L-71.25 -168L-72.05 -171.25L-72.6 -173.75M-75.5,-163.45L-75.55 -163.9L-75.4 -163.95L-75.75 -165.6L-76 -166.9L-76.05 -167.25L-76.7 -170.15M-53.9,-165L-53.55 -165.15L-52.85 -164.95M-146.3,-182.85L-146.25 -182.75L-146.15 -182.2Q-145.8 -180.5 -145.05 -180.5L-143.2 -181Q-141.6 -181.55 -141.15 -181.8L-139.85 -179.1M-133.9,-172.6L-132.65 -172.85L-130.7 -172.85Q-130.75 -172 -129.85 -170.55L-128.75 -168.75Q-126.75 -170.25 -125.9 -170.25L-125.65 -170.2L-124.95 -169.8L-124.4 -169.15L-124.2 -168.75L-122.8 -170.7L-122.55 -171.05M-155.4,-183.85L-155.5 -183.6L-155.55 -183.15L-155.55 -182.85Q-155.25 -181.65 -153.9 -182Q-153.45 -182.1 -153.2 -182.7Q-152.85 -183.3 -152.95 -183.8Q-153.05 -184.1 -153.65 -184.2L-154.6 -184.3L-155.2 -184.1L-155.4 -183.85M-155.3,-169.6L-155.85 -173.2L-155.9 -173.7L-156.15 -175.5L-156.2 -175.7L-157.6 -181.1M-160.65,-170.95L-161.35 -173.2L-161.4 -173.4L-161.65 -174.3L-161.75 -174.65M-125.3,-160.1Q-125.75 -160.4 -125.95 -161.05Q-126.35 -162.25 -125.25 -162.5L-124.4 -162.4L-124.35 -162.4Q-123.65 -162.2 -123.5 -161.6Q-123.4 -161.1 -123.55 -160.7L-124.1 -160.2M-154.85,-167.1L-154.3 -164.6L-153.5 -161.35L-152.9 -159L-152.15 -155.9L-152 -155.45M-157.75,-156.8L-157.8 -157.25L-157.65 -157.3L-158 -158.95L-158.25 -160.25L-158.3 -160.6L-158.95 -163.5M-148.1,-157.2L-149.1 -157.3Q-150.65 -156.95 -150.05 -155.7Q-149.4 -154.5 -148.3 -154.75Q-147.8 -154.85 -147.45 -156.7L-148.1 -157.2M-144.35,-153.2L-144.55 -153.2L-144.5 -153.15L-144.35 -153.2L-142.05 -153.8L-134.6 -155L-131.45 -155.9L-129.95 -156.3M-125.3,-160.1L-124.4 -160.1L-124.1 -160.2M-129.65,-130.9L-128.85 -130.9L-127.7 -131.15L-128 -132.1L-127.95 -133.95Q-127.55 -136.75 -124.05 -137.55L-123.8 -137.65L-123.4 -137.7L-121.6 -134.75L-120.8 -133.35L-119.1 -133.6L-117.55 -134Q-116.8 -134 -116.4 -132.9L-110.7 -136.4Q-110.2 -136.4 -108.4 -135L-106.35 -133.6L-103.95 -134Q-102.9 -134 -102.2 -132.35L-101.7 -131.6Q-100.8 -130.75 -98.95 -130.75Q-97.65 -130.75 -96.7 -129.35L-96.3 -128.65Q-95.55 -127.05 -94.5 -126.7L-93.9 -126.6L-93.3 -124L-93.2 -123.55L-93.1 -123.05L-92.7 -121.45L-92.65 -121.1L-92.2 -118.45L-92.15 -118L-91.55 -113.65L-91.45 -112.9L-91.35 -111.95L-91.35 -111.05L-91.45 -110.05L-91.8 -109.15Q-92.4 -108.45 -93.6 -108.1L-94.5 -107.85L-96.8 -107.15L-97.2 -108.05L-97.65 -107.95L-99.9 -107.4L-100.2 -107.3L-102.5 -106.85Q-102.75 -106.85 -104.4 -107.4Q-105.5 -107.4 -107.85 -105.9L-110.15 -106.85L-111.8 -105.85L-113.45 -104.85Q-113.8 -104.85 -114.55 -106Q-115.3 -107.15 -115.7 -107.15L-117.15 -106.55L-117.65 -106.25L-118.85 -105.75L-119.1 -107.35L-119.4 -108.9Q-119.75 -111 -121.2 -111L-120 -115.05L-120.1 -115.05Q-120.45 -115.05 -121.65 -117.3L-122.45 -118.75L-123.2 -119.55L-124.4 -119.25L-125.25 -118.75L-125.4 -119.65L-126.9 -119.3L-128.15 -118.85L-129.75 -118.35Q-129.95 -118.4 -130.65 -120.6L-130.75 -121L-136.85 -119.55L-137.8 -121.25L-137.15 -122.25Q-136.55 -123.2 -136.5 -123.5L-136.5 -123.55L-138.2 -124.45L-137.75 -126.15L-137.7 -126.3L-132.5 -127.55Q-132.8 -129.05 -132.7 -129.6Q-132.5 -130.55 -129.7 -131.1M-125.5,-133.9L-125.3 -134.15L-124.7 -134.35L-123.75 -134.25M-130.75,-121L-131.45 -123.25L-131.5 -123.45L-131.75 -124.35L-131.85 -124.7L-132.45 -127.15L-132.5 -127.55M-125.5,-133.9L-125.6 -133.65L-125.65 -133.2L-125.65 -132.9Q-125.35 -131.7 -124 -132.05Q-123.55 -132.15 -123.3 -132.75Q-122.95 -133.35 -123.05 -133.85Q-123.15 -134.15 -123.75 -134.25M-125.4,-119.65L-125.95 -123.25L-126 -123.75L-126.25 -125.55L-126.3 -125.75L-127.7 -131.15M-109.95,-129.15L-111.25 -131.85L-113.3 -131.05L-115.15 -130.55Q-115.9 -130.55 -116.25 -132.25L-116.35 -132.8L-116.4 -132.9M-95.75,-120.25L-96 -120.3Q-96.85 -120.3 -98.85 -118.8L-99.95 -120.6Q-100.85 -122.05 -100.8 -122.9L-102.75 -122.9L-104 -122.65M-111,-113.4L-113.9 -111.75L-115.2 -114.3L-115.2 -114.35M-117.3,-115.75L-118.7 -115.4L-120 -115.05M-111,-113.4L-110.8 -113.5L-108.15 -114.8L-107.55 -114.45L-105.3 -111.95Q-103.25 -113.4 -102.45 -113.4Q-102.15 -113.4 -101.65 -112.4L-101.1 -111.2L-100.2 -111.45Q-99.7 -111.7 -99.5 -111.9L-98.75 -111.9L-97.9 -109.65L-97.35 -108.35L-97.2 -108.05M-95.4,-110.15L-96.05 -111.1Q-96.45 -112.3 -95.35 -112.55L-94.5 -112.45L-94.45 -112.45Q-93.75 -112.25 -93.6 -111.65Q-93.5 -111.15 -93.65 -110.75L-94.2 -110.25M-95.75,-120.25L-95.05 -119.85L-94.5 -119.2L-94.3 -118.8L-92.9 -120.75L-92.65 -121.1M-117.3,-115.75L-116.55 -115.8Q-116.15 -115.8 -115.2 -114.35M-95.4,-110.15L-94.5 -110.15L-94.2 -110.25" />
<path style="fill:none;stroke-width:1;stroke-linecap:butt;stroke-linejoin:miter;stroke-miterlimit:3;stroke:#34495F;stroke-opacity:1" d="M-57.6,-185.75L-55.3 -185.4Q-52.7 -184.55 -52 -181.65L-51.65 -179.25M-53.8,-174.75Q-52.85 -175.3 -52.35 -176.05Q-51.55 -177.25 -51.65 -179.25M-53.8,-174.75Q-55 -174.05 -57 -173.55Q-62.85 -172.2 -64.3 -178.2L-64.4 -179.4M-57.6,-185.75L-60.5 -185.4Q-62.45 -184.95 -63.25 -183.4L-63.75 -182.95L-64.35 -181.2L-64.45 -180.45L-64.4 -179.4M-139.85,-179.1L-137.55 -178.75Q-134.95 -177.9 -134.25 -175L-133.9 -172.6M-139.85,-179.1L-142.75 -178.75Q-144.7 -178.3 -145.5 -176.75L-146 -176.3L-146.6 -174.55L-146.7 -173.8L-146.65 -172.75L-146.55 -171.55Q-145.1 -165.55 -139.25 -166.9Q-137.25 -167.4 -136.05 -168.1Q-135.1 -168.65 -134.6 -169.4Q-133.8 -170.6 -133.9 -172.6M-104.7,-119.45Q-103.9 -120.65 -104 -122.65L-104.35 -125.05Q-105.05 -127.95 -107.65 -128.8L-109.95 -129.15L-112.85 -128.8Q-114.8 -128.35 -115.6 -126.8L-116.1 -126.35Q-116.55 -125.8 -116.7 -124.6L-116.8 -123.85L-116.75 -122.8L-116.65 -121.6Q-115.2 -115.6 -109.35 -116.95Q-107.35 -117.45 -106.15 -118.15L-104.7 -119.45" />
<path style="fill:none;stroke-width:1;stroke-linecap:butt;stroke-linejoin:miter;stroke-miterlimit:3;stroke:#833825;stroke-opacity:1" d="M-162.4,-177.5L-167.6 -176.25L-167.65 -176.1L-168.1 -174.4Q-166.9 -173.9 -166.4 -173.5L-166.4 -173.45M-162.4,-177.5Q-162.7 -179 -162.6 -179.55Q-162.4 -180.5 -159.6 -181.05" />
<path style="fill:none;stroke-width:1;stroke-linecap:round;stroke-linejoin:miter;stroke-miterlimit:3;stroke:#833825;stroke-opacity:1" d="M-161.75,-174.65L-162.35 -177.1L-162.4 -177.5" />
<path style="fill:#E7846C;fill-opacity:1" d="M93.35,-143.7L93.4 -145.85L93.4 -146.85L93.4 -152.05L92.6 -155.55L92.75 -155.7Q93.6 -156.6 94.5 -156.6Q95 -156.6 95.7 -155.75L95.75 -155.65Q96.5 -154.7 96.9 -154.7L98.25 -155.45L99.25 -155.95L99.25 -155.8Q99.75 -153 99.75 -150.6Q99.75 -149.4 98.9 -149L96.35 -148.5L96.15 -146.45L95.85 -145.1L95.55 -144.2L93.35 -143.7M51.25,-148.45L51.1 -149.7Q51.5 -151.2 52.4 -151.6L52.6 -151.65L53.05 -148.65L51.25 -148.45M-0.2,-169.1L1.65 -169.55Q2.35 -169.55 2.75 -168.7L2.2 -168.8L0.55 -168.9L-1.45 -168.75L-0.2 -169.1M-5.65,-170.6L-4.2 -170.75L-4.05 -170.75L-3.35 -169.6L-2.55 -168.75L-4.8 -168.65L-7.7 -168.35L-8.8 -168.55Q-7.85 -170.25 -5.65 -170.6M7.75,-160.5Q7.4 -161.35 7.2 -162.35L7.15 -162.75L6.05 -166.15L6.9 -165.9L7.5 -164.55Q7.85 -163.4 8.4 -163.2L9.75 -162.95Q10.2 -161.35 10.6 -161Q11.75 -161 13.1 -160.05L14 -159.35L12.95 -156.15L12.9 -156.05L11.3 -156.35L11.15 -156.35Q10.3 -156.9 9.3 -157.25L9.2 -157.4L9.1 -157.3Q6.7 -158.05 0.95 -157.2L0.9 -157.3Q0.45 -157.7 -3.4 -156.35L-8 -154.55L-11.4 -154.85L-12.5 -155.35Q-11.25 -156.75 -9.25 -157.85Q-4.85 -159.25 1.75 -159.8L7.75 -160.5M15.35,-139.55L15.4 -141.7L15.4 -142.7L15.4 -143L16.05 -143L16.05 -140.9L16.8 -140.7L17.75 -140.55L17.55 -140.05L15.35 -139.55" />
<path style="fill:#D75535;fill-opacity:1" d="M63.7,-156.5Q64.35 -158.1 65.35 -159.3Q65.5 -158.9 66.2 -157.85L67.05 -156.2Q67.65 -156.2 69.65 -157.05Q71.6 -153.6 71.85 -153.6L73.35 -154.1L75.2 -154.65Q76.1 -154.65 78.35 -148.95L80.55 -151.2L82.4 -153.3Q82.8 -151.9 83.6 -151.9Q84.8 -151.9 86.45 -152.6Q88.4 -153.4 88.4 -154.35L88.4 -154.9L88.15 -156.55L91.6 -154.85L92.6 -155.55L93.4 -152.05L93.4 -146.85L93.4 -145.85L90.55 -145.15Q88.35 -144.85 76.55 -145.05L71.85 -145.45L67.55 -146.75Q66.7 -146.95 64.7 -148.25L62.75 -149.35L62.75 -149.6Q62.65 -153.7 63.7 -156.5M-2.1,-168.75L-1.45 -168.75L0.55 -168.9L2.2 -168.8L2.75 -168.7L3 -168L3.35 -166.35L5 -166.2L6.05 -166.15L7.15 -162.75L2.25 -162.45L1.35 -162.55L-1.4 -162.9L-2.25 -162.95L-3.1 -163.05L-3.1 -163.1L-3.2 -164.2Q-3.55 -166.4 -4 -167.05L-7.7 -166.5L-9.6 -166.25Q-9.4 -167.6 -8.8 -168.55L-7.7 -168.35L-4.8 -168.65L-2.55 -168.75L-2.1 -168.75M-14.3,-152.35Q-13.6 -154.05 -12.55 -155.3L-12.5 -155.35L-11.4 -154.85L-8 -154.55L-3.4 -156.35Q0.45 -157.7 0.9 -157.3L0.95 -157.2Q6.7 -158.05 9.1 -157.3L9.2 -157.4L9.3 -157.25Q10.3 -156.9 11.15 -156.35Q10.35 -156.3 10.15 -155.7L9.95 -153.6L9.75 -153.6L9.5 -154.05Q8.95 -154.95 8.3 -154.95L7.45 -154.9L7.35 -154.9Q4.05 -154.7 4.05 -153L4.05 -152.85L4.1 -151.65L4.1 -151.05Q4.2 -149.75 4.45 -149Q4.85 -147.75 5.6 -147.75L7.75 -148.15Q8.55 -146.55 8.55 -145.85Q10.1 -146 10.85 -145.35L10.95 -145.25Q11.7 -144.5 11.25 -143L13.2 -142.7L14.75 -143L15.4 -143L15.4 -142.7L15.4 -141.7L12.55 -141L8.1 -140.8L7.9 -141.45Q7.45 -143.1 5.55 -143.1Q3 -143.1 2.6 -144.65Q2.2 -146.25 1.55 -146.25L0.15 -146Q-0.6 -145.7 -0.6 -145.5L-0.3 -144.3L-2.1 -141.2L-1.45 -140.9L-2.45 -140.8L-3 -140.8L-5.85 -141.2L-6.15 -141.3L-10.45 -142.6Q-11.3 -142.8 -13.3 -144.1L-15.25 -145.2L-15.25 -145.45Q-15.35 -149.55 -14.3 -152.35" />
<path style="fill:#B6492E;fill-opacity:1" d="M62.75,-149.35L64.7 -148.25Q66.7 -146.95 67.55 -146.75L71.85 -145.45L76.55 -145.05Q88.35 -144.85 90.55 -145.15L93.4 -145.85L93.35 -143.7L87.35 -142.75L69 -140.95L64.2 -140.2L63.85 -141.5L63.6 -143.05L63.25 -144.6Q62.85 -147.2 62.75 -149.35M53.05,-148.65L53.8 -143.85L51.85 -144.05L51.25 -148.45L53.05 -148.65M-4.45,-160.9Q-3.25 -161.45 -3.1 -163.05L-2.25 -162.95L-1.4 -162.9L1.35 -162.55L2.25 -162.45L7.15 -162.75L7.2 -162.35Q7.4 -161.35 7.75 -160.5L1.75 -159.8Q-4.85 -159.25 -9.25 -157.85L-9.25 -159.9L-7.35 -160.2L-4.45 -160.9M-15.25,-145.2L-13.3 -144.1Q-11.3 -142.8 -10.45 -142.6L-6.15 -141.3L-5.85 -141.2L-6.5 -140.7Q-7.8 -139.8 -9.45 -139.8L-8.4 -136.85L-9 -136.8L-13.8 -136.05L-14.15 -137.35L-14.4 -138.9L-14.75 -140.45L-15.25 -145.2M9.35,-138.6L8.75 -138.55L8.1 -140.8L12.55 -141L15.4 -141.7L15.35 -139.55L9.35 -138.6M-3,-140.8L-2.45 -140.8Q-2.6 -140.7 -2.7 -140.7L-3 -140.8" />
<path style="fill:#434343;fill-opacity:1" d="M51.25,-148.45L50.85 -148.4Q50.9 -149.15 51.1 -149.7L51.25 -148.45M62.75,-149.6L53.05 -148.65L52.6 -151.65L54 -152L53.9 -153.8L54.05 -153.85L63.7 -156.5Q62.65 -153.7 62.75 -149.6M-15.25,-145.45L-20.1 -144.95L-20.9 -147.1L-19.6 -150.9L-14.3 -152.35Q-15.35 -149.55 -15.25 -145.45" />
<path style="fill:#252221;fill-opacity:1" d="M-7.5,-163.15L-7.7 -166.5L-4 -167.05Q-3.55 -166.4 -3.2 -164.2L-3.1 -163.1L-7.5 -163.15M-5.75,-165.05Q-5.4 -164.8 -5.05 -164.8L-4.45 -164.9L-4.35 -165.45L-4.45 -165.9Q-4.95 -165.9 -5.8 -165.35L-5.75 -165.05" />
<path style="fill:#3A3736;fill-opacity:1" d="M-3.1,-163.1L-3.1 -163.05Q-3.25 -161.45 -4.45 -160.9L-7.35 -160.2L-7.5 -163.15L-3.1 -163.1" />
<path style="fill:#252424;fill-opacity:1" d="M63.25,-144.6L63.6 -143.05L60.6 -143.25Q60.55 -144.2 60.05 -144.7Q58.65 -146.1 58.55 -146.55Q55.7 -146.45 55.5 -143.7L54.4 -143.8L53.8 -143.85L53.05 -148.65L62.75 -149.6L62.75 -149.35Q62.85 -147.2 63.25 -144.6M51.25,-148.45L51.85 -144.05L48.2 -144.25L48.45 -146.7L50.75 -146.7L50.85 -148.4L51.25 -148.45M-15.25,-145.45L-15.25 -145.2L-14.75 -140.45L-14.4 -138.9L-20.8 -139.4L-19.3 -142.85L-20.1 -144.95L-15.25 -145.45" />
<path style="fill:#BFBEBE;fill-opacity:1" d="M-5.8,-165.35Q-4.95 -165.9 -4.45 -165.9L-4.35 -165.45L-4.45 -164.9L-5.05 -164.8Q-5.4 -164.8 -5.75 -165.05L-5.8 -165.35" />
<path style="fill:#AAC7E5;fill-opacity:1" d="M60.45,-137.8L60.45 -138.05L60.35 -139.65L64.2 -140.2L69 -140.95L87.35 -142.75L93.35 -143.7L95.55 -144.2L97.55 -144.7Q101.7 -144.7 102.55 -138.95Q103.35 -133.2 102.9 -130.75L102.7 -129.95L101.8 -131.35L98.95 -136.05Q97.15 -138.4 94.75 -138.65Q92.3 -138.95 88.05 -138.5L81.45 -138.05L74.2 -137.15L66.8 -135.8Q62.95 -135.4 60.7 -136.7L60.5 -136.9Q60.4 -137.3 60.45 -137.8M-17.55,-133.65L-17.55 -133.9L-17.65 -135.5L-13.8 -136.05L-9 -136.8L-8.4 -136.85L8.75 -138.55L9.35 -138.6L15.35 -139.55L17.55 -140.05L19.55 -140.55Q23.7 -140.55 24.55 -134.8Q25.35 -129.05 24.9 -126.6L24.7 -125.8L23.8 -127.2L20.95 -131.9Q19.15 -134.25 16.75 -134.5Q14.3 -134.8 10.05 -134.35L3.45 -133.9L-3.8 -133L-11.2 -131.65Q-15.05 -131.25 -17.3 -132.55L-17.5 -132.75L-17.55 -133.65" />
<path style="fill:#8CAAC9;fill-opacity:1" d="M60.5,-136.9L60.7 -136.7Q62.95 -135.4 66.8 -135.8L74.2 -137.15L81.45 -138.05L88.05 -138.5Q92.3 -138.95 94.75 -138.65Q97.15 -138.4 98.95 -136.05L101.8 -131.35L102.7 -129.95Q101.7 -128.15 98.25 -127.6L96.35 -127.35L89.55 -126.55L80.95 -126.15L79.15 -126.2L72.2 -125.1L69.7 -124.85Q61.3 -124.05 60.9 -126.7L60.5 -130.25L60.4 -131.2L59.95 -137.25L60.5 -136.9M-17.5,-132.75L-17.3 -132.55Q-15.05 -131.25 -11.2 -131.65L-3.8 -133L3.45 -133.9L10.05 -134.35Q14.3 -134.8 16.75 -134.5Q19.15 -134.25 20.95 -131.9L23.8 -127.2L24.7 -125.8Q23.7 -124 20.25 -123.45L18.35 -123.2L11.55 -122.4L2.95 -122L1.15 -122.05L-5.8 -120.95L-8.3 -120.7Q-16.7 -119.9 -17.1 -122.55L-17.5 -126.1L-17.6 -127.05L-18.05 -133.1L-17.5 -132.75" />
<path style="fill:#6C86A1;fill-opacity:1" d="M96.35,-127.35Q96.2 -124.75 93 -118.65L91.55 -116.1L91.5 -116.05Q88.55 -111.25 86.45 -110.95Q82.95 -110.4 77.95 -110.8L74.1 -111.45Q70.75 -112.3 69.4 -113.85Q68.9 -114.5 68.1 -117.4Q67.45 -119.8 66.2 -120.45L61.85 -121.5Q59.35 -122.05 59.05 -124.05Q58.65 -126.85 59.25 -128.45Q59.6 -129.5 60.5 -130.25L60.9 -126.7Q61.3 -124.05 69.7 -124.85L72.2 -125.1L79.15 -126.2L80.95 -126.15L89.55 -126.55L96.35 -127.35M79.35,-119.85L79.45 -120.55L79.3 -121Q79.25 -120.45 79.35 -119.85M79.5,-119.15L79.6 -119.1L79.4 -119.5L79.5 -119.15M18.35,-123.2Q18.2 -120.6 15 -114.5L13.55 -111.95L13.5 -111.9Q10.55 -107.1 8.45 -106.8Q4.95 -106.25 -0.05 -106.65L-3.9 -107.3Q-7.25 -108.15 -8.6 -109.7Q-9.1 -110.35 -9.9 -113.25Q-10.55 -115.65 -11.8 -116.3L-16.15 -117.35Q-18.65 -117.9 -18.95 -119.9Q-19.35 -122.7 -18.75 -124.3Q-18.4 -125.35 -17.5 -126.1L-17.1 -122.55Q-16.7 -119.9 -8.3 -120.7L-5.8 -120.95L1.15 -122.05L2.95 -122L11.55 -122.4L18.35 -123.2M1.35,-115.7L1.45 -116.4L1.3 -116.85Q1.25 -116.3 1.35 -115.7M1.5,-115L1.6 -114.95L1.4 -115.35L1.5 -115" />
<path style="fill:#582316;fill-opacity:1" d="M94.5,-156.6Q93.6 -156.6 92.75 -155.7L92.6 -155.55L91.6 -154.85L88.15 -156.55L88.4 -154.9L88.4 -154.35Q88.4 -153.4 86.45 -152.6Q84.8 -151.9 83.6 -151.9Q82.8 -151.9 82.4 -153.3L80.55 -151.2L78.35 -148.95Q76.1 -154.65 75.2 -154.65L73.35 -154.1L71.85 -153.6Q71.6 -153.6 69.65 -157.05Q67.65 -156.2 67.05 -156.2L66.2 -157.85Q65.5 -158.9 65.35 -159.3L65.45 -159.45L65.5 -159.5L65.75 -159.35L69.15 -160.2Q69.95 -160.2 70.65 -159.1L70.75 -158.95Q71.4 -158 71.9 -158Q72.8 -158 75.55 -159.6Q78.25 -161.25 78.45 -161.25L79.55 -160.65Q80.4 -160.05 80.55 -160.05L81.95 -161.25L82.55 -161.75Q83.4 -162.45 83.75 -162.45L84.85 -161.75L86.35 -160.65Q86.45 -160.65 87.55 -161.3L88.95 -162Q89.4 -162 90.45 -161.1Q91.25 -160.45 91.55 -160.3L91.65 -160.25Q92.5 -159.85 93.65 -158.5L95.4 -156.35L95.5 -156.6L95.7 -155.75Q95 -156.6 94.5 -156.6M13,-156.05L14.4 -153.6L13.3 -152.65Q12.75 -152.25 12.65 -151.7L12.65 -150.95L13 -149.25L13.35 -147.15Q13.35 -146.7 12.25 -146.05Q11.1 -145.45 10.95 -145.25L10.85 -145.35Q10.1 -146 8.55 -145.85Q8.55 -146.55 7.75 -148.15L5.6 -147.75Q4.85 -147.75 4.45 -149Q4.2 -149.75 4.1 -151.05L4.1 -151.65L4.05 -152.85L4.05 -153Q4.05 -154.7 7.35 -154.9L7.45 -154.9L8.3 -154.95Q8.95 -154.95 9.5 -154.05L9.75 -153.6L9.95 -153.6L10.15 -155.7Q10.35 -156.3 11.15 -156.35L11.3 -156.35L12.9 -156.05L13 -156.05M-3,-140.8L-2.7 -140.7Q-2.6 -140.7 -2.45 -140.8L-1.45 -140.9L-2.1 -141.2L-0.3 -144.3L-0.6 -145.5Q-0.6 -145.7 0.15 -146L1.55 -146.25Q2.2 -146.25 2.6 -144.65Q3 -143.1 5.55 -143.1Q7.45 -143.1 7.9 -141.45L8.1 -140.8L8.75 -138.55L-8.4 -136.85L-9.45 -139.8Q-7.8 -139.8 -6.5 -140.7L-5.85 -141.2L-3 -140.8" />
<path style="fill:none;stroke-width:1;stroke-linecap:butt;stroke-linejoin:miter;stroke-miterlimit:3;stroke:#833825;stroke-opacity:1" d="M65.75,-159.35L69.15 -160.2Q69.95 -160.2 70.65 -159.1L70.75 -158.95Q71.4 -158 71.9 -158Q72.8 -158 75.55 -159.6Q78.25 -161.25 78.45 -161.25L79.55 -160.65Q80.4 -160.05 80.55 -160.05L81.95 -161.25L82.55 -161.75Q83.4 -162.45 83.75 -162.45L84.85 -161.75L86.35 -160.65Q86.45 -160.65 87.55 -161.3L88.95 -162Q89.4 -162 90.45 -161.1Q91.25 -160.45 91.55 -160.3L91.65 -160.25Q92.5 -159.85 93.65 -158.5L95.4 -156.35M65.35,-159.3Q65.5 -158.9 66.2 -157.85L67.05 -156.2Q67.65 -156.2 69.65 -157.05Q71.6 -153.6 71.85 -153.6L73.35 -154.1L75.2 -154.65Q76.1 -154.65 78.35 -148.95L80.55 -151.2L82.4 -153.3Q82.8 -151.9 83.6 -151.9Q84.8 -151.9 86.45 -152.6Q88.4 -153.4 88.4 -154.35L88.4 -154.9L88.15 -156.55L91.6 -154.85L92.6 -155.55L92.75 -155.7Q93.6 -156.6 94.5 -156.6Q95 -156.6 95.7 -155.75L95.75 -155.65Q96.5 -154.7 96.9 -154.7L98.25 -155.45L99.25 -155.95L99.25 -155.8Q99.75 -153 99.75 -150.6Q99.75 -149.4 98.9 -149L96.35 -148.5L96.15 -146.45L95.85 -145.1L95.55 -144.2M64.2,-140.2L63.85 -141.5L63.6 -143.05L63.25 -144.6Q62.85 -147.2 62.75 -149.35L62.75 -149.6Q62.65 -153.7 63.7 -156.5Q64.35 -158.1 65.35 -159.3L65.45 -159.45L65.5 -159.5M95.7,-155.75L95.9 -154.45Q96.45 -151 96.35 -148.5M6.05,-166.15L5 -166.2L3.35 -166.35L3 -168L2.75 -168.7Q2.35 -169.55 1.65 -169.55L-0.2 -169.1L-1.45 -168.75L-2.3 -168.65L-2.55 -168.75L-3.35 -169.6L-4.05 -170.75L-4.2 -170.75L-5.65 -170.6Q-7.85 -170.25 -8.8 -168.55Q-9.4 -167.6 -9.6 -166.25L-7.7 -166.5L-4 -167.05Q-3.55 -166.4 -3.2 -164.2L-3.1 -163.1L-3.1 -163.05Q-3.25 -161.45 -4.45 -160.9L-7.35 -160.2M6.05,-166.15L6.9 -165.9L7.5 -164.55Q7.85 -163.4 8.4 -163.2L9.75 -162.95Q10.2 -161.35 10.6 -161Q11.75 -161 13.1 -160.05L14 -159.35L12.95 -156.15L13 -156.05L14.4 -153.6L13.3 -152.65Q12.75 -152.25 12.65 -151.7M12.65,-150.95L13 -149.25L13.35 -147.15Q13.35 -146.7 12.25 -146.05Q11.1 -145.45 10.95 -145.25Q11.7 -144.5 11.25 -143L13.2 -142.7L14.75 -143L15.4 -143L16.05 -143L16.05 -140.9L16.8 -140.7L17.75 -140.55L17.55 -140.05M-13.8,-136.05L-14.15 -137.35L-14.4 -138.9L-14.75 -140.45L-15.25 -145.2L-15.25 -145.45M-14.3,-152.35Q-13.6 -154.05 -12.55 -155.3L-12.5 -155.35Q-11.25 -156.75 -9.25 -157.85L-9.25 -159.9L-7.35 -160.2L-7.5 -163.15L-7.7 -166.5M-9.25,-157.85Q-4.85 -159.25 1.75 -159.8L7.75 -160.5L10.6 -161M11.15,-156.35L11.3 -156.35L12.9 -156.05L12.95 -156.15M11.15,-156.35Q10.35 -156.3 10.15 -155.7L9.95 -153.6L9.75 -153.6L9.5 -154.05Q8.95 -154.95 8.3 -154.95L7.45 -154.9L7.35 -154.9Q4.05 -154.7 4.05 -153L4.05 -152.85L4.1 -151.65L4.1 -151.05Q4.2 -149.75 4.45 -149Q4.85 -147.75 5.6 -147.75L7.75 -148.15Q8.55 -146.55 8.55 -145.85Q10.1 -146 10.85 -145.35L10.95 -145.25M-2.45,-140.8L-2.1 -141.2L-0.3 -144.3L-0.6 -145.5Q-0.6 -145.7 0.15 -146L1.55 -146.25Q2.2 -146.25 2.6 -144.65Q3 -143.1 5.55 -143.1Q7.45 -143.1 7.9 -141.45L8.1 -140.8L8.75 -138.55M-4.2,-170.75L-4.1 -170.85L-4.05 -170.75M-5.85,-141.2L-6.5 -140.7Q-7.8 -139.8 -9.45 -139.8L-8.4 -136.85M-5.85,-141.2L-5.55 -141.6L-3.8 -141.15L-3 -140.8M-2.45,-140.8Q-2.6 -140.7 -2.7 -140.7L-3 -140.8M-14.3,-152.35Q-15.35 -149.55 -15.25 -145.45" />
<path style="fill:none;stroke-width:1;stroke-linecap:butt;stroke-linejoin:miter;stroke-miterlimit:3;stroke:#252424;stroke-opacity:1" d="M63.6,-143.05L60.6 -143.25Q60.55 -144.2 60.05 -144.7Q58.65 -146.1 58.55 -146.55Q55.7 -146.45 55.5 -143.7L54.4 -143.8L53.8 -143.85L51.85 -144.05L48.2 -144.25L48.45 -146.7L50.75 -146.7L50.85 -148.4Q50.9 -149.15 51.1 -149.7Q51.5 -151.2 52.4 -151.6L52.6 -151.65L54 -152L53.9 -153.8L54.05 -153.85L63.7 -156.5M-14.4,-138.9L-20.8 -139.4L-19.3 -142.85L-20.1 -144.95L-20.9 -147.1L-19.6 -150.9L-14.3 -152.35" />
<path style="fill:none;stroke-width:1;stroke-linecap:butt;stroke-linejoin:miter;stroke-miterlimit:3;stroke:#34495F;stroke-opacity:1" d="M93.35,-143.7L95.55 -144.2L97.55 -144.7Q101.7 -144.7 102.55 -138.95Q103.35 -133.2 102.9 -130.75L102.7 -129.95Q101.7 -128.15 98.25 -127.6L96.35 -127.35M60.5,-130.25L60.4 -131.2L59.95 -137.25L59.95 -137.75L60.45 -137.8L60.45 -138.05L60.35 -139.65L64.2 -140.2M93.35,-143.7L87.35 -142.75L69 -140.95L64.2 -140.2M60.5,-130.25L60.9 -126.7Q61.3 -124.05 69.7 -124.85L72.2 -125.1L79.15 -126.2L80.95 -126.15L89.55 -126.55L96.35 -127.35M79.6,-119.1Q79.9 -118.45 80.65 -118.25L81.85 -118.05Q83 -118.2 83.55 -119.05Q84.2 -119.85 84 -121.1Q83.8 -122.55 82.6 -123L80.9 -123.15Q79.35 -122.9 79.3 -121L79.45 -120.55L79.35 -119.85L79.35 -119.7L79.35 -119.65L79.4 -119.6L79.4 -119.5L79.6 -119.1L79.5 -119.15L79.4 -119.5M72.2,-125.1L73.25 -115.6Q73.35 -114.75 74.95 -114.5L79.45 -114.25L86.05 -114.9Q89.2 -115.4 89.95 -116.95L90.25 -118.15Q89.5 -122.55 89.55 -126.55M-8.4,-136.85L8.75 -138.55L9.35 -138.6L15.35 -139.55L17.55 -140.05L19.55 -140.55Q23.7 -140.55 24.55 -134.8Q25.35 -129.05 24.9 -126.6L24.7 -125.8Q23.7 -124 20.25 -123.45L18.35 -123.2M-17.5,-126.1L-17.6 -127.05L-18.05 -133.1L-18.05 -133.6L-17.55 -133.65L-17.55 -133.9L-17.65 -135.5L-13.8 -136.05M-17.5,-126.1L-17.1 -122.55Q-16.7 -119.9 -8.3 -120.7L-5.8 -120.95L1.15 -122.05L2.95 -122L11.55 -122.4L18.35 -123.2M-5.8,-120.95Q-5.3 -117.7 -4.75 -111.45Q-4.65 -110.6 -3.05 -110.35L1.45 -110.1L8.05 -110.75Q11.2 -111.25 11.95 -112.8L12.25 -114Q11.5 -118.4 11.55 -122.4M1.6,-114.95Q1.9 -114.3 2.65 -114.1L3.85 -113.9Q5 -114.05 5.55 -114.9Q6.2 -115.7 6 -116.95Q5.8 -118.4 4.6 -118.85L2.9 -119Q1.35 -118.75 1.3 -116.85L1.45 -116.4L1.35 -115.7L1.35 -115.55L1.35 -115.5L1.4 -115.45L1.4 -115.35L1.6 -114.95L1.5 -115L1.4 -115.35M1.3,-116.85Q1.25 -116.3 1.35 -115.7M60.5,-136.9Q60.4 -137.3 60.45 -137.8M79.3,-121Q79.25 -120.45 79.35 -119.85M-8.4,-136.85L-9 -136.8L-13.8 -136.05M-17.55,-133.65L-17.5 -132.75" />
<path style="fill:#BD4E32;fill-opacity:1" d="M32.2,-67.3Q32 -74.7 30.75 -77.6Q28.45 -83.15 21 -82.2Q17.8 -81.8 8.3 -82.3L3 -82.55L3 -82.75Q3 -83.45 1.7 -84.35L0 -85.4L0.55 -87.6L0.7 -88.2L8.5 -88.2L11.85 -88.05L15.95 -87.95Q25.9 -87.5 30.2 -87.65Q33.15 -87.8 34.45 -86.05L35.35 -84.05Q36.1 -80.3 36.1 -70.8L36.05 -67.3L32.2 -67.3M23.75,-73.05Q22.9 -74.9 19.65 -75.4L12.5 -75.75L9.6 -76L5.25 -76.4L2.9 -76.55L2.55 -77.45L2.25 -78.15L5.65 -78.15Q17.55 -78.15 22.75 -76.75Q26.5 -75.7 26.5 -74.15Q26.5 -73.65 25.8 -73.3Q25.05 -72.85 23.85 -72.75L23.15 -72.75L23.75 -73.05M1.6,-63.25L2.3 -64.9L6.45 -65.05L6.65 -65.05L13.5 -64.3L19.55 -63.9Q22.05 -63.9 23.1 -65.4L23.5 -65.3Q27.25 -64.25 27.25 -62.7Q27.25 -62.25 26.5 -61.85Q25.6 -61.3 23.9 -61.3L2.25 -62.6L1.6 -63.25M-15.7,-80.55L-15.8 -80.55L-15.75 -82.25L-15.75 -82.55Q-15.6 -81.7 -15.7 -80.55M-73.9,-88.2L-70.55 -88.05L-66.45 -87.95Q-56.5 -87.5 -52.2 -87.65Q-49.25 -87.8 -47.95 -86.05Q-47.35 -85.25 -47.05 -84.05Q-46.3 -80.3 -46.3 -70.8L-46.4 -62.85L-46.45 -57L-46.8 -57L-46.9 -57.05L-48.55 -57.65Q-50.2 -58.2 -50 -58.95Q-49.85 -59.7 -50.1 -61.65L-50.2 -61.6L-50.2 -62.3L-50.15 -64Q-50.15 -74.1 -51.65 -77.6Q-53.95 -83.15 -61.4 -82.2Q-64.6 -81.8 -74.1 -82.3L-86.35 -82.9Q-88.7 -82.9 -98.1 -80.55L-98.2 -80.55L-98.15 -82.25L-98.15 -82.55Q-98.05 -84.15 -97.05 -85.25L-97 -85.3Q-95.2 -87.4 -90.55 -88.05L-88.7 -88.2L-86.2 -88.2L-73.9 -88.2M-51,-44.3L-50.8 -46.55L-50.8 -46.6Q-49.65 -47.75 -47.1 -47.75L-46.6 -47.75L-46.6 -47.55Q-46.65 -40.5 -48.25 -37.4Q-51 -42.2 -51 -44.3M-87.85,-74.5Q-89.8 -74.95 -89.8 -75.95Q-89.8 -77.8 -87.2 -78.1L-76.75 -78.15Q-64.85 -78.15 -59.65 -76.75Q-55.9 -75.7 -55.9 -74.15Q-55.9 -73.65 -56.6 -73.3Q-57.35 -72.85 -58.55 -72.75L-59.25 -72.75L-58.65 -73.05Q-59.5 -74.9 -62.75 -75.4L-69.9 -75.75L-77.15 -76.4L-84.25 -76.75L-86.9 -76.55Q-87.4 -76.3 -87.6 -75.35L-87.7 -74.5L-87.85 -74.5M-57.15,-40.3Q-55.9 -39.6 -55.9 -38.7Q-55.9 -38.2 -56.6 -37.85Q-57.3 -37.45 -58.35 -37.35L-57.15 -40.3M-59.9,-37.3L-62.8 -37.4L-61.95 -37.65L-60.1 -37.35L-59.9 -37.3" />
<path style="fill:#D76447;fill-opacity:1" d="M31.8,-67.3Q31 -61 27.85 -60.5Q26.35 -60.25 25.9 -59.65Q25.45 -59.1 25.25 -57.9L21.5 -59.95L19.65 -58Q18.2 -56.75 16.8 -56.75Q15.5 -56.75 14.25 -57.35L14.35 -57.65Q14.35 -58.15 12.5 -61.25L9.25 -60.1Q7.05 -59.35 6.75 -59L3.9 -61.4L2.25 -62.6L23.9 -61.3Q25.6 -61.3 26.5 -61.85Q27.25 -62.25 27.25 -62.7Q27.25 -64.25 23.5 -65.3L23.1 -65.4L23.6 -66.4L23.75 -67L24 -71.75L23.85 -72.75Q25.05 -72.85 25.8 -73.3Q26.5 -73.65 26.5 -74.15Q26.5 -75.7 22.75 -76.75Q17.55 -78.15 5.65 -78.15L2.25 -78.15L1.85 -79.25L2.45 -80.75L3 -82.55L8.3 -82.3Q17.8 -81.8 21 -82.2Q28.45 -83.15 30.75 -77.6Q32 -74.7 32.2 -67.3L31.8 -67.3M6.05,-28.95L6 -29L6 -29.1L6.05 -28.95M-16.15,-78.55L-15.8 -80.55L-15.7 -80.55L-16.15 -78.55M-58.35,-37.35Q-57.3 -37.45 -56.6 -37.85Q-55.9 -38.2 -55.9 -38.7Q-55.9 -39.6 -57.15 -40.3L-56.5 -41.6Q-55.15 -43.9 -52.1 -42.9Q-51.9 -45.4 -50.8 -46.55L-51 -44.3Q-51 -42.2 -48.25 -37.4L-48.95 -36.35L-50.15 -35.2Q-52.55 -33.45 -56.95 -33.1L-64.3 -32.8L-63.6 -36.3Q-63.3 -37.1 -62.8 -37.4L-59.9 -37.3L-59.25 -37.3L-58.35 -37.35M-76.35,-28.95L-76.4 -29L-76.4 -29.1L-76.35 -28.95M-98.2,-80.55L-98.1 -80.55Q-88.7 -82.9 -86.35 -82.9L-74.1 -82.3Q-64.6 -81.8 -61.4 -82.2Q-53.95 -83.15 -51.65 -77.6Q-50.15 -74.1 -50.15 -64L-50.2 -62.3L-50.7 -64.2L-52.9 -64.2Q-54.2 -64.35 -54.45 -65.7Q-54.6 -66.65 -55.1 -67.9L-56 -70.35Q-57.55 -70 -58.45 -68.9L-58.4 -71.75L-58.55 -72.75Q-57.35 -72.85 -56.6 -73.3Q-55.9 -73.65 -55.9 -74.15Q-55.9 -75.7 -59.65 -76.75Q-64.85 -78.15 -76.75 -78.15L-87.2 -78.1Q-89.8 -77.8 -89.8 -75.95Q-89.8 -74.95 -87.85 -74.5L-88.1 -72.25L-88.15 -71.55L-89 -72.45Q-89.45 -72.95 -90.35 -72.95L-92.75 -72.65L-93.55 -76.5Q-94.35 -79.65 -95.4 -79.65Q-96.25 -79.65 -98.45 -78.85L-98.55 -78.55L-98.2 -80.55" />
<path style="fill:#252221;fill-opacity:1" d="M13.9,-67.5L11.35 -68L12.05 -69.1Q12.55 -69.95 12.5 -70.55Q10.65 -69.75 10.2 -72.65L9.6 -76L12.5 -75.75L19.65 -75.4Q22.9 -74.9 23.75 -73.05L23.15 -72.75L23.85 -72.75L24 -71.75L23.75 -67L13.9 -67.5M15.9,-72.8L15.8 -73.25L14.75 -73.25L14.55 -72.75L14.6 -72.25L15.2 -72.15L15.8 -72.25L15.9 -72.8M17.85,-71.5Q18.35 -70.5 19.5 -70.5Q20.65 -70.5 20.65 -72.15L20.6 -72.75L19.55 -73.55L18.2 -73.55Q17.5 -73.05 17.5 -72.45Q17.55 -71.95 17.85 -71.5" />
<path style="fill:#8CAAC9;fill-opacity:1" d="M12.65,-90.95L13 -90.9L20.55 -90.25L27 -90.65L33.45 -91.2L36.15 -90.7Q36.4 -90.9 36.7 -90.95L37.4 -90.85Q39.05 -90.35 39.05 -88.75L39.05 -88.65Q40.8 -86.6 40.8 -83.15L40.5 -79.85Q40.25 -78.05 40.25 -75.8L40.5 -64.2L40.75 -63.95Q41.25 -63.4 41.25 -62.55L40.95 -61.6L40.6 -61.35L40.6 -60.2Q40.6 -56.3 40.1 -50.9L39.85 -48.2L39.6 -44.65L39.5 -42.65L39.5 -41.7L40.55 -32.85L40.6 -32.55L41.3 -32.75Q41.6 -31.05 41.3 -29.95Q40.75 -28 38.5 -27.9L36.95 -27.85L28 -26.95L19.15 -26.1L8.7 -26.3L7.45 -26.3L7.4 -26.3L-6.7 -26.95L-14.9 -28.05Q-18.1 -28.65 -19.25 -29.4L-20.8 -30.85L-21.05 -31.2L-21.1 -31.25L-21.15 -31.35L-21.25 -31.5Q-23.25 -34.65 -23.25 -41.15L-22.95 -48.6L-22.8 -51.75L-22.4 -58.5L-22.35 -60.8L-22.4 -62.65L-22.8 -66.15L-23.25 -71.85L-23.4 -77.9Q-25.05 -87 -20.7 -90.95L-20.65 -91Q-19.8 -90.45 -17.6 -90.45L-13.05 -90.8L-9.15 -91.2L2.7 -91.55L10.35 -91.2L10.4 -91.5L10.45 -92L10.75 -92.2L11.3 -92.4Q12.65 -92.4 12.65 -91.45L12.65 -90.95M-18.45,-61.85L-18.6 -57.15L-18.65 -53.95L-18.5 -48.7L-18.4 -46.95Q-18.2 -44.05 -18.45 -39.7Q-18.6 -36.6 -14 -34.2Q-12.75 -33.55 -11.15 -33L-9.8 -32.5L-7.8 -32.05L-7.75 -32L-5.5 -31.7L-5.4 -31.7L3.3 -30.9L6.4 -30.7L7.2 -31L8.3 -30.7L8.45 -30.55L18.35 -30.25Q22.8 -30.25 27.25 -31.35L27.4 -31.4Q32.35 -32.6 32.35 -34.25L32.25 -35.2L33.45 -36.35L34.15 -37.4Q35.45 -39.9 35.75 -44.95L35.75 -45.15L35.8 -47.55L35.85 -49.1L35.85 -49.65L36 -62.85L36.05 -67.3L36.1 -70.8Q36.1 -80.3 35.35 -84.05L34.45 -86.05Q33.15 -87.8 30.2 -87.65Q25.9 -87.5 15.95 -87.95L11.85 -88.05L8.5 -88.2L3.65 -88.35L0.7 -88.35L-6.3 -88.2L-8.15 -88.05Q-12.8 -87.4 -14.6 -85.3L-14.65 -85.25L-16.05 -84.4Q-17.65 -83.15 -18.25 -81.35L-18.3 -81.2L-18.65 -78.95L-18.25 -76.4Q-17.9 -74.8 -17.9 -73.55Q-17.9 -69.05 -18.25 -65.15L-18.4 -63.3L-18.25 -62.75L-18.45 -61.85M6,-29.1L6 -29L6.05 -28.95L6 -29.1M-73.95,-30.55L-64.05 -30.25Q-59.5 -30.25 -55 -31.4Q-50.05 -32.6 -50.05 -34.25L-50.15 -35.2L-48.95 -36.35L-48.25 -37.4Q-46.65 -40.5 -46.6 -47.55L-46.6 -47.75L-46.55 -48.8L-46.55 -49.65L-46.45 -57L-46.4 -62.85L-46.3 -70.8Q-46.3 -80.3 -47.05 -84.05Q-47.35 -85.25 -47.95 -86.05Q-49.25 -87.8 -52.2 -87.65Q-56.5 -87.5 -66.45 -87.95L-70.55 -88.05L-73.9 -88.2L-78.75 -88.35L-86.2 -88.2L-88.7 -88.2L-90.55 -88.05Q-95.2 -87.4 -97 -85.3L-97.05 -85.25L-98.45 -84.4Q-100.05 -83.15 -100.65 -81.35L-100.7 -81.2Q-101.05 -80.15 -101.05 -78.95L-100.65 -76.4Q-100.3 -74.8 -100.3 -73.55Q-100.3 -69.05 -100.65 -65.15L-100.8 -63.3L-100.65 -62.75L-100.85 -61.85L-101.05 -53.95L-100.9 -48.7L-100.8 -46.95Q-100.6 -44.05 -100.85 -39.7Q-101 -36.6 -96.4 -34.2L-93.55 -33L-92.2 -32.5L-90.2 -32.05L-90.15 -32L-87.9 -31.7L-87.8 -31.7L-79.1 -30.9L-76 -30.7L-75.2 -31L-74.1 -30.7L-73.95 -30.55M-76.4,-29.1L-76.4 -29L-76.35 -28.95L-76.4 -29.1M-41.8,-61.35L-41.8 -60.2Q-41.8 -56.3 -42.3 -50.9L-42.5 -48.9Q-42.9 -44.7 -42.9 -41.7L-41.85 -32.85L-41.8 -32.55L-41.1 -32.75Q-40.8 -31.05 -41.1 -29.95Q-41.65 -28 -43.9 -27.9L-45.45 -27.85L-54.4 -26.95L-63.25 -26.1L-73.7 -26.3L-74.95 -26.3L-75 -26.3L-89.1 -26.95L-97.3 -28.05Q-100.5 -28.65 -101.65 -29.4L-103.2 -30.85L-103.45 -31.2L-103.5 -31.25L-103.55 -31.35L-103.65 -31.5Q-105.65 -34.65 -105.65 -41.15L-105.35 -48.6L-105.2 -51.75L-104.75 -60.8L-104.8 -62.65L-105.2 -66.15L-105.65 -71.85L-105.8 -77.9Q-107.45 -87 -103.1 -90.95L-103.05 -91Q-102.2 -90.45 -100 -90.45L-95.45 -90.8L-91.55 -91.2L-79.7 -91.55L-72.05 -91.2L-72 -91.5L-71.95 -92L-71.65 -92.2L-71.1 -92.4Q-69.75 -92.4 -69.75 -91.45L-69.75 -90.95L-69.4 -90.9L-61.85 -90.25L-55.4 -90.65L-48.95 -91.2L-46.25 -90.7L-45.7 -90.95L-45 -90.85Q-43.35 -90.35 -43.35 -88.75L-43.35 -88.65Q-41.6 -86.6 -41.6 -83.15Q-41.6 -81.55 -41.9 -79.85L-42.15 -75.8L-41.9 -64.2L-41.65 -63.95Q-41.15 -63.4 -41.15 -62.55Q-41.15 -61.9 -41.45 -61.6L-41.8 -61.35" />
<path style="fill:#35312F;fill-opacity:1" d="M19.55,-63.9L13.5 -64.3L13.9 -67.5L23.75 -67L23.6 -66.4L23.1 -65.4Q22.05 -63.9 19.55 -63.9" />
<path style="fill:#BFBEBE;fill-opacity:1" d="M15.8,-72.25L15.2 -72.15L14.6 -72.25L14.55 -72.75L14.75 -73.25L15.8 -73.25L15.9 -72.8L15.8 -72.25M17.5,-72.45Q17.5 -73.05 18.2 -73.55L19.55 -73.55L20.6 -72.75L20.65 -72.15Q20.65 -70.5 19.5 -70.5Q18.35 -70.5 17.85 -71.5Q17.55 -71.95 17.5 -72.45" />
<path style="fill:#AAC7E5;fill-opacity:1" d="M12.65,-91.45Q12.65 -92.4 11.3 -92.4L10.75 -92.2L10.45 -92L10.4 -91.5L10.35 -91.2L2.7 -91.55L-9.15 -91.2L-13.05 -90.8L-17.6 -90.45Q-19.8 -90.45 -20.65 -91L-20.55 -91.15L-20.45 -91.2L-20.35 -91.25L-20.1 -91.45Q-18.95 -92.4 -17.35 -92.95Q-14.2 -94.15 -8.45 -94.25L1.8 -94.1L11.25 -94.05L11.3 -94.05L18.3 -93.95L36.7 -93.8L36.85 -93.8L37.95 -93.7Q41.4 -93 42.75 -88Q43.6 -84.8 43.6 -78.8L43.5 -62.55L43.5 -62.45L42.7 -46.75L42.5 -44.25Q41.9 -37 41.3 -32.75L40.6 -32.55L40.55 -32.85L39.5 -41.7L39.5 -42.65L39.6 -44.65L39.85 -48.2L40.1 -50.9Q40.6 -56.3 40.6 -60.2L40.6 -61.35L40.95 -61.6L41.25 -62.55Q41.25 -63.4 40.75 -63.95L40.5 -64.2L40.25 -75.8Q40.25 -78.05 40.5 -79.85L40.8 -83.15Q40.8 -86.6 39.05 -88.65L39.05 -88.75Q39.05 -90.35 37.4 -90.85L36.7 -90.95Q36.4 -90.9 36.15 -90.7L33.45 -91.2L27 -90.65L20.55 -90.25L13 -90.9L12.65 -90.95L12.65 -91.45M-18.25,-62.75L-18.4 -63.3L-18.25 -65.15Q-17.9 -69.05 -17.9 -73.55Q-17.9 -74.8 -18.25 -76.4L-18.65 -78.95L-18.3 -81.2L-18.25 -81.35Q-17.65 -83.15 -16.05 -84.4L-14.65 -85.25Q-15.65 -84.15 -15.75 -82.55L-15.75 -82.25L-15.8 -80.55L-16.15 -78.55Q-15.8 -72.45 -15.8 -62.9L-15.8 -62.75L-15.85 -56.15L-15.95 -49.45L-15.95 -48.75Q-16.2 -40.35 -14.2 -37.2L-13.1 -35.95Q-11.9 -35.05 -10.5 -34.45Q-9.1 -33.85 -7.45 -33.55L-5.2 -33.3L7.1 -32.9L7.2 -32.9L9.6 -32.85Q19.75 -32.65 25.45 -33.1L26.65 -33.2Q30.2 -33.7 32.25 -35.2L32.35 -34.25Q32.35 -32.6 27.4 -31.4L27.25 -31.35Q22.8 -30.25 18.35 -30.25L8.45 -30.55L8.3 -30.7L7.2 -31L6.4 -30.7L3.3 -30.9L-5.4 -31.7L-5.5 -31.7L-7.75 -32L-7.8 -32.05L-9.8 -32.5L-11.15 -33Q-12.75 -33.55 -14 -34.2Q-18.6 -36.6 -18.45 -39.7Q-18.2 -44.05 -18.4 -46.95L-18.5 -48.7L-18.65 -53.95L-18.6 -57.15L-18.45 -61.85L-18.25 -62.75M-74.1,-30.7L-75.2 -31L-76 -30.7L-79.1 -30.9L-87.8 -31.7L-87.9 -31.7L-90.15 -32L-90.2 -32.05L-92.2 -32.5L-93.55 -33L-96.4 -34.2Q-101 -36.6 -100.85 -39.7Q-100.6 -44.05 -100.8 -46.95L-100.9 -48.7L-101.05 -53.95L-100.85 -61.85L-100.65 -62.75L-100.8 -63.3L-100.65 -65.15Q-100.3 -69.05 -100.3 -73.55Q-100.3 -74.8 -100.65 -76.4L-101.05 -78.95Q-101.05 -80.15 -100.7 -81.2L-100.65 -81.35Q-100.05 -83.15 -98.45 -84.4L-97.05 -85.25Q-98.05 -84.15 -98.15 -82.55L-98.15 -82.25L-98.2 -80.55L-98.55 -78.55Q-98.2 -72.45 -98.2 -62.9L-98.2 -62.75L-98.2 -60.8L-98.35 -49.45L-98.35 -48.75Q-98.6 -40.35 -96.6 -37.2Q-96.15 -36.45 -95.5 -35.95L-92.9 -34.45Q-91.5 -33.85 -89.85 -33.55L-87.6 -33.3L-75.3 -32.9L-75.2 -32.9L-72.8 -32.85L-64.3 -32.8L-56.95 -33.1Q-52.55 -33.45 -50.15 -35.2L-50.05 -34.25Q-50.05 -32.6 -55 -31.4Q-59.5 -30.25 -64.05 -30.25L-73.95 -30.55L-74.1 -30.7M-41.45,-61.6Q-41.15 -61.9 -41.15 -62.55Q-41.15 -63.4 -41.65 -63.95L-41.9 -64.2L-42.15 -75.8L-41.9 -79.85Q-41.6 -81.55 -41.6 -83.15Q-41.6 -86.6 -43.35 -88.65L-43.35 -88.75Q-43.35 -90.35 -45 -90.85L-45.7 -90.95L-46.25 -90.7L-48.95 -91.2L-55.4 -90.65L-61.85 -90.25L-69.4 -90.9L-69.75 -90.95L-69.75 -91.45Q-69.75 -92.4 -71.1 -92.4L-71.65 -92.2L-71.95 -92L-72 -91.5L-72.05 -91.2L-79.7 -91.55L-91.55 -91.2L-95.45 -90.8L-100 -90.45Q-102.2 -90.45 -103.05 -91L-102.95 -91.15L-102.85 -91.2L-102.75 -91.25L-102.5 -91.45Q-101.35 -92.4 -99.75 -92.95Q-96.6 -94.15 -90.85 -94.25L-80.6 -94.1L-71.15 -94.05L-71.1 -94.05L-64.1 -93.95L-45.7 -93.8L-45.55 -93.8L-44.45 -93.7Q-41 -93 -39.65 -88Q-38.8 -84.8 -38.8 -78.8L-38.9 -62.55L-38.9 -62.45Q-39.05 -55.85 -39.7 -46.75Q-40.4 -37.7 -41.1 -32.75L-41.8 -32.55L-41.85 -32.85L-42.9 -41.7Q-42.9 -44.7 -42.5 -48.9L-42.3 -50.9Q-41.8 -56.3 -41.8 -60.2L-41.8 -61.35L-41.45 -61.6" />
<path style="fill:#23313F;fill-opacity:1" d="M-15.85,-56.15Q-9.85 -54.2 -2.75 -52.35L-1.15 -51.95L-0.8 -52.3Q9.8 -49.45 12.35 -49.45Q14.8 -49.45 16.4 -51.2Q18 -53 19.6 -53L23.05 -51.7Q26.3 -50.4 28.8 -50.4L35.15 -49.25L35.85 -49.65L35.85 -49.1L35.8 -47.55L35.75 -45.15L35.75 -44.95Q35.45 -39.9 34.15 -37.4L33.45 -36.35L32.25 -35.2Q30.2 -33.7 26.65 -33.2L25.45 -33.1Q19.75 -32.65 9.6 -32.85L7.2 -32.9L7.1 -32.9L-5.2 -33.3L-7.45 -33.55Q-9.1 -33.85 -10.5 -34.45Q-11.9 -35.05 -13.1 -35.95L-14.2 -37.2Q-16.2 -40.35 -15.95 -48.75L-15.95 -49.45L-15.85 -56.15M-58.35,-37.35L-59.25 -37.3L-59.9 -37.3L-60.1 -37.35L-61.95 -37.65L-62.8 -37.4Q-63.3 -37.1 -63.6 -36.3L-64.3 -32.8L-72.8 -32.85L-75.2 -32.9L-75.3 -32.9L-87.6 -33.3L-89.85 -33.55Q-91.5 -33.85 -92.9 -34.45L-95.5 -35.95Q-96.15 -36.45 -96.6 -37.2Q-98.6 -40.35 -98.35 -48.75L-98.35 -49.45L-98.2 -60.8Q-94.6 -58.05 -86.5 -55.6L-69.9 -51.35Q-60.05 -48.75 -52.05 -48.6L-46.55 -48.8L-46.6 -47.75L-47.1 -47.75Q-49.65 -47.75 -50.8 -46.6L-50.8 -46.55Q-51.9 -45.4 -52.1 -42.9Q-55.15 -43.9 -56.5 -41.6L-57.15 -40.3L-58.35 -37.35" />
<path style="fill:#18222C;fill-opacity:1" d="M-15.7,-80.55Q-15.6 -81.7 -15.75 -82.55Q-15.65 -84.15 -14.65 -85.25L-14.6 -85.3Q-12.8 -87.4 -8.15 -88.05L-6.3 -88.2L0.7 -88.2L0.55 -87.6L0 -85.4L1.7 -84.35Q3 -83.45 3 -82.75L3 -82.55L2.45 -80.75L1.85 -79.25L2.25 -78.15L2.55 -77.45L2.9 -76.55L5.25 -76.4L9.6 -76L10.2 -72.65Q10.65 -69.75 12.5 -70.55Q12.55 -69.95 12.05 -69.1L11.35 -68L13.9 -67.5L13.5 -64.3L6.65 -65.05L6.45 -65.05L2.3 -64.9L1.6 -63.25L2.25 -62.6L3.9 -61.4L6.75 -59Q7.05 -59.35 9.25 -60.1L12.5 -61.25Q14.35 -58.15 14.35 -57.65L14.25 -57.35Q15.5 -56.75 16.8 -56.75Q18.2 -56.75 19.65 -58L21.5 -59.95L25.25 -57.9Q25.45 -59.1 25.9 -59.65Q26.35 -60.25 27.85 -60.5Q31 -61 31.8 -67.3L32.2 -67.3L36.05 -67.3L36 -62.85L35.85 -49.65L35.15 -49.25L28.8 -50.4Q26.3 -50.4 23.05 -51.7L19.6 -53Q18 -53 16.4 -51.2Q14.8 -49.45 12.35 -49.45Q9.8 -49.45 -0.8 -52.3L-1.15 -51.95L-2.75 -52.35Q-9.85 -54.2 -15.85 -56.15L-15.8 -62.75L-15.8 -62.9Q-15.8 -72.45 -16.15 -78.55L-15.7 -80.55M-87.7,-74.5L-87.6 -75.35Q-87.4 -76.3 -86.9 -76.55L-84.25 -76.75L-77.15 -76.4L-69.9 -75.75L-62.75 -75.4Q-59.5 -74.9 -58.65 -73.05L-59.25 -72.75L-58.55 -72.75L-58.4 -71.75L-58.45 -68.9Q-57.55 -70 -56 -70.35L-55.1 -67.9Q-54.6 -66.65 -54.45 -65.7Q-54.2 -64.35 -52.9 -64.2L-50.7 -64.2L-50.2 -62.3L-50.2 -61.6L-50.1 -61.65Q-49.85 -59.7 -50 -58.95Q-50.2 -58.2 -48.55 -57.65L-46.9 -57.05L-46.8 -57L-46.45 -57L-46.55 -49.65L-46.55 -48.8L-52.05 -48.6Q-60.05 -48.75 -69.9 -51.35L-86.5 -55.6Q-94.6 -58.05 -98.2 -60.8L-98.2 -62.75L-98.2 -62.9Q-98.2 -72.45 -98.55 -78.55L-98.45 -78.85Q-96.25 -79.65 -95.4 -79.65Q-94.35 -79.65 -93.55 -76.5L-92.75 -72.65L-90.35 -72.95Q-89.45 -72.95 -89 -72.45L-88.15 -71.55L-88.1 -72.25L-87.85 -74.5L-87.7 -74.5" />
<path style="fill:none;stroke-width:1;stroke-linecap:butt;stroke-linejoin:miter;stroke-miterlimit:3;stroke:#B4472C;stroke-opacity:1" d="M8.5,-88.2L0.7 -88.2L0.55 -87.6L0 -85.4L1.7 -84.35Q3 -83.45 3 -82.75L3 -82.55L2.45 -80.75L1.85 -79.25L2.25 -78.15L2.55 -77.45L2.9 -76.55L5.25 -76.4L9.6 -76L12.5 -75.75L19.65 -75.4Q22.9 -74.9 23.75 -73.05L23.85 -72.75L24 -71.75L23.75 -67L23.6 -66.4L23.1 -65.4M13.5,-64.3L6.65 -65.05L6.45 -65.05L2.3 -64.9L1.6 -63.25L2.25 -62.6L3.9 -61.4L6.75 -59Q7.05 -59.35 9.25 -60.1L12.5 -61.25Q14.35 -58.15 14.35 -57.65L14.25 -57.35Q15.5 -56.75 16.8 -56.75Q18.2 -56.75 19.65 -58L21.5 -59.95L25.25 -57.9Q25.45 -59.1 25.9 -59.65Q26.35 -60.25 27.85 -60.5Q31 -61 31.8 -67.3L32.2 -67.3L36.05 -67.3M0.7,-88.35L0.7 -88.2L-6.3 -88.2M13.5,-64.3L19.55 -63.9Q22.05 -63.9 23.1 -65.4M12.9,-58.25L14.25 -57.35M-88.7,-88.2L-86.2 -88.2M-87.7,-74.5L-87.6 -75.35Q-87.4 -76.3 -86.9 -76.55L-84.25 -76.75L-77.15 -76.4L-69.9 -75.75L-62.75 -75.4Q-59.5 -74.9 -58.65 -73.05L-58.55 -72.75L-58.4 -71.75L-58.45 -68.9Q-57.55 -70 -56 -70.35L-55.1 -67.9Q-54.6 -66.65 -54.45 -65.7Q-54.2 -64.35 -52.9 -64.2L-50.7 -64.2L-50.2 -62.3L-50.1 -61.65Q-49.85 -59.7 -50 -58.95Q-50.2 -58.2 -48.55 -57.65L-46.9 -57.05L-46.8 -57M-98.45,-78.85Q-96.25 -79.65 -95.4 -79.65Q-94.35 -79.65 -93.55 -76.5L-92.75 -72.65L-90.35 -72.95Q-89.45 -72.95 -89 -72.45L-88.15 -71.55L-88.1 -72.25L-87.85 -74.5M-87.6,-75.35L-87.7 -75.35L-87.85 -74.5M-47.1,-47.75Q-49.65 -47.75 -50.8 -46.6L-50.8 -46.55M-58.35,-37.35L-57.15 -40.3L-56.5 -41.6Q-55.15 -43.9 -52.1 -42.9Q-51.9 -45.4 -50.8 -46.55M-58.35,-37.35L-58.5 -37.05L-59.9 -37.3M-62.8,-37.4Q-63.3 -37.1 -63.6 -36.3L-64.3 -32.8M-62.8,-37.4L-61.95 -37.65L-60.1 -37.35L-59.9 -37.3M-73.9,-88.2L-86.2 -88.2" />
<path style="fill:none;stroke-width:1;stroke-linecap:butt;stroke-linejoin:miter;stroke-miterlimit:3;stroke:#34495F;stroke-opacity:1" d="M39.05,-88.65Q39.05 -88 38.7 -87.5Q38.3 -87 37.75 -87Q36.8 -87 36.25 -87.75L36 -88.2Q35.75 -88.7 35.75 -89.4Q35.75 -90.35 36.15 -90.7Q36.4 -90.9 36.7 -90.95L37.4 -90.85Q39.05 -90.35 39.05 -88.75L39.05 -88.65M12.65,-90.95L12.5 -90.35Q12.3 -90 11.95 -90L11 -90.2Q10.35 -90.55 10.35 -91.15L10.35 -91.2L10.4 -91.5L10.45 -92L10.75 -92.2L11.3 -92.4Q12.65 -92.4 12.65 -91.45L12.65 -90.95M-20.65,-91L-20.7 -90.95Q-25.05 -87 -23.4 -77.9L-23.25 -71.85L-22.8 -66.15L-22.4 -62.65L-22.35 -60.8L-22.4 -58.5L-22.8 -51.75L-22.95 -48.6L-23.25 -41.15Q-23.25 -34.65 -21.25 -31.5L-21.15 -31.35L-21.1 -31.25L-21.05 -31.2L-20.8 -30.85L-19.25 -29.4Q-18.1 -28.65 -14.9 -28.05L-6.7 -26.95L7.4 -26.3L7.45 -26.3L8.7 -26.3L19.15 -26.1L28 -26.95L36.95 -27.85L38.5 -27.9Q40.75 -28 41.3 -29.95Q41.6 -31.05 41.3 -32.75Q41.9 -37 42.5 -44.25L42.7 -46.75L43.5 -62.45L43.5 -62.55L43.6 -78.8Q43.6 -84.8 42.75 -88Q41.4 -93 37.95 -93.7L36.85 -93.8L36.7 -93.8L18.3 -93.95L11.3 -94.05L11.25 -94.05L1.8 -94.1L-8.45 -94.25Q-14.2 -94.15 -17.35 -92.95Q-18.95 -92.4 -20.1 -91.45L-20.35 -91.25L-20.45 -91.2L-20.55 -91.15L-20.65 -91M40.6,-61.35L39.75 -61.25L38.7 -61.45Q37.95 -61.8 37.95 -62.85L38.35 -63.9L38.6 -64.15L38.7 -64.25L38.8 -64.35L39.55 -64.6Q40.1 -64.6 40.5 -64.2L40.75 -63.95Q41.25 -63.4 41.25 -62.55L40.95 -61.6L40.6 -61.35M36.05,-67.3L36.1 -70.8Q36.1 -80.3 35.35 -84.05L34.45 -86.05Q33.15 -87.8 30.2 -87.65Q25.9 -87.5 15.95 -87.95L11.85 -88.05L8.5 -88.2M36.05,-67.3L36 -62.85L35.85 -49.65L35.85 -49.1L35.8 -47.55L35.75 -45.15L35.75 -44.95Q35.45 -39.9 34.15 -37.4L33.45 -36.35L32.25 -35.2Q30.2 -33.7 26.65 -33.2L25.45 -33.1Q19.75 -32.65 9.6 -32.85L7.2 -32.9L7.1 -32.9L-5.2 -33.3L-7.45 -33.55Q-9.1 -33.85 -10.5 -34.45Q-11.9 -35.05 -13.1 -35.95L-14.2 -37.2Q-16.2 -40.35 -15.95 -48.75L-15.95 -49.45L-15.85 -56.15L-15.8 -62.75L-15.8 -62.9Q-15.8 -72.45 -16.15 -78.55L-15.8 -80.55L-15.75 -82.25L-15.75 -82.55Q-15.65 -84.15 -14.65 -85.25L-14.6 -85.3Q-12.8 -87.4 -8.15 -88.05L-6.3 -88.2L0.7 -88.35L3.65 -88.35L8.5 -88.2M8.45,-30.55Q9 -30.2 9 -29.55Q9 -29.05 8.45 -28.6L7.85 -28.25L7.45 -28.2Q6.7 -28.2 6.05 -28.9L6.05 -28.95L6 -29L6 -29.1L5.95 -29.55Q5.9 -30.2 6.25 -30.55L6.4 -30.7L7.2 -31L8.3 -30.7L8.45 -30.55M-18.45,-61.85L-18.6 -61.7Q-18.9 -61.3 -19.25 -61.2L-19.6 -61.15Q-20.95 -61.15 -20.95 -62.8L-20.9 -63.1L-20.55 -63.7L-20.45 -64L-20 -64.05L-19.25 -63.95L-18.9 -63.8L-18.4 -63.3L-18.25 -62.75L-18.45 -61.85M36.25,-34.1L35.85 -34.05L35.8 -34Q35.4 -33.85 35.3 -33.3L35.25 -32.95L35.15 -32.55Q35.15 -31.8 35.6 -31.35Q36.1 -30.9 36.75 -30.9Q37.55 -30.9 37.95 -31.8L38.25 -33.05Q38.25 -34.1 36.65 -34.1L36.25 -34.1M6,-29.1L6.05 -28.95M-86.2,-88.2L-78.75 -88.35L-73.9 -88.2L-70.55 -88.05L-66.45 -87.95Q-56.5 -87.5 -52.2 -87.65Q-49.25 -87.8 -47.95 -86.05Q-47.35 -85.25 -47.05 -84.05Q-46.3 -80.3 -46.3 -70.8L-46.4 -62.85L-46.45 -57L-46.55 -49.65L-46.55 -48.8L-46.6 -47.75L-46.6 -47.55Q-46.65 -40.5 -48.25 -37.4L-48.95 -36.35L-50.15 -35.2M-73.95,-30.55Q-73.4 -30.2 -73.4 -29.55Q-73.4 -29.05 -73.95 -28.6Q-74.2 -28.35 -74.55 -28.25L-74.95 -28.2Q-75.7 -28.2 -76.35 -28.9L-76.35 -28.95L-76.4 -29L-76.4 -29.1L-76.45 -29.55Q-76.5 -30.2 -76.15 -30.55L-76 -30.7L-75.2 -31L-74.1 -30.7L-73.95 -30.55M-100.85,-61.85L-101 -61.7L-101.65 -61.2L-102 -61.15Q-103.35 -61.15 -103.35 -62.8L-103.3 -63.1L-102.95 -63.7L-102.85 -64L-102.4 -64.05L-101.65 -63.95L-101.3 -63.8L-100.8 -63.3L-100.65 -62.75L-100.85 -61.85M-98.15,-82.55Q-98.05 -84.15 -97.05 -85.25L-97 -85.3Q-95.2 -87.4 -90.55 -88.05L-88.7 -88.2M-98.45,-88.3Q-98.45 -88.85 -99.2 -89.3L-100.3 -89.65L-100.95 -89.55L-101.3 -89.35L-101.4 -89.1L-101.45 -88.3L-101.45 -88.2Q-101.4 -87.4 -100.9 -86.85Q-100.35 -86.4 -99.7 -86.4Q-99.15 -86.4 -98.8 -87Q-98.5 -87.55 -98.45 -88.2L-98.45 -88.3M-103.05,-91L-103.1 -90.95Q-107.45 -87 -105.8 -77.9L-105.65 -71.85L-105.2 -66.15L-104.8 -62.65L-104.75 -60.8L-105.2 -51.75L-105.35 -48.6L-105.65 -41.15Q-105.65 -34.65 -103.65 -31.5L-103.55 -31.35L-103.5 -31.25L-103.45 -31.2L-103.2 -30.85L-101.65 -29.4Q-100.5 -28.65 -97.3 -28.05L-89.1 -26.95L-75 -26.3L-74.95 -26.3L-73.7 -26.3L-63.25 -26.1L-54.4 -26.95L-45.45 -27.85L-43.9 -27.9Q-41.65 -28 -41.1 -29.95Q-40.8 -31.05 -41.1 -32.75Q-40.4 -37.7 -39.7 -46.75Q-39.05 -55.85 -38.9 -62.45L-38.9 -62.55L-38.8 -78.8Q-38.8 -84.8 -39.65 -88Q-41 -93 -44.45 -93.7L-45.55 -93.8L-45.7 -93.8L-64.1 -93.95L-71.1 -94.05L-71.15 -94.05L-80.6 -94.1L-90.85 -94.25Q-96.6 -94.15 -99.75 -92.95Q-101.35 -92.4 -102.5 -91.45L-102.75 -91.25L-102.85 -91.2L-102.95 -91.15L-103.05 -91M-41.8,-61.35L-42.65 -61.25L-43.7 -61.45Q-44.45 -61.8 -44.45 -62.85L-44.05 -63.9L-43.8 -64.15L-43.7 -64.25L-43.6 -64.35L-42.85 -64.6Q-42.3 -64.6 -41.9 -64.2L-41.65 -63.95Q-41.15 -63.4 -41.15 -62.55Q-41.15 -61.9 -41.45 -61.6L-41.8 -61.35M-43.35,-88.65Q-43.35 -88 -43.7 -87.5Q-44.1 -87 -44.65 -87Q-45.6 -87 -46.15 -87.75L-46.4 -88.2L-46.65 -89.4Q-46.65 -90.35 -46.25 -90.7L-45.7 -90.95L-45 -90.85Q-43.35 -90.35 -43.35 -88.75L-43.35 -88.65M-69.75,-90.95L-69.9 -90.35Q-70.1 -90 -70.45 -90L-71.4 -90.2Q-72.05 -90.55 -72.05 -91.15L-72.05 -91.2L-72 -91.5L-71.95 -92L-71.65 -92.2L-71.1 -92.4Q-69.75 -92.4 -69.75 -91.45L-69.75 -90.95M-98.55,-78.55L-98.2 -80.55L-98.15 -82.25L-98.15 -82.55Q-98 -81.7 -98.1 -80.55L-98.45 -78.85L-98.55 -78.55Q-98.2 -72.45 -98.2 -62.9L-98.2 -62.75L-98.2 -60.8M-64.3,-32.8L-72.8 -32.85L-75.2 -32.9L-75.3 -32.9L-87.6 -33.3L-89.85 -33.55Q-91.5 -33.85 -92.9 -34.45L-95.5 -35.95Q-96.15 -36.45 -96.6 -37.2Q-98.6 -40.35 -98.35 -48.75L-98.35 -49.45L-98.2 -60.8M-99.8,-34.75L-100.65 -35Q-100.95 -35 -101.4 -34.65L-101.65 -34.3L-101.8 -33.8L-101.65 -32.85L-101.5 -32.55Q-101.25 -32.15 -100.65 -32.15Q-99.95 -32.15 -99.65 -32.9Q-99.4 -33.4 -99.4 -34L-99.8 -34.75M-19.05,-88.2Q-19 -87.4 -18.5 -86.85Q-17.95 -86.4 -17.3 -86.4Q-16.75 -86.4 -16.4 -87Q-16.1 -87.55 -16.05 -88.2L-16.05 -88.3Q-16.05 -88.85 -16.8 -89.3Q-17.4 -89.65 -17.9 -89.65L-18.55 -89.55L-18.9 -89.35L-19 -89.1L-19.05 -88.3L-19.05 -88.2M-15.7,-80.55Q-15.6 -81.7 -15.75 -82.55M-15.7,-80.55L-16.15 -78.55M-64.3,-32.8L-56.95 -33.1Q-52.55 -33.45 -50.15 -35.2M-44.15,-33.05Q-44.15 -34.1 -45.75 -34.1L-46.15 -34.1L-46.55 -34.05L-46.6 -34Q-47 -33.85 -47.1 -33.3L-47.15 -32.95L-47.25 -32.55Q-47.25 -31.8 -46.8 -31.35Q-46.3 -30.9 -45.65 -30.9Q-44.85 -30.9 -44.45 -31.8Q-44.15 -32.45 -44.15 -33.05M-76.35,-28.95L-76.4 -29.1M-19,-34.65L-19.25 -34.3L-19.4 -33.8L-19.25 -32.85L-19.1 -32.55Q-18.85 -32.15 -18.25 -32.15Q-17.55 -32.15 -17.25 -32.9Q-17 -33.4 -17 -34L-17.4 -34.75L-18.25 -35L-19 -34.65" />
</g>
</svg>
