<?xml version="1.0" encoding="utf-8"?>
<svg version="1.1" id="Layer_1"
xmlns="http://www.w3.org/2000/svg"
xmlns:xlink="http://www.w3.org/1999/xlink"
xmlns:author="http://www.sothink.com"
width="78px" height="72px"
xml:space="preserve">
<g id="201" transform="matrix(1, 0, 0, 1, 39.15, 67.4)">
<path style="fill:#245118;fill-opacity:0" d="M38.55,4L-39.15 4L-39.15 -67.4L38.55 -67.4L38.55 4" />
<path style="fill:#C3C3E2;fill-opacity:1" d="M-7.5,-37L-5.65 -37L-5.45 -37.15L-5.2 -37.15Q-4.9 -37.3 -4.9 -39.75L-5 -42.1L-2.75 -41.05Q-2.95 -38.2 -3.7 -33.75L-4.15 -33.8L-13.5 -34.7L-18.6 -35L-18.6 -35.3Q-18.4 -36.8 -18.75 -37.2L-18.8 -37.2L-19.2 -37.95Q-19.85 -39.15 -19.85 -40.25Q-19.85 -41.4 -19.25 -42.5L-19.2 -42.6L-19.05 -42.55L-18.9 -42.55L-16.8 -42.6L-15.8 -42.55L-15.85 -42.55Q-16.35 -42.15 -16.35 -41.4Q-16.15 -39.05 -16.25 -37.35L-15.8 -37.35L-15.1 -37.4L-13.3 -37.45L-13.25 -37.45L-12.3 -37.45Q-11.85 -37.6 -11.85 -40.05Q-11.85 -42.2 -12.05 -42.6L-12.4 -42.85L-12.9 -42.95L-12.45 -43.1L-9.35 -43.55Q-8.4 -43.55 -6.45 -42.75L-7.1 -42.6Q-7.7 -42.25 -7.75 -41.1L-7.7 -37.05L-7.5 -37M6.25,-29.65Q5.4 -28.15 4.2 -27.75Q2.25 -27.05 -1.1 -27L-8.55 -27Q-11.2 -27 -15.35 -28.8Q-19.45 -30.6 -24.1 -30.6L-27.05 -30.2L-29.4 -29.85Q-31 -29.85 -31.65 -30.75L-32.25 -31L-32.05 -31.45Q-31.5 -32.55 -30.6 -33.3L-30.2 -33.6L-29.6 -33.95L-29.55 -33.95L-29.25 -33.3L-27.2 -33.5L-25.2 -33.75L-18 -32.75L-16.85 -32.55Q-10.75 -31.4 -5 -31.4L-1.1 -31.8L2.4 -32.25L5.4 -31.95L7.2 -31.55L6.25 -29.65M-15,-53.05L-15 -54.2L-14.25 -60.55Q-14.25 -61.1 -15.2 -61.7Q-16.2 -62.35 -16.2 -63.55Q-16.2 -64.65 -15.3 -65.3Q-14.5 -65.85 -13.4 -65.85Q-12.45 -65.85 -11.55 -65.05Q-10.65 -64.15 -10.65 -63.05Q-10.65 -62.7 -11.2 -61.45Q-11.8 -60.15 -11.85 -58.2L-12.15 -53.15L-15 -53.05M-9.15,-53.05L-9.15 -59L-8.25 -59.25Q-6.9 -59.25 -6.95 -56.25L-7.2 -52.75L-9.15 -53.05M-4.1,-44.7L-2.65 -44.4L-2.65 -43.3L-2.65 -42.85Q-3.6 -43.7 -4.1 -44.7M-18.5,-41.75Q-19.3 -41.75 -19.3 -40.8Q-19.3 -39.7 -18.2 -39.7Q-17.85 -39.7 -17.8 -40.15L-17.8 -40.7L-17.8 -41.25Q-17.9 -41.75 -18.5 -41.75M-21.05,-42.85L-21 -42.85L-21 -42.8L-21.05 -42.85M-20.55,-37.4L-20.45 -37.25L-20.55 -37.25L-20.55 -37.4M-28.75,-32.55Q-29.7 -32.55 -30.2 -32L-30.5 -31.3Q-30.5 -30.55 -29.7 -30.55Q-29.2 -30.55 -28.6 -31.2Q-28.05 -31.75 -28.05 -32L-28.1 -32.3Q-28.25 -32.55 -28.75 -32.55" />
<path style="fill:#393943;fill-opacity:1" d="M-7.7,-37.05L-7.75 -41.1Q-7.7 -42.25 -7.1 -42.6L-6.45 -42.75L-6.4 -42.75Q-5.25 -42.75 -5.05 -42.3L-5 -42.1L-4.9 -39.75Q-4.9 -37.3 -5.2 -37.15L-5.45 -37.15L-7.7 -37.05M-15.05,-42.95L-14.35 -43.05L-14.2 -43.05L-12.9 -42.95L-12.4 -42.85L-12.05 -42.6Q-11.85 -42.2 -11.85 -40.05Q-11.85 -37.6 -12.3 -37.45L-13.25 -37.45L-13.3 -37.45L-15.1 -37.4L-15.8 -37.35L-16.25 -37.35Q-16.15 -39.05 -16.35 -41.4Q-16.35 -42.15 -15.85 -42.55L-15.8 -42.55L-15.05 -42.95" />
<path style="fill:#F7BC81;fill-opacity:1" d="M-23.2,-49.5L-22.8 -49.2L-23.3 -49.25L-23.2 -49.5" />
<path style="fill:#DE7D3D;fill-opacity:1" d="M-23.3,-49.25L-22.8 -49.2Q-15.25 -51.65 -12.35 -51.65Q-10.5 -51.65 -8.65 -50.85L-5.85 -49.05Q-5.35 -48.55 -5 -47.3L-4.25 -44.95L-4.1 -44.7L-7.4 -45.3L-12.4 -45.8L-18.4 -45.55Q-21.45 -45.15 -24.5 -43.95Q-24.25 -47.35 -23.3 -49.25" />
<path style="fill:#F3B288;fill-opacity:1" d="M-23.2,-49.5L-22.1 -51Q-20.25 -52.65 -15 -53.05L-12.15 -53.15L-11.75 -53.15L-9.15 -53.05L-7.2 -52.75L-7.15 -52.75Q-5.05 -52.25 -4.15 -51.25Q-2.8 -49.7 -2.65 -44.4L-4.1 -44.7L-4.25 -44.95L-5 -47.3Q-5.35 -48.55 -5.85 -49.05L-8.65 -50.85Q-10.5 -51.65 -12.35 -51.65Q-15.25 -51.65 -22.8 -49.2L-23.2 -49.5" />
<path style="fill:#8D8DB1;fill-opacity:1" d="M-24.6,-41.15L-24.5 -43.95Q-21.45 -45.15 -18.4 -45.55L-12.4 -45.8L-7.4 -45.3L-4.1 -44.7Q-3.6 -43.7 -2.65 -42.85L-2.75 -41.05L-5 -42.1L-5.05 -42.3Q-5.25 -42.75 -6.4 -42.75L-6.45 -42.75Q-8.4 -43.55 -9.35 -43.55L-12.45 -43.1L-12.9 -42.95L-14.2 -43.05L-14.35 -43.05L-14.5 -43.05L-15.05 -42.95L-15.8 -42.55L-16.8 -42.6L-18.9 -42.55L-19.05 -42.55L-19.2 -42.6L-19.25 -42.5Q-19.85 -41.4 -19.85 -40.25Q-19.85 -39.15 -19.2 -37.95L-18.8 -37.2L-18.75 -37.2Q-18.4 -36.8 -18.6 -35.3L-18.6 -35L-23.55 -35.15L-24.45 -35.1L-24.6 -41.15M-6.15,-22.8L-6.2 -22.8L-19.35 -23L-33 -23.75L-32.95 -24.35L-32.85 -25.15L-32.85 -25.35L-33 -26.75Q-33 -29.3 -32.25 -31L-31.65 -30.75Q-31 -29.85 -29.4 -29.85L-27.05 -30.2L-24.1 -30.6Q-19.45 -30.6 -15.35 -28.8Q-11.2 -27 -8.55 -27L-1.1 -27Q2.25 -27.05 4.2 -27.75Q5.4 -28.15 6.25 -29.65L7.2 -31.55L7.8 -33L7.85 -33.1L10.95 -33.2Q13.7 -33.05 13.7 -30.45Q13.7 -28.1 12.65 -25.2Q12.05 -23.4 8.1 -23.4L0.75 -23.15L-5.75 -22.8L-6.15 -22.8M-17.8,-41.25L-17.8 -40.7L-17.8 -40.15Q-17.85 -39.7 -18.2 -39.7Q-19.3 -39.7 -19.3 -40.8Q-19.3 -41.75 -18.5 -41.75Q-17.9 -41.75 -17.8 -41.25M-21,-42.8L-21 -42.85L-21.05 -42.85L-21 -42.8M-20.65,-37.25L-20.6 -37.25L-20.55 -37.25L-20.45 -37.25L-20.55 -37.4L-20.65 -37.25M-28.1,-32.3L-28.05 -32Q-28.05 -31.75 -28.6 -31.2Q-29.2 -30.55 -29.7 -30.55Q-30.5 -30.55 -30.5 -31.3L-30.2 -32Q-29.7 -32.55 -28.75 -32.55Q-28.25 -32.55 -28.1 -32.3" />
<path style="fill:#ECECF7;fill-opacity:1" d="M7.8,-33L7.2 -31.55L5.4 -31.95L2.4 -32.25L-1.1 -31.8L-5 -31.4Q-10.75 -31.4 -16.85 -32.55L-18 -32.75L-25.2 -33.75L-27.2 -33.5L-29.25 -33.3L-29.55 -33.95Q-27.6 -35 -24.45 -35.1L-23.55 -35.15L-18.6 -35L-13.5 -34.7L-4.15 -33.8L-3.7 -33.7L-3.7 -33.75L0.85 -33.7L5.85 -33.3L7.85 -33.1L7.8 -33" />
<path style="fill:none;stroke-width:1;stroke-linecap:butt;stroke-linejoin:miter;stroke-miterlimit:3;stroke:#585454;stroke-opacity:1" d="M7.85,-33.1L5.85 -33.3L0.85 -33.7L-3.7 -33.75L-3.7 -33.7M-2.65,-44.4L-2.65 -43.3L-2.65 -42.85L-2.75 -41.05Q-2.95 -38.2 -3.7 -33.75L-4.15 -33.8L-13.5 -34.7L-18.6 -35L-23.55 -35.15L-24.45 -35.1Q-27.6 -35 -29.55 -33.95M7.85,-33.1L10.95 -33.2Q13.7 -33.05 13.7 -30.45Q13.7 -28.1 12.65 -25.2Q12.05 -23.4 8.1 -23.4L0.75 -23.15L-5.75 -22.8Q-5.75 -22.6 -5.85 -22.65L-6.15 -22.8L-6.2 -22.8L-19.35 -23L-33 -23.75L-32.95 -24.35L-32.85 -25.15L-32.85 -25.35L-33 -26.75Q-33 -29.3 -32.25 -31L-32.05 -31.45Q-31.5 -32.55 -30.6 -33.3L-30.2 -33.6L-29.6 -33.95L-29.55 -33.95M-15,-53.05L-15 -54.2L-14.25 -60.55Q-14.25 -61.1 -15.2 -61.7Q-16.2 -62.35 -16.2 -63.55Q-16.2 -64.65 -15.3 -65.3Q-14.5 -65.85 -13.4 -65.85Q-12.45 -65.85 -11.55 -65.05Q-10.65 -64.15 -10.65 -63.05Q-10.65 -62.7 -11.2 -61.45Q-11.8 -60.15 -11.85 -58.2L-12.15 -53.15M-9.15,-53.05L-9.15 -59L-8.25 -59.25Q-6.9 -59.25 -6.95 -56.25L-7.2 -52.75M-7.7,-37.05L-7.75 -41.1Q-7.7 -42.25 -7.1 -42.6L-6.45 -42.75L-6.4 -42.75Q-5.25 -42.75 -5.05 -42.3L-5 -42.1L-4.9 -39.75Q-4.9 -37.3 -5.2 -37.15L-5.45 -37.15M-15.05,-42.95L-14.35 -43.05L-14.2 -43.05L-12.9 -42.95L-12.4 -42.85L-12.05 -42.6Q-11.85 -42.2 -11.85 -40.05Q-11.85 -37.6 -12.3 -37.45L-13.25 -37.45L-13.3 -37.45L-15.1 -37.4L-15.8 -37.35L-16.25 -37.35Q-16.15 -39.05 -16.35 -41.4Q-16.35 -42.15 -15.85 -42.55L-15.8 -42.55M-7.7,-37.05L-5.45 -37.15M-15.05,-42.95L-15.8 -42.55M-23.2,-49.5L-23.3 -49.25M-24.5,-43.95L-24.6 -41.15L-24.45 -35.1M-6.15,-22.8L-5.75 -22.8" />
<path style="fill:none;stroke-width:1;stroke-linecap:butt;stroke-linejoin:miter;stroke-miterlimit:3;stroke:#91491A;stroke-opacity:1" d="M-23.2,-49.5L-22.1 -51Q-20.25 -52.65 -15 -53.05L-12.15 -53.15L-11.75 -53.15L-9.15 -53.05L-7.2 -52.75L-7.15 -52.75Q-5.05 -52.25 -4.15 -51.25Q-2.8 -49.7 -2.65 -44.4M-23.3,-49.25Q-24.25 -47.35 -24.5 -43.95Q-21.45 -45.15 -18.4 -45.55L-12.4 -45.8L-7.4 -45.3L-4.1 -44.7L-2.65 -44.4" />
<path style="fill:#8080AD;fill-opacity:1" d="M21.45,-44.9Q21.45 -46.4 19.7 -47.05Q17.9 -47.65 17.9 -46.35L18.9 -45.05Q20 -43.8 20.75 -43.8Q21.1 -43.8 21.3 -44.25L21.45 -44.9M17.95,-47.65Q17.9 -47.85 18.4 -47.85Q22.8 -47.85 22.8 -44Q22.8 -42.65 22 -41.9Q21 -41.1 19 -41.1Q17.6 -41.1 16.7 -42Q15.75 -42.95 15.75 -44.3Q15.75 -45.3 16.35 -46.45L16.5 -46.7L17.4 -47.6L17.95 -47.65" />
<path style="fill:#C3C3E2;fill-opacity:1" d="M26.4,-29.35Q26.4 -31.1 25.6 -32.25Q24.75 -33.55 23.25 -33.75Q21.55 -33.95 20.5 -34.7Q19.65 -35.3 18.3 -35.3Q17.2 -35.3 15.65 -34.45Q14.05 -33.6 13.05 -33.6Q9.05 -33.6 9.05 -38.7L9.4 -41.55Q10.65 -45.9 12.3 -48.55L12.95 -48.45Q13.55 -48.45 15.4 -49.6Q17.25 -50.75 19.45 -50.75Q22.6 -50.75 24.15 -47.05Q25.05 -44.85 26 -38.9Q26.9 -33 27.9 -30.75L28.35 -29.85L26.4 -29.35M22.8,-44Q22.8 -47.85 18.4 -47.85Q17.9 -47.85 17.95 -47.65L17.5 -47.75L17.4 -47.6L16.5 -46.7L16.05 -46.8Q15 -46.8 14.3 -45.7Q13.65 -44.75 13.65 -43.55Q13.65 -41.4 15.5 -39.9Q17.1 -38.55 18.8 -38.55Q20.35 -38.55 21.25 -39.3Q22.05 -40.05 22.05 -41.25L22 -41.9Q22.8 -42.65 22.8 -44M-32.15,-9.65L-34.3 -17.45L-32.4 -17.5Q-30.2 -17.5 -28.2 -15.8Q-26.15 -14.1 -20.4 -14.1Q-16.8 -14.1 -14.3 -15.5Q-11.8 -16.9 -9.05 -16.9L-3.85 -16.45L3.7 -16Q10 -16 23.25 -19.65L23.85 -19.85L32.65 -22.45Q30.6 -18.55 25.5 -10.9Q8.8 -6.8 -2.45 -7.2L-18.4 -7.65Q-23 -7.7 -32.15 -9.65" />
<path style="fill:#E8E8F3;fill-opacity:1" d="M-18.4,-7.65L-2.45 -7.2Q8.8 -6.8 25.5 -10.9L23.85 -8.5L22.85 -7.5L14.25 -6.1L5.65 -5L-4.5 -4.65L-20.45 -5.55Q-30.9 -6.45 -31.45 -7.4L-31.5 -7.5L-32.15 -9.65Q-23 -7.7 -18.4 -7.65" />
<path style="fill:#A2A2C2;fill-opacity:1" d="M5.45,-22.55Q9.6 -23.45 15.95 -25.1L26.4 -27.85L28.35 -28.35L28.85 -28.45L28.45 -28.2L26.4 -27.25Q23.65 -26.15 18.75 -24.9Q13.2 -23.45 7.2 -22.35L5.25 -22.35L5.25 -22.5L5.45 -22.55" />
<path style="fill:#C65E5E;fill-opacity:1" d="M22.85,-7.5L16.1 -1.25Q12.35 1.75 7.95 1.75L-1.2 1.55L-4.05 1.45L-9.65 1.45L-14.25 1.25L-21.9 0.95Q-27.1 0.15 -28.55 -1.45Q-30 -3.1 -30.6 -4.8L-31.45 -7.4Q-30.9 -6.45 -20.45 -5.55L-4.5 -4.65L5.65 -5L14.25 -6.1L22.85 -7.5" />
<path style="fill:#A9A9CB;fill-opacity:1" d="M16.35,-46.45Q15.75 -45.3 15.75 -44.3Q15.75 -42.95 16.7 -42Q17.6 -41.1 19 -41.1Q21 -41.1 22 -41.9L22.05 -41.25Q22.05 -40.05 21.25 -39.3Q20.35 -38.55 18.8 -38.55Q17.1 -38.55 15.5 -39.9Q13.65 -41.4 13.65 -43.55Q13.65 -44.75 14.3 -45.7Q15 -46.8 16.05 -46.8L16.5 -46.7L16.35 -46.45" />
<path style="fill:#A4A4CD;fill-opacity:1" d="M21.3,-44.25Q21.1 -43.8 20.75 -43.8Q20 -43.8 18.9 -45.05L17.9 -46.35Q17.9 -47.65 19.7 -47.05Q21.45 -46.4 21.45 -44.9L21.3 -44.25" />
<path style="fill:#8D8DB1;fill-opacity:1" d="M5.45,-24.05L5.25 -24.9Q6.55 -27.95 9.25 -41L9.4 -41.55L9.05 -38.7Q9.05 -33.6 13.05 -33.6Q14.05 -33.6 15.65 -34.45Q17.2 -35.3 18.3 -35.3Q19.65 -35.3 20.5 -34.7Q21.55 -33.95 23.25 -33.75Q24.75 -33.55 25.6 -32.25Q26.4 -31.1 26.4 -29.35L15.95 -26.6Q9.6 -24.95 5.45 -24.05M-35.25,-21.85L-35.25 -22.3Q-35.25 -23.4 -34.5 -23.7L-31.65 -24L-24.05 -23.65L-15 -23.05L-8.3 -22.2L-1.5 -21.45L5.25 -22.5L5.25 -22.35L7.2 -22.35Q13.2 -23.45 18.75 -24.9Q23.65 -26.15 26.4 -27.25L28.45 -28.2L28.85 -28.45L30.05 -28.8Q33.95 -28.8 33.95 -26L33.9 -25.55L32.65 -22.45L23.85 -19.85L23.25 -19.65Q10 -16 3.7 -16L-3.85 -16.45L-9.05 -16.9Q-11.8 -16.9 -14.3 -15.5Q-16.8 -14.1 -20.4 -14.1Q-26.15 -14.1 -28.2 -15.8Q-30.2 -17.5 -32.4 -17.5L-34.3 -17.45L-34.9 -20L-35.1 -21.15L-35.25 -21.85" />
<path style="fill:#ECECF7;fill-opacity:1" d="M17.8,-52.5Q22 -52.5 24 -51.15Q26.55 -49.4 26.85 -45.05L28.35 -38.65Q29.85 -32.65 29.85 -31.35Q29.85 -30.7 28.85 -29.95L28.35 -29.85L27.9 -30.75Q26.9 -33 26 -38.9Q25.05 -44.85 24.15 -47.05Q22.6 -50.75 19.45 -50.75Q17.25 -50.75 15.4 -49.6Q13.55 -48.45 12.95 -48.45L12.3 -48.55Q14.65 -52.5 17.8 -52.5" />
<path style="fill:none;stroke-width:1;stroke-linecap:butt;stroke-linejoin:miter;stroke-miterlimit:3;stroke:#585454;stroke-opacity:1" d="M26.4,-29.35L28.35 -29.85L28.85 -29.95Q29.85 -30.7 29.85 -31.35Q29.85 -32.65 28.35 -38.65L26.85 -45.05Q26.55 -49.4 24 -51.15Q22 -52.5 17.8 -52.5Q14.65 -52.5 12.3 -48.55Q10.65 -45.9 9.4 -41.55M16.5,-46.7L17.4 -47.6L17.5 -47.75L17.95 -47.65Q17.9 -47.85 18.4 -47.85Q22.8 -47.85 22.8 -44Q22.8 -42.65 22 -41.9Q21 -41.1 19 -41.1Q17.6 -41.1 16.7 -42Q15.75 -42.95 15.75 -44.3Q15.75 -45.3 16.35 -46.45L16.5 -46.7M5.45,-22.55L5.25 -22.5L5.25 -22.35L7.2 -22.35Q13.2 -23.45 18.75 -24.9Q23.65 -26.15 26.4 -27.25L28.45 -28.2L28.85 -28.45L30.05 -28.8Q33.95 -28.8 33.95 -26L33.9 -25.55L32.65 -22.45Q30.6 -18.55 25.5 -10.9L23.85 -8.5L22.85 -7.5L16.1 -1.25Q12.35 1.75 7.95 1.75L-1.2 1.55L-4.05 1.45L-9.65 1.45L-14.25 1.25L-21.9 0.95Q-27.1 0.15 -28.55 -1.45Q-30 -3.1 -30.6 -4.8L-31.45 -7.4L-31.5 -7.5L-32.15 -9.65L-34.3 -17.45L-34.9 -20L-35.1 -21.15L-35.25 -21.55L-35.25 -21.85L-35.25 -22.3Q-35.25 -23.4 -34.5 -23.7L-31.65 -24L-24.05 -23.65L-15 -23.05L-8.3 -22.2L-1.5 -21.45L5.25 -22.5L5.25 -23.4M17.95,-47.65L17.4 -47.6M5.25,-24.9Q6.55 -27.95 9.25 -41L9.4 -41.55M26.4,-29.35L15.95 -26.6Q9.6 -24.95 5.45 -24.05M-35.25,-21.85L-35.1 -21.15" />
<path style="fill:none;stroke-width:1;stroke-linecap:butt;stroke-linejoin:miter;stroke-miterlimit:3;stroke:#878181;stroke-opacity:1" d="M9.4,-23.2Q11.05 -11.95 20.5 -5.35M-8.8,-22.1L-10.95 1.2" />
<path style="fill:#676783;fill-opacity:1" d="M23.6,-20.7Q24.5 -20.85 25.05 -20.35Q25.6 -19.8 25.55 -18.95Q25.55 -17.95 24.9 -17.1Q24.25 -16.3 23.4 -16.1Q22.55 -15.85 22 -16.4Q21.45 -16.9 21.45 -17.85Q21.5 -18.75 22.15 -19.55Q22.8 -20.4 23.6 -20.7" />
<path style="fill:none;stroke-width:1;stroke-linecap:butt;stroke-linejoin:miter;stroke-miterlimit:3;stroke:#726E6E;stroke-opacity:1" d="M23.6,-20.7Q24.5 -20.85 25.05 -20.35Q25.6 -19.8 25.55 -18.95Q25.55 -17.95 24.9 -17.1Q24.25 -16.3 23.4 -16.1Q22.55 -15.85 22 -16.4Q21.45 -16.9 21.45 -17.85Q21.5 -18.75 22.15 -19.55Q22.8 -20.4 23.6 -20.7z" />
<path style="fill:#8080AD;fill-opacity:1" d="M-37.3,-24.05L-37.4 -23.75L-37.4 -24.1L-37.3 -24.05" />
<path style="fill:#A4A4CD;fill-opacity:1" d="M37.2,-27.9L37.15 -28.1L37.4 -28.2L37.2 -27.9" />
<path style="fill:#DE7D3D;fill-opacity:1" d="M-13.55,-24.1L-5.75 -23.35L2.85 -22.65Q4.35 -22.65 17.15 -26.95Q30 -31.3 33.85 -31.3Q36.15 -31.3 37.15 -28.1L37.2 -27.9Q36.35 -27.15 31.4 -25.75L22 -23.15L14.95 -21.35L10.2 -20.15L6.05 -19.5L1.9 -19.2L-5.35 -19.85L-13.5 -20.65L-13.55 -20.65L-13.8 -20.65Q-13.55 -22.05 -13.55 -24.1M-28.65,-23.7L-28.65 -24.7L-28.6 -25.45L-28.6 -25.6L-28.25 -26.9L-27.3 -26.6L-22.5 -26.3Q-15.3 -26 -15.3 -21.55L-15.65 -17.7Q-17.25 -17.05 -20.55 -17.05Q-24.6 -17.05 -26.2 -17.7Q-27.95 -18.4 -28.45 -20.1Q-31.95 -20.5 -35.5 -20.05Q-37.4 -20.2 -37.4 -23.75L-37.3 -24.05L-32.6 -23.6L-28.65 -23.7" />
<path style="fill:#F3B288;fill-opacity:1" d="M-13.55,-24.45L-13.5 -25.25L-3.4 -24.85L3.85 -24.85Q4.85 -24.85 18.6 -29.2Q32.35 -33.6 34.45 -33.6Q35.95 -33.6 36.75 -31.7Q37.4 -30.2 37.4 -28.2L37.15 -28.1Q36.15 -31.3 33.85 -31.3Q30 -31.3 17.15 -26.95Q4.35 -22.65 2.85 -22.65L-5.75 -23.35L-13.55 -24.1Q-13.55 -22.05 -13.8 -20.65Q-14.05 -19.05 -14.6 -18.4L-15.65 -17.7L-15.3 -21.55Q-15.3 -26 -22.5 -26.3L-27.3 -26.6L-28.25 -26.9Q-27.85 -27.95 -26.8 -28.3L-22.15 -28.5L-16.45 -28.25Q-13.95 -27.65 -13.6 -25.25L-13.55 -24.45M-37.4,-24.1Q-37.35 -25.25 -37.1 -25.5L-35.45 -25.75L-28.6 -25.6L-28.6 -25.45L-28.65 -24.7L-28.65 -23.7L-32.6 -23.6L-37.3 -24.05L-37.4 -24.1" />
<path style="fill:none;stroke-width:1;stroke-linecap:butt;stroke-linejoin:miter;stroke-miterlimit:3;stroke:#91491A;stroke-opacity:1" d="M37.2,-27.9L37.4 -28.2Q37.4 -30.2 36.75 -31.7Q35.95 -33.6 34.45 -33.6Q32.35 -33.6 18.6 -29.2Q4.85 -24.85 3.85 -24.85L-3.4 -24.85L-13.5 -25.25M-13.55,-24.45L-13.55 -24.1Q-13.55 -22.05 -13.8 -20.65Q-14.05 -19.05 -14.6 -18.4L-15.65 -17.7Q-17.25 -17.05 -20.55 -17.05Q-24.6 -17.05 -26.2 -17.7Q-27.95 -18.4 -28.45 -20.1Q-31.95 -20.5 -35.5 -20.05Q-37.4 -20.2 -37.4 -23.75L-37.4 -24.1Q-37.35 -25.25 -37.1 -25.5L-35.45 -25.75L-28.6 -25.6L-28.25 -26.9Q-27.85 -27.95 -26.8 -28.3L-22.15 -28.5L-16.45 -28.25Q-13.95 -27.65 -13.6 -25.25L-13.5 -25.25M37.2,-27.9Q36.35 -27.15 31.4 -25.75L22 -23.15L14.95 -21.35L10.2 -20.15L6.05 -19.5L1.9 -19.2L-5.35 -19.85L-13.5 -20.65L-13.55 -20.65M-28.6,-25.6L-28.6 -25.45L-28.65 -24.7L-28.65 -23.7L-28.7 -21.75L-28.45 -20.1M-13.55,-24.45L-13.6 -25.25" />
</g>
</svg>
