<?xml version="1.0" encoding="utf-8"?>
<svg version="1.1" id="Layer_1"
xmlns="http://www.w3.org/2000/svg"
xmlns:xlink="http://www.w3.org/1999/xlink"
xmlns:author="http://www.sothink.com"
width="42px" height="7px"
xml:space="preserve">
<g id="204" transform="matrix(1, 0, 0, 1, 15.6, 3.35)">
<path style="fill:#C9DCF3;fill-opacity:0.988235" d="M5.65,-0.05L6.6 0.45L7.5 -0.2Q8.05 -0.9 9.15 -0.9Q10.25 -0.9 10.8 -0.4L11.45 0.4L12 0L13 -0.15Q14.1 -0.15 14.8 0.5L15.3 0.05Q16.15 -0.6 16.7 -0.6Q18.15 -0.6 18.45 -0.2L19 -0.4L19.65 -0.8L21.6 -1.65L25.3 -1.9Q25.95 -1.7 25.95 -0.95Q25.95 -0.05 24.25 0.95Q22.65 1.9 20.85 2.15L15.6 2.15L15.6 2.25L15.2 2.4L15.05 2.25L15.05 2.15L15 2.15L14.8 2.1L11.4 2.8L6 2.85Q4.85 3.4 3.8 3.35L-12.45 3.1Q-13.3 3.1 -13.3 2.55L-13.05 2.1Q-12.75 1.75 -12.45 1.75L-12.25 1.45L-12.3 1.3L-14.25 1.1L-14.4 0.75Q-14.4 0.35 -13.8 0.2L-11.1 -0.35Q-11.3 -0.8 -13.4 -1.7Q-15.45 -2.55 -15.6 -3.35Q-11.65 -3.55 -10 -2L-7.65 0.25L-6.55 0.25L-3.15 -0.05L-2.5 -0.6L-0.85 -0.75L1 -0.45L1.8 -0.2L3.75 -0.6Q4.8 -0.6 5.65 -0.05M17.65,0.2L17.7 0.15L17.55 0.15L17.65 0.2M15.6,1.2L15.45 1L15.3 1.1L15.5 1.4L15.8 1.4L15.6 1.2" />
</g>
</svg>
