<?xml version="1.0" encoding="utf-8"?>
<svg version="1.1" id="Layer_1"
xmlns="http://www.w3.org/2000/svg"
xmlns:xlink="http://www.w3.org/1999/xlink"
xmlns:author="http://www.sothink.com"
width="58px" height="35px"
xml:space="preserve">
<g id="179" transform="matrix(1, 0, 0, 1, 28.95, 16.45)">
<path style="fill:#FF0000;fill-opacity:0" d="M-28.95,-16.35L28.1 -16.35L28.1 17.95L-28.95 17.95L-28.95 -16.35" />
<path style="fill:#FF0000;fill-opacity:0" d="M27.8,-16.45L27.8 16.5L-28.8 16.5L-28.8 -16.45L27.8 -16.45" />
<path style="fill:#FFCC00;fill-opacity:1" d="M-18.8,-0.5Q-20.9 0.1 -20.9 0.8Q-20.9 1.45 -19.5 2.65Q-17.75 4.15 -15.85 3.95L-14.65 3.95Q-14.25 3.6 -14.15 2.9L-14.15 1.7L-14.2 1Q-14.35 0.4 -14.9 0.3L-14.9 0.2L-14.5 0.05L-14.3 -0.3L-18.8 -0.5M-14.75,-3.6L-14.15 -3.15L-13.2 -2.3Q-12.8 -1.9 -12.8 -0.5L-13.4 4.65Q-13.45 6.6 -14.75 7.05L-17.35 7.2Q-21.3 7.2 -23.5 5.8Q-25.65 4.5 -27.35 1.1L-23.3 -2.05Q-20.05 -4.2 -18.4 -4.2L-15.15 -3.7L-14.75 -3.6" />
<path style="fill:#FF6600;fill-opacity:1" d="M-14.3,-0.3L-14.5 0.05L-14.9 0.2L-14.9 0.3Q-14.35 0.4 -14.2 1L-14.15 1.7L-14.15 2.9Q-14.25 3.6 -14.65 3.95L-15.85 3.95Q-17.75 4.15 -19.5 2.65Q-20.9 1.45 -20.9 0.8Q-20.9 0.1 -18.8 -0.5L-14.3 -0.3" />
<path style="fill:none;stroke-width:1;stroke-linecap:butt;stroke-linejoin:miter;stroke-miterlimit:3;stroke:#FF6600;stroke-opacity:1" d="M-15.15,-3.7L-18.4 -4.2Q-20.05 -4.2 -23.3 -2.05L-27.35 1.1Q-25.65 4.5 -23.5 5.8Q-21.3 7.2 -17.35 7.2L-14.75 7.05Q-13.45 6.6 -13.4 4.65L-12.8 -0.5Q-12.8 -1.9 -13.2 -2.3L-14.15 -3.15L-14.75 -3.6L-15.15 -3.7z" />
<path style="fill:#B66F28;fill-opacity:1" d="M14.05,7.45L14.25 7.45L14.1 8.2L14.05 7.45" />
<path style="fill:#666666;fill-opacity:1" d="M-11.85,6.4L-11.85 6.75L-11.75 7.45L-13.7 7.5L-15.4 7.2Q-16.2 6.65 -16.2 4.05L-16.05 -0.35L-16.1 -1.8L-14.8 -1.6L-13.35 -1.5L-12 -1.5L-11.95 3.65L-11.85 6.4" />
<path style="fill:#2C2727;fill-opacity:1" d="M17.35,-1.35Q14.9 -2.05 12.65 -4Q13.75 -5.65 18.15 -5.9L19.75 -5.95L20.8 -5.85L21.8 -5.8Q21.9 -4.9 22.55 -2.05L22.95 -0.35Q18.7 -0.9 17.35 -1.35M3.85,-2.4Q2.95 -3.15 2.4 -4L2.4 -4.2L2.45 -4.65L2.55 -5.2Q2.8 -5.7 3.7 -5.7Q5.9 -5.7 6.35 -5.3Q6.8 -4.9 6.8 -2.75L6.8 -0.9Q5.2 -1.25 3.85 -2.4M19.35,-3.05Q19.7 -2.5 20.3 -2.5Q20.75 -2.5 20.75 -3.35Q20.75 -4 19.95 -4.2Q19.15 -4.45 19.15 -3.6L19.35 -3.05" />
<path style="fill:#918E8E;fill-opacity:1" d="M-12,-1.5L-13.35 -1.5L-14.8 -1.6L-16.1 -1.8L-16.1 -2.7Q-16 -4.2 -14.9 -4.2L-12 -4.1L-12 -1.5" />
<path style="fill:#3F3838;fill-opacity:1" d="M22.95,-0.35L23.25 1.4L23.3 1.7L21.25 1.5L18.95 1.3Q15.4 1.4 14 0.7Q13.3 0.35 12.9 -0.3Q12.25 -1.2 12.25 -2.75L12.25 -2.9Q12.3 -3.55 12.65 -4Q14.9 -2.05 17.35 -1.35Q18.7 -0.9 22.95 -0.35M2.4,-4Q2.95 -3.15 3.85 -2.4Q5.2 -1.25 6.8 -0.9L6.5 -0.4L5.35 -0.15L3.1 -0.35L2.85 -0.5Q2.25 -1.05 2.25 -2.3L2.3 -3.05L2.4 -3.6L2.4 -4" />
<path style="fill:#6D6161;fill-opacity:1" d="M19.15,-3.6Q19.15 -4.45 19.95 -4.2Q20.75 -4 20.75 -3.35Q20.75 -2.5 20.3 -2.5Q19.7 -2.5 19.35 -3.05L19.15 -3.6" />
<path style="fill:#D06F2F;fill-opacity:1" d="M-8.9,3.65L-8.95 3.55Q-10.5 1.7 -10.55 -1.4L-10.55 -1.45L-10.55 -1.55L-10.15 -6.8Q-10.15 -8.6 -10.85 -10.3Q-11.2 -11.2 -11.65 -11.7L-11.8 -13.85L-10.35 -13.5Q-6.4 -13.1 -5.85 -12.6L-4.45 -11L-4.1 -10.55L-2.4 -8.55Q-1.55 -7.7 -0.2 -7.5L2.25 -7.35L12.25 -7.15L17 -7.25L18.8 -7Q20.3 -6.65 20.8 -5.85L19.75 -5.95L18.15 -5.9Q13.75 -5.65 12.65 -4Q12.3 -3.55 12.25 -2.9L11.95 -2.7Q11.1 -2.05 11.1 -1.25Q11.1 0.25 12.05 1.3Q13.55 3.05 17.75 3.5L-8.9 3.65M13.4,6.05L26.6 5.9L26.3 7.65L25.85 9.05L25.85 9.1L20.4 8.6L14.25 7.45L14.05 7.45L13.4 6.05M4.2,6.15L3.55 6.6L3.95 6.9L5.8 7.4L7.3 7.1L9 6.75L9.15 6.75Q9.9 6.75 10.85 7.2Q11.95 7.7 11.95 8.35Q11.95 8.85 10.6 10.45Q9.65 11.6 9.4 12.6L7.75 13.55L3.95 14.95Q1.25 15.85 -0.8 15.95Q-2.9 16 -2.9 15.15L-2.8 14L-2.6 13.6L-0.55 10.6L1.05 8.7L3.4 6.7Q3.2 6.4 2.75 6.2L4.2 6.15M2.05,-4.75L1.95 -4.75Q0.5 -4.75 0.5 -2Q0.5 0.1 1.9 0.85L2.1 0.95L5.6 1.4Q6.55 1.4 6.55 0.3L6.5 -0.4L6.8 -0.9L6.8 -2.75Q6.8 -4.9 6.35 -5.3Q5.9 -5.7 3.7 -5.7Q2.8 -5.7 2.55 -5.2L2.45 -4.65L2.05 -4.75" />
<path style="fill:#F5A46E;fill-opacity:1" d="M20.8,-5.85Q20.3 -6.65 18.8 -7L17 -7.25L12.25 -7.15L2.25 -7.35L-0.2 -7.5Q-1.55 -7.7 -2.4 -8.55L-4.1 -10.55L-4.45 -11L-5.85 -12.6Q-6.4 -13.1 -10.35 -13.5L-11.8 -13.85L-11.85 -14.55Q-11.85 -15.3 -10.35 -15.45L-8.25 -15.45L-5.4 -15.35Q-5 -15.15 -3.55 -13.35L-3 -12.65L-0.9 -10.15L0.2 -9.95L1.9 -9.8L5.25 -9.8L11.95 -9.3L15.3 -9L18.65 -8.85L19.35 -8.85Q24 -8.7 24 -6.95Q24 -5.75 22.5 -5.75L21.8 -5.8L20.8 -5.85M18.35,3.5L18.35 3.55L17.75 3.5Q13.55 3.05 12.05 1.3Q11.1 0.25 11.1 -1.25Q11.1 -2.05 11.95 -2.7L12.25 -2.9L12.25 -2.75Q12.25 -1.2 12.9 -0.3Q13.3 0.35 14 0.7Q15.4 1.4 18.95 1.3L21.25 1.5L23.3 1.7L23.6 1.7L26 1.85Q26.65 2.2 26.7 3.45L18.35 3.5M4.2,6.15Q6 5.05 7.75 5.05L9.05 5L10.5 5.1L12.15 5.4Q12.9 5.5 13.4 6.05L14.05 7.45L14.1 8.2Q14.1 9.4 11.1 11.5L9.4 12.6Q9.65 11.6 10.6 10.45Q11.95 8.85 11.95 8.35Q11.95 7.7 10.85 7.2Q9.9 6.75 9.15 6.75L9 6.75L7.3 7.1L5.8 7.4L3.95 6.9L3.55 6.6L4.2 6.15M2.4,-3.6L2.3 -3.05L2.25 -2.3Q2.25 -1.05 2.85 -0.5L3.1 -0.35L5.35 -0.15L6.5 -0.4L6.55 0.3Q6.55 1.4 5.6 1.4L2.1 0.95L1.9 0.85Q0.5 0.1 0.5 -2Q0.5 -4.75 1.95 -4.75L2.05 -4.75L2.45 -4.65L2.4 -4.2L2.4 -4L2.4 -3.6" />
<path style="fill:#A65A29;fill-opacity:1" d="M14.25,7.45L20.4 8.6L25.85 9.1Q24.9 11.05 23.05 11.4Q16.65 11 11.1 11.5Q14.1 9.4 14.1 8.2L14.25 7.45M-11.85,6.75L-11.85 6.4L2.75 6.2Q3.2 6.4 3.4 6.7L1.05 8.7L-0.55 10.6L-4.6 10.55L-7.35 10.4L-8.9 10.3Q-9.8 10.2 -10.45 9.6Q-11.45 8.6 -11.75 7.45L-11.85 6.75M-11.95,3.65L-12 -1.5L-12 -4.1L-12 -5.95L-11.8 -8.65L-11.65 -11.4L-11.65 -11.7Q-11.2 -11.2 -10.85 -10.3Q-10.15 -8.6 -10.15 -6.8L-10.55 -1.55L-10.55 -1.45L-10.55 -1.4Q-10.5 1.7 -8.95 3.55L-8.9 3.65L-11.95 3.65" />
<path style="fill:#FCDEC9;fill-opacity:1" d="M-11.95,3.65L-8.9 3.65L17.75 3.5L18.35 3.55L18.35 3.5L26.7 3.45L26.7 3.7L26.6 5.9L13.4 6.05Q12.9 5.5 12.15 5.4L10.5 5.1L9.05 5L7.75 5.05Q6 5.05 4.2 6.15L2.75 6.2L-11.85 6.4L-11.95 3.65" />
<path style="fill:none;stroke-width:1;stroke-linecap:butt;stroke-linejoin:miter;stroke-miterlimit:3;stroke:#5D2907;stroke-opacity:1" d="M23.3,1.7L21.25 1.5L18.95 1.3Q15.4 1.4 14 0.7Q13.3 0.35 12.9 -0.3Q12.25 -1.2 12.25 -2.75L12.25 -2.9Q12.3 -3.55 12.65 -4Q13.75 -5.65 18.15 -5.9L19.75 -5.95L20.8 -5.85L21.8 -5.8L22.5 -5.75Q24 -5.75 24 -6.95Q24 -8.7 19.35 -8.85L18.65 -8.85L15.3 -9L11.95 -9.3L5.25 -9.8L1.9 -9.8L0.2 -9.95L-0.9 -10.15L-3 -12.65L-3.55 -13.35Q-5 -15.15 -5.4 -15.35L-8.25 -15.45L-10.35 -15.45Q-11.85 -15.3 -11.85 -14.55L-11.8 -13.85M21.8,-5.8Q21.9 -4.9 22.55 -2.05L22.95 -0.35L23.25 1.4M23.3,1.7L23.6 1.7L26 1.85Q26.65 2.2 26.7 3.45L26.7 3.7L26.6 5.9L26.3 7.65L25.85 9.05L25.85 9.1Q24.9 11.05 23.05 11.4Q16.65 11 11.1 11.5L9.4 12.6L7.75 13.55L3.95 14.95Q1.25 15.85 -0.8 15.95Q-2.9 16 -2.9 15.15L-2.8 14L-2.6 13.6L-0.55 10.6L-4.6 10.55L-7.35 10.4L-8.9 10.3Q-9.8 10.2 -10.45 9.6Q-11.45 8.6 -11.75 7.45L-13.7 7.5L-15.4 7.2Q-16.2 6.65 -16.2 4.05L-16.05 -0.35L-16.1 -1.8L-16.1 -2.7Q-16 -4.2 -14.9 -4.2L-12 -4.1L-12 -5.95L-11.8 -8.65L-11.65 -11.4L-11.65 -11.7L-11.8 -13.85M6.8,-0.9L6.8 -2.75Q6.8 -4.9 6.35 -5.3Q5.9 -5.7 3.7 -5.7Q2.8 -5.7 2.55 -5.2L2.45 -4.65L2.4 -4.2L2.4 -4M6.8,-0.9L6.5 -0.4L5.35 -0.15L3.1 -0.35L2.85 -0.5Q2.25 -1.05 2.25 -2.3L2.3 -3.05L2.4 -3.6L2.4 -4M-0.55,10.6L1.05 8.7L3.4 6.7L3.55 6.6L4.2 6.15Q6 5.05 7.75 5.05L9.05 5L10.5 5.1L12.15 5.4Q12.9 5.5 13.4 6.05L14.05 7.45L14.1 8.2Q14.1 9.4 11.1 11.5M-11.85,6.4L-11.85 6.75L-11.75 7.45M-12,-4.1L-12 -1.5L-11.95 3.65M-11.85,6.4L-11.95 3.65" />
<path style="fill:none;stroke-width:0.1;stroke-linecap:butt;stroke-linejoin:miter;stroke-miterlimit:3;stroke:#874921;stroke-opacity:1" d="M7.05,-3.05L11.8 -2.85M16.5,1.9L16.7 11.05" />
<path style="fill:none;stroke-width:0.1;stroke-linecap:round;stroke-linejoin:miter;stroke-miterlimit:3;stroke:#874921;stroke-opacity:1" d="M-1.1,-9.75L-1.2 -2.85M-11.75,2.4L-1.25 2.4" />
<path style="fill:none;stroke-width:0.1;stroke-linecap:butt;stroke-linejoin:miter;stroke-miterlimit:3;stroke:#874921;stroke-opacity:1" d="M-1.2,-2.85L1.95 -2.95M-1.25,2.4L-1.4 10.25" />
<path style="fill:none;stroke-width:0.1;stroke-linecap:round;stroke-linejoin:miter;stroke-miterlimit:3;stroke:#874921;stroke-opacity:1" d="M-1.25,2.4L-1.2 -2.85" />
</g>
</svg>
