<?xml version="1.0" encoding="utf-8"?>
<svg version="1.1" id="Layer_1"
xmlns="http://www.w3.org/2000/svg"
xmlns:xlink="http://www.w3.org/1999/xlink"
xmlns:author="http://www.sothink.com"
width="322px" height="288px"
xml:space="preserve">
<g id="110" transform="matrix(1, 0, 0, 1, 177.3, 275.65)">
<path style="fill:#8CAAC9;fill-opacity:1" d="M-64.5,-268.25L-47.75 -269.15L-41.35 -268.85Q-37.85 -268.3 -37.85 -266.2Q-37.85 -263.85 -40.1 -259.65L-170.4 -259.65Q-168.15 -264.25 -164.45 -265.35L-160.3 -265.7L-160.55 -265.7L-150.4 -266.75L-144.65 -267.25Q-144.6 -265.85 -144.2 -264.95L-143.2 -263.65Q-141.85 -262.7 -135.9 -262.7L-114.75 -263.35Q-102.7 -263.9 -94.5 -263.4Q-91.8 -263.25 -84.95 -263.6Q-78.65 -263.9 -74.9 -263.6L-69.8 -263Q-66.5 -262.8 -65.4 -264.35L-65.05 -264.95Q-64.6 -266.1 -64.5 -268.25" />
<path style="fill:#7592AF;fill-opacity:1" d="M-41.65,-257L-42.2 -256.15L-45 -252.05Q-51.9 -242.4 -55.4 -240.8Q-62.45 -237.55 -68.95 -236.5L-84.4 -235.7Q-95.75 -235.7 -117.1 -238.6Q-138.45 -241.5 -149.25 -241.5L-155.65 -241L-161.55 -240.5L-172.7 -240.8Q-176.8 -241.4 -176.8 -243.7Q-176.8 -244.55 -176.25 -245.4Q-175.8 -246.05 -175.65 -247.2L-175 -248Q-174.05 -249.75 -173.05 -252.55L-172.15 -255.05L-41.65 -257" />
<path style="fill:#5E7A95;fill-opacity:1" d="M-172.15,-255.05L-171.75 -256.15L-170.95 -258.45L-170.4 -259.65L-40.1 -259.65L-41.65 -257L-172.15 -255.05" />
<path style="fill:#D75535;fill-opacity:1" d="M-135.05,-264.95Q-100.05 -267.05 -65.05 -264.95L-65.4 -264.35Q-66.5 -262.8 -69.8 -263L-74.9 -263.6Q-78.65 -263.9 -84.95 -263.6Q-91.8 -263.25 -94.5 -263.4Q-102.7 -263.9 -114.75 -263.35L-135.9 -262.7Q-141.85 -262.7 -143.2 -263.65L-144.2 -264.95L-135.05 -264.95" />
<path style="fill:#EC7254;fill-opacity:1" d="M-65.05,-264.95Q-100.05 -267.05 -135.05 -264.95L-144.2 -264.95Q-144.6 -265.85 -144.65 -267.25L-144.25 -267.25L-135.05 -267.3Q-125.35 -267.3 -114.35 -267.75Q-103.35 -268.25 -98.25 -267.6L-90.2 -267.3L-76.3 -267.7L-64.5 -268.25Q-64.6 -266.1 -65.05 -264.95" />
<path style="fill:none;stroke-width:0.1;stroke-linecap:butt;stroke-linejoin:miter;stroke-miterlimit:3;stroke:#34495F;stroke-opacity:1" d="M-175.65,-247.2L-175.55 -248.15L-175 -248" />
<path style="fill:none;stroke-width:1;stroke-linecap:butt;stroke-linejoin:miter;stroke-miterlimit:3;stroke:#34495F;stroke-opacity:1" d="M-64.5,-268.25L-47.75 -269.15L-41.35 -268.85Q-37.85 -268.3 -37.85 -266.2Q-37.85 -263.85 -40.1 -259.65L-41.65 -257L-35 -257.1M-164.45,-265.35Q-168.15 -264.25 -170.4 -259.65M-41.65,-257L-42.2 -256.15L-45 -252.05Q-51.9 -242.4 -55.4 -240.8Q-62.45 -237.55 -68.95 -236.5L-84.4 -235.7Q-95.75 -235.7 -117.1 -238.6Q-138.45 -241.5 -149.25 -241.5L-155.65 -241L-161.55 -240.5L-172.7 -240.8Q-176.8 -241.4 -176.8 -243.7Q-176.8 -244.55 -176.25 -245.4Q-175.8 -246.05 -175.65 -247.2L-175 -248Q-174.05 -249.75 -173.05 -252.55L-172.15 -255.05L-171.75 -256.15L-170.95 -258.45L-170.4 -259.65M-164.45,-265.35L-164.05 -265.45L-160.55 -265.7M-41.65,-257L-172.15 -255.05" />
<path style="fill:none;stroke-width:1;stroke-linecap:butt;stroke-linejoin:miter;stroke-miterlimit:3;stroke:#833825;stroke-opacity:1" d="M-144.2,-264.95L-143.2 -263.65Q-141.85 -262.7 -135.9 -262.7L-114.75 -263.35Q-102.7 -263.9 -94.5 -263.4Q-91.8 -263.25 -84.95 -263.6Q-78.65 -263.9 -74.9 -263.6L-69.8 -263Q-66.5 -262.8 -65.4 -264.35L-65.05 -264.95M-64.5,-268.25Q-64.6 -266.1 -65.05 -264.95" />
<path style="fill:none;stroke-width:1;stroke-linecap:butt;stroke-linejoin:miter;stroke-miterlimit:3;stroke:#833825;stroke-opacity:1" d="M-144.65,-267.25L-144.25 -267.25L-135.05 -267.3Q-125.35 -267.3 -114.35 -267.75Q-103.35 -268.25 -98.25 -267.6L-90.2 -267.3L-76.3 -267.7L-64.5 -268.25" />
<path style="fill:none;stroke-width:1;stroke-linecap:round;stroke-linejoin:miter;stroke-miterlimit:3;stroke:#833825;stroke-opacity:1" d="M-144.2,-264.95Q-144.6 -265.85 -144.65 -267.25" />
<path style="fill:none;stroke-width:1;stroke-linecap:butt;stroke-linejoin:miter;stroke-miterlimit:3;stroke:#34495F;stroke-opacity:1" d="M-144.65,-267.25L-150.4 -266.75L-160.55 -265.7L-160.3 -265.7" />
<path style="fill:#D2E2F3;fill-opacity:1" d="M-75.3,-11.1L-75.3 -7.35L-117 -6.85L-117.2 -6.85L-119.1 -12.45L-75.3 -12.8L-75.3 -11.65L-75.25 -12.8L74.15 -14.05L114.65 -14.4L114.85 -9.6L74 -9.1L-75.1 -7.35L-75.3 -11.1" />
<path style="fill:#AD5252;fill-opacity:1" d="M-74.05,9.55L-78.55 9.7L-104.05 8.65Q-111.95 6.95 -117 -6.3L-117 -6.85L-75.3 -7.35L-75.1 -7.35L74 -9.1L114.85 -9.6L115.05 -5.2Q115.05 3.7 112.45 7.3Q110.15 10.5 104.7 10.8L92.1 10.1Q82.25 9.25 74.8 9.9L72.8 9.75L72.75 10.1L66.3 10.65Q54 11.6 46.1 11.1Q35.55 10.4 29.8 10.85Q24 11.3 -18.45 10.2Q-55.85 9.2 -74 9.55L-74 8.7L-74.05 9.55" />
<path style="fill:#8CAAC9;fill-opacity:1" d="M-75.3,-11.65L-75.3 -12.8L-119.1 -12.45Q-122.15 -22.9 -122.35 -33.95L-122.4 -46.75Q-122.45 -51.8 -122.65 -56L-123.05 -60.55Q-123.7 -66.7 -124.85 -73.2Q-124.25 -75.7 -124.25 -76.85Q-124.25 -85.15 -126.3 -96.4Q-127.2 -101.25 -128.45 -106.55Q-132.6 -123.8 -140.65 -146.65L-151.95 -178.2Q-157.1 -193.3 -157.1 -198.75Q-157.1 -206.4 -154.45 -210.05L-152 -210Q-147.15 -210 -142.25 -211.1Q-137.35 -212.25 -130.15 -212.25L-124.3 -212Q-111.95 -211.5 -105.4 -211.5Q-101.9 -211.5 -93.9 -208.6Q-85.85 -205.7 -84.25 -205.7Q-81.5 -205.7 -68.25 -210.9Q-54.65 -216.3 -50 -216.6Q-45.3 -216.95 -35.4 -225.95Q-24.9 -235.6 -19.5 -237L-13.5 -238.3Q0.05 -240.85 27.8 -243.45Q60.2 -246.5 75.85 -246.5L84.45 -245.8L93 -245.1L115.1 -246.1Q115.25 -229.45 115.8 -208.45Q116.55 -180.7 118.1 -145.4L119.85 -106.75L121.1 -82.4Q121.1 -71.6 117.45 -58.45Q113.75 -45.3 113.75 -35.75L114.65 -14.4L74.15 -14.05L-75.25 -12.8L-75.3 -11.65M74.8,9.9L72.75 10.1L72.8 9.75L74.8 9.9M-74,8.7L-74 9.55L-74.05 9.55L-74 8.7M-117,-6.3L-117.2 -6.85L-117 -6.85L-117 -6.3M43.35,-210L41 -213.05Q35.35 -219.5 29.1 -219.6L28.9 -219.3L28.5 -218.85L28 -219.2Q27.7 -219.6 28.9 -219.6L29.1 -219.6L29.25 -220.25L22.7 -220.25Q16.95 -217.2 15.95 -214.9Q15.45 -213.8 15.45 -207.5L15.45 -207.1Q15.55 -198.3 20.55 -192.7Q25.7 -186.9 33.95 -186.9L34.3 -186.9Q40.8 -187 43.9 -190.55Q46.7 -193.75 46.7 -199.5Q46.7 -204.9 43.35 -210M93.05,-209.2Q91.1 -212.25 87.7 -214.9L78.5 -221L76.6 -221Q70.05 -220.2 67.7 -216.95Q65.85 -214.35 65.7 -208.45L65.7 -207.5Q65.7 -197.4 71.55 -191.95Q76.95 -186.9 86.05 -186.9Q90.8 -186.9 93.4 -191.25Q95.65 -194.9 95.65 -200.25Q95.65 -205.1 93.05 -209.2M13.75,-200.1L13.9 -201.2Q13.9 -202.5 12.8 -202.35Q11.7 -202.2 11.7 -200.7L11.75 -199.85Q11.85 -199.4 12.3 -199.2Q13.5 -199.75 13.75 -200.1M-11.05,-210.3Q-14.9 -212.1 -14.9 -217.2L-14.9 -217.6Q-18.35 -220.05 -21 -221L-22.7 -222.05L-25.4 -222.4Q-30.35 -222.4 -33.25 -218.85Q-36.15 -215.3 -36.15 -209.35Q-36.15 -200.3 -29.05 -194.1Q-22.4 -188.3 -14.05 -188.3Q-2.8 -188.3 -2.8 -200.25Q-2.8 -204.55 -5.65 -208.75Q-9.35 -209.5 -11.05 -210.3M67.25,-236.15Q67.25 -236.9 66.9 -237.15L64.95 -237.25L64.95 -235.9L65.5 -235.4Q66.1 -234.9 66.5 -234.9L67.15 -235.15L67.25 -236.15M65.45,-230.35L65.8 -228.45Q66.7 -226.6 69.45 -226.6Q71.45 -226.6 72.65 -228.75Q73.5 -230.3 73.5 -231.5Q73.5 -234.85 69.5 -234.3Q65.45 -233.75 65.45 -230.35M81.3,-173.3L82 -171.3Q83.05 -169.35 85.1 -169.35Q87.05 -169.35 88.15 -171.75Q88.9 -173.4 88.9 -174.65Q88.9 -177.9 85.1 -177.65Q81.3 -177.35 81.3 -173.3M89.15,-162.95Q89.15 -165.6 87.25 -165.95Q85.3 -166.35 85.3 -163.6L85.5 -162.3Q86.05 -160.85 87.7 -160.85Q88.8 -160.85 89.1 -161.75L89.15 -162.95M11.3,-190.55Q12.9 -190.55 13.4 -191.75L13.65 -193.6Q13.65 -197.35 10.05 -197.35Q9.05 -197.35 8.4 -196.2Q7.9 -195.3 7.9 -194.25Q7.9 -193.35 8.4 -192.3Q9.3 -190.55 11.3 -190.55M32.15,-25.85Q32.15 -27.3 20.95 -43.85Q8.5 -62 6 -65.85Q-0.2 -75.55 -9.7 -79.25Q-18.25 -81.6 -22.9 -83.95L-27.05 -81.7Q-32.6 -78.25 -32.6 -75.45Q-32.6 -73.25 -31.5 -65.85Q-30.45 -58.5 -30.45 -56.85L-31.15 -46.45L-31.85 -36.05Q-31.85 -24.75 -14.4 -20.8Q-4.55 -18.55 14.7 -18.55Q19.6 -18.55 24.85 -20Q32.15 -22.1 32.15 -25.85M-67.6,-132.35Q-67.35 -133.05 -67.35 -133.95Q-67.35 -136.4 -69.1 -136.3Q-70.9 -136.2 -70.9 -134.05L-70.65 -132.6Q-70.2 -131.2 -68.9 -131.2Q-68 -131.2 -67.6 -132.35M-78.35,-115L-77.7 -114.85Q-77.35 -114.85 -77.05 -115.1Q-76.65 -115.45 -76.65 -116.15L-76.65 -116.65Q-76.85 -117.1 -77.6 -117.1L-78.3 -116.85L-78.45 -116.05L-78.35 -115M-62.9,-100.05Q-62.25 -98.3 -59.85 -98.3Q-58.35 -98.3 -57.6 -100.2Q-57.1 -101.45 -57.1 -102.55Q-57.1 -105.6 -60.1 -106.1Q-63.1 -106.55 -63.1 -101.85L-62.9 -100.05M-53.35,-103.95Q-52.8 -103.05 -51.3 -103.05Q-50.2 -103.05 -49.6 -103.7Q-49.1 -104.25 -49.1 -105.1Q-49.1 -106.9 -51.35 -106.85Q-53.6 -106.8 -53.6 -104.9L-53.35 -103.95M-115.55,-42.7Q-115.55 -26.7 -99.5 -21.55Q-91.85 -19.05 -75.15 -18.65L-67.9 -18.55Q-60.05 -18.55 -56.55 -20.05Q-51.4 -22.25 -51.4 -28.45Q-51.4 -35.85 -58.5 -45.05Q-63.7 -51.8 -74.45 -61.4Q-86.45 -71.7 -91.3 -76.3Q-96.85 -81.55 -99.3 -85.3L-99.7 -85.95L-104.3 -86.3Q-110.25 -86.3 -113.4 -67.35Q-114.35 -61.55 -114.9 -56Q-115.55 -49.2 -115.55 -42.7M-118.15,-91.6L-118.25 -92.35Q-118.45 -92.8 -119.25 -93L-122.25 -92.7Q-122.45 -92.55 -122.45 -91.85L-122.35 -91Q-122.05 -90.6 -120.75 -90.05L-119 -90.05Q-118.15 -90.35 -118.15 -91.6M-114.7,-79.25Q-114.35 -80.1 -114.35 -81.1Q-114.35 -82.9 -116.25 -82.35Q-118.15 -81.85 -118.15 -79.9L-118.15 -78.95Q-117.85 -78.2 -116 -78.2Q-115.15 -78.2 -114.7 -79.25M-75.3,-7.35L-75.3 -11.1L-75.1 -7.35L-75.3 -7.35M-78.25,-57.35L-80.35 -57.85Q-80.95 -58.1 -80.25 -59.75Q-78.65 -59.75 -78.25 -59.35L-78.25 -57.35" />
<path style="fill:#7592AF;fill-opacity:1" d="M-124.85,-73.2Q-126.9 -84.35 -130.55 -96.4L-133.45 -105.45Q-138.05 -118.9 -150.25 -147.75Q-161.6 -174.55 -166.2 -189.15Q-170 -201.25 -172 -212.35Q-173.8 -222.3 -174.1 -231.5L-174.75 -227.5L-174.75 -228.1Q-174.65 -233.15 -171.9 -235.25Q-169.75 -236.9 -165.3 -236.9L-146.9 -235.6L-132.85 -236.55L-122.85 -237.35L-117.7 -237.55L-104.05 -236.25Q-95.45 -234.95 -89.2 -234.95Q-77.55 -234.95 -64.65 -238.55Q-48.05 -243.15 -44.5 -251Q-40.6 -259.65 -22.8 -265.8Q-16.05 -268.1 -10.95 -269.25Q-5.85 -270.45 -2.4 -270.45L7.55 -269.75L19.7 -269.05L53.95 -272.1L93.9 -275.15Q109 -275.15 112.35 -271.85Q114.15 -270 114.7 -266.15Q115.05 -263.55 115.05 -256.4L115.1 -246.1L93 -245.1L84.45 -245.8L75.85 -246.5Q60.2 -246.5 27.8 -243.45Q0.05 -240.85 -13.5 -238.3L-19.5 -237Q-24.9 -235.6 -35.4 -225.95Q-45.3 -216.95 -50 -216.6Q-54.65 -216.3 -68.25 -210.9Q-81.5 -205.7 -84.25 -205.7Q-85.85 -205.7 -93.9 -208.6Q-101.9 -211.5 -105.4 -211.5Q-111.95 -211.5 -124.3 -212L-130.15 -212.25Q-137.35 -212.25 -142.25 -211.1Q-147.15 -210 -152 -210L-154.45 -210.05Q-157.1 -206.4 -157.1 -198.75Q-157.1 -193.3 -151.95 -178.2L-140.65 -146.65Q-132.6 -123.8 -128.45 -106.55Q-127.2 -101.25 -126.3 -96.4Q-124.25 -85.15 -124.25 -76.85Q-124.25 -75.7 -124.85 -73.2M46.7,-199.5Q46.7 -193.75 43.9 -190.55Q40.8 -187 34.3 -186.9L33.95 -186.9Q25.7 -186.9 20.55 -192.7Q15.55 -198.3 15.45 -207.1L15.45 -207.5Q15.45 -213.8 15.95 -214.9Q16.95 -217.2 22.7 -220.25L29.25 -220.25L29.1 -219.6L28.9 -219.6Q27.7 -219.6 28 -219.2L28.5 -218.85L28.9 -219.3L29.1 -219.6Q35.35 -219.5 41 -213.05L43.35 -210Q46.7 -204.9 46.7 -199.5M95.65,-200.25Q95.65 -194.9 93.4 -191.25Q90.8 -186.9 86.05 -186.9Q76.95 -186.9 71.55 -191.95Q65.7 -197.4 65.7 -207.5L65.7 -208.45Q65.85 -214.35 67.7 -216.95Q70.05 -220.2 76.6 -221L78.5 -221L87.7 -214.9Q91.1 -212.25 93.05 -209.2Q95.65 -205.1 95.65 -200.25M12.3,-199.2Q11.85 -199.4 11.75 -199.85L11.7 -200.7Q11.7 -202.2 12.8 -202.35Q13.9 -202.5 13.9 -201.2L13.75 -200.1Q13.5 -199.75 12.3 -199.2M-5.65,-208.75Q-2.8 -204.55 -2.8 -200.25Q-2.8 -188.3 -14.05 -188.3Q-22.4 -188.3 -29.05 -194.1Q-36.15 -200.3 -36.15 -209.35Q-36.15 -215.3 -33.25 -218.85Q-30.35 -222.4 -25.4 -222.4L-22.7 -222.05L-21 -221Q-18.35 -220.05 -14.9 -217.6L-14.9 -217.2Q-14.9 -212.1 -11.05 -210.3Q-9.35 -209.5 -5.65 -208.75M67.15,-235.15L66.5 -234.9Q66.1 -234.9 65.5 -235.4L64.95 -235.9L64.95 -237.25L66.9 -237.15Q67.25 -236.9 67.25 -236.15L67.15 -235.15M69.5,-234.3Q73.5 -234.85 73.5 -231.5Q73.5 -230.3 72.65 -228.75Q71.45 -226.6 69.45 -226.6Q66.7 -226.6 65.8 -228.45L65.45 -230.35Q65.45 -233.75 69.5 -234.3M85.1,-177.65Q88.9 -177.9 88.9 -174.65Q88.9 -173.4 88.15 -171.75Q87.05 -169.35 85.1 -169.35Q83.05 -169.35 82 -171.3L81.3 -173.3Q81.3 -177.35 85.1 -177.65M89.1,-161.75Q88.8 -160.85 87.7 -160.85Q86.05 -160.85 85.5 -162.3L85.3 -163.6Q85.3 -166.35 87.25 -165.95Q89.15 -165.6 89.15 -162.95L89.1 -161.75M8.4,-192.3Q7.9 -193.35 7.9 -194.25Q7.9 -195.3 8.4 -196.2Q9.05 -197.35 10.05 -197.35Q13.65 -197.35 13.65 -193.6L13.4 -191.75Q12.9 -190.55 11.3 -190.55Q9.3 -190.55 8.4 -192.3M24.85,-20Q19.6 -18.55 14.7 -18.55Q-4.55 -18.55 -14.4 -20.8Q-31.85 -24.75 -31.85 -36.05L-31.15 -46.45L-30.45 -56.85Q-30.45 -58.5 -31.5 -65.85Q-32.6 -73.25 -32.6 -75.45Q-32.6 -78.25 -27.05 -81.7L-22.9 -83.95Q-18.25 -81.6 -9.7 -79.25Q-0.2 -75.55 6 -65.85Q8.5 -62 20.95 -43.85Q32.15 -27.3 32.15 -25.85Q32.15 -22.1 24.85 -20M-68.9,-131.2Q-70.2 -131.2 -70.65 -132.6L-70.9 -134.05Q-70.9 -136.2 -69.1 -136.3Q-67.35 -136.4 -67.35 -133.95Q-67.35 -133.05 -67.6 -132.35Q-68 -131.2 -68.9 -131.2M-78.45,-116.05L-78.3 -116.85L-77.6 -117.1Q-76.85 -117.1 -76.65 -116.65L-76.65 -116.15Q-76.65 -115.45 -77.05 -115.1Q-77.35 -114.85 -77.7 -114.85L-78.35 -115L-78.45 -116.05M-63.1,-101.85Q-63.1 -106.55 -60.1 -106.1Q-57.1 -105.6 -57.1 -102.55Q-57.1 -101.45 -57.6 -100.2Q-58.35 -98.3 -59.85 -98.3Q-62.25 -98.3 -62.9 -100.05L-63.1 -101.85M-53.6,-104.9Q-53.6 -106.8 -51.35 -106.85Q-49.1 -106.9 -49.1 -105.1Q-49.1 -104.25 -49.6 -103.7Q-50.2 -103.05 -51.3 -103.05Q-52.8 -103.05 -53.35 -103.95L-53.6 -104.9M-114.9,-56Q-114.35 -61.55 -113.4 -67.35Q-110.25 -86.3 -104.3 -86.3L-99.7 -85.95L-99.3 -85.3Q-96.85 -81.55 -91.3 -76.3Q-86.45 -71.7 -74.45 -61.4Q-63.7 -51.8 -58.5 -45.05Q-51.4 -35.85 -51.4 -28.45Q-51.4 -22.25 -56.55 -20.05Q-60.05 -18.55 -67.9 -18.55L-75.15 -18.65Q-91.85 -19.05 -99.5 -21.55Q-115.55 -26.7 -115.55 -42.7Q-115.55 -49.2 -114.9 -56M-119,-90.05L-120.75 -90.05Q-122.05 -90.6 -122.35 -91L-122.45 -91.85Q-122.45 -92.55 -122.25 -92.7L-119.25 -93Q-118.45 -92.8 -118.25 -92.35L-118.15 -91.6Q-118.15 -90.35 -119 -90.05M-116,-78.2Q-117.85 -78.2 -118.15 -78.95L-118.15 -79.9Q-118.15 -81.85 -116.25 -82.35Q-114.35 -82.9 -114.35 -81.1Q-114.35 -80.1 -114.7 -79.25Q-115.15 -78.2 -116 -78.2M-78.25,-59.35Q-78.65 -59.75 -80.25 -59.75Q-80.95 -58.1 -80.35 -57.85L-78.25 -57.35L-78.25 -59.35" />
<path style="fill:none;stroke-width:1;stroke-linecap:butt;stroke-linejoin:miter;stroke-miterlimit:3;stroke:#34495F;stroke-opacity:1" d="M115.1,-246.1L115.05 -256.4Q115.05 -263.55 114.7 -266.15Q114.15 -270 112.35 -271.85Q109 -275.15 93.9 -275.15L53.95 -272.1L19.7 -269.05L7.55 -269.75L-2.4 -270.45Q-5.85 -270.45 -10.95 -269.25L-12.45 -251.4L-13.5 -238.3M115.1,-246.1Q115.25 -229.45 115.8 -208.45Q116.55 -180.7 118.1 -145.4L119.85 -106.75L121.1 -82.4Q121.1 -71.6 117.45 -58.45Q113.75 -45.3 113.75 -35.75L114.65 -14.4L114.85 -9.6L115.05 -5.2Q115.05 3.7 112.45 7.3Q110.15 10.5 104.7 10.8L92.1 10.1Q82.25 9.25 74.8 9.9L72.75 10.1L66.3 10.65Q54 11.6 46.1 11.1Q35.55 10.4 29.8 10.85Q24 11.3 -18.45 10.2Q-55.85 9.2 -74 9.55L-74.05 9.55L-78.55 9.7L-104.05 8.65Q-111.95 6.95 -117 -6.3L-117.2 -6.85L-119.1 -12.45Q-122.15 -22.9 -122.35 -33.95L-122.4 -46.75Q-122.45 -51.8 -122.65 -56L-123.05 -60.55Q-123.7 -66.7 -124.85 -73.2Q-126.9 -84.35 -130.55 -96.4L-133.45 -105.45Q-138.05 -118.9 -150.25 -147.75Q-161.6 -174.55 -166.2 -189.15Q-170 -201.25 -172 -212.35Q-173.8 -222.3 -174.1 -231.5L-174.75 -227.5L-174.75 -228.1Q-174.65 -233.15 -171.9 -235.25Q-169.75 -236.9 -165.3 -236.9L-146.9 -235.6L-132.85 -236.55L-122.85 -237.35L-117.7 -237.55L-104.05 -236.25Q-95.45 -234.95 -89.2 -234.95Q-77.55 -234.95 -64.65 -238.55Q-48.05 -243.15 -44.5 -251Q-40.6 -259.65 -22.8 -265.8Q-16.05 -268.1 -10.95 -269.25M15.45,-207.1L20.75 -207.3Q30.15 -207.85 33.5 -208.85L35.05 -209.55Q36.3 -210.6 43.35 -210L49.95 -209.25L65.7 -208.45M93.05,-209.2L115.8 -208.45M15.45,-207.1L0 -207.8L-5.65 -208.75M-14.9,-217.6L-13.5 -238.3M-124.3,-212L-124.45 -205.9Q-124.45 -200.35 -123.7 -191.45L-122.5 -178.35Q-122.4 -177.05 -123.8 -165.15Q-124.8 -156.65 -121.95 -153.7Q-119.35 -151 -110.4 -150.9L-104.85 -150.8L-104.75 -150.8L-97.3 -150.55L-84.95 -148.1Q-78.15 -146.95 -73.9 -147.35L-73.85 -148.05Q-73.35 -155.5 -72.2 -160.15Q-70.15 -168.2 -65.15 -171.85Q-59.85 -175.75 -50.05 -175.75Q-24.3 -175.6 -11.7 -175.15L7.15 -174.05L25.75 -173.05L29.25 -173.05L33.15 -173.05L34.3 -186.9M93.05,-209.2L80.35 -209.65L65.7 -208.45M139.55,-209.65L139.55 -210.3M33.15,-173.05L32.1 -161.15Q29.9 -135.85 29.9 -120.35L29.8 -113.55Q29.85 -110.25 30.6 -108.5Q32.45 -104.25 41.25 -104.55L58.95 -104L71.7 -103.25L74.4 -103.25L107.7 -105.5L119.85 -106.75M143.3,-105.15L143.3 -106.45M30,-175.45Q30.45 -175.45 30.7 -175.9L30.9 -176.7Q30.9 -177.25 30.3 -177.25L29.75 -177L29.25 -176.35L29.2 -176.2L29.15 -176.1Q29.15 -175.45 30 -175.45M28.35,-170.05Q28.35 -169.15 29.3 -169.15Q29.65 -169.15 29.95 -169.45L30.2 -170.1Q30.2 -171.2 29.25 -171.2Q28.35 -171.2 28.35 -170.05M36.15,-108.95Q36.55 -109.35 36.55 -110.95Q36.15 -110.95 36.15 -111.35Q34.5 -110.7 34.15 -109.35Q34.55 -108.95 36.15 -108.95M69.7,-99.4Q70.15 -98.95 70.5 -98.95Q71.85 -98.95 71.85 -100.25Q71.85 -101.4 70.05 -101.4L69.75 -101.4L69.45 -101.05L69.25 -100.2Q69.25 -99.85 69.7 -99.4M77.15,-101L76.6 -100.4L76.55 -100.2L76.5 -100.05Q76.5 -99.6 77 -99.1Q77.45 -98.65 77.8 -98.65Q78.25 -98.65 78.7 -99.15Q79.1 -99.6 79.1 -99.95L78.65 -100.85Q78.25 -101.2 77.85 -101.2L77.15 -101M74.4,-103.25Q75.25 -83.1 74.3 -22.65L74.15 -14.05L74 -9.1M35.55,-204.05L34.3 -186.9M72.8,9.75L72.75 10.1M72.8,9.75Q73.55 2.85 74 -9.1M-75.1,-7.35L-74 8.6L-74 8.7M-124.3,-212Q-124.05 -219.65 -123.2 -232.1L-122.85 -237.35M-14.9,-217.6L-14.9 -217.2Q-14.9 -212.1 -11.05 -210.3Q-9.35 -209.5 -5.65 -208.75M-114.9,-56L-101.7 -56Q-96.8 -55.05 -87.2 -54.45L-78.4 -53.85L-74.55 -53.55L-74.45 -61.4Q-73.9 -97.85 -74 -113.35L-74.15 -140.65L-73.9 -147.35L-73.45 -147.4L-73.85 -148.05M-118.25,-154.95Q-117.85 -155.35 -117.85 -156.95Q-118.25 -156.95 -118.25 -157.35L-119.45 -157.2Q-120.25 -156.85 -120.25 -156.15L-119.85 -155.45Q-119.5 -155.15 -118.25 -154.95M-100.25,-146.55L-101.85 -146.55L-101.85 -146.15L-101.9 -145.95Q-102 -145.75 -102.25 -145.75Q-102.25 -144.95 -101.45 -144.15L-100.25 -144.15L-100.25 -146.55M-110.15,-146.65L-110.25 -144.95L-108.65 -144.95L-108.25 -146.95L-108.6 -147.15L-109.45 -147.35Q-110 -147.35 -110.15 -146.65M-104.75,-150.8Q-104.3 -149 -104.3 -145.85Q-104.3 -135.75 -104.8 -124.25Q-105.35 -112.35 -106.15 -105.15Q-107.05 -97.55 -119.35 -96.65L-126.3 -96.4M-112.7,-103.95Q-112.8 -103.75 -113.05 -103.75L-112.55 -103.55L-112.65 -102.95Q-112.65 -102.35 -112.45 -102.3L-112.25 -102.15L-110.25 -102.15Q-110.25 -103.75 -110.65 -104.15L-112.65 -104.15L-112.7 -103.95M-74.55,-53.55L-75.15 -18.65L-75.25 -12.8M-130.55,-96.4L-129.75 -96.4L-126.3 -96.4M-114.9,-56L-122.65 -56M-75.1,-7.35L-75.3 -11.1L-75.3 -11.65L-75.25 -12.8M-78.25,-59.35Q-78.65 -59.75 -80.25 -59.75Q-80.95 -58.1 -80.35 -57.85L-78.25 -57.35L-78.25 -59.35M-74.05,9.55L-74 8.7" />
</g>
</svg>
