<?xml version="1.0" encoding="utf-8"?>
<svg version="1.1" id="Layer_1"
xmlns="http://www.w3.org/2000/svg"
xmlns:xlink="http://www.w3.org/1999/xlink"
xmlns:author="http://www.sothink.com"
width="45px" height="42px"
xml:space="preserve">
<g id="140" transform="matrix(1, 0, 0, 1, 22.25, 27.1)">
<path style="fill:#7B7979;fill-opacity:1" d="M-5,-17.35L-5.05 -17.7L1.1 -18.6L6.55 -26.45L8 -25.6L1.95 -16.85L1.8 -17L-4.7 -16.1L-5 -17.35M-10.3,-15.3L-17.05 -14.4L-17.05 -14.95L-17.05 -16L-10.5 -16.9L-10.3 -15.3M-8.3,-17.35L-6 -17.75L-5.75 -16.15L-6.55 -16L-9 -15.6L-9.25 -17.2L-8.3 -17.35" />
<path style="fill:#B68CB6;fill-opacity:1" d="M-10,-18.35L-9.2 -18.65L-7.5 -18.75Q-5.5 -18.75 -5.05 -17.7L-5 -17.35L-4.7 -16.1L-4.6 -15.8Q-4.25 -14.9 -4.35 -14.3L-5.15 -14.35L-6 -14.35Q-6.1 -15.2 -6.45 -15.85L-6.55 -16L-5.75 -16.15L-6 -17.75L-8.3 -17.35L-10 -18.35M-1.55,-9.25L0.45 -9.6L3.45 -10.15L8 -11.15L14 -12.55L14.4 -11.75L15.35 -12.05L16.1 -11.85L16.25 -13.1L16.65 -13.2L18.85 -12.95L19.25 -12.3L16.45 -11.6Q16.95 -11.1 16.95 -10.4L16.95 -10.15L16.6 -9.35L16.45 -9.25Q16 -8.75 15.35 -8.75L14.7 -8.9L14.2 -9.25Q13.85 -9.6 13.8 -10.05L13.75 -10.25Q11.5 -9.2 8.9 -8.7L8.55 -8.65L4 -7.8L-0.7 -7.3L-1.35 -7.3L-3.7 -7.15L-11.55 -6.6L-16.5 -5.8L-19.05 -5Q-20.35 -4.45 -21.35 -4.45L-21.55 -4.45L-21.7 -4.75L-21.45 -5.8Q-20.95 -7 -19.05 -7.6L-15.45 -7.8L-13.3 -7.95L-11 -8.4L-9.9 -8.3L-3.85 -9L-3.8 -9L-1.55 -9.25" />
<path style="fill:#916B91;fill-opacity:1" d="M16.95,-10.4Q16.95 -11.1 16.45 -11.6L19.25 -12.3L19.55 -10.6L19.5 -10.1L19.25 -10.25L19.2 -10.2L17.65 -10.35L17.3 -10.35L16.95 -10.15L16.95 -10.4M-1.65,5.1L-2 4.95L-3.6 4.25L-5.3 3.5Q-5.65 3.5 -7.1 4.05L-7.65 1.45L-8.4 -1.65Q-8.7 -4 -9.7 -4.7Q-10.4 -5.2 -12.35 -5.2Q-17.05 -5.2 -18.6 -3.7L-20.55 -3.75Q-21.4 -3.75 -21.55 -4.45L-21.35 -4.45Q-20.35 -4.45 -19.05 -5L-16.5 -5.8L-11.55 -6.6L-3.7 -7.15L-1.35 -7.3L-0.7 -7.3L4 -7.8L8.55 -8.65L8.9 -8.7Q11.5 -9.2 13.75 -10.25L13.8 -10.05L13.6 -10L12.1 -9.2Q9.55 -7.5 10.2 -6.55Q10.6 -5.9 11.3 -5.8Q11.9 -5.75 12.55 -6.2L13.8 -7.3L13.8 -7.35L14.6 -8.7L14.7 -8.9L15.35 -8.75Q16 -8.75 16.45 -9.25L16.6 -9.35Q16.65 -9.15 16.85 -8.9Q17.05 -8.65 17.7 -8.2L16.85 -7.75L16.3 -7.5L16.85 -7.65L17.4 -5.65L17.75 -3.4L16.75 -3.05L15.7 -2.7Q15.4 -2.7 14.2 -4.2L12.9 -5.8L11.8 -5.15L10.7 -3.7Q9.6 -1.95 9.7 0.3L9.7 0.5L7.2 -0.55L6.8 -0.65L5.8 -0.95L4.45 -1.2Q4.05 -1.2 3.75 -0.5L3.25 0.75L2.9 1.4L2.45 1.3L0.75 0.8Q0.45 0.8 -0.8 3.35L-1.05 3.85L-1.65 5.1M-10.5,-16.9L-10.5 -17.5Q-10.5 -18.05 -10 -18.35L-8.3 -17.35L-9.25 -17.2L-9 -15.6L-6.55 -16L-6.45 -15.85Q-6.1 -15.2 -6 -14.35L-10 -14L-10 -14.05L-10.3 -15.3L-10.5 -16.9M-0.45,-3.8Q-0.55 -4.85 -0.8 -5.25Q-1.3 -6.1 -3.05 -6.1L-5 -5.95L-5.75 -5.65L-6.2 -4.9L-6.05 -3.8L-5.9 -2.65L-5.8 -1.55Q-5.75 -0.6 -3.9 -0.6L-2.6 -0.7L-1.7 -1Q-1.05 -1.25 -0.75 -1.65Q-0.4 -2.1 -0.4 -2.65L-0.45 -3.8" />
<path style="fill:#795A79;fill-opacity:1" d="M-7.05,5.2L-7.05 5.15L-7.1 4.05Q-5.65 3.5 -5.3 3.5L-3.6 4.25L-2 4.95L-1.65 5.1L-2.7 7.5Q-3.5 9.3 -3.1 9.7L-1.1 10.55L-0.9 10.6L-0.05 10.7L0.35 10.85L0.05 11.55L-0.4 13L-2.15 13.3L-2.25 13.35L-7.15 13.9L-14.8 14.15Q-18.65 13.6 -19.8 10.65L-20.15 8.95L-20.25 8.3Q-20.2 7.35 -19.8 6.8L-18.35 5.75L-18.05 7.15Q-17.65 8.6 -15.6 8.6L-12.9 8.25L-10.35 7.85Q-8.25 7.75 -7.65 7.25Q-7.05 6.8 -7.05 5.2" />
<path style="fill:#9F7A9F;fill-opacity:1" d="M-21.55,-4.45L-21.7 -4.5L-21.7 -4.75L-21.55 -4.45" />
<path style="fill:#E9BAE9;fill-opacity:1" d="M-15.6,-11.5Q-15.6 -13.1 -10.9 -13.85L-10 -14L-6 -14.35L-5.15 -14.35L-4.35 -14.3L-4.3 -14.3Q-2.05 -14.25 -1.1 -13.6Q0.5 -12.6 0.45 -9.6L-1.55 -9.25L-2.05 -10.55Q-2.95 -12.9 -4.5 -12.9L-5.95 -12.8Q-9.3 -12.4 -15.2 -10.35L-15.6 -11.5" />
<path style="fill:#D29ED2;fill-opacity:1" d="M-3.8,-9L-3.85 -9L-9.9 -8.3L-11 -8.4L-13.3 -7.95L-15.45 -7.8L-15.5 -10.25L-15.2 -10.35Q-9.3 -12.4 -5.95 -12.8L-4.5 -12.9Q-2.95 -12.9 -2.05 -10.55L-1.55 -9.25L-3.8 -9" />
<path style="fill:#705470;fill-opacity:1" d="M-15.2,-10.35L-15.5 -10.25L-15.6 -11.5L-15.2 -10.35" />
<path style="fill:#333333;fill-opacity:1" d="M-10.8,0.2L-10.5 -0.4L-10.5 -1.35Q-10.5 -2.9 -11.85 -3.65Q-13.25 -4.45 -13.25 -2.65L-13.05 -1.85L-13.8 -1.45L-14.7 -0.7L-15.75 -2.25Q-16.75 -3.55 -17.25 -3.55L-18.4 -2.95L-18.95 -3.25L-18.6 -3.7Q-17.05 -5.2 -12.35 -5.2Q-10.4 -5.2 -9.7 -4.7Q-8.7 -4 -8.4 -1.65L-7.65 1.45L-7.1 4.05L-7.05 5.15L-7.05 5.2Q-7.5 4.95 -8 4.85L-10.65 4.9L-11.1 4.85L-11.1 3.55Q-11.1 2.45 -9.95 2.05Q-10.2 1.2 -10.8 0.2M-0.4,-2.65Q-0.4 -2.1 -0.75 -1.65L-1.7 -1.9L-4.2 -2.5L-4.95 -4.35Q-5.25 -5.25 -5.75 -5.65L-5 -5.95L-3.05 -6.1Q-1.3 -6.1 -0.8 -5.25Q-0.55 -4.85 -0.45 -3.8L-0.4 -2.65M-2.45,-5.2Q-3.15 -5.35 -3.15 -4.8Q-3.05 -4.05 -2.35 -4.05Q-1.8 -4.05 -1.8 -4.6Q-1.8 -5.05 -2.45 -5.2" />
<path style="fill:#191919;fill-opacity:1" d="M-9.95,2.05Q-11.1 2.45 -11.1 3.55L-11.1 4.85L-12.7 4.6L-13 4.5L-14 4.05L-14.55 3.7L-15.4 2.8L-15.6 2.95Q-16.15 2.05 -17.45 1.8L-17.45 1.55L-16.7 -0.05L-16.65 -0.25L-15.95 -2.05L-15.75 -2.25L-14.7 -0.7L-13.8 -1.45L-13.05 -1.85L-12.6 -2.2Q-12.05 -1.8 -11.2 -0.4L-10.8 0.2Q-10.2 1.2 -9.95 2.05" />
<path style="fill:#878686;fill-opacity:1" d="M-13.25,-2.65Q-13.25 -4.45 -11.85 -3.65Q-10.5 -2.9 -10.5 -1.35L-10.5 -0.4L-10.8 0.2L-11.2 -0.4Q-12.05 -1.8 -12.6 -2.2L-13.05 -1.85L-13.25 -2.65M-1.8,-4.6Q-1.8 -4.05 -2.35 -4.05Q-3.05 -4.05 -3.15 -4.8Q-3.15 -5.35 -2.45 -5.2Q-1.8 -5.05 -1.8 -4.6" />
<path style="fill:#515151;fill-opacity:1" d="M-11.1,4.85L-10.65 4.9L-8 4.85Q-7.5 4.95 -7.05 5.2Q-7.05 6.8 -7.65 7.25Q-8.25 7.75 -10.35 7.85L-12.9 8.25L-15.6 8.6Q-17.65 8.6 -18.05 7.15L-18.35 5.75L-18.45 5.4L-17.5 5.8L-16.2 6.15Q-15.75 6.15 -15.2 5.25Q-15.05 3.8 -15.6 2.95L-15.4 2.8L-14.55 3.7L-14 4.05L-13 4.5L-12.7 4.6L-11.1 4.85M-4.95,-4.35L-4.2 -2.5L-1.7 -1.9L-0.75 -1.65Q-1.05 -1.25 -1.7 -1L-2.6 -0.7L-3.9 -0.6Q-5.75 -0.6 -5.8 -1.55L-5.9 -2.65L-6.05 -3.8L-6.2 -4.9L-5.75 -5.65Q-5.25 -5.25 -4.95 -4.35" />
<path style="fill:#BBB7B7;fill-opacity:1" d="M16.1,-11.85L15.35 -12.05L14.4 -11.75L14 -12.55L13.75 -13.15L13.7 -13.1L13.5 -14.85Q13.5 -15.6 13.9 -16.1Q14.3 -16.6 15.05 -16.6Q16.25 -16.6 16.25 -13.55L16.25 -13.1L16.1 -11.85M16.85,-8.9Q16.65 -9.15 16.6 -9.35L16.95 -10.15L17.3 -10.35L17.65 -10.35L19.2 -10.2L19.25 -10.25L19.5 -10.1L20.8 -9.55Q21.45 -9.15 21.65 -8.55Q21.85 -7.9 21.45 -7.25Q20.85 -6.25 18.25 -7.85L17.7 -8.2Q17.05 -8.65 16.85 -8.9M15.8,-14.55Q15.8 -15.2 15.3 -15.5Q14.75 -15.8 14.75 -15Q14.7 -13.65 15.35 -13.65Q15.8 -13.65 15.8 -14.55M14.2,-9.25L14.7 -8.9L14.6 -8.7L13.8 -7.35L13.8 -7.3L12.55 -6.2Q11.9 -5.75 11.3 -5.8Q10.6 -5.9 10.2 -6.55Q9.55 -7.5 12.1 -9.2L13.6 -10L13.8 -10.05Q13.85 -9.6 14.2 -9.25M19.3,-7.75L20.4 -7.65Q20.95 -7.95 20.25 -8.35Q19.1 -9.1 18.75 -8.55Q18.5 -8.2 19.3 -7.75M12.5,-8.45L11.55 -8.3Q11 -7.95 10.95 -7.35Q11.05 -6.7 11.7 -7.2Q12.8 -7.9 12.5 -8.45" />
<path style="fill:#FFF7F7;fill-opacity:1" d="M15.35,-13.65Q14.7 -13.65 14.75 -15Q14.75 -15.8 15.3 -15.5Q15.8 -15.2 15.8 -14.55Q15.8 -13.65 15.35 -13.65M18.75,-8.55Q19.1 -9.1 20.25 -8.35Q20.95 -7.95 20.4 -7.65L19.3 -7.75Q18.5 -8.2 18.75 -8.55M11.7,-7.2Q11.05 -6.7 10.95 -7.35Q11 -7.95 11.55 -8.3L12.5 -8.45Q12.8 -7.9 11.7 -7.2" />
<path style="fill:#352435;fill-opacity:1" d="M-1.1,10.55L-3.1 9.7Q-3.5 9.3 -2.7 7.5L-1.65 5.1L-1.05 3.85L-0.8 3.35Q0.45 0.8 0.75 0.8L2.45 1.3L2.9 1.4L3.25 0.75L3.75 -0.5Q4.05 -1.2 4.45 -1.2L5.8 -0.95L6.8 -0.65L6.65 -0.35L6.65 0.85L7.15 5.2L5.6 5.55L3.9 6.05L1.1 5.95L1.1 7.25Q1.1 8.2 0.35 8.5Q-0.25 8.7 -0.55 9.5L-0.85 10.4L-0.9 10.6L-1.1 10.55" />
<path style="fill:none;stroke-width:1;stroke-linecap:butt;stroke-linejoin:miter;stroke-miterlimit:3;stroke:#545353;stroke-opacity:1" d="M-5.05,-17.7L1.1 -18.6L6.55 -26.45L8 -25.6L1.95 -16.85M1.8,-17L-4.7 -16.1M14.4,-11.75L14 -12.55L13.75 -13.15L13.7 -13.1L13.5 -14.85Q13.5 -15.6 13.9 -16.1Q14.3 -16.6 15.05 -16.6Q16.25 -16.6 16.25 -13.55L16.25 -13.1M16.95,-10.15L17.3 -10.35L17.65 -10.35L19.2 -10.2L19.25 -10.25L19.5 -10.1L20.8 -9.55Q21.45 -9.15 21.65 -8.55Q21.85 -7.9 21.45 -7.25Q20.85 -6.25 18.25 -7.85L17.7 -8.2M-10.3,-15.3L-17.05 -14.4M-17.05,-16L-10.5 -16.9M16.6,-9.35Q16.65 -9.15 16.85 -8.9Q17.05 -8.65 17.7 -8.2M16.1,-11.85L16.25 -13.1M14.7,-8.9L14.6 -8.7L13.8 -7.35L13.8 -7.3L12.55 -6.2Q11.9 -5.75 11.3 -5.8Q10.6 -5.9 10.2 -6.55Q9.55 -7.5 12.1 -9.2L13.6 -10L13.8 -10.05M-8.3,-17.35L-6 -17.75L-5.75 -16.15L-6.55 -16L-9 -15.6L-9.25 -17.2L-8.3 -17.35" />
<path style="fill:none;stroke-width:1;stroke-linecap:butt;stroke-linejoin:miter;stroke-miterlimit:3;stroke:#5B425B;stroke-opacity:1" d="M-21.7,-4.5L-21.7 -4.75L-21.45 -5.8Q-20.95 -7 -19.05 -7.6L-15.45 -7.8L-15.5 -10.25L-15.6 -11.5Q-15.6 -13.1 -10.9 -13.85L-10 -14L-10 -14.05L-10.3 -15.3L-10.5 -16.9L-10.5 -17.5Q-10.5 -18.05 -10 -18.35L-9.2 -18.65L-7.5 -18.75Q-5.5 -18.75 -5.05 -17.7L-5 -17.35L-4.7 -16.1L-4.6 -15.8Q-4.25 -14.9 -4.35 -14.3L-4.3 -14.3Q-2.05 -14.25 -1.1 -13.6Q0.5 -12.6 0.45 -9.6L3.45 -10.15L8 -11.15L14 -12.55M16.25,-13.1L16.65 -13.2L18.85 -12.95L19.25 -12.3L19.55 -10.6L19.5 -10.1M17.7,-8.2L16.85 -7.75L16.3 -7.5L12.9 -5.8M16.85,-7.65L17.4 -5.65L17.75 -3.4L16.75 -3.05L15.7 -2.7Q15.4 -2.7 14.2 -4.2L12.9 -5.8L11.8 -5.15L10.7 -3.7Q9.6 -1.95 9.7 0.3L9.7 0.5L7.2 -0.55L6.8 -0.65M6.65,-0.35L6.65 0.85L7.15 5.2L5.6 5.55L3.9 6.05L1.1 5.95L1.1 7.25Q1.1 8.2 0.35 8.5Q-0.25 8.7 -0.55 9.5L-0.85 10.4L-0.9 10.6L-0.05 10.7L0.35 10.85L0.05 11.55L-0.4 13L-2.15 13.3L-2.25 13.35L-7.15 13.9L-14.8 14.15Q-18.65 13.6 -19.8 10.65L-20.15 8.95L-20.25 8.3Q-20.2 7.35 -19.8 6.8L-18.35 5.75M-18.6,-3.7L-20.55 -3.75Q-21.4 -3.75 -21.55 -4.45M8.9,-8.7L8 -11.15M13.8,-10.05L13.75 -10.25L13.75 -10.4Q13.75 -11.1 14.2 -11.6L14.4 -11.75L15.35 -12.05L16.1 -11.85L16.45 -11.6Q16.95 -11.1 16.95 -10.4L16.95 -10.15L16.6 -9.35L16.45 -9.25Q16 -8.75 15.35 -8.75L14.7 -8.9L14.2 -9.25Q13.85 -9.6 13.8 -10.05M-1.65,5.1L-1.05 3.85L-0.8 3.35Q0.45 0.8 0.75 0.8L2.45 1.3L2.9 1.4L3.25 0.75L3.75 -0.5Q4.05 -1.2 4.45 -1.2L5.8 -0.95L6.8 -0.65M8.9,-8.7L10.05 -5.55L10.7 -3.7M-3.7,-7.15L-3.8 -9L-3.85 -9L-9.9 -8.3L-11 -8.4L-13.3 -7.95L-15.45 -7.8M-21.7,-4.75L-21.55 -4.45M-6,-14.35L-5.15 -14.35L-4.35 -14.3M-6,-14.35L-10 -14M-1.55,-9.25L0.45 -9.6M-3.7,-7.15L-3.65 -6.65M-1.55,-9.25L-3.8 -9M-0.45,-3.8L10.05 -5.55M-1.05,3.85L-1.8 3.95L-2.35 1.3L-6.85 1.95M-1.65,5.1L-2.7 7.5Q-3.5 9.3 -3.1 9.7L-1.1 10.55L-0.9 10.6M-2.6,-0.7L-2.35 1.3" />
<path style="fill:none;stroke-width:1;stroke-linecap:butt;stroke-linejoin:miter;stroke-miterlimit:3;stroke:#2C2C2C;stroke-opacity:1" d="M-18.35,5.75L-18.45 5.4L-17.5 5.8L-16.2 6.15Q-15.75 6.15 -15.2 5.25Q-15.05 3.8 -15.6 2.95Q-16.15 2.05 -17.45 1.8L-17.45 1.55L-16.7 -0.05L-16.65 -0.25L-15.95 -2.05M-13.05,-1.85L-13.8 -1.45L-14.7 -0.7L-15.75 -2.25Q-16.75 -3.55 -17.25 -3.55L-18.4 -2.95M-18.95,-3.25L-18.6 -3.7M-13.05,-1.85L-12.6 -2.2Q-12.05 -1.8 -11.2 -0.4L-10.8 0.2M-18.35,5.75L-18.05 7.15Q-17.65 8.6 -15.6 8.6L-12.9 8.25L-10.35 7.85Q-8.25 7.75 -7.65 7.25Q-7.05 6.8 -7.05 5.2L-7.05 5.15L-7.1 4.05L-7.65 1.45L-8.4 -1.65Q-8.7 -4 -9.7 -4.7Q-10.4 -5.2 -12.35 -5.2Q-17.05 -5.2 -18.6 -3.7M-5.75,-5.65L-6.2 -4.9L-6.05 -3.8L-5.9 -2.65L-5.8 -1.55Q-5.75 -0.6 -3.9 -0.6L-2.6 -0.7L-1.7 -1Q-1.05 -1.25 -0.75 -1.65Q-0.4 -2.1 -0.4 -2.65L-0.45 -3.8M-5.75,-5.65L-5 -5.95L-3.05 -6.1Q-1.3 -6.1 -0.8 -5.25Q-0.55 -4.85 -0.45 -3.8M-14,4.05L-13 4.5M-11.1,4.85L-11.1 3.55Q-11.1 2.45 -9.95 2.05Q-10.2 1.2 -10.8 0.2M-14,4.05Q-14.55 4.05 -15.1 5.1L-15.2 5.25M-11.1,4.85L-11.1 5.4L-12.6 4.75L-13 4.5" />
</g>
</svg>
