<?xml version="1.0" encoding="utf-8"?>
<svg version="1.1" id="Layer_1"
xmlns="http://www.w3.org/2000/svg"
xmlns:xlink="http://www.w3.org/1999/xlink"
xmlns:author="http://www.sothink.com"
width="91px" height="38px"
xml:space="preserve">
<g id="53" transform="matrix(1, 0, 0, 1, 41.9, 28.75)">
<path style="fill:#C9DAF1;fill-opacity:1" d="M21.25,-25.05L22.05 -25.7L22.3 -25.95L22.45 -26.05Q22.95 -26.4 23.55 -26.4Q24.9 -26.4 24.9 -25.25Q24.9 -24 23.5 -22.6Q22.05 -21.2 20.75 -21.2Q20.25 -21.2 19.85 -21.55Q19.5 -21.9 19.5 -22.45Q19.5 -22.8 20.4 -23.95L21.25 -25.05M27.7,-4.25L26.7 -4.65L24.6 -4.9Q22.65 -5.3 22.65 -6.05L23.35 -7L24 -7.95L23.85 -8.55L23.05 -8.55Q20.95 -8.55 16.05 -6.4Q11.2 -4.25 10.35 -4.25Q8.75 -4.25 8.55 -5.5Q8.4 -6.8 6.75 -6.8Q4.8 -6.8 2.55 -5.2Q0.3 -3.6 0 -3.6Q-0.6 -3.6 -1.4 -4.95Q-2.2 -6.3 -2.9 -6.3Q-4 -6.3 -5.15 -3.65Q-6.3 -1.05 -7.55 -1.05Q-10.05 -1.05 -11.7 -3.85Q-13.35 -6.65 -13.95 -6.65Q-14.9 -6.65 -15.2 -5.8Q-15.5 -4.95 -16.35 -4.95Q-17 -4.95 -19.25 -7.65Q-21.55 -10.4 -22.25 -10.4Q-23.1 -10.4 -23.1 -9.05L-23.05 -8.6L-23.55 -9.5Q-27.55 -16.65 -36.15 -16.65L-38.75 -16.05L-41.25 -15.05L-41.4 -16.35Q-41.4 -19.3 -38.35 -20.7Q-36.1 -21.75 -32.7 -21.75Q-28.3 -21.75 -23.3 -17Q-18.25 -12.3 -17.85 -12.3Q-17.6 -12.3 -16.6 -12.8L-15.05 -13.35Q-13.95 -13.35 -12.95 -12.15Q-12 -10.95 -11.1 -10.95Q-10.6 -10.95 -8.65 -12.05Q-6.7 -13.2 -6.15 -13.2Q-5.5 -13.2 -4.65 -12.4Q-3.8 -11.6 -2.95 -11.6Q-1.75 -11.6 0.05 -13.5Q1.85 -15.45 3.75 -15.45Q5.85 -15.45 6.6 -12.9Q7.3 -10.4 9.85 -10.4L11.3 -10.45L12.4 -11.1L12.8 -11.35Q15.55 -13.05 23.1 -18.2Q30.95 -23.1 35.2 -23.1Q38 -23.1 40.5 -21.75Q43.5 -20.1 43.5 -17.45Q43.5 -16.85 43.05 -16.8L42 -16.8L39.6 -17.05L36.25 -17.3L34.1 -17.3Q32.9 -17.15 32.9 -16.1Q32.9 -14.75 36.6 -14.05Q40.25 -13.3 40.25 -10.2Q40.25 -7.8 34.45 -6L27.8 -4.15L27.6 -4.05L27.7 -4.25M44.85,-14.85Q45.9 -14.85 46.85 -13.5Q47.7 -12.25 47.7 -11Q47.7 -10.4 47.15 -9.55Q46.5 -8.7 45.95 -8.7Q44.75 -8.7 44.2 -10.5L43.45 -12.95L43.65 -13.55L44 -14.55Q44.15 -14.85 44.85 -14.85M-24.25,-25.75L-24.7 -26.4L-24.8 -27.15Q-24.8 -27.95 -24.6 -28.1L-23.75 -28.25Q-22.1 -28.25 -20.2 -27.05Q-18 -25.7 -18 -24Q-18 -23.55 -18.85 -23.15Q-19.5 -22.8 -19.85 -22.8Q-20.9 -22.8 -22.55 -24.2L-23.6 -25.1L-24.25 -25.75" />
<path style="fill:#A9BEDB;fill-opacity:1" d="M-16,7.7L-16.15 7.5Q-17.9 4.2 -20.15 -1.8Q-21.9 -6.3 -23.05 -8.6L-23.1 -9.05Q-23.1 -10.4 -22.25 -10.4Q-21.55 -10.4 -19.25 -7.65Q-17 -4.95 -16.35 -4.95Q-15.5 -4.95 -15.2 -5.8Q-14.9 -6.65 -13.95 -6.65Q-13.35 -6.65 -11.7 -3.85Q-10.05 -1.05 -7.55 -1.05Q-6.3 -1.05 -5.15 -3.65Q-4 -6.3 -2.9 -6.3Q-2.2 -6.3 -1.4 -4.95Q-0.6 -3.6 0 -3.6Q0.3 -3.6 2.55 -5.2Q4.8 -6.8 6.75 -6.8Q8.4 -6.8 8.55 -5.5Q8.75 -4.25 10.35 -4.25Q11.2 -4.25 16.05 -6.4Q20.95 -8.55 23.05 -8.55L23.85 -8.55L24 -7.95L23.35 -7L22.65 -6.05Q22.65 -5.3 24.6 -4.9L26.7 -4.65L27.7 -4.25L27.6 -4.05Q24.15 -1.9 19.65 3.4Q15.75 8 15.25 8L9.6 7.65L3.2 8.05L-4 8.4L-9.35 8.2L-16 8L-16 7.7" />
<path style="fill:none;stroke-width:1;stroke-linecap:butt;stroke-linejoin:miter;stroke-miterlimit:3;stroke:#5C8BBB;stroke-opacity:1" d="M-23.05,-8.6L-23.55 -9.5Q-27.55 -16.65 -36.15 -16.65L-38.75 -16.05L-41.25 -15.05L-41.4 -16.35Q-41.4 -19.3 -38.35 -20.7Q-36.1 -21.75 -32.7 -21.75Q-28.3 -21.75 -23.3 -17Q-18.25 -12.3 -17.85 -12.3Q-17.6 -12.3 -16.6 -12.8L-15.05 -13.35Q-13.95 -13.35 -12.95 -12.15Q-12 -10.95 -11.1 -10.95Q-10.6 -10.95 -8.65 -12.05Q-6.7 -13.2 -6.15 -13.2Q-5.5 -13.2 -4.65 -12.4Q-3.8 -11.6 -2.95 -11.6Q-1.75 -11.6 0.05 -13.5Q1.85 -15.45 3.75 -15.45Q5.85 -15.45 6.6 -12.9Q7.3 -10.4 9.85 -10.4L11.3 -10.45L12.4 -11.1L12.8 -11.35Q15.55 -13.05 23.1 -18.2Q30.95 -23.1 35.2 -23.1Q38 -23.1 40.5 -21.75Q43.5 -20.1 43.5 -17.45Q43.5 -16.85 43.05 -16.8L42 -16.8L39.6 -17.05L36.25 -17.3L34.1 -17.3Q32.9 -17.15 32.9 -16.1Q32.9 -14.75 36.6 -14.05Q40.25 -13.3 40.25 -10.2Q40.25 -7.8 34.45 -6L27.8 -4.15L27.6 -4.05Q24.15 -1.9 19.65 3.4Q15.75 8 15.25 8L9.6 7.65L3.2 8.05L-4 8.4L-9.35 8.2L-16 8L-16.05 8L-16 7.7L-16.15 7.5Q-17.9 4.2 -20.15 -1.8Q-21.9 -6.3 -23.05 -8.6M44,-14.55L43.65 -13.55L43.45 -12.95L44.2 -10.5Q44.75 -8.7 45.95 -8.7Q46.5 -8.7 47.15 -9.55Q47.7 -10.4 47.7 -11Q47.7 -12.25 46.85 -13.5Q45.9 -14.85 44.85 -14.85Q44.15 -14.85 44 -14.55M-23.6,-25.1L-22.55 -24.2Q-20.9 -22.8 -19.85 -22.8Q-19.5 -22.8 -18.85 -23.15Q-18 -23.55 -18 -24Q-18 -25.7 -20.2 -27.05Q-22.1 -28.25 -23.75 -28.25L-24.6 -28.1Q-24.8 -27.95 -24.8 -27.15L-24.7 -26.4L-24.25 -25.75L-23.6 -25.1" />
<path style="fill:none;stroke-width:1;stroke-linecap:round;stroke-linejoin:miter;stroke-miterlimit:3;stroke:#5C8BBB;stroke-opacity:1" d="M22.05,-25.7L21.75 -25.7L21.25 -25.05L22.05 -25.7z" />
<path style="fill:none;stroke-width:1;stroke-linecap:butt;stroke-linejoin:miter;stroke-miterlimit:3;stroke:#5C8BBB;stroke-opacity:1" d="M22.05,-25.7L22.3 -25.95L22.45 -26.05Q22.95 -26.4 23.55 -26.4Q24.9 -26.4 24.9 -25.25Q24.9 -24 23.5 -22.6Q22.05 -21.2 20.75 -21.2Q20.25 -21.2 19.85 -21.55Q19.5 -21.9 19.5 -22.45Q19.5 -22.8 20.4 -23.95L21.25 -25.05" />
</g>
</svg>
