<?xml version="1.0" encoding="utf-8"?>
<svg version="1.1" id="Layer_1"
xmlns="http://www.w3.org/2000/svg"
xmlns:xlink="http://www.w3.org/1999/xlink"
xmlns:author="http://www.sothink.com"
width="66px" height="44px"
xml:space="preserve">
<g id="141" transform="matrix(1, 0, 0, 1, 32.7, 21.55)">
<path style="fill:#D97979;fill-opacity:1" d="M22.35,-13.7L22.45 -13.45L22.1 -13.2Q21.35 -12.4 21.35 -11.35L21.35 -11.1L21.2 -11.05Q17.25 -8.9 12.3 -8L11.8 -7.9L5.4 -6.85L1.8 -6.4L-1.15 -6.15L-2 -6.15L-4.35 -6L-5.3 -5.95L-6 -5.9L-6.05 -5.9L-16.25 -5.25L-21.8 -4.45L-21.9 -4.45L-23.05 -4.2L-23.15 -4.2Q-24.6 -4 -26.7 -3.2Q-28.5 -2.5 -29.95 -2.5L-30.2 -2.5L-30.4 -2.85L-30.05 -4.2Q-29.4 -5.8 -26.7 -6.6L-21.7 -6.85L-18.7 -7.05L-15.45 -7.6L-13.95 -7.45L-5.5 -8.35L-5.45 -8.35L-2.3 -8.75L0.45 -9.15L1.15 -9.25L4.65 -9.85L11 -11.2L22.35 -13.7M-6.65,-17.5L-6.55 -17.2Q-6.05 -16.05 -6.2 -15.3L-6.3 -15.3L-7.35 -15.35L-8.45 -15.35L-8.5 -15.35Q-8.6 -16.4 -9.05 -17.15Q-9.55 -18.05 -10.5 -18.6L-11.25 -19Q-13.05 -19.85 -14.1 -20.5L-13 -20.9L-10.6 -21.05Q-7.35 -21.05 -7.1 -19.2L-7.1 -19.1L-6.65 -17.5M26.35,-12.6L25.85 -13.2Q25.4 -13.6 24.85 -13.8L24.85 -13.85L26.15 -13.5L26.7 -12.65L26.35 -12.6" />
<path style="fill:#B15151;fill-opacity:1" d="M-7.55,7.85Q-8 7.85 -10.05 8.6L-10.55 6.1L-10.55 6.05L-10.8 5.2L-11.85 1.15Q-12.3 -1.85 -13.65 -2.8Q-14.65 -3.45 -17.35 -3.45L-21.65 -3.15L-22.8 -2.95Q-25 -2.5 -26.1 -1.5L-28.8 -1.55Q-30 -1.55 -30.2 -2.5L-29.95 -2.5Q-28.5 -2.5 -26.7 -3.2Q-24.6 -4 -23.15 -4.2L-23.05 -4.2L-21.9 -4.45L-21.8 -4.45L-16.25 -5.25L-6.05 -5.9L-6 -5.9L-5.3 -5.95L-4.35 -6L-2 -6.15L-1.15 -6.15L1.8 -6.4L5.4 -6.85L11.8 -7.9L12.3 -8Q17.25 -8.9 21.2 -11.05L21.35 -11.1L21.4 -10.95Q20.85 -10.85 19.5 -9.95Q16.15 -7.7 17 -6.4Q17.55 -5.55 18.45 -5.4Q19.25 -5.35 20.1 -5.95L21.7 -7.4L21.7 -7.5L22.7 -9.15Q23.3 -8.8 24 -8.8Q25 -8.8 25.7 -9.45L25.85 -9.4L26.5 -8.85Q25.6 -7.85 23.35 -6.8L22.55 -6.4L23.35 -6.65L24.1 -4Q24.6 -2.35 24.6 -1.1L23.2 -0.65Q22.25 -0.2 21.75 -0.2Q21.35 -0.2 19.65 -2.1L17.85 -4.2L16.3 -3.4Q15.4 -2.55 14.75 -1.5Q13.2 0.8 13.4 3.7L13.45 4.95L13.6 6.1L14.2 9.95L12.1 8.1L11.35 7.15L11.15 6.75Q10.6 5.45 10.8 3.75L9.75 3.5Q9.35 3.2 9.05 3.2Q8.7 3.2 7.75 4.25L6.6 5.3Q6.2 5.3 4.45 4.25L4.15 4.05L2.55 3.05L2.25 3.05L1.95 4.7Q1.6 5.9 1.05 5.9L-1.4 5.45L-3.7 5Q-4.35 5 -4.55 6.65L-4.8 8.6Q-4.85 8.7 -5.25 8.8L-7.55 7.85M26.75,-11.5L26.7 -11.5L26.35 -12.6L26.7 -12.65L27.05 -11.5L26.75 -11.5M-1.2,1.15Q-0.7 0.6 -0.7 -0.15L-0.75 -1.65L-0.2 -1.7L-0.75 -1.75Q-0.9 -3 -1.25 -3.5Q-1.95 -4.65 -4.35 -4.65L-5.25 -4.6L-5.3 -4.6L-6 -4.6L-7.1 -4.45L-8.15 -4Q-8.75 -3.65 -8.75 -3.05L-8.6 -1.6L-8.4 -0.15L-8.2 1.3Q-8.15 2.55 -5.6 2.55L-3.75 2.4L-2.5 2Q-1.6 1.65 -1.2 1.15" />
<path style="fill:#BBB7B7;fill-opacity:1" d="M22.45,-13.45L22.35 -13.7L21.65 -15.2L21.6 -15.15L21.35 -17.5Q21.35 -18.5 21.85 -19.15Q22.4 -19.8 23.35 -19.8Q24.95 -19.8 24.95 -15.75L24.85 -13.85L24.85 -13.8L24 -13.9L23.85 -13.9L23.75 -13.9Q23.05 -13.85 22.45 -13.45M22.1,-9.6Q22.4 -9.3 22.7 -9.15L21.7 -7.5L21.7 -7.4L20.1 -5.95Q19.25 -5.35 18.45 -5.4Q17.55 -5.55 17 -6.4Q16.15 -7.7 19.5 -9.95Q20.85 -10.85 21.4 -10.95Q21.5 -10.15 22.1 -9.6M18,-7.5Q18.1 -6.6 18.95 -7.3Q20.4 -8.2 20 -8.95Q19.7 -9.4 18.8 -8.75Q18.05 -8.3 18 -7.5M25.85,-9.4L25.75 -9.5L25.85 -9.6Q26.7 -10.3 26.7 -11.35L26.7 -11.5L26.75 -11.5L27.05 -11.5L28.8 -11.3L28.85 -11.35L30.9 -10.4Q31.75 -9.9 32 -9.1Q32.25 -8.2 31.75 -7.35Q30.95 -6 27.55 -8.15L26.5 -8.85L25.85 -9.4M22.95,-17.7Q22.9 -15.9 23.75 -15.9Q24.35 -15.9 24.35 -17.1Q24.35 -17.95 23.7 -18.35Q22.95 -18.75 22.95 -17.7M30.35,-7.9Q31.1 -8.3 30.15 -8.8Q28.65 -9.8 28.2 -9.1Q27.85 -8.6 28.9 -8L30.35 -7.9" />
<path style="fill:#FFF7F7;fill-opacity:1" d="M18.8,-8.75Q19.7 -9.4 20 -8.95Q20.4 -8.2 18.95 -7.3Q18.1 -6.6 18 -7.5Q18.05 -8.3 18.8 -8.75M23.7,-18.35Q24.35 -17.95 24.35 -17.1Q24.35 -15.9 23.75 -15.9Q22.9 -15.9 22.95 -17.7Q22.95 -18.75 23.7 -18.35M28.9,-8Q27.85 -8.6 28.2 -9.1Q28.65 -9.8 30.15 -8.8Q31.1 -8.3 30.35 -7.9L28.9 -8" />
<path style="fill:#7B7979;fill-opacity:1" d="M-7.1,-19.1L-7.05 -19.1L-1.85 -19.85L-1.85 -19.5L-1.55 -19.85L8.05 -13.8L7.25 -12.3L-2 -18.15L-6.6 -17.5L-6.65 -17.5L-7.1 -19.1M-14.5,-16.4L-22.7 -15.25L-22.75 -15.25L-32.05 -19.45L-31.4 -20.85L-22.55 -16.9L-14.7 -18L-14.5 -16.4" />
<path style="fill:#AD4E4E;fill-opacity:1" d="M25.7,-9.45Q25 -8.8 24 -8.8Q23.3 -8.8 22.7 -9.15Q22.4 -9.3 22.1 -9.6Q21.5 -10.15 21.4 -10.95L21.35 -11.1L21.35 -11.35Q21.35 -12.4 22.1 -13.2L22.45 -13.45Q23.05 -13.85 23.75 -13.9L23.85 -13.9L24 -13.9L24.85 -13.8Q25.4 -13.6 25.85 -13.2L26.35 -12.6L26.7 -11.5L26.7 -11.35Q26.7 -10.3 25.85 -9.6L25.75 -9.5L25.7 -9.45M24.15,-12.4L24.15 -12.2Q24.25 -11.2 25.4 -11.2Q25.8 -11.2 25.8 -11.75L25.6 -12.5Q25.35 -12.95 24.65 -12.95L24.45 -12.9L24.25 -12.7L24.15 -12.4" />
<path style="fill:#D99191;fill-opacity:1" d="M24.25,-12.7L24.45 -12.9L24.65 -12.95Q25.35 -12.95 25.6 -12.5L25.8 -11.75Q25.8 -11.2 25.4 -11.2Q24.25 -11.2 24.15 -12.2L24.15 -12.4L24.25 -12.7M25.75,-9.5L25.85 -9.4L25.7 -9.45L25.75 -9.5" />
<path style="fill:#411B1B;fill-opacity:1" d="M-16.95,19.85L-17.2 20L-22.35 18.45Q-21.4 16.85 -21.05 16.85L-19 17.15Q-18.15 17.15 -17.8 15.55Q-17.45 13.9 -16.5 13.9L-14.95 14.15L-13.3 14.35Q-12.35 14.35 -12.2 14L-11.8 13.2L-11 12.85Q-9.55 14.05 -9.05 14.05Q-7.5 14.05 -7.5 13.1L-8.15 9.95Q-8.15 9.45 -6.65 9.15L-5.25 8.8Q-4.85 8.7 -4.8 8.6L-4.55 6.65Q-4.35 5 -3.7 5L-1.4 5.45L1.05 5.9Q1.6 5.9 1.95 4.7L2.25 3.05L2.55 3.05L4.15 4.05L4.45 4.25Q6.2 5.3 6.6 5.3L7.75 4.25Q8.7 3.2 9.05 3.2Q9.35 3.2 9.75 3.5L10.8 3.75Q10.6 5.45 11.15 6.75L11.35 7.15L12.1 8.1L11.1 8.85Q10.2 9.5 10.2 9.8Q10.2 10.25 10.8 10.75Q11.55 11.3 11.7 11.9L9.7 12.95Q9.25 12.95 8.6 12.55L7.35 12.05Q6.55 12 6.2 11.3L5.75 10L4.2 10Q3.8 10.35 3.35 13.35Q3 15.5 0.45 15.2L-0.55 12.95Q-1.5 11.3 -2.2 11.3Q-3 11.3 -4.7 14L-7.5 18.65L-8.8 17.4Q-9.7 16.55 -10.25 16.55Q-10.7 16.55 -11.2 17.1L-11.7 17.65L-12.8 17.25L-13.85 16.85Q-14.3 16.85 -15.65 18.45L-16.9 19.85L-16.95 19.7L-17 19.7L-16.95 19.85" />
<path style="fill:#9F7A9F;fill-opacity:1" d="M-30.4,-2.85L-30.2 -2.5L-30.4 -2.55L-30.4 -2.85" />
<path style="fill:#705470;fill-opacity:1" d="M-21.35,-10.15L-21.75 -10L-21.9 -11.65L-21.35 -10.15" />
<path style="fill:#FF6633;fill-opacity:1" d="M-3.7,-11.75L-3 -10.4L-2.3 -8.75L-5.45 -8.35L-5.5 -8.35L-13.95 -7.45L-15.45 -7.6L-18.7 -7.05L-21.7 -6.85L-21.75 -10L-21.35 -10.15L-18.85 -10.9L-18.75 -10.5L-18.6 -9.05L-16.4 -9.05Q-16 -9.7 -16 -10.25Q-16 -11.2 -16.4 -11.65L-12.4 -12.65L-12.6 -12.45Q-12.6 -11.25 -12.2 -10.05L-9.8 -10.05L-9.8 -12.65L-10.75 -13L-8.45 -13.35L-6.4 -13.45L-5.95 -13.4L-6.25 -13.4L-6 -10.45L-4.6 -10.45Q-3.8 -10.35 -3.7 -11.7L-3.7 -11.75" />
<path style="fill:#F38D6B;fill-opacity:1" d="M-3,-10.4L-3.7 -11.75Q-3.6 -13.1 -4.45 -13.35L-5.95 -13.4L-6.4 -13.45L-8.45 -13.35L-8.45 -15.35L-7.35 -15.35L-6.3 -15.3L-6.2 -15.3L-6.15 -15.3Q-3 -15.2 -1.7 -14.35Q0.6 -13.1 0.45 -9.15L-2.3 -8.75L-3 -10.4M-8.55,-15.35L-8.45 -13.35L-10.75 -13L-11.4 -13.05L-12.1 -12.95L-12.4 -12.65L-16.4 -11.65Q-16.8 -12.05 -17.5 -12.05L-18.65 -11.95L-18.9 -11.05L-18.85 -10.9L-21.35 -10.15L-21.9 -11.65Q-21.9 -13.7 -15.35 -14.65L-14.1 -14.85L-8.55 -15.35" />
<path style="fill:#333333;fill-opacity:1" d="M-11.3,9.6Q-12.8 9.4 -15 9.65L-17.85 9.3Q-19.15 8.95 -20.4 8.1Q-22.35 6.95 -23.7 2.5Q-24.6 -0.3 -26.6 -0.9L-26.1 -1.5Q-25 -2.5 -22.8 -2.95L-21.65 -3.15L-17.35 -3.45Q-14.65 -3.45 -13.65 -2.8Q-12.3 -1.85 -11.85 1.15L-10.8 5.2L-10.55 6.05L-10.55 6.1L-10.05 8.6L-10 10L-10 10.05L-11.3 9.6M-18.6,-0.15Q-17.95 3.7 -15.9 3.7Q-15 3.7 -14.75 2.8L-14.75 1.55Q-14.75 -0.45 -16.7 -1.45Q-18.6 -2.5 -18.6 -0.15M-0.75,-1.65L-0.7 -0.15Q-0.7 0.6 -1.2 1.15L-2.5 0.85L-6 0.1L-7.05 -2.35Q-7.45 -3.5 -8.15 -4L-7.1 -4.45L-6 -4.6L-5.3 -4.6L-5.25 -4.6L-4.35 -4.65Q-1.95 -4.65 -1.25 -3.5Q-0.9 -3 -0.75 -1.75L-0.75 -1.65M-2.65,-2.7Q-2.65 -3.25 -3.55 -3.45Q-4.55 -3.65 -4.55 -2.95Q-4.35 -1.95 -3.45 -1.95Q-2.65 -1.95 -2.65 -2.7" />
<path style="fill:#E9BAE9;fill-opacity:1" d="M-8.55,-15.35L-8.5 -15.35L-8.45 -15.35L-8.45 -13.35L-8.55 -15.35" />
<path style="fill:#B65C5C;fill-opacity:1" d="M-14.1,-14.85L-14.5 -16.4L-14.7 -18L-14.75 -19.45Q-14.75 -20.15 -14.1 -20.5Q-13.05 -19.85 -11.25 -19L-10.5 -18.6Q-9.55 -18.05 -9.05 -17.15Q-8.6 -16.4 -8.5 -15.35L-8.55 -15.35L-14.1 -14.85" />
<path style="fill:#8F3636;fill-opacity:1" d="M-17,19.7L-16.95 19.7L-16.9 19.85L-16.65 20.25L-16.95 19.85L-17 19.7M-25.3,12.55Q-24.75 14.45 -21.9 14.45L-18.1 14L-14.6 13.5L-11.8 13.2L-12.2 14Q-12.35 14.35 -13.3 14.35L-14.95 14.15L-16.5 13.9Q-17.45 13.9 -17.8 15.55Q-18.15 17.15 -19 17.15L-21.05 16.85Q-21.4 16.85 -22.35 18.45L-23.7 21Q-26.65 19.8 -27.75 17.15L-28.25 14.95L-28.4 14.1Q-28.35 12.9 -27.75 12.15L-25.75 10.8L-25.3 12.55M-10.8,12.7Q-10 12.15 -10 10.05L-10 10L-10.05 8.6Q-8 7.85 -7.55 7.85L-5.25 8.8L-6.65 9.15Q-8.15 9.45 -8.15 9.95L-7.5 13.1Q-7.5 14.05 -9.05 14.05Q-9.55 14.05 -11 12.85L-10.8 12.7M-3.7,-11.7Q-3.8 -10.35 -4.6 -10.45L-6 -10.45L-6.25 -13.4L-5.95 -13.4L-4.45 -13.35Q-3.6 -13.1 -3.7 -11.75L-3.7 -11.7M-12.1,-12.95L-11.4 -13.05L-10.75 -13L-9.8 -12.65L-9.8 -10.05L-12.2 -10.05Q-12.6 -11.25 -12.6 -12.45L-12.4 -12.65L-12.1 -12.95M-18.9,-11.05L-18.65 -11.95L-17.5 -12.05Q-16.8 -12.05 -16.4 -11.65Q-16 -11.2 -16 -10.25Q-16 -9.7 -16.4 -9.05L-18.6 -9.05L-18.75 -10.5L-18.85 -10.9L-18.9 -11.05" />
<path style="fill:#878686;fill-opacity:1" d="M-16.7,-1.45Q-14.75 -0.45 -14.75 1.55L-14.75 2.8Q-15 3.7 -15.9 3.7Q-17.95 3.7 -18.6 -0.15Q-18.6 -2.5 -16.7 -1.45M-3.45,-1.95Q-4.35 -1.95 -4.55 -2.95Q-4.55 -3.65 -3.55 -3.45Q-2.65 -3.25 -2.65 -2.7Q-2.65 -1.95 -3.45 -1.95" />
<path style="fill:#515151;fill-opacity:1" d="M-27.15,0.65Q-27.05 -0.2 -26.6 -0.9Q-24.6 -0.3 -23.7 2.5Q-22.35 6.95 -20.4 8.1Q-19.15 8.95 -17.85 9.3L-15 9.65Q-12.8 9.4 -11.3 9.6L-10 10.05Q-10 12.15 -10.8 12.7L-11 12.85L-11.8 13.2L-14.6 13.5L-18.1 14L-21.9 14.45Q-24.75 14.45 -25.3 12.55L-25.75 10.8L-25.9 9.85L-26.3 7.7L-26.8 3.6L-26.9 2.1L-27.15 0.65M-2.5,2L-3.75 2.4L-5.6 2.55Q-8.15 2.55 -8.2 1.3L-8.4 -0.15L-8.6 -1.6L-8.75 -3.05Q-8.75 -3.65 -8.15 -4Q-7.45 -3.5 -7.05 -2.35L-6 0.1L-2.5 0.85L-1.2 1.15Q-1.6 1.65 -2.5 2" />
<path style="fill:#916B91;fill-opacity:1" d="M-0.75,-1.65L-0.75 -1.75L-0.2 -1.7L-0.75 -1.65" />
<path style="fill:none;stroke-width:1;stroke-linecap:butt;stroke-linejoin:miter;stroke-miterlimit:3;stroke:#742323;stroke-opacity:1" d="M12.3,-8L11 -11.2L4.65 -9.85L1.15 -9.25L1.8 -6.4L4.15 4.05L4.45 4.25Q6.2 5.3 6.6 5.3L7.75 4.25Q8.7 3.2 9.05 3.2Q9.35 3.2 9.75 3.5L10.8 3.75Q10.6 5.45 11.15 6.75L11.35 7.15L12.1 8.1L14.2 9.95L13.6 6.1L13.45 4.95L13.4 3.7Q13.2 0.8 14.75 -1.5L12.3 -8M1.15,-9.25L0.45 -9.15L-2.3 -8.75L-5.45 -8.35L-5.5 -8.35L-13.95 -7.45L-15.45 -7.6L-18.7 -7.05L-21.7 -6.85L-26.7 -6.6Q-29.4 -5.8 -30.05 -4.2L-30.4 -2.85L-30.2 -2.5M22.35,-13.7L11 -11.2M23.35,-6.65L24.1 -4Q24.6 -2.35 24.6 -1.1L23.2 -0.65Q22.25 -0.2 21.75 -0.2Q21.35 -0.2 19.65 -2.1L17.85 -4.2L16.3 -3.4Q15.4 -2.55 14.75 -1.5M-21.9,-11.65Q-21.9 -13.7 -15.35 -14.65L-14.1 -14.85L-14.5 -16.4L-14.7 -18L-14.75 -19.45Q-14.75 -20.15 -14.1 -20.5L-13 -20.9L-10.6 -21.05Q-7.35 -21.05 -7.1 -19.2L-7.1 -19.1L-6.65 -17.5L-6.55 -17.2Q-6.05 -16.05 -6.2 -15.3L-6.15 -15.3Q-3 -15.2 -1.7 -14.35Q0.6 -13.1 0.45 -9.15M24.85,-13.85L26.15 -13.5L26.7 -12.65L27.05 -11.5M26.5,-8.85Q25.6 -7.85 23.35 -6.8L22.55 -6.4M17.85,-4.2L22.55 -6.4M12.1,8.1L11.1 8.85Q10.2 9.5 10.2 9.8Q10.2 10.25 10.8 10.75Q11.55 11.3 11.7 11.9L9.7 12.95Q9.25 12.95 8.6 12.55L7.35 12.05Q6.55 12 6.2 11.3L5.75 10L4.2 10Q3.8 10.35 3.35 13.35Q3 15.5 0.45 15.2L-0.55 12.95Q-1.5 11.3 -2.2 11.3Q-3 11.3 -4.7 14L-7.5 18.65L-8.8 17.4Q-9.7 16.55 -10.25 16.55Q-10.7 16.55 -11.2 17.1L-11.7 17.65L-12.8 17.25L-13.85 16.85Q-14.3 16.85 -15.65 18.45L-16.9 19.85M-16.95,19.85L-17.2 20L-22.35 18.45L-23.7 21Q-26.65 19.8 -27.75 17.15L-28.25 14.95L-28.4 14.1Q-28.35 12.9 -27.75 12.15L-25.75 10.8M-26.9,2.1L-27.05 1.75L-27.15 0.85L-27.15 0.65M-26.1,-1.5L-28.8 -1.55Q-30 -1.55 -30.2 -2.5M-30.4,-2.55L-30.4 -2.85M14.2,9.95L14.3 10.5M4.15,4.05L2.55 3.05L2.25 3.05L1.95 4.7Q1.6 5.9 1.05 5.9L-1.4 5.45L-3.7 5Q-4.35 5 -4.55 6.65L-4.8 8.6Q-4.85 8.7 -5.25 8.8L-6.65 9.15Q-8.15 9.45 -8.15 9.95L-7.5 13.1Q-7.5 14.05 -9.05 14.05Q-9.55 14.05 -11 12.85L-11.4 12.5L-11.45 12.35L-11.8 13.2L-12.2 14Q-12.35 14.35 -13.3 14.35L-14.95 14.15L-16.5 13.9Q-17.45 13.9 -17.8 15.55Q-18.15 17.15 -19 17.15L-21.05 16.85Q-21.4 16.85 -22.35 18.45M-21.9,-11.65L-21.75 -10L-21.7 -6.85M-8.5,-15.35L-8.45 -15.35L-7.35 -15.35L-6.3 -15.3L-6.2 -15.3M-5.95,-13.4L-4.45 -13.35Q-3.6 -13.1 -3.7 -11.75M-8.5,-15.35L-8.55 -15.35M-10.75,-13L-9.8 -12.65L-9.8 -10.05L-12.2 -10.05Q-12.6 -11.25 -12.6 -12.45L-12.4 -12.65M-16.4,-11.65Q-16 -11.2 -16 -10.25Q-16 -9.7 -16.4 -9.05L-18.6 -9.05L-18.75 -10.5L-18.85 -10.9M-5.95,-13.4L-6.25 -13.4L-6 -10.45L-4.6 -10.45Q-3.8 -10.35 -3.7 -11.7L-3.7 -11.75M-10.75,-13L-11.4 -13.05L-12.1 -12.95L-12.4 -12.65M-16.4,-11.65Q-16.8 -12.05 -17.5 -12.05L-18.65 -11.95L-18.9 -11.05L-18.85 -10.9M-14.1,-14.85L-8.55 -15.35M-16.95,19.85L-16.9 19.85" />
<path style="fill:none;stroke-width:1;stroke-linecap:butt;stroke-linejoin:miter;stroke-miterlimit:3;stroke:#545353;stroke-opacity:1" d="M22.45,-13.45L22.35 -13.7L21.65 -15.2L21.6 -15.15L21.35 -17.5Q21.35 -18.5 21.85 -19.15Q22.4 -19.8 23.35 -19.8Q24.95 -19.8 24.95 -15.75L24.85 -13.85L24.85 -13.8M22.7,-9.15L21.7 -7.5L21.7 -7.4L20.1 -5.95Q19.25 -5.35 18.45 -5.4Q17.55 -5.55 17 -6.4Q16.15 -7.7 19.5 -9.95Q20.85 -10.85 21.4 -10.95M-1.55,-19.85L8.05 -13.8L7.25 -12.3L-2 -18.15L-6.6 -17.5L-6.65 -17.5M26.7,-11.5L26.75 -11.5L27.05 -11.5L28.8 -11.3L28.85 -11.35L30.9 -10.4Q31.75 -9.9 32 -9.1Q32.25 -8.2 31.75 -7.35Q30.95 -6 27.55 -8.15L26.5 -8.85M24.25,-12.7L24.45 -12.9M25.75,-9.5L25.85 -9.4L26.5 -8.85M-22.75,-15.25L-32.05 -19.45L-31.4 -20.85L-22.55 -16.9L-21.9 -16.6M-22.55,-16.9L-14.7 -18M-7.1,-19.1L-7.05 -19.1L-1.85 -19.85M-14.5,-16.4L-22.7 -15.25M-2,-18.15L-2.65 -18.55" />
<path style="fill:none;stroke-width:1;stroke-linecap:butt;stroke-linejoin:miter;stroke-miterlimit:3;stroke:#6B2222;stroke-opacity:1" d="M25.7,-9.45Q25 -8.8 24 -8.8Q23.3 -8.8 22.7 -9.15Q22.4 -9.3 22.1 -9.6Q21.5 -10.15 21.4 -10.95L21.35 -11.1L21.35 -11.35Q21.35 -12.4 22.1 -13.2L22.45 -13.45M24.85,-13.8Q25.4 -13.6 25.85 -13.2L26.35 -12.6M24.85,-13.8L24 -13.9L23.85 -13.9L23.75 -13.9Q23.05 -13.85 22.45 -13.45M25.7,-9.45L25.75 -9.5L25.85 -9.6Q26.7 -10.3 26.7 -11.35L26.7 -11.5L26.35 -12.6" />
<path style="fill:none;stroke-width:1;stroke-linecap:butt;stroke-linejoin:miter;stroke-miterlimit:3;stroke:#272727;stroke-opacity:1" d="M-10,10.05Q-10 12.15 -10.8 12.7L-11 12.85L-11.8 13.2L-14.6 13.5L-18.1 14L-21.9 14.45Q-24.75 14.45 -25.3 12.55L-25.75 10.8L-25.9 9.85L-26.3 7.7L-26.8 3.6L-26.9 2.1L-27.15 0.65Q-27.05 -0.2 -26.6 -0.9L-26.1 -1.5Q-25 -2.5 -22.8 -2.95L-21.65 -3.15L-17.35 -3.45Q-14.65 -3.45 -13.65 -2.8Q-12.3 -1.85 -11.85 1.15L-10.8 5.2L-10.55 6.05L-10.55 6.1L-10.05 8.6M-1.2,1.15Q-0.7 0.6 -0.7 -0.15L-0.75 -1.65L-0.75 -1.75Q-0.9 -3 -1.25 -3.5Q-1.95 -4.65 -4.35 -4.65L-5.25 -4.6L-5.3 -4.6L-6 -4.6L-7.1 -4.45L-8.15 -4Q-8.75 -3.65 -8.75 -3.05L-8.6 -1.6L-8.4 -0.15L-8.2 1.3Q-8.15 2.55 -5.6 2.55L-3.75 2.4L-2.5 2Q-1.6 1.65 -1.2 1.15M-10,10.05L-10 10L-10.05 8.6" />
</g>
</svg>
