<?xml version="1.0" encoding="utf-8"?>
<svg version="1.1" id="Layer_1"
xmlns="http://www.w3.org/2000/svg"
xmlns:xlink="http://www.w3.org/1999/xlink"
xmlns:author="http://www.sothink.com"
width="60px" height="37px"
xml:space="preserve">
<g id="177" transform="matrix(1, 0, 0, 1, 28.95, 18.55)">
<path style="fill:#627E29;fill-opacity:1" d="M15.15,-14.9L13.45 -14.85L13.55 -16.7Q13.65 -17.6 14.25 -17.6Q16.45 -17.6 16.45 -16.45L16.2 -14.75L15.15 -14.9M27.15,-0.3Q28.3 0.25 28.55 2.7L28.8 4.3L28.5 4.4L27.2 4.45L27.15 -0.3M-18.9,5.7L-18.8 3.55L-18.9 0.7Q-19.2 0 -21.35 0L-25.45 0.3L-25.5 0.3L-26 0.35Q-26.7 0.35 -26.7 -0.6Q-26.7 -2.45 -25.8 -3.4L-25.05 -2.95L-23 -2.6L-21 -2.8L-10.65 -2.6L-6.05 -3L2.35 -3.4L2.65 -3.25L17.05 -2.85L20.85 -2.7L21.35 -2.65L23.4 -2.45Q25.7 -1.5 25.7 3.4L25.5 5.3Q25.25 6.5 25.25 7.7Q25.25 9.55 25.9 12.35L27.25 12.6L27.25 14.2Q27.25 15.05 26.85 15.55L26.1 13.15L25.9 12.35L25.6 12.25L22.8 11.5Q22.4 11.5 20.7 12.45Q19 13.35 17.5 13.35Q14.25 13.35 13.35 11.95Q12.85 11.15 13.05 8.9Q13.15 6.7 12.5 5.85Q11.4 4.45 7.8 4.45L4 4.55L-0.3 4.35L-3.85 4.75L-6.85 5.15L-9.75 5Q-11.9 5.05 -13.65 5.8Q-14.7 6.25 -15.5 7.85Q-16.15 9.1 -16.4 10.5L-16.9 13.5Q-17.2 14.3 -17.75 14.7L-19.2 14.9L-21.6 14.45L-24.1 13.55L-25.9 13.1L-27.55 12.3L-28.35 11.4L-28.3 7.95L-28.1 7.25L-27.15 7.1L-27.05 7.1L-24.9 7.4L-22.7 7.65Q-19.8 7.65 -19.2 6.85Q-19 6.55 -18.9 5.7M-16.65,-9.85L-16.7 -10.35L-16.3 -12.9L-15.05 -12.7L-11.95 -12.8L-10 -12.5Q-9.55 -12.05 -8.85 -9.95L-16.65 -9.85M-11,-14.25L-13.45 -14.4L-13.45 -16.15Q-13.6 -17.35 -13.15 -17.75L-11.85 -18.05Q-10.25 -18.05 -10.25 -16.8L-10.35 -14.4L-10.35 -14.15L-11 -14.25M10.7,-10.1L10.9 -13.25L12.65 -13.2L14.55 -13.4Q16.45 -13.4 16.85 -12.5L17.25 -10.65L17.45 -10L11.75 -10.1L10.7 -10.1M15.15,-15.7Q15.9 -15.7 15.9 -16.55Q15.9 -16.95 15.4 -17.15Q14.65 -17.3 14.45 -16.95L14.4 -16.5L14.4 -16.1Q14.5 -15.7 15.15 -15.7M10.35,1L10.35 0.9L10.55 -1.3Q10.55 -2.45 6.8 -2.45Q6.4 -2.45 6.2 -1.9Q5.85 -1.9 5.65 -1.7L5.5 -1.6L5.1 -1.15Q4.75 -0.5 4.75 0.35Q4.75 1.95 5.35 2.55Q6 3.2 7.7 3.2L9.45 3Q10.55 2.75 10.55 2.35L10.15 1.3L10.35 1M19.3,1.35L19.35 1.15L19.55 -1.05Q19.55 -2.2 15.8 -2.2L15.3 -1.85L15 -1.9L14.6 -1.8L14.55 -1.75Q14.1 -1.55 13.8 -0.8Q13.45 0.1 13.45 1.1Q13.45 2.3 15.2 3L18 3.55L19.05 3.4Q19.4 3.2 19.4 2.55L19.15 1.5L19.3 1.35M1.7,1.05L1.85 0.9L1.9 0.7Q2.1 0.15 2.1 -1.5Q2.1 -2.65 -1.65 -2.65L-2.15 -2.3L-2.45 -2.35L-2.85 -2.25L-2.9 -2.2Q-3.35 -2 -3.65 -1.25Q-4 -0.35 -4 0.65Q-4 1.85 -2.25 2.55L0.55 3.1L1.6 2.95Q1.95 2.75 1.95 2.1L1.7 1.05M-12.4,-16.55Q-12.05 -15.4 -11.35 -15.4Q-10.75 -15.4 -10.75 -16.3Q-10.75 -17.15 -11.55 -17.3Q-12.4 -17.45 -12.4 -16.55" />
<path style="fill:#8DAD4D;fill-opacity:1" d="M17.85,-10L17.45 -10L17.25 -10.65L16.85 -12.5Q16.45 -13.4 14.55 -13.4L12.65 -13.2L10.9 -13.25L10.85 -14.05Q11 -14.85 13.25 -14.85L13.45 -14.85L15.15 -14.9L16.2 -14.75L17.25 -14.4Q17.95 -14.1 18.2 -12.8L18.4 -10.75L18.3 -9.95L17.85 -10M27.2,4.45L27.2 6.05L27.25 12.6L25.9 12.35Q25.25 9.55 25.25 7.7Q25.25 6.5 25.5 5.3L25.7 3.4Q25.7 -1.5 23.4 -2.45L21.35 -2.65L20.85 -2.7L17.05 -2.85L2.65 -3.25L2.35 -3.4L-6.05 -3L-10.65 -2.6L-21 -2.8L-23 -2.6L-25.05 -2.95L-25.8 -3.4Q-25.05 -4.3 -23.65 -4.5L-19.45 -4.45L-19.4 -4.45L-17.2 -4.55L-14.4 -4.55L-11.4 -4.5L-8.45 -4.65L-7.05 -4.55L-5.85 -4.55L9.1 -5.1L10.15 -5.1L13.35 -5L19.75 -4.75L20 -4.75L21 -4.7L21.05 -4.7L21.1 -4.7L25 -4.55Q27.15 -3.95 27.15 -1.95L27.15 -1.45L28.05 -1.45L29.55 -1.05L29.65 0.25L29.55 2.85L29.45 3.45Q29.35 4.05 28.8 4.3L28.55 2.7Q28.3 0.25 27.15 -0.3L27.2 4.45M-8.85,-9.95Q-9.55 -12.05 -10 -12.5L-11.95 -12.8L-15.05 -12.7L-16.3 -12.9L-16.1 -13.65Q-15.6 -14.4 -13.45 -14.4L-11 -14.25L-10.35 -14.15L-10.3 -14.15L-9 -13.95Q-7.55 -13.45 -7.95 -10.35L-7.95 -9.95L-8.85 -9.95M6.1,-1.65L6.1 -1.45L6.1 -0.85L6.2 -0.5L6.05 0.7Q6.05 1.45 6.95 1.7L8.7 1.85Q9.65 1.85 10.15 1.3L10.55 2.35Q10.55 2.75 9.45 3L7.7 3.2Q6 3.2 5.35 2.55Q4.75 1.95 4.75 0.35Q4.75 -0.5 5.1 -1.15L5.5 -1.6L5.65 -1.7Q5.85 -1.9 6.2 -1.9L6.1 -1.65M15.1,-1.4L15.1 -1.2L15.1 -0.6L15.2 -0.25L15.05 0.95Q15.05 1.7 15.95 1.95L17.7 2.1Q18.7 2.1 19.15 1.5L19.4 2.55Q19.4 3.2 19.05 3.4L18 3.55L15.2 3Q13.45 2.3 13.45 1.1Q13.45 0.1 13.8 -0.8Q14.1 -1.55 14.55 -1.75L14.6 -1.8L15 -1.9L15.3 -1.85L15.1 -1.4M1.95,2.1Q1.95 2.75 1.6 2.95L0.55 3.1L-2.25 2.55Q-4 1.85 -4 0.65Q-4 -0.35 -3.65 -1.25Q-3.35 -2 -2.9 -2.2L-2.85 -2.25L-2.45 -2.35L-2.15 -2.3L-2.35 -1.85L-2.35 -1.65L-2.35 -1.05L-2.25 -0.7L-2.4 0.5Q-2.4 1.25 -1.5 1.5L0.25 1.65Q1.25 1.65 1.7 1.05L1.95 2.1" />
<path style="fill:#4E6420;fill-opacity:1" d="M26.85,15.55Q26.15 16.3 24.3 16.2L13.65 16.5Q11.25 16.5 11.15 13.95L11.45 8.95Q11.3 7.4 10.3 7Q9.3 6.6 8.15 6.55L3.3 6.4L0.05 6.4L-8.75 6.15L-9.3 6.25Q-11.85 6.25 -12.7 7.2Q-13.65 8.25 -13.85 11.75L-13.95 14.15L-14.1 16.55Q-14.35 17.05 -17.45 17.05L-24.25 16.65L-27.6 15.95Q-28.45 15.4 -28.45 13.2L-28.35 11.4L-27.55 12.3L-25.9 13.1L-24.1 13.55L-21.6 14.45L-19.2 14.9L-17.75 14.7Q-17.2 14.3 -16.9 13.5L-16.4 10.5Q-16.15 9.1 -15.5 7.85Q-14.7 6.25 -13.65 5.8Q-11.9 5.05 -9.75 5L-6.85 5.15L-3.85 4.75L-0.3 4.35L4 4.55L7.8 4.45Q11.4 4.45 12.5 5.85Q13.15 6.7 13.05 8.9Q12.85 11.15 13.35 11.95Q14.25 13.35 17.5 13.35Q19 13.35 20.7 12.45Q22.4 11.5 22.8 11.5L25.6 12.25L25.9 12.35L26.1 13.15L26.85 15.55" />
<path style="fill:#333333;fill-opacity:1" d="M-19.2,6.85Q-19.8 7.65 -22.7 7.65L-24.9 7.4L-27.05 7.1L-26.5 3.65L-26.4 3.3L-26.1 3.6Q-24.95 4.8 -23.9 4.9L-19.1 5.7L-18.9 5.7Q-19 6.55 -19.2 6.85M10.35,1L10.15 1.3Q9.65 1.85 8.7 1.85L6.95 1.7Q6.05 1.45 6.05 0.7L6.2 -0.5L6.1 -0.85L6.1 -1.45L8.15 -0.25L10.35 1M17.8,0.7L19.3 1.35L19.15 1.5Q18.7 2.1 17.7 2.1L15.95 1.95Q15.05 1.7 15.05 0.95L15.2 -0.25L15.1 -0.6L15.1 -1.2Q16.15 -0.1 17.8 0.7M1.7,1.05Q1.25 1.65 0.25 1.65L-1.5 1.5Q-2.4 1.25 -2.4 0.5L-2.25 -0.7L-2.35 -1.05L-2.35 -1.65Q-1.3 -0.55 0.35 0.25L1.85 0.9L1.7 1.05" />
<path style="fill:#232222;fill-opacity:1" d="M-26.4,3.3L-25.5 0.3L-25.45 0.3L-21.35 0Q-19.2 0 -18.9 0.7L-18.8 3.55L-18.9 5.7L-19.1 5.7L-23.9 4.9Q-24.95 4.8 -26.1 3.6L-26.4 3.3M0.45,-1.15Q0.45 -0.85 0.85 -0.85Q1.25 -0.85 1.25 -1.15Q1.25 -1.5 0.85 -1.5Q0.45 -1.5 0.45 -1.15M8.15,-0.25L6.1 -1.45L6.1 -1.65L6.2 -1.9Q6.4 -2.45 6.8 -2.45Q10.55 -2.45 10.55 -1.3L10.35 0.9L10.35 1L8.15 -0.25M9.4,-1.2Q8.95 -1.2 8.95 -0.85Q8.95 -0.45 9.3 -0.45L9.75 -0.85L9.4 -1.2M15.1,-1.2L15.1 -1.4L15.3 -1.85L15.8 -2.2Q19.55 -2.2 19.55 -1.05L19.35 1.15L19.3 1.35L17.8 0.7Q16.15 -0.1 15.1 -1.2M18.7,-0.7Q18.7 -1.05 18.3 -1.05Q17.9 -1.05 17.9 -0.7Q17.9 -0.4 18.3 -0.4Q18.7 -0.4 18.7 -0.7M-2.35,-1.85L-2.15 -2.3L-1.65 -2.65Q2.1 -2.65 2.1 -1.5Q2.1 0.15 1.9 0.7L1.85 0.9L0.35 0.25Q-1.3 -0.55 -2.35 -1.65L-2.35 -1.85M-20.35,1.7Q-20.35 1.35 -21.2 1.2Q-22.1 1.05 -22.1 1.7Q-21.9 2.5 -21.5 2.5L-20.7 2.2L-20.35 1.7" />
<path style="fill:#ADADAD;fill-opacity:1" d="M0.85,-1.5Q1.25 -1.5 1.25 -1.15Q1.25 -0.85 0.85 -0.85Q0.45 -0.85 0.45 -1.15Q0.45 -1.5 0.85 -1.5M9.75,-0.85L9.3 -0.45Q8.95 -0.45 8.95 -0.85Q8.95 -1.2 9.4 -1.2L9.75 -0.85M18.3,-0.4Q17.9 -0.4 17.9 -0.7Q17.9 -1.05 18.3 -1.05Q18.7 -1.05 18.7 -0.7Q18.7 -0.4 18.3 -0.4M-20.7,2.2L-21.5 2.5Q-21.9 2.5 -22.1 1.7Q-22.1 1.05 -21.2 1.2Q-20.35 1.35 -20.35 1.7L-20.7 2.2" />
<path style="fill:#A3C265;fill-opacity:1" d="M-19.45,-4.45Q-19.2 -5.6 -19.05 -7.7L-19.05 -7.9L-19 -8.05L-18.3 -8.1L-15.05 -8.05L-15.05 -8.1L2.15 -8.5Q12.15 -8.05 13.15 -8.3L13 -8.35L13.2 -8.45L13.25 -8.35L15.3 -8.35L17.1 -8.05Q18.45 -7.55 19.1 -6.3L19.15 -6.15L19.75 -4.75L13.35 -5L10.15 -5.1L9.1 -5.1L-5.85 -4.55L-7.05 -4.55L-8.45 -4.65L-11.4 -4.5L-14.4 -4.55L-17.2 -4.55L-19.4 -4.45L-19.45 -4.45" />
<path style="fill:#C5E289;fill-opacity:1" d="M-8.85,-9.95L-7.95 -9.95L-5.45 -9.85L2 -9.95L2.15 -9.95L10.7 -10.1L11.75 -10.1L17.45 -10L18.3 -9.95Q19.85 -9.85 20.45 -8.65Q20.85 -7.9 20.95 -6.2L21 -5L21 -4.85L21.05 -4.85L21.05 -4.7L21 -4.7L20 -4.75L19.75 -4.75L19.15 -6.15L19.1 -6.3Q18.45 -7.55 17.1 -8.05L15.3 -8.35L13.25 -8.35L13.2 -8.45L13 -8.35L13.15 -8.3Q12.15 -8.05 2.15 -8.5L-15.05 -8.1L-15.05 -8.05L-18.3 -8.1L-19 -8.05Q-18.65 -9.8 -17.4 -9.85L-16.65 -9.85L-8.85 -9.95" />
<path style="fill:#C8E09A;fill-opacity:1" d="M14.4,-16.1L14.4 -16.5L14.45 -16.95Q14.65 -17.3 15.4 -17.15Q15.9 -16.95 15.9 -16.55Q15.9 -15.7 15.15 -15.7Q14.5 -15.7 14.4 -16.1M-11.55,-17.3Q-10.75 -17.15 -10.75 -16.3Q-10.75 -15.4 -11.35 -15.4Q-12.05 -15.4 -12.4 -16.55Q-12.4 -17.45 -11.55 -17.3" />
<path style="fill:none;stroke-width:1;stroke-linecap:butt;stroke-linejoin:miter;stroke-miterlimit:3;stroke:#37461B;stroke-opacity:1" d="M19.75,-4.75L20 -4.75L21 -4.7L21.05 -4.7L21.1 -4.7L25 -4.55Q27.15 -3.95 27.15 -1.95L27.15 -1.45L28.05 -1.45L29.55 -1.05L29.65 0.25L29.55 2.85L29.45 3.45Q29.35 4.05 28.8 4.3L28.5 4.4L27.2 4.45L27.2 6.05L27.25 12.6L27.25 14.2Q27.25 15.05 26.85 15.55Q26.15 16.3 24.3 16.2L13.65 16.5Q11.25 16.5 11.15 13.95L11.45 8.95Q11.3 7.4 10.3 7Q9.3 6.6 8.15 6.55L3.3 6.4L0.05 6.4L-8.75 6.15L-9.3 6.25Q-11.85 6.25 -12.7 7.2Q-13.65 8.25 -13.85 11.75L-13.95 14.15L-14.1 16.55Q-14.35 17.05 -17.45 17.05L-24.25 16.65L-27.6 15.95Q-28.45 15.4 -28.45 13.2L-28.35 11.4L-28.3 7.95L-28.1 7.25L-27.15 7.1L-27.05 7.1L-26.5 3.65L-26.4 3.3L-25.5 0.3L-26 0.35Q-26.7 0.35 -26.7 -0.6Q-26.7 -2.45 -25.8 -3.4Q-25.05 -4.3 -23.65 -4.5L-19.45 -4.45Q-19.2 -5.6 -19.05 -7.7L-19.05 -7.9L-19 -8.05Q-18.65 -9.8 -17.4 -9.85L-16.65 -9.85L-8.85 -9.95L-7.95 -9.95L-5.45 -9.85L2 -9.95L2.15 -9.95L10.7 -10.1L10.9 -13.25L10.85 -14.05Q11 -14.85 13.25 -14.85L13.45 -14.85L13.55 -16.7Q13.65 -17.6 14.25 -17.6Q16.45 -17.6 16.45 -16.45L16.2 -14.75L17.25 -14.4Q17.95 -14.1 18.2 -12.8L18.4 -10.75M17.45,-10L17.85 -10L18.3 -9.95Q19.85 -9.85 20.45 -8.65Q20.85 -7.9 20.95 -6.2L21 -5L21.05 -4.85M-16.7,-10.35L-16.3 -12.9L-16.1 -13.65Q-15.6 -14.4 -13.45 -14.4L-13.45 -16.15Q-13.6 -17.35 -13.15 -17.75L-11.85 -18.05Q-10.25 -18.05 -10.25 -16.8L-10.35 -14.4M-13.45,-14.4L-11 -14.25L-10.35 -14.15L-10.3 -14.15L-9 -13.95Q-7.55 -13.45 -7.95 -10.35M13.45,-14.85L15.15 -14.9L16.2 -14.75M17.45,-10L11.75 -10.1L10.7 -10.1M10.15,1.3Q9.65 1.85 8.7 1.85L6.95 1.7Q6.05 1.45 6.05 0.7L6.2 -0.5L6.1 -0.85L6.1 -1.45L6.1 -1.65L6.2 -1.9Q6.4 -2.45 6.8 -2.45Q10.55 -2.45 10.55 -1.3L10.35 0.9L10.35 1L10.15 1.3M19.75,-4.75L13.35 -5L10.15 -5.1L9.1 -5.1L-5.85 -4.55L-7.05 -4.55L-8.45 -4.65L-11.4 -4.5L-14.4 -4.55L-17.2 -4.55L-19.4 -4.45L-19.45 -4.45M19.15,1.5Q18.7 2.1 17.7 2.1L15.95 1.95Q15.05 1.7 15.05 0.95L15.2 -0.25L15.1 -0.6L15.1 -1.2L15.1 -1.4L15.3 -1.85L15.8 -2.2Q19.55 -2.2 19.55 -1.05L19.35 1.15L19.3 1.35L19.15 1.5M21,-5L21 -4.85L21.05 -4.85M27.2,4.45L27.15 -0.3L27.15 -1.45M-2.35,-1.65L-2.35 -1.05L-2.25 -0.7L-2.4 0.5Q-2.4 1.25 -1.5 1.5L0.25 1.65Q1.25 1.65 1.7 1.05L1.85 0.9L1.9 0.7Q2.1 0.15 2.1 -1.5Q2.1 -2.65 -1.65 -2.65L-2.15 -2.3L-2.35 -1.85L-2.35 -1.65M-27.05,7.1L-24.9 7.4L-22.7 7.65Q-19.8 7.65 -19.2 6.85Q-19 6.55 -18.9 5.7L-18.8 3.55L-18.9 0.7Q-19.2 0 -21.35 0L-25.45 0.3L-25.5 0.3" />
<path style="fill:none;stroke-width:0.1;stroke-linecap:butt;stroke-linejoin:miter;stroke-miterlimit:3;stroke:#4D6227;stroke-opacity:1" d="M18.85,2.35L19.15 15.85M19.95,0.5L26.95 0.4M10.8,0.5L15.15 0.65M2.35,0.6L5.7 0.65M-21.35,7.8L-21.45 16.55" />
<path style="fill:none;stroke-width:0.1;stroke-linecap:round;stroke-linejoin:miter;stroke-miterlimit:3;stroke:#4D6227;stroke-opacity:1" d="M-2.9,0.8L-8.9 0.95M-18.55,1.15L-8.9 0.95" />
<path style="fill:none;stroke-width:0.1;stroke-linecap:butt;stroke-linejoin:miter;stroke-miterlimit:3;stroke:#4D6227;stroke-opacity:1" d="M-8.9,0.95L-8.9 5.65" />
</g>
</svg>
