<?xml version="1.0" encoding="utf-8"?>
<svg version="1.1" id="Layer_1"
xmlns="http://www.w3.org/2000/svg"
xmlns:xlink="http://www.w3.org/1999/xlink"
xmlns:author="http://www.sothink.com"
width="11px" height="7px"
xml:space="preserve">
<g id="92" transform="matrix(1, 0, 0, 1, -1.1, 0.5)">
<path style="fill:#727171;fill-opacity:1" d="M1.9,2.6L1.9 0.65L2 0.65L2 0.75L11.45 0L11.45 2.45L2 2.45L2 2.6L1.9 2.6" />
<path style="fill:#545454;fill-opacity:1" d="M2,2.6L2 2.45L11.45 2.45L11.45 5.55L1.6 5.5L2 4.95L1.85 3.7L1.9 2.6L2 2.6" />
<path style="fill:none;stroke-width:1;stroke-linecap:butt;stroke-linejoin:miter;stroke-miterlimit:3;stroke:#333333;stroke-opacity:1" d="M2,0.75L11.45 0L11.45 2.45L11.45 5.55L1.6 5.5M2,4.95L1.85 3.7L1.9 2.6L1.9 0.65L2 0.65" />
</g>
</svg>
