<?xml version="1.0" encoding="utf-8"?>
<svg version="1.1" id="Layer_1"
xmlns="http://www.w3.org/2000/svg"
xmlns:xlink="http://www.w3.org/1999/xlink"
xmlns:author="http://www.sothink.com"
width="51px" height="79px"
xml:space="preserve">
<g id="40" transform="matrix(1, 0, 0, 1, 28.1, 73.1)">
<path style="fill:#77F5DB;fill-opacity:1" d="M4.25,-68.4Q4.6 -69.3 5.25 -69.3Q6.45 -69.3 6.45 -67.95L6.15 -66.9Q5.8 -66.3 5.25 -66.3Q4.45 -66.3 4.2 -66.95L4.15 -67.15L4.15 -67.5L4.1 -68.1L4.25 -68.4M4.35,-56.85L6.25 -48.05Q8.2 -38.45 10.05 -35.55Q12.45 -31.8 12.45 -13.45Q12.45 -8.55 13.45 -3.3Q14.45 1.95 14.45 3.05Q14.45 4.7 10.95 5L6.9 4.95L6.8 4.95L-6.2 3.95Q-12.6 3.4 -16.65 3.75L-19.5 4.1L-23.1 4.1L-23.1 3.8L-22.95 3.3Q-20.95 -4.25 -18.85 -14.5L-15.05 -33.15L-13.35 -32.85L-12 -32.55Q-9.05 -32.55 -6.85 -38.9Q-5.75 -42.1 -5 -45.6Q-2.85 -47.75 0.95 -52.7Q4.1 -56.85 4.35 -56.85M20.25,-42.3Q19.5 -42.3 18.9 -42.9Q18.4 -43.4 18.35 -44.05L18.85 -45.45L19.3 -46.2Q19.85 -46.8 20.4 -46.8Q21.05 -46.8 21.6 -46.2Q22.2 -45.5 22.2 -44.55Q22.2 -42.3 20.25 -42.3M-3.8,-70.15Q-3.8 -68.85 -4.7 -67.8Q-5.7 -66.6 -7.2 -66.6Q-8.55 -66.6 -9.2 -67.2Q-10 -67.95 -10.05 -69.8L-10.05 -70L-10 -70.35L-9.75 -71.7L-9.4 -72.4Q-8.8 -73.1 -7.4 -73.1Q-5.7 -73.1 -4.7 -72.2Q-3.8 -71.4 -3.8 -70.15M-24.95,-26.9Q-24.55 -27.5 -24.15 -27.5Q-21.6 -27.5 -21.6 -25.7Q-21.6 -25.15 -22.2 -24.6Q-22.85 -24 -23.7 -24Q-24.25 -24 -24.8 -24.3Q-25.5 -24.65 -25.65 -25.35L-25 -26.8L-24.95 -26.9" />
<path style="fill:#D2DEEE;fill-opacity:1" d="M17.85,-1.65Q20.4 -1.15 20.4 0.9Q20.4 2.05 18.7 2.5L11.85 3.5L0.9 3.5L0.15 3.35L-8.85 3.35Q-13.25 4.45 -15.7 4.5L-24.3 4.4Q-25.35 4.4 -28.1 1.45Q-28.1 0.5 -27.6 0.35L-22.95 0.15L10.05 -1.65Q15.8 -2.05 17.85 -1.65" />
</g>
</svg>
