<?xml version="1.0" encoding="utf-8"?>
<svg version="1.1" id="Layer_1"
xmlns="http://www.w3.org/2000/svg"
xmlns:xlink="http://www.w3.org/1999/xlink"
xmlns:author="http://www.sothink.com"
width="70px" height="79px"
xml:space="preserve">
<g id="163" transform="matrix(1, 0, 0, 1, 27, 40.05)">
<path style="fill:#666699;fill-opacity:1" d="M27.6,-30.6L25.6 -30.8L17.8 -31Q10.85 -31.2 9.25 -30.95L8.25 -30.8L8.35 -30.9L6.95 -30.95Q6.15 -30.95 5.85 -31.2Q5.45 -31.55 5.5 -32.55L5.3 -35L5.3 -35.3L5.55 -35.3L9.2 -36L13.8 -36.7Q16.2 -36.6 17.9 -36.75L21.2 -36.9L24.95 -36.6L29.35 -36.25Q30.9 -36.2 31.35 -35.15Q31.6 -34.6 31.65 -32.6Q31.7 -31 32.2 -29.65L31.5 -29.65L29.75 -29.65L28.35 -29.95Q28.7 -30.4 27.6 -30.6" />
<path style="fill:#201F1F;fill-opacity:1" d="M21.45,-24.5Q19.6 -24.95 18.1 -27.55L18.3 -27.75Q18.65 -28.1 19.25 -28.3L22.65 -28.5L28.8 -28.4L29 -24.55L29 -23.5L21.45 -24.5M25.15,-26Q25.7 -25.45 26.55 -25.45Q27.2 -25.45 27.2 -26.15L27.05 -26.65Q26.85 -26.95 26.3 -27L26.15 -27.05L25.45 -27.1L24.75 -27L24.7 -26.7Q24.7 -26.4 25.15 -26" />
<path style="fill:#5C4572;fill-opacity:1" d="M26.15,-18.8L15.7 -19.35L10.25 -19.1L7.65 -19L7.55 -26L7.55 -26.4L9.4 -27.05L12.9 -27.1Q13.7 -27.1 15.2 -27.75L16.95 -28.4L17.85 -28.05L18.3 -27.75L18.1 -27.55Q17.65 -27 17.65 -26.05L17.6 -24.4Q17.6 -23.6 17.95 -22.45Q18.1 -21.9 19.35 -21.9L20.9 -21.8L24.6 -21.5L28.9 -21.55L28.65 -18.7L28.65 -18.6L26.15 -18.8M26.65,-9.3Q26.35 -9.1 19.25 -9.15L8.1 -9.9L2.45 -10.65L1.4 -10.55L1.55 -16.2L2.75 -15.95Q4.3 -15.95 5.4 -16.65Q6.5 -17.35 8.8 -17.35L12 -17.05L14.95 -16.8L21.4 -16.5L27.55 -16.9L29.7 -16.6Q30.65 -16.25 31.65 -15.3Q32.4 -14.6 33.6 -11.4L34.05 -10.45L33.25 -9.8L26.65 -9.35L26.55 -9.35L26.65 -9.3" />
<path style="fill:#9292C4;fill-opacity:1" d="M31.65,-32.6Q31.6 -34.6 31.35 -35.15Q30.9 -36.2 29.35 -36.25L24.95 -36.6L21.2 -36.9L17.9 -36.75Q16.2 -36.6 13.8 -36.7L9.2 -36L5.55 -35.3L5.3 -35.3Q5.35 -36.9 5.85 -37.15L9 -37.75L14.75 -38.95L21.2 -39.4L27.75 -39.55Q32.7 -39.55 33.35 -38.6Q33.8 -37.9 33.8 -31.6Q33.8 -30.15 33.35 -29.85L32.2 -29.65Q31.7 -31 31.65 -32.6" />
<path style="fill:#83679F;fill-opacity:1" d="M33.6,-11.4Q32.4 -14.6 31.65 -15.3Q30.65 -16.25 29.7 -16.6L27.55 -16.9L21.4 -16.5L14.95 -16.8L12 -17.05L8.8 -17.35Q6.5 -17.35 5.4 -16.65Q4.3 -15.95 2.75 -15.95L1.55 -16.2L1.55 -16.35Q2.05 -19.4 5.3 -19.05L7.65 -19L10.25 -19.1L15.7 -19.35L26.15 -18.8L28.65 -18.6L31.35 -18.4Q34.75 -17.45 34.75 -13.95Q34.75 -11.5 34.05 -10.45L33.6 -11.4" />
<path style="fill:#48355B;fill-opacity:1" d="M17.85,-28.05L16.95 -28.4L15.2 -27.75Q13.7 -27.1 12.9 -27.1L9.4 -27.05L7.55 -26.4Q7.55 -29.7 7.85 -30.3L8.25 -30.8L9.25 -30.95Q10.85 -31.2 17.8 -31L25.6 -30.8L27.6 -30.6Q28.7 -30.4 28.35 -29.95L28.8 -28.4L22.65 -28.5L19.25 -28.3Q18.65 -28.1 18.3 -27.75L17.85 -28.05" />
<path style="fill:#989393;fill-opacity:1" d="M24.7,-26.7L24.75 -27L25.45 -27.1L26.15 -27.05L26.3 -27Q26.85 -26.95 27.05 -26.65L27.2 -26.15Q27.2 -25.45 26.55 -25.45Q25.7 -25.45 25.15 -26Q24.7 -26.4 24.7 -26.7" />
<path style="fill:#2A2828;fill-opacity:1" d="M24.6,-21.5L20.9 -21.8L19.35 -21.9Q18.1 -21.9 17.95 -22.45Q17.6 -23.6 17.6 -24.4L17.65 -26.05Q17.65 -27 18.1 -27.55Q19.6 -24.95 21.45 -24.5L29 -23.5L28.9 -21.55L24.6 -21.5" />
<path style="fill:none;stroke-width:1;stroke-linecap:butt;stroke-linejoin:miter;stroke-miterlimit:3;stroke:#333333;stroke-opacity:1" d="M5.3,-35.3Q5.35 -36.9 5.85 -37.15L9 -37.75L14.75 -38.95L21.2 -39.4L27.75 -39.55Q32.7 -39.55 33.35 -38.6Q33.8 -37.9 33.8 -31.6Q33.8 -30.15 33.35 -29.85L32.2 -29.65L31.5 -29.65L29.75 -29.65L28.35 -29.95L28.8 -28.4L29 -24.55L29 -23.5L28.9 -21.55L28.65 -18.7L28.65 -18.6L31.35 -18.4Q34.75 -17.45 34.75 -13.95Q34.75 -11.5 34.05 -10.45L33.25 -9.8L26.65 -9.35L26.65 -9.3Q26.35 -9.1 19.25 -9.15L8.1 -9.9L2.45 -10.65L1.4 -10.55L1.55 -16.2L1.55 -16.35Q2.05 -19.4 5.3 -19.05L7.65 -19L7.55 -26L7.55 -26.4Q7.55 -29.7 7.85 -30.3L8.25 -30.8L8.35 -30.9L6.95 -30.95Q6.15 -30.95 5.85 -31.2Q5.45 -31.55 5.5 -32.55L5.3 -35L5.3 -35.3M8.25,-30.8L9.25 -30.95Q10.85 -31.2 17.8 -31L25.6 -30.8L27.6 -30.6Q28.7 -30.4 28.35 -29.95M28.8,-28.4L22.65 -28.5L19.25 -28.3Q18.65 -28.1 18.3 -27.75L18.1 -27.55Q17.65 -27 17.65 -26.05L17.6 -24.4Q17.6 -23.6 17.95 -22.45Q18.1 -21.9 19.35 -21.9L20.9 -21.8L24.6 -21.5L28.9 -21.55M7.65,-19L10.25 -19.1L15.7 -19.35L26.15 -18.8L28.65 -18.6M26.65,-9.35L26.55 -9.35L26.65 -9.3" />
<path style="fill:#666666;fill-opacity:1" d="M29.45,22.9L28.95 22.7L29.7 22.65L29.75 23.05L29.45 22.9M29.9,24.45L30.05 26.15L29.9 26.15L29.9 24.45" />
<path style="fill:#666699;fill-opacity:1" d="M-23.3,0.7L-25.35 0.6Q-26.45 0 -26.45 -2.5L-26.4 -4.6L-20.1 -3.4L-11.9 -2.6L-5.95 -2.8Q-2.2 -3.35 -2.2 -5.5Q-2.2 -6.3 -3.05 -7.25L-3.2 -7.4Q-2.75 -8.9 -2.95 -11.35L-2.85 -11.65Q-1.85 -10.45 -1.15 -10.2L2 -10.05L8.95 -10.45L41.9 -8.55Q41.5 -6.3 39.95 -5Q38.7 -3.95 37 -3.7L34.45 -3.75L29.7 -3.85Q26.55 -3.8 25.5 -3.9L20.95 -3.9L17.2 -3.9L13.3 -4.45L10.65 -4.5L3.55 -4.8Q3.35 1.5 2.9 1.6L-1.45 1.8L-10.8 1.4L-11.3 1.35L-18.1 0.75L-23.3 0.7M-25.2,-6.7L-24.8 -6.7L-26.5 -6.6L-26.5 -6.65L-25.2 -6.7M6,-6.95L4.9 -7.15L4 -7.05Q3.6 -6.9 3.6 -6.4Q3.6 -5.65 5.2 -5.65Q6.2 -5.65 6.2 -6.35L6 -6.95M1,-8.45Q0.15 -8.45 -0.35 -7.65L-0.7 -6.5Q-0.55 -4.7 1.3 -4.7Q2.8 -4.7 2.8 -6.85Q2.8 -8.45 1 -8.45M16.8,2.05L10.65 2.05L10.65 -0.4L10.65 -2.2L14.05 -1.55L16.85 -1.1L16.8 0.4L16.8 2.05M-11.2,6.2Q-11.1 8.15 -11.35 9L-13.15 9L-15.45 9L-16.65 4.85L-16.7 4.7L-17.1 3.45L-15.2 4.35L-11.2 6.2M25.85,-8.2Q24.4 -8.2 24.4 -6.85L24.45 -6.25Q24.75 -5.45 25.75 -5.45Q27.3 -5.45 27.3 -6.75Q27.3 -8.2 25.85 -8.2M30.1,-6Q30.1 -7.1 29.3 -7.05Q28.5 -7.05 28.5 -6L28.5 -5.55Q28.65 -5 29.3 -5Q30.1 -5 30.1 -6M-21.8,-1.4Q-21.8 -2.4 -23.15 -2.7Q-24.5 -2.95 -24.5 -1.45Q-24.5 -1.1 -23.8 -0.6L-22.5 -0.6Q-21.8 -0.95 -21.8 -1.4M-19.8,-1.25Q-20.6 -1.3 -20.6 -0.5Q-20.6 0.15 -19.8 0.15Q-19 0.1 -19 -0.5Q-19 -1.15 -19.8 -1.25" />
<path style="fill:#545353;fill-opacity:1" d="M-18.85,5.4L-16.7 4.7L-16.65 4.85L-18.85 5.4" />
<path style="fill:#3F3E3E;fill-opacity:1" d="M29.7,4.3Q28.85 5.25 27.55 5.25Q26.35 5.25 25.4 4.5Q24.3 3.6 24.3 2.05L24.35 1.65L24.35 1.4Q24.45 0.75 24.85 0.25Q24.95 -0.15 25.6 -0.5Q26.2 -0.9 26.95 -0.9Q27.65 -0.9 29.05 0.05Q30.45 1 30.45 2.35L30.45 2.75L29.7 4.3" />
<path style="fill:#CBC9C9;fill-opacity:1" d="M-15.4,28.7L-15.45 27.1L-15.45 26.8L29.9 26.15L30.05 26.15L29.9 28.6L-15.4 28.7" />
<path style="fill:#BF5D5D;fill-opacity:1" d="M29.9,28.6Q28.95 34.05 22.9 36.2Q18.45 37.75 7.2 37.75L0.15 37.45L-8 37.15Q-11.35 37.1 -13.55 33.9Q-15.1 31.55 -15.4 28.7L29.9 28.6" />
<path style="fill:#ABABD9;fill-opacity:1" d="M8.95,-10.45L2 -10.05L-1.15 -10.2Q-1.85 -10.45 -2.85 -11.65Q-2.2 -13.05 0.8 -12.95L4.6 -12.5L8.95 -12.4L28.4 -12.3L39.95 -12.1L41.85 -11.75L42 -10.15L41.9 -8.55L8.95 -10.45M-3.05,-7.25Q-2.2 -6.3 -2.2 -5.5Q-2.2 -3.35 -5.95 -2.8L-11.9 -2.6L-20.1 -3.4L-26.4 -4.6L-26.5 -6.6L-24.8 -6.7L-5.75 -5.4Q-3.85 -5.4 -3.2 -7.4L-3.05 -7.25" />
<path style="fill:#505083;fill-opacity:1" d="M6.2,-6.35Q6.2 -5.65 5.2 -5.65Q3.6 -5.65 3.6 -6.4Q3.6 -6.9 4 -7.05L4.9 -7.15L6 -6.95L6.2 -6.35M2.8,-6.85Q2.8 -4.7 1.3 -4.7Q-0.55 -4.7 -0.7 -6.5L-0.35 -7.65Q0.15 -8.45 1 -8.45Q2.8 -8.45 2.8 -6.85M14.05,-1.55L10.65 -2.2L10.65 -4.5L13.3 -4.45L17.2 -3.9L16.85 -1.2L16.85 -1.1L14.05 -1.55M-15.2,4.35L-17.1 3.45L-18.1 0.75L-11.3 1.35L-10.8 1.4Q-11.4 2.1 -11.35 4L-11.3 4.8L-11.2 6.2L-15.2 4.35M27.3,-6.75Q27.3 -5.45 25.75 -5.45Q24.75 -5.45 24.45 -6.25L24.4 -6.85Q24.4 -8.2 25.85 -8.2Q27.3 -8.2 27.3 -6.75M29.3,-5Q28.65 -5 28.5 -5.55L28.5 -6Q28.5 -7.05 29.3 -7.05Q30.1 -7.1 30.1 -6Q30.1 -5 29.3 -5M-22.5,-0.6L-23.8 -0.6Q-24.5 -1.1 -24.5 -1.45Q-24.5 -2.95 -23.15 -2.7Q-21.8 -2.4 -21.8 -1.4Q-21.8 -0.95 -22.5 -0.6M-19,-0.5Q-19 0.1 -19.8 0.15Q-20.6 0.15 -20.6 -0.5Q-20.6 -1.3 -19.8 -1.25Q-19 -1.15 -19 -0.5" />
<path style="fill:#8A8686;fill-opacity:1" d="M-15.45,26.8Q-15.45 23.2 -19 15.85L-19.75 14.4Q-23.1 7.75 -23.35 3.2L-21.25 2.8Q-18.85 2.8 -18.6 7.4Q-18.35 11.95 -16.3 11.95Q-13.4 11.95 -13.15 9L-11.35 9Q-11.1 8.15 -11.2 6.2L-11.3 4.8L-11.35 4L-9.25 4.65L-8.05 5.1L-8.05 5.15L-7.15 5.3L-5 5.6L1.4 6.2L3.55 5.8L4.6 5.8L4.6 5.75L4.65 5Q5.5 4.1 5.8 2.55Q6.25 0.45 6.45 0.05Q7 -1.1 8.4 -1.1Q9.3 -1.1 10.65 -0.4L10.65 2.05L16.8 2.05L16.8 0.4Q19 0.25 20.35 0.4L22.1 0.8L22.1 0.85L22.75 1L24.35 1.4L24.35 1.65L24.3 2.05Q24.3 3.6 25.4 4.5Q26.35 5.25 27.55 5.25Q28.85 5.25 29.7 4.3L30.45 2.75L34.1 3L34.9 3L34.85 3.05L31 9.15Q28.9 13.85 29.7 22.65L28.95 22.7L29.45 22.9L29.75 23.05L30 23.25L29.8 23.65L29.9 24.45L29.9 26.15L-15.45 26.8" />
<path style="fill:#706E6E;fill-opacity:1" d="M37,-3.7Q37.25 -0.7 34.9 3L34.1 3L30.45 2.75L30.45 2.35Q30.45 1 29.05 0.05Q27.65 -0.9 26.95 -0.9Q26.2 -0.9 25.6 -0.5Q24.95 -0.15 24.85 0.25Q24.45 0.75 24.35 1.4L22.75 1L22.1 0.85L22.1 0.8L20.35 0.4Q19 0.25 16.8 0.4L16.85 -1.1L16.85 -1.2L17.2 -3.9L20.95 -3.9L25.5 -3.9Q26.55 -3.8 29.7 -3.85L34.45 -3.75L37 -3.7M-13.15,9Q-13.4 11.95 -16.3 11.95Q-18.35 11.95 -18.6 7.4Q-18.85 2.8 -21.25 2.8L-23.35 3.2L-23.3 0.95L-23.3 0.7L-18.1 0.75L-17.1 3.45L-16.7 4.7L-18.85 5.4L-16.65 4.85L-15.45 9L-13.15 9M-10.8,1.4L-1.45 1.8L2.9 1.6Q3.35 1.5 3.55 -4.8L10.65 -4.5L10.65 -2.2L10.65 -0.4Q9.3 -1.1 8.4 -1.1Q7 -1.1 6.45 0.05Q6.25 0.45 5.8 2.55Q5.5 4.1 4.65 5L4.6 5.75L4.6 5.8L3.55 5.8L1.4 6.2L-5 5.6L-7.15 5.3L-8.05 5.15L-8.05 5.1L-9.25 4.65L-11.35 4Q-11.4 2.1 -10.8 1.4" />
<path style="fill:none;stroke-width:1;stroke-linecap:butt;stroke-linejoin:miter;stroke-miterlimit:3;stroke:#333333;stroke-opacity:1" d="M-18.1,0.75L-23.3 0.7L-25.35 0.6Q-26.45 0 -26.45 -2.5L-26.4 -4.6L-26.5 -6.6L-26.5 -6.65L-26.5 -6.7L-25.2 -6.7L-24.8 -6.7L-5.75 -5.4Q-3.85 -5.4 -3.2 -7.4Q-2.75 -8.9 -2.95 -11.35L-2.85 -11.65Q-2.2 -13.05 0.8 -12.95L4.6 -12.5L8.95 -12.4L28.4 -12.3L39.95 -12.1L41.85 -11.75L42 -10.15L41.9 -8.55Q41.5 -6.3 39.95 -5Q38.7 -3.95 37 -3.7Q37.25 -0.7 34.9 3L34.85 3.05L31 9.15Q28.9 13.85 29.7 22.65L29.75 23.05M29.8,23.65L29.9 24.45L30.05 26.15L29.9 28.6Q28.95 34.05 22.9 36.2Q18.45 37.75 7.2 37.75L0.15 37.45L-8 37.15Q-11.35 37.1 -13.55 33.9Q-15.1 31.55 -15.4 28.7L-15.45 27.1L-15.45 26.8Q-15.45 23.2 -19 15.85L-19.75 14.4Q-23.1 7.75 -23.35 3.2L-23.3 0.95M16.85,-1.1L16.85 -1.2L17.2 -3.9L13.3 -4.45L10.65 -4.5L10.65 -2.2L10.65 -0.4L10.65 2.05L16.8 2.05L16.8 0.4M16.85,-1.1L16.8 0.4M24.35,1.4Q24.45 0.75 24.85 0.25Q24.95 -0.15 25.6 -0.5Q26.2 -0.9 26.95 -0.9Q27.65 -0.9 29.05 0.05Q30.45 1 30.45 2.35L30.45 2.75M10.65,-4.5L3.55 -4.8Q3.35 1.5 2.9 1.6L-1.45 1.8L-10.8 1.4Q-11.4 2.1 -11.35 4L-11.3 4.8L-11.2 6.2Q-11.1 8.15 -11.35 9L-13.15 9M17.2,-3.9L20.95 -3.9L25.5 -3.9Q26.55 -3.8 29.7 -3.85L34.45 -3.75L37 -3.7M-16.65,4.85L-16.7 4.7L-17.1 3.45L-18.1 0.75L-11.3 1.35L-10.8 1.4M-16.65,4.85L-15.45 9L-13.15 9M24.35,1.4L24.35 1.65L24.3 2.05Q24.3 3.6 25.4 4.5Q26.35 5.25 27.55 5.25Q28.85 5.25 29.7 4.3L30.45 2.75" />
</g>
</svg>
