<?xml version="1.0" encoding="utf-8"?>
<svg version="1.1" id="Layer_1"
xmlns="http://www.w3.org/2000/svg"
xmlns:xlink="http://www.w3.org/1999/xlink"
xmlns:author="http://www.sothink.com"
width="12px" height="9px"
xml:space="preserve">
<g id="32" transform="matrix(1, 0, 0, 1, 10.25, 4.3)">
<path style="fill:#FEFE02;fill-opacity:0.988235" d="M-3.6,3.3L-2.85 2.3L-2.15 1.45L-5.4 1.1L-9 0.45Q-8.35 0 -7.3 -0.1L-5.75 -0.25L-4.1 -0.55Q-2.85 -0.65 -2.85 -1L-3.05 -1.55L-3.3 -2.15L-2.85 -2.15L-1.25 -1.75L-0.9 -1.75L-0.6 -3.2L0.35 -2.3L0.95 -1.25L0.95 -1.15L0.35 -0.9L-0.2 -0.7Q-0.15 -0.4 1.15 1.4L0.3 3.35Q0 3.35 -0.15 2.9L-0.6 2.4L-1.3 2.85L-2 3L-3.4 3.35L-3.6 3.3" />
<path style="fill:none;stroke-width:1;stroke-linecap:butt;stroke-linejoin:miter;stroke-miterlimit:3;stroke:#FF6600;stroke-opacity:1" d="M-3.6,3.3L-2.85 2.3L-2.15 1.45L-5.4 1.1L-9 0.45Q-8.35 0 -7.3 -0.1L-5.75 -0.25L-4.1 -0.55Q-2.85 -0.65 -2.85 -1L-3.05 -1.55L-3.3 -2.15L-2.85 -2.15L-1.25 -1.75L-0.9 -1.75L-0.6 -3.2L0.35 -2.3L0.95 -1.25L0.95 -1.15L0.35 -0.9L-0.2 -0.7Q-0.15 -0.4 1.15 1.4L0.3 3.35Q0 3.35 -0.15 2.9L-0.6 2.4L-1.3 2.85L-2 3L-3.4 3.35L-3.65 3.35L-3.6 3.3z" />
</g>
</svg>
