<?xml version="1.0" encoding="utf-8"?>
<svg version="1.1" id="Layer_1"
xmlns="http://www.w3.org/2000/svg"
xmlns:xlink="http://www.w3.org/1999/xlink"
xmlns:author="http://www.sothink.com"
width="88px" height="97px"
xml:space="preserve">
<g id="137" transform="matrix(1, 0, 0, 1, 43.9, 41.3)">
<path style="fill:#91664D;fill-opacity:1" d="M35.55,-14.4L31.25 -14.05Q26.05 -13.4 21.65 -11.65L21.6 -13.75L21.85 -17.2L21.95 -20.9L25.95 -21.1L29.7 -20.75L30.35 -20.7L32.15 -20.6L32.95 -20.6L35.4 -20.65L35.4 -19.05L34.85 -19.1L32.2 -19.15L30.2 -19.1Q27.3 -18.85 27.3 -16.6Q27.3 -15.8 31 -15.8L35.45 -15.95L35.55 -14.4M34.05,-26L29.5 -26L23.05 -25.9L22.85 -25.85Q22.2 -29.35 25.1 -29.35L30.3 -29.5L33.35 -29.3Q34.4 -28.75 34.05 -26M-14.7,-13.9L-15.45 -12.75Q-16.65 -10.65 -17.25 -8.2Q-20.9 -8.65 -24.1 -10.4L-28.45 -13.25L-30.3 -14.4L-29.5 -18.45Q-28.7 -21.75 -27.5 -23.95L-26.1 -25.95L-25.85 -25.45L-23.55 -25.25L-14.6 -26.45L-4.55 -27.65Q-0.05 -27.65 3.2 -26.5L3.8 -26.3L3.55 -25.35L3.55 -25.2L1.55 -25.1L-0.75 -25Q-1.45 -24.9 -2.85 -23.1L-4.4 -21.35Q-5 -21.35 -5.75 -21.8Q-6.45 -22.3 -7.1 -22.3Q-7.4 -22.3 -8.3 -21.35Q-9.3 -20.3 -9.3 -19.6L-7.95 -18.3Q-11.9 -17.85 -14.7 -13.9M-23.5,16.25Q-23.5 15.1 -23.8 14.1Q-24.45 12.15 -25.95 12.15Q-28.1 12.15 -28.5 13.5L-28.5 15.45L-28.35 17.5L-28.35 17.6L-33.8 16.65L-34.05 12.75L-34.2 11.2L-31.75 11.55L-30.15 11.4L-26.6 11.2L-25.65 11.3L-19.8 12L-13.9 12.25L-8.2 12.4Q-4.65 12.5 -2.65 13.5Q-2.4 13.6 -2.15 13.8Q-1.2 14.4 -0.7 15.7Q-0.3 16.75 0.25 19.65L0.2 19.65L-2.7 19.9L-9.85 19.3Q-9.15 17.55 -9.15 16.45Q-9.15 12.4 -11.65 12.35Q-14.15 12.3 -14.15 16.05L-13.9 18.8L-16.8 18.5Q-16.65 17.5 -16.65 16.15Q-16.65 12.45 -19.05 12.35Q-21.45 12.25 -21.45 16.1L-21.1 18.35L-23.75 18.15L-23.5 16.25M9.35,18.2L9.3 18.2L1.7 18.65L1.95 14.15L4.7 13.6Q6.7 13.35 7 12.5L7.35 10.9L7.55 10.1L8.75 10.2Q10.6 10.25 11.3 11.05Q11.65 11.45 11.65 12.05L11.15 13.35L10.85 14.2L10.65 15.45Q10.65 16.8 11.15 17.85L9.35 18.2M-11.7,-34.3L-18.2 -35.7L-18.1 -36.4L-17.4 -37.45L-16.05 -38.5Q-15.15 -38.5 -14.2 -37.4Q-13.25 -36.3 -12.4 -36.3Q-10.85 -36.3 -9.05 -37.2L-9.3 -36.6L-9.8 -34L-11.7 -34.3M-4.85,-40.05L-3.55 -40.75L-3 -40.65L-4.85 -40.05" />
<path style="fill:#D2BEB3;fill-opacity:1" d="M23.05,-25.9L29.5 -26L34.05 -26L34.25 -26Q36.9 -25.65 36.9 -23.5Q36.9 -21.25 36.1 -20.8L35.4 -20.65L32.95 -20.6L32.15 -20.6L30.35 -20.7L29.7 -20.75L25.95 -21.1L21.95 -20.9L21.9 -20.9L21.75 -20.9Q19.95 -20.9 19.95 -22.9L20.1 -24.5L20.2 -25.4L22.8 -25.85L22.85 -25.85L23.05 -25.9M14.15,-7.45L14 -8Q13.6 -9.7 13.35 -11.85L13.3 -12.3L13.05 -14.45L12.35 -19.35L11.8 -20.6L10.95 -22.1L10.85 -22.3L9 -24.3Q8.05 -25.1 5.55 -26.25L5.2 -29.4L4.3 -37.45L4 -38.75L4.1 -38.75Q5.05 -38.75 6.95 -36.95L7.65 -36.25L7.45 -33.5L7.15 -28.9Q10.65 -27.9 13.05 -26.45Q16.7 -24.3 16.8 -18.4Q16.3 -11.8 16.65 -9.15L15.95 -8.75L14.4 -7.6L14.15 -7.45M1.95,1.6L1.95 0.35L2 1.6L1.95 1.6" />
<path style="fill:#B18266;fill-opacity:1" d="M-17.75,-29.9L-10.1 -30.55L-10.05 -30.55L-4.8 -30.65L4.45 -29.6L3.95 -26.95L3.8 -26.3L3.2 -26.5Q-0.05 -27.65 -4.55 -27.65L-14.6 -26.45L-23.55 -25.25L-25.85 -25.45L-26.1 -25.95L-25.65 -26.45Q-23 -28.95 -18.05 -29.85L-17.75 -29.9M-34.25,10.55L-33.7 9.55Q-32.95 8.85 -31.1 8.85L-31.05 8.85L-26.6 8.85L-22.6 8.85L-12.9 8.85L-11.5 8.9L-11.4 8.9L-4.1 9.4L-3.4 9.5Q1.95 10.15 1.95 13.1L1.95 14.15L1.7 18.65L1.55 19.55L0.25 19.65Q-0.3 16.75 -0.7 15.7Q-1.2 14.4 -2.15 13.8Q-2.4 13.6 -2.65 13.5Q-4.65 12.5 -8.2 12.4L-13.9 12.25L-19.8 12L-25.65 11.3L-26.6 11.2L-30.15 11.4L-31.75 11.55L-34.2 11.2L-34.25 10.55M7.8,9.05Q8.25 7.9 10.55 7.9Q12.75 7.9 13.6 8.4Q14.6 8.95 14.8 10.4L14.85 11.2Q14.85 15.8 12.05 17.45L11.15 17.85Q10.65 16.8 10.65 15.45L10.85 14.2L11.15 13.35L11.65 12.05Q11.65 11.45 11.3 11.05Q10.6 10.25 8.75 10.2L7.55 10.1L7.8 9.05" />
<path style="fill:#AF9B90;fill-opacity:1" d="M-3,-40.65Q-2 -40.4 -1.05 -39.15Q0.15 -37.55 0.55 -37.55L2.25 -38.15L4 -38.75L4.3 -37.45L5.2 -29.4L5.55 -26.25Q8.05 -25.1 9 -24.3L10.85 -22.3Q9.6 -23.05 7.05 -21.8L6.55 -23.5L6.05 -25.25L3.85 -25.25L3.55 -25.2L3.55 -25.35L3.8 -26.3L3.95 -26.95L4.45 -29.6L-4.8 -30.65L-10.05 -30.55L-9.8 -34L-9.3 -36.6L-9.05 -37.2Q-8.05 -37.7 -7 -38.5L-4.85 -40.05L-3 -40.65M12.15,-16.25Q12.05 -16.55 11.9 -19.85L11.8 -20.6L12.35 -19.35L13.05 -14.45Q12.35 -15.05 12.15 -16.25M11.75,-10.55Q12.3 -10.85 13.1 -12L13.3 -12.3L13.35 -11.85Q13.6 -9.7 14 -8L11.75 -10.55M-25.2,43.85L-25.25 42.8Q-25.45 37.15 -26.3 32.7L-26.9 28.2L-17.9 27.2L-8.55 27.05L-8.55 27.9Q-6.2 28.6 -4.8 30.05Q-3.5 31.3 -2.4 33.8L1.1 31.85L5.1 29.9L4.25 27.8L3.35 25.85Q3.35 25.3 4 24.65Q4.85 23.75 6.75 22.75Q7.6 22.3 8.8 21.8L9.4 21.5L10.45 20.8L10.7 20.5Q11.85 19.25 12.05 17.45Q14.85 15.8 14.85 11.2L14.8 10.4L17 8.9L20.05 5.1Q20.85 3.95 23.4 3.95Q24.85 3.95 28.85 6.4L30.25 7.25Q23.7 16.2 20.25 25.05Q18.55 29.35 17.35 34.55L15.65 42.05L15.7 42.8L-25.2 43.85M-5.25,-36.65L-5.4 -36.2L-5.55 -35.45L-5.5 -35.1Q-5.45 -34.4 -4.95 -34.25L-3.9 -34.25Q-1.95 -34.25 -1.95 -36.05Q-1.95 -37 -2.25 -37.25L-3.45 -37.55L-4.7 -37.4L-5.05 -36.65L-5.25 -36.65M-8.55,-11.65L-8.55 -11.6L-8.6 -11.4L-8.95 -11.15Q-11.4 -12.75 -14.9 -12.75L-15.45 -12.75L-14.7 -13.9Q-11.9 -17.85 -7.95 -18.3Q-6.1 -16.35 -6.1 -15.8Q-6.1 -15.25 -7.3 -13.75L-7.4 -13.6Q-8.55 -12.25 -8.55 -11.65" />
<path style="fill:#E2CEA8;fill-opacity:1" d="M-23.15,-3.95L-17.85 -3.85L-16.2 -3.8L-16.1 -3.8L-8.25 -3.5L-8.1 -3.5L-2.3 -3.25L7.2 -3.05Q8.25 -3.05 10.3 -4.55L10.65 -4.85L14.15 -7.45L14.4 -7.6L15.95 -8.75L16.65 -9.15Q19 -10.6 21.65 -11.65Q26.05 -13.4 31.25 -14.05L35.55 -14.4L37.5 -14.45Q43.4 -14.45 43.4 -12.35Q43.4 -6.5 42.25 -4L41.9 -3.35L40.6 -2.05L39.7 -4.25Q39.2 -5.8 38.95 -7.3Q38.7 -8.9 38.1 -9.35L34.6 -9.85L25.7 -8.6Q19.4 -7.3 17.75 -6.45L11.5 -2.75L11.5 -2.7L9.45 -1.2L7.55 -0.8L7.1 -0.75L1.95 -0.6L-2.5 -0.65L-8.3 -1.35L-16.15 -2.1L-30.3 -1.6L-31.15 -1.6L-35.4 -1.6L-36.75 -1.65L-36.8 -3.95L-31.1 -3.95L-23.15 -3.95" />
<path style="fill:#D2B783;fill-opacity:1" d="M-36.35,1.6Q-36.65 0.5 -36.75 -1.65L-35.4 -1.6L-31.15 -1.6L-30.3 -1.6L-16.15 -2.1L-8.3 -1.35L-2.5 -0.65L1.95 -0.6L7.1 -0.75L7.55 -0.8L9.45 -1.2L11.5 -2.7L11.5 -2.75L17.75 -6.45Q19.4 -7.3 25.7 -8.6L34.6 -9.85L38.1 -9.35Q38.7 -8.9 38.95 -7.3Q39.2 -5.8 39.7 -4.25L38.75 -4.4L30.9 -4.95L24.65 -4.4Q19.15 -3.7 17.75 -2.75Q14.05 -0.2 11.5 0.65L9.95 1.05L7.3 1.4L4.1 1.55L2 1.6L1.95 0.35L1.95 1.6L-1.9 1.65L-23.7 2L-24 2L-24.05 2L-30.2 1.95L-30.25 1.95L-30.55 1.95L-36.35 1.6" />
<path style="fill:#938075;fill-opacity:1" d="M5.15,7.9L4.95 5.25L12.9 5.35Q14.75 5.35 15.8 4.3L17.35 2.05Q19.55 -1.25 25.05 -1.25L34.65 -0.65L35.8 0.35L30.25 7.25L28.85 6.4Q24.85 3.95 23.4 3.95Q20.85 3.95 20.05 5.1L17 8.9L14.8 10.4Q14.6 8.95 13.6 8.4Q12.75 7.9 10.55 7.9Q8.25 7.9 7.8 9.05L7.55 10.1L7.35 10.9Q5.4 9.6 5.15 7.9M-8.3,24.25Q-8.3 25.25 -8.55 25.75L-8.55 27.05L-17.9 27.2L-26.9 28.2L-27.3 24.5L-27.35 24L-26.65 24L-8.3 24.25M-6.55,4.9L-7.35 5.95Q-8.05 6.8 -8.8 6.8L-10.05 6.35L-11.25 6.05Q-11.25 7.9 -11.4 8.9L-11.5 8.9L-12.9 8.85L-22.6 8.85L-26.6 8.85L-31.05 8.85L-31.1 8.85Q-32.1 6.25 -33.35 4.35L-30.2 4.45L-24 4.2L-23.7 4.2L-15.75 4.45L-6.55 4.9M10.45,20.8L9.85 19.45L9.35 18.2L11.15 17.85L12.05 17.45Q11.85 19.25 10.7 20.5L10.45 20.8M1.55,19.55L1 21.4L0.85 21.1L0.3 19.75L0.25 19.65L1.55 19.55M-8.25,-3.5L-16.1 -3.8L-16.2 -3.8L-17.85 -3.85Q-17.75 -6.15 -17.25 -8.2Q-16.65 -10.65 -15.45 -12.75L-14.9 -12.75Q-11.4 -12.75 -8.95 -11.15L-9.05 -11L-9.15 -9.95Q-9.15 -9.05 -8.55 -8.4L-8.25 -8.15Q-7.45 -7.55 -6.25 -7.55L-7 -6.1L-8.25 -3.5" />
<path style="fill:#332E2A;fill-opacity:1" d="M35.4,-19.05L35.45 -15.95L31 -15.8Q27.3 -15.8 27.3 -16.6Q27.3 -18.85 30.2 -19.1L32.2 -19.15L34.85 -19.1L35.4 -19.05" />
<path style="fill:#B19868;fill-opacity:1" d="M-30.55,1.95L-30.25 1.95L-30.2 1.95L-24.05 2L-24 2L-23.7 2L-1.9 1.65L1.95 1.6L2 1.6L4.1 1.55L7.3 1.4L9.95 1.05L11.5 0.65Q14.05 -0.2 17.75 -2.75Q19.15 -3.7 24.65 -4.4L30.9 -4.95L38.75 -4.4L39.7 -4.25L40.6 -2.05Q39.15 -1.05 36.75 -0.75L34.65 -0.65L25.05 -1.25Q19.55 -1.25 17.35 2.05L15.8 4.3Q14.75 5.35 12.9 5.35L4.95 5.25L4.85 5.25L-0.85 5.1L-6.35 4.9L-6.55 4.9L-15.75 4.45L-23.7 4.2L-24 4.2L-30.2 4.45L-33.35 4.35Q-35.4 3.9 -36.15 2.25L-36.35 1.6L-30.55 1.95" />
<path style="fill:#625953;fill-opacity:1" d="M-29.5,-18.45L-43.4 -17.75L-43.4 -18.05Q-42.95 -19.8 -42.75 -22L-39 -22.65L-35.4 -23.25L-31.4 -23.6L-27.85 -24.1L-27.5 -23.95Q-28.7 -21.75 -29.5 -18.45M-39.45,-20.7Q-39.65 -20 -38.85 -20Q-32 -20 -32 -21.3Q-32 -22.05 -35.7 -21.75Q-39.45 -21.4 -39.45 -20.7" />
<path style="fill:#413A36;fill-opacity:1" d="M-29.5,-18.45L-30.3 -14.4L-30.35 -14L-36.45 -14.85Q-40.55 -15.5 -43.2 -16.3L-43.4 -16.6L-43.4 -17.75L-29.5 -18.45" />
<path style="fill:#79543E;fill-opacity:1" d="M-26.65,24L-27.35 24L-31.05 24Q-33.7 23.5 -33.7 20.55L-33.8 16.65L-28.35 17.6L-28.3 18.15L-28 19.15Q-27.35 20.75 -26 20.75Q-24.55 20.75 -23.9 18.65L-23.75 18.15L-21.1 18.35L-21.1 18.55Q-20.5 21.25 -19 21.25Q-17.3 21.25 -16.8 18.5L-13.9 18.8Q-13.35 21.65 -12 21.65Q-10.8 21.65 -9.9 19.4L-9.85 19.3L-2.7 19.9L0.2 19.65L0.25 19.65L0.3 19.75L0.85 21.1L1 21.4L0.75 21.8Q-0.9 24.25 -7.2 24.25L-8.05 24.25L-8.3 24.25L-26.65 24M-17.85,-3.85L-23.15 -3.95L-31.1 -3.95Q-30.95 -9.65 -30.35 -14L-30.3 -14.4L-28.45 -13.25L-24.1 -10.4Q-20.9 -8.65 -17.25 -8.2Q-17.75 -6.15 -17.85 -3.85M-18.05,-29.85L-18.15 -30.35L-18.2 -35.5L-18.2 -35.7L-11.7 -34.3L-9.8 -34L-10.05 -30.55L-10.1 -30.55L-17.75 -29.9L-18.05 -29.85M-5.05,-36.65L-4.7 -37.4L-3.45 -37.55L-2.25 -37.25Q-1.95 -37 -1.95 -36.05Q-1.95 -34.25 -3.9 -34.25L-4.95 -34.25Q-5.45 -34.4 -5.5 -35.1L-5.05 -36.65" />
<path style="fill:#9C948F;fill-opacity:1" d="M-35.7,-21.75Q-32 -22.05 -32 -21.3Q-32 -20 -38.85 -20Q-39.65 -20 -39.45 -20.7Q-39.45 -21.4 -35.7 -21.75" />
<path style="fill:#E2D1C7;fill-opacity:1" d="M15.7,42.8L15.8 45.35L-25.1 46.1L-25.2 43.85L15.7 42.8" />
<path style="fill:#BF5D5D;fill-opacity:1" d="M15.8,45.35Q15.6 53.35 10.1 54.25L-7.95 54.85Q-19.45 54.4 -21.9 53.25Q-24.15 52.15 -24.75 49.5L-25.1 46.1L15.8 45.35" />
<path style="fill:#5B3F2E;fill-opacity:1" d="M-9.85,19.3L-9.9 19.4Q-10.8 21.65 -12 21.65Q-13.35 21.65 -13.9 18.8L-14.15 16.05Q-14.15 12.3 -11.65 12.35Q-9.15 12.4 -9.15 16.45Q-9.15 17.55 -9.85 19.3M-16.8,18.5Q-17.3 21.25 -19 21.25Q-20.5 21.25 -21.1 18.55L-21.1 18.35L-21.45 16.1Q-21.45 12.25 -19.05 12.35Q-16.65 12.45 -16.65 16.15Q-16.65 17.5 -16.8 18.5M-23.75,18.15L-23.9 18.65Q-24.55 20.75 -26 20.75Q-27.35 20.75 -28 19.15L-28.3 18.15L-28.35 17.6L-28.35 17.5L-28.5 15.45L-28.5 13.5Q-28.1 12.15 -25.95 12.15Q-24.45 12.15 -23.8 14.1Q-23.5 15.1 -23.5 16.25L-23.75 18.15" />
<path style="fill:#3A271B;fill-opacity:1" d="M0.75,21.8L0.65 22.25L4 24.65Q3.35 25.3 3.35 25.85L4.25 27.8L5.1 29.9L1.1 31.85L-2.4 33.8Q-3.5 31.3 -4.8 30.05Q-6.2 28.6 -8.55 27.9L-8.55 27.05L-8.55 25.75Q-8.3 25.25 -8.3 24.25L-8.05 24.25L-7.2 24.25Q-0.9 24.25 0.75 21.8M-7,-6.1L-6.25 -7.55Q-7.45 -7.55 -8.25 -8.15L-8.55 -8.4L-8.85 -10.1L-8.75 -11L-8.6 -11.4L-8.55 -11.6L-8.55 -11.65Q-8.55 -12.25 -7.4 -13.6L-3.15 -15Q-3.6 -12.65 -2.25 -10.65Q-0.75 -8.4 1.65 -9.05L-1.55 -4.65L-2.3 -3.25L-8.1 -3.5L-8.25 -3.5L-7 -6.1M-11.25,6.05L-10.05 6.35L-8.8 6.8Q-8.05 6.8 -7.35 5.95L-6.55 4.9L-6.35 4.9L-0.85 5.1L-0.5 6.2Q-0.5 7.25 -2.2 8.4L-3.4 9.5L-4.1 9.4L-11.4 8.9Q-11.25 7.9 -11.25 6.05" />
<path style="fill:none;stroke-width:1;stroke-linecap:butt;stroke-linejoin:miter;stroke-miterlimit:3;stroke:#62493D;stroke-opacity:1" d="M-4.85,-40.05L-3 -40.65Q-2 -40.4 -1.05 -39.15Q0.15 -37.55 0.55 -37.55L2.25 -38.15L4 -38.75L4.1 -38.75Q5.05 -38.75 6.95 -36.95L7.65 -36.25L7.45 -33.5L7.15 -28.9Q10.65 -27.9 13.05 -26.45Q16.7 -24.3 16.8 -18.4Q16.3 -11.8 16.65 -9.15Q19 -10.6 21.65 -11.65L21.6 -13.75L21.85 -17.2L21.95 -20.9M5.2,-29.4L7.15 -28.9M5.2,-29.4L4.65 -29.55L4.45 -29.6L3.95 -26.95L3.8 -26.3L3.55 -25.35L3.55 -25.2L3.85 -25.25L6.05 -25.25L6.55 -23.5L7.05 -21.8Q9.6 -23.05 10.85 -22.3M-17.85,-3.85Q-17.75 -6.15 -17.25 -8.2Q-16.65 -10.65 -15.45 -12.75L-14.7 -13.9Q-11.9 -17.85 -7.95 -18.3L-9.3 -19.6Q-9.3 -20.3 -8.3 -21.35Q-7.4 -22.3 -7.1 -22.3Q-6.45 -22.3 -5.75 -21.8Q-5 -21.35 -4.4 -21.35L-2.85 -23.1Q-1.45 -24.9 -0.75 -25L1.55 -25.1L3.55 -25.2M11.8,-20.6L11.9 -19.85Q12.05 -16.55 12.15 -16.25Q12.35 -15.05 13.05 -14.45Q13.45 -14.15 14 -14Q14 -13.35 13.3 -12.3L13.1 -12Q12.3 -10.85 11.75 -10.55L14 -8L14.4 -7.6L15.95 -8.75L16.65 -9.15M11.8,-20.6Q11.55 -21.85 10.85 -22.3M-2.3,-3.25L7.2 -3.05Q8.25 -3.05 10.3 -4.55L10.65 -4.85L14.15 -7.45L14.4 -7.6M-33.35,4.35L-30.2 4.45L-24 4.2L-23.7 4.2L-15.75 4.45L-6.55 4.9L-6.35 4.9L-0.85 5.1L4.85 5.25L4.95 5.25L12.9 5.35Q14.75 5.35 15.8 4.3L17.35 2.05Q19.55 -1.25 25.05 -1.25L34.65 -0.65L36.75 -0.75Q39.15 -1.05 40.6 -2.05L41.9 -3.35L42.25 -4Q43.4 -6.5 43.4 -12.35Q43.4 -14.45 37.5 -14.45L35.55 -14.4L31.25 -14.05Q26.05 -13.4 21.65 -11.65M34.85,-19.1L32.2 -19.15L30.2 -19.1Q27.3 -18.85 27.3 -16.6Q27.3 -15.8 31 -15.8L35.45 -15.95L35.4 -19.05M35.4,-20.65L35.4 -19.05M35.45,-15.95L35.55 -14.4M30.25,7.25L35.8 0.35L36.75 -0.75M30.25,7.25Q23.7 16.2 20.25 25.05Q18.55 29.35 17.35 34.55L15.65 42.05L15.7 42.8L15.8 45.35Q15.6 53.35 10.1 54.25L-7.95 54.85Q-19.45 54.4 -21.9 53.25Q-24.15 52.15 -24.75 49.5L-25.1 46.1L-25.2 43.85L-25.25 42.8Q-25.45 37.15 -26.3 32.7L-26.9 28.2L-27.3 24.5L-27.35 24L-31.05 24Q-33.7 23.5 -33.7 20.55L-33.8 16.65L-34.05 12.75Q-34.45 11.8 -34.35 11.15L-34.25 10.55L-33.7 9.55Q-32.95 8.85 -31.1 8.85Q-32.1 6.25 -33.35 4.35Q-35.4 3.9 -36.15 2.25L-36.35 1.6Q-36.65 0.5 -36.75 -1.65L-36.8 -3.95L-31.1 -3.95Q-30.95 -9.65 -30.35 -14L-36.45 -14.85Q-40.55 -15.5 -43.2 -16.3M-43.4,-16.6L-43.4 -17.75L-43.4 -18.05Q-42.95 -19.8 -42.75 -22L-39 -22.65L-35.4 -23.25L-31.4 -23.6L-27.85 -24.1M-27.5,-23.95L-26.1 -25.95L-25.65 -26.45Q-23 -28.95 -18.05 -29.85M-18.15,-30.35L-18.2 -35.5Q-18.4 -35.95 -18.1 -36.4L-17.9 -38.05M11.15,17.85L12.05 17.45Q14.85 15.8 14.85 11.2L14.8 10.4Q14.6 8.95 13.6 8.4Q12.75 7.9 10.55 7.9Q8.25 7.9 7.8 9.05L7.55 10.1L7.35 10.9L7 12.5Q6.7 13.35 4.7 13.6L1.95 14.15L1.7 18.65L9.3 18.2L9.35 18.2L11.15 17.85M4.95,5.25L5.15 7.9Q5.4 9.6 7.35 10.9M-3.4,9.5Q1.95 10.15 1.95 13.1L1.95 14.15M-8.05,24.25L-7.2 24.25Q-0.9 24.25 0.75 21.8L1 21.4L1.55 19.55L1.7 18.65M-34.25,10.55L-34.2 11.2L-34.05 12.75M4,24.65Q4.85 23.75 6.75 22.75Q7.6 22.3 8.8 21.8L9.4 21.5M10.45,20.8L9.85 19.45L9.35 18.2M10.45,20.8L10.5 21.05L9.4 21.5M4,24.65Q3.35 25.3 3.35 25.85L4.25 27.8L5.1 29.9L1.1 31.85L-2.4 33.8Q-3.5 31.3 -4.8 30.05Q-6.2 28.6 -8.55 27.9L-8.55 27.05M-3,-40.65L-3.55 -40.75L-4.85 -40.05L-7 -38.5Q-8.05 -37.7 -9.05 -37.2L-9.3 -36.6L-9.8 -34L-10.05 -30.55L-4.8 -30.65L4.45 -29.6M-5.5,-35.1Q-5.45 -34.4 -4.95 -34.25L-3.9 -34.25Q-1.95 -34.25 -1.95 -36.05Q-1.95 -37 -2.25 -37.25L-3.45 -37.55L-4.7 -37.4L-5.05 -36.65L-5.5 -35.1L-5.55 -35.45L-5.4 -36.2L-5.25 -36.65L-5.05 -36.65M-18.2,-35.5L-18.2 -35.7L-18.1 -36.4L-17.4 -37.45L-16.05 -38.5Q-15.15 -38.5 -14.2 -37.4Q-13.25 -36.3 -12.4 -36.3Q-10.85 -36.3 -9.05 -37.2M-10.05,-30.55L-10.1 -30.55L-17.75 -29.9L-18.05 -29.85M-30.35,-14L-30.3 -14.4L-29.5 -18.45M-27.5,-23.95Q-28.7 -21.75 -29.5 -18.45M-7.95,-18.3Q-6.1 -16.35 -6.1 -15.8Q-6.1 -15.25 -7.3 -13.75L-7.4 -13.6M-2.3,-3.25L-8.1 -3.5L-8.25 -3.5L-16.1 -3.8L-16.2 -3.8L-17.85 -3.85L-23.15 -3.95L-31.1 -3.95M-8.95,-11.15L-8.6 -11.4L-8.55 -11.6L-8.55 -11.65Q-8.55 -12.25 -7.4 -13.6M-8.95,-11.15L-9.05 -11L-9.15 -9.95Q-9.15 -9.05 -8.55 -8.4L-8.85 -10.1L-8.75 -11L-8.6 -11.4M-8.55,-8.4L-8.25 -8.15Q-7.45 -7.55 -6.25 -7.55L-7 -6.1L-8.25 -3.5M-3.4,9.5L-4.1 9.4L-11.4 8.9L-11.5 8.9L-12.9 8.85L-22.6 8.85L-26.6 8.85L-31.05 8.85L-31.1 8.85M-6.55,4.9L-7.35 5.95Q-8.05 6.8 -8.8 6.8L-10.05 6.35L-11.25 6.05Q-11.25 7.9 -11.4 8.9M-8.05,24.25L-8.3 24.25Q-8.3 25.25 -8.55 25.75L-8.55 27.05M-27.35,24L-26.65 24L-8.3 24.25" />
<path style="fill:none;stroke-width:1;stroke-linecap:round;stroke-linejoin:miter;stroke-miterlimit:3;stroke:#62493D;stroke-opacity:1" d="M22.85,-25.85L22.8 -25.85L20.2 -25.4L20.1 -24.5L19.95 -22.9Q19.95 -20.9 21.75 -20.9L21.9 -20.9L21.95 -20.9L25.95 -21.1L29.7 -20.75L30.35 -20.7L32.15 -20.6L32.95 -20.6L35.4 -20.65L36.1 -20.8Q36.9 -21.25 36.9 -23.5Q36.9 -25.65 34.25 -26L34.05 -26L29.5 -26L23.05 -25.9L22.85 -25.85Q22.2 -29.35 25.1 -29.35L30.3 -29.5L33.35 -29.3Q34.4 -28.75 34.05 -26" />
</g>
</svg>
