<?xml version="1.0" encoding="utf-8"?>
<svg version="1.1" id="Layer_1"
xmlns="http://www.w3.org/2000/svg"
xmlns:xlink="http://www.w3.org/1999/xlink"
xmlns:author="http://www.sothink.com"
width="68px" height="67px"
xml:space="preserve">
<g id="238" transform="matrix(1, 0, 0, 1, 59.75, 32.75)">
<path style="fill:#263535;fill-opacity:1" d="M-51.75,-32.7L-0.1 -32.7Q7.85 -32.7 7.85 -24.75L7.85 25.45Q7.85 33.4 -0.1 33.4L-51.75 33.4Q-59.7 33.4 -59.7 25.45L-59.7 -24.75Q-59.7 -32.7 -51.75 -32.7" />
<path style="fill:none;stroke-width:0.1;stroke-linecap:butt;stroke-linejoin:miter;stroke-miterlimit:3;stroke:#000000;stroke-opacity:1" d="M-59.7,-24.75L-59.7 25.45Q-59.7 33.4 -51.75 33.4L-0.1 33.4Q7.85 33.4 7.85 25.45L7.85 -24.75Q7.85 -32.7 -0.1 -32.7L-51.75 -32.7Q-59.7 -32.7 -59.7 -24.75z" />
</g>
</svg>
