<?xml version="1.0" encoding="utf-8"?>
<svg version="1.1" id="Layer_1"
xmlns="http://www.w3.org/2000/svg"
xmlns:xlink="http://www.w3.org/1999/xlink"
xmlns:author="http://www.sothink.com"
width="25px" height="25px"
xml:space="preserve">
<g id="233" transform="matrix(1, 0, 0, 1, 12.25, 12.25)">
<path style="fill:#F0D5AA;fill-opacity:1" d="M8.25,-8.35Q11.75 -4.85 11.75 0Q11.75 4.85 8.25 8.25Q4.85 11.75 0 11.75Q-4.85 11.75 -8.35 8.25Q-11.75 4.85 -11.75 0Q-11.75 -4.85 -8.35 -8.35Q-4.85 -11.75 0 -11.75Q4.85 -11.75 8.25 -8.35" />
<path style="fill:none;stroke-width:1;stroke-linecap:butt;stroke-linejoin:miter;stroke-miterlimit:3;stroke:#995D17;stroke-opacity:1" d="M8.25,-8.35Q11.75 -4.85 11.75 0Q11.75 4.85 8.25 8.25Q4.85 11.75 0 11.75Q-4.85 11.75 -8.35 8.25Q-11.75 4.85 -11.75 0Q-11.75 -4.85 -8.35 -8.35Q-4.85 -11.75 0 -11.75Q4.85 -11.75 8.25 -8.35z" />
<path style="fill:#C4811C;fill-opacity:1" d="M5.3,-3.9Q6.1 -3.1 5.1 -2.1L3.05 -0.05L5.05 1.95Q6.1 3 5.35 3.75L3.95 5.15Q3.2 5.9 2.15 4.85L0.15 2.85L-2 5Q-3.1 6.1 -3.9 5.3L-5.25 3.95Q-6 3.2 -4.9 2.1L-2.75 -0.05L-4.95 -2.25Q-6.05 -3.25 -5.3 -4L-3.95 -5.35Q-3.15 -6.15 -2.05 -5.15L0.15 -2.95L2.2 -5Q3.2 -6 3.95 -5.25L5.3 -3.9" />
<path style="fill:none;stroke-width:1;stroke-linecap:butt;stroke-linejoin:miter;stroke-miterlimit:3;stroke:#995D17;stroke-opacity:1" d="M3.95,-5.25Q3.2 -6 2.2 -5L0.15 -2.95L-2.05 -5.15Q-3.15 -6.15 -3.95 -5.35L-5.3 -4Q-6.05 -3.25 -4.95 -2.25L-2.75 -0.05L-4.9 2.1Q-6 3.2 -5.25 3.95L-3.9 5.3Q-3.1 6.1 -2 5L0.15 2.85L2.15 4.85Q3.2 5.9 3.95 5.15L5.35 3.75Q6.1 3 5.05 1.95L3.05 -0.05L5.1 -2.1Q6.1 -3.1 5.3 -3.9L3.95 -5.25z" />
</g>
</svg>
