<?xml version="1.0" encoding="utf-8"?>
<svg version="1.1" id="Layer_1"
xmlns="http://www.w3.org/2000/svg"
xmlns:xlink="http://www.w3.org/1999/xlink"
xmlns:author="http://www.sothink.com"
width="59px" height="44px"
xml:space="preserve">
<g id="102" transform="matrix(1, 0, 0, 1, 25.3, 24.7)">
<path style="fill:#E9BAE9;fill-opacity:1" d="M-2.9,-18.5L-2.85 -18.5L-2.85 -16.5L-2.95 -18.5L-2.9 -18.5" />
<path style="fill:#333333;fill-opacity:1" d="M-4.4,6.85L-4.4 6.9L-5.7 6.45Q-7.2 6.25 -9.4 6.5L-12.25 6.15Q-13.55 5.8 -14.8 4.95Q-16.75 3.8 -18.1 -0.65Q-19 -3.45 -21 -4.05L-20.5 -4.65Q-19.4 -5.65 -17.2 -6.1L-16.05 -6.3L-11.75 -6.6Q-9.05 -6.6 -8.05 -5.95Q-6.7 -5 -6.25 -2L-5.2 2.05L-4.95 2.9L-4.95 2.95L-4.45 5.45L-4.4 6.85M4.85,-4.8L4.9 -3.3Q4.9 -2.55 4.4 -2L3.1 -2.3L-0.4 -3.05L-1.45 -5.5Q-1.85 -6.65 -2.55 -7.15L-1.5 -7.6L-0.4 -7.75L0.3 -7.75L0.35 -7.75L1.25 -7.8Q3.65 -7.8 4.35 -6.65Q4.7 -6.15 4.85 -4.9L4.85 -4.8M2.15,-5.1Q2.95 -5.1 2.95 -5.85Q2.95 -6.4 2.05 -6.6Q1.05 -6.8 1.05 -6.1Q1.25 -5.1 2.15 -5.1M-13,-3.3Q-12.35 0.55 -10.3 0.55Q-9.4 0.55 -9.15 -0.35L-9.15 -1.6Q-9.15 -3.6 -11.1 -4.6Q-13 -5.65 -13 -3.3" />
<path style="fill:#916B91;fill-opacity:1" d="M4.85,-4.8L4.85 -4.9L5.4 -4.85L4.85 -4.8" />
<path style="fill:#9F7A9F;fill-opacity:1" d="M-24.6,-5.65L-24.8 -5.7L-24.8 -6L-24.6 -5.65" />
<path style="fill:#705470;fill-opacity:1" d="M-16.15,-13.15L-16.3 -14.8L-15.75 -13.3L-16.15 -13.15" />
<path style="fill:#878686;fill-opacity:1" d="M1.05,-6.1Q1.05 -6.8 2.05 -6.6Q2.95 -6.4 2.95 -5.85Q2.95 -5.1 2.15 -5.1Q1.25 -5.1 1.05 -6.1M-11.1,-4.6Q-9.15 -3.6 -9.15 -1.6L-9.15 -0.35Q-9.4 0.55 -10.3 0.55Q-12.35 0.55 -13 -3.3Q-13 -5.65 -11.1 -4.6" />
<path style="fill:#515151;fill-opacity:1" d="M-5.2,9.55Q-6.05 10.25 -9 10.35L-12.5 10.85L-16.3 11.3Q-19.15 11.3 -19.7 9.4L-20.15 7.65L-20.3 6.7L-20.7 4.55L-21.2 0.45L-21.3 -1.05L-21.55 -2.5L-21 -4.05Q-19 -3.45 -18.1 -0.65Q-16.75 3.8 -14.8 4.95Q-13.55 5.8 -12.25 6.15L-9.4 6.5Q-7.2 6.25 -5.7 6.45L-4.4 6.9Q-4.4 9 -5.2 9.55M3.1,-1.15L1.85 -0.75L0 -0.6Q-2.55 -0.6 -2.6 -1.85L-2.8 -3.3L-3 -4.75L-3.15 -6.2Q-3.15 -6.8 -2.55 -7.15Q-1.85 -6.65 -1.45 -5.5L-0.4 -3.05L3.1 -2.3L4.4 -2Q4 -1.5 3.1 -1.15" />
<path style="fill:#8F3636;fill-opacity:1" d="M-4.4,6.9L-4.4 6.85L-4.45 5.45L-1.95 4.7L0.45 5.7L2 6.35L2.65 6.6Q7.1 8.45 8.75 8.45Q10 8.45 11.25 7.8Q12.55 7.1 13.85 5.75Q15.8 3.85 17.5 3.3Q18.2 2.95 19 2.95L19.05 2.95L19.2 2.95L19.9 7.35Q19.4 11.75 16.75 13.95Q15.1 15.25 13.05 15.9L10.35 16.4L2.45 17.45L2.35 17.5L-4.5 18.25L-15.2 18.55Q-20.55 17.8 -22.15 14L-22.65 11.8L-22.8 10.95Q-22.75 9.75 -22.15 9Q-21.95 8.65 -20.15 7.65L-19.7 9.4Q-19.15 11.3 -16.3 11.3L-12.5 10.85L-9 10.35Q-6.05 10.25 -5.2 9.55Q-4.4 9 -4.4 6.9" />
<path style="fill:#B15151;fill-opacity:1" d="M-20.5,-4.65L-23.2 -4.7Q-24.4 -4.7 -24.6 -5.65L-24.35 -5.65Q-22.9 -5.65 -21.1 -6.35L-17.55 -7.35L-17.45 -7.35L-16.3 -7.6L-16.2 -7.6L-10.65 -8.4L-0.45 -9.05L-0.4 -9.05L0.3 -9.1L1.25 -9.15L3.6 -9.3L4.45 -9.3L7.4 -9.55L11 -10L17.4 -11.05L17.9 -11.15Q22.85 -12.05 26.8 -14.2Q29.2 -15.55 32.3 -15.8L32.75 -13.6Q32.85 -11.75 28.95 -9.95L28.15 -9.55L28.95 -9.8L29.7 -7.15Q30.2 -5.5 30.2 -4.25L28.8 -3.8L27.35 -3.35Q26.95 -3.35 25.25 -5.25L23.45 -7.35L21.9 -6.55L20.35 -4.65Q18.8 -2.35 19 0.55L19.05 1.8L19.2 2.95L19.05 2.95L19 2.95Q18.2 2.95 17.5 3.3Q15.8 3.85 13.85 5.75Q12.55 7.1 11.25 7.8Q10 8.45 8.75 8.45Q7.1 8.45 2.65 6.6L2 6.35L0.45 5.7L-1.95 4.7L-4.45 5.45L-4.95 2.95L-4.95 2.9L-5.2 2.05L-6.25 -2Q-6.7 -5 -8.05 -5.95Q-9.05 -6.6 -11.75 -6.6L-16.05 -6.3L-17.2 -6.1Q-19.4 -5.65 -20.5 -4.65M4.4,-2Q4.9 -2.55 4.9 -3.3L4.85 -4.8L5.4 -4.85L4.85 -4.9Q4.7 -6.15 4.35 -6.65Q3.65 -7.8 1.25 -7.8L0.35 -7.75L0.3 -7.75L-0.4 -7.75L-1.5 -7.6L-2.55 -7.15Q-3.15 -6.8 -3.15 -6.2L-3 -4.75L-2.8 -3.3L-2.6 -1.85Q-2.55 -0.6 0 -0.6L1.85 -0.75L3.1 -1.15Q4 -1.5 4.4 -2" />
<path style="fill:#D97979;fill-opacity:1" d="M-24.8,-6L-24.45 -7.35Q-23.8 -8.95 -21.1 -9.75L-16.1 -10L-13.1 -10.2L-9.85 -10.75L-8.35 -10.6L0.1 -11.5L0.15 -11.5L3.3 -11.9L6.05 -12.3L6.75 -12.4L10.25 -13L16.6 -14.35L28.65 -17Q31.15 -17.2 31.75 -16.65L32.3 -15.8Q29.2 -15.55 26.8 -14.2Q22.85 -12.05 17.9 -11.15L17.4 -11.05L11 -10L7.4 -9.55L4.45 -9.3L3.6 -9.3L1.25 -9.15L0.3 -9.1L-0.4 -9.05L-0.45 -9.05L-10.65 -8.4L-16.2 -7.6L-16.3 -7.6L-17.45 -7.35L-17.55 -7.35L-21.1 -6.35Q-22.9 -5.65 -24.35 -5.65L-24.6 -5.65L-24.8 -6M-0.7,-18.45L-1.75 -18.5L-2.85 -18.5L-2.9 -18.5Q-3.15 -21.1 -5.65 -22.15L-8.5 -23.65L-7.4 -24.05L-5 -24.2Q-1.75 -24.2 -1.5 -22.35Q-1.5 -21.7 -0.95 -20.35Q-0.45 -19.2 -0.6 -18.45L-0.7 -18.45" />
<path style="fill:#B65C5C;fill-opacity:1" d="M-2.95,-18.5L-8.5 -18Q-9.15 -19.9 -9.15 -22.6Q-9.15 -23.3 -8.5 -23.65L-5.65 -22.15Q-3.15 -21.1 -2.9 -18.5L-2.95 -18.5" />
<path style="fill:#FF6633;fill-opacity:1" d="M-2.85,-16.5L-0.8 -16.6Q1.35 -16.6 2.6 -13.55L3.3 -11.9L0.15 -11.5L0.1 -11.5L-8.35 -10.6L-9.85 -10.75L-13.1 -10.2L-16.1 -10L-16.15 -13.15L-15.75 -13.3Q-7.5 -15.95 -2.85 -16.5" />
<path style="fill:#F38D6B;fill-opacity:1" d="M-15.75,-13.3L-16.3 -14.8Q-16.3 -16.85 -9.75 -17.8L-8.5 -18L-2.95 -18.5L-2.85 -16.5Q-7.5 -15.95 -15.75 -13.3M-2.85,-18.5L-1.75 -18.5L-0.7 -18.45L-0.6 -18.45L-0.55 -18.45Q2.6 -18.35 3.9 -17.5Q6.2 -16.25 6.05 -12.3L3.3 -11.9L2.6 -13.55Q1.35 -16.6 -0.8 -16.6L-2.85 -16.5L-2.85 -18.5" />
<path style="fill:none;stroke-width:1;stroke-linecap:butt;stroke-linejoin:miter;stroke-miterlimit:3;stroke:#742323;stroke-opacity:1" d="M17.9,-11.15L16.6 -14.35L10.25 -13L6.75 -12.4L7.4 -9.55L11.25 7.8L13.05 15.9M16.6,-14.35L28.65 -17Q31.15 -17.2 31.75 -16.65L32.3 -15.8L32.75 -13.6Q32.85 -11.75 28.95 -9.95L28.15 -9.55M28.95,-9.8L29.7 -7.15Q30.2 -5.5 30.2 -4.25L28.8 -3.8L27.35 -3.35Q26.95 -3.35 25.25 -5.25L23.45 -7.35L21.9 -6.55L20.35 -4.65Q18.8 -2.35 19 0.55L19.05 1.8L19.2 2.95L19.9 7.35Q19.4 11.75 16.75 13.95Q15.1 15.25 13.05 15.9L10.35 16.4L2.45 17.45L2.35 17.5L-4.5 18.25L-15.2 18.55Q-20.55 17.8 -22.15 14L-22.65 11.8L-22.8 10.95Q-22.75 9.75 -22.15 9Q-21.95 8.65 -20.15 7.65M-21.3,-1.05L-21.45 -1.4L-21.55 -2.3L-21.55 -2.5M-20.5,-4.65L-23.2 -4.7Q-24.4 -4.7 -24.6 -5.65M-24.8,-5.7L-24.8 -6L-24.45 -7.35Q-23.8 -8.95 -21.1 -9.75L-16.1 -10L-16.15 -13.15L-16.3 -14.8Q-16.3 -16.85 -9.75 -17.8L-8.5 -18Q-9.15 -19.9 -9.15 -22.6Q-9.15 -23.3 -8.5 -23.65L-7.4 -24.05L-5 -24.2Q-1.75 -24.2 -1.5 -22.35Q-1.5 -21.7 -0.95 -20.35Q-0.45 -19.2 -0.6 -18.45L-0.55 -18.45Q2.6 -18.35 3.9 -17.5Q6.2 -16.25 6.05 -12.3L6.75 -12.4M3.3,-11.9L0.15 -11.5L0.1 -11.5L-8.35 -10.6L-9.85 -10.75L-13.1 -10.2L-16.1 -10M3.3,-11.9L6.05 -12.3M23.45,-7.35L28.15 -9.55M17.9,-11.15L20.35 -4.65M-24.8,-6L-24.6 -5.65M-2.9,-18.5L-2.85 -18.5L-1.75 -18.5L-0.7 -18.45L-0.6 -18.45M-2.9,-18.5L-2.95 -18.5L-8.5 -18" />
<path style="fill:none;stroke-width:1;stroke-linecap:butt;stroke-linejoin:miter;stroke-miterlimit:3;stroke:#272727;stroke-opacity:1" d="M-20.15,7.65L-20.3 6.7L-20.7 4.55L-21.2 0.45L-21.3 -1.05L-21.55 -2.5L-21 -4.05L-20.5 -4.65M4.4,-2Q4.9 -2.55 4.9 -3.3L4.85 -4.8L4.85 -4.9Q4.7 -6.15 4.35 -6.65Q3.65 -7.8 1.25 -7.8L0.35 -7.75L0.3 -7.75L-0.4 -7.75L-1.5 -7.6L-2.55 -7.15Q-3.15 -6.8 -3.15 -6.2L-3 -4.75L-2.8 -3.3L-2.6 -1.85Q-2.55 -0.6 0 -0.6L1.85 -0.75L3.1 -1.15Q4 -1.5 4.4 -2M-20.15,7.65L-19.7 9.4Q-19.15 11.3 -16.3 11.3L-12.5 10.85L-9 10.35Q-6.05 10.25 -5.2 9.55Q-4.4 9 -4.4 6.9L-4.4 6.85L-4.45 5.45L-4.95 2.95L-4.95 2.9L-5.2 2.05L-6.25 -2Q-6.7 -5 -8.05 -5.95Q-9.05 -6.6 -11.75 -6.6L-16.05 -6.3L-17.2 -6.1Q-19.4 -5.65 -20.5 -4.65" />
<path style="fill:#8F3636;fill-opacity:1" d="M1.9,-14.85Q1.8 -13.5 1 -13.6L-0.4 -13.6L-0.65 -16.55L1.15 -16.5Q2 -16.25 1.9 -14.85M-7,-15.6L-6.5 -16.1L-5.8 -16.2L-4.2 -15.8L-4.2 -13.2L-6.6 -13.2Q-7 -14.4 -7 -15.6M-13.3,-14.2L-13.05 -15.1L-11.9 -15.2Q-10.4 -15.2 -10.4 -13.4Q-10.4 -12.85 -10.8 -12.2L-13 -12.2L-13.15 -13.65L-13.3 -14.2" />
<path style="fill:none;stroke-width:1;stroke-linecap:butt;stroke-linejoin:miter;stroke-miterlimit:3;stroke:#742323;stroke-opacity:1" d="M1.15,-16.5L-0.65 -16.55L-0.4 -13.6L1 -13.6Q1.8 -13.5 1.9 -14.85Q2 -16.25 1.15 -16.5M-6.6,-13.2L-4.2 -13.2L-4.2 -15.8L-5.8 -16.2L-6.5 -16.1L-7 -15.6Q-7 -14.4 -6.6 -13.2M-13.15,-13.65L-13 -12.2L-10.8 -12.2Q-10.4 -12.85 -10.4 -13.4Q-10.4 -15.2 -11.9 -15.2L-13.05 -15.1L-13.3 -14.2L-13.15 -13.65" />
</g>
</svg>
