<?xml version="1.0" encoding="utf-8"?>
<svg version="1.1" id="Layer_1"
xmlns="http://www.w3.org/2000/svg"
xmlns:xlink="http://www.w3.org/1999/xlink"
xmlns:author="http://www.sothink.com"
width="24px" height="45px"
xml:space="preserve">
<g id="269" transform="matrix(1, 0, 0, 1, 8.25, 22.15)">
<path style="fill:#C5DBDB;fill-opacity:1" d="M5.65,-18.1Q3.65 -18.1 2.05 -16.25Q0.4 -14.45 -1.85 -14.45Q-3.3 -14.45 -5.75 -15.75L-7 -16.55L-6.7 -17Q-5.45 -18.95 -3.5 -18.95L-0.5 -18.25L-0.5 -19.2Q-0.45 -20.55 -0.65 -21Q-0.85 -21.4 2.05 -21.4L13.6 -21.65L14.2 -21.65L14.2 -18.35L5.65 -18.1" />
<path style="fill:#AABFBF;fill-opacity:1" d="M-7,-16.55L-5.75 -15.75Q-3.3 -14.45 -1.85 -14.45Q0.4 -14.45 2.05 -16.25Q3.65 -18.1 5.65 -18.1L14.2 -18.35L14.2 21.4L11.6 21.5Q7.25 21.7 2.9 21.55Q-1.45 21.4 -1.45 20.15Q-1.45 18.85 0.75 17.9L6.75 15.15Q10.45 13.55 11.3 11.95Q11.8 11 11.8 7.5Q11.8 3.8 10 2Q9.35 1.35 6 -0.35Q0.8 -3.05 -0.25 -10.75L-2.15 -10.4Q-2.95 -10.1 -3.5 -10.1Q-5.3 -10.1 -6.45 -10.95Q-7.75 -11.95 -7.75 -13.7Q-7.75 -15.15 -7 -16.55" />
<path style="fill:none;stroke-width:1;stroke-linecap:butt;stroke-linejoin:miter;stroke-miterlimit:3;stroke:#435B5B;stroke-opacity:1" d="M14.2,-21.65L13.6 -21.65L2.05 -21.4Q-0.85 -21.4 -0.65 -21Q-0.45 -20.55 -0.5 -19.2L-0.5 -18.25L-3.5 -18.95Q-5.45 -18.95 -6.7 -17L-7 -16.55M14.2,21.4L11.6 21.5Q7.25 21.7 2.9 21.55Q-1.45 21.4 -1.45 20.15Q-1.45 18.85 0.75 17.9L6.75 15.15Q10.45 13.55 11.3 11.95Q11.8 11 11.8 7.5Q11.8 3.8 10 2Q9.35 1.35 6 -0.35Q0.8 -3.05 -0.25 -10.75L-2.15 -10.4Q-2.95 -10.1 -3.5 -10.1Q-5.3 -10.1 -6.45 -10.95Q-7.75 -11.95 -7.75 -13.7Q-7.75 -15.15 -7 -16.55" />
</g>
</svg>
