<?xml version="1.0" encoding="utf-8"?>
<svg version="1.1" id="Layer_1"
xmlns="http://www.w3.org/2000/svg"
xmlns:xlink="http://www.w3.org/1999/xlink"
xmlns:author="http://www.sothink.com"
width="279px" height="141px"
xml:space="preserve">
<g id="232" transform="matrix(1, 0, 0, 1, 138, 68.95)">
<path style="fill:#E9C080;fill-opacity:1" d="M128.5,71L-125.5 71Q-137 71 -137 59.5L-137 -56.45Q-137 -61.55 -134.75 -64.35L-128.8 -64.1L-121.15 -64.65L-115.45 -65.25L-111.95 -64.95L-107.85 -64.65L-99.6 -65.1L-93.05 -65.55L-67.2 -64.1L-58.65 -64.5L-52.1 -64.95L-33.5 -64.35L-15.3 -63.8Q-5 -63.8 6.8 -64.35L23.25 -64.95L38.1 -64.4L51.6 -64.95Q55.5 -65.1 63.9 -64.65L72.65 -65.1L82.2 -65.55L83.5 -65.55L83.1 -65.45Q85.5 -65.3 94.75 -65.25L107.4 -65.25Q125.5 -65.25 131.15 -61.7Q137.7 -57.55 137.7 -43.9Q137.7 -41.4 136.8 -33Q135.9 -24.65 135.9 -20.6Q135.9 -14.45 136.5 -7.8Q137.1 -1.15 137.1 4Q137.1 8 136.5 16.95L135.9 28.6L136.3 37.7Q136.65 42.95 136.5 48.3Q136.15 57.9 138 64.95L138.45 66.45Q135.75 71 128.5 71M-129.75,-48.65Q-131.55 -45.05 -131.45 -40.05Q-131.25 -32.1 -131.75 -28.15Q-132.35 -23.7 -132.35 -19.15L-131.9 -7.35L-131.45 5.7L-131.75 14.35Q-131.75 15.7 -132.35 18.65L-132.95 22.5L-132.95 30.35Q-132.95 45.6 -132.6 49.45Q-131.95 57.2 -129.15 60.8Q-126.05 64.75 -118.75 66.25Q-112 67.65 -97.8 67.65L-60.85 67.35Q-51.9 66.9 -46.85 67.05L-38.4 66.65L-30.4 66.15L-16.35 66.75L-4.6 67.35L21.2 66.45L46.95 65.55L63 66.3L79.5 67.05L95.35 66.6L109.2 65.85L114.8 66L120.05 65.65Q121.9 65.2 123.3 63.95Q132.5 62.85 132.5 53L132.5 -49.4Q132.5 -60.5 120.75 -60.5L-117.4 -60.5Q-128.95 -60.5 -129.15 -49.75L-129.75 -48.65" />
<path style="fill:#C4811C;fill-opacity:1" d="M55.9,-46.9Q47.75 -45.45 39.7 -45.45L-13.65 -46.85L-13.55 -47.15Q-31.8 -47.1 -47.5 -46.45Q-63.95 -45.75 -82.5 -45.75L-97.05 -47.05L-106.1 -48.35Q-111.3 -48.35 -114.65 -46.85Q-117.9 -45.4 -118.55 -42.8L-118.75 -41.2L-118.8 -40.65Q-119.85 -29.65 -119.6 -23.4Q-119.5 -21.9 -121.45 -10.55Q-123.45 1.2 -123.45 7.2Q-123.45 11.35 -121.65 17.75Q-119.9 24.15 -119.9 28.9Q-119.9 34.05 -121.8 41.15L-123.75 48.9Q-123.75 53.9 -121.65 56.6Q-119.6 59.3 -115.75 59.3L-100.7 57.95L-86.85 56.6L-77.3 57.2L-67.85 55.9L-58.2 54.6L-45.45 55.35L-29.85 56.1L-13.8 55.8L-1.5 55.5L8.3 54.75L17.3 54L23.55 54.6L31.45 53.85L39.45 53.1L50.45 54.15L61.95 55.2Q71.45 55.35 75.35 56.6Q79.05 57.8 83.05 57.8Q92.4 57.8 103 55.35Q113 53.05 114.8 51Q116.9 48.7 118.6 41.5Q120.45 33.6 120.45 24.9Q120.45 19.65 119.55 13.25Q118.65 6.8 118.65 3.05Q118.65 -2.45 119.85 -5.7Q121.05 -8.95 121.05 -13.8Q121.05 -19.5 117.95 -23.2Q114.8 -26.9 114.8 -28.65Q114.8 -30.8 115.85 -35.6Q116.85 -40.4 116.85 -42.15Q116.85 -45.1 113.6 -46.85Q110.85 -48.35 107.25 -48.35L101.95 -47.6L95.5 -46.85L80.65 -47.6L68.95 -48.35L55.9 -46.9M131.5,-49.4L131.5 53Q131.5 61.2 124.4 62.75L120.75 63.1L-117.4 63.1Q-128.15 63.1 -128.15 53L-128.15 -49.4L-128.05 -51.3Q-127.1 -59.5 -117.4 -59.5L120.75 -59.5Q131.5 -59.5 131.5 -49.4M-111.15,22.7Q-109 23.75 -107.4 26.25Q-105.6 29 -105.6 32.1Q-105.6 35.45 -106.1 37.85Q-107.2 42.8 -110.15 42.8Q-115.9 42.8 -116.55 37.85Q-116.8 36.3 -116.45 34.4L-116.1 32.75L-116.2 32.05L-116.55 30.5L-117.05 28.3Q-117.05 24.25 -115.25 22.85L-114.45 22.4L-111.45 22.55L-111.15 22.7M-109.55,36.2L-109.45 35.7L-109.7 35.7L-109.8 36.2L-109.55 36.2M-110.3,27.6L-110.25 27.45L-110.55 27L-110.3 27.6M-116.05,46.1Q-112.05 46.6 -112.05 49.1Q-112.05 50.2 -113.1 52.35Q-114.4 55.05 -115.9 55.05Q-118.5 55.05 -119.55 51.8L-120.05 48.5Q-120.05 45.65 -116.05 46.1M-114.9,38.25L-114.55 39.3L-113.8 40.25L-114.9 38.25M-107.4,47.7Q-107.4 46.65 -106.6 45.75Q-105.45 44.4 -103.25 44.9Q-102.3 44.95 -102.05 45.5L-102 46.5L-102.2 47.85Q-102.6 48.65 -104.15 49.05L-106.65 49.05Q-107.4 48.3 -107.4 47.7M115.85,35Q115.15 36.1 113 36Q112.45 35.65 112.3 35.1L112.25 34.05Q112.25 31.65 114.2 31.4Q116.15 31.2 116.15 33.4L115.85 35M106.35,44.55Q106.35 42.05 107.3 40.35Q109.1 37.3 113.6 38.1Q115.3 38.8 115.7 39.6L115.85 40.8Q113.15 49.05 109.65 49.05Q107.25 49.05 106.55 46.85L106.35 44.55" />
<path style="fill:#995D17;fill-opacity:1" d="M138.45,66.45Q140 63.75 140 59.5L140 -56.45Q140 -67.95 128.5 -67.95L-125.5 -67.95Q-131.9 -67.95 -134.75 -64.35Q-137 -61.55 -137 -56.45L-137 59.5Q-137 71 -125.5 71L128.5 71Q135.75 71 138.45 66.45M141,-56.45L141 59.5Q141 64.65 138.85 67.7Q135.85 72 128.5 72L-125.5 72Q-138 72 -138 59.5L-138 -56.45Q-138 -61.65 -135.85 -64.65Q-132.8 -68.95 -125.5 -68.95L128.5 -68.95Q141 -68.95 141 -56.45M120.75,64.1L-117.4 64.1Q-129.15 64.1 -129.15 53L-129.15 -49.4L-129.15 -49.75Q-128.95 -60.5 -117.4 -60.5L120.75 -60.5Q132.5 -60.5 132.5 -49.4L132.5 53Q132.5 62.85 123.3 63.95L120.75 64.1M120.75,-59.5L-117.4 -59.5Q-127.1 -59.5 -128.05 -51.3L-128.15 -49.4L-128.15 53Q-128.15 63.1 -117.4 63.1L120.75 63.1L124.4 62.75Q131.5 61.2 131.5 53L131.5 -49.4Q131.5 -59.5 120.75 -59.5" />
<path style="fill:#D49029;fill-opacity:1" d="M68.95,-48.35L80.65 -47.6L95.5 -46.85L101.95 -47.6L107.25 -48.35Q110.85 -48.35 113.6 -46.85Q116.85 -45.1 116.85 -42.15Q116.85 -40.4 115.85 -35.6Q114.8 -30.8 114.8 -28.65Q114.8 -26.9 117.95 -23.2Q121.05 -19.5 121.05 -13.8Q121.05 -8.95 119.85 -5.7Q118.65 -2.45 118.65 3.05Q118.65 6.8 119.55 13.25Q120.45 19.65 120.45 24.9Q120.45 33.6 118.6 41.5Q116.9 48.7 114.8 51Q113 53.05 103 55.35Q92.4 57.8 83.05 57.8Q79.05 57.8 75.35 56.6Q71.45 55.35 61.95 55.2L50.45 54.15L39.45 53.1L31.45 53.85L23.55 54.6L17.3 54L8.3 54.75L-1.5 55.5L-13.8 55.8L-29.85 56.1L-45.45 55.35L-58.2 54.6L-67.85 55.9L-77.3 57.2L-86.85 56.6L-100.7 57.95L-115.75 59.3Q-119.6 59.3 -121.65 56.6Q-123.75 53.9 -123.75 48.9L-121.8 41.15Q-119.9 34.05 -119.9 28.9Q-119.9 24.15 -121.65 17.75Q-123.45 11.35 -123.45 7.2Q-123.45 1.2 -121.45 -10.55Q-119.5 -21.9 -119.6 -23.4Q-119.85 -29.65 -118.8 -40.65L-118.75 -41.2L-118.55 -42.8Q-117.9 -45.4 -114.65 -46.85Q-111.3 -48.35 -106.1 -48.35L-97.05 -47.05L-82.5 -45.75Q-63.95 -45.75 -47.5 -46.45Q-31.8 -47.1 -13.55 -47.15L-13.65 -46.85L39.7 -45.45Q47.75 -45.45 55.9 -46.9L68.95 -48.35M-111.45,22.55L-114.45 22.4L-115.25 22.85Q-117.05 24.25 -117.05 28.3L-116.55 30.5L-116.2 32.05L-116.1 32.75L-116.45 34.4Q-116.8 36.3 -116.55 37.85Q-115.9 42.8 -110.15 42.8Q-107.2 42.8 -106.1 37.85Q-105.6 35.45 -105.6 32.1Q-105.6 29 -107.4 26.25Q-109 23.75 -111.15 22.7L-111.45 22.55M-109.8,36.2L-109.7 35.7L-109.45 35.7L-109.55 36.2L-109.8 36.2M-110.55,27L-110.25 27.45L-110.3 27.6L-110.55 27M-120.05,48.5L-119.55 51.8Q-118.5 55.05 -115.9 55.05Q-114.4 55.05 -113.1 52.35Q-112.05 50.2 -112.05 49.1Q-112.05 46.6 -116.05 46.1Q-120.05 45.65 -120.05 48.5M-113.8,40.25L-114.55 39.3L-114.9 38.25L-113.8 40.25M-106.65,49.05L-104.15 49.05Q-102.6 48.65 -102.2 47.85L-102 46.5L-102.05 45.5Q-102.3 44.95 -103.25 44.9Q-105.45 44.4 -106.6 45.75Q-107.4 46.65 -107.4 47.7Q-107.4 48.3 -106.65 49.05M116.15,33.4Q116.15 31.2 114.2 31.4Q112.25 31.65 112.25 34.05L112.3 35.1Q112.45 35.65 113 36Q115.15 36.1 115.85 35L116.15 33.4M106.55,46.85Q107.25 49.05 109.65 49.05Q113.15 49.05 115.85 40.8L115.7 39.6Q115.3 38.8 113.6 38.1Q109.1 37.3 107.3 40.35Q106.35 42.05 106.35 44.55L106.55 46.85" />
<path style="fill:#F0D5AA;fill-opacity:1" d="M-125.5,-67.95L128.5 -67.95Q140 -67.95 140 -56.45L140 59.5Q140 63.75 138.45 66.45L138 64.95Q136.15 57.9 136.5 48.3Q136.65 42.95 136.3 37.7L135.9 28.6L136.5 16.95Q137.1 8 137.1 4Q137.1 -1.15 136.5 -7.8Q135.9 -14.45 135.9 -20.6Q135.9 -24.65 136.8 -33Q137.7 -41.4 137.7 -43.9Q137.7 -57.55 131.15 -61.7Q125.5 -65.25 107.4 -65.25L94.75 -65.25Q85.5 -65.3 83.1 -65.45L83.5 -65.55L82.2 -65.55L72.65 -65.1L63.9 -64.65Q55.5 -65.1 51.6 -64.95L38.1 -64.4L23.25 -64.95L6.8 -64.35Q-5 -63.8 -15.3 -63.8L-33.5 -64.35L-52.1 -64.95L-58.65 -64.5L-67.2 -64.1L-93.05 -65.55L-99.6 -65.1L-107.85 -64.65L-111.95 -64.95L-115.45 -65.25L-121.15 -64.65L-128.8 -64.1L-134.75 -64.35Q-131.9 -67.95 -125.5 -67.95M-129.15,-49.75L-129.15 -49.4L-129.15 53Q-129.15 64.1 -117.4 64.1L120.75 64.1L123.3 63.95Q121.9 65.2 120.05 65.65L114.8 66L109.2 65.85L95.35 66.6L79.5 67.05L63 66.3L46.95 65.55L21.2 66.45L-4.6 67.35L-16.35 66.75L-30.4 66.15L-38.4 66.65L-46.85 67.05Q-51.9 66.9 -60.85 67.35L-97.8 67.65Q-112 67.65 -118.75 66.25Q-126.05 64.75 -129.15 60.8Q-131.95 57.2 -132.6 49.45Q-132.95 45.6 -132.95 30.35L-132.95 22.5L-132.35 18.65Q-131.75 15.7 -131.75 14.35L-131.45 5.7L-131.9 -7.35L-132.35 -19.15Q-132.35 -23.7 -131.75 -28.15Q-131.25 -32.1 -131.45 -40.05Q-131.55 -45.05 -129.75 -48.65L-129.15 -49.75" />
</g>
</svg>
