<?xml version="1.0" encoding="utf-8"?>
<svg version="1.1" id="Layer_1"
xmlns="http://www.w3.org/2000/svg"
xmlns:xlink="http://www.w3.org/1999/xlink"
xmlns:author="http://www.sothink.com"
width="148px" height="29px"
xml:space="preserve">
<g id="303" transform="matrix(1, 0, 0, 1, 3.7, 5.1)">
<path style="fill:#000066;fill-opacity:1" d="M136.4,-5.1Q144.05 -5.1 144.05 2.3L144.05 15.5Q144.05 22.95 136.4 22.95L3.95 22.95Q-3.7 22.95 -3.7 15.5L-3.7 2.3Q-3.7 -5.1 3.95 -5.1L136.4 -5.1" />
<path style="fill:none;stroke-width:0.05;stroke-linecap:butt;stroke-linejoin:miter;stroke-miterlimit:3;stroke:#AEBECE;stroke-opacity:1" d="M3.95,-5.1Q-3.7 -5.1 -3.7 2.3L-3.7 15.5Q-3.7 22.95 3.95 22.95L136.4 22.95Q144.05 22.95 144.05 15.5L144.05 2.3Q144.05 -5.1 136.4 -5.1L3.95 -5.1z" />
</g>
</svg>
