<?xml version="1.0" encoding="utf-8"?>
<svg version="1.1" id="Layer_1"
xmlns="http://www.w3.org/2000/svg"
xmlns:xlink="http://www.w3.org/1999/xlink"
xmlns:author="http://www.sothink.com"
width="20px" height="25px"
xml:space="preserve">
<g id="75" transform="matrix(1, 0, 0, 1, 8.05, 11.45)">
<path style="fill:#D75535;fill-opacity:1" d="M4.85,-8.05Q5.9 -7.5 7.25 -7.1Q8.15 -6.65 8.85 -4.3L9.4 -2.8Q8.9 -2.4 8.25 -2.4Q2.25 -4.65 2.25 -6.5L3.05 -8.55L3.4 -9.2Q3.9 -8.55 4.85 -8.05M-0.4,11.75Q-1.2 12.6 -1.55 12.6Q-2.75 12.6 -5.25 10.75Q-7.7 8.9 -7.55 8.15L-6.25 5.4L-4.75 3.3L-4.8 3.9Q-4.8 5.4 -3.95 5.8Q-2.55 6.45 -1.8 7.55Q-1.5 8 -0.75 11.05L-0.4 11.75" />
<path style="fill:#EE856B;fill-opacity:1" d="M3.4,-9.2L3.8 -9.75L4.05 -10.3L4.35 -10.85L5.1 -10.95Q10.95 -8.8 10.95 -6.45Q10.95 -5.3 10.35 -4.05Q9.95 -3.2 9.4 -2.8L8.85 -4.3Q8.15 -6.65 7.25 -7.1Q5.9 -7.5 4.85 -8.05Q3.9 -8.55 3.4 -9.2M-0.75,11.05Q-1.5 8 -1.8 7.55Q-2.55 6.45 -3.95 5.8Q-4.8 5.4 -4.8 3.9L-4.75 3.3Q-4.25 2.85 -3.75 2.85Q-3.1 2.85 -0.45 4.65Q2.25 6.55 2.25 7.25Q2.25 8.3 0.6 10.5L-0.4 11.75L-0.75 11.05" />
<path style="fill:none;stroke-width:1;stroke-linecap:butt;stroke-linejoin:miter;stroke-miterlimit:3;stroke:#833825;stroke-opacity:1" d="M9.4,-2.8Q8.9 -2.4 8.25 -2.4Q2.25 -4.65 2.25 -6.5L3.05 -8.55L3.4 -9.2L3.8 -9.75L4.05 -10.3L4.35 -10.85L5.1 -10.95Q10.95 -8.8 10.95 -6.45Q10.95 -5.3 10.35 -4.05Q9.95 -3.2 9.4 -2.8M-4.75,3.3Q-4.25 2.85 -3.75 2.85Q-3.1 2.85 -0.45 4.65Q2.25 6.55 2.25 7.25Q2.25 8.3 0.6 10.5L-0.4 11.75Q-1.2 12.6 -1.55 12.6Q-2.75 12.6 -5.25 10.75Q-7.7 8.9 -7.55 8.15L-6.25 5.4L-4.75 3.3" />
</g>
</svg>
