<?xml version="1.0" encoding="utf-8"?>
<svg version="1.1" id="Layer_1"
xmlns="http://www.w3.org/2000/svg"
xmlns:xlink="http://www.w3.org/1999/xlink"
xmlns:author="http://www.sothink.com"
width="51px" height="65px"
xml:space="preserve">
<g id="43" transform="matrix(1, 0, 0, 1, 27.8, 59.75)">
<path style="fill:#77F5DB;fill-opacity:1" d="M6.15,-52.65L5.85 -53.95Q5.8 -55.05 6.9 -55.05L7.6 -54.9L7.95 -54.75L7.95 -53.25L7.05 -52.8L6.15 -52.65M23.1,-25.3L22.8 -24Q22.35 -23.1 21.3 -23.1L19.8 -23.4Q19.2 -23.8 19.2 -25Q19.2 -25.75 19.5 -26.3L19.6 -26.45L19.6 -26.5Q20.2 -27.2 21.45 -27.2Q23.1 -27.2 23.1 -25.3M6,2.8L5.85 3.5L0.9 4.2L-1.5 4.45L-9.6 4.95L-14.55 4.55L-16.25 4.3L-20.05 4.1L-20.1 3.8Q-18.45 -3.3 -16.85 -7.9Q-14.8 -13.8 -11.85 -18.9L-4.3 -31.35L0.75 -39.35L6.15 2L6 2.8M-5,-56.25Q-5.6 -55.65 -6.5 -55.65Q-7.1 -55.65 -7.95 -56.25Q-8.85 -56.85 -8.85 -57.3L-8.85 -57.45L-8.45 -58.3L-7.85 -59.2Q-7.3 -59.75 -6.9 -59.75Q-6.15 -59.75 -5.3 -59.15Q-4.4 -58.5 -4.4 -57.75Q-4.4 -56.85 -5 -56.25M-23.4,-6.8Q-23.4 -5.85 -24 -5Q-24.7 -4.1 -25.6 -4.1L-27.2 -4.4Q-27.6 -4.65 -27.7 -5.25Q-27.65 -5.45 -27.75 -5.5L-27.8 -5.9L-27.8 -6.05L-27.75 -6.5L-27.75 -6.8Q-27.45 -8.55 -25.6 -8.55L-24 -8.25Q-23.4 -7.9 -23.4 -6.8" />
<path style="fill:#D2DEEE;fill-opacity:1" d="M10.95,3.8L-7.05 3.95L-7.65 4.1L-20.7 4.4Q-23.7 4.4 -24.45 3.7Q-24.8 3.35 -24.6 2.9Q-24.6 2.35 -24.15 1.95Q-23.6 1.4 -21.9 0.6L-14.15 0.6L-13.5 0.75L-2.75 0.75L-1.8 0.6L5.85 0.45L13.05 0.65Q13.85 1 13.85 1.8Q13.85 3.85 10.95 3.8" />
</g>
</svg>
