<?xml version="1.0" encoding="utf-8"?>
<svg version="1.1" id="Layer_1"
xmlns="http://www.w3.org/2000/svg"
xmlns:xlink="http://www.w3.org/1999/xlink"
xmlns:author="http://www.sothink.com"
width="33px" height="63px"
xml:space="preserve">
<g id="249" transform="matrix(1, 0, 0, 1, 16.4, 31.5)">
<path style="fill:#584F2D;fill-opacity:1" d="M16.4,-30.5L16.4 30.45L16.1 31.15L15.4 31.45L-15.4 31.45L-16.1 31.15L-16.4 30.45L-16.4 -30.5L-16.1 -31.2L-15.4 -31.5L15.4 -31.5L16.1 -31.2L16.4 -30.5M9.6,29.45L14.4 29.45L14.4 -29.5L-14.4 -29.5L-14.4 -19.25L-14.4 29.45L9.6 29.45" />
<path style="fill:#70643A;fill-opacity:1" d="M1.05,-14.8L0.9 -13.7Q0.7 -13.25 0.4 -13.25Q-0.25 -13.25 -0.25 -14.8Q-0.25 -16.4 0.4 -16.3Q1.05 -16.15 1.05 -14.8M1.7,-11.05Q1.7 -14.3 3.85 -12.3Q6 -10.3 6 -8.4L5.75 -6.25Q5.35 -4.85 4.5 -4.85Q3.5 -4.85 2.45 -8Q1.95 -9.55 1.7 -11.05M-14.4,-29.5L14.4 -29.5L14.4 29.45L9.6 29.45L9.5 28.5L9.3 22.5Q9.35 20.1 9 17.05Q8.65 13.85 8.65 12.7L9.3 4.3Q9.3 -1.35 7.65 -8.05Q5.9 -15 3.9 -16.5Q2.25 -17.7 -2.8 -19.2Q-7.35 -20.55 -8.75 -20.55Q-10.15 -20.55 -11.55 -19.9Q-13 -19.25 -14.05 -19.25L-14.4 -19.25L-14.4 -29.5M6.9,19.8Q8.05 19.7 8.05 22.9L7.85 24.85Q7.6 25.75 6.85 25.75Q6 25.75 5.8 24.75L5.7 23.3Q5.7 19.95 6.9 19.8" />
<path style="fill:#837544;fill-opacity:1" d="M0.4,-16.3Q-0.25 -16.4 -0.25 -14.8Q-0.25 -13.25 0.4 -13.25Q0.7 -13.25 0.9 -13.7L1.05 -14.8Q1.05 -16.15 0.4 -16.3M2.45,-8Q3.5 -4.85 4.5 -4.85Q5.35 -4.85 5.75 -6.25L6 -8.4Q6 -10.3 3.85 -12.3Q1.7 -14.3 1.7 -11.05Q1.95 -9.55 2.45 -8M-14.4,29.45L-14.4 -19.25L-14.05 -19.25Q-13 -19.25 -11.55 -19.9Q-10.15 -20.55 -8.75 -20.55Q-7.35 -20.55 -2.8 -19.2Q2.25 -17.7 3.9 -16.5Q5.9 -15 7.65 -8.05Q9.3 -1.35 9.3 4.3L8.65 12.7Q8.65 13.85 9 17.05Q9.35 20.1 9.3 22.5L9.5 28.5L9.6 29.45L-14.4 29.45M5.7,23.3L5.8 24.75Q6 25.75 6.85 25.75Q7.6 25.75 7.85 24.85L8.05 22.9Q8.05 19.7 6.9 19.8Q5.7 19.95 5.7 23.3" />
</g>
</svg>
