<?xml version="1.0" encoding="utf-8"?>
<svg version="1.1" id="Layer_1"
xmlns="http://www.w3.org/2000/svg"
xmlns:xlink="http://www.w3.org/1999/xlink"
xmlns:author="http://www.sothink.com"
width="46px" height="29px"
xml:space="preserve">
<g id="151" transform="matrix(1, 0, 0, 1, 22.65, 25)">
<path style="fill:#D03535;fill-opacity:1" d="M8.35,-18.25Q8 -18.85 5.95 -19.25L5.3 -19.35L6.6 -21.25L7.25 -20.8Q7 -21.55 7.2 -22.15L7.4 -22.65Q7.95 -23.35 8.95 -23.45Q10.05 -23.55 11.25 -22.8Q12.25 -22.1 12.7 -21.1Q13.2 -19.95 12.65 -19.25L12.65 -19.2L12.3 -18.85Q11.85 -18.45 11.05 -18.4L11.75 -18L11.1 -16.95L8.35 -18.25M14.55,-17.4Q14.6 -16.6 15.15 -15.95L9.3 -10.6L8.9 -11.7Q8.7 -12.75 9.25 -13.4L10.6 -14.7L12.2 -16.25L13.95 -18L14.55 -17.4M-10.4,-14.2Q-9.85 -13.65 -9.95 -12.5L-10.2 -11.4L-16.4 -16.4Q-15.95 -17.15 -15.85 -17.95L-15.3 -18.55L-12.35 -15.95L-10.4 -14.2M-11.1,-19.95L-12.25 -20.7L-12.5 -21.15Q-12.75 -22 -12.2 -22.9Q-11.6 -23.85 -10.3 -24.35L-8.05 -24.5Q-6.9 -24.2 -6.65 -23.35L-6.6 -23.25L-6.5 -22.8Q-6.5 -22.2 -6.9 -21.55L-6.15 -21.85L-5.2 -19.3L-5.65 -19.25L-7.7 -18.6L-8 -18.3L-8.1 -18.25L-10.95 -16.85L-11.9 -19.7L-11.1 -19.95" />
<path style="fill:#FAE7E7;fill-opacity:1" d="M-5.2,-19.3L-1.15 -19.75L0.05 -19.75L0.15 -19.75L0.3 -19.75L1.5 -19.75L5.3 -19.35L5.95 -19.25Q8 -18.85 8.35 -18.25L8.35 -18.2L8.35 -18.1Q8.35 -17.7 7.6 -17.35L5.95 -16.95L4.95 -16.75L3.35 -16.55L0.15 -16.45L-3.9 -16.65L-4.2 -16.7L-5.65 -16.95L-7.25 -17.35Q-8.05 -17.7 -8.05 -18.1L-8 -18.3L-7.7 -18.6L-5.65 -19.25L-5.2 -19.3" />
<path style="fill:#D94343;fill-opacity:1" d="M-7.1,-10.25L-7.75 -10.3L-8.5 -10.4L-9.15 -9.9Q-9.85 -9.4 -10.05 -8.3L-10.05 -8.25L-10.35 -8.3L-11.8 -4.25L-11.9 -4L-12.85 -1.7L-13.05 -1.95Q-14.25 -3.7 -14.25 -5.35Q-14.25 -7.05 -11.8 -8.9Q-9.35 -10.7 -9.35 -12.6L-9.35 -12.9Q-9.45 -14.35 -10.4 -15.9L-10.8 -16.5L-11.05 -16.8L-10.95 -16.85L-8.1 -18.25L-8 -18.3L-8.05 -18.1Q-8.05 -17.7 -7.25 -17.35L-5.65 -16.95L-4.2 -16.7L-3.9 -16.65L0.15 -16.45L3.35 -16.55L4.95 -16.75L5.95 -16.95L7.6 -17.35Q8.25 -16.65 8.35 -15.85L8.45 -15.8L9.95 -15.1L10.6 -14.7L9.25 -13.4Q8.7 -12.75 8.9 -11.7L9.3 -10.6L10 -9.65Q10.9 -8.75 12 -8.5Q13.05 -8.3 13.7 -8.9L13.75 -9L13.85 -9.05L15 -10.2L16.65 -7.3L17.5 -5.4L17.1 -5.65Q16.65 -4.85 16.35 -3.3L15.8 -0.75Q14.85 -1.3 12.9 -3.15L12.75 -3.3Q10.75 -5.2 9.4 -6.05L8.25 -4.55Q6.05 -6.75 3.75 -10.95L2.25 -9.85Q1.2 -9.05 0.75 -9.05Q0.15 -9.05 -3.05 -13.55L-4.4 -10.05L-4.8 -9.1Q-5.6 -10.05 -7.1 -10.25M-5.25,-6.6L-5.35 -6.75L-5.35 -6.85L-5.25 -6.6M-7.4,-9.1L-7.5 -9.2L-7.55 -9.25L-7.1 -9.05L-7.4 -9.1" />
<path style="fill:#E27070;fill-opacity:1" d="M9.95,-15.1L8.45 -15.8L8.35 -15.85Q8.25 -16.65 7.6 -17.35Q8.35 -17.7 8.35 -18.1L8.35 -18.2L8.35 -18.25L11.1 -16.95L12.2 -16.25L10.6 -14.7L9.95 -15.1M15,-10.2L16.9 -12.15Q21 -7.5 22 -1.5L19.6 -3.7L17.5 -5.4L16.65 -7.3L15 -10.2" />
<path style="fill:#CD3838;fill-opacity:1" d="M-8.5,-3.85L-9.45 -4.55L-9.4 -4.55L-8.5 -3.85M-10.2,-11.4L-9.95 -12.5Q-9.85 -13.65 -10.4 -14.2L-12.35 -15.95L-11.05 -16.8L-10.8 -16.5L-10.4 -15.9Q-9.45 -14.35 -9.35 -12.9L-9.35 -12.6Q-9.35 -10.7 -11.8 -8.9Q-14.25 -7.05 -14.25 -5.35Q-14.25 -3.7 -13.05 -1.95L-12.85 -1.7Q-13.6 -0.2 -13.95 -0.2Q-15.1 -0.2 -16.4 -1.05L-18.65 -2.65L-22 1.75L-21.95 1.05Q-21.6 -6.2 -16.95 -11.7L-14.7 -9.6L-14.6 -9.55L-14.55 -9.5Q-13.9 -8.95 -12.85 -9.2Q-11.75 -9.5 -10.9 -10.45L-10.2 -11.4M-10.05,-8.25L-10.05 -8.3Q-9.85 -9.4 -9.15 -9.9L-8.5 -10.4L-7.75 -10.3L-7.1 -10.25Q-5.6 -10.05 -4.8 -9.1L-5.75 -7.5L-6.6 -7Q-7.3 -7 -8.45 -7.65L-10.05 -8.25M-7.1,-9.05L-7.55 -9.25L-7.5 -9.2L-7.4 -9.1L-7.1 -9.05" />
<path style="fill:#D05454;fill-opacity:1" d="M14.65,-18.7L14.9 -19.1L15 -19.15Q15.6 -19.8 16.75 -19.6Q17.85 -19.4 18.75 -18.5Q19.7 -17.55 19.9 -16.45Q20.05 -15.35 19.45 -14.7L18.95 -14.4L17.7 -14.25Q16.55 -14.45 15.6 -15.4L15.15 -15.95Q14.6 -16.6 14.55 -17.4Q14.4 -18.2 14.65 -18.7M-15.85,-17.95Q-15.95 -17.15 -16.4 -16.4L-16.85 -15.9Q-17.75 -14.9 -18.8 -14.6L-20.15 -14.7L-20.6 -15Q-21.25 -15.6 -21.15 -16.65Q-21.05 -17.8 -20.15 -18.8Q-19.3 -19.75 -18.2 -20Q-17.1 -20.3 -16.45 -19.7L-16.35 -19.6L-16.05 -19.2Q-15.8 -18.7 -15.85 -17.95" />
<path style="fill:#B11E1E;fill-opacity:1" d="M15,-10.2L13.85 -9.05L13.75 -9L13.7 -8.9Q13.05 -8.3 12 -8.5Q10.9 -8.75 10 -9.65L9.3 -10.6L15.15 -15.95L15.6 -15.4Q16.55 -14.45 17.7 -14.25L18.3 -13.65L16.9 -12.15L15 -10.2M-10.9,-10.45Q-11.75 -9.5 -12.85 -9.2Q-13.9 -8.95 -14.55 -9.5L-14.6 -9.55L-14.7 -9.6L-16.95 -11.7L-19.35 -13.95L-18.8 -14.6Q-17.75 -14.9 -16.85 -15.9L-16.4 -16.4L-10.2 -11.4L-10.9 -10.45" />
<path style="fill:#8C1E1E;fill-opacity:1" d="M-9.4,-4.55L-9.45 -4.55L-11.8 -4.25L-10.35 -8.3L-10.05 -8.25L-8.45 -7.65Q-7.3 -7 -6.6 -7L-5.75 -7.5L-4.8 -9.1L-4.4 -10.05L-3.05 -13.55Q0.15 -9.05 0.75 -9.05Q1.2 -9.05 2.25 -9.85L3.75 -10.95Q6.05 -6.75 8.25 -4.55L9.4 -6.05Q10.75 -5.2 12.75 -3.3Q12.45 -3.05 12.05 -1.85Q11.7 -0.95 11 -0.95Q10.5 -0.95 9.4 -1.8Q8.3 -2.65 7.6 -2.65Q6.95 -2.65 5.8 -1.6L5.5 -1.3L4.7 -0.6Q1.75 -0.6 0.55 -2.55L0.55 -2.6Q-0.7 -4.55 -1.5 -4.55Q-2.5 -4.55 -3.05 -3.85L-3.5 -3.1Q-4 -1.65 -5.65 -1.7L-7.75 -1.7Q-7.9 -2.85 -8.4 -3.7L-8.5 -3.85L-9.4 -4.55M-5.35,-6.85L-5.35 -6.75L-5.25 -6.6L-5.35 -6.85" />
<path style="fill:none;stroke-width:1;stroke-linecap:butt;stroke-linejoin:miter;stroke-miterlimit:3;stroke:#791B1B;stroke-opacity:1" d="M-9.45,-4.55L-11.8 -4.25L-11.9 -4L-12.85 -1.7Q-13.6 -0.2 -13.95 -0.2Q-15.1 -0.2 -16.4 -1.05L-18.65 -2.65L-22 1.75L-21.95 1.05Q-21.6 -6.2 -16.95 -11.7L-19.35 -13.95L-20.15 -14.7L-20.6 -15Q-21.25 -15.6 -21.15 -16.65Q-21.05 -17.8 -20.15 -18.8Q-19.3 -19.75 -18.2 -20Q-17.1 -20.3 -16.45 -19.7L-16.35 -19.6L-16.05 -19.2L-15.3 -18.55L-12.35 -15.95L-11.05 -16.8L-10.95 -16.85L-11.9 -19.7L-12.25 -20.7L-12.5 -21.15Q-12.75 -22 -12.2 -22.9Q-11.6 -23.85 -10.3 -24.35L-8.05 -24.5Q-6.9 -24.2 -6.65 -23.35L-6.6 -23.25L-6.5 -22.8L-6.15 -21.85L-5.2 -19.3L-1.15 -19.75L0.05 -19.75L0.15 -19.75L0.3 -19.75L1.5 -19.75L5.3 -19.35L6.6 -21.25L7.2 -22.15L7.4 -22.65Q7.95 -23.35 8.95 -23.45Q10.05 -23.55 11.25 -22.8Q12.25 -22.1 12.7 -21.1Q13.2 -19.95 12.65 -19.25L12.65 -19.2L12.3 -18.85L11.75 -18L11.1 -16.95L12.2 -16.25L13.95 -18L14.65 -18.7L14.9 -19.1L15 -19.15Q15.6 -19.8 16.75 -19.6Q17.85 -19.4 18.75 -18.5Q19.7 -17.55 19.9 -16.45Q20.05 -15.35 19.45 -14.7L18.95 -14.4L18.3 -13.65L16.9 -12.15Q21 -7.5 22 -1.5L19.6 -3.7L17.5 -5.4L17.1 -5.65Q16.65 -4.85 16.35 -3.3L15.8 -0.75Q14.85 -1.3 12.9 -3.15L12.75 -3.3Q12.45 -3.05 12.05 -1.85Q11.7 -0.95 11 -0.95Q10.5 -0.95 9.4 -1.8Q8.3 -2.65 7.6 -2.65Q6.95 -2.65 5.8 -1.6L5.5 -1.3L4.7 -0.6Q1.75 -0.6 0.55 -2.55L0.55 -2.6Q-0.7 -4.55 -1.5 -4.55Q-2.5 -4.55 -3.05 -3.85L-3.5 -3.1Q-4 -1.65 -5.65 -1.7L-7.75 -1.7Q-7.9 -2.85 -8.4 -3.7L-8.5 -3.85M12.2,-16.25L10.6 -14.7L9.25 -13.4Q8.7 -12.75 8.9 -11.7L9.3 -10.6M15.15,-15.95Q14.6 -16.6 14.55 -17.4M15.15,-15.95L15.6 -15.4Q16.55 -14.45 17.7 -14.25L18.95 -14.4M14.65,-18.7Q14.4 -18.2 14.55 -17.4M5.3,-19.35L5.95 -19.25Q8 -18.85 8.35 -18.25L11.1 -16.95M8.35,-18.25L8.35 -18.2L8.35 -18.1Q8.35 -17.7 7.6 -17.35L5.95 -16.95L4.95 -16.75L3.35 -16.55L0.15 -16.45L-3.9 -16.65L-4.2 -16.7L-5.65 -16.95L-7.25 -17.35Q-8.05 -17.7 -8.05 -18.1L-8 -18.3L-8.1 -18.25L-10.95 -16.85M15,-10.2L13.85 -9.05L13.75 -9L13.7 -8.9Q13.05 -8.3 12 -8.5Q10.9 -8.75 10 -9.65L9.3 -10.6M-4.8,-9.1L-4.4 -10.05L-3.05 -13.55Q0.15 -9.05 0.75 -9.05Q1.2 -9.05 2.25 -9.85L3.75 -10.95Q6.05 -6.75 8.25 -4.55L9.4 -6.05Q10.75 -5.2 12.75 -3.3M15,-10.2L16.9 -12.15M-8,-18.3L-7.7 -18.6L-5.65 -19.25L-5.2 -19.3M-16.05,-19.2Q-15.8 -18.7 -15.85 -17.95Q-15.95 -17.15 -16.4 -16.4L-16.85 -15.9Q-17.75 -14.9 -18.8 -14.6L-20.15 -14.7M-16.95,-11.7L-14.7 -9.6L-14.6 -9.55L-14.55 -9.5Q-13.9 -8.95 -12.85 -9.2Q-11.75 -9.5 -10.9 -10.45L-10.2 -11.4L-9.95 -12.5Q-9.85 -13.65 -10.4 -14.2L-12.35 -15.95M-11.8,-4.25L-10.35 -8.3L-10.05 -8.25M-4.8,-9.1L-5.75 -7.5L-6.6 -7Q-7.3 -7 -8.45 -7.65L-10.05 -8.25M-9.45,-4.55L-9.4 -4.55L-8.5 -3.85" />
</g>
</svg>
