<?xml version="1.0" encoding="utf-8"?>
<svg version="1.1" id="Layer_1"
xmlns="http://www.w3.org/2000/svg"
xmlns:xlink="http://www.w3.org/1999/xlink"
xmlns:author="http://www.sothink.com"
width="50px" height="50px"
xml:space="preserve">
<g id="295" transform="matrix(1, 0, 0, 1, 24.6, 24.6)">
<path style="fill:#66CC00;fill-opacity:1" d="M24.6,-19.45L24.6 19.45Q24.6 24.6 19.45 24.6L-19.45 24.6Q-24.6 24.6 -24.6 19.45L-24.6 -19.45Q-24.6 -24.6 -19.45 -24.6L19.45 -24.6Q24.6 -24.6 24.6 -19.45M19.45,-23.6L-19.45 -23.6Q-23.6 -23.6 -23.6 -19.45L-23.6 19.45Q-23.6 23.6 -19.45 23.6L19.45 23.6Q23.6 23.6 23.6 19.45L23.6 -19.45Q23.6 -23.6 19.45 -23.6" />
<path style="fill:#52980C;fill-opacity:1" d="M-10.05,0.05Q-10.05 1.5 -9.65 2.8L-9.6 8.95L-9.6 9.5L-4.2 9.5L-0.3 9.5L-0.1 9.5L2.95 9.1Q5.15 8.4 6.9 6.75Q9.8 4 9.8 0.05Q9.8 -3.9 6.9 -6.7L4.5 -8.4L2.65 -9.1L0.55 -9.4L-0.1 -9.45L-1.05 -9.4L-9.6 -9.45L-9.65 -2.6Q-10.05 -1.35 -10.05 0.05M23.6,-19.45L23.6 19.45Q23.6 23.6 19.45 23.6L-19.45 23.6Q-23.6 23.6 -23.6 19.45L-23.6 -19.45Q-23.6 -23.6 -19.45 -23.6L19.45 -23.6Q23.6 -23.6 23.6 -19.45" />
<path style="fill:#669900;fill-opacity:1" d="M-9.65,2.8Q-10.05 1.5 -10.05 0.05Q-10.05 -1.35 -9.65 -2.6L-9.65 2.8" />
<path style="fill:none;stroke-width:1;stroke-linecap:butt;stroke-linejoin:miter;stroke-miterlimit:3;stroke:#66CC00;stroke-opacity:1" d="M-9.65,-2.6L-9.6 -9.45L-1.05 -9.4L-0.1 -9.45L0.55 -9.4L2.65 -9.1L4.5 -8.4L6.9 -6.7Q9.8 -3.9 9.8 0.05Q9.8 4 6.9 6.75Q5.15 8.4 2.95 9.1L-0.1 9.5L-0.3 9.5L-4.2 9.5L-9.6 9.5M-9.6,8.95L-9.65 2.8M-9.65,-2.6L-9.65 2.8M2.65,-9.1L2.95 9.1" />
</g>
</svg>
