<?xml version="1.0" encoding="utf-8"?>
<svg version="1.1" id="Layer_1"
xmlns="http://www.w3.org/2000/svg"
xmlns:xlink="http://www.w3.org/1999/xlink"
xmlns:author="http://www.sothink.com"
width="46px" height="46px"
xml:space="preserve">
<g id="225" transform="matrix(1, 0, 0, 1, 22.8, 22.85)">
<path style="fill:#FFFFFF;fill-opacity:1" d="M18.5,4.7Q18.5 3.85 18.95 1.85L19.4 -0.3Q19.4 -4.3 16.75 -8.5Q13.65 -12.55 12.85 -14.15Q12.65 -14.6 8.15 -16.95Q3.45 -19.4 2.2 -19.4L0.3 -19.35L0.25 -19.35Q-3.75 -19.1 -7.5 -17.75Q-12.2 -16.1 -13.4 -16.1L-13.95 -16.75L-13.9 -16.75Q-7.95 -21.85 0.05 -21.85L0.25 -21.85L0.3 -21.85Q9.15 -21.75 15.45 -15.45Q21.85 -9.05 21.85 0Q21.85 5.05 19.9 9.25Q18.5 7.2 18.5 4.7M-16.55,-0.05Q-16.5 7.1 -11.6 11.95Q-6.7 16.85 0.2 16.85L0.3 16.85Q7.1 16.8 11.95 11.95L12 11.9Q11.1 13.75 9.3 15.4Q5.25 19.15 0.65 19.15L0.25 19.15Q-5.3 19 -11 14.8Q-17.55 10 -17.55 3.95Q-17.55 1.4 -17 -0.25L-16.55 -0.05M4.5,6.6L4.4 6.6L4.15 5.9L4.2 4.2L4.05 -2.3L4.05 -3.9L3.65 -5.3L2.95 -5.6L2.95 -6.45L3.05 -6.65L3.05 -6.7L3.4 -6.8L4.5 -6.8L4.85 -6.7L4.9 -6.45L4.9 6.2L4.9 6.4L4.85 6.45L4.5 6.6M9.25,2.15L9.25 0.9L9.35 -0.8L9.35 -2.15Q9.3 -2.95 8.75 -3L8.6 -3L8.6 -4L8.9 -4.05L9.85 -4.05L10 -4L10.15 -3.95L10.15 4.15L10 4.2L9.95 4.2L9.25 2.15M-0.8,2.05Q-1.85 0.45 -1.95 -1.7L-2.1 -4.2Q-2.3 -6 -2.9 -6Q-2.95 -6 -5.75 -4.5L-5.9 -4.4Q-8.6 -3.05 -9.85 -3.05L-11.5 -3.45L-11.85 -3.65L-11.8 -3.7Q-11.4 -4.7 -9.9 -4.7L-6.6 -4.7L-6.1 -4.75L-5.9 -4.85L-0.95 -9.05L-0.8 2.05" />
<path style="fill:#5789B6;fill-opacity:1" d="M-14.4,-16.35L-14.45 -16.35L-15.4 -15.45Q-21.8 -9.05 -21.8 0Q-21.8 9.05 -15.4 15.45Q-9 21.85 0.05 21.85L0.25 21.85L0.3 21.85Q9.15 21.75 15.45 15.45Q18.2 12.7 19.75 9.5L19.8 9.45L19.8 9.4L19.9 9.25Q21.85 5.05 21.85 0Q21.85 -9.05 15.45 -15.45Q9.15 -21.75 0.3 -21.85L0.25 -21.85L0.05 -21.85Q-7.95 -21.85 -13.9 -16.75L-13.95 -16.75L-14.4 -16.35M0.3,-22.85Q9.55 -22.75 16.15 -16.15Q22.85 -9.45 22.85 0Q22.85 5.3 20.75 9.75L20.65 9.95Q19 13.3 16.15 16.15Q9.55 22.75 0.3 22.85L0.25 22.85L0.05 22.85Q-9.4 22.85 -16.1 16.15Q-22.8 9.45 -22.8 0Q-22.8 -9.45 -16.1 -16.15L-15.05 -17.1L-15.05 -17.15L-14.55 -17.5L-14.55 -17.55Q-8.3 -22.85 0.05 -22.85L0.25 -22.85L0.3 -22.85M0.2,-15.55Q-6.3 -15.55 -10.9 -10.95Q-14.7 -7.15 -15.4 -2.05L-15.55 0.15Q-15.55 3 -14.65 5.45L-14.65 5.5L-14.5 5.85Q-13.35 8.8 -10.9 11.25Q-6.3 15.85 0.2 15.85L0.3 15.85Q6.7 15.8 11.25 11.25L12.15 10.35Q15.85 6 15.85 0.15Q15.85 -6.35 11.25 -10.95Q6.7 -15.5 0.3 -15.55L0.2 -15.55M11.95,11.95Q7.1 16.8 0.3 16.85L0.2 16.85Q-6.7 16.85 -11.6 11.95Q-16.5 7.1 -16.55 -0.05L-16.55 -0.15L-16.45 -1.35L-16.4 -2.2Q-15.7 -7.65 -11.6 -11.65Q-6.7 -16.55 0.2 -16.55L0.3 -16.55Q7.1 -16.5 11.95 -11.65Q16.85 -6.75 16.85 0.15Q16.85 6.4 12.9 11L12 11.9L11.95 11.95M5.6,-7.35L5.9 -6.45L5.9 6.2L5.6 7.1L5.55 7.2L5.45 7.25L4.75 7.6L4.65 7.6L4.5 7.6L3.4 7.6Q2.8 7.6 2.4 7.2L2.35 7.15Q1.95 6.75 1.95 6.2L1.95 -6.45Q1.95 -7 2.35 -7.4L2.4 -7.4Q2.8 -7.8 3.4 -7.8L4.5 -7.8L5.4 -7.5L5.5 -7.45L5.55 -7.4L5.6 -7.35M2.95,6.2L3.05 6.45L3.1 6.5L3.4 6.6L4.4 6.6L4.5 6.6L4.55 6.6L4.75 6.55L4.85 6.5L4.85 6.45L4.9 6.4L4.9 6.2L4.9 -6.45L4.85 -6.7L4.5 -6.8L3.4 -6.8L3.05 -6.7L3.05 -6.65L2.95 -6.45L2.95 -5.6L2.95 6.2M8.9,-5.05L9.85 -5.05L10.45 -4.95L10.7 -4.85L11 -4.65L11.15 -4.15L11.15 4.25L10.8 4.95L10.4 5.15L10.35 5.15L10.1 5.2L9.85 5.2L8.9 5.2L8.1 4.95L8.05 4.95L8 4.9Q7.55 4.65 7.6 4.25L7.6 -4.15Q7.5 -4.45 8 -4.8L8.9 -5.05M8.6,4.1L8.9 4.2L9.85 4.2L9.95 4.2L10 4.2L10.15 4.15L10.15 -3.95L10 -4L9.85 -4.05L8.9 -4.05L8.6 -4L8.6 -3L8.6 4.1M0.2,10.9L-0.1 11.05L-0.45 11L-6.45 6.85L-6.6 6.65L-9.9 6.65Q-12.3 6.65 -12.8 4.9L-12.8 4.95L-13.05 3.65L-13.05 -2.7L-12.8 -3.95L-12.75 -4.05Q-12.2 -5.7 -9.9 -5.7L-6.6 -5.7L-6.45 -5.7L-0.8 -10.45L-0.45 -10.6L-0.15 -10.45L0 -10.1L0.3 10.55L0.2 10.9M-0.95,-9.05L-5.9 -4.85L-6.1 -4.75L-6.6 -4.7L-9.9 -4.7Q-11.4 -4.7 -11.8 -3.7L-11.85 -3.65L-11.9 -3.5L-11.9 -3.55L-12.05 -2.7L-12.05 3.65L-11.85 4.6Q-11.5 5.65 -9.9 5.65L-6.6 5.65L-6 5.85L-5.95 5.9L-5.8 6.05L-0.7 9.6L-0.8 2.05L-0.95 -9.05" />
<path style="fill:#C4EAF3;fill-opacity:1" d="M-13.95,-16.75L-13.4 -16.1Q-12.2 -16.1 -7.5 -17.75Q-3.75 -19.1 0.25 -19.35L0.3 -19.35L2.2 -19.4Q3.45 -19.4 8.15 -16.95Q12.65 -14.6 12.85 -14.15Q13.65 -12.55 16.75 -8.5Q19.4 -4.3 19.4 -0.3L18.95 1.85Q18.5 3.85 18.5 4.7Q18.5 7.2 19.9 9.25L19.8 9.4L19.8 9.45L19.75 9.5Q18.2 12.7 15.45 15.45Q9.15 21.75 0.3 21.85L0.25 21.85L0.05 21.85Q-9 21.85 -15.4 15.45Q-21.8 9.05 -21.8 0Q-21.8 -9.05 -15.4 -15.45L-14.45 -16.35L-14.4 -16.35L-13.95 -16.75M-17,-0.25Q-17.55 1.4 -17.55 3.95Q-17.55 10 -11 14.8Q-5.3 19 0.25 19.15L0.65 19.15Q5.25 19.15 9.3 15.4Q11.1 13.75 12 11.9L12.9 11Q16.85 6.4 16.85 0.15Q16.85 -6.75 11.95 -11.65Q7.1 -16.5 0.3 -16.55L0.2 -16.55Q-6.7 -16.55 -11.6 -11.65Q-15.7 -7.65 -16.4 -2.2L-16.45 -1.35L-17 -0.25M4.4,6.6L3.4 6.6L3.1 6.5L3.05 6.45L2.95 6.2L2.95 -5.6L3.65 -5.3L4.05 -3.9L4.05 -2.3L4.2 4.2L4.15 5.9L4.4 6.6M9.95,4.2L9.85 4.2L8.9 4.2L8.6 4.1L8.6 -3L8.75 -3Q9.3 -2.95 9.35 -2.15L9.35 -0.8L9.25 0.9L9.25 2.15L9.95 4.2M-11.5,-3.45L-9.85 -3.05Q-8.6 -3.05 -5.9 -4.4L-5.75 -4.5Q-2.95 -6 -2.9 -6Q-2.3 -6 -2.1 -4.2L-1.95 -1.7Q-1.85 0.45 -0.8 2.05L-0.7 9.6L-5.8 6.05L-5.95 5.9L-6 5.85L-6.6 5.65L-9.9 5.65Q-11.5 5.65 -11.85 4.6L-12.05 3.65L-12.05 -2.7L-11.9 -3.55L-11.9 -3.5L-11.85 -3.65L-11.5 -3.45" />
<path style="fill:#FF0000;fill-opacity:0" d="M0.3,-15.55Q6.7 -15.5 11.25 -10.95Q15.85 -6.35 15.85 0.15Q15.85 6 12.15 10.35L11.25 11.25Q6.7 15.8 0.3 15.85L0.2 15.85Q-6.3 15.85 -10.9 11.25Q-13.35 8.8 -14.5 5.85L-14.65 5.5L-14.65 5.45Q-15.55 3 -15.55 0.15L-15.4 -2.05Q-14.7 -7.15 -10.9 -10.95Q-6.3 -15.55 0.2 -15.55L0.3 -15.55M5.55,-7.4L5.5 -7.45L5.4 -7.5L4.5 -7.8L3.4 -7.8Q2.8 -7.8 2.4 -7.4L2.35 -7.4Q1.95 -7 1.95 -6.45L1.95 6.2Q1.95 6.75 2.35 7.15L2.4 7.2Q2.8 7.6 3.4 7.6L4.5 7.6L4.65 7.6L4.75 7.6L5.45 7.25L5.55 7.2L5.6 7.1L5.9 6.2L5.9 -6.45L5.6 -7.35L5.55 -7.4M8,-4.8Q7.5 -4.45 7.6 -4.15L7.6 4.25Q7.55 4.65 8 4.9L8.05 4.95L8.1 4.95L8.9 5.2L9.85 5.2L10.1 5.2L10.35 5.15L10.4 5.15L10.8 4.95L11.15 4.25L11.15 -4.15L11 -4.65L10.7 -4.85L10.45 -4.95L9.85 -5.05L8.9 -5.05L8 -4.8M0.3,10.55L0 -10.1L-0.15 -10.45L-0.45 -10.6L-0.8 -10.45L-6.45 -5.7L-6.6 -5.7L-9.9 -5.7Q-12.2 -5.7 -12.75 -4.05L-12.8 -3.95L-13.05 -2.7L-13.05 3.65L-12.8 4.95L-12.8 4.9Q-12.3 6.65 -9.9 6.65L-6.6 6.65L-6.45 6.85L-0.45 11L-0.1 11.05L0.2 10.9L0.3 10.55" />
<path style="fill:#C5DBDB;fill-opacity:1" d="M-17,-0.25L-16.45 -1.35L-16.55 -0.15L-16.55 -0.05L-17 -0.25M4.85,6.45L4.85 6.5L4.75 6.55L4.55 6.6L4.5 6.6L4.85 6.45" />
</g>
</svg>
