<?xml version="1.0" encoding="utf-8"?>
<svg version="1.1" id="Layer_1"
xmlns="http://www.w3.org/2000/svg"
xmlns:xlink="http://www.w3.org/1999/xlink"
xmlns:author="http://www.sothink.com"
width="26px" height="48px"
xml:space="preserve">
<g id="150" transform="matrix(1, 0, 0, 1, 13.15, 11.45)">
<path style="fill:#D75535;fill-opacity:1" d="M-2.65,11.55L-3.05 11.3Q-3.5 11 -4.3 11L-4.8 11.2L-5.45 7.95L-5.1 7.75L-5.05 7.65L-0.15 0.2Q3.9 -5.55 4.9 -5.55L5.9 -5.1Q6.65 -4.6 6.65 -4.15Q6.65 -3.05 2.25 2.7L4.55 4.25Q7.25 6.15 7.25 6.5Q4.6 13.5 2.6 15.4L0.9 14.1L-1.6 12.25L-2.65 11.55M7.25,22.65L8.35 22.25L9.3 24.75L7.25 22.65M-6.65,14.2L-6.6 14.05L-5.45 14.7Q-4.8 14.6 -4.3 15.2L-1.05 16.45Q1.35 17.45 2.9 19.2Q4.6 21.05 5.3 23.75L5.95 25.95L8.8 35.2L8.95 35.6L6 35.6L5.85 35.2L6.5 34L6.35 32.95L3.45 32.95L2.2 33.3L0.5 33.4L-2.35 32.45L-4.9 31.45L-5.65 31.5L-6.45 31.9L-5.4 34L-5.75 35.6L-10.5 35.6L-9.45 31.35L-7.85 25.95L-4.7 15.05L-5.1 14.85L-5.45 14.7L-6.65 14.2M1.8,30.6L4.8 31.2L3.4 25.95L2.95 24.8Q1.45 21.1 -1.7 19.9L-2.7 19.6L-3.95 25.95L-4.25 27.75L-4.5 29.25L1.75 30.6L1.8 30.6M7.25,31.75L6.8 31.65L7.1 31.75L7.25 31.75" />
<path style="fill:#B8462A;fill-opacity:1" d="M-1.05,16.45L-4.3 15.2Q-4.8 14.6 -5.45 14.7L-6.6 14.05Q-5.75 12.1 -5 11.4L-4.8 11.2L-4.3 11Q-3.5 11 -3.05 11.3L-2.65 11.55L-2.7 11.6L-1.6 12.25L0.9 14.1L2.6 15.4L4.7 17Q6.7 18.4 8.35 22.25L7.25 22.65Q4.95 20.4 2.9 19.2Q1.35 17.45 -1.05 16.45M5.85,35.2L5.75 34.75L2.35 34.55L0.45 34.45L-5.4 34L-6.45 31.9L-5.65 31.5L-4.9 31.45L-2.35 32.45L0.5 33.4L2.2 33.3L3.45 32.95L6.35 32.95L6.5 34L5.85 35.2M-5.45,14.7L-5.1 14.85L-4.7 15.05L-7.85 25.95L-9.45 31.35L-10.5 35.6L-12.65 35.6L-10.6 26.95L-10.35 25.95Q-8.25 17.9 -6.65 14.2L-5.45 14.7" />
<path style="fill:#EE856B;fill-opacity:1" d="M9.3,24.75L9.6 25.7L9.7 25.95L12.15 35.6L8.95 35.6L8.8 35.2L5.95 25.95L5.3 23.75Q4.6 21.05 2.9 19.2Q4.95 20.4 7.25 22.65L9.3 24.75" />
<path style="fill:none;stroke-width:1;stroke-linecap:butt;stroke-linejoin:miter;stroke-miterlimit:3;stroke:#833825;stroke-opacity:1" d="M-5.05,7.65L-5.1 7.75L-5.1 7.6L-5.05 7.65L-0.15 0.2Q3.9 -5.55 4.9 -5.55L5.9 -5.1Q6.65 -4.6 6.65 -4.15Q6.65 -3.05 2.25 2.7L4.55 4.25Q7.25 6.15 7.25 6.5Q4.6 13.5 2.6 15.4L4.7 17Q6.7 18.4 8.35 22.25L9.3 24.75L9.6 25.7L9.7 25.95L12.15 35.6M6,35.6L5.85 35.2L5.75 34.75L2.35 34.55L0.45 34.45L-5.4 34L-5.75 35.6M-12.65,35.6L-10.6 26.95L-10.35 25.95Q-8.25 17.9 -6.65 14.2L-6.6 14.05Q-5.75 12.1 -5 11.4L-4.8 11.2L-5.45 7.95M2.6,15.4L0.9 14.1L-1.6 12.25L-2.7 11.6L-2.65 11.55L-3.05 11.3Q-3.5 11 -4.3 11L-4.8 11.2M1.8,30.6L4.8 31.2L3.4 25.95L2.95 24.8Q1.45 21.1 -1.7 19.9L-2.7 19.6L-3.95 25.95L-4.25 27.75L-4.5 29.25L1.75 30.6L1.8 30.6M-1.6,12.25L-2.65 11.55" />
<path style="fill:#D75535;fill-opacity:1" d="M4.85,-8.05Q5.9 -7.5 7.25 -7.1Q8.15 -6.65 8.85 -4.3L9.4 -2.8Q8.9 -2.4 8.25 -2.4Q2.25 -4.65 2.25 -6.5L3.05 -8.55L3.4 -9.2Q3.9 -8.55 4.85 -8.05M-0.4,11.75Q-1.2 12.6 -1.55 12.6Q-2.75 12.6 -5.25 10.75Q-7.7 8.9 -7.55 8.15L-6.25 5.4L-4.75 3.3L-4.8 3.9Q-4.8 5.4 -3.95 5.8Q-2.55 6.45 -1.8 7.55Q-1.5 8 -0.75 11.05L-0.4 11.75" />
<path style="fill:#EE856B;fill-opacity:1" d="M3.4,-9.2L3.8 -9.75L4.05 -10.3L4.35 -10.85L5.1 -10.95Q10.95 -8.8 10.95 -6.45Q10.95 -5.3 10.35 -4.05Q9.95 -3.2 9.4 -2.8L8.85 -4.3Q8.15 -6.65 7.25 -7.1Q5.9 -7.5 4.85 -8.05Q3.9 -8.55 3.4 -9.2M-0.75,11.05Q-1.5 8 -1.8 7.55Q-2.55 6.45 -3.95 5.8Q-4.8 5.4 -4.8 3.9L-4.75 3.3Q-4.25 2.85 -3.75 2.85Q-3.1 2.85 -0.45 4.65Q2.25 6.55 2.25 7.25Q2.25 8.3 0.6 10.5L-0.4 11.75L-0.75 11.05" />
<path style="fill:none;stroke-width:1;stroke-linecap:butt;stroke-linejoin:miter;stroke-miterlimit:3;stroke:#833825;stroke-opacity:1" d="M9.4,-2.8Q8.9 -2.4 8.25 -2.4Q2.25 -4.65 2.25 -6.5L3.05 -8.55L3.4 -9.2L3.8 -9.75L4.05 -10.3L4.35 -10.85L5.1 -10.95Q10.95 -8.8 10.95 -6.45Q10.95 -5.3 10.35 -4.05Q9.95 -3.2 9.4 -2.8M-4.75,3.3Q-4.25 2.85 -3.75 2.85Q-3.1 2.85 -0.45 4.65Q2.25 6.55 2.25 7.25Q2.25 8.3 0.6 10.5L-0.4 11.75Q-1.2 12.6 -1.55 12.6Q-2.75 12.6 -5.25 10.75Q-7.7 8.9 -7.55 8.15L-6.25 5.4L-4.75 3.3" />
</g>
</svg>
