<?xml version="1.0" encoding="utf-8"?>
<svg version="1.1" id="Layer_1"
xmlns="http://www.w3.org/2000/svg"
xmlns:xlink="http://www.w3.org/1999/xlink"
xmlns:author="http://www.sothink.com"
width="76px" height="74px"
xml:space="preserve">
<g id="222" transform="matrix(1, 0, 0, 1, 37.8, 36.55)">
<path style="fill:#C3ECD7;fill-opacity:1" d="M37.35,-29.2L37.35 29.2Q37.35 36 30.75 36L-30.7 36Q-37.3 36 -37.3 29.2L-37.3 -29.2Q-37.3 -36.05 -30.7 -36.05L30.75 -36.05Q37.35 -36.05 37.35 -29.2M30.75,-33.35L-30.7 -33.35Q-34.6 -33.35 -34.6 -29.2L-34.6 29.2Q-34.6 33.35 -30.7 33.35L30.75 33.35Q34.7 33.35 34.7 29.2L34.7 -29.2Q34.7 -33.35 30.75 -33.35" />
<path style="fill:none;stroke-width:1;stroke-linecap:butt;stroke-linejoin:miter;stroke-miterlimit:3;stroke:#357E58;stroke-opacity:1" d="M30.75,-36.05L-30.7 -36.05Q-37.3 -36.05 -37.3 -29.2L-37.3 29.2Q-37.3 36 -30.7 36L30.75 36Q37.35 36 37.35 29.2L37.35 -29.2Q37.35 -36.05 30.75 -36.05z" />
</g>
</svg>
