<?xml version="1.0" encoding="utf-8"?>
<svg version="1.1" id="Layer_1"
xmlns="http://www.w3.org/2000/svg"
xmlns:xlink="http://www.w3.org/1999/xlink"
xmlns:author="http://www.sothink.com"
width="20px" height="16px"
xml:space="preserve">
<g id="153" transform="matrix(1, 0, 0, 1, 9.45, 7.8)">
<path style="fill:#FF0000;fill-opacity:0" d="M9.8,7.3L-9.45 7.3L-9.45 -7.8L9.8 -7.8L9.8 7.3" />
<path style="fill:#DB8606;fill-opacity:1" d="M7.75,5.75L-7.7 5.75L-7.7 0.65Q-7.05 0.35 -6.7 0.35Q-6.3 0.35 -5.7 0.95Q-5.1 1.55 -4.55 1.55L-3.7 1.1Q-3.05 0.6 -2.85 0.6Q-2.4 0.6 -1.6 1.2Q-0.85 1.75 0 1.75L1.9 1.2L3.6 0.6Q3.95 0.6 4.9 1.1L6.35 1.55L7.75 1.5L7.75 5.75" />
<path style="fill:#A86706;fill-opacity:1" d="M-7.7,-5.7L7.75 -5.7L7.75 1.5L6.35 1.55L4.9 1.1Q3.95 0.6 3.6 0.6L1.9 1.2L0 1.75Q-0.85 1.75 -1.6 1.2Q-2.4 0.6 -2.85 0.6Q-3.05 0.6 -3.7 1.1L-4.55 1.55Q-5.1 1.55 -5.7 0.95Q-6.3 0.35 -6.7 0.35Q-7.05 0.35 -7.7 0.65L-7.7 -5.7" />
<path style="fill:none;stroke-width:1;stroke-linecap:butt;stroke-linejoin:miter;stroke-miterlimit:3;stroke:#5F4E09;stroke-opacity:1" d="M7.75,1.5L7.75 -5.7L-7.7 -5.7L-7.7 0.65L-7.7 5.75L7.75 5.75L7.75 1.5z" />
</g>
</svg>
