<?xml version="1.0" encoding="utf-8"?>
<svg version="1.1" id="Layer_1"
xmlns="http://www.w3.org/2000/svg"
xmlns:xlink="http://www.w3.org/1999/xlink"
xmlns:author="http://www.sothink.com"
width="53px" height="72px"
xml:space="preserve">
<g id="37" transform="matrix(1, 0, 0, 1, 26.6, 64.5)">
<path style="fill:#77F5DB;fill-opacity:1" d="M12.45,-58.35L11.85 -40.7Q11.85 -38.4 13.3 -36.75Q14.65 -35.2 14.45 -31.95Q14.1 -25.3 14.45 -19.5Q15.3 -8.3 16.8 1.2L16.8 3.2L12.05 3.65L11.2 3.8L8.3 4.35L7.35 4.4L-3.25 3.35L-4.75 3.15L-10.65 2.3L-11.85 2.4Q-14 2.65 -15.6 3.8L-17.8 5.05L-18.3 3.5L-18.05 2.7Q-15.9 -4.15 -14.25 -14.5L-11.25 -33.6L-10.25 -33.45L-9.15 -33.15Q-6.3 -33.15 -5.2 -44.55Q-4.05 -55.95 -3.5 -55.95L-2.2 -55.5L-1.05 -55.05Q1.15 -55.05 2.8 -58.7Q4.4 -62.25 3.5 -64.5Q6.75 -61.75 11.7 -59.55Q12.4 -59.25 12.45 -58.35M-2.75,-58.75L-2.95 -59.15L-3.2 -60.05L-3.45 -60.35L-3.5 -60.95Q-3.5 -63.15 -1.5 -63.3Q-1.2 -62.7 -1.2 -61.55L-1.3 -59.85Q-1.5 -59.15 -2.65 -58.75L-2.75 -58.75" />
<path style="fill:#D2DEEE;fill-opacity:1" d="M15.35,-1.8L24.1 -0.4Q26.3 0.3 26.3 1.5Q26.3 2.45 25.85 2.75Q25.25 3.2 23.6 3.4L23.5 3.55L21.4 4.1L1.7 5.55L-7.05 5.7L-7.65 5.85L-19.2 6L-21.15 6.5L-22.5 6.75Q-23.7 6.75 -24.15 6.05L-24.3 5.3L-24.05 4.55L-23.7 4.1L-24.25 4.1Q-25.95 4.1 -26.45 3.3L-26.6 2.4Q-26.6 1.55 -26.15 1.3L-25.3 1L-25.15 0.7Q-24.6 0.3 -22.5 0L0.9 -1.65L0.9 -1.8L15.35 -1.8" />
</g>
</svg>
