<?xml version="1.0" encoding="utf-8"?>
<svg version="1.1" id="Layer_1"
xmlns="http://www.w3.org/2000/svg"
xmlns:xlink="http://www.w3.org/1999/xlink"
xmlns:author="http://www.sothink.com"
width="11px" height="22px"
xml:space="preserve">
<g id="159" transform="matrix(1, 0, 0, 1, 5, 9.8)">
<path style="fill:#83679F;fill-opacity:1" d="M-2.85,11L2.1 0.8L-2 -7L0.5 -9L5.35 0.95L-1.5 11.35L-1.75 11.45L-2.85 11" />
<path style="fill:#B8A0D0;fill-opacity:1" d="M2.1,0.8L-2.85 11L-3.95 10.5L-0.8 1.45L-4.35 -5.1L-2 -7L2.1 0.8" />
<path style="fill:none;stroke-width:1;stroke-linecap:butt;stroke-linejoin:miter;stroke-miterlimit:3;stroke:#483957;stroke-opacity:1" d="M-2,-7L-4.35 -5.1L-0.8 1.45L-3.95 10.5L-2.85 11M-2,-7L0.5 -9L5.35 0.95L-1.5 11.35M-1.75,11.45L-2.85 11" />
</g>
</svg>
