<?xml version="1.0" encoding="utf-8"?>
<svg version="1.1" id="Layer_1"
xmlns="http://www.w3.org/2000/svg"
xmlns:xlink="http://www.w3.org/1999/xlink"
xmlns:author="http://www.sothink.com"
width="47px" height="79px"
xml:space="preserve">
<g id="39" transform="matrix(1, 0, 0, 1, 25.7, 73.35)">
<path style="fill:#77F5DB;fill-opacity:1" d="M4.8,-70.1Q6.75 -70.1 6.75 -68.55L6.45 -67.5Q6.05 -66.6 5.4 -66.6Q4.95 -66.6 4.4 -67.2Q3.8 -67.85 3.8 -68.55L4.1 -69.35Q4.45 -70.1 4.8 -70.1M4.35,-58.05Q9.45 -58.05 10.35 -45Q10.65 -39.85 12.65 -37.3Q14.45 -34.95 14.45 -31.2L14 -22Q13.55 -16.5 13.55 -12.85Q13.55 -6.3 13.7 -5.2Q13.9 -3.4 15.65 3.2L9.95 3.8L9.75 3.85L4.4 4.4L2.95 4.35L-5.6 3.15L-6.1 3.05L-14.85 1.75L-15.5 1.7L-19.2 2.3L-21.9 2.85L-21.9 2.3Q-20.15 -4.8 -18.1 -15.35L-14.45 -34.05Q-14.05 -35.9 -11.2 -35.75Q-8.35 -35.6 -7.95 -38.15L-7.25 -42.6Q-6.95 -45.1 -7.05 -47.3Q-7.3 -52.5 -2.3 -54.15L0.75 -56.25Q3.25 -58.05 4.35 -58.05M21.3,-48.25Q21.3 -47.1 20.7 -46.5Q20.15 -45.9 19.2 -45.9Q17.4 -45.9 17.4 -47.35Q17.4 -48.6 18 -49.4Q18.75 -50.3 20.1 -50.3Q20.6 -50.3 21 -49.4L21.3 -48.25M-3.5,-68.1Q-4.25 -66.9 -5.3 -66.9Q-6.45 -66.9 -7.65 -68.1Q-8.85 -69.25 -8.85 -70.15L-8.4 -71.7L-8.2 -72L-8.1 -72.6L-7.7 -73.25L-6.5 -73.35Q-5.2 -73.35 -4.1 -72.5Q-2.9 -71.55 -2.9 -70.15Q-2.9 -69.1 -3.5 -68.1M-24.35,-28.95L-24.2 -29.5L-23.1 -29.55Q-22.7 -29.55 -21.9 -28.95Q-21 -28.3 -21 -27.8Q-21 -27.15 -21.6 -26.6Q-22.25 -26 -23.1 -26Q-24.8 -26 -24.8 -27.5L-24.75 -28.1L-24.35 -28.95" />
<path style="fill:#D2DEEE;fill-opacity:1" d="M7.05,-0.45L15.95 -0.3Q18.45 0.25 19.35 0.8Q20.1 1.25 20.1 2.05Q20.1 3 18.4 3.3L0.15 4.2L-5.15 4.65L-8.4 5Q-9.7 5 -10.15 4.3L-10.35 3.6L-20.7 3.8Q-23.75 3.8 -24.9 3.05Q-25.7 2.55 -25.7 1.5L-25.65 0.3Q-25.55 0 -24.65 0.05L-14.3 0.45L-12.7 0.15L-2.6 -0.45L-2.6 -0.6L6.45 -0.6L7.05 -0.45" />
</g>
</svg>
