<?xml version="1.0" encoding="utf-8"?>
<svg version="1.1" id="Layer_1"
xmlns="http://www.w3.org/2000/svg"
xmlns:xlink="http://www.w3.org/1999/xlink"
xmlns:author="http://www.sothink.com"
width="110px" height="153px"
xml:space="preserve">
<g id="78" transform="matrix(1, 0, 0, 1, 53.9, 169.3)">
<path style="fill:#BFA052;fill-opacity:1" d="M-13.15,-158.2L-13.5 -158.2L-15.2 -158.3L-19.9 -152.55Q-30.05 -140.3 -32.55 -140.3Q-33.9 -140.3 -35.65 -142.45L-37.6 -145.2L-37.45 -145.3L-23.85 -159L-20.1 -162.65L-20.45 -162.95L-20.65 -164.4Q-20.65 -166.6 -18.6 -167.85Q-17 -168.8 -15.05 -168.8L-14.3 -168.5L-13.85 -168L-13.7 -168.15L-12.65 -168.6Q-11.6 -168.6 -10.75 -167.5Q-10.05 -166.6 -10.05 -165.85L-10.1 -165.6L-8.95 -164.3Q-8.6 -163.7 -8.6 -162.65Q-8.6 -160.65 -9.85 -159.45Q-10.5 -158.85 -11.4 -158.5L-13.15 -158.2M-11.85,-149.6L-10.75 -149.4L-10.75 -146.85L-10.65 -146.15Q-10.3 -144.75 -9.1 -143.95Q-7.65 -142.95 -7.65 -141.2Q-7.65 -139.05 -9.1 -137.75Q-10.55 -136.45 -12.85 -136.45Q-15.7 -136.45 -15.7 -138.25L-15.35 -139.4L-14.25 -139.1L-13.3 -138.85Q-12.15 -138.85 -11.5 -139.55Q-10.95 -140.2 -10.95 -141.2Q-10.95 -142.35 -11.3 -142.85Q-11.7 -143.4 -12.65 -143.4L-14.25 -143.2Q-14.25 -145.4 -14.4 -146.3L-14.4 -149.25L-13.7 -149.25L-13.65 -149.6L-11.85 -149.6M-16.45,-164.05Q-16.4 -163.45 -15.8 -163.05Q-15.4 -162.75 -15.05 -162.75Q-14.7 -162.75 -14.25 -163.3L-13.85 -164.05Q-13.85 -165.15 -15.05 -165.15Q-15.6 -165.15 -15.9 -164.75L-16.45 -164.05" />
<path style="fill:#5D5C5C;fill-opacity:1" d="M-13.65,-149.6Q-13.45 -150.95 -13.35 -153.6L-13.15 -157.85L-13.15 -158.2L-11.4 -158.5L-11.3 -158.2L-11.85 -149.6L-13.65 -149.6M-15.9,-164.75Q-15.6 -165.15 -15.05 -165.15Q-13.85 -165.15 -13.85 -164.05L-14.25 -163.3Q-14.7 -162.75 -15.05 -162.75Q-15.4 -162.75 -15.8 -163.05Q-16.4 -163.45 -16.45 -164.05L-15.9 -164.75" />
<path style="fill:none;stroke-width:1;stroke-linecap:butt;stroke-linejoin:miter;stroke-miterlimit:3;stroke:#5D4D24;stroke-opacity:1" d="M-20.45,-162.95L-20.65 -164.4Q-20.65 -166.6 -18.6 -167.85Q-17 -168.8 -15.05 -168.8L-14.3 -168.5L-13.7 -168.15L-12.65 -168.6Q-11.6 -168.6 -10.75 -167.5Q-10.05 -166.6 -10.05 -165.85L-10.1 -165.6L-8.95 -164.3Q-8.6 -163.7 -8.6 -162.65Q-8.6 -160.65 -9.85 -159.45Q-10.5 -158.85 -11.4 -158.5M-11.3,-158.2L-11.85 -149.6L-10.75 -149.4L-10.75 -146.85L-10.65 -146.15Q-10.3 -144.75 -9.1 -143.95Q-7.65 -142.95 -7.65 -141.2Q-7.65 -139.05 -9.1 -137.75Q-10.55 -136.45 -12.85 -136.45Q-15.7 -136.45 -15.7 -138.25L-15.35 -139.4L-14.25 -139.1L-13.3 -138.85Q-12.15 -138.85 -11.5 -139.55Q-10.95 -140.2 -10.95 -141.2Q-10.95 -142.35 -11.3 -142.85Q-11.7 -143.4 -12.65 -143.4L-14.25 -143.2Q-14.25 -145.4 -14.4 -146.3L-14.4 -149.25L-13.7 -149.25M-11.85,-149.6L-13.65 -149.6Q-13.45 -150.95 -13.35 -153.6L-13.15 -157.85M-13.15,-158.2L-13.5 -158.2L-15.2 -158.3L-19.9 -152.55Q-30.05 -140.3 -32.55 -140.3Q-33.9 -140.3 -35.65 -142.45L-37.6 -145.2L-37.45 -145.3L-23.85 -159L-20.1 -162.65L-13.85 -168L-13.7 -168.15M-16.45,-164.05Q-16.4 -163.45 -15.8 -163.05Q-15.4 -162.75 -15.05 -162.75Q-14.7 -162.75 -14.25 -163.3L-13.85 -164.05Q-13.85 -165.15 -15.05 -165.15Q-15.6 -165.15 -15.9 -164.75L-16.45 -164.05M-13.15,-158.2L-11.4 -158.5M-10.1,-165.6Q-10.55 -164.2 -15.2 -158.3" />
<path style="fill:#484858;fill-opacity:1" d="M-0.55,-86.7L-0.55 -90.35L-2.7 -90.65L-3.3 -90.7L-3.75 -90.75L-6.05 -91Q-6.5 -91 -6.4 -93.15L-6.35 -96.35L-5.1 -96.75L-5.05 -96.75L-3.5 -97.2L-0.55 -97.5Q0 -97.6 0 -98.5L-0.05 -100Q0.25 -100.6 1 -100.7L2.25 -100.7Q2.45 -100 2.1 -97.85Q4.45 -97.5 8.15 -95.65L11.5 -93.7L12.2 -92.8Q12.2 -90.6 11.65 -89.85Q11.25 -89.35 10.3 -89.35L9.85 -89.4L8 -89.7L6.75 -89.9Q4.45 -90.2 2.25 -89.9L2.1 -86.4L-0.55 -86.7M10.45,-92.55L9.35 -93.2L7.85 -93.9L7.7 -93.55L7.6 -92.75L7.5 -92.1Q7.5 -91.25 8.25 -91.2L10.15 -90.9L10.45 -92.55M2.5,-95.25L2.4 -92.85L2.45 -92.1L3 -92L5.55 -91.8L5.85 -91.8L6.15 -94.5L4.1 -95.1L2.5 -95.25M-3.5,-95.4L-4.75 -95.5L-4.8 -92.45L-3.5 -92.15L-2.6 -92L-1.5 -91.85L-1.25 -91.85L-1.25 -93.25L-1.3 -94.65Q-1.35 -95.2 -2.1 -95.2L-3.5 -95.4" />
<path style="fill:#8C8CB6;fill-opacity:1" d="M21.1,-79.9L21.1 -80.75L21.2 -81.9Q21.55 -85.45 24.25 -85.2L35.3 -84.55L43.9 -84.25L45.1 -84.25L46.25 -82.75L46.3 -82.7L46.35 -82.6L46.65 -81.05L46.65 -80.3L46.65 -78.8L46.6 -74.75L45.15 -74.45L43.8 -74.5L39.55 -75.1L37.45 -75.45L36.7 -79.35Q37.6 -79.6 37.6 -80.5L37.6 -80.7L38.4 -80.8L42.55 -80.65L44.9 -81Q45.35 -81.25 45.35 -81.95Q45.35 -82.75 44.2 -83L42.1 -83.25L38.95 -83.3L36.3 -83.35L33.55 -83.65L26.4 -84.25Q23.15 -84.35 23.15 -82.35L23.2 -81.7Q23.4 -81.25 24.25 -80.9L25.45 -80.9L25.4 -80.75L24.5 -78.15L24.2 -77.35L23.3 -75.25Q22.55 -75.35 21.7 -76.2L21.15 -76.75L21.1 -79.9M51.4,-76.25L48.95 -76L48.95 -77.75L48.95 -79L48.85 -80.9L50 -80.9Q51.4 -80.6 51.55 -80.3L51.7 -78.65L51.65 -76.2L51.4 -76.25M-32.6,-48.85L-32.85 -49.15Q-33.45 -50 -33.45 -50.75L-33.15 -51.95L-31.45 -53.9L-28.8 -55.6L-29.1 -54.05Q-29.1 -52.9 -28.4 -51.95L-27.65 -51.05L-25.2 -49.15L-24.6 -49.1L-24.05 -49.05Q-22 -48.8 -20.8 -48.05L-20.85 -45.95L-23.8 -46.3L-24.3 -46.35L-29.25 -46.8L-31.9 -46.75L-35.4 -46.6L-42.9 -46.15Q-42.6 -47.75 -41.45 -48.1L-37.55 -48.3L-35.5 -48.5L-33.55 -48.75L-32.6 -48.85M40.7,-77.55L40.95 -76.35Q41.5 -75.25 43 -75.25Q43.95 -75.25 44.6 -76.3L45.1 -77.55Q45.1 -79.7 42.3 -79.4Q41.2 -79.2 40.9 -78.6L40.7 -77.55M50.4,-78.3Q51 -78.3 51.2 -78.65L51.25 -79.3Q51.25 -80.2 50.35 -80.35Q49.45 -80.5 49.45 -79.4L49.55 -78.85Q49.75 -78.3 50.4 -78.3M8.7,-54.3L8.95 -54.4L10.05 -54.4L13.2 -54.45L16 -54.6Q18.5 -53.8 18.85 -51.4L18.85 -51.3L18.9 -49.5L18.9 -45.9L18.9 -45L16.5 -45.25L13.25 -45.45L12.2 -45.5L9.25 -45.3L8.75 -45.25L8.7 -54.3M28.4,-78.25L29.3 -78.95L29.3 -78.9L28.4 -78.25M-6.8,-47.45L-6.8 -48.2L-6.8 -48.65L-6.8 -48.9L-6.7 -54.1L-6.5 -54.1Q-3.3 -54.35 1.25 -54.15L1.25 -54.05L1.15 -52.1L1.2 -51.85L1.25 -49.7L1.25 -48.6Q1.2 -47.25 0.65 -46.45Q-0.25 -45.15 -2.45 -45.15L-3 -45.15L-6.8 -45.25L-6.8 -47.45M0.55,-51.95L0.4 -52.65Q0.05 -53.1 -1.4 -53.25L-5.6 -53.5Q-6.1 -53.35 -6.1 -52.75L-6 -52.35L-5.7 -51.65L-5.7 -51.35L-5.55 -51.05L-5.05 -50.75L-4.4 -50.7L-1.1 -50.6Q0.2 -50.6 0.5 -51.2L0.55 -51.8L0.55 -51.95M9.75,-51.8L9.8 -51.65Q10.4 -50.4 12.05 -50.85Q12.4 -51.05 12.45 -51.65L12.45 -51.9Q12.45 -53.35 11 -53.5Q9.5 -53.55 9.5 -53Q9.5 -52.3 9.75 -51.8M14.1,-51.35Q14.7 -50.5 17.05 -50.5Q17.75 -50.5 17.75 -51.4L17.75 -51.45Q17.75 -52.45 16.3 -52.9L14.85 -53.2L14.1 -53.05L13.9 -52.5L14 -51.65L14.1 -51.35M-22.45,-60.5L-22.75 -60.95Q-23.7 -62.3 -25.6 -62.3L-27.2 -61.85L-31.6 -60.4L-30.95 -63.6L-24.9 -66.05L-24.05 -66.55L-22.9 -64.45L-21.45 -61.6L-21.4 -61.35L-21.85 -60.9L-21.9 -60.8L-22.45 -60.5M-34.2,-60.45L-33.85 -59.6L-36.5 -58.75L-40.35 -57.6L-39.95 -59.9L-34.95 -62L-34.2 -60.45M-17.3,-51.4Q-17 -53.5 -15.7 -53.75L-14.4 -53.75L-14.6 -49.55L-14.6 -46.5L-14.7 -45.55Q-14.95 -44.5 -15.6 -44.5Q-16.7 -44.5 -17.45 -45.55L-17.5 -45.6L-17.7 -45.95L-17.75 -47.35L-17.6 -48.95L-17.5 -49.5L-17.5 -50.2L-17.45 -50.6L-17.3 -51.4M-16.3,-51.95Q-16.3 -51.05 -15.65 -51.05Q-15.1 -51.05 -15.1 -52.05Q-15.1 -52.95 -15.7 -53.05Q-16.3 -53.2 -16.3 -51.95M-2.15,-52.9L-2.15 -52.85L-2.55 -52.9L-2.15 -52.9M-4.9,-51.25L-5.25 -51.6L-4.8 -51.25L-4.9 -51.25" />
<path style="fill:#F58D48;fill-opacity:1" d="M48.95,-79L48.95 -77.75L48.95 -76L48.65 -76Q48.2 -75.95 47.6 -75.4L46.65 -74.8L46.6 -74.75L46.65 -78.8L46.65 -80.3L46.65 -81.05L46.35 -82.6L46.7 -82.75Q48.4 -82.75 48.8 -81.4L48.85 -80.9L48.95 -79" />
<path style="fill:#B7B7DE;fill-opacity:1" d="M34.95,-82.5L33.2 -82.4L29.9 -82.5Q26.25 -82.5 25.5 -81.05L25.45 -80.9L24.25 -80.9Q23.4 -81.25 23.2 -81.7L23.15 -82.35Q23.15 -84.35 26.4 -84.25L33.55 -83.65L36.3 -83.35L38.95 -83.3L42.1 -83.25L44.2 -83Q45.35 -82.75 45.35 -81.95Q45.35 -81.25 44.9 -81L42.55 -80.65L38.4 -80.8L37.6 -80.7Q37.45 -82.25 34.95 -82.5M49.55,-78.85L49.45 -79.4Q49.45 -80.5 50.35 -80.35Q51.25 -80.2 51.25 -79.3L51.2 -78.65Q51 -78.3 50.4 -78.3Q49.75 -78.3 49.55 -78.85M0.55,-51.8L0.5 -51.2Q0.2 -50.6 -1.1 -50.6L-4.4 -50.7L-5.05 -50.75L-5.55 -51.05L-5.7 -51.35L-5.7 -51.65L-6 -52.35L-6.1 -52.75Q-6.1 -53.35 -5.6 -53.5L-1.4 -53.25Q0.05 -53.1 0.4 -52.65L0.55 -51.95L0.55 -51.8M9.5,-53Q9.5 -53.55 11 -53.5Q12.45 -53.35 12.45 -51.9L12.45 -51.65Q12.4 -51.05 12.05 -50.85Q10.4 -50.4 9.8 -51.65L9.75 -51.8Q9.5 -52.3 9.5 -53M14,-51.65L13.9 -52.5L14.1 -53.05L14.85 -53.2L16.3 -52.9Q17.75 -52.45 17.75 -51.45L17.75 -51.4Q17.75 -50.5 17.05 -50.5Q14.7 -50.5 14.1 -51.35L14 -51.65M-15.7,-53.05Q-15.1 -52.95 -15.1 -52.05Q-15.1 -51.05 -15.65 -51.05Q-16.3 -51.05 -16.3 -51.95Q-16.3 -53.2 -15.7 -53.05M-2.55,-52.9L-2.15 -52.85L-2.15 -52.9L-2.55 -52.9M-4.8,-51.25L-5.25 -51.6L-4.9 -51.25L-4.8 -51.25" />
<path style="fill:#595980;fill-opacity:1" d="M33.2,-82.4L34.95 -82.5Q37.45 -82.25 37.6 -80.7L37.6 -80.5Q37.6 -79.6 36.7 -79.35L36 -81.6Q35.5 -82.15 33.2 -82.4M40.9,-78.6Q41.2 -79.2 42.3 -79.4Q45.1 -79.7 45.1 -77.55L44.6 -76.3Q43.95 -75.25 43 -75.25Q41.5 -75.25 40.95 -76.35L40.7 -77.55L40.9 -78.6M42.1,-76.65Q42.35 -76.1 43 -76.1Q43.5 -76.1 43.75 -76.55L43.9 -77.15Q43.9 -78 42.95 -78.05Q41.9 -78.1 41.9 -77.2L42.1 -76.65" />
<path style="fill:#3D3D5F;fill-opacity:1" d="M41.9,-77.2Q41.9 -78.1 42.95 -78.05Q43.9 -78 43.9 -77.15L43.75 -76.55Q43.5 -76.1 43 -76.1Q42.35 -76.1 42.1 -76.65L41.9 -77.2" />
<path style="fill:#6E6E98;fill-opacity:1" d="M21.65,-71.55L21.5 -72.1L21.35 -73Q21.2 -73.95 21.15 -76.75L21.7 -76.2Q22.55 -75.35 23.3 -75.25L22.75 -74.15L21.65 -71.55M48.85,-73.9L48.95 -76L51.4 -76.25L51.65 -76.2L51.55 -74.15Q51.5 -73.6 50.45 -73.2L48.7 -73.05L48.7 -73.15L48.85 -73.9M37.45,-75.45L39.55 -75.1L43.8 -74.5L45.15 -74.45L46.6 -74.75L46.45 -73.6L45.9 -72.1Q45.15 -71.1 43.7 -70.8L38.45 -70.1L37.75 -73.6L37.45 -75.45M-35.25,-45.5L-42.95 -45.5L-42.9 -46.15L-35.4 -46.6L-31.9 -46.75L-29.25 -46.8L-24.3 -46.35L-23.8 -46.3L-20.85 -45.95L-20.8 -48.05L-20.8 -48.6Q-20.65 -50.8 -19.95 -51.45L-17.3 -51.4L-17.45 -50.6L-17.5 -50.6L-17.5 -50.2L-17.5 -49.5L-17.6 -48.95L-17.75 -47.35L-17.7 -45.95L-17.5 -45.6L-17.45 -45.55Q-16.7 -44.5 -15.6 -44.5Q-14.95 -44.5 -14.7 -45.55L-14.6 -46.5L-14.6 -49.55L-14.4 -53.75L-12.2 -53.8L-12.1 -53.8L-12.1 -46.4Q-12.1 -41.6 -12.25 -39.65L-12.35 -36.3L-12.35 -36.05L-12.55 -36.05L-13.05 -36.05Q-14.75 -36.05 -15.75 -36.65Q-16.9 -37.3 -17.3 -38.55L-17.5 -39.55L-17.5 -39.45Q-20.05 -38.55 -20.65 -41L-20.8 -43.1L-20.85 -45.25L-20.85 -45.55L-20.95 -45.55L-24.35 -45.55L-35.25 -45.5M-33.55,-48.75L-35.5 -48.5L-37.55 -48.3L-37.6 -54.05L-40.35 -53Q-41.05 -53 -42.25 -55L-40.75 -55.65L-40.45 -57.3L-40.35 -57.6L-36.5 -58.75L-33.85 -59.6L-33.65 -59.15L-31.7 -60.1L-31.6 -60.4L-27.2 -61.85L-25.6 -62.3Q-23.7 -62.3 -22.75 -60.95L-22.45 -60.5L-26.5 -58.6L-26.6 -58.6L-26.65 -58.55L-27.2 -58.15L-28.35 -56.6L-28.8 -55.6L-31.45 -53.9L-33.15 -51.95L-33.45 -50.75Q-33.45 -50 -32.85 -49.15L-32.6 -48.85L-33.55 -48.75M8.85,-35.95L8.7 -35.95Q8.5 -39.5 8.7 -43.9L8.75 -45.05L8.75 -45.25L9.25 -45.3L12.2 -45.5L13.25 -45.45L16.5 -45.25L18.9 -45L18.9 -41L18.9 -39.65Q19.25 -36.8 16.55 -35.9L13.25 -36L10.35 -36.05L9.15 -35.95L9 -35.95L8.85 -35.95M-6.85,-36.15L-7.05 -36.15L-6.9 -41.9L-6.8 -45.25L-3 -45.15L-2.45 -45.15Q-0.25 -45.15 0.65 -46.45Q1.2 -47.25 1.25 -48.6L1.25 -49.7L1.2 -51.85L1.15 -52.1L1.25 -54.05L1.25 -54.15L3.15 -54.15L3.1 -48L3.15 -41.15L3.3 -36L1.65 -36.05L-6.35 -36.15L-6.5 -36.15L-6.85 -36.05L-6.85 -36.15M8.7,-54.3L8.7 -54.4L8.95 -54.4L8.7 -54.3" />
<path style="fill:#FF6600;fill-opacity:1" d="M21.1,-79.9L21.15 -76.75Q21.2 -73.95 21.35 -73L21.5 -72.1L19.95 -72.05Q18.85 -72.05 18.5 -72.75Q18.25 -73.3 18.25 -74.85L17.85 -79.4L17.85 -79.7L19.65 -80.05L20.8 -79.95L21.1 -79.9M48.7,-73.15Q48.25 -71.75 47.1 -71.75Q46.1 -71.75 45.9 -72.1L46.45 -73.6L46.6 -74.75L46.65 -74.8L47.6 -75.4Q48.2 -75.95 48.65 -76L48.95 -76L48.85 -73.9L48.7 -73.15" />
<path style="fill:#F3B288;fill-opacity:1" d="M11.05,-79.6L10.25 -82.15Q9.6 -83.35 8.1 -83.75L4.05 -84.25L-0.5 -84.6L-7.6 -83.75Q-8.25 -83.75 -9.15 -84.15Q-8.65 -85.6 -7.65 -86.15L-1.9 -86.7L-0.55 -86.7L2.1 -86.4L2.8 -86.3Q5.2 -85.95 8.1 -86.2Q11.15 -86.45 12.5 -84Q13.45 -82.3 13.45 -80.1Q13.45 -77.9 13.1 -77.7L11.85 -77.55L11.05 -79.6M34.2,-61.55Q35.25 -62.3 36.55 -62.75L38.05 -63.25L39.75 -63.65L42.95 -64.15L48.15 -64.55L53.05 -64.9Q54.9 -64.9 54.95 -64Q55.2 -61.4 55.35 -60.95L55.35 -59.25L54.35 -58.85L53.55 -61.2Q52.95 -62.65 51.5 -62.65L40.1 -61.65L39.6 -61.6L36.75 -61.4L33.8 -61.35L34.2 -61.55M-34.9,-45.25L-24.35 -45.45L-20.95 -45.55L-20.85 -45.55L-20.85 -45.25L-20.8 -43.1L-24.4 -43.05L-29.9 -42.9L-42.65 -42.5L-45.55 -42.75L-47.9 -42.95L-50.5 -43.15L-50.25 -45.1L-35.2 -45.25L-34.9 -45.25M8.75,-45.25L8.75 -45.05L8.7 -43.9Q8.5 -39.5 8.7 -35.95L8.7 -35.9L8.7 -35.85L7.1 -35.85L7.1 -35.95L6.75 -41.05L6.85 -44.55L6.85 -49.2L6.75 -52.05Q6.6 -53.5 5.8 -54.25L3.3 -55L3.25 -55L3.3 -56.15L8.65 -55.9L8.7 -54.55L8.7 -54.4L8.7 -54.3L8.75 -45.25M18.85,-51.3L18.85 -51.4L21.4 -51.55Q23.75 -51.8 25.4 -52.55L25.35 -51.35L25.35 -50.75Q25 -49.3 22.75 -49.3L18.9 -49.5L18.85 -51.3M-6.7,-54.1L-6.8 -48.9L-6.8 -48.65L-6.8 -48.2L-6.8 -47.45L-6.8 -45.25L-6.9 -41.9L-7.05 -36.15L-8.7 -36.25L-9.05 -39.05L-8.85 -43.6L-8.75 -48.8L-8.8 -52.35Q-9 -53.55 -9.5 -53.95L-10.15 -54.15L-11.15 -54L-12.1 -54.15L-12.1 -55.05L-12.1 -55.35L-9.3 -55.5L-6.8 -55.6L-6.7 -54.1" />
<path style="fill:#8D8DB1;fill-opacity:1" d="M33.8,-61.35L32.95 -60.75L32.8 -60.55L24.9 -60.75L20.15 -61.05L17.8 -61.15L19.75 -66.4L20.95 -69.8L20.85 -68.75Q20.85 -65.25 21.9 -63.95Q22.7 -62.95 24.7 -62.95L27.35 -63.4L29.05 -63.85Q29.9 -63.85 31 -62.65Q32.05 -61.5 33.35 -61.5L34.2 -61.55L33.8 -61.35M18.9,-45L18.9 -45.9L27.75 -46.7Q29.9 -47.2 32 -49.65L34.85 -53.45Q37.9 -56.8 44.25 -58.35L50.05 -58.55L51.1 -58.5L50.4 -56.55Q47.7 -56.4 46.35 -55.65L43.5 -54.25L41.85 -53.1L40.9 -53.25L40.65 -53.2L40.15 -52.8L39.5 -52.2L39.25 -51.9L39.05 -51.65Q38.45 -50.7 38.35 -49.7L35.6 -47Q32.65 -44.15 30.2 -42.9Q27.5 -41.55 22.6 -41.5L18.9 -41L18.9 -45M-15.75,-36.65L-16.95 -36.75L-22.6 -36.05L-27.95 -35.4L-33 -35.6L-40.05 -36.15L-46.45 -36.15L-47.15 -38.75L-45.1 -38.8Q-43.05 -39 -39 -38.85L-35.15 -38.6L-24.6 -38.95L-18.55 -38.65L-17.3 -38.55Q-16.9 -37.3 -15.75 -36.65M-8.15,-69.3L-8.05 -73.45L-8.15 -78.3L-5.1 -78.1Q-2.7 -78 0.35 -78.05L0.3 -74.9L0.3 -73.75Q-0.6 -74.1 -1.5 -74.8Q-2.35 -75.5 -3.75 -75.5Q-5 -75.5 -5.8 -75Q-6.65 -74.45 -6.65 -73.45Q-6.65 -72.3 -5.95 -71.9L-3.9 -71.05L-3.4 -69.55L-5.6 -69.65L-8.15 -69.3M8.7,-35.95L8.85 -35.95L9 -35.95L8.7 -35.9L8.7 -35.95M3.3,-35.8L1.65 -36.05L3.3 -36L3.3 -35.85L3.3 -35.8M-6.85,-36.05L-6.5 -36.15L-6.35 -36.15L-7.05 -35.9L-7.05 -36.15L-6.85 -36.15L-6.85 -36.05M-12.35,-36L-12.55 -36.05L-12.35 -36.05L-12.35 -36" />
<path style="fill:#676783;fill-opacity:1" d="M38.35,-49.7Q38.45 -50.7 39.05 -51.65L39.25 -51.9L39.5 -52.2L40.15 -52.8L40.65 -53.2L40.9 -53.25L41.85 -53.1L42.2 -52.9Q42.55 -52.5 42.55 -51.3Q42.55 -50 42 -48.9Q41.2 -47.4 39.65 -47.4Q39.05 -47.4 38.65 -47.8Q38.25 -48.25 38.25 -48.9L38.35 -49.7" />
<path style="fill:#C3C3E2;fill-opacity:1" d="M-5.6,-69.65L-3.4 -69.55L-3.9 -71.05L-5.95 -71.9Q-6.65 -72.3 -6.65 -73.45Q-6.65 -74.45 -5.8 -75Q-5 -75.5 -3.75 -75.5Q-2.35 -75.5 -1.5 -74.8Q-0.6 -74.1 0.3 -73.75L0.3 -73.65L0.1 -72.55L4.4 -71.95Q7.45 -71.65 9.1 -72L11.75 -72.35L11.95 -68.6Q13.85 -68.05 13.85 -65.35L13.65 -61.1Q12.35 -60.85 11.35 -59.9L11.15 -60.8Q10.9 -62.55 10.9 -64.75Q10.4 -65.85 8.9 -66.8Q7.4 -67.8 6.25 -67.8L0.45 -68.3L-3.15 -68.65L-5 -68.75L-7.5 -68.45Q-8.3 -68.45 -8.85 -68.75L-8.95 -68.8L-8.85 -68.9L-8.25 -69.25L-8.15 -69.3L-5.6 -69.65M34.2,-61.55L33.35 -61.5Q32.05 -61.5 31 -62.65Q29.9 -63.85 29.05 -63.85L27.35 -63.4L24.7 -62.95Q22.7 -62.95 21.9 -63.95Q20.85 -65.25 20.85 -68.75L20.95 -69.8L21.65 -71.55L22.75 -74.15L23.3 -75.25L24.2 -77.35L24.5 -78.15L25.4 -80.75L26.4 -80.45L28.85 -80.6L31.15 -80.85L32.3 -80.7Q33.5 -80.4 34.2 -79.35L34.45 -78.85L35.2 -75.65L35.4 -74.4L35.4 -73.75L35.5 -72.85L35.55 -72.3L35.65 -71.3L35.8 -69.75L36.55 -62.75Q35.25 -62.3 34.2 -61.55M-44.45,-29.75L-44.45 -29.65L-44.5 -29.75L-46.45 -36.15L-40.05 -36.15L-33 -35.6L-27.95 -35.4L-22.6 -36.05L-16.95 -36.75L-15.75 -36.65Q-14.75 -36.05 -13.05 -36.05L-12.55 -36.05L-12.35 -36L-12.35 -31.6L-11.55 -31.6L-9.6 -31.55L-7.1 -31.6L-7.05 -35.9L-6.35 -36.15L1.65 -36.05L3.3 -35.8Q3.2 -34.45 3.4 -32.15L8.6 -32.25L8.7 -35.85L8.7 -35.9L9 -35.95L9.15 -35.95L10.35 -36.05L13.25 -36L16.55 -35.9Q19.25 -36.8 18.9 -39.65L18.9 -41L22.6 -41.5Q27.5 -41.55 30.2 -42.9Q32.65 -44.15 35.6 -47L38.35 -49.7L38.25 -48.9Q38.25 -48.25 38.65 -47.8Q39.05 -47.4 39.65 -47.4Q41.2 -47.4 42 -48.9Q42.55 -50 42.55 -51.3Q42.55 -52.5 42.2 -52.9L41.85 -53.1L43.5 -54.25L46.35 -55.65Q47.7 -56.4 50.4 -56.55L49.1 -53.7L46.5 -48.9L44.05 -43.3Q42.45 -39.8 39.95 -37.1L38.75 -35.2Q1.45 -28.7 -44.45 -29.75M33.4,-75.45L33.45 -76.2Q33.45 -77.6 32.55 -78.45Q31.75 -79.2 30.5 -79.2L29.3 -78.9L29.3 -78.95L28.4 -78.25L28.35 -78.2L28.25 -78.15L28.2 -78.1L28 -77.85L27.95 -77.8L27.65 -77.25L27.6 -77.25L27.5 -77.25Q26.7 -77.2 25.95 -76.35L25.6 -75.7Q25.3 -75.25 25.25 -74.65L25.2 -74.3Q25.2 -72.55 26.85 -71.55Q28.1 -70.8 29.5 -70.8Q30.6 -70.8 31.95 -71.5L32.1 -71.6Q33.3 -72.35 33.3 -73.2L33.15 -73.9L33.1 -73.95L32.8 -74.2L33.4 -75.45" />
<path style="fill:#DE7D3D;fill-opacity:1" d="M11.85,-77.55L11.65 -77.55L10.1 -77.6L5.75 -77.85L0.35 -78.05Q-2.7 -78 -5.1 -78.1L-8.15 -78.3Q-9.65 -78.45 -9.65 -78.75L-9.65 -79.75Q-9.7 -82.55 -9.15 -84.15Q-8.25 -83.75 -7.6 -83.75L-0.5 -84.6L4.05 -84.25L8.1 -83.75Q9.6 -83.35 10.25 -82.15L11.05 -79.6L11.85 -77.55M18.9,-49.5L22.75 -49.3Q25 -49.3 25.35 -50.75L25.35 -51.35L25.4 -52.55L26.4 -53.05Q28.4 -54.25 30.2 -57L30.85 -58.05L32.8 -60.55L32.95 -60.75L33.8 -61.35L36.75 -61.4L39.6 -61.6L40.1 -61.65L51.5 -62.65Q52.95 -62.65 53.55 -61.2L54.35 -58.85L51.1 -58.5L50.05 -58.55L44.25 -58.35Q37.9 -56.8 34.85 -53.45L32 -49.65Q29.9 -47.2 27.75 -46.7L18.9 -45.9L18.9 -49.5M-20.65,-41Q-20.05 -38.55 -17.5 -39.45L-17.5 -39.55L-17.3 -38.55L-18.55 -38.65L-24.6 -38.95L-35.15 -38.6L-39 -38.85Q-43.05 -39 -45.1 -38.8L-47.15 -38.75Q-48.75 -38.95 -49.65 -39.8Q-50.9 -41 -50.6 -43.2L-50.25 -45.1L-50.5 -43.15L-47.9 -42.95L-45.55 -42.75L-42.65 -42.5L-29.9 -42.9L-24.4 -43.05L-20.8 -43.1L-20.65 -41M3.3,-35.85L3.3 -36L3.15 -41.15L3.1 -48L3.15 -54.15L3.15 -54.4L3.25 -55L3.3 -55L5.8 -54.25Q6.6 -53.5 6.75 -52.05L6.85 -49.2L6.85 -44.55L6.75 -41.05L7.1 -35.95L7.1 -35.85L3.3 -35.85M-9.2,-36.2L-12.35 -36.3L-12.25 -39.65Q-12.1 -41.6 -12.1 -46.4L-12.1 -53.8L-12.1 -53.9L-12.1 -54L-12.1 -54.15L-11.15 -54L-10.15 -54.15L-9.5 -53.95Q-9 -53.55 -8.8 -52.35L-8.75 -48.8L-8.85 -43.6L-9.05 -39.05L-8.7 -36.25L-9.2 -36.2" />
<path style="fill:#ECECF7;fill-opacity:1" d="M19.45,-58.5L13.35 -58.95L12.55 -58.95L10.25 -58.7L10.8 -59.45L11.35 -59.9Q12.35 -60.85 13.65 -61.1L14.4 -61.2L17.8 -61.15L20.15 -61.05L24.9 -60.75L32.8 -60.55L30.85 -58.05L19.45 -58.5M37.75,-73.6L38.45 -70.1L39.75 -63.65L38.05 -63.25L36.55 -62.75L35.8 -69.75L35.65 -71.3L35.55 -72.3L35.5 -72.85L35.4 -73.75L35.4 -74.4L35.2 -75.65L34.45 -78.85L34.2 -79.35Q33.5 -80.4 32.3 -80.7L31.15 -80.85L28.85 -80.6L26.4 -80.45L25.4 -80.75L25.45 -80.9L25.5 -81.05Q26.25 -82.5 29.9 -82.5L33.2 -82.4Q35.5 -82.15 36 -81.6L36.7 -79.35L37.45 -75.45L37.75 -73.6" />
<path style="fill:#FF9B58;fill-opacity:1" d="M20.8,-79.95L19.65 -80.05L17.85 -79.7Q17.95 -80.95 18.5 -81.5Q19.05 -82 20.5 -82L20.95 -81.85L21.2 -81.9L21.1 -80.75L21.1 -79.9L20.8 -79.95" />
<path style="fill:#A9A9CB;fill-opacity:1" d="M27.6,-77.05L27.45 -76.2L27.45 -75.95Q27.5 -75.4 27.7 -74.95L27.8 -74.8L28.55 -74Q29.35 -73.5 30.5 -73.5L32.2 -73.8L32.8 -74.2L33.1 -73.95L33.15 -73.9L33.3 -73.2Q33.3 -72.35 32.1 -71.6L31.95 -71.5Q30.6 -70.8 29.5 -70.8Q28.1 -70.8 26.85 -71.55Q25.2 -72.55 25.2 -74.3L25.25 -74.65Q25.3 -75.25 25.6 -75.7L25.95 -76.35Q26.7 -77.2 27.5 -77.25L27.6 -77.25L27.65 -77.25L27.6 -77.05" />
<path style="fill:#A4A4CD;fill-opacity:1" d="M29.3,-78.9L30.5 -79.2Q31.75 -79.2 32.55 -78.45Q33.45 -77.6 33.45 -76.2L33.4 -75.45L32.8 -74.2L32.2 -73.8Q32.05 -74.3 32.05 -74.85L32.05 -75.15L32.05 -75.25Q31.85 -77.75 30.2 -77.75L28.9 -77.55L28.7 -77.55L27.95 -77.8L28 -77.85L28.2 -78.1L28.25 -78.15L28.35 -78.2L28.4 -78.25L29.3 -78.9" />
<path style="fill:#8080AD;fill-opacity:1" d="M32.2,-73.8L30.5 -73.5Q29.35 -73.5 28.55 -74L27.8 -74.8L27.7 -74.95Q27.5 -75.4 27.45 -75.95L27.45 -76.2L27.6 -77.05L27.65 -77.25L27.95 -77.8L28.7 -77.55L28.9 -77.55L30.2 -77.75Q31.85 -77.75 32.05 -75.25L32.05 -75.15L32.05 -74.85Q32.05 -74.3 32.2 -73.8" />
<path style="fill:#393943;fill-opacity:1" d="M5.75,-77.85L10.1 -77.6L11.65 -77.55Q11.55 -74.85 11.7 -72.65L11.75 -72.35L9.1 -72Q7.45 -71.65 4.4 -71.95L0.1 -72.55L0.3 -73.65L0.3 -73.75L0.3 -74.9L0.35 -78.05L5.75 -77.85M1.9,-62.95L1.05 -62.95Q-0.8 -62.95 -0.55 -63.25L-0.4 -65.05Q-0.1 -66.3 0.95 -66.3Q1.65 -66.3 2 -65.2L2.25 -63.55Q2.25 -63.05 1.9 -62.95M-6.45,-65.5Q-6.2 -66.7 -4.95 -66.7Q-4.1 -66.7 -3.75 -66.25L-3.15 -64.45L-3.15 -63.3L-6.6 -63.45L-6.45 -65.5" />
<path style="fill:#A9A9C9;fill-opacity:1" d="M-24.35,-45.55L-24.35 -45.45L-34.9 -45.25L-35.2 -45.25L-35.25 -45.5L-24.35 -45.55M-35.5,-71.85L-36.45 -72.5L-37.7 -72L-37.9 -75.4L-37.9 -75.6L-37.5 -75.5L-22.9 -79.45Q-21.55 -79.45 -20.3 -76.5L-35.5 -71.85M-6.8,-55.6L-9.3 -55.5L-12.1 -55.35L-12.1 -55.05L-12.1 -54.15L-12.1 -54L-13.3 -54.65Q-15.2 -55.75 -16.8 -55.35Q-19.2 -54.8 -20.9 -57.9L-21.75 -60.1L-20.05 -59.9L-17 -60.2L-14.55 -60.1L-12 -59.9L-10.3 -59.9Q-9.75 -60 -9.75 -61.1Q-9.75 -62 -10.2 -62.5L-10.3 -62.7L-10 -63L-10 -65.6Q-10 -67.95 -8.95 -68.8L-8.85 -68.75Q-8.3 -68.45 -7.5 -68.45L-5 -68.75L-3.15 -68.65L0.45 -68.3L6.25 -67.8Q7.4 -67.8 8.9 -66.8Q10.4 -65.85 10.9 -64.75Q10.9 -62.55 11.15 -60.8L11.35 -59.9L10.8 -59.45L10.25 -58.7Q9.45 -57.6 9.1 -56.1L8.7 -54.55L8.65 -55.9L3.3 -56.15L3.25 -55L3.15 -54.4L3.15 -54.15L1.25 -54.15Q-3.3 -54.35 -6.5 -54.1L-6.7 -54.1L-6.8 -55.6M2.25,-63.55L2 -65.2Q1.65 -66.3 0.95 -66.3Q-0.1 -66.3 -0.4 -65.05L-0.55 -63.25Q-0.8 -62.95 1.05 -62.95L1.9 -62.95Q2.25 -63.05 2.25 -63.55M-19.2,-73.35L-18.2 -70.2L-16.4 -64.15L-15.8 -62.65L-16.85 -62.7Q-20.35 -62.7 -21.45 -61.6L-22.9 -64.45L-24.05 -66.55Q-21.75 -68 -21 -70.7L-20.85 -71.55L-22.4 -72.35L-19.2 -73.35M-24.6,-49.1L-25.2 -49.15L-27.65 -51.05L-28.4 -51.95Q-29.1 -52.9 -29.1 -54.05L-28.8 -55.6L-28.35 -56.6L-27.2 -58.15L-26.65 -58.55L-26.6 -58.6L-26.5 -58.6L-22.45 -60.5L-21.9 -60.8L-22.1 -60.4Q-22.65 -58.9 -23.25 -55.45L-24 -49.45L-24.05 -49.05L-24.6 -49.1M-6.6,-63.45L-3.15 -63.3L-3.15 -64.45L-3.75 -66.25Q-4.1 -66.7 -4.95 -66.7Q-6.2 -66.7 -6.45 -65.5L-6.6 -63.45" />
<path style="fill:#9E9EBF;fill-opacity:1" d="M30.85,-58.05L30.2 -57Q28.4 -54.25 26.4 -53.05L25.4 -52.55Q23.75 -51.8 21.4 -51.55L18.85 -51.4Q18.5 -53.8 16 -54.6L13.2 -54.45L10.05 -54.4L8.95 -54.4L8.7 -54.4L8.7 -54.55L9.1 -56.1Q9.45 -57.6 10.25 -58.7L12.55 -58.95L13.35 -58.95L19.45 -58.5L30.85 -58.05" />
<path style="fill:#C65E5E;fill-opacity:1" d="M36.8,-32.55Q33.2 -28.1 28.75 -25.45Q22.3 -21.5 14.45 -21.5L4.8 -21.3L-2.5 -21.15L-12.35 -21.15Q-32.9 -21.5 -38 -22.8Q-41.35 -23.65 -43.5 -27.65Q4.3 -26.15 36.8 -32.55" />
<path style="fill:#E8E8F3;fill-opacity:1" d="M-43.5,-27.65L-44.45 -29.65L-44.45 -29.75Q1.45 -28.7 38.75 -35.2L36.8 -32.55Q4.3 -26.15 -43.5 -27.65" />
<path style="fill:#B86128;fill-opacity:1" d="M7.1,-35.85L8.7 -35.85L8.6 -32.25L3.4 -32.15Q3.2 -34.45 3.3 -35.8L3.3 -35.85L7.1 -35.85M-12.35,-36.05L-12.35 -36.3L-9.2 -36.2L-8.7 -36.25L-7.05 -36.15L-7.05 -35.9L-7.1 -31.6L-9.6 -31.55L-11.55 -31.6L-12.35 -31.6L-12.35 -36L-12.35 -36.05" />
<path style="fill:#C5C5E0;fill-opacity:1" d="M-20.3,-76.5Q-21.55 -79.45 -22.9 -79.45L-37.5 -75.5L-37.9 -75.6Q-37.8 -77.95 -35.65 -78.6Q-32.45 -79.1 -30.45 -80Q-22.35 -81.95 -21.1 -81.95Q-20.1 -81.95 -18.2 -77.2L-18.5 -77.05L-20.3 -76.5M-10.2,-62.5Q-9.75 -62 -9.75 -61.1Q-9.75 -60 -10.3 -59.9L-12 -59.9L-14.55 -60.1L-17 -60.2L-20.05 -59.9L-21.75 -60.1L-21.85 -60.9L-21.4 -61.35L-21.45 -61.6Q-20.35 -62.7 -16.85 -62.7L-15.8 -62.65L-16.4 -64.15L-18.2 -70.2L-19.2 -73.35L-17.3 -73.95L-17.05 -74.05Q-15.5 -69.55 -13.5 -62.45L-12.2 -62.4Q-10.85 -62.4 -10.3 -62.7L-10.2 -62.5" />
<path style="fill:#8282AD;fill-opacity:1" d="M-17.3,-73.95L-19.2 -73.35L-22.4 -72.35Q-25.05 -73.55 -27.65 -72.7L-27.65 -72.8L-27.8 -72.75L-33.5 -70.45L-35.5 -71.85L-20.3 -76.5L-18.5 -77.05L-18.2 -77.2L-17.05 -74.05L-17.3 -73.95" />
<path style="fill:#C23030;fill-opacity:1" d="M-45,-58.2Q-44.35 -57.1 -43.7 -56.55L-43 -56.15L-42.9 -56.15L-42.15 -56.45L-40.45 -57.3L-40.75 -55.65L-42.25 -55L-44.35 -54.05L-46.05 -58.5L-45.4 -58.8L-45 -58.2M-44.9,-65.8L-46.1 -66.95L-47.2 -67.05L-48.65 -66.3L-48.95 -66.2L-49.45 -67.35L-46.3 -68.7L-43.45 -66.4L-44.9 -65.8M-33.5,-70.45L-34.9 -69.9L-36.3 -70.95L-36.9 -71.1L-37.65 -71.1L-38.35 -70.8L-38.6 -71.6L-37.7 -72L-36.45 -72.5L-35.5 -71.85L-33.5 -70.45M-22.95,-71.15Q-23.1 -71.55 -23.75 -72L-23.85 -72.05L-25.55 -72.2Q-26.1 -72.05 -25.85 -71.5L-25.75 -71.4Q-24.1 -69.95 -23.2 -70.35Q-22.75 -70.55 -22.95 -71.15M-27.65,-72.7Q-25.05 -73.55 -22.4 -72.35L-20.85 -71.55L-21 -70.7L-21.55 -70.2Q-22.15 -69.65 -22.65 -69.45L-25.45 -69.5L-25.95 -69.7L-26.1 -69.75L-26.5 -69.95L-27.65 -72.7M-31.6,-60.4L-31.7 -60.1L-33.65 -59.15L-33.85 -59.6L-34.2 -60.45L-32.85 -60.8L-32.65 -61.1L-32.65 -61.8L-32.45 -63L-30.95 -63.6L-31.6 -60.4" />
<path style="fill:#F0A1A1;fill-opacity:1" d="M-23.2,-70.35Q-24.1 -69.95 -25.75 -71.4L-25.85 -71.5Q-26.1 -72.05 -25.55 -72.2L-23.85 -72.05L-23.75 -72Q-23.1 -71.55 -22.95 -71.15Q-22.75 -70.55 -23.2 -70.35" />
<path style="fill:#9C2525;fill-opacity:1" d="M-45.4,-58.8L-44.55 -59.25L-44.15 -58.25L-39.95 -59.9L-40.35 -57.6L-40.45 -57.3L-42.15 -56.45L-42.9 -56.15L-43 -56.15L-43.7 -56.55Q-44.35 -57.1 -45 -58.2L-45.4 -58.8M-45.1,-60.6L-46.75 -59.9L-47.3 -61.25L-45.65 -61.95L-41.65 -63.55L-41.5 -63.25L-41.05 -62.25L-45.1 -60.6M-46.9,-65L-46.1 -63L-47.55 -62.4L-48.95 -66.2L-48.65 -66.3L-47.2 -67.05L-46.1 -66.95L-44.9 -65.8L-46.9 -65M-34.9,-69.9L-37.7 -68.7L-38.35 -70.8L-37.65 -71.1L-36.9 -71.1L-36.3 -70.95L-34.9 -69.9M-24.05,-66.55L-24.9 -66.05L-26.3 -69.5L-26.5 -69.95L-26.1 -69.75L-25.95 -69.7L-25.45 -69.5L-22.65 -69.45Q-22.15 -69.65 -21.55 -70.2L-21 -70.7Q-21.75 -68 -24.05 -66.55M-34.95,-62L-32.45 -63L-32.65 -61.8L-32.65 -61.1L-32.85 -60.8L-34.2 -60.45L-34.95 -62" />
<path style="fill:#BFBFC2;fill-opacity:1" d="M-41.65,-63.55L-45.65 -61.95L-46.1 -63L-46.9 -65L-44.9 -65.8L-43.45 -66.4L-37.7 -68.7L-34.9 -69.9L-33.5 -70.45L-27.8 -72.75L-27.65 -72.8L-27.65 -72.7L-26.5 -69.95L-26.3 -69.5L-28.1 -68.05L-29.35 -67L-30.3 -66.6L-35.35 -65.05L-37.05 -64.45L-38.1 -64.15L-39.4 -64L-40.45 -63.8L-41.5 -63.25L-41.65 -63.55" />
<path style="fill:#A2A2A3;fill-opacity:1" d="M-41.05,-62.25L-41.5 -63.25L-40.45 -63.8L-39.4 -64L-38.1 -64.15L-37.05 -64.45L-35.35 -65.05L-30.3 -66.6L-29.35 -67L-28.1 -68.05L-26.3 -69.5L-24.9 -66.05L-30.95 -63.6L-32.45 -63L-34.95 -62L-39.95 -59.9L-44.15 -58.25L-44.55 -59.25L-45.1 -60.6L-41.05 -62.25" />
<path style="fill:#8686AA;fill-opacity:1" d="M-21.75,-60.1L-20.9 -57.9Q-19.2 -54.8 -16.8 -55.35Q-15.2 -55.75 -13.3 -54.65L-12.1 -54L-12.1 -53.9L-12.1 -53.8L-12.2 -53.8L-14.4 -53.75L-15.7 -53.75Q-17 -53.5 -17.3 -51.4L-19.95 -51.45Q-20.65 -50.8 -20.8 -48.6L-20.8 -48.05Q-22 -48.8 -24.05 -49.05L-24 -49.45L-23.25 -55.45Q-22.65 -58.9 -22.1 -60.4L-21.9 -60.8L-21.85 -60.9L-21.75 -60.1M-17.45,-50.6L-17.5 -50.2L-17.5 -50.6L-17.45 -50.6M-20.95,-45.55L-24.35 -45.45L-24.35 -45.55L-20.95 -45.55" />
<path style="fill:none;stroke-width:1;stroke-linecap:butt;stroke-linejoin:miter;stroke-miterlimit:3;stroke:#585454;stroke-opacity:1" d="M-0.55,-86.7L-0.55 -90.35L-2.7 -90.65L-3.3 -90.7L-3.75 -90.75L-6.05 -91Q-6.5 -91 -6.4 -93.15L-6.35 -96.35L-5.1 -96.75L-5.05 -96.75L-3.5 -97.2L-0.55 -97.5Q0 -97.6 0 -98.5L-0.05 -100Q0.25 -100.6 1 -100.7L2.25 -100.7Q2.45 -100 2.1 -97.85Q4.45 -97.5 8.15 -95.65L11.5 -93.7L12.2 -92.8Q12.2 -90.6 11.65 -89.85Q11.25 -89.35 10.3 -89.35L9.85 -89.4L8 -89.7L6.75 -89.9Q4.45 -90.2 2.25 -89.9L2.1 -86.4M11.65,-77.55Q11.55 -74.85 11.7 -72.65L11.75 -72.35L11.95 -68.6Q13.85 -68.05 13.85 -65.35L13.65 -61.1L14.4 -61.2L17.8 -61.15L19.75 -66.4L20.95 -69.8L21.65 -71.55L21.5 -72.1M21.1,-79.9L21.1 -80.75L21.2 -81.9Q21.55 -85.45 24.25 -85.2L35.3 -84.55L43.9 -84.25L45.1 -84.25L46.25 -82.75L46.3 -82.7L46.7 -82.75M48.85,-80.9L50 -80.9Q51.4 -80.6 51.55 -80.3L51.7 -78.65L51.65 -76.2L51.55 -74.15Q51.5 -73.6 50.45 -73.2L48.7 -73.05L48.7 -73.15M46.3,-82.7L46.35 -82.6L46.65 -81.05L46.65 -80.3L46.65 -78.8L46.6 -74.75L46.45 -73.6L45.9 -72.1Q45.15 -71.1 43.7 -70.8L38.45 -70.1L39.75 -63.65M51.1,-58.5L50.4 -56.55L49.1 -53.7L46.5 -48.9L44.05 -43.3Q42.45 -39.8 39.95 -37.1L38.75 -35.2L36.8 -32.55Q33.2 -28.1 28.75 -25.45Q22.3 -21.5 14.45 -21.5L4.8 -21.3L-2.5 -21.15L-12.35 -21.15Q-32.9 -21.5 -38 -22.8Q-41.35 -23.65 -43.5 -27.65L-44.45 -29.65L-44.5 -29.75L-46.45 -36.15L-47.15 -38.75M-35.2,-45.25L-35.25 -45.5L-42.95 -45.5L-42.9 -46.15Q-42.6 -47.75 -41.45 -48.1L-37.55 -48.3L-37.6 -54.05L-40.35 -53Q-41.05 -53 -42.25 -55L-44.35 -54.05L-46.05 -58.5L-45.4 -58.8L-44.55 -59.25L-45.1 -60.6L-46.75 -59.9L-47.3 -61.25L-45.65 -61.95L-46.1 -63L-47.55 -62.4L-48.95 -66.2L-49.45 -67.35L-46.3 -68.7L-43.45 -66.4L-37.7 -68.7L-38.35 -70.8L-38.6 -71.6L-37.7 -72L-37.9 -75.4L-37.9 -75.6Q-37.8 -77.95 -35.65 -78.6Q-32.45 -79.1 -30.45 -80Q-22.35 -81.95 -21.1 -81.95Q-20.1 -81.95 -18.2 -77.2L-17.05 -74.05Q-15.5 -69.55 -13.5 -62.45L-12.2 -62.4Q-10.85 -62.4 -10.3 -62.7L-10 -63L-10 -65.6Q-10 -67.95 -8.95 -68.8L-8.85 -68.9L-8.25 -69.25L-8.15 -69.3L-8.05 -73.45L-8.15 -78.3M25.45,-80.9L25.5 -81.05Q26.25 -82.5 29.9 -82.5L33.2 -82.4M36.7,-79.35L37.45 -75.45M38.35,-49.7Q38.45 -50.7 39.05 -51.65L39.25 -51.9L39.5 -52.2L40.15 -52.8L40.65 -53.2L40.9 -53.25L41.85 -53.1L42.2 -52.9Q42.55 -52.5 42.55 -51.3Q42.55 -50 42 -48.9Q41.2 -47.4 39.65 -47.4Q39.05 -47.4 38.65 -47.8Q38.25 -48.25 38.25 -48.9L38.35 -49.7M8.7,-54.4L8.95 -54.4L10.05 -54.4L13.2 -54.45L16 -54.6Q18.5 -53.8 18.85 -51.4L18.85 -51.3L18.9 -49.5L18.9 -45.9L18.9 -45L18.9 -41L18.9 -39.65Q19.25 -36.8 16.55 -35.9L13.25 -36L10.35 -36.05L9.15 -35.95M3.3,-36L1.65 -36.05L-6.35 -36.15M-12.35,-36.05L-12.55 -36.05L-13.05 -36.05Q-14.75 -36.05 -15.75 -36.65Q-16.9 -37.3 -17.3 -38.55L-17.5 -39.55L-17.55 -40.65L-17.6 -43.2L-17.6 -44.05L-17.7 -45.6L-17.7 -45.95M25.45,-80.9L25.4 -80.75M32.8,-74.2L32.2 -73.8L30.5 -73.5Q29.35 -73.5 28.55 -74L27.8 -74.8L27.7 -74.95Q27.5 -75.4 27.45 -75.95L27.45 -76.2L27.6 -77.05L27.65 -77.25L27.95 -77.8L28 -77.85L28.2 -78.1L28.25 -78.15L28.35 -78.2L28.4 -78.25L29.3 -78.95L29.3 -78.9L30.5 -79.2Q31.75 -79.2 32.55 -78.45Q33.45 -77.6 33.45 -76.2L33.4 -75.45L32.8 -74.2M23.3,-75.25L24.2 -77.35L24.5 -78.15L25.4 -80.75M21.1,-79.9L21.15 -76.75Q21.2 -73.95 21.35 -73L21.5 -72.1M28.4,-78.25L29.3 -78.9M36.7,-79.35L36 -81.6Q35.5 -82.15 33.2 -82.4M10.45,-92.55L9.35 -93.2L7.85 -93.9L7.7 -93.55L7.6 -92.75L7.5 -92.1Q7.5 -91.25 8.25 -91.2L10.15 -90.9L10.45 -92.55M2.5,-95.25L2.4 -92.85L2.45 -92.1L3 -92L5.55 -91.8L5.85 -91.8L6.15 -94.5L4.1 -95.1L2.5 -95.25M0.35,-78.05L0.3 -74.9L0.3 -73.75M0.3,-73.65L0.1 -72.55L4.4 -71.95Q7.45 -71.65 9.1 -72L11.75 -72.35M-3.4,-69.55L0.3 -69.35L5.75 -69L11.6 -68.7L11.95 -68.6M1.9,-62.95L1.05 -62.95Q-0.8 -62.95 -0.55 -63.25L-0.4 -65.05Q-0.1 -66.3 0.95 -66.3Q1.65 -66.3 2 -65.2L2.25 -63.55Q2.25 -63.05 1.9 -62.95M8.7,-54.55L9.1 -56.1Q9.45 -57.6 10.25 -58.7L10.8 -59.45L11.35 -59.9Q12.35 -60.85 13.65 -61.1M-7.05,-36.15L-6.85 -36.15L-6.5 -36.15L-6.35 -36.15M3.15,-54.15L1.25 -54.15Q-3.3 -54.35 -6.5 -54.1L-6.7 -54.1M17.8,-61.15L20.15 -61.05L24.9 -60.75L32.8 -60.55M38.45,-70.1L37.75 -73.6L37.45 -75.45M23.3,-75.25L22.75 -74.15L21.65 -71.55M13.25,-45.45L13.2 -54.45M8.7,-35.95L8.85 -35.95M13.25,-45.45L13.25 -36M-3.5,-95.4L-4.75 -95.5L-4.8 -92.45L-3.5 -92.15L-2.6 -92L-1.5 -91.85L-1.25 -91.85L-1.25 -93.25L-1.3 -94.65Q-1.35 -95.2 -2.1 -95.2L-3.5 -95.4M-3.4,-69.55L-5.6 -69.65L-8.15 -69.3M-35.5,-71.85L-20.3 -76.5L-18.5 -77.05M-21,-70.7L-20.85 -71.55L-22.4 -72.35Q-25.05 -73.55 -27.65 -72.7L-26.5 -69.95L-26.3 -69.5L-24.9 -66.05L-24.05 -66.55Q-21.75 -68 -21 -70.7M-27.8,-72.75L-27.65 -72.8L-27.65 -72.7L-27.8 -72.75L-33.5 -70.45L-34.9 -69.9L-37.7 -68.7M-24.05,-66.55L-22.9 -64.45L-21.45 -61.6Q-20.35 -62.7 -16.85 -62.7L-15.8 -62.65L-13.5 -62.45M-17.3,-73.95L-19.2 -73.35L-22.4 -72.35M-33.5,-70.45L-35.5 -71.85L-36.45 -72.5L-37.7 -72M-34.2,-60.45L-34.95 -62L-32.45 -63L-30.95 -63.6L-24.9 -66.05M-34.2,-60.45L-33.85 -59.6L-33.65 -59.15L-31.7 -60.1L-31.6 -60.4L-30.95 -63.6M-34.95,-62L-39.95 -59.9L-40.35 -57.6L-40.45 -57.3L-40.75 -55.65L-42.25 -55M-37.6,-54.05L-35.85 -54.7L-30.85 -56.8L-27.2 -58.35L-26.65 -58.55L-26.6 -58.6L-26.5 -58.6L-22.45 -60.5M-28.8,-55.6L-28.35 -56.6L-27.2 -58.15L-26.65 -58.55M-21.85,-60.9L-21.9 -60.8L-22.1 -60.4Q-22.65 -58.9 -23.25 -55.45L-24 -49.45L-24.05 -49.05Q-22 -48.8 -20.8 -48.05L-20.8 -48.6Q-20.65 -50.8 -19.95 -51.45L-17.3 -51.4Q-17 -53.5 -15.7 -53.75L-14.4 -53.75L-12.2 -53.8L-12.1 -53.8M-21.85,-60.9L-21.4 -61.35L-21.45 -61.6M-21.9,-60.8L-22.45 -60.5M-28.8,-55.6L-29.1 -54.05Q-29.1 -52.9 -28.4 -51.95L-27.65 -51.05L-25.2 -49.15L-24.6 -49.1L-24.05 -49.05M-39.95,-59.9L-44.15 -58.25L-44.55 -59.25M-6.45,-65.5Q-6.2 -66.7 -4.95 -66.7Q-4.1 -66.7 -3.75 -66.25L-3.15 -64.45L-3.15 -63.3L-6.6 -63.45L-6.45 -65.5M-17.5,-50.2L-17.5 -50.6L-17.45 -50.6L-17.5 -50.2L-17.5 -49.5L-17.6 -48.95L-17.75 -47.35L-17.7 -45.95M-17.45,-50.6L-17.3 -51.4M-46.1,-63L-46.9 -65L-44.9 -65.8L-43.45 -66.4M-45.65,-61.95L-41.65 -63.55L-41.5 -63.25L-41.05 -62.25L-45.1 -60.6M-17.5,-39.55L-17.5 -39.45Q-20.05 -38.55 -20.65 -41L-20.8 -43.1L-20.85 -45.25L-20.85 -45.55L-20.95 -45.55L-24.35 -45.55L-24.35 -45.45M-20.85,-45.55L-20.85 -45.95L-20.8 -48.05M-24.35,-45.55L-35.25 -45.5M-37.55,-48.3L-35.5 -48.5L-33.55 -48.75L-32.6 -48.85L-29.55 -49.05L-29.35 -49.05L-25.2 -49.15" />
<path style="fill:none;stroke-width:1;stroke-linecap:butt;stroke-linejoin:miter;stroke-miterlimit:3;stroke:#C65307;stroke-opacity:1" d="M21.5,-72.1L19.95 -72.05Q18.85 -72.05 18.5 -72.75Q18.25 -73.3 18.25 -74.85L17.85 -79.4L17.85 -79.7Q17.95 -80.95 18.5 -81.5Q19.05 -82 20.5 -82L20.95 -81.85M46.7,-82.75Q48.4 -82.75 48.8 -81.4L48.85 -80.9M48.95,-76L48.85 -73.9L48.7 -73.15Q48.25 -71.75 47.1 -71.75Q46.1 -71.75 45.9 -72.1M48.95,-76L48.95 -77.75L48.95 -79L48.85 -80.9" />
<path style="fill:none;stroke-width:1;stroke-linecap:butt;stroke-linejoin:miter;stroke-miterlimit:3;stroke:#91491A;stroke-opacity:1" d="M-8.15,-78.3Q-9.65 -78.45 -9.65 -78.75L-9.65 -79.75Q-9.7 -82.55 -9.15 -84.15Q-8.65 -85.6 -7.65 -86.15L-1.9 -86.7L-0.55 -86.7L2.1 -86.4L2.8 -86.3Q5.2 -85.95 8.1 -86.2Q11.15 -86.45 12.5 -84Q13.45 -82.3 13.45 -80.1Q13.45 -77.9 13.1 -77.7L11.85 -77.55L11.65 -77.55L10.1 -77.6L5.75 -77.85L0.35 -78.05Q-2.7 -78 -5.1 -78.1L-8.15 -78.3M33.8,-61.35L34.2 -61.55Q35.25 -62.3 36.55 -62.75L38.05 -63.25L39.75 -63.65L42.95 -64.15L48.15 -64.55L53.05 -64.9Q54.9 -64.9 54.95 -64Q55.2 -61.4 55.35 -60.95L55.35 -59.25L54.35 -58.85L51.1 -58.5M-17.3,-38.55L-18.55 -38.65L-24.6 -38.95L-35.15 -38.6L-39 -38.85Q-43.05 -39 -45.1 -38.8L-47.15 -38.75Q-48.75 -38.95 -49.65 -39.8Q-50.9 -41 -50.6 -43.2L-50.25 -45.1L-35.2 -45.25M8.75,-45.25L8.75 -45.05L8.7 -43.9Q8.5 -39.5 8.7 -35.95L8.7 -35.9L8.7 -35.85L8.6 -32.25L3.4 -32.15Q3.2 -34.45 3.3 -35.8L3.3 -35.85L3.3 -36L3.15 -41.15L3.1 -48L3.15 -54.15L3.15 -54.4L3.25 -55L3.3 -56.15L8.65 -55.9L8.7 -54.55L8.7 -54.4L8.7 -54.3L8.75 -45.25M-6.8,-45.25L-6.9 -41.9L-7.05 -36.15L-7.05 -35.9L-7.1 -31.6L-9.6 -31.55L-11.55 -31.6L-12.35 -31.6L-12.35 -36L-12.35 -36.05L-12.35 -36.3L-12.25 -39.65Q-12.1 -41.6 -12.1 -46.4L-12.1 -53.8L-12.1 -53.9L-12.1 -54L-12.1 -54.15L-12.1 -55.05L-12.1 -55.35L-9.3 -55.5L-6.8 -55.6L-6.7 -54.1L-6.8 -48.9L-6.8 -48.65L-6.8 -48.2L-6.8 -47.45M18.9,-45.9L27.75 -46.7Q29.9 -47.2 32 -49.65L34.85 -53.45Q37.9 -56.8 44.25 -58.35L50.05 -58.55L51.1 -58.5M33.8,-61.35L32.95 -60.75L32.8 -60.55L30.85 -58.05L30.2 -57Q28.4 -54.25 26.4 -53.05L25.4 -52.55M3.3,-35.85L7.1 -35.85L8.7 -35.85M18.85,-51.4L21.4 -51.55Q23.75 -51.8 25.4 -52.55M-12.35,-36.3L-9.2 -36.2L-8.7 -36.25L-7.05 -36.15M-20.95,-45.55L-24.35 -45.45L-34.9 -45.25L-35.2 -45.25" />
<path style="fill:#D0B154;fill-opacity:1" d="M26.15,-80.05Q27.6 -80.05 27.6 -81.45Q27.6 -83.1 25.15 -83.7Q22.65 -84.25 22.65 -82.5Q22.65 -82 23.5 -81.15Q24.65 -80.05 26.15 -80.05M34.2,-33.3Q30.3 -44.3 29.75 -58.65Q29.6 -64.35 28.25 -69.3Q27.45 -72.3 25.3 -73.3Q23.85 -74.05 21.1 -74.05Q16.15 -74.1 11.65 -77.85Q7.6 -81.25 6.05 -85.55Q5.15 -83.05 4.35 -79.05Q3.25 -73.9 3.25 -70.6Q3.25 -57.85 7.4 -35.65Q8.9 -27.6 10.4 -21.85L10.65 -21.95Q11.15 -20.55 10.95 -19.55Q10.6 -18.3 8.9 -17.85L7.85 -17.55Q6.45 -30.95 4.45 -40.7Q1.9 -53.5 1.45 -59.55Q-0.35 -86 -8.25 -94.95L-5.7 -97.6Q-0.25 -93.1 2.35 -93.1Q3.3 -93.1 6.6 -94.3L10.95 -96.05L13.35 -94.3Q20.05 -89.2 23.8 -87.15Q24.8 -86.6 31.15 -85.75Q36.05 -85.05 36.9 -82.7L39.2 -76.05Q40.55 -71.45 40.55 -68.2L39.2 -55.6Q37.85 -42.2 37.85 -37.3Q37.85 -33.45 40.25 -27.3Q42.25 -22.3 43.85 -20.75L43.85 -20.2L42.65 -19.55Q42.1 -19.15 41.55 -18.9L40.3 -18.65Q37.85 -18.65 35.95 -22.85Q35.2 -24.35 32.75 -32.05L32.55 -32.8L34.2 -33.3M18.95,-83.85Q19.55 -84.2 19.55 -84.95Q16.8 -88.6 14.1 -91.25Q8.65 -96.4 8.65 -91.3L11.7 -87.3Q15 -83.35 16.2 -83.35Q18.2 -83.35 18.95 -83.85M-17.9,-79.7Q-17.05 -78.65 -13.8 -70.7L-9.55 -60.65L-14.9 -60.05L-18.2 -60.35Q-20 -60.8 -20 -62.3L-19.4 -71.4Q-19.4 -72.55 -20 -75.6L-20.6 -78.7L-20.45 -79.15L-19.7 -79.7L-17.9 -79.7" />
<path style="fill:#B19541;fill-opacity:1" d="M27.55,-45.45Q27.2 -49.6 27.35 -55Q27.4 -57.45 26.1 -63.7Q24.65 -70.75 23.35 -70.75Q21.3 -70.75 21 -58.05Q20.85 -52.55 21.05 -45.5L21.7 -45.5L21.05 -45.4Q18.05 -45 15.75 -42.15L14.7 -40.65L13.7 -38.6Q12.4 -35.7 11.85 -32.1Q11.85 -30.05 11.35 -27.15L10.65 -21.95L10.4 -21.85Q8.9 -27.6 7.4 -35.65Q3.25 -57.85 3.25 -70.6Q3.25 -73.9 4.35 -79.05Q5.15 -83.05 6.05 -85.55Q7.6 -81.25 11.65 -77.85Q16.15 -74.1 21.1 -74.05Q23.85 -74.05 25.3 -73.3Q27.45 -72.3 28.25 -69.3Q29.6 -64.35 29.75 -58.65Q30.3 -44.3 34.2 -33.3L32.55 -32.8Q30.6 -38.55 28.8 -41.3L27.9 -42.5L27.55 -45.45M-0.9,-40.55Q-7.35 -51.75 -17.3 -51.75Q-22.2 -51.75 -26.7 -46.75Q-29.65 -43.4 -33.9 -35.65Q-38.6 -27 -40.45 -24.55Q-43.6 -20.3 -46.7 -19.65Q-35.2 -37.35 -30.65 -48.1Q-26.25 -58.55 -21.8 -80.3L-22.85 -81.8Q-22.4 -82.2 -21.8 -82.4Q-21.1 -82.75 -20.25 -82.75Q-17.9 -82.75 -13.8 -87.75Q-6.25 -76.35 -3.2 -63.3Q-0.85 -53.15 -0.9 -40.55M-19.7,-79.7L-20.45 -79.15L-20.6 -78.7L-20 -75.6Q-19.4 -72.55 -19.4 -71.4L-20 -62.3Q-20 -60.8 -18.2 -60.35L-14.9 -60.05L-9.55 -60.65L-13.8 -70.7Q-17.05 -78.65 -17.9 -79.7L-19.7 -79.7" />
<path style="fill:#987E32;fill-opacity:1" d="M27.9,-42.5Q25.35 -45.5 22 -45.5L21.7 -45.5L21.05 -45.5Q20.85 -52.55 21 -58.05Q21.3 -70.75 23.35 -70.75Q24.65 -70.75 26.1 -63.7Q27.4 -57.45 27.35 -55Q27.2 -49.6 27.55 -45.45L27.9 -42.5M-3.2,-63.3Q-6.25 -76.35 -13.8 -87.75L-11.25 -91.15L-8.25 -94.95Q-0.35 -86 1.45 -59.55Q1.9 -53.5 4.45 -40.7Q6.45 -30.95 7.85 -17.55L4.05 -17.2Q5.6 -28.35 -0.35 -39.5L-0.9 -40.55Q-0.85 -53.15 -3.2 -63.3M-21.8,-80.3Q-26.25 -58.55 -30.65 -48.1Q-35.2 -37.35 -46.7 -19.65L-47.75 -19.55L-50.05 -19.85L-53.4 -20.15L-53.4 -20.75Q-52.25 -21.25 -50.8 -22.1L-48.65 -23.15L-48.45 -23.25Q-43.05 -29.8 -38.95 -37.65Q-36.15 -43.15 -31.3 -54.7Q-28.9 -60.65 -25.95 -70.5Q-24.8 -74.25 -24.2 -79.4Q-23.75 -80.95 -22.85 -81.8L-21.8 -80.3" />
<path style="fill:#EED589;fill-opacity:1" d="M23.5,-81.15Q22.65 -82 22.65 -82.5Q22.65 -84.25 25.15 -83.7Q27.6 -83.1 27.6 -81.45Q27.6 -80.05 26.15 -80.05Q24.65 -80.05 23.5 -81.15M16.2,-83.35Q15 -83.35 11.7 -87.3L8.65 -91.3Q8.65 -96.4 14.1 -91.25Q16.8 -88.6 19.55 -84.95Q19.55 -84.2 18.95 -83.85Q18.2 -83.35 16.2 -83.35" />
<path style="fill:none;stroke-width:1;stroke-linecap:butt;stroke-linejoin:miter;stroke-miterlimit:3;stroke:#695722;stroke-opacity:1" d="M43.85,-20.2L42.65 -19.55Q42.1 -19.15 41.55 -18.9L40.3 -18.65Q37.85 -18.65 35.95 -22.85Q35.2 -24.35 32.75 -32.05L32.55 -32.8Q30.6 -38.55 28.8 -41.3L27.9 -42.5Q25.35 -45.5 22 -45.5L21.7 -45.5L21.05 -45.4Q18.05 -45 15.75 -42.15L14.7 -40.65L13.7 -38.6Q12.4 -35.7 11.85 -32.1Q11.85 -30.05 11.35 -27.15L10.65 -21.95Q11.15 -20.55 10.95 -19.55Q10.6 -18.3 8.9 -17.85L7.85 -17.55L4.05 -17.2Q5.6 -28.35 -0.35 -39.5L-0.9 -40.55Q-7.35 -51.75 -17.3 -51.75Q-22.2 -51.75 -26.7 -46.75Q-29.65 -43.4 -33.9 -35.65Q-38.6 -27 -40.45 -24.55Q-43.6 -20.3 -46.7 -19.65L-47.75 -19.55L-50.05 -19.85L-53.4 -20.15L-53.4 -20.75Q-52.25 -21.25 -50.8 -22.1L-48.65 -23.15L-48.45 -23.25Q-43.05 -29.8 -38.95 -37.65Q-36.15 -43.15 -31.3 -54.7Q-28.9 -60.65 -25.95 -70.5Q-24.8 -74.25 -24.2 -79.4Q-23.75 -80.95 -22.85 -81.8Q-22.4 -82.2 -21.8 -82.4Q-21.1 -82.75 -20.25 -82.75Q-17.9 -82.75 -13.8 -87.75L-11.25 -91.15L-8.25 -94.95L-5.7 -97.6Q-0.25 -93.1 2.35 -93.1Q3.3 -93.1 6.6 -94.3L10.95 -96.05L13.35 -94.3Q20.05 -89.2 23.8 -87.15Q24.8 -86.6 31.15 -85.75Q36.05 -85.05 36.9 -82.7L39.2 -76.05Q40.55 -71.45 40.55 -68.2L39.2 -55.6Q37.85 -42.2 37.85 -37.3Q37.85 -33.45 40.25 -27.3Q42.25 -22.3 43.85 -20.75" />
</g>
</svg>
