<?xml version="1.0" encoding="utf-8"?>
<svg version="1.1" id="Layer_1"
xmlns="http://www.w3.org/2000/svg"
xmlns:xlink="http://www.w3.org/1999/xlink"
xmlns:author="http://www.sothink.com"
width="141px" height="270px"
xml:space="preserve">
<g id="343" transform="matrix(1, 0, 0, 1, -16.45, -304.4)">
<path style="fill:#000000;fill-opacity:0.2" d="M66.5,554.5Q76.9 551.1 91.7 551.1Q106.5 551.1 116.9 554.5Q127.35 557.85 127.35 562.65Q127.35 567.45 116.9 570.8Q106.5 574.15 91.7 574.15Q76.9 574.15 66.5 570.8Q56 567.45 56 562.65Q56 557.85 66.5 554.5" />
<path style="fill:#FC850F;fill-opacity:1" d="M54.7,335.3L54.7 335.65L55.2 344.25L58.3 341.6L61.35 343.25L62.2 339.75L65.05 340.4L65.45 336.9L69.55 337.3L68.95 335.65L68.85 335.3L64.35 324.65Q58.75 312.15 56.45 312.75Q54.15 313.35 54.45 328.85L54.7 335.3M102.65,537.65L102.75 540.3Q102.8 545.85 99.75 550.65Q96.65 555.65 93.1 554.85Q89.85 554.1 88.05 550.4Q86.85 547.9 85.95 542.75Q85.35 539.4 87.9 521.25L90.6 503.75Q83 503.6 75.95 502.2Q76.4 516.45 78 526.8L78.6 530.5L75.95 538.45L78.3 541.15Q80.7 544.2 81.05 545.85Q81.25 546.85 80.95 548.3Q80.6 550 79.65 551.3Q78.8 552.45 77.9 552.55L75.95 552.15L75.95 552.2Q75.7 554 75.1 554.85Q74.4 555.8 71.9 556Q69.05 556.25 67.15 554.85L66.7 554.45L66.65 554.4Q59.65 555 60.6 547.7Q66.8 538.15 69 526.8Q71.25 515.15 69.35 501.6Q67.7 501.45 64.85 500.35Q59.1 498.1 53.15 493.2Q46.55 487.8 44.4 474.4Q42.4 462.2 45.25 456.9L48.75 450.4Q50.8 446.35 51.5 443.45Q52.2 440.6 52.45 430.45L52.6 420.9Q41.3 436.15 38.85 454.5L32.7 481.3Q35.2 482.65 37.35 486.4Q39.3 489.8 39.05 491.15Q38.9 492.1 37.15 492.85L35.4 493.4Q36.6 496.8 35.6 498.1Q33.4 500.95 30.8 498.2Q29.55 501.25 28.6 501.6Q27.9 501.85 26.55 501.2Q25.25 500.6 24.5 499.75L24.45 499.65L21.95 499.6Q19.3 499.1 18.4 496.9Q17.55 494.7 18.4 490.85L19.4 487.45Q20 482.4 20.95 477.4Q27.55 442.1 50.95 411.05L51.75 406.4L49.7 403.95L48.7 402.4L48.6 402.15L48.95 402.15L50.55 401.1L51.3 400.6L52.15 400.05L53.65 398.7Q55.1 397.75 55.1 397.4L55 397.15L53.85 397.35L53.25 397.6L52.7 397.85Q51.8 398.05 51.55 398.2L50.9 398.8L50 399.2L49.3 399.65Q47.95 400.35 47.95 400.7L48.05 400.9L48.3 400.95L48.15 401.25L46.6 397.45L47.3 397.35L47.45 397.15Q49.65 396.1 52.15 394.25L52.45 394.2L52.95 393.45L52.85 393.25Q51.45 393.5 49.85 394.25Q49 394.7 46.85 396L46.65 396.65L46.4 396.8L45.35 393.45L45.15 392.8L45.05 392.4L45.35 392.45L48.95 390.25L51.7 388.3L51.6 388Q51.05 387.85 48.45 389.15L45.25 390.9L45.1 391.2L45.15 391.4L45.4 391.45L44.95 392.15L43.75 387.65L41.7 378.45L37.65 378.85L43.35 367.4L35.6 369.2L43.75 359.6L36.6 357.95L47.05 352.85L40.9 348.95L51.2 347.55Q50.7 341.6 50.5 335.65L50.5 335.3L50.35 327.55Q50.3 307.4 54.6 306.75Q58.9 306.15 66.8 320.95Q70.6 328.1 73.65 335.3L73.8 335.65L73.85 335.85L74.2 335.65L74.8 335.3L77.25 333.9Q80.95 331.9 82.7 331.75Q84.25 331.65 85.9 333.25Q87.65 334.9 88.6 335Q89.8 335.1 92.75 334.2L96.4 333.2Q97.9 333.2 100.35 335.3L100.5 335.45L100.6 335.3Q104 328.3 108.2 321.45Q116.65 307.7 120.55 309Q124.45 310.3 123.2 328.7L122.7 335.3L122.65 335.65L121.2 346.9L128.75 351.2L120.15 355.1L131.4 360.4L122.8 362.65L127.95 364.7L123.25 369.65L126.7 372.7L123.75 384.55L121.85 391.4L121.75 391.35L117.2 391Q116.1 391 116.1 391.45L116.2 391.65L118.25 391.95L119.6 392.1L121.7 391.9L121.4 392.8L121.2 393.45L120.8 394.75L120.45 394.55L120.6 394.1L120.25 393.7L118.5 393.45L115.7 393.4L113.6 393.35Q113.25 393.4 113.25 393.7L113.45 394.05L114.05 394.25L115.1 394.45L116.35 394.7L118.5 395.2L118.6 395.3L119.35 395.45L119.85 395.3Q119.85 395.15 120.6 395.1L120.7 395.05L119.75 397.9L119.65 397.75L119.6 397.7L119.85 397.45L119.5 397.1L112 396.1L111.75 396.25Q112.05 396.85 113.35 397.35L116.1 398.2L116.9 398.45L118.6 398.7L118.95 398.4L119.45 398.35L119.7 398.05L118.6 401L120.65 410.25Q145.7 443.55 152.05 477.35Q153 482.35 153.6 487.4L154.6 490.8Q155.45 494.65 154.6 496.85Q153.7 499.05 151.05 499.55L148.55 499.6L148.5 499.7Q147.75 500.55 146.45 501.15Q145.1 501.8 144.4 501.55Q143.45 501.2 142.2 498.15Q139.6 500.9 137.4 498.05Q136.4 496.75 137.6 493.35L135.85 492.8Q134.1 492.05 133.95 491.1Q133.7 489.75 135.65 486.35Q137.8 482.6 140.3 481.25L134.15 454.45Q133.5 449.5 132.1 444.45Q128.6 432.1 120.75 421.35L124.65 440.55L126.35 443.9Q128.4 448.15 129.95 452.55Q134.95 466.65 133.45 477Q131.95 487.35 123.8 495.5Q119.75 499.55 115.95 501.55Q114.05 515.1 116.3 526.75Q118.5 538.1 124.7 547.65Q125.65 554.95 118.65 554.35L118.6 554.4L118.15 554.8Q116.25 556.2 113.4 555.95Q110.9 555.75 110.2 554.8Q109.6 553.95 109.35 552.15L109.35 552.1L107.4 552.5Q106.5 552.4 105.65 551.25Q104.7 549.95 104.35 548.25Q104.05 546.8 104.25 545.8Q104.6 544.15 107 541.1L109.35 538.4L106.7 530.45L107.3 526.75Q108.9 516.4 109.35 502.2L99.3 503.5L101 519.25L102.6 537L102.5 536.95L102.1 536.9Q102.5 536.8 102.5 536.55L102.4 536.3L101.7 536.4L101.55 536.1L101.25 536.05L98.05 536.55L94.05 536.9L91.85 536.8Q91.6 536.8 91.6 537.05L92 537.45L93.1 537.55L94.95 537.8L97.1 538.05L100.6 538L101.6 537.8L102.65 537.65M72.5,346.4L72.2 347L72.2 347.35L72.3 347.4L72.35 347.4L72.5 347L72.6 346.95L72.65 347L72.25 348.1L72 349.25L71.8 350.35L71.6 351.5L71.15 356L71.2 357.7Q71.3 358.75 71.55 359.35L71.85 360.2L72 360.4L72 360.6L72.25 361.05L72.95 362.8L73.05 362.85L73.1 363.15L73.3 363.55L73.4 363.6L73.75 364.55L74.4 365.5L74.5 365.55L74.8 365.5L75.6 364.4L76.6 362.6L77.1 362L77.95 360.85Q77.95 360.5 78.3 360.45L79 359.45L79.5 358.95L80 358.45L81 357.4L82.3 356.45Q82.35 356.25 82.75 356L83.45 355.45L84.45 354.85L84.6 354.85L85.1 354.05L85.25 353.25L85.35 351.6L85.05 349.1L84.7 347L84.4 345.85L84.25 345.25L83.9 344.65L83.4 344.05L82.55 343.55L80.65 342.95L80.25 342.9L79.7 342.8L79.65 342.75L77.55 342.75Q77.15 342.7 76.9 342.95L75.4 343.4Q74.65 343.8 74.2 344.25Q73.1 345.2 72.9 345.7L72.7 345.8L72.5 346.4M95.5,350.5Q96.1 347.5 93.2 345.05Q90.35 342.6 87.55 344.6Q86.15 345.65 85.35 347.15Q86.3 350.75 85.3 354.75Q83.5 355.7 81.8 357.2Q80.35 358.45 79 360.1L78.15 361.25Q76.35 363.7 75.35 365.95L76.9 369.5Q79.6 373.1 85.2 373.5Q93.2 374.1 99.1 369.75Q104.2 365.95 104.15 361.25L104.05 360Q103.8 358.45 103.05 357.2Q101.9 355.5 99.7 354.35Q97.35 353.15 94.35 353Q95.2 352 95.5 350.5M46.15,386.45Q45.7 386.6 45.4 386.95L44.35 388.1L44.45 388.3L44.7 388.35L44.8 388.35L44.6 388.65L44.7 388.9L45.1 388.95Q46.55 388.2 47.95 387.4L51.1 385.3L51 385Q49 385.1 47.15 386.15L46.15 386.45M49,393.15L50.85 391.6L50.75 391.35Q49.75 391.45 48.05 392.5Q47.5 392.75 46.85 393.3Q46.1 393.85 46.1 394.1L46.35 394.35L46.9 394.05L47.8 393.85L49 393.15M63.65,385.85L63.25 385.9L60.15 383.15L58.1 387.95L57.65 389.35Q57.1 391.25 56.9 392.8L56.85 393.45Q56.7 395.1 57.05 396.3Q58.25 400.5 60.65 402.75Q63.55 405.5 67.3 404.25Q70.7 403.15 69.55 395.3L67.7 387.65L66.4 387.3L65.3 386.95L63.8 386.25L63.65 385.85M105.35,335.65L104.9 336.6L108.25 338.95L111.95 338.1L111.55 342.4L114.6 340.55L116.05 345.1L117.6 335.65L117.65 335.3L118.2 330.95Q120 316.6 118.1 315.8Q116.25 315 110.4 325.7Q107.8 330.5 105.55 335.3L105.35 335.65M118.35,386.95Q118.35 387.2 119.3 387.7Q120.55 388.3 122.3 388.3Q122.7 388.3 122.7 387.7L122.4 387.3L121.9 386.9L118.6 386.7L118.4 386.7L118.35 386.95M118.75,384.95L120.35 385.2L122 385.45L122.25 385.6L122.95 385.55L123 385.3L122.9 385L122.65 384.9L122.95 384.8L123.35 384.45L123.25 384.25L123.6 384.2L123.75 383.95L123.65 383.75L122.85 383.6L116.85 383.6L116.25 383.85L116.6 384.4L117.85 384.65Q117.65 384.75 118.1 384.9L118.75 384.95M69.55,409.55L67.85 409.45L66.1 409.5L66.1 409.8Q66.3 410.05 67.55 410.7Q68.85 411.35 69.3 411.35L71.4 411.05L72.95 410.6L74.5 409.8L75.2 409.2L75.15 409L74.95 408.95L73.1 409.15L71.65 409.4L70.05 409.55L69.55 409.55M53.1,408.15L53.2 408.4L53.45 408.45Q53 408.35 54.05 408.15L54.2 408.55L54.7 408.6Q59.1 405.8 59.1 405.1L58.85 404.85Q57.2 404.65 55.15 405.6Q53.2 406.45 53.2 407.2L53.3 407.65L53.1 408.15M99.1,512.2L99.45 512L99.6 511.45L99.85 510.95L99.6 510.7L98.75 510.7L97.55 510.9L95.2 511L92.1 510.8Q92.15 511.25 92.75 511.45L93.85 511.8L95.25 512.05L97.7 512.25L99.1 512.2M98.2,519.3L96.45 519.8L92.15 520.2L92.1 520.45L92.15 520.65L92.4 520.75L93.3 520.9L94.85 521.05L96.35 521.2Q99.3 521.2 100.5 520.3L100.4 520.1L99.8 520Q99.95 519.95 100.05 519.85L100.75 519.4Q100.75 518.85 99.85 518.9L98.2 519.3M95.85,529.55L96.1 529.7L99.1 529.7L101.1 529.45L101.6 529.05L101.35 528.8L100.85 528.75L101.1 528.65L101.5 528.2L100.8 527.8L99 528.05L95.05 528.5L92.1 528.3L91.5 528.4Q91.7 528.9 93.15 529.15L95.85 529.55M101.95,545.55L102.1 545.3L101.75 544.95L101.45 544.9L101.7 544.75L101.55 544.45L100.35 544.75L95.3 545.15L91.15 545.3L91.1 545.55L91.15 545.75L91.35 545.8L93.3 546.05L93.4 546.15L97 546.45L100.7 546.45L100.7 546.35L101.1 546.3L101.7 545.6L101.95 545.55" />
<path style="fill:#E66006;fill-opacity:1" d="M54.45,328.85Q54.15 313.35 56.45 312.75Q58.75 312.15 64.35 324.65L68.85 335.3L68.95 335.65L69.55 337.3L65.45 336.9L65.05 340.4L62.2 339.75L61.35 343.25L58.3 341.6L55.2 344.25L54.7 335.65L54.7 335.3L54.45 328.85M105.55,335.3Q107.8 330.5 110.4 325.7Q116.25 315 118.1 315.8Q120 316.6 118.2 330.95L117.65 335.3L117.6 335.65L116.05 345.1L114.6 340.55L111.55 342.4L111.95 338.1L108.25 338.95L104.9 336.6L105.35 335.65L105.55 335.3" />
<path style="fill:#FF6D6B;fill-opacity:1" d="M89.95,353.2L94.35 353Q97.35 353.15 99.7 354.35Q101.9 355.5 103.05 357.2Q103.8 358.45 104.05 360L104.15 361.25Q104.2 365.95 99.1 369.75Q93.2 374.1 85.2 373.5Q79.6 373.1 76.9 369.5L75.35 365.95Q76.35 363.7 78.15 361.25L79 360.1Q80.35 358.45 81.8 357.2Q83.5 355.7 85.3 354.75Q87.55 353.55 89.95 353.2" />
<path style="fill:#FF2E28;fill-opacity:1" d="M62.6,386.95L62.15 389.1L61.7 391.1L61.7 392.65Q61.7 394.9 61.85 395.95L62.25 398Q62.65 399.3 63.05 399.3L63.35 399.2L63.35 398.45Q63.1 398 63.1 395.75Q63.1 394.1 63.45 391.7L64.1 389.15L64.6 387.5Q64.6 387.15 64.2 386.75L63.8 386.25L65.3 386.95L66.4 387.3L67.7 387.65L69.55 395.3Q70.7 403.15 67.3 404.25Q63.55 405.5 60.65 402.75Q58.25 400.5 57.05 396.3Q56.7 395.1 56.85 393.45L56.9 392.8Q57.1 391.25 57.65 389.35L58.1 387.95L60.15 383.15L63.25 385.9Q62.85 386.05 62.6 386.95" />
<path style="fill:#FFFFFF;fill-opacity:1" d="M72.7,345.8L72.9 345.7Q73.1 345.2 74.2 344.25Q74.65 343.8 75.4 343.4L76.9 342.95Q77.15 342.7 77.55 342.75L79.65 342.75L79.7 342.8L80.25 342.9L80.65 342.95L82.55 343.55L83.4 344.05L83.9 344.65L84.25 345.25L84.4 345.85L84.7 347L85.05 349.1L85.35 351.6L85.25 353.25L85.1 354.05L84.6 354.85L84.45 354.85L83.45 355.45L82.75 356Q82.35 356.25 82.3 356.45L81 357.4L80 358.45L79.5 358.95L79 359.45L78.3 360.45Q77.95 360.5 77.95 360.85L77.1 362L76.6 362.6L75.6 364.4L74.8 365.5L74.5 365.55L74.4 365.5L73.75 364.55L73.4 363.6L73.3 363.55L73.1 363.15L73.05 362.85L72.95 362.8L72.25 361.05L72 360.6L72 360.4L71.85 360.2L71.55 359.35Q71.3 358.75 71.2 357.7L71.15 356L71.6 351.5L71.8 350.35L72 349.25L72.25 348.1L72.65 347L72.6 346.95L72.5 347L72.35 347.4L72.3 347.4L72.2 347.35L72.2 347L72.5 346.4L72.7 345.8M80.1,356.1Q82.1 356.1 82.1 353.05Q82.1 350.2 80 350.3Q77.85 350.4 77.85 353.45L78.15 354.8Q78.7 356.1 80.1 356.1M85.3,354.75Q86.3 350.75 85.35 347.15Q86.15 345.65 87.55 344.6Q90.35 342.6 93.2 345.05Q96.1 347.5 95.5 350.5Q95.2 352 94.35 353L89.95 353.2Q87.55 353.55 85.3 354.75M91,351.25Q91 349.6 89.35 349.55Q87.7 349.5 87.7 351.25L87.8 352.1Q87.95 352.55 88.7 353L89.6 353L90.65 352.15L91 351.25" />
<path style="fill:#582903;fill-opacity:1" d="M119.6,392.1L118.25 391.95L116.2 391.65L116.1 391.45Q116.1 391 117.2 391L121.75 391.35L121.85 391.4L122 391.6L121.9 391.85L121.7 391.9L119.6 392.1M120.6,395.1Q119.85 395.15 119.85 395.3L119.35 395.45L118.6 395.3L118.5 395.2L116.35 394.7L115.1 394.45L114.05 394.25L113.45 394.05L113.25 393.7Q113.25 393.4 113.6 393.35L115.7 393.4L118.5 393.45L120.25 393.7L120.6 394.1L120.45 394.55L120.8 394.75L120.85 394.85L120.7 395.05L120.6 395.1M119.45,398.35L118.95 398.4L118.6 398.7L116.9 398.45L116.1 398.2L113.35 397.35Q112.05 396.85 111.75 396.25L112 396.1L119.5 397.1L119.85 397.45L119.6 397.7L119.65 397.75L119.75 397.9L119.75 397.95L119.7 398.05L119.45 398.35M101.6,537.8L100.6 538L97.1 538.05L94.95 537.8L93.1 537.55L92 537.45L91.6 537.05Q91.6 536.8 91.85 536.8L94.05 536.9L98.05 536.55L101.25 536.05L101.55 536.1L101.7 536.4L102.4 536.3L102.5 536.55Q102.5 536.8 102.1 536.9L102.5 536.95L102.6 537L102.75 537.35L102.7 537.65L102.65 537.65L101.6 537.8M48.3,400.95L48.05 400.9L47.95 400.7Q47.95 400.35 49.3 399.65L50 399.2L50.9 398.8L51.55 398.2Q51.8 398.05 52.7 397.85L53.25 397.6L53.85 397.35L55 397.15L55.1 397.4Q55.1 397.75 53.65 398.7L52.15 400.05L51.3 400.6L50.55 401.1L48.95 402.15L48.6 402.15L48.55 402.15L48.1 401.4L48.15 401.25L48.3 400.95M46.65,396.65L46.85 396Q49 394.7 49.85 394.25Q51.45 393.5 52.85 393.25L52.95 393.45L52.45 394.2L52.15 394.25Q49.65 396.1 47.45 397.15L47.3 397.35L46.6 397.45L46.4 397.45L46.15 397.4L46.1 397.2L46.4 396.8L46.65 396.65M45.05,392.4L44.95 392.15L45.4 391.45L45.15 391.4L45.1 391.2L45.25 390.9L48.45 389.15Q51.05 387.85 51.6 388L51.7 388.3L48.95 390.25L45.35 392.45L45.05 392.4M78.15,354.8L77.85 353.45Q77.85 350.4 80 350.3Q82.1 350.2 82.1 353.05Q82.1 356.1 80.1 356.1Q78.7 356.1 78.15 354.8M47.15,386.15Q49 385.1 51 385L51.1 385.3L47.95 387.4Q46.55 388.2 45.1 388.95L44.7 388.9L44.6 388.65L44.8 388.35L44.7 388.35L44.45 388.3L44.35 388.1L45.4 386.95Q45.7 386.6 46.15 386.45L47.15 386.15M47.8,393.85L46.9 394.05L46.35 394.35L46.1 394.1Q46.1 393.85 46.85 393.3Q47.5 392.75 48.05 392.5Q49.75 391.45 50.75 391.35L50.85 391.6L49 393.15L47.8 393.85M63.8,386.25L64.2 386.75Q64.6 387.15 64.6 387.5L64.1 389.15L63.45 391.7Q63.1 394.1 63.1 395.75Q63.1 398 63.35 398.45L63.35 399.2L63.05 399.3Q62.65 399.3 62.25 398L61.85 395.95Q61.7 394.9 61.7 392.65L61.7 391.1L62.15 389.1L62.6 386.95Q62.85 386.05 63.25 385.9L63.65 385.85L63.8 386.25M90.65,352.15L89.6 353L88.7 353Q87.95 352.55 87.8 352.1L87.7 351.25Q87.7 349.5 89.35 349.55Q91 349.6 91 351.25L90.65 352.15M118.4,386.7L118.6 386.7L121.9 386.9L122.4 387.3L122.7 387.7Q122.7 388.3 122.3 388.3Q120.55 388.3 119.3 387.7Q118.35 387.2 118.35 386.95L118.4 386.7M118.1,384.9Q117.65 384.75 117.85 384.65L116.6 384.4L116.25 383.85L116.85 383.6L122.85 383.6L123.65 383.75L123.75 383.95L123.6 384.2L123.25 384.25L123.35 384.45L122.95 384.8L122.65 384.9L122.9 385L123 385.3L122.95 385.55L122.25 385.6L122 385.45L120.35 385.2L118.75 384.95L118.1 384.9M70.05,409.55L71.65 409.4L73.1 409.15L74.95 408.95L75.15 409L75.2 409.2L74.5 409.8L72.95 410.6L71.4 411.05L69.3 411.35Q68.85 411.35 67.55 410.7Q66.3 410.05 66.1 409.8L66.1 409.5L67.85 409.45L69.55 409.55L70.05 409.55M53.3,407.65L53.2 407.2Q53.2 406.45 55.15 405.6Q57.2 404.65 58.85 404.85L59.1 405.1Q59.1 405.8 54.7 408.6L54.2 408.55L54.05 408.15Q53 408.35 53.45 408.45L53.2 408.4L53.1 408.15L53.3 407.65M97.7,512.25L95.25 512.05L93.85 511.8L92.75 511.45Q92.15 511.25 92.1 510.8L95.2 511L97.55 510.9L98.75 510.7L99.6 510.7L99.85 510.95L99.6 511.45L99.45 512L99.1 512.2L97.7 512.25M99.85,518.9Q100.75 518.85 100.75 519.4L100.05 519.85Q99.95 519.95 99.8 520L100.4 520.1L100.5 520.3Q99.3 521.2 96.35 521.2L94.85 521.05L93.3 520.9L92.4 520.75L92.15 520.65L92.1 520.45L92.15 520.2L96.45 519.8L98.2 519.3L99.85 518.9M93.15,529.15Q91.7 528.9 91.5 528.4L92.1 528.3L95.05 528.5L99 528.05L100.8 527.8L101.5 528.2L101.1 528.65L100.85 528.75L101.35 528.8L101.6 529.05L101.1 529.45L99.1 529.7L96.1 529.7L95.85 529.55L93.15 529.15M101.7,545.6L101.1 546.3L100.7 546.35L100.7 546.45L97 546.45L93.4 546.15L93.3 546.05L91.35 545.8L91.15 545.75L91.1 545.55L91.15 545.3L95.3 545.15L100.35 544.75L101.55 544.45L101.7 544.75L101.45 544.9L101.75 544.95L102.1 545.3L101.95 545.55L101.7 545.6" />
<path style="fill:#000000;fill-opacity:0.2" d="M64.8,321.45L65.95 323.25L67.25 326.7Q68 329 68.65 330.25L69.3 331.9L70.05 333.7L70.9 335.3L70.9 336.25Q70.55 338.1 68.25 338.1L67.2 337.65L66.6 337.65Q66 338.2 65.9 339.25L65.7 341.1L65.15 341.1L64.1 340.8L63.05 340.8Q62.25 341.2 62.15 342.4Q62.05 343.65 61.5 344Q59.9 342.9 58.5 342.9Q58.1 342.9 56.25 343.9Q54.45 344.95 54.45 345.15L54.45 345.05L54.55 344.15L54.7 344.45L54.8 344.7L54.8 344.35L54.3 342.35L53.95 340.35L53.95 333L53.55 327.2L53.55 322.6Q53.55 318.25 54.05 316.5L54.75 313.45L55.3 311.9Q55.5 311.3 56.1 310.9L56.65 310.65L57.3 311.05L59.2 312.7L61.95 316.2L62.9 317.95L63.85 319.7L64.8 321.45M56.3,308.6L55.85 308.65Q55.25 308.85 55.25 309.4Q54.75 309.7 54.5 310.4L53.8 311.85L53.5 313.2Q53.25 313.65 53.25 314.6Q52.95 315.55 52.75 317.4L52.75 321.45L52.65 322.1L52.9 325.85L53.1 329.65L53.25 337.4L53.5 341.25Q53.6 343.6 53.95 344.55L53.85 345.1L54 346.45L54.75 347.15Q55.5 347.55 55.5 347.75L55.2 348.2Q54.9 348.5 54.9 348.75L55.75 349.6L56.75 350.7L53.7 353.3Q51.55 355.15 51.55 356.1Q51.55 356.55 51.85 356.75L52.75 357.05L52.45 357.85L52.25 358.6Q52.25 359.05 53 359.35L53.1 359.4L53.1 359.55L54.05 360.15L52.95 361.3L52.1 362.4L52.2 362.7L52.95 362.85L52.95 362.9L52.1 364.3Q52.1 364.65 52.25 364.8L53.15 365.3L52.05 367.2L51.05 369.35Q51.05 369.75 51.5 370.15Q51.95 370.5 51.95 371.15L51.55 372.75L51.15 374.6Q51.15 375.5 51.85 376.25Q52.5 377 52.5 378L52.25 379.5L51.95 380.8Q51.95 381.35 52.3 382.2Q52.8 383.4 53.45 383.25L53.3 384.15L53.55 384.7L53.85 385.1L54.15 387L54.85 389.25Q55.4 390.6 56 390.75L55.8 392.8Q55.8 393.9 57.35 399L59.15 402.15L60.75 403.7Q61.05 404.1 62.6 404.45L64.4 404.85L65.9 404.85L66.05 404.8Q66.2 405.25 69.4 406.2Q73.05 407.25 75.55 407.25L85.65 406.8L88.25 406.5L90.45 406.2L95.55 406.1L99.5 405.2L102.5 404.25Q106.2 403.05 108.2 402L113.75 399Q116.95 397.15 118.1 395.7L121.1 392.15L121.9 391.15L121.85 391.4L122 391.6L121.9 391.85L121.7 391.9L121.4 392.8L121.2 393.45L120.8 394.75L120.85 394.85L120.7 395.05L119.75 397.9L119.75 397.95L119.7 398.05L118.6 401L119.1 403.1L118.35 405L115.95 409.5L114.15 411.55L111.8 413.75L109.55 415.9L107 417.6Q100.6 421 92.1 423.15Q87.6 424.7 84.55 425.45Q79.35 426.75 68.6 427.7L62.4 427.8Q60.75 428.6 60.1 430L59.4 432.3L58.7 437.1L57 446.4L57 447.1L56.35 449.55L54.75 454.1Q53.6 457.2 53.6 463.45Q53.6 466.4 55.3 470.6Q57.1 474.95 59.25 477L63.2 480.05Q66.35 482.2 68.55 483L74.5 485.3Q77.9 486.4 85.5 486.95L93.45 486.95Q103.75 486.1 110.55 483.95L120.8 480Q125.95 478 129.95 474.75Q132.85 472.3 133.8 470.3Q133.9 473.8 133.45 477Q131.95 487.35 123.8 495.5Q120.05 499.25 116.5 501.25L115.5 501.6L116.3 500.9L116.25 500.7Q113.85 500.4 112.65 506Q111.9 509.65 111.9 513.35L111.9 516.9L111.65 520.55L111.1 524.3L110.85 527.85Q110.85 530.05 112.3 535L112.7 536.4L112.85 538.05L112.6 539.25L112.05 540.6L109.6 542.95Q108 544.35 108 545.45Q108 546.2 108.8 546.2L109.95 545.55L110.65 545.25L112.25 545.1L113.3 546.05L113.85 546.95L113.85 547.25L113.45 548.1Q112.65 549.9 112.65 550.7L112.95 552.7Q113.3 554.3 114.1 554.65L114.2 554.75L114.75 555.15L115.2 555.15L116.55 554.15L116.75 554.15Q119.2 552.15 118.85 549.75Q118.65 548.25 118.85 547.4L119.6 546.05L120.05 546.4L120.3 546.95L121 550.2Q121.75 552.95 123.1 552.95Q123.5 552.95 123.3 552.8L123.75 552.9Q122.25 554.65 118.65 554.35L118.6 554.4L118.15 554.8Q116.25 556.2 113.4 555.95Q110.9 555.75 110.2 554.8Q109.6 553.95 109.35 552.15L109.35 552.1L107.4 552.5Q106.5 552.4 105.65 551.25Q104.7 549.95 104.35 548.25Q104.05 546.8 104.25 545.8Q104.6 544.15 107 541.1L109.35 538.4L106.7 530.45L107.3 526.75Q108.9 516.4 109.35 502.2L99.3 503.5L99.5 505.6L94.5 506.3Q94.05 506.4 94 506.95L93.9 507.75L94.2 519.15L93.4 529.8Q92.55 538.4 92.55 541.45L92.85 546.05Q93.15 550.4 96.4 550.4Q99.35 550.4 101.9 544.6L102.6 543.05Q102.05 547.05 99.75 550.65Q96.65 555.65 93.1 554.85Q89.85 554.1 88.05 550.4Q86.85 547.9 85.95 542.75Q85.35 539.4 87.9 521.25L90.6 503.75Q83 503.6 75.95 502.2L75.95 502.5L75.5 502.4L75.5 502.2Q75.5 501.8 75.05 501.75Q74.55 501.75 74.1 502.05Q73.75 502.25 73.65 502.8L73.5 503.55Q73.1 505.05 73.1 507L73.45 513.05L73.8 522.2Q73.8 526.9 73.35 529.85L73.2 531.8L72.9 533.7L72.6 535.95Q72.3 536.85 72.3 537.6Q72.3 539.9 74.35 542.75Q76.35 545.65 76.35 547.25L76.05 549.2Q76.05 549.85 76.65 551.25L76.95 552.5L76.35 552.3L76.5 551.6Q75.3 546.3 71.95 546.3Q69.75 546.3 69.1 547.95Q68.85 548.6 68.85 550.2Q68.85 551.55 69.4 552.6Q70.45 554.7 73.15 554.7Q74.55 554.7 75.65 553.45L75.75 553.35L75.1 554.85Q74.4 555.8 71.9 556Q69.05 556.25 67.15 554.85L66.7 554.45L66.65 554.4Q59.65 555 60.6 547.7Q66.8 538.15 69 526.8Q71.25 515.15 69.35 501.6Q67.7 501.45 64.85 500.35Q59.1 498.1 53.15 493.2Q46.55 487.8 44.4 474.4Q42.4 462.2 45.25 456.9L48.75 450.4Q50.8 446.35 51.5 443.45Q52.2 440.6 52.45 430.45L52.6 420.9L51.9 421.9L51.9 421.1L51.85 420.4L51.15 419.7L50.7 419.7Q48.5 420.3 45.85 424.8Q45.3 425.65 41.7 432.75L34.8 446Q33.1 449.3 31.95 452.7L30.05 459.3L29.05 462.6L28.25 465.95L27.5 469.25Q26.95 471.4 26.85 472.65L26.85 473.75L26.75 474.65L26.6 476.8Q26.6 480.15 27.05 481.75L29.3 487.65L31.4 493.1L32.7 495.8L33.3 497.15L35.05 498.3Q35.45 498.3 35.4 498.15L35.55 497.2Q35.55 496.05 33.55 492.2Q31.55 488.35 31.55 487.55L31.7 487.1L32.1 487.2L32.3 487.65L32.75 487.95Q33.25 487.95 33.3 487.55L33.35 486.95L33.5 486.95L34.85 489.65L36 491.25L37.2 492.35L38.3 492.15Q38.25 490.95 37.5 489.25L36.05 486.45L34.35 482.7L34.2 482.35Q35.85 483.8 37.35 486.4Q39.3 489.8 39.05 491.15Q38.9 492.1 37.15 492.85L35.4 493.4Q36.6 496.8 35.6 498.1Q33.4 500.95 30.8 498.2Q29.55 501.25 28.6 501.6Q27.9 501.85 26.55 501.2Q25.25 500.6 24.5 499.75L24.45 499.65L21.95 499.6Q19.3 499.1 18.4 496.9Q17.55 494.7 18.4 490.85L19.4 487.45Q20 482.4 20.95 477.4Q27.55 442.1 50.95 411.05L51.75 406.4L49.7 403.95L48.7 402.4L48.6 402.15L48.55 402.15L48.1 401.4L48.15 401.25L46.6 397.45L46.4 397.45L46.15 397.4L46.1 397.2L46.4 396.8L45.35 393.45L45.15 392.8L45.05 392.4L44.95 392.15L43.75 387.65L41.7 378.45L37.65 378.85L43.35 367.4L35.6 369.2L43.75 359.6L36.6 357.95L47.05 352.85L40.9 348.95L51.2 347.55Q50.7 341.6 50.5 335.65L50.5 335.3L50.35 327.55Q50.3 307.4 54.6 306.75Q56.1 306.55 58.05 308.25L56.6 308.25L56.3 308.55L56.3 308.6M54.65,320.7L54.2 326.4Q54.2 327.45 54.75 332.7L55.1 334.3L55.2 335.95L55.4 338.3Q55.65 338.9 57.1 338.9L57.9 338.85L58.75 338L59.3 337.1L59.75 336.25Q59.9 335.9 60.15 335.85L60.7 335.6Q61.8 334 62.05 331.9L62.1 331.95L62.45 332.7Q62.55 333.15 62.95 333.45L63.3 333.45Q63.75 333.3 63.75 331.6Q63.75 327.8 61.6 323.45L59.35 319.35L58.3 317.2Q57.6 315.9 56.5 315.3Q55.85 315.35 55.6 315.85L55.35 316.55L55 317.25L54.8 317.9L54.65 320.7M74.95,343.2L77.35 342.7Q76.2 343.1 75.25 343.95Q73.4 345.7 73.4 348.65Q73.4 350.15 74.25 351.7Q75.75 354.45 79.3 354.45Q81.45 354.45 83.3 352.65Q85.35 350.65 85.35 347.7L85.25 346.65L85.65 346.65L87.8 345.05Q87.45 345.55 87.45 347.05Q87.45 348.35 87.85 348.95Q88.9 350.5 92.45 350.5Q93.85 350.5 94.7 349.85Q95.4 349.3 95.4 348.65L95.2 347.5Q95.6 348.35 95.6 349.3L95.3 351.05Q94.95 351.8 94.95 352.25Q94.95 352.6 95.65 352.8L97 353.2L99.05 354.3Q100.15 354.7 101.05 355.4L102.75 356.8Q103.45 357.4 104.15 359.3Q104.85 361.25 104.85 362.8L103.6 368.15L101.95 373.3Q99.9 376.75 97.9 378.5L95 380.6Q91.45 382.45 86.25 382.45L83.45 382.1Q82.25 381.75 81.85 381.4L79.65 379.55Q77.5 377.8 76.75 375.8L75.55 372Q75.25 371.05 75.25 370.15L74.95 369.2L74.6 368.2L74.15 366.25L73.5 364.4L71.35 360.65Q70.25 358.9 67.85 356.9Q67.1 356.25 64.85 355.45Q62.45 354.6 61.9 354.25L62.15 354.1Q63.75 353.65 64.8 352.95L66.75 351.55L68.35 349.85L69.6 348.15L72.55 344.85Q74.55 343.4 74.95 343.2M60.9,364.8L60.25 370.45Q59.7 375.85 59.7 377.9Q59.7 381.65 61.5 383.6Q64.65 387.05 73.65 387.35L79.2 387.75L79.85 387.75L80 387.9L81.9 387.9L89.05 387.3Q94.75 386.75 98 385.8L106.2 383Q110.85 381.35 113 379.95Q114.8 378.9 116.2 377.7L117 376.95L116.45 378.35Q115.5 380.15 112.95 381.9Q109.25 384.5 101.75 387.15Q96.1 389.1 86.85 390.95L77.7 392.75L73.2 393.2L71.7 393.75Q70.2 394 69.9 394.4Q69.75 394.6 69.75 395.4L69.85 397.55Q69.9 398.9 69.6 400.1L68.4 402.6L67.55 403.75L67.5 403.7L65.2 404.1L62.85 403.8L61.35 403.35L59.85 401.85Q58.55 400.2 58.2 398.85Q56.4 393.95 56.4 392.8L56.6 391.35L56.85 390.65L57.15 389.8L57.1 389.6L57 389.55L57.9 387.2Q57.9 386.2 57.1 383.6Q56.3 381 56.3 378.1Q56.3 372.95 57.15 370.8L58.35 367Q59.15 364.8 60.9 363.6L60.9 364.8M77.8,362.9L78.55 365.05Q80.05 367.05 83.9 367.05L89.35 366.65L94.05 365.95L96.2 365.2L97.95 364.1Q100.2 362.65 101.1 361.3Q101.9 360.1 101.9 358.5Q101.9 355.55 98.95 354.5Q96.6 353.6 91.5 353.75Q86.6 354.3 84.15 355.5Q83.05 356.1 81.3 357.75L79.35 360Q77.8 362.05 77.8 362.9M59.25,393.7L59.3 395L59.6 396.6L60.3 398.1L60.6 398.55L60.9 398.85L61.65 399.15L62.05 399.3Q62.45 399.3 62.45 398.75L62.1 396.45Q61.8 394.85 61.8 394.05Q61.25 390.2 61.25 389.25L61.4 389.05L61.05 388.5Q60.35 389.2 59.8 390.8Q59.25 392.35 59.25 393.7M68.1,392.75Q67.65 390.45 66.25 390.6Q64.85 390.8 64.85 392.7L65 395L65.25 397.25L65.65 399.55Q66 401 66.95 401.85L67.35 401.85Q68.45 400.8 68.65 399.75L68.75 397.65L68.75 395.6L68.1 392.75M122.7,313.2L122.4 312.8Q121.8 311.45 119.5 312.25Q117.5 312.9 116.35 314.2L113.9 317.2Q112 319.8 111.05 321.6L106.8 329L106.45 329.9L105.95 330.85Q105.45 331.5 105 332.7L104.15 334.45L103.7 335.9L103.1 336.5L102.65 336.6L102.1 336.6L100.85 335.5L100.65 335.2Q104.05 328.25 108.2 321.45Q116.65 307.7 120.55 309Q122.25 309.55 123 313.45L122.7 313.2M123.35,316.45L123.45 317.9L123.25 316.55L123.35 316.45M120.6,315.45L121.15 316.8L121.45 319.1L121.25 322.3L121 325.5Q121 327.65 120.65 328.75L120.5 330.4L120.25 332.05L119.3 342.2L119.1 342.7Q118.35 344.45 116.5 345.6L116.2 345.6Q115.15 344.85 114.75 343.3Q114.25 341.75 113.55 341.15Q112.65 341.25 112.1 341.95L111.4 342.6L111.25 342.55L111.25 341.5L111.7 339.15Q111.7 338.5 111.3 338.3L110.55 338.3Q109.1 339.05 108.55 339.05Q107.65 339.05 105.9 337.6L105.35 337.15L104.6 336.45L104.35 336.2L104.8 335.4L105.9 333.35L105.8 333.15L105.6 333.2L105.85 332.75L106.65 331.45L108.2 328.7L109.75 325.9Q112.3 321.8 113.55 320.35L115.75 317.6L117.15 316.2L118.1 315.6L118.9 314.85L119.4 314.85Q120.15 315.05 120.6 315.45M115.5,319.2Q114.3 319.6 113.35 320.7Q112.8 321.35 111.95 322.7Q110.7 324.35 110 326.5L108.45 330.05Q107.15 333 107.15 334.1Q107.15 334.95 107.85 335.45Q108.55 335.95 109.8 335.95L110.95 335.7Q111.2 335.45 111.65 335.45L113.05 334.8L113.3 335.3L113.7 335.95L114 335.95Q114.85 335.25 115.2 334.25L115.55 332.55Q115.7 331.3 116.2 329.1L117.1 322.15L116.85 320.75Q116.75 319.75 115.95 319.2L115.5 319.2M110.3,339.1L110.6 338.9L111.1 338.9L111.15 339.15L110.9 340.65L110.7 341.65L110.6 340.1Q110.65 339.35 110.3 339.1M113.05,341.9L113.35 341.75L113.55 341.9L113.05 341.9M130.4,431.5L131.75 434L133 436.6L134 439.25Q135.95 443.7 137.6 449.7L140 459.1L139.95 459.3Q139.95 460.95 143.1 473.45L143.6 477Q143.95 479.2 144.6 480.5L144.85 481.05L144.75 482.05L144.8 484.05Q144.8 485.8 143.85 488.15L142.15 492.05Q140.9 495.05 140.9 496.4L141.05 497Q141.25 497.55 141.65 497.55L142.5 496.7L143.25 495.3L144.15 492.95Q144.9 491.3 144.9 490.65L145.8 489.55Q146.75 488.65 147.6 488.85L148.15 489.8L148.2 490.7L147.3 494.1Q146.4 497.1 146.4 498.05Q146.4 498.8 147 498.8Q147.65 498.8 148 498.2L148.55 496.65L148.8 495.45L149.4 494.15L149.5 492.9L149.6 491.7Q150.15 490.45 151.1 489.7L151.95 490.4L152.1 493.7Q152.25 496.8 153.05 496.8Q154 496.8 153.75 493.1L153.75 491.4L153.6 490.5L153.35 489.6Q153.6 488.95 153.45 488.7L152.9 487.8L152.05 487.05L152.5 487.05L153.55 486.9L153.6 487.4L154.6 490.8Q155.45 494.65 154.6 496.85Q153.7 499.05 151.05 499.55L148.55 499.6L148.5 499.7Q147.75 500.55 146.45 501.15Q145.1 501.8 144.4 501.55Q143.45 501.2 142.2 498.15Q139.6 500.9 137.4 498.05Q136.4 496.75 137.6 493.35L135.85 492.8Q134.1 492.05 133.95 491.1Q133.7 489.75 135.65 486.35Q137.8 482.6 140.3 481.25L134.15 454.45Q133.5 449.5 132.1 444.45Q128.75 432.55 121.3 422.1Q120.75 420.5 120.75 420L120.9 419.4Q121.1 418.85 121.5 418.85Q122.25 418.85 125.55 423.4L129.15 428.85L130.4 431.5M146.1,483.95L146.1 483.9L146.15 483.95L146.1 483.95M20.25,492.55L20.6 495.5Q21.1 498.35 21.75 498.35L22.2 498.3L22.5 495.75Q22.5 493.7 21.4 491.6Q20.25 489.55 20.25 492.55M26.55,490.5Q25.9 489.3 25.45 489.85Q25.1 490.25 25.1 491.15L25.5 493.25L26.1 495.2L26.65 497.6Q27.15 499.35 27.8 499.35L28.65 499.5L29.1 499.3L29.4 498.8L29.4 498.5L29.1 498.45Q28.95 498.45 28.35 496.2L27.6 493.25L26.55 490.5M65.5,547.55L66.2 546.55L65.75 545.85Q64.55 545.55 63.7 547.7Q63 549.35 63 550.4L63.25 551.75Q63.5 552.65 63.75 552.8Q64.6 552.45 64.65 551.45L64.65 549.9Q64.75 548.6 65.5 547.55M113.45,538.65L113.45 538.7L113.4 538.7L113.45 538.65M121.2,546.7L121.2 546.95L121.1 546.95L121 546.75L121.2 546.7M115.2,552.9L115.1 551.8L115.25 552.9L115.2 552.9M124.7,547.65Q125.1 550.8 124.05 552.5L124.05 552.45L124.25 551.45L124.25 549.4L124.3 547L124.7 547.65" />
<path style="fill:#FFFFFF;fill-opacity:0.4" d="M95.45,353.4Q97.05 353.3 99.3 354.75Q101.35 356.1 101.35 356.85Q101.35 359.5 98.1 360.9L94.2 362.1L91.7 362.4L89 362.6Q85.45 362.6 83.15 361L81.95 360.05Q81.8 359.85 81.8 359.1Q81.8 358.25 82.5 357.45Q83.05 356.8 84.55 355.8L85.4 355Q85.65 354.4 86 354.4Q87.55 353.7 91.45 353.4L95.45 353.4" />
<path style="fill:none;stroke-width:2;stroke-linecap:round;stroke-linejoin:miter;stroke-miterlimit:3;stroke:#AE4200;stroke-opacity:1" d="M54.45,328.85Q54.15 313.35 56.45 312.75Q58.75 312.15 64.35 324.65L68.85 335.3L68.95 335.65L69.55 337.3L65.45 336.9L65.05 340.4L62.2 339.75L61.35 343.25L58.3 341.6L55.2 344.25L54.7 335.65L54.7 335.3L54.45 328.85M105.55,335.3Q107.8 330.5 110.4 325.7Q116.25 315 118.1 315.8Q120 316.6 118.2 330.95L117.65 335.3L117.6 335.65L116.05 345.1L114.6 340.55L111.55 342.4L111.95 338.1L108.25 338.95L104.9 336.6L105.35 335.65L105.55 335.3" />
<path style="fill:none;stroke-width:3;stroke-linecap:butt;stroke-linejoin:miter;stroke-miterlimit:3;stroke:#AE4200;stroke-opacity:1" d="M123.8,495.5Q119.75 499.55 115.95 501.55Q114.05 515.1 116.3 526.75Q118.5 538.1 124.7 547.65Q125.65 554.95 118.65 554.35M38.85,454.5L32.7 481.3Q35.2 482.65 37.35 486.4Q39.3 489.8 39.05 491.15Q38.9 492.1 37.15 492.85L35.4 493.4" />
<path style="fill:none;stroke-width:3;stroke-linecap:round;stroke-linejoin:miter;stroke-miterlimit:3;stroke:#AE4200;stroke-opacity:1" d="M51.75,406.4L49.7 403.95L48.7 402.4Q47 399.25 45.35 393.45L45.15 392.8L43.75 387.65L41.7 378.45L37.65 378.85L43.35 367.4L35.6 369.2L43.75 359.6L36.6 357.95L47.05 352.85L40.9 348.95L51.2 347.55Q50.7 341.6 50.5 335.65L50.5 335.3M142.2,498.15L143.1 497L145.1 492L146.45 488M148.55,499.6Q149.15 498.7 150.1 493.85L150.95 488.85M30.8,498.2L29.9 497.05Q29.35 496.25 27.9 492.05L26.55 488.05M35.4,493.4L34.35 490.95L31.5 485.8M75.95,552.15Q76.15 550.15 75.55 548.9L73.6 546.5L72.25 545.45M118.65,554.35Q119.9 552.85 119.75 549.1L118.6 545.75" />
<path style="fill:none;stroke-width:2;stroke-linecap:butt;stroke-linejoin:miter;stroke-miterlimit:3;stroke:#582903;stroke-opacity:1" d="M58.1,387.95L57.65 389.35Q57.1 391.25 56.9 392.8L56.85 393.45" />
<path style="fill:none;stroke-width:2;stroke-linecap:round;stroke-linejoin:miter;stroke-miterlimit:3;stroke:#582903;stroke-opacity:1" d="M67.7,387.65L78.55 388.5L81.25 388.45Q91 388.05 102.85 384.3Q117.05 379.8 118.3 375.2Q118.5 374.5 115.35 373.95L112.15 373.55" />
<path style="fill:none;stroke-width:2;stroke-linecap:round;stroke-linejoin:miter;stroke-miterlimit:3;stroke:#AE4200;stroke-opacity:1" d="M94.35,353L94.35 353.25" />
<path style="fill:none;stroke-width:3;stroke-linecap:round;stroke-linejoin:miter;stroke-miterlimit:3;stroke:#AE4200;stroke-opacity:1" d="M50.5,335.3L50.35 327.55Q50.3 307.4 54.6 306.75Q58.9 306.15 66.8 320.95Q70.6 328.1 73.65 335.3L73.8 335.65L73.85 335.85L74.2 335.65L74.8 335.3L77.25 333.9Q80.95 331.9 82.7 331.75Q84.25 331.65 85.9 333.25Q87.65 334.9 88.6 335Q89.8 335.1 92.75 334.2L96.4 333.2Q97.9 333.2 100.35 335.3L100.5 335.45L100.6 335.3Q104 328.3 108.2 321.45Q116.65 307.7 120.55 309Q124.45 310.3 123.2 328.7L122.7 335.3L122.65 335.65L121.2 346.9L128.75 351.2L120.15 355.1L131.4 360.4L122.8 362.65L127.95 364.7L123.25 369.65L126.7 372.7L123.75 384.55L121.4 392.8L121.2 393.45L118.6 401M133.45,477Q131.95 487.35 123.8 495.5M52.6,420.9Q41.3 436.15 38.85 454.5M141.5,485.75L138.65 490.9L137.6 493.35M22.05,488.9L22.9 493.9Q23.85 498.75 24.45 499.65M31.1,497.7L30.8 498.2M66.7,545.8L65.55 549.15Q65.4 552.9 66.65 554.4M141.9,497.65L142.2 498.15M99.25,503.25L99.3 503.5M113.05,545.4L111.7 546.45Q110.3 547.75 109.75 548.85Q109.15 550.1 109.35 552.1" />
<path style="fill:none;stroke-width:3;stroke-linecap:round;stroke-linejoin:miter;stroke-miterlimit:3;stroke:#AE4200;stroke-opacity:1" d="M35.4,493.4Q36.6 496.8 35.6 498.1Q33.4 500.95 30.8 498.2Q29.55 501.25 28.6 501.6Q27.9 501.85 26.55 501.2Q25.25 500.6 24.5 499.75L24.45 499.65L21.95 499.6Q19.3 499.1 18.4 496.9Q17.55 494.7 18.4 490.85L19.4 487.45Q20 482.4 20.95 477.4Q27.55 442.1 50.95 411.05L51.75 406.4Q54.05 408.75 57.55 411.25L61.85 414.1Q69.65 418.85 74.1 419.8L82.6 419.15Q89.25 418 96.25 415.8Q114.6 410.15 117.5 403.65L118.5 401.25L118.6 401L120.65 410.25Q145.7 443.55 152.05 477.35Q153 482.35 153.6 487.4L154.6 490.8Q155.45 494.65 154.6 496.85Q153.7 499.05 151.05 499.55L148.55 499.6L148.5 499.7Q147.75 500.55 146.45 501.15Q145.1 501.8 144.4 501.55Q143.45 501.2 142.2 498.15Q139.6 500.9 137.4 498.05Q136.4 496.75 137.6 493.35M118.65,554.35L118.6 554.4L118.15 554.8Q116.25 556.2 113.4 555.95Q110.9 555.75 110.2 554.8Q109.6 553.95 109.35 552.15L109.35 552.1L107.4 552.5Q106.5 552.4 105.65 551.25Q104.7 549.95 104.35 548.25Q104.05 546.8 104.25 545.8Q104.6 544.15 107 541.1L109.35 538.4L106.7 530.45L107.3 526.75Q108.9 516.4 109.35 502.2L99.3 503.5L101 519.25Q102.7 535.85 102.75 540.3Q102.8 545.85 99.75 550.65Q96.65 555.65 93.1 554.85Q89.85 554.1 88.05 550.4Q86.85 547.9 85.95 542.75Q85.35 539.4 87.9 521.25L90.6 503.75Q83 503.6 75.95 502.2Q76.4 516.45 78 526.8L78.6 530.5L75.95 538.45L78.3 541.15Q80.7 544.2 81.05 545.85Q81.25 546.85 80.95 548.3Q80.6 550 79.65 551.3Q78.8 552.45 77.9 552.55L75.95 552.15L75.95 552.2Q75.7 554 75.1 554.85Q74.4 555.8 71.9 556Q69.05 556.25 67.15 554.85L66.7 554.45L66.65 554.4M99.3,503.5L90.6 503.75" />
<path style="fill:none;stroke-width:2;stroke-linecap:round;stroke-linejoin:miter;stroke-miterlimit:3;stroke:#582903;stroke-opacity:1" d="M71.55,360.1L71.25 357.2L71.15 354.6Q71.1 348.5 73.15 345.45Q75.2 342.35 79.1 342.3Q82.8 342.25 84.4 344.85L85.35 347.15Q86.15 345.65 87.55 344.6Q90.35 342.6 93.2 345.05Q96.1 347.5 95.5 350.5Q95.2 352 94.35 353M85.3,354.75Q86.3 350.75 85.35 347.15M67.7,387.65L66.4 387.3L65.3 386.95Q62.75 386 60.15 383.15" />
<path style="fill:none;stroke-width:2;stroke-linecap:round;stroke-linejoin:miter;stroke-miterlimit:3;stroke:#993127;stroke-opacity:1" d="M94.35,353Q97.35 353.15 99.7 354.35Q101.9 355.5 103.05 357.2Q103.8 358.45 104.05 360L104.15 361.25Q104.2 365.95 99.1 369.75Q93.2 374.1 85.2 373.5Q79.6 373.1 76.9 369.5L75.35 365.95Q76.35 363.7 78.15 361.25L79 360.1Q80.35 358.45 81.8 357.2Q83.5 355.7 85.3 354.75Q87.55 353.55 89.95 353.2L94.35 353z" />
<path style="fill:none;stroke-width:2;stroke-linecap:round;stroke-linejoin:miter;stroke-miterlimit:3;stroke:#582903;stroke-opacity:1" d="M60.75,354.3Q65.7 354.25 69.05 357.2Q70.45 358.4 71.55 360.1M75.3,370.9Q74.35 365.05 72.25 361.25L71.55 360.1M56.85,393.45Q56.7 395.1 57.05 396.3Q58.25 400.5 60.65 402.75Q63.55 405.5 67.3 404.25Q70.7 403.15 69.55 395.3L67.7 387.65M61.15,362.9L59.6 371.85Q58.4 381.2 60.15 383.15" />
<path style="fill:none;stroke-width:2;stroke-linecap:butt;stroke-linejoin:miter;stroke-miterlimit:3;stroke:#582903;stroke-opacity:1" d="M60.15,383.15L58.1 387.95" />
<path style="fill:none;stroke-width:3;stroke-linecap:butt;stroke-linejoin:miter;stroke-miterlimit:3;stroke:#AE4200;stroke-opacity:1" d="M137.6,493.35L135.85 492.8Q134.1 492.05 133.95 491.1Q133.7 489.75 135.65 486.35Q137.8 482.6 140.3 481.25L134.15 454.45Q133.5 449.5 132.1 444.45Q128.6 432.1 120.75 421.35L124.65 440.55L126.35 443.9Q128.4 448.15 129.95 452.55Q134.95 466.65 133.45 477M66.65,554.4Q59.65 555 60.6 547.7Q66.8 538.15 69 526.8Q71.25 515.15 69.35 501.6Q67.7 501.45 64.85 500.35Q59.1 498.1 53.15 493.2Q46.55 487.8 44.4 474.4Q42.4 462.2 45.25 456.9L48.75 450.4Q50.8 446.35 51.5 443.45Q52.2 440.6 52.45 430.45L52.6 420.9" />
<path style="fill:#582903;fill-opacity:1" d="M78.3,330.75Q79.05 330.25 80.35 329.75L82.35 329.2L82.5 329.25L82.55 329.4L82.3 329.85L82.05 330.25L82.05 330.35L84.6 329.8L84.7 330L83.9 330.65L86.35 331.5L87.2 331.9L87.7 332.45L87.6 332.65Q84.3 333.3 82.1 334.2L78.2 335.85L76.65 336.6L74.9 337.5L74.1 338.05L71.9 339.3L71.65 339.25L71.6 338.85Q71.6 338.25 72.85 336.5Q73.65 334.9 75.4 332.95Q76.3 331.85 78.3 330.75M92.05,333.1L94 332.4L93.4 331.9L93.45 331.75L95.5 332.2L95.5 332.1L95.3 331.8L95.1 331.45L95.15 331.3L95.25 331.25L96.85 331.7L98.5 332.5Q100.05 333.4 100.8 334.25Q102.2 335.8 102.8 337.1Q103.8 338.5 103.8 338.95L103.8 339.3L103.6 339.3L101.85 338.3Q101.45 338.2 101.2 337.9L99.8 337.15L98.55 336.55L95.45 335.25Q93.7 334.55 91.05 334L91 333.85L91.4 333.4L92.05 333.1" />
</g>
</svg>
