<?xml version="1.0" encoding="utf-8"?>
<svg version="1.1" id="Layer_1"
xmlns="http://www.w3.org/2000/svg"
xmlns:xlink="http://www.w3.org/1999/xlink"
xmlns:author="http://www.sothink.com"
width="21px" height="17px"
xml:space="preserve">
<g id="66" transform="matrix(1, 0, 0, 1, 10.35, 8.6)">
<path style="fill:#FFCC00;fill-opacity:1" d="M-0.85,-1.7Q0.35 2.45 1.95 2.45L2.65 2.3L2.8 1.7L2.6 0.6Q1.9 -1 -0.75 -2.1L-0.85 -1.7M-8.55,6.5L-0.05 -6.7L8.5 6.7L-8.55 6.5" />
<path style="fill:#F5E7AD;fill-opacity:1" d="M-0.75,-2.1Q1.9 -1 2.6 0.6L2.8 1.7L2.65 2.3L1.95 2.45Q0.35 2.45 -0.85 -1.7L-0.75 -2.1" />
<path style="fill:none;stroke-width:2;stroke-linecap:butt;stroke-linejoin:miter;stroke-miterlimit:3;stroke:#505D5D;stroke-opacity:1" d="M8.5,6.7L-0.05 -6.7L-8.55 6.5L8.5 6.7z" />
</g>
</svg>
