<?xml version="1.0" encoding="utf-8"?>
<svg version="1.1" id="Layer_1"
xmlns="http://www.w3.org/2000/svg"
xmlns:xlink="http://www.w3.org/1999/xlink"
xmlns:author="http://www.sothink.com"
width="35px" height="63px"
xml:space="preserve">
<g id="251" transform="matrix(1, 0, 0, 1, 17.45, 31.5)">
<path style="fill:#584F2D;fill-opacity:1" d="M17.4,-30.5L17.4 30.45L17.1 31.15L16.4 31.45L-16.45 31.45L-17.15 31.15L-17.45 30.45L-17.45 -30.5L-17.15 -31.2L-16.45 -31.5L16.4 -31.5L17.1 -31.2L17.4 -30.5M15.4,-21.3L15.4 -29.5L-15.45 -29.5L-15.45 -19.25L-15.45 29.45L15.4 29.45L15.4 -21.3" />
<path style="fill:#70643A;fill-opacity:1" d="M-15.45,-29.5L15.4 -29.5L15.4 -21.3L13.95 -21.6Q11.9 -21.6 5.35 -18.45L2.7 -17.25L-2.95 -19.2Q-7.85 -20.55 -9.35 -20.55L-12.35 -19.9L-15.05 -19.25L-15.45 -19.25L-15.45 -29.5M-7.65,17.1Q-7.8 18.65 -8.5 18.65Q-9.95 18.65 -10.6 14.25Q-10.6 11.4 -9.1 11.9Q-7.6 12.45 -7.6 15.2L-7.65 17.1M-6.3,17.85Q-6.7 17.85 -6.9 17.1L-6.95 16.5Q-6.95 15.1 -6.3 15.1Q-5.65 15.1 -5.65 16.5Q-5.65 17.85 -6.3 17.85" />
<path style="fill:#837544;fill-opacity:1" d="M15.4,29.45L-15.45 29.45L-15.45 -19.25L-15.05 -19.25L-12.35 -19.9L-9.35 -20.55Q-7.85 -20.55 -2.95 -19.2L2.7 -17.25L5.35 -18.45Q11.9 -21.6 13.95 -21.6L15.4 -21.3L15.4 29.45M-7.6,15.2Q-7.6 12.45 -9.1 11.9Q-10.6 11.4 -10.6 14.25Q-9.95 18.65 -8.5 18.65Q-7.8 18.65 -7.65 17.1L-7.6 15.2M-5.65,16.5Q-5.65 15.1 -6.3 15.1Q-6.95 15.1 -6.95 16.5L-6.9 17.1Q-6.7 17.85 -6.3 17.85Q-5.65 17.85 -5.65 16.5" />
</g>
</svg>
