<?xml version="1.0" encoding="utf-8"?>
<svg version="1.1" id="Layer_1"
xmlns="http://www.w3.org/2000/svg"
xmlns:xlink="http://www.w3.org/1999/xlink"
xmlns:author="http://www.sothink.com"
width="82px" height="81px"
xml:space="preserve">
<g id="13" transform="matrix(1, 0, 0, 1, 44.25, 42.45)">
<path style="fill:#232222;fill-opacity:1" d="M14.5,-27.5Q17.05 -24.45 17.05 -19Q16.9 -17.1 16.2 -15.4Q15.25 -13.2 13.85 -12.4L13.7 -12.25Q13 -11.35 13 -10.6L13.2 -10L14 -9L16.6 -9.05L18.7 -11.35Q21 -13.25 24.75 -13.25Q32.1 -13.25 35.2 -7.1Q36.8 -4.05 36.9 -0.85Q36.9 3.3 33.25 5.85Q29.65 8.4 29.65 11.9L30.75 13.95Q31.8 15.9 31.8 17.6Q31.8 20.3 29.25 25Q25.6 31.6 19.7 31.6Q14.85 31.6 12.9 29.6Q11.9 28.5 11.9 27.15Q8.75 26.55 7.9 24.85Q7.65 24.3 7.65 22.45L7.65 21.9L7.1 20.6L5.85 17.6Q3.3 17.2 2.2 18.5Q1.65 19.3 1.65 20.2Q1.65 20.6 2.6 21.15Q3.5 21.8 3.5 22.55Q3.5 24.5 0.3 27.6Q-1.45 29.25 -3.4 30.2Q-3.45 31.4 -4.95 33.05Q-7 35.3 -10.3 35.3Q-17.2 35.3 -19.85 32.15Q-21.3 30.5 -21.3 28.4Q-21.3 27.45 -20.95 27L-21.75 25.85Q-23.55 23.15 -23.55 19.7Q-23.55 18 -23.15 16.7L-24.7 16.75Q-32.35 16.75 -35.1 11.45Q-36.5 8.8 -36.35 6.1Q-36.35 3.1 -34.85 0.8Q-32.35 -3.15 -26.3 -3.55Q-26 -5.3 -21.75 -6.45Q-17.8 -7.55 -17.5 -5.7L-17.2 -5.5L-16.7 -5.25Q-14.15 -5.25 -12.95 -7.15Q-12.4 -8.15 -12.35 -9.15L-12.45 -9.95Q-12.7 -10.55 -13.65 -10.55Q-14.7 -10.55 -15.05 -9.6Q-15.25 -9.1 -15.6 -8.85Q-16 -8.55 -16.7 -8.55Q-20.05 -8.55 -21.85 -12.25Q-22.8 -14.05 -23.05 -16Q-23.05 -22.1 -19.15 -25.1L-17.9 -25.85L-17.9 -27.25Q-17.9 -35.65 -8.35 -37.75L-0.8 -38Q2.95 -37.45 4.75 -35.75Q5.75 -34.85 6.55 -33.45L7.75 -31.4Q8.65 -30 10.2 -30L12.6 -29.65L14.5 -27.5" />
<path style="fill:#FF6600;fill-opacity:1" d="M29.05,-31.5Q32.3 -31.9 32.3 -29.5Q32.3 -27.4 28.25 -27.4Q26.5 -27.4 25.95 -28.3Q25.7 -28.75 25.75 -29.25Q25.75 -31.15 29.05 -31.5M9,-28.6Q11.3 -28.9 14.1 -27.95Q21.55 -25.45 21.55 -18.95Q21.75 -17.8 21.55 -16.95Q21.25 -15.3 19.5 -15.3L17.9 -15.6L16.8 -15.95Q13.45 -15.95 11.55 -13.95Q9.7 -12 9.3 -12Q7.4 -12 6.85 -14.15Q6.55 -15.25 6.65 -16.4Q6.65 -18.7 8.4 -20.8Q10.1 -22.85 10.1 -23.45Q10.1 -24.8 8.4 -25.6Q6.65 -26.35 6.65 -27Q6.65 -28.3 9 -28.6M17.25,-27.95Q15.85 -29.35 14.05 -29.35Q13.35 -29.35 13.1 -29.95L12.95 -30.45Q12.95 -32.95 17 -31.2Q21 -29.45 21 -27.7Q21 -26.55 19.8 -26.55Q18.65 -26.55 17.25 -27.95M16.8,-36.1Q16.8 -37.85 19.25 -38.4Q21.7 -38.9 21.7 -37.1Q21.7 -34.6 18.8 -34.6Q17.35 -34.6 16.95 -35.35Q16.75 -35.7 16.8 -36.1M17.65,-8.25Q19.3 -7.1 19.3 -3.25Q19.3 -0.7 18.7 0.8Q18.05 2.55 15.8 5.15L13.4 6.6Q11.65 7.65 11.65 9.4L11.45 11.35Q10.7 13.15 8.1 13.15Q5.6 13.15 5.15 12.6L4.25 11.5L2.5 11.5L-0.5 12.1Q-5.2 12.1 -6.75 7.8Q-7.5 5.6 -7.35 3.3Q-7.35 -0.5 -5.4 -2.35Q-3.5 -4.2 -3.5 -6.25Q-3.5 -8.15 -3.9 -8.35L-9.25 -8.65Q-12.6 -8.65 -13.75 -10.85Q-14.35 -11.9 -14.25 -12.95Q-14.25 -17.15 -10.6 -19.5Q-5.55 -22.85 3.05 -16Q5.15 -11.8 8.25 -10.25Q10.15 -9.3 13.55 -9.15Q16.65 -8.95 17.65 -8.25M28.7,-5.15Q32.65 -0.55 32.65 4Q32.65 6.8 31.1 9.8Q28.65 14.5 23.6 14.5Q22.55 14.5 22.3 13.7L22.25 12.9Q22.25 11.9 23.5 11.05Q24.75 10.15 24.75 9.6Q24.75 7.65 21.95 7.2Q19.1 6.7 19.1 4.2Q19.1 2.35 20.35 0.7Q22.05 -1.65 25.35 -1.85Q24.75 -4.05 24.75 -5.55Q24.75 -7.5 26 -7.25Q27.1 -7 28.7 -5.15M35.1,21.05L34.6 22.55Q33.95 23.65 32.8 23.65Q31.55 23.65 30.45 22L29.6 20.4Q29.6 18.05 32.35 18.6Q35.1 19.15 35.1 21.05M5.45,15.45Q6.65 16.4 6.65 17.9Q6.65 18.5 5.95 19.25Q5.2 20.05 5.2 21Q5.2 23 7.4 23.7Q9.6 24.4 9.6 24.95Q9.6 26.3 8 27.55Q5.85 29.25 2.05 29.25Q-1.2 29.25 -3.6 27.8Q-3.8 28.45 -5.25 29.3Q-6.95 30.3 -8.55 30.3Q-13 30.3 -15.35 26.75Q-16.9 24.4 -16.9 22.65Q-16.9 21.7 -15.75 21.7Q-15.2 21.7 -14.6 22.05L-13.3 22.35Q-10.85 22.35 -10.05 20.3Q-9.25 18.2 -8.35 18.2Q-7.25 18.2 -6.85 19.25Q-6.4 20.25 -5.5 20.25Q-3.7 20.25 -1.05 17.95L1.35 15.6Q3.9 14.15 5.45 15.45M1.5,38.55Q-1.4 38.55 -2.95 37.2Q-4.05 36.2 -4.05 35.3Q-4.05 34.35 -3.3 34.35L-2.15 34.7L-0.45 35L2.4 34.45L6.5 34Q7.35 34.1 7.35 35Q7.35 36.05 6 37.15Q4.3 38.55 1.5 38.55M-42.65,-4.1Q-41.1 -2.65 -41.1 -0.4L-41.15 1.15Q-41.4 2.25 -42.4 2.25Q-43.6 2.25 -44.05 0.7L-44.25 -0.7Q-44.25 -5.55 -42.65 -4.1M-12.6,-42.35Q-8.85 -42.8 -6.35 -41.55Q-3.5 -40.1 -3.5 -36.9Q-3.5 -34.95 -6.05 -34.55L-9.05 -34.4Q-9.9 -34.1 -10.4 -32.8Q-10.85 -31.65 -11.75 -31.65Q-12.15 -31.65 -13.2 -32.3L-14.6 -33Q-16.2 -33 -16.9 -32.2Q-17.65 -31.45 -18.7 -31.45Q-21.05 -31.45 -21.75 -35.7Q-21.75 -38.2 -18.9 -40.1Q-16.25 -41.9 -12.6 -42.35M-1.6,-27.65Q-1.6 -26.6 -1.9 -26.3Q-2.4 -25.8 -4.2 -25.8Q-10.3 -25.8 -14.8 -22.65L-17.65 -20.55Q-19 -19.55 -20.05 -19.55Q-22.1 -19.55 -22.85 -21.25Q-23.2 -22.1 -23.2 -23.05Q-23.2 -25 -21.1 -27.05Q-18.45 -29.7 -14.05 -30.05Q-12.55 -30.15 -9.4 -32Q-7.4 -33.2 -4.2 -31.55Q-2.6 -30.65 -2 -29.6Q-1.6 -28.8 -1.6 -27.65M-36.85,-7.4Q-34.95 -9.05 -34.95 -5.75Q-34.95 -5 -35.3 -4.3L-35.65 -3.15Q-35.65 -1.6 -34.7 -0.3Q-33.75 1 -33.75 1.6Q-33.75 3.45 -35.2 3.45Q-37.35 3.45 -38.3 0.4Q-38.75 -1.1 -38.8 -2.7Q-38.8 -5.75 -36.85 -7.4M-29.3,-4.2Q-29.3 -9.35 -24.4 -11.25Q-22.45 -12.05 -21.05 -11.5Q-19.5 -10.95 -19.5 -9.1Q-19.5 -8.25 -20.2 -7Q-20.9 -5.7 -20.9 -4.75L-20.25 -3.4Q-19.65 -2.45 -19.65 -1.85Q-19.65 -0.8 -21.4 0.5Q-23.2 1.8 -23.2 3.05Q-23.2 4.55 -20.65 5.75Q-18.1 6.95 -18.1 9Q-18.1 11.55 -21.7 11.55Q-26.9 11.55 -29.05 7.55Q-30.2 5.4 -30.2 3.05Q-30.2 1.9 -29.45 0.45L-28.7 -1.1L-29.3 -4.2" />
<path style="fill:#FFCC00;fill-opacity:1" d="M29.4,-29.15L29.25 -28.8Q29.05 -28.5 28.7 -28.5Q28.2 -28.5 27.8 -29.25L27.45 -30Q27.45 -31.25 28.45 -30.55Q29.4 -29.85 29.4 -29.15M19.8,-35.4L19.35 -35.15Q18.35 -35.15 17.95 -35.75L17.7 -36.35Q17.7 -37.55 18.85 -37Q20 -36.45 20 -35.9L19.8 -35.4M15.15,-25.25Q18.35 -22.4 18.35 -20.55L18.25 -19.65Q18 -18.75 16.95 -18.75Q16.35 -18.75 14.05 -21.8L11.9 -24.9Q11.9 -28.1 15.15 -25.25M18.2,-28.7Q16.45 -28.7 15.8 -29.35Q15.45 -29.7 15.45 -30Q15.45 -31 17.2 -30.55Q18.9 -30.15 18.9 -29.45Q18.9 -28.7 18.2 -28.7M29.55,-1.05L29.25 0.05Q28.85 0.8 28.05 0.8Q26.9 0.8 26.55 -0.4L26.4 -1.65Q26.4 -4 28 -3.15Q29.55 -2.25 29.55 -1.05M27.7,9.5Q26.95 9.5 26.8 8.95L26.75 8.4Q26.75 7.05 27.8 6.9Q28.85 6.75 28.85 8Q28.85 9.5 27.7 9.5M33.8,21.9Q33.65 22.25 32.95 22.25Q32.25 22.25 31.65 21.55L31.25 20.85Q31.25 19.4 32.6 19.8Q33.9 20.25 33.9 21.3L33.8 21.9M4.5,36Q4.5 37.2 1.65 37.2Q0.05 37.2 -0.45 36.7L-0.65 36.1Q-0.65 35.65 1.95 35.3Q4.5 35 4.5 36M5.3,26.15Q4.65 27.05 3.05 27.05Q1.2 27.05 0.15 26.05L-0.5 25.05Q-0.5 23.15 2.6 23.1Q5.7 23.05 5.7 24.95Q5.7 25.65 5.3 26.15M-42.75,-0.3Q-43.8 -0.3 -43.5 -1.25Q-43.5 -2.2 -42.8 -2.2Q-42.15 -2.2 -42.15 -1.25Q-42.15 -0.3 -42.75 -0.3M-12.3,-39.35Q-6.45 -38.85 -6.45 -37.15L-6.45 -36.8L-7.1 -36.3Q-9.2 -36.2 -13.05 -34.85L-16.9 -33.6Q-18.3 -33.6 -18.6 -34.5L-18.65 -35.45Q-18.65 -36.7 -17.1 -37.8Q-15.35 -39.05 -12.3 -39.35M-11.55,-37.85L-11.25 -37.95L-11.6 -37.9L-11.55 -37.85M-10.85,-26.6Q-13.6 -26.6 -15.7 -24.6Q-17.75 -22.65 -18.65 -22.65Q-20.25 -22.65 -20.65 -23.5L-20.75 -24.4Q-20.75 -27 -14.55 -28.2Q-8.4 -29.35 -8.4 -27.35L-8.85 -26.65Q-9.4 -26.3 -10.2 -26.3Q-10.4 -26.3 -10.55 -26.45L-10.85 -26.6M-36.9,-4.35Q-37.75 -4.35 -37.65 -5Q-37.65 -5.85 -36.75 -5.85Q-35.9 -5.85 -35.9 -5.15L-36.15 -4.65Q-36.45 -4.35 -36.9 -4.35M-22.45,-7.05Q-23.95 -5.55 -25.2 -5.55Q-26.4 -5.55 -26.75 -6.3L-26.9 -7.1Q-26.9 -9.5 -24 -10.15Q-21.15 -10.8 -21.15 -8.95Q-21.15 -8.4 -22.45 -7.05M-10.4,23.7Q-7.1 24.25 -7.1 25.95Q-7.1 26.55 -7.25 26.75Q-7.65 27.35 -9.2 27.35Q-11.35 27.35 -12.7 25.95Q-13.7 24.95 -13.7 24.45Q-13.7 23.1 -10.4 23.7M-36.9,1.6L-37.05 0.8Q-37.05 -0.4 -36.05 -0.05Q-35.1 0.3 -35.1 1.35Q-35.1 2.4 -35.85 2.4Q-36.65 2.4 -36.9 1.6M-23.4,8.85Q-25.35 8.85 -26.45 6.35L-27.2 3.8Q-27.2 1.15 -24.75 2.4Q-22.35 3.7 -22.35 6.4Q-22.35 8.85 -23.4 8.85M-11.15,25.25L-10.6 25.45L-10.2 25.8L-9.75 25.7L-10.2 25.4L-11.25 25.2L-11.15 25.25" />
</g>
</svg>
