<?xml version="1.0" encoding="utf-8"?>
<svg version="1.1" id="Layer_1"
xmlns="http://www.w3.org/2000/svg"
xmlns:xlink="http://www.w3.org/1999/xlink"
xmlns:author="http://www.sothink.com"
width="20px" height="14px"
xml:space="preserve">
<g id="109" transform="matrix(1, 0, 0, 1, 2.35, 6.5)">
<path style="fill:#8CAAC9;fill-opacity:1" d="M1.6,1.85L1.65 5.1L1.65 5.7L-1.45 6L-1.45 5.9Q-1.05 4.75 -0.85 2.05L-0.55 -2.15Q-1.1 -2.3 -1.35 -2.6L-1.8 -3.75L-1.85 -4L-1.8 -4.35L-1.45 -5.25Q-0.95 -6 -0.05 -6Q0.7 -6 1.25 -5.4L1.8 -4.4Q8.8 -2.85 16.4 -5.15L16.45 -4.9L16.3 -3.8Q8.3 -0.75 1.85 -3.3Q1.65 -2.45 0.9 -2.2L1.6 1.85" />
<path style="fill:none;stroke-width:1;stroke-linecap:butt;stroke-linejoin:miter;stroke-miterlimit:3;stroke:#34495F;stroke-opacity:1" d="M1.8,-4.4L1.25 -5.4Q0.7 -6 -0.05 -6Q-0.95 -6 -1.45 -5.25L-1.8 -4.35L-1.85 -4L-1.8 -3.75L-1.35 -2.6Q-1.1 -2.3 -0.55 -2.15L0.15 -2.1L0.9 -2.2Q1.65 -2.45 1.85 -3.3L1.85 -3.75L1.8 -4.4Q8.8 -2.85 16.4 -5.15M16.45,-4.9L16.3 -3.8Q8.3 -0.75 1.85 -3.3M-0.55,-2.15L-0.85 2.05Q-1.05 4.75 -1.45 5.9L-1.45 6L1.65 5.7L1.65 5.1L1.6 1.85L0.9 -2.2" />
</g>
</svg>
