<?xml version="1.0" encoding="utf-8"?>
<svg version="1.1" id="Layer_1"
xmlns="http://www.w3.org/2000/svg"
xmlns:xlink="http://www.w3.org/1999/xlink"
xmlns:author="http://www.sothink.com"
width="141px" height="113px"
xml:space="preserve">
<g id="247" transform="matrix(1, 0, 0, 1, 71.3, 57)">
<path style="fill:#8C8CB6;fill-opacity:1" d="M7.35,-51.75L11.5 -51.65Q13.3 -51.65 13.85 -52Q14.25 -52.25 14.25 -52.9Q14.25 -53.75 13.1 -53.95L11.05 -54.2L7.9 -54.25L5.3 -54.35L2.5 -54.6L-4.55 -55.2Q-7.8 -55.3 -7.8 -53.3L-7.7 -52.65Q-7.55 -52.25 -6.7 -51.9L-1.5 -51.9L-1.2 -52.05L1.25 -52.05L1.25 -51.9Q1.25 -50.25 4.8 -50.25Q6.55 -50.25 6.55 -51.45L6.55 -51.65L7.35 -51.75M15.25,-53.55L15.6 -52.05L15.6 -51.3L15.55 -49.8L15.5 -45.75L14.05 -45.45L12.7 -45.5L8.5 -46.1L5.6 -46.6Q4.9 -48.1 4.25 -48.6Q3.1 -49.5 -1.7 -49.55L-2.85 -49.6L-3.25 -49.6L-4.65 -49.9L-5.95 -49.5Q-6.8 -49.1 -6.8 -47.95L-6.8 -47.9L-6.8 -47.7L-6.8 -47.6L-7.35 -46.25L-7.4 -46.25Q-8.3 -46.2 -9.2 -47.2L-9.75 -47.75L-9.8 -50.85L-9.8 -51.75L-9.75 -52.9Q-9.4 -56.4 -6.7 -56.15L4.25 -55.55L12.85 -55.2L14 -55.2Q14.7 -54.8 15.15 -53.7L15.2 -53.65L15.25 -53.55M20.25,-47.25L17.85 -47L17.85 -48.75L17.85 -50L17.75 -51.9L18.9 -51.9Q20.25 -51.6 20.45 -51.25L20.55 -49.65L20.55 -47.2L20.25 -47.25M18.35,-50.35L18.45 -49.85Q18.65 -49.3 19.3 -49.3Q19.9 -49.3 20.05 -49.65L20.15 -50.3Q20.15 -51.15 19.25 -51.35Q18.35 -51.45 18.35 -50.35M9.8,-49.6Q9.65 -49.3 9.65 -48.55L9.9 -47.35Q10.45 -46.25 11.95 -46.25Q12.9 -46.25 13.55 -47.3L14 -48.55Q14 -50.65 11.25 -50.4Q10.15 -50.2 9.8 -49.6M0,-12.1L1.1 -10.2L1.2 -10.05L2.05 -8.4L2.65 -6.9L1.65 -6.1L1.35 -6.55Q0.35 -7.9 -1.5 -7.9L-3.1 -7.45L-7.5 -5.95L-6.8 -9.2L-0.85 -11.65L0 -12.1M-13.4,6L-9.75 5.65L-9.4 5.6L-8.45 5.5L-8.75 5.2Q-9.3 4.35 -9.3 3.6L-9 2.4Q-8.45 1.55 -7.3 0.45Q-5.8 -0.9 -4.65 -1.25L-4.95 0.35L-4.95 0.45Q-4.9 1.5 -4.3 2.4L-3.5 3.3Q-1.8 4.5 -1.15 5.2L-0.55 5.25Q1.6 5.4 2.9 6.05Q3.85 6.55 4.35 7.35L4.35 8.45L0.3 8L-5.15 7.55L-7.75 7.6L-17.35 8.1L-18.7 8.2L-18.65 8Q-18.35 6.55 -17.25 6.2L-13.4 6M13.55,15.3L13.6 21.55L11.25 21.35L8.05 21.1L6.95 21.1L4.05 21.25L3.55 21.3L3.5 12.35L3.75 12.2L4.85 12.25L8 12.15L10.65 12.05L10.75 12.05L11.45 12.3Q13.35 13.2 13.55 15.3M-22.35,15.2Q-22 13.1 -20.75 12.9L-19.45 12.9L-19.65 17.05L-19.65 20.1Q-19.8 22.05 -20.65 22.05Q-21.7 22.05 -22.5 21.05L-22.75 20.6L-22.8 19.25L-22.6 17.6L-22.55 17.1L-22.55 16.4L-22.5 16L-22.35 15.2M-3.9,12.45L-4 14.5L-3.9 18Q-3.95 19.55 -4.7 20.4Q-5.65 21.4 -7.6 21.4L-11.9 21.3L-11.9 19.1L-11.9 18.4L-11.9 17.9L-11.9 17.7L-11.8 12.55L-11.6 12.5Q-8.7 12.3 -4.55 12.45L-3.9 12.45M7.2,14.7Q7.2 13.25 5.75 13.15Q4.3 13.05 4.3 13.6Q4.3 14.4 4.6 15Q5.2 16.2 6.85 15.75Q7.2 15.55 7.2 14.7M8.85,13.55L8.65 14.1L8.85 15.25Q9.45 16.1 11.8 16.1Q12.45 16.1 12.45 15.15Q12.45 14.15 11.05 13.7L9.6 13.4L8.85 13.55M-10.8,-7.55L-10.05 -6.05L-9.7 -5.25L-13.5 -4L-16.2 -3.2L-15.75 -5.55L-10.8 -7.55M-4.6,14.7L-4.6 14.45L-4.75 13.95Q-5.1 13.5 -6.55 13.35L-10.7 13.15Q-11.2 13.25 -11.2 13.85L-11.1 14.25L-10.8 14.95L-10.8 15.25L-10.65 15.55L-9.5 15.9L-6.25 16Q-4.95 16 -4.65 15.4L-4.6 15.1L-4.6 14.7M-10.05,15.35L-10.35 15L-9.95 15.35L-10.05 15.35M-7.3,13.75L-7.3 13.8L-7.7 13.75L-7.3 13.75M-21.35,14.65Q-21.35 15.55 -20.7 15.55Q-20.15 15.55 -20.15 14.55Q-20.15 13.65 -20.75 13.55Q-21.35 13.45 -21.35 14.65" />
<path style="fill:#595980;fill-opacity:1" d="M3.95,-53.5Q6.35 -53.2 6.55 -51.65L6.55 -51.45Q6.55 -50.25 4.8 -50.25Q1.25 -50.25 1.25 -51.9L1.25 -52.05Q1.35 -53.8 3.95 -53.5M2.65,-51.45Q2.65 -50.65 4.1 -50.65Q4.95 -50.65 4.95 -51.4L4.9 -51.65Q4.75 -52.2 3.8 -52.2L3 -52.05Q2.65 -51.85 2.65 -51.45M-6.4,-48.2L-6.8 -47.6L-6.8 -47.7L-6.8 -47.9L-6.8 -47.95Q-6.8 -49.1 -5.95 -49.5L-4.65 -49.9L-3.25 -49.6Q-5.3 -49.45 -6.4 -48.2M11.25,-50.4Q14 -50.65 14 -48.55L13.55 -47.3Q12.9 -46.25 11.95 -46.25Q10.45 -46.25 9.9 -47.35L9.65 -48.55Q9.65 -49.3 9.8 -49.6Q10.15 -50.2 11.25 -50.4M12.85,-48.15Q12.85 -49 11.85 -49.05Q10.85 -49.1 10.85 -48.2L11 -47.65Q11.25 -47.1 11.95 -47.1Q12.4 -47.1 12.7 -47.55L12.85 -48.15" />
<path style="fill:#3D3D5F;fill-opacity:1" d="M3,-52.05L3.8 -52.2Q4.75 -52.2 4.9 -51.65L4.95 -51.4Q4.95 -50.65 4.1 -50.65Q2.65 -50.65 2.65 -51.45Q2.65 -51.85 3 -52.05M12.7,-47.55Q12.4 -47.1 11.95 -47.1Q11.25 -47.1 11 -47.65L10.85 -48.2Q10.85 -49.1 11.85 -49.05Q12.85 -49 12.85 -48.15L12.7 -47.55" />
<path style="fill:#B7B7DE;fill-opacity:1" d="M1.25,-52.05L-1.2 -52.05L-1.5 -51.9L-6.7 -51.9Q-7.55 -52.25 -7.7 -52.65L-7.8 -53.3Q-7.8 -55.3 -4.55 -55.2L2.5 -54.6L5.3 -54.35L7.9 -54.25L11.05 -54.2L13.1 -53.95Q14.25 -53.75 14.25 -52.9Q14.25 -52.25 13.85 -52Q13.3 -51.65 11.5 -51.65L7.35 -51.75L6.55 -51.65Q6.35 -53.2 3.95 -53.5Q1.35 -53.8 1.25 -52.05M19.25,-51.35Q20.15 -51.15 20.15 -50.3L20.05 -49.65Q19.9 -49.3 19.3 -49.3Q18.65 -49.3 18.45 -49.85L18.35 -50.35Q18.35 -51.45 19.25 -51.35M6.85,15.75Q5.2 16.2 4.6 15Q4.3 14.4 4.3 13.6Q4.3 13.05 5.75 13.15Q7.2 13.25 7.2 14.7Q7.2 15.55 6.85 15.75M9.6,13.4L11.05 13.7Q12.45 14.15 12.45 15.15Q12.45 16.1 11.8 16.1Q9.45 16.1 8.85 15.25L8.65 14.1L8.85 13.55L9.6 13.4M-4.6,15.1L-4.65 15.4Q-4.95 16 -6.25 16L-9.5 15.9L-10.65 15.55L-10.8 15.25L-10.8 14.95L-11.1 14.25L-11.2 13.85Q-11.2 13.25 -10.7 13.15L-6.55 13.35Q-5.1 13.5 -4.75 13.95L-4.6 14.45L-4.6 14.7L-4.6 15.1M-9.95,15.35L-10.35 15L-10.05 15.35L-9.95 15.35M-7.7,13.75L-7.3 13.8L-7.3 13.75L-7.7 13.75M-20.75,13.55Q-20.15 13.65 -20.15 14.55Q-20.15 15.55 -20.7 15.55Q-21.35 15.55 -21.35 14.65Q-21.35 13.45 -20.75 13.55" />
<path style="fill:#F58D48;fill-opacity:1" d="M17.55,-47Q17.1 -46.95 16.5 -46.45Q15.9 -45.9 15.6 -45.8L15.5 -45.75L15.55 -49.8L15.6 -51.3L15.6 -52.05L15.25 -53.55L15.6 -53.7Q17.3 -53.7 17.65 -52.35L17.75 -51.9L17.85 -50L17.85 -48.75L17.85 -47L17.55 -47" />
<path style="fill:#6E6E98;fill-opacity:1" d="M17.75,-44.95L17.85 -47L20.25 -47.25L20.55 -47.2L20.4 -45.15Q20.35 -44.6 19.35 -44.2L17.6 -44.1L17.6 -44.15L17.75 -44.95M5.6,-46.6L8.5 -46.1L12.7 -45.5L14.05 -45.45L15.5 -45.75L15.35 -44.65L14.8 -43.15Q14.05 -42.1 12.65 -41.85L7.3 -41.15Q6.45 -44.7 5.6 -46.6M-8.05,-42.1L-8.35 -40.55Q-9.1 -41.45 -9.45 -43.15L-9.6 -44.05L-9.75 -47.75L-9.2 -47.2Q-8.3 -46.2 -7.4 -46.25L-7.35 -46.25L-7.5 -45.75L-8 -42.35L-8.05 -42.1M-13.4,0.55L-13.4 0.35L-13.95 0.55L-16.15 1.35L-17.15 0.65L-18.05 -0.6L-16.55 -1.3L-16.25 -2.9L-16.2 -3.2L-13.5 -4L-9.7 -5.25L-9.5 -4.75L-7.6 -5.7L-7.5 -5.95L-3.1 -7.45L-1.5 -7.9Q0.35 -7.9 1.35 -6.55L1.65 -6.1L-2.4 -4.2L-2.5 -4.2L-2.55 -4.15L-2.75 -4.05L-3.1 -3.75L-4.25 -2.25L-4.55 -1.5L-4.65 -1.25Q-5.8 -0.9 -7.3 0.45Q-8.45 1.55 -9 2.4L-9.3 3.6Q-9.3 4.35 -8.75 5.2L-8.45 5.5L-9.4 5.6L-9.75 5.65L-13.4 6L-13.4 5.5L-13.4 0.55M-17.35,8.1L-7.75 7.6L-5.15 7.55L0.3 8L4.35 8.45L4.35 8.5L4.35 8.8L-4.5 8.85L-18.75 8.85L-18.7 8.2L-17.35 8.1M-25.8,22.95L-25.85 21.3L-25.8 17.95Q-25.7 15.8 -24.95 15.15L-22.35 15.2L-22.5 16L-22.55 16L-22.55 16.4L-22.55 17.1L-22.6 17.6L-22.8 19.25L-22.75 20.6L-22.5 21.05Q-21.7 22.05 -20.65 22.05Q-19.8 22.05 -19.65 20.1L-19.65 17.05L-19.45 12.9L-17.3 12.8L-17.2 12.8L-17.15 12.8L-17.15 20.2Q-17.15 24.95 -17.3 26.9L-17.4 30.2L-17.4 30.45L-18.15 30.45Q-22.15 30.45 -22.55 26.95L-22.55 27.1Q-25.05 27.95 -25.65 25.55L-25.7 25.15L-25.8 22.95M3.5,30.55Q3.3 27.05 3.5 22.65L3.55 21.5L3.55 21.3L4.05 21.25L6.95 21.1L8.05 21.1L11.25 21.35L13.6 21.55L13.6 23.45L13.6 26.9Q14 29.7 11.3 30.6L8.15 30.5L8.05 30.5L5.1 30.45L3.95 30.55L3.65 30.55L3.5 30.55M3.5,12.35L3.5 12.25L3.5 12.2L3.75 12.2L3.5 12.35M-3.9,12.45L-2 12.45L-2.05 18.6L-2 25.4L-1.85 30.5L-11.6 30.4L-11.95 30.45L-11.95 30.35L-12.15 30.35L-12 24.6L-11.9 21.3L-7.6 21.4Q-5.65 21.4 -4.7 20.4Q-3.95 19.55 -3.9 18L-4 14.5L-3.9 12.45" />
<path style="fill:#8080AD;fill-opacity:1" d="M28.35,-23.75L29.05 -25.95Q29.6 -27.1 30.45 -27.7L30.8 -27.9Q31.95 -28.6 33.8 -28.65L39.85 -27.65L45.65 -26.55L49.7 -25.95L52.9 -25.4Q54.65 -25.2 55.2 -24.3L55.35 -23.65L55.45 -20.65L55.45 -19.2L55.4 -17.4Q53.6 -16.4 53 -16.3L50.6 -15.7L47.75 -15.2L46.45 -20.85L51.2 -20.55Q53.9 -20.55 53.9 -22.3L53.85 -22.95L52.9 -23.55L50.3 -23.55Q43.25 -24.85 39.15 -25.95L33 -27.1Q31.25 -27 31.25 -25.4Q31.25 -24.3 32.45 -23.75Q33.25 -23.35 35.25 -22.85L34.15 -22.05Q33.25 -21.2 32.8 -19.8L32.35 -16.85L30.25 -18.55L29 -19.8L28.85 -20L28.35 -19.8L28.15 -19.8L27.95 -19.8Q28 -22.1 28.35 -23.75M1.05,-44.2Q-0.35 -44.75 -0.35 -43.7L0.15 -42.65L0.45 -42.25L0.75 -42.1L1.35 -41.9L2.2 -42.05Q2.4 -42.15 2.4 -42.7Q2.4 -43.6 1.2 -44.15L1.05 -44.2M-1.85,-44.55L-1.55 -44.75L-0.25 -45.05L1.7 -44.65L1.9 -44.55L2.55 -44.05L2.9 -43.35L2.95 -42.8L2.85 -42L2.15 -40.8L1.8 -40.4L1.75 -40.35Q1 -39.75 0 -39.75L-1.1 -40L-1.85 -40.5Q-2.85 -41.45 -2.85 -42.7L-2.75 -43.3L-2.5 -43.85L-2.35 -44.15L-1.85 -44.55M39.35,-12.75Q37.8 -12.75 37.1 -13.35Q36.35 -13.9 36.3 -15.25L36.3 -15.4Q36.3 -16.9 36.55 -17.35L37.1 -18L37.8 -18.6L37.9 -18.6L38.05 -18.8Q38.9 -19.45 40.1 -19.45Q41.35 -19.45 42.15 -18.6Q42.95 -17.85 42.95 -16.55L42.75 -14.65L42.15 -13.65L42.05 -13.5Q41.2 -12.75 39.35 -12.75M39.65,-16.75L40.25 -16L41.1 -15.7Q41.6 -15.7 41.7 -15.85L41.75 -16.85Q41.75 -17.95 40.6 -18.25Q39.4 -18.55 39.4 -17.6L39.65 -16.75" />
<path style="fill:#A9A9D4;fill-opacity:1" d="M45.95,-22.1Q44.9 -23.55 40.35 -23.65L39.1 -23.7Q36.75 -23.7 35.25 -22.85Q33.25 -23.35 32.45 -23.75Q31.25 -24.3 31.25 -25.4Q31.25 -27 33 -27.1L39.15 -25.95Q43.25 -24.85 50.3 -23.55L52.9 -23.55L53.85 -22.95L53.9 -22.3Q53.9 -20.55 51.2 -20.55L46.45 -20.85L45.95 -22.1" />
<path style="fill:#FF6600;fill-opacity:1" d="M15.35,-44.65L15.5 -45.75L15.6 -45.8Q15.9 -45.9 16.5 -46.45Q17.1 -46.95 17.55 -47L17.85 -47L17.75 -44.95L17.6 -44.15Q17.15 -42.75 16 -42.75Q15.05 -42.75 14.8 -43.15L15.35 -44.65M-9.45,-43.15L-10.95 -43.05Q-12.1 -43.05 -12.4 -43.8L-12.65 -45.9L-13.05 -50.35L-13.05 -50.7L-11.25 -51.05L-10.15 -50.9L-9.8 -50.85L-9.75 -47.75L-9.6 -44.05L-9.45 -43.15" />
<path style="fill:#C3C3E2;fill-opacity:1" d="M11.75,-32.3L8.95 -33.9L8.9 -33.95L8.65 -34.2L7.1 -35.85L8.1 -37.4L8.3 -37.65L11.4 -40.85L11.65 -40.7Q11.9 -40.95 12.3 -40.95Q14.1 -40.95 15.3 -36.7Q16.2 -33.45 16.2 -30.8L16.1 -29.05Q15.9 -28.1 15.35 -27.9L15 -27.85Q13.15 -27.85 12 -31.45L11.95 -31.55L11.75 -32.3M13.1,-9.9L4.2 -10.2L1.1 -10.2L0 -12.1Q1.65 -13.15 2.5 -14.75L6.85 -14.7L14.05 -14.9L14.65 -14.85L14.15 -9.8L13.1 -9.9M15.65,-4.15L15.25 -4.15L15.15 -2.4L13.9 -2.7L14.9 -2.7L15.15 -4.3L15.35 -4.3L15.55 -4.3L15.65 -4.15M-46.3,40.05L-46.55 38.25Q-47.7 29.85 -51.6 27.75Q-56.95 24.85 -60.05 20.2L-61.05 18.55L-58.15 16.7Q-54.45 14.4 -50.65 14.4L-47.25 15.05L-43.65 15.7L-36.95 15.2L-33.45 14.9L-30.8 14.7Q-27.2 14.7 -26.9 17.55Q-26.55 20.9 -25.8 22.95L-25.7 25.15L-25.65 25.55Q-25.05 27.95 -22.55 27.1L-22.55 26.95Q-22.15 30.45 -18.15 30.45L-17.4 30.45Q-17.6 32.55 -17.4 34.85L-16.65 34.85L-14.7 34.9L-12.2 34.85L-12.15 30.35L-11.95 30.35L-11.95 30.45L-11.6 30.4L-1.85 30.5L-1.85 30.65L-1.8 34.3L3.4 34.2L3.5 30.65L3.5 30.55L3.65 30.55L3.95 30.55L5.1 30.45L8.05 30.5L8.15 30.5L11.3 30.6Q14 29.7 13.6 26.9L13.6 23.45Q16.4 22.6 17.25 21.9Q19.5 20.15 23.4 16.05L25.6 13.75L25.8 13.5L28.4 10.7L28.45 10.6L29.1 9.85Q29.75 9.2 34.65 7.45Q39.6 5.6 41.2 5.6Q43.2 5.6 46.45 6.45L50.85 7.25L56.75 6.55L63.15 5.9L63.8 5.9Q63.05 9.55 60.55 11.65L57.85 13.5L56.45 14.3Q52.55 16.45 51.15 17.35Q41.15 23.65 36.15 31.75L36.25 31.8Q35.55 32.75 33.4 39.2L32.75 39.2L18.4 39.35L8.25 39.45L-46.3 40.05M-17.15,0.65L-16.15 1.35L-13.95 0.55L-13.4 0.55L-13.4 5.5L-19.5 4.4L-26.05 2.7L-26.3 0.65L-26.35 0.55L-25.9 -0.45Q-24.35 0.5 -19.25 0.65L-17.75 0.65L-17.15 0.65M-15.9,-17.35L-15.95 -17.1L-16.05 -16.85L-16.1 -16.65L-16.05 -15.7L-16.05 -13.85L-15.2 -13.65L-18.45 -12.3L-18.5 -15.5L-18.5 -15.7L-18.5 -16.65L-18.45 -17.55Q-17.6 -18.15 -17.1 -18.15L-15.85 -17.45L-15.9 -17.35M-6.25,-26L-6.45 -26L-7.85 -28.5L-10.45 -31.25L-10.8 -31.4L-11 -31.45L-13.25 -32.2L-13.35 -32.15L-15.2 -30.35L-16 -32.3L-16.35 -33.2Q-17.3 -31.45 -17.3 -30.3L-17.1 -29.1L-17.05 -29Q-18.5 -28.15 -19.7 -28.15L-20.75 -28.25Q-21.25 -28.4 -21.65 -28.7Q-22.5 -29.35 -22.5 -30.55Q-22.5 -33.2 -20.5 -35.95Q-19.05 -38.1 -17.05 -39.45L-16.8 -39.6L-16.25 -39.95L-14.85 -40.55L-12.65 -40.95Q-11.05 -40.95 -10.5 -40.5L-10.05 -39.95L-9.85 -39.3L-9.8 -38.5L-9.55 -38.65L-9.25 -37.9L-8.85 -36.85L-8.05 -34Q-8.05 -32.3 -8.4 -31L-8.15 -30.7L-7.1 -29.3Q-6.5 -28.8 -6.3 -27.35L-6.25 -26M-7.35,-46.25L-6.8 -47.6L-6.4 -48.2L-5.6 -47.6L-5.5 -47.55L-3.45 -47.1L-2.45 -47L-1.8 -46.95Q0.1 -46.8 1.3 -46.3L2.05 -45.9L2.85 -45.15L3.2 -44.75L3.9 -43.3L4.2 -42.15L4.3 -41.35L4.4 -40.75Q5.05 -35.55 6 -31.85L6.35 -30.5Q5.4 -30.55 4.35 -31.05Q3.3 -31.5 2.4 -32.3Q1.6 -33 -0.6 -33.2L-4.15 -33.6Q-6.3 -34.15 -6.7 -38.5L-6.75 -38.65L-6.85 -39.5Q-7.2 -41.35 -8 -42.35L-7.5 -45.75L-7.35 -46.25M-2.35,-44.15L-2.5 -43.85L-2.75 -43.3L-3.55 -42.85Q-4.4 -42.2 -4.4 -41.2Q-4.4 -40.35 -4.05 -39.65Q-3.7 -38.95 -3 -38.4Q-1.8 -37.45 -0.35 -37.45Q1.75 -37.45 1.75 -39.4L1.75 -40.35L1.8 -40.4L2.15 -40.8L2.85 -42L2.95 -42.8L2.9 -43.35L2.55 -44.05L1.9 -44.55L1.7 -44.65L-0.25 -45.05L-1.55 -44.75L-1.85 -44.55L-2.35 -44.15M9.1,-25.9L8.25 -25.9L8.4 -28.9L8.8 -33.2L8.85 -33.5L9.1 -33.55Q9.8 -33.55 10 -32.8L10.1 -31.5L9.65 -28.8L9.6 -28.3L9.55 -28.2L9.1 -25.9M12.75,-35.4Q11.85 -35.9 11.85 -34.85L12.2 -34.25Q12.7 -33.7 13.2 -33.7Q13.7 -33.7 13.7 -34.15Q13.7 -34.9 12.75 -35.4M-0.55,5.25L-1.15 5.2Q-1.8 4.5 -3.5 3.3L-4.3 2.4Q-4.9 1.5 -4.95 0.45L-1.3 0.55L0 0.55L1.85 0.65L14.3 1.9L18 2.05L21.75 2.15Q22.35 2.25 24.25 3.45L23.05 4.75L21.15 6.05L20.75 6.2Q17.75 5.35 15 5.35L11.05 5.75L6.5 6.15L5.7 6.15L2.9 6.05Q1.6 5.4 -0.55 5.25M46.1,-6.65L44 -5.95Q42.45 -5.3 41.6 -5.3Q40.3 -5.3 39.6 -6.45Q38.95 -7.65 37.15 -7.7L34.3 -8Q32.95 -8.3 32.3 -9.3Q31.8 -10.2 31.6 -11.75L31.5 -12.85L32.35 -16.85L32.8 -19.8Q33.25 -21.2 34.15 -22.05Q34.85 -21.4 36 -21.3L40.15 -21.55Q44.3 -21.55 45.4 -15.1L45.45 -14.95L45.65 -12.6L46.35 -6.6L46.1 -6.65M37,-18Q35.75 -18 35.1 -16.8L34.8 -15.75L34.7 -15Q34.7 -13.65 35.55 -12.35L36.1 -11.6L36.5 -11.15Q37.7 -9.95 39 -9.95Q40.8 -9.95 41.5 -10.75Q41.95 -11.3 42.05 -12.3L42.1 -13.2L42.05 -13.5L42.15 -13.65L42.75 -14.65L42.95 -16.55Q42.95 -17.85 42.15 -18.6Q41.35 -19.45 40.1 -19.45Q38.9 -19.45 38.05 -18.8L37.9 -18.6L37.8 -18.6L37.1 -18L37 -18M44.65,7.1L44.6 7.1L44.45 7.2Q43.15 7.9 41.55 9.3Q39.1 11.5 39.1 13.15L39.2 13.5L39.8 14.15L41.25 14.45Q43.15 14.45 44.6 13.5L46.05 12.15Q47.5 10.3 47.5 8.5Q47.5 7.65 45.6 7.05L45.25 7L45.35 7.1Q45.15 6.95 44.65 7.1M36.75,32.25L36.55 32.15L36.55 32.1L36.6 32.1L36.75 32.25M-12.15,-33.5L-11.2 -34.8L-11.2 -34.85Q-10.6 -35.7 -10.3 -36.45L-12.3 -36.9Q-13.45 -36.9 -14.65 -35.55L-15.4 -35.65Q-15.9 -35.65 -16.25 -35.1L-16.5 -34.2L-15.85 -33.95L-14.1 -33.65L-12.15 -33.5M-18.45,-36.1Q-18.45 -37.55 -20.1 -35.3Q-21.75 -33.05 -21.75 -30.85L-21.5 -29.75Q-21.05 -28.65 -19.95 -28.65Q-18.3 -28.65 -18.3 -29.35Q-18.3 -29.65 -19.45 -30.05Q-20.6 -30.5 -20.6 -30.95Q-20.6 -32.1 -19.5 -34.15L-18.45 -36.1M-10.8,-17.05Q-10.65 -17.1 -10.45 -17.2Q-8.9 -17.85 -8 -17.85L-5.4 -17.65L-9.35 -16L-10.8 -17.05" />
<path style="fill:#ECECF7;fill-opacity:1" d="M-3.25,-49.6L-2.85 -49.6L-1.7 -49.55Q3.1 -49.5 4.25 -48.6Q4.9 -48.1 5.6 -46.6Q6.45 -44.7 7.3 -41.15L7.45 -40.5L8.1 -37.4L7.1 -35.85Q6.55 -34.7 6.55 -33.55Q6.55 -31.95 7.15 -30.65L6.85 -29.4L6.8 -29.15L6.35 -30.5L6 -31.85Q5.05 -35.55 4.4 -40.75L4.3 -41.35L4.2 -42.15L3.9 -43.3L3.2 -44.75L2.85 -45.15L2.05 -45.9L1.3 -46.3Q0.1 -46.8 -1.8 -46.95L-2.45 -47L-3.45 -47.1L-5.5 -47.55L-5.6 -47.6L-6.4 -48.2Q-5.3 -49.45 -3.25 -49.6M9.1,-25.9L9.55 -28.2L9.6 -28.15L9.9 -25.9L9.1 -25.9M25.2,2.3L24.25 3.45Q22.35 2.25 21.75 2.15L18 2.05L14.3 1.9L1.85 0.65L0 0.55L-1.3 0.55L-4.95 0.45L-4.95 0.35L-4.65 -1.25L-4.55 -1.5L-1.15 -1.7L4.25 -1.35L10.35 -1.1L14.85 -1.15L15.1 -1.05L15.1 -1.1L16.7 -1.05L22.2 -0.5L23.2 -0.25L24.4 0.65Q24.95 1.3 25.2 2.3M48.2,-12.95L48.2 -12.75L49.5 -5.2L48.7 -5.55L46.35 -6.6L45.65 -12.6L45.45 -14.95L45.4 -15.1Q44.3 -21.55 40.15 -21.55L36 -21.3Q34.85 -21.4 34.15 -22.05L35.25 -22.85Q36.75 -23.7 39.1 -23.7L40.35 -23.65Q44.9 -23.55 45.95 -22.1L46.45 -20.85L47.75 -15.2L48.2 -12.95M-20.1,0.25L-18.05 -0.6L-17.15 0.65L-17.75 0.65L-19.25 0.65Q-24.35 0.5 -25.9 -0.45Q-25.9 -2.35 -21.1 -2.35L-20.1 0.25M13.7,-34.15Q13.7 -33.7 13.2 -33.7Q12.7 -33.7 12.2 -34.25L11.85 -34.85Q11.85 -35.9 12.75 -35.4Q13.7 -34.9 13.7 -34.15M-14.1,-33.65L-15.85 -33.95L-16.5 -34.2L-16.25 -35.1Q-15.9 -35.65 -15.4 -35.65L-14.65 -35.55L-11.65 -35.1L-11.2 -34.8L-12.15 -33.5L-14.1 -33.65M-19.5,-34.15Q-20.6 -32.1 -20.6 -30.95Q-20.6 -30.5 -19.45 -30.05Q-18.3 -29.65 -18.3 -29.35Q-18.3 -28.65 -19.95 -28.65Q-21.05 -28.65 -21.5 -29.75L-21.75 -30.85Q-21.75 -33.05 -20.1 -35.3Q-18.45 -37.55 -18.45 -36.1L-19.5 -34.15M-13.95,0.55L-13.4 0.35L-13.4 0.55L-13.95 0.55" />
<path style="fill:#B1B1DB;fill-opacity:1" d="M1.2,-44.15Q2.4 -43.6 2.4 -42.7Q2.4 -42.15 2.2 -42.05L1.35 -41.9L0.75 -42.1L0.45 -42.25L0.15 -42.65L-0.35 -43.7Q-0.35 -44.75 1.05 -44.2L1.2 -44.15M39.4,-17.6Q39.4 -18.55 40.6 -18.25Q41.75 -17.95 41.75 -16.85L41.7 -15.85Q41.6 -15.7 41.1 -15.7L40.25 -16L39.65 -16.75L39.4 -17.6" />
<path style="fill:#A9A9CB;fill-opacity:1" d="M-2.75,-43.3L-2.85 -42.7Q-2.85 -41.45 -1.85 -40.5L-1.1 -40L0 -39.75Q1 -39.75 1.75 -40.35L1.75 -39.4Q1.75 -37.45 -0.35 -37.45Q-1.8 -37.45 -3 -38.4Q-3.7 -38.95 -4.05 -39.65Q-4.4 -40.35 -4.4 -41.2Q-4.4 -42.2 -3.55 -42.85L-2.75 -43.3M37.1,-18L36.55 -17.35Q36.3 -16.9 36.3 -15.4L36.3 -15.25Q36.35 -13.9 37.1 -13.35Q37.8 -12.75 39.35 -12.75Q41.2 -12.75 42.05 -13.5L42.1 -13.2L42.05 -12.3Q41.95 -11.3 41.5 -10.75Q40.8 -9.95 39 -9.95Q37.7 -9.95 36.5 -11.15L36.1 -11.6L35.55 -12.35Q34.7 -13.65 34.7 -15L34.8 -15.75L35.1 -16.8Q35.75 -18 37 -18L37.1 -18" />
<path style="fill:#8D8DB1;fill-opacity:1" d="M-6.3,-27.35Q-6.5 -28.8 -7.1 -29.3L-8.15 -30.7L-8.4 -31Q-8.05 -32.3 -8.05 -34L-8.85 -36.85L-9.25 -37.9L-9.2 -38.15Q-8.7 -39.15 -8.35 -40.55L-8.05 -42.1L-8 -42.35Q-7.2 -41.35 -6.85 -39.5L-6.75 -38.65L-6.7 -38.5Q-6.3 -34.15 -4.15 -33.6L-0.6 -33.2Q1.6 -33 2.4 -32.3Q3.3 -31.5 4.35 -31.05Q5.4 -30.55 6.35 -30.5L6.8 -29.15L6.85 -29.4L7.15 -30.65Q6.55 -31.95 6.55 -33.55Q6.55 -34.7 7.1 -35.85L8.65 -34.2L8.9 -33.95L8.95 -33.9L11.75 -32.3L11.95 -31.55L12 -31.45Q13.15 -27.85 15 -27.85L15.05 -27.6Q12 -26.9 9.6 -28.15L9.55 -28.2L9.6 -28.3L9.65 -28.8L10.1 -31.5L10 -32.8Q9.8 -33.55 9.1 -33.55L8.85 -33.5L8.8 -33.2L8.4 -28.9L8.25 -25.9L6.2 -25.95L-6.25 -26L-6.3 -27.35M15.55,-4.3L15.85 -4.3L15.8 -4.15L15.65 -4.15L15.55 -4.3M-4.25,-2.25L-3.1 -3.75L-2.75 -4.05L-2.35 -4.05L4.4 -4.1L8.85 -4.05L15.15 -4.3L14.9 -2.7L13.9 -2.7L15.15 -2.4L15.1 -1.1L14.85 -1.15L10.35 -1.1L4.25 -1.35L-1.15 -1.7L-4.55 -1.5L-4.25 -2.25M31.5,-12.85L31.6 -11.75Q31.8 -10.2 32.3 -9.3Q32.95 -8.3 34.3 -8L37.15 -7.7Q38.95 -7.65 39.6 -6.45Q40.3 -5.3 41.6 -5.3Q42.45 -5.3 44 -5.95L46.1 -6.65L46.35 -6.6L48.7 -5.55L49.5 -5.2L49.75 -3.8L49.55 -3.8L48.8 -3.8L44.9 -3.85L40.3 -3.95L34.6 -3.8L32.75 -3.75L31 -3.7Q29.95 -3.5 28.9 -2.35L29.05 -3.15Q30.1 -8.4 31 -11.15L31.25 -11.95L31.5 -12.85M-36.95,15.2L-43.65 15.7L-47.25 15.05L-50.65 14.4Q-54.45 14.4 -58.15 16.7L-61.05 18.55Q-62.3 16.1 -62.65 13.5L-62.75 10.5L-62.7 10.5L-60.85 10.55L-56.65 10.55L-52.95 10.65L-49.95 10.6L-45.5 10.35L-44.15 10.45L-35.65 10.3L-33.35 10.3L-29.55 10.35L-29.25 10.35L-23.45 10.35L-20.7 10.25Q-20.2 10.3 -19.8 9.95L-19.7 9.9L-19.35 9.3L-19.25 7.95L-19.25 7.15L-19.25 5.55Q-19.25 5.3 -19.55 5.05L-19.95 4.7L-25.9 4.7L-26.05 2.7L-19.5 4.4L-13.4 5.5L-13.4 6L-17.25 6.2Q-18.35 6.55 -18.65 8L-18.7 8.2L-18.75 8.85L-4.5 8.85L4.35 8.8L4.35 8.5L4.35 8.45L4.35 7.35Q3.85 6.55 2.9 6.05L5.7 6.15L6.5 6.15L11.05 5.75L15 5.35Q17.75 5.35 20.75 6.2L18.8 6.45L14.05 6.35L13.25 6.35Q11.45 6.35 10.8 6.95L10.5 7.55L10.5 8.25L10.5 8.7L10.35 10.85L10.35 11Q10.35 11.75 10.65 12.05L8 12.15L4.85 12.25L3.75 12.2L3.5 12.2L3.5 12.05L3.45 10.7L-1.85 10.5L-1.9 11.6L-2 12.25L-2 12.45L-3.9 12.45L-4.55 12.45Q-8.7 12.3 -11.6 12.5L-11.8 12.55L-11.9 11.05L-14.4 11.15L-17.2 11.25L-17.2 11.55L-17.15 12.45L-17.15 12.7L-17.15 12.8L-17.2 12.8L-17.3 12.8L-19.45 12.9L-20.75 12.9Q-22 13.1 -22.35 15.2L-24.95 15.15Q-25.7 15.8 -25.8 17.95L-25.85 21.3L-25.8 22.95Q-26.55 20.9 -26.9 17.55Q-27.2 14.7 -30.8 14.7L-33.45 14.9L-36.95 15.2M-21.7,-3.95L-21.2 -2.7L-23.5 -2.7L-24.1 -4.05L-21.8 -3.95L-21.7 -3.95M-12.25,-18.05L-12.9 -17.75Q-13.55 -18.15 -14.75 -18.15Q-15.3 -18.15 -15.65 -17.7L-15.85 -17.45L-17.1 -18.15Q-17.6 -18.15 -18.45 -17.55Q-18.45 -20.05 -18.25 -20.7L-17 -20.65L-11.8 -20.8L-11.2 -20.8L-0.15 -20.7L-0.05 -18.45L-3.55 -18.3L-3.6 -18.4L-3.7 -18.35L-5.4 -17.65L-8 -17.85Q-8.9 -17.85 -10.45 -17.2Q-10.65 -17.1 -10.8 -17.05L-12.25 -18.05M-11.7,-27.1L-14 -26.7L-14.5 -26.7L-16.15 -26.85L-16.25 -26.85L-19.75 -27.9L-19.7 -28.15Q-18.5 -28.15 -17.05 -29L-17.1 -29.1L-17.3 -30.3Q-17.3 -31.45 -16.35 -33.2L-16 -32.3L-15.2 -30.35L-13.35 -32.15L-13.25 -32.2L-11 -31.45L-10.8 -31.4L-10.45 -31.25L-7.85 -28.5L-6.45 -26L-8.85 -26.05L-11.85 -26.05L-11.7 -27.1M13.6,21.55L13.55 15.3Q13.35 13.2 11.45 12.3L13.45 12.4L15.9 12.35L16.85 12.3L20.6 12.15Q22.6 12.1 24.2 11L24.35 10.95L24.6 10.75L26.1 9.6L28.2 7.45L30.45 4.7Q31.35 3.45 33 2.95L33.4 2.85L37.3 2.4L40.4 2.35L42.3 2.35L43.25 2.3L43.8 2.3L45.4 2.25L49.55 2.1L51.25 2.1L51.4 2.1Q57.05 2.1 59.2 2.25L63.05 2.4L63.35 2.4L64.1 2.4L64.1 2.55L63.8 5.9L63.15 5.9L56.75 6.55L50.85 7.25L46.45 6.45Q43.2 5.6 41.2 5.6Q39.6 5.6 34.65 7.45Q29.75 9.2 29.1 9.85L28.45 10.6L28.4 10.7L25.8 13.5L25.6 13.75L23.4 16.05Q19.5 20.15 17.25 21.9Q16.4 22.6 13.6 23.45L13.6 21.55M-14.65,-35.55Q-13.45 -36.9 -12.3 -36.9L-10.3 -36.45Q-10.6 -35.7 -11.2 -34.85L-11.2 -34.8L-11.65 -35.1L-14.65 -35.55M-22.5,16L-22.55 16.4L-22.55 16L-22.5 16" />
<path style="fill:#F3B288;fill-opacity:1" d="M-21.5,-24.45L-21.45 -24.65L-21.35 -25.55L-21.35 -25.95L-20.5 -26.05L-17.35 -26.15L-16.2 -26.15L-14.25 -26.1L-13.95 -26.1L-11.85 -26.05L-8.85 -26.05L-6.45 -26L-6.25 -26L6.2 -25.95L8.25 -25.9L9.1 -25.9L9.9 -25.9L11.2 -25.9L13.3 -25.85L16.4 -25.85Q18.25 -25.9 18.75 -25.35Q19.1 -25 19.1 -23.65L19.05 -22.45L18.8 -21.55Q18.5 -22.45 17.55 -22.95Q15.05 -24.25 13.8 -24.25L10.1 -24.05L8.85 -24.05L8.2 -24.1L6.05 -24.2L-0.25 -24.6L-5.25 -25L-6.25 -24.95L-8.5 -24.75L-8.85 -24.7L-10.85 -24.55L-11.75 -24.55L-12.05 -24.55L-13.95 -24.5L-16.3 -24.5L-18.25 -24.45L-21.1 -24.45L-21.5 -24.45M2.05,-8.4L1.2 -10.05L1.1 -10.2L4.2 -10.2L13.1 -9.9L14.15 -9.8Q16.2 -9.6 16.65 -9.25Q17.2 -8.9 17.2 -7.1L17.1 -5.5L16.15 -7.5L15.8 -7.85L15.05 -8.05L13.9 -8L13.65 -8.05L8 -8.7L2.7 -8.4L2.05 -8.4M31,-3.7L32.75 -3.75L34.6 -3.8L40.3 -3.95L44.9 -3.85L48.8 -3.8L49.55 -3.8L49.75 -3.8L51.2 -3.8L62.25 -3.8L67.05 -3.6L67.7 -1.15L67.65 0.55L67.65 0.65L67.65 1.2L67.1 1.2L66.8 1.2L66.8 0.65L66.75 0.4Q66.65 -2.1 63.6 -2.1L50 -2.25L42.15 -2.3L38.9 -2.45L36.3 -2.7L34.1 -2.4L33.1 -2.25L29.4 -1.75L28.8 -1.8L28.5 -1.9L28.9 -2.35Q29.95 -3.5 31 -3.7M-20.65,7.85L-20.8 7.65Q-21.7 6.65 -23.75 6.7L-24.65 6.65L-25.75 6.55L-25.9 6.5L-26.95 6.35L-29.35 6.05L-30.15 6L-36.1 6.35L-43.45 6.95L-46.05 6.55L-47 6.35L-50.55 5.75L-54.7 6L-56.95 5.7L-59.6 5.35Q-63 6.25 -63.2 5.85L-63.25 5.75L-65.15 5.75L-64.85 4.65L-25.9 4.7L-19.95 4.7L-19.55 5.05Q-19.25 5.3 -19.25 5.55L-19.25 7.15L-19.25 7.95L-19.35 9.3L-19.7 9.9L-19.85 9.85Q-20.05 8.55 -20.65 7.85M-25.5,-9.1L-25.5 -9.55L-25.05 -10.05L-24.15 -10.1L-23.5 -8.45L-25.6 -8.25L-25.6 -8.45L-25.5 -9.1M10.5,7.55L10.8 6.95Q11.45 6.35 13.25 6.35L14.05 6.35L18.8 6.45L20.75 6.2L21.15 6.05L21.1 6.3Q20.8 7.25 20.15 7.75L18.55 8.2L17.1 8.5L16.8 8.5L10.5 8.25L10.5 7.55M-11.9,17.7L-11.9 17.9L-11.9 18.4L-11.9 19.1L-11.9 21.3L-12 24.6L-12.15 30.35L-13.8 30.25L-14.1 27.5L-13.95 22.95L-13.8 17.8L-13.9 14.25Q-14.05 13.05 -14.6 12.7Q-14.85 12.45 -15.25 12.45L-16.2 12.65L-17.15 12.45L-17.2 11.55L-17.2 11.25L-14.4 11.15L-11.9 11.05L-11.8 12.55L-11.9 17.7M3.5,12.25L3.5 12.35L3.55 21.3L3.55 21.5L3.5 22.65Q3.3 27.05 3.5 30.55L3.5 30.65L1.9 30.65L1.6 25.45L1.65 22L1.65 17.35L1.6 14.55Q1.4 13.15 0.6 12.35L-1.85 11.6L-1.9 11.6L-1.85 10.5L3.45 10.7L3.5 12.05L3.5 12.2L3.5 12.25M-22.1,-8.5L-21.85 -8.6L-21.8 -8.5L-22.1 -8.5" />
<path style="fill:#DE7D3D;fill-opacity:1" d="M-18.25,-20.7L-19.65 -20.8Q-20.75 -20.8 -21.35 -21.25Q-21.85 -21.8 -21.85 -22.5L-21.5 -24.45L-21.1 -24.45L-18.25 -24.45L-16.3 -24.5L-13.95 -24.5L-12.05 -24.55L-11.75 -24.55L-10.85 -24.55L-8.85 -24.7L-8.5 -24.75L-6.25 -24.95L-5.25 -25L-0.25 -24.6L6.05 -24.2L8.2 -24.1L8.85 -24.05L10.1 -24.05L13.8 -24.25Q15.05 -24.25 17.55 -22.95Q18.5 -22.45 18.8 -21.55L18.6 -21.2L18.35 -20.7Q18.15 -20.45 17.65 -20.45L15.9 -20.45L14.85 -20.45L11.65 -20.55L7.25 -20.65L-0.15 -20.7L-11.2 -20.8L-11.8 -20.8L-17 -20.65L-18.25 -20.7M15.55,-4.3L15.35 -4.3L15.15 -4.3L8.85 -4.05L4.4 -4.1L-2.35 -4.05L-2.75 -4.05L-2.55 -4.15L-2.5 -4.2L-2.4 -4.2L1.65 -6.1L2.65 -6.9L2.05 -8.4L2.7 -8.4L8 -8.7L13.65 -8.05L13.9 -8L15.05 -8.05L15.8 -7.85L16.15 -7.5L17.1 -5.5L16.95 -5.05Q16.6 -4.45 15.85 -4.3L15.55 -4.3M10.5,8.7L10.5 8.25L16.8 8.5L17.1 8.5L18.55 8.2L20.15 7.75Q20.8 7.25 21.1 6.3L21.15 6.05L23.05 4.75L24.25 3.45L25.2 2.3L25.8 1.5L26.5 0.65L27.25 -0.35L28.5 -1.9L28.8 -1.8L29.4 -1.75L33.1 -2.25L34.1 -2.4L36.3 -2.7L38.9 -2.45L42.15 -2.3L50 -2.25L63.6 -2.1Q66.65 -2.1 66.75 0.4L66.8 0.65L66.8 1.2L67.1 1.2L67.65 1.2Q67.6 2.35 67.4 2.4L66.9 2.4L66.8 1.2L63.95 1.1L55.45 0.35L44.15 -0.55L40.8 -0.45L37.7 -0.65Q36.15 -0.65 34.5 0.35L33 1.15L32.1 1.35L31.05 1.15L30.75 1.05L29.9 0.95Q28.8 0.95 27.95 2.4L27.85 2.55L26.1 6.1L26.05 6.25L24.2 8.6Q21.3 11.2 16.45 11.2L15.45 11.15L13.85 11L11.1 10.8L10.35 10.85L10.5 8.7M-19.85,9.85L-20.7 9.6L-24 9.35L-26.15 9.1L-27.45 8.9L-29.3 8.7L-30.95 8.65L-34.5 8.95L-37 8.65L-39.2 8.25L-43.55 8.65L-47.6 8.5L-49.6 8.4L-51.55 8.5L-53.9 8.95L-55.8 9.2L-57.7 9L-59.65 8.5L-60.7 8.45L-61.7 8.25L-61.85 8.2L-63.95 7.05L-65.25 7.2L-65.25 6.85L-65.15 5.75L-63.25 5.75L-63.2 5.85Q-63 6.25 -59.6 5.35L-56.95 5.7L-54.7 6L-50.55 5.75L-47 6.35L-46.05 6.55L-43.45 6.95L-36.1 6.35L-30.15 6L-29.35 6.05L-26.95 6.35L-25.9 6.5L-25.75 6.55L-24.65 6.65L-23.75 6.7Q-21.7 6.65 -20.8 7.65L-20.65 7.85Q-20.05 8.55 -19.85 9.85M-20.3,-4.9L-21.2 -4.45L-21.8 -4.15L-21.7 -3.95L-21.8 -3.95L-24.1 -4.05L-24.15 -4.05Q-25.95 -4.35 -25.9 -5.5L-25.6 -8.25L-23.5 -8.45L-23.35 -8L-22.1 -8.5L-21.8 -8.5L-21.4 -7.55L-23.05 -6.9L-22.5 -5.6L-20.85 -6.25L-20.3 -4.9M-19.7,9.9L-19.8 9.95L-19.85 9.85L-19.7 9.9M-14.3,30.3L-17.4 30.2L-17.3 26.9Q-17.15 24.95 -17.15 20.2L-17.15 12.8L-17.15 12.7L-17.15 12.45L-16.2 12.65L-15.25 12.45Q-14.85 12.45 -14.6 12.7Q-14.05 13.05 -13.9 14.25L-13.8 17.8L-13.95 22.95L-14.1 27.5L-13.8 30.25L-14.3 30.3M-1.85,30.65L-1.85 30.5L-2 25.4L-2.05 18.6L-2 12.45L-2 12.25L-1.9 11.6L-1.85 11.6L0.6 12.35Q1.4 13.15 1.6 14.55L1.65 17.35L1.65 22L1.6 25.45L1.9 30.65L-1.85 30.65" />
<path style="fill:#2B2B33;fill-opacity:1" d="M-0.15,-20.7L7.25 -20.65L11.65 -20.55L14.85 -20.45L14.85 -19.75L14.75 -16.7Q7.85 -16 3.2 -16.85L3.25 -17.05Q1.55 -18.15 -0.05 -18.45L-0.15 -20.7" />
<path style="fill:#3D3D48;fill-opacity:1" d="M3.05,-16.25L3.2 -16.85Q7.85 -16 14.75 -16.7L14.65 -14.9L14.65 -14.85L14.05 -14.9L6.85 -14.7L2.5 -14.75L3.05 -16.25" />
<path style="fill:#C23030;fill-opacity:1" d="M-21.1,-2.35L-21.2 -2.7L-21.7 -3.95L-21.8 -4.15L-21.2 -4.45L-20.8 -3.95L-20.75 -3.85L-19.6 -2.3L-19.5 -2.2L-18.8 -1.8L-18.75 -1.8L-18 -2.05L-16.25 -2.9L-16.55 -1.3L-18.05 -0.6L-20.1 0.25L-21.1 -2.35M-20.7,-11.4L-21.9 -12.5L-23 -12.6L-24.4 -11.85L-24.75 -11.7L-25.2 -12.85L-22.1 -14.25L-19.25 -12L-20.7 -11.4M3.05,-16.25L2.5 -15.75Q1.95 -15.2 1.45 -15L1.35 -14.95L-1.35 -15.05Q-1.55 -15.1 -1.85 -15.3L-1.95 -15.3L-2.4 -15.55L-3.55 -18.3L-0.05 -18.45Q1.55 -18.15 3.25 -17.05L3.2 -16.85L3.05 -16.25M0,-17.65L-1.45 -17.7L-1.75 -17.4L-1.75 -17.05Q-0.5 -15.95 0.35 -15.8L0.9 -15.9Q1.35 -16.1 1.1 -16.7L0.25 -17.55L0 -17.65M-12.15,-16.45L-12.8 -16.6L-13.45 -16.65L-14.2 -16.35L-14.45 -17.15L-12.9 -17.75L-12.25 -18.05L-10.8 -17.05L-9.35 -16L-10.75 -15.45L-12.15 -16.45M-7.5,-5.95L-7.6 -5.7L-9.5 -4.75L-9.7 -5.25L-10.05 -6.05L-8.75 -6.4L-8.5 -6.7L-8.55 -7.35L-8.3 -8.6L-6.8 -9.2L-7.5 -5.95" />
<path style="fill:#F0A1A1;fill-opacity:1" d="M0.25,-17.55L1.1 -16.7Q1.35 -16.1 0.9 -15.9L0.35 -15.8Q-0.5 -15.95 -1.75 -17.05L-1.75 -17.4L-1.45 -17.7L0 -17.65L0.25 -17.55" />
<path style="fill:#9C2525;fill-opacity:1" d="M-24.15,-10.1L-24.75 -11.7L-24.4 -11.85L-23 -12.6L-21.9 -12.5L-20.7 -11.4L-22.65 -10.6L-21.85 -8.6L-22.1 -8.5L-23.35 -8L-23.5 -8.45L-24.15 -10.1M-0.85,-11.65L-2.25 -15.1L-2.4 -15.55L-1.95 -15.3L-1.85 -15.3Q-1.55 -15.1 -1.35 -15.05L1.35 -14.95L1.45 -15Q1.95 -15.2 2.5 -15.75L3.05 -16.25L2.5 -14.75Q1.65 -13.15 0 -12.1L-0.85 -11.65M-16.9,-7.85L-20.85 -6.25L-22.5 -5.6L-23.05 -6.9L-21.4 -7.55L-17.45 -9.15L-17.35 -8.85L-16.9 -7.85M-20.3,-4.9L-19.95 -3.95L-19.9 -3.85L-15.75 -5.55L-16.2 -3.2L-16.25 -2.9L-18 -2.05L-18.75 -1.8L-18.8 -1.8L-19.5 -2.2L-19.6 -2.3L-20.75 -3.85L-20.8 -3.95L-21.2 -4.45L-20.3 -4.9M-14.2,-16.35L-13.45 -16.65L-12.8 -16.6L-12.15 -16.45L-10.75 -15.45L-13.5 -14.35L-14.2 -16.35M-8.3,-8.6L-8.55 -7.35L-8.5 -6.7L-8.75 -6.4L-10.05 -6.05L-10.8 -7.55L-8.3 -8.6" />
<path style="fill:#6A6A93;fill-opacity:1" d="M31.25,-11.95L30.4 -12.65Q28.55 -14.85 28.05 -17.15Q27.9 -17.9 27.9 -18.7L27.95 -19.8L28.15 -19.8L28.35 -19.8L28.85 -20L29 -19.8L30.25 -18.55L32.35 -16.85L31.5 -12.85L31.25 -11.95M47.75,-15.2L50.6 -15.7L53 -16.3Q53.6 -16.4 55.4 -17.4L55.4 -17.25L55.3 -16.35L54.9 -14.85L54.9 -14.75L54.65 -14.55L49.7 -13.3L48.2 -12.95L47.75 -15.2" />
<path style="fill:#CDAD2D;fill-opacity:1" d="M27.95,-19.8Q26.85 -20 25.8 -20.7L26.15 -22.45Q26.55 -23.55 27.4 -23.65L28.35 -23.75Q28 -22.1 27.95 -19.8M58.7,-18.15Q56.75 -18.15 55.6 -19L55.45 -19.2L55.45 -20.65L55.35 -23.65L55.3 -24.1L55.2 -24.3Q55 -25.8 55.55 -26.25Q55.9 -26.65 57.4 -26.75Q59.5 -26.8 59.95 -25.6L60.1 -21.85L59.9 -18.65L59.9 -18.25L58.7 -18.15M59.4,-24.35Q59.4 -25.6 57.75 -25.35Q56.1 -25.1 56.1 -23.9L56.5 -23.15Q56.95 -22.45 57.3 -22.45L57.75 -22.7Q58.9 -22.7 59.25 -23.15L59.4 -24.35" />
<path style="fill:#AD8F1B;fill-opacity:1" d="M27.95,-19.8L27.9 -18.7Q27.9 -17.9 28.05 -17.15Q27.15 -17 26.55 -17.65Q25.8 -18.35 25.8 -19.8L25.8 -20.65L25.8 -20.7Q26.85 -20 27.95 -19.8M55.4,-17.4L55.45 -19.2L55.6 -19Q56.75 -18.15 58.7 -18.15L59.9 -18.25L59.65 -16L59.65 -15.25Q59.55 -11.95 56.75 -11.9Q55.7 -11.85 55.3 -12.25Q54.9 -12.7 54.9 -13.9L54.9 -14.75Q55.2 -15.2 55.3 -16.35L55.4 -17.25L55.4 -17.4" />
<path style="fill:#E2CE7A;fill-opacity:1" d="M59.25,-23.15Q58.9 -22.7 57.75 -22.7L57.3 -22.45Q56.95 -22.45 56.5 -23.15L56.1 -23.9Q56.1 -25.1 57.75 -25.35Q59.4 -25.6 59.4 -24.35L59.25 -23.15" />
<path style="fill:#BB662E;fill-opacity:1" d="M-35.65,10.3L-44.15 10.45L-45.5 10.35L-49.95 10.6L-52.95 10.65L-56.65 10.55L-60.85 10.55L-62.7 10.5L-62.75 10.5L-64.85 9.95Q-65.2 9.65 -65.25 7.2L-63.95 7.05L-61.85 8.2L-61.7 8.25L-60.7 8.45L-59.65 8.5L-57.7 9L-55.8 9.2L-53.9 8.95L-51.55 8.5L-49.6 8.4L-47.6 8.5L-43.55 8.65L-39.2 8.25L-37 8.65L-34.5 8.95L-30.95 8.65L-29.3 8.7L-27.45 8.9L-26.15 9.1L-24 9.35L-20.7 9.6L-19.85 9.85L-19.8 9.95Q-20.2 10.3 -20.7 10.25L-23.45 10.35L-29.25 10.35L-29.55 10.35L-33.35 10.3L-35.65 10.3M64.1,2.4L63.35 2.4L63.05 2.4L59.2 2.25Q57.05 2.1 51.4 2.1L51.25 2.1L49.55 2.1L45.4 2.25L43.8 2.3L43.25 2.3L42.3 2.35L40.4 2.35L37.3 2.4L33.4 2.85L33 2.95Q31.35 3.45 30.45 4.7L28.2 7.45L26.1 9.6L24.6 10.75L24.35 10.95L24.2 11Q22.6 12.1 20.6 12.15L16.85 12.3L15.9 12.35L13.45 12.4L11.45 12.3L10.75 12.05L10.65 12.05Q10.35 11.75 10.35 11L10.35 10.85L11.1 10.8L13.85 11L15.45 11.15L16.45 11.2Q21.3 11.2 24.2 8.6L26.05 6.25L26.1 6.1L27.85 2.55L27.95 2.4Q28.8 0.95 29.9 0.95L30.75 1.05L31.05 1.15L32.1 1.35L33 1.15L34.5 0.35Q36.15 -0.65 37.7 -0.65L40.8 -0.45L44.15 -0.55L55.45 0.35L63.95 1.1L66.8 1.2L66.9 2.4L64.1 2.4" />
<path style="fill:#FF0000;fill-opacity:0" d="M25.2,2.3Q24.95 1.3 24.4 0.65L26.5 0.65L25.8 1.5L25.2 2.3M60.55,11.65Q63.05 9.55 63.8 5.9L64.1 2.55L64.1 2.4L66.9 2.4L67.4 2.4Q67.6 2.35 67.65 1.2L67.65 0.65L68.95 0.65L68.95 13.5L57.85 13.5L60.55 11.65" />
<path style="fill:#6E6E8C;fill-opacity:1" d="M45.35,7.1L45.25 7L45.6 7.05Q47.5 7.65 47.5 8.5Q47.5 10.3 46.05 12.15L44.6 13.5Q43.15 14.45 41.25 14.45L39.8 14.15L39.2 13.5L39.1 13.15Q39.1 11.5 41.55 9.3Q43.15 7.9 44.45 7.2L44.6 7.1L44.65 7.1Q45.15 6.95 45.35 7.1" />
<path style="fill:#B86128;fill-opacity:1" d="M1.9,30.65L3.5 30.65L3.4 34.2L-1.8 34.3L-1.85 30.65L1.9 30.65M-17.4,30.2L-14.3 30.3L-13.8 30.25L-12.15 30.35L-12.2 34.85L-14.7 34.9L-16.65 34.85L-17.4 34.85Q-17.6 32.55 -17.4 30.45L-17.4 30.2" />
<path style="fill:#E8E8F3;fill-opacity:1" d="M8.25,39.45L18.4 39.35L32.75 39.2L32.75 41.65L32.35 43.1L-45.5 43.3L-45.8 43.3L-46.3 40.05L8.25 39.45" />
<path style="fill:#C65E5E;fill-opacity:1" d="M-45.5,43.3L32.35 43.1Q30.9 48.5 29.95 50.35Q28.75 52.8 23.6 53.3L13.65 54.15Q8.85 54.55 4 54.1L-2.8 53.55L-9.65 53.7Q-13.9 53.85 -16.6 53.55Q-21 53.1 -30.7 53.85Q-39.05 53.95 -42.8 50.1Q-44.65 48.2 -45.5 44.7L-45.5 43.3" />
<path style="fill:#FF9B58;fill-opacity:1" d="M-10.15,-50.9L-11.25 -51.05L-13.05 -50.7Q-12.95 -51.95 -12.4 -52.45Q-11.85 -52.95 -10.4 -52.95L-10 -52.85L-9.75 -52.9L-9.8 -51.75L-9.8 -50.85L-10.15 -50.9" />
<path style="fill:#7B7979;fill-opacity:1" d="M-54.75,-20.7L-70.8 -20.5L-70.75 -21.85L-54.75 -22.1L-54.75 -20.7M-50.1,-21.8L-50.15 -22.15L-34.2 -22.4L-34.05 -20.95L-49.9 -20.75L-50.1 -21.8" />
<path style="fill:#FFFFFF;fill-opacity:1" d="M-38.8,-13.55L-39.1 -13.55L-43 -13.15L-47.05 -12.95L-47.6 -13L-49.6 -13.05L-56.3 -13.05L-60.6 -12.7L-62.8 -12.15L-64.8 -11.85L-64.95 -11.85L-65.05 -12.1L-64.8 -13Q-64.3 -14 -62.65 -14.35L-59.55 -14.35L-57.7 -14.35L-55.7 -14.55L-54.8 -14.4L-49.6 -14.6L-49.55 -14.6L-47.65 -14.7L-45.9 -14.9L-43.3 -15.15L-39.35 -15.75L-32.15 -16.85L-31.9 -16.25L-32.1 -16.1L-32.4 -15.5L-33.2 -15.2Q-35.75 -13.95 -38.8 -13.55M-51.45,-20.7Q-51.85 -21.4 -52.6 -21.85L-53.05 -22.1L-54.25 -22.95L-53.6 -23.15L-52.15 -23.1Q-50.45 -23 -50.15 -22.15L-50.1 -21.8L-49.9 -20.75L-49.8 -20.45Q-49.6 -19.65 -49.7 -19.15L-50.4 -19.25L-51.1 -19.3Q-51.1 -20.1 -51.45 -20.7M-30.35,-16.75L-30 -16.55L-29.7 -15.95L-30 -15.95L-30.15 -16.1L-30.45 -16.3L-30.45 -16.35L-30.35 -16.75" />
<path style="fill:#333333;fill-opacity:1" d="M-57.1,-11.9Q-55.45 -11.8 -54.85 -11.35Q-54.05 -10.65 -53.95 -8.65L-53.5 -5.95L-53.2 -3.7L-53.25 -2.75L-53.25 -2.7L-54 -3.05L-56.2 -3.2L-57.95 -3.55Q-58.8 -3.85 -59.5 -4.45Q-60.6 -5.3 -61.2 -8.3Q-61.65 -10.15 -62.85 -10.65L-62.5 -11.05Q-61.1 -12.2 -57.1 -11.9M-55.8,-7.7L-55.7 -8.5Q-55.65 -9.85 -56.75 -10.55Q-57.9 -11.35 -57.95 -9.8Q-57.75 -7.25 -56.5 -7.15Q-55.95 -7.1 -55.8 -7.7" />
<path style="fill:#383737;fill-opacity:1" d="M-62.9,-2.95L-62.95 -3.55L-63.05 -5L-63.2 -7.65L-63.2 -8.7L-63.2 -9.65L-62.85 -10.65Q-61.65 -10.15 -61.2 -8.3Q-60.6 -5.3 -59.5 -4.45Q-58.8 -3.85 -57.95 -3.55L-56.2 -3.2L-54 -3.05L-53.25 -2.7Q-53.3 -1.35 -53.9 -1.05Q-54.45 -0.65 -56.2 -0.7L-58.35 -0.5L-60.7 -0.35Q-62.45 -0.5 -62.7 -1.8L-62.9 -2.95" />
<path style="fill:#E5E3E3;fill-opacity:1" d="M-29.75,-15.1L-30 -15.95L-29.7 -15.95L-29.55 -14.95L-29.75 -14.85L-29.75 -15.1M-33,-11.9L-32.4 -12.45L-32.4 -12.5L-31.75 -13.65L-31.65 -13.8L-31.1 -13.7Q-30.55 -13.7 -30.15 -14.1L-30.05 -14.2L-29.8 -13.8Q-30.35 -13.05 -32.05 -12.3L-32.55 -12.1L-33 -11.9M-35.55,-10.85L-36.55 -10.35L-37.55 -9.2Q-38.6 -7.75 -38.7 -5.85L-38.7 -5L-38.65 -4.25L-38.75 -4.25L-39.7 -4.15Q-40.75 -3.85 -42 -2.65Q-43.75 -0.95 -45.3 -1.1Q-46.3 -1.2 -48.95 -2.6L-50.25 -3.3L-51.6 -4.05L-53.2 -3.7L-53.5 -5.95L-53.95 -8.65Q-54.05 -10.65 -54.85 -11.35Q-55.45 -11.8 -57.1 -11.9Q-61.1 -12.2 -62.5 -11.05L-64.15 -11.15Q-64.9 -11.25 -64.95 -11.85L-64.8 -11.85L-62.8 -12.15L-60.6 -12.7L-56.3 -13.05L-49.6 -13.05L-47.6 -13L-47.05 -12.95L-43 -13.15L-39.1 -13.55L-38.8 -13.55Q-35.75 -13.95 -33.2 -15.2L-32.4 -15.5L-32.45 -15.1L-32.4 -14.8L-32.6 -14.75L-33.85 -14.1Q-36.05 -12.6 -35.5 -11.8L-34.75 -11.2L-35.55 -10.85M-42.95,-5.3L-42.5 -5.3Q-41.9 -5.3 -41.75 -5.9L-41.75 -7.05L-41.75 -8.6Q-41.95 -9.4 -42.65 -9.4L-43.95 -9.35L-43.95 -10.85Q-44 -11.9 -44.55 -11.9L-47 -11.85Q-47.8 -11.95 -48 -11.5L-48.05 -10.6L-48.05 -10.4L-48 -9.15L-50.25 -8.95L-50.25 -7.9L-50.1 -6.45Q-50.1 -5.7 -49.7 -5.5L-48.65 -5.3Q-48.05 -5.25 -48.2 -4.6L-48.2 -3.8Q-48.05 -3.35 -47.25 -3.25L-44.1 -3.25L-44.1 -5.45L-43.4 -5.45L-42.95 -5.3" />
<path style="fill:#9F7A9F;fill-opacity:1" d="M-64.95,-11.85L-65.1 -11.9L-65.05 -12.1L-64.95 -11.85" />
<path style="fill:#C9C5C5;fill-opacity:1" d="M-41.35,0.65L-64.25 1.5L-64.4 1.1L-64.45 0.65L-64.6 -0.35L-64.65 -0.9Q-64.55 -1.75 -64.15 -2.1L-62.9 -2.95L-62.7 -1.8Q-62.45 -0.5 -60.7 -0.35L-58.35 -0.5L-56.2 -0.7Q-54.45 -0.65 -53.9 -1.05Q-53.3 -1.35 -53.25 -2.7L-53.25 -2.75L-53.2 -3.7L-51.6 -4.05L-50.25 -3.3L-48.95 -2.6Q-46.3 -1.2 -45.3 -1.1Q-43.75 -0.95 -42 -2.65Q-40.75 -3.85 -39.7 -4.15L-38.75 -4.25L-38.65 -4.25L-38.45 -1.3L-38.85 0.35L-41.35 0.65" />
<path style="fill:#E26161;fill-opacity:1" d="M-59.45,-17.5Q-59.35 -18.8 -55.3 -19.15L-54.55 -19.25L-51.1 -19.3L-50.4 -19.25L-49.7 -19.15L-49.65 -19.15Q-47.75 -18.95 -46.95 -18.35Q-45.7 -17.4 -45.9 -14.9L-47.65 -14.7L-48 -15.8Q-48.6 -17.85 -49.9 -17.95L-51.2 -17.95Q-54.05 -17.85 -59.15 -16.5L-59.45 -17.5M-33.7,-11.35L-33.5 -11.5L-33 -11.9L-32.55 -12.1L-32.05 -12.2L-31.75 -10.45Q-31.5 -9.3 -31.55 -8.5L-32.3 -8.3L-33.7 -11.35M-38.85,0.35L-38.95 0.65L-39.65 1.8L-39.85 1.8L-43.7 2.2L-46.9 2.6L-51.8 2.6L-56.7 2.8L-61.2 2.95L-63.4 2.85L-64.25 1.5L-41.35 0.65L-38.85 0.35M-48,-11.5Q-47.8 -11.95 -47 -11.85L-44.55 -11.9Q-44 -11.9 -43.95 -10.85L-43.95 -9.35L-42.65 -9.4Q-41.95 -9.4 -41.75 -8.6L-41.75 -7.05L-41.75 -5.9Q-41.9 -5.3 -42.5 -5.3L-42.95 -5.3L-43 -6.25Q-43 -8.1 -43.95 -8.15L-44.95 -8.4Q-45.25 -8.65 -45.35 -9.35Q-45.45 -10 -46 -10.45Q-46.4 -10.85 -46.9 -10.85L-48.05 -10.6L-48 -11.5" />
<path style="fill:#C63333;fill-opacity:1" d="M-59.15,-16.5Q-54.05 -17.85 -51.2 -17.95L-49.9 -17.95Q-48.6 -17.85 -48 -15.8L-47.65 -14.7L-49.55 -14.6L-49.6 -14.6L-54.8 -14.4L-55.7 -14.55L-57.7 -14.35L-59.55 -14.35L-59.45 -16.4L-59.15 -16.5M-34.75,-11.2L-34.55 -11.15L-33.7 -11.35L-32.3 -8.3L-32.45 -8.25L-33.35 -8L-34.55 -9.4L-35.55 -10.85L-34.75 -11.2M-39.65,1.8L-40.65 2.8Q-42.4 4.05 -44.7 4.15L-49.55 4.45L-49.65 4.5L-53.9 4.65L-60.35 4.4Q-62.35 4 -63.4 2.85L-61.2 2.95L-56.7 2.8L-51.8 2.6L-46.9 2.6L-43.7 2.2L-39.85 1.8L-39.65 1.8M-43.4,-5.45L-44.1 -5.45L-44.1 -3.25L-47.25 -3.25Q-48.05 -3.35 -48.2 -3.8L-48.2 -4.6Q-48.05 -5.25 -48.65 -5.3L-49.7 -5.5Q-50.1 -5.7 -50.1 -6.45L-50.25 -7.9L-50.25 -8.95L-48 -9.15L-48.05 -10.4L-48.05 -10.6L-46.9 -10.85Q-46.4 -10.85 -46 -10.45Q-45.45 -10 -45.35 -9.35Q-45.25 -8.65 -44.95 -8.4L-43.95 -8.15Q-43 -8.1 -43 -6.25L-42.95 -5.3L-43.4 -5.45M-32.4,-14.8L-32.45 -15.1L-32.4 -15.5L-32.1 -16.1L-31.9 -16.25L-31.1 -16.5L-30.45 -16.3L-30.15 -16.1L-30 -15.95L-29.75 -15.1L-29.75 -14.85L-30.05 -14.2L-30.15 -14.1Q-30.55 -13.7 -31.1 -13.7L-31.65 -13.8L-32.1 -14.1L-32.4 -14.8M-30.7,-15.95L-31.3 -15.8L-31.35 -15.6Q-31.35 -15 -30.5 -15Q-30 -15 -30 -15.45Q-30 -15.8 -30.45 -15.9L-30.65 -15.95L-30.7 -15.95" />
<path style="fill:#BBB9B9;fill-opacity:1" d="M-54.75,-22.1L-54.75 -22.25Q-54.7 -22.75 -54.25 -22.95L-53.05 -22.1L-52.6 -21.85Q-51.85 -21.4 -51.45 -20.7Q-51.1 -20.1 -51.1 -19.3L-54.55 -19.25L-54.75 -20.7L-54.75 -22.1" />
<path style="fill:#705470;fill-opacity:1" d="M-59.15,-16.5L-59.45 -16.4L-59.45 -17.5L-59.15 -16.5" />
<path style="fill:#878686;fill-opacity:1" d="M-56.5,-7.15Q-57.75 -7.25 -57.95 -9.8Q-57.9 -11.35 -56.75 -10.55Q-55.65 -9.85 -55.7 -8.5L-55.8 -7.7Q-55.95 -7.1 -56.5 -7.15" />
<path style="fill:#BBB7B7;fill-opacity:1" d="M-30.45,-16.35L-30.45 -16.3L-31.1 -16.5L-31.9 -16.25L-32.15 -16.85L-32.45 -17.45L-32.5 -17.4L-32.7 -18.9Q-32.7 -19.55 -32.35 -19.95Q-32 -20.4 -31.35 -20.4Q-30.35 -20.4 -30.35 -17.8L-30.35 -16.75L-30.45 -16.35M-29.55,-14.95L-29.45 -15.05L-29.15 -15.05L-27.8 -14.95L-27.75 -14.95L-26.45 -14.35Q-25.9 -14.05 -25.7 -13.5Q-25.55 -12.95 -25.9 -12.4Q-26.4 -11.55 -28.6 -12.9L-29.8 -13.8L-30.05 -14.2L-29.75 -14.85L-29.55 -14.95M-32.1,-14.1L-31.65 -13.8L-31.75 -13.65L-32.4 -12.5L-32.4 -12.45L-33 -11.9L-33.5 -11.5L-33.7 -11.35L-34.55 -11.15L-34.75 -11.2L-35.5 -11.8Q-36.05 -12.6 -33.85 -14.1L-32.6 -14.75L-32.4 -14.8L-32.1 -14.1M-26.9,-13.35Q-27.9 -14 -28.2 -13.5Q-28.4 -13.2 -27.75 -12.85L-26.8 -12.75Q-26.3 -13 -26.9 -13.35M-31.15,-19.45Q-31.6 -19.7 -31.6 -19.05Q-31.65 -17.85 -31.1 -17.85Q-30.7 -17.85 -30.7 -18.65Q-30.7 -19.2 -31.15 -19.45M-34.35,-13.3Q-34.8 -13 -34.85 -12.5Q-34.75 -11.95 -34.2 -12.35Q-33.3 -12.95 -33.55 -13.45L-34.35 -13.3" />
<path style="fill:#FFF7F7;fill-opacity:1" d="M-26.8,-12.75L-27.75 -12.85Q-28.4 -13.2 -28.2 -13.5Q-27.9 -14 -26.9 -13.35Q-26.3 -13 -26.8 -12.75M-30.7,-18.65Q-30.7 -17.85 -31.1 -17.85Q-31.65 -17.85 -31.6 -19.05Q-31.6 -19.7 -31.15 -19.45Q-30.7 -19.2 -30.7 -18.65M-33.55,-13.45Q-33.3 -12.95 -34.2 -12.35Q-34.75 -11.95 -34.85 -12.5Q-34.8 -13 -34.35 -13.3L-33.55 -13.45" />
<path style="fill:#EC8484;fill-opacity:1" d="M-30.65,-15.95L-30.45 -15.9Q-30 -15.8 -30 -15.45Q-30 -15 -30.5 -15Q-31.35 -15 -31.35 -15.6L-31.3 -15.8L-30.7 -15.95L-30.65 -15.95" />
<path style="fill:#BFBFC2;fill-opacity:1" d="M-3.55,-18.3L-2.4 -15.55L-2.25 -15.1L-3.95 -13.6L-5.2 -12.65L-6.15 -12.25L-11.2 -10.6L-12.75 -10.1L-13.95 -9.75L-15.15 -9.55L-16.25 -9.4L-17.35 -8.85L-17.45 -9.15L-21.4 -7.55L-21.8 -8.5L-21.85 -8.6L-22.65 -10.6L-20.7 -11.4L-19.25 -12L-18.45 -12.3L-15.2 -13.65L-13.5 -14.35L-10.75 -15.45L-9.35 -16L-5.4 -17.65L-3.7 -18.35L-3.6 -18.4L-3.55 -18.3" />
<path style="fill:#A2A2A3;fill-opacity:1" d="M-10.8,-7.55L-15.75 -5.55L-19.9 -3.85L-19.95 -3.95L-20.3 -4.9L-20.85 -6.25L-16.9 -7.85L-17.35 -8.85L-16.25 -9.4L-15.15 -9.55L-13.95 -9.75L-12.75 -10.1L-11.2 -10.6L-6.15 -12.25L-5.2 -12.65L-3.95 -13.6L-2.25 -15.1L-0.85 -11.65L-6.8 -9.2L-8.3 -8.6L-10.8 -7.55" />
<path style="fill:#393943;fill-opacity:1" d="M-13.5,-14.35L-15.2 -13.65L-16.05 -13.85L-16.05 -15.7L-16.05 -16.85L-15.95 -17.1L-15.9 -17.35L-15.85 -17.45L-15.65 -17.7Q-15.3 -18.15 -14.75 -18.15Q-13.55 -18.15 -12.9 -17.75L-14.45 -17.15L-14.2 -16.35L-13.5 -14.35" />
<path style="fill:none;stroke-width:1;stroke-linecap:butt;stroke-linejoin:miter;stroke-miterlimit:3;stroke:#585454;stroke-opacity:1" d="M-9.75,-52.9Q-9.4 -56.4 -6.7 -56.15L4.25 -55.55L12.85 -55.2L14 -55.2Q14.7 -54.8 15.15 -53.7L15.2 -53.65L15.6 -53.7M17.75,-51.9L18.9 -51.9Q20.25 -51.6 20.45 -51.25L20.55 -49.65L20.55 -47.2L20.4 -45.15Q20.35 -44.6 19.35 -44.2L17.6 -44.1L17.6 -44.15M15.5,-45.75L15.35 -44.65L14.8 -43.15Q14.05 -42.1 12.65 -41.85L7.3 -41.15L7.45 -40.5L8.1 -37.4L8.3 -37.65L11.4 -40.85M11.65,-40.7Q11.9 -40.95 12.3 -40.95Q14.1 -40.95 15.3 -36.7Q16.2 -33.45 16.2 -30.8L16.1 -29.05Q15.9 -28.1 15.35 -27.9L15.05 -27.6Q12 -26.9 9.6 -28.15L9.9 -25.9M14.85,-20.45L14.85 -19.75L14.75 -16.7L14.65 -14.9L14.65 -14.85L14.15 -9.8M15.85,-4.3L15.8 -4.15M15.25,-4.15L15.15 -2.4L15.1 -1.1L16.7 -1.05L22.2 -0.5L23.2 -0.25L24.4 0.65M28.9,-2.35L29.05 -3.15Q30.1 -8.4 31 -11.15L31.25 -11.95L30.4 -12.65Q28.55 -14.85 28.05 -17.15M27.95,-19.8Q28 -22.1 28.35 -23.75L29.05 -25.95Q29.6 -27.1 30.45 -27.7L30.8 -27.9Q31.95 -28.6 33.8 -28.65L39.85 -27.65L45.65 -26.55L49.7 -25.95L52.9 -25.4Q54.65 -25.2 55.2 -24.3M55.3,-16.35L54.9 -14.85L54.9 -14.75L54.65 -14.55L49.7 -13.3L48.2 -12.95L48.2 -12.75L49.5 -5.2L49.75 -3.8M63.8,5.9Q63.05 9.55 60.55 11.65L57.85 13.5L56.45 14.3Q52.55 16.45 51.15 17.35Q41.15 23.65 36.15 31.75L36.25 31.8Q35.55 32.75 33.4 39.2L32.75 41.65L32.35 43.1Q30.9 48.5 29.95 50.35Q28.75 52.8 23.6 53.3L13.65 54.15Q8.85 54.55 4 54.1L-2.8 53.55L-9.65 53.7Q-13.9 53.85 -16.6 53.55Q-21 53.1 -30.7 53.85Q-39.05 53.95 -42.8 50.1Q-44.65 48.2 -45.5 44.7L-45.8 43.3L-46.3 40.05L-46.55 38.25Q-47.7 29.85 -51.6 27.75Q-56.95 24.85 -60.05 20.2L-61.05 18.55Q-62.3 16.1 -62.65 13.5L-62.75 10.5M-25.9,4.7L-26.05 2.7L-26.3 0.65L-26.35 0.55L-25.9 -0.45Q-25.9 -2.35 -21.1 -2.35L-21.2 -2.7M-23.5,-2.7L-24.1 -4.05M-24.15,-10.1L-24.75 -11.7L-25.2 -12.85L-22.1 -14.25L-19.25 -12L-18.45 -12.3L-18.5 -15.5L-18.5 -15.7L-18.5 -16.65L-18.45 -17.55Q-18.45 -20.05 -18.25 -20.7M-16.2,-26.15L-16.15 -26.85L-16.25 -26.85L-19.75 -27.9L-20.4 -28.15L-20.75 -28.25Q-21.25 -28.4 -21.65 -28.7Q-22.5 -29.35 -22.5 -30.55Q-22.5 -33.2 -20.5 -35.95Q-19.05 -38.1 -17.05 -39.45L-16.8 -39.6L-16.25 -39.95L-14.85 -40.55L-12.65 -40.95Q-11.05 -40.95 -10.5 -40.5L-10.05 -39.95L-9.85 -39.3L-9.55 -38.65L-9.25 -37.9L-9.2 -38.15Q-8.7 -39.15 -8.35 -40.55Q-9.1 -41.45 -9.45 -43.15M-9.75,-52.9L-9.8 -51.75L-9.8 -50.85L-9.75 -47.75L-9.6 -44.05L-9.45 -43.15M-8.35,-40.55L-8.05 -42.1L-8 -42.35L-7.5 -45.75L-7.35 -46.25L-6.8 -47.6L-6.4 -48.2Q-5.3 -49.45 -3.25 -49.6L-2.85 -49.6L-1.7 -49.55Q3.1 -49.5 4.25 -48.6Q4.9 -48.1 5.6 -46.6M15.5,-45.75L15.55 -49.8L15.6 -51.3L15.6 -52.05L15.25 -53.55L15.2 -53.65M31.25,-11.95L31.5 -12.85L32.35 -16.85L32.8 -19.8Q33.25 -21.2 34.15 -22.05L35.25 -22.85Q36.75 -23.7 39.1 -23.7L40.35 -23.65Q44.9 -23.55 45.95 -22.1L46.45 -20.85L47.75 -15.2L48.2 -12.95M55.35,-23.65L55.2 -24.3M11.65,-40.7L11.3 -40.2L11.1 -39.65L11.1 -39.6L11 -38.6L11 -38.1L11.1 -36.4L13.05 -35.65Q14.25 -35.05 14.25 -34.3Q14.25 -33.5 13.55 -32.7L12.6 -31.95L11.95 -31.55L12 -31.45Q13.15 -27.85 15 -27.85L15.35 -27.9M6.2,-25.95Q6.35 -27.45 6.8 -29.15L6.85 -29.4L7.15 -30.65Q6.55 -31.95 6.55 -33.55Q6.55 -34.7 7.1 -35.85L8.1 -37.4M1.75,-40.35L1.8 -40.4L2.15 -40.8L2.85 -42L2.95 -42.8L2.9 -43.35L2.55 -44.05L1.9 -44.55L1.7 -44.65L-0.25 -45.05L-1.55 -44.75L-2.35 -44.15L-2.5 -43.85L-2.75 -43.3L-2.85 -42.7Q-2.85 -41.45 -1.85 -40.5L-1.1 -40L0 -39.75Q1 -39.75 1.75 -40.35M7.3,-41.15Q6.45 -44.7 5.6 -46.6M9.1,-25.9L9.55 -28.2L9.6 -28.3L9.65 -28.8L10.1 -31.5L10 -32.8Q9.8 -33.55 9.1 -33.55L8.85 -33.5M9.55,-28.2L9.6 -28.15M11.75,-32.3Q11.25 -34.3 11.1 -36.4M7.15,-30.65L7.9 -32.7L8.35 -33.2L8.45 -33.3L8.75 -33.45L8.85 -33.5M11.75,-32.3L11.95 -31.55M14.05,-14.9L6.85 -14.7L2.5 -14.75Q1.65 -13.15 0 -12.1L1.1 -10.2M3.05,-16.25L3.2 -16.85L3.25 -17.05Q1.55 -18.15 -0.05 -18.45L-3.55 -18.3L-2.4 -15.55M3.05,-16.25L2.5 -14.75M2.05,-8.4L1.2 -10.05L1.1 -10.2M2.05,-8.4L2.65 -6.9L1.65 -6.1L-2.4 -4.2L-2.5 -4.2L-2.55 -4.15L-2.75 -4.05L-3.1 -3.75L-4.25 -2.25L-4.55 -1.5M14.85,-1.15L15.1 -1.1L15.1 -1.05L14.85 -1.15L10.35 -1.1L4.25 -1.35L-1.15 -1.7L-4.55 -1.5L-4.65 -1.25L-4.95 0.35L-4.95 0.45Q-4.9 1.5 -4.3 2.4L-3.5 3.3Q-1.8 4.5 -1.15 5.2L-0.55 5.25Q1.6 5.4 2.9 6.05M25.2,2.3Q24.95 1.3 24.4 0.65M15.15,-4.3L14.9 -2.7M42.05,-13.5L42.15 -13.65L42.75 -14.65L42.95 -16.55Q42.95 -17.85 42.15 -18.6Q41.35 -19.45 40.1 -19.45Q38.9 -19.45 38.05 -18.8L37.9 -18.6L37.8 -18.6L37.1 -18L36.55 -17.35Q36.3 -16.9 36.3 -15.4L36.3 -15.25Q36.35 -13.9 37.1 -13.35Q37.8 -12.75 39.35 -12.75Q41.2 -12.75 42.05 -13.5M27.95,-19.8L27.9 -18.7Q27.9 -17.9 28.05 -17.15M3.5,12.2L3.75 12.2L4.85 12.25L8 12.15L10.65 12.05L10.75 12.05L11.45 12.3M63.8,5.9L64.1 2.55L64.1 2.4M44.65,7.1L44.6 7.1L44.45 7.2Q43.15 7.9 41.55 9.3Q39.1 11.5 39.1 13.15L39.2 13.5L39.8 14.15L41.25 14.45Q43.15 14.45 44.6 13.5L46.05 12.15Q47.5 10.3 47.5 8.5Q47.5 7.65 45.6 7.05L45.25 7L45.35 7.1Q45.15 6.95 44.65 7.1M-18.7,8.2L-18.75 8.85L-4.5 8.85L4.35 8.8L4.35 8.5L4.35 8.45M-18.7,8.2L-18.65 8L-19.25 7.95M-25.8,22.95L-25.85 21.3L-25.8 17.95Q-25.7 15.8 -24.95 15.15L-22.35 15.2Q-22 13.1 -20.75 12.9L-19.45 12.9L-17.3 12.8L-17.2 12.8L-17.15 12.8M-11.8,12.55L-11.6 12.5Q-8.7 12.3 -4.55 12.45M2.9,6.05Q3.85 6.55 4.35 7.35L4.35 8.45M4.35,8.5L5.7 8.6L6.3 8.65L10.5 8.7M13.6,21.55L13.55 15.3Q13.35 13.2 11.45 12.3M13.6,21.55L13.6 23.45L13.6 26.9Q14 29.7 11.3 30.6L8.15 30.5L8.05 30.5L5.1 30.45L3.95 30.55M8.05,21.1L8 12.15M3.65,30.55L3.5 30.55M-1.85,30.5L-11.6 30.4L-11.95 30.35L-12.15 30.35M-17.4,30.45L-18.15 30.45Q-22.15 30.45 -22.55 26.95L-22.55 27.1Q-25.05 27.95 -25.65 25.55L-25.7 25.15M8.05,21.1L8.05 30.5M-1.55,-44.75L-1.85 -44.55L-2.35 -44.15M-9.8,-38.5Q-9.8 -37.55 -10.3 -36.45Q-10.6 -35.7 -11.2 -34.85L-11.2 -34.8L-12.15 -33.5L-13.25 -32.2M-16.15,-26.85L-14.5 -26.7L-14 -26.7L-11.7 -27.1Q-10.8 -27.45 -10.1 -28.05L-11.2 -29.45L-11.25 -29.5L-11.5 -29.95L-11.65 -30.4Q-11.65 -30.9 -11 -31.45L-10.8 -31.6L-10.75 -31.65Q-10.25 -32 -9.8 -32Q-9.2 -32 -8.4 -31Q-8.05 -32.3 -8.05 -34L-8.85 -36.85L-9.25 -37.9M-9.8,-38.5L-9.85 -39.3M-11.65,-35.1L-14.65 -35.55L-15.4 -35.65Q-15.9 -35.65 -16.25 -35.1L-16.5 -34.2L-16.5 -34.05L-16.35 -33.2L-16 -32.3L-15.2 -30.35L-13.35 -32.15L-13.25 -32.2M-19.7,-28.15Q-18.5 -28.15 -17.05 -29Q-16.15 -29.5 -15.2 -30.35M-19.7,-28.15L-20.75 -28.25M-11.7,-27.1L-11.85 -26.05M-14,-26.7L-13.95 -26.1M-8.85,-26.05Q-9.05 -26.8 -9.95 -27.85L-10.1 -28.05M-8.4,-31L-8.15 -30.7L-7.1 -29.3Q-6.5 -28.8 -6.3 -27.35L-6.25 -26M-24.15,-10.1L-23.5 -8.45L-23.35 -8L-22.1 -8.5L-21.85 -8.6L-22.65 -10.6L-20.7 -11.4L-19.25 -12M-21.85,-8.6L-21.8 -8.5L-21.4 -7.55L-17.45 -9.15L-17.35 -8.85M-10.8,-7.55L-8.3 -8.6L-6.8 -9.2L-0.85 -11.65L-2.25 -15.1L-2.4 -15.55M-20.3,-4.9L-20.85 -6.25L-22.5 -5.6L-23.05 -6.9L-21.4 -7.55M-16.25,-2.9L-16.2 -3.2L-15.75 -5.55L-19.9 -3.85L-19.95 -3.95L-20.3 -4.9L-21.2 -4.45L-21.8 -4.15L-21.7 -3.95L-21.2 -2.7M-20.85,-6.25L-16.9 -7.85L-17.35 -8.85M-5.4,-17.65L-9.35 -16L-10.75 -15.45L-13.5 -14.35L-15.2 -13.65L-18.45 -12.3M-5.4,-17.65L-3.7 -18.35L-3.6 -18.4L-3.55 -18.3L-3.7 -18.35M-0.05,-18.45L-0.15 -20.7M-16.05,-15.7L-16.1 -16.65L-16.05 -16.85M-15.9,-17.35L-15.85 -17.45L-15.65 -17.7Q-15.3 -18.15 -14.75 -18.15Q-13.55 -18.15 -12.9 -17.75L-12.25 -18.05L-10.8 -17.05L-9.35 -16M-12.9,-17.75L-14.45 -17.15L-14.2 -16.35M-13.5,-14.35L-14.2 -16.35M-16.25,-2.9L-16.55 -1.3L-18.05 -0.6L-17.15 0.65L-16.15 1.35L-13.95 0.55L-13.4 0.35L-8.8 -1.5L-6.7 -2.4Q-4.65 -3.25 -3.1 -3.95L-2.8 -4.05L-2.55 -4.15M-9.7,-5.25L-10.05 -6.05L-10.8 -7.55L-15.75 -5.55M-9.7,-5.25L-9.5 -4.75L-7.6 -5.7L-7.5 -5.95L-6.8 -9.2M-18.65,8Q-18.35 6.55 -17.25 6.2L-13.4 6L-9.75 5.65L-9.4 5.6L-8.45 5.5L-5.45 5.3L-5.25 5.3L-1.15 5.2M-13.4,6L-13.4 5.5L-13.4 0.55L-13.4 0.35M-3.9,12.45L-2 12.45M-3.9,12.45L-4.55 12.45M-22.55,16.4L-22.55 16L-22.5 16L-22.55 16.4L-22.55 17.1L-22.6 17.6L-22.8 19.25L-22.75 20.6L-22.65 22.55L-22.55 25L-22.55 25.9L-22.55 26.95M-22.5,16L-22.35 15.2M-25.8,22.95L-25.7 25.15M-62.7,10.5L-62.7 10.95L-61.35 10.95M-18.05,-0.6L-20.1 0.25L-21.1 -2.35M-0.85,-11.65L0 -12.1" />
<path style="fill:none;stroke-width:1;stroke-linecap:butt;stroke-linejoin:miter;stroke-miterlimit:3;stroke:#C65307;stroke-opacity:1" d="M15.6,-53.7Q17.3 -53.7 17.65 -52.35L17.75 -51.9M17.85,-47L17.75 -44.95L17.6 -44.15Q17.15 -42.75 16 -42.75Q15.05 -42.75 14.8 -43.15M-9.45,-43.15L-10.95 -43.05Q-12.1 -43.05 -12.4 -43.8L-12.65 -45.9L-13.05 -50.35L-13.05 -50.7Q-12.95 -51.95 -12.4 -52.45Q-11.85 -52.95 -10.4 -52.95L-10 -52.85M17.85,-47L17.85 -48.75L17.85 -50L17.75 -51.9" />
<path style="fill:none;stroke-width:1;stroke-linecap:butt;stroke-linejoin:miter;stroke-miterlimit:3;stroke:#91491A;stroke-opacity:1" d="M9.9,-25.9L11.2 -25.9L13.3 -25.85L16.4 -25.85Q18.25 -25.9 18.75 -25.35Q19.1 -25 19.1 -23.65L19.05 -22.45L18.8 -21.55L18.6 -21.2L18.35 -20.7Q18.15 -20.45 17.65 -20.45L15.9 -20.45L14.85 -20.45M1.1,-10.2L4.2 -10.2L13.1 -9.9L14.15 -9.8Q16.2 -9.6 16.65 -9.25Q17.2 -8.9 17.2 -7.1L17.1 -5.5L16.95 -5.05Q16.6 -4.45 15.85 -4.3M26.5,0.65L27.25 -0.35L28.5 -1.9L28.9 -2.35M49.75,-3.8L51.2 -3.8L62.25 -3.8L67.05 -3.6L67.7 -1.15L67.65 0.55L67.65 0.65M-62.75,10.5L-64.85 9.95Q-65.2 9.65 -65.25 7.2L-65.25 6.85L-65.15 5.75L-64.85 4.65L-25.9 4.7M-24.1,-4.05L-24.15 -4.05Q-25.95 -4.35 -25.9 -5.5L-25.6 -8.25L-25.6 -8.45L-25.55 -9.1L-25.5 -9.1L-25.5 -9.55L-25.05 -10.05L-24.15 -10.1M-0.15,-20.7L-11.2 -20.8L-11.8 -20.8L-17 -20.65L-18.25 -20.7L-19.65 -20.8Q-20.75 -20.8 -21.35 -21.25Q-21.85 -21.8 -21.85 -22.5L-21.5 -24.45L-21.45 -24.65L-21.35 -25.55L-21.35 -25.95L-20.5 -26.05L-17.35 -26.15L-16.2 -26.15M8.25,-25.9L9.1 -25.9M9.9,-25.9L9.1 -25.9M8.25,-25.9L6.2 -25.95L-6.25 -26L-6.45 -26L-8.85 -26.05L-11.85 -26.05L-13.95 -26.1L-14.25 -26.1L-16.2 -26.15M-0.15,-20.7L7.25 -20.65L11.65 -20.55L14.85 -20.45M-2.75,-4.05L-2.35 -4.05L4.4 -4.1L8.85 -4.05L15.15 -4.3L15.35 -4.3L15.55 -4.3L15.85 -4.3M20.75,6.2L21.15 6.05L23.05 4.75L24.25 3.45L25.2 2.3M11.45,12.3L13.45 12.4L15.9 12.35L16.85 12.3L20.6 12.15Q22.6 12.1 24.2 11L24.35 10.95L24.6 10.75L26.1 9.6L28.2 7.45L30.45 4.7Q31.35 3.45 33 2.95L33.4 2.85L37.3 2.4L40.4 2.35L42.3 2.35L43.25 2.3L43.8 2.3L45.4 2.25L49.55 2.1L51.25 2.1L51.4 2.1Q57.05 2.1 59.2 2.25L63.05 2.4L63.35 2.4L64.1 2.4L66.9 2.4L67.4 2.4Q67.6 2.35 67.65 1.2L67.65 0.65M49.75,-3.8L49.55 -3.8L48.8 -3.8L44.9 -3.85L40.3 -3.95L34.6 -3.8L32.75 -3.75L31 -3.7Q29.95 -3.5 28.9 -2.35M20.75,6.2L18.8 6.45L14.05 6.35L13.25 6.35Q11.45 6.35 10.8 6.95L10.5 7.55L10.5 8.25L10.5 8.7L10.35 10.85L10.35 11Q10.35 11.75 10.65 12.05M26.5,0.65L25.8 1.5L25.2 2.3M-19.25,7.95L-19.35 9.3L-19.7 9.9L-19.8 9.95Q-20.2 10.3 -20.7 10.25L-23.45 10.35L-29.25 10.35L-29.55 10.35L-33.35 10.3M-17.4,30.2L-14.3 30.3L-13.8 30.25L-12.15 30.35L-12.2 34.85L-14.7 34.9L-16.65 34.85L-17.4 34.85Q-17.6 32.55 -17.4 30.45L-17.4 30.2L-17.3 26.9Q-17.15 24.95 -17.15 20.2L-17.15 12.8L-17.15 12.7L-17.15 12.45L-17.2 11.55L-17.2 11.25L-14.4 11.15L-11.9 11.05L-11.8 12.55M-1.85,30.65L1.9 30.65L3.5 30.65L3.5 30.55Q3.3 27.05 3.5 22.65L3.55 21.5L3.55 21.3L3.5 12.35L3.5 12.25L3.5 12.2L3.5 12.05L3.45 10.7L-1.85 10.5L-1.9 11.6M3.5,30.65L3.4 34.2L-1.8 34.3L-1.85 30.65L-1.85 30.5M-25.5,-9.1L-25.6 -8.45M-24.1,-4.05L-21.8 -3.95L-21.7 -3.95M-2,12.45L-2 12.25L-1.9 11.6M-19.25,7.95L-19.25 7.15L-19.25 5.55Q-19.25 5.3 -19.55 5.05L-19.95 4.7L-25.9 4.7M-12.15,30.35L-12 24.6L-11.9 21.3L-11.9 19.1M-11.9,18.4L-11.9 17.9L-11.9 17.7L-11.8 12.55M-2,12.45L-2.05 18.6L-2 25.4L-1.85 30.5M-62.75,10.5L-62.7 10.5L-60.85 10.55L-56.65 10.55L-52.95 10.65L-49.95 10.6L-45.5 10.35L-44.15 10.45L-35.65 10.3L-33.35 10.3" />
<path style="fill:none;stroke-width:1;stroke-linecap:butt;stroke-linejoin:miter;stroke-miterlimit:3;stroke:#776313;stroke-opacity:1" d="M28.05,-17.15Q27.15 -17 26.55 -17.65Q25.8 -18.35 25.8 -19.8L25.8 -20.65L25.8 -20.7L26.15 -22.45Q26.55 -23.55 27.4 -23.65L28.35 -23.75" />
<path style="fill:none;stroke-width:1;stroke-linecap:butt;stroke-linejoin:miter;stroke-miterlimit:3;stroke:#56470D;stroke-opacity:1" d="M55.2,-24.3Q55 -25.8 55.55 -26.25Q55.9 -26.65 57.4 -26.75Q59.5 -26.8 59.95 -25.6L60.1 -21.85L59.9 -18.65L59.9 -18.25L59.65 -16L59.65 -15.25Q59.55 -11.95 56.75 -11.9Q55.7 -11.85 55.3 -12.25Q54.9 -12.7 54.9 -13.9L54.9 -14.75Q55.2 -15.2 55.3 -16.35L55.4 -17.25L55.4 -17.4L55.45 -19.2L55.45 -20.65L55.35 -23.65M55.2,-24.3L55.3 -24.1L55.35 -23.65" />
<path style="fill:none;stroke-width:1;stroke-linecap:butt;stroke-linejoin:miter;stroke-miterlimit:3;stroke:#8D8DB1;stroke-opacity:1" d="M25.6,13.75L24.6 10.75M25.6,13.75Q26.65 16.45 28.45 18.7Q32.4 23.65 39.8 26.2M-33.35,10.3L-33.45 14.9L-33.7 25.4M-4.55,12.45L-4.5 8.85M8.15,30.5L8.25 39.45M18.4,39.35L28.45 18.7M-25.7,25.15L-33.7 25.4L-37.95 25.55L-38.7 39.45M-4.6,14.7L-4.6 15.1" />
<path style="fill:none;stroke-width:1;stroke-linecap:butt;stroke-linejoin:miter;stroke-miterlimit:3;stroke:#545353;stroke-opacity:1" d="M-54.75,-20.7L-70.8 -20.5L-70.75 -21.85L-54.75 -22.1M-50.15,-22.15L-34.2 -22.4L-34.05 -20.95L-49.9 -20.75M-31.65,-13.8L-32.1 -14.1L-32.4 -14.8L-32.45 -15.1L-32.4 -15.5L-32.1 -16.1L-31.9 -16.25L-32.15 -16.85L-32.45 -17.45L-32.5 -17.4L-32.7 -18.9Q-32.7 -19.55 -32.35 -19.95Q-32 -20.4 -31.35 -20.4Q-30.35 -20.4 -30.35 -17.8L-30.35 -16.75M-31.9,-16.25L-31.1 -16.5L-30.45 -16.3L-30.15 -16.1L-30 -15.95L-29.75 -15.1L-29.75 -14.85L-29.55 -14.95L-29.45 -15.05L-29.15 -15.05L-27.8 -14.95L-27.75 -14.95L-26.45 -14.35Q-25.9 -14.05 -25.7 -13.5Q-25.55 -12.95 -25.9 -12.4Q-26.4 -11.55 -28.6 -12.9L-29.8 -13.8M-29.75,-14.85L-30.05 -14.2L-29.8 -13.8M-30.05,-14.2L-30.15 -14.1Q-30.55 -13.7 -31.1 -13.7L-31.65 -13.8L-31.75 -13.65L-32.4 -12.5L-32.4 -12.45L-33 -11.9M-30.45,-16.3L-30.45 -16.35L-30.35 -16.75M-32.4,-14.8L-32.6 -14.75L-33.85 -14.1Q-36.05 -12.6 -35.5 -11.8L-34.75 -11.2L-34.55 -11.15L-33.7 -11.35L-33.5 -11.5L-33 -11.9" />
<path style="fill:none;stroke-width:1;stroke-linecap:butt;stroke-linejoin:miter;stroke-miterlimit:3;stroke:#4D4B4B;stroke-opacity:1" d="M-65.1,-11.9L-65.05 -12.1L-64.8 -13Q-64.3 -14 -62.65 -14.35L-59.55 -14.35L-59.45 -16.4L-59.45 -17.5Q-59.35 -18.8 -55.3 -19.15L-54.55 -19.25L-54.75 -20.7L-54.75 -22.1L-54.75 -22.25Q-54.7 -22.75 -54.25 -22.95L-53.6 -23.15L-52.15 -23.1Q-50.45 -23 -50.15 -22.15L-50.1 -21.8L-49.9 -20.75L-49.8 -20.45Q-49.6 -19.65 -49.7 -19.15L-49.65 -19.15Q-47.75 -18.95 -46.95 -18.35Q-45.7 -17.4 -45.9 -14.9L-43.3 -15.15L-39.35 -15.75L-32.15 -16.85M-30.35,-16.75L-30 -16.55L-29.7 -15.95L-29.55 -14.95M-29.8,-13.8Q-30.35 -13.05 -32.05 -12.3L-32.55 -12.1M-32.05,-12.2L-31.75 -10.45Q-31.5 -9.3 -31.55 -8.5L-32.3 -8.3L-32.45 -8.25L-33.35 -8L-34.55 -9.4L-35.55 -10.85L-36.55 -10.35L-37.55 -9.2Q-38.6 -7.75 -38.7 -5.85L-38.7 -5L-38.65 -4.25L-38.45 -1.3L-38.85 0.35L-38.95 0.65L-39.65 1.8L-40.65 2.8Q-42.4 4.05 -44.7 4.15L-49.55 4.45L-49.65 4.5L-53.9 4.65L-60.35 4.4Q-62.35 4 -63.4 2.85L-64.25 1.5L-64.4 1.1L-64.45 0.65L-64.6 -0.35L-64.65 -0.9Q-64.55 -1.75 -64.15 -2.1L-62.9 -2.95L-62.95 -3.55L-63.05 -5L-63.2 -7.65L-63.2 -8.7L-63.25 -8.95L-63.25 -9.55L-63.2 -9.65L-62.85 -10.65L-62.5 -11.05L-64.15 -11.15Q-64.9 -11.25 -64.95 -11.85M-65.05,-12.1L-64.95 -11.85M-38.8,-13.55L-39.35 -15.75M-63.2,-9.65L-63.2 -8.7M-53.25,-2.7L-53.25 -2.75L-53.2 -3.7L-53.5 -5.95L-53.95 -8.65Q-54.05 -10.65 -54.85 -11.35Q-55.45 -11.8 -57.1 -11.9Q-61.1 -12.2 -62.5 -11.05M-53.25,-2.7Q-53.3 -1.35 -53.9 -1.05Q-54.45 -0.65 -56.2 -0.7L-58.35 -0.5L-60.7 -0.35Q-62.45 -0.5 -62.7 -1.8L-62.9 -2.95M-51.1,-19.3L-50.4 -19.25L-49.7 -19.15M-47.65,-14.7L-45.9 -14.9M-47.65,-14.7L-49.55 -14.6L-49.6 -14.6L-54.8 -14.4L-55.7 -14.55L-57.7 -14.35L-59.55 -14.35M-51.1,-19.3L-54.55 -19.25M-33,-11.9L-32.55 -12.1M-38.8,-13.55L-37.55 -9.2M-35.55,-10.85L-34.75 -11.2M-64.25,1.5L-41.35 0.65L-38.85 0.35" />
<path style="fill:none;stroke-width:1;stroke-linecap:butt;stroke-linejoin:miter;stroke-miterlimit:3;stroke:#434141;stroke-opacity:1" d="M-42.95,-5.3L-42.5 -5.3Q-41.9 -5.3 -41.75 -5.9L-41.75 -7.05L-41.75 -8.6Q-41.95 -9.4 -42.65 -9.4L-43.95 -9.35L-43.95 -10.85Q-44 -11.9 -44.55 -11.9L-47 -11.85Q-47.8 -11.95 -48 -11.5L-48.05 -10.6L-48.05 -10.4L-48 -9.15L-50.25 -8.95L-50.25 -7.9L-50.1 -6.45Q-50.1 -5.7 -49.7 -5.5L-48.65 -5.3Q-48.05 -5.25 -48.2 -4.6L-48.2 -3.8Q-48.05 -3.35 -47.25 -3.25L-44.1 -3.25L-44.1 -5.45L-43.4 -5.45L-42.95 -5.3z" />
<path style="fill:none;stroke-width:1;stroke-linecap:round;stroke-linejoin:miter;stroke-miterlimit:3;stroke:#585454;stroke-opacity:1" d="M-15.9,-17.35L-15.95 -17.1L-16.05 -16.85L-16.05 -15.7L-16.05 -13.85L-15.2 -13.65" />
</g>
</svg>
