<?xml version="1.0" encoding="utf-8"?>
<svg version="1.1" id="Layer_1"
xmlns="http://www.w3.org/2000/svg"
xmlns:xlink="http://www.w3.org/1999/xlink"
xmlns:author="http://www.sothink.com"
width="24px" height="46px"
xml:space="preserve">
<g id="259" transform="matrix(1, 0, 0, 1, 9, 22.3)">
<path style="fill:#C5DBDB;fill-opacity:1" d="M-0.95,-16.2Q5.3 -21.8 13.85 -21.8L14.1 -21.8L14.1 -18.8Q10.05 -18.55 6.3 -17.2Q1.6 -15.55 0.4 -15.55Q-0.15 -15.55 -0.95 -16.2M-2.1,-1.6L-2.25 0.7Q-2.25 7.4 2.55 12.15Q7.3 16.9 14 16.9L14.1 16.9L14.1 19.7Q8.55 19.55 2.8 15.35Q-3.75 10.55 -3.75 4.5Q-3.75 0.1 -2.1 -1.6M14.25,-6.65L12.25 -6.75L11.95 -6.8L11.95 -8.55L14.25 -8.85L14.25 -6.65M11.4,2.95Q11.4 5.75 5 5.75L3.6 5.35L3.55 5.35Q4.05 4.45 4.95 3.7Q6 2.9 7.25 2.5L9.85 2.1L10.15 2.1L11.2 2.2L11.25 2.2L11.4 2.95" />
<path style="fill:#AABFBF;fill-opacity:1" d="M-3.75,4.5Q-3.75 10.55 2.8 15.35Q8.55 19.55 14.1 19.7L14.1 22.9L13.85 22.9Q4.6 22.9 -1.95 16.35Q-8.5 9.8 -8.5 0.55Q-8.5 -8.7 -1.95 -15.25L-0.95 -16.2Q-0.15 -15.55 0.4 -15.55Q1.6 -15.55 6.3 -17.2Q10.05 -18.55 14.1 -18.8L14.1 -15.5L14 -15.5Q7.3 -15.5 2.55 -10.75Q-1.4 -6.85 -2.1 -1.6Q-3.75 0.1 -3.75 4.5M14.25,12Q12.4 13.25 9.85 13.25L7.25 12.85L4.95 11.6Q2.9 10 2.9 7.7Q2.9 6.4 3.55 5.35L3.6 5.35L5 5.75Q11.4 5.75 11.4 2.95L11.25 2.2L11.5 2.15L11.8 2L11.85 1.7L11.95 -6.8L12.25 -6.75L14.25 -6.65L14.25 12" />
<path style="fill:none;stroke-width:1;stroke-linecap:butt;stroke-linejoin:miter;stroke-miterlimit:3;stroke:#70643A;stroke-opacity:1" d="M14.1,-15.5L14 -15.5Q7.3 -15.5 2.55 -10.75Q-1.4 -6.85 -2.1 -1.6L-2.25 0.7Q-2.25 7.4 2.55 12.15Q7.3 16.9 14 16.9L14.1 16.9M14.1,22.9L13.85 22.9Q4.6 22.9 -1.95 16.35Q-8.5 9.8 -8.5 0.55Q-8.5 -8.7 -1.95 -15.25L-0.95 -16.2Q5.3 -21.8 13.85 -21.8L14.1 -21.8M14.25,-8.85L11.95 -8.55L11.95 -6.8M11.25,2.2L11.2 2.2L10.15 2.1L9.85 2.1L7.25 2.5Q6 2.9 4.95 3.7Q4.05 4.45 3.55 5.35Q2.9 6.4 2.9 7.7Q2.9 10 4.95 11.6L7.25 12.85L9.85 13.25Q12.4 13.25 14.25 12M11.25,2.2L11.5 2.15L11.8 2L11.85 1.7L11.95 -6.8" />
</g>
</svg>
