<?xml version="1.0" encoding="utf-8"?>
<svg version="1.1" id="Layer_1"
xmlns="http://www.w3.org/2000/svg"
xmlns:xlink="http://www.w3.org/1999/xlink"
xmlns:author="http://www.sothink.com"
width="33px" height="35px"
xml:space="preserve">
<g id="7" transform="matrix(1, 0, 0, 1, 16.25, 17.05)">
<path style="fill:#FFFFFF;fill-opacity:1" d="M8.45,-10.25L11.5 -13.3L9.85 -10.9Q7.9 -7.8 7.9 -5.45Q7.9 -3.8 8.9 -2.55Q9.8 -1.55 12 -0.2L8.7 0Q7.5 0.55 7.5 2.3Q7.5 5.3 10.2 8.25L16.2 15L16 15L13.6 13.65L10.05 11.8L7.05 10.25Q5.5 9.55 4.05 9.55L4 9.55L2.65 9.5Q1.2 9.95 0.55 10.8L0.25 10.8L-0.05 9.25Q-0.3 8.85 -1.3 8.85Q-3.05 8.85 -7.5 11.25Q-12.2 13.75 -16.25 17.05Q-13.05 11.8 -11.2 10.3L-9.35 8.1Q-7.85 6.1 -7.85 5.4Q-7.85 4.65 -10.1 2.85L-12.8 0.95Q-10.35 1.1 -8.45 0.1Q-6.5 -0.95 -6.5 -2.65Q-6.5 -4.05 -7.8 -5.85L-10.7 -9.85L-14.75 -16.9L-14.75 -17.05L-10.2 -12.65Q-7.9 -10.6 -5.8 -10.6Q-4.9 -10.6 -4.45 -12Q-4.1 -13 -4.1 -14.15L-2.25 -9.85L-0.9 -7.95L-0.85 -7.7Q0 -6.35 1.9 -6.35Q4.25 -6.35 8.45 -10.25M1,-3.7Q0.1 -3.7 -1.25 -4.55L-2.7 -5.35L-2.2 -4.25Q-2.2 -3.5 -2.8 -2.8L-3.65 -1.85L-2.65 -1.15Q-2.15 -0.55 -2.15 -0.1Q-2.15 0.75 -2.75 1.5L-4.1 3.2Q-1.4 3.2 1.35 4.75L1.35 4.65Q1.55 3.1 2.4 1.9Q3.3 0.65 4.6 0.25L3.5 -0.9Q2.85 -1.8 2.85 -2.8L3 -4.1Q2.6 -3.7 1 -3.7" />
</g>
</svg>
