<?xml version="1.0" encoding="utf-8"?>
<svg version="1.1" id="Layer_1"
xmlns="http://www.w3.org/2000/svg"
xmlns:xlink="http://www.w3.org/1999/xlink"
xmlns:author="http://www.sothink.com"
width="91px" height="113px"
xml:space="preserve">
<g id="167" transform="matrix(1, 0, 0, 1, 38.8, 105.35)">
<path style="fill:#FF0000;fill-opacity:0" d="M-38.8,-105.35L51.45 -105.35L51.45 7.35L-38.8 7.35L-38.8 -105.35" />
<path style="fill:#B18266;fill-opacity:1" d="M-6.4,-94.85Q-4.4 -96.05 -1.45 -96.6L3.9 -97.05L4.85 -97L4.3 -99.1Q3.8 -101.3 2.05 -101.3L0.95 -101.05L-0.15 -100.8L-1.4 -101.05L-1.55 -102.5Q-1.45 -103.95 1.95 -103.95Q4.9 -103.95 5.35 -102L5.15 -97L6.45 -96.9L6.45 -96.85L6.05 -93.9L5.95 -93.35L5.85 -93.4L1.9 -93.95L-1.85 -93.55L-5.25 -93.2Q-6.95 -93.2 -7.55 -93.85L-7.65 -94L-6.4 -94.85M-11.3,-78.85L-3.65 -79.5L-3.6 -79.5L1.65 -79.6L10.9 -78.55L10.4 -75.9L10.25 -75.25L9.65 -75.45Q6.4 -76.6 1.9 -76.6L-8.15 -75.4L-17.1 -74.2L-19.4 -74.4L-19.65 -74.9L-19.2 -75.4Q-16.55 -77.9 -11.6 -78.8L-11.3 -78.85" />
<path style="fill:#91664D;fill-opacity:1" d="M3.9,-97.05L-1.45 -96.6Q-1.25 -98.85 -1.4 -101.05L-0.15 -100.8L0.95 -101.05L2.05 -101.3Q3.8 -101.3 4.3 -99.1L4.85 -97L3.9 -97.05M37.7,-63Q32.5 -62.35 28.1 -60.6L28.05 -62.7L28.3 -66.15L28.4 -69.85L32.4 -70.05L36.15 -69.7L36.8 -69.65L38.6 -69.55L39.4 -69.55L41.85 -69.6L41.85 -68L41.3 -68.05L38.65 -68.1L36.65 -68.05Q33.75 -67.8 33.75 -65.55Q33.75 -64.75 37.45 -64.75L41.9 -64.9L42 -63.35L37.7 -63M-21.05,-72.9L-19.65 -74.9L-19.4 -74.4L-17.1 -74.2L-8.15 -75.4L1.9 -76.6Q6.4 -76.6 9.65 -75.45L10.25 -75.25L10 -74.3Q9.4 -71.7 8.1 -70.3Q6.6 -68.6 3.95 -67.85L-0.3 -67.3Q-5.05 -67.4 -8.25 -62.85L-9 -61.7Q-10.2 -59.6 -10.8 -57.15Q-14.45 -57.6 -17.65 -59.35L-22 -62.2L-23.85 -63.35L-23.05 -67.4Q-22.25 -70.7 -21.05 -72.9M-11.75,-84.65L-11.45 -87L-11.45 -87.05L-10.6 -89.95Q-9.9 -91.65 -8.8 -92.9L-7.65 -94L-7.55 -93.85Q-6.95 -93.2 -5.25 -93.2L-1.85 -93.55L1.9 -93.95L5.85 -93.4L5.95 -93.35L5.45 -91.8Q4.35 -89.25 0.9 -88.9Q-1.85 -88.65 -2.85 -85.55L-3.35 -82.95L-5.25 -83.25L-11.75 -84.65M40.5,-74.95L35.95 -74.95L29.5 -74.85L29.3 -74.8Q28.65 -78.3 31.55 -78.3L36.75 -78.45L39.8 -78.25Q40.85 -77.7 40.5 -74.95" />
<path style="fill:#D2BEB3;fill-opacity:1" d="M39.4,-69.55L38.6 -69.55L36.8 -69.65L36.15 -69.7L32.4 -70.05L28.4 -69.85L28.35 -69.85L28.2 -69.85Q26.4 -69.85 26.4 -71.85L26.55 -73.45L26.65 -74.35L29.25 -74.8L29.3 -74.8L29.5 -74.85L35.95 -74.95L40.5 -74.95L40.7 -74.95Q43.35 -74.6 43.35 -72.45Q43.35 -70.2 42.55 -69.75L41.85 -69.6L39.4 -69.55M19.5,-75.4Q23.15 -73.25 23.25 -67.35Q22.75 -60.75 23.1 -58.1L22.4 -57.7L20.6 -56.4Q20.1 -58.25 19.8 -60.8L18.8 -68.3L17.4 -71.05L15.45 -73.25Q14.5 -74.05 12 -75.2L11.65 -78.35L10.75 -86.4Q9.85 -90.65 7.35 -92.9L6.05 -93.9L6.45 -96.85L6.45 -96.9Q10.35 -96.5 12 -94.65Q14.1 -92.35 14.1 -86.2L13.9 -82.45L13.6 -77.85Q17.1 -76.85 19.5 -75.4M8.4,-48.6L8.45 -47.35L8.4 -47.35L8.4 -48.6" />
<path style="fill:#332E2A;fill-opacity:1" d="M37.45,-64.75Q33.75 -64.75 33.75 -65.55Q33.75 -67.8 36.65 -68.05L38.65 -68.1L41.3 -68.05L41.85 -68L41.9 -64.9L37.45 -64.75" />
<path style="fill:#E2CEA8;fill-opacity:1" d="M-16.7,-52.9L-11.4 -52.8L-9.75 -52.75L-9.65 -52.75L-1.65 -52.45L13.65 -52Q14.7 -52 16.75 -53.5L17.1 -53.8L20.6 -56.4L22.4 -57.7L23.1 -58.1Q25.45 -59.55 28.1 -60.6Q32.5 -62.35 37.7 -63L42 -63.35L43.95 -63.4Q49.85 -63.4 49.85 -61.3Q49.85 -55.45 48.7 -52.95L48.35 -52.3L47.05 -51L46.15 -53.2Q45.65 -54.75 45.4 -56.25Q45.15 -57.85 44.55 -58.3L41.05 -58.8L32.15 -57.55Q25.85 -56.25 24.2 -55.4Q20.35 -53.3 17.95 -51.7L17.95 -51.65L15.9 -50.15L14 -49.75L13.55 -49.7L8.4 -49.55L-1.85 -50.3Q-4.65 -51.05 -9.7 -51.05L-23.85 -50.55L-24.7 -50.55L-28.95 -50.55L-30.3 -50.6L-30.35 -52.9L-24.65 -52.9L-16.7 -52.9" />
<path style="fill:#D2B783;fill-opacity:1" d="M-29.9,-47.35Q-30.2 -48.45 -30.3 -50.6L-28.95 -50.55L-24.7 -50.55L-23.85 -50.55L-9.7 -51.05Q-4.65 -51.05 -1.85 -50.3L8.4 -49.55L13.55 -49.7L14 -49.75L15.9 -50.15L17.95 -51.65L17.95 -51.7Q20.35 -53.3 24.2 -55.4Q25.85 -56.25 32.15 -57.55L41.05 -58.8L44.55 -58.3Q45.15 -57.85 45.4 -56.25Q45.65 -54.75 46.15 -53.2L45.2 -53.35L37.35 -53.9L31.1 -53.35Q25.6 -52.65 24.2 -51.7Q20.5 -49.15 17.95 -48.3L16.4 -47.9L13.75 -47.55L10.55 -47.4L8.45 -47.35L8.4 -48.6L8.4 -47.35L-17.25 -46.95L-17.55 -46.95L-17.6 -46.95L-23.75 -47L-23.8 -47L-24.1 -47L-29.9 -47.35" />
<path style="fill:#B19868;fill-opacity:1" d="M-24.1,-47L-23.8 -47L-23.75 -47L-17.6 -46.95L-17.55 -46.95L-17.25 -46.95L8.4 -47.35L8.45 -47.35L10.55 -47.4L13.75 -47.55L16.4 -47.9L17.95 -48.3Q20.5 -49.15 24.2 -51.7Q25.6 -52.65 31.1 -53.35L37.35 -53.9L45.2 -53.35L46.15 -53.2L47.05 -51Q45.6 -50 43.2 -49.7L41.1 -49.6L31.5 -50.2Q26 -50.2 23.8 -46.9L22.25 -44.65Q21.2 -43.6 19.35 -43.6L-9.3 -44.5L-17.25 -44.75L-17.55 -44.75L-23.75 -44.5L-26.9 -44.6Q-28.95 -45.05 -29.7 -46.7L-29.9 -47.35L-24.1 -47" />
<path style="fill:#AF9B90;fill-opacity:1" d="M-18.75,-5.1L-18.8 -6.15Q-19 -11.8 -19.85 -16.25L-20.45 -20.75L-11.45 -21.75L2.05 -22.05Q6.2 -22.2 8 -24.75Q9.65 -27.15 12.45 -26.9Q15.45 -26.6 17.15 -28.45Q18.55 -30 18.55 -32.4Q18.55 -33.65 17.1 -34.95Q15.3 -36.7 14.9 -37.4L14.6 -37.9L15.15 -37.9L19.8 -38.1Q21.7 -38.5 23.45 -40.05Q24.5 -40.95 26.5 -43.85Q27.3 -45 29.85 -45Q31.3 -45 35.3 -42.55L36.7 -41.7Q30.15 -32.75 26.7 -23.9Q25 -19.6 23.8 -14.4L22.1 -6.9L22.15 -6.15L-18.75 -5.1M-2.5,-60.1Q-4.95 -61.7 -8.45 -61.7L-9 -61.7L-8.25 -62.85Q-5.05 -67.4 -0.3 -67.3L3.95 -67.85Q6.6 -68.6 8.1 -70.3Q9.4 -71.7 10 -74.3L10.25 -75.25L10.4 -75.9L10.9 -78.55L1.65 -79.6L-3.6 -79.5L-3.35 -82.95L-2.85 -85.55Q-1.85 -88.65 0.9 -88.9Q4.35 -89.25 5.45 -91.8L5.95 -93.35L6.05 -93.9L7.35 -92.9Q9.85 -90.65 10.75 -86.4L11.65 -78.35L12 -75.2Q14.5 -74.05 15.45 -73.25L17.4 -71.05L18.8 -68.3L19.8 -60.8Q20.1 -58.25 20.6 -56.4L17.1 -53.8L16.75 -53.5L15.3 -55.35Q13 -58.8 9.05 -58.8L6.2 -58.4L3.4 -58.05L3.2 -58.05Q3.6 -58.85 3.6 -59.95Q3.6 -62.8 0.6 -62.8Q-0.6 -62.8 -1.5 -61.6L-1.9 -60.9L-2.15 -60.35L-2.5 -60.1M1.2,-85.6L1.05 -85.15Q0.9 -84.85 0.9 -84.4L0.95 -84.05Q1 -83.35 1.5 -83.2L2.55 -83.2Q4.5 -83.2 4.5 -85Q4.5 -85.95 4.2 -86.2L3 -86.5L1.75 -86.35Q1.5 -86.15 1.4 -85.6L1.2 -85.6" />
<path style="fill:#79543E;fill-opacity:1" d="M-11.4,-52.8L-16.7 -52.9L-24.65 -52.9Q-24.5 -58.6 -23.9 -62.95L-23.85 -63.35L-22 -62.2L-17.65 -59.35Q-14.45 -57.6 -10.8 -57.15Q-11.3 -55.1 -11.4 -52.8M-5.25,-83.25L-3.35 -82.95L-3.6 -79.5L-3.65 -79.5L-11.3 -78.85L-11.6 -78.8L-11.7 -79.3L-11.75 -84.65L-5.25 -83.25M1.4,-85.6Q1.5 -86.15 1.75 -86.35L3 -86.5L4.2 -86.2Q4.5 -85.95 4.5 -85Q4.5 -83.2 2.55 -83.2L1.5 -83.2Q1 -83.35 0.95 -84.05L1.4 -85.6M2.7,-57.4Q1.8 -56.5 0.3 -56.5Q-0.95 -56.5 -1.8 -57.1L-2.1 -57.35L-2.4 -59.05L-2.3 -59.95L-2.15 -60.35L-1.9 -60.9L-1.5 -61.6Q-0.6 -62.8 0.6 -62.8Q3.6 -62.8 3.6 -59.95Q3.6 -58.85 3.2 -58.05L2.7 -57.4" />
<path style="fill:#938075;fill-opacity:1" d="M35.3,-42.55Q31.3 -45 29.85 -45Q27.3 -45 26.5 -43.85Q24.5 -40.95 23.45 -40.05Q21.7 -38.5 19.8 -38.1L15.15 -37.9L14.6 -37.9L14.9 -37.4Q15.3 -36.7 17.1 -34.95Q18.55 -33.65 18.55 -32.4Q18.55 -30 17.15 -28.45Q15.45 -26.6 12.45 -26.9Q9.65 -27.15 8 -24.75Q6.2 -22.2 2.05 -22.05L-11.45 -21.75L-20.45 -20.75L-20.85 -24.45Q-21.4 -29.65 -21.95 -31.6L-24 -38.4L-24.05 -38.5Q-25.3 -42.1 -26.9 -44.6L-23.75 -44.5L-17.55 -44.75L-17.25 -44.75L-9.3 -44.5L19.35 -43.6Q21.2 -43.6 22.25 -44.65L23.8 -46.9Q26 -50.2 31.5 -50.2L41.1 -49.6L42.25 -48.6Q39.25 -45.15 36.7 -41.7L35.3 -42.55M-2.6,-59.95L-2.7 -58.9Q-2.7 -58 -2.1 -57.35L-1.8 -57.1Q-0.95 -56.5 0.3 -56.5Q1.8 -56.5 2.7 -57.4L3.2 -58.05L3.4 -58.05L6.2 -58.4L9.05 -58.8Q13 -58.8 15.3 -55.35L16.75 -53.5Q14.7 -52 13.65 -52L-1.65 -52.45L-9.65 -52.75L-9.75 -52.75L-11.4 -52.8Q-11.3 -55.1 -10.8 -57.15Q-10.2 -59.6 -9 -61.7L-8.45 -61.7Q-4.95 -61.7 -2.5 -60.1L-2.6 -59.95" />
<path style="fill:#E2D1C7;fill-opacity:1" d="M-18.65,-2.85L-18.75 -5.1L22.15 -6.15L22.25 -3.6L-18.65 -2.85" />
<path style="fill:#BF5D5D;fill-opacity:1" d="M22.25,-3.6Q22.05 4.4 16.55 5.3L-1.5 5.9Q-13 5.45 -15.45 4.3Q-17.7 3.2 -18.3 0.55L-18.65 -2.85L22.25 -3.6" />
<path style="fill:#625953;fill-opacity:1" d="M-23.05,-67.4L-36.95 -66.7L-36.95 -67Q-36.5 -68.75 -36.3 -70.95L-32.55 -71.6L-28.95 -72.2L-24.95 -72.55L-21.4 -73.05L-21.05 -72.9Q-22.25 -70.7 -23.05 -67.4M-20.9,-89.75L-21.05 -92.1L-19.4 -92.7L-17.35 -93.1L-15.4 -93.45L-13.5 -93.8L-9.85 -94.3L-7.95 -94.6L-6.4 -94.85L-7.65 -94L-8.8 -92.9Q-9.9 -91.65 -10.6 -89.95L-20.9 -89.75M-15.2,-91.15L-13.35 -91.15L-12.35 -91.35Q-11.9 -91.45 -11.9 -91.9Q-11.9 -92.7 -13.9 -92.55Q-15.9 -92.4 -15.9 -91.75L-15.2 -91.15M-29.25,-70.7Q-33 -70.35 -33 -69.65Q-33.2 -68.95 -32.4 -68.95Q-25.55 -68.95 -25.55 -70.25Q-25.55 -71 -29.25 -70.7" />
<path style="fill:#9C948F;fill-opacity:1" d="M-15.9,-91.75Q-15.9 -92.4 -13.9 -92.55Q-11.9 -92.7 -11.9 -91.9Q-11.9 -91.45 -12.35 -91.35L-13.35 -91.15L-15.2 -91.15L-15.9 -91.75M-25.55,-70.25Q-25.55 -68.95 -32.4 -68.95Q-33.2 -68.95 -33 -69.65Q-33 -70.35 -29.25 -70.7Q-25.55 -71 -25.55 -70.25" />
<path style="fill:#413A36;fill-opacity:1" d="M-23.9,-62.95L-30 -63.8L-36.75 -65.25L-36.95 -65.55L-36.95 -66.7L-23.05 -67.4L-23.85 -63.35L-23.9 -62.95M-10.6,-89.95L-11.45 -87.05L-11.45 -87L-16.3 -87.7L-20.8 -88.35L-20.9 -89.75L-10.6 -89.95" />
<path style="fill:none;stroke-width:1;stroke-linecap:butt;stroke-linejoin:miter;stroke-miterlimit:3;stroke:#46332B;stroke-opacity:1" d="M4.85,-97L5.15 -97L5.35 -102Q4.9 -103.95 1.95 -103.95Q-1.45 -103.95 -1.55 -102.5L-1.4 -101.05Q-1.25 -98.85 -1.45 -96.6L3.9 -97.05L4.85 -97M29.3,-74.8Q28.65 -78.3 31.55 -78.3L36.75 -78.45L39.8 -78.25Q40.85 -77.7 40.5 -74.95L40.7 -74.95Q43.35 -74.6 43.35 -72.45Q43.35 -70.2 42.55 -69.75L41.85 -69.6L41.85 -68L41.9 -64.9L42 -63.35L43.95 -63.4Q49.85 -63.4 49.85 -61.3Q49.85 -55.45 48.7 -52.95L48.35 -52.3L47.05 -51Q45.6 -50 43.2 -49.7L42.25 -48.6Q39.25 -45.15 36.7 -41.7Q30.15 -32.75 26.7 -23.9Q25 -19.6 23.8 -14.4L22.1 -6.9L22.15 -6.15L22.25 -3.6Q22.05 4.4 16.55 5.3L-1.5 5.9Q-13 5.45 -15.45 4.3Q-17.7 3.2 -18.3 0.55L-18.65 -2.85L-18.75 -5.1L-18.8 -6.15Q-19 -11.8 -19.85 -16.25L-20.45 -20.75L-20.85 -24.45Q-21.4 -29.65 -21.95 -31.6L-24 -38.4L-24.05 -38.5Q-25.3 -42.1 -26.9 -44.6Q-28.95 -45.05 -29.7 -46.7L-29.9 -47.35Q-30.2 -48.45 -30.3 -50.6L-30.35 -52.9L-24.65 -52.9Q-24.5 -58.6 -23.9 -62.95L-30 -63.8L-36.75 -65.25M-36.95,-65.55L-36.95 -66.7L-36.95 -67Q-36.5 -68.75 -36.3 -70.95L-32.55 -71.6L-28.95 -72.2L-24.95 -72.55L-21.4 -73.05M-23.9,-62.95L-23.85 -63.35L-23.05 -67.4Q-22.25 -70.7 -21.05 -72.9L-19.65 -74.9L-19.2 -75.4Q-16.55 -77.9 -11.6 -78.8M-11.7,-79.3L-11.75 -84.65L-11.45 -87L-16.3 -87.7L-20.8 -88.35L-20.9 -89.75L-21.05 -92.1L-19.4 -92.7L-17.35 -93.1L-15.4 -93.45L-13.5 -93.8L-9.85 -94.3L-7.95 -94.6L-6.4 -94.85Q-4.4 -96.05 -1.45 -96.6M41.3,-68.05L38.65 -68.1L36.65 -68.05Q33.75 -67.8 33.75 -65.55Q33.75 -64.75 37.45 -64.75L41.9 -64.9M-26.9,-44.6L-23.75 -44.5L-17.55 -44.75L-17.25 -44.75L-9.3 -44.5L19.35 -43.6Q21.2 -43.6 22.25 -44.65L23.8 -46.9Q26 -50.2 31.5 -50.2L41.1 -49.6L43.2 -49.7M40.5,-74.95L35.95 -74.95L29.5 -74.85L29.3 -74.8L29.25 -74.8L26.65 -74.35L26.55 -73.45L26.4 -71.85Q26.4 -69.85 28.2 -69.85L28.35 -69.85L28.4 -69.85L32.4 -70.05L36.15 -69.7L36.8 -69.65L38.6 -69.55L39.4 -69.55L41.85 -69.6M11.65,-78.35L13.6 -77.85L13.9 -82.45L14.1 -86.2Q14.1 -92.35 12 -94.65Q10.35 -96.5 6.45 -96.9L6.45 -96.85L6.05 -93.9L5.95 -93.35L5.45 -91.8Q4.35 -89.25 0.9 -88.9Q-1.85 -88.65 -2.85 -85.55L-3.35 -82.95L-3.6 -79.5L1.65 -79.6L10.9 -78.55L11.1 -78.5L11.65 -78.35M-10.8,-57.15Q-11.3 -55.1 -11.4 -52.8L-9.75 -52.75L-9.65 -52.75L-1.65 -52.45L13.65 -52Q14.7 -52 16.75 -53.5L17.1 -53.8L20.6 -56.4L22.4 -57.7L23.1 -58.1Q22.75 -60.75 23.25 -67.35Q23.15 -73.25 19.5 -75.4Q17.1 -76.85 13.6 -77.85M5.15,-97L6.45 -96.9M0.95,-84.05Q1 -83.35 1.5 -83.2L2.55 -83.2Q4.5 -83.2 4.5 -85Q4.5 -85.95 4.2 -86.2L3 -86.5L1.75 -86.35Q1.5 -86.15 1.4 -85.6L0.95 -84.05L0.9 -84.4Q0.9 -84.85 1.05 -85.15L1.2 -85.6L1.4 -85.6M-10.8,-57.15Q-10.2 -59.6 -9 -61.7L-8.25 -62.85Q-5.05 -67.4 -0.3 -67.3L3.95 -67.85Q6.6 -68.6 8.1 -70.3Q9.4 -71.7 10 -74.3L10.25 -75.25L10.4 -75.9L10.9 -78.55M3.2,-58.05Q3.6 -58.85 3.6 -59.95Q3.6 -62.8 0.6 -62.8Q-0.6 -62.8 -1.5 -61.6L-1.9 -60.9L-2.15 -60.35L-2.3 -59.95L-2.4 -59.05L-2.1 -57.35L-1.8 -57.1Q-0.95 -56.5 0.3 -56.5Q1.8 -56.5 2.7 -57.4L3.2 -58.05M23.1,-58.1Q25.45 -59.55 28.1 -60.6L28.05 -62.7L28.3 -66.15L28.4 -69.85M28.1,-60.6Q32.5 -62.35 37.7 -63L42 -63.35M-11.45,-87L-11.45 -87.05L-10.6 -89.95Q-9.9 -91.65 -8.8 -92.9L-7.65 -94L-6.4 -94.85M-3.6,-79.5L-3.65 -79.5L-11.3 -78.85L-11.6 -78.8M-2.1,-57.35Q-2.7 -58 -2.7 -58.9L-2.6 -59.95L-2.5 -60.1L-2.15 -60.35M-11.4,-52.8L-16.7 -52.9L-24.65 -52.9" />
<path style="fill:#91664D;fill-opacity:1" d="M8.15,-30.3L8.4 -34.8L11.15 -35.35Q13.15 -35.6 13.45 -36.45L14 -38.85L15.2 -38.75Q18.1 -38.65 18.1 -36.9L17.6 -35.6Q17.1 -34.35 17.1 -33.5Q17.1 -32.15 17.6 -31.1L8.15 -30.3M-27.75,-37.75L-25.3 -37.4L-20.15 -37.75L-19.2 -37.65L-13.35 -36.95L-7.45 -36.7L-1.75 -36.55Q1.8 -36.45 3.8 -35.45Q5.1 -34.85 5.75 -33.25L6.7 -29.3L3.75 -29.05L-3.4 -29.65Q-2.7 -31.4 -2.7 -32.5Q-2.7 -36.55 -5.2 -36.6Q-7.7 -36.65 -7.7 -32.9L-7.45 -30.15L-10.35 -30.45Q-10.2 -31.45 -10.2 -32.8Q-10.2 -36.5 -12.6 -36.6Q-15 -36.7 -15 -32.85L-14.65 -30.6L-17.3 -30.8Q-17.05 -31.8 -17.05 -32.7Q-17.05 -33.85 -17.35 -34.85Q-18 -36.8 -19.5 -36.8Q-21.65 -36.8 -22.05 -35.45L-22.05 -33.5L-21.9 -31.35L-27.35 -32.3L-27.6 -36.2L-27.75 -37.75" />
<path style="fill:#B18266;fill-opacity:1" d="M14.25,-39.9Q14.7 -41.05 17 -41.05L20.05 -40.55Q21.3 -39.85 21.3 -37.75Q21.3 -32.45 17.6 -31.1Q17.1 -32.15 17.1 -33.5Q17.1 -34.35 17.6 -35.6L18.1 -36.9Q18.1 -38.65 15.2 -38.75L14 -38.85L14.25 -39.9M6.7,-29.3L5.75 -33.25Q5.1 -34.85 3.8 -35.45Q1.8 -36.45 -1.75 -36.55L-7.45 -36.7L-13.35 -36.95L-19.2 -37.65L-20.15 -37.75L-25.3 -37.4L-27.75 -37.75L-27.8 -38.4L-27.25 -39.4Q-26.5 -40.1 -24.6 -40.1L-20.15 -40.1L-16.15 -40.1L-6.45 -40.1L2.35 -39.55Q8.4 -39 8.4 -35.85L8.4 -34.8L8.15 -30.3L8 -29.4L6.7 -29.3" />
<path style="fill:#5B3F2E;fill-opacity:1" d="M-12.55,-27.7Q-14.05 -27.7 -14.65 -30.4L-14.65 -30.6L-15 -32.85Q-15 -36.7 -12.6 -36.6Q-10.2 -36.5 -10.2 -32.8Q-10.2 -31.45 -10.35 -30.45Q-10.85 -27.7 -12.55 -27.7M-7.45,-30.15L-7.7 -32.9Q-7.7 -36.65 -5.2 -36.6Q-2.7 -36.55 -2.7 -32.5Q-2.7 -31.4 -3.4 -29.65L-3.45 -29.55Q-4.35 -27.3 -5.55 -27.3Q-6.9 -27.3 -7.45 -30.15M-21.9,-31.35L-22.05 -33.5L-22.05 -35.45Q-21.65 -36.8 -19.5 -36.8Q-18 -36.8 -17.35 -34.85Q-17.05 -33.85 -17.05 -32.7Q-17.05 -31.8 -17.3 -30.8L-17.45 -30.3Q-18.1 -28.2 -19.55 -28.2Q-21.3 -28.2 -21.85 -30.8L-21.9 -31.35" />
<path style="fill:#79543E;fill-opacity:1" d="M-21.9,-31.35L-21.85 -30.8Q-21.3 -28.2 -19.55 -28.2Q-18.1 -28.2 -17.45 -30.3L-17.3 -30.8L-14.65 -30.6L-14.65 -30.4Q-14.05 -27.7 -12.55 -27.7Q-10.85 -27.7 -10.35 -30.45L-7.45 -30.15Q-6.9 -27.3 -5.55 -27.3Q-4.35 -27.3 -3.45 -29.55L-3.4 -29.65L3.75 -29.05L6.7 -29.3Q6.9 -28.4 7.45 -27.55L7.2 -27.15Q5.55 -24.7 -0.75 -24.7L-20.2 -24.95L-24.6 -24.95Q-27.25 -25.45 -27.25 -28.4L-27.35 -32.3L-21.9 -31.35" />
<path style="fill:none;stroke-width:1;stroke-linecap:butt;stroke-linejoin:miter;stroke-miterlimit:3;stroke:#46332B;stroke-opacity:1" d="M17.6,-31.1Q21.3 -32.45 21.3 -37.75Q21.3 -39.85 20.05 -40.55L17 -41.05Q14.7 -41.05 14.25 -39.9L14 -38.85L13.45 -36.45Q13.15 -35.6 11.15 -35.35L8.4 -34.8L8.15 -30.3L17.6 -31.1M8.15,-30.3L8 -29.4L7.45 -27.55L7.2 -27.15Q5.55 -24.7 -0.75 -24.7L-20.2 -24.95L-24.6 -24.95Q-27.25 -25.45 -27.25 -28.4L-27.35 -32.3L-27.6 -36.2Q-28 -37.15 -27.9 -37.8L-27.8 -38.4L-27.25 -39.4Q-26.5 -40.1 -24.6 -40.1L-20.15 -40.1L-16.15 -40.1L-6.45 -40.1L2.35 -39.55Q8.4 -39 8.4 -35.85L8.4 -34.8M-27.8,-38.4L-27.75 -37.75L-27.6 -36.2" />
</g>
</svg>
