<?xml version="1.0" encoding="utf-8"?>
<svg version="1.1" id="Layer_1"
xmlns="http://www.w3.org/2000/svg"
xmlns:xlink="http://www.w3.org/1999/xlink"
xmlns:author="http://www.sothink.com"
width="55px" height="52px"
xml:space="preserve">
<g id="9" transform="matrix(1, 0, 0, 1, 27.95, 26.9)">
<path style="fill:#FF6600;fill-opacity:1" d="M14.35,-16.1Q15.45 -14.45 15.45 -12Q14.7 -9.8 13.95 -8.6Q15.3 -8.2 16.8 -7.2L19.5 -4.05Q21.35 -1.25 21.35 2.25Q21.35 5.15 20.15 7.15Q17.95 10.75 12.4 10.75L12.2 10.75Q11.95 13.1 9.65 15.75Q8.5 17 7.15 17.9Q7.7 19 7.7 19.85Q7.7 21.4 5.9 22.8Q3.75 24.5 0.35 24.5Q-3.65 24.5 -5.35 22.65Q-6.35 21.55 -6.35 20.2Q-6.35 18.65 -5.85 18.1L-8 16.1Q-9.8 13.9 -10.1 12.5L-15.4 13.1Q-19.9 13.1 -22.35 8.2L-23.15 6.35L-23.95 6.45Q-26.1 6.45 -27.25 3.25Q-27.8 1.65 -27.95 0.05Q-27.95 -5.3 -23.95 -6.95Q-22.5 -7.55 -21.25 -7.35L-20.7 -7.2L-19.25 -8.3Q-17.6 -9.35 -15.95 -9.5L-15.9 -9.5L-16.85 -11.4Q-17.35 -12.9 -17.4 -14.5Q-17.4 -16.95 -15.35 -19.55L-13.95 -21.05L-14.2 -21.6L-14.25 -22.65Q-14.25 -24.25 -12.55 -25.45Q-10.95 -26.6 -8.8 -26.85Q-3.35 -27.45 -3.35 -22.85L-3.35 -22.8Q-1.75 -21.95 -0.35 -20.3L1.5 -17.8Q2.05 -18.5 3.15 -18.95Q5.3 -19.85 8.15 -19.4L9.3 -19.15Q9.6 -20.95 12.1 -20.8Q14.9 -20.65 14.9 -17.95L14.8 -16.8L14.35 -16.1M26.5,11.2Q26.5 12.15 25.85 13.4Q24.9 15.2 23.15 15.2Q20.75 15.2 19.7 13.55Q19.1 12.6 19.1 11.65Q19.1 7.75 22.8 7.85Q26.5 7.9 26.5 11.2" />
<path style="fill:#FFCC00;fill-opacity:1" d="M12.55,-17.4Q11.95 -17.4 11.35 -18.05Q10.85 -18.6 10.85 -18.8Q10.85 -19.9 12.15 -19.6Q13.45 -19.3 13.45 -18.25Q13.45 -17.4 12.55 -17.4M4.3,-15Q3.3 -15.85 3.3 -16.45Q3.3 -17.45 4.8 -17.75L8.15 -17.65Q12.95 -16.6 12.95 -13.15Q12.95 -12.5 12.3 -11.5Q11.5 -10.25 10.5 -10.25Q9.35 -10.25 7.8 -11.7L6.35 -13.3L4.3 -15M5.6,-1.3L2.75 -1.75L0.3 -2.2L-3.2 -2.05L-6.9 -2.45Q-9.15 -3.3 -9.6 -4.2L-9.7 -6.15Q-9.7 -8.75 -6.75 -10.45Q-4.05 -12 -0.3 -12Q3.6 -11.95 6.15 -10.15Q9.1 -8.1 9.1 -4.4Q9.1 -1.3 5.6 -1.3M14.6,-5.45L17.55 -2.6L18.65 0.05L19.1 2.7Q19.1 4.4 18.2 5.95Q16.6 8.6 12.95 8.6Q11.15 8.6 10.85 7.15L10.85 5.65Q11.55 -2.85 12.25 -5.2Q12.75 -6.85 14.6 -5.45M25.05,12.45Q24.55 13.45 22.95 13.45Q21.65 13.45 21.3 12.4L21.2 11.3Q21.2 8.35 23.25 8.95Q25.25 9.5 25.25 11.1L25.05 12.45M8.9,10.05Q8.9 12 7.55 13.8Q5.3 16.8 0.2 16.8Q-3.7 16.8 -6.35 14.2Q-8.3 12.25 -8.3 11Q-8.3 8.6 -6.75 8.5L0.65 8.85L4.8 8.55L6.1 8.05L7.9 8.05Q8.9 8.1 8.9 10.05M0.35,22.95Q-2.45 22.95 -3.9 21.35L-4.8 19.7Q-4.8 18.65 -3.6 18.5Q-2.35 18.35 4.55 18.55Q5.4 18.7 5.4 19.75Q5.4 20.65 4.25 21.65Q2.75 22.95 0.35 22.95M-6.5,-25.5Q-5.5 -25.05 -5.5 -24.35Q-5.5 -22.7 -11.15 -22.7Q-12.15 -22.7 -12.3 -23.95Q-12.3 -24.8 -11.1 -25.05L-6.5 -25.5M-23.4,-0.35Q-23.75 2.95 -24.5 2.95Q-25.7 2.95 -26.15 1.15L-26.35 -0.65Q-26.35 -2.65 -24.75 -4.3Q-23.2 -6 -23.2 -4.05L-23.4 -0.35M-1.95,-17.1Q-1.95 -15.35 -5.35 -13.5Q-8.7 -11.65 -11.85 -11.65Q-14.5 -11.65 -15.35 -13.4Q-15.75 -14.3 -15.65 -15.2Q-15.65 -17.9 -13.5 -19.7Q-11.6 -21.3 -8.8 -21.6Q-6.05 -21.95 -4.1 -20.8Q-1.95 -19.55 -1.95 -17.1M-14.25,-2Q-14.25 -0.35 -12.75 3.95Q-11.3 8.3 -11.3 9Q-11.3 9.75 -11.7 10.1Q-12.3 10.65 -14 10.65Q-18.25 10.65 -20.55 6.25Q-22.15 3.2 -22.15 0.25Q-22.15 -3.35 -17.75 -6.05Q-16.1 -7.05 -14.75 -7.25Q-13.4 -7.5 -13.4 -6.7Q-14.25 -3.75 -14.25 -2M-13.4,8.25L-13.5 8.75Q-13.25 8.4 -13.35 8.2L-13.4 8.25M-20.3,1.45L-20.25 1.45L-20.25 -0.7L-20.35 0.35L-20.3 1.45" />
</g>
</svg>
