<?xml version="1.0" encoding="utf-8"?>
<svg version="1.1" id="Layer_1"
xmlns="http://www.w3.org/2000/svg"
xmlns:xlink="http://www.w3.org/1999/xlink"
xmlns:author="http://www.sothink.com"
width="65px" height="46px"
xml:space="preserve">
<g id="156" transform="matrix(1, 0, 0, 1, 33.5, 39.65)">
<path style="fill:#FF0000;fill-opacity:0" d="M31.4,-39.65L31.4 5.65L-33.5 5.65L-33.5 -39.65L31.4 -39.65" />
<path style="fill:#EEA78C;fill-opacity:1" d="M-8.2,-26.55L-8.7 -25.45L-8.85 -24.8L-7.05 -23.75L-6.4 -23.35L-4.6 -22.25Q-3.8 -21.65 -3.65 -21.05Q-3.45 -20.35 -3.8 -19.75L-4.75 -19.1Q-5.3 -18.95 -6.45 -19.9L-8.2 -21.2L-8.4 -21.3L-10.9 -22.3L-11.3 -22.55Q-12 -22.95 -12.25 -23.9L-12.3 -24.4Q-12.15 -25.35 -11.25 -26.9L-10.2 -28.6L-9.95 -29.05L-9.75 -29.25L-9.1 -29.8L-8.8 -28.75Q-9.85 -28.25 -10.3 -26.4L-10.45 -24.95L-10.4 -24.3Q-10.3 -23.95 -9.05 -23.15L-8.85 -23L-7.3 -22.1L-6.75 -21.6Q-4.55 -19.75 -4.35 -19.8Q-3.7 -20 -3.9 -20.6L-5.25 -22.05L-7.45 -23.65L-9.25 -24.75L-9.3 -25.25Q-9.25 -26.1 -8.55 -27.05L-8.4 -27.3L-8.2 -26.55" />
<path style="fill:#F0D2C6;fill-opacity:1" d="M-8.4,-27.3L-8.55 -27.05Q-9.25 -26.1 -9.3 -25.25L-9.25 -24.75L-7.45 -23.65L-5.25 -22.05L-3.9 -20.6Q-3.7 -20 -4.35 -19.8Q-4.55 -19.75 -6.75 -21.6L-7.3 -22.1L-8.85 -23L-9.05 -23.15Q-10.3 -23.95 -10.4 -24.3L-10.45 -24.95L-10.3 -26.4Q-9.85 -28.25 -8.8 -28.75L-8.4 -27.3" />
<path style="fill:none;stroke-width:1;stroke-linecap:butt;stroke-linejoin:miter;stroke-miterlimit:3;stroke:#854A34;stroke-opacity:1" d="M-9.1,-29.8L-9.75 -29.25L-9.95 -29.05L-10.2 -28.6L-11.25 -26.9Q-12.15 -25.35 -12.3 -24.4L-12.25 -23.9Q-12 -22.95 -11.3 -22.55L-10.9 -22.3L-8.4 -21.3L-8.2 -21.2L-6.45 -19.9Q-5.3 -18.95 -4.75 -19.1L-3.8 -19.75Q-3.45 -20.35 -3.65 -21.05Q-3.8 -21.65 -4.6 -22.25L-6.4 -23.35L-7.05 -23.75L-8.85 -24.8L-8.7 -25.45L-8.2 -26.55" />
<path style="fill:#EEA78C;fill-opacity:1" d="M-19.1,-15.4L-17.9 -16.7Q-17.35 -16.95 -15.3 -15.3Q-13.3 -13.65 -12.8 -11.95Q-12.35 -10.25 -13.2 -7.8Q-14.1 -5.35 -11.75 -4.85L-13.8 -3.9Q-17.3 -4.6 -16.55 -7.25Q-15.8 -9.95 -15.95 -10.6Q-16.15 -11.3 -18.95 -14.95Q-19.55 -14.65 -19.1 -15.4M-13.4,-10.7L-13.3 -11.55Q-13.3 -12.05 -13.65 -12.35Q-14.35 -13 -14.55 -12.25L-14.55 -11.25Q-14.55 -10.5 -14.9 -9.25L-15.25 -7.9Q-15.35 -7.5 -14.9 -7.5Q-14.15 -7.5 -13.7 -9Q-13.4 -10 -13.4 -10.7" />
<path style="fill:#2F9EBF;fill-opacity:1" d="M-10.7,-32.15Q-9.15 -32.8 -8 -29.2Q-6.9 -25.55 -9.95 -21.9Q-12.95 -18.25 -12.95 -17.35Q-12.95 -16.45 -14.85 -16.9Q-16.65 -17.3 -17.25 -18.6L-17.4 -19.25L-17.6 -20.75Q-17.85 -22.25 -15 -26.85Q-12.25 -31.5 -10.7 -32.15M-11.05,-22.45Q-9.5 -24.7 -9.5 -25.1Q-9.5 -27.05 -11.7 -24.3Q-13.9 -21.55 -13.9 -20.65Q-13.9 -20.1 -13.3 -20.1Q-12.65 -20.1 -11.05 -22.45" />
<path style="fill:#F0D2C6;fill-opacity:1" d="M-13.7,-9Q-14.15 -7.5 -14.9 -7.5Q-15.35 -7.5 -15.25 -7.9L-14.9 -9.25Q-14.55 -10.5 -14.55 -11.25L-14.55 -12.25Q-14.35 -13 -13.65 -12.35Q-13.3 -12.05 -13.3 -11.55L-13.4 -10.7Q-13.4 -10 -13.7 -9" />
<path style="fill:#69BFD9;fill-opacity:1" d="M-13.3,-20.1Q-13.9 -20.1 -13.9 -20.65Q-13.9 -21.55 -11.7 -24.3Q-9.5 -27.05 -9.5 -25.1Q-9.5 -24.7 -11.05 -22.45Q-12.65 -20.1 -13.3 -20.1" />
<path style="fill:none;stroke-width:1;stroke-linecap:butt;stroke-linejoin:miter;stroke-miterlimit:3;stroke:#854A34;stroke-opacity:1" d="M-18.95,-14.95Q-16.15 -11.3 -15.95 -10.6Q-15.8 -9.95 -16.55 -7.25Q-17.3 -4.6 -13.8 -3.9L-11.75 -4.85Q-14.1 -5.35 -13.2 -7.8Q-12.35 -10.25 -12.8 -11.95Q-13.3 -13.65 -15.3 -15.3Q-17.35 -16.95 -17.9 -16.7L-19.1 -15.4Q-19.55 -14.65 -18.95 -14.95z" />
<path style="fill:none;stroke-width:1;stroke-linecap:butt;stroke-linejoin:miter;stroke-miterlimit:3;stroke:#0E576E;stroke-opacity:1" d="M-10.7,-32.15Q-9.15 -32.8 -8 -29.2Q-6.9 -25.55 -9.95 -21.9Q-12.95 -18.25 -12.95 -17.35Q-12.95 -16.45 -14.85 -16.9Q-16.65 -17.3 -17.25 -18.6L-17.4 -19.25L-17.6 -20.75Q-17.85 -22.25 -15 -26.85Q-12.25 -31.5 -10.7 -32.15z" />
<path style="fill:#EEA78C;fill-opacity:1" d="M-4.75,-14.75L-4.7 -14.7L-4.65 -14.5L-4.45 -14.05L-4.6 -14.3L-4.75 -14.75" />
<path style="fill:#73C95E;fill-opacity:1" d="M20.9,-19.3Q21.6 -18.8 21.6 -18.3L21.6 -18.25L20.4 -18.45L18.6 -18.95Q14.05 -21.55 8.4 -21.55Q4.35 -21.55 0.3 -20.2L-1.8 -19.45L-6.05 -17.5L-6.6 -18.6L-6.35 -18.8Q-4.55 -20.05 -2.7 -20.8L-2.65 -20.8L-1.25 -21.35L-0.45 -21.6L0.3 -21.75L7.8 -22.4L9.5 -22.2L10.75 -22.05L10.85 -22L16.9 -20.9Q19.75 -20.15 20.9 -19.35L20.9 -19.3" />
<path style="fill:#4D9F38;fill-opacity:1" d="M-1.5,-16.5L-1.5 -16.45Q-3.2 -15.5 -4.25 -15L-4.7 -14.75L-4.75 -14.75L-5.95 -15.25L-7.5 -15.8L-8.65 -15.45L-9.9 -15.15Q-10.6 -15.15 -11.05 -15.6Q-11.45 -16 -11.45 -16.7Q-11.45 -18.35 -10.15 -18.35L-9.05 -18.05L-8.25 -17.75Q-7.65 -17.75 -6.85 -18.55L-6.6 -18.6L-6.05 -17.5L-1.8 -19.45L0.3 -20.2Q4.35 -21.55 8.4 -21.55Q14.05 -21.55 18.6 -18.95L20.4 -18.45L21.6 -18.25Q21.6 -17.85 21.1 -17.6L20.45 -17.4L20.25 -17.4L20.1 -17.45L17.7 -18.15L15 -18.95L12 -19.35L8.75 -19.25L5.55 -19L3.45 -18.55L1 -17.65L0.3 -17.35L-0.6 -16.95L-1.5 -16.5M-20.15,-4.15L-19.7 -4.1Q-17.3 -4.1 -12.5 -5.55Q-7.45 -7.05 -4.7 -7.2Q-1.75 -7.3 2.15 -8.2L8.2 -9.7L11.95 -10.5L15.25 -11.05L17.9 -11.6L20.4 -12.35L25.8 -13.55Q28 -14.15 30.45 -15.2L30.55 -14.85Q30.55 -12.95 27.7 -12.2L27.65 -12.2L26.7 -12L17.45 -10.15L10.45 -8.4L5.6 -7.3L-1.25 -5.9L-8.75 -4.45L-12.55 -3.85L-15.75 -3.2L-16.65 -3L-18.45 -2.75Q-20.2 -2.75 -20.2 -3.75L-20.15 -4.15" />
<path style="fill:#81D26C;fill-opacity:1" d="M-6.1,-7.65L-3.4 -8.2L1.85 -9.25L9.45 -10.8L16.75 -12.35L22.95 -13.85L24.4 -14.35Q26.25 -15 27.5 -15.75L27.65 -15.85L27.3 -16.05L29.3 -15.85Q30.15 -15.6 30.45 -15.2Q28 -14.15 25.8 -13.55L20.4 -12.35L17.9 -11.6L15.25 -11.05L11.95 -10.5L8.2 -9.7L2.15 -8.2Q-1.75 -7.3 -4.7 -7.2Q-7.45 -7.05 -12.5 -5.55Q-17.3 -4.1 -19.7 -4.1L-20.15 -4.15Q-19.85 -5.05 -18.3 -5.45L-17.6 -5.55L-15.85 -5.8L-12.75 -6.35L-9.75 -6.85L-7 -7.4L-6.2 -7.6L-6.1 -7.65" />
<path style="fill:#A8A778;fill-opacity:1" d="M-15.95,-2L-16.65 -3L-15.75 -3.2L-12.55 -3.85L-8.75 -4.45L-1.25 -5.9L5.6 -7.3L10.45 -8.4L17.45 -10.15L26.7 -12L27.65 -12.2L27.1 -10.85L26.1 -9.3L21.75 -9.3Q17.15 -6.85 14.3 -6.65L8.15 -5.9L6.05 -4.8Q4.7 -4.05 3.1 -4.15Q0.15 -4.35 -4.35 -3.1Q-8.65 -1.85 -9.1 -1.95L-11.45 -1.7L-14.2 -1.05L-15.3 -0.9L-15.95 -2" />
<path style="fill:#E7E5A5;fill-opacity:1" d="M25.4,-8.3L24.4 -6.95L21.55 -3.7Q20.25 -2.4 16.95 -0.75Q14.3 0.6 12 1.4L6.75 3L0.9 4.3L-4.1 4.65L-9 4.7L-12.2 4.25Q-13.2 3.85 -13.7 2.85L-14.7 0.3L-15.3 -0.9L-14.2 -1.05L-11.45 -1.7L-9.1 -1.95Q-8.65 -1.85 -4.35 -3.1Q0.15 -4.35 3.1 -4.15Q4.7 -4.05 6.05 -4.8L8.15 -5.9L14.3 -6.65Q17.15 -6.85 21.75 -9.3L26.1 -9.3L25.4 -8.3M-11.95,0.5L-11.75 0.45L-11.95 0.45L-11.95 0.5" />
<path style="fill:#F5F055;fill-opacity:1" d="M21.6,-18.3Q21.6 -18.8 20.9 -19.3Q22.45 -18.9 24.55 -17.65L25.05 -17.35L25.85 -16.85L26.1 -16.75L27.3 -16.05L27.5 -15.75Q26.25 -15 24.4 -14.35L22.95 -13.85L16.75 -12.35L9.45 -10.8L1.85 -9.25L-3.4 -8.2L-6.1 -7.65L-4.2 -12.65L-4.2 -12.7L-4.15 -12.75L-3.6 -13.6L-2.95 -14.85L-1.4 -16.3L-1.35 -16.3L-0.6 -16.95L0.3 -17.35L1 -17.65L3.45 -18.55L5.55 -19L8.75 -19.25L12 -19.35L15 -18.95L17.7 -18.15L20.1 -17.45L20.25 -17.4L20.45 -17.4L21.1 -17.6Q21.6 -17.85 21.6 -18.25L21.6 -18.3M12.6,-17.4L7.75 -17.6Q0 -17.6 0 -14.5L0 -13.85Q0.2 -13.25 1.25 -13.25Q3.15 -13.25 11 -15.25L15.2 -15.25L15.7 -15.6L15.85 -15.95Q15.85 -16.6 14.95 -16.9L12.6 -17.4" />
<path style="fill:#FAF7AC;fill-opacity:1" d="M14.95,-16.9Q15.85 -16.6 15.85 -15.95L15.7 -15.6L15.2 -15.25L11 -15.25Q3.15 -13.25 1.25 -13.25Q0.2 -13.25 0 -13.85L0 -14.5Q0 -17.6 7.75 -17.6L12.6 -17.4L14.95 -16.9" />
<path style="fill:none;stroke-width:1;stroke-linecap:butt;stroke-linejoin:miter;stroke-miterlimit:3;stroke:#465827;stroke-opacity:1" d="M27.65,-12.2L27.7 -12.2Q30.55 -12.95 30.55 -14.85L30.45 -15.2Q30.15 -15.6 29.3 -15.85L27.3 -16.05L26.1 -16.75L25.85 -16.85L25.05 -17.35L24.55 -17.65Q22.45 -18.9 20.9 -19.3Q21.6 -18.8 21.6 -18.3L21.6 -18.25Q21.6 -17.85 21.1 -17.6L20.45 -17.4L20.25 -17.4L20.1 -17.45L17.7 -18.15L15 -18.95L12 -19.35L8.75 -19.25L5.55 -19L3.45 -18.55L1 -17.65L0.3 -17.35L-0.6 -16.95L-1.35 -16.3L-1.4 -16.3L-2.95 -14.85L-3.6 -13.6L-4.15 -12.75L-4.2 -12.7L-4.2 -12.65L-6.1 -7.65L-3.4 -8.2L1.85 -9.25L9.45 -10.8L16.75 -12.35L22.95 -13.85L24.4 -14.35Q26.25 -15 27.5 -15.75M-6.85,-18.55Q-7.65 -17.75 -8.25 -17.75L-9.05 -18.05L-10.15 -18.35Q-11.45 -18.35 -11.45 -16.7Q-11.45 -16 -11.05 -15.6Q-10.6 -15.15 -9.9 -15.15L-8.65 -15.45L-7.5 -15.8L-5.95 -15.25L-4.75 -14.75L-4.7 -14.75L-4.25 -15Q-3.2 -15.5 -1.5 -16.45L-1.5 -16.5L-0.6 -16.95M-6.6,-18.6L-6.35 -18.8Q-4.55 -20.05 -2.7 -20.8L-2.65 -20.8L-1.25 -21.35L-0.45 -21.6L0.3 -21.75L7.8 -22.4L9.5 -22.2L10.75 -22.05L10.85 -22L16.9 -20.9Q19.75 -20.15 20.9 -19.35L20.9 -19.3M-15.3,-0.9L-14.7 0.3L-13.7 2.85Q-13.2 3.85 -12.2 4.25L-9 4.7L-4.1 4.65L0.9 4.3L6.75 3L12 1.4Q14.3 0.6 16.95 -0.75Q20.25 -2.4 21.55 -3.7L24.4 -6.95L25.4 -8.3L26.1 -9.3L27.1 -10.85L27.65 -12.2L26.7 -12L17.45 -10.15L10.45 -8.4L5.6 -7.3L-1.25 -5.9L-8.75 -4.45L-12.55 -3.85L-15.75 -3.2L-16.65 -3L-15.95 -2L-15.3 -0.9M27.3,-16.05L27.65 -15.85L27.5 -15.75M-4.25,-15L-4.6 -14.75L-4.7 -14.75M-16.65,-3L-18.45 -2.75Q-20.2 -2.75 -20.2 -3.75L-20.15 -4.15Q-19.85 -5.05 -18.3 -5.45L-17.6 -5.55L-15.85 -5.8L-12.75 -6.35L-9.75 -6.85L-7 -7.4L-6.2 -7.6L-6.1 -7.65" />
<path style="fill:#2F9EBF;fill-opacity:1" d="M-17.55,-18.7L-16.45 -17.75Q-15.25 -16.95 -14.65 -16.95Q-14.4 -16.95 -14.4 -17.2Q-14.4 -17.65 -15.95 -18.6Q-17.55 -19.55 -17.55 -18.7M-17.65,-20.5Q-17 -20.25 -15.3 -19.2Q-12.9 -17.75 -13 -17.35L-13.45 -15.8L-13.25 -14.9Q-12.95 -14.35 -13 -14.2L-14.4 -13.15Q-15.65 -12.3 -18.05 -11.1L-19.45 -14.25Q-20.45 -16.7 -20 -17.25L-19.55 -18L-19.5 -18.1L-19.2 -18.7L-18.15 -20L-17.7 -20.45L-17.65 -20.5" />
<path style="fill:#69BFD9;fill-opacity:1" d="M-15.95,-18.6Q-14.4 -17.65 -14.4 -17.2Q-14.4 -16.95 -14.65 -16.95Q-15.25 -16.95 -16.45 -17.75L-17.55 -18.7Q-17.55 -19.55 -15.95 -18.6" />
<path style="fill:none;stroke-width:1;stroke-linecap:butt;stroke-linejoin:miter;stroke-miterlimit:3;stroke:#0E576E;stroke-opacity:1" d="M-17.7,-20.45L-18.15 -20L-19.2 -18.7L-19.5 -18.1L-19.55 -18L-20 -17.25Q-20.45 -16.7 -19.45 -14.25L-18.05 -11.1Q-15.65 -12.3 -14.4 -13.15L-13 -14.2Q-12.95 -14.35 -13.25 -14.9L-13.45 -15.8L-13 -17.35Q-12.9 -17.75 -15.3 -19.2Q-17 -20.25 -17.65 -20.5L-17.7 -20.45z" />
<path style="fill:#EEA78C;fill-opacity:1" d="M-16.1,-27.25L-16.2 -26.75L-16.8 -26.65L-20.3 -27.15L-21.9 -27.15Q-23.35 -27.25 -23.35 -27.6L-23.25 -29.15L-23.1 -30L-22.45 -30.05L-19.3 -29.55L-16.25 -28.95L-16.1 -27.25" />
<path style="fill:none;stroke-width:1;stroke-linecap:butt;stroke-linejoin:miter;stroke-miterlimit:3;stroke:#854A34;stroke-opacity:1" d="M-16.25,-28.95L-19.3 -29.55L-22.45 -30.05L-23.1 -30L-23.25 -29.15L-23.35 -27.6Q-23.35 -27.25 -21.9 -27.15L-20.3 -27.15L-16.8 -26.65L-16.2 -26.75L-16.1 -27.25L-16.25 -28.95z" />
<path style="fill:#433B37;fill-opacity:1" d="M-31.55,-30.3Q-31.55 -29.7 -30.8 -29.7Q-30.3 -29.7 -30.2 -29.95L-30.2 -30.25Q-30.2 -30.95 -30.85 -30.95Q-31.55 -30.95 -31.55 -30.3M-32.05,-31.55L-32.05 -31.7L-30.45 -31.8L-30.15 -31.7L-30.15 -31.8Q-30.2 -33 -29.8 -33.35Q-29.5 -33.65 -28.35 -33.65L-25.85 -33.35L-25.75 -33.35L-22.65 -32.9Q-21.95 -32.55 -21.95 -30.85L-22.4 -27.25L-22.4 -26.35Q-22.5 -25.9 -23 -25.8L-24.7 -25.6Q-25.15 -25.6 -25.25 -26.15L-25.3 -27.05L-25.45 -27.95Q-25.6 -28.2 -26.2 -28.2L-26.7 -28L-26.95 -27.1L-27.6 -25.35L-28.35 -23.3Q-28.7 -22.65 -29.2 -22.65Q-29.85 -22.65 -30.7 -23L-32.25 -23.6L-30.3 -28.7L-30.3 -28.75L-31.05 -28.7Q-32.15 -28.7 -32.15 -29.1L-32.05 -31.55M-23,-32.05L-23.3 -32.35L-23.85 -32.35L-24.4 -32.45L-24.65 -32.55L-26.3 -32.55L-26.45 -32.65L-27.15 -32.7L-28.05 -32.8Q-28.5 -32.8 -28.7 -32.45Q-28.7 -32.05 -27.9 -31.95L-25.95 -31.75L-23.85 -31.85L-23.15 -31.85L-23 -32.05M-28.6,-27.6L-29.4 -27.55L-29.9 -26.5L-30.7 -24.45L-30.15 -24L-29.75 -24Q-29.4 -24.25 -28.75 -25.55Q-28.2 -26.75 -28.2 -27.05L-28.6 -27.6" />
<path style="fill:#7E6E65;fill-opacity:1" d="M-30.85,-30.95Q-30.2 -30.95 -30.2 -30.25L-30.2 -29.95Q-30.3 -29.7 -30.8 -29.7Q-31.55 -29.7 -31.55 -30.3Q-31.55 -30.95 -30.85 -30.95M-23.15,-31.85L-23.85 -31.85L-25.95 -31.75L-27.9 -31.95Q-28.7 -32.05 -28.7 -32.45Q-28.5 -32.8 -28.05 -32.8L-27.15 -32.7L-26.45 -32.65L-26.3 -32.55L-24.65 -32.55L-24.4 -32.45L-23.85 -32.35L-23.3 -32.35L-23 -32.05L-23.15 -31.85M-28.2,-27.05Q-28.2 -26.75 -28.75 -25.55Q-29.4 -24.25 -29.75 -24L-30.15 -24L-30.7 -24.45L-29.9 -26.5L-29.4 -27.55L-28.6 -27.6L-28.2 -27.05" />
<path style="fill:none;stroke-width:1;stroke-linecap:butt;stroke-linejoin:miter;stroke-miterlimit:3;stroke:#332B27;stroke-opacity:1" d="M-32.05,-31.7L-30.45 -31.8L-30.15 -31.7L-30.15 -31.8Q-30.2 -33 -29.8 -33.35Q-29.5 -33.65 -28.35 -33.65L-25.85 -33.35L-25.75 -33.35L-22.65 -32.9Q-21.95 -32.55 -21.95 -30.85L-22.4 -27.25L-22.4 -26.35Q-22.5 -25.9 -23 -25.8L-24.7 -25.6Q-25.15 -25.6 -25.25 -26.15L-25.3 -27.05L-25.45 -27.95Q-25.6 -28.2 -26.2 -28.2L-26.7 -28L-26.95 -27.1L-27.6 -25.35L-28.35 -23.3Q-28.7 -22.65 -29.2 -22.65Q-29.85 -22.65 -30.7 -23L-32.25 -23.6L-30.3 -28.7L-30.3 -28.75L-31.05 -28.7Q-32.15 -28.7 -32.15 -29.1L-32.05 -31.55" />
<path style="fill:#EEA78C;fill-opacity:1" d="M-25.7,-29.65L-25.65 -29.8L-25.4 -29.85Q-24.7 -29.85 -24.7 -28.7Q-24.7 -27.45 -25.5 -27.45Q-26.8 -27.45 -26.8 -28.6L-26.45 -29.35L-25.9 -29.65L-25.7 -29.65" />
<path style="fill:none;stroke-width:1;stroke-linecap:butt;stroke-linejoin:miter;stroke-miterlimit:3;stroke:#854A34;stroke-opacity:1" d="M-25.9,-29.65L-26.45 -29.35L-26.8 -28.6Q-26.8 -27.45 -25.5 -27.45Q-24.7 -27.45 -24.7 -28.7Q-24.7 -29.85 -25.4 -29.85L-25.65 -29.8L-25.7 -29.65L-25.9 -29.65z" />
<path style="fill:#2F9EBF;fill-opacity:1" d="M-15.25,-28.95L-14.5 -28.75Q-13.65 -28.45 -13.25 -27.95Q-12.05 -26.6 -13.65 -25.1L-13.9 -24.85Q-14.35 -24.45 -15.25 -24.35Q-16.2 -24.2 -16.55 -24.6Q-17 -25.15 -17.05 -26.9Q-17.1 -28.7 -16.6 -29.15L-16.05 -29.15L-15.25 -28.95M-14.9,-25.7L-14.1 -25.55L-13.55 -25.7Q-12.95 -26.25 -13.45 -27.2Q-13.95 -28.2 -14.65 -27.6Q-15.35 -26.2 -14.9 -25.7" />
<path style="fill:#63CCEC;fill-opacity:1" d="M-14.65,-27.6Q-13.95 -28.2 -13.45 -27.2Q-12.95 -26.25 -13.55 -25.7L-14.1 -25.55L-14.9 -25.7Q-15.35 -26.2 -14.65 -27.6" />
<path style="fill:none;stroke-width:1;stroke-linecap:butt;stroke-linejoin:miter;stroke-miterlimit:3;stroke:#0E576E;stroke-opacity:1" d="M-15.25,-28.95L-14.5 -28.75Q-13.65 -28.45 -13.25 -27.95Q-12.05 -26.6 -13.65 -25.1L-13.9 -24.85Q-14.35 -24.45 -15.25 -24.35Q-16.2 -24.2 -16.55 -24.6Q-17 -25.15 -17.05 -26.9Q-17.1 -28.7 -16.6 -29.15L-16.05 -29.15L-15.25 -28.95z" />
<path style="fill:#EEA78C;fill-opacity:1" d="M-9.8,-30.75L-9.35 -30.75Q-8.1 -30.75 -7.35 -31.3L-6.95 -31.7Q-6.65 -32.15 -6.6 -32.75L-6.6 -32.8Q-6.6 -33.8 -7.85 -34.35L-9.65 -34.8L-10.05 -34.8L-11.85 -34.4L-12.2 -33.95L-12.45 -34.1L-12.65 -34.25L-12.9 -34.6L-13.7 -34.8L-13.6 -35.25L-12.7 -36.6L-12.75 -36.45L-12.65 -36.1L-12.25 -35.8Q-12 -35.5 -11.4 -35.5Q-10.75 -35.5 -10.15 -36.4L-10 -36.55L-9.65 -37.15Q-9.65 -38.15 -11.15 -37.75L-12.25 -37.15L-11.85 -37.7Q-11.1 -38.2 -9.35 -38.2Q-7.1 -38.2 -6.35 -36.55Q-5.9 -35.7 -5.9 -34.4Q-5.9 -34.1 -6.05 -33.8Q-6.1 -33.35 -6.3 -32.9L-6.45 -31.75Q-6.45 -31.35 -6.8 -30.75L-7.2 -29.7Q-7.2 -29.15 -7.8 -28.4L-8 -27.9L-9.05 -26.8L-9.8 -26.6L-10.05 -26.6L-10.15 -26.6L-11.1 -26.8L-11.4 -26.85L-12.2 -27.15L-12.5 -27.2L-12.65 -27.2Q-14.85 -27.9 -14.85 -28.4L-14.35 -29.6L-14.3 -29.75L-14.25 -30L-14.25 -30.05L-13.85 -30.85L-13.3 -30.85Q-13.2 -30.85 -12.8 -31.2L-12.65 -31.35L-12.25 -31.65L-12.15 -31.7Q-11.6 -30.8 -9.8 -30.75M-12.65,-30.35L-13 -30.45Q-13.85 -30.45 -13.85 -28.95Q-13.85 -28.2 -13.3 -28.2Q-12.95 -28.2 -12.65 -28.75L-12.2 -29.75Q-12.2 -30.2 -12.65 -30.35" />
<path style="fill:#F0D2C6;fill-opacity:1" d="M-12.55,-36.7L-12.25 -37.15L-11.15 -37.75Q-9.65 -38.15 -9.65 -37.15L-10 -36.55L-10.15 -36.4Q-10.75 -35.5 -11.4 -35.5Q-12 -35.5 -12.25 -35.8L-12.65 -36.1L-12.75 -36.45L-12.7 -36.6L-12.55 -36.7M-12.2,-29.75L-12.65 -28.75Q-12.95 -28.2 -13.3 -28.2Q-13.85 -28.2 -13.85 -28.95Q-13.85 -30.45 -13 -30.45L-12.65 -30.35Q-12.2 -30.2 -12.2 -29.75" />
<path style="fill:#B6B4B3;fill-opacity:1" d="M-14,-33.25L-14.15 -33.65Q-14.15 -34.35 -13.55 -34.35Q-12.9 -34.35 -12.9 -33.75Q-12.9 -33 -13.55 -33L-14 -33.25M-11.65,-33.1Q-11.65 -33.9 -11.05 -34.1Q-10.35 -34.2 -10.35 -33.4Q-10.35 -32.55 -11.05 -32.55L-11.5 -32.8L-11.65 -33.1" />
<path style="fill:#91857F;fill-opacity:1" d="M-12.15,-31.7L-12.25 -31.65L-12.65 -31.35L-12.8 -31.2Q-13.2 -30.85 -13.3 -30.85L-13.85 -30.85L-13.9 -30.9Q-14.8 -31.3 -14.8 -32.8Q-14.8 -34.8 -13.7 -34.8L-12.9 -34.6L-12.65 -34.25L-12.45 -34.1L-12.2 -33.95L-11.85 -34.4L-10.05 -34.8L-9.65 -34.8L-7.85 -34.35Q-6.6 -33.8 -6.6 -32.8L-6.6 -32.75Q-6.65 -32.15 -6.95 -31.7L-7.35 -31.3Q-8.1 -30.75 -9.35 -30.75L-9.8 -30.75Q-11.6 -30.8 -12.15 -31.7M-13.55,-33Q-12.9 -33 -12.9 -33.75Q-12.9 -34.35 -13.55 -34.35Q-14.15 -34.35 -14.15 -33.65L-14 -33.25L-13.55 -33M-11.5,-32.8L-11.05 -32.55Q-10.35 -32.55 -10.35 -33.4Q-10.35 -34.2 -11.05 -34.1Q-11.65 -33.9 -11.65 -33.1L-11.5 -32.8" />
<path style="fill:none;stroke-width:1;stroke-linecap:butt;stroke-linejoin:miter;stroke-miterlimit:3;stroke:#854A34;stroke-opacity:1" d="M-6.6,-32.75L-6.3 -32.9Q-6.1 -33.35 -6.05 -33.8Q-5.9 -34.1 -5.9 -34.4Q-5.9 -35.7 -6.35 -36.55Q-7.1 -38.2 -9.35 -38.2Q-11.1 -38.2 -11.85 -37.7L-12.25 -37.15L-12.55 -36.7L-12.7 -36.6L-13.6 -35.25M-13.85,-30.85L-14.25 -30.05L-14.25 -30L-14.3 -29.75L-14.35 -29.6L-14.85 -28.4Q-14.85 -27.9 -12.65 -27.2L-12.5 -27.2L-12.2 -27.15L-11.4 -26.85L-11.1 -26.8L-10.15 -26.6L-10.05 -26.6L-9.8 -26.6L-9.05 -26.8L-8 -27.9L-7.8 -28.4Q-7.2 -29.15 -7.2 -29.7L-6.8 -30.75Q-6.45 -31.35 -6.45 -31.75L-6.3 -32.9Q-6.1 -32.9 -6.1 -33L-6.05 -33.5L-6.05 -33.8" />
<path style="fill:none;stroke-width:1;stroke-linecap:butt;stroke-linejoin:miter;stroke-miterlimit:3;stroke:#544741;stroke-opacity:1" d="M-13.7,-34.8L-12.9 -34.6L-12.65 -34.25L-12.45 -34.1M-12.15,-31.7Q-12.45 -32.1 -12.45 -32.8L-12.2 -33.95L-11.85 -34.4L-10.05 -34.8L-9.65 -34.8L-7.85 -34.35Q-6.6 -33.8 -6.6 -32.8L-6.6 -32.75M-13.7,-34.8Q-14.8 -34.8 -14.8 -32.8Q-14.8 -31.3 -13.9 -30.9L-13.85 -30.85L-13.3 -30.85Q-13.2 -30.85 -12.8 -31.2L-12.65 -31.35L-12.25 -31.65M-12.15,-31.7Q-11.6 -30.8 -9.8 -30.75Q-9.4 -31 -9.25 -31.7L-9.05 -32.9L-9.05 -33.35L-9.15 -33.9L-9.65 -34.8M-9.8,-30.75L-9.35 -30.75Q-8.1 -30.75 -7.35 -31.3L-6.95 -31.7Q-6.65 -32.15 -6.6 -32.75" />
</g>
</svg>
