<?xml version="1.0" encoding="utf-8"?>
<svg version="1.1" id="Layer_1"
xmlns="http://www.w3.org/2000/svg"
xmlns:xlink="http://www.w3.org/1999/xlink"
xmlns:author="http://www.sothink.com"
width="178px" height="271px"
xml:space="preserve">
<g id="345" transform="matrix(1, 0, 0, 1, 1.7, -298.6)">
<path style="fill:#000000;fill-opacity:0.2" d="M82.6,567.25Q76.95 565.25 76.95 562.3Q76.95 559.4 82.6 557.3Q88.15 555.25 96.15 555.25Q104.1 555.25 109.65 557.3Q115.3 559.4 115.3 562.3Q115.3 565.25 109.65 567.25Q104.1 569.35 96.15 569.35Q88.15 569.35 82.6 567.25" />
<path style="fill:#FC850F;fill-opacity:1" d="M54.7,329.5L54.7 329.85L55.2 338.45L58.3 335.8L61.35 337.45L62.2 333.95L65.05 334.6L65.45 331.1L69.55 331.5L68.95 329.85L68.85 329.5L64.35 318.85Q58.75 306.35 56.45 306.95Q54.15 307.55 54.45 323.05L54.7 329.5M109.25,504.1L109.9 505.9Q111.8 511.1 106.7 514.8Q102.3 518 96.4 518.15Q89.95 518.35 84.8 515.15Q78.7 511.3 82.3 505.65Q87.45 497.75 90.15 490.4L91.85 484.65Q84.8 484.35 78.35 482.55L71.9 483.35Q65 484.7 63.05 487.25Q62.7 487.7 62.6 488.25Q62.15 490.25 65.05 493.25Q69.1 497.35 68.6 499.1Q67.9 501.55 64.15 502.85L60.55 503.65L60 506.4Q59.05 509.3 57.1 510.2Q55.6 510.9 54.05 510.5Q52.5 510.15 51.25 508.8Q49.9 509.6 48.15 509.95Q44.7 510.7 42.75 508.55Q40.6 506.2 41.85 502.65Q42.2 501.65 42.7 500.85Q42.6 499.35 42.9 497.7Q43.6 494.4 45.8 493.6Q48 492.8 51.55 493.95Q53.3 494.55 54.6 495.25Q53.7 494 52.9 492.1Q52.1 490.1 52 488.25Q51.85 486.65 52.25 485.15Q53.1 482.05 59.35 480.45L61.2 480.05L56.6 479.2Q51.25 477.9 47.05 475Q41.4 471.15 38.3 460.2Q34.9 448.2 39.1 440.3Q40.95 436.85 44.8 431.85Q48.3 427.25 49.55 424.55Q51.25 420.95 51.55 415.55L51.5 410.85Q47.55 408.9 42.75 407.5Q33.2 404.75 29.1 407.75Q25.95 410.05 24.05 416.75Q22.55 421.9 22.25 427.25L22.25 428.9Q22.35 431.9 23.35 436.25L24.7 441.15L28.75 444.8Q32.1 449.05 28.6 452.05Q25.1 455.05 22.1 451.3L20 447.3L21.4 452.55Q22.45 458.1 20.6 459.8Q18.85 461.4 16.35 460.2L14.6 459.05L13.75 460.65Q12.6 462.35 11.2 462.7Q9.55 463.1 7.5 461.5Q5.4 459.85 4.85 457.55Q3.65 456.6 2.55 455.25Q0.35 452.55 0.95 450.4Q1.55 448.3 5.3 444.65L8.9 441.4Q8.2 435.55 8.4 428.9L8.55 425.15Q9.65 407.75 16.8 401.8Q26.4 393.85 40.35 398.3L54.2 402.85L51.75 400.6L51.55 400.4L49.7 398.15L48.7 396.6Q47.4 394.15 46.1 390.15L46.4 390.15L47.8 389.1L49.5 387.8Q53.1 385.9 53.1 385.35L52.85 385.1Q52.25 384.9 49.5 386.4Q46.65 387.95 46.65 388.7L46.35 389.35Q46 389.65 46 389.85L45.35 387.65L45.15 387L45 386.4L43.75 381.85L41.7 372.65L37.65 373.05L43.35 361.6L35.6 363.4L43.75 353.8L36.6 352.15L47.05 347.05L40.9 343.15L51.2 341.75L51.05 339.4L50.5 329.85L50.5 329.5L50.35 321.75Q50.3 301.6 54.6 300.95Q58.9 300.35 66.8 315.15Q70.6 322.3 73.65 329.5L73.8 329.85L73.85 330.05L74.2 329.85L74.8 329.5L77.25 328.1Q80.95 326.1 82.7 325.95Q84.25 325.85 85.9 327.45Q87.65 329.1 88.6 329.2Q89.8 329.3 92.75 328.4L96.4 327.4Q97.9 327.4 100.35 329.5L100.5 329.65L100.6 329.5Q104 322.5 108.2 315.65Q116.65 301.9 120.55 303.2Q124.45 304.5 123.2 322.9L122.7 329.5L122.65 329.85L121.45 339.4L121.2 341.1L128.75 345.4L120.15 349.3L131.4 354.6L122.8 356.85L127.95 358.9L123.25 363.85L126.7 366.9L123.75 378.75L123.35 380.2L123.2 379.95L123.45 379.7Q123.45 379.5 122.4 378.9L121.2 378.3L119.6 377.6Q118.2 376.9 117.6 376.95L117.4 376.95L117.35 377.25Q117.35 377.65 118.05 378.15L119.6 379.1Q122.2 380.55 123.05 380.55L123.3 380.5L121.85 385.5Q120.05 383.75 114.45 382.2L114.2 382.45Q114.2 382.85 115.7 383.8Q117.25 384.8 117.9 384.7Q119.85 385.9 121.45 386.2L121.6 386L121.75 386L121.6 386.4L121.4 387L121.2 387.65L121.1 388.05L120.75 387.75L121.2 387.3Q121.2 386.75 117.7 385.95L115.1 385.1Q113.1 384.6 113.1 385.3L114 386.1L115.3 386.75L117.45 387.35Q118.65 387.7 118.95 388.05L119.55 388.05L120.15 388.2L121 388.4L119.85 391.8L119.75 391.5L119.5 391.4L116.8 390.8L114.2 390.35L113.95 390.75L114.8 391.9L116.55 392.4L119.2 392.95L119.35 392.7L119.25 392.5L119.4 392.45L119.6 392.55L119.45 393L120.65 403.65Q122 402.75 124.3 401.55Q128.85 399.2 133.4 397.9Q148.1 393.75 157.7 401.7Q164.85 407.65 165.95 425.05L166.1 428.8Q166.3 435.45 165.6 441.3L169.2 444.55Q172.95 448.2 173.55 450.3Q174.15 452.45 171.95 455.15L169.65 457.45Q169.1 459.75 167 461.4Q164.95 463 163.3 462.6Q161.9 462.25 160.75 460.55L159.9 458.95Q159.05 459.55 158.15 460.1Q155.65 461.3 153.9 459.7Q152.05 458 153.1 452.45L154.5 447.2L152.4 451.2Q149.4 454.95 145.9 451.95Q142.4 448.95 145.75 444.7L149.8 441.05L151.15 436.15Q152.15 431.8 152.25 428.8L152.25 427.15Q151.95 421.8 150.45 416.65Q148.55 409.95 145.4 407.65Q141.3 404.65 131.75 407.4Q126.95 408.8 123 410.75L123.85 415.25Q125.25 420.4 128.15 423.75Q134.7 431.3 136.95 435.35Q141.95 444.2 140.7 453.4Q139.5 462.3 130.85 470.55Q126.5 474.65 122.4 477Q128.85 479.45 131 479.9L132.85 480.3Q139.1 481.9 139.95 485Q140.35 486.5 140.2 488.1Q140.1 489.95 139.3 491.95L137.6 495.1Q138.9 494.4 140.65 493.8Q144.2 492.65 146.4 493.45Q148.6 494.25 149.3 497.55Q149.6 499.2 149.5 500.7L150.35 502.5Q151.6 506.05 149.45 508.4Q147.5 510.55 144.05 509.8Q142.3 509.45 140.95 508.65Q139.7 510 138.15 510.35L135.1 510.05Q133.15 509.15 132.2 506.25L131.65 503.5L128.05 502.7Q124.3 501.4 123.6 498.95Q123.1 497.2 127.15 493.1Q130.05 490.1 129.6 488.1L129.15 487.1Q127.2 484.55 120.3 483.2L113.85 482.4Q107.1 484 100.85 484.5L104.35 492.35L108.95 503.4L108.35 502.85L107.85 502.75L107.45 502.75L106.95 503.15L99.1 504.55L93.6 504.55L91.35 504.45L91.45 504.9L93.2 505.45L96.85 505.95L96.95 506.05L100.25 506.1Q106.45 505.5 108.4 504.75L108.45 504.8L108.85 504.8Q109.1 504.8 109.05 504.4L109.2 504.15L109.25 504.1M79,354.3L78.15 355.45Q76.35 357.9 75.35 360.15L76.9 363.7Q79.6 367.3 85.2 367.7Q93.2 368.3 99.1 363.95Q104.2 360.15 104.15 355.45L104.05 354.2Q103.8 352.65 103.05 351.4Q101.9 349.7 99.7 348.55Q97.35 347.35 94.35 347.2L94.6 346.9Q95.25 346 95.5 344.7Q96.1 341.8 93.4 339.4L93.2 339.25Q90.35 336.8 87.55 338.8L86.85 339.4Q85.95 340.25 85.35 341.35L85.75 343.45L85.5 342.85L85.25 342.1L85.1 341.4L84.9 340.65L84.25 339.2L83.8 338.45L83.3 337.65L81.6 336.75L81.45 336.75L81.4 336.7L80.4 336.7L80.3 336.75L80.1 336.65L79.3 336.65L78.7 336.75L78 336.8L77.15 336.9L74.65 337.9Q74 338.15 73.5 338.65Q73.15 338.85 72.9 339.5L72.8 339.55L72 342.15L71.4 344.85L71.3 347.5Q71.15 347.85 71.15 348.85L71.1 350.2L71.3 352.6Q71.3 353.4 71.45 353.8L71.6 354.4L71.8 355L72.85 357.4Q73.1 358.65 74 359.85L74.45 359.95L74.8 359.85L75.05 359.35L75.15 359.3L76.35 357.5L77.85 355.7L78.15 355.25L78.2 355.05L78.45 354.8L79.35 353.9L79 354.3M79.95,353.25L80.95 352Q81.25 351.6 82.9 350.35L84.1 349.55L85.15 348.8L85.45 347.85L85.65 346.95L85.8 346.2L85.7 346.9L85.3 348.95Q83.5 349.9 81.8 351.4L79.95 353.25M52.15,376.45Q51.3 376.45 49.25 377.25Q47.6 377.95 47.25 378.2Q45.55 378.75 45.1 379.1L44.45 379.7Q43.85 380.35 43.85 380.8L43.95 381.05L44.35 381.05L48.45 379L50.6 378L52.1 377.15L52.8 376.95L52.7 376.5L52.15 376.45M64,380.55Q62.35 379.6 60.7 377.9L60.15 377.35Q59.55 376.7 59.35 375.25L57.2 381.8Q55.5 388.85 57.45 391.4Q60.95 395.85 66.9 394.7Q69.1 394.3 70.35 393.65Q72.15 392.75 72.85 391.2Q73.5 389.75 72.05 385.9L70.5 382.3L67.7 381.85L66.4 381.5L65.3 381.15L64.25 380.7L64 380.55M49.2,381.05L47.85 381.45L45.75 382.65Q45 383.05 45 383.65L45.25 384.2L46.5 383.65L47.8 382.75Q50.25 381.6 50.25 381.15L50.15 380.85L49.2 381.05M49.95,392L51.55 390.4L52.45 389.25L52.4 389.05Q51.9 388.95 51.2 389.4L49.6 390.55L47.95 391.7Q47.5 392.15 47.5 392.85L47.6 393.05L47.8 393.1L47.8 393.2L48 393.3L48.8 392.55L49.95 392M48.75,395.85L48.85 396.15L49.6 396.1L52.9 393L55.1 390.8L55 390.5Q54.5 390.45 53.25 391.3L51.45 392.65Q48.95 394.8 48.95 395.3L49 395.55L48.75 395.85M110.4,319.9Q107.8 324.7 105.55 329.5L105.35 329.85L104.9 330.8L108.25 333.15L111.95 332.3L111.55 336.6L114.6 334.75L116.05 339.3L117.6 329.85L117.65 329.5L118.2 325.15Q120 310.8 118.1 310Q116.25 309.2 110.4 319.9M119.9,382.55L121.95 383.6L122.1 383.45L122.2 382.85L121.5 382.2L120.2 381.55Q119.45 381.05 118.95 381Q118.45 380.95 118.45 381.45Q118.45 381.85 119.9 382.55M94.1,488.4L94.1 488.7Q94.45 489.05 95.25 489.2L95.9 489.35L96.75 489.45L98.1 489.7L98.2 489.8L100.85 489.95L101.9 489.75L102.5 489.45L101.9 489L102.1 488.95L102.45 488.7L102.4 488.55L102.1 488.45L101.6 488.4L99.2 488.6L94.35 488.35L94.1 488.4M93.6,494.7L93.7 495.15L94.3 495.3L95 495.45L96.75 495.7L96.85 495.8L99.1 495.95L100.35 496.15L101.55 496.2Q104.65 496.2 105.5 495.35L105.3 494.95L105 494.7L104.6 494.7L104.25 494.45L104.25 494.55L100.6 494.7L100.35 494.8L98.55 494.8L95.4 494.6L93.6 494.7M75.85,402.3L75.75 402L75.45 401.95L74.65 402.4L73.25 402.6L72.3 402.8L71.85 402.8L70.55 402.5L69.4 402.5L68.4 402.15L67.5 401.95Q67.1 402.05 67.1 402.45Q67.1 402.95 70.2 404.4L72.75 404.4Q75.85 403.25 75.85 402.3M61,399.4Q60.55 399.35 59.5 400.1L58.05 401.3L56.5 402.65Q56.25 402.9 56.25 403.6L56.35 403.8L56.7 403.85L57.1 404.45L58.25 403.35L59.35 402.2L61.1 399.75L61 399.4" />
<path style="fill:#E66006;fill-opacity:1" d="M54.45,323.05Q54.15 307.55 56.45 306.95Q58.75 306.35 64.35 318.85L68.85 329.5L68.95 329.85L69.55 331.5L65.45 331.1L65.05 334.6L62.2 333.95L61.35 337.45L58.3 335.8L55.2 338.45L54.7 329.85L54.7 329.5L54.45 323.05M118.1,310Q120 310.8 118.2 325.15L117.65 329.5L117.6 329.85L116.05 339.3L114.6 334.75L111.55 336.6L111.95 332.3L108.25 333.15L104.9 330.8L105.35 329.85L105.55 329.5Q107.8 324.7 110.4 319.9Q116.25 309.2 118.1 310" />
<path style="fill:#FF6D6B;fill-opacity:1" d="M81.8,351.4Q83.5 349.9 85.3 348.95Q87.55 347.75 89.95 347.4L94.35 347.2Q97.35 347.35 99.7 348.55Q101.9 349.7 103.05 351.4Q103.8 352.65 104.05 354.2L104.15 355.45Q104.2 360.15 99.1 363.95Q93.2 368.3 85.2 367.7Q79.6 367.3 76.9 363.7L75.35 360.15Q76.35 357.9 78.15 355.45L79 354.3L79.35 353.9L79.4 353.85L79.95 353.25L81.8 351.4" />
<path style="fill:#FF2E28;fill-opacity:1" d="M63.7,380.6L63.45 381.1L63.3 380.8L63.05 380.85Q62.7 382.7 62.7 384.25L62.95 386.85Q63.05 388.5 63.95 389.45L64.35 389.6L64.6 389.35Q64.35 388.6 64.5 387.55L64.7 385.7L64.95 383.95L65.45 382.05Q65.45 381.4 64.8 381.25L64.25 380.7L65.3 381.15L66.4 381.5L67.7 381.85L70.5 382.3L72.05 385.9Q73.5 389.75 72.85 391.2Q72.15 392.75 70.35 393.65Q69.1 394.3 66.9 394.7Q60.95 395.85 57.45 391.4Q55.5 388.85 57.2 381.8L59.35 375.25Q59.55 376.7 60.15 377.35L60.7 377.9Q62.35 379.6 64 380.55L63.7 380.6" />
<path style="fill:#FFFFFF;fill-opacity:1" d="M89.95,347.4Q87.55 347.75 85.3 348.95L85.7 346.9L85.8 346.2L85.65 346.95L85.45 347.85L85.15 348.8L84.1 349.55L82.9 350.35Q81.25 351.6 80.95 352L79.95 353.25L79.4 353.85L79.35 353.9L78.45 354.8L78.2 355.05L78.15 355.25L77.85 355.7L76.35 357.5L75.15 359.3L75.05 359.35L74.8 359.85L74.45 359.95L74 359.85Q73.1 358.65 72.85 357.4L71.8 355L71.6 354.4L71.45 353.8Q71.3 353.4 71.3 352.6L71.1 350.2L71.15 348.85Q71.15 347.85 71.3 347.5L71.4 344.85L72 342.15L72.8 339.55L72.9 339.5Q73.15 338.85 73.5 338.65Q74 338.15 74.65 337.9L77.15 336.9L78 336.8L78.7 336.75L79.3 336.65L80.1 336.65L80.3 336.75L80.4 336.7L81.4 336.7L81.45 336.75L81.6 336.75L83.3 337.65L83.8 338.45L84.25 339.2L84.9 340.65L85.1 341.4L85.25 342.1L85.5 342.85L85.75 343.45L85.35 341.35Q85.95 340.25 86.85 339.4L87.55 338.8Q90.35 336.8 93.2 339.25L93.4 339.4Q96.1 341.8 95.5 344.7Q95.25 346 94.6 346.9L94.35 347.2L89.95 347.4M80.85,349.35Q81.45 349.4 82.1 348.25L82.65 346.5Q82.25 342.55 80.2 343.55Q78.35 344.4 78.35 346.85Q78.35 348.4 80 349.35L80.85 349.35M91.1,344.7Q91.1 343.35 89.55 343.25Q87.95 343.2 87.95 345.35Q87.95 346.05 88.3 346.45L89.05 346.9L89.85 347L90.75 346.1L91.1 344.7" />
<path style="fill:#582903;fill-opacity:1" d="M123.05,380.55Q122.2 380.55 119.6 379.1L118.05 378.15Q117.35 377.65 117.35 377.25L117.4 376.95L117.6 376.95Q118.2 376.9 119.6 377.6L121.2 378.3L122.4 378.9Q123.45 379.5 123.45 379.7L123.2 379.95L123.35 380.2L123.3 380.45L123.3 380.5L123.05 380.55M121.6,386L121.45 386.2Q119.85 385.9 117.9 384.7Q117.25 384.8 115.7 383.8Q114.2 382.85 114.2 382.45L114.45 382.2Q120.05 383.75 121.85 385.5L122.1 385.75L121.95 385.95L121.75 386L121.6 386M120.15,388.2L119.55 388.05L118.95 388.05Q118.65 387.7 117.45 387.35L115.3 386.75L114 386.1L113.1 385.3Q113.1 384.6 115.1 385.1L117.7 385.95Q121.2 386.75 121.2 387.3L120.75 387.75L121.1 388.05L121.2 388.15L121.1 388.4L121 388.4L120.15 388.2M119.4,392.45L119.25 392.5L119.35 392.7L119.2 392.95L116.55 392.4L114.8 391.9L113.95 390.75L114.2 390.35L116.8 390.8L119.5 391.4L119.75 391.5L119.85 391.8L119.95 392.45L119.85 392.6L119.6 392.55L119.4 392.45M109.2,504.15L109.05 504.4Q109.1 504.8 108.85 504.8L108.45 504.8L108.4 504.75Q106.45 505.5 100.25 506.1L96.95 506.05L96.85 505.95L93.2 505.45L91.45 504.9L91.35 504.45L93.6 504.55L99.1 504.55L106.95 503.15L107.45 502.75L107.85 502.75L108.35 502.85L108.95 503.4L109.35 503.95L109.25 504.1L109.2 504.15M46.1,390.15L46 389.85Q46 389.65 46.35 389.35L46.65 388.7Q46.65 387.95 49.5 386.4Q52.25 384.9 52.85 385.1L53.1 385.35Q53.1 385.9 49.5 387.8L47.8 389.1L46.4 390.15L46.1 390.15M80,349.35Q78.35 348.4 78.35 346.85Q78.35 344.4 80.2 343.55Q82.25 342.55 82.65 346.5L82.1 348.25Q81.45 349.4 80.85 349.35L80 349.35M52.7,376.5L52.8 376.95L52.1 377.15L50.6 378L48.45 379L44.35 381.05L43.95 381.05L43.85 380.8Q43.85 380.35 44.45 379.7L45.1 379.1Q45.55 378.75 47.25 378.2Q47.6 377.95 49.25 377.25Q51.3 376.45 52.15 376.45L52.7 376.5M64,380.55L64.25 380.7L64.8 381.25Q65.45 381.4 65.45 382.05L64.95 383.95L64.7 385.7L64.5 387.55Q64.35 388.6 64.6 389.35L64.35 389.6L63.95 389.45Q63.05 388.5 62.95 386.85L62.7 384.25Q62.7 382.7 63.05 380.85L63.3 380.8L63.45 381.1L63.7 380.6L64 380.55M50.15,380.85L50.25 381.15Q50.25 381.6 47.8 382.75L46.5 383.65L45.25 384.2L45 383.65Q45 383.05 45.75 382.65L47.85 381.45L49.2 381.05L50.15 380.85M48.8,392.55L48 393.3L47.8 393.2L47.8 393.1L47.6 393.05L47.5 392.85Q47.5 392.15 47.95 391.7L49.6 390.55L51.2 389.4Q51.9 388.95 52.4 389.05L52.45 389.25L51.55 390.4L49.95 392L48.8 392.55M49,395.55L48.95 395.3Q48.95 394.8 51.45 392.65L53.25 391.3Q54.5 390.45 55 390.5L55.1 390.8L52.9 393L49.6 396.1L48.85 396.15L48.75 395.85L49 395.55M90.75,346.1L89.85 347L89.05 346.9L88.3 346.45Q87.95 346.05 87.95 345.35Q87.95 343.2 89.55 343.25Q91.1 343.35 91.1 344.7L90.75 346.1M118.45,381.45Q118.45 380.95 118.95 381Q119.45 381.05 120.2 381.55L121.5 382.2L122.2 382.85L122.1 383.45L121.95 383.6L119.9 382.55Q118.45 381.85 118.45 381.45M94.35,488.35L99.2 488.6L101.6 488.4L102.1 488.45L102.4 488.55L102.45 488.7L102.1 488.95L101.9 489L102.5 489.45L101.9 489.75L100.85 489.95L98.2 489.8L98.1 489.7L96.75 489.45L95.9 489.35L95.25 489.2Q94.45 489.05 94.1 488.7L94.1 488.4L94.35 488.35M95.4,494.6L98.55 494.8L100.35 494.8L100.6 494.7L104.25 494.55L104.25 494.45L104.6 494.7L105 494.7L105.3 494.95L105.5 495.35Q104.65 496.2 101.55 496.2L100.35 496.15L99.1 495.95L96.85 495.8L96.75 495.7L95 495.45L94.3 495.3L93.7 495.15L93.6 494.7L95.4 494.6M72.75,404.4L70.2 404.4Q67.1 402.95 67.1 402.45Q67.1 402.05 67.5 401.95L68.4 402.15L69.4 402.5L70.55 402.5L71.85 402.8L72.3 402.8L73.25 402.6L74.65 402.4L75.45 401.95L75.75 402L75.85 402.3Q75.85 403.25 72.75 404.4M61.1,399.75L59.35 402.2L58.25 403.35L57.1 404.45L56.7 403.85L56.35 403.8L56.25 403.6Q56.25 402.9 56.5 402.65L58.05 401.3L59.5 400.1Q60.55 399.35 61 399.4L61.1 399.75" />
<path style="fill:#000000;fill-opacity:0.2" d="M66.6,316.35L64.95 312.75L63.5 309.4L66.8 315.15L70.75 323L70.65 323.55L70.8 325.3L69.9 323.55L69.2 321.75L68.55 319.95L66.6 316.35M65.3,317.1Q66.65 319.3 68.9 324.2L70.7 327.8L71.25 328.85L71.25 328.9Q71.25 331.1 70.35 331.75L65.75 332.1Q65.45 332.45 65.3 333.55Q65.1 334.7 64.7 335.1L64.35 335.1L63.35 334.8L62.55 334.8Q61.9 335.25 61.55 336.75L60.95 338.1Q60.5 338.1 59.55 337.35L58.45 336.45L58.2 336.6L56.5 337.9Q55.2 338.95 54.35 339L54.35 338.95L54.6 338.85L54.6 337.05L54.05 331.95L53.6 325.85L54.15 315.15Q54.15 312.2 54.6 309.8Q54.75 308.65 55.35 307.1Q55.55 306.25 56.1 305.85L57 305.35L58.05 306.3L59.6 308.1L61.05 309.9L65.3 317.1M56.15,302.55L55.95 302.35L55.65 302.15Q55.05 302.15 55.05 303.15L55.1 303.4L55.05 303.4L54.5 304.55Q53.5 307.6 53.25 309.2Q52.7 312.65 52.65 314.4L52.65 318.5L52.85 322.4L52.85 330.35L53.15 334.75L53.25 335.6L53.25 335.65Q53.25 338.05 54.45 342.95L53.95 343.95Q53.45 344.55 53.45 345Q53.45 345.4 54.45 345.95Q55.4 346.5 55.4 347.45Q55.4 347.95 54.8 348.75L53.55 350.25L51.65 353L52.1 353.6L53.45 353.7L53.05 354.55L52.65 355.35L53.1 356.05L53.6 356.9L53.65 357.55Q53.25 358 52.85 359.1L52.1 359.85Q51.3 360.7 51.3 360.9L51.75 361.9L52.2 363.15Q52.2 364.2 50.9 367.7L52 370.25L53.25 373.25Q53.5 374.8 54.1 376.7Q54.8 378.75 55.1 378.75Q55.6 378.75 56.3 376.65Q57 374.7 57 373.65L57.05 371Q57.1 369.45 57.3 368.4L58.5 363.05Q59.35 359.9 60.75 357.65L60.75 357.75L60.7 358.05Q60.4 358.3 60.25 358.95L60.05 361.05L59.9 362.45L59.7 363.4Q59.1 367.05 59.1 369.2L59.2 370.45L58.95 372.15L58.75 375.8Q58.5 377.95 57.65 379.5Q56.75 381.3 56.45 383.1Q56.15 385.5 56.15 386.9L56.4 389.1Q56.55 390.6 57.2 391.25L60.35 394.35Q61.65 395.25 64.5 395.25L68.75 395.1L68.2 395.7Q67.65 396.5 67.65 397.9L67.65 398.15L67.5 398.75Q67.5 399.9 68.35 400.5L70.45 401.25Q71.75 401.8 73.7 402.15L78.8 402.15L79.2 402L79.2 401.85L80.3 402L88.85 400.95L93.15 399.5L100.95 396.5L108.55 393.7Q112.7 392 115.55 389.85L120.8 385.25L122.45 383.5L121.85 385.5L122.1 385.75L121.95 385.95L121.75 386L121.6 386.4L121.4 387L121.2 387.65L121.1 388.05L121.2 388.15L121.1 388.4L121 388.4L119.85 391.8L119.95 392.45L119.85 392.6L119.6 392.55L119.45 393L119.85 396.7L118.5 399.05Q117.25 401.4 113.85 405Q111.8 407.1 106.25 410.05Q100.6 413.05 95.7 414.6L89.5 416.65L80.55 418.05L75 418.8L62.25 419.55Q60.85 419.65 60.3 420.55Q59.95 421.1 59.55 422.25L57.8 425.3Q56.6 427.25 56.15 428.25L55.5 429.8Q55.05 429.8 53.5 433.55Q51.95 437.1 51.9 437.7Q51.35 441.05 51.35 445.75L51.45 449.15Q51.9 451.6 52.35 452.55L54.4 456Q55.65 457.75 57.75 459.45L62.1 462.6Q65.2 464.6 67.2 465.35Q70.1 466.5 76.2 467.75Q82.95 469.1 87 469.1L94.95 468.95L106.75 467.65Q114.7 466.5 119.4 464.7Q124.75 462.6 127.4 460.95L132.45 457.05Q137.5 453 138.9 448.5L140.4 444.4Q141.3 448.85 140.7 453.4Q139.5 462.3 130.85 470.55Q126.55 474.6 122.45 477Q121.05 477.45 121.05 478.3Q121.05 479.15 125.35 480.85L129.95 482.55Q132.4 483.9 133.35 485.4Q134.1 486.6 134.1 488.4Q134.1 489.7 132.45 492.2Q130.8 494.7 130.8 495.35Q130.8 496.25 131.2 496.7L132.45 498.3L133.05 499.65L134.7 501.15Q135.3 501.7 136.6 504.25Q138.1 506.55 140.25 506.55Q141.25 506.55 141.7 506.2L143 504.3L144.3 504.95L147 505.35L149 505.2Q150.35 504.85 150.5 503.4L150.55 503.15Q151.4 506.25 149.45 508.4Q147.5 510.55 144.05 509.8Q142.3 509.45 140.95 508.65Q139.7 510 138.15 510.35L135.1 510.05Q133.15 509.15 132.2 506.25L131.65 503.5L128.05 502.7Q124.3 501.4 123.6 498.95Q123.1 497.2 127.15 493.1Q130.05 490.1 129.6 488.1L129.15 487.1Q127.2 484.55 120.3 483.2L113.85 482.4Q107.1 484 100.85 484.5L101.95 486.9L100.7 487.2L96.9 487.95Q95.2 488.05 95.1 489L95.1 490.35Q95.4 493 94.85 496.05L94.3 498.85L93.5 501.65Q93.2 503 92.35 504.6Q91.65 505.8 91.65 507.35L91.75 508.7L93 510.2L94.4 511.55Q95.8 512.6 97.6 512.6Q99.85 512.6 104.7 511.05Q106.8 510.8 108.9 508.35L110 506.1Q111.7 511.15 106.7 514.8Q102.3 518 96.4 518.15Q89.95 518.35 84.8 515.15Q78.7 511.3 82.3 505.65Q87.45 497.75 90.15 490.4L91.85 484.65Q84.8 484.35 78.35 482.55L71.9 483.35Q65 484.7 63.05 487.25Q62.7 487.7 62.6 488.25Q62.15 490.25 65.05 493.25Q69.1 497.35 68.6 499.1Q67.9 501.55 64.15 502.85L60.55 503.65L60 506.4Q59.05 509.3 57.1 510.2Q55.6 510.9 54.05 510.5Q52.5 510.15 51.25 508.8Q49.9 509.6 48.15 509.95Q44.7 510.7 42.75 508.55Q40.6 506.2 41.85 502.65Q42.15 501.75 42.6 501.05L42.6 501.15Q42.7 502.7 42.95 503.4L43.75 504.55Q44.7 505.35 46.5 505.35L48.5 505.05L48.95 504.75L49.75 505.2L52 505.65Q54.4 505.65 56.1 503.7L57.5 501.6Q58.1 500.75 59.95 499.55Q61.1 498.85 61.1 496.95Q61.1 494.75 59.6 492.5Q58.05 490.25 58.05 488.75L58.35 486.5Q58.45 485.1 59.85 484.25L63.05 482.6Q64.95 481.5 64.95 480.4Q64.95 479 59.85 479.85L56.6 479.2Q51.25 477.9 47.05 475Q41.4 471.15 38.3 460.2Q34.9 448.2 39.1 440.3Q40.95 436.85 44.8 431.85Q48.3 427.25 49.55 424.55Q51.25 420.95 51.55 415.55L51.5 410.85L50 410.15Q49.55 408.45 47.9 406.45Q45.25 403.35 41.85 402.8L39.75 402.2L33 401.7L27.6 402.3Q27 402.9 25.65 403.2Q24.05 403.6 22.4 404.95L19.95 407.25Q17.1 409.8 15.3 415.95Q13.7 421.3 13.7 426L13.9 429.15L13.85 429.85Q13.85 432.35 14.6 435.9Q15.3 439.5 15.3 442.8L15.05 447.45Q14.7 448.5 14.7 449.85Q14.7 452.2 15.7 454.1Q17.05 456.65 20 457.8L20.85 457.8L21.75 457.05Q21.55 458.95 20.6 459.8Q18.85 461.4 16.35 460.2L14.6 459.05L13.75 460.65Q12.6 462.35 11.2 462.7Q9.55 463.1 7.5 461.5Q5.4 459.85 4.85 457.55Q3.65 456.6 2.55 455.25Q0.35 452.55 0.95 450.4Q1.55 448.3 5.3 444.65L8.9 441.4Q8.2 435.55 8.4 428.9L8.55 425.15Q9.65 407.75 16.8 401.8Q26.4 393.85 40.35 398.3L54.2 402.85L51.75 400.6L51.55 400.4L49.7 398.15L48.7 396.6Q47.4 394.15 46.1 390.15L46 389.85L45.35 387.65L45.15 387L45 386.4L43.75 381.85L41.7 372.65L37.65 373.05L43.35 361.6L35.6 363.4L43.75 353.8L36.6 352.15L47.05 347.05L40.9 343.15L51.2 341.75L51.05 339.4L50.5 329.85L50.5 329.5L50.35 321.75Q50.3 301.6 54.6 300.95Q56.9 300.65 60.25 304.75L58.65 303.45L56.7 302.1Q56.35 302.1 56.15 302.55M57.2,310.95Q55.5 309.85 54.95 311.05Q54.7 311.45 54.6 312.9Q54.45 316.15 54.45 319.4L54.5 322.3L54.75 326.75L54.6 330.5Q54.7 332.75 56.25 334.2L56.9 334.2L58.95 331.3L60.05 328.5L60.15 328.5L60.2 329.1Q60.3 329.6 60.75 329.6Q61.4 329.6 61.7 328.95L61.95 328.05L62.3 328.8Q62.5 329.25 63.05 329.25Q63.5 329.25 63.6 328.45L63.6 327.45Q63.6 324.25 59.25 314.25L58.45 312.6L57.2 310.95M69.3,342.2Q73.6 337.6 77.4 336.6L77.1 336.75Q75.8 337.45 74.85 340.2Q74 342.55 74 344.3L74.2 345.55L74.6 346.8Q75.35 348.05 76.05 348.5Q76.9 349.1 78.35 349.1Q82.2 349.1 83.85 346Q84.8 344.25 84.8 342.35L84.7 340.5Q84.5 339.25 83.7 338.55Q83.05 337.4 81.3 336.6L81 336.5L82.4 337Q83.1 337.35 83.7 337.8Q84.45 338.25 84.9 339.2L85.6 339.95Q85.9 339.95 86.85 338.55Q87.15 338.2 88.3 337.75Q89.5 337.3 90.2 337.25Q93.1 338.1 94.5 340.35Q95.55 342.05 95.55 344.05L95.25 345.75Q95.2 346.2 95.8 346.55L97.1 347.1L99.4 348.5L101.75 350.25Q103.6 351.55 103.9 353.35L103.85 353.4L104.25 357.2Q104.25 359.4 103.4 362.7Q102.55 366 101.55 367.85Q99.95 370.7 97.45 372.8Q93.05 376.55 87.35 376.55Q81.95 376.55 78.5 373.65Q76.65 372.1 75.95 370.5Q75 367.55 75 366.6L75.1 364.65L74.85 362.85Q72.95 357.35 71.55 355.2Q70 352.65 68 351.2Q65.45 349.3 61.85 348.65L63.6 347.2L65.6 345.65L69.3 342.2M79.1,358.4L80.85 360.6L82.15 361L84.9 361.35L87.5 361.55Q95.05 361.55 98.9 357.7Q101.55 355.1 101.55 352.45Q101.55 350.9 99.8 349.6Q97.65 347.95 93.75 347.9L89.85 347.9Q86.2 347.7 82.25 351.1Q78.6 354.3 78.6 356.7Q78.6 357.8 79.1 358.4M59.55,374.3Q59.85 375.65 60.9 376.95L62.55 378.9Q63.05 379.6 65.4 380.4Q68 381.9 78.9 382.65L80.4 382.8L84 382.35L91.1 381.65L94.1 381.2L97.05 380.4Q101.65 379.4 105.15 378Q108.7 376.6 112.4 374.7Q114.25 373.75 115.6 372.45L117.9 370.2L117.95 370.25Q115.15 376.05 109.8 378.95Q105.65 381.25 95.55 384.75L86.6 387.3L83.6 388.05L78.8 388.65L76.7 388.8L76.15 389.15Q73.95 389.2 73.65 390L73.1 391.2Q72.7 392.2 70.65 393.6L69.6 394.35L66.25 394.45L64.45 394.55Q62.35 394.55 61 393.85Q59.5 393.05 57.75 390.8Q56.9 389.75 57 388.5L57.05 387.15L57 386.1Q57 384.05 57.25 382.8Q57.6 381.05 58.65 379.2Q59.4 377.85 59.5 375.7L59.55 374.3M59.5,388.3Q60.05 390.75 61.75 390.75Q62.9 390.75 62.9 387.1L62.6 384.2L62.8 382.7Q62.9 381.8 62.15 381.3Q60.15 380.55 59.55 382.45Q59.3 383.25 59.3 385.65L59.5 388.3M67.65,385.2Q67.35 386 67.35 386.7L67.85 389.5Q68.55 392.25 69.8 392.25Q71 392.25 71.55 390.65L71.9 388.7Q71.15 383.9 69.05 383.9Q68.1 383.9 67.65 385.2M121.55,332.4L121.2 332.3Q121.05 332.3 120.25 334.95L120.75 329.5Q121.5 321.85 121.5 318.45L121.35 312.15Q120.8 309.95 120.75 309Q119.85 306.15 119.85 305.75L119.9 305.3L120.45 304.75L120.8 304.35L121.2 304.6L121.8 304.2Q124.25 307.8 123.2 322.9L122.7 329.5L122.65 329.85L121.55 338.7L120.3 340.8Q120 339.6 120 338.75L120.05 337.45L120.3 336.8L121.65 332.75L121.55 332.4M119.25,305.4Q119 305.2 118.65 305.5L117.6 306.6L115.7 308.4Q114.5 309.8 113 312.1L110.7 315.75Q109.25 317.9 106.95 322.45Q104.65 327 104.15 329.25L103.55 329.9Q102.8 330.6 101.85 330.6Q100.3 330.6 99.95 329.2L100.35 329.5L100.5 329.65L100.6 329.5Q104 322.5 108.2 315.65Q116.65 301.9 120.55 303.2Q121.1 303.4 121.55 303.9Q120.3 303.15 119.7 304.05Q119.3 304.55 119.25 305.4M116.7,312.6Q114.95 312.15 113 315.25Q111.95 316.95 110.25 320.45L108.1 324.3Q106.4 327.5 106.4 328.45L106.5 329.25Q106.7 330 107.35 330Q108.05 330 108.6 329.55L109.2 329.25L109.5 329.2L109.8 329.25L111.25 328.65L112.4 327.75L112.5 327.8L112.55 329.1L112.6 329.2L112.95 329.25Q114.5 329.25 116.1 322.5Q117.45 316.75 117.45 314.15Q117.45 312.85 116.7 312.6M120.5,312.05L120.75 318.4L120.15 328.65L119.65 333.75L119.35 337.4Q118.25 339.6 116.95 339.6Q115.65 339.6 115.2 338Q114.6 336.05 114.15 335.7L113.7 335.7L112.95 336.3Q112.4 336.8 111.9 336.8L111.65 336.75L111.65 336.65L111.5 333.15L111 333L108.3 333.45Q107.85 333.35 106.35 332.25Q104.7 331.05 104.7 330.6L104.75 330.45L105.5 328.45L106.35 325.55Q107.65 322.3 109.2 319.8Q111.05 316.75 113 314.1L115.15 311Q117.1 308.7 118.95 308.7L120.1 309.65L120.5 312.05M88.1,343.35Q89.1 344.9 91.35 344.9Q93.05 344.9 93.75 343.7Q94.2 343 94.2 342Q94.2 338.45 90.85 337.9Q87.5 337.4 87.5 341.3Q87.5 342.35 88.1 343.35M173.5,450.15L173.55 450.3Q174.15 452.45 171.95 455.15L169.65 457.45Q169.1 459.75 167 461.4Q164.95 463 163.3 462.6Q161.9 462.25 160.75 460.55L159.9 458.95Q159.05 459.55 158.15 460.1Q155.65 461.3 153.9 459.7Q152.05 458 153.1 452.45L154.5 447.2L152.4 451.2Q149.4 454.95 145.9 451.95Q142.4 448.95 145.75 444.7L149.8 441.05L151.15 436.15Q152.15 431.8 152.25 428.8L152.25 427.15Q151.95 421.8 150.45 416.65Q148.55 409.95 145.4 407.65Q141.3 404.65 131.75 407.4Q126.95 408.8 123 410.75L123.2 411.8Q122.45 410.8 122.45 409.7Q122.45 407.95 127.95 405.6Q133.9 403.05 139.55 403.05L145.1 403.45Q148.35 404.05 151.45 405.65L151.4 405.8Q153.25 405.8 155.15 411.15Q156.25 413.8 156.6 416.55L157.15 421.3L157.7 427.4L157.5 433.05Q157.1 436.15 157.1 438.8L157.2 440.05L157.2 440.25Q157.2 441.45 157.5 442.75L157.8 444.95L157.35 449.15Q156.9 451.25 156.9 453Q156.9 454.6 157.15 455.35Q157.7 456.75 159.35 457.05L160.2 457.05Q161.1 456.3 161.55 455L162.15 452.7L162.4 450.4Q162.55 449.05 163.25 448.05Q164.2 448.4 164.3 449.25L164.25 450.5L164.55 453.15Q164.65 455.45 164.9 456.25Q165.5 458.25 167.45 458.25Q169.3 458.25 169.4 455.3L169 453.5L168.6 451.55L168.6 450.85Q168.75 450.15 169.3 450.15L170 450.8Q170.7 451.4 171.2 451.4Q172.7 451.4 173.4 450.3L173.5 450.15M19.4,445.2Q19.65 444.85 20.4 444.8L21.45 444.65L23.85 448.1Q25.7 450.15 27.9 450.15Q29.45 450.15 30.35 449.35Q30.05 450.8 28.6 452.05Q25.1 455.05 22.1 451.3L21 449.15Q20.15 446.2 19.35 445.25L19.4 445.2M10.25,447.3L9.45 449.4L8.9 451.25Q8.4 453.1 8.4 453.8L8.95 456.65Q9.8 459.45 11.5 459.45Q12.35 459.45 12.35 457.2L12 455.05L11.55 453Q11.2 451 11.4 448.5L11.1 447.45Q10.75 446.85 10.25 447.3" />
<path style="fill:#FFFFFF;fill-opacity:0.4" d="M98.5,348.15Q100.55 349.3 100.55 351.1Q100.55 351.95 99.8 352.8L97.95 354.45Q96.5 355.55 94.1 356.2L90.8 356.95L86.5 356.95L86.45 356.9Q84.95 356.75 83.35 355.7Q81.9 354.7 81.9 354.05Q81.9 352.55 83.65 350.9L85.4 349.65Q86.65 348.95 87.9 348.55L91.75 347.75L94.05 347.5L96.75 347.6L98.5 348.15" />
<path style="fill:none;stroke-width:2;stroke-linecap:round;stroke-linejoin:miter;stroke-miterlimit:3;stroke:#AE4200;stroke-opacity:1" d="M54.7,329.5L54.45 323.05Q54.15 307.55 56.45 306.95Q58.75 306.35 64.35 318.85L68.85 329.5L68.95 329.85L69.55 331.5L65.45 331.1L65.05 334.6L62.2 333.95L61.35 337.45L58.3 335.8L55.2 338.45L54.7 329.85L54.7 329.5M118.1,310Q120 310.8 118.2 325.15L117.65 329.5L117.6 329.85L116.05 339.3L114.6 334.75L111.55 336.6L111.95 332.3L108.25 333.15L104.9 330.8L105.35 329.85L105.55 329.5Q107.8 324.7 110.4 319.9Q116.25 309.2 118.1 310" />
<path style="fill:none;stroke-width:3;stroke-linecap:butt;stroke-linejoin:miter;stroke-miterlimit:3;stroke:#AE4200;stroke-opacity:1" d="M123.85,415.25Q125.25 420.4 128.15 423.75Q134.7 431.3 136.95 435.35Q141.95 444.2 140.7 453.4Q139.5 462.3 130.85 470.55Q126.5 474.65 122.4 477Q128.85 479.45 131 479.9L132.85 480.3Q139.1 481.9 139.95 485Q140.35 486.5 140.2 488.1Q140.1 489.95 139.3 491.95L137.6 495.1Q138.9 494.4 140.65 493.8Q144.2 492.65 146.4 493.45Q148.6 494.25 149.3 497.55Q149.6 499.2 149.5 500.7M22.25,427.25L22.25 428.9Q22.35 431.9 23.35 436.25L24.7 441.15L28.75 444.8Q32.1 449.05 28.6 452.05Q25.1 455.05 22.1 451.3L20 447.3" />
<path style="fill:none;stroke-width:3;stroke-linecap:round;stroke-linejoin:miter;stroke-miterlimit:3;stroke:#AE4200;stroke-opacity:1" d="M54.2,402.85L51.75 400.6L51.55 400.4L49.7 398.15L48.7 396.6Q47 393.45 45.35 387.65L45.15 387L45 386.4L43.75 381.85L41.7 372.65L37.65 373.05L43.35 361.6L35.6 363.4L43.75 353.8L36.6 352.15L47.05 347.05L40.9 343.15L51.2 341.75L51.05 339.4L50.5 329.85L50.5 329.5M169.65,457.45Q170.1 455.5 168.2 450.95L166.2 446.8M154.5,447.2L155.45 444.1M14.6,459.05L12.7 457.1Q11.1 455.15 11.6 450.4L12.4 446.1M20,447.3L19.05 444.2M51.25,508.8Q49.85 507.3 49.1 505.05Q48.15 502.25 51.2 500.5L54.4 499.3M149.5,500.7Q148.5 499 146.95 498.15L144.6 497.75L143.1 497.75" />
<path style="fill:none;stroke-width:2;stroke-linecap:round;stroke-linejoin:miter;stroke-miterlimit:3;stroke:#582903;stroke-opacity:1" d="M70.5,382.3L78.55 382.7L81.25 382.65Q91 382.25 102.85 378.5L104.7 377.9Q108.75 376.55 111.6 375.15Q117.5 372.3 118.3 369.4L118.3 369.3Q118.25 368.65 115.35 368.15L112.15 367.75" />
<path style="fill:none;stroke-width:2;stroke-linecap:round;stroke-linejoin:miter;stroke-miterlimit:3;stroke:#AE4200;stroke-opacity:1" d="M94.35,347.2L94.35 347.45" />
<path style="fill:none;stroke-width:3;stroke-linecap:round;stroke-linejoin:miter;stroke-miterlimit:3;stroke:#AE4200;stroke-opacity:1" d="M50.5,329.5L50.35 321.75Q50.3 301.6 54.6 300.95Q58.9 300.35 66.8 315.15Q70.6 322.3 73.65 329.5L73.8 329.85L73.85 330.05L74.2 329.85L74.8 329.5L77.25 328.1Q80.95 326.1 82.7 325.95Q84.25 325.85 85.9 327.45Q87.65 329.1 88.6 329.2Q89.8 329.3 92.75 328.4L96.4 327.4Q97.9 327.4 100.35 329.5L100.5 329.65L100.6 329.5Q104 322.5 108.2 315.65Q116.65 301.9 120.55 303.2Q124.45 304.5 123.2 322.9L122.7 329.5L122.65 329.85L121.45 339.4L121.2 341.1L128.75 345.4L120.15 349.3L131.4 354.6L122.8 356.85L127.95 358.9L123.25 363.85L126.7 366.9L123.75 378.75L121.6 386.4L121.4 387L121.2 387.65L119.45 393M123,410.75L123.85 415.25M113.85,482.4Q107.1 484 100.85 484.5M54.05,510.5Q52.5 510.15 51.25 508.8M24.05,416.75Q22.55 421.9 22.25 427.25M162.1,446L162.9 450.3Q163.4 455.05 161.8 457L159.9 458.95M8.3,446.9L6.3 451.05Q4.4 455.6 4.85 457.55M65.45,479.45L61.2 480.05M49.1,497.9L47.6 497.9Q45.95 497.95 45.25 498.3Q43.7 499.15 42.7 500.85M137.8,499.15L141 500.35Q144.05 502.1 143.1 504.9Q142.35 507.15 140.95 508.65" />
<path style="fill:none;stroke-width:3;stroke-linecap:round;stroke-linejoin:miter;stroke-miterlimit:3;stroke:#AE4200;stroke-opacity:1" d="M119.45,393L120.65 403.65Q122 402.75 124.3 401.55Q128.85 399.2 133.4 397.9Q148.1 393.75 157.7 401.7Q164.85 407.65 165.95 425.05L166.1 428.8Q166.3 435.45 165.6 441.3L169.2 444.55Q172.95 448.2 173.55 450.3Q174.15 452.45 171.95 455.15L169.65 457.45Q169.1 459.75 167 461.4Q164.95 463 163.3 462.6Q161.9 462.25 160.75 460.55L159.9 458.95Q159.05 459.55 158.15 460.1Q155.65 461.3 153.9 459.7Q152.05 458 153.1 452.45L154.5 447.2M149.5,500.7L150.35 502.5Q151.6 506.05 149.45 508.4Q147.5 510.55 144.05 509.8Q142.3 509.45 140.95 508.65M100.85,484.5L104.35 492.35Q108.2 501.2 109.9 505.9Q111.8 511.1 106.7 514.8Q102.3 518 96.4 518.15Q89.95 518.35 84.8 515.15Q78.7 511.3 82.3 505.65Q87.45 497.75 90.15 490.4L91.85 484.65Q96.2 484.85 100.85 484.5M51.25,508.8Q49.9 509.6 48.15 509.95Q44.7 510.7 42.75 508.55Q40.6 506.2 41.85 502.65Q42.2 501.65 42.7 500.85Q42.6 499.35 42.9 497.7Q43.6 494.4 45.8 493.6Q48 492.8 51.55 493.95Q53.3 494.55 54.6 495.25Q53.7 494 52.9 492.1Q52.1 490.1 52 488.25Q51.85 486.65 52.25 485.15Q53.1 482.05 59.35 480.45L61.2 480.05M20,447.3L21.4 452.55Q22.45 458.1 20.6 459.8Q18.85 461.4 16.35 460.2L14.6 459.05L13.75 460.65Q12.6 462.35 11.2 462.7Q9.55 463.1 7.5 461.5Q5.4 459.85 4.85 457.55Q3.65 456.6 2.55 455.25Q0.35 452.55 0.95 450.4Q1.55 448.3 5.3 444.65L8.9 441.4Q8.2 435.55 8.4 428.9L8.55 425.15Q9.65 407.75 16.8 401.8Q26.4 393.85 40.35 398.3L54.2 402.85M119.45,393L118.6 395.2L118.55 395.4L118.5 395.45L117.5 397.85Q114.6 404.35 96.25 410Q89.25 412.2 82.6 413.35L74.1 414Q69.65 413.05 61.85 408.3L57.55 405.45L54.2 402.85" />
<path style="fill:none;stroke-width:2;stroke-linecap:round;stroke-linejoin:miter;stroke-miterlimit:3;stroke:#582903;stroke-opacity:1" d="M71.55,354.3L71.25 351.4L71.15 348.8L71.2 346.9Q71.45 342.2 73.15 339.65L73.35 339.4Q75.35 336.55 79.1 336.5Q82.8 336.45 84.4 339.05L84.6 339.4L85.35 341.35Q85.95 340.25 86.85 339.4L87.55 338.8Q90.35 336.8 93.2 339.25L93.4 339.4Q96.1 341.8 95.5 344.7Q95.25 346 94.6 346.9L94.35 347.2M85.3,348.95L85.7 346.9Q86.05 344 85.35 341.35M59.35,375.25Q59.55 376.7 60.15 377.35L60.7 377.9Q63 380.3 65.3 381.15L66.4 381.5L67.7 381.85L70.5 382.3M59.35,375.25L57.2 381.8Q55.5 388.85 57.45 391.4Q60.95 395.85 66.9 394.7Q69.1 394.3 70.35 393.65Q72.15 392.75 72.85 391.2Q73.5 389.75 72.05 385.9L70.5 382.3" />
<path style="fill:none;stroke-width:2;stroke-linecap:round;stroke-linejoin:miter;stroke-miterlimit:3;stroke:#993127;stroke-opacity:1" d="M94.35,347.2Q97.35 347.35 99.7 348.55Q101.9 349.7 103.05 351.4Q103.8 352.65 104.05 354.2L104.15 355.45Q104.2 360.15 99.1 363.95Q93.2 368.3 85.2 367.7Q79.6 367.3 76.9 363.7L75.35 360.15Q76.35 357.9 78.15 355.45L79 354.3Q80.35 352.65 81.8 351.4Q83.5 349.9 85.3 348.95Q87.55 347.75 89.95 347.4L94.35 347.2z" />
<path style="fill:none;stroke-width:2;stroke-linecap:round;stroke-linejoin:miter;stroke-miterlimit:3;stroke:#582903;stroke-opacity:1" d="M60.75,348.5Q65.7 348.45 69.05 351.4Q70.45 352.6 71.55 354.3M75.3,365.1Q74.35 359.25 72.25 355.45L71.55 354.3M61.15,357.1L59.6 366.05L59.25 369.3Q58.95 373.05 59.3 375.15L59.35 375.25" />
<path style="fill:none;stroke-width:3;stroke-linecap:butt;stroke-linejoin:miter;stroke-miterlimit:3;stroke:#AE4200;stroke-opacity:1" d="M154.5,447.2L152.4 451.2Q149.4 454.95 145.9 451.95Q142.4 448.95 145.75 444.7L149.8 441.05L151.15 436.15Q152.15 431.8 152.25 428.8L152.25 427.15Q151.95 421.8 150.45 416.65Q148.55 409.95 145.4 407.65Q141.3 404.65 131.75 407.4Q126.95 408.8 123 410.75M140.95,508.65Q139.7 510 138.15 510.35L135.1 510.05Q133.15 509.15 132.2 506.25L131.65 503.5L128.05 502.7Q124.3 501.4 123.6 498.95Q123.1 497.2 127.15 493.1Q130.05 490.1 129.6 488.1L129.15 487.1Q127.2 484.55 120.3 483.2L113.85 482.4M91.85,484.65Q84.8 484.35 78.35 482.55L71.9 483.35Q65 484.7 63.05 487.25Q62.7 487.7 62.6 488.25Q62.15 490.25 65.05 493.25Q69.1 497.35 68.6 499.1Q67.9 501.55 64.15 502.85L60.55 503.65L60 506.4Q59.05 509.3 57.1 510.2Q55.6 510.9 54.05 510.5M61.2,480.05L56.6 479.2Q51.25 477.9 47.05 475Q41.4 471.15 38.3 460.2Q34.9 448.2 39.1 440.3Q40.95 436.85 44.8 431.85Q48.3 427.25 49.55 424.55Q51.25 420.95 51.55 415.55L51.5 410.85Q47.55 408.9 42.75 407.5Q33.2 404.75 29.1 407.75Q25.95 410.05 24.05 416.75" />
<path style="fill:#582903;fill-opacity:1" d="M72.5,331.4Q73.3 329.8 75.05 327.85Q75.95 326.75 77.95 325.65Q78.7 325.15 80 324.65L82 324.1L82.15 324.15L82.2 324.3L81.95 324.75L81.7 325.15L81.7 325.25L84.25 324.7L84.35 324.9L83.55 325.55L86 326.4L86.85 326.8L87.35 327.35L87.25 327.55Q83.95 328.2 81.75 329.1L77.85 330.75L76.3 331.5L74.55 332.4L73.75 332.95L71.55 334.2L71.3 334.15L71.25 333.75Q71.25 333.15 72.5 331.4M97.95,325.95Q99.5 326.85 100.25 327.7Q101.65 329.25 102.25 330.55Q103.25 331.95 103.25 332.4L103.25 332.75L103.05 332.75L101.3 331.75Q100.9 331.65 100.65 331.35L99.25 330.6L98 330L94.9 328.7Q93.15 328 90.5 327.45L90.45 327.3L90.85 326.85L91.5 326.55L93.45 325.85L92.85 325.35L92.9 325.2L94.95 325.65L94.95 325.55L94.75 325.25L94.55 324.9L94.6 324.75L94.7 324.7L96.3 325.15L97.95 325.95" />
</g>
</svg>
