<?xml version="1.0" encoding="utf-8"?>
<svg version="1.1" id="Layer_1"
xmlns="http://www.w3.org/2000/svg"
xmlns:xlink="http://www.w3.org/1999/xlink"
xmlns:author="http://www.sothink.com"
width="38px" height="8px"
xml:space="preserve">
<g id="90" transform="matrix(1, 0, 0, 1, -1.05, 0.25)">
<path style="fill:#545454;fill-opacity:1" d="M37.95,3.15L37.95 6.85L2.1 4.4L2.1 4.7L1.6 4.65L1.65 3.3L2.1 3.3L2.1 3.15L37.95 3.15" />
<path style="fill:#727171;fill-opacity:1" d="M2.1,3.15L2.1 3.3L1.65 3.3L1.7 1L2.1 1L2.1 1.1L37.95 0.25L37.95 3.15L2.1 3.15" />
<path style="fill:none;stroke-width:1;stroke-linecap:butt;stroke-linejoin:miter;stroke-miterlimit:3;stroke:#333333;stroke-opacity:1" d="M2.1,1.1L37.95 0.25L37.95 3.15L37.95 6.85L2.1 4.4M2.1,4.7L1.6 4.65L1.65 3.3L1.7 1L2.1 1" />
</g>
</svg>
