<?xml version="1.0" encoding="utf-8"?>
<svg version="1.1" id="Layer_1"
xmlns="http://www.w3.org/2000/svg"
xmlns:xlink="http://www.w3.org/1999/xlink"
xmlns:author="http://www.sothink.com"
width="13px" height="12px"
xml:space="preserve">
<g id="171" transform="matrix(1, 0, 0, 1, 5.8, 6.7)">
<path style="fill:#BBB7B7;fill-opacity:1" d="M0.45,-4.15Q0.45 -4.8 -0.05 -5.1Q-0.6 -5.4 -0.6 -4.6Q-0.65 -3.25 0 -3.25Q0.45 -3.25 0.45 -4.15M0.75,-1.45Q0.55 -0.75 -0.15 -0.75L-0.7 -1.05L-0.95 -1.35L-1.6 -2.75L-1.65 -2.7L-1.85 -4.45Q-1.85 -5.2 -1.45 -5.7Q-1.05 -6.2 -0.3 -6.2Q0.9 -6.2 0.9 -3.15L0.75 -1.45M-0.65,0.8L-0.6 1.4L-0.75 1.7L-1.55 3.05L-1.55 3.1L-2.8 4.2Q-3.45 4.65 -4.05 4.6Q-4.75 4.5 -5.15 3.85Q-5.8 2.9 -3.25 1.2L-1.75 0.4Q-1 0.2 -0.65 0.8M-4.4,3.05Q-4.3 3.7 -3.65 3.2Q-2.55 2.5 -2.85 1.95Q-3.1 1.6 -3.8 2.1Q-4.35 2.45 -4.4 3.05M6.1,3.15Q5.5 4.15 2.9 2.55L1.5 1.5Q1 0.95 1.4 0.35L1.95 0.05L2.3 0.05L3.85 0.2L3.9 0.15L5.45 0.85Q6.1 1.25 6.3 1.85Q6.5 2.5 6.1 3.15M3.95,2.65L5.05 2.75Q5.6 2.45 4.9 2.05Q3.75 1.3 3.4 1.85Q3.15 2.2 3.95 2.65" />
<path style="fill:#FFF7F7;fill-opacity:1" d="M0,-3.25Q-0.65 -3.25 -0.6 -4.6Q-0.6 -5.4 -0.05 -5.1Q0.45 -4.8 0.45 -4.15Q0.45 -3.25 0 -3.25M-3.8,2.1Q-3.1 1.6 -2.85 1.95Q-2.55 2.5 -3.65 3.2Q-4.3 3.7 -4.4 3.05Q-4.35 2.45 -3.8 2.1M3.4,1.85Q3.75 1.3 4.9 2.05Q5.6 2.45 5.05 2.75L3.95 2.65Q3.15 2.2 3.4 1.85" />
<path style="fill:none;stroke-width:1;stroke-linecap:butt;stroke-linejoin:miter;stroke-miterlimit:3;stroke:#545353;stroke-opacity:1" d="M0.75,-1.45Q0.55 -0.75 -0.15 -0.75L-0.7 -1.05L-0.95 -1.35L-1.6 -2.75L-1.65 -2.7L-1.85 -4.45Q-1.85 -5.2 -1.45 -5.7Q-1.05 -6.2 -0.3 -6.2Q0.9 -6.2 0.9 -3.15L0.75 -1.45M-0.65,0.8L-0.6 1.4L-0.75 1.7L-1.55 3.05L-1.55 3.1L-2.8 4.2Q-3.45 4.65 -4.05 4.6Q-4.75 4.5 -5.15 3.85Q-5.8 2.9 -3.25 1.2L-1.75 0.4Q-1 0.2 -0.65 0.8M6.1,3.15Q5.5 4.15 2.9 2.55L1.5 1.5Q1 0.95 1.4 0.35L1.95 0.05L2.3 0.05L3.85 0.2L3.9 0.15L5.45 0.85Q6.1 1.25 6.3 1.85Q6.5 2.5 6.1 3.15" />
<path style="fill:#B68CB6;fill-opacity:1" d="M1.1,-1.2Q1.6 -0.7 1.6 0Q1.6 0.7 1.1 1.15Q0.65 1.65 0 1.65Q-0.65 1.65 -1.15 1.15Q-1.6 0.7 -1.6 0Q-1.6 -0.7 -1.15 -1.2L0 -1.65Q0.65 -1.65 1.1 -1.2" />
<path style="fill:none;stroke-width:1;stroke-linecap:butt;stroke-linejoin:miter;stroke-miterlimit:3;stroke:#5B425B;stroke-opacity:1" d="M1.1,-1.2Q1.6 -0.7 1.6 0Q1.6 0.7 1.1 1.15Q0.65 1.65 0 1.65Q-0.65 1.65 -1.15 1.15Q-1.6 0.7 -1.6 0Q-1.6 -0.7 -1.15 -1.2L0 -1.65Q0.65 -1.65 1.1 -1.2z" />
</g>
</svg>
