<?xml version="1.0" encoding="utf-8"?>
<svg version="1.1" id="Layer_1"
xmlns="http://www.w3.org/2000/svg"
xmlns:xlink="http://www.w3.org/1999/xlink"
xmlns:author="http://www.sothink.com"
width="16px" height="8px"
xml:space="preserve">
<g id="95" transform="matrix(1, 0, 0, 1, 3.7, -0.15)">
<path style="fill:#545454;fill-opacity:1" d="M-2.35,5.95L-3.1 4L-3.2 3.45L2.65 3.75L2.95 6.85L-2.35 5.95" />
<path style="fill:#727171;fill-opacity:1" d="M-3.2,3.45L-2.55 0.95L2.75 0.65L11.4 0.85L11.4 6.75L2.95 6.85L2.65 3.75L-3.2 3.45" />
<path style="fill:none;stroke-width:1;stroke-linecap:round;stroke-linejoin:miter;stroke-miterlimit:3;stroke:#333333;stroke-opacity:1" d="M2.75,0.65L2.65 3.75L2.95 6.85L11.4 6.75L11.4 0.85L2.75 0.65z" />
<path style="fill:none;stroke-width:1;stroke-linecap:butt;stroke-linejoin:miter;stroke-miterlimit:3;stroke:#333333;stroke-opacity:1" d="M2.75,0.65L-2.55 0.95L-3.2 3.45" />
<path style="fill:none;stroke-width:1;stroke-linecap:round;stroke-linejoin:miter;stroke-miterlimit:3;stroke:#333333;stroke-opacity:1" d="M-3.2,3.45L-3.1 4L-2.35 5.95L2.95 6.85" />
</g>
</svg>
