<?xml version="1.0" encoding="utf-8"?>
<svg version="1.1" id="Layer_1"
xmlns="http://www.w3.org/2000/svg"
xmlns:xlink="http://www.w3.org/1999/xlink"
xmlns:author="http://www.sothink.com"
width="53px" height="43px"
xml:space="preserve">
<g id="175" transform="matrix(1, 0, 0, 1, 25.9, 25.15)">
<path style="fill:#B44E4E;fill-opacity:1" d="M-11.7,12.7Q-10.5 13.4 -8.25 13.4L-4.05 13.25Q-1.35 12.75 -0.85 10.8L-0.75 9.85Q-0.75 9.35 -1.65 8.25Q-1.5 7.3 -1.5 6.05Q-1.5 4.1 -2.6 3.3L-0.05 2.6Q3.15 1.55 9.5 1.55L11.8 1.9L11.95 7.25L11.95 8.65L12 8.65L13.7 8.4Q14.5 8.4 14.4 9.1Q14.35 9.8 14.9 9.8L16.2 9.75L18.35 9.65L19.55 9.6Q19.5 10.7 19 10.8L16.55 10.8L16.25 10.8L16.25 12.05L14 12.4L11.95 12.2L11.45 14.6L10.4 14.6L1.55 15.1L1.55 15L-7.55 14.55L-12.85 12.8L-12.85 12.75L-12.65 11.85L-11.7 12.7M1.8,5.3L1.2 5.8Q0.7 6.35 0.7 7.3Q0.7 8.6 1.8 9.4Q2.85 10.15 4.6 10.15Q5.95 10.15 7 9.6Q8.3 8.8 8.3 7.55L8.05 6.7L7.6 6.15L7.6 5.95Q7.6 3.8 6.8 3.5L3.2 3.15L2 3.15L1.9 3.75L1.9 4.3L1.8 5.3" />
<path style="fill:#232222;fill-opacity:1" d="M-11.55,5.65L-11.3 3.45L-11.25 3.15L-11.2 2.75L-10.45 2.8L-4.35 2.8Q-3.3 2.85 -2.6 3.3Q-1.5 4.1 -1.5 6.05Q-1.5 7.3 -1.65 8.25Q-2 9.75 -2.85 10.45Q-7.1 9.5 -8.85 8.4L-11.55 5.65M6.25,5Q6.35 4.55 5.75 4.55Q5.25 4.55 5.25 5.05Q5.25 5.65 5.8 5.65Q6.25 5.65 6.25 5M7.6,6.65L4.3 5.8L1.9 4.3L1.9 3.75L2 3.15L3.2 3.15L6.8 3.5Q7.6 3.8 7.6 5.95L7.6 6.15L7.6 6.65M-4.4,4.25Q-5.4 3.9 -5.4 4.95Q-5.25 6.35 -4 6.35Q-3.4 6.35 -3.4 5.6Q-3.4 4.6 -4.4 4.25" />
<path style="fill:#953636;fill-opacity:1" d="M9.5,1.55Q3.15 1.55 -0.05 2.6L-2.6 3.3Q-3.3 2.85 -4.35 2.8L-10.45 2.8L-11.2 2.75L-13.25 2.55Q-14.95 2.45 -15.75 1.8L-16.25 1.15L-16.3 1.15L-16.7 -0.85L-16.7 -3.65L-16 -4.1L-14 -3.6L-10.4 -3.35L-6.3 -3.15Q-3.4 -3.15 -0.4 -3.95L5.45 -4.75L14.6 -4.4L18.15 -4.4L18.35 -3Q18.35 0.4 16.65 1L11.8 1.85L11.8 1.9L9.5 1.55M11.45,14.6L10.5 15.95Q9.5 16.65 6.25 16.65L4 16.4L-7.15 16.7Q-9.3 16.7 -10.95 15.7Q-12.85 14.55 -12.85 12.8L-7.55 14.55L1.55 15L1.55 15.1L10.4 14.6L11.45 14.6" />
<path style="fill:#DE7878;fill-opacity:1" d="M18.35,9.65L16.2 9.75L14.9 9.8Q14.35 9.8 14.4 9.1Q14.5 8.4 13.7 8.4L12 8.65L11.95 8.65L11.95 7.25L15.75 7.25Q16.1 7.4 16.1 8.45L16.1 8.5L16.55 8.5L19.45 8.5L19.55 9.3L19.55 9.6L18.35 9.65M-1.65,8.25Q-0.75 9.35 -0.75 9.85L-0.85 10.8Q-1.35 12.75 -4.05 13.25L-8.25 13.4Q-10.5 13.4 -11.7 12.7L-12.65 11.85L-12.6 11.6Q-12.3 11.15 -11.9 11.25L-11.45 11.25L-4 11L-2.85 10.45Q-2 9.75 -1.65 8.25M7.6,6.65L7.6 6.15L8.05 6.7L8.3 7.55Q8.3 8.8 7 9.6Q5.95 10.15 4.6 10.15Q2.85 10.15 1.8 9.4Q0.7 8.6 0.7 7.3Q0.7 6.35 1.2 5.8L1.8 5.3L1.65 6.3Q1.65 7.55 2.65 7.9L4.6 8.05L6.95 7.9Q7.4 7.6 7.6 6.65" />
<path style="fill:#3A3939;fill-opacity:1" d="M-8.85,8.4Q-7.1 9.5 -2.85 10.45L-4 11L-11.45 11.25L-11.55 6.6L-11.55 5.65L-8.85 8.4M6.95,7.9L4.6 8.05L2.65 7.9Q1.65 7.55 1.65 6.3L1.8 5.3L1.9 4.3L4.3 5.8L7.6 6.65Q7.4 7.6 6.95 7.9" />
<path style="fill:#7B7B7B;fill-opacity:1" d="M5.8,5.65Q5.25 5.65 5.25 5.05Q5.25 4.55 5.75 4.55Q6.35 4.55 6.25 5Q6.25 5.65 5.8 5.65M-3.4,5.6Q-3.4 6.35 -4 6.35Q-5.25 6.35 -5.4 4.95Q-5.4 3.9 -4.4 4.25Q-3.4 4.6 -3.4 5.6" />
<path style="fill:none;stroke-width:1;stroke-linecap:butt;stroke-linejoin:miter;stroke-miterlimit:3;stroke:#742323;stroke-opacity:1" d="M11.8,1.9L11.8 1.85L16.65 1Q18.35 0.4 18.35 -3L18.15 -4.4L14.6 -4.4L5.45 -4.75L-0.4 -3.95Q-3.4 -3.15 -6.3 -3.15L-10.4 -3.35L-14 -3.6L-16 -4.1L-16.7 -3.65L-16.7 -0.85L-16.3 1.15L-16.25 1.15L-15.75 1.8Q-14.95 2.45 -13.25 2.55L-11.2 2.75L-10.45 2.8L-4.35 2.8Q-3.3 2.85 -2.6 3.3Q-1.5 4.1 -1.5 6.05Q-1.5 7.3 -1.65 8.25Q-2 9.75 -2.85 10.45L-4 11L-11.45 11.25M11.8,1.9L11.95 7.25L15.75 7.25Q16.1 7.4 16.1 8.45L16.1 8.5M16.55,8.5L19.45 8.5L19.55 9.3L19.55 9.6Q19.5 10.7 19 10.8L16.55 10.8M16.2,9.75L16.25 10.1L16.25 10.8L16.25 12.05L14 12.4L11.95 12.2L11.45 14.6L10.5 15.95Q9.5 16.65 6.25 16.65L4 16.4L-7.15 16.7Q-9.3 16.7 -10.95 15.7Q-12.85 14.55 -12.85 12.8L-12.85 12.75L-12.65 11.85L-12.6 11.6Q-12.3 11.15 -11.9 11.25L-11.45 11.25L-11.55 6.6L-11.55 5.65L-11.3 3.45L-11.25 3.15M11.95,12.2L11.95 11.55L11.95 8.65L11.95 7.25M16.2,9.75L16.1 8.5M1.8,5.3L1.65 6.3Q1.65 7.55 2.65 7.9L4.6 8.05L6.95 7.9Q7.4 7.6 7.6 6.65L7.6 6.15L7.6 5.95Q7.6 3.8 6.8 3.5L3.2 3.15L2 3.15L1.9 3.75L1.9 4.3M1.8,5.3L1.9 4.3" />
<path style="fill:#EECA3B;fill-opacity:1" d="M7.4,-8.2Q2.85 -8.2 -1.3 -10.85Q-5.4 -13.45 -6.95 -13.45L-15.05 -12.2Q-17.55 -12.2 -21 -13.5Q-23.35 -14.4 -25.35 -15.7Q-25.1 -18.6 -23.6 -20.8L-23.2 -20.6L-20.3 -20L-13.25 -21L0.25 -22.05Q7.15 -22.05 12.3 -20.8Q21.65 -18.45 21.65 -12.4L21.6 -11.05Q15.7 -8.2 7.4 -8.2" />
<path style="fill:#ECD784;fill-opacity:1" d="M-23.15,-21.4Q-20.9 -24.15 -16.65 -24.5L-15.4 -24.5Q-13.75 -24.75 -9.9 -24.6L-10.2 -24.45L-5.45 -24.5L4.5 -24.35L13.6 -24.15Q18.55 -24.15 22.2 -21.35Q25.75 -18.6 25.95 -15.5L26 -11.65L25.9 -10.55L25.85 -10.05L25.45 -8.95Q25.2 -8.1 23.9 -6.6L21.4 -4.45Q21.5 -5.05 22.95 -6.1Q24.4 -7.2 22.95 -8.65Q21.5 -10.2 21.6 -11.05L21.65 -12.4Q21.65 -18.45 12.3 -20.8Q7.15 -22.05 0.25 -22.05L-13.25 -21L-20.3 -20L-23.2 -20.6L-23.6 -20.8L-23.15 -21.4" />
<path style="fill:#A8902F;fill-opacity:1" d="M-25.35,-15.7Q-23.35 -14.4 -21 -13.5Q-17.55 -12.2 -15.05 -12.2L-6.95 -13.45Q-5.4 -13.45 -1.3 -10.85Q2.85 -8.2 7.4 -8.2Q15.7 -8.2 21.6 -11.05Q21.5 -10.2 22.95 -8.65Q24.4 -7.2 22.95 -6.1Q21.5 -5.05 21.4 -4.45L19.9 -3.65Q17.65 -2.55 13.7 -1.95L6.8 -1.5L0.35 -1.5L-5.95 -1.5L-10.6 -1.65L-13.85 -1.9Q-18.05 -2.3 -20.45 -3.4Q-22.85 -4.5 -24.2 -7.7Q-25.55 -10.9 -25.4 -14.8L-25.35 -15.7" />
<path style="fill:none;stroke-width:1;stroke-linecap:butt;stroke-linejoin:miter;stroke-miterlimit:3;stroke:#5F4E09;stroke-opacity:1" d="M21.4,-4.45L23.9 -6.6Q25.2 -8.1 25.45 -8.95L25.85 -10.05L25.9 -10.55L26 -11.65L25.95 -15.5Q25.75 -18.6 22.2 -21.35Q18.55 -24.15 13.6 -24.15L4.5 -24.35L-5.45 -24.5L-10.2 -24.45L-9.9 -24.6Q-13.75 -24.75 -15.4 -24.5L-16.65 -24.5Q-20.9 -24.15 -23.15 -21.4L-23.6 -20.8Q-25.1 -18.6 -25.35 -15.7M21.4,-4.45L19.9 -3.65Q17.65 -2.55 13.7 -1.95L6.8 -1.5L0.35 -1.5L-5.95 -1.5L-10.6 -1.65L-13.85 -1.9Q-18.05 -2.3 -20.45 -3.4Q-22.85 -4.5 -24.2 -7.7Q-25.55 -10.9 -25.4 -14.8L-25.35 -15.7" />
<path style="fill:#8E7820;fill-opacity:1" d="M17.5,-18.85L18 -18.8Q18.45 -18.8 18.45 -19.15Q18.45 -19.7 17.5 -19.6L17.5 -18.85M18.55,-18.9Q18.55 -17.95 17.8 -17.95Q17.15 -17.95 16.95 -18.5L16.8 -19Q16.8 -19.85 17.65 -19.85Q18.7 -19.85 18.55 -18.9M3.35,-16.2Q2.85 -16.2 2.5 -16.7L2.2 -17.2Q2.2 -17.9 3.25 -17.95Q4.3 -18.05 4.3 -17.05Q4.3 -16.2 3.35 -16.2M3.85,-17.2Q3.85 -17.6 3.35 -17.55Q2.9 -17.5 2.9 -17.1Q2.9 -16.8 3.35 -16.8Q3.85 -16.8 3.85 -17.2M10.4,-4Q9.4 -4 9.4 -5Q9.4 -5.35 10.35 -5.65Q11.25 -5.85 11.25 -5.1L11.05 -4.45L10.4 -4M10.9,-5.4Q10 -6.05 10 -4.85L10.5 -4.8L10.9 -4.85L10.9 -5.4M-1.35,-18.85L-1.6 -18.25Q-1.85 -17.85 -2.25 -17.85Q-3.4 -17.85 -3.4 -18.85Q-3.4 -19.8 -2.35 -19.7Q-1.35 -19.7 -1.35 -18.85M-2.2,-19.2Q-2.7 -19.25 -2.85 -18.85L-1.95 -18.55L-1.8 -18.6L-1.8 -18.75Q-1.65 -19.15 -2.2 -19.2M-7.9,-14.75Q-6.8 -14.65 -6.8 -13.75Q-6.8 -12.8 -7.45 -12.8Q-8.35 -12.8 -8.8 -13.4L-9.1 -14.1Q-9.1 -14.85 -7.9 -14.75M-7.2,-14Q-7.2 -14.3 -7.45 -14.3Q-7.75 -14.35 -8.2 -13.9Q-7.9 -13.6 -7.5 -13.6Q-7.2 -13.6 -7.2 -14M-16.3,-15.85Q-16.3 -14.75 -17.2 -14.75Q-17.7 -14.75 -18.05 -15.15L-18.35 -15.7L-18.2 -16.2L-16.65 -16.55Q-16.3 -16.35 -16.3 -15.85M-16.4,-15.55L-16.4 -15.9Q-16.45 -16.25 -16.7 -16.25Q-17.3 -16.25 -17.2 -15.55L-16.75 -15.5L-16.4 -15.55" />
<path style="fill:#CBB457;fill-opacity:1" d="M17.5,-19.6Q18.45 -19.7 18.45 -19.15Q18.45 -18.8 18 -18.8L17.5 -18.85L17.5 -19.6M3.35,-16.8Q2.9 -16.8 2.9 -17.1Q2.9 -17.5 3.35 -17.55Q3.85 -17.6 3.85 -17.2Q3.85 -16.8 3.35 -16.8M10.9,-4.85L10.5 -4.8L10 -4.85Q10 -6.05 10.9 -5.4L10.9 -4.85M-1.8,-18.75L-1.8 -18.6L-1.95 -18.55L-2.85 -18.85Q-2.7 -19.25 -2.2 -19.2Q-1.65 -19.15 -1.8 -18.75M-7.5,-13.6Q-7.9 -13.6 -8.2 -13.9Q-7.75 -14.35 -7.45 -14.3Q-7.2 -14.3 -7.2 -14Q-7.2 -13.6 -7.5 -13.6M-16.75,-15.5L-17.2 -15.55Q-17.3 -16.25 -16.7 -16.25Q-16.45 -16.25 -16.4 -15.9L-16.4 -15.55L-16.75 -15.5" />
<path style="fill:none;stroke-width:1;stroke-linecap:butt;stroke-linejoin:miter;stroke-miterlimit:3;stroke:#7B660E;stroke-opacity:1" d="M1.65,-24.6L1.2 -19.25L1.3 -19.25L3.15 -19.6L8.55 -19.3L13.6 -19L14.95 -19.3M-14.35,-24.65L-14.6 -16L-10.8 -16.15L-7.35 -16.35L-5.3 -16.15L-4.1 -16.05Q0.25 -16.05 0.95 -18.3L1.2 -19.25M8,-1.65L7.95 -4.7Q8.05 -6.55 9.6 -6.95L12.5 -7.4L15.7 -7.6L15.35 -24.4M15.7,-7.6L15.75 -2.2M-5.3,-16.15L-5.1 -9.95L-5.45 -2.55L-5.4 -1.85M-14.6,-16L-14.95 -2" />
</g>
</svg>
