<?xml version="1.0" encoding="utf-8"?>
<svg version="1.1" id="Layer_1"
xmlns="http://www.w3.org/2000/svg"
xmlns:xlink="http://www.w3.org/1999/xlink"
xmlns:author="http://www.sothink.com"
width="142px" height="97px"
xml:space="preserve">
<g id="107" transform="matrix(1, 0, 0, 1, 18.45, 373.9)">
<path style="fill:#8CAAC9;fill-opacity:1" d="M111.55,-358.9L111.55 -358.15Q111.5 -350.15 110.6 -336.75Q109.9 -327.1 109.7 -321.6L96.3 -322.15Q82.65 -322.95 71.75 -322.85Q73.75 -332.8 76.15 -349.55Q77.3 -357.4 78.45 -361.65Q79.25 -361.85 80.75 -362.95L84.65 -365.75Q91.05 -369.9 98.45 -369.9L102.9 -368.95Q106.85 -367.95 107.7 -367.35Q108.5 -366.8 109.7 -363.8L111.55 -359.35L111.55 -358.9M-0.15,-315.85L4.3 -315.4Q7 -315.4 12.6 -316.55Q18.2 -317.75 21.6 -317.75L36.75 -317.15L51.6 -316.6L78.4 -316Q103.1 -315.4 113.2 -315.4Q117.4 -315.4 121.55 -314.15Q122.4 -311.05 122.35 -305.5L122.2 -299.2L118.4 -299.9Q113.95 -299.9 101.6 -295.1Q89.25 -290.35 83.4 -290.35L77.85 -290.95L72.3 -291.55L67.1 -291.95L61.55 -292.35L59.55 -291.95L57.55 -291.55Q56.6 -291.55 43.95 -296.5Q31.3 -301.45 28.95 -301.45Q25.3 -301.45 20.55 -300.05Q15.8 -298.7 13.25 -298.7Q9.4 -298.7 3 -304.25L-3.65 -310.25L-2.4 -312.3L-0.15 -315.85" />
<path style="fill:#ACC9E7;fill-opacity:1" d="M79.55,-364.95Q81.85 -370.1 87.6 -371.85Q92.9 -373.4 106.25 -373.4Q109.7 -373.4 110.85 -368.3Q111.5 -365.45 111.55 -359.35L109.7 -363.8Q108.5 -366.8 107.7 -367.35Q106.85 -367.95 102.9 -368.95L98.45 -369.9Q91.05 -369.9 84.65 -365.75L80.75 -362.95Q79.25 -361.85 78.45 -361.65L79.55 -364.95M71.75,-322.85Q82.65 -322.95 96.3 -322.15L109.7 -321.6L113.4 -321.05Q118.95 -319.8 120.8 -316.2L121.55 -314.15Q117.4 -315.4 113.2 -315.4Q103.1 -315.4 78.4 -316L51.6 -316.6L36.75 -317.15L21.6 -317.75Q18.2 -317.75 12.6 -316.55Q7 -315.4 4.3 -315.4L-0.15 -315.85Q4.3 -321.45 12.1 -322.1Q48.45 -321.8 59.95 -322.5L71.75 -322.85" />
<path style="fill:#7592AF;fill-opacity:1" d="M-3.65,-310.25L3 -304.25Q9.4 -298.7 13.25 -298.7Q15.8 -298.7 20.55 -300.05Q25.3 -301.45 28.95 -301.45Q31.3 -301.45 43.95 -296.5Q56.6 -291.55 57.55 -291.55L59.55 -291.95L61.55 -292.35L67.1 -291.95L72.3 -291.55L77.85 -290.95L83.4 -290.35Q89.25 -290.35 101.6 -295.1Q113.95 -299.9 118.4 -299.9L122.2 -299.2L122 -286.75Q122 -281.6 121.6 -279.2L114.95 -278.6L108.45 -278L96.1 -278.8L84.6 -279.6L48.6 -277.6L9.95 -279.6L-15.45 -281.4Q-13.2 -285 -10.9 -291.75L-5.4 -306.8L-3.65 -310.25" />
<path style="fill:none;stroke-width:1;stroke-linecap:butt;stroke-linejoin:miter;stroke-miterlimit:3;stroke:#34495F;stroke-opacity:1" d="M111.55,-359.35Q111.5 -365.45 110.85 -368.3Q109.7 -373.4 106.25 -373.4Q92.9 -373.4 87.6 -371.85Q81.85 -370.1 79.55 -364.95L78.45 -361.65Q77.3 -357.4 76.15 -349.55Q73.75 -332.8 71.75 -322.85Q82.65 -322.95 96.3 -322.15L109.7 -321.6Q109.9 -327.1 110.6 -336.75Q111.5 -350.15 111.55 -358.15L111.55 -358.9L111.55 -359.35M109.7,-321.6L113.4 -321.05Q118.95 -319.8 120.8 -316.2L121.55 -314.15Q122.4 -311.05 122.35 -305.5L122.2 -299.2L122 -286.75Q122 -281.6 121.6 -279.2L114.95 -278.6L108.45 -278L96.1 -278.8L84.6 -279.6L48.6 -277.6L9.95 -279.6L-15.45 -281.4L-16.55 -279.85M-15.45,-281.4Q-13.2 -285 -10.9 -291.75L-5.4 -306.8L-3.65 -310.25L-2.4 -312.3L-0.15 -315.85Q4.3 -321.45 12.1 -322.1Q48.45 -321.8 59.95 -322.5L71.75 -322.85M-15.45,-281.4L-17.95 -281.6" />
</g>
</svg>
