<?xml version="1.0" encoding="utf-8"?>
<svg version="1.1" id="Layer_1"
xmlns="http://www.w3.org/2000/svg"
xmlns:xlink="http://www.w3.org/1999/xlink"
xmlns:author="http://www.sothink.com"
width="656px" height="395px"
xml:space="preserve">
<g id="261" transform="matrix(1, 0, 0, 1, -31.45, -21.9)">
<path style="fill:#E7D6C5;fill-opacity:1" d="M648.15,67.5Q648.15 55.1 640.1 47.4Q623.6 31.75 578.15 35.6Q565.15 36.7 547.45 39.15L517.25 43.4Q479.95 48.45 450.2 47.75L443.75 47.45L386.3 45.3L363.95 43.3L345.55 42.1Q326.25 41.65 316.1 47.5Q308.15 52.05 308.15 58.3Q308.15 59.4 309.95 63.8L309.85 64.2L310.05 66.1L308.7 66.05Q310.6 71.3 318.45 88.6Q318.3 89.4 318.3 90.45Q318.3 91.6 320.55 100.5Q322.85 111.05 322.85 120.3Q322.85 129.9 322.55 134L322.55 134.2L322.1 133.95L312.55 117.65Q310.95 106.6 308.15 98Q306.55 93.25 304.6 89.15L301.7 79.55Q298.3 69.6 297.6 65.1Q296.65 59.65 288.1 52.3L272.25 40.45L238.2 39.65L232.2 40.25L226.25 40.85L185.85 40.4L175.95 40.6L131.65 38.7L113.45 37.35Q100.5 36.75 100.5 37.1Q72.7 33.05 64.9 43.3Q62.4 46.6 62.2 51.2Q62.1 53.6 62.5 55.95Q62.5 60.8 64.15 71.4Q65.8 82.05 65.8 87.65Q65.8 96.7 63 106.4Q60.1 116.15 60.1 120.8Q60.1 127.3 69.5 157.1Q74.25 172.15 79.5 187.9Q80.4 191.05 85.5 218.6L84.2 234.3Q82.95 249.25 83.85 258.75Q86.9 288.35 112.4 288.95Q126.55 289.25 164.05 275.95Q196.05 264.6 238.25 245.8L254.95 238.35L256.1 239.35L257.9 241.45L234.75 250.55Q220.45 255.5 199.1 265.8Q178 275.85 166.55 279.8Q153.5 284.35 127 290.35Q101.05 296.3 91.45 299.65L84.05 336.9Q80.15 358.65 80.15 373.65Q80.15 385.05 83.6 389.35Q88.05 394.95 101.65 395.2L116.65 391.5Q135.1 386.8 154.75 383.35Q220.6 371.7 298.95 373.45Q308.35 373.65 322.9 375.45Q337.5 377.25 347.2 377.45Q354.55 377.65 384.4 373.6Q414.25 369.55 430.3 369.85L449.45 372.15Q465.45 374.35 473.6 374.55Q500.95 375.15 515.7 369.85Q530.45 364.65 530.45 354.35L530.45 353.6L530.75 353.45L531.8 353.25L532.2 351.95L532.3 350Q532.3 339.65 519.55 317.25Q505.1 293.75 501.5 286.65Q504.2 290 518.55 304.55Q529.65 315.8 533.35 322.8L536 330.45Q538.45 337.35 541.35 342.3L543.3 345.25Q544.6 356.7 550.7 362.15Q558.25 369 576.45 369.4L609.7 370.55Q627.45 370.8 637.45 368.95Q650.2 366.55 656.5 359.8Q663.55 352.2 663.55 338.15Q663.55 317.65 658.75 296.45Q653.55 274 645.3 261.55Q635.4 274.55 627.95 281.35Q620 288.55 611.45 291.9L609.8 292.55Q611.95 288.75 618.3 280.25Q622.65 274.4 623.85 271.8Q626.8 268.15 629.8 263.55L632.75 258.5Q637.65 249.9 643 228.95Q648.8 205.65 648.8 189.55Q648.8 185.6 645.95 171.45Q643.05 157.3 643.05 151.15L645.95 122.85Q648.8 94.2 648.8 83.45Q648.8 73.9 648.15 68.25L648.15 67.5M654.95,222.65Q654.95 224.35 655.15 224.75Q655.65 225.9 657.8 226.8Q661.9 226.05 663.25 224.95Q664.1 224.25 664.1 222.95Q664.1 220.35 659.5 219.55Q654.95 218.7 654.95 222.65M651.7,240.85Q649.2 244 649.2 247.1L649.2 252.4Q650.55 257.45 657.25 257.55Q660.45 257.65 663.05 250.45Q665.25 244.35 665.25 240.3Q665.25 236.65 662.75 235.7Q660.5 234.9 657.25 236.45Q654 237.95 651.7 240.85M685.5,393.65Q369.25 383.45 32.5 414.55L45.5 22.9Q366.25 45.4 667.4 28.85L685.5 393.65M334.05,133.7L328.65 133.65L328.65 124.35L328.65 120.3L328.5 112.8Q332.8 124.35 333.75 130.25L334.05 133.7M481.95,267.85L469.6 251L474.2 255.75Q476.95 259 479.35 262.5Q481.65 266 483.6 269.9L481.95 267.85M571.55,282.55L572.05 283.35L569.5 283.25L571.55 282.55M542.85,336.2L542.15 334.9Q539.9 330.55 536.6 321.05L535.45 317.9L536.05 318.9Q541.9 328.85 542.85 336.2M81.7,283.35Q77.95 279.55 73.85 277.25Q69 274.65 66 275.9Q62.5 277.45 62.5 284.45Q62.5 286.6 63.25 292.4Q64.05 298.95 65.05 302.75L66.35 303L69.7 303.4Q71.25 303.4 78.15 297.3Q85.2 291.1 85.2 289.35Q85.2 287.2 81.7 283.35M74.95,262.3Q74.95 257.7 72.95 254.7Q71.25 251.95 68.7 251.55Q66.2 251.15 64.45 253.15Q62.5 255.45 62.5 259.75L62.55 263.7Q63.55 267.7 68.65 267.85Q73.3 267.9 74.45 265.9Q74.95 265.15 74.95 262.3" />
<path style="fill:#F0E7DD;fill-opacity:1" d="M648.15,68.25Q648.8 73.9 648.8 83.45Q648.8 94.2 645.95 122.85L643.05 151.15Q643.05 157.3 645.95 171.45Q648.8 185.6 648.8 189.55Q648.8 205.65 643 228.95Q637.65 249.9 632.75 258.5L629.8 263.55Q626.8 268.15 623.85 271.8Q622.65 274.4 618.3 280.25Q611.95 288.75 609.8 292.55L611.45 291.9Q620 288.55 627.95 281.35Q635.4 274.55 645.3 261.55Q653.55 274 658.75 296.45Q663.55 317.65 663.55 338.15Q663.55 352.2 656.5 359.8Q650.2 366.55 637.45 368.95Q627.45 370.8 609.7 370.55L576.45 369.4Q558.25 369 550.7 362.15Q544.6 356.7 543.3 345.25L541.35 342.3Q538.45 337.35 536 330.45L533.35 322.8Q529.65 315.8 518.55 304.55Q504.2 290 501.5 286.65Q505.1 293.75 519.55 317.25Q532.3 339.65 532.3 350L532.2 351.95L531.8 353.25L530.75 353.45L530.45 353.6L530.45 354.35Q530.45 364.65 515.7 369.85Q500.95 375.15 473.6 374.55Q465.45 374.35 449.45 372.15L430.3 369.85Q414.25 369.55 384.4 373.6Q354.55 377.65 347.2 377.45Q337.5 377.25 322.9 375.45Q308.35 373.65 298.95 373.45Q220.6 371.7 154.75 383.35Q135.1 386.8 116.65 391.5L101.65 395.2Q88.05 394.95 83.6 389.35Q80.15 385.05 80.15 373.65Q80.15 358.65 84.05 336.9L91.45 299.65Q101.05 296.3 127 290.35Q153.5 284.35 166.55 279.8Q178 275.85 199.1 265.8Q220.45 255.5 234.75 250.55L257.9 241.45L256.1 239.35L254.95 238.35L238.25 245.8Q196.05 264.6 164.05 275.95Q126.55 289.25 112.4 288.95Q86.9 288.35 83.85 258.75Q82.95 249.25 84.2 234.3L85.5 218.6Q80.4 191.05 79.5 187.9Q74.25 172.15 69.5 157.1Q60.1 127.3 60.1 120.8Q60.1 116.15 63 106.4Q65.8 96.7 65.8 87.65Q65.8 82.05 64.15 71.4Q62.5 60.8 62.5 55.95Q62.1 53.6 62.2 51.2Q62.4 46.6 64.9 43.3Q72.7 33.05 100.5 37.1Q100.5 36.75 113.45 37.35L131.65 38.7L175.95 40.6L185.85 40.4L226.25 40.85L232.2 40.25L238.2 39.65L272.25 40.45L288.1 52.3Q296.65 59.65 297.6 65.1Q298.3 69.6 301.7 79.55L304.6 89.15Q306.55 93.25 308.15 98Q310.95 106.6 312.55 117.65L322.1 133.95L322.55 134.2L322.55 134Q322.85 129.9 322.85 120.3Q322.85 111.05 320.55 100.5Q318.3 91.6 318.3 90.45Q318.3 89.4 318.45 88.6Q310.6 71.3 308.7 66.05L310.05 66.1L309.85 64.2L309.95 63.8Q308.15 59.4 308.15 58.3Q308.15 52.05 316.1 47.5Q326.25 41.65 345.55 42.1L363.95 43.3L386.3 45.3L443.75 47.45L450.2 47.75Q479.95 48.45 517.25 43.4L547.45 39.15Q565.15 36.7 578.15 35.6Q623.6 31.75 640.1 47.4Q648.15 55.1 648.15 67.5L648.15 68.25M659.5,219.55Q664.1 220.35 664.1 222.95Q664.1 224.25 663.25 224.95Q661.9 226.05 657.8 226.8Q655.65 225.9 655.15 224.75Q654.95 224.35 654.95 222.65Q654.95 218.7 659.5 219.55M657.25,236.45Q660.5 234.9 662.75 235.7Q665.25 236.65 665.25 240.3Q665.25 244.35 663.05 250.45Q660.45 257.65 657.25 257.55Q650.55 257.45 649.2 252.4L649.2 247.1Q649.2 244 651.7 240.85Q654 237.95 657.25 236.45M333.75,130.25Q332.8 124.35 328.5 112.8L328.65 120.3L328.65 124.35L328.65 133.65L334.05 133.7L333.75 130.25M483.6,269.9Q481.65 266 479.35 262.5Q476.95 259 474.2 255.75L469.6 251L481.95 267.85L483.6 269.9M569.5,283.25L572.05 283.35L571.55 282.55L569.5 283.25M536.05,318.9L535.45 317.9L536.6 321.05Q539.9 330.55 542.15 334.9L542.85 336.2Q541.9 328.85 536.05 318.9M85.2,289.35Q85.2 291.1 78.15 297.3Q71.25 303.4 69.7 303.4L66.35 303L65.05 302.75Q64.05 298.95 63.25 292.4Q62.5 286.6 62.5 284.45Q62.5 277.45 66 275.9Q69 274.65 73.85 277.25Q77.95 279.55 81.7 283.35Q85.2 287.2 85.2 289.35M74.45,265.9Q73.3 267.9 68.65 267.85Q63.55 267.7 62.55 263.7L62.5 259.75Q62.5 255.45 64.45 253.15Q66.2 251.15 68.7 251.55Q71.25 251.95 72.95 254.7Q74.95 257.7 74.95 262.3Q74.95 265.15 74.45 265.9" />
<path style="fill:none;stroke-width:2;stroke-linecap:butt;stroke-linejoin:miter;stroke-miterlimit:3;stroke:#7E5B3B;stroke-opacity:1" d="M667.4,28.85Q366.25 45.4 45.5 22.9L32.5 414.55Q369.25 383.45 685.5 393.65L667.4 28.85z" />
</g>
</svg>
