<?xml version="1.0" encoding="utf-8"?>
<svg version="1.1" id="Layer_1"
xmlns="http://www.w3.org/2000/svg"
xmlns:xlink="http://www.w3.org/1999/xlink"
xmlns:author="http://www.sothink.com"
width="79px" height="79px"
xml:space="preserve">
<g id="12" transform="matrix(1, 0, 0, 1, 44.15, 41.4)">
<path style="fill:#232222;fill-opacity:1" d="M7.45,-31.05L9.75 -29.9Q15 -26.65 15 -20.5Q15 -18.9 14.25 -16.35L13.5 -14.4Q15.45 -13.95 18.8 -12.25L20.25 -13.1Q22.65 -14.05 25.25 -13.05Q26.95 -12.35 27.8 -11.15L29.1 -9L31.9 -4.55Q32.5 -3.3 32.5 -0.8Q32.5 0.95 32 2.55Q31.15 5.45 29.05 5.75Q28.9 7.95 28.3 9.95L28.55 10.15Q31 12.25 31 14.55Q31 16.5 27.7 20.75Q23.4 26.25 17.95 26.25Q14.3 26.25 12.7 23.95Q12 22.95 11.8 22Q9.25 21.65 7.35 20.45L6.7 19.85Q5.65 20.9 3.65 20.35Q3.3 22.9 1.45 25.45Q-1.7 29.75 -7.35 29.75Q-12.7 29.75 -15.85 25.55Q-18 22.65 -18 20.75L-18.5 19.85Q-19.2 18.45 -19.25 14.7Q-20.75 14.5 -22 13.5Q-23.15 14 -24.8 14Q-29.2 14 -31.15 9.15Q-32.15 6.7 -32.25 4.2L-32.2 3.6L-32.5 1.7Q-32.5 -1.55 -27.75 -4.9Q-24.45 -7.25 -23.4 -6.25Q-21.85 -7.8 -19.55 -8.9Q-17.8 -9.75 -16.2 -10Q-16.9 -11.1 -17.4 -12.65Q-18.65 -16.25 -18.65 -18.8Q-18.65 -23.8 -14.9 -27.35L-15 -27.7L-15 -29.15Q-15 -33.1 -11.5 -35.9Q-8.25 -38.45 -3.7 -38.85Q0.9 -39.25 4.05 -37.05Q7 -34.95 7.45 -31.05M-14.65,-8.15L-15.4 -7.85L-14.55 -8.05L-14.65 -8.15" />
<path style="fill:#FF6600;fill-opacity:1" d="M20.75,-24.95Q19.6 -24.95 14.6 -27.6L9.95 -29.85Q9.95 -32.5 16 -30.9Q22.05 -29.3 22.05 -25.9Q22.05 -24.95 20.75 -24.95M31.2,-27.95Q30 -27.05 26.55 -27.05Q25 -27.05 24.55 -27.95Q24.35 -28.4 24.4 -28.9Q24.4 -31.2 28.2 -31.5Q31.95 -31.8 31.95 -29.8Q31.95 -28.5 31.2 -27.95M12.35,-25.65Q21 -23.25 21 -14.85L20.95 -13.75Q20.75 -13.05 20.1 -13.05Q19.85 -13.05 19.6 -13.25L19.05 -13.5Q17 -13.5 16.2 -11.45L15.8 -9.25Q15.8 -8.7 16.4 -7.85Q17.15 -6.75 18.2 -6.75L19.3 -6.8Q19.5 -8.05 20.95 -7.7L21 -7.7L21.4 -7.75Q22.05 -7.75 22.2 -7.2L24.7 -5.4Q30.15 -0.5 30.15 4.4Q30.15 13.1 21.8 13.1Q18.95 13.1 18.5 11.05Q18 8.95 15.8 8.95L14.75 9.1L15.6 9.95L15.35 10.7Q17 11.85 17 13.25Q17 14.4 16 15.9Q14.45 18.2 11.45 18.2Q9.9 18.2 9.4 17.65Q9.15 17.05 8.9 17.05Q7.95 17.05 7.3 18.1Q6.85 18.85 6.85 19.4Q6.85 21 9.05 21.1Q11.2 21.25 11.2 22.2Q11.2 23.6 8.85 25.5Q5.95 27.85 1.95 27.85Q-1.3 27.85 -2.4 27Q-2.95 26.1 -3.45 26.1L-4.7 27Q-5.9 27.85 -7.75 27.85Q-11.35 27.85 -14.15 24.3Q-16.35 21.5 -16.35 20.1Q-16.35 19.45 -15.95 18.25Q-15.4 16.65 -14.6 16.65L-14.3 16.7Q-13.2 16.4 -10.75 16.75L-9.95 15.75L-9.5 14.7Q-9.5 14.35 -9.75 14.1L-10.4 13.5L-11.5 13.35L-12.9 14.15L-13.2 14.15L-14.05 14.7Q-15.1 14.7 -14.95 13.5Q-14.95 11.9 -12.55 11.7L-11.85 11.2L-11.55 11.05L-11.6 10.55Q-11.6 9.85 -11.25 9.75L-9.95 9.75Q-8.8 9.75 -7.9 7.4L-7.25 4.95L-7.75 1.35Q-7.75 0 -6.45 -1.7Q-5.2 -3.4 -5.2 -3.95L-6.55 -7.25L-7.2 -9.4L-9.85 -9.15L-11.05 -9.3L-11.05 -9.25Q-11.05 -8.7 -12.75 -6.5Q-14.45 -4.3 -14.45 -2.5Q-14.45 -1.85 -13.75 -0.3L-13.05 1.3Q-13.05 1.65 -15.75 3Q-18.45 4.4 -18.45 6.15Q-18.45 7.15 -17.5 8.4Q-16.55 9.65 -16.55 10.75L-16.65 11.8Q-16.95 12.4 -18.35 12.4Q-24.5 12.4 -26.85 9.1Q-28.1 7.35 -28.1 4.65Q-28.1 3.5 -27.3 1.65L-26.55 -0.1L-26.9 -1.45L-27.25 -3.65Q-27.25 -9.7 -19.15 -11.9L-15.1 -12.35L-15.15 -12.8Q-15.15 -14.4 -13.45 -16.55L-11.75 -18.7Q-11.75 -19.65 -12.95 -20.15L-14.9 -20.15L-17.45 -17.9Q-18.95 -16.2 -20 -16.2Q-22.15 -16.2 -22.95 -17.95Q-23.35 -18.85 -23.35 -19.75Q-23.35 -26.05 -17.8 -27.65L-14.05 -28.4Q-12.3 -28.8 -12.3 -29.7L-12.3 -30Q-12.8 -30.35 -13.15 -31.05Q-13.85 -32.45 -15 -32.45Q-15.85 -32.45 -16.95 -31.7Q-18 -30.95 -18.9 -30.95Q-20.65 -30.95 -21.2 -32.3L-21.4 -33.7L-21.35 -34.05L-21.4 -34.35Q-21.4 -37.4 -18.45 -39.4Q-15.8 -41.25 -12 -41.4Q-8.15 -41.6 -5.6 -39.9Q-2.65 -38 -2.65 -34.35Q-2.65 -33.45 -3.05 -32.65Q-3.7 -31.3 -5.25 -31.3Q-5.9 -31.3 -6.75 -32.3Q-7.6 -33.35 -8.3 -33.35Q-9.7 -33.35 -10.15 -32.8L-10.35 -32.2L-10 -31.65L-9.65 -31.15L-9.7 -30.8L-8.5 -29.2Q1.2 -29.4 1.2 -25.25Q1.2 -23.95 0.75 -23.5Q-0.3 -22.4 -3.8 -22.35Q-3.65 -21.7 -2.8 -21.55L-0.55 -21.4Q2.45 -21.15 2.75 -18.35L2.85 -18.35L3.7 -18.45Q4.4 -18.65 4.7 -19.3L4.9 -20.3L4.3 -22Q3.65 -23.2 3.65 -23.6Q3.65 -25.35 6.35 -25.95L12.35 -25.65M17.8,-33.2Q16.1 -33.2 15.7 -34L15.6 -35.05Q15.6 -37.35 18.25 -38Q20.85 -38.7 20.85 -36.35Q20.85 -35.7 20.05 -34.6Q19.05 -33.2 17.8 -33.2M28.55,18.75Q28.55 16.25 31.55 17.2Q34.55 18.2 34.55 20.75L34.35 22.5Q33.9 24 32.55 24Q30.3 24 29.2 21.45L28.55 18.75M2,36.8Q-1.5 36.8 -3.25 35.2Q-4.4 34.15 -4.4 33.1Q-4.4 32.6 -3.8 32.1Q-2.9 31.35 -1.15 31.35L1.8 31.85L5.8 31.05Q8.25 30.65 8.25 32.6Q8.25 34 7.1 35.15Q5.45 36.8 2 36.8M-41.85,-4.6Q-39.65 -4.2 -39.65 0.65L-39.7 1.9Q-39.95 2.6 -41.35 2.6Q-43.3 2.6 -43.9 0.95Q-44.2 0.15 -44.1 -0.6Q-44.1 -5 -41.85 -4.6M-32.85,-1.1Q-32.85 0.05 -31.85 2.2Q-30.9 4.3 -30.9 4.9L-31 5.75Q-31.2 6.25 -32 6.25Q-34.65 6.25 -36.3 2.4Q-37.1 0.45 -37.4 -1.6Q-37.4 -7 -34.05 -8.9Q-32.8 -9.6 -31.75 -9.4Q-30.7 -9.2 -30.7 -8.3Q-32.85 -2.35 -32.85 -1.1" />
<path style="fill:#FFCC00;fill-opacity:1" d="M26.05,-28.7Q25.75 -29.05 25.75 -29.35Q25.75 -30.45 27.1 -30.15Q28.4 -29.85 28.4 -29.05Q28.4 -28.15 27.4 -28.15Q26.5 -28.15 26.05 -28.7M18.7,-35.3Q18.45 -34.95 17.95 -34.95Q17.35 -34.95 17.1 -35.45L17 -35.8Q17 -36.7 17.95 -36.7Q18.9 -36.7 18.9 -35.8L18.7 -35.3M14,-29Q14 -30.35 16.1 -29.6Q18.2 -28.85 18.2 -28.25Q18.2 -27.4 16.95 -27.4Q15.95 -27.4 14.9 -28.1Q14 -28.7 14 -29M18.05,-17.65L17.95 -16.8Q17.65 -16.2 16.65 -16.2Q16.05 -16.2 11.6 -19.45Q7.35 -22.55 7.35 -22.3Q7.35 -24.85 12.7 -22.75Q18.05 -20.7 18.05 -17.65M26.25,-2.55L27.3 -0.5Q28.65 2.85 28.65 3.5Q27.15 9.15 24.6 9.15Q22.65 9.15 22.25 6.55L22.2 2.85Q22.2 1.3 21.1 -1L20 -3.5Q20 -4 20.55 -4.15L21.9 -4.2L21.9 -4.05L23 -4L24.5 -3.6L26.25 -2.55M32.3,21.9Q31.3 21.9 30.95 20.55L30.75 19.35Q30.75 18.3 32.2 18.55Q33.65 18.75 33.65 20Q33.65 21.9 32.3 21.9M6.25,21.45Q7.1 21.95 7.1 22.75Q7.1 23.35 6.35 23.85Q5.25 24.65 2.85 24.65Q-0.8 24.65 -1.65 23.6L-1.8 22.35L-2.15 21.65L-2.55 20.55Q-2.55 19.45 -1.85 19.3Q-0.85 19.05 1.65 20.3Q5 20.7 6.25 21.45M0.8,35.35L-0.3 35.25Q-1.05 35.25 -0.95 34.5Q-0.95 33.2 1.8 32.8Q4.55 32.45 4.55 33.95Q4.55 34.35 4.15 34.8Q3.6 35.4 2.45 35.4L0.8 35.35M-41.6,-1.75Q-40.4 -1.15 -40.4 -0.4L-40.6 0.45Q-40.95 1.05 -41.45 1.05Q-42.9 1.05 -42.8 -0.75Q-42.8 -2.4 -41.6 -1.75M-18.65,-35.1Q-18.65 -38.3 -12.5 -38.15Q-6.35 -37.95 -6.35 -35.55Q-6.35 -34.75 -7.3 -34.75L-13.45 -34.5L-14.85 -33.95Q-16 -33.4 -16.85 -33.4Q-18.25 -33.4 -18.6 -34.25L-18.65 -35.1M-3.55,-25.25Q-3.55 -24.05 -6.1 -23.7L-13.3 -22.75L-16.05 -20.95Q-18.25 -19.3 -19.05 -19.3Q-20.25 -19.3 -20.7 -20.5L-20.9 -21.7Q-20.9 -25.55 -12.2 -26.65Q-8.85 -27.05 -6.25 -26.7Q-3.55 -26.3 -3.55 -25.25M-34.7,-2.4Q-35.7 -2.4 -35.6 -3.65Q-35.6 -5.1 -34.45 -6Q-33.3 -6.9 -33.3 -5Q-33.3 -4.45 -33.6 -3.6Q-34.05 -2.4 -34.7 -2.4M-21.75,-8.35Q-19.05 -9.45 -19.05 -7.6Q-19.05 -7.2 -20.3 -5.1Q-21.65 -2.9 -22.25 -2.9Q-24 -2.9 -24.4 -4Q-24.65 -4.55 -24.5 -5.2Q-24.5 -7.3 -21.75 -8.35M-19.5,9.6Q-19.9 10.5 -20.55 10.5Q-23.35 10.5 -24.8 7.55Q-25.8 5.65 -25.8 4.3Q-25.8 1.75 -24.1 1.55Q-22.5 1.4 -21.35 3.45Q-21.25 4.4 -20.2 6.05Q-19.2 7.65 -19.2 8.55L-19.5 9.6M-13.7,19.8Q-13.7 17.65 -9.55 19.4Q-5.45 21.1 -5.45 22.75Q-5.45 23.4 -5.9 23.9Q-6.55 24.65 -8 24.65Q-10.35 24.65 -12.25 22.25L-13.7 19.8M-33.8,3.05Q-34.75 3.05 -34.95 1.7Q-34.95 0.65 -34.05 1.05Q-33.15 1.4 -33.15 2.35Q-33.15 3.05 -33.8 3.05" />
</g>
</svg>
