<?xml version="1.0" encoding="utf-8"?>
<svg version="1.1" id="Layer_1"
xmlns="http://www.w3.org/2000/svg"
xmlns:xlink="http://www.w3.org/1999/xlink"
xmlns:author="http://www.sothink.com"
width="133px" height="101px"
xml:space="preserve">
<g id="246" transform="matrix(1, 0, 0, 1, 66.5, 50)">
<path style="fill:#B7B7DE;fill-opacity:1" d="M27.25,-24.85Q26.2 -25.3 26 -25.8Q25.85 -26 25.85 -26.6Q25.85 -29.15 29.95 -28.95L38.8 -28.2L42.3 -27.9L45.55 -27.8L49.5 -27.75L52.05 -27.4Q53.5 -27.15 53.5 -26.15Q53.5 -25.3 52.95 -24.95L50.05 -24.55L44.85 -24.7L43.9 -24.6Q43.65 -26.5 40.55 -26.85L38.4 -26.65L34.3 -26.85Q29.75 -26.85 28.8 -25L28.75 -24.85L27.25 -24.85M58.75,-22.3L58.65 -22.95Q58.65 -24.3 59.75 -24.15Q60.9 -23.95 60.9 -22.8L60.75 -22Q60.55 -21.6 59.8 -21.6Q59 -21.6 58.75 -22.3M14.5,11.6L14.4 10.55Q14.4 10 14.6 9.85Q14.85 9.6 15.55 9.6L17.35 10Q19.15 10.6 19.15 11.8L19.15 11.85Q19.15 13 18.3 13Q15.35 13 14.6 11.9L14.5 11.6M12.55,11.3L12.55 11.55Q12.5 12.35 12.1 12.55Q10.05 13.15 9.3 11.6L9.2 11.4Q8.95 10.75 8.95 9.9Q8.95 9.2 10.75 9.3Q12.55 9.45 12.55 11.3M-9.05,12.1L-8.95 12.1L-9.45 11.65L-9.05 12.1M-5.6,10.05L-6.1 10.05L-5.6 10.1L-5.6 10.05M-10,11.9L-10 11.55Q-10.15 10.95 -10.35 10.7L-10.55 10.2Q-10.55 9.45 -9.9 9.3L-4.65 9.55Q-2.85 9.8 -2.4 10.3Q-2.25 10.5 -2.25 11.2L-2.25 11.4L-2.3 12.15Q-2.65 12.9 -4.3 12.9L-8.4 12.75L-9.2 12.65L-9.85 12.3L-10 11.9M-23.2,11.15Q-23.2 9.65 -22.45 9.85Q-21.7 9.95 -21.7 11.05Q-21.7 12.35 -22.4 12.35Q-23.2 12.35 -23.2 11.15" />
<path style="fill:#8C8CB6;fill-opacity:1" d="M42.75,-22.9Q43.9 -23.2 43.9 -24.3L43.9 -24.6L44.85 -24.7L50.05 -24.55L52.95 -24.95Q53.5 -25.3 53.5 -26.15Q53.5 -27.15 52.05 -27.4L49.5 -27.75L45.55 -27.8L42.3 -27.9L38.8 -28.2L29.95 -28.95Q25.85 -29.15 25.85 -26.6Q25.85 -26 26 -25.8Q26.2 -25.3 27.25 -24.85L28.75 -24.85L28.7 -24.65L27.6 -21.4L27.2 -20.4L26.1 -17.8Q25.1 -17.9 24.1 -19L23.4 -19.65L23.35 -23.55L23.35 -24.65L23.45 -26.1Q23.9 -30.45 27.25 -30.2L41 -29.4L51.75 -28.95L53.2 -28.95Q54.05 -28.5 54.65 -27.1L54.7 -27.05L54.75 -26.95L55.15 -25L55.15 -24.1L55.1 -22.25L55.05 -17.15L53.25 -16.8L51.6 -16.85Q49.65 -16.85 46.3 -17.6L43.65 -18.05L42.75 -22.9M61.05,-19.05L58 -18.7L58 -20.9L58 -22.45L57.9 -24.85L59.35 -24.85Q61.05 -24.5 61.25 -24.05L61.4 -22L61.35 -19L61.05 -19.05M-43.5,15.05L-43.85 14.7Q-44.6 13.65 -44.6 12.7L-44.15 11.2Q-43.5 10.1 -42.05 8.75Q-40.2 7.05 -38.75 6.65Q-39.15 7.65 -39.15 8.6Q-39.15 10 -38.25 11.2L-37.3 12.3Q-35.15 13.85 -34.3 14.7L-33.55 14.75L-32.85 14.8Q-30.3 15.15 -28.8 16.05L-28.85 18.65L-32.55 18.25L-33.2 18.15L-39.35 17.65L-42.6 17.7L-47 17.85L-56.35 18.45Q-55.95 16.4 -54.5 16L-49.65 15.7L-47.1 15.5L-44.7 15.2L-43.5 15.05M33.55,-22.4L33.55 -22.35Q32.75 -21.95 32.4 -21.55Q32.85 -22.15 33.55 -22.4M59.8,-21.6Q60.55 -21.6 60.75 -22L60.9 -22.8Q60.9 -23.95 59.75 -24.15Q58.65 -24.3 58.65 -22.95L58.75 -22.3Q59 -21.6 59.8 -21.6M53.2,-20.65Q53.2 -23.3 49.7 -23Q48.35 -22.7 47.95 -21.95L47.75 -20.7L48.05 -19.2Q48.75 -17.8 50.6 -17.8Q51.8 -17.8 52.6 -19.1Q53.2 -20.05 53.2 -20.65M7.9,8.3L8.25 8.1L9.55 8.2L13.5 8.05L17 7.9Q20.1 8.85 20.55 11.85L20.55 12.05L20.6 14.25L20.6 18.7L20.6 19.85L17.6 19.55L13.6 19.3L12.25 19.25L8.6 19.45L7.95 19.5L7.9 8.3M14.6,11.9Q15.35 13 18.3 13Q19.15 13 19.15 11.85L19.15 11.8Q19.15 10.6 17.35 10L15.55 9.6Q14.85 9.6 14.6 9.85Q14.4 10 14.4 10.55L14.5 11.6L14.6 11.9M10.75,9.3Q8.95 9.2 8.95 9.9Q8.95 10.75 9.2 11.4L9.3 11.6Q10.05 13.15 12.1 12.55Q12.5 12.35 12.55 11.55L12.55 11.3Q12.55 9.45 10.75 9.3M-11.4,16.8L-11.4 15.9L-11.4 15.3L-11.4 14.95L-11.3 8.55L-11 8.5Q-7.05 8.25 -1.4 8.45L-1.4 8.6L-1.5 11L-1.45 11.35L-1.4 14L-1.4 15.4Q-1.45 17.05 -2.1 18.05Q-3.2 19.65 -6 19.65L-6.7 19.65L-11.4 19.5L-11.4 16.8M-46.45,-1.3L-45.5 0.65L-45.05 1.65L-48.3 2.75L-53.15 4.15L-52.65 1.3L-46.45 -1.3M-30.85,0.55L-31.2 0Q-32.45 -1.7 -34.8 -1.7L-36.75 -1.1L-42.3 0.7L-41.4 -3.3L-33.95 -6.35L-32.85 -6.95L-31.45 -4.4L-29.6 -0.8L-29.55 -0.5Q-29.55 -0.3 -30.1 0.05L-30.2 0.15L-30.85 0.55M-9.45,11.65L-8.95 12.1L-9.05 12.1L-9.45 11.65M-5.6,10.1L-6.1 10.05L-5.6 10.05L-5.6 10.1M-9.85,12.3L-9.2 12.65L-8.4 12.75L-4.3 12.9Q-2.65 12.9 -2.3 12.15L-2.25 11.4L-2.25 11.2Q-2.25 10.5 -2.4 10.3Q-2.85 9.8 -4.65 9.55L-9.9 9.3Q-10.55 9.45 -10.55 10.2L-10.35 10.7Q-10.15 10.95 -10 11.55L-10 11.9L-9.85 12.3M-24.65,12.9L-24.5 11.85Q-24.05 9.25 -22.45 9L-20.85 9L-21.1 14.2L-21.1 18L-21.2 19.15Q-21.55 20.45 -22.35 20.45Q-23.7 20.45 -24.65 19.2L-24.7 19.1L-24.95 18.65L-25 16.95L-24.8 14.9L-24.7 14.25L-24.7 13.4L-24.65 12.9M-22.4,12.35Q-21.7 12.35 -21.7 11.05Q-21.7 9.95 -22.45 9.85Q-23.2 9.65 -23.2 11.15Q-23.2 12.35 -22.4 12.35" />
<path style="fill:#FF9B58;fill-opacity:1" d="M23.35,-24.65L23.35 -23.55L22.95 -23.65L21.55 -23.8L19.3 -23.35Q19.4 -24.9 20.1 -25.55Q20.8 -26.2 22.6 -26.2L23.15 -26.05L23.45 -26.1L23.35 -24.65" />
<path style="fill:#ECECF7;fill-opacity:1" d="M41.85,-25.7Q42.25 -25.25 42.75 -22.9L43.65 -18.05L44.05 -15.75L44.95 -11.4L46.55 -3.35L44.4 -2.9L42.55 -2.25Q42.15 -5 41.65 -10.95L41.4 -12.9L41.3 -14.1L41.25 -14.8L41.15 -15.95L41.1 -16.75L40.9 -18.3L39.95 -22.3L39.6 -22.9Q38.75 -24.2 37.25 -24.6L35.85 -24.75L33 -24.5L29.95 -24.25Q29.2 -24.25 28.7 -24.65L28.75 -24.85L28.8 -25Q29.75 -26.85 34.3 -26.85L38.4 -26.65Q41.25 -26.4 41.85 -25.7M11.15,1.3Q12.45 0.1 14.05 -0.2L14.95 -0.3L19.25 -0.25L22.15 -0.1L28.05 0.25Q34.7 0 37.9 0.5L35.5 3.65L21.25 3.05L13.7 2.5L12.7 2.45L9.85 2.8L10.55 1.85L11.15 1.3" />
<path style="fill:#484858;fill-opacity:1" d="M-3.6,-32L-3.65 -36.55L-6.25 -36.95L-7.05 -37.05L-7.6 -37.1L-10.4 -37.4Q-11 -37.4 -10.9 -40.1L-10.8 -44.05L-9.3 -44.55L-9.2 -44.6L-7.25 -45.1L-3.65 -45.5Q-2.95 -45.6 -2.95 -46.7L-3 -48.6Q-2.6 -49.35 -1.7 -49.5L-0.1 -49.5Q0.1 -48.6 -0.3 -45.9Q2.6 -45.5 7.2 -43.2L11.4 -40.75Q12.25 -40.1 12.25 -39.65Q12.25 -36.9 11.55 -35.95Q11.05 -35.35 9.9 -35.35L9.35 -35.4L7.05 -35.75L5.5 -36.05Q2.6 -36.4 -0.1 -36.05L-0.3 -31.65L-3.6 -32M4.7,-41.75L2.2 -42.5L0.15 -42.7L0.05 -39.7L0.1 -38.75L0.8 -38.65L3.95 -38.4L4.35 -38.4L4.7 -41.75M6.4,-38.75Q6.4 -37.7 7.3 -37.65L9.75 -37.25Q10.1 -38 10.1 -39.35Q10.1 -39.45 8.7 -40.15L6.85 -41L6.65 -40.55L6.5 -39.55L6.4 -38.75M-8.95,-39.2L-7.25 -38.8L-6.15 -38.65L-4.8 -38.5L-4.5 -38.5L-4.5 -40.2L-4.55 -41.95Q-4.6 -42.6 -5.55 -42.65L-7.25 -42.85L-8.8 -43.05L-8.95 -39.2" />
<path style="fill:#F3B288;fill-opacity:1" d="M63.7,-0.3Q62.95 -2.1 61.15 -2.1L47 -0.85L46.35 -0.8L42.8 -0.6L39.15 -0.5L39.6 -0.75Q40.95 -1.65 42.55 -2.25L44.4 -2.9L46.55 -3.35L50.5 -3.95L57 -4.5L63.15 -4.9Q65.35 -4.9 65.5 -3.8Q65.75 -0.6 65.95 0L65.95 2.15L64.75 2.6L63.7 -0.3M-33.25,19.3L-28.95 19.2L-28.85 19.2L-28.85 19.5L-28.8 22.25L-33.3 22.3L-40.15 22.45L-56 22.95L-59.6 22.65L-62.55 22.4L-65.75 22.15L-65.5 19.7L-46.7 19.55L-46.35 19.55L-33.25 19.3M-0.3,-31.65L0.6 -31.55Q3.55 -31.1 7.15 -31.45Q10.95 -31.75 12.6 -28.7Q13.8 -26.55 13.8 -23.85Q13.8 -21.1 13.35 -20.85L11.8 -20.7Q11.2 -21.9 10.85 -23.2L9.85 -26.4Q9.05 -27.85 7.15 -28.4L2.15 -29L-3.55 -29.45L-12.4 -28.4Q-13.2 -28.4 -14.35 -28.85Q-13.7 -30.7 -12.45 -31.4L-5.3 -32.05L-3.6 -32L-0.3 -31.65M7.9,31.15L7.9 31.2L5.95 31.2L5.95 31.1L5.5 24.75L5.6 20.4L5.6 14.6L5.5 11.05Q5.3 9.3 4.3 8.35Q3.8 7.9 1.2 7.4L1.1 7.4L1.2 6L7.85 6.25L7.9 7.95L7.9 8.2L7.9 8.3L7.95 19.5L7.95 19.8L7.9 21.2Q7.65 26.75 7.9 31.1L7.9 31.15M23.75,11.7Q26.6 11.4 28.7 10.5L28.65 11.95L28.6 12.65Q28.15 14.5 25.4 14.5L20.6 14.25L20.55 12.05L20.55 11.85L23.75 11.7M-11.4,19.5L-11.5 23.7L-11.7 30.85L-13.75 30.75L-14.15 27.25L-13.95 21.6L-13.8 15.15L-13.9 10.7Q-14.1 9.2 -14.75 8.7L-15.55 8.45L-16.8 8.65L-17.95 8.45L-18 7.3L-18 6.95L-14.5 6.8L-11.4 6.7L-11.3 8.55L-11.4 14.95L-11.4 15.3L-11.4 15.9L-11.4 16.8L-11.4 19.5" />
<path style="fill:#DE7D3D;fill-opacity:1" d="M20.6,14.25L25.4 14.5Q28.15 14.5 28.6 12.65L28.65 11.95L28.7 10.5L29.95 9.85Q32.4 8.35 34.65 4.9L35.5 3.65L37.9 0.5L38.1 0.25L39.15 -0.5L42.8 -0.6L46.35 -0.8L47 -0.85L61.15 -2.1Q62.95 -2.1 63.7 -0.3L64.75 2.6L60.65 3.05L59.4 3L52.15 3.25Q44.25 5.2 40.45 9.35L36.9 14.05Q34.3 17.1 31.6 17.75L20.6 18.7L20.6 14.25M-61.65,27.65Q-63.6 27.35 -64.75 26.3Q-66.3 24.8 -65.9 22.1L-65.5 19.7L-65.75 22.15L-62.55 22.4L-59.6 22.65L-56 22.95L-40.15 22.45L-33.3 22.3L-28.8 22.25L-28.6 24.85Q-27.85 27.85 -24.7 26.8L-24.7 26.6L-24.45 27.85L-26.05 27.75L-33.55 27.35L-46.65 27.8L-51.45 27.55Q-56.5 27.3 -59.05 27.6L-61.65 27.65M-13.05,-21.6Q-14.9 -21.8 -14.9 -22.2L-14.9 -23.4Q-15 -26.9 -14.35 -28.85Q-13.2 -28.4 -12.4 -28.4L-3.55 -29.45L2.15 -29L7.15 -28.4Q9.05 -27.85 9.85 -26.4L10.85 -23.2Q11.2 -21.9 11.8 -20.7L11.55 -20.7L9.6 -20.75L4.2 -21.05L-2.5 -21.25L-9.25 -21.35L-13.05 -21.6M1.2,31.2L1.2 31.05Q0.95 27.6 1 24.65L0.95 16.15Q0.9 10.95 1 8.45L1 8.2L1.1 7.4L1.2 7.4Q3.8 7.9 4.3 8.35Q5.3 9.3 5.5 11.05L5.6 14.6L5.6 20.4L5.5 24.75L5.95 31.1L5.95 31.2L1.2 31.2M-14.4,30.8L-18.3 30.7L-18.15 26.5L-17.95 18.1L-17.95 8.85L-17.95 8.75L-17.95 8.65L-17.95 8.45L-16.8 8.65L-15.55 8.45L-14.75 8.7Q-14.1 9.2 -13.9 10.7L-13.8 15.15L-13.95 21.6L-14.15 27.25L-13.75 30.75L-14.4 30.8" />
<path style="fill:#FF6600;fill-opacity:1" d="M57.65,-15.2Q57.15 -13.4 55.7 -13.4Q54.45 -13.4 54.2 -13.9L54.9 -15.75L55.05 -17.15L55.15 -17.2L56.35 -18Q57.1 -18.65 57.6 -18.7L58 -18.7L57.9 -16.15L57.65 -15.2M23.85,-13.9L21.9 -13.8Q20.55 -13.8 20.1 -14.7Q19.8 -15.4 19.8 -17.3L19.3 -22.95L19.3 -23.35L21.55 -23.8L22.95 -23.65L23.35 -23.55L23.4 -19.65Q23.45 -16.2 23.65 -15L23.85 -13.9" />
<path style="fill:#393943;fill-opacity:1" d="M8.4,-13.75Q6.35 -13.3 2.55 -13.7L-2.8 -14.45L-2.55 -15.8L-2.55 -15.95L-2.55 -17.35L-2.5 -21.25L4.2 -21.05L9.6 -20.75L11.55 -20.7Q11.45 -17.3 11.65 -14.55L11.7 -14.2L8.4 -13.75M-10.95,-5.65Q-10.65 -7.15 -9.1 -7.15Q-8 -7.15 -7.6 -6.55Q-7.3 -6.2 -6.85 -4.4L-6.85 -2.95L-11.1 -3.1L-10.95 -5.65M-3.6,-2.85L-3.4 -5.1Q-3.05 -6.65 -1.75 -6.65Q-0.85 -6.65 -0.45 -5.3Q-0.1 -4.35 -0.1 -3.25Q-0.1 -2.6 -0.6 -2.5L-1.6 -2.5Q-3.9 -2.5 -3.6 -2.85" />
<path style="fill:#C3C3E2;fill-opacity:1" d="M-58.25,38.8L-58.25 38.95L-58.3 38.8L-60.7 30.85L-52.75 30.85L-44 31.55L-37.7 31.8L-31.05 31L-24 30.15L-22.55 30.25Q-21.25 31 -19.2 31L-18.55 31L-18.3 31.05Q-18.5 33.6 -18.3 36.5L-17.3 36.5L-14.85 36.55L-11.75 36.5L-11.7 31.15L-10.8 30.9L-0.85 31L1.2 31.3Q1.05 33 1.3 35.8L7.8 35.7L7.9 31.2L7.9 31.15L8.3 31.1L8.45 31.1L9.95 31L13.6 31.05L17.7 31.15Q21.05 30.05 20.6 26.5L20.6 24.85Q22.4 24.25 25.2 24.2Q31.25 24.15 34.65 22.45Q37.75 20.9 41.35 17.35L44.8 14L44.7 14.95Q44.7 15.8 45.15 16.35Q45.65 16.85 46.4 16.85Q48.35 16.85 49.35 14.95Q50.05 13.65 50.05 12.05Q50.05 10.55 49.6 10.05L49.2 9.8L51.2 8.35L54.75 6.55Q56.45 5.65 59.8 5.5L58.2 9.05L54.95 14.95L51.9 21.95Q49.9 26.3 46.75 29.65L45.35 32Q-1.1 40.15 -58.25 38.8M-9.9,-10.8L-7.15 -10.7L-7.8 -12.55Q-8.8 -13.15 -10.3 -13.65Q-11.2 -14.1 -11.2 -15.55Q-11.2 -16.8 -10.15 -17.5Q-9.15 -18.1 -7.6 -18.1Q-5.9 -18.1 -4.8 -17.25Q-3.7 -16.35 -2.55 -15.95L-2.55 -15.8L-2.8 -14.45L2.55 -13.7Q6.35 -13.3 8.4 -13.75L11.7 -14.2L11.9 -9.5Q14.35 -8.8 14.35 -5.5L14.05 -0.2Q12.45 0.1 11.15 1.3L10.95 0.15Q10.65 -2 10.65 -4.75Q10.05 -6.1 8.2 -7.25Q6.3 -8.5 4.85 -8.55L-2.35 -9.15L-6.85 -9.55L-9.15 -9.75L-12.25 -9.35L-13.95 -9.75L-14.05 -9.8L-13.95 -9.9L-13.2 -10.3L-13.05 -10.35L-9.9 -10.8M39.6,-0.75L38.6 -0.7Q37 -0.7 35.65 -2.15Q34.3 -3.6 33.25 -3.6L31.1 -3.05L27.8 -2.5Q25.35 -2.5 24.3 -3.75Q23.05 -5.35 23.05 -9.75L23.15 -11L24 -13.2L25.4 -16.4L26.1 -17.8L27.2 -20.4L27.6 -21.4L28.7 -24.65Q29.2 -24.25 29.95 -24.25L33 -24.5L35.85 -24.75L37.25 -24.6Q38.75 -24.2 39.6 -22.9L39.95 -22.3L40.9 -18.3L41.1 -16.75L41.15 -15.95L41.25 -14.8L41.3 -14.1L41.4 -12.9L41.65 -10.95Q42.15 -5 42.55 -2.25Q40.95 -1.65 39.6 -0.75M32.4,-21.55L32.35 -21.5L32.25 -21.45L32.2 -21.35L31.9 -21.05L31.85 -20.95L31.5 -20.25L31.45 -20.25L31.25 -20.25Q30.3 -20.2 29.4 -19.15L28.9 -18.4Q28.55 -17.8 28.5 -17.05L28.45 -16.6Q28.45 -14.45 30.45 -13.2Q32.05 -12.25 33.8 -12.25Q35.15 -12.25 36.85 -13.15L37.05 -13.25Q38.55 -14.2 38.55 -15.25L38.3 -16.15L38.25 -16.2L37.9 -16.5Q38.5 -17.1 38.65 -18.05L38.7 -19Q38.7 -20.75 37.6 -21.75Q36.55 -22.7 35 -22.7L33.55 -22.35L33.55 -22.4Q32.85 -22.15 32.4 -21.55" />
<path style="fill:#A9A9C9;fill-opacity:1" d="M-46.35,19.55L-46.7 19.55L-46.75 19.25L-33.25 19.2L-33.25 19.3L-46.35 19.55M-47.1,-13.6L-48.25 -14.4L-49.8 -13.75L-50.1 -17.95L-50.1 -18.25L-49.6 -18.1L-31.45 -23.05Q-29.7 -23.05 -28.15 -19.35L-47.1 -13.6M-17.95,8.65L-19.45 7.85Q-21.85 6.45 -23.85 6.95Q-26.85 7.65 -28.9 3.8L-30 1.05L-27.85 1.35L-24.05 0.9L-21 1.05L-17.85 1.35L-15.7 1.35Q-15.05 1.2 -15.05 -0.15Q-15.05 -1.3 -15.6 -1.9L-15.75 -2.2L-15.7 -2.2L-15.4 -2.55L-15.4 -5.75Q-15.4 -8.7 -14.05 -9.8L-13.95 -9.75L-12.25 -9.35L-9.15 -9.75L-6.85 -9.55L-2.35 -9.15L4.85 -8.55Q6.3 -8.5 8.2 -7.25Q10.05 -6.1 10.65 -4.75Q10.65 -2 10.95 0.15L11.15 1.3L10.55 1.85L9.85 2.8Q8.8 4.15 8.4 6.05L7.9 7.95L7.85 6.25L1.2 6L1.1 7.4L1 8.2L1 8.45L-1.4 8.45Q-7.05 8.25 -11 8.5L-11.3 8.55L-11.4 6.7L-14.5 6.8L-18 6.95L-18 7.3L-17.95 8.45L-17.95 8.65M-23.9,-2.2Q-28.3 -2.2 -29.6 -0.8L-31.45 -4.4L-32.85 -6.95Q-30 -8.75 -29.1 -12.15L-28.85 -13.2L-30.8 -14.2L-26.85 -15.45L-25.55 -11.5L-23.35 -4L-22.6 -2.1L-23.9 -2.2M-11.1,-3.1L-6.85 -2.95L-6.85 -4.4Q-7.3 -6.2 -7.6 -6.55Q-8 -7.15 -9.1 -7.15Q-10.65 -7.15 -10.95 -5.65L-11.1 -3.1M-1.6,-2.5L-0.6 -2.5Q-0.1 -2.6 -0.1 -3.25Q-0.1 -4.35 -0.45 -5.3Q-0.85 -6.65 -1.75 -6.65Q-3.05 -6.65 -3.4 -5.1L-3.6 -2.85Q-3.9 -2.5 -1.6 -2.5M-33.55,14.75L-34.3 14.7Q-35.15 13.85 -37.3 12.3L-38.25 11.2Q-39.15 10 -39.15 8.6Q-39.15 7.65 -38.75 6.65L-38.2 5.4Q-37.5 4.1 -36.75 3.45L-36.1 3L-36.05 2.95L-35.9 2.95L-30.85 0.55L-30.2 0.15L-30.4 0.7Q-31.1 2.55 -31.85 6.85L-32.8 14.35L-32.85 14.8L-33.55 14.75" />
<path style="fill:#A4A4CD;fill-opacity:1" d="M37.15,-16Q37 -16.6 37 -17.3L36.95 -17.7L36.95 -17.8Q36.7 -20.9 34.7 -20.9L33.05 -20.7L32.75 -20.7Q32.3 -20.75 31.85 -20.95L31.9 -21.05L32.2 -21.35L32.25 -21.45L32.35 -21.5L32.4 -21.55Q32.75 -21.95 33.55 -22.35L35 -22.7Q36.55 -22.7 37.6 -21.75Q38.7 -20.75 38.7 -19L38.65 -18.05Q38.5 -17.1 37.9 -16.5L37.15 -16" />
<path style="fill:#8080AD;fill-opacity:1" d="M35.05,-15.6Q33.6 -15.6 32.6 -16.25Q31.95 -16.6 31.65 -17.2L31.55 -17.45Q31.25 -17.95 31.2 -18.65L31.2 -19L31.45 -20.05L31.5 -20.25L31.85 -20.95Q32.3 -20.75 32.75 -20.7L33.05 -20.7L34.7 -20.9Q36.7 -20.9 36.95 -17.8L36.95 -17.7L37 -17.3Q37 -16.6 37.15 -16L35.05 -15.6" />
<path style="fill:#A9A9CB;fill-opacity:1" d="M37.15,-16L37.9 -16.5L38.25 -16.2L38.3 -16.15L38.55 -15.25Q38.55 -14.2 37.05 -13.25L36.85 -13.15Q35.15 -12.25 33.8 -12.25Q32.05 -12.25 30.45 -13.2Q28.45 -14.45 28.45 -16.6L28.5 -17.05Q28.55 -17.8 28.9 -18.4L29.4 -19.15Q30.3 -20.2 31.25 -20.25L31.45 -20.25L31.5 -20.25L31.45 -20.05L31.2 -19L31.2 -18.65Q31.25 -17.95 31.55 -17.45L31.65 -17.2Q31.95 -16.6 32.6 -16.25Q33.6 -15.6 35.05 -15.6L37.15 -16" />
<path style="fill:#6E6E98;fill-opacity:1" d="M61.35,-19L61.2 -16.4Q61.15 -15.7 59.85 -15.25L57.65 -15.05L57.65 -15.2L57.9 -16.15L58 -18.7L61.05 -19.05L61.35 -19M44.05,-15.75L43.65 -18.05L46.3 -17.6Q49.65 -16.85 51.6 -16.85L53.25 -16.8L55.05 -17.15L54.9 -15.75L54.2 -13.9Q53.25 -12.6 51.45 -12.25L44.95 -11.4L44.05 -15.75M-18.3,31L-18.55 31L-19.2 31Q-21.25 31 -22.55 30.25Q-23.95 29.45 -24.45 27.85L-24.7 26.6L-24.7 26.8Q-27.85 27.85 -28.6 24.85L-28.8 22.25L-28.85 19.5L-28.85 19.2L-28.95 19.2L-33.25 19.2L-46.75 19.25L-56.4 19.25L-56.35 18.45L-47 17.85L-42.6 17.7L-39.35 17.65L-33.2 18.15L-32.55 18.25L-28.85 18.65L-28.8 16.05L-28.8 15.35Q-28.65 12.6 -27.75 11.8L-24.5 11.85L-24.65 12.9L-24.7 12.9L-24.7 13.4L-24.7 14.25L-24.8 14.9L-25 16.95L-24.95 18.65L-24.7 19.1L-24.65 19.2Q-23.7 20.45 -22.35 20.45Q-21.55 20.45 -21.2 19.15L-21.1 18L-21.1 14.2L-20.85 9L-18.1 8.85L-18 8.85L-17.95 8.85L-17.95 18.1L-18.15 26.5L-18.3 30.7L-18.3 31M-44.7,15.2L-47.1 15.5L-49.65 15.7L-49.7 8.6L-53.15 9.9Q-54 9.9 -55.5 7.45L-53.6 6.55L-53.25 4.55L-53.15 4.15L-48.3 2.75L-45.05 1.65L-44.8 2.25L-42.4 1.05L-42.3 0.7L-36.75 -1.1L-34.8 -1.7Q-32.45 -1.7 -31.2 0L-30.85 0.55L-35.9 2.95L-36.05 2.95L-36.1 3L-36.75 3.45Q-37.5 4.1 -38.2 5.4L-38.75 6.65Q-40.2 7.05 -42.05 8.75Q-43.5 10.1 -44.15 11.2L-44.6 12.7Q-44.6 13.65 -43.85 14.7L-43.5 15.05L-44.7 15.2M23.65,-15Q23.45 -16.2 23.4 -19.65L24.1 -19Q25.1 -17.9 26.1 -17.8L25.4 -16.4L24 -13.2L23.85 -13.9L23.65 -15M13.6,19.3L17.6 19.55L20.6 19.85L20.6 24.85L20.6 26.5Q21.05 30.05 17.7 31.15L13.6 31.05L9.95 31L8.45 31.1L8.3 31.1L8.05 31.1L7.9 31.1Q7.65 26.75 7.9 21.2L7.95 19.8L7.95 19.5L8.6 19.45L12.25 19.25L13.6 19.3M-11.45,30.85L-11.7 30.85L-11.5 23.7L-11.4 19.5L-6.7 19.65L-6 19.65Q-3.2 19.65 -2.1 18.05Q-1.45 17.05 -1.4 15.4L-1.4 14L-1.45 11.35L-1.5 11L-1.4 8.6L-1.4 8.45L1 8.45Q0.9 10.95 0.95 16.15L1 24.65Q0.95 27.6 1.2 31.05L-0.85 31L-10.8 30.9L-11 30.9L-11.45 31L-11.45 30.85M7.9,8.3L7.9 8.2L8.25 8.1L7.9 8.3" />
<path style="fill:#8D8DB1;fill-opacity:1" d="M20.6,19.85L20.6 18.7L31.6 17.75Q34.3 17.1 36.9 14.05L40.45 9.35Q44.25 5.2 52.15 3.25L59.4 3L60.65 3.05L59.8 5.5Q56.45 5.65 54.75 6.55L51.2 8.35L49.2 9.8L47.95 9.55Q47.85 9.55 47.7 9.65L47.05 10.15Q46.6 10.35 46.25 10.9L45.9 11.3L45.7 11.6Q44.95 12.75 44.8 14L41.35 17.35Q37.75 20.9 34.65 22.45Q31.25 24.15 25.2 24.2Q22.4 24.25 20.6 24.85L20.6 19.85M-59.05,27.6Q-56.5 27.3 -51.45 27.55L-46.65 27.8L-33.55 27.35L-26.05 27.75L-24.45 27.85Q-23.95 29.45 -22.55 30.25L-24 30.15L-31.05 31L-37.7 31.8L-44 31.55L-52.75 30.85L-60.7 30.85L-61.65 27.65L-59.05 27.6M-13.05,-10.35L-12.95 -15.55L-13.05 -21.6L-9.25 -21.35L-2.5 -21.25L-2.55 -17.35L-2.55 -15.95Q-3.7 -16.35 -4.8 -17.25Q-5.9 -18.1 -7.6 -18.1Q-9.15 -18.1 -10.15 -17.5Q-11.2 -16.8 -11.2 -15.55Q-11.2 -14.1 -10.3 -13.65Q-8.8 -13.15 -7.8 -12.55L-7.15 -10.7L-9.9 -10.8L-13.05 -10.35M38.1,0.25L37.9 0.5Q34.7 0 28.05 0.25L22.15 -0.1L19.25 -0.25L21.65 -6.8L23.15 -11L23.05 -9.75Q23.05 -5.35 24.3 -3.75Q25.35 -2.5 27.8 -2.5L31.1 -3.05L33.25 -3.6Q34.3 -3.6 35.65 -2.15Q37 -0.7 38.6 -0.7L39.6 -0.75L39.15 -0.5L38.1 0.25M7.9,31.1L8.05 31.1L8.3 31.1L7.9 31.15L7.9 31.1M1.2,31.05L1.2 31.2L1.2 31.3L-0.85 31L1.2 31.05M-11.45,31L-11 30.9L-10.8 30.9L-11.7 31.15L-11.7 30.85L-11.45 30.85L-11.45 31M-18.3,31.05L-18.55 31L-18.3 31L-18.3 31.05" />
<path style="fill:#F58D48;fill-opacity:1" d="M58,-22.45L58 -20.9L58 -18.7L57.6 -18.7Q57.1 -18.65 56.35 -18L55.15 -17.2L55.05 -17.15L55.1 -22.25L55.15 -24.1L55.15 -25L54.75 -26.95L55.2 -27.1Q57.3 -27.1 57.8 -25.45L57.9 -24.85L58 -22.45" />
<path style="fill:#595980;fill-opacity:1" d="M38.4,-26.65L40.55 -26.85Q43.65 -26.5 43.9 -24.6L43.9 -24.3Q43.9 -23.2 42.75 -22.9Q42.25 -25.25 41.85 -25.7Q41.25 -26.4 38.4 -26.65M51.75,-20.15Q51.75 -21.2 50.5 -21.25Q49.25 -21.35 49.25 -20.2L49.45 -19.55Q49.75 -18.85 50.6 -18.85Q51.2 -18.85 51.55 -19.4L51.75 -20.15M52.6,-19.1Q51.8 -17.8 50.6 -17.8Q48.75 -17.8 48.05 -19.2L47.75 -20.7L47.95 -21.95Q48.35 -22.7 49.7 -23Q53.2 -23.3 53.2 -20.65Q53.2 -20.05 52.6 -19.1" />
<path style="fill:#3D3D5F;fill-opacity:1" d="M51.55,-19.4Q51.2 -18.85 50.6 -18.85Q49.75 -18.85 49.45 -19.55L49.25 -20.2Q49.25 -21.35 50.5 -21.25Q51.75 -21.2 51.75 -20.15L51.55 -19.4" />
<path style="fill:#676783;fill-opacity:1" d="M49.2,9.8L49.6 10.05Q50.05 10.55 50.05 12.05Q50.05 13.65 49.35 14.95Q48.35 16.85 46.4 16.85Q45.65 16.85 45.15 16.35Q44.7 15.8 44.7 14.95L44.8 14Q44.95 12.75 45.7 11.6L45.9 11.3L46.25 10.9Q46.6 10.35 47.05 10.15L47.7 9.65Q47.85 9.55 47.95 9.55L49.2 9.8" />
<path style="fill:#E8E8F3;fill-opacity:1" d="M-57.1,41.4L-58.25 38.95L-58.25 38.8Q-1.1 40.15 45.35 32L42.85 35.35Q2.4 43.3 -57.1 41.4" />
<path style="fill:#9E9EBF;fill-opacity:1" d="M9.55,8.2L8.25 8.1L7.9 8.2L7.9 7.95L8.4 6.05Q8.8 4.15 9.85 2.8L12.7 2.45L13.7 2.5L21.25 3.05L35.5 3.65L34.65 4.9Q32.4 8.35 29.95 9.85L28.7 10.5Q26.6 11.4 23.75 11.7L20.55 11.85Q20.1 8.85 17 7.9L13.5 8.05L9.55 8.2" />
<path style="fill:#B86128;fill-opacity:1" d="M5.95,31.2L7.9 31.2L7.8 35.7L1.3 35.8Q1.05 33 1.2 31.3L1.2 31.2L5.95 31.2M-18.3,30.7L-14.4 30.8L-13.75 30.75L-11.7 30.85L-11.7 31.15L-11.75 36.5L-14.85 36.55L-17.3 36.5L-18.3 36.5Q-18.5 33.6 -18.3 31.05L-18.3 31L-18.3 30.7" />
<path style="fill:#C65E5E;fill-opacity:1" d="M42.85,35.35Q38.4 40.9 32.85 44.2Q24.8 49.05 15.05 49.1L3.05 49.35L-6.05 49.55L-18.3 49.55Q-43.9 49.1 -50.2 47.45Q-54.35 46.4 -57.1 41.4Q2.4 43.3 42.85 35.35" />
<path style="fill:#9C2525;fill-opacity:1" d="M-52.65,1.3L-53.15 4.15L-53.25 4.55L-55.4 5.6L-56.35 6L-56.45 6L-57.3 5.5Q-58.1 4.8 -58.9 3.4L-59.45 2.65L-58.35 2.1L-57.9 3.35L-52.65 1.3M-59.05,0.45L-61.1 1.3L-61.8 -0.35L-59.75 -1.25L-54.75 -3.25L-54.55 -2.9L-54.05 -1.6L-59.05 0.45M-61.3,-5L-60.3 -2.55L-62.1 -1.8L-63.85 -6.5L-61.7 -7.6L-60.3 -7.5L-58.8 -6.05L-61.3 -5M-49.8,-9.65L-50.65 -12.25L-49.75 -12.6L-48.85 -12.6L-48.1 -12.45L-46.35 -11.1Q-48.05 -10.35 -49.8 -9.65M-35.65,-10.65L-35.9 -11.2L-35.4 -10.95L-35.2 -10.9L-34.6 -10.65Q-32.75 -9.95 -31.1 -10.6L-29.7 -11.5L-29.1 -12.15Q-30 -8.75 -32.85 -6.95L-33.95 -6.35L-35.65 -10.65M-46.45,-1.3L-43.3 -2.55L-43.55 -1.05L-43.55 -0.15L-43.85 0.15L-45.5 0.65L-46.45 -1.3" />
<path style="fill:#C23030;fill-opacity:1" d="M-58.9,3.4Q-58.1 4.8 -57.3 5.5L-56.45 6L-56.35 6L-55.4 5.6L-53.25 4.55L-53.6 6.55L-55.5 7.45L-58.1 8.6L-60.25 3.05L-59.45 2.65L-58.9 3.4M-58.8,-6.05L-60.3 -7.5L-61.7 -7.6L-63.85 -6.5L-64.45 -7.95L-60.55 -9.65L-57 -6.8L-58.8 -6.05M-48.25,-14.4L-47.1 -13.6L-44.65 -11.8L-46.35 -11.1L-48.1 -12.45L-48.85 -12.6L-49.75 -12.6L-50.65 -12.25L-51 -13.25L-49.8 -13.75L-48.25 -14.4M-28.85,-13.2L-29.1 -12.15L-29.7 -11.5L-31.1 -10.6Q-32.75 -9.95 -34.6 -10.65L-35.2 -10.9L-35.4 -10.95L-35.9 -11.2L-37.3 -14.65Q-34.1 -15.65 -30.8 -14.2L-28.85 -13.2M-41.4,-3.3L-42.3 0.7L-42.4 1.05L-44.8 2.25L-45.05 1.65L-45.5 0.65L-43.85 0.15L-43.55 -0.15L-43.55 -1.05L-43.3 -2.55L-41.4 -3.3M-34.75,-14Q-35.4 -13.8 -35.1 -13.15L-34.95 -13Q-32.95 -11.2 -31.8 -11.7Q-31.2 -11.9 -31.5 -12.65Q-31.7 -13.2 -32.5 -13.75L-32.6 -13.8L-34.75 -14" />
<path style="fill:#C5C5E0;fill-opacity:1" d="M-26,-20.05L-28.15 -19.35Q-29.7 -23.05 -31.45 -23.05L-49.6 -18.1L-50.1 -18.25Q-50 -21.15 -47.3 -21.95Q-43.3 -22.6 -40.85 -23.75Q-30.75 -26.15 -29.2 -26.15Q-27.95 -26.15 -25.6 -20.2L-26 -20.05M-15.6,-1.9Q-15.05 -1.3 -15.05 -0.15Q-15.05 1.2 -15.7 1.35L-17.85 1.35L-21 1.05L-24.05 0.9L-27.85 1.35L-30 1.05L-30.1 0.05Q-29.55 -0.3 -29.55 -0.5L-29.6 -0.8Q-28.3 -2.2 -23.9 -2.2L-22.6 -2.1L-23.35 -4L-25.55 -11.5L-26.85 -15.45L-24.5 -16.2L-24.15 -16.3Q-22.25 -10.7 -19.7 -1.85L-18.1 -1.8L-15.75 -2.2L-15.6 -1.9" />
<path style="fill:#BFBFC2;fill-opacity:1" d="M-37.3,-14.65L-35.9 -11.2L-35.65 -10.65L-37.9 -8.8L-39.45 -7.55L-40.6 -7.05Q-42.3 -6.4 -46.95 -5.1Q-48.2 -4.65 -49 -4.35L-50.35 -4L-51.95 -3.8L-53.3 -3.55L-54.55 -2.9L-54.75 -3.25L-59.75 -1.25L-60.3 -2.55L-61.3 -5L-58.8 -6.05L-57 -6.8L-49.8 -9.65Q-48.05 -10.35 -46.35 -11.1L-44.65 -11.8L-37.5 -14.7L-37.35 -14.75L-37.3 -14.65" />
<path style="fill:#A2A2A3;fill-opacity:1" d="M-52.65,1.3L-57.9 3.35L-58.35 2.1L-59.05 0.45L-54.05 -1.6L-54.55 -2.9L-53.3 -3.55L-51.95 -3.8L-50.35 -4L-49 -4.35Q-48.2 -4.65 -46.95 -5.1Q-42.3 -6.4 -40.6 -7.05L-39.45 -7.55L-37.9 -8.8L-35.65 -10.65L-33.95 -6.35L-41.4 -3.3L-43.3 -2.55L-46.45 -1.3L-52.65 1.3" />
<path style="fill:#8282AD;fill-opacity:1" d="M-28.15,-19.35L-26 -20.05L-25.6 -20.2L-24.15 -16.3L-24.5 -16.2L-26.85 -15.45L-30.8 -14.2Q-34.1 -15.65 -37.3 -14.65L-37.35 -14.75L-37.5 -14.7L-44.65 -11.8L-47.1 -13.6L-28.15 -19.35" />
<path style="fill:#F0A1A1;fill-opacity:1" d="M-32.6,-13.8L-32.5 -13.75Q-31.7 -13.2 -31.5 -12.65Q-31.2 -11.9 -31.8 -11.7Q-32.95 -11.2 -34.95 -13L-35.1 -13.15Q-35.4 -13.8 -34.75 -14L-32.6 -13.8" />
<path style="fill:#8686AA;fill-opacity:1" d="M-22.45,9Q-24.05 9.25 -24.5 11.85L-27.75 11.8Q-28.65 12.6 -28.8 15.35L-28.8 16.05Q-30.3 15.15 -32.85 14.8L-32.8 14.35L-31.85 6.85Q-31.1 2.55 -30.4 0.7L-30.2 0.15L-30.1 0.05L-30 1.05L-28.9 3.8Q-26.85 7.65 -23.85 6.95Q-21.85 6.45 -19.45 7.85L-17.95 8.65L-17.95 8.75L-17.95 8.85L-18 8.85L-18.1 8.85L-20.85 9L-22.45 9M-28.95,19.2L-33.25 19.3L-33.25 19.2L-28.95 19.2M-24.7,13.4L-24.7 12.9L-24.65 12.9L-24.7 13.4" />
<path style="fill:none;stroke-width:1;stroke-linecap:butt;stroke-linejoin:miter;stroke-miterlimit:3;stroke:#585454;stroke-opacity:1" d="M23.35,-23.55L23.35 -24.65L23.45 -26.1Q23.9 -30.45 27.25 -30.2L41 -29.4L51.75 -28.95L53.2 -28.95Q54.05 -28.5 54.65 -27.1L54.7 -27.05L55.2 -27.1M57.9,-24.85L59.35 -24.85Q61.05 -24.5 61.25 -24.05L61.4 -22L61.35 -19L61.2 -16.4Q61.15 -15.7 59.85 -15.25L57.65 -15.05L57.65 -15.2M55.05,-17.15L54.9 -15.75L54.2 -13.9Q53.25 -12.6 51.45 -12.25L44.95 -11.4L46.55 -3.35M60.65,3.05L59.8 5.5L58.2 9.05L54.95 14.95L51.9 21.95Q49.9 26.3 46.75 29.65L45.35 32L42.85 35.35Q38.4 40.9 32.85 44.2Q24.8 49.05 15.05 49.1L3.05 49.35L-6.05 49.55L-18.3 49.55Q-43.9 49.1 -50.2 47.45Q-54.35 46.4 -57.1 41.4L-58.25 38.95L-58.3 38.8L-60.7 30.85L-61.65 27.65M-46.7,19.55L-46.75 19.25L-56.4 19.25L-56.35 18.45Q-55.95 16.4 -54.5 16L-49.65 15.7L-49.7 8.6L-53.15 9.9Q-54 9.9 -55.5 7.45L-58.1 8.6L-60.25 3.05L-59.45 2.65L-58.35 2.1L-59.05 0.45L-61.1 1.3L-61.8 -0.35L-59.75 -1.25L-60.3 -2.55L-62.1 -1.8L-63.85 -6.5L-64.45 -7.95L-60.55 -9.65L-57 -6.8L-49.8 -9.65L-50.65 -12.25L-51 -13.25L-49.8 -13.75L-50.1 -17.95L-50.1 -18.25Q-50 -21.15 -47.3 -21.95Q-43.3 -22.6 -40.85 -23.75Q-30.75 -26.15 -29.2 -26.15Q-27.95 -26.15 -25.6 -20.2L-24.15 -16.3Q-22.25 -10.7 -19.7 -1.85L-18.1 -1.8L-15.75 -2.2L-15.7 -2.2L-15.4 -2.55L-15.4 -5.75Q-15.4 -8.7 -14.05 -9.8L-13.95 -9.9L-13.2 -10.3L-13.05 -10.35L-12.95 -15.55L-13.05 -21.6M-3.6,-32L-3.65 -36.55L-6.25 -36.95L-7.05 -37.05L-7.6 -37.1L-10.4 -37.4Q-11 -37.4 -10.9 -40.1L-10.8 -44.05L-9.3 -44.55L-9.2 -44.6L-7.25 -45.1L-3.65 -45.5Q-2.95 -45.6 -2.95 -46.7L-3 -48.6Q-2.6 -49.35 -1.7 -49.5L-0.1 -49.5Q0.1 -48.6 -0.3 -45.9Q2.6 -45.5 7.2 -43.2L11.4 -40.75Q12.25 -40.1 12.25 -39.65Q12.25 -36.9 11.55 -35.95Q11.05 -35.35 9.9 -35.35L9.35 -35.4L7.05 -35.75L5.5 -36.05Q2.6 -36.4 -0.1 -36.05L-0.3 -31.65M11.55,-20.7Q11.45 -17.3 11.65 -14.55L11.7 -14.2L11.9 -9.5Q14.35 -8.8 14.35 -5.5L14.05 -0.2L14.95 -0.3L19.25 -0.25L21.65 -6.8L23.15 -11L24 -13.2L23.85 -13.9M28.75,-24.85L28.8 -25Q29.75 -26.85 34.3 -26.85L38.4 -26.65M28.75,-24.85L28.7 -24.65M4.7,-41.75L2.2 -42.5L0.15 -42.7L0.05 -39.7L0.1 -38.75L0.8 -38.65L3.95 -38.4L4.35 -38.4L4.7 -41.75M6.4,-38.75Q6.4 -37.7 7.3 -37.65L9.75 -37.25Q10.1 -38 10.1 -39.35Q10.1 -39.45 8.7 -40.15L6.85 -41L6.65 -40.55L6.5 -39.55L6.4 -38.75M-2.5,-21.25L-2.55 -17.35L-2.55 -15.95M-2.55,-15.8L-2.8 -14.45L2.55 -13.7Q6.35 -13.3 8.4 -13.75L11.7 -14.2M7.9,7.95L8.4 6.05Q8.8 4.15 9.85 2.8L10.55 1.85L11.15 1.3Q12.45 0.1 14.05 -0.2M-7.15,-10.7L-2.55 -10.5L4.2 -10.05L11.5 -9.6L11.9 -9.5M31.5,-20.25L31.45 -20.05L31.2 -19L31.2 -18.65Q31.25 -17.95 31.55 -17.45L31.65 -17.2Q31.95 -16.6 32.6 -16.25Q33.6 -15.6 35.05 -15.6L37.15 -16L37.9 -16.5Q38.5 -17.1 38.65 -18.05L38.7 -19Q38.7 -20.75 37.6 -21.75Q36.55 -22.7 35 -22.7L33.55 -22.35Q32.75 -21.95 32.4 -21.55L32.35 -21.5L32.25 -21.45L32.2 -21.35L31.9 -21.05L31.85 -20.95M31.5,-20.25L31.85 -20.95M33.55,-22.35L33.55 -22.4Q32.85 -22.15 32.4 -21.55M26.1,-17.8L27.2 -20.4L27.6 -21.4L28.7 -24.65M26.1,-17.8L25.4 -16.4L24 -13.2M23.35,-23.55L23.4 -19.65Q23.45 -16.2 23.65 -15L23.85 -13.9M19.25,-0.25L22.15 -0.1L28.05 0.25Q34.7 0 37.9 0.5M55.05,-17.15L55.1 -22.25L55.15 -24.1L55.15 -25L54.75 -26.95L54.7 -27.05M42.75,-22.9L43.65 -18.05L44.05 -15.75L44.95 -11.4M42.75,-22.9Q42.25 -25.25 41.85 -25.7Q41.25 -26.4 38.4 -26.65M49.2,9.8L49.6 10.05Q50.05 10.55 50.05 12.05Q50.05 13.65 49.35 14.95Q48.35 16.85 46.4 16.85Q45.65 16.85 45.15 16.35Q44.7 15.8 44.7 14.95L44.8 14Q44.95 12.75 45.7 11.6L45.9 11.3L46.25 10.9Q46.6 10.35 47.05 10.15L47.7 9.65Q47.85 9.55 47.95 9.55L49.2 9.8M20.55,11.85L20.55 12.05L20.6 14.25L20.6 18.7L20.6 19.85L20.6 24.85L20.6 26.5Q21.05 30.05 17.7 31.15L13.6 31.05L9.95 31L8.45 31.1M1.2,31.05L-0.85 31L-10.8 30.9M-18.3,31L-18.55 31L-19.2 31Q-21.25 31 -22.55 30.25M20.55,11.85Q20.1 8.85 17 7.9L13.5 8.05L13.6 19.3L13.6 31.05M7.9,8.2L8.25 8.1L9.55 8.2L13.5 8.05M1,8.45L-1.4 8.45M-11.7,30.85L-11.45 30.85L-11 30.9L-10.8 30.9M7.9,31.1L8.05 31.1M-28.15,-19.35L-26 -20.05M-46.35,-11.1L-44.65 -11.8L-47.1 -13.6L-48.25 -14.4L-49.8 -13.75M-59.75,-1.25L-54.75 -3.25L-54.55 -2.9L-54.05 -1.6L-59.05 0.45M-35.65,-10.65L-35.9 -11.2L-37.3 -14.65L-37.5 -14.7L-44.65 -11.8M-60.3,-2.55L-61.3 -5L-58.8 -6.05L-57 -6.8M-46.35,-11.1Q-48.05 -10.35 -49.8 -9.65M-45.5,0.65L-45.05 1.65L-44.8 2.25L-42.4 1.05L-42.3 0.7L-41.4 -3.3L-43.3 -2.55L-46.45 -1.3L-45.5 0.65M-8.95,-39.2L-7.25 -38.8L-6.15 -38.65L-4.8 -38.5L-4.5 -38.5L-4.5 -40.2L-4.55 -41.95Q-4.6 -42.6 -5.55 -42.65L-7.25 -42.85L-8.8 -43.05L-8.95 -39.2M-24.5,-16.2L-26.85 -15.45M-32.85,-6.95L-31.45 -4.4L-29.6 -0.8Q-28.3 -2.2 -23.9 -2.2L-22.6 -2.1L-19.7 -1.85M-37.5,-14.7L-37.35 -14.75L-37.3 -14.65Q-34.1 -15.65 -30.8 -14.2L-26.85 -15.45M-35.65,-10.65L-33.95 -6.35L-32.85 -6.95Q-30 -8.75 -29.1 -12.15L-28.85 -13.2L-30.8 -14.2M-33.95,-6.35L-41.4 -3.3M-29.6,-0.8L-29.55 -0.5Q-29.55 -0.3 -30.1 0.05L-30.2 0.15L-30.4 0.7Q-31.1 2.55 -31.85 6.85L-32.8 14.35L-32.85 14.8Q-30.3 15.15 -28.8 16.05L-28.8 15.35Q-28.65 12.6 -27.75 11.8L-24.5 11.85Q-24.05 9.25 -22.45 9L-20.85 9L-18.1 8.85L-18 8.85L-17.95 8.85M-7.15,-10.7L-9.9 -10.8L-13.05 -10.35M-10.95,-5.65Q-10.65 -7.15 -9.1 -7.15Q-8 -7.15 -7.6 -6.55Q-7.3 -6.2 -6.85 -4.4L-6.85 -2.95L-11.1 -3.1L-10.95 -5.65M-3.6,-2.85L-3.4 -5.1Q-3.05 -6.65 -1.75 -6.65Q-0.85 -6.65 -0.45 -5.3Q-0.1 -4.35 -0.1 -3.25Q-0.1 -2.6 -0.6 -2.5L-1.6 -2.5Q-3.9 -2.5 -3.6 -2.85M-28.15,-19.35L-47.1 -13.6M-11.3,8.55L-11 8.5Q-7.05 8.25 -1.4 8.45M-24.65,12.9L-24.7 13.4L-24.7 14.25L-24.8 14.9L-25 16.95L-24.95 18.65L-24.95 19.1L-24.85 21.05L-24.8 22.1L-24.75 25.3L-24.7 26.6L-24.45 27.85Q-23.95 29.45 -22.55 30.25M-49.7,8.6L-47.5 7.75L-41.3 5.2L-36.75 3.25L-36.1 3L-36.05 2.95L-35.9 2.95L-30.85 0.55L-30.2 0.15M-36.1,3L-36.75 3.45Q-37.5 4.1 -38.2 5.4L-38.75 6.65Q-39.15 7.65 -39.15 8.6Q-39.15 10 -38.25 11.2L-37.3 12.3Q-35.15 13.85 -34.3 14.7L-33.55 14.75L-32.85 14.8M-49.65,15.7L-47.1 15.5L-44.7 15.2L-43.5 15.05L-39.7 14.8L-39.45 14.8Q-36.5 14.6 -34.3 14.7M-28.85,19.2L-28.95 19.2L-33.25 19.2L-33.25 19.3M-33.25,19.2L-46.75 19.25M-24.7,13.4L-24.7 12.9L-24.65 12.9L-24.5 11.85M-24.7,26.6L-24.7 26.8Q-27.85 27.85 -28.6 24.85L-28.8 22.25L-28.85 19.5L-28.85 19.2L-28.85 18.65L-28.8 16.05M-58.35,2.1L-57.9 3.35L-52.65 1.3L-53.15 4.15L-53.25 4.55L-53.6 6.55L-55.5 7.45M-52.65,1.3L-46.45 -1.3" />
<path style="fill:none;stroke-width:1;stroke-linecap:butt;stroke-linejoin:miter;stroke-miterlimit:3;stroke:#C65307;stroke-opacity:1" d="M23.85,-13.9L21.9 -13.8Q20.55 -13.8 20.1 -14.7Q19.8 -15.4 19.8 -17.3L19.3 -22.95L19.3 -23.35Q19.4 -24.9 20.1 -25.55Q20.8 -26.2 22.6 -26.2L23.15 -26.05M55.2,-27.1Q57.3 -27.1 57.8 -25.45L57.9 -24.85M58,-18.7L57.9 -16.15L57.65 -15.2Q57.15 -13.4 55.7 -13.4Q54.45 -13.4 54.2 -13.9M58,-18.7L58 -20.9L58 -22.45L57.9 -24.85" />
<path style="fill:none;stroke-width:1;stroke-linecap:butt;stroke-linejoin:miter;stroke-miterlimit:3;stroke:#91491A;stroke-opacity:1" d="M37.9,0.5L38.1 0.25L39.15 -0.5L39.6 -0.75Q40.95 -1.65 42.55 -2.25L44.4 -2.9L46.55 -3.35L50.5 -3.95L57 -4.5L63.15 -4.9Q65.35 -4.9 65.5 -3.8Q65.75 -0.6 65.95 0L65.95 2.15L64.75 2.6L60.65 3.05M-24.45,27.85L-26.05 27.75L-33.55 27.35L-46.65 27.8L-51.45 27.55Q-56.5 27.3 -59.05 27.6L-61.65 27.65Q-63.6 27.35 -64.75 26.3Q-66.3 24.8 -65.9 22.1L-65.5 19.7L-46.7 19.55L-46.35 19.55L-33.25 19.3L-28.95 19.2M-13.05,-21.6Q-14.9 -21.8 -14.9 -22.2L-14.9 -23.4Q-15 -26.9 -14.35 -28.85Q-13.7 -30.7 -12.45 -31.4L-5.3 -32.05L-3.6 -32L-0.3 -31.65L0.6 -31.55Q3.55 -31.1 7.15 -31.45Q10.95 -31.75 12.6 -28.7Q13.8 -26.55 13.8 -23.85Q13.8 -21.1 13.35 -20.85L11.8 -20.7L11.55 -20.7L9.6 -20.75L4.2 -21.05L-2.5 -21.25L-9.25 -21.35L-13.05 -21.6M20.6,18.7L31.6 17.75Q34.3 17.1 36.9 14.05L40.45 9.35Q44.25 5.2 52.15 3.25L59.4 3L60.65 3.05M7.9,31.15L7.9 31.2L7.8 35.7L1.3 35.8Q1.05 33 1.2 31.3L1.2 31.2L1.2 31.05Q0.95 27.6 1 24.65L0.95 16.15Q0.9 10.95 1 8.45L1 8.2L1.1 7.4L1.2 6L7.85 6.25L7.9 7.95L7.9 8.2L7.9 8.3L7.95 19.5L7.95 19.8L7.9 21.2Q7.65 26.75 7.9 31.1L7.9 31.15M-11.4,19.5L-11.5 23.7L-11.7 30.85L-11.7 31.15L-11.75 36.5L-14.85 36.55L-17.3 36.5L-18.3 36.5Q-18.5 33.6 -18.3 31.05L-18.3 31L-18.3 30.7M37.9,0.5L35.5 3.65L34.65 4.9Q32.4 8.35 29.95 9.85L28.7 10.5Q26.6 11.4 23.75 11.7L20.55 11.85M1.2,31.2L5.95 31.2L7.9 31.2M-17.95,8.85L-17.95 18.1L-18.15 26.5L-18.3 30.7L-14.4 30.8L-13.75 30.75L-11.7 30.85M-17.95,8.85L-17.95 8.75L-17.95 8.65L-17.95 8.45L-18 7.3L-18 6.95L-14.5 6.8L-11.4 6.7L-11.3 8.55L-11.4 14.95L-11.4 15.3L-11.4 15.9L-11.4 16.8" />
</g>
</svg>
