<?xml version="1.0" encoding="utf-8"?>
<svg version="1.1" id="Layer_1"
xmlns="http://www.w3.org/2000/svg"
xmlns:xlink="http://www.w3.org/1999/xlink"
xmlns:author="http://www.sothink.com"
width="161px" height="123px"
xml:space="preserve">
<g id="203" transform="matrix(1, 0, 0, 1, 79.1, 114.85)">
<path style="fill:#FF0000;fill-opacity:0" d="M81.8,-40.4L-79.1 -40.4L-79.1 -55.5L81.8 -55.5L81.8 -40.4" />
<path style="fill:#C3C3E2;fill-opacity:1" d="M-3.15,-106.45Q-4.15 -105.65 -4.15 -104.5Q-4.15 -102.55 -2.5 -101.25Q-1.1 -100.1 0.6 -100.1Q3.05 -100.1 3.05 -102.4L3.05 -103.5L3.5 -104.05Q4.45 -105.2 4.45 -106.4Q4.45 -107.7 3.2 -108.4Q2.15 -109 0.7 -109L-0.8 -108.65L-0.95 -108.5L-1.15 -108.4L-1.75 -107.95L-1.95 -107.6L-2.25 -106.95Q-2.75 -106.8 -3.15 -106.45M6.1,-92.6Q4.85 -93.15 3.8 -94.05Q2.85 -94.9 0.3 -95.15L-3.85 -95.6Q-6.4 -96.25 -6.85 -101.35L-6.9 -101.5Q-7.2 -104.45 -8.4 -105.85L-7.8 -109.85Q-7.4 -111.65 -6.5 -112.7L-5.45 -111.95L-1.1 -111.25Q1.95 -111 3.4 -110Q5.6 -108.45 6.05 -104.65Q6.85 -98.1 8 -93.55L8.45 -91.95Q7.35 -92 6.1 -92.6M39.35,-10.3L-53.25 -9.3L-53.55 -11.45Q-54.9 -21.25 -59.45 -23.75Q-65.7 -27.15 -69.35 -32.55L-70.5 -34.5L-67.15 -36.65Q-62.8 -39.35 -58.35 -39.35L-54.35 -38.6Q-51.55 -37.85 -50.15 -37.85L-42.3 -38.4L-35.1 -39Q-30.85 -39 -30.5 -35.7Q-29.9 -29.85 -28.4 -27.45Q-27.4 -25.9 -24.55 -25.85L-20.3 -25.6Q-14.95 -23.4 -12.45 -23.4Q-8.85 -23.4 4.35 -25.9Q18.85 -28.65 21.2 -30.55Q23.85 -32.6 28.4 -37.45L34.25 -43.7L34.35 -43.8L35.1 -44.7Q35.85 -45.45 41.6 -47.5Q47.4 -49.65 49.25 -49.65Q51.6 -49.65 55.4 -48.7Q59.15 -47.75 60.55 -47.75L67.5 -48.55L75 -49.35L75.75 -49.35Q74.85 -45.05 71.95 -42.6Q70.45 -41.35 67.15 -39.5Q62.55 -36.95 60.9 -35.9Q49.2 -28.55 43.35 -19.05L43.45 -19Q42.65 -17.85 40.15 -10.3L39.35 -10.3M41,-82.05Q41.85 -81.3 43.15 -81.2L48.05 -81.5Q52.9 -81.5 54.2 -73.9Q54.75 -67.2 55.3 -63.95L55 -64Q54.35 -64 52.55 -63.2Q50.75 -62.45 49.75 -62.45Q48.2 -62.45 47.4 -63.8Q46.65 -65.2 44.5 -65.25L41.2 -65.6Q39.6 -65.95 38.85 -67.15Q38.05 -68.5 37.9 -71.3Q38.75 -74.65 39.4 -79.45Q39.95 -81.05 41 -82.05M50.4,-72.2Q51.3 -73.2 51.3 -75.6Q51.3 -77.15 50.4 -78.05Q49.45 -79 48 -79Q46.55 -79 45.6 -78.25L45.4 -78L45.3 -78L44.45 -77.3L44.35 -77.3Q42.85 -77.3 42.1 -75.9Q41.65 -75 41.65 -73.8Q41.65 -72.2 42.65 -70.7L43.3 -69.85Q44.95 -67.9 46.7 -67.9Q48.8 -67.9 49.6 -68.85Q50.3 -69.7 50.3 -71.7L50.25 -72.05L50.4 -72.2M43.9,-57.4L44.2 -57.75L44.5 -57.75L44.3 -57.4L43.9 -57.4M-29.35,-56.75Q-27.3 -55.45 -19.8 -55.5L-8 -55.7L-5.05 -55.7L-4.9 -55.7L-0.55 -55.6L1 -55.6L17.75 -54L22.1 -53.85L26.45 -53.7Q27.35 -53.55 30.5 -51.55L30.75 -51.4L30.75 -51.2L30.7 -48.35L29.4 -47.5Q23.75 -49.95 18.55 -49.95L13.95 -49.5L8.6 -49L7.7 -49L4.05 -49.15L-0.4 -49.35L-12.2 -49.65Q-16.6 -49.8 -21.85 -51.05L-29.55 -53.05L-29.85 -55.6Q-29.9 -56.15 -29.35 -56.75M16.85,-63.2L12 -63.9L11.45 -64L5.05 -64.7L3.05 -64.65L-13.5 -63.85L-20.2 -63.4L-22.05 -63.25L-21.85 -64.5L-20.25 -64.55L-20.3 -65.45L-20.3 -65.6Q-20.65 -68.15 -20.65 -74.4L-20.65 -74.65L-20.65 -75.75L-20.6 -76.8Q-19.6 -77.5 -19.05 -77.5L-17.55 -76.65L-17.65 -76.55L-17.75 -76.15L-17.8 -75.95L-17.85 -75.75L-17.8 -74.65L-17.8 -72.45L-15.95 -71.85L-13.2 -71.85L-13 -72.9L-12.85 -74.05Q-12.85 -75.1 -13.1 -75.8L-11.25 -76.4Q-9.45 -77.15 -8.4 -77.15L-0.2 -76.6L1.05 -76.45L1.4 -74.7Q1.95 -73.7 3.6 -73.55L9.05 -73.45L17.45 -73.7L18.15 -73.65L17.2 -65.45L16.85 -63.5L17.3 -63.15L16.85 -63.2M18.85,-61.1L18.75 -59.05L17.3 -59.4L18.45 -59.4L18.8 -61.8L18.9 -61.7L19.35 -61.1L18.85 -61.1M53.3,-47.9L53.25 -47.9L53.05 -47.8L49.65 -45.35Q46.8 -42.75 46.8 -40.85Q46.8 -40.1 47.65 -39.65L49.3 -39.3Q52.8 -39.3 54.95 -42Q56.65 -44.15 56.65 -46.3Q56.65 -47.25 54.4 -47.95L54 -48.05L54.15 -47.9Q53.9 -48.1 53.3 -47.9M44.05,-18.45L43.8 -18.55L43.8 -18.65L43.85 -18.65L44.05 -18.45" />
<path style="fill:#E8E8F3;fill-opacity:1" d="M-52.3,-5.5L-52.65 -5.5L-53.25 -9.3L39.35 -10.3L39.35 -7.45L38.9 -5.75L-52.3 -5.5" />
<path style="fill:#C65E5E;fill-opacity:1" d="M38.9,-5.75Q37.2 0.6 36.1 2.75Q34.65 5.65 28.65 6.2L17 7.2Q11.35 7.65 5.7 7.15L-2.3 6.5L-10.3 6.7Q-15.3 6.85 -18.45 6.5Q-23.6 5.95 -34.95 6.85Q-44.75 6.95 -49.15 2.45Q-51.3 0.25 -52.3 -3.85L-52.3 -5.5L38.9 -5.75" />
<path style="fill:#8D8DB1;fill-opacity:1" d="M-13.8,-76.85Q-14.6 -77.5 -16.3 -77.5Q-16.95 -77.5 -17.35 -76.95L-17.55 -76.65L-19.05 -77.5Q-19.6 -77.5 -20.6 -76.8L-20.35 -80.7Q-19.35 -83.45 -14.1 -83.45L-13.25 -83.45L-13.2 -83.45L-13.2 -84.1Q-13 -87.6 -11.7 -92.85L-9.8 -100.9Q-8.9 -102.75 -8.45 -105.55L-8.4 -105.85Q-7.2 -104.45 -6.9 -101.5L-6.85 -101.35Q-6.4 -96.25 -3.85 -95.6L0.3 -95.15Q2.85 -94.9 3.8 -94.05Q4.85 -93.15 6.1 -92.6Q7.35 -92 8.45 -91.95Q9.65 -87.9 11.55 -83.85L0.7 -84.1Q0.75 -79.35 1 -76.95L1.05 -76.45L-0.2 -76.6L-8.4 -77.15Q-9.45 -77.15 -11.25 -76.4L-13.1 -75.8L-13.8 -76.85M-29.35,-48.55Q-29.3 -50.65 -29.55 -53.05L-21.85 -51.05Q-16.6 -49.8 -12.2 -49.65L-0.4 -49.35L4.05 -49.15L7.7 -49L8.6 -49L13.95 -49.5L18.55 -49.95Q23.75 -49.95 29.4 -47.5L30.7 -48.35L32.7 -49.95L33 -50.2L33.1 -50.25L35.05 -59.9Q36.25 -66.1 37.3 -69.3L37.9 -71.3Q38.05 -68.5 38.85 -67.15Q39.6 -65.95 41.2 -65.6L44.5 -65.25Q46.65 -65.2 47.4 -63.8Q48.2 -62.45 49.75 -62.45Q50.75 -62.45 52.55 -63.2Q54.35 -64 55 -64L55.3 -63.95L58.05 -62.75Q58.5 -62.5 59 -62.35L59.8 -57.2L60.55 -57.1L68.8 -56.5L74 -56.85Q76.1 -56.6 76.1 -53.25Q76.1 -51.15 75.75 -49.35L75 -49.35L67.5 -48.55L60.55 -47.75Q59.15 -47.75 55.4 -48.7Q51.6 -49.65 49.25 -49.65Q47.4 -49.65 41.6 -47.5Q35.85 -45.45 35.1 -44.7L34.35 -43.8L34.25 -43.7L28.4 -37.45Q23.85 -32.6 21.2 -30.55Q18.85 -28.65 4.35 -25.9Q-8.85 -23.4 -12.45 -23.4Q-14.95 -23.4 -20.3 -25.6L-24.55 -25.85Q-27.4 -25.9 -28.4 -27.45Q-29.9 -29.85 -30.5 -35.7Q-30.85 -39 -35.1 -39L-42.3 -38.4L-50.15 -37.85Q-51.55 -37.85 -54.35 -38.6L-58.35 -39.35Q-62.8 -39.35 -67.15 -36.65L-70.5 -34.5Q-73 -39.35 -72.45 -44.75L-72.4 -45.05L-72.4 -45.1Q-70.6 -49 -66.45 -49L-53.55 -48.4L-50.25 -49.35Q-47 -50.15 -47 -49.35Q-47 -48.75 -46.7 -49.05Q-46.55 -49.25 -46.75 -49.3L-34 -48.1L-29.4 -48.55L-29.35 -48.55L-28.05 -48.2Q-27.3 -49 -29.35 -48.55M44.3,-57.4L44.5 -57.75L44.2 -57.75L43.9 -57.4L44.3 -57.4M-23.65,-59.4L-26.55 -59.4L-28.1 -62.5L-24.1 -63.05L-25 -65.45L-20.3 -65.45L-20.25 -64.55L-21.85 -64.5L-22.05 -63.25L-20.2 -63.4L-13.5 -63.85L3.05 -64.65L5.05 -64.7L11.45 -64L12 -63.9L16.85 -63.2L17.3 -63.15L16.85 -63.5L17.2 -65.45L20 -65.45L19.5 -61.1L19.35 -61.1L18.9 -61.7L18.8 -61.8L18.45 -59.4L17.3 -59.4L18.75 -59.05L18.7 -57.55L18.4 -57.6L13.15 -57.55L6 -57.8L-0.35 -58.2L-5.05 -58L-8 -58L-19.8 -58.75L-23.7 -59L-23.65 -59.4M-33.75,-47.8Q-33.6 -48.05 -34 -48.1Q-34 -47.45 -33.75 -47.8" />
<path style="fill:#ECECF7;fill-opacity:1" d="M-2.35,-114.35L-1 -114.3Q4.65 -114.2 5.95 -113.2Q7.85 -111.75 9.7 -103.7L11.45 -94.4L11.75 -92.4L12.85 -84.65L12.85 -83.85L12 -83.85L11.85 -83.85L11.55 -83.85Q9.65 -87.9 8.45 -91.95L8 -93.55Q6.85 -98.1 6.05 -104.65Q5.6 -108.45 3.4 -110Q1.95 -111 -1.1 -111.25L-5.45 -111.95L-6.5 -112.7Q-5.1 -114.35 -2.35 -114.35M58.05,-62.75L55.3 -63.95Q54.75 -67.2 54.2 -73.9Q52.9 -81.5 48.05 -81.5L43.15 -81.2Q41.85 -81.3 41 -82.05Q42.95 -84 46.8 -84L48.25 -83.95Q53.6 -83.8 54.8 -82.15Q55.7 -80.9 57.45 -71.15L59 -62.35Q58.5 -62.5 58.05 -62.75M30.5,-51.55Q27.35 -53.55 26.45 -53.7L22.1 -53.85L17.75 -54L1 -55.6L-0.55 -55.6L-4.9 -55.7L-5.05 -55.7L-8 -55.7L-19.8 -55.5Q-27.3 -55.45 -29.35 -56.75Q-29.35 -59 -23.7 -59L-19.8 -58.75L-8 -58L-5.05 -58L-0.35 -58.2L6 -57.8L13.15 -57.55L18.4 -57.6L18.7 -57.45L18.7 -57.55L20.55 -57.45L27 -56.8L28.2 -56.5Q30.7 -55.45 30.75 -51.4L30.5 -51.55" />
<path style="fill:#8080AD;fill-opacity:1" d="M1.85,-105.55L2.6 -105.35L3.6 -105.5Q3.8 -105.6 3.8 -106.25Q3.8 -107.35 2.2 -108Q0.6 -108.65 0.6 -107.45Q0.6 -106.9 1.2 -106.2L1.55 -105.75L1.85 -105.55M1,-102.8Q-0.05 -102.8 -1.15 -103.7Q-2.35 -104.8 -2.35 -106.25L-2.25 -106.95L-1.95 -107.6L-1.75 -107.95L-1.15 -108.4L-0.95 -108.5L-0.8 -108.65L0.7 -109Q2.15 -109 3.2 -108.4Q4.45 -107.7 4.45 -106.4Q4.45 -105.2 3.5 -104.05L3.05 -103.5Q2.15 -102.8 1 -102.8M44.45,-77.3L45.3 -78L45.4 -78L45.6 -78.25Q46.55 -79 48 -79Q49.45 -79 50.4 -78.05Q51.3 -77.15 51.3 -75.6Q51.3 -73.2 50.4 -72.2L50.25 -72.05Q49.25 -71.15 47.1 -71.15Q45.3 -71.15 44.45 -71.85Q43.55 -72.55 43.55 -74.3Q43.55 -76.05 43.8 -76.55L44.45 -77.3M47.45,-75.85Q47.75 -75.25 48.15 -74.95Q48.6 -74.65 49.15 -74.65L49.85 -74.8L49.9 -75.95Q49.9 -77.25 48.55 -77.6Q47.15 -77.95 47.15 -76.85L47.45 -75.85" />
<path style="fill:#B1B1DB;fill-opacity:1" d="M1.55,-105.75L1.2 -106.2Q0.6 -106.9 0.6 -107.45Q0.6 -108.65 2.2 -108Q3.8 -107.35 3.8 -106.25Q3.8 -105.6 3.6 -105.5L2.6 -105.35L1.85 -105.55L1.55 -105.75M47.15,-76.85Q47.15 -77.95 48.55 -77.6Q49.9 -77.25 49.9 -75.95L49.85 -74.8L49.15 -74.65Q48.6 -74.65 48.15 -74.95Q47.75 -75.25 47.45 -75.85L47.15 -76.85" />
<path style="fill:#A9A9CB;fill-opacity:1" d="M-2.25,-106.95L-2.35 -106.25Q-2.35 -104.8 -1.15 -103.7Q-0.05 -102.8 1 -102.8Q2.15 -102.8 3.05 -103.5L3.05 -102.4Q3.05 -100.1 0.6 -100.1Q-1.1 -100.1 -2.5 -101.25Q-4.15 -102.55 -4.15 -104.5Q-4.15 -105.65 -3.15 -106.45Q-2.75 -106.8 -2.25 -106.95M43.8,-76.55Q43.55 -76.05 43.55 -74.3Q43.55 -72.55 44.45 -71.85Q45.3 -71.15 47.1 -71.15Q49.25 -71.15 50.25 -72.05L50.3 -71.7Q50.3 -69.7 49.6 -68.85Q48.8 -67.9 46.7 -67.9Q44.95 -67.9 43.3 -69.85L42.65 -70.7Q41.65 -72.2 41.65 -73.8Q41.65 -75 42.1 -75.9Q42.85 -77.3 44.35 -77.3L44.45 -77.3L43.8 -76.55" />
<path style="fill:#393943;fill-opacity:1" d="M-13.1,-75.8Q-12.85 -75.1 -12.85 -74.05L-13 -72.9L-13.2 -71.85L-15.95 -71.85L-17.8 -72.45L-17.8 -74.65L-17.8 -75.95L-17.75 -76.15L-17.65 -76.55L-17.55 -76.65L-17.35 -76.95Q-16.95 -77.5 -16.3 -77.5Q-14.6 -77.5 -13.8 -76.85L-13.1 -75.8" />
<path style="fill:#3D3D48;fill-opacity:1" d="M18.15,-73.65L17.45 -73.7L9.05 -73.45L3.6 -73.55Q1.95 -73.7 1.4 -74.7L1.05 -76.45L1 -76.95Q7.15 -74.7 18.3 -75.8L18.15 -73.7L18.15 -73.65" />
<path style="fill:#2B2B33;fill-opacity:1" d="M1,-76.95Q0.75 -79.35 0.7 -84.1L11.55 -83.85L11.85 -83.85L12 -83.85L12.85 -83.85L15.45 -83.8Q17.5 -83.8 18.05 -82.55Q18.4 -81.85 18.4 -79.4L18.3 -75.8Q7.15 -74.7 1 -76.95" />
<path style="fill:#6E6E8C;fill-opacity:1" d="M54.15,-47.9L54 -48.05L54.4 -47.95Q56.65 -47.25 56.65 -46.3Q56.65 -44.15 54.95 -42Q52.8 -39.3 49.3 -39.3L47.65 -39.65Q46.8 -40.1 46.8 -40.85Q46.8 -42.75 49.65 -45.35L53.05 -47.8L53.25 -47.9L53.3 -47.9Q53.9 -48.1 54.15 -47.9" />
<path style="fill:none;stroke-width:1;stroke-linecap:butt;stroke-linejoin:miter;stroke-miterlimit:3;stroke:#585454;stroke-opacity:1" d="M3.05,-103.5L3.5 -104.05Q4.45 -105.2 4.45 -106.4Q4.45 -107.7 3.2 -108.4Q2.15 -109 0.7 -109L-0.8 -108.65L-0.95 -108.5L-1.15 -108.4L-1.75 -107.95L-1.95 -107.6L-2.25 -106.95L-2.35 -106.25Q-2.35 -104.8 -1.15 -103.7Q-0.05 -102.8 1 -102.8Q2.15 -102.8 3.05 -103.5M17.45,-73.7L9.05 -73.45L3.6 -73.55Q1.95 -73.7 1.4 -74.7L1.05 -76.45L1 -76.95Q0.75 -79.35 0.7 -84.1L11.55 -83.85L11.85 -83.85M12,-83.85L12.85 -83.85L12.85 -84.65L11.75 -92.4L11.45 -94.4L9.7 -103.7Q7.85 -111.75 5.95 -113.2Q4.65 -114.2 -1 -114.3L-2.35 -114.35Q-5.1 -114.35 -6.5 -112.7Q-7.4 -111.65 -7.8 -109.85L-8.4 -105.85M33.1,-50.25L35.05 -59.9Q36.25 -66.1 37.3 -69.3L37.9 -71.3Q38.75 -74.65 39.4 -79.45Q39.95 -81.05 41 -82.05Q42.95 -84 46.8 -84L48.25 -83.95Q53.6 -83.8 54.8 -82.15Q55.7 -80.9 57.45 -71.15L59 -62.35L59.8 -57.2L60.55 -57.1L68.8 -56.5L74 -56.85Q76.1 -56.6 76.1 -53.25Q76.1 -51.15 75.75 -49.35Q74.85 -45.05 71.95 -42.6Q70.45 -41.35 67.15 -39.5Q62.55 -36.95 60.9 -35.9Q49.2 -28.55 43.35 -19.05L43.45 -19Q42.65 -17.85 40.15 -10.3L39.35 -7.45L38.9 -5.75Q37.2 0.6 36.1 2.75Q34.65 5.65 28.65 6.2L17 7.2Q11.35 7.65 5.7 7.15L-2.3 6.5L-10.3 6.7Q-15.3 6.85 -18.45 6.5Q-23.6 5.95 -34.95 6.85Q-44.75 6.95 -49.15 2.45Q-51.3 0.25 -52.3 -3.85L-52.65 -5.5L-53.25 -9.3L-53.55 -11.45Q-54.9 -21.25 -59.45 -23.75Q-65.7 -27.15 -69.35 -32.55L-70.5 -34.5Q-73 -39.35 -72.45 -44.75L-72.45 -45L-72.4 -45.05L-72.4 -45.1L-72.15 -46.5M44.45,-77.3L45.3 -78L45.4 -78L45.6 -78.25Q46.55 -79 48 -79Q49.45 -79 50.4 -78.05Q51.3 -77.15 51.3 -75.6Q51.3 -73.2 50.4 -72.2L50.25 -72.05Q49.25 -71.15 47.1 -71.15Q45.3 -71.15 44.45 -71.85Q43.55 -72.55 43.55 -74.3Q43.55 -76.05 43.8 -76.55L44.45 -77.3M44.3,-57.4L47.5 -57.3Q50.65 -57.3 50.65 -57.75L50.9 -57.75Q51.25 -57.75 50.95 -57.5Q50.65 -57.15 50.65 -57.75M44.3,-57.4L43.9 -57.4L42.3 -57.45L39.35 -56.95Q37.6 -56.35 37.3 -55.6Q36.25 -53.2 33.3 -50.5L33.1 -50.25L33 -50.2L32.7 -49.95L30.7 -48.35L29.4 -47.5L28 -46.8L19.1 -46.2Q11.75 -45.95 8.4 -46.1L7.65 -46.15L4.05 -46.45L-0.4 -46.6Q-5.2 -46.7 -8.15 -46.45L-12.15 -46.45L-19.95 -46.8Q-28.85 -47.45 -28.05 -48.2Q-27.3 -49 -29.35 -48.55Q-29.3 -50.65 -29.55 -53.05L-29.85 -55.6Q-29.9 -56.15 -29.35 -56.75M-29.4,-48.55L-29.35 -48.55Q-29.45 -46.2 -29.95 -44.35M50.9,-57.75L59.8 -57.2M-13.1,-75.8Q-12.85 -75.1 -12.85 -74.05L-13 -72.9L-13.2 -71.85L-15.95 -71.85L-17.8 -72.45L-17.8 -74.65L-17.85 -75.75L-17.8 -75.95L-17.75 -76.15L-17.65 -76.55L-17.55 -76.65L-17.35 -76.95Q-16.95 -77.5 -16.3 -77.5Q-14.6 -77.5 -13.8 -76.85L-13.1 -75.8M-13.2,-83.45L-13.25 -83.45L-14.1 -83.45Q-19.35 -83.45 -20.35 -80.7L-20.6 -76.8L-20.65 -75.75L-20.65 -74.65L-20.65 -74.4Q-20.65 -68.15 -20.3 -65.6M-25,-65.45L-24.1 -63.05L-22.05 -63.25L-20.2 -63.4L-13.5 -63.85L3.05 -64.65L5.05 -64.7L11.45 -64L12 -63.9L16.85 -63.2L16.85 -63.45L16.85 -63.5L17.2 -65.45L18.15 -73.65M-13.2,-83.45L0.7 -84.1L0.7 -85L0.7 -85.9M18.3,-75.8L18.4 -79.4Q18.4 -81.85 18.05 -82.55Q17.5 -83.8 15.45 -83.8L12.85 -83.85L12.85 -82.5L12.2 -82.55L11.35 -82.6L10 -82.8L5.7 -82.15M18.3,-75.8L18.15 -73.7L18.15 -73.65M16.85,-63.2L17.3 -63.15L19 -63.1L18.8 -61.8L18.45 -59.4M19.5,-61.1L20 -65.45M30.75,-51.4Q30.7 -55.45 28.2 -56.5L27 -56.8L20.55 -57.45L18.7 -57.55L18.7 -57.45L18.4 -57.6L18.7 -57.55L18.75 -59.05L18.85 -61.1M18.4,-57.6L13.15 -57.55L6 -57.8L-0.35 -58.2L-5.05 -58L-8 -58L-19.8 -58.75L-23.7 -59Q-29.35 -59 -29.35 -56.75M30.75,-51.4L30.75 -51.2L30.7 -48.35M53.3,-47.9L53.25 -47.9L53.05 -47.8L49.65 -45.35Q46.8 -42.75 46.8 -40.85Q46.8 -40.1 47.65 -39.65L49.3 -39.3Q52.8 -39.3 54.95 -42Q56.65 -44.15 56.65 -46.3Q56.65 -47.25 54.4 -47.95L54 -48.05L54.15 -47.9Q53.9 -48.1 53.3 -47.9M-13.2,-84.1Q-13 -87.6 -11.7 -92.85L-9.8 -100.9Q-8.9 -102.75 -8.45 -105.55L-8.4 -105.85M-17.8,-75.95L-17.8 -74.65M-24.1,-63.05L-28.1 -62.5L-26.55 -59.4M-23.65,-59.4L-23.7 -59M-46.75,-49.3L-47 -49.35Q-47 -48.75 -46.7 -49.05Q-46.55 -49.25 -46.75 -49.3L-34 -48.1L-29.4 -48.55M-47,-49.35Q-47 -50.15 -50.25 -49.35L-53.55 -48.4L-66.45 -49Q-70.6 -49 -72.4 -45.1M-72.4,-45.05L-72.45 -44.75L-72.45 -43.4L-70.9 -43.4M-34,-48.1Q-33.6 -48.05 -33.75 -47.8Q-34 -47.45 -34 -48.1" />
<path style="fill:none;stroke-width:1;stroke-linecap:butt;stroke-linejoin:miter;stroke-miterlimit:3;stroke:#8D8DB1;stroke-opacity:1" d="M10.65,-10L10.5 -28" />
<path style="fill:none;stroke-width:1;stroke-linecap:round;stroke-linejoin:miter;stroke-miterlimit:3;stroke:#8D8DB1;stroke-opacity:1" d="M29,-48.65Q29.7 -40.1 34.3 -34.35M10.2,-28.15L-4.6 -27.65M-4.3,-46.5L-4.6 -27.65" />
<path style="fill:none;stroke-width:1;stroke-linecap:butt;stroke-linejoin:miter;stroke-miterlimit:3;stroke:#8D8DB1;stroke-opacity:1" d="M34.3,-34.35Q38.95 -28.5 47.6 -25.55M34.3,-34.35L22.5 -10M-38.5,-26.45L-43.45 -26.3L-44.35 -10M-38.5,-26.45L-38.05 -44.2" />
<path style="fill:none;stroke-width:1;stroke-linecap:round;stroke-linejoin:miter;stroke-miterlimit:3;stroke:#8D8DB1;stroke-opacity:1" d="M-4.6,-27.65L-38.5 -26.45" />
<path style="fill:#C3C3E2;fill-opacity:1" d="M14.75,-94.1Q12 -95.45 11.5 -95.95L11.45 -96L9.3 -98.25L10.7 -100.35L14.35 -104.1L14.65 -103.9L15.4 -104.2Q17.5 -104.2 18.9 -99.25Q19.95 -95.4 19.95 -92.3L19.85 -90.25Q19.6 -89.15 18.95 -88.9L18.55 -88.85Q16.4 -88.85 15.05 -93.1L15 -93.2L14.75 -94.1M10.6,-84.1L10.85 -90.1L11.35 -95.5L11.65 -95.55Q12.45 -95.55 12.7 -94.65L12.8 -93.15L12.3 -89.95L12.2 -89.3L11.6 -86.3L11.05 -83L10.65 -82L10.6 -84.1M15.95,-97.7Q14.85 -98.3 14.85 -97.05L15.3 -96.35Q15.9 -95.7 16.45 -95.7Q17.05 -95.7 17.05 -96.25Q17.05 -97.15 15.95 -97.7M-8.2,-89.6L-11.25 -92.85L-11.9 -93.1L-14.55 -93.95L-14.65 -93.9L-16.8 -91.8L-17.75 -94.05L-18.15 -95.1Q-19.3 -93.1 -19.3 -91.75L-19.05 -90.3L-18.95 -90.2Q-20.65 -89.2 -22.1 -89.2L-23.3 -89.35L-24.35 -89.85Q-25.35 -90.6 -25.35 -92.05Q-25.35 -95.1 -23.05 -98.35Q-21.3 -100.85 -18.95 -102.45L-18.7 -102.65L-18.05 -103.05L-16.4 -103.75L-13.8 -104.2Q-11.95 -104.2 -11.3 -103.7L-10.8 -103.05L-10.55 -102.3L-10.5 -101.35L-10.2 -101.5L-9.4 -99.4Q-8.45 -96.65 -8.45 -96.05Q-8.45 -94.1 -8.85 -92.55L-8.55 -92.2L-7.35 -90.55Q-6.6 -89.95 -6.4 -88.3L-6.35 -86.25Q-7.3 -88.45 -8.2 -89.6M-17.55,-96L-15.55 -95.65L-13.25 -95.5L-12.15 -97L-12.1 -97.05L-11.05 -98.95L-13.4 -99.45Q-14.75 -99.45 -16.15 -97.9L-17.05 -98Q-17.65 -98 -18.05 -97.35L-18.35 -96.3L-17.55 -96M-20.6,-98.5Q-20.6 -100.2 -22.55 -97.6Q-24.5 -94.95 -24.5 -92.4L-24.2 -91.1Q-23.65 -89.8 -22.35 -89.8Q-20.45 -89.8 -20.45 -90.6Q-20.45 -90.95 -21.8 -91.45Q-23.15 -91.95 -23.15 -92.5Q-23.15 -93.85 -21.85 -96.25L-20.6 -98.5" />
<path style="fill:#8D8DB1;fill-opacity:1" d="M10.65,-82Q10.2 -81.4 9.5 -81.4Q8.7 -81.4 8.3 -82.35Q8 -83 8 -83.8Q8 -86.75 9 -90.7L9.4 -92.15Q8.65 -93.65 8.65 -95.55Q8.65 -96.9 9.3 -98.25L11.45 -96L11.5 -95.95Q12 -95.45 14.75 -94.1L15 -93.2L15.05 -93.1Q16.4 -88.85 18.55 -88.85L18.6 -88.55Q15 -87.75 12.2 -89.3L12.3 -89.95L12.8 -93.15L12.7 -94.65Q12.45 -95.55 11.65 -95.55L11.35 -95.5L10.85 -90.1L10.6 -84.1L10.65 -82M-22.1,-89.2Q-20.65 -89.2 -18.95 -90.2L-19.05 -90.3L-19.3 -91.75Q-19.3 -93.1 -18.15 -95.1L-17.75 -94.05L-16.8 -91.8L-14.65 -93.9L-14.55 -93.95L-11.9 -93.1L-11.25 -92.85L-8.2 -89.6Q-7.3 -88.45 -6.35 -86.25L-6.35 -85.9L-6.45 -83.2Q-6.75 -82.2 -8.55 -82.2Q-9.5 -82.2 -9.5 -84.2L-9.3 -86.25Q-9.3 -87.3 -10.65 -88.85L-10.85 -89.1Q-12.55 -87.65 -15.4 -87.5L-16 -87.5L-17.9 -87.7L-18.05 -87.7Q-19.85 -88.05 -22.15 -88.9L-22.1 -89.2M-16.15,-97.9Q-14.75 -99.45 -13.4 -99.45L-11.05 -98.95L-12.1 -97.05L-12.15 -97L-12.65 -97.35L-16.15 -97.9" />
<path style="fill:#ECECF7;fill-opacity:1" d="M17.05,-96.25Q17.05 -95.7 16.45 -95.7Q15.9 -95.7 15.3 -96.35L14.85 -97.05Q14.85 -98.3 15.95 -97.7Q17.05 -97.15 17.05 -96.25M-12.65,-97.35L-12.15 -97L-13.25 -95.5L-15.55 -95.65L-17.55 -96L-18.35 -96.3L-18.05 -97.35Q-17.65 -98 -17.05 -98L-16.15 -97.9L-12.65 -97.35M-21.85,-96.25Q-23.15 -93.85 -23.15 -92.5Q-23.15 -91.95 -21.8 -91.45Q-20.45 -90.95 -20.45 -90.6Q-20.45 -89.8 -22.35 -89.8Q-23.65 -89.8 -24.2 -91.1L-24.5 -92.4Q-24.5 -94.95 -22.55 -97.6Q-20.6 -100.2 -20.6 -98.5L-21.85 -96.25" />
<path style="fill:none;stroke-width:1;stroke-linecap:butt;stroke-linejoin:miter;stroke-miterlimit:3;stroke:#585454;stroke-opacity:1" d="M14.65,-103.9L15.4 -104.2Q17.5 -104.2 18.9 -99.25Q19.95 -95.4 19.95 -92.3L19.85 -90.25Q19.6 -89.15 18.95 -88.9L18.6 -88.55Q15 -87.75 12.2 -89.3L11.6 -86.3L11.05 -83L10.65 -82Q10.2 -81.4 9.5 -81.4Q8.7 -81.4 8.3 -82.35Q8 -83 8 -83.8Q8 -86.75 9 -90.7L9.4 -92.15Q8.65 -93.65 8.65 -95.55Q8.65 -96.9 9.3 -98.25L10.7 -100.35L14.35 -104.1M14.65,-103.9L14.25 -103.35L14 -102.7L14 -102.65L13.9 -101.45L13.9 -100.85L14 -98.85L16.3 -98Q17.7 -97.3 17.7 -96.4Q17.7 -95.5 16.85 -94.55Q16.4 -94.05 15.75 -93.65L15 -93.2L15.05 -93.1Q16.4 -88.85 18.55 -88.85L18.95 -88.9M14.75,-94.1Q14.15 -96.4 14 -98.85M9.4,-92.15Q9.8 -93.75 10.25 -94.55L10.8 -95.1L10.9 -95.25L11.35 -95.5L11.65 -95.55Q12.45 -95.55 12.7 -94.65L12.8 -93.15L12.3 -89.95L12.2 -89.3M14.75,-94.1L15 -93.2M-12.15,-97L-12.1 -97.05L-11.05 -98.95Q-10.5 -100.25 -10.5 -101.35L-10.55 -102.3L-10.8 -103.05L-11.3 -103.7Q-11.95 -104.2 -13.8 -104.2L-16.4 -103.75L-18.05 -103.05L-18.7 -102.65L-18.95 -102.45Q-21.3 -100.85 -23.05 -98.35Q-25.35 -95.1 -25.35 -92.05Q-25.35 -90.6 -24.35 -89.85L-23.3 -89.35L-22.1 -89.2Q-20.65 -89.2 -18.95 -90.2L-16.8 -91.8M-18.15,-95.1L-18.35 -96.1L-18.35 -96.3L-18.05 -97.35Q-17.65 -98 -17.05 -98L-16.15 -97.9M-10.85,-89.1L-12.1 -90.75L-12.45 -91.35L-12.65 -91.85Q-12.65 -92.45 -11.9 -93.1L-11.65 -93.25L-10.5 -93.7Q-9.8 -93.7 -8.85 -92.55Q-8.45 -94.1 -8.45 -96.05Q-8.45 -96.65 -9.4 -99.4L-10.2 -101.5L-10.55 -102.3M-8.85,-92.55L-8.55 -92.2L-7.35 -90.55Q-6.6 -89.95 -6.4 -88.3L-6.35 -86.25L-6.35 -85.9L-6.45 -83.2Q-6.75 -82.2 -8.55 -82.2Q-9.5 -82.2 -9.5 -84.2L-9.3 -86.25Q-9.3 -87.3 -10.65 -88.85L-10.85 -89.1Q-12.55 -87.65 -15.4 -87.5Q-15.3 -84.65 -15.45 -84.05Q-15.65 -83.3 -17.8 -83.3L-18.15 -83.6L-17.9 -87.7L-18.05 -87.7Q-19.85 -88.05 -22.15 -88.9L-22.9 -89.2L-23.3 -89.35M-12.15,-97L-13.25 -95.5L-14.55 -93.95M-18.15,-95.1L-17.75 -94.05L-16.8 -91.8L-14.65 -93.9L-14.55 -93.95M-17.9,-87.7L-16 -87.5L-15.4 -87.5M-12.65,-97.35L-16.15 -97.9" />
<path style="fill:#DE7D3D;fill-opacity:1" d="M13.3,-46.55L20.65 -46.25L22.75 -46.65L24.6 -47.15Q25.5 -47.8 25.75 -49.15Q26.95 -49.65 28 -50.65L31.25 -54.5L32.9 -56.65L34.4 -58.45L35.45 -58.3L39.8 -58.85L40.95 -59.05L43.55 -59.4L46.55 -59.1L50.4 -58.9L75.5 -58.7Q79.05 -58.7 79.2 -55.75L79.25 -54.8L79.6 -54.8L80.25 -54.85Q80.2 -53.5 79.95 -53.4L79.4 -53.4L79.25 -54.8L65.95 -55.8L52.7 -56.9L48.8 -56.75L45.15 -57Q43.35 -57 41.4 -55.8L39.65 -54.9L38.6 -54.65L37.4 -54.9L36 -55.1Q34.65 -55.1 33.65 -53.25L31.6 -49.1Q28.25 -43.1 20.25 -43.1L19.1 -43.15L17.25 -43.35L14 -43.6L13.15 -43.55L13.3 -46.55M23,-81.5L22.8 -81.05L22.5 -80.5Q22.25 -80.2 21.7 -80.2L19.65 -80.2L14.65 -80.3L9.5 -80.45L-12.1 -80.6L-12.8 -80.6L-18.9 -80.45L-22.05 -80.6Q-23.3 -80.6 -24 -81.15Q-24.6 -81.75 -24.6 -82.6L-24.2 -84.9L-23.75 -84.85L-20.4 -84.85L-12.75 -85L-11.7 -85L-8.95 -85.25L-5.15 -85.5L12.8 -84.4L17.15 -84.65Q18.65 -84.65 21.55 -83.15Q22.65 -82.55 23 -81.5M-22.95,-60.85L-24.55 -60.85L-27.3 -60.95Q-29.4 -61.35 -29.35 -62.7L-29 -65.9L-23.8 -66.2L-18 -65.95L-16.75 -65.95L-8.95 -66.25L-0.5 -66.55L1.8 -66.3L4.15 -66.1L10.35 -66.4L17 -65.65L18.6 -65.65Q19.55 -65.6 19.9 -65L21.05 -62.7L20.85 -62.15Q20.35 -61.25 19 -61.3L11.35 -60.95L6.15 -61.05L-1.75 -60.95L-14.75 -60.9L-22.8 -60.85L-22.95 -60.85M-22.25,-44.7L-23.25 -45L-27.15 -45.3L-31.15 -45.8L-33.35 -46.05L-35.25 -46.1L-39.4 -45.75L-42.35 -46.1L-44.9 -46.55L-50 -46.1L-54.75 -46.25L-57.1 -46.4L-59.4 -46.25L-62.15 -45.75L-64.4 -45.45L-66.6 -45.7L-68.9 -46.25L-70.1 -46.35L-71.3 -46.55L-73.9 -47.95L-75.45 -47.8L-75.45 -48.2L-75.35 -49.5L-73.1 -49.5L-73.05 -49.4Q-72.8 -48.9 -68.8 -49.95L-65.75 -49.55L-63.1 -49.2L-58.25 -49.5L-54.05 -48.8L-49.9 -48.1L-34.35 -49.2L-33.4 -49.15L-30.6 -48.8L-26.85 -48.4Q-24.4 -48.45 -23.35 -47.3Q-22.55 -46.4 -22.25 -44.7L-22.1 -44.65L-22.2 -44.55L-22.25 -44.7" />
<path style="fill:#F3B288;fill-opacity:1" d="M34.85,-59Q36.1 -60.35 37.3 -60.55L39.35 -60.6L41.55 -60.7L48.2 -60.85L53.6 -60.75L58.15 -60.7L59.05 -60.7L61 -60.7L73.9 -60.7L79.55 -60.45L80.3 -57.6L80.25 -55.6L80.25 -54.85L79.6 -54.8L79.25 -54.8L79.2 -55.75Q79.05 -58.7 75.5 -58.7L50.4 -58.9L46.55 -59.1L43.55 -59.4L40.95 -59.05L39.8 -58.85L35.45 -58.3L34.4 -58.45L34.85 -59M25.75,-49.15Q25.5 -47.8 24.6 -47.15L22.75 -46.65L20.65 -46.25L13.3 -46.55L13.3 -47.25L13.3 -47.4L13.65 -48.1Q14.4 -48.8 16.5 -48.8L17.45 -48.8L23 -48.65L25.75 -49.15M21.55,-83.15Q18.65 -84.65 17.15 -84.65L12.8 -84.4L-5.15 -85.5L-8.95 -85.25L-11.7 -85L-12.75 -85L-20.4 -84.85L-23.75 -84.85L-24.2 -84.9L-24.15 -85.1L-24 -86.15L-24 -86.65L-23 -86.75L-19.35 -86.85L-15.7 -86.8L14.1 -86.6L16.6 -86.5L20.2 -86.5Q22.35 -86.55 22.95 -85.95Q23.35 -85.55 23.35 -83.95L23.3 -82.55L23 -81.5Q22.65 -82.55 21.55 -83.15M-29,-65.9L-29 -66.15L-28.9 -66.9L-28.85 -67.4Q-28.8 -67.9 -28.35 -68L-25.9 -68.15L-23.55 -67.85L-16.85 -68Q-3.6 -68.3 5.9 -68.2L16.35 -67.85Q19.85 -67.6 20.5 -67.05Q21.15 -66.65 21.15 -64.55L21.05 -62.7L19.9 -65Q19.55 -65.6 18.6 -65.65L17 -65.65L10.35 -66.4L4.15 -66.1L1.8 -66.3L-0.5 -66.55L-8.95 -66.25L-16.75 -65.95L-18 -65.95L-23.8 -66.2L-29 -65.9M-22.25,-44.7Q-22.55 -46.4 -23.35 -47.3Q-24.4 -48.45 -26.85 -48.4L-30.6 -48.8L-33.4 -49.15L-34.35 -49.2L-49.9 -48.1L-54.05 -48.8L-58.25 -49.5L-63.1 -49.2L-65.75 -49.55L-68.8 -49.95Q-72.8 -48.9 -73.05 -49.4L-73.1 -49.5L-75.35 -49.5L-75 -50.8L-22.4 -50.7L-21.9 -50.3L-21.55 -49.75L-21.55 -47.85Q-21.55 -45.75 -21.7 -45.35Q-21.85 -44.9 -22.1 -44.65L-22.25 -44.7" />
<path style="fill:#BB662E;fill-opacity:1" d="M75.2,-53.45L74.85 -53.45L70.35 -53.6L61.2 -53.75L61.05 -53.75L59.05 -53.75L54.2 -53.6L52.3 -53.55L51.65 -53.55L50.55 -53.5L48.3 -53.5L44.7 -53.45L40.15 -52.9L39.65 -52.8Q37.7 -52.2 36.65 -50.75L34.05 -47.5L31.55 -45L29.5 -43.4L29.35 -43.35Q27.5 -42.05 25.15 -42L20.75 -41.8L19.65 -41.75L16.75 -41.7L14.05 -41.85Q13.15 -41.9 13.15 -43.35L13.15 -43.55L14 -43.6L17.25 -43.35L19.1 -43.15L20.25 -43.1Q28.25 -43.1 31.6 -49.1L33.65 -53.25Q34.65 -55.1 36 -55.1L37.4 -54.9L38.6 -54.65L39.65 -54.9L41.4 -55.8Q43.35 -57 45.15 -57L48.8 -56.75L52.7 -56.9L65.95 -55.8L79.25 -54.8L79.4 -53.4L75.2 -53.45M-22.2,-44.55Q-22.65 -44.15 -23.25 -44.2L-26.5 -44.1L-33.3 -44.1L-33.65 -44.1L-40.75 -44.15L-50.75 -44L-52.3 -44.1L-57.55 -43.8L-61.05 -43.75L-65.4 -43.85L-70.3 -43.9Q-74.35 -43.85 -75 -44.55Q-75.4 -44.9 -75.45 -47.8L-73.9 -47.95L-71.3 -46.55L-70.1 -46.35L-68.9 -46.25L-66.6 -45.7L-64.4 -45.45L-62.15 -45.75L-59.4 -46.25L-57.1 -46.4L-54.75 -46.25L-50 -46.1L-44.9 -46.55L-42.35 -46.1L-39.4 -45.75L-35.25 -46.1L-33.35 -46.05L-31.15 -45.8L-27.15 -45.3L-23.25 -45L-22.25 -44.7L-22.2 -44.55" />
<path style="fill:none;stroke-width:1;stroke-linecap:butt;stroke-linejoin:miter;stroke-miterlimit:3;stroke:#91491A;stroke-opacity:1" d="M13.3,-46.55L13.15 -43.55L13.15 -43.35Q13.15 -41.9 14.05 -41.85L16.75 -41.7L19.65 -41.75L20.75 -41.8L25.15 -42Q27.5 -42.05 29.35 -43.35L29.5 -43.4L31.55 -45L34.05 -47.5L36.65 -50.75Q37.7 -52.2 39.65 -52.8L40.15 -52.9L44.7 -53.45L48.3 -53.5L50.55 -53.5L51.65 -53.55L52.3 -53.55L54.2 -53.6L59.05 -53.75L61.05 -53.75L61.2 -53.75L70.35 -53.6L74.85 -53.45L75.2 -53.45L79.4 -53.4L79.95 -53.4Q80.2 -53.5 80.25 -54.85L80.25 -55.6L80.3 -57.6L79.55 -60.45L73.9 -60.7L61 -60.7L59.05 -60.7L58.15 -60.7L53.6 -60.75L48.2 -60.85L41.55 -60.7L39.35 -60.6L37.3 -60.55Q36.1 -60.35 34.85 -59L34.4 -58.45L32.9 -56.65L31.25 -54.5L28 -50.65Q26.95 -49.65 25.75 -49.15M-24.2,-84.9L-24.15 -85.1L-24 -86.15L-24 -86.65L-23 -86.75L-19.35 -86.85L-15.7 -86.8L14.1 -86.6L16.6 -86.5L20.2 -86.5Q22.35 -86.55 22.95 -85.95Q23.35 -85.55 23.35 -83.95L23.3 -82.55L23 -81.5L22.8 -81.05L22.5 -80.5Q22.25 -80.2 21.7 -80.2L19.65 -80.2L14.65 -80.3L9.5 -80.45L-12.1 -80.6L-12.8 -80.6L-18.9 -80.45L-22.05 -80.6Q-23.3 -80.6 -24 -81.15Q-24.6 -81.75 -24.6 -82.6L-24.2 -84.9M-28.9,-66.9L-28.85 -67.4Q-28.8 -67.9 -28.35 -68L-25.9 -68.15L-23.55 -67.85L-16.85 -68Q-3.6 -68.3 5.9 -68.2L16.35 -67.85Q19.85 -67.6 20.5 -67.05Q21.15 -66.65 21.15 -64.55L21.05 -62.7L20.85 -62.15Q20.35 -61.25 19 -61.3L11.35 -60.95L6.15 -61.05L-1.75 -60.95L-14.75 -60.9L-22.8 -60.85L-22.95 -60.75L-22.95 -60.85L-24.55 -60.85L-27.3 -60.95Q-29.4 -61.35 -29.35 -62.7L-29 -65.9L-29 -66.15L-28.95 -66.9L-28.9 -66.9L-29 -66.15M13.3,-46.55L13.3 -47.25L13.3 -47.4L13.65 -48.1Q14.4 -48.8 16.5 -48.8L17.45 -48.8L23 -48.65L25.75 -49.15M-22.1,-44.65Q-21.85 -44.9 -21.7 -45.35Q-21.55 -45.75 -21.55 -47.85L-21.55 -49.75L-21.9 -50.3L-22.4 -50.7L-75 -50.8L-75.35 -49.5M-22.1,-44.65L-22.2 -44.55Q-22.65 -44.15 -23.25 -44.2L-26.5 -44.1L-33.3 -44.1L-33.65 -44.1L-40.75 -44.15L-50.75 -44L-52.3 -44.1L-57.55 -43.8L-61.05 -43.75L-65.4 -43.85L-70.3 -43.9Q-74.35 -43.85 -75 -44.55Q-75.4 -44.9 -75.45 -47.8L-75.45 -48.2L-75.35 -49.5M-22.95,-60.85L-22.8 -60.85" />
</g>
</svg>
