<?xml version="1.0" encoding="utf-8"?>
<svg version="1.1" id="Layer_1"
xmlns="http://www.w3.org/2000/svg"
xmlns:xlink="http://www.w3.org/1999/xlink"
xmlns:author="http://www.sothink.com"
width="73px" height="32px"
xml:space="preserve">
<g id="52" transform="matrix(1, 0, 0, 1, 32.5, 22.75)">
<path style="fill:#C9DAF1;fill-opacity:1" d="M18.5,-19.7L18.5 -18.65Q17.95 -17.65 16.55 -16.45L14.15 -14.2L14 -14.3L13.7 -14.75Q13.7 -16.15 14.7 -17.95Q15.85 -20 17.15 -20L18.5 -19.7M-22.55,-6.65Q-24 -9.25 -32 -18.45Q-32 -19.95 -30.25 -20.7L-28.25 -21.2Q-25.6 -21.2 -22.45 -15.9Q-19.05 -10.15 -17.6 -9.6Q-16.5 -11.45 -15.65 -11.45Q-15.05 -11.45 -14 -10.05Q-12.95 -8.7 -12.3 -8.7Q-11.5 -8.7 -9.6 -9.75L-7.4 -10.8Q-6.45 -10.8 -5.8 -9.6Q-5.15 -8.4 -4 -8.4Q-2.45 -8.4 -0.45 -11.1Q1.5 -13.85 3 -13.85Q4.4 -13.85 4.55 -11.1Q4.75 -8.4 7.3 -8.4Q9.05 -8.4 11.6 -9.35Q14.05 -10.3 14.25 -10.95Q14.4 -10.8 14.75 -10.8Q15.2 -10.8 19.95 -15.6Q25.5 -20.4 29.85 -20.4L31.05 -20.4Q31.5 -20.25 31.5 -19.55Q31.5 -18.4 28.7 -16.3Q25.85 -14.25 25.85 -12.6Q25.85 -11.15 28.8 -10.7Q31.7 -10.2 31.7 -8.8Q31.7 -7.35 28.05 -5L27.4 -4.6L25.95 -4.8L22.45 -4.4L19.2 -4.05L17.85 -4.25Q16.95 -4.55 16.95 -5.05Q16.95 -5.6 17.3 -6.15L17.3 -7.65L15.6 -7.65L11.15 -5.15Q8.5 -3.75 6.75 -3.75Q4.3 -3.75 2.95 -5.55Q1.65 -7.35 1.1 -7.35Q0.25 -7.35 -2.15 -4.2Q-4.55 -1.05 -5.95 -1.05L-8.15 -2.45Q-9.85 -3.9 -10.65 -3.9Q-11.95 -3.9 -12.35 -2.55Q-12.8 -1.2 -14.2 -1.2Q-16.15 -1.2 -17.25 -3.4Q-18.8 -6.5 -20.85 -8L-22.05 -8L-22.05 -6.8L-21.7 -5.1L-22.55 -6.65M33.9,-17.3L34.3 -18.3Q34.75 -19.05 35.4 -19.05Q36.25 -19.05 37.9 -18.3Q39.75 -17.5 39.75 -16.7L39.45 -15.9Q39.1 -15.6 38.7 -15.6L36.85 -16L34.95 -16.95L34 -16.95L33.9 -17.3M-17.3,-22.25Q-15.65 -22.25 -14.15 -19.7Q-12.95 -17.6 -12.95 -16.35Q-12.95 -15.05 -13.95 -15.05L-14.45 -15.1L-14.7 -15.6L-16.6 -17.95Q-18.6 -20.35 -18.6 -21.25L-18.3 -22.1L-17.3 -22.25" />
<path style="fill:#A9BEDB;fill-opacity:1" d="M21.05,-0.65Q18.65 0.9 16.35 4.7Q14.6 7.65 12.6 7.65Q10.8 7.65 9.1 6.85Q7.35 6 4.1 6L-3.95 7.1L-12.6 8.15L-15.6 7.9L-15.7 7.85Q-16.3 5.15 -18.35 1.1L-21.7 -5.1L-22.05 -6.8L-22.05 -8L-20.85 -8Q-18.8 -6.5 -17.25 -3.4Q-16.15 -1.2 -14.2 -1.2Q-12.8 -1.2 -12.35 -2.55Q-11.95 -3.9 -10.65 -3.9Q-9.85 -3.9 -8.15 -2.45L-5.95 -1.05Q-4.55 -1.05 -2.15 -4.2Q0.25 -7.35 1.1 -7.35Q1.65 -7.35 2.95 -5.55Q4.3 -3.75 6.75 -3.75Q8.5 -3.75 11.15 -5.15L15.6 -7.65L17.3 -7.65L17.3 -6.15Q16.95 -5.6 16.95 -5.05Q16.95 -4.55 17.85 -4.25L19.2 -4.05L22.45 -4.4L25.95 -4.8L27.4 -4.6L21.05 -0.65" />
<path style="fill:none;stroke-width:1;stroke-linecap:butt;stroke-linejoin:miter;stroke-miterlimit:3;stroke:#5C8BBB;stroke-opacity:1" d="M27.4,-4.6L28.05 -5Q31.7 -7.35 31.7 -8.8Q31.7 -10.2 28.8 -10.7Q25.85 -11.15 25.85 -12.6Q25.85 -14.25 28.7 -16.3Q31.5 -18.4 31.5 -19.55Q31.5 -20.25 31.05 -20.4L29.85 -20.4Q25.5 -20.4 19.95 -15.6Q15.2 -10.8 14.75 -10.8Q14.4 -10.8 14.25 -10.95Q14.05 -10.3 11.6 -9.35Q9.05 -8.4 7.3 -8.4Q4.75 -8.4 4.55 -11.1Q4.4 -13.85 3 -13.85Q1.5 -13.85 -0.45 -11.1Q-2.45 -8.4 -4 -8.4Q-5.15 -8.4 -5.8 -9.6Q-6.45 -10.8 -7.4 -10.8L-9.6 -9.75Q-11.5 -8.7 -12.3 -8.7Q-12.95 -8.7 -14 -10.05Q-15.05 -11.45 -15.65 -11.45Q-16.5 -11.45 -17.6 -9.6Q-19.05 -10.15 -22.45 -15.9Q-25.6 -21.2 -28.25 -21.2L-30.25 -20.7Q-32 -19.95 -32 -18.45Q-24 -9.25 -22.55 -6.65L-21.7 -5.1L-18.35 1.1Q-16.3 5.15 -15.7 7.85L-15.6 7.9L-12.6 8.15L-3.95 7.1L4.1 6Q7.35 6 9.1 6.85Q10.8 7.65 12.6 7.65Q14.6 7.65 16.35 4.7Q18.65 0.9 21.05 -0.65L27.4 -4.6M34,-16.95L34.95 -16.95L36.85 -16L38.7 -15.6Q39.1 -15.6 39.45 -15.9L39.75 -16.7Q39.75 -17.5 37.9 -18.3Q36.25 -19.05 35.4 -19.05Q34.75 -19.05 34.3 -18.3L33.9 -17.3L34 -16.95Q34.15 -16.6 34.8 -16.4M-17.3,-22.25Q-15.65 -22.25 -14.15 -19.7Q-12.95 -17.6 -12.95 -16.35Q-12.95 -15.05 -13.95 -15.05L-14.45 -15.1L-14.7 -15.6L-16.6 -17.95Q-18.6 -20.35 -18.6 -21.25L-18.3 -22.1L-17.3 -22.25" />
<path style="fill:none;stroke-width:1;stroke-linecap:round;stroke-linejoin:miter;stroke-miterlimit:3;stroke:#5C8BBB;stroke-opacity:1" d="M17.15,-20Q15.85 -20 14.7 -17.95Q13.7 -16.15 13.7 -14.75L14 -14.3L14.15 -14.2" />
<path style="fill:none;stroke-width:1;stroke-linecap:butt;stroke-linejoin:miter;stroke-miterlimit:3;stroke:#5C8BBB;stroke-opacity:1" d="M14.15,-14.2L16.55 -16.45Q17.95 -17.65 18.5 -18.65L18.5 -19.7L17.15 -20M14.15,-14.2L14.7 -14" />
</g>
</svg>
