<?xml version="1.0" encoding="utf-8"?>
<svg version="1.1" id="Layer_1"
xmlns="http://www.w3.org/2000/svg"
xmlns:xlink="http://www.w3.org/1999/xlink"
xmlns:author="http://www.sothink.com"
width="125px" height="95px"
xml:space="preserve">
<g id="202" transform="matrix(1, 0, 0, 1, 54.15, 89.05)">
<path style="fill:#8080AD;fill-opacity:1" d="M40.85,-55.55Q39.5 -55.55 38.55 -56.15Q37.25 -56.95 37.25 -58.7L37.5 -59.9L37.85 -60.55L38.95 -60.3L40.5 -60.5Q42.45 -60.5 42.6 -57.5L42.65 -57.15L42.8 -55.9L40.85 -55.55" />
<path style="fill:#A4A4CD;fill-opacity:1" d="M42.8,-55.9L42.65 -57.15L42.6 -57.5Q42.45 -60.5 40.5 -60.5L38.95 -60.3L37.85 -60.55L37.9 -60.65L38.2 -61L38.3 -61.05L38.35 -61.1L39.45 -61.85L40.8 -62.2Q42.25 -62.2 43.2 -61.3Q44.25 -60.35 44.25 -58.7Q44.25 -57.2 43.5 -56.4L42.8 -55.9" />
<path style="fill:#ECECF7;fill-opacity:1" d="M35,-64.35Q35.9 -66.05 40.15 -66.05Q46.3 -66.05 47.2 -65Q47.95 -64.05 49.25 -55.7L52.05 -41.4Q50.55 -42.25 49.25 -42.25L48 -42.05Q47.55 -44.95 46.65 -54.8Q46.2 -60.1 45.4 -61.8Q44.4 -64.1 41.6 -64.1L38.9 -63.85L36.05 -63.65Q35.35 -63.65 34.9 -64L35 -64.35" />
<path style="fill:#C3C3E2;fill-opacity:1" d="M38.35,-61.1L38.3 -61.05L38.2 -61L37.9 -60.65L37.85 -60.55L37.5 -59.9L37.45 -59.9Q36.45 -59.9 35.55 -58.85Q34.65 -57.8 34.65 -56.5Q34.65 -54.45 36.55 -53.3Q38.05 -52.4 39.65 -52.4Q40.95 -52.4 42.5 -53.25Q44.1 -54.2 44.1 -55.2L43.85 -56.1L43.5 -56.4Q44.25 -57.2 44.25 -58.7Q44.25 -60.35 43.2 -61.3Q42.25 -62.2 40.8 -62.2L39.45 -61.85L39.45 -61.9Q38.8 -61.65 38.35 -61.1M44.15,-41.6Q42.65 -41.6 41.4 -42.95Q40.15 -44.3 39.15 -44.3L37.15 -43.8L34.05 -43.3Q31.75 -43.3 30.8 -44.45Q29.6 -45.95 29.6 -50.05L29.7 -51.25L31.8 -56.3Q33.75 -60.3 34.9 -64Q35.35 -63.65 36.05 -63.65L38.9 -63.85L41.6 -64.1Q44.4 -64.1 45.4 -61.8Q46.2 -60.1 46.65 -54.8Q47.55 -44.95 48 -42.05L44.15 -41.6" />
<path style="fill:#8D8DB1;fill-opacity:1" d="M29.7,-51.25L29.6 -50.05Q29.6 -45.95 30.8 -44.45Q31.75 -43.3 34.05 -43.3L37.15 -43.8L39.15 -44.3Q40.15 -44.3 41.4 -42.95Q42.65 -41.6 44.15 -41.6L48 -42.05L48.1 -41.35L48.7 -38.7L42.75 -38.95L39.3 -38.65L33.4 -38.95L28.95 -38.95L24.9 -38.5Q26.5 -42 28.3 -47.3L29.7 -51.25" />
<path style="fill:#A9A9CB;fill-opacity:1" d="M42.8,-55.9L43.5 -56.4L43.85 -56.1L44.1 -55.2Q44.1 -54.2 42.5 -53.25Q40.95 -52.4 39.65 -52.4Q38.05 -52.4 36.55 -53.3Q34.65 -54.45 34.65 -56.5Q34.65 -57.8 35.55 -58.85Q36.45 -59.9 37.45 -59.9L37.5 -59.9L37.25 -58.7Q37.25 -56.95 38.55 -56.15Q39.5 -55.55 40.85 -55.55L42.8 -55.9" />
<path style="fill:none;stroke-width:1;stroke-linecap:butt;stroke-linejoin:miter;stroke-miterlimit:3;stroke:#585454;stroke-opacity:1" d="M37.5,-59.9L37.25 -58.7Q37.25 -56.95 38.55 -56.15Q39.5 -55.55 40.85 -55.55L42.8 -55.9L43.5 -56.4Q44.25 -57.2 44.25 -58.7Q44.25 -60.35 43.2 -61.3Q42.25 -62.2 40.8 -62.2L39.45 -61.85L38.35 -61.1L38.3 -61.05L38.2 -61L37.9 -60.65L37.85 -60.55M37.5,-59.9L37.85 -60.55M48.7,-38.7L50.6 -38.65Q52.25 -38.65 52.25 -39.4L52.05 -41.4L49.25 -55.7Q47.95 -64.05 47.2 -65Q46.3 -66.05 40.15 -66.05Q35.9 -66.05 35 -64.35L34.9 -64Q33.75 -60.3 31.8 -56.3L29.7 -51.25M39.45,-61.85L39.45 -61.9Q38.8 -61.65 38.35 -61.1M48.7,-38.7L42.75 -38.95L39.3 -38.65L33.4 -38.95L28.95 -38.95L24.9 -38.5Q26.5 -42 28.3 -47.3L29.7 -51.25" />
<path style="fill:#C3C3E2;fill-opacity:1" d="M18.3,-40.8Q18 -42.8 18 -45.4Q17.45 -46.65 15.7 -47.75Q13.95 -48.9 12.6 -48.95L5.85 -49.5L1.65 -49.9L-0.5 -50.05L-3.4 -49.7L-5 -50.05L-5.1 -50.1L-5 -50.2L-4.3 -50.6L-4.15 -50.65L-1.2 -51.05L1.35 -50.95L0.75 -52.7L-1.6 -53.7Q-2.45 -54.15 -2.45 -55.5Q-2.45 -56.65 -1.45 -57.3Q-0.5 -57.9 0.95 -57.9Q2.55 -57.9 3.55 -57.1L5.65 -55.85L5.65 -55.75L5.45 -54.45L10.45 -53.75Q14 -53.4 15.9 -53.8L19 -54.25L19.2 -49.85Q21.45 -49.2 21.45 -46.1Q21.45 -40.85 20.5 -37L20.45 -36.8Q18.7 -37.95 18.3 -40.8M3.45,-32.75L3.55 -32.75L3.4 -32.6L3.45 -32.75" />
<path style="fill:#A9A9C9;fill-opacity:1" d="M-6.7,-43L-6.65 -43L-6.35 -43.35L-6.35 -46.35Q-6.35 -49.1 -5.1 -50.1L-5 -50.05L-3.4 -49.7L-0.5 -50.05L1.65 -49.9L5.85 -49.5L12.6 -48.95Q13.95 -48.9 15.7 -47.75Q17.45 -46.65 18 -45.4Q18 -42.8 18.3 -40.8Q18.7 -37.95 20.45 -36.8L18.95 -32.25L12.35 -32.65Q4.35 -33.15 3.6 -32.75L3.55 -32.75L3.45 -32.75L-6.65 -32.15Q-7.6 -32.15 -10.15 -33.6Q-12.4 -34.9 -14.25 -34.45Q-17.05 -33.8 -19 -37.4L-20 -39.95L-18 -39.7L-14.45 -40.1L-11.6 -39.95L-8.65 -39.7L-6.65 -39.7Q-6.05 -39.85 -6.05 -41.1Q-6.05 -42.15 -6.55 -42.75L-6.7 -43M-14.3,-43Q-18.65 -43 -19.8 -41.55L-20.1 -41L-20.4 -40.3Q-21.05 -38.55 -21.75 -34.55L-22.65 -27.55L-23.1 -21.35L-23.1 -20.35L-23.1 -19.9L-22.05 -19.7L-22.35 -19.65L-31.5 -18.85Q-35.5 -18.85 -35.95 -24.65L-36.15 -30.05Q-36.2 -33.45 -36.75 -35.5L-37.9 -45.95L-38.2 -49.05L-17.05 -55.4L-15.85 -51.7L-13.8 -44.7L-13.1 -42.9L-14.3 -43M-38.5,-52.9L-38.8 -57.75L-38.8 -58L-38.35 -57.9L-21.35 -62.5Q-19.75 -62.5 -18.3 -59.05L-38.5 -52.9M7.65,-45.9Q7.25 -47.15 6.4 -47.15Q5.2 -47.15 4.85 -45.7Q4.7 -45.15 4.7 -43.6Q4.4 -43.3 6.55 -43.3L7.5 -43.3Q7.95 -43.4 7.95 -44L7.65 -45.9M0.95,-47.1Q0.55 -47.65 -0.45 -47.65Q-1.9 -47.65 -2.2 -46.25L-2.35 -43.85L1.65 -43.7L1.65 -45.05L0.95 -47.1" />
<path style="fill:#8686AA;fill-opacity:1" d="M-23.1,-19.9L-23.1 -20.35L-23.1 -21.35L-22.65 -27.55L-21.75 -34.55Q-21.05 -38.55 -20.4 -40.3L-20.1 -41L-20 -39.95L-19 -37.4Q-17.05 -33.8 -14.25 -34.45Q-12.4 -34.9 -10.15 -33.6Q-7.6 -32.15 -6.65 -32.15L3.45 -32.75L3.4 -32.6L3.55 -32.75L3.6 -32.75Q4.35 -33.15 12.35 -32.65L18.95 -32.25L17.4 -28.25Q16.55 -26.15 12.25 -25.6L4.85 -25.15Q3 -25 0.2 -23.8Q-2.7 -22.55 -5.55 -20.6Q-7.75 -19.15 -10.45 -18.9L-13.9 -18.95L-19.1 -19.2L-22.05 -19.7L-23.1 -19.9" />
<path style="fill:#393943;fill-opacity:1" d="M12,-60.65L17.05 -60.35L18.85 -60.3Q18.75 -57.15 18.95 -54.55L19 -54.25L15.9 -53.8Q14 -53.4 10.45 -53.75L5.45 -54.45L5.65 -55.75L5.65 -55.85L5.65 -57.2L5.7 -60.85L12 -60.65M7.95,-44Q7.95 -43.4 7.5 -43.3L6.55 -43.3Q4.4 -43.3 4.7 -43.6Q4.7 -45.15 4.85 -45.7Q5.2 -47.15 6.4 -47.15Q7.25 -47.15 7.65 -45.9L7.95 -44M1.65,-45.05L1.65 -43.7L-2.35 -43.85L-2.2 -46.25Q-1.9 -47.65 -0.45 -47.65Q0.55 -47.65 0.95 -47.1L1.65 -45.05" />
<path style="fill:#DE7D3D;fill-opacity:1" d="M-4.15,-61.15Q-5.9 -61.35 -5.9 -61.7L-5.9 -62.85Q-6 -66.1 -5.35 -67.95L-3.55 -67.5L4.75 -68.5L10.05 -68.1L14.75 -67.5Q16.5 -67 17.25 -65.65L18.2 -62.65L19.1 -60.3L18.85 -60.3L17.05 -60.35L12 -60.65L5.7 -60.85Q2.2 -60.8 -0.6 -60.9L-4.15 -61.15" />
<path style="fill:#484858;fill-opacity:1" d="M4.7,-70.9Q4.5 -74.45 4.65 -75.15L2.2 -75.5L1.45 -75.6L0.95 -75.65L-1.7 -75.95Q-2.25 -75.95 -2.15 -78.45L-2.05 -82.15L-0.65 -82.6L-0.55 -82.65L1.25 -83.15L4.65 -83.5Q5.3 -83.6 5.3 -84.65L5.25 -86.4Q5.6 -87.1 6.45 -87.25L7.95 -87.25Q8.15 -86.4 7.75 -83.9Q10.5 -83.5 14.8 -81.35L18.7 -79.05Q19.5 -78.45 19.5 -78.05Q19.5 -75.45 18.85 -74.6Q18.4 -74 17.3 -74L16.8 -74.05L14.65 -74.4L13.2 -74.65Q10.5 -75 7.95 -74.65L7.75 -70.55L4.7 -70.9M8.2,-80.9L8.1 -78.1L8.15 -77.2L8.8 -77.1L11.75 -76.85L12.1 -76.85L12.45 -80L10.1 -80.7L8.2 -80.9M1.25,-81.05L-0.2 -81.2L-0.3 -77.6L1.25 -77.25L2.3 -77.1L3.55 -76.95L3.85 -76.95L3.85 -78.55Q3.75 -79.25 3.8 -80.2Q3.75 -80.8 2.85 -80.85L1.25 -81.05M14.25,-78.9L14.15 -77.95L14.05 -77.2Q14.05 -76.2 14.9 -76.15L17.15 -75.8Q17.5 -76.5 17.5 -77.75L16.2 -78.5L14.45 -79.3L14.25 -78.9" />
<path style="fill:#F3B288;fill-opacity:1" d="M18.2,-62.65L17.25 -65.65Q16.5 -67 14.75 -67.5L10.05 -68.1L4.75 -68.5L-3.55 -67.5L-5.35 -67.95Q-4.75 -69.65 -3.6 -70.3L3.1 -70.95L4.7 -70.9L7.75 -70.55L8.6 -70.45Q11.35 -70.05 14.75 -70.35Q18.3 -70.65 19.85 -67.8Q20.95 -65.8 20.95 -63.25Q20.95 -60.7 20.55 -60.45L19.1 -60.3L18.2 -62.65" />
<path style="fill:#8D8DB1;fill-opacity:1" d="M-0.6,-60.9Q2.2 -60.8 5.7 -60.85L5.65 -57.2L5.65 -55.85L3.55 -57.1Q2.55 -57.9 0.95 -57.9Q-0.5 -57.9 -1.45 -57.3Q-2.45 -56.65 -2.45 -55.5Q-2.45 -54.15 -1.6 -53.7L0.75 -52.7L1.35 -50.95L-1.2 -51.05L-4.15 -50.65L-4.05 -55.5L-4.15 -61.15L-0.6 -60.9" />
<path style="fill:#8282AD;fill-opacity:1" d="M-18.3,-59.05L-16.25 -59.7L-15.9 -59.85L-14.55 -56.2L-14.85 -56.1L-17.05 -55.4L-38.2 -49.05L-38.5 -52.9L-18.3 -59.05" />
<path style="fill:#C5C5E0;fill-opacity:1" d="M-16.25,-59.7L-18.3 -59.05Q-19.75 -62.5 -21.35 -62.5L-38.35 -57.9L-38.8 -58Q-38.7 -60.75 -36.2 -61.5Q-32.45 -62.1 -30.15 -63.15Q-20.7 -65.4 -19.25 -65.4Q-18.1 -65.4 -15.9 -59.85L-16.25 -59.7M-13.1,-42.9L-13.8 -44.7L-15.85 -51.7L-17.05 -55.4L-14.85 -56.1L-14.55 -56.2Q-12.75 -50.95 -10.4 -42.7L-8.9 -42.65L-6.7 -43L-6.55 -42.75Q-6.05 -42.15 -6.05 -41.1Q-6.05 -39.85 -6.65 -39.7L-8.65 -39.7L-11.6 -39.95L-14.45 -40.1L-18 -39.7L-20 -39.95L-20.1 -41L-19.8 -41.55Q-18.65 -43 -14.3 -43L-13.1 -42.9" />
<path style="fill:none;stroke-width:1;stroke-linecap:butt;stroke-linejoin:miter;stroke-miterlimit:3;stroke:#585454;stroke-opacity:1" d="M4.7,-70.9Q4.5 -74.45 4.65 -75.15L2.2 -75.5L1.45 -75.6L0.95 -75.65L-1.7 -75.95Q-2.25 -75.95 -2.15 -78.45L-2.05 -82.15L-0.65 -82.6L-0.55 -82.65L1.25 -83.15L4.65 -83.5Q5.3 -83.6 5.3 -84.65L5.25 -86.4Q5.6 -87.1 6.45 -87.25L7.95 -87.25Q8.15 -86.4 7.75 -83.9Q10.5 -83.5 14.8 -81.35L18.7 -79.05Q19.5 -78.45 19.5 -78.05Q19.5 -75.45 18.85 -74.6Q18.4 -74 17.3 -74L16.8 -74.05L14.65 -74.4L13.2 -74.65Q10.5 -75 7.95 -74.65L7.75 -70.55M18.85,-60.3Q18.75 -57.15 18.95 -54.55L19 -54.25L19.2 -49.85Q21.45 -49.2 21.45 -46.1Q21.45 -40.85 20.5 -37L20.45 -36.8L18.95 -32.25L17.4 -28.25Q16.55 -26.15 12.25 -25.6L4.85 -25.15Q3 -25 0.2 -23.8Q-2.7 -22.55 -5.55 -20.6Q-7.75 -19.15 -10.45 -18.9L-13.9 -18.95L-19.1 -19.2L-22.05 -19.7L-22.35 -19.65L-31.5 -18.85Q-35.5 -18.85 -35.95 -24.65L-36.15 -30.05Q-36.2 -33.45 -36.75 -35.5L-37.9 -45.95L-38.2 -49.05L-38.5 -52.9L-38.8 -57.75L-38.8 -58Q-38.7 -60.75 -36.2 -61.5Q-32.45 -62.1 -30.15 -63.15Q-20.7 -65.4 -19.25 -65.4Q-18.1 -65.4 -15.9 -59.85L-14.55 -56.2Q-12.75 -50.95 -10.4 -42.7L-8.9 -42.65L-6.7 -43L-6.65 -43L-6.35 -43.35L-6.35 -46.35Q-6.35 -49.1 -5.1 -50.1L-5 -50.2L-4.3 -50.6L-4.15 -50.65L-4.05 -55.5L-4.15 -61.15M8.2,-80.9L8.1 -78.1L8.15 -77.2L8.8 -77.1L11.75 -76.85L12.1 -76.85L12.45 -80L10.1 -80.7L8.2 -80.9M1.25,-81.05L-0.2 -81.2L-0.3 -77.6L1.25 -77.25L2.3 -77.1L3.55 -76.95L3.85 -76.95L3.85 -78.55Q3.75 -79.25 3.8 -80.2Q3.75 -80.8 2.85 -80.85L1.25 -81.05M14.25,-78.9L14.15 -77.95L14.05 -77.2Q14.05 -76.2 14.9 -76.15L17.15 -75.8Q17.5 -76.5 17.5 -77.75L16.2 -78.5L14.45 -79.3L14.25 -78.9M1.35,-50.95L5.65 -50.75L12 -50.35L18.8 -49.95L19.2 -49.85M1.35,-50.95L-1.2 -51.05L-4.15 -50.65M5.65,-55.75L5.45 -54.45L10.45 -53.75Q14 -53.4 15.9 -53.8L19 -54.25M5.7,-60.85L5.65 -57.2L5.65 -55.85M7.95,-44Q7.95 -43.4 7.5 -43.3L6.55 -43.3Q4.4 -43.3 4.7 -43.6Q4.7 -45.15 4.85 -45.7Q5.2 -47.15 6.4 -47.15Q7.25 -47.15 7.65 -45.9L7.95 -44M1.65,-45.05L1.65 -43.7L-2.35 -43.85L-2.2 -46.25Q-1.9 -47.65 -0.45 -47.65Q0.55 -47.65 0.95 -47.1L1.65 -45.05M-20.1,-41L-20.4 -40.3Q-21.05 -38.55 -21.75 -34.55L-22.65 -27.55L-23.1 -21.35L-23.1 -20.35L-23.1 -19.9L-22.05 -19.7M-18.3,-59.05L-16.25 -59.7M-20.1,-41L-19.8 -41.55Q-18.65 -43 -14.3 -43L-13.1 -42.9L-10.4 -42.7M-14.85,-56.1L-17.05 -55.4L-38.2 -49.05M-18.3,-59.05L-38.5 -52.9" />
<path style="fill:none;stroke-width:1;stroke-linecap:butt;stroke-linejoin:miter;stroke-miterlimit:3;stroke:#91491A;stroke-opacity:1" d="M-4.15,-61.15Q-5.9 -61.35 -5.9 -61.7L-5.9 -62.85Q-6 -66.1 -5.35 -67.95Q-4.75 -69.65 -3.6 -70.3L3.1 -70.95L4.7 -70.9L7.75 -70.55L8.6 -70.45Q11.35 -70.05 14.75 -70.35Q18.3 -70.65 19.85 -67.8Q20.95 -65.8 20.95 -63.25Q20.95 -60.7 20.55 -60.45L19.1 -60.3L18.85 -60.3L17.05 -60.35L12 -60.65L5.7 -60.85Q2.2 -60.8 -0.6 -60.9L-4.15 -61.15z" />
<path style="fill:#9E9EBF;fill-opacity:1" d="M13.95,-27.95L15.9 -35.3Q16.3 -37.05 17.25 -38.35L19.95 -38.65L27.95 -38.1L45.5 -37.55L45.7 -37.55L43.45 -34.35L40 -29.8Q37.85 -26.95 27.5 -26.25L18.55 -25.85Q14.05 -25.85 13.5 -26.9L13.7 -27.05L13.95 -27.95" />
<path style="fill:#ECECF7;fill-opacity:1" d="M45.5,-37.55L27.95 -38.1L19.95 -38.65L17.25 -38.35L17.9 -39.2Q19.65 -41.1 22.05 -41.25L28.75 -41.05L34.3 -40.7Q46.2 -41.2 46.3 -39.15Q46.35 -38.7 45.7 -37.55L45.5 -37.55" />
<path style="fill:none;stroke-width:1;stroke-linecap:butt;stroke-linejoin:miter;stroke-miterlimit:3;stroke:#585454;stroke-opacity:1" d="M17.25,-38.35L17.9 -39.2Q19.65 -41.1 22.05 -41.25L28.75 -41.05L34.3 -40.7Q46.2 -41.2 46.3 -39.15Q46.35 -38.7 45.7 -37.55L43.45 -34.35L40 -29.8Q37.85 -26.95 27.5 -26.25L18.55 -25.85Q14.05 -25.85 13.5 -26.9L13.4 -27.2L13.95 -27.95L15.9 -35.3Q16.3 -37.05 17.25 -38.35M13.7,-27.05L13.95 -27.95" />
<path style="fill:#C3C3E2;fill-opacity:1" d="M-46.45,-4.5L-46.5 -4.65L-48.75 -12.1L-41.3 -12.1L-33.1 -11.45L-27.2 -11.2L-21 -11.95L-14.4 -12.75L-10 -12.1L-5.8 -11.45L-1.9 -12.1L1.1 -12.75L6.45 -12.1L11.7 -11.45Q15.65 -11.45 19.65 -13Q23.3 -14.45 25.15 -16.45Q26.85 -18.25 31.6 -18.3Q37.3 -18.35 40.45 -19.95Q43.35 -21.4 46.75 -24.7L49.95 -27.85L49.85 -26.95Q49.85 -26.15 50.3 -25.65Q50.75 -25.2 51.45 -25.2Q53.3 -25.2 54.2 -26.95Q54.85 -28.2 54.85 -29.7Q54.85 -31.1 54.45 -31.55L54.05 -31.8Q55.05 -32.65 55.95 -33.15L59.25 -34.8Q60.85 -35.65 64 -35.8L62.5 -32.5L59.45 -26.95L56.6 -20.4Q54.75 -16.35 51.8 -13.2L50.45 -11Q7 -3.4 -46.45 -4.65L-46.45 -4.5" />
<path style="fill:#C65E5E;fill-opacity:1" d="M48.15,-7.9Q43.95 -2.7 38.8 0.4Q31.25 4.95 22.15 5Q13.05 5.05 10.9 5.2L2.4 5.4L-9.05 5.4Q-33 5 -38.9 3.45Q-42.8 2.45 -45.35 -2.2Q10.3 -0.45 48.15 -7.9" />
<path style="fill:#E8E8F3;fill-opacity:1" d="M-45.35,-2.2L-46.45 -4.5L-46.45 -4.65Q7 -3.4 50.45 -11L48.15 -7.9Q10.3 -0.45 -45.35 -2.2" />
<path style="fill:#8D8DB1;fill-opacity:1" d="M-50.05,-16.85L-50.05 -16.9L-50 -17.75Q-49.4 -20.6 -40.45 -20.6Q-32.15 -20.6 -27 -19.5Q-21.85 -18.4 -17.05 -18.4L-11.9 -18.7Q-7.6 -19.1 -6.75 -19.95L-1.3 -24.6Q1.55 -26.6 3.95 -26.75L15.75 -27.4L25.35 -28.05Q30.55 -28.5 34 -29.5Q38.65 -30.85 41.55 -33.5Q48.05 -39.5 51.4 -40.95Q54 -42.05 59.8 -42.05L62.9 -42Q64.65 -41.9 65.35 -41.4L65.35 -40.3L64 -35.8Q60.85 -35.65 59.25 -34.8L55.95 -33.15Q55.05 -32.65 54.05 -31.8L52.9 -32L52.65 -31.9L52.05 -31.45L51.3 -30.75L51 -30.4L50.8 -30.1Q50.1 -29 49.95 -27.85L46.75 -24.7Q43.35 -21.4 40.45 -19.95Q37.3 -18.35 31.6 -18.3Q26.85 -18.25 25.15 -16.45Q23.3 -14.45 19.65 -13Q15.65 -11.45 11.7 -11.45L6.45 -12.1L1.1 -12.75L-1.9 -12.1L-5.8 -11.45L-10 -12.1L-14.4 -12.75L-21 -11.95L-27.2 -11.2L-33.1 -11.45L-41.3 -12.1L-48.75 -12.1L-50.05 -16.65L-50.05 -16.85" />
<path style="fill:#676783;fill-opacity:1" d="M54.45,-31.55Q54.85 -31.1 54.85 -29.7Q54.85 -28.2 54.2 -26.95Q53.3 -25.2 51.45 -25.2Q50.75 -25.2 50.3 -25.65Q49.85 -26.15 49.85 -26.95L49.95 -27.85Q50.1 -29 50.8 -30.1L51 -30.4L51.3 -30.75L52.05 -31.45L52.65 -31.9L52.9 -32L54.05 -31.8L54.45 -31.55" />
<path style="fill:none;stroke-width:1;stroke-linecap:butt;stroke-linejoin:miter;stroke-miterlimit:3;stroke:#585454;stroke-opacity:1" d="M64,-35.8L65.35 -40.3L65.35 -41.4Q64.65 -41.9 62.9 -42L59.8 -42.05Q54 -42.05 51.4 -40.95Q48.05 -39.5 41.55 -33.5Q38.65 -30.85 34 -29.5Q30.55 -28.5 25.35 -28.05L15.75 -27.4L3.95 -26.75Q1.55 -26.6 -1.3 -24.6L-6.75 -19.95Q-7.6 -19.1 -11.9 -18.7L-17.05 -18.4Q-21.85 -18.4 -27 -19.5Q-32.15 -20.6 -40.45 -20.6Q-49.4 -20.6 -50 -17.75L-50.05 -17.35L-50.05 -16.9L-50.05 -16.85Q-49.85 -16.4 -48.95 -16.25M49.95,-27.85Q50.1 -29 50.8 -30.1L51 -30.4L51.3 -30.75L52.05 -31.45L52.65 -31.9L52.9 -32L54.05 -31.8M64,-35.8L62.5 -32.5L59.45 -26.95L56.6 -20.4Q54.75 -16.35 51.8 -13.2L50.45 -11L48.15 -7.9Q43.95 -2.7 38.8 0.4Q31.25 4.95 22.15 5Q13.05 5.05 10.9 5.2L2.4 5.4L-9.05 5.4Q-33 5 -38.9 3.45Q-42.8 2.45 -45.35 -2.2L-46.45 -4.5L-46.5 -4.65L-48.75 -12.1L-50.05 -16.65L-50.05 -16.85M49.95,-27.85L49.85 -26.95Q49.85 -26.15 50.3 -25.65Q50.75 -25.2 51.45 -25.2Q53.3 -25.2 54.2 -26.95Q54.85 -28.2 54.85 -29.7Q54.85 -31.1 54.45 -31.55L54.05 -31.8M-50.05,-17.35L-50.05 -17.75L-50 -17.75" />
<path style="fill:#DE7D3D;fill-opacity:1" d="M-53.45,-20.25L-50.45 -20L-44.35 -19.5L-18.6 -20.15L-11.15 -20.4Q-9.4 -20.35 -8.95 -22.1L-8.8 -23Q-7.25 -23.15 -6.3 -24.1L-3.95 -26.95L-2.85 -27.9L-2.25 -27.5Q-1.2 -26.95 0.65 -26.95L6.9 -27.9L11.6 -28.5L14.1 -28.25L19.3 -27.95L24.35 -27.95L31.8 -27.4Q34.4 -27.4 34.8 -29.1L34.9 -31.15L36.05 -31.75Q38.35 -33.15 40.45 -36.35Q42.75 -39.95 43.7 -40.7L44.65 -41.4L65.25 -42.9Q66.95 -42.9 67.65 -41.25Q68.05 -39.9 68.6 -38.5L63.6 -38.15L56.85 -37.9Q49.45 -36.1 45.9 -32.2L42.55 -27.8Q40.15 -24.95 37.6 -24.35L24.85 -23.45L24.3 -23.45L24.15 -23.45L18.75 -23.75L12.15 -24.1L5.45 -24.1Q3.55 -24.15 2.2 -23L0.45 -21.05L-4.1 -16.6Q-6.65 -14.7 -9.4 -14.7L-16.3 -15L-23.35 -15.35L-35.6 -14.95L-40.1 -15.2Q-44.8 -15.4 -47.2 -15.15Q-50.85 -14.75 -52.5 -16.35Q-53.95 -17.75 -53.6 -20.3L-53.2 -22.5L-53.45 -20.25" />
<path style="fill:#F3B288;fill-opacity:1" d="M44.65,-41.4Q46.8 -42.85 49.6 -43.65L55.3 -44.65L61.35 -45.15L67.1 -45.55Q69.2 -45.55 69.3 -44.5Q69.55 -41.5 69.75 -40.95L69.75 -38.95L68.6 -38.5Q68.05 -39.9 67.65 -41.25Q66.95 -42.9 65.25 -42.9L44.65 -41.4M-53.2,-22.5L-35.3 -22.65L-19.05 -23Q-13.3 -23.2 -9.85 -23L-8.8 -23L-8.95 -22.1Q-9.4 -20.35 -11.15 -20.4L-18.6 -20.15L-44.35 -19.5L-50.45 -20L-53.45 -20.25L-53.2 -22.5M-2.85,-27.9Q-0.6 -29.5 3.2 -30.05L11.8 -30.45L15.15 -30.35L24.25 -30L24.5 -29.95Q28.15 -29.75 30.25 -30Q32.95 -30.3 34.9 -31.15L34.8 -29.1Q34.4 -27.4 31.8 -27.4L24.35 -27.95L19.3 -27.95L14.1 -28.25L11.6 -28.5L6.9 -27.9L0.65 -26.95Q-1.2 -26.95 -2.25 -27.5L-2.85 -27.9" />
<path style="fill:none;stroke-width:1;stroke-linecap:butt;stroke-linejoin:miter;stroke-miterlimit:3;stroke:#91491A;stroke-opacity:1" d="M34.9,-31.15L36.05 -31.75Q38.35 -33.15 40.45 -36.35Q42.75 -39.95 43.7 -40.7L44.65 -41.4Q46.8 -42.85 49.6 -43.65L55.3 -44.65L61.35 -45.15L67.1 -45.55Q69.2 -45.55 69.3 -44.5Q69.55 -41.5 69.75 -40.95L69.75 -38.95L68.6 -38.5L63.6 -38.15L56.85 -37.9Q49.45 -36.1 45.9 -32.2L42.55 -27.8Q40.15 -24.95 37.6 -24.35L24.85 -23.45L24.3 -23.45L24.15 -23.45L18.75 -23.75L12.15 -24.1L5.45 -24.1Q3.55 -24.15 2.2 -23L0.45 -21.05L-4.1 -16.6Q-6.65 -14.7 -9.4 -14.7L-16.3 -15L-23.35 -15.35L-35.6 -14.95L-40.1 -15.2Q-44.8 -15.4 -47.2 -15.15Q-50.85 -14.75 -52.5 -16.35Q-53.95 -17.75 -53.6 -20.3L-53.2 -22.5L-35.3 -22.65L-19.05 -23Q-13.3 -23.2 -9.85 -23L-8.8 -23Q-7.25 -23.15 -6.3 -24.1L-3.95 -26.95L-2.85 -27.9Q-0.6 -29.5 3.2 -30.05L11.8 -30.45L15.15 -30.35L24.25 -30L24.5 -29.95Q28.15 -29.75 30.25 -30Q32.95 -30.3 34.9 -31.15z" />
</g>
</svg>
