<?xml version="1.0" encoding="utf-8"?>
<svg version="1.1" id="Layer_1"
xmlns="http://www.w3.org/2000/svg"
xmlns:xlink="http://www.w3.org/1999/xlink"
xmlns:author="http://www.sothink.com"
width="31px" height="31px"
xml:space="preserve">
<g id="284" transform="matrix(1, 0, 0, 1, 15.2, 15.2)">
<path style="fill:#66CC00;fill-opacity:1" d="M2.8,-2.95L2.7 -3.15L2.7 -5.95Q2.7 -6.45 2.2 -6.45L-1.95 -6.45Q-2.45 -6.45 -2.45 -5.95L-2.45 -3.15L-2.6 -2.95L-2.8 -2.8L-5.8 -2.8Q-6.3 -2.8 -6.3 -2.3L-6.3 1.85Q-6.3 2.35 -5.8 2.35L-2.8 2.35Q-2.65 2.35 -2.6 2.45L-2.45 2.7L-2.45 5.85Q-2.45 6.4 -1.95 6.4L2.2 6.4Q2.7 6.4 2.7 5.85L2.7 2.7L2.8 2.45L3.05 2.35L6 2.35Q6.55 2.35 6.55 1.85L6.55 -2.3Q6.55 -2.8 6 -2.8L3.05 -2.8L2.8 -2.95M3.4,-3.5L6 -3.5Q7.2 -3.5 7.2 -2.3L7.2 1.85Q7.2 3.05 6 3.05L3.4 3.05L3.4 5.85Q3.4 7.05 2.2 7.05L-1.95 7.05Q-3.15 7.05 -3.15 5.85L-3.15 3.05L-5.8 3.05Q-6.95 3.05 -6.95 1.85L-6.95 -2.3Q-6.95 -3.5 -5.8 -3.5L-3.15 -3.5L-3.15 -5.95Q-3.15 -7.1 -1.95 -7.1L2.2 -7.1Q3.4 -7.1 3.4 -5.95L3.4 -3.5M15.2,-11.15L15.2 11.1Q15.2 15.15 11.1 15.15L-11.15 15.15Q-15.2 15.15 -15.2 11.1L-15.2 -11.15Q-15.2 -15.2 -11.15 -15.2L11.1 -15.2Q15.2 -15.2 15.2 -11.15M11.1,-14.2L-11.15 -14.2Q-14.2 -14.2 -14.2 -11.15L-14.2 11.1Q-14.2 14.15 -11.15 14.15L11.1 14.15Q14.2 14.15 14.2 11.1L14.2 -11.15Q14.2 -14.2 11.1 -14.2" />
<path style="fill:#61B110;fill-opacity:1" d="M3.05,-2.8L6 -2.8Q6.55 -2.8 6.55 -2.3L6.55 1.85Q6.55 2.35 6 2.35L3.05 2.35L2.8 2.45L2.7 2.7L2.7 5.85Q2.7 6.4 2.2 6.4L-1.95 6.4Q-2.45 6.4 -2.45 5.85L-2.45 2.7L-2.6 2.45Q-2.65 2.35 -2.8 2.35L-5.8 2.35Q-6.3 2.35 -6.3 1.85L-6.3 -2.3Q-6.3 -2.8 -5.8 -2.8L-2.8 -2.8L-2.6 -2.95L-2.45 -3.15L-2.45 -5.95Q-2.45 -6.45 -1.95 -6.45L2.2 -6.45Q2.7 -6.45 2.7 -5.95L2.7 -3.15L2.8 -2.95L3.05 -2.8" />
<path style="fill:#61B110;fill-opacity:0.521569" d="M3.4,-5.95Q3.4 -7.1 2.2 -7.1L-1.95 -7.1Q-3.15 -7.1 -3.15 -5.95L-3.15 -3.5L-5.8 -3.5Q-6.95 -3.5 -6.95 -2.3L-6.95 1.85Q-6.95 3.05 -5.8 3.05L-3.15 3.05L-3.15 5.85Q-3.15 7.05 -1.95 7.05L2.2 7.05Q3.4 7.05 3.4 5.85L3.4 3.05L6 3.05Q7.2 3.05 7.2 1.85L7.2 -2.3Q7.2 -3.5 6 -3.5L3.4 -3.5L3.4 -5.95M14.2,-11.15L14.2 11.1Q14.2 14.15 11.1 14.15L-11.15 14.15Q-14.2 14.15 -14.2 11.1L-14.2 -11.15Q-14.2 -14.2 -11.15 -14.2L11.1 -14.2Q14.2 -14.2 14.2 -11.15" />
</g>
</svg>
