<?xml version="1.0" encoding="utf-8"?>
<svg version="1.1" id="Layer_1"
xmlns="http://www.w3.org/2000/svg"
xmlns:xlink="http://www.w3.org/1999/xlink"
xmlns:author="http://www.sothink.com"
width="204px" height="165px"
xml:space="preserve">
<g id="339" transform="matrix(1, 0, 0, 1, 15.6, -407.5)">
<path style="fill:#000000;fill-opacity:0.2" d="M26.15,544.8Q52.25 540.1 89.35 540.1Q126.35 540.1 152.5 544.8Q178.6 549.45 178.6 556.1Q178.6 562.75 152.5 567.4Q126.35 572.05 89.35 572.05Q52.25 572.05 26.15 567.4Q0 562.75 0 556.1Q0 549.45 26.15 544.8" />
<path style="fill:#FC850F;fill-opacity:1" d="M165.55,437.2Q167.35 431.65 169.95 431.05Q172.55 430.45 173.4 433.8Q173.85 435.45 173.75 437.25Q176.5 434.7 179.15 436.45Q181.3 437.85 180.05 441.1Q179.45 442.75 178.4 444.1Q180 444.15 181.5 445.85Q183.35 447.8 182.5 450.25Q181.7 452.55 175.25 453.15L168.9 453.35Q161.3 465.75 151.25 478.15Q138.55 487.7 131.3 498.15L135.35 499.9Q140.25 502.25 144.35 505.15Q157.5 514.35 157.95 525.55Q158.4 536.75 153.4 546.35Q150.85 551.15 148.25 553.7L173.6 552.1Q172.6 549.55 171.9 546.55Q170.55 540.5 172.3 538.05Q173.9 535.75 177 537.35L180.3 536.8Q183.8 536.55 185.1 538.1Q186.4 539.65 186.1 541.8L185.6 543.65L182.8 544.85L182.65 544.4Q182.4 543.85 181.55 543.6L179.7 543.65Q178.4 544.1 178 545.25L177.45 547L177.2 548.8L177.1 550.65L177.6 554.2Q178.5 557.7 180.6 557.7L181.1 557.6Q182 556.95 182.55 555.9Q182 557.65 181 558.25Q178.9 559.5 161.2 559.15L143.9 558.5Q91.3 566.15 47.4 560.3Q3.5 564.05 0.85 562.6Q-0.8 561.7 -1.05 556.45L-0.95 552.3L-0.75 552.5Q-0.55 553 -0.75 554L-0.75 558.2L-0.1 560.3Q0.6 561.95 1.95 561.95Q3.7 561.95 4.75 560.25Q5.75 558.65 5.75 556.3Q5.75 554.65 5.35 553.05L4.55 549.65Q4.1 548.65 3.15 547.95L0.45 547.85Q-1.25 548.95 -1.25 551.05L-1.2 551.4L-3.25 551.2Q-5.75 550.55 -6.6 548.25Q-7.45 545.95 -5.8 544L-3.95 542.5L-3.9 541.95L-6.9 539.7Q-10.2 537 -11.55 534.55L-12.1 533.5L-12.05 533.55L-11.65 533.6L-11.5 533.5L-11.6 533.8L-11.55 534.05L-11.15 534.1L-10.7 533.4L-10.05 532.75L-8.85 531.3L-7.95 529.8L-6.95 528.15L-7.7 528.55L-8.15 529.15L-9 529.65L-9.55 530.2L-11.05 531.5L-12.35 532.9Q-15 526.85 -12 522.15Q-10.65 520 -8.75 519.7Q-6.7 519.4 -5.15 521.4Q5.85 535.45 13.75 541.1Q21.45 546.7 31.75 548.2Q28.95 542.85 27.75 533.95Q26.1 521.55 29.95 513.8Q32.55 508.6 38.3 502.85L43.55 498.15Q36.3 487.7 23.6 478.15Q13.55 465.75 5.95 453.35L-0.4 453.15Q-6.85 452.55 -7.65 450.25Q-8.5 447.8 -6.65 445.85Q-5.15 444.15 -3.55 444.1Q-4.6 442.75 -5.2 441.1Q-6.45 437.85 -4.3 436.45Q-1.65 434.7 1.1 437.25Q1 435.45 1.45 433.8Q2.3 430.45 4.9 431.05Q7.5 431.65 9.3 437.2L10.3 440.85L9.5 440.75Q7.45 440.65 4.55 441.8Q3.2 443.45 2.95 444.2L2.85 446.35Q2.85 448.55 3.2 449.2Q4.05 450.75 7.45 451.8L10.15 451.8Q12.15 451.1 13.4 449.75Q14.5 448.45 14.5 447.15L14.35 446.2L13.95 444.95L13.45 443.8L12.55 442.7Q12.05 441.6 11 441.1Q11.45 439.75 12.15 438.55Q14.45 434.7 17.65 436Q21.65 437.6 19.3 442.55Q18.15 445.05 16.15 447.2L40.35 481.45L38.2 471.75L40.5 470.75Q35.6 467 33.6 461.25L41 463.6Q36.2 458.85 34.35 453.1L40.75 456.15Q38.65 453.6 38.45 447.2L44.85 450L46.9 445.9Q45.35 438.1 44.7 430.1Q43.4 414.05 47.9 412.9Q52.4 411.75 62 423.6Q66.8 429.5 70.7 435.65Q72.15 434.45 74.1 433.2Q78 430.65 80.45 430.3Q82.55 430 85.55 432Q88.55 434.05 89.65 433.9Q90.8 433.75 95.25 431.9Q99.4 430.2 100.65 430.3Q102.1 430.45 105.25 432.55L108.05 434.65Q111.95 427.95 116.7 421.4Q126.15 408.25 130.35 409.05Q134.55 409.85 133.35 430.5Q132.8 440.85 131.35 451.05L138.3 449Q136.7 454.85 131.9 458.7L137.25 458.7L135.2 462.05L139.55 464.1L134.45 470.5L136.25 473.3L134.55 478.5L132.8 477.55L132.45 477.35L131.1 477.2Q130.85 477.25 130.85 477.6Q130.85 477.85 131.9 478.4Q133 478.95 133.65 478.95L134.45 478.8L132.65 484.05L158.7 447.2Q156.7 445.05 155.55 442.55Q153.2 437.6 157.2 436Q160.4 434.7 162.7 438.55Q163.75 440.4 164.3 442.45L163.6 443.05L162.25 444.65Q161.95 445.25 161.95 446.2Q161.95 448.1 163.15 449.25L164.6 450.75Q165.5 451.6 167.1 452.05L170 452.05Q172.15 450.95 173 449.7Q173.65 448.7 173.65 447.15Q173.65 445.55 172.9 444Q171.45 441.2 169.85 441.2Q167.15 441.05 166.6 441.25L165.55 441.75L164.35 442.4Q164.7 439.85 165.55 437.2M122.6,444.3L124.85 442.85L127.1 448.8Q128.25 440.7 129 432.5Q130.45 416.1 128.35 415.6Q126.25 415.1 119.65 426.1Q116.4 431.6 113.5 437.2L115.65 438.55L119.7 436.3L118.1 442.85L123 438.35L122.6 444.3M78.55,467.35Q79.4 468.6 80.7 469.55Q84.8 472.65 91.65 472.1Q99.6 471.5 105.4 466.3Q111 461.3 109.3 457.15Q107.75 453.35 102.5 451.45L101.3 451.05Q101.8 449.25 101.45 447.25Q100.8 443.25 96.7 442.15Q91.95 440.85 89.15 444.05Q87.7 445.65 87.25 447.5Q86.75 446.1 86.25 445.45Q84.6 443.35 82.4 442.55Q78.9 441.25 74.95 443.8Q70.25 446.85 70.85 454.1Q71.2 457.75 72.45 460.75Q75.5 463.25 77.95 466.35L78.55 467.35M132.5,474Q130.15 472.95 129.2 473.05L129.8 474.05L134.05 476.3L134.6 476.1L134.85 475.6Q134.85 475.05 132.5 474M126.35,480.8Q127.5 482.65 130.7 484.35L131.45 484.35Q131.7 484.35 131.55 484L132.1 483.55Q128.4 481.05 126.6 480.7L126.35 480.8M127.8,484.7Q127.7 484.6 126.4 483.95Q124.95 483.2 124.7 483.2Q124.5 483.2 124.35 483.35Q123.85 484.5 129.35 486.95Q129.55 486.5 130.35 486.55L130.45 486.35Q130.45 486.1 129.2 485.4L127.8 484.7M124.75,488.55L127.45 490.15L127.85 490.15L127.95 489.9L127.5 489.5L127.7 489.45L127.75 489.5L128.15 489.75L128.95 489.95L129.15 489.9L129.2 489.45Q129.2 488.8 127 487.75Q125 486.8 123.45 486.45Q123.1 486.5 123.1 486.85Q123.1 487.5 124.75 488.55M58.9,442.45L59.3 438.75L63 440.6Q64.6 438.15 67.7 438.55L59.75 427.9Q51.45 417.55 49.7 418.9Q47.95 420.3 49.7 433.35Q50.55 439.85 51.75 446.1L55.85 441.2L58.9 442.45M44.35,478.55L44.2 478.45Q42.7 478.45 41.45 479.1Q40.35 479.65 40.35 480.15L40.45 480.65L41.2 480.8L43 480Q44.4 479.5 44.95 479.35Q46.3 481 48.05 481.95Q50.3 483.1 53.15 482.95Q55.55 482.85 58.7 480.35L61.4 477.9Q58.4 476.3 56.65 474.35L56.35 473.95L56.35 473.9L56.25 473.5L56.05 473.45Q55.2 471.65 55.3 467.95L50.7 467.8L48.05 468.15Q45.35 468.7 44.35 470.05Q43.25 471.55 42.95 473.05L42.8 472.9L42.35 472.55L39.35 472.55Q39.2 472.7 39.2 473.15Q39.2 473.55 39.55 473.9L42.7 473.85L42.85 473.75Q42.6 476.1 44.35 478.55M40.2,477.75L40.7 477.85L42.7 477.3L42.85 477.05L42.6 476.7Q42 476.6 41.05 477Q40.15 477.35 40.15 477.6L40.2 477.75M41.9,482.4Q41.7 482.5 41.7 483.1L41.8 483.65L42.35 483.65L44.75 482.45L46.45 481.25L46.2 480.85Q44.35 481.05 43.25 481.7L41.9 482.4M48,483.8L46.2 484.45Q46 484.45 45.15 484.95Q44.2 485.55 44.2 485.85L44.4 486.2Q44.25 486.35 44.45 486.55L44.7 486.65L44.8 487.15L45.45 487.1L47.7 485.7Q49.85 484.3 49.85 483.8L49.75 483.5L48 483.8M48.15,490.9Q47.7 491.25 47.7 491.95L47.8 492.3L48.3 492.35Q49.8 491.9 51.4 490.75L53.6 489.2L53.35 488.95L51.6 489.4L49.8 490.15Q48.55 490.6 48.15 490.9M64.55,492.8L65.45 492.7L68.15 491.95L69.25 491.2L69.15 491L68.45 490.95L67.7 491L65.1 491.05L61.5 490.45L60.25 490.5Q60.25 491.1 61.45 491.9Q62.85 492.8 64.55 492.8M23.85,555.65L24.45 555.65L24.7 554.35Q24.7 552.8 24.25 552.35Q23.95 552.6 23.75 553.35L23.6 554.3L23.85 555.65M20.25,551.15L20.25 550.65Q20.2 550.35 19.85 550.3Q19.5 550.55 18.9 552.5Q18.3 554.4 18.3 555.2L18.35 555.35L18.6 555.4L19.6 555.7L20.2 553.75L20.25 552.05L20.25 551.15M28.6,551Q28.1 551.2 28.1 551.5L28.15 551.95L28.05 552.45L28.1 553.25Q28.1 554.6 28.35 555.55L28.85 556.15L29.1 556.2L29.25 556.2L29.45 556.3Q29.7 556.3 29.75 556.15L29.75 555.4L29.25 552.5L28.9 551.85L28.6 551M10.4,552.15L10 555.75L19.9 556.15Q15.35 555.3 12 553.25L13.25 550.1L14 547.5L13.9 547.25Q13.25 547.25 12.75 548.1L12.1 549.3L11.15 551.75L11 552.5L11.05 552.6L10.4 552.15M11.3,552.8L11.6 552.8L11.6 553L11.3 552.8M-3.3,535.9L-2.5 534.65L-2.6 534.3Q-3.2 534.4 -5.05 536.4L-6.2 537.35Q-7.05 538.1 -7.05 538.6L-6.5 539.2L-6.15 539.2L-4.8 538.2L-3.95 537.05L-3.3 535.9" />
<path style="fill:#E66006;fill-opacity:1" d="M164.35,442.4L165.55 441.75L166.6 441.25Q167.15 441.05 169.85 441.2Q171.45 441.2 172.9 444Q173.65 445.55 173.65 447.15Q173.65 448.7 173 449.7Q172.15 450.95 170 452.05L167.1 452.05Q165.5 451.6 164.6 450.75L163.15 449.25Q161.95 448.1 161.95 446.2Q161.95 445.25 162.25 444.65L163.6 443.05L164.3 442.45L164.35 442.4M11,441.1Q12.05 441.6 12.55 442.7L13.45 443.8L13.95 444.95L14.35 446.2L14.5 447.15Q14.5 448.45 13.4 449.75Q12.15 451.1 10.15 451.8L7.45 451.8Q4.05 450.75 3.2 449.2Q2.85 448.55 2.85 446.35L2.95 444.2Q3.2 443.45 4.55 441.8Q7.45 440.65 9.5 440.75L10.3 440.85L11 441.1M-1.2,551.4L-1.25 551.05Q-1.25 548.95 0.45 547.85L3.15 547.95Q4.1 548.65 4.55 549.65L5.35 553.05Q5.75 554.65 5.75 556.3Q5.75 558.65 4.75 560.25Q3.7 561.95 1.95 561.95Q0.6 561.95 -0.1 560.3L-0.75 558.2L-0.75 554Q-0.55 553 -0.75 552.5L-0.95 552.3L-1.15 552.1L-1.2 551.4M182.55,555.9Q182 556.95 181.1 557.6L180.6 557.7Q178.5 557.7 177.6 554.2L177.1 550.65L177.2 548.8L177.45 547L178 545.25Q178.4 544.1 179.7 543.65L181.55 543.6Q182.4 543.85 182.65 544.4L182.8 544.85L183.2 546.25L183.45 549.9L183.2 553.85L182.55 555.9M182.7,546.7L182.95 549.65L182.85 546.9L182.7 546.7M123,438.35L118.1 442.85L119.7 436.3L115.65 438.55L113.5 437.2Q116.4 431.6 119.65 426.1Q126.25 415.1 128.35 415.6Q130.45 416.1 129 432.5Q128.25 440.7 127.1 448.8L124.85 442.85L122.6 444.3L123 438.35M55.85,441.2L51.75 446.1Q50.55 439.85 49.7 433.35Q47.95 420.3 49.7 418.9Q51.45 417.55 59.75 427.9L67.7 438.55Q64.6 438.15 63 440.6L59.3 438.75L58.9 442.45L55.85 441.2M10.55,442.6L10.8 441.75L10.4 441.55L10.55 442.6" />
<path style="fill:#FFFFFF;fill-opacity:1" d="M93.65,450.75L93.75 450.65L94.4 449.8L94.7 448.8Q94.7 446.5 92.7 446.8Q91.3 447 90.9 448L90.7 448.15Q90.45 448.45 90.45 449.15L90.6 449.95L91.4 450.6L92.5 451Q90.6 451.45 88.6 452.25L88.55 452.3Q80.55 455.5 78.45 461.25Q77.4 464.15 77.95 466.35Q75.5 463.25 72.45 460.75Q71.2 457.75 70.85 454.1Q70.25 446.85 74.95 443.8Q78.9 441.25 82.4 442.55Q84.6 443.35 86.25 445.45Q86.75 446.1 87.25 447.5Q87.7 445.65 89.15 444.05Q91.95 440.85 96.7 442.15Q100.8 443.25 101.45 447.25Q101.8 449.25 101.3 451.05L93.65 450.75M82.9,450.9Q82.35 449.05 80.45 449.05L79.6 449.05L79.45 449.1L79 449.4L78.45 450.05Q78.1 450.5 78.1 451.5Q78.1 452.9 78.75 453.5Q79.4 454.1 80.95 454.1Q82.1 454.1 82.75 452.6L82.9 450.9" />
<path style="fill:#FF6D6B;fill-opacity:1" d="M93.35,451.1L93.65 450.75L101.3 451.05L102.5 451.45Q107.75 453.35 109.3 457.15Q111 461.3 105.4 466.3Q99.6 471.5 91.65 472.1Q84.8 472.65 80.7 469.55Q79.4 468.6 78.55 467.35L77.95 466.35Q77.4 464.15 78.45 461.25Q80.55 455.5 88.55 452.3L88.6 452.25Q90.6 451.45 92.5 451L93.35 451.1" />
<path style="fill:#FF2E28;fill-opacity:1" d="M44.35,478.55Q42.6 476.1 42.85 473.75L43.1 473.45L42.95 473.05Q43.25 471.55 44.35 470.05Q45.35 468.7 48.05 468.15L50.7 467.8L55.3 467.95Q55.2 471.65 56.05 473.45L55.75 473.3L55.55 473.15Q55.7 471.45 52.05 473.5Q48.4 475.6 48.4 476.5L48.45 476.8L48.7 476.8L51.1 475.1Q53.05 474 55.9 473.95L55.95 474.05L56.35 473.95L56.65 474.35Q58.4 476.3 61.4 477.9L58.7 480.35Q55.55 482.85 53.15 482.95Q50.3 483.1 48.05 481.95Q46.3 481 44.95 479.35L45.2 479.2L45.35 478.95L45.25 478.75L44.45 478.65L44.35 478.55" />
<path style="fill:#582903;fill-opacity:1" d="M134.45,478.8L133.65 478.95Q133 478.95 131.9 478.4Q130.85 477.85 130.85 477.6Q130.85 477.25 131.1 477.2L132.45 477.35L132.8 477.55L134.55 478.5L134.6 478.55L134.45 478.8M-12.35,532.9L-11.05 531.5L-9.55 530.2L-9 529.65L-8.15 529.15L-7.7 528.55L-6.95 528.15L-7.95 529.8L-8.85 531.3L-10.05 532.75L-10.7 533.4L-11.15 534.1L-11.55 534.05L-11.6 533.8L-11.5 533.5L-11.65 533.6L-12.05 533.55L-12.1 533.5L-12.4 533L-12.35 532.9M92.5,451L91.4 450.6L90.6 449.95L90.45 449.15Q90.45 448.45 90.7 448.15L90.9 448Q91.3 447 92.7 446.8Q94.7 446.5 94.7 448.8L94.4 449.8L93.75 450.65L93.65 450.75L93.35 451.1L92.5 451M82.75,452.6Q82.1 454.1 80.95 454.1Q79.4 454.1 78.75 453.5Q78.1 452.9 78.1 451.5Q78.1 450.5 78.45 450.05L79 449.4L79.45 449.1L79.6 449.05L80.45 449.05Q82.35 449.05 82.9 450.9L82.75 452.6M134.85,475.6L134.6 476.1L134.05 476.3L129.8 474.05L129.2 473.05Q130.15 472.95 132.5 474Q134.85 475.05 134.85 475.6M126.6,480.7Q128.4 481.05 132.1 483.55L131.55 484Q131.7 484.35 131.45 484.35L130.7 484.35Q127.5 482.65 126.35 480.8L126.6 480.7M129.2,485.4Q130.45 486.1 130.45 486.35L130.35 486.55Q129.55 486.5 129.35 486.95Q123.85 484.5 124.35 483.35Q124.5 483.2 124.7 483.2Q124.95 483.2 126.4 483.95Q127.7 484.6 127.8 484.7L129.2 485.4M123.1,486.85Q123.1 486.5 123.45 486.45Q125 486.8 127 487.75Q129.2 488.8 129.2 489.45L129.15 489.9L128.95 489.95L128.15 489.75L127.75 489.5L127.7 489.45L127.5 489.5L127.95 489.9L127.85 490.15L127.45 490.15L124.75 488.55Q123.1 487.5 123.1 486.85M43.1,473.45L42.85 473.75L42.7 473.85L39.55 473.9Q39.2 473.55 39.2 473.15Q39.2 472.7 39.35 472.55L42.35 472.55L42.8 472.9L42.95 473.05L43.1 473.45M55.95,474.05L55.9 473.95Q53.05 474 51.1 475.1L48.7 476.8L48.45 476.8L48.4 476.5Q48.4 475.6 52.05 473.5Q55.7 471.45 55.55 473.15L55.75 473.3L56.05 473.45L56.25 473.5L56.35 473.9L56.35 473.95L55.95 474.05M44.45,478.65L45.25 478.75L45.35 478.95L45.2 479.2L44.95 479.35Q44.4 479.5 43 480L41.2 480.8L40.45 480.65L40.35 480.15Q40.35 479.65 41.45 479.1Q42.7 478.45 44.2 478.45L44.35 478.55L44.45 478.65M40.15,477.6Q40.15 477.35 41.05 477Q42 476.6 42.6 476.7L42.85 477.05L42.7 477.3L40.7 477.85L40.2 477.75L40.15 477.6M43.25,481.7Q44.35 481.05 46.2 480.85L46.45 481.25L44.75 482.45L42.35 483.65L41.8 483.65L41.7 483.1Q41.7 482.5 41.9 482.4L43.25 481.7M49.75,483.5L49.85 483.8Q49.85 484.3 47.7 485.7L45.45 487.1L44.8 487.15L44.7 486.65L44.45 486.55Q44.25 486.35 44.4 486.2L44.2 485.85Q44.2 485.55 45.15 484.95Q46 484.45 46.2 484.45L48 483.8L49.75 483.5M49.8,490.15L51.6 489.4L53.35 488.95L53.6 489.2L51.4 490.75Q49.8 491.9 48.3 492.35L47.8 492.3L47.7 491.95Q47.7 491.25 48.15 490.9Q48.55 490.6 49.8 490.15M61.45,491.9Q60.25 491.1 60.25 490.5L61.5 490.45L65.1 491.05L67.7 491L68.45 490.95L69.15 491L69.25 491.2L68.15 491.95L65.45 492.7L64.55 492.8Q62.85 492.8 61.45 491.9M23.6,554.3L23.75 553.35Q23.95 552.6 24.25 552.35Q24.7 552.8 24.7 554.35L24.45 555.65L23.85 555.65L23.6 554.3M20.25,552.05L20.2 553.75L19.6 555.7L18.6 555.4L18.35 555.35L18.3 555.2Q18.3 554.4 18.9 552.5Q19.5 550.55 19.85 550.3Q20.2 550.35 20.25 550.65L20.25 551.15L20.25 552.05M28.9,551.85L29.25 552.5L29.75 555.4L29.75 556.15Q29.7 556.3 29.45 556.3L29.25 556.2L29.1 556.2L28.85 556.15L28.35 555.55Q28.1 554.6 28.1 553.25L28.05 552.45L28.15 551.95L28.1 551.5Q28.1 551.2 28.6 551L28.9 551.85M11.95,553.3L11.6 553.3L11.6 553L11.6 552.8L11.3 552.8L11.1 552.8L11.05 552.6L11 552.5L11.15 551.75L12.1 549.3L12.75 548.1Q13.25 547.25 13.9 547.25L14 547.5L13.25 550.1L12 553.25L11.95 553.3M-3.95,537.05L-4.8 538.2L-6.15 539.2L-6.5 539.2L-7.05 538.6Q-7.05 538.1 -6.2 537.35L-5.05 536.4Q-3.2 534.4 -2.6 534.3L-2.5 534.65L-3.3 535.9L-3.95 537.05" />
<path style="fill:#000000;fill-opacity:0.2" d="M172.3,431.75Q171.1 431.2 169.95 434.1Q168.45 437.6 168.45 439.15L168.85 440.25Q169.35 441.15 169.85 441.15Q170.75 441.15 172.05 438.45Q173.35 435.75 173.35 434.05L173.35 433.55L173.4 433.8Q173.85 435.45 173.75 437.25Q176.5 434.7 179.15 436.45Q181.3 437.85 180.05 441.1Q179.45 442.75 178.4 444.1Q180 444.15 181.5 445.85Q183.05 447.5 182.7 449.5L181.8 450Q182.35 449.3 182 448.45Q181.65 447.55 180.65 447.2Q178.5 447.45 177.15 448.25L174.7 449.65L171.6 450.2L169.35 450.5L167.7 450.55L166.2 450.75L165.15 451.4Q164.45 451.9 164.35 452.3L164.15 452.4Q163.55 452.75 160.05 456.25L157.65 459L155.35 461.85Q149.8 467.75 146.65 472.95Q145.25 475.25 142.15 478.45L136.9 483.9L134.75 486.6L132.7 489.45Q131.35 491.25 129.95 492.25Q129.55 492.5 128.35 493.3L127.55 493.55Q128.25 492.45 128.25 491.95L128.3 491.7L128.35 491.6Q128.75 490.6 130.85 487.7Q133.85 483.6 134.65 481.8L135.6 479.9L158.7 447.2Q156.7 445.05 155.55 442.55Q153.2 437.6 157.2 436Q160.4 434.7 162.7 438.55Q163.75 440.4 164.3 442.45L164.35 442.4Q164.7 439.85 165.55 437.2Q167.35 431.65 169.95 431.05Q171.6 430.65 172.6 431.95L172.3 431.75M163.2,442.75Q163.2 441.3 162.15 439.3Q160.9 436.8 159 436.3Q158.1 437 157.95 437.5L157.9 438.8L158.35 441.35Q159.4 443.9 162.4 443.9Q163.2 443.9 163.2 442.75M174.25,441.75Q173.35 443.15 173.35 443.9Q173.35 444.35 173.85 444.85L174.4 444.85Q176.05 444.5 178.05 442.6Q180 440.7 180 439.6Q180 438.25 179.2 437.9Q178.1 437.45 176 439.6Q175 440.6 174.25 441.75M174.35,453.25L174.05 453.1L172.85 453L174 452.8L176.05 452.35Q179.95 451.8 181.9 451.15Q180.35 452.7 175.25 453.15L174.35 453.25M173.25,537.75L172.6 538.6Q172.15 538.95 172.15 539.25L173.05 541.7Q174.55 544.05 177.8 544.05Q179 544.05 179.65 543.4L180.1 542.4Q180.1 541.4 179 539.6Q177.45 537 175.05 537L173.5 537.05L173.25 537.75M177,537.35L180.3 536.8Q183.8 536.55 185.1 538.1Q185.95 539.15 186.15 540.45Q185.85 539.15 183.25 538Q180.35 536.7 180.35 539L180.55 540.2L180.25 540.85L179.95 541.35Q179.95 541.7 180.1 541.8L180.45 541.9L181 541.5L181.3 541.25Q181.6 541.25 182.35 541.7L184 542.1Q184.65 542.1 185.35 541.7Q186.15 541.25 186.15 540.7L186.1 541.8L185.6 543.65L182.8 544.85L183.2 546.25L183.45 549.9L183.2 553.85L182.55 555.9Q182 557.65 181 558.25Q178.9 559.5 161.2 559.15L143.9 558.5Q91.3 566.15 47.4 560.3Q3.5 564.05 0.85 562.6Q-0.8 561.7 -1.05 556.45L-0.95 552.3L-1.15 552.1L-1.2 551.4L-3.25 551.2Q-5.75 550.55 -6.6 548.25Q-7.45 545.95 -5.8 544L-3.95 542.5L-3.9 541.95L-6.9 539.7Q-10.2 537 -11.55 534.55L-12.1 533.5L-12.4 533L-12.35 532.9Q-15 526.85 -12 522.15Q-10.65 520 -8.75 519.7L-7.3 519.8Q-8.85 519.75 -9.8 521.7Q-10.65 523.3 -10.65 524.95Q-10.65 526.65 -9.55 528.6L-6.85 532.35Q-5.3 534.25 -1.35 536.7Q2.35 539 3.35 539L6.65 538.6L7.15 538.4L7.5 538.85Q8.6 540.1 9.45 542.2L10.2 544.65L10.7 545.6L10.35 545.7L10.25 545.95Q11.9 548.45 15.4 549.75Q18.65 551 26.95 552.45L29.8 552.45L30.2 552.15L30.3 551.7Q30.3 551.1 28.65 547.65L31.75 548.2Q28.95 542.85 27.75 533.95Q26.1 521.55 29.95 513.8Q32.55 508.6 38.3 502.85L43.55 498.15Q36.3 487.7 23.6 478.15Q13.55 465.75 5.95 453.35L-0.4 453.15Q-6.85 452.55 -7.65 450.25Q-8.5 447.8 -6.65 445.85Q-5.15 444.15 -3.55 444.1Q-4.6 442.75 -5.2 441.1Q-6.45 437.85 -4.3 436.45Q-1.65 434.7 1.1 437.25Q1 435.45 1.45 433.8Q2.3 430.45 4.9 431.05L5.2 431.15L4.9 431.4L4.35 432.1Q4 432.4 4 433.25Q4 434.7 4.95 437.35L5.8 439.2L5.75 439.35L6.15 441.5L5.35 443L4.55 443L3.3 441.8L1.9 439.35Q0 436.4 -1.55 435.85L-2.15 435.85L-3.2 436.65L-3.4 437.5Q-1.4 442.1 1.3 443.05L1.6 443.5Q2.3 444.65 2.3 445.3L2.1 445.45Q1.95 445.65 2.05 446.3L1.85 446.95L1.5 447.45L0.3 446.5Q-1.45 445.4 -3.6 445.4Q-5.05 445.4 -5.6 445.9Q-5.95 446.2 -5.95 446.9L-5.8 447.45L-4.9 448.25L-4.05 449.1L-1.35 449.5L0.9 449L1.75 448.5Q3.05 448.65 4.75 449.55Q7.25 450.85 8.75 451.2L10.4 452.5L13.2 455.3Q16.15 458.65 17.7 461L20.9 466.75Q22.8 470.3 24.8 472.45Q28.55 476.5 36.05 483.65L43.35 490.55Q47.8 494.45 48.85 494.45L49.5 494.2Q48.75 492.6 47 490.5L44.25 487.05L40.3 481.25L38.2 471.75L40.5 470.75Q35.6 467 33.6 461.25L41 463.6Q36.2 458.85 34.35 453.1L40.75 456.15Q38.65 453.6 38.45 447.2L44.85 450L46.9 445.9Q45.35 438.1 44.7 430.1Q43.4 414.05 47.9 412.9Q51.8 411.9 59.45 420.6Q56.6 417.65 52.35 414.35Q51.85 414.45 51.8 414.65L51.65 415.05L50.7 414.55L50.4 414.35L50.3 414.35L48.25 414Q47.35 414.45 47.35 414.85L48.2 415.4Q47.3 416.6 46.95 418.7L46.75 423.7Q46.75 425.95 47.2 429.15L47.95 434.85L48.1 437.65L48.3 440.4L48.9 443.9Q49.3 445.35 49.9 445.85L50.1 447.05Q50.1 448.6 49.5 450Q48.9 451.45 48.9 452.05Q48.9 452.7 49.6 452.85L50.65 452.95L48.95 455.3Q47.95 456.75 47.95 457.55Q47.95 458.1 48.1 458.5L48.65 459.95L48.9 461.1L49.1 461.65L49.3 462.25L48.75 463.45L48.15 464.95Q48.15 465.45 48.45 465.65L47.95 466.5L48 467L47.2 467.4Q44.65 468.8 43.85 469.8Q43.45 470.25 43.05 472.2Q42.7 473.9 42.7 474.55Q42.7 475.5 43.15 477.05Q43.65 478.8 44.25 479.3L46.5 481.45Q49.1 483.35 52.45 483.35Q55 483.35 58.4 481.35Q61.45 479.55 61.45 478.9L61.35 478.55L60.85 478.45L58.1 480.35Q55.2 482.25 52.45 482.25Q47.95 482.25 45.4 478.85Q43.65 476.5 43.65 474.6Q43.65 474.1 44 472.55Q44.45 470.7 44.95 470.25Q45.5 469.65 47.9 468.4L50.1 467.2L50.1 467.05L50.8 466.9L51.2 467.1L51.75 467.3Q52.65 467.3 52.85 466.55L53.25 464.8Q53.6 463.95 54.6 462.7L55.1 462.1L55.35 462.6L55.6 463.35L55.55 466.35Q55.5 467.25 55.6 467.9L56.05 471Q56.4 472.8 57.25 473.9Q58.15 475.05 60.3 476.4L64.4 478.85Q65.25 479.4 67.1 479.8L70.2 480.7L74.45 481.75L80.5 482.55L84.6 482.15L88.35 481.85L89.45 481.75L89.75 481.45L89.55 481.15Q91.7 480.95 94.5 480L94.5 480.05L94.55 480.4L94.7 480.5L95.1 480.6L101.75 478.25L106 477L109.05 476L114.6 473.4L120.35 470.8L118.15 473.35L116.4 474.55L114.95 475.6Q114.65 475.9 112.8 476.6Q110.95 477.35 110.45 477.75Q108.05 479.65 99.3 482.45Q89.6 485.55 83.95 485.55L66.6 483.9Q61.65 482.15 61.05 482.15Q60.45 482.15 60.45 482.65L60.55 482.8Q58.8 483.8 57.4 486.65Q56.35 488.55 56.35 491.35L56.45 492.45Q56.65 493.1 57.6 493.65L59.75 493.65Q61.85 493 69 492.2L79.2 491.15L88.3 491.1L88.75 491Q99.15 491 106.7 492.7Q109.6 493.3 113.1 494.65L117.85 496.85Q120.6 498.05 122.05 498.4L121.5 498.6L115.65 497.5L110 496.3L101.8 494.8L92.7 494.35L84 495.15L74.1 496.95L64.55 499.6Q63.35 499.85 57.85 502.25Q55 503.45 53.4 504.35L54 503.8L53.5 503.45L52.85 503.45Q51.1 504.35 49.8 505.8Q49.2 506.45 47.75 508.45L46.65 509.75L45.6 511.1L44 513.9Q42.7 515.45 41.8 518.7Q40.9 521.9 40.9 524.7Q40.9 526.95 45.1 530.8Q49.2 534.6 52.25 535.35Q54.3 535.85 57.2 537.2Q61 538.5 69.3 539.2L84.25 541.05L105.2 542.9L119.35 543L121.9 543.15L124.6 543.25Q133.35 543.25 138.85 541.95L143.45 540.35L147.7 538.5Q149.55 537.6 151.35 536.2Q154 534.05 156.3 530.95L158 528.6Q157.7 538.05 153.4 546.35Q150.85 551.15 148.25 553.7L149.25 553.65L149.2 553.65L148.15 554.3Q147.5 554.8 147.5 555.05L147.9 555.6L148.55 555.95L157.7 556.05L163.05 556.55Q170.7 556.55 173.05 555.75Q174.25 555.35 174.25 554.35Q174.25 553.8 173.55 553.25L171.7 553.05L170.95 553.15L165.15 553.25L162.65 553.45L151.15 553.9L151.45 553.75L151.65 553.5L173.6 552.1Q172.6 549.55 171.9 546.55Q170.55 540.5 172.3 538.05Q173.9 535.75 177 537.35M182.7,546.7L182.95 549.65L182.85 546.9L182.7 546.7M130.1,413.7L130.75 415.05Q131.25 416.35 131.35 418.15L131.7 424.35Q131.7 429.8 130.55 439.15L129.55 447.25L128.45 449.3L127.65 449.3Q126.75 448.7 125.75 445.85Q124.8 443.3 124.25 443.3Q123.55 443.3 123.05 443.95L122.35 444.9L122.35 442.1L122.65 440.5Q122.75 439.35 121.9 439.35Q121.05 439.35 119.85 440.7L118.65 442.3L118.65 441.3L119.05 437.85Q119.05 437.35 118.55 436.85L116.6 437.3L114.05 437.7Q113.55 437.7 112.8 437.2Q113.35 436.95 113.75 436L114.35 434.35L116.55 430.95L118.25 427.7Q119.35 425.55 120.4 424.25L120.7 423.85L120 425.35L117.1 430.3Q114.35 435.2 114.35 436.2Q114.35 436.9 114.85 437.05L117.55 435.15Q119.25 434 120.4 433.55Q120 434 120.7 434.7L121.3 434.7Q122.6 433.85 123.25 433.65L123.15 434.7Q123.2 435.5 123.95 435.5Q125.6 435.5 126.8 427.9L127.65 420.1Q127.65 415.75 124.5 418.7L122.95 420.4L124.8 417.65Q126.8 414.95 128.3 414.4L130.1 413.7M85.35,443.75Q86.5 445.85 86.95 445.85L88.75 443.75Q90.7 441.65 94.6 441.65Q99.15 441.65 100.85 445.75Q101.7 447.85 101.85 450.35Q102.2 451.1 105.15 452.65Q106.8 453.85 107.75 455.15L108.95 457.25L109.75 459.3L109.85 460.4L109.6 461.2Q109.5 461.85 110.05 462.2Q110.05 464.5 108.55 467.2Q107.15 469.7 104.75 472L102.35 474.4L99.35 476.75Q97.7 477.7 95.3 478.65Q91.35 480.15 88.35 480.15Q84.05 480.15 81.2 478Q77.65 475.35 77.65 470.05L77.85 467.8L78.25 465.2L78.1 464.85L77.9 464.8Q77.8 464.15 77.35 463.45L77.35 463.5Q77.45 463.7 76.95 463.7L72.9 460.05L71.15 458.6L69.1 457.35L66.4 456.1L64.05 455.1L62.85 454.25L61.55 453.95Q63.4 453.25 65 451.65L68.4 447.95Q72 444.8 73.95 443.65Q77.45 441.65 81.5 441.65Q84.15 441.65 85.35 443.75M81.85,442.3Q80.7 441.9 79.3 442.3L78.05 442.85Q75.55 443.65 74.2 446Q73.15 447.85 73.15 449.8Q73.15 451.05 73.95 452.3Q75.3 454.45 78.3 454.45Q80.7 454.45 83.35 452.7Q86.65 450.5 86.65 447.15Q86.65 444.8 84.2 443.35Q82.6 442.5 81.85 442.3M89.55,445.4Q89.55 446.35 90.6 447.35Q92.15 448.75 95 448.75Q97.8 448.75 99.2 447.65Q100.3 446.75 100.3 445.55Q100.3 444.3 98.65 443.15Q96.8 441.9 93.95 441.7Q93.6 441.8 90.85 443.3Q89.55 443.85 89.55 445.4M106.75,454.2Q106.1 453.4 103.5 452.25Q101.35 451.25 96.7 451.1L89.45 451.75Q86.2 452.6 83.5 455.2Q80.95 457.75 80.95 459.7Q80.95 461.4 82.45 462.85Q84.3 464.65 87.5 464.8L93.95 464.8Q107.15 461.75 107.15 456.2Q107.15 454.75 106.75 454.2M48.85,418.5Q49.2 417.35 50.45 416.65L50.75 416.65Q53.7 418.1 54.8 419.2L57.45 422.25L60.05 425.05Q61.4 426.2 62.75 428.1L64.95 430.95L66.9 433.85L68.45 435.95Q68.15 437.95 66.9 438.9Q64.5 439.1 63.95 439.7L63.35 440.75L62.75 440.7L61.7 440.1L60.15 439.75Q59.3 440.05 58.9 441.15L58.15 442.7Q56.6 441.7 55.65 441.7Q54.8 442.3 53.5 443.95L51.5 446.1Q51.75 445.65 51.6 445.15L51.1 445.05L51.05 445.1L51.05 444.95Q49.25 437.15 48.9 434.55Q48.75 433.5 48.75 429.4L48.15 424.1Q48.15 422.25 48.55 420.5Q48.65 419.15 48.85 418.5M60.6,423.55L60.55 423.55L58.2 420.95L58.2 420.9Q59.6 421.65 60.6 423.55M51.3,422.25Q48.75 421.55 48.75 424.95Q48.75 425.95 49.9 432.45L51.3 440.25L51.85 440.35Q53.35 440.35 56.25 435.7L56.4 436.05L57 436.25Q58.2 436.25 57.9 434.25L59 434.9Q59.5 435.35 60.95 435.5L61.3 435.35L61.4 434.9Q61.4 433.6 59.4 430.4Q57.6 427.4 56.65 426.7Q53.75 422.85 51.3 422.25M62.7,424.45Q66.65 429.4 70 434.55L69.95 434.6Q69.25 433.45 68.8 434.1L67 431.2L63.15 425.15L62.7 424.45M9.6,438.15L10.3 440.8L8.9 440L9.5 439.4L9.6 438.35L9.6 438.15M18.95,437.6L18.35 437.6Q15.95 438.5 14.6 441.3Q13.6 443.4 13.55 445.55L12.95 444.95Q11.75 443.65 11.75 441.9L10.4 440.9L11 441.1Q11.45 439.75 12.15 438.55Q14.45 434.7 17.65 436Q21.65 437.6 19.3 442.55L17.5 445.65L17.4 445.45L18 444.3L19.05 442.7L19.75 441L19.8 439.6L19.75 438.5Q19.6 437.85 18.95 437.6M75.95,463.8Q75.3 463.5 74.9 462.8L73.8 461.3L75.25 462.5Q75.6 462.75 76 463.85L75.95 463.8M49.2,468.55Q46.6 469 46.6 472.05L46.65 473.1Q47.1 474.1 49 474.1Q51.5 474.1 52.4 472.5Q52.85 471.65 52.85 470.15L52.75 468.55L51.75 468.5L51.45 468.45L50.9 468.45L49.2 468.55M54.45,476.6Q53.35 475.55 52.15 475.3Q50.6 475.4 49.8 476.45Q49.15 477.25 49.15 478.2L49.45 479.25Q50.2 480.2 52.35 480.2Q53.75 480.2 54.65 479.45Q55.4 478.8 55.4 478.2Q55.4 477.55 54.45 476.6M1.95,541.05Q1.95 539.9 -0.3 540.05Q-2.6 540.15 -2.6 542.2Q-2.6 543.2 -2.15 543.5L-0.1 543.5L1.45 542.15Q1.95 541.65 1.95 541.05M6,539.95Q3.1 540.25 3.1 543.6L4.8 545.2Q6.8 546.65 7.8 550.2L7.95 551.05L7.95 551.2L7.95 554.1L7.6 557.05L7.9 558.75Q8.55 560.35 10.3 560.35L12.35 560.45L14.9 560.55L22.05 559.9L31.5 559.2L39.35 559.1Q40.6 558.75 40.95 558.4L40.1 557.6L36.25 557.2L26.15 557.55L20 556.75L12 555.85L11.35 556L11.1 555.8L19.9 556.15Q15.35 555.3 12 553.25L11.95 553.3L11.6 553.3L11.6 553L11.3 552.8L11.1 552.8L11.05 552.6L10.4 552.15L10.15 554.9L9.9 554.45L10.15 549.75L10.1 546.5L9.3 542.65Q8.9 539.65 6 539.95M-4.65,544.65Q-6.15 544.9 -6.15 547.25Q-6.45 548.6 -5.2 548.6L-4.2 548.4L-3.6 547.2L-3.2 545.8Q-3.2 544.35 -4.65 544.65" />
<path style="fill:#FFFFFF;fill-opacity:0.4" d="M104.65,454.6Q104.65 455.5 104.3 456.05L102.75 457.75Q101.45 459.05 97.95 459.65L93.9 460.05L91.1 459.95L89.3 459.75Q87.85 459.85 85.9 458.45Q84.05 457.15 84.05 456.4Q84.05 455.1 86.7 453.85L88.6 452.75Q90.1 452 91.65 452L93.15 451.6L95.2 451.2Q98.25 450.95 100.2 451.3L102.3 451.85Q104.65 452.5 104.65 454.6" />
<path style="fill:none;stroke-width:2;stroke-linecap:round;stroke-linejoin:miter;stroke-miterlimit:3;stroke:#AE4200;stroke-opacity:1" d="M129,432.5Q128.25 440.7 127.1 448.8L124.85 442.85L122.6 444.3L123 438.35L118.1 442.85L119.7 436.3L115.65 438.55L113.5 437.2Q116.4 431.6 119.65 426.1Q126.25 415.1 128.35 415.6Q130.45 416.1 129 432.5M55.85,441.2L51.75 446.1Q50.55 439.85 49.7 433.35Q47.95 420.3 49.7 418.9Q51.45 417.55 59.75 427.9L67.7 438.55Q64.6 438.15 63 440.6L59.3 438.75L58.9 442.45L55.85 441.2M51.75,505.1Q86.85 486.4 123.6 499.15" />
<path style="fill:none;stroke-width:3;stroke-linecap:butt;stroke-linejoin:miter;stroke-miterlimit:3;stroke:#AE4200;stroke-opacity:1" d="M178.45,544.95Q181 543.3 181 541.6Q181 540.85 179.8 539.5M0.3,549.05L-2.75 547" />
<path style="fill:none;stroke-width:3;stroke-linecap:butt;stroke-linejoin:miter;stroke-miterlimit:3;stroke:#AE4200;stroke-opacity:1" d="M175.25,453.15Q181.7 452.55 182.5 450.25Q183.35 447.8 181.5 445.85Q180 444.15 178.4 444.1M182.55,544.95L185.6 543.65L186.1 541.8Q186.4 539.65 185.1 538.1Q183.8 536.55 180.3 536.8L177 537.35M108.05,434.65L105.25 432.55Q102.1 430.45 100.65 430.3Q99.4 430.2 95.25 431.9Q90.8 433.75 89.65 433.9Q88.55 434.05 85.55 432Q82.55 430 80.45 430.3Q78 430.65 74.1 433.2Q72.15 434.45 70.7 435.65Q66.8 429.5 62 423.6Q52.4 411.75 47.9 412.9Q43.4 414.05 44.7 430.1Q45.35 438.1 46.9 445.9L44.85 450L38.45 447.2Q38.65 453.6 40.75 456.15L34.35 453.1Q36.2 458.85 41 463.6L33.6 461.25Q35.6 467 40.5 470.75L38.2 471.75L40.35 481.45" />
<path style="fill:none;stroke-width:3;stroke-linecap:round;stroke-linejoin:miter;stroke-miterlimit:3;stroke:#AE4200;stroke-opacity:1" d="M132.65,484.05L125.4 494.3M40.35,481.45L49.45 494.3M1.1,437.25Q3.3 439.25 4.65 442.6M31.75,548.2L33.05 550.4Q34.85 553 40.45 557L20.45 556.2M2.7,541.1Q1.75 542.55 1.3 544.2L2.85 549.1" />
<path style="fill:none;stroke-width:2;stroke-linecap:butt;stroke-linejoin:miter;stroke-miterlimit:3;stroke:#582903;stroke-opacity:1" d="M50.7,467.8L48.05 468.15Q45.35 468.7 44.35 470.05" />
<path style="fill:none;stroke-width:2;stroke-linecap:round;stroke-linejoin:miter;stroke-miterlimit:3;stroke:#582903;stroke-opacity:1" d="M61.4,477.9Q64.4 479.55 68.8 480.85L69.8 481.15Q78.05 483.45 85.1 482.75Q93.85 481.9 107.05 477.1Q118.25 473 121.6 469.65Q122.5 468.7 122.8 467.8Q123.35 466.1 121 463.8L118.5 461.85" />
<path style="fill:none;stroke-width:3;stroke-linecap:round;stroke-linejoin:miter;stroke-miterlimit:3;stroke:#AE4200;stroke-opacity:1" d="M178.4,444.1Q179.45 442.75 180.05 441.1Q181.3 437.85 179.15 436.45Q176.5 434.7 173.75 437.25Q173.85 435.45 173.4 433.8Q172.55 430.45 169.95 431.05Q167.35 431.65 165.55 437.2Q164.65 439.95 164.3 442.6Q163.8 440.45 162.7 438.55Q160.4 434.7 157.2 436Q153.2 437.6 155.55 442.55Q156.7 445.05 158.7 447.2L132.65 484.05M40.35,481.45L16.15 447.2Q18.15 445.05 19.3 442.55Q21.65 437.6 17.65 436Q14.45 434.7 12.15 438.55Q11.05 440.45 10.55 442.6Q10.2 439.95 9.3 437.2Q7.5 431.65 4.9 431.05Q2.3 430.45 1.45 433.8Q1 435.45 1.1 437.25Q-1.65 434.7 -4.3 436.45Q-6.45 437.85 -5.2 441.1Q-4.6 442.75 -3.55 444.1Q-5.15 444.15 -6.65 445.85Q-8.5 447.8 -7.65 450.25Q-6.85 452.55 -0.4 453.15L5.95 453.35Q13.55 465.75 23.6 478.15Q36.3 487.7 43.55 498.15L38.3 502.85Q32.55 508.6 29.95 513.8Q26.1 521.55 27.75 533.95Q28.95 542.85 31.75 548.2Q21.45 546.7 13.75 541.1Q5.85 535.45 -5.15 521.4Q-6.7 519.4 -8.75 519.7Q-10.65 520 -12 522.15Q-15.4 527.5 -11.55 534.55Q-10.2 537 -6.9 539.7L-3.9 541.95M19.9,556.15L10 555.75L10.4 552.15Q11.05 541.8 7.7 539.6Q4.9 537.75 2.7 541.1Q2.35 540 1.55 539.15L-2.25 539.05Q-3.75 540.1 -3.9 541.95L-3.95 542.5M19.9,556.15Q14.2 555.05 10.4 552.15" />
<path style="fill:none;stroke-width:3;stroke-linecap:butt;stroke-linejoin:miter;stroke-miterlimit:3;stroke:#AE4200;stroke-opacity:1" d="M179.8,539.5Q178.55 538.1 177 537.35Q173.9 535.75 172.3 538.05Q170.55 540.5 171.9 546.55Q172.6 549.55 173.6 552.1L148.25 553.7Q150.85 551.15 153.4 546.35Q158.4 536.75 157.95 525.55Q157.5 514.35 144.35 505.15Q140.25 502.25 135.35 499.9L131.3 498.15Q138.55 487.7 151.25 478.15Q161.3 465.75 168.9 453.35M-3.95,542.5L-5.8 544Q-7.45 545.95 -6.6 548.25Q-5.75 550.55 -3.25 551.2L-0.95 551.35L-1.05 556.45Q-0.8 561.7 0.85 562.6Q3.5 564.05 47.4 560.3Q91.3 566.15 143.9 558.5L161.2 559.15Q178.9 559.5 181 558.25Q183.1 557 183.05 550.85M132.65,484.05L136.25 473.3L134.45 470.5L139.55 464.1L135.2 462.05L137.25 458.7L131.9 458.7Q136.7 454.85 138.3 449L131.35 451.05Q132.8 440.85 133.35 430.5Q134.55 409.85 130.35 409.05Q126.15 408.25 116.7 421.4M-3.55,444.1Q-1.95 444.05 1.85 446.95" />
<path style="fill:none;stroke-width:2;stroke-linecap:round;stroke-linejoin:miter;stroke-miterlimit:3;stroke:#582903;stroke-opacity:1" d="M77.95,466.35Q75.5 463.25 72.45 460.75Q71.2 457.75 70.85 454.1Q70.25 446.85 74.95 443.8Q78.9 441.25 82.4 442.55Q84.6 443.35 86.25 445.45Q86.75 446.1 87.25 447.5Q87.7 445.65 89.15 444.05Q91.95 440.85 96.7 442.15Q100.8 443.25 101.45 447.25Q101.8 449.25 101.3 451.05M88.55,452.3Q88.05 449.6 87.25 447.5M61.4,477.9Q58.4 476.3 56.65 474.35Q55.2 472.8 55.3 467.95" />
<path style="fill:none;stroke-width:2;stroke-linecap:round;stroke-linejoin:miter;stroke-miterlimit:3;stroke:#993127;stroke-opacity:1" d="M101.3,451.05L102.5 451.45Q107.75 453.35 109.3 457.15Q111 461.3 105.4 466.3Q99.6 471.5 91.65 472.1Q84.8 472.65 80.7 469.55Q79.4 468.6 78.55 467.35L77.95 466.35M101.3,451.05Q95.45 449.45 88.6 452.25L88.55 452.3Q80.55 455.5 78.45 461.25Q77.4 464.15 77.95 466.35" />
<path style="fill:none;stroke-width:2;stroke-linecap:butt;stroke-linejoin:miter;stroke-miterlimit:3;stroke:#582903;stroke-opacity:1" d="M55.3,467.95L50.7 467.8" />
<path style="fill:none;stroke-width:3;stroke-linecap:round;stroke-linejoin:miter;stroke-miterlimit:3;stroke:#AE4200;stroke-opacity:1" d="M170.2,442.6Q171.55 439.25 173.75 437.25M173,446.95Q176.8 444.05 178.4 444.1M168.9,453.35L175.25 453.15M-2.75,547Q-4 544.75 -3.95 542.5M183.05,550.85L182.55 544.95M116.7,421.4Q111.95 427.95 108.05 434.65M20.45,556.2L19.9 556.15" />
<path style="fill:none;stroke-width:2;stroke-linecap:round;stroke-linejoin:miter;stroke-miterlimit:3;stroke:#582903;stroke-opacity:1" d="M56.25,454.1Q65.35 454.9 72.45 460.75M44.35,470.05Q41.15 474.35 44.55 478.85Q46.05 480.9 48.05 481.95Q50.3 483.1 53.15 482.95Q55.55 482.85 58.7 480.35L61.4 477.9M55.85,462.05L55.6 463.85L55.3 467.95" />
<path style="fill:#582903;fill-opacity:1" d="M92.9,432.65L93.55 432.35L95.5 431.65L94.9 431.15L94.95 431L97 431.45L97 431.35L96.8 431.05L96.6 430.7L96.65 430.55L96.75 430.5L98.35 430.95L100 431.75Q101.55 432.65 102.3 433.5Q103.7 435.05 104.3 436.35Q105.3 437.75 105.3 438.2L105.3 438.55L105.1 438.55L103.35 437.55L102.7 437.15L101.3 436.4L100.05 435.8L96.95 434.5Q95.2 433.8 92.55 433.25L92.5 433.1L92.9 432.65M84.25,430L83.45 430.65L85.9 431.5L86.75 431.9L87.25 432.45L87.15 432.65Q83.85 433.3 81.65 434.2L77.75 435.85L76.2 436.6L74.45 437.5L73.65 438.05L71.45 439.3L71.2 439.25L71.15 438.85Q71.15 438.25 72.4 436.5Q73.2 434.9 74.95 432.95Q75.85 431.85 77.85 430.75Q78.6 430.25 79.9 429.75L81.9 429.2L82.05 429.25L82.1 429.4L81.85 429.85L81.6 430.25L81.6 430.35L84.15 429.8L84.25 430" />
</g>
</svg>
