<?xml version="1.0" encoding="utf-8"?>
<svg version="1.1" id="Layer_1"
xmlns="http://www.w3.org/2000/svg"
xmlns:xlink="http://www.w3.org/1999/xlink"
xmlns:author="http://www.sothink.com"
width="33px" height="31px"
xml:space="preserve">
<g id="77" transform="matrix(1, 0, 0, 1, 16.4, 15.65)">
<path style="fill:#FF0000;fill-opacity:0" d="M16.1,-15.65L16.1 15.3L-16.4 15.3L-16.4 -15.65L16.1 -15.65" />
<path style="fill:#A33131;fill-opacity:1" d="M11.35,-9.1Q11.1 -7.8 10.45 -6.65Q10.1 -9.6 6.25 -9.95L5.2 -9.9L5.05 -13.05L5.95 -13.15L8.8 -12.95L11.35 -12.75L11.85 -12.7L11.35 -9.1M-4.7,5.3L-3.15 5.4L0.55 5.5L1.3 5.55L0.55 6.35L-1.35 8.6Q-2.1 9.75 -2.7 12L-2.85 12.4L-3.75 11.15L-6.45 6.95L-6.95 5.35L-7.2 4.65Q-6.35 5.25 -4.7 5.3M-8.65,-10.25Q-11.3 -9.75 -11.2 -7.9L-10.1 -2.6L-9.85 -1.55L-11.8 -3.35Q-13.05 -4.5 -13.65 -6.3L-14.4 -9.85L-14.8 -13.5L-14.8 -14.05L-5.75 -13.5L-5.75 -10.5L-8.65 -10.25M-1,-3.35L-1.25 -4.9L-1.4 -10.4L-1.25 -13.1L1.35 -12.85L1.2 -10L1.2 -3.35L-0.55 -3.35L-1 -3.35" />
<path style="fill:#D05050;fill-opacity:1" d="M9.8,-2Q10.6 -4.25 10.45 -6.3L10.45 -6.65Q11.1 -7.8 11.35 -9.1L11.85 -12.7L13.5 -12.7Q14.6 -12.55 14.65 -11.6Q14.9 -7.15 13.85 -5.1Q12.85 -3.15 9.35 -0.9L9.8 -2M-2.7,12Q-2.1 9.75 -1.35 8.6L0.55 6.35L1.3 5.55L4.7 5.65L5.35 5.6L5.85 5.3Q5.05 7.75 2.45 10.8Q-0.15 13.8 -0.85 14.05Q-1.3 14.25 -2.85 12.4L-2.7 12M0.1,10.15Q0.15 10.75 0.6 10.75Q1.25 10.75 1.85 9.5Q2.45 8.2 1.65 8.2Q1.35 8.2 0.8 8.65Q0.05 9.25 0.1 10.15" />
<path style="fill:#CCCCCC;fill-opacity:1" d="M-2,-0.35Q-0.95 -1.95 -0.55 -3.35L1.2 -3.35L1.2 -10L5.2 -9.9L6.25 -9.95Q10.1 -9.6 10.45 -6.65L10.45 -6.3Q10.6 -4.25 9.8 -2L9.35 -0.9L8 2.3Q7.05 4.4 5.85 5.3L5.35 5.6L4.7 5.65L1.3 5.55L0.55 5.5L-3.15 5.4Q-3.1 1.45 -2 -0.35M7.45,-6.9Q6.9 -6.45 6.95 -5.9Q7 -5.1 7.85 -5.15Q8.85 -5.15 8.95 -6.15Q9.05 -7.15 8.05 -7.15L7.45 -6.9M6.7,-4.4L4.8 -2.2Q2.8 0.25 2.9 1.5Q2.95 2.5 4.2 2.5Q6.3 2.5 7.35 -0.95Q8.4 -4.45 6.7 -4.4" />
<path style="fill:#ADABAB;fill-opacity:1" d="M-7.2,4.65L-7.3 4.55L-7.7 4.25Q-8.35 3.5 -8.6 2.6L-9.85 -1.55L-10.1 -2.6L-11.2 -7.9Q-11.3 -9.75 -8.65 -10.25L-5.75 -10.5L-4.3 -10.5L-1.4 -10.4L-1.25 -4.9L-1 -3.35L-0.55 -3.35Q-0.95 -1.95 -2 -0.35Q-3.1 1.45 -3.15 5.4L-4.7 5.3Q-6.35 5.25 -7.2 4.65" />
<path style="fill:#ECEAEA;fill-opacity:1" d="M8.05,-7.15Q9.05 -7.15 8.95 -6.15Q8.85 -5.15 7.85 -5.15Q7 -5.1 6.95 -5.9Q6.9 -6.45 7.45 -6.9L8.05 -7.15M7.35,-0.95Q6.3 2.5 4.2 2.5Q2.95 2.5 2.9 1.5Q2.8 0.25 4.8 -2.2L6.7 -4.4Q8.4 -4.45 7.35 -0.95M0.8,8.65Q1.35 8.2 1.65 8.2Q2.45 8.2 1.85 9.5Q1.25 10.75 0.6 10.75Q0.15 10.75 0.1 10.15Q0.05 9.25 0.8 8.65" />
<path style="fill:none;stroke-width:1;stroke-linecap:butt;stroke-linejoin:miter;stroke-miterlimit:3;stroke:#333333;stroke-opacity:1" d="M5.2,-9.9L5.05 -13.05L5.95 -13.15L8.8 -12.95L11.35 -12.75L11.85 -12.7L13.5 -12.7Q14.6 -12.55 14.65 -11.6Q14.9 -7.15 13.85 -5.1Q12.85 -3.15 9.35 -0.9L8 2.3Q7.05 4.4 5.85 5.3Q5.05 7.75 2.45 10.8Q-0.15 13.8 -0.85 14.05Q-1.3 14.25 -2.85 12.4L-3.75 11.15L-6.45 6.95L-6.95 5.35L-7.2 4.65L-7.3 4.55L-7.7 4.25Q-8.35 3.5 -8.6 2.6L-9.85 -1.55L-11.8 -3.35Q-13.05 -4.5 -13.65 -6.3L-14.4 -9.85L-14.8 -13.5L-14.8 -14.05L-5.75 -13.5L-5.75 -10.5L-4.3 -10.5L-1.4 -10.4L-1.25 -13.1L1.35 -12.85L1.2 -10L5.2 -9.9L6.25 -9.95Q10.1 -9.6 10.45 -6.65L10.45 -6.3Q10.6 -4.25 9.8 -2L9.35 -0.9M-1.4,-10.4L-1.25 -4.9L-1 -3.35L-0.55 -3.35L1.2 -3.35L1.2 -10M-3.15,5.4L0.55 5.5L1.3 5.55L4.7 5.65L5.35 5.6L5.85 5.3M-9.85,-1.55L-10.1 -2.6L-11.2 -7.9Q-11.3 -9.75 -8.65 -10.25L-5.75 -10.5M-3.15,5.4L-4.7 5.3Q-6.35 5.25 -7.2 4.65" />
</g>
</svg>
