<?xml version="1.0" encoding="utf-8"?>
<svg version="1.1" id="Layer_1"
xmlns="http://www.w3.org/2000/svg"
xmlns:xlink="http://www.w3.org/1999/xlink"
xmlns:author="http://www.sothink.com"
width="24px" height="46px"
xml:space="preserve">
<g id="257" transform="matrix(1, 0, 0, 1, 9, 22.3)">
<path style="fill:#C5DBDB;fill-opacity:1" d="M-2.1,-1.6L-2.25 0.7Q-2.25 7.4 2.55 12.15Q7.3 16.9 14 16.9L14.1 16.9L14.1 19.7Q8.55 19.55 2.8 15.35Q-3.75 10.55 -3.75 4.5Q-3.75 0.1 -2.1 -1.6M6.3,-17.2Q1.6 -15.55 0.4 -15.55Q-0.15 -15.55 -0.95 -16.2Q5.3 -21.8 13.85 -21.8L14.1 -21.8L14.1 -18.8Q10.05 -18.55 6.3 -17.2M3.25,-5.35L7.05 -5.35L7.4 -5.45L14 -11.25L14.05 3.9Q12.45 1.8 12.3 -1.15L12.15 -4.2Q11.9 -6.3 11.25 -6.3L8 -4.55Q4.8 -2.8 3.3 -2.8Q2.55 -2.8 1.45 -3.3L0.5 -3.8Q1.1 -5.35 3.25 -5.35" />
<path style="fill:#AABFBF;fill-opacity:1" d="M-3.75,4.5Q-3.75 10.55 2.8 15.35Q8.55 19.55 14.1 19.7L14.1 22.9L13.85 22.9Q4.6 22.9 -1.95 16.35Q-8.5 9.8 -8.5 0.55Q-8.5 -8.7 -1.95 -15.25L-0.95 -16.2Q-0.15 -15.55 0.4 -15.55Q1.6 -15.55 6.3 -17.2Q10.05 -18.55 14.1 -18.8L14.1 -15.5L14 -15.5Q7.3 -15.5 2.55 -10.75Q-1.4 -6.85 -2.1 -1.6Q-3.75 0.1 -3.75 4.5M14.1,13.4L7.45 8.5L7.35 8.35L7 8.2L3.25 8.2Q1 8.2 0.45 6.55L0.25 5.2L0.25 -2.35L0.45 -3.65L0.5 -3.8L1.45 -3.3Q2.55 -2.8 3.3 -2.8Q4.8 -2.8 8 -4.55L11.25 -6.3Q11.9 -6.3 12.15 -4.2L12.3 -1.15Q12.45 1.8 14.05 3.9L14.1 13.4" />
<path style="fill:none;stroke-width:1;stroke-linecap:butt;stroke-linejoin:miter;stroke-miterlimit:3;stroke:#70643A;stroke-opacity:1" d="M14.1,-15.5L14 -15.5Q7.3 -15.5 2.55 -10.75Q-1.4 -6.85 -2.1 -1.6L-2.25 0.7Q-2.25 7.4 2.55 12.15Q7.3 16.9 14 16.9L14.1 16.9M14.1,22.9L13.85 22.9Q4.6 22.9 -1.95 16.35Q-8.5 9.8 -8.5 0.55Q-8.5 -8.7 -1.95 -15.25L-0.95 -16.2Q5.3 -21.8 13.85 -21.8L14.1 -21.8M0.5,-3.8L0.45 -3.65L0.25 -2.35L0.25 5.2L0.45 6.55Q1 8.2 3.25 8.2L7 8.2L7.35 8.35L7.45 8.5L14.1 13.4L14.05 3.9L14 -11.25L7.4 -5.45L7.05 -5.35L3.25 -5.35Q1.1 -5.35 0.5 -3.8" />
</g>
</svg>
