<?xml version="1.0" encoding="utf-8"?>
<svg version="1.1" id="Layer_1"
xmlns="http://www.w3.org/2000/svg"
xmlns:xlink="http://www.w3.org/1999/xlink"
xmlns:author="http://www.sothink.com"
width="311px" height="252px"
xml:space="preserve">
<g id="210" transform="matrix(1, 0, 0, 1, 161.35, 125.4)">
<linearGradient
id="LinearGradID_9" gradientUnits="userSpaceOnUse" gradientTransform="matrix(0.00038147, 0.0753632, -0.0667419, 0.000320435, 1.25, -67.8)" spreadMethod ="pad" x1="-819.2" y1="0" x2="819.2" y2="0" >
<stop  offset="0" style="stop-color:#66CCFF;stop-opacity:1" />
<stop  offset="1" style="stop-color:#FFFFFF;stop-opacity:1" />
</linearGradient>
<path style="fill:url(#LinearGradID_9) " d="M84.85,-68.05L85.05 -67.9Q86.9 -70.3 90.05 -75.85L90.85 -77.25Q96.1 -86.8 96.1 -91.2Q96.1 -96.55 92.8 -96.55Q87.2 -96.55 79.75 -89.75Q72.65 -82.3 70.7 -81.1L70.05 -81.05Q65.5 -81.6 61.8 -82.6L55.2 -83.25Q50.55 -83.25 45.5 -81.3Q39.95 -79.2 37.9 -76L42.6 -73.6L46.25 -71.7Q50.95 -69.15 53.95 -66.05Q60.75 -58.85 70.95 -60.8L72.25 -60.8L72.55 -56.95L72.75 -56.45Q69.55 -55.1 67.3 -53.6Q63.6 -51.3 62.45 -48.7L62.15 -45.8L61.15 -35.15L61.05 -34Q57.85 -36.05 56.7 -37.2L56.7 -36.8Q57.6 -33.95 56.9 -31.4Q56.05 -28.6 53.7 -28.6Q51.9 -28.6 51.15 -31.4L50.3 -36.35Q49.35 -35.85 46.2 -35.85Q46.55 -33.65 44.95 -32.4Q43.6 -31.35 41.6 -31.35Q39.95 -31.15 39.4 -31.35Q38.5 -31.6 38.5 -33.4Q38.5 -34.9 40.3 -37.1L42.55 -39.5L37.85 -40.8Q33.85 -42.2 33.85 -44.05Q33.85 -45.5 34.9 -46.65L36.7 -48.6Q32.85 -49.1 30.65 -49.75Q26.6 -50.85 26.6 -53.15L26.85 -54.9L27.05 -56.8L23.4 -56.8Q22.5 -55.9 20.8 -55.35L18.85 -54.95L17.55 -56.95Q17.05 -57.85 17.25 -58.85L17.45 -59.1L17.45 -59.5L17.25 -58.85Q16.25 -57.7 15 -54.7L12.85 -55.95Q2.3 -61.65 -8.3 -63.95L-8.95 -66.55Q-10.7 -73.7 -10.7 -76.85L-10.7 -79.1Q-10.5 -79.55 -8.45 -79.55Q-7.05 -79.55 -5.05 -78.65L-1.6 -77.25L1.5 -77.25Q0.45 -78.35 -1.6 -82.7L3.8 -82.7L13.8 -82.25L13.8 -82.7Q10.55 -85.45 3.65 -87.9Q-1.85 -89.95 -7.05 -90.9Q-7.05 -92.35 -6.1 -95L-6.6 -95L-10.7 -93.4Q-13.3 -92.45 -13.85 -91.85L-17.55 -95.9L-18.4 -92.5L-18.9 -89.6Q-20.25 -89.6 -22.2 -90.45Q-24.15 -91.35 -25.5 -91.35Q-26.65 -91.35 -30 -90.25Q-33.65 -89 -34.45 -88.2L-33.95 -88.2L-29.4 -87.55Q-27.05 -87.15 -24.85 -85.9L-30.95 -82Q-34.9 -78.9 -34.9 -75.9Q-31.6 -78.55 -30.55 -78.9L-25.75 -79.1Q-19.6 -79.1 -16.15 -70.95Q-15 -68.1 -14.3 -64.95Q-20.7 -65.75 -27.05 -65.25Q-36.45 -64.55 -43.6 -61.15L-46.2 -59.75Q-51.35 -56.85 -55.2 -52.3Q-56.7 -53.35 -58.55 -54.1Q-58.35 -51.25 -61.45 -50.95Q-63.1 -50.75 -65.9 -50.9Q-65.9 -49.55 -65 -48.65L-65.05 -44.1L-72.8 -44.1L-70.25 -40.85Q-68.65 -38.8 -68.65 -36.15Q-68.65 -34.8 -71 -32.7L-71.85 -31.95Q-78.5 -35.3 -85 -34.15L-86.95 -33.7L-86.95 -35.9Q-86.65 -37.75 -85.75 -40.55L-84.25 -44.95Q-82.35 -50 -82.35 -54.35Q-82.35 -55.95 -82.65 -57.85L-83.05 -59.85L-83.05 -59.95L-83.75 -64.15Q-83.75 -64.5 -82.95 -65.1L-81.45 -65.95Q-81.45 -66.65 -81.9 -67.4L-82.35 -68.7Q-82.35 -69.95 -80.85 -71.6L-77.75 -74.6L-78.2 -74.6Q-80.3 -74.6 -82.85 -73.25Q-85.3 -71.95 -86.2 -71.95L-88.75 -73.15Q-90.7 -74.1 -91.75 -74.45L-91.9 -74.6L-92.35 -74.6L-91.75 -74.45L-90.5 -72.3L-89.15 -70.1Q-90.4 -70.55 -92.6 -68.7L-95.1 -66.4L-95.1 -63.25Q-94.25 -63.95 -92.45 -64.85Q-90.45 -65.95 -89.65 -65.95Q-89.2 -65.95 -87.8 -62.3L-86.7 -59.2L-86.4 -57.3Q-86.4 -54.75 -87.35 -51.4Q-88.45 -47.5 -88.75 -45Q-88.25 -43 -88.95 -41.55Q-89.6 -40.15 -91.35 -39.35L-94.3 -38.3Q-96 -37.8 -96.5 -37.25L-99.25 -37.25L-99.25 -40.95Q-97.85 -42.65 -97.85 -44.55Q-97.8 -46.9 -103.95 -55.75L-105.05 -57.3L-105.1 -57.4L-110.15 -65Q-110.15 -65.9 -105.2 -68.4Q-99.9 -70.95 -99.2 -71.45L-104.1 -72.1Q-107.4 -72.6 -107.4 -74.6Q-107.4 -77.35 -105.35 -80.1Q-103.7 -82.3 -101.95 -83.25Q-106.85 -82.05 -109.6 -80Q-112.85 -77.5 -113.8 -73.2L-115.65 -74.95L-117.2 -75.05Q-118.25 -75.05 -119.5 -74.2Q-121.05 -73.05 -122.05 -72.75L-121.65 -72.55L-121.6 -72.4Q-120.55 -72.55 -118.95 -71.15L-116.95 -69.15Q-120.6 -67 -122.7 -62.95Q-125 -58.3 -124.35 -53.2Q-123.8 -55.4 -120.5 -59.45L-119.7 -60.4Q-116.9 -63.65 -115.65 -63.65Q-114.2 -63.65 -108.35 -55.1L-108.3 -55Q-102.4 -46.2 -102.4 -43.65L-102.75 -41.9L-104.25 -36.85Q-106.15 -30.5 -106.55 -30.5Q-109 -30.5 -112.05 -32.2Q-115.25 -33.9 -115.65 -35.9L-117.5 -34.2L-118.85 -32.7L-121.5 -34.55L-123.5 -35.45Q-123.95 -34.05 -123.95 -30.95L-128.85 -33.15L-128.85 -30.95Q-126.75 -27.5 -131.35 -26.2L-135.45 -24.9L-135.4 -112.5L134.05 -114.4L134.05 -113.7L134.9 -17.4L133.3 -16.9Q131.5 -16.2 131.05 -16.2Q129.55 -16.2 128.7 -16.9Q127.85 -17.6 126.9 -17.6Q125.75 -17.6 123.5 -16.2Q121.25 -14.9 120.05 -14.9Q118.95 -14.9 117.6 -16.7Q116.25 -18.55 115.55 -18.55Q114.2 -18.55 113.05 -17.45Q111.5 -16.1 110.45 -15.75L108.1 -20.3Q111.4 -21.95 113 -23.55Q114.5 -25.15 114.5 -26.65Q114.5 -29.1 113.2 -30.75L110 -34.55L109.75 -34.9L109.85 -35Q111.25 -36.05 111.25 -36.95Q111.25 -41.05 109.2 -44.4Q107.05 -48.05 103.65 -48.4L103.6 -48.75Q104.9 -50.45 104.9 -51.8Q104.9 -54.95 102.2 -58.35Q99.15 -62.3 95.2 -62.3Q93.3 -62.3 90.05 -60.2L89.3 -59.65Q87.55 -64.45 85 -67.85L84.85 -68.05" />
<path style="fill:#FFFFFF;fill-opacity:1" d="M-135.45,50.75L-135.45 52L-135.45 73.3L-135.45 79.15L-135.5 110.55L135.95 108.05L135.25 26.85L135 -6.25L134.95 -10.3L134.9 -17.4L134.05 -113.7L134.05 -114.4L-135.4 -112.5L-135.45 -24.9L-135.45 -9.9L-135.45 22.75L-135.45 50.75M-1.15,-4.8L0.15 -7.1L2.75 -6.65L4.9 -6Q8.1 -4.25 9 0.9L9 1L9.15 2.15L9.25 2.95L9.25 3.05L9.2 3.15Q9.6 7.6 8.4 9.9L8.3 10.15L6.3 8.95L5.15 8.2L6.1 6.5Q7.25 3.55 6.45 0.95Q5.6 -1.75 3 -3.2Q1.6 -3.9 0.35 -3.65Q-0.05 -3.65 -1.7 -2.85L-1.15 -4.8M92.65,54.1L90.6 57.05L89.65 58.3L87.65 60.65Q83.4 65.5 78.15 69.3L74.15 71.95Q68.1 75.7 60.85 78.2L55.6 79.75L45.4 81.9Q45.4 80.15 45.95 78.4L45.95 78.35L46.85 76.05L47.8 74.35Q49.75 71.2 53.35 67.95Q59 62.9 66.25 59.4L66.75 59.6Q65.6 62.7 65.6 63.9Q65.6 67.9 67.75 67.9Q69.1 67.9 70.65 67.15Q73.15 65.95 76.2 62.65Q81.55 57.1 81.55 52.4L81.2 49.5L81.1 49.2L85.95 43.6Q89.5 39.55 90.75 36.95L95.25 27.5L95.9 26.05Q97.9 21.05 98.05 18.35Q98.15 16.6 99 10.05Q99.65 4.95 99.4 1.55Q99.15 -2.35 99.5 -5.8L99.6 -7.05Q99.85 -9.5 100.45 -11.45Q100.95 -13.1 101.6 -14.45L102.2 -14.6L102.65 -12.2L103.5 -5.9L104.2 2.8L104.55 12.25L104.1 21.85L103.6 26.25Q102.2 35.8 99 41.65L97.25 45.8L96.7 46.95Q94.85 50.7 92.65 54.1M5.5,1L4.7 2.15L4.4 2.15Q3.7 1.8 4.35 0.2Q4.7 -0.45 5.25 0Q5.9 0.35 5.5 1M18.25,48.95Q15.7 50.5 12.85 52.9Q12.7 52.1 12.7 50.6Q12.7 45.1 14.65 38.6L15.4 38.75L15.9 39.1L17.15 39.35L17.35 39.35L18 39.05L18.4 38.8Q17.7 43.5 18.25 48.95M37.25,31.35Q41.5 31.35 44.9 38.6Q47.85 45 47.85 50.7Q47.85 55.8 44.9 58.6Q41.7 61.6 35.45 61.6L32 61.5L29.15 60.95Q26.65 59.85 26.65 55.5Q26.65 51.8 28.85 45.25L29.65 42.9L30.95 39.6L32.2 40.8Q33 41.35 33.85 41.5L34.3 41.5Q36.55 41.5 37.85 39.6Q39 38 39 36.1Q39 34.35 37.8 33L36.8 32.05L37.25 31.35M148.5,-124.15L148.4 123.75L-147.15 124.95L-149.15 -124.9L148.5 -124.15M-20.1,-7.35Q-21.1 -8.65 -22.2 -9.25Q-25.6 -11.1 -28.95 -10.9Q-32.2 -10.75 -35.65 -8L-35.7 -7.8Q-36.75 -6.85 -37.35 -5.3Q-37.95 -3.75 -37.85 -1.8Q-37.75 0.2 -36.85 1.75Q-39.85 1.3 -42.65 0.1L-43.3 -0.25Q-43.9 -1.55 -43.45 -3.95Q-43 -6.4 -41.95 -8.25Q-39.5 -12.75 -32.3 -14.65Q-28.75 -15.6 -25.65 -15.4L-22.45 -14.85L-20.25 -13.95L-18.1 -12.7L-17.45 -10.75L-17.55 -10.45L-17.6 -10.2L-17.65 -10.1L-18.15 -8.9L-18.2 -8.8L-19.1 -7.2L-19.5 -6.5L-20.1 -7.35M-35.35,-7.35L-35.25 -7.2L-35.2 -7.1L-35.35 -7.35M-24.75,-7.55Q-24 -8.85 -22.8 -8.15Q-21.65 -7.45 -22.4 -6.05L-22.8 -5.3Q-23.25 -4.85 -23.8 -5.1Q-24.8 -5.7 -24.9 -6.65L-24.75 -7.55M-14.6,34.25L-13.15 34.5L-6.1 34.95L-5.45 35L-5.5 35.5Q-6.3 37.25 -7.25 38Q-8.2 38.8 -9.25 38.65Q-13.8 38.5 -14.85 37.95Q-15.65 37.5 -15.5 36.9L-14.65 34.55L-14.6 34.25M-46.15,23.05L-44.3 20.8L-36.15 25.2Q-35.55 25.95 -35.15 27.15L-34.9 28.45L-35.1 29.2Q-36.6 31.9 -38 31.85Q-38.65 31.7 -41.35 30.25L-42.05 29.9Q-45.75 27.9 -46.5 26.5Q-47.4 24.95 -46.15 23.05" />
<path style="fill:#72C6E2;fill-opacity:1" d="M72.25,-60.8L70.95 -60.8L72.2 -60.95L72.25 -60.8M89.65,-79.35Q89.65 -81.8 90.7 -84.6Q91.65 -87.45 91.65 -88.85L91.65 -90.45Q91.5 -91.5 90.8 -91.5Q85.6 -87.15 80.15 -82.9Q69.2 -74.25 67.35 -74.25Q65.45 -74.25 62.3 -75.35Q59.2 -76.5 57.9 -76.5Q52.05 -76.55 46.8 -74.85L42.6 -73.6L37.9 -76Q39.95 -79.2 45.5 -81.3Q50.55 -83.25 55.2 -83.25L61.8 -82.6Q65.5 -81.6 70.05 -81.05L70.7 -81.1Q72.65 -82.3 79.75 -89.75Q87.2 -96.55 92.8 -96.55Q96.1 -96.55 96.1 -91.2Q96.1 -86.8 90.85 -77.25L90.05 -75.85Q89.65 -77.6 89.65 -79.35M52.3,4.95Q45.6 -1.85 45 -1.85Q43.55 -1.85 41.25 0.55L44.2 -4.6L45.7 -7.1Q47.45 -9.95 52.85 -4.8L53.55 -4.1L54.05 -3.55Q57.6 0.25 60.2 2.5Q62.25 4.3 63.75 5.1L66.55 6.45L66 6.5L58.8 7.65L55.8 8.25L52.3 4.95M115.1,27.9Q117.1 30.7 117.1 32.95Q117.1 34.7 110.8 37.1L111.05 36.45L112.45 32.95L107.45 26.3L107.4 26.25L104.1 21.85L104.55 12.25L107.7 18.05Q109.55 21.4 111.1 23.15L113.85 26.45L115.1 27.9M69.6,63.4Q69.6 62 71.75 56.95Q73.85 51.9 73.85 47.45Q73.85 45.25 72.95 41.85Q71.55 36.7 69.05 36.7L67.75 36.9L67.4 35Q67.4 34.45 67.65 34.2L67.75 33.75L68.95 32.4Q69.85 31.6 71.15 31.6Q73.85 31.6 77.8 40.35Q80.2 45.65 81.1 49.2L81.2 49.5L81.55 52.4Q81.55 57.1 76.2 62.65Q73.15 65.95 70.65 67.15Q69.6 64.75 69.6 63.4M49.15,31.25Q47.25 28.2 45.6 26.7L45.1 26.3Q43.6 25.05 41.1 24.1L38.4 23.05L38.9 22.55L39.65 21.75L40.05 21.65L40.75 21.55Q44.5 21.55 47.35 24.45L48.95 26.45Q50.4 28.8 50.4 31.8L50.4 33.25L50.4 33.6Q50.3 34.6 49.75 35.2L47.9 32L49.15 31.25" />
<path style="fill:#5BABC6;fill-opacity:1" d="M70.95,-60.8Q60.75 -58.85 53.95 -66.05Q50.95 -69.15 46.25 -71.7L42.6 -73.6L46.8 -74.85Q52.05 -76.55 57.9 -76.5Q59.2 -76.5 62.3 -75.35Q65.45 -74.25 67.35 -74.25Q69.2 -74.25 80.15 -82.9Q85.6 -87.15 90.8 -91.5Q91.5 -91.5 91.65 -90.45L91.65 -88.85Q91.65 -87.45 90.7 -84.6Q89.65 -81.8 89.65 -79.35Q89.65 -77.6 90.05 -75.85Q86.9 -70.3 85.05 -67.9L84.85 -68.05Q81.05 -72.9 76.7 -72.9Q75.1 -72.9 73.4 -72L71.95 -70.9Q71.3 -70.2 71.3 -69.25Q71.3 -67.55 71.9 -63.35L72.2 -60.95L70.95 -60.8M55.8,8.25Q43 10.85 35.15 15.1L36 12.3Q37.1 8.15 41.25 0.55Q43.55 -1.85 45 -1.85Q45.6 -1.85 52.3 4.95L55.8 8.25M99,41.65Q102.2 35.8 103.6 26.25L104.1 21.85L107.4 26.25L107.45 26.3L112.45 32.95L111.05 36.45L110.8 37.1L109.9 37.4Q100.8 40.6 99 41.65M66.95,83.8Q65.85 84.4 64.85 84.4Q64.25 84.4 63 83.9L59.85 82.25Q56.4 80.05 55.6 79.75L60.85 78.2Q68.1 75.7 74.15 71.95Q72.9 75.75 71.05 78.95L70.5 79.9Q68.65 82.7 66.95 83.8M67.75,36.9L69.05 36.7Q71.55 36.7 72.95 41.85Q73.85 45.25 73.85 47.45Q73.85 51.9 71.75 56.95Q69.6 62 69.6 63.4Q69.6 64.75 70.65 67.15Q69.1 67.9 67.75 67.9Q65.6 67.9 65.6 63.9Q65.6 62.7 66.75 59.6L67.5 57.5Q69.4 52.6 69.4 48.35Q69.4 45.45 68.45 40.3L67.75 36.9M38.4,23.05L41.1 24.1Q43.6 25.05 45.1 26.3L45.6 26.7Q47.25 28.2 49.15 31.25L47.9 32Q46.65 30.05 45.4 28.75Q45.05 28.35 42.1 27L41.15 26.55Q37.55 24.9 37.55 24.6Q37.55 24 38.25 23.2L38.4 23.05" />
<path style="fill:#A4A4E2;fill-opacity:1" d="M73.45,-56.75L72.75 -56.45L72.55 -56.95L72.25 -60.8L72.2 -60.95L71.9 -63.35Q71.3 -67.55 71.3 -69.25Q71.3 -70.2 71.95 -70.9L74.15 -70.35Q78.05 -69.05 79.9 -66.7Q80.75 -65.65 82.55 -60.15L82.75 -59.6Q80.2 -59.5 73.45 -56.75M-0.1,62.35L0.1 62.15Q1.85 61.2 3.7 61.1Q3.8 60.95 4 60.9L8.35 56.95L12.7 53L12.85 52.9Q15.7 50.5 18.25 48.95Q17.7 43.5 18.4 38.8L18.4 38.75Q18.95 34.4 20.5 30.8L21.45 28.7Q23.5 24.5 26.85 21.15L27.8 21.3L34.65 19.35L36.3 18.85Q41.95 17.35 43.55 17.35Q48.5 17.35 51.2 18.85Q52.6 19.65 54.95 22.25Q57.05 24.6 60.45 25.8Q64.15 27.15 69.35 27.15Q77.3 27.15 81.55 25.7Q83.7 24.9 84.9 23.75Q86.6 22 88.55 17.8L93.15 7.65L89.85 6.8Q86.6 5.85 85.55 5.85L75.8 6.75L69.55 6.55L68.3 6.2L66.55 6.45L63.75 5.1Q62.25 4.3 60.2 2.5L62.15 -5L62.25 -5.5L64.05 -12.2Q67.8 -13.6 71.55 -16.95L75.3 -20.85L77.95 -24.1L81.1 -29.05Q82.75 -29.05 83.5 -27.4L83.9 -26.1L84.3 -22.25L84.6 -19.55L84.75 -18.6Q85.95 -10.05 93.35 -10.05Q95.85 -10.05 100.45 -11.45Q99.85 -9.5 99.6 -7.05L99.5 -5.8Q99.15 -2.35 99.4 1.55Q99.65 4.95 99 10.05Q98.15 16.6 98.05 18.35Q97.9 21.05 95.9 26.05L95.25 27.5L90.75 36.95Q89.5 39.55 85.95 43.6L81.1 49.2Q80.2 45.65 77.8 40.35Q73.85 31.6 71.15 31.6Q69.85 31.6 68.95 32.4L67.75 33.75L67.65 34.2Q67.4 34.45 67.4 35L67.75 36.9L68.45 40.3Q69.4 45.45 69.4 48.35Q69.4 52.6 67.5 57.5L66.75 59.6L66.25 59.4Q59 62.9 53.35 67.95Q49.75 71.2 47.8 74.35L45.1 75.1L42.6 75.6L31.1 76.25Q21.65 76.25 14.9 74.55L10.15 73Q1.5 69.4 -0.1 62.35M39.65,21.75L38.9 22.55L38.4 23.05L38.25 23.2Q37.55 24 37.55 24.6Q37.55 24.9 41.15 26.55L42.1 27Q45.05 28.35 45.4 28.75Q46.65 30.05 47.9 32L49.75 35.2Q50.3 34.6 50.4 33.6L50.4 33.25L50.4 31.8Q50.4 28.8 48.95 26.45L47.35 24.45Q44.5 21.55 40.75 21.55L40.05 21.65L40 21.35L39.65 21.75M29.65,42.9L28.85 45.25Q26.65 51.8 26.65 55.5Q26.65 59.85 29.15 60.95L32 61.5L35.45 61.6Q41.7 61.6 44.9 58.6Q47.85 55.8 47.85 50.7Q47.85 45 44.9 38.6Q41.5 31.35 37.25 31.35Q36.4 31.35 35.6 31.7L34.2 32.8L33.85 33.15L33.1 34.35L32.45 36.05L31.85 37.3L30.95 39.6L29.65 42.9M22.25,68.65Q22.95 67.9 22.95 66.85Q22.95 65.65 22.1 65.05Q21.3 64.5 20.3 64.5L19.25 64.55L18.9 64.9L18.2 65.7L17.9 66.15L17.4 67.35Q17.4 68.4 18.6 68.95L20.35 69.3Q21.4 69.3 22.25 68.65M20.7,54.1L18.25 53.7Q17.45 53.7 13.25 56.55L12.7 56.95Q9.65 59.1 8.35 60.4L8.25 62.25L8.6 63.25Q9.05 63.9 10.05 63.9Q11.05 63.9 15.15 61.15L19.5 57.9L20.7 56.75L20.7 54.1" />
<path style="fill:#C0C0F0;fill-opacity:1" d="M85,-67.85Q87.55 -64.45 89.3 -59.65L86.5 -57.7L86.45 -57.75Q84.85 -59.6 82.95 -59.6L82.75 -59.6L82.55 -60.15Q80.75 -65.65 79.9 -66.7Q78.05 -69.05 74.15 -70.35L71.95 -70.9L73.4 -72Q75.1 -72.9 76.7 -72.9Q81.05 -72.9 84.85 -68.05L85 -67.85M55.8,8.25L58.8 7.65L66 6.5L66.55 6.45L68.3 6.2L69.55 6.55L75.8 6.75L85.55 5.85Q86.6 5.85 89.85 6.8L93.15 7.65L88.55 17.8Q86.6 22 84.9 23.75Q83.7 24.9 81.55 25.7Q77.3 27.15 69.35 27.15Q64.15 27.15 60.45 25.8Q57.05 24.6 54.95 22.25Q52.6 19.65 51.2 18.85Q48.5 17.35 43.55 17.35Q41.95 17.35 36.3 18.85L34.65 19.35L27.8 21.3L26.85 21.15Q29.35 18.6 32.65 16.5Q33.8 15.75 35.15 15.1Q43 10.85 55.8 8.25M20.7,56.75L19.5 57.9L15.15 61.15Q11.05 63.9 10.05 63.9Q9.05 63.9 8.6 63.25L8.25 62.25L8.35 60.4Q9.65 59.1 12.7 56.95L13.25 56.55Q17.45 53.7 18.25 53.7L20.7 54.1L20.7 56.75" />
<path style="fill:#FFC599;fill-opacity:1" d="M-70.85,-31.45L-68.15 -29.95L-66.5 -28.05L-65.95 -27.5L-66.35 -26.75L-66.2 -24.45Q-66.1 -19.75 -68.55 -13.25L-68.4 -13.2L-69.1 -12.95Q-72.6 -11.95 -74.55 -13Q-75.45 -13.45 -75.75 -14.55Q-75.2 -18 -75.85 -20.45Q-76.55 -22.85 -80.15 -24.8Q-83.7 -26.75 -85.95 -26.55Q-88.55 -26.45 -90.3 -23.85Q-90.65 -23.05 -90.6 -21.95Q-90.6 -20.85 -90.25 -20.6L-88.2 -20.7Q-86.2 -20.7 -84.1 -19.65Q-80.3 -17.55 -80.05 -13.95Q-79.9 -11.75 -81.4 -7.2L-81.65 -6.4Q-82.7 -3.4 -82.95 -1.6L-83.4 -1.65Q-85.8 -1.65 -88.1 -2.9Q-91.05 -4.5 -93.15 -6.9Q-95.45 -9.5 -96.7 -13.05Q-99.35 -20.15 -96.1 -26.1Q-92.9 -31.95 -86.95 -33.7L-85 -34.15Q-78.5 -35.3 -71.85 -31.95L-70.85 -31.45M-36.1,58.4L-36.15 58.4L-36.3 58.35L-40.1 57.05Q-50.1 53.55 -54.65 51.1Q-62.7 46.7 -66.25 41.95L-66.6 41.5Q-69.65 37.05 -71.45 28.7L-71.85 26.85Q-72.3 24.85 -72.45 19.55Q-72.55 14.15 -73.2 11.3L-73.95 5.45L-74 2.55Q-73.65 -1.7 -71.25 -6.1L-71.25 -6.2L-68.95 -10.15L-65.55 -12.5L-63.25 -11.95L-60.95 -11.05L-63.9 -10.95L-65.15 -9.95L-66.75 -7.9Q-66.9 -7 -66 -5.9L-64.6 -4.45Q-62.8 -2.85 -60.1 -1.4Q-58.3 -0.35 -57.1 -0.3Q-55.4 -0.25 -54.45 -2Q-53.7 -3.4 -54.65 -5.3L-55.6 -6.85Q-57.2 -9 -59.05 -10.15L-58.7 -10L-56.35 -8.15Q-56.15 -9.6 -53.55 -14.5Q-49.25 -22.45 -49.2 -23.05Q-49 -24 -50.45 -34.75Q-51.2 -40.7 -49.7 -46.85Q-48.4 -52.45 -45.2 -58.2L-46.2 -59.75L-43.6 -61.15Q-36.45 -64.55 -27.05 -65.25Q-20.7 -65.75 -14.3 -64.95L-8.3 -63.95Q2.3 -61.65 12.85 -55.95L15 -54.7Q28.7 -46.35 28.35 -32.1Q27.95 -21.4 18.6 -4L18.4 -3.7L17.75 -2.45L15.7 2L18.05 2.2Q19.85 2.1 21.4 2.95Q24.55 4.65 24.15 7.45Q23.95 8.7 21.85 12.9Q20.15 16.4 20.45 18.55L20.65 19.5Q18.45 20.05 15.85 19.55L15.7 19.55L15.7 19.6L15.75 21Q15.95 25.05 15 29.1Q14.4 31.55 13.45 34L14.8 33.95L16.5 34Q15.55 35.65 14.8 38.1L15.4 38.75L14.65 38.6Q12.7 45.1 12.7 50.6Q12.7 52.1 12.85 52.9L12.7 53L8.35 56.95L4.85 57.65L2.65 58.15L1.85 58.45Q-5.45 61.6 -15.3 66.5Q-25.45 71.55 -30.95 75.35L-35.5 79L-44.3 78.15Q-48.45 78.15 -55.05 80.2Q-61.6 82.2 -64.4 82.2Q-69.65 82.2 -75.75 80.4L-80 78.9L-80.8 78.6L-80 76.45Q-83.25 74.5 -89 72.95Q-93.15 71.2 -93.1 66.65Q-93.1 60.9 -84.05 58.05Q-77.7 56 -70.3 56L-60.95 56.8L-50.85 57.7L-45.55 57.55Q-41.05 59.1 -36.7 59.95L-36.6 60L-36.35 60L-27.9 61L-36.1 58.4M97.45,-43.45L100.35 -43.45Q103.5 -43.45 105.95 -39.45L109.15 -34.5L109.75 -34.9L110 -34.55L113.2 -30.75Q114.5 -29.1 114.5 -26.65Q114.5 -25.15 113 -23.55L107.05 -22.15L105.9 -21.9Q100.05 -20.55 97.3 -22.25L97.1 -22.35Q95.65 -23.3 95.2 -24.8Q94.9 -25.8 94.85 -27.9L94.85 -28.2Q94.65 -29.35 93.3 -30.65Q91.75 -32.15 91.75 -33.7Q91.75 -34.95 92.25 -37.25L92.8 -39.75L92.6 -40.25L90.95 -42.25Q90 -43.25 89.6 -43.95Q88.2 -41.75 84.5 -39.7L81.7 -38.05Q78.2 -35.75 77.85 -34.25Q77.25 -31.3 73.55 -27.35L73.2 -27.05L68.25 -21.9Q65.15 -27.2 63.7 -32.4L63.5 -33.1L63 -35.5Q62.1 -40.1 62.15 -45.8L62.45 -48.7Q63.6 -51.3 67.3 -53.6L67.2 -53.05Q67.2 -49.6 71.9 -46.5Q76.25 -43.65 80.35 -43.65Q82.65 -43.65 89.05 -45.55L90.3 -45.95L90.35 -46.45Q90.35 -49.85 88.6 -54.2L91.4 -54.9L98.55 -52.45Q99.85 -52.05 101.45 -50.2L103.2 -48.2L103.6 -48.75L103.65 -48.4L103.2 -48.2Q101.25 -46.1 97.45 -43.45M6.6,-54.95L6.55 -54.7Q6.25 -54.25 6.6 -54.95L6.45 -55.1L6.65 -55Q7.15 -55.9 0.75 -58.3Q-3.5 -59.9 -7.45 -60.75L-12 -61.55L-13.8 -61.8L-20.9 -63.4Q-23.4 -63.65 -26.55 -62.45L-28.1 -61.7Q-29.05 -61.2 -30.05 -60.75L-31.95 -59.25Q-33.6 -57.65 -35.35 -54.35Q-38.35 -48.85 -37.15 -44.15L-37 -43.65Q-35.5 -38.9 -29.25 -35.5Q-25.65 -33.5 -23.05 -33.15L-15.2 -31.75Q-13 -31.2 -8.8 -29.1L-1.75 -25.7Q10.5 -20.05 14.3 -20.35Q18.4 -20.8 22.55 -28.4L23.05 -29.35Q23.15 -29.7 22.8 -29.9Q23.05 -29.75 23.15 -29.9L23.35 -30.6Q24.45 -32.5 22.6 -38.8Q20.8 -44.55 19.25 -46.05Q15.4 -50 13.55 -51.3L13.05 -51.65L6.65 -55L6.6 -54.95M2.4,6.05L5.15 8.2L6.3 8.95L8.3 10.15L8.4 9.9Q9.6 7.6 9.2 3.15L9.25 3.05L9.25 2.95L9.15 2.15L9 1L9 0.9Q8.1 -4.25 4.9 -6L2.75 -6.65L0.15 -7.1L-1.15 -4.8L-1.7 -2.85Q-1.9 -1.35 -1.55 0.2Q-1.1 2.1 0.4 3.95L1.1 4.8L1.2 4.95L2.4 6.05M3.65,-10.95L8.7 -6.5L13.25 -1.75Q13.4 -2.05 14.8 -2.9Q15.35 -3.95 12.35 -8.85Q9.5 -13.6 7.9 -14.85L4.3 -12.1L3.65 -10.95M6.05,20.65Q9.6 21.1 10.55 19.45Q11.5 17.6 7 13.95Q4.1 11.45 1.4 10Q-1.35 8.55 -2.75 11.05L-3.1 12.65L-3.1 13.4Q-3.2 16.8 0.45 18.8Q3.1 20.25 6.05 20.65M-59.3,29.1L-59.3 30.3Q-56.7 42.45 -48 47.1Q-44.5 49.05 -40.25 49.9L-31.9 51.4Q-28.65 52.1 -24.7 51.45Q-20.2 50.65 -17.7 48.3L-14.9 46.4L-5.75 40.05L-4.05 38.8L0.9 35.35Q7.4 30.45 9.2 27.65L8.8 25.25L-5.25 27.2L-14.85 27.55Q-21.85 26.9 -36.35 19L-45.45 13.95Q-49.95 11.1 -52.55 7.95L-55.5 6.4L-59.3 7.9L-61.35 9.1L-61.5 9.1Q-62.95 9.85 -64 10.7Q-62.2 14.3 -61.1 20.25L-59.5 29.1L-59.3 29.1M-68.4,-13.2L-66.1 -14.05L-65.55 -12.5L-67.2 -12.55L-67.45 -12.65L-68.4 -13.2M-42.6,-18.7L-42.8 -18.6L-42 -17.2L-41.4 -16.1L-35.3 -16.5L-32.55 -16.8L-29.45 -17.25L-25.7 -17.25L-25.6 -17.2L-22.05 -17.05L-17.05 -16.9L-16.2 -23.75L-28.85 -22.55Q-37.05 -21.1 -42.7 -18.8L-42.6 -18.7M-35.1,1.8L-31.95 1.65L-30.35 1.4L-29.8 1.25Q-26.65 0.45 -24.1 -1.3L-23.15 -2.1L-23.1 -2.15L-22.9 -2.3Q-21.35 -3.75 -20.15 -5.5L-19.5 -6.5L-19.1 -7.2L-18.2 -8.8L-18.15 -8.9L-17.65 -10.1L-17.6 -10.2L-17.55 -10.45L-17.45 -10.75L-18.1 -12.7L-20.25 -13.95L-22.45 -14.85L-25.65 -15.4Q-28.75 -15.6 -32.3 -14.65Q-39.5 -12.75 -41.95 -8.25Q-43 -6.4 -43.45 -3.95Q-43.9 -1.55 -43.3 -0.25L-42.65 0.1Q-39.85 1.3 -36.85 1.75L-35.1 1.8" />
<path style="fill:#FCCEAB;fill-opacity:1" d="M97.45,-43.45Q101.25 -46.1 103.2 -48.2L101.45 -50.2Q99.85 -52.05 98.55 -52.45L91.4 -54.9L88.6 -54.2Q90.35 -49.85 90.35 -46.45L90.3 -45.95L89.05 -45.55Q82.65 -43.65 80.35 -43.65Q76.25 -43.65 71.9 -46.5Q67.2 -49.6 67.2 -53.05L67.3 -53.6Q69.55 -55.1 72.75 -56.45L73.45 -56.75Q80.2 -59.5 82.75 -59.6L82.95 -59.6Q84.85 -59.6 86.45 -57.75L86.5 -57.7L89.3 -59.65L90.05 -60.2Q93.3 -62.3 95.2 -62.3Q99.15 -62.3 102.2 -58.35Q104.9 -54.95 104.9 -51.8Q104.9 -50.45 103.6 -48.75L103.2 -48.2L103.65 -48.4M103.65,-48.4Q107.05 -48.05 109.2 -44.4Q111.25 -41.05 111.25 -36.95Q111.25 -36.05 109.85 -35L109.75 -34.9L109.15 -34.5L105.95 -39.45Q103.5 -43.45 100.35 -43.45L97.45 -43.45M6.55,-54.7L6.6 -54.95Q6.25 -54.25 6.55 -54.7M6.65,-55L13.05 -51.65L13.55 -51.3Q15.4 -50 19.25 -46.05Q20.8 -44.55 22.6 -38.8Q24.45 -32.5 23.35 -30.6L23.15 -29.9Q23.05 -29.75 22.8 -29.9Q23.15 -29.7 23.05 -29.35L22.55 -28.4Q18.4 -20.8 14.3 -20.35Q10.5 -20.05 -1.75 -25.7L-8.8 -29.1Q-13 -31.2 -15.2 -31.75L-23.05 -33.15Q-25.65 -33.5 -29.25 -35.5Q-35.5 -38.9 -37 -43.65L-37.15 -44.15Q-38.35 -48.85 -35.35 -54.35Q-33.6 -57.65 -31.95 -59.25L-30.05 -60.75Q-29.05 -61.2 -28.1 -61.7L-26.55 -62.45Q-23.4 -63.65 -20.9 -63.4L-13.8 -61.8L-12 -61.55L-7.45 -60.75Q-3.5 -59.9 0.75 -58.3Q7.15 -55.9 6.65 -55L6.45 -55.1L6.6 -54.95L6.65 -55M11.4,-50.15Q8.8 -50.65 7.5 -48.35Q6.95 -47.25 9.35 -43.45L9.35 -43.4Q12.2 -39 16.25 -36.8Q18.3 -35.65 19.25 -36.1L20.4 -37.65Q21.3 -39.35 19.9 -42.15Q18.7 -44.85 16.35 -47.15Q14.5 -48.9 12.85 -49.65L11.4 -50.15M17.75,-2.45L18.7 -2.8L20.3 -3.5Q22.95 -4.35 24.65 -3.45Q28.85 -1.15 29.25 4.9Q29.6 10.1 27.3 14.35Q25.5 17.7 22.35 18.95L20.65 19.5L20.45 18.55Q20.15 16.4 21.85 12.9Q23.95 8.7 24.15 7.45Q24.55 4.65 21.4 2.95Q19.85 2.1 18.05 2.2L15.7 2L17.75 -2.45M0.45,18.8Q-3.2 16.8 -3.1 13.4L-3.1 12.65L-2.75 11.05Q-1.35 8.55 1.4 10Q4.1 11.45 7 13.95Q11.5 17.6 10.55 19.45Q9.6 21.1 6.05 20.65Q3.1 20.25 0.45 18.8M-59.15,-10.3L-59.05 -10.15Q-57.2 -9 -55.6 -6.85L-54.65 -5.3Q-53.7 -3.4 -54.45 -2Q-55.4 -0.25 -57.1 -0.3Q-58.3 -0.35 -60.1 -1.4Q-62.8 -2.85 -64.6 -4.45L-66 -5.9Q-66.9 -7 -66.75 -7.9L-65.15 -9.95L-63.9 -10.95L-60.95 -11.05L-59.15 -10.3" />
<path style="fill:#8ED295;fill-opacity:1" d="M-135.45,-24.9L-131.35 -26.2Q-126.75 -27.5 -128.85 -30.95L-128.85 -33.15L-123.95 -30.95Q-123.95 -34.05 -123.5 -35.45L-121.5 -34.55L-118.85 -32.7L-117.5 -34.2L-115.65 -35.9Q-115.25 -33.9 -112.05 -32.2Q-109 -30.5 -106.55 -30.5Q-106.15 -30.5 -104.25 -36.85L-102.75 -41.9L-102.4 -43.65Q-102.4 -46.2 -108.3 -55L-108.35 -55.1Q-114.2 -63.65 -115.65 -63.65Q-116.9 -63.65 -119.7 -60.4L-120.5 -59.45Q-123.8 -55.4 -124.35 -53.2Q-125 -58.3 -122.7 -62.95Q-120.6 -67 -116.95 -69.15L-118.95 -71.15Q-120.55 -72.55 -121.6 -72.4L-121.65 -72.55L-122.05 -72.75Q-121.05 -73.05 -119.5 -74.2Q-118.25 -75.05 -117.2 -75.05L-115.65 -74.95L-113.8 -73.2Q-112.85 -77.5 -109.6 -80Q-106.85 -82.05 -101.95 -83.25Q-103.7 -82.3 -105.35 -80.1Q-107.4 -77.35 -107.4 -74.6Q-107.4 -72.6 -104.1 -72.1L-99.2 -71.45Q-99.9 -70.95 -105.2 -68.4Q-110.15 -65.9 -110.15 -65L-105.1 -57.4L-105.05 -57.3L-103.95 -55.75Q-97.8 -46.9 -97.85 -44.55Q-97.85 -42.65 -99.25 -40.95L-99.25 -37.25L-96.5 -37.25Q-96 -37.8 -94.3 -38.3L-91.35 -39.35Q-89.6 -40.15 -88.95 -41.55Q-88.25 -43 -88.75 -45Q-88.45 -47.5 -87.35 -51.4Q-86.4 -54.75 -86.4 -57.3L-86.7 -59.2L-87.8 -62.3Q-89.2 -65.95 -89.65 -65.95Q-90.45 -65.95 -92.45 -64.85Q-94.25 -63.95 -95.1 -63.25L-95.1 -66.4L-92.6 -68.7Q-90.4 -70.55 -89.15 -70.1L-90.5 -72.3L-91.75 -74.45Q-90.7 -74.1 -88.75 -73.15L-86.2 -71.95Q-85.3 -71.95 -82.85 -73.25Q-80.3 -74.6 -78.2 -74.6L-77.75 -74.6L-80.85 -71.6Q-82.35 -69.95 -82.35 -68.7L-81.9 -67.4Q-81.45 -66.65 -81.45 -65.95L-82.95 -65.1Q-83.75 -64.5 -83.75 -64.15L-83.05 -59.95L-83.05 -59.85L-82.65 -57.85Q-82.35 -55.95 -82.35 -54.35Q-82.35 -50 -84.25 -44.95L-85.75 -40.55Q-86.65 -37.75 -86.95 -35.9L-86.95 -33.7Q-92.9 -31.95 -96.1 -26.1Q-99.35 -20.15 -96.7 -13.05Q-95.45 -9.5 -93.15 -6.9L-110.2 -8.35L-133.3 -10L-135.45 -9.9L-135.45 -24.9M-59.7,-45.8Q-63.1 -39.45 -65.95 -27.5L-66.5 -28.05L-68.15 -29.95L-70.85 -31.45L-71.85 -31.95L-71 -32.7Q-68.65 -34.8 -68.65 -36.15Q-68.65 -38.8 -70.25 -40.85L-72.8 -44.1L-65.05 -44.1L-65 -48.65Q-65.9 -49.55 -65.9 -50.9Q-63.1 -50.75 -61.45 -50.95Q-58.35 -51.25 -58.55 -54.1Q-56.7 -53.35 -55.2 -52.3Q-57.7 -49.4 -59.7 -45.8M-14.3,-64.95Q-15 -68.1 -16.15 -70.95Q-19.6 -79.1 -25.75 -79.1L-30.55 -78.9Q-31.6 -78.55 -34.9 -75.9Q-34.9 -78.9 -30.95 -82L-24.85 -85.9Q-27.05 -87.15 -29.4 -87.55L-33.95 -88.2L-34.45 -88.2Q-33.65 -89 -30 -90.25Q-26.65 -91.35 -25.5 -91.35Q-24.15 -91.35 -22.2 -90.45Q-20.25 -89.6 -18.9 -89.6L-18.4 -92.5L-17.55 -95.9L-13.85 -91.85Q-13.3 -92.45 -10.7 -93.4L-6.6 -95L-6.1 -95Q-7.05 -92.35 -7.05 -90.9Q-1.85 -89.95 3.65 -87.9Q10.55 -85.45 13.8 -82.7L13.8 -82.25L3.8 -82.7L-1.6 -82.7Q0.45 -78.35 1.5 -77.25L-1.6 -77.25L-5.05 -78.65Q-7.05 -79.55 -8.45 -79.55Q-10.5 -79.55 -10.7 -79.1L-10.7 -76.85Q-10.7 -73.7 -8.95 -66.55L-8.3 -63.95L-14.3 -64.95M52.85,-4.8Q47.45 -9.95 45.7 -7.1L44.2 -4.6L18.6 -4Q27.95 -21.4 28.35 -32.1Q28.7 -46.35 15 -54.7Q16.25 -57.7 17.25 -58.85Q17.05 -57.85 17.55 -56.95L18.85 -54.95L20.8 -55.35Q22.5 -55.9 23.4 -56.8L27.05 -56.8L26.85 -54.9L26.6 -53.15Q26.6 -50.85 30.65 -49.75Q32.85 -49.1 36.7 -48.6L34.9 -46.65Q33.85 -45.5 33.85 -44.05Q33.85 -42.2 37.85 -40.8L42.55 -39.5L40.3 -37.1Q38.5 -34.9 38.5 -33.4Q38.5 -31.6 39.4 -31.35Q39.95 -31.15 41.6 -31.35Q43.6 -31.35 44.95 -32.4Q46.55 -33.65 46.2 -35.85Q49.35 -35.85 50.3 -36.35L51.15 -31.4Q51.9 -28.6 53.7 -28.6Q56.05 -28.6 56.9 -31.4Q57.6 -33.95 56.7 -36.8L56.7 -37.2Q57.85 -36.05 61.05 -34Q60.35 -26.5 60.35 -21.5Q59.6 -17.75 57.3 -12.25L54.1 -4.8L52.85 -4.8M134.95,-10.3Q133.9 -10.25 132.8 -10.75L132.9 -6.4L131.25 -6.45L119.25 -6.2Q119.25 -6.85 118.55 -6.65L117.2 -6.2L117.1 -6.2L103.5 -5.9L102.65 -12.2L102.2 -14.6L101.65 -17.6L101.7 -17.6L105.45 -19.1L108.1 -20.3L110.45 -15.75Q111.5 -16.1 113.05 -17.45Q114.2 -18.55 115.55 -18.55Q116.25 -18.55 117.6 -16.7Q118.95 -14.9 120.05 -14.9Q121.25 -14.9 123.5 -16.2Q125.75 -17.6 126.9 -17.6Q127.85 -17.6 128.7 -16.9Q129.55 -16.2 131.05 -16.2Q131.5 -16.2 133.3 -16.9L134.9 -17.4L134.95 -10.3" />
<path style="fill:#F7D7BF;fill-opacity:1" d="M12.85,-49.65Q14.5 -48.9 16.35 -47.15Q18.7 -44.85 19.9 -42.15Q21.3 -39.35 20.4 -37.65L19.25 -36.1Q18.3 -35.65 16.25 -36.8Q12.2 -39 9.35 -43.4L9.35 -43.45Q6.95 -47.25 7.5 -48.35Q8.8 -50.65 11.4 -50.15L12.85 -49.65" />
<path style="fill:#705133;fill-opacity:1" d="M4.3,-12.1L7.9 -14.85Q9.5 -13.6 12.35 -8.85Q15.35 -3.95 14.8 -2.9Q13.4 -2.05 13.25 -1.75L8.7 -6.5L3.65 -10.95L4.3 -12.1M-42.7,-18.8Q-37.05 -21.1 -28.85 -22.55L-16.2 -23.75L-17.05 -16.9L-22.05 -17.05L-25.6 -17.2L-25.7 -17.25L-29.45 -17.25L-32.55 -16.8L-35.3 -16.5L-41.4 -16.1L-42 -17.2L-42.8 -18.6L-42.6 -18.7L-42.7 -18.8" />
<path style="fill:#426180;fill-opacity:1" d="M2.4,6.05Q3.3 3.65 3.2 2.7Q3.15 1.2 1.6 0.4L-1.55 0.2Q-1.9 -1.35 -1.7 -2.85Q-0.05 -3.65 0.35 -3.65Q1.6 -3.9 3 -3.2Q5.6 -1.75 6.45 0.95Q7.25 3.55 6.1 6.5L5.15 8.2L2.4 6.05M5.25,0Q4.7 -0.45 4.35 0.2Q3.7 1.8 4.4 2.15L4.7 2.15L5.5 1Q5.9 0.35 5.25 0M-24.3,-1.6L-24.3 -3Q-24.55 -3.4 -25.15 -3.7Q-26.65 -4.45 -28.2 -4.15Q-29.85 -3.9 -30.65 -2.55Q-31.2 -1.45 -31.1 -0.65Q-30.95 0.15 -29.8 1.25L-30.35 1.4L-31.95 1.65L-35.1 1.8L-36.85 1.75Q-37.75 0.2 -37.85 -1.8Q-37.95 -3.75 -37.35 -5.3Q-36.75 -6.85 -35.7 -7.8L-35.65 -8Q-32.2 -10.75 -28.95 -10.9Q-25.6 -11.1 -22.2 -9.25Q-21.1 -8.65 -20.1 -7.35L-19.5 -6.5L-20.15 -5.5Q-21.35 -3.75 -22.9 -2.3L-23.1 -2.15L-23.15 -2.1L-24.1 -1.3L-24.3 -1.6M-35.2,-7.1L-35.25 -7.2L-35.35 -7.35L-35.2 -7.1M-24.9,-6.65Q-24.8 -5.7 -23.8 -5.1Q-23.25 -4.85 -22.8 -5.3L-22.4 -6.05Q-21.65 -7.45 -22.8 -8.15Q-24 -8.85 -24.75 -7.55L-24.9 -6.65" />
<path style="fill:#E9BE7C;fill-opacity:1" d="M44.2,-4.6L41.25 0.55Q37.1 8.15 36 12.3L35.15 15.1Q33.8 15.75 32.65 16.5Q29.35 18.6 26.85 21.15Q23.5 24.5 21.45 28.7L15 29.1Q15.95 25.05 15.75 21L15.7 19.6L15.7 19.55L15.85 19.55Q18.45 20.05 20.65 19.5L22.35 18.95Q25.5 17.7 27.3 14.35Q29.6 10.1 29.25 4.9Q28.85 -1.15 24.65 -3.45Q22.95 -4.35 20.3 -3.5L18.7 -2.8L17.75 -2.45L18.4 -3.7L18.6 -4L44.2 -4.6M54.1,-4.8L53.85 -4.3L54.05 -3.55L53.55 -4.1L52.85 -4.8L54.1 -4.8M135.25,26.85L113.85 26.45L111.1 23.15Q109.55 21.4 107.7 18.05L104.55 12.25L104.2 2.8L103.5 -5.9L117.1 -6.2L117.2 -6.2L117.5 -6.2L118.6 -6.2L119.25 -6.2L131.25 -6.45L132.9 -6.4L135 -6.25L135.25 26.85M40,21.35L40.05 21.65L39.65 21.75L40 21.35M-88.1,-2.9Q-85.8 -1.65 -83.4 -1.65L-82.95 -1.6Q-80.7 -1.75 -78.75 -3.1L-77.7 -2.55Q-79.2 0.8 -79.9 4.45L-80.55 9.45Q-80.95 15.65 -79.3 25.75L-78.8 28.25L-79.2 28.2L-106.9 24.95Q-123.35 22.7 -133.5 22.7L-135.45 22.75L-135.45 -9.9L-133.3 -10L-110.2 -8.35L-93.15 -6.9Q-91.05 -4.5 -88.1 -2.9" />
<path style="fill:#E7A97B;fill-opacity:1" d="M-90.8,75.75L-92.1 75.65L-94 75.85L-98.65 76.9Q-103.2 78.1 -105.65 78.1L-109.55 77.7Q-112 77.1 -112 75.65Q-112 72.9 -111.1 70.2Q-110.15 67.15 -108.05 64.2L-105.75 61.3Q-101.85 56.9 -95.45 52.7Q-91.35 49.95 -82.15 45Q-76.45 41.85 -73.65 40Q-77.25 35.1 -78.8 28.25L-79.3 25.75Q-80.95 15.65 -80.55 9.45L-79.9 4.45Q-79.2 0.8 -77.7 -2.55L-78.75 -3.1Q-80.7 -1.75 -82.95 -1.6Q-82.7 -3.4 -81.65 -6.4L-81.4 -7.2Q-79.9 -11.75 -80.05 -13.95Q-80.3 -17.55 -84.1 -19.65Q-86.2 -20.7 -88.2 -20.7L-90.25 -20.6Q-90.6 -20.85 -90.6 -21.95Q-90.65 -23.05 -90.3 -23.85Q-88.55 -26.45 -85.95 -26.55Q-83.7 -26.75 -80.15 -24.8Q-76.55 -22.85 -75.85 -20.45Q-75.2 -18 -75.75 -14.55Q-75.45 -13.45 -74.55 -13Q-72.6 -11.95 -69.1 -12.95L-68.4 -13.2L-68.55 -13.25Q-66.1 -19.75 -66.2 -24.45L-66.35 -26.75L-65.95 -27.5Q-63.1 -39.45 -59.7 -45.8Q-57.7 -49.4 -55.2 -52.3Q-51.35 -56.85 -46.2 -59.75L-45.2 -58.2Q-48.4 -52.45 -49.7 -46.85Q-51.2 -40.7 -50.45 -34.75Q-49 -24 -49.2 -23.05Q-49.25 -22.45 -53.55 -14.5Q-56.15 -9.6 -56.35 -8.15L-58.7 -10L-59.05 -10.15L-59.15 -10.3L-60.95 -11.05L-63.25 -11.95L-65.55 -12.5L-68.95 -10.15L-71.25 -6.2L-71.25 -6.1Q-73.65 -1.7 -74 2.55L-73.95 5.45L-73.2 11.3Q-72.55 14.15 -72.45 19.55Q-72.3 24.85 -71.85 26.85L-71.45 28.7Q-69.65 37.05 -66.6 41.5L-66.25 41.95Q-62.7 46.7 -54.65 51.1Q-50.1 53.55 -40.1 57.05L-36.3 58.35L-36.15 58.4L-36.1 58.4L-27.9 61L-36.35 60L-36.6 60L-36.7 59.95Q-41.05 59.1 -45.55 57.55L-50.85 57.7L-60.95 56.8L-70.3 56Q-77.7 56 -84.05 58.05Q-93.1 60.9 -93.1 66.65Q-93.15 71.2 -89 72.95Q-83.25 74.5 -80 76.45L-80.8 78.6Q-87.35 76.15 -90.8 75.75M66.95,-20.55L66.6 -20.7Q65.55 -17.8 64.05 -12.2L62.25 -5.5L62.15 -5L60.2 2.5Q57.6 0.25 54.05 -3.55L53.85 -4.3L54.1 -4.8L57.3 -12.25Q59.6 -17.75 60.35 -21.5Q60.35 -26.5 61.05 -34L61.15 -35.15L62.15 -45.8Q62.1 -40.1 63 -35.5L63.5 -33.1L63.7 -32.4Q65.15 -27.2 68.25 -21.9L66.95 -20.55M105.45,-19.1L101.7 -17.6L101.65 -17.6Q96.5 -15.8 93.35 -15.8Q90.9 -15.8 89.7 -17.85Q89.25 -18.65 89.05 -19.6Q88.8 -20.6 88.8 -21.8L89 -25L89.1 -26.1L89.15 -26.4Q87.2 -26.7 86.1 -28.7L85.75 -29.45Q84.7 -32.1 84.85 -36.5L83.9 -36.4Q83.35 -36.4 82.6 -37Q81.85 -37.55 81.7 -38.05L84.5 -39.7Q88.2 -41.75 89.6 -43.95Q90 -43.25 90.95 -42.25L92.6 -40.25L92.8 -39.75L92.25 -37.25Q91.75 -34.95 91.75 -33.7Q91.75 -32.15 93.3 -30.65Q94.65 -29.35 94.85 -28.2L94.85 -27.9Q94.9 -25.8 95.2 -24.8Q95.65 -23.3 97.1 -22.35L97.3 -22.25Q100.05 -20.55 105.9 -21.9L107.05 -22.15L113 -23.55Q111.4 -21.95 108.1 -20.3L105.45 -19.1M3.95,76.75L-1.25 77.85Q-14.5 80.6 -21.15 80.6L-33.1 79.4L-35.5 79L-30.95 75.35Q-25.45 71.55 -15.3 66.5Q-5.45 61.6 1.85 58.45L2.65 58.15L4.85 57.65L8.35 56.95L4 60.9Q3.8 60.95 3.7 61.1Q1.85 61.2 0.1 62.15L-0.1 62.35Q-1.2 63.25 -1.2 64.95Q-1.2 68.5 2.3 74.2L3.95 76.75M-67.45,-12.65L-67.2 -12.55L-65.55 -12.5L-66.1 -14.05L-68.4 -13.2L-67.45 -12.65" />
<path style="fill:#9696D2;fill-opacity:1" d="M82.6,-37Q83.35 -36.4 83.9 -36.4L84.85 -36.5Q84.7 -32.1 85.75 -29.45L86.1 -28.7Q87.2 -26.7 89.15 -26.4L89.1 -26.1L89 -25L88.8 -21.8Q88.8 -20.6 89.05 -19.6Q89.25 -18.65 89.7 -17.85Q90.9 -15.8 93.35 -15.8Q96.5 -15.8 101.65 -17.6L102.2 -14.6L101.6 -14.45Q100.95 -13.1 100.45 -11.45Q95.85 -10.05 93.35 -10.05Q85.95 -10.05 84.75 -18.6L84.6 -19.55L84.3 -22.25L83.9 -26.1L83.5 -27.4Q82.75 -29.05 81.1 -29.05L77.95 -24.1L75.3 -20.85L71.55 -16.95Q67.8 -13.6 64.05 -12.2Q65.55 -17.8 66.6 -20.7L66.95 -20.55L68.25 -21.9L73.2 -27.05L73.55 -27.35Q77.25 -31.3 77.85 -34.25Q78.2 -35.75 81.7 -38.05Q81.85 -37.55 82.6 -37M2.3,74.2Q-1.2 68.5 -1.2 64.95Q-1.2 63.25 -0.1 62.35Q1.5 69.4 10.15 73L14.9 74.55Q21.65 76.25 31.1 76.25L42.6 75.6L45.1 75.1L47.8 74.35L46.85 76.05L45.95 78.35L45.95 78.4Q45.4 80.15 45.4 81.9L37.1 82.9L36.15 83L25.05 83.35L20.3 83.35L14.7 83.15L11.35 82.65Q8.15 81.85 6.7 80.3L3.95 76.75L2.3 74.2" />
<linearGradient
id="LinearGradID_10" gradientUnits="userSpaceOnUse" gradientTransform="matrix(-0.000457764, 0.0492249, -0.0592804, -0.000579834, 0.1, 71.2)" spreadMethod ="pad" x1="-819.2" y1="0" x2="819.2" y2="0" >
<stop  offset="0" style="stop-color:#BAE7BF;stop-opacity:1" />
<stop  offset="1" style="stop-color:#61B46A;stop-opacity:1" />
</linearGradient>
<path style="fill:url(#LinearGradID_10) " d="M15,29.1L21.45 28.7L20.5 30.8Q18.2 30.95 16.5 34L14.8 33.95L13.45 34Q14.4 31.55 15 29.1M122.95,42.7Q119.5 42.3 116.3 42.8L116.3 43.4Q116.55 43.85 118.3 43.85L122.35 43.4L122.95 42.7M122.45,46.8L120.45 46.45L118.8 46.35L118.55 46.55L118.15 46.85L118.35 47.4L122.25 47.5L122.45 46.8M96.7,46.95L102.4 46.95Q102.4 45.85 102.05 45.55L97.25 45.8L99 41.65Q100.8 40.6 109.9 37.4L110.8 37.1Q117.1 34.7 117.1 32.95Q117.1 30.7 115.1 27.9L113.85 26.45L135.25 26.85L135.95 108.05L-135.5 110.55L-135.45 79.15Q-133.35 80.25 -131 80.25L-124.05 80.4L-124.15 80.95L-123.7 81.7L-123.15 82.05L-123.25 82.2L-123.1 83.2L-121.25 83.45L-113.55 82.7L-103.25 81.9Q-89.6 81.9 -83.5 84.05Q-77.4 86.2 -71.25 86.2L-69.15 85.5L-68.75 85.45L-66.65 84.7L-62.1 83.2L-33.8 83.25L-29.35 84.65L-14 85.3Q-9.4 85.3 -2.65 83.85L4.6 82.35L8.3 82.6L11.35 82.65L14.7 83.15L20.3 83.35L17.6 86.9Q16.15 89 16.15 90.85Q16.15 92.9 19.15 94.15Q21.65 95.2 24.45 95.2Q29.55 95.2 32.9 89.9Q35.45 84.6 36.9 83.1L38.8 83.45L40.65 84L60.3 84.05L63 83.9Q64.25 84.4 64.85 84.4Q65.85 84.4 66.95 83.8L67.8 83.75L74.9 83.55Q77 82.5 78 82.5L78.75 81.95L78.6 81.35L70.5 79.9L71.05 78.95Q72.9 75.75 74.15 71.95L78.15 69.3Q83.4 65.5 87.65 60.65L89.85 60.8L89.75 60.45L93.9 59.95L98 59.3Q98 58.55 97.65 58.35L96.85 58.05L89.65 58.3L90.6 57.05L93.5 56.55L97.1 55.9Q105.15 55.9 108.2 56.85L108.75 56.8Q108.9 56.1 109.35 55.35Q106.55 53.45 97.7 53.65L92.65 54.1Q94.85 50.7 96.7 46.95M120.95,73.75Q117.05 73.15 117.05 74.55Q117.05 75.7 117.2 75.25Q117.65 75.8 119.1 75.8L120.45 75.7Q121.2 75.5 121.2 74.6L121.1 73.9L120.95 73.75M92.9,76.85L103.6 76.7L107.5 76.35L111.25 75.95Q112.25 75.2 112.5 74.45L111.35 73.55L82.65 73.55L79.8 74.25Q79.2 74.55 79.2 75.3Q79.2 76.15 79.55 76.45Q80 76.85 81.7 77.2L92.9 76.85M36.8,32.05L35.6 31.7Q36.4 31.35 37.25 31.35L36.8 32.05M-135.45,22.75L-133.5 22.7Q-123.35 22.7 -106.9 24.95L-79.2 28.2L-78.8 28.25Q-77.25 35.1 -73.65 40Q-76.45 41.85 -82.15 45Q-91.35 49.95 -95.45 52.7Q-101.85 56.9 -105.75 61.3L-110.15 61.55Q-118.6 62.1 -120.9 64L-120.8 64.7Q-120.15 65.25 -118.85 65.25L-108.05 64.2Q-110.15 67.15 -111.1 70.2L-126.55 72.5L-127.35 72.65L-135.45 73.3L-135.45 52L-135.3 51.95L-127.65 51.5L-127.45 50.8L-130.75 50.6L-133.9 50.6L-135.45 50.75L-135.45 22.75M-79.45,89.3L-79.15 90.4L-78.3 90.75L-75.15 90.75L-74.35 90.55Q-73.95 90.3 -73.95 89.5Q-73.95 88.8 -74.05 88.85L-74.2 89.05Q-79.45 86.75 -79.45 89.3M-42.25,80.25Q-41.8 80.35 -41.6 80.55L-46.75 80.55L-43.45 80.25L-42.25 80.25M-51.4,91.7Q-34.35 90.45 -28.05 91.5L-23.25 92.5L-15.6 93.1L-14.45 92.85L-14.2 91.9Q-14.65 90.35 -17.2 88.95L-20.35 88.95L-21.8 88.8L-23.35 87.9L-37.25 87.4L-52.45 88.8L-54.85 89.45L-54.95 88.9L-55.05 88.8Q-57.45 88.55 -58.45 88.85L-58.35 90.25L-57.8 90.7L-56.65 90.8L-55.7 90.75L-55.45 91.4L-54.55 91.7L-51.4 91.7M-115.05,54.9L-116.85 54.55L-118.4 54.45L-118.6 54.6L-118.95 54.95L-118.75 55.5L-115.65 55.6L-115.05 54.9M-113.8,49.9Q-114.9 49.05 -117.35 49.4L-121.25 50.2L-121 51L-118.4 51.05L-115.85 50.85L-113.95 50.6L-113.8 49.9M-94,75.85L-92.1 75.65L-90.8 75.75L-94 75.85M-113.65,89.5L-113.55 91.4L-111.4 91.65L-107.15 90.9L-100.7 90.1Q-96.8 90.1 -94.25 91.05L-91.55 92.1L-86.5 92.1Q-84.45 91.55 -84.45 90.1Q-84.45 89.15 -86.35 88.4L-86.4 88.4L-86.3 88.05Q-96.9 84.95 -105.75 85.95Q-111.3 86.5 -112.7 87.8Q-113.65 88.45 -113.65 89.5M-89,90.05L-90.5 89.8L-89.2 89.7L-89 90.05" />
<path style="fill:#BAE7BF;fill-opacity:1" d="M122.35,43.4L118.3 43.85Q116.55 43.85 116.3 43.4L116.3 42.8Q119.5 42.3 122.95 42.7L122.35 43.4M122.25,47.5L118.35 47.4L118.15 46.85L118.55 46.55L118.8 46.35L120.45 46.45L122.45 46.8L122.25 47.5M102.05,45.55Q102.4 45.85 102.4 46.95L96.7 46.95L97.25 45.8L102.05 45.55M121.1,73.9L121.2 74.6Q121.2 75.5 120.45 75.7L119.1 75.8Q117.65 75.8 117.2 75.25Q117.05 75.7 117.05 74.55Q117.05 73.15 120.95 73.75L121.1 73.9M92.65,54.1L97.7 53.65Q106.55 53.45 109.35 55.35Q108.9 56.1 108.75 56.8L108.2 56.85Q105.15 55.9 97.1 55.9L93.5 56.55L90.6 57.05L92.65 54.1M89.65,58.3L96.85 58.05L97.65 58.35Q98 58.55 98 59.3L93.9 59.95L89.75 60.45L89.85 60.8L87.65 60.65L89.65 58.3M70.5,79.9L78.6 81.35L78.75 81.95L78 82.5Q77 82.5 74.9 83.55L67.8 83.75L66.95 83.8Q68.65 82.7 70.5 79.9M59.85,82.25L63 83.9L60.3 84.05L40.65 84L38.8 83.45L36.9 83.1L37.1 82.9L45.4 81.9L55.6 79.75Q56.4 80.05 59.85 82.25M-90.8,75.75Q-87.35 76.15 -80.8 78.6L-80 78.9L-75.75 80.4Q-69.65 82.2 -64.4 82.2Q-61.6 82.2 -55.05 80.2Q-48.45 78.15 -44.3 78.15L-35.5 79L-33.1 79.4L-21.15 80.6Q-14.5 80.6 -1.25 77.85L3.95 76.75L6.7 80.3Q8.15 81.85 11.35 82.65L8.3 82.6L4.6 82.35L-2.65 83.85Q-9.4 85.3 -14 85.3L-29.35 84.65L-33.8 83.25L-62.1 83.2L-66.65 84.7L-68.75 85.45L-69.15 85.5L-71.25 86.2Q-77.4 86.2 -83.5 84.05Q-89.6 81.9 -103.25 81.9L-113.55 82.7L-121.25 83.45L-123.1 83.2L-123.25 82.2L-123.15 82.05L-123.7 81.7L-124.15 80.95L-124.05 80.4L-131 80.25Q-133.35 80.25 -135.45 79.15L-135.45 73.3L-127.35 72.65L-126.55 72.5L-111.1 70.2Q-112 72.9 -112 75.65Q-112 77.1 -109.55 77.7L-105.65 78.1Q-103.2 78.1 -98.65 76.9L-94 75.85L-90.8 75.75M81.7,77.2Q80 76.85 79.55 76.45Q79.2 76.15 79.2 75.3Q79.2 74.55 79.8 74.25L82.65 73.55L111.35 73.55L112.5 74.45Q112.25 75.2 111.25 75.95L107.5 76.35L103.6 76.7L92.9 76.85L81.7 77.2M-74.2,89.05L-74.05 88.85Q-73.95 88.8 -73.95 89.5Q-73.95 90.3 -74.35 90.55L-75.15 90.75L-78.3 90.75L-79.15 90.4L-79.45 89.3Q-79.45 86.75 -74.2 89.05M-43.45,80.25L-46.75 80.55L-41.6 80.55Q-41.8 80.35 -42.25 80.25L-43.45 80.25M-54.55,91.7L-55.45 91.4L-55.7 90.75L-56.65 90.8L-57.8 90.7L-58.35 90.25L-58.45 88.85Q-57.45 88.55 -55.05 88.8L-54.95 88.9L-54.85 89.45L-52.45 88.8L-37.25 87.4L-23.35 87.9L-21.8 88.8L-20.35 88.95L-17.2 88.95Q-14.65 90.35 -14.2 91.9L-14.45 92.85L-15.6 93.1L-23.25 92.5L-28.05 91.5Q-34.35 90.45 -51.4 91.7L-54.55 91.7M-135.45,50.75L-133.9 50.6L-130.75 50.6L-127.45 50.8L-127.65 51.5L-135.3 51.95L-135.45 52L-135.45 50.75M-108.05,64.2L-118.85 65.25Q-120.15 65.25 -120.8 64.7L-120.9 64Q-118.6 62.1 -110.15 61.55L-105.75 61.3L-108.05 64.2M-115.65,55.6L-118.75 55.5L-118.95 54.95L-118.6 54.6L-118.4 54.45L-116.85 54.55L-115.05 54.9L-115.65 55.6M-113.95,50.6L-115.85 50.85L-118.4 51.05L-121 51L-121.25 50.2L-117.35 49.4Q-114.9 49.05 -113.8 49.9L-113.95 50.6M-112.7,87.8Q-111.3 86.5 -105.75 85.95Q-96.9 84.95 -86.3 88.05L-86.4 88.4L-86.35 88.4Q-84.45 89.15 -84.45 90.1Q-84.45 91.55 -86.5 92.1L-91.55 92.1L-94.25 91.05Q-96.8 90.1 -100.7 90.1L-107.15 90.9L-111.4 91.65L-113.55 91.4L-113.65 89.5Q-113.65 88.45 -112.7 87.8M-89.2,89.7L-90.5 89.8L-89 90.05L-89.2 89.7" />
<path style="fill:#000000;fill-opacity:1" d="M1.2,4.95L1.1 4.8L0.4 3.95Q-1.1 2.1 -1.55 0.2L1.6 0.4Q3.15 1.2 3.2 2.7Q3.3 3.65 2.4 6.05L1.2 4.95M14.8,38.1Q15.55 35.65 16.5 34Q18.2 30.95 20.5 30.8Q18.95 34.4 18.4 38.75L18.4 38.8L18 39.05L17.35 39.35L17.15 39.35L15.9 39.1L15.4 38.75L14.8 38.1M19.1,33.4Q19.3 32.8 18.65 32.8L18.15 33L18.1 33.45L18.2 34L18.65 34.1L19.1 33.4M36.8,32.05L37.8 33Q39 34.35 39 36.1Q39 38 37.85 39.6Q36.55 41.5 34.3 41.5L33.85 41.5Q33 41.35 32.2 40.8L30.95 39.6L31.85 37.3L32.45 36.05L33.1 34.35L33.85 33.15L34.2 32.8L35.6 31.7L36.8 32.05M37.55,35.5Q37.6 33.95 36.45 33.95Q35.45 33.95 35.45 34.65Q35.45 36.55 36.8 36.55Q37.55 36.55 37.55 35.5M-24.1,-1.3Q-26.65 0.45 -29.8 1.25Q-30.95 0.15 -31.1 -0.65Q-31.2 -1.45 -30.65 -2.55Q-29.85 -3.9 -28.2 -4.15Q-26.65 -4.45 -25.15 -3.7Q-24.55 -3.4 -24.3 -3L-24.3 -1.6L-24.1 -1.3" />
<path style="fill:#FAFAFA;fill-opacity:1" d="M18.65,34.1L18.2 34L18.1 33.45L18.15 33L18.65 32.8Q19.3 32.8 19.1 33.4L18.65 34.1M36.8,36.55Q35.45 36.55 35.45 34.65Q35.45 33.95 36.45 33.95Q37.6 33.95 37.55 35.5Q37.55 36.55 36.8 36.55" />
<path style="fill:#A33C3C;fill-opacity:1" d="M-59.3,7.9L-55.5 6.4L-52.55 7.95Q-49.95 11.1 -45.45 13.95L-36.35 19Q-21.85 26.9 -14.85 27.55L-5.25 27.2L8.8 25.25L9.2 27.65Q7.4 30.45 0.9 35.35L0.65 35L-5.45 35L-6.1 34.95L-13.15 34.5L-14.6 34.25L-23.3 32.45Q-29.45 30.9 -34.3 28.3L-34.5 28.55L-34.9 28.45L-35.15 27.15Q-35.55 25.95 -36.15 25.2L-44.3 20.8L-46.15 23.05Q-55.1 15.9 -61.25 9.3L-61.35 9.1L-59.3 7.9" />
<path style="fill:#411919;fill-opacity:1" d="M-59.5,29.1L-61.1 20.25Q-62.2 14.3 -64 10.7Q-62.95 9.85 -61.5 9.1L-61.35 9.1L-61.25 9.3Q-55.1 15.9 -46.15 23.05Q-47.4 24.95 -46.5 26.5Q-45.75 27.9 -42.05 29.9L-41.35 30.25Q-38.65 31.7 -38 31.85Q-36.6 31.9 -35.1 29.2L-34.9 28.45L-34.5 28.55L-34.3 28.3Q-29.45 30.9 -23.3 32.45L-14.6 34.25L-14.65 34.55L-15.5 36.9Q-15.65 37.5 -14.85 37.95Q-13.8 38.5 -9.25 38.65Q-8.2 38.8 -7.25 38Q-6.3 37.25 -5.5 35.5L-5.45 35L0.65 35L0.9 35.35L-4.05 38.8L-5.75 40.05L-14.9 46.4Q-15.1 45.7 -17.7 43.25Q-20.45 40.75 -21.85 40Q-23.5 39.05 -29.2 37.6Q-34.35 36.15 -35.9 36.25Q-39.05 33.6 -42.25 31.85Q-46.3 29.65 -49.85 29.2Q-52.55 28.85 -59.3 29.1L-59.5 29.1" />
<path style="fill:#66669F;fill-opacity:1" d="M20.35,69.3L18.6 68.95Q17.4 68.4 17.4 67.35L17.9 66.15L18.2 65.7L18.9 64.9L19.25 64.55L20.3 64.5Q21.3 64.5 22.1 65.05Q22.95 65.65 22.95 66.85Q22.95 67.9 22.25 68.65Q21.4 69.3 20.35 69.3" />
<path style="fill:#D04444;fill-opacity:1" d="M37.1,82.9L36.9 83.1Q35.45 84.6 32.9 89.9Q29.55 95.2 24.45 95.2Q21.65 95.2 19.15 94.15Q16.15 92.9 16.15 90.85Q16.15 89 17.6 86.9L20.3 83.35L25.05 83.35L36.15 83L37.1 82.9M-59.3,29.1Q-52.55 28.85 -49.85 29.2Q-46.3 29.65 -42.25 31.85Q-39.05 33.6 -35.9 36.25Q-34.35 36.15 -29.2 37.6Q-23.5 39.05 -21.85 40Q-20.45 40.75 -17.7 43.25Q-15.1 45.7 -14.9 46.4L-17.7 48.3Q-20.2 50.65 -24.7 51.45Q-28.65 52.1 -31.9 51.4L-40.25 49.9Q-44.5 49.05 -48 47.1Q-56.7 42.45 -59.3 30.3L-59.3 29.1M31.6,84.9Q31.25 84.85 31.15 85.25Q30.7 85.55 30.7 86.25L30.75 86.85L31.4 86.95Q32.35 86.95 32.35 85.9Q32.35 85.2 32.05 85.1L31.6 84.9M29.25,88.4Q29.25 85.7 26.4 86.7Q23.5 87.6 23.5 90.55Q23.5 91.5 24.45 91.85L26.9 91.85L28.75 89.95Q29.25 89.35 29.25 88.4M-37.05,42.2Q-36.25 40.75 -39.5 36.9Q-42.7 33.05 -43.75 35.05Q-44.45 36.35 -43.55 38.1Q-43.05 39.3 -41.05 41.75L-38.45 43.05Q-37.85 43.15 -37.35 42.75L-37.05 42.2M-26.9,43.75L-25.3 44.6L-24.65 44.45L-24.2 44Q-23.7 43.05 -25.1 41.8Q-26.5 40.55 -27.2 41.95L-27.6 42.75Q-27.65 43.3 -26.9 43.75" />
<path style="fill:#E57E7E;fill-opacity:1" d="M32.05,85.1Q32.35 85.2 32.35 85.9Q32.35 86.95 31.4 86.95L30.75 86.85L30.7 86.25Q30.7 85.55 31.15 85.25Q31.25 84.85 31.6 84.9L32.05 85.1M28.75,89.95L26.9 91.85L24.45 91.85Q23.5 91.5 23.5 90.55Q23.5 87.6 26.4 86.7Q29.25 85.7 29.25 88.4Q29.25 89.35 28.75 89.95M-37.35,42.75Q-37.85 43.15 -38.45 43.05L-41.05 41.75Q-43.05 39.3 -43.55 38.1Q-44.45 36.35 -43.75 35.05Q-42.7 33.05 -39.5 36.9Q-36.25 40.75 -37.05 42.2L-37.35 42.75M-27.6,42.75L-27.2 41.95Q-26.5 40.55 -25.1 41.8Q-23.7 43.05 -24.2 44L-24.65 44.45L-25.3 44.6L-26.9 43.75Q-27.65 43.3 -27.6 42.75" />
<path style="fill:none;stroke-width:1;stroke-linecap:butt;stroke-linejoin:miter;stroke-miterlimit:3;stroke:#333333;stroke-opacity:1" d="M148.5,-124.15L148.4 123.75L-147.15 124.95L-149.15 -124.9L148.5 -124.15L149.15 -124.15M134.05,-114.4L-135.4 -112.5L-135.45 -24.9L-135.45 -9.9L-135.45 22.75L-135.45 50.75L-135.45 52L-135.45 73.3L-135.45 79.15L-135.5 110.55L135.95 108.05L135.25 26.85L135 -6.25L134.95 -10.3L134.9 -17.4L134.05 -113.7M-78.75,-3.1Q-80.7 -1.75 -82.95 -1.6L-83.4 -1.65Q-85.8 -1.65 -88.1 -2.9Q-91.05 -4.5 -93.15 -6.9Q-95.45 -9.5 -96.7 -13.05Q-99.35 -20.15 -96.1 -26.1Q-92.9 -31.95 -86.95 -33.7L-85 -34.15Q-78.5 -35.3 -71.85 -31.95M-65.95,-27.5Q-63.1 -39.45 -59.7 -45.8Q-57.7 -49.4 -55.2 -52.3Q-51.35 -56.85 -46.2 -59.75L-43.6 -61.15Q-36.45 -64.55 -27.05 -65.25Q-20.7 -65.75 -14.3 -64.95L-8.3 -63.95Q2.3 -61.65 12.85 -55.95L15 -54.7M61.05,-34L61.15 -35.15L62.15 -45.8L62.45 -48.7Q63.6 -51.3 67.3 -53.6Q69.55 -55.1 72.75 -56.45L73.45 -56.75Q80.2 -59.5 82.75 -59.6L82.95 -59.6Q84.85 -59.6 86.45 -57.75L86.5 -57.7L89.3 -59.65M72.55,-56.95L72.25 -60.8L72.2 -60.95L71.9 -63.35Q71.3 -67.55 71.3 -69.25Q71.3 -70.2 71.95 -70.9L73.4 -72Q75.1 -72.9 76.7 -72.9Q81.05 -72.9 84.85 -68.05M70.95,-60.8Q60.75 -58.85 53.95 -66.05Q50.95 -69.15 46.25 -71.7L42.6 -73.6L37.9 -76Q39.95 -79.2 45.5 -81.3Q50.55 -83.25 55.2 -83.25L61.8 -82.6Q65.5 -81.6 70.05 -81.05M70.7,-81.1Q72.65 -82.3 79.75 -89.75Q87.2 -96.55 92.8 -96.55Q96.1 -96.55 96.1 -91.2Q96.1 -86.8 90.85 -77.25L90.05 -75.85Q86.9 -70.3 85.05 -67.9L85 -67.85Q87.55 -64.45 89.3 -59.65L90.05 -60.2Q93.3 -62.3 95.2 -62.3Q99.15 -62.3 102.2 -58.35Q104.9 -54.95 104.9 -51.8Q104.9 -50.45 103.6 -48.75L103.65 -48.4Q107.05 -48.05 109.2 -44.4Q111.25 -41.05 111.25 -36.95Q111.25 -36.05 109.85 -35L109.75 -34.9M110,-34.55L113.2 -30.75Q114.5 -29.1 114.5 -26.65Q114.5 -25.15 113 -23.55Q111.4 -21.95 108.1 -20.3M-1.7,-2.85Q-0.05 -3.65 0.35 -3.65Q1.6 -3.9 3 -3.2Q5.6 -1.75 6.45 0.95Q7.25 3.55 6.1 6.5L5.15 8.2L6.3 8.95L8.3 10.15L8.4 9.9Q9.6 7.6 9.2 3.15L9.25 3.05L9.25 2.95L9.15 2.15L9 1L9 0.9Q8.1 -4.25 4.9 -6L2.75 -6.65L0.15 -7.1L-1.15 -4.8L-1.7 -2.85Q-1.9 -1.35 -1.55 0.2L1.6 0.4Q3.15 1.2 3.2 2.7Q3.3 3.65 2.4 6.05L5.15 8.2M3.65,-10.95L8.7 -6.5L13.25 -1.75Q13.4 -2.05 14.8 -2.9Q15.35 -3.95 12.35 -8.85Q9.5 -13.6 7.9 -14.85L4.3 -12.1L3.65 -10.95M1.2,-8.5L0.15 -7.1M18.6,-4L18.4 -3.7L17.75 -2.45L18.7 -2.8L20.3 -3.5Q22.95 -4.35 24.65 -3.45Q28.85 -1.15 29.25 4.9Q29.6 10.1 27.3 14.35Q25.5 17.7 22.35 18.95L20.65 19.5Q18.45 20.05 15.85 19.55L15.7 19.55L15.7 19.6L15.75 21Q15.95 25.05 15 29.1M16.5,34Q18.2 30.95 20.5 30.8L21.45 28.7Q23.5 24.5 26.85 21.15Q29.35 18.6 32.65 16.5Q33.8 15.75 35.15 15.1L36 12.3Q37.1 8.15 41.25 0.55L44.2 -4.6M18.6,-4Q27.95 -21.4 28.35 -32.1Q28.7 -46.35 15 -54.7M66.95,-20.55L68.25 -21.9L73.2 -27.05L73.55 -27.35Q77.25 -31.3 77.85 -34.25Q78.2 -35.75 81.7 -38.05L84.5 -39.7Q88.2 -41.75 89.6 -43.95Q90.15 -44.9 90.3 -45.95L90.35 -46.45Q90.35 -49.85 88.6 -54.2Q87.6 -56.45 86.5 -57.7M54.05,-3.55L53.55 -4.1L52.85 -4.8Q47.45 -9.95 45.7 -7.1L44.2 -4.6M61.05,-34Q60.35 -26.5 60.35 -21.5Q59.6 -17.75 57.3 -12.25L54.1 -4.8L53.85 -4.3M54.05,-3.55Q57.6 0.25 60.2 2.5L62.15 -5L62.25 -5.5L64.05 -12.2Q65.55 -17.8 66.6 -20.7M70.65,67.15Q73.15 65.95 76.2 62.65Q81.55 57.1 81.55 52.4L81.2 49.5L81.1 49.2L85.95 43.6Q89.5 39.55 90.75 36.95L95.25 27.5L95.9 26.05Q97.9 21.05 98.05 18.35Q98.15 16.6 99 10.05Q99.65 4.95 99.4 1.55Q99.15 -2.35 99.5 -5.8L99.6 -7.05Q99.85 -9.5 100.45 -11.45Q100.95 -13.1 101.6 -14.45M102.2,-14.6L101.65 -17.6Q96.5 -15.8 93.35 -15.8Q90.9 -15.8 89.7 -17.85Q89.25 -18.65 89.05 -19.6Q88.8 -20.6 88.8 -21.8L89 -25L89.1 -26.1M94.85,-28.2L89.7 -26.4L89.15 -26.4Q87.2 -26.7 86.1 -28.7L85.75 -29.45Q84.7 -32.1 84.85 -36.5L83.9 -36.4Q83.35 -36.4 82.6 -37Q81.85 -37.55 81.7 -38.05M85,-67.85L84.85 -68.05M97.45,-43.45Q101.25 -46.1 103.2 -48.2L103.6 -48.75M94.85,-28.2L100.5 -30.3Q106.45 -32.7 109.15 -34.5L109.75 -34.9M97.45,-43.45L95.45 -42.1L92.6 -40.25Q87.35 -37.05 84.85 -36.5M101.65,-17.6L101.7 -17.6L105.45 -19.1L108.1 -20.3M102.2,-14.6L102.65 -12.2L103.5 -5.9M97.25,45.8L99 41.65Q102.2 35.8 103.6 26.25L104.1 21.85L104.55 12.25L104.2 2.8L103.5 -5.9M104.55,12.25L107.7 18.05Q109.55 21.4 111.1 23.15L113.85 26.45M68.3,6.2L66.55 6.45L66 6.5L58.8 7.65L55.8 8.25Q43 10.85 35.15 15.1M97.25,45.8L96.7 46.95Q94.85 50.7 92.65 54.1L90.6 57.05L89.65 58.3L87.65 60.65Q83.4 65.5 78.15 69.3L74.15 71.95Q72.9 75.75 71.05 78.95L70.5 79.9Q68.65 82.7 66.95 83.8Q65.85 84.4 64.85 84.4Q64.25 84.4 63 83.9L59.85 82.25Q56.4 80.05 55.6 79.75M110.8,37.1Q117.1 34.7 117.1 32.95Q117.1 30.7 115.1 27.9L113.85 26.45M110.8,37.1L109.9 37.4Q100.8 40.6 99 41.65M20.3,83.35L25.05 83.35L36.15 83L37.1 82.9L36.9 83.1Q35.45 84.6 32.9 89.9Q29.55 95.2 24.45 95.2Q21.65 95.2 19.15 94.15Q16.15 92.9 16.15 90.85Q16.15 89 17.6 86.9L20.3 83.35L14.7 83.15L11.35 82.65Q8.15 81.85 6.7 80.3L3.95 76.75L-1.25 77.85Q-14.5 80.6 -21.15 80.6L-33.1 79.4L-35.5 79M81.1,49.2Q80.2 45.65 77.8 40.35Q73.85 31.6 71.15 31.6Q69.85 31.6 68.95 32.4L67.75 33.75L67.65 34.2Q67.4 34.45 67.4 35L67.75 36.9M70.65,67.15Q69.1 67.9 67.75 67.9Q65.6 67.9 65.6 63.9Q65.6 62.7 66.75 59.6L67.5 57.5Q69.4 52.6 69.4 48.35Q69.4 45.45 68.45 40.3L67.75 36.9M66.25,59.4Q59 62.9 53.35 67.95Q49.75 71.2 47.8 74.35L46.85 76.05L45.95 78.35L45.95 78.4Q45.4 80.15 45.4 81.9L55.6 79.75L60.85 78.2Q68.1 75.7 74.15 71.95M66.55,6.45L63.75 5.1Q62.25 4.3 60.2 2.5M68.3,6.2L69.7 6M47.9,32L49.75 35.2Q50.3 34.6 50.4 33.6L50.4 33.25L50.4 31.8Q50.4 28.8 48.95 26.45L47.35 24.45Q44.5 21.55 40.75 21.55L40.05 21.65L39.65 21.75L38.9 22.55L38.4 23.05M47.9,32Q46.65 30.05 45.4 28.75Q45.05 28.35 42.1 27L41.15 26.55Q37.55 24.9 37.55 24.6Q37.55 24 38.25 23.2L38.4 23.05M40.05,21.65L40 21.35L39.65 21.75M17.75,-2.45L15.7 2Q14.95 3.6 14.35 5.35Q14.15 7.85 14.85 12.65L15.7 19.55M-1.55,0.2Q-1.1 2.1 0.4 3.95L1.1 4.8L1.2 4.95L2.4 6.05M8.3,10.15L12.35 12.35M-0.1,62.35L0.1 62.15Q1.85 61.2 3.7 61.1Q3.8 60.95 4 60.9L8.35 56.95L12.7 53L12.85 52.9Q12.7 52.1 12.7 50.6Q12.7 45.1 14.65 38.6L14.8 38.1Q15.55 35.65 16.5 34L14.8 33.95L13.45 34L11.5 38.05Q1.4 56.6 -17.45 60.15L-27.9 61L-36.35 60L-36.6 60L-36.7 59.95Q-41.05 59.1 -45.55 57.55M-111.1,70.2Q-112 72.9 -112 75.65Q-112 77.1 -109.55 77.7L-105.65 78.1Q-103.2 78.1 -98.65 76.9L-94 75.85L-92.1 75.65L-90.8 75.75Q-87.35 76.15 -80.8 78.6L-80 78.9L-75.75 80.4Q-69.65 82.2 -64.4 82.2Q-61.6 82.2 -55.05 80.2Q-48.45 78.15 -44.3 78.15L-35.5 79M13.45,34Q14.4 31.55 15 29.1M9.2,27.65L9.5 27.2L9.7 26.35Q9.45 25.8 9.55 25.4L9.55 25.3L9.65 24.8L9.8 26.05L9.7 26.35M9.2,27.65Q7.4 30.45 0.9 35.35L-4.05 38.8L-5.75 40.05L-14.9 46.4L-17.7 48.3Q-20.2 50.65 -24.7 51.45Q-28.65 52.1 -31.9 51.4L-40.25 49.9Q-44.5 49.05 -48 47.1Q-56.7 42.45 -59.3 30.3L-59.5 29.1L-61.1 20.25Q-62.2 14.3 -64 10.7Q-66.35 12.3 -67.9 14.15M12.85,52.9Q15.7 50.5 18.25 48.95Q17.7 43.5 18.4 38.8L18 39.05L17.35 39.35L17.15 39.35L15.9 39.1L15.4 38.75L14.8 38.1M18.4,38.8L18.4 38.75Q18.95 34.4 20.5 30.8M35.6,31.7L34.2 32.8L33.85 33.15L33.1 34.35L32.45 36.05L31.85 37.3L30.95 39.6L32.2 40.8Q33 41.35 33.85 41.5L34.3 41.5Q36.55 41.5 37.85 39.6Q39 38 39 36.1Q39 34.35 37.8 33L36.8 32.05L35.6 31.7Q36.4 31.35 37.25 31.35Q41.5 31.35 44.9 38.6Q47.85 45 47.85 50.7Q47.85 55.8 44.9 58.6Q41.7 61.6 35.45 61.6L32 61.5L29.15 60.95Q26.65 59.85 26.65 55.5Q26.65 51.8 28.85 45.25L29.65 42.9L30.95 39.6M18.25,48.95Q20.1 47.75 21.75 47.05M22.25,68.65Q22.95 67.9 22.95 66.85Q22.95 65.65 22.1 65.05Q21.3 64.5 20.3 64.5L19.25 64.55L18.9 64.9L18.2 65.7L17.9 66.15L17.4 67.35Q17.4 68.4 18.6 68.95L20.35 69.3Q21.4 69.3 22.25 68.65M37.1,82.9L45.4 81.9M-0.1,62.35Q-1.2 63.25 -1.2 64.95Q-1.2 68.5 2.3 74.2L3.95 76.75M-78.8,28.25L-79.3 25.75Q-80.95 15.65 -80.55 9.45L-79.9 4.45Q-79.2 0.8 -77.7 -2.55M-90.3,-23.85Q-88.55 -26.45 -85.95 -26.55Q-83.7 -26.75 -80.15 -24.8Q-76.55 -22.85 -75.85 -20.45Q-75.2 -18 -75.75 -14.55M-66.35,-26.75L-65.95 -27.5L-66.5 -28.05L-68.15 -29.95L-70.85 -31.45L-71.85 -31.95M-67.45,-12.65Q-68.95 -12.75 -71.9 -10.3Q-74.5 -8.35 -75.8 -6.3L-76.4 -5.3L-77.7 -2.55M-42.7,-18.8Q-37.05 -21.1 -28.85 -22.55L-16.2 -23.75L-17.05 -16.9L-22.05 -17.05L-25.6 -17.2L-25.7 -17.25L-29.45 -17.25L-32.55 -16.8L-35.3 -16.5L-41.4 -16.1L-42 -17.2L-42.8 -18.6L-42.6 -18.7L-42.7 -18.8M-35.65,-8Q-32.2 -10.75 -28.95 -10.9Q-25.6 -11.1 -22.2 -9.25Q-21.1 -8.65 -20.1 -7.35L-19.5 -6.5L-19.1 -7.2L-18.2 -8.8L-18.15 -8.9L-17.65 -10.1L-17.6 -10.2L-17.55 -10.45L-17.45 -10.75L-18.1 -12.7L-20.25 -13.95L-22.45 -14.85L-25.65 -15.4Q-28.75 -15.6 -32.3 -14.65Q-39.5 -12.75 -41.95 -8.25Q-43 -6.4 -43.45 -3.95Q-43.9 -1.55 -43.3 -0.25Q-45.55 -1.45 -47.65 -3.15M-43.3,-0.25L-42.65 0.1Q-39.85 1.3 -36.85 1.75Q-37.75 0.2 -37.85 -1.8Q-37.95 -3.75 -37.35 -5.3Q-36.75 -6.85 -35.7 -7.8M-19.5,-6.5L-20.15 -5.5Q-21.35 -3.75 -22.9 -2.3L-23.1 -2.15L-23.15 -2.1L-24.1 -1.3Q-26.65 0.45 -29.8 1.25L-30.35 1.4L-31.95 1.65L-35.1 1.8L-36.85 1.75M-24.3,-1.6L-24.3 -3Q-24.55 -3.4 -25.15 -3.7Q-26.65 -4.45 -28.2 -4.15Q-29.85 -3.9 -30.65 -2.55Q-31.2 -1.45 -31.1 -0.65Q-30.95 0.15 -29.8 1.25M-15.4,5.85Q-14.5 4.3 -12.6 4Q-10.85 3.75 -9.15 4.65Q-7.85 5.3 -7.5 7.3Q-7.2 8.85 -7.6 10.4M-34.5,28.55L-34.3 28.3Q-29.45 30.9 -23.3 32.45L-14.6 34.25L-13.15 34.5L-6.1 34.95L-5.45 35L0.65 35M-46.15,23.05L-44.3 20.8L-36.15 25.2Q-35.55 25.95 -35.15 27.15L-34.9 28.45L-35.1 29.2Q-36.6 31.9 -38 31.85Q-38.65 31.7 -41.35 30.25L-42.05 29.9Q-45.75 27.9 -46.5 26.5Q-47.4 24.95 -46.15 23.05Q-55.1 15.9 -61.25 9.3M-55.5,6.4L-59.3 7.9L-61.35 9.1L-61.5 9.1Q-62.95 9.85 -64 10.7M-14.9,46.4Q-15.1 45.7 -17.7 43.25Q-20.45 40.75 -21.85 40Q-23.5 39.05 -29.2 37.6Q-34.35 36.15 -35.9 36.25L-34.95 37.15Q-30.9 40.9 -30.2 43.75M-14.65,34.55L-15.5 36.9Q-15.65 37.5 -14.85 37.95Q-13.8 38.5 -9.25 38.65Q-8.2 38.8 -7.25 38Q-6.3 37.25 -5.5 35.5M-55.5,6.4L-52.55 7.95Q-49.95 11.1 -45.45 13.95L-36.35 19Q-21.85 26.9 -14.85 27.55L-5.25 27.2L8.8 25.25M-55.5,6.4L-53.35 5.6L-53.3 5.65L-53.05 5.55L-50 4.9L-49.7 4.85L-49.8 5.05L-50 4.9M-78.8,28.25Q-77.25 35.1 -73.65 40L-72.7 41.25Q-68.4 46.5 -59.7 51.25L-55.85 53.3Q-55.7 53.3 -55.7 53.4Q-50.55 55.9 -45.55 57.55M-59.5,29.1L-59.3 29.1Q-52.55 28.85 -49.85 29.2Q-46.3 29.65 -42.25 31.85Q-39.05 33.6 -35.9 36.25M-111.1,70.2Q-110.15 67.15 -108.05 64.2M-105.75,61.3Q-101.85 56.9 -95.45 52.7Q-91.35 49.95 -82.15 45Q-76.45 41.85 -73.65 40M-105.75,61.3L-108.05 64.2" />
</g>
</svg>
