<?xml version="1.0" encoding="utf-8"?>
<svg version="1.1" id="Layer_1"
xmlns="http://www.w3.org/2000/svg"
xmlns:xlink="http://www.w3.org/1999/xlink"
xmlns:author="http://www.sothink.com"
width="83px" height="83px"
xml:space="preserve">
<g id="16" transform="matrix(1, 0, 0, 1, 44.45, 40.25)">
<path style="fill:#232222;fill-opacity:1" d="M17.9,-31.65L19.75 -28.2Q20.75 -26.05 20.75 -24.65Q20.75 -22.25 18.7 -19.9Q16.55 -17.35 12.65 -16.5L12.35 -16.25Q10.7 -14.8 10.4 -13.7L10.15 -11.85Q9.6 -10.2 8.3 -10.2Q6.35 -10.2 6.25 -11.4L6.4 -13.35L5.75 -15.2L5.5 -15.9L4.1 -17.5Q2.85 -19.3 -0.3 -19.3Q-2.55 -19.3 -3.15 -16.15Q-3.7 -13.05 -5.05 -13.05Q-6.15 -13.05 -6.65 -13.65Q-7.1 -14.25 -7.6 -14.25L-9.65 -13.05Q-11.65 -11.85 -14.9 -11.85Q-20.35 -11.85 -22.1 -16.7Q-23 -19.2 -22.85 -21.95L-22.75 -24.45Q-22.45 -25.5 -20.75 -27.05Q-19.5 -28.2 -16.75 -28.9L-16.75 -29.45Q-16.75 -33.15 -12.85 -35.3Q-9.45 -37.25 -4.3 -37.5Q0.6 -37.75 4.25 -36.4Q7.1 -35.35 7.85 -33.7Q8.95 -34.5 11.75 -34.2Q16.3 -33.75 17.9 -31.65M1.1,-0.1Q0.25 1.55 0.25 3Q0.25 4.7 0.95 5.4Q2.55 7 7.6 7Q11.15 7 13.3 3.2Q14.95 0.3 14.95 -2.35L14.35 -6.6Q14.35 -7.55 15.4 -7.85Q17.4 -8.4 19.1 -9.6L20.4 -10.75L20.35 -10.8Q20.35 -12.6 22.85 -13.4Q25.3 -14.15 28.35 -13.45Q36.3 -11.6 36.3 -3.85Q36.3 -0.2 32.65 3.7L28.95 7.7Q28.95 8.5 29.6 10Q30.25 11.55 30.25 12.5Q30.25 14.9 28 19.05Q24.65 25 19.2 25Q13.6 25 11.5 21.55Q10.4 19.75 10.4 17.5Q10.4 16.55 10.85 15.3L11.25 13.35Q11.25 12.3 10.6 11.4Q9.25 9.6 5.75 9.6Q3.75 9.6 2.5 10.35Q1.15 11.1 1.15 12.35Q1.15 12.95 3.6 15.75Q6 18.55 6 20.55Q6 21.85 5.25 22.95Q4 24.8 1.1 25Q0.55 26.3 -1.3 27.95Q-4.8 30.95 -10.1 30.95Q-14.95 30.95 -18.05 28.35Q-19.75 26.9 -20.3 25.4Q-21.05 23.4 -22.1 21.85Q-22.5 21.2 -22.5 19.4Q-22.5 16.05 -19 12.95L-17.75 12.05Q-17.6 11.45 -16.8 11.45L-16.4 11.55Q-15.8 11.45 -15.6 11.9L-13.9 12.25Q-11.1 12.25 -10.2 10.85L-9.85 9.45Q-9.85 8.05 -10.65 6.7Q-12.05 4.4 -15.2 4.4Q-16.8 4.4 -17.55 5.7L-18.5 8.55Q-20 12.7 -26.2 12.7Q-31.8 12.7 -34 6.8Q-35.15 3.75 -35.15 0.35Q-35.15 -1.95 -34.1 -4.95Q-32.6 -9.65 -29.6 -9.65L-27.7 -9.3L-26.2 -9Q-24.9 -10.15 -23 -10.85Q-19.25 -12.2 -16.2 -9.6Q-15.65 -7.95 -15 -6.95Q-13.9 -5.2 -10.85 -5.2Q-8.5 -5.2 -7.15 -6.7L-5.35 -8.2Q-4.1 -8.2 -4.25 -6.95L-4.9 -5.15Q-5.6 -3.75 -5.6 -2.65Q-5.6 -1.6 -4.35 -0.4L-4.1 -0.15L-2 -1L-0.8 -1.95Q0.1 -2.7 0.9 -2.7Q1.9 -2.7 1.9 -1.85L1.1 -0.1M12.2,-7Q11.55 -7 11.05 -7.95L10.65 -8.95Q10.65 -10.25 12.1 -9.9Q13.6 -9.65 13.6 -8.5L13.25 -7.65Q12.8 -7 12.2 -7" />
<path style="fill:#FF6600;fill-opacity:1" d="M4.55,-3.2Q8.1 -4 8.1 1.55L7.85 3.65Q7.25 5.25 5.2 5.25Q2.45 5.25 1.45 3.15Q0.95 2.15 1 1.15Q1 -0.3 2.1 -1.65Q3.2 -2.9 4.55 -3.2M31.75,-30.25Q31.5 -29.9 31.05 -29.9Q30.45 -29.9 30.25 -30.4L30.15 -30.75Q30.15 -31.7 31.05 -31.6Q31.95 -31.5 31.95 -30.75L31.75 -30.25M34.9,9.25Q34.9 8.3 36.55 5.75Q38.2 3.2 38.2 5.65Q36.6 10.15 35.8 10.15Q34.9 10.15 34.9 9.25M34.45,22.5L34.35 22.05Q34.35 21.2 35.35 21.2Q36.3 21.2 36.3 22.05Q36.3 22.95 35.3 22.95Q34.7 22.95 34.45 22.5M3.1,31.7Q3.1 32.6 1.85 32.6Q-0.75 32.6 -0.75 31.35Q-0.75 29.9 1.2 30.45Q3.1 31 3.1 31.7M3.1,40.75L3.05 41.35Q2.9 41.7 2.2 41.9L0.1 41.9L-0.6 41.05L-0.9 40.3Q-0.9 39.1 1.1 39.35Q3.1 39.6 3.1 40.75M-42.6,-0.7Q-42.85 -0.05 -43.6 -0.05Q-44.45 -0.05 -44.45 -0.9Q-44.45 -2.15 -43.45 -2.4Q-42.5 -2.65 -42.5 -1.3L-42.6 -0.7M-19.85,-37.55Q-20.7 -37.55 -20.7 -38.45Q-20.7 -39.45 -18.6 -40.05Q-16.55 -40.7 -16.55 -39.35L-17.7 -38.4Q-19 -37.55 -19.85 -37.55M-1.55,-17.95Q-1 -17.2 -1 -16.4Q-1 -15.3 -1.85 -14Q-3.1 -12.1 -5.4 -12.1Q-8.45 -12.1 -9.3 -14Q-9.75 -14.95 -9.6 -16Q-9.6 -17.35 -9.05 -18Q-8.05 -19.25 -4.8 -19.25Q-2.5 -19.25 -1.55 -17.95" />
</g>
</svg>
