<?xml version="1.0" encoding="utf-8"?>
<svg version="1.1" id="Layer_1"
xmlns="http://www.w3.org/2000/svg"
xmlns:xlink="http://www.w3.org/1999/xlink"
xmlns:author="http://www.sothink.com"
width="65px" height="45px"
xml:space="preserve">
<g id="145" transform="matrix(1, 0, 0, 1, 32.4, 22.05)">
<path style="fill:#EECA3B;fill-opacity:1" d="M17.15,-18L16 -18.2L14.1 -18.15L14.15 -18.8L14.25 -20.45L14.35 -20.95Q14.5 -21.55 15 -21.55Q16.55 -21.55 17.15 -20.95L17.4 -20.15L17.25 -18.8L17.15 -18M16.35,-20.95L16.25 -21L15.4 -20.95L15.2 -20.75L15.15 -20.2L15.15 -19.7Q15.25 -19.2 16 -19.2Q16.8 -19.2 16.8 -20.25L16.35 -20.95M12.25,-12.2L11.1 -12.2L11.3 -16.15L13.25 -16.1L15.35 -16.35Q17.4 -16.35 17.85 -15.2L18.3 -12.9L18.5 -12.1L12.25 -12.2M-28.65,0.7L-29.2 0.8Q-29.95 0.8 -29.95 -0.4Q-29.95 -2.7 -29 -3.9L-28.15 -3.3L-25.9 -2.9L-24.85 -3L-24.5 -3.05L-23.7 -3.15L-21.45 -3.1L-17.95 -3L-12.35 -2.9L-7.3 -3.4L-2.45 -3.75L1.95 -3.9L2.25 -3.7L6.7 -3.55L16.7 -3.25L18.05 -3.2L18.55 -3.15L22.25 -3L22.8 -2.95L25.05 -2.7Q26.65 -1.95 27.25 0.9L20.75 0.95L20.8 -0.95Q20.8 -2.05 18.5 -2.3L16.7 -2.4L16.15 -1.95L15.8 -2L15.4 -1.9L15.35 -1.85Q14.85 -1.6 14.5 -0.65Q14.2 0.15 14.15 1.05L10.8 1.1L10.95 -1.25Q10.95 -2.7 6.8 -2.7Q6.4 -2.7 6.15 -2L5.55 -1.75L5.4 -1.65L4.95 -1.1Q4.55 -0.25 4.55 0.8L4.55 1.15L1.45 1.2Q1.65 0.5 1.65 -1.5Q1.65 -2.95 -2.45 -2.95L-3 -2.5L-3.35 -2.6L-3.8 -2.45L-3.85 -2.4Q-4.35 -2.15 -4.65 -1.2Q-5.05 -0.1 -5.05 1.15L-5.05 1.25L-21.35 1.45L-21.4 1.2Q-21.75 0.35 -24.1 0.35L-28.6 0.7L-28.65 0.7M29.2,5.05L29.2 0.85L29.15 0L30 0.85L30.65 3.2L30.7 3.7L30.9 5.05L31 5.7L30.65 5.85L29.2 5.9L29.2 5.05M15.15,16.3Q14.4 15.9 14 15.25Q13.7 14.7 13.65 13.7L13.7 11.45Q13.8 8.7 13.1 7.65Q11.85 5.9 7.9 5.9L3.75 6L0.2 5.8L-1 5.75L-2.05 5.85L-4.9 6.25L-8.15 6.75L-11.35 6.6Q-13.7 6.65 -15.65 7.55Q-16.8 8.15 -17.65 10.1L-18.5 12.65L-18.65 13.4L-19 15.9L-19.2 17.15Q-19.55 18.15 -20.15 18.65L-21.75 18.9L-24.35 18.35L-27.1 17.2L-29.1 16.65L-30.9 15.65L-31.8 14.55L-31.75 10.25L-31.5 9.4L-30.45 9.2L-30.35 9.2L-28 9.55L-25.6 9.85Q-22.4 9.85 -21.75 8.9Q-21.5 8.5 -21.4 7.45L-21.3 5.3L27.55 5.05L27.35 6.95L27.3 7.35L25.85 7.2Q24.95 7.2 24.8 8.2Q24.6 9.35 23.7 9.65L21.6 9.9L19.5 9.8L19.55 13.85Q19.5 14.75 18.45 15.1L16.55 15.9Q17.75 16.05 18.5 16.95Q16.35 16.95 15.15 16.3" />
<path style="fill:#F7EEC8;fill-opacity:1" d="M16.8,-20.25Q16.8 -19.2 16 -19.2Q15.25 -19.2 15.15 -19.7L15.15 -20.2L15.2 -20.75L15.4 -20.95L16.25 -21L16.35 -20.95L16.8 -20.25" />
<path style="fill:#666666;fill-opacity:1" d="M28.6,-20.95L28.6 -18.8L17.25 -18.8L17.4 -20.15L17.15 -20.95L28.6 -20.95M10.1,-18.8L5.25 -14.8L3.9 -16.45L9.35 -20.95L14.35 -20.95L14.25 -20.45L14.15 -18.8L10.1 -18.8" />
<path style="fill:#F7DA66;fill-opacity:1" d="M18.3,-17.6Q19.05 -17.2 19.35 -15.6L19.55 -12.4L19.45 -12.05L18.95 -12.1L18.5 -12.1L18.3 -12.9L17.85 -15.2Q17.4 -16.35 15.35 -16.35L13.25 -16.1L11.3 -16.15L11.25 -17.15Q11.45 -18.15 13.9 -18.15L14.1 -18.15L16 -18.2L17.15 -18L18.3 -17.6M30.9,5.05L30.7 3.7L30.65 3.2L30 0.85L29.15 0L29.2 0.85L27.25 0.9Q26.65 -1.95 25.05 -2.7L22.8 -2.95L22.25 -3L18.55 -3.15L18.05 -3.2L16.7 -3.25L6.7 -3.55L2.25 -3.7L1.95 -3.9L-2.45 -3.75L-7.3 -3.4L-12.35 -2.9L-17.95 -3Q-17.25 -3.25 -16.9 -3.65Q-16.55 -4.05 -16.3 -5.3L-13.15 -5.25L-9.95 -5.45L-8.4 -5.3L-7.05 -5.3L9.35 -6L10.5 -6L14 -5.9L21.05 -5.55L21.3 -5.55L22.4 -5.5L22.45 -5.5L22.5 -5.5L26.8 -5.3Q29.15 -4.55 29.15 -2.1L29.15 -1.45L30.15 -1.45L30.65 -1.35L31.8 -0.95L31.9 0.65L31.9 0.85L31.8 3.9L31.7 4.65L31.6 5.05L31 5.7L30.9 5.05M4.55,1.15L4.55 0.8Q4.55 -0.25 4.95 -1.1L5.4 -1.65L5.55 -1.75L6.15 -2L6.05 -1.7L6.05 -1.45L6.05 -0.7L6.15 -0.25L6 1.1L4.55 1.15M15.95,-1.4L15.95 -1.15L15.95 -0.4L16.05 0.05L15.95 1L14.15 1.05Q14.2 0.15 14.5 -0.65Q14.85 -1.6 15.35 -1.85L15.4 -1.9L15.8 -2L16.15 -1.95L15.95 -1.4M27.3,7.35L27.35 6.95L27.55 5.05L29.2 5.05L29.2 5.9L29.2 7.65L28.4 7.5L27.8 7.4L27.15 8.85L27.3 7.35M-25.9,-2.9L-28.15 -3.3L-29 -3.9Q-28.15 -5 -26.6 -5.25L-25.75 -5.2L-25.65 -4.8Q-25.4 -3.5 -24.85 -3L-25.9 -2.9M-23.7,-3.15L-24.5 -3.05L-23.7 -3.75Q-22.95 -4.35 -22.45 -4.35Q-22.05 -4.35 -21.7 -3.5L-21.45 -3.1L-23.7 -3.15M-5.05,1.25L-5.05 1.15Q-5.05 -0.1 -4.65 -1.2Q-4.35 -2.15 -3.85 -2.4L-3.8 -2.45L-3.35 -2.6L-3 -2.5L-3.25 -1.95L-3.25 -1.7L-3.25 -0.95L-3.1 -0.5L-3.3 0.95L-3.25 1.25L-5.05 1.25" />
<path style="fill:#FAAD39;fill-opacity:1" d="M22.45,-5.7L22.45 -5.5L22.4 -5.5L21.3 -5.55L21.05 -5.55L20.4 -7.3L20.3 -7.5Q19.6 -9.05 18.15 -9.65L16.15 -10.05L13.9 -10.05L13.85 -10.15Q13.8 -10.05 13.65 -10.05L13.8 -10Q13 -9.75 7.05 -10L7.05 -10.5L7.7 -11.8L7.6 -12.15L11.1 -12.2L12.25 -12.2L18.5 -12.1L19.45 -12.05Q21.15 -11.9 21.8 -10.4Q22.25 -9.5 22.35 -7.35L22.4 -5.9L22.4 -5.7L22.45 -5.7M-7.4,-10L-7 -11.9L-6.65 -11.9L0.25 -12Q0.45 -11.25 0.3 -10.2L-7.4 -10M29.2,5.05L27.55 5.05L27.55 4.6L27.25 0.9L29.2 0.85L29.2 5.05M10.95,3.3Q10.95 3.75 9.75 4.1L7.8 4.35Q5.95 4.35 5.2 3.5Q4.6 2.85 4.55 1.15L6 1.1L6 1.2Q6 2.15 7 2.45L8.9 2.65Q9.95 2.65 10.5 1.95L10.95 3.3M15.9,1.55Q15.9 2.45 16.85 2.8L18.8 2.95Q19.9 2.95 20.4 2.2L20.65 3.5Q20.65 4.35 20.25 4.6L19.1 4.75L16.4 4.25L16.05 4.1Q14.1 3.2 14.1 1.7L14.15 1.05L15.95 1L15.9 1.55M-3.25,1.25Q-3.15 1.95 -2.3 2.2L-0.4 2.4Q0.7 2.4 1.2 1.65L1.5 2.95Q1.5 3.75 1.1 4L-0.05 4.2Q-1.6 4.2 -3.1 3.5Q-5 2.7 -5.05 1.25L-3.25 1.25" />
<path style="fill:#DB8606;fill-opacity:1" d="M13.8,-10L13.65 -10.05Q13.8 -10.05 13.85 -10.15L13.9 -10.05L16.15 -10.05L18.15 -9.65Q19.6 -9.05 20.3 -7.5L20.4 -7.3L21.05 -5.55L14 -5.9L10.5 -6L9.35 -6L-7.05 -5.3L-8.4 -5.3L-9.95 -5.45L-13.15 -5.25L-16.3 -5.3L-15.9 -7.8Q-14.15 -7.05 -13.1 -7.05Q-12.25 -7.05 -12 -7.7L-11.4 -9.75L-9.9 -9.45L-7.55 -9.45L-7.4 -10L0.3 -10.2L0.15 -9.6L2.65 -9.55Q4.3 -9.15 3.65 -7.55Q5.35 -8.5 7.05 -8.95L7.05 -10Q13 -9.75 13.8 -10M4.55,1.15Q4.6 2.85 5.2 3.5Q5.95 4.35 7.8 4.35L9.75 4.1Q10.95 3.75 10.95 3.3L10.5 1.95L10.7 1.6L10.7 1.45L10.8 1.1L14.15 1.05L14.1 1.7Q14.1 3.2 16.05 4.1L16.4 4.25L19.1 4.75L20.25 4.6Q20.65 4.35 20.65 3.5L20.4 2.2L20.55 2.05L20.6 1.8L20.75 0.95L27.25 0.9L27.55 4.6L27.55 5.05L-21.3 5.3L-21.3 4.75L-21.35 1.45L-5.05 1.25Q-5 2.7 -3.1 3.5Q-1.6 4.2 -0.05 4.2L1.1 4Q1.5 3.75 1.5 2.95L1.2 1.65L1.4 1.45L1.45 1.2L4.55 1.15M11.75,18.9L7.65 18.9L6.75 15.9Q6 14.3 4.2 14.7L4.5 12.95L4.9 13.25Q5.7 13.95 6.65 13.95L8.75 13.25Q10.35 12.5 10.6 12.5Q11 12.5 11.95 13.05L11.6 17.7L11.75 18.9M-15.95,17.95L-15.85 15L-15.8 14L-15.55 14L-14.6 13.4L-13.7 12.8Q-13.2 12.8 -12.3 13.55Q-11.5 14.25 -10.55 14.25L-10.5 14.25L-8.45 13.55L-6.6 12.8L-6.15 12.9L-6.35 13.8Q-6.7 14.7 -7.5 14.7L-9.45 14.25L-10.5 14.25L-10.8 15.3L-11.1 16.35L-10.65 17.65L-9.85 19.2L-16.05 19.2L-15.95 17.95" />
<path style="fill:#232222;fill-opacity:1" d="M0.3,-1.5L-0.15 -1.1L0.3 -0.7Q0.7 -0.7 0.7 -1.1Q0.7 -1.5 0.3 -1.5M10.7,1.45L10.7 1.6L9.85 1.1L8.3 0.05L6.05 -1.45L6.05 -1.7L6.15 -2Q6.4 -2.7 6.8 -2.7Q10.95 -2.7 10.95 -1.25L10.8 1.1L10.7 1.45M9.55,-0.2L10.05 -0.7Q10.05 -1.15 9.65 -1.15Q9.2 -1.15 9.2 -0.7Q9.2 -0.2 9.55 -0.2M20.6,1.8L20.55 2.05L18.9 1.2L18.5 1Q16.95 0.1 15.95 -1.15L15.95 -1.4L16.15 -1.95L16.7 -2.4L18.5 -2.3Q20.8 -2.05 20.8 -0.95L20.75 0.95L20.6 1.8M19.45,-0.15L19.9 -0.5L19.45 -0.95Q19 -0.95 19 -0.5Q19 -0.15 19.45 -0.15M-21.6,7.45Q-23.7 7.45 -26.9 6.45Q-27.85 6.35 -28.85 5.35L-29.3 4.85L-29.65 4.45L-28.95 1.55L-28.65 0.7L-28.6 0.7L-24.1 0.35Q-21.75 0.35 -21.4 1.2L-21.35 1.45L-21.3 4.75L-21.3 5.3L-21.4 7.45L-21.6 7.45M0.75,1.2L-0.25 0.65Q-2.1 -0.35 -3.25 -1.7L-3.25 -1.95L-3 -2.5L-2.45 -2.95Q1.65 -2.95 1.65 -1.5Q1.65 0.5 1.45 1.2L1.4 1.45L0.75 1.2M-24.9,2.45Q-24.7 3.45 -24.25 3.45Q-23.8 3.45 -23.4 3.1L-23 2.45Q-23 2.05 -23.95 1.85Q-24.9 1.65 -24.9 2.45" />
<path style="fill:#ADADAD;fill-opacity:1" d="M0.7,-1.1Q0.7 -0.7 0.3 -0.7L-0.15 -1.1L0.3 -1.5Q0.7 -1.5 0.7 -1.1M9.2,-0.7Q9.2 -1.15 9.65 -1.15Q10.05 -1.15 10.05 -0.7L9.55 -0.2Q9.2 -0.2 9.2 -0.7M19,-0.5Q19 -0.95 19.45 -0.95L19.9 -0.5L19.45 -0.15Q19 -0.15 19 -0.5M-23.95,1.85Q-23 2.05 -23 2.45L-23.4 3.1Q-23.8 3.45 -24.25 3.45Q-24.7 3.45 -24.9 2.45Q-24.9 1.65 -23.95 1.85" />
<path style="fill:#333333;fill-opacity:1" d="M8.3,0.05L9.85 1.1L10.7 1.6L10.5 1.95Q9.95 2.65 8.9 2.65L7 2.45Q6 2.15 6 1.2L6 1.1L6.15 -0.25L6.05 -0.7L6.05 -1.45L8.3 0.05M18.5,1L18.9 1.2L20.55 2.05L20.4 2.2Q19.9 2.95 18.8 2.95L16.85 2.8Q15.9 2.45 15.9 1.55L15.95 1L16.05 0.05L15.95 -0.4L15.95 -1.15Q16.95 0.1 18.5 1M-21.4,7.45Q-21.5 8.5 -21.75 8.9Q-22.4 9.85 -25.6 9.85L-28 9.55L-30.35 9.2L-29.8 5.35L-29.75 4.9L-29.65 4.45L-29.3 4.85L-28.85 5.35Q-27.85 6.35 -26.9 6.45Q-23.7 7.45 -21.6 7.45L-21.4 7.45M-0.4,2.4L-2.3 2.2Q-3.15 1.95 -3.25 1.25L-3.3 0.95L-3.1 -0.5L-3.25 -0.95L-3.25 -1.7Q-2.1 -0.35 -0.25 0.65L0.75 1.2L1.4 1.45L1.2 1.65Q0.7 2.4 -0.4 2.4" />
<path style="fill:#3F3305;fill-opacity:1" d="M19.05,18L18.5 16.95Q17.75 16.05 16.55 15.9L18.45 15.1Q19.5 14.75 19.55 13.85L19.5 9.8L21.6 9.9L23.7 9.65Q24.6 9.35 24.8 8.2Q24.95 7.2 25.85 7.2L27.3 7.35L27.15 8.85L26.3 10.7Q25.3 12.85 23.25 12.75Q23.15 14.35 22.7 15.5L22.1 15.85L22.4 16.1Q21.4 17.95 19.15 18.35L19.05 18" />
<path style="fill:#B89A23;fill-opacity:1" d="M22.7,15.5L22.4 16.1L22.1 15.85L22.7 15.5M-16.05,19.2L-16.15 20.95Q-16.4 21.6 -19.8 21.6L-27.3 21.1L-30.95 20.2Q-31.9 19.5 -31.9 16.8L-31.8 14.55L-30.9 15.65L-29.1 16.65L-27.1 17.2L-24.35 18.35L-21.75 18.9L-20.15 18.65Q-19.55 18.15 -19.2 17.15L-19 15.9L-18.65 13.4L-18.5 12.65L-17.65 10.1Q-16.8 8.15 -15.65 7.55Q-13.7 6.65 -11.35 6.6L-8.15 6.75L-4.9 6.25L-2.05 5.85L-1 5.75L0.2 5.8L3.75 6L7.9 5.9Q11.85 5.9 13.1 7.65Q13.8 8.7 13.7 11.45L13.65 13.7Q13.7 14.7 14 15.25Q14.4 15.9 15.15 16.3Q16.35 16.95 18.5 16.95L19.05 18L19.15 18.35L19.55 20.75L14.35 20.9Q12.25 20.9 11.75 18.9L11.6 17.7L11.95 13.05L11.9 11.5Q11.75 9.55 10.65 9.05Q9.55 8.55 8.3 8.5L2.95 8.3L0.2 8.3L-0.6 8.3L-2.05 8.35L-10.25 8L-10.85 8.15Q-13.65 8.15 -14.6 9.3Q-15.5 10.45 -15.8 14L-15.85 15L-15.95 17.95L-16.05 19.2" />
<path style="fill:#A86706;fill-opacity:1" d="M10.6,12.5Q10.35 12.5 8.75 13.25L6.65 13.95Q5.7 13.95 4.9 13.25L4.5 12.95L4.5 12.15L2.2 11.85L0.5 11.4Q0.5 9.5 0.2 8.55L0.2 8.3L2.95 8.3L8.3 8.5Q9.55 8.55 10.65 9.05Q11.75 9.55 11.9 11.5L11.95 13.05Q11 12.5 10.6 12.5M-6.6,12.8L-8.45 13.55L-10.5 14.25L-10.55 14.25Q-11.5 14.25 -12.3 13.55Q-13.2 12.8 -13.7 12.8L-14.6 13.4L-15.55 14L-15.8 14Q-15.5 10.45 -14.6 9.3Q-13.65 8.15 -10.85 8.15L-10.25 8L-2.05 8.35L-2.05 11.65L-2.7 11.55L-6.05 11.85L-6.15 12.9L-6.6 12.8" />
<path style="fill:none;stroke-width:1;stroke-linecap:butt;stroke-linejoin:miter;stroke-miterlimit:3;stroke:#5F4E09;stroke-opacity:1" d="M17.15,-20.95L17.4 -20.15L17.25 -18.8M17.15,-20.95Q16.55 -21.55 15 -21.55Q14.5 -21.55 14.35 -20.95L14.25 -20.45L14.15 -18.8L14.1 -18.15L16 -18.2L17.15 -18L17.25 -18.8M14.1,-18.15L13.9 -18.15Q11.45 -18.15 11.25 -17.15L11.3 -16.15M11.1,-12.2L12.25 -12.2L18.5 -12.1L18.95 -12.1L19.45 -12.05Q21.15 -11.9 21.8 -10.4Q22.25 -9.5 22.35 -7.35L22.4 -5.9L22.45 -5.7M19.55,-12.4L19.35 -15.6Q19.05 -17.2 18.3 -17.6L17.15 -18M-7.4,-10L-7 -11.9L-6.65 -11.9L0.25 -12Q0.45 -11.25 0.3 -10.2L0.15 -9.6L2.65 -9.55Q4.3 -9.15 3.65 -7.55Q5.35 -8.5 7.05 -8.95L7.05 -10L7.05 -10.5L7.7 -11.8L7.6 -12.15L11.1 -12.2L11.3 -16.15M-7.4,-10L-7.55 -9.45L-9.9 -9.45L-11.4 -9.75L-12 -7.7Q-12.25 -7.05 -13.1 -7.05Q-14.15 -7.05 -15.9 -7.8L-16.3 -5.3L-13.15 -5.25L-9.95 -5.45L-8.4 -5.3L-7.05 -5.3L9.35 -6L10.5 -6L14 -5.9L21.05 -5.55M29.2,5.9L29.2 5.05L29.2 0.85L29.15 0L29.15 -1.45L29.15 -2.1Q29.15 -4.55 26.8 -5.3L22.5 -5.5L22.45 -5.5L22.4 -5.5L21.3 -5.55L21.05 -5.55M6,1.1L6.15 -0.25L6.05 -0.7L6.05 -1.45L6.05 -1.7L6.15 -2M6,1.1L6 1.2Q6 2.15 7 2.45L8.9 2.65Q9.95 2.65 10.5 1.95L10.7 1.6L10.7 1.45L10.8 1.1L10.95 -1.25Q10.95 -2.7 6.8 -2.7Q6.4 -2.7 6.15 -2M20.4,2.2Q19.9 2.95 18.8 2.95L16.85 2.8Q15.9 2.45 15.9 1.55L15.95 1L16.05 0.05L15.95 -0.4L15.95 -1.15L15.95 -1.4L16.15 -1.95L16.7 -2.4L18.5 -2.3Q20.8 -2.05 20.8 -0.95L20.75 0.95M22.4,-5.9L22.4 -5.7L22.45 -5.7M29.15,-1.45L30.15 -1.45L30.65 -1.35L31.8 -0.95L31.9 0.65L31.9 0.85L31.8 3.9L31.7 4.65L31.6 5.05L31 5.7L30.65 5.85L29.2 5.9L29.2 7.65L28.4 7.5L27.8 7.4L27.15 8.85L26.3 10.7Q25.3 12.85 23.25 12.75Q23.15 14.35 22.7 15.5L22.4 16.1Q21.4 17.95 19.15 18.35L19.55 20.75L14.35 20.9Q12.25 20.9 11.75 18.9L7.65 18.9L6.75 15.9Q6 14.3 4.2 14.7L4.5 12.95L4.5 12.15L2.2 11.85L0.5 11.4Q0.5 9.5 0.2 8.55M11.95,13.05L11.9 11.5Q11.75 9.55 10.65 9.05Q9.55 8.55 8.3 8.5L2.95 8.3L0.2 8.3L-0.6 8.3L-2.05 8.35L-2.05 11.65L-2.7 11.55L-6.05 11.85L-6.15 12.9L-6.35 13.8Q-6.7 14.7 -7.5 14.7L-9.45 14.25L-10.5 14.25L-10.8 15.3L-11.1 16.35L-10.65 17.65L-9.85 19.2L-16.05 19.2L-16.15 20.95Q-16.4 21.6 -19.8 21.6L-27.3 21.1L-30.95 20.2Q-31.9 19.5 -31.9 16.8L-31.8 14.55L-31.75 10.25L-31.5 9.4L-30.45 9.2L-30.35 9.2L-29.8 5.35L-29.75 4.9L-29.65 4.45L-28.95 1.55L-28.65 0.7L-29.2 0.8Q-29.95 0.8 -29.95 -0.4Q-29.95 -2.7 -29 -3.9Q-28.15 -5 -26.6 -5.25L-25.75 -5.2L-25.65 -4.8Q-25.4 -3.5 -24.85 -3L-24.75 -2.9L-24.5 -3.05L-23.7 -3.75Q-22.95 -4.35 -22.45 -4.35Q-22.05 -4.35 -21.7 -3.5L-21.45 -3.1L-20.7 -2.7L-17.95 -3Q-17.25 -3.25 -16.9 -3.65Q-16.55 -4.05 -16.3 -5.3M20.4,2.2L20.55 2.05L20.6 1.8L20.75 0.95M18.5,16.95Q17.75 16.05 16.55 15.9L18.45 15.1Q19.5 14.75 19.55 13.85L19.5 9.8L21.6 9.9L23.7 9.65Q24.6 9.35 24.8 8.2Q24.95 7.2 25.85 7.2L27.3 7.35L27.8 7.4M-21.35,1.45L-21.3 4.75L-21.3 5.3L-21.4 7.45Q-21.5 8.5 -21.75 8.9Q-22.4 9.85 -25.6 9.85L-28 9.55L-30.35 9.2M18.5,16.95L19.05 18L19.15 18.35M1.4,1.45L1.45 1.2Q1.65 0.5 1.65 -1.5Q1.65 -2.95 -2.45 -2.95L-3 -2.5L-3.25 -1.95L-3.25 -1.7L-3.25 -0.95L-3.1 -0.5L-3.3 0.95L-3.25 1.25Q-3.15 1.95 -2.3 2.2L-0.4 2.4Q0.7 2.4 1.2 1.65M1.4,1.45L1.2 1.65M11.95,13.05L11.6 17.7L11.75 18.9M-2.05,8.35L-10.25 8L-10.85 8.15Q-13.65 8.15 -14.6 9.3Q-15.5 10.45 -15.8 14L-15.85 15L-15.95 17.95L-16.05 19.2M-21.35,1.45L-21.4 1.2Q-21.75 0.35 -24.1 0.35L-28.6 0.7L-28.65 0.7" />
<path style="fill:none;stroke-width:1;stroke-linecap:butt;stroke-linejoin:miter;stroke-miterlimit:3;stroke:#333333;stroke-opacity:1" d="M17.25,-18.8L28.6 -18.8L28.6 -20.95L17.15 -20.95M14.35,-20.95L9.35 -20.95L3.9 -16.45L5.25 -14.8L10.1 -18.8L10.7 -19.3M14.15,-18.8L10.1 -18.8" />
</g>
</svg>
