<?xml version="1.0" encoding="utf-8"?>
<svg version="1.1" id="Layer_1"
xmlns="http://www.w3.org/2000/svg"
xmlns:xlink="http://www.w3.org/1999/xlink"
xmlns:author="http://www.sothink.com"
width="32px" height="35px"
xml:space="preserve">
<g id="47" transform="matrix(1, 0, 0, 1, 24.05, 29.85)">
<path style="fill:#77F5DB;fill-opacity:1" d="M7.35,-25.7L7.5 -25.35L7.65 -24.7Q7.3 -22.8 6.45 -22.8Q5.6 -22.8 5.35 -23.4L5.25 -24.65L5.5 -24.85Q6.75 -25.7 7.35 -25.7M-5.3,-26.6Q-5.9 -26 -6.8 -26Q-8.85 -26 -8.85 -27.35L-8.55 -28.55L-8.25 -29.85L-5.9 -29.85L-5.1 -29.2Q-4.7 -28.9 -4.7 -28.25Q-4.7 -27.25 -5.3 -26.6M-6.45,-7.95L-6.45 4.4L-9.45 4.4L-10.45 3.7Q-8.5 -3.9 -7.65 -8.2L-6.45 -7.95" />
<path style="fill:#D2DEEE;fill-opacity:1" d="M-0.9,-1.35L6.7 -0.9Q7.65 -0.4 7.65 0.35Q7.65 3.5 -20.25 3.5Q-23.15 3.5 -23.85 2.8Q-24.2 2.45 -24 2.05Q-24 0.85 -12.75 -0.3L-0.9 -1.35" />
</g>
</svg>
