<?xml version="1.0" encoding="utf-8"?>
<svg version="1.1" id="Layer_1"
xmlns="http://www.w3.org/2000/svg"
xmlns:xlink="http://www.w3.org/1999/xlink"
xmlns:author="http://www.sothink.com"
width="230px" height="200px"
xml:space="preserve">
<g id="340" transform="matrix(1, 0, 0, 1, 29.75, -372.85)">
<path style="fill:#000000;fill-opacity:0.2" d="M11.55,561.6Q11.55 557.25 34.15 554.2Q56.75 551.1 88.85 551.1Q120.85 551.1 143.5 554.2Q166.05 557.25 166.05 561.6Q166.05 565.95 143.5 569Q120.85 572.05 88.85 572.05Q56.75 572.05 34.15 569Q11.55 565.95 11.55 561.6" />
<path style="fill:#FC850F;fill-opacity:1" d="M55.65,381.4Q53.65 382.15 54.35 397.65Q54.7 405.35 55.45 412.95L58.1 407.4L60.15 409.65L62.2 405.35L64.05 408.05L65.7 405.75L69.8 405.15Q67.05 398.9 63.95 392.85Q57.65 380.65 55.65 381.4M125.6,450.65L126.4 450.6L126.5 450.35L123.7 449.25L120.25 448.45L120 448.75Q120 449.15 120.45 449.4L121.7 450.05L124.85 451.25L125.6 451.2L125.85 451.4L126.2 451.4L124.6 456L123.55 458.85L123.5 458.75Q119.8 456.95 117.85 456.45L117.65 456.45L117.6 456.75Q117.6 457.25 119.3 458.3Q121.05 459.35 122.2 459.55L122.3 459.4L123.1 459.2L123.4 459.3L121.1 465.2L120.25 464.8L118.95 464.35Q116.8 463.45 115.25 463.35L115 463.6Q115 463.9 117 465.05L118.3 465.8Q119.35 466.4 119.95 466.4L120.1 466.15L120.45 466.2L120.6 465.9L120.55 465.75L120.85 465.75L119.25 469.5L140.4 459.4Q150.5 454.65 158.3 452.7Q166.65 450.55 172.4 451.55Q177.95 452.5 183 454.7Q185.55 455.8 187.4 455.9L190.9 456.1Q195.3 455.8 197.4 457.1Q199.5 458.4 198.35 461.15Q197.75 462.55 196.75 463.65Q198.6 465.5 198.25 466.9Q197.8 468.7 195.65 469.45L193.6 469.9Q194.35 471.8 193.7 472.65Q191.25 475.75 188.6 474.3Q188.05 474 185.9 469.65Q184 465.7 182.65 465.9Q181.75 466.05 183 470.15Q184.3 474.35 181.85 474.9Q179.1 475.55 177.95 470.9L177.35 466.1Q167.4 464.05 158.3 464.25Q136.05 464.65 122.25 475.75L123.1 480.25Q124.3 485.25 126.1 487.9Q127.45 489.85 133.85 493Q141 496.45 144.8 500.35Q149.6 505.2 149.4 517.15Q149.3 526.7 146.8 533.55Q145.25 537.75 140.8 542.75L136.6 546.85Q141.55 551.1 147.35 553.95Q153.3 556.85 158.5 557.5L163.2 557.65Q162.95 555.65 163.2 553.45Q163.8 549.05 166.5 548.05L167.4 547.85Q167.85 546.7 168.85 545.8Q170.8 544.05 173.4 545.35Q176 546.65 175.2 549.7L173.85 552.5L174.45 553.55L171.4 559.55Q167.55 565.55 163.6 565.85L158.5 565.4Q154.8 564.65 150.15 562.6Q140.95 558.6 132.2 551.2Q107.35 557 82.9 554.95Q76.85 558.2 70.75 560.4L69.5 559Q68.3 557.9 67.8 557.95L67.8 558.55L68.7 559.65L69.75 560.7L70 560.4L70.35 560.55Q53.5 566.5 36.3 564.5L35.25 564.8L32.7 565.45L27.6 565.9Q25.75 565.75 24 564.4Q19.9 564 15.45 562.8L12.2 561.8L12.55 561.45L12.75 560.9L12.65 559.9L12.85 555Q12.95 554.55 12.5 554.25Q12.05 553.9 11.85 554.55L11.45 556.2Q11 557.4 11 557.95L10.8 559.95L10.85 560.8Q11.05 561.35 11.75 561.15Q11.65 561.35 12 561.75Q6.2 559.6 4.85 556.5Q2.95 552.2 3.6 549.25Q4.15 546.9 6.1 545.65Q7.5 544.8 11.9 547.3L16.05 549.95L16 549.75Q15.2 546.7 17.8 545.4Q20.4 544.1 22.35 545.85Q23.35 546.75 23.8 547.9L24.7 548.1Q27.4 549.1 28 553.5Q28.25 555.7 28 557.7L32.7 557.55Q43.15 556.35 53 547.9Q47.55 544.85 43.05 538.4Q34.15 525.45 39.1 508.3Q40.5 503.5 43.9 500.15Q48.95 495.1 50.15 493.35Q52.85 489.35 52.5 484.7L51.6 480.85Q32.7 465.2 12.2 464.75Q3.1 464.55 -6.85 466.6L-7.45 471.4Q-8.6 476.05 -11.35 475.4Q-13.8 474.85 -12.5 470.65Q-11.25 466.55 -12.15 466.4Q-13.5 466.2 -15.4 470.15Q-17.55 474.5 -18.1 474.8Q-20.75 476.25 -23.2 473.15Q-23.85 472.3 -23.1 470.4L-25.15 469.95Q-27.3 469.2 -27.75 467.4Q-28.1 466 -26.25 464.15Q-27.25 463.05 -27.85 461.65Q-29 458.9 -26.9 457.6Q-24.8 456.3 -20.4 456.6L-16.9 456.4Q-15.05 456.3 -12.5 455.2Q-7.45 453 -1.9 452.05Q3.85 451.05 12.2 453.2Q20 455.15 30.1 459.9Q40.5 464.8 48.65 470.1Q45 463.8 42.55 451.35L40.5 437.1L35.8 432.75L41.7 432.75L34.35 424.6L41.7 426.85L36.8 414.55L46.65 419.85Q43.1 415.1 41.35 407.35L50.55 416.4Q49.5 406.25 49.4 395.95Q49.2 375.3 54 374.4Q58.8 373.5 67 388.6Q71.15 396.15 74.3 403.9L76.85 401.5Q79.8 399.1 82.05 399Q83.15 399 84.8 400.95Q86.55 403.15 87.8 403.5Q89.1 403.9 91.05 401.9Q93.1 399.85 94.55 400Q96.4 400.2 98.55 401.9L100.3 403.5Q103.6 396.45 107.75 389.55Q115.95 375.8 119.95 376.65Q123.95 377.55 123.4 398.1Q123.1 408.35 122 418.45L126.9 415.2L122.8 423.2L132.05 422.15L125.3 431.4L131 430.15L124.85 444.05L128.95 443.45L126.3 451.15L125.6 450.65M110.5,393.9Q107.5 399.35 104.8 404.95L110.15 404.95L110.35 409.25L112.4 407.6L112.2 412.1L115.45 409.25L117.3 414.15L118.7 399.1Q119.75 384 118.1 383.45Q116.5 382.9 110.5 393.9M75.7,434.15L76.6 437.2Q78.6 440.4 83.95 441.4Q92 442.9 98.15 439Q103.5 435.6 103.85 431.1Q104.15 427.1 101.9 424.25Q99.5 421.25 94.8 420.85Q95.35 420 95.55 418.65Q95.9 415.9 94 413.3Q92.1 410.7 88.55 412.15L85.4 414.1Q86.15 415.8 85.85 419.2L85.35 422.3Q83.8 423 82.4 424.05L83.95 422.75L84.7 422.05L85.1 421.4L85.35 420.2L85.5 418.65L85.25 416.5L84.95 414.3Q84.65 413.1 83.85 412.15L83.1 411.6L82.35 411.1L80.6 410.4L79.1 410.35L79 410.4L77.7 410.4L77.05 410.6L76.35 410.8L75.25 411.5L73.15 412.95Q72.9 413.1 72.7 413.75L72.25 414.55L71.65 416.25L71.5 419.6Q71.15 421.35 71.15 422.95L71.35 425.35Q71.4 426.15 72.1 427.75L72.6 428.9L72.9 429.5L73.1 430.1L74.15 432.45L74.65 433.25L75.1 433.25Q76.65 430.65 77.55 429.35L78.45 428.3Q76.35 431.3 75.7 434.15M120.7,462.15L121.7 462.1L121.85 461.85L121.85 461.65L121.95 461.6L122.1 461.35Q122.1 461.1 119.25 459.85Q116.25 458.5 115.35 458.6L115.1 458.75Q115.15 459.15 115.75 459.5L116.95 460.4L118.3 461.3L119.35 461.7Q120.05 462.15 120.7 462.15M124.6,454.8Q124.6 454.35 122.95 453.85L121.3 453.9Q121.3 454.25 122.3 454.7L123.85 455.15L124.35 455.15L124.6 454.8M60.2,447.5Q60.2 446.8 59.2 446.3L58.9 446.3Q58.4 444.75 58.55 441.6L53.95 445.85L50.75 449.6L50.85 449.2L50.75 448.7L46.5 450Q43.25 451.15 43.25 451.6L43.3 451.8L43.55 451.85L43.8 451.8L43.5 452L43.1 452.45L43.15 452.65L43.35 452.7L43.85 452.7L47.15 451.25Q49.4 450.15 50.55 449.9Q49.95 450.75 49.5 451.55Q48.7 453 48.45 454.3L48.3 455.3L48.25 455.2Q46.35 455.35 44.55 456.7L44.85 457.15L45.4 457.15Q47.75 456.25 48.25 455.7Q48 457.95 48.5 459.95L47.55 460.15L46.95 460.5L46.4 460.8L45.8 461.3L46.35 461.45L46.2 461.5L46 461.9Q46 462.35 46.6 462.35L48.2 461.55L48.85 461.2L49.5 462.6L49.9 463.3L49.1 463.55L47.1 464.55Q47.1 464.85 47.25 465.15L47.8 465.6L50.55 464.15Q52.5 466.3 55.6 465.35Q56.9 464.95 58.05 463.75Q59.95 461.7 61.3 457.35L62.75 450.6L59.95 447.95L60.2 447.5M48.85,468.2L48.65 468.4L48.95 469.3L49.45 469.35Q49.7 469 51.6 468.05L54.1 466.35L54 466.1Q53.35 466 52.75 466.35Q52.15 466.65 51.55 466.9Q50.85 467 50.2 467.4L48.85 468.2M58.65,471.45L58.55 471.45Q56.65 471.95 55.6 472.55L54.4 473.45L53.65 473.8Q53.05 474.1 53.05 474.35L53.45 475L53.4 475.1L53.6 475.45L54.3 475.6Q57.8 473.15 57.9 472.65L58.15 472.5L58.35 472.2L58.3 472.15L58.35 472.1L58.7 471.65L58.65 471.45M73.6,474.95L72.75 475.05L70.45 475.25L67.95 474.85L66.85 474.3L65.4 473.5Q64.8 472.9 64.35 473.1Q64.35 473.45 64.8 474.05L65.6 475.15L66.5 476.2L67.85 477.15L68.2 477.2Q73.85 476.05 73.85 475.2L73.6 474.95M16.6,558.5L16.8 558.9L16.55 559.95L16.6 561.4Q16.75 562.65 17.45 562.65Q18.1 562.65 18.1 562.3L17.95 561.85L17.8 561.25L17.6 560.15L17.35 559Q17.15 558.3 16.6 558.5M72.85,556.25Q72.65 556.55 73.15 557L73.9 557.75L74.65 557.95L75.1 557.9L75.25 557.7L74.25 556.7Q73.4 556.05 72.85 556.25M63.65,559.4L63.35 559.7Q63.35 561.35 64.6 561.4L64.7 561.2L63.65 559.4M46.15,561.65Q45.6 561.5 45.35 562.05Q45.1 562.55 45.1 563.2Q45.1 564.25 45.65 564.5L46.05 564.4Q45.95 562.55 46.25 561.85L46.15 561.65M57.85,560L57.8 560.7Q57.8 562.25 58.2 562.7L58.45 562.75L58.75 563.1L59.35 563.1L59.45 563.05L59.5 562.7L58.95 561.2Q58.3 560.05 57.85 560M52.65,561.65L52.25 560.45Q51.95 559.65 51.35 559.7L51.35 562.55Q51.35 563.1 51.5 563.4L51.75 563.85L51.7 564.15L51.85 564.3L52.2 564.35L53.2 564.35L53.3 564.2L53.35 564L53.2 563.6L53 562.9L52.65 561.65M51.55,556.9Q61.4 557.55 72.2 553.7L59.15 551.15L51.55 556.9" />
<path style="fill:#E66006;fill-opacity:1" d="M63.95,392.85Q67.05 398.9 69.8 405.15L65.7 405.75L64.05 408.05L62.2 405.35L60.15 409.65L58.1 407.4L55.45 412.95Q54.7 405.35 54.35 397.65Q53.65 382.15 55.65 381.4Q57.65 380.65 63.95 392.85M118.1,383.45Q119.75 384 118.7 399.1L117.3 414.15L115.45 409.25L112.2 412.1L112.4 407.6L110.35 409.25L110.15 404.95L104.8 404.95Q107.5 399.35 110.5 393.9Q116.5 382.9 118.1 383.45" />
<path style="fill:#FFFFFF;fill-opacity:1" d="M81,425.35L80.4 426.05L79.7 426.7L79.55 427.05L79.2 427.35L78.65 428.05L78.45 428.3L77.55 429.35Q76.65 430.65 75.1 433.25L74.65 433.25L74.15 432.45L73.1 430.1L72.9 429.5L72.6 428.9L72.1 427.75Q71.4 426.15 71.35 425.35L71.15 422.95Q71.15 421.35 71.5 419.6L71.65 416.25L72.25 414.55L72.7 413.75Q72.9 413.1 73.15 412.95L75.25 411.5L76.35 410.8L77.05 410.6L77.7 410.4L79 410.4L79.1 410.35L80.6 410.4L82.35 411.1L83.1 411.6L83.85 412.15Q84.65 413.1 84.95 414.3L85.25 416.5L85.5 418.65L85.35 420.2L85.1 421.4L84.7 422.05L83.95 422.75L82.4 424.05L81 425.35M91.15,420.85Q88 421.1 85.35 422.3L85.85 419.2Q86.15 415.8 85.4 414.1L88.55 412.15Q92.1 410.7 94 413.3Q95.9 415.9 95.55 418.65Q95.35 420 94.8 420.85Q93.15 420.7 91.15 420.85M88.95,420.3L89.95 420.35L90.65 419.55L90.7 418.8L90.5 417.9Q89.85 416.8 88.85 417.1Q88.1 417.55 88.1 418.85Q88.1 419.45 88.95 420.3M81.7,422.65Q82.65 421.25 82.65 420.5Q82.65 417.15 80.5 417.4Q78.3 417.65 78.3 420.4L78.5 421.8Q78.95 422.8 80.35 423.15Q80.55 422.95 81.1 422.8L81.7 422.65" />
<path style="fill:#FF6D6B;fill-opacity:1" d="M94.8,420.85Q99.5 421.25 101.9 424.25Q104.15 427.1 103.85 431.1Q103.5 435.6 98.15 439Q92 442.9 83.95 441.4Q78.6 440.4 76.6 437.2L75.7 434.15Q76.35 431.3 78.45 428.3L78.65 428.05L79.2 427.35L79.55 427.05L79.7 426.7L80.4 426.05L81 425.35L82.4 424.05Q83.8 423 85.35 422.3Q88 421.1 91.15 420.85Q93.15 420.7 94.8 420.85" />
<path style="fill:#FF2E28;fill-opacity:1" d="M49.9,463.3L49.5 462.6L48.85 461.2L49.25 460.7L48.9 460.4L48.95 460.3L48.75 459.95L48.5 459.95Q48 457.95 48.25 455.7L48.35 455.45L48.3 455.3L48.45 454.3Q48.7 453 49.5 451.55Q49.95 450.75 50.55 449.9L50.6 449.85L50.75 449.6L53.95 445.85L58.55 441.6Q58.4 444.75 58.9 446.3L58.85 446.3L57.75 447.15L57.5 447.2Q55.5 449.7 54.3 452.4L53.4 454.7Q52.65 456.85 52.65 457.55L52.8 458.1L53.05 458.15L54 455.45Q54.6 453.8 55.45 452.7Q56.5 451.3 57.75 450.05L59.95 447.95L62.75 450.6L61.3 457.35Q59.95 461.7 58.05 463.75Q56.9 464.95 55.6 465.35Q52.5 466.3 50.55 464.15L50.75 463.8Q50.75 463.1 49.9 463.3M59.15,447.5L58.95 446.95L59.5 447.4L59.15 447.5" />
<path style="fill:#582903;fill-opacity:1" d="M12.1,561.85L12 561.75Q11.65 561.35 11.75 561.15Q11.05 561.35 10.85 560.8L10.8 559.95L11 557.95Q11 557.4 11.45 556.2L11.85 554.55Q12.05 553.9 12.5 554.25Q12.95 554.55 12.85 555L12.65 559.9L12.75 560.9L12.55 561.45L12.2 561.8L12.1 561.85M70.4,560.6L70.35 560.55L70 560.4L69.75 560.7L68.7 559.65L67.8 558.55L67.8 557.95Q68.3 557.9 69.5 559L70.75 560.4L70.4 560.6M121.25,465.4L120.85 465.75L120.55 465.75L120.6 465.9L120.45 466.2L120.1 466.15L119.95 466.4Q119.35 466.4 118.3 465.8L117 465.05Q115 463.9 115 463.6L115.25 463.35Q116.8 463.45 118.95 464.35L120.25 464.8L121.1 465.2L121.25 465.4M123.75,459.15L123.5 459.35L123.4 459.3L123.1 459.2L122.3 459.4L122.2 459.55Q121.05 459.35 119.3 458.3Q117.6 457.25 117.6 456.75L117.65 456.45L117.85 456.45Q119.8 456.95 123.5 458.75L123.55 458.85L123.75 459.15M126.2,451.4L125.85 451.4L125.6 451.2L124.85 451.25L121.7 450.05L120.45 449.4Q120 449.15 120 448.75L120.25 448.45L123.7 449.25L126.5 450.35L126.4 450.6L125.6 450.65L126.3 451.15L126.35 451.2L126.2 451.4M88.1,418.85Q88.1 417.55 88.85 417.1Q89.85 416.8 90.5 417.9L90.7 418.8L90.65 419.55L89.95 420.35L88.95 420.3Q88.1 419.45 88.1 418.85M81.1,422.8Q80.55 422.95 80.35 423.15Q78.95 422.8 78.5 421.8L78.3 420.4Q78.3 417.65 80.5 417.4Q82.65 417.15 82.65 420.5Q82.65 421.25 81.7 422.65L81.1 422.8M119.35,461.7L118.3 461.3L116.95 460.4L115.75 459.5Q115.15 459.15 115.1 458.75L115.35 458.6Q116.25 458.5 119.25 459.85Q122.1 461.1 122.1 461.35L121.95 461.6L121.85 461.65L121.85 461.85L121.7 462.1L120.7 462.15Q120.05 462.15 119.35 461.7M124.35,455.15L123.85 455.15L122.3 454.7Q121.3 454.25 121.3 453.9L122.95 453.85Q124.6 454.35 124.6 454.8L124.35 455.15M50.75,463.8L50.55 464.15L47.8 465.6L47.25 465.15Q47.1 464.85 47.1 464.55L49.1 463.55L49.9 463.3Q50.75 463.1 50.75 463.8M48.75,459.95L48.95 460.3L48.9 460.4L49.25 460.7L48.85 461.2L48.2 461.55L46.6 462.35Q46 462.35 46 461.9L46.2 461.5L46.35 461.45L45.8 461.3L46.4 460.8L46.95 460.5L47.55 460.15L48.5 459.95L48.75 459.95M48.35,455.45L48.25 455.7Q47.75 456.25 45.4 457.15L44.85 457.15L44.55 456.7Q46.35 455.35 48.25 455.2L48.3 455.3L48.35 455.45M50.6,449.85L50.55 449.9Q49.4 450.15 47.15 451.25L43.85 452.7L43.35 452.7L43.15 452.65L43.1 452.45L43.5 452L43.8 451.8L43.55 451.85L43.3 451.8L43.25 451.6Q43.25 451.15 46.5 450L50.75 448.7L50.85 449.2L50.75 449.6L50.6 449.85M58.9,446.3L59.2 446.3Q60.2 446.8 60.2 447.5L59.95 447.95L57.75 450.05Q56.5 451.3 55.45 452.7Q54.6 453.8 54 455.45L53.05 458.15L52.8 458.1L52.65 457.55Q52.65 456.85 53.4 454.7L54.3 452.4Q55.5 449.7 57.5 447.2L57.75 447.15L58.85 446.3L58.9 446.3M59.5,447.4L58.95 446.95L59.15 447.5L59.5 447.4M50.2,467.4Q50.85 467 51.55 466.9Q52.15 466.65 52.75 466.35Q53.35 466 54 466.1L54.1 466.35L51.6 468.05Q49.7 469 49.45 469.35L48.95 469.3L48.65 468.4L48.85 468.2L50.2 467.4M58.7,471.65L58.35 472.1L58.3 472.15L58.35 472.2L58.15 472.5L57.9 472.65Q57.8 473.15 54.3 475.6L53.6 475.45L53.4 475.1L53.45 475L53.05 474.35Q53.05 474.1 53.65 473.8L54.4 473.45L55.6 472.55Q56.65 471.95 58.55 471.45L58.65 471.45L58.7 471.65M73.85,475.2Q73.85 476.05 68.2 477.2L67.85 477.15L66.5 476.2L65.6 475.15L64.8 474.05Q64.35 473.45 64.35 473.1Q64.8 472.9 65.4 473.5L66.85 474.3L67.95 474.85L70.45 475.25L72.75 475.05L73.6 474.95L73.85 475.2M17.35,559L17.6 560.15L17.8 561.25L17.95 561.85L18.1 562.3Q18.1 562.65 17.45 562.65Q16.75 562.65 16.6 561.4L16.55 559.95L16.8 558.9L16.6 558.5Q17.15 558.3 17.35 559M74.25,556.7L75.25 557.7L75.1 557.9L74.65 557.95L73.9 557.75L73.15 557Q72.65 556.55 72.85 556.25Q73.4 556.05 74.25 556.7M64.7,561.2L64.6 561.4Q63.35 561.35 63.35 559.7L63.65 559.4L64.7 561.2M46.25,561.85Q45.95 562.55 46.05 564.4L45.65 564.5Q45.1 564.25 45.1 563.2Q45.1 562.55 45.35 562.05Q45.6 561.5 46.15 561.65L46.25 561.85M58.95,561.2L59.5 562.7L59.45 563.05L59.35 563.1L58.75 563.1L58.45 562.75L58.2 562.7Q57.8 562.25 57.8 560.7L57.85 560Q58.3 560.05 58.95 561.2M53,562.9L53.2 563.6L53.35 564L53.3 564.2L53.2 564.35L52.2 564.35L51.85 564.3L51.7 564.15L51.75 563.85L51.5 563.4Q51.35 563.1 51.35 562.55L51.35 559.7Q51.95 559.65 52.25 560.45L52.65 561.65L53 562.9" />
<path style="fill:#000000;fill-opacity:0.2" d="M57.8,376.45L57.55 375.75Q57.35 375.25 56.05 375.45Q55.75 375.6 55.65 375.8L55.6 376.4L55.7 376.7Q53.25 377.7 52.35 382.1Q51.85 384.6 51.85 391.2L51.9 396.35Q52 397.8 52.65 402.5L52.9 408.05L53.05 410.15L53.1 411.6Q53 413.35 52.05 414.75L51.1 416.05L51.15 416.6L51.75 416.7L51.85 416.7Q50.95 418.7 50.95 419.6L51 420.05L51.6 420.15L53.95 419.3L52.85 420.9Q52.05 422 52.05 422.55Q52.05 422.95 53.05 423.4L50.65 425.55Q49.15 426.95 49.15 427.4Q49.15 427.85 49.5 427.95L51.25 428.2L51.2 428.25L50.45 429.3L49.75 430.5Q49.75 430.95 50.2 431.15L50.8 430.85L50.35 432.3L49.95 434.1L50.2 434.65L50.45 435.2L50.2 437.8L49.95 441.6L49.7 444.75L49.4 448.1L49.45 448.65Q48.65 449.9 48.5 450.5L48 453.25L47.55 456.4L48.5 462.65Q49.95 466.95 53.25 468.05L53.25 468.15Q56.75 469.15 63.15 473.05Q65.25 474.3 71.75 476.05L75.9 477.05L82.7 478.95L88.35 478.95L97.5 477.25L103.45 475.35Q108.05 473.65 112.5 471.1L116.35 468.3L119.6 465.3L121.9 463.25L121.1 465.2L121.25 465.4L120.85 465.75L119.25 469.5L121.05 468.6L120.9 468.8L120.2 470.2Q119.75 470.85 119.05 472.7Q118.7 473.3 118.65 473.9L118.5 474.2Q117.3 476.85 116.2 478.15L113.25 481.95L111.65 483.95L109.9 485.7Q105.45 488.85 100.5 491.55Q98.15 492.8 90.9 494.45Q83.35 496.1 79.3 496.1L74.9 495.65L72.4 494.95L68.5 494.15L66.8 493.55L62.55 491.95L60.7 490.75L60 490.1Q59.7 490.1 59.55 490.25L59.4 490.35L59.35 490.55Q58.8 490.7 58.45 491.15L57.45 492.7L54.9 495.7Q51.95 499.05 50.75 501.55Q47.55 507.95 47.55 513.4Q47.55 517.25 48.5 520.35Q49.55 523.75 52.2 527.8Q53.2 529.35 55.95 531.2Q58.45 532.95 61.15 534.1Q64.8 535.65 68.85 536.45Q75.05 537.65 85.6 538.15L100.95 538.15L102.25 537.85Q107.2 537.75 117.15 535.75Q129.25 533.3 135.2 530.35L138.3 528.9Q139.9 528.15 140.75 527.45Q141.6 526.75 143.15 526.1L144.9 525L148.35 521.5L149.3 520.3Q148.9 527.85 146.8 533.55Q145.25 537.75 140.8 542.75L136.6 546.85L136.8 547Q136.2 547.05 135.95 547.3Q135.65 547.55 135.65 548.2Q135.65 550.3 144.65 555.6Q154.15 561.2 159.75 561.2Q162.55 561.2 163.15 559.85L163.2 558.2Q163.35 556.6 163.1 555.95L163.2 553.45Q163.8 549.05 166.5 548.05L167.4 547.85Q167.85 546.7 168.85 545.8Q170.8 544.05 173.4 545.35Q176 546.65 175.2 549.7L173.85 552.5L174.45 553.55L171.4 559.55Q167.55 565.55 163.6 565.85L158.5 565.4Q154.8 564.65 150.15 562.6Q140.95 558.6 132.2 551.2Q107.35 557 82.9 554.95Q76.85 558.2 70.75 560.4L70.4 560.6L70.35 560.55Q53.5 566.5 36.3 564.5L35.25 564.8L32.7 565.45L27.6 565.9Q25.75 565.75 24 564.4Q19.9 564 15.45 562.8L12.2 561.8L12.1 561.85L12 561.75Q6.2 559.6 4.85 556.5Q2.95 552.2 3.6 549.25L4.3 547.5Q4.3 549.1 4.7 549.55L7.45 552.35Q8.2 553.25 11.35 554.85Q14.35 556.35 15.75 556.65Q16.25 556.25 16.25 554.9L16.25 553.7L15.95 552.85L15.65 552.3L15.85 552.05Q16.05 552 16.05 551.75L14 549.85L11.85 548.2L9.85 546.55L8.6 546.35L8.05 545.9Q7.7 545.5 7.25 545.5Q6.95 545.5 6.8 545.65L6.6 545.75L6.3 545.6Q7.75 544.95 11.9 547.3L16.05 549.95L16 549.75Q15.2 546.7 17.8 545.4Q20.4 544.1 22.35 545.85Q23.35 546.75 23.8 547.9L23.95 547.95Q21.75 548.35 20.15 549.7Q18.3 551.3 18.3 552.75Q18.3 553.4 20.05 553.75Q22.15 554.1 22.55 554.45Q23.4 555.2 24.2 556.95L25.1 559.5L26.45 560.6Q28.35 561.65 31.15 561.65L35.25 561.2L41.25 559.3Q42.8 558.85 43.85 558.2L46.55 556.55Q48.3 555.6 50.85 553.45Q54 550.7 54 549.35L53.9 548.7L53.4 548.6L46.95 553.7Q45.85 554.35 41.6 556.05L35.05 557.9L29.85 557.85L29.5 557.75L32.7 557.55Q43.15 556.35 53 547.9Q47.55 544.85 43.05 538.4Q34.15 525.45 39.1 508.3Q40.5 503.5 43.9 500.15Q48.95 495.1 50.15 493.35Q52.85 489.35 52.5 484.7L51.6 480.85Q32.7 465.2 12.2 464.75Q3.1 464.55 -6.85 466.6L-7 468.05Q-7.15 467 -7.65 466.45Q-8.4 465.65 -9.15 468.4L-9.9 470.75L-10.35 473.05Q-10.35 473.95 -9.65 474.35L-9 474.35L-7.85 472.75Q-9.05 475.95 -11.35 475.4Q-13.8 474.85 -12.5 470.65Q-11.25 466.55 -12.15 466.4Q-13.5 466.2 -15.4 470.15Q-17.55 474.5 -18.1 474.8Q-20.75 476.25 -23.2 473.15Q-23.85 472.3 -23.1 470.4L-25.15 469.95Q-27.3 469.2 -27.75 467.4Q-28.1 466 -26.25 464.15Q-27.25 463.05 -27.85 461.65Q-29 458.9 -26.9 457.6Q-24.8 456.3 -20.4 456.6L-17.6 456.45L-17.9 458.15Q-17.9 459.05 -17.05 459.75Q-15.3 461.1 -10.65 461.1L-4.65 460.35L4.2 459.55Q7.5 459.55 16.35 461.05Q26.4 462.75 30.45 464.45L36.15 466.9Q39.5 468.45 41.35 469.95L42.6 469.95L43.15 469.5L43.35 468.75L43.05 466.7Q46 468.35 48.65 470.1Q45 463.8 42.55 451.35L40.5 437.1L35.8 432.75L41.7 432.75L34.35 424.6L41.7 426.85L36.8 414.55L46.65 419.85Q43.1 415.1 41.35 407.35L50.55 416.4Q49.5 406.25 49.4 395.95Q49.2 375.3 54 374.4Q58 373.65 64.3 383.9L62.95 382.15L62.4 381.5L62.4 381.35L62.1 381.2L60.45 379.45L60.4 379.4L58.8 377.7L58.55 377.45Q58.6 376.95 58 376.45L57.8 376.45M57.15,379.25L57.9 379.9L60.8 383.4Q62.6 385.9 64.95 390.4L68.45 397.45Q69.1 399.3 70.1 400.95L70.45 401.45L70.6 402.7L70.4 404.25Q69.95 404.95 68.2 405.5Q66.3 406.05 65.2 406.8L63.8 408.15Q63.1 407.15 62.7 407.1L62.1 407.1Q61.55 407.45 60.95 408.55L59.95 409.8L59.3 408.95Q58.8 408.3 58.2 408.3Q57.55 408.3 56.6 410.05L55.75 411.85L54.85 413.2L55 411.6L55.05 410.65L54.9 409.5L54.4 408.65L54.35 408.2L54.05 403.9Q53.45 395.7 53.45 391.3Q53.45 388.75 53.8 385.15Q53.7 383.3 53.9 381.9Q54.35 379.2 56.15 379.2L57.15 379.25M54.2,390.05Q54.2 394.65 54.85 398.55Q55.2 401.1 55.15 402.8L54.95 405.4Q54.95 407.1 55.65 407.1Q56.15 407.1 56.65 406.6L57.6 405.55L58.25 404.7L58.85 404.25L59.35 404.05L59.85 403.2Q59.95 402.85 60.95 402.8Q61.75 402.75 62.05 402.05L62.4 401.1Q62.9 401.6 63.2 401.6L63.8 401.35L63.8 400.2Q60.9 392.65 58.6 388.4Q54.2 380.2 54.2 390.05M120.1,378.35Q118.2 379.2 115.55 382.45Q113.7 384.75 110.05 390.55Q108.35 393.1 106.25 397.2Q104.45 400.8 103.85 402.65Q103.05 403.5 102.4 403.5L101.95 403.4L101.35 401.35Q104.25 395.4 107.75 389.55Q115.95 375.8 119.95 376.65Q121.25 376.95 122.05 379.25L121.6 378.25L121.5 378.15L121.5 378.1Q120.8 377.25 120.3 378L120.1 378.35M120.6,383.35L120.6 383.4L121 387.35L121.2 395.3L120.45 406.1L119.85 413.4L119.35 415.2Q118.8 414.7 117.15 412.2Q115.7 410.05 115.35 410.05L114.05 410.9L112.6 411.75L112.6 411.65L112.75 409.85Q112.7 408.5 111.95 408.5L111.35 408.65L110.85 408.9Q110.8 407.1 110.3 406.15Q109.35 404.35 104.85 404.35L104.8 404.3L105.75 402.45L106.95 399.2Q108.8 395.4 110.15 393.5L111.2 391.6L109.85 394.5L107.85 398.7Q106.15 402.55 106.15 403.15Q106.15 403.85 106.65 404Q107.55 403.45 111.3 402.1L111.55 402.6Q111.75 403 112.3 403L113.25 402.6Q112.95 403.05 113.05 403.9L113.7 404Q115.3 404 116.35 397.2Q117.1 392.4 117.1 390L117.05 388.2Q116.85 387.05 116.1 386.4L115.45 386.4Q114.3 386.9 113.4 387.9Q116.2 383.6 119.15 382.1Q119.8 382.25 120.6 383.35M189.25,460.85Q190.9 461.75 192.45 463.5Q193.95 465.2 195.8 466.15L196.7 466.15L197.1 466L197.2 465.55Q197.2 464.95 194.75 462.45L191.8 459.75L192.4 458.25L193.05 458.75L195.4 459.05Q197.7 459.05 198.15 458.45L198.25 457.85Q199.2 459.1 198.35 461.15Q197.75 462.55 196.75 463.65Q198.6 465.5 198.25 466.9Q197.8 468.7 195.65 469.45L193.6 469.9Q194.35 471.8 193.7 472.65Q191.25 475.75 188.6 474.3Q188.05 474 185.9 469.65Q184 465.7 182.65 465.9Q181.75 466.05 183 470.15Q184.3 474.35 181.85 474.9Q179.1 475.55 177.95 470.9L177.35 466.1Q167.4 464.05 158.3 464.25Q136.05 464.65 122.25 475.75L122.85 479Q121.5 475.95 121.5 474.4Q121.5 473.85 123.15 471.75L123.4 471.45L124.05 471.15L125.5 470.05L129.3 467.6Q132.2 465.65 136.9 464.05L140 462.8L144.5 461.25L149.35 459.7Q153.75 458.55 158 458.55Q164.65 458.55 170.7 459.75L179.4 460.9L179.85 460.9Q180.1 461.4 181.45 461.95L183.95 462.9Q185.35 463.6 186.95 465.9L189.05 469.3Q190.75 471.85 191.8 471.85L192.5 471.65L192.55 471.1Q192.55 469.05 190.65 466.55Q188.7 464.1 188.7 463.5Q188.7 461.9 189.25 460.85M182.35,460.5L182.45 460.45L182.4 460.5L182.35 460.5M173.65,550.2L173.75 549.8Q173.95 549.45 174.85 549.35L175.1 548.35L174.8 547.1L173.1 545.45L172.5 545.45Q172.15 545.55 171.1 546.15L169.7 547.1Q167.25 547.8 166.45 548.6Q165.45 549.6 165.45 552L165.85 553.35Q166.75 554.7 169.25 554.7Q171.6 554.7 172.45 553.65L172.55 553.45L173.45 552.5L173.4 552.1L174.25 551.15L173.8 550.6L173.65 550.2M162.2,558.15L161 557.7L162.1 557.7L162.2 558.15M90.9,411.85Q91.8 411.85 92.55 412.3L91 412.05Q87 411.9 87 414.95Q87 415.95 87.8 416.95Q88.6 418 89.95 418.7L92.7 418.7Q94.65 417.75 94.9 416.15L95.05 416.7L95 419.35Q95.15 420.75 97.55 421.5Q100.75 422.5 102.45 425.1Q104.2 427.75 104.2 431.75Q104.2 433.65 103.3 436.8Q102.4 439.85 101.45 441.45Q100.25 443.5 96.8 446.1Q95.3 447.1 93.2 447.95Q89.6 449.4 86 449.4Q84.45 449.4 81.95 448.4Q79.75 447.55 79.2 447.05L77.65 445.1L76.7 443.25Q75.95 441.8 75.85 439.45L75.5 435.65Q74.15 430.8 71.9 427.9Q68.55 423.65 62.25 421.5Q64.05 420.8 66.2 418.65L69.55 415.15Q70.9 413.6 73.6 412.2Q75.5 411.25 77.55 410.7Q77.15 411 76.7 411.25Q74.25 412.4 73.5 414Q72.9 415.25 72.9 418.25L73.35 421.05Q74.4 423.7 77.3 423.7Q81.65 423.7 83.85 420.05Q85.25 417.7 85.25 415.5L85.1 413.65L85 413.3L85.85 414.1Q86.5 413.55 87.3 413Q88.95 411.85 90.9 411.85M83.05,411.3L81.05 410.25L78.9 410.35L80.5 410.05L82.15 410.3L83.05 411.3M93.6,421.7L88.35 422.1L85.6 422.8Q84.2 423.1 83.55 423.45Q81.2 424.65 79.05 427.75Q77 430.75 77 432.75Q77 434 79.15 435.4Q82 437.25 86.85 437.25Q91.05 437.25 94.85 435.25Q100.25 432.4 100.25 426.85Q100.25 425.45 99.85 424.3Q99.2 422.5 97.7 422.3L93.6 421.7M118.1,436.7Q118.85 437.45 118.85 437.95Q118.85 440.25 114.85 444.35Q110.7 448.55 105.95 450.85Q103.7 452.15 101.4 453.4Q99.2 454.65 96.95 455.85L93.75 456.9L90.05 457.7Q84.05 459.7 77.05 459.7Q73.8 459.7 68.9 458.1L64.65 456.5Q64.15 456.5 63.55 458.2L62.2 461.9Q59.9 467.3 55.7 467.3Q51.3 467.3 49.5 462.25Q48.5 459.45 48.5 456.35Q48.5 455.3 48.95 453.45Q49.35 451.65 49.7 451.1L51.95 447.65L52.75 446.4L53.85 445.25L55.05 444.1L55.2 443.2Q54.9 441.6 55 440.85L55.4 438.35Q55.05 432.85 60.45 428.95Q59.15 437.75 59.15 441.15Q59.15 443.95 59.5 445.05Q59.8 445.95 60.75 447.15Q61.65 449.15 65.05 451.7Q68.35 454.25 72.05 455.1L79.45 455.7Q86.1 455.7 91.8 454.15L96.65 452.45Q100.5 450.9 106.15 448.05Q109.1 446.5 112.15 444Q116.95 440.15 118 436.7L118.1 436.7M56.45,446.95Q54.75 446.95 52.95 450.5Q51.45 453.5 51.45 454.65L51.45 455.2Q51.6 455.7 52.25 455.7Q53.25 455.7 54.85 451.9L57.3 447.65L57.2 447.05L56.45 446.95M56.6,455.7Q55.9 456.7 55.1 458.85Q54.35 461.05 54.35 462.15L54.4 463.05Q54.55 463.5 55.25 463.7Q57.2 464.25 59.7 459.5Q62 455.15 62 452.8Q62 452.1 60.6 451.75Q59.1 451.35 58.4 452.5L56.6 455.7M21.45,546.55L21.4 545.9L20.75 545.25L19.85 545.25L18.5 546.25Q18.15 546.55 18.15 547.35L18.8 548.2L19.85 548.2Q21 547.9 21.25 547.55L21.45 546.55M70.9,555.45L70.5 555.35L64.85 556.25L60 557.15L59.65 557.05L59.65 556.9L58 556.85Q64.9 556.3 72.2 553.7L59.15 551.15L51.55 556.9L55.5 557L52.9 557.45Q50.5 557.85 50.5 558.55L50.55 558.9L50.7 559L50.15 559.15L47.9 559.8Q47.1 560 47.1 560.4L47.35 560.95Q48.05 561.45 50.35 561.45Q54.95 561.45 59.2 560.4Q61.9 559.75 63.35 559L67.2 557.95Q71.05 556.75 71.05 555.85L70.9 555.45M149.05,517.75L149.4 517.15L149.4 517.55L149.05 517.75M152.25,556Q155.5 557.1 158.5 557.5L159.1 557.55L159.2 557.8L157.9 558Q155.85 557.6 153.25 556.45L152.25 556M144.2,552.3L147.35 553.95L145.2 553.1L144.2 552.3M145.45,554.35Q146.5 554.8 146.85 555.4L147.1 555.75Q140.75 552.3 136.85 548.3L137.6 547.65L142.85 551.45Q142.6 551.5 142.6 552Q142.6 552.6 143.9 553.45L145.45 554.35M-14.6,465.95Q-18.4 464.35 -21.7 473.1L-21.65 473.7L-20.75 474.55Q-18.8 474.4 -17.7 473.1L-16.5 471.1Q-13.9 467.2 -13.9 466.75Q-13.9 466.35 -14.6 465.95M-23.15,459.6L-23.7 459Q-27.75 459 -27.75 460.6L-27.7 461.1L-27.2 461.55Q-26.15 461.65 -24.65 460.95Q-23.15 460.3 -23.15 459.6M-20.9,462.6Q-21.8 462.9 -22.7 463.75L-24 465.45L-25.5 467.4L-26.55 468.75Q-26.55 469.5 -25.7 469.5L-25.25 469.35L-25.05 469.15L-23.6 468.75L-22.15 467.1Q-19.6 463.8 -19.6 463.45Q-19.6 462.85 -20.35 462.6L-20.9 462.6" />
<path style="fill:#FFFFFF;fill-opacity:0.4" d="M93.25,429.9L91.05 430.6L89.65 430.85L86.75 431.2L84.05 431.2Q82.2 430.95 80.95 429.95Q79.95 429.1 79.95 428.35Q79.95 426.9 81.9 425.1Q83.75 423.45 85.85 422.75Q89.95 421.3 93.85 421.3Q98.8 421.3 98.8 424.3Q98.8 426.6 96.6 428.1L95.45 429.05L93.25 429.9" />
<path style="fill:none;stroke-width:3;stroke-linecap:round;stroke-linejoin:miter;stroke-miterlimit:3;stroke:#AE4200;stroke-opacity:1" d="M124.6,456L128.95 443.45L124.85 444.05L131 430.15L125.3 431.4L132.05 422.15L122.8 423.2L126.9 415.2L122 418.45Q123.1 408.35 123.4 398.1Q123.95 377.55 119.95 376.65Q115.95 375.8 107.75 389.55Q103.6 396.45 100.3 403.5L98.55 401.9Q96.4 400.2 94.55 400Q93.1 399.85 91.05 401.9Q89.1 403.9 87.8 403.5Q86.55 403.15 84.8 400.95Q83.15 399 82.05 399Q79.8 399.1 76.85 401.5L74.3 403.9Q71.15 396.15 67 388.6Q58.8 373.5 54 374.4Q49.2 375.3 49.4 395.95M190.15,464.5L187.8 461.6M193.15,460.65L190.95 459.1M-22.65,461.15L-20.45 459.6M-19.65,465L-17.3 462.1" />
<path style="fill:none;stroke-width:2;stroke-linecap:round;stroke-linejoin:miter;stroke-miterlimit:3;stroke:#AE4200;stroke-opacity:1" d="M63.95,392.85Q67.05 398.9 69.8 405.15L65.7 405.75L64.05 408.05L62.2 405.35L60.15 409.65L58.1 407.4L55.45 412.95Q54.7 405.35 54.35 397.65Q53.65 382.15 55.65 381.4Q57.65 380.65 63.95 392.85M118.1,383.45Q119.75 384 118.7 399.1L117.3 414.15L115.45 409.25L112.2 412.1L112.4 407.6L110.35 409.25L110.15 404.95L104.8 404.95Q107.5 399.35 110.5 393.9Q116.5 382.9 118.1 383.45" />
<path style="fill:none;stroke-width:2;stroke-linecap:round;stroke-linejoin:miter;stroke-miterlimit:3;stroke:#582903;stroke-opacity:1" d="M81.65,410.55Q78.35 409.3 74.55 411.85Q71 414.25 71.05 421.3M67.95,453.95Q71.15 455.45 74.85 456.15Q83.75 457.85 94.2 454.25Q103.45 451.05 109.75 446.6L113.75 443.35Q118.5 438.95 118.7 436.65Q118.75 435.9 115.95 435.2L113.15 434.65" />
<path style="fill:none;stroke-width:3;stroke-linecap:butt;stroke-linejoin:miter;stroke-miterlimit:3;stroke:#AE4200;stroke-opacity:1" d="M126.1,487.9Q124.3 485.25 123.1 480.25L122.25 475.75Q136.05 464.65 158.3 464.25Q167.4 464.05 177.35 466.1L177.95 470.9Q179.1 475.55 181.85 474.9Q184.3 474.35 183 470.15Q181.75 466.05 182.65 465.9Q184 465.7 185.9 469.65Q188.05 474 188.6 474.3Q191.25 475.75 193.7 472.65Q194.35 471.8 193.6 469.9M50.15,493.35Q48.95 495.1 43.9 500.15Q40.5 503.5 39.1 508.3Q34.15 525.45 43.05 538.4Q47.55 544.85 53 547.9Q43.15 556.35 32.7 557.55L28 557.7Q28.25 555.7 28 553.5Q27.4 549.1 24.7 548.1L23.8 547.9" />
<path style="fill:none;stroke-width:3;stroke-linecap:round;stroke-linejoin:miter;stroke-miterlimit:3;stroke:#AE4200;stroke-opacity:1" d="M119.25,469.5Q121.4 464.8 124.6 456M193.6,469.9Q192.7 467.8 190.15 464.5M-26.25,464.15L-22.65 461.15" />
<path style="fill:none;stroke-width:2;stroke-linecap:round;stroke-linejoin:miter;stroke-miterlimit:3;stroke:#582903;stroke-opacity:1" d="M85.4,414.1Q84.25 411.5 81.65 410.55M71.8,427.85Q74.8 432.05 75.55 438.95M62.75,450.6Q65.15 452.6 67.95 453.95M71.8,427.85Q68.05 422.6 60.8 421.55" />
<path style="fill:none;stroke-width:3;stroke-linecap:round;stroke-linejoin:miter;stroke-miterlimit:3;stroke:#AE4200;stroke-opacity:1" d="M49.4,395.95Q49.5 406.25 50.55 416.4L41.35 407.35Q43.1 415.1 46.65 419.85L36.8 414.55L41.7 426.85L34.35 424.6L41.7 432.75L35.8 432.75L40.5 437.1L42.55 451.35Q45 463.8 48.65 470.1M193.15,460.65L196.75 463.65M173.4,545.35Q170.8 544.05 168.85 545.8Q167.85 546.7 167.4 547.85M133.85,493Q127.45 489.85 126.1 487.9M-19.65,465Q-22.2 468.3 -23.1 470.4M52.5,484.7Q52.85 489.35 50.15 493.35" />
<path style="fill:none;stroke-width:3;stroke-linecap:round;stroke-linejoin:miter;stroke-miterlimit:3;stroke:#AE4200;stroke-opacity:1" d="M48.65,470.1Q49.9 472.2 51.35 473.75Q57.25 480.05 63.8 483.8Q68.35 486.45 72.45 487.5Q79.45 489.35 96.25 484.3Q113.55 479.1 117.3 473.15L119.15 469.7L119.25 469.5M193.6,469.9L195.65 469.45Q197.8 468.7 198.25 466.9Q198.6 465.5 196.75 463.65Q197.75 462.55 198.35 461.15Q199.5 458.4 197.4 457.1Q195.3 455.8 190.9 456.1L187.4 455.9Q185.55 455.8 183 454.7Q177.95 452.5 172.4 451.55Q166.65 450.55 158.3 452.7Q150.5 454.65 140.4 459.4L119.25 469.5M167.4,547.85Q169.85 547.55 172.4 550.55L173.85 552.5M23.8,547.9Q21.35 547.6 18.8 550.6Q18 551.55 17.35 552.55L16.75 553.6L18.75 557.8Q21.3 562.35 24 564.4Q25.75 565.75 27.6 565.9L32.7 565.45L35.25 564.8L36.3 564.5L41.05 562.65Q46.35 560.35 51.55 556.9L59.15 551.15L72.2 553.7L82.9 554.95Q107.35 557 132.2 551.2Q140.95 558.6 150.15 562.6Q154.8 564.65 158.5 565.4L163.6 565.85Q167.55 565.55 171.4 559.55L174.45 553.55L173.85 552.5M48.65,470.1Q40.5 464.8 30.1 459.9Q20 455.15 12.2 453.2Q3.85 451.05 -1.9 452.05Q-7.45 453 -12.5 455.2Q-15.05 456.3 -16.9 456.4L-20.4 456.6Q-24.8 456.3 -26.9 457.6Q-29 458.9 -27.85 461.65Q-27.25 463.05 -26.25 464.15Q-28.1 466 -27.75 467.4Q-27.3 469.2 -25.15 469.95L-23.1 470.4M23.8,547.9Q23.35 546.75 22.35 545.85Q20.4 544.1 17.8 545.4Q15.2 546.7 16 549.75L16.05 549.95Q16.5 551.35 17.35 552.55M16.05,549.95L11.9 547.3Q7.5 544.8 6.1 545.65Q4.15 546.9 3.6 549.25Q2.95 552.2 4.85 556.5Q6.55 560.45 15.45 562.8Q19.9 564 24 564.4M72.2,553.7Q61.4 557.55 51.55 556.9M36.3,564.5Q60 567.3 82.9 554.95" />
<path style="fill:none;stroke-width:3;stroke-linecap:butt;stroke-linejoin:miter;stroke-miterlimit:3;stroke:#AE4200;stroke-opacity:1" d="M173.85,552.5L175.2 549.7Q176 546.65 173.4 545.35M167.4,547.85L166.5 548.05Q163.8 549.05 163.2 553.45Q162.95 555.65 163.2 557.65L158.5 557.5Q153.3 556.85 147.35 553.95Q141.55 551.1 136.6 546.85L140.8 542.75Q145.25 537.75 146.8 533.55Q149.3 526.7 149.4 517.15Q149.6 505.2 144.8 500.35Q141 496.45 133.85 493M-23.1,470.4Q-23.85 472.3 -23.2 473.15Q-20.75 476.25 -18.1 474.8Q-17.55 474.5 -15.4 470.15Q-13.5 466.2 -12.15 466.4Q-11.25 466.55 -12.5 470.65Q-13.8 474.85 -11.35 475.4Q-8.6 476.05 -7.45 471.4L-6.85 466.6Q3.1 464.55 12.2 464.75Q32.7 465.2 51.6 480.85L52.5 484.7" />
<path style="fill:none;stroke-width:2;stroke-linecap:round;stroke-linejoin:miter;stroke-miterlimit:3;stroke:#582903;stroke-opacity:1" d="M85.35,422.3L85.85 419.2Q86.15 415.8 85.4 414.1L88.55 412.15Q92.1 410.7 94 413.3Q95.9 415.9 95.55 418.65Q95.35 420 94.8 420.85M58.55,441.6Q58.35 445.95 59.4 447.25Q60.85 449.05 62.75 450.6M58.55,441.6L53.95 445.85Q50.9 448.95 49.5 451.55Q48.7 453 48.45 454.3Q47.5 458.95 49.5 462.6L50.25 463.75Q52.25 466.35 55.6 465.35Q56.9 464.95 58.05 463.75Q59.95 461.7 61.3 457.35L62.75 450.6" />
<path style="fill:none;stroke-width:2;stroke-linecap:round;stroke-linejoin:miter;stroke-miterlimit:3;stroke:#582903;stroke-opacity:1" d="M71.05,421.3Q71.1 424.8 71.8 427.85M60.35,428.9L58.95 436.95Q58.6 439.6 58.55 441.6" />
<path style="fill:none;stroke-width:2;stroke-linecap:round;stroke-linejoin:miter;stroke-miterlimit:3;stroke:#993127;stroke-opacity:1" d="M94.8,420.85Q99.5 421.25 101.9 424.25Q104.15 427.1 103.85 431.1Q103.5 435.6 98.15 439Q92 442.9 83.95 441.4Q78.6 440.4 76.6 437.2L75.7 434.15Q76.4 431.1 78.7 427.9Q81.4 424.05 85.35 422.3Q88 421.1 91.15 420.85Q93.15 420.7 94.8 420.85z" />
<path style="fill:#582903;fill-opacity:1" d="M102.05,406.7L101.85 406.7L100.1 405.7Q99.7 405.6 99.45 405.3L98.05 404.55L96.8 403.95L93.7 402.65Q91.95 401.95 89.3 401.4L89.25 401.25L89.65 400.8L90.3 400.5L92.25 399.8L91.65 399.3L91.7 399.15L93.75 399.6L93.75 399.5L93.55 399.2L93.35 398.85L93.4 398.7L93.5 398.65L95.1 399.1L96.75 399.9Q98.3 400.8 99.05 401.65Q100.45 403.2 101.05 404.5Q102.05 405.9 102.05 406.35L102.05 406.7M87.25,401.2L87.15 401.4Q83.85 402.05 81.65 402.95L77.75 404.6L76.2 405.35L74.45 406.25L73.65 406.8L71.45 408.05L71.2 408L71.15 407.6Q71.15 407 72.4 405.25Q73.2 403.65 74.95 401.7Q75.85 400.6 77.85 399.5Q78.6 399 79.9 398.5L81.9 397.95L82.05 398L82.1 398.15L81.85 398.6L81.6 399L81.6 399.1L84.15 398.55L84.25 398.75L83.45 399.4L85.9 400.25L86.75 400.65L87.25 401.2" />
</g>
</svg>
