<?xml version="1.0" encoding="utf-8"?>
<svg version="1.1" id="Layer_1"
xmlns="http://www.w3.org/2000/svg"
xmlns:xlink="http://www.w3.org/1999/xlink"
xmlns:author="http://www.sothink.com"
width="26px" height="48px"
xml:space="preserve">
<g id="149" transform="matrix(1, 0, 0, 1, 12.9, 23.75)">
<path style="fill:#D75535;fill-opacity:1" d="M-1.3,0.3Q-2.35 0.3 -4.45 -1.15L-4.55 -1.1L-4.55 -1.25L-5 -1.55Q-7.45 -3.4 -7.3 -4.15L-6 -6.9L-4.5 -9L-4.55 -8.4Q-4.55 -6.9 -3.7 -6.5L-3.65 -6.45Q-2.3 -5.85 -1.55 -4.75Q-1.25 -4.3 -0.5 -1.25L-0.15 -0.55L0.85 -1.8Q2.5 -4 2.5 -5.05Q2.5 -5.75 -0.2 -7.65L-2.1 -8.85L0.1 -12.1Q2.55 -15.55 3.9 -16.95Q2.5 -17.9 2.5 -18.8Q2.5 -19.3 3.3 -20.85L3.65 -21.5Q4.15 -20.85 5.1 -20.35Q6.15 -19.8 7.5 -19.4Q8.4 -18.95 9.1 -16.6L9.65 -15.1Q9.15 -14.7 8.5 -14.7L6.6 -15.45Q5.7 -13.75 2.5 -9.6L4.8 -8.05L7.5 -5.8Q4.85 1.2 2.85 3.1L1.15 1.8L-1 0.2L-1.3 0.3M7.5,10.35L8.6 9.95L9.55 12.45L7.5 10.35M6.75,21.7L6.6 20.65L3.7 20.65L2.45 21L0.75 21.1L-2.1 20.15L-4.65 19.15L-5.4 19.2Q-5.7 19.25 -6.2 19.6L-5.15 21.7L-5.5 23.3L-10.25 23.3L-9.2 19.05L-7.6 13.65L-4.45 2.75L-4.85 2.55L-5.2 2.4Q-4.55 2.3 -4.05 2.9L-0.8 4.15Q1.6 5.15 3.15 6.9Q4.85 8.75 5.55 11.45L6.2 13.65L9.05 22.9L9.2 23.3L6.25 23.3L6.1 22.9L6.75 21.7M-6.4,1.9L-6.35 1.75L-5.2 2.4L-6.4 1.9M2.05,18.3L5.05 18.9L3.65 13.65L3.2 12.5Q1.7 8.8 -1.45 7.6L-2.45 7.3L-3.7 13.65L-4 15.45L-4.25 16.95L2 18.3L2.05 18.3M7.05,19.35L7.35 19.45L7.5 19.45L7.05 19.35" />
<path style="fill:#B8462A;fill-opacity:1" d="M-5.2,2.4L-6.35 1.75Q-5.5 -0.2 -4.75 -0.9L-4.55 -1.1L-4.45 -1.15Q-2.35 0.3 -1.3 0.3L-1 0.2L1.15 1.8L2.85 3.1L4.95 4.7Q6.95 6.1 8.6 9.95L7.5 10.35Q5.2 8.1 3.15 6.9Q1.6 5.15 -0.8 4.15L-4.05 2.9Q-4.55 2.3 -5.2 2.4L-4.85 2.55L-4.45 2.75L-7.6 13.65L-9.2 19.05L-10.25 23.3L-12.4 23.3L-10.35 14.65L-10.1 13.65Q-8 5.6 -6.4 1.9L-5.2 2.4M6.1,22.9L6 22.45L2.6 22.25L0.7 22.15L-5.15 21.7L-6.2 19.6Q-5.7 19.25 -5.4 19.2L-4.65 19.15L-2.1 20.15L0.75 21.1L2.45 21L3.7 20.65L6.6 20.65L6.75 21.7L6.1 22.9" />
<path style="fill:#EE856B;fill-opacity:1" d="M9.1,-16.6Q8.4 -18.95 7.5 -19.4Q6.15 -19.8 5.1 -20.35Q4.15 -20.85 3.65 -21.5L4.05 -22.05L4.3 -22.6L4.6 -23.15L5.35 -23.25Q11.2 -21.1 11.2 -18.75Q11.2 -17.6 10.6 -16.35Q10.2 -15.5 9.65 -15.1L9.1 -16.6M9.55,12.45L9.85 13.4L9.95 13.65L12.4 23.3L9.2 23.3L9.05 22.9L6.2 13.65L5.55 11.45Q4.85 8.75 3.15 6.9Q5.2 8.1 7.5 10.35L9.55 12.45M-0.5,-1.25Q-1.25 -4.3 -1.55 -4.75Q-2.3 -5.85 -3.65 -6.45L-3.7 -6.5Q-4.55 -6.9 -4.55 -8.4L-4.5 -9Q-4 -9.45 -3.5 -9.45Q-3.15 -9.45 -2.1 -8.85L-0.2 -7.65Q2.5 -5.75 2.5 -5.05Q2.5 -4 0.85 -1.8L-0.15 -0.55L-0.5 -1.25" />
<path style="fill:none;stroke-width:1;stroke-linecap:butt;stroke-linejoin:miter;stroke-miterlimit:3;stroke:#833825;stroke-opacity:1" d="M9.65,-15.1Q10.2 -15.5 10.6 -16.35Q11.2 -17.6 11.2 -18.75Q11.2 -21.1 5.35 -23.25L4.6 -23.15L4.3 -22.6L4.05 -22.05L3.65 -21.5M9.65,-15.1Q9.15 -14.7 8.5 -14.7L6.6 -15.45Q5.7 -13.75 2.5 -9.6L4.8 -8.05L7.5 -5.8Q4.85 1.2 2.85 3.1L4.95 4.7Q6.95 6.1 8.6 9.95L9.55 12.45L9.85 13.4L9.95 13.65L12.4 23.3M6.25,23.3L6.1 22.9L6 22.45L2.6 22.25L0.7 22.15L-5.15 21.7L-5.5 23.3M-12.4,23.3L-10.35 14.65L-10.1 13.65Q-8 5.6 -6.4 1.9L-6.35 1.75Q-5.5 -0.2 -4.75 -0.9L-4.55 -1.1L-4.55 -1.25L-5 -1.55Q-7.45 -3.4 -7.3 -4.15L-6 -6.9L-4.5 -9Q-4 -9.45 -3.5 -9.45Q-3.15 -9.45 -2.1 -8.85L0.1 -12.1Q2.55 -15.55 3.9 -16.95Q2.5 -17.9 2.5 -18.8Q2.5 -19.3 3.3 -20.85L3.65 -21.5M3.9,-16.95Q4.85 -16.25 6.6 -15.45M-2.1,-8.85L-0.2 -7.65Q2.5 -5.75 2.5 -5.05Q2.5 -4 0.85 -1.8L-0.15 -0.55L-1 0.2L1.15 1.8L2.85 3.1M2.05,18.3L5.05 18.9L3.65 13.65L3.2 12.5Q1.7 8.8 -1.45 7.6L-2.45 7.3L-3.7 13.65L-4 15.45L-4.25 16.95L2 18.3L2.05 18.3M-4.55,-1.1L-4.45 -1.15L-4.55 -1.25M-4.45,-1.15Q-2.35 0.3 -1.3 0.3L-1 0.2" />
</g>
</svg>
