<?xml version="1.0" encoding="utf-8"?>
<svg version="1.1" id="Layer_1"
xmlns="http://www.w3.org/2000/svg"
xmlns:xlink="http://www.w3.org/1999/xlink"
xmlns:author="http://www.sothink.com"
width="50px" height="50px"
xml:space="preserve">
<g id="296" transform="matrix(1, 0, 0, 1, 24.6, 24.6)">
<path style="fill:#66CC00;fill-opacity:1" d="M24.6,-19.45L24.6 19.45Q24.6 24.6 19.45 24.6L-19.45 24.6Q-24.6 24.6 -24.6 19.45L-24.6 -19.45Q-24.6 -24.6 -19.45 -24.6L19.45 -24.6Q24.6 -24.6 24.6 -19.45M19.45,-23.6L-19.45 -23.6Q-23.6 -23.6 -23.6 -19.45L-23.6 19.45Q-23.6 23.6 -19.45 23.6L19.45 23.6Q23.6 23.6 23.6 19.45L23.6 -19.45Q23.6 -23.6 19.45 -23.6" />
<path style="fill:#52980C;fill-opacity:1" d="M4.25,-11.45L-4.25 -11.45Q-5.2 -11.45 -5.2 -10.3L-5.2 -5.25L-10.3 -5.25Q-11.4 -5.25 -11.4 -4.25L-11.4 4.25Q-11.4 5.2 -10.3 5.2L-5.2 5.2L-5.2 10.25Q-5.2 11.35 -4.25 11.35L4.25 11.35Q5.25 11.35 5.25 10.25L5.25 5.2L10.3 5.2Q11.4 5.2 11.4 4.25L11.4 -4.25Q11.4 -5.25 10.3 -5.25L5.25 -5.25L5.25 -10.3Q5.25 -11.45 4.25 -11.45M23.6,-19.45L23.6 19.45Q23.6 23.6 19.45 23.6L-19.45 23.6Q-23.6 23.6 -23.6 19.45L-23.6 -19.45Q-23.6 -23.6 -19.45 -23.6L19.45 -23.6Q23.6 -23.6 23.6 -19.45" />
<path style="fill:none;stroke-width:1;stroke-linecap:butt;stroke-linejoin:miter;stroke-miterlimit:3;stroke:#66CC00;stroke-opacity:1" d="M4.25,-11.45L-4.25 -11.45Q-5.2 -11.45 -5.2 -10.3L-5.2 -5.25L-10.3 -5.25Q-11.4 -5.25 -11.4 -4.25L-11.4 4.25Q-11.4 5.2 -10.3 5.2L-5.2 5.2L-5.2 10.25Q-5.2 11.35 -4.25 11.35L4.25 11.35Q5.25 11.35 5.25 10.25L5.25 5.2L10.3 5.2Q11.4 5.2 11.4 4.25L11.4 -4.25Q11.4 -5.25 10.3 -5.25L5.25 -5.25L5.25 -10.3Q5.25 -11.45 4.25 -11.45z" />
</g>
</svg>
