<?xml version="1.0" encoding="utf-8"?>
<svg version="1.1" id="Layer_1"
xmlns="http://www.w3.org/2000/svg"
xmlns:xlink="http://www.w3.org/1999/xlink"
xmlns:author="http://www.sothink.com"
width="98px" height="98px"
xml:space="preserve">
<g id="273" transform="matrix(1, 0, 0, 1, 48.9, 48.8)">
<path style="fill:#0A222A;fill-opacity:1" d="M39.65,-33.65L39.65 34.65Q39.65 38.1 37.5 39.45Q36.2 40.2 34.1 40.2L-34.15 40.2Q-39.7 40.2 -39.7 34.65L-39.7 -33.65Q-39.7 -37.55 -37 -38.7L-34.15 -39.2L34.1 -39.2Q39.65 -39.2 39.65 -33.65" />
<path style="fill:#7A9F9F;fill-opacity:1" d="M-38.4,-46.95L38.35 -46.95Q47 -46.95 47 -38.3L47 38.45Q47 41.65 45.85 43.65Q45.1 41.65 44.7 38.9Q44.25 35.85 44.25 27.15L44.65 9.45L44.8 -11.25Q45.6 -18.95 45.6 -25.4L45.5 -29.55Q44.8 -45.1 37.45 -45.1L30 -45.25L23.15 -45.4Q12.4 -45.4 5.4 -44.95L-6.4 -44.55L-14.2 -45.1L-22 -45.7L-28.65 -44.95L-36.8 -44.25Q-40.2 -44.25 -42.8 -45.1L-43.95 -45.5Q-41.9 -46.95 -38.4 -46.95M-39.6,-39.3Q-41.55 -37.45 -41.55 -33.65L-41.55 34.65Q-41.55 42 -34.15 42L34.1 42L37 41.7L35.95 42.75Q34.55 44 33.2 44L30.3 43.7L27.4 43.35L23.9 43.85L20.1 44.35L12.8 43.85L5.6 43.35L-3.35 43.85L-12.4 44.35L-19.3 44.6L-27.2 44.9Q-41.8 44.9 -44.25 30.5Q-45.05 25.5 -44.75 16.5L-44.5 9.45L-44.25 1.35Q-44.6 -10.65 -44.25 -20.35Q-43.5 -39.3 -39.85 -39.3L-39.6 -39.3" />
<path style="fill:#668585;fill-opacity:1" d="M38.35,47.1L-38.4 47.1Q-47.05 47.1 -47.05 38.45L-47.05 -38.3Q-47.05 -43.5 -43.95 -45.5L-42.8 -45.1Q-40.2 -44.25 -36.8 -44.25L-28.65 -44.95L-22 -45.7L-14.2 -45.1L-6.4 -44.55L5.4 -44.95Q12.4 -45.4 23.15 -45.4L30 -45.25L37.45 -45.1Q44.8 -45.1 45.5 -29.55L45.6 -25.4Q45.6 -18.95 44.8 -11.25L44.65 9.45L44.25 27.15Q44.25 35.85 44.7 38.9Q45.1 41.65 45.85 43.65Q43.8 47.1 38.35 47.1M-39.85,-39.3Q-43.5 -39.3 -44.25 -20.35Q-44.6 -10.65 -44.25 1.35L-44.5 9.45L-44.75 16.5Q-45.05 25.5 -44.25 30.5Q-41.8 44.9 -27.2 44.9L-19.3 44.6L-12.4 44.35L-3.35 43.85L5.6 43.35L12.8 43.85L20.1 44.35L23.9 43.85L27.4 43.35L30.3 43.7L33.2 44Q34.55 44 35.95 42.75L37 41.7Q41.5 40.45 41.5 34.65L41.5 -33.65Q41.5 -41.05 34.1 -41.05L-34.15 -41.05Q-37.75 -41.05 -39.6 -39.3L-39.85 -39.3" />
<path style="fill:#435B5B;fill-opacity:1" d="M45.85,43.65Q47 41.65 47 38.45L47 -38.3Q47 -46.95 38.35 -46.95L-38.4 -46.95Q-41.9 -46.95 -43.95 -45.5Q-47.05 -43.5 -47.05 -38.3L-47.05 38.45Q-47.05 47.1 -38.4 47.1L38.35 47.1Q43.8 47.1 45.85 43.65M34.1,-39.2L-34.15 -39.2L-37 -38.7Q-39.7 -37.55 -39.7 -33.65L-39.7 34.65Q-39.7 40.2 -34.15 40.2L34.1 40.2Q36.2 40.2 37.5 39.45Q39.65 38.1 39.65 34.65L39.65 -33.65Q39.65 -39.2 34.1 -39.2M34.1,42L-34.15 42Q-41.55 42 -41.55 34.65L-41.55 -33.65Q-41.55 -37.45 -39.6 -39.3Q-37.75 -41.05 -34.15 -41.05L34.1 -41.05Q41.5 -41.05 41.5 -33.65L41.5 34.65Q41.5 40.45 37 41.7L34.1 42M48.85,-38.3L48.85 38.45Q48.85 43.15 46.8 45.7Q44.2 48.95 38.35 48.95L-38.4 48.95Q-48.9 48.95 -48.9 38.45L-48.9 -38.3Q-48.9 -44.05 -45.75 -46.65Q-43.2 -48.8 -38.4 -48.8L38.35 -48.8Q48.85 -48.8 48.85 -38.3" />
</g>
</svg>
