<?xml version="1.0" encoding="utf-8"?>
<svg version="1.1" id="Layer_1"
xmlns="http://www.w3.org/2000/svg"
xmlns:xlink="http://www.w3.org/1999/xlink"
xmlns:author="http://www.sothink.com"
width="27px" height="10px"
xml:space="preserve">
<g id="49" transform="matrix(1, 0, 0, 1, 19.2, 5.75)">
<path style="fill:#77F5DB;fill-opacity:1" d="M-9.75,-1.8Q-10.35 -2.45 -10.35 -3.1Q-10.35 -3.75 -9.75 -4.4L-10.05 -4.1L-9.75 -4.5L-9.15 -4.7L-7.65 -4.4Q-7.05 -4 -7.05 -2.65Q-7.05 -2.35 -7.65 -1.8Q-8.35 -1.2 -8.85 -1.2L-9.75 -1.8M4.7,1.4L5.25 0.85Q5.6 0.6 6.45 0.3L6.6 0.65L6.75 1.3L6.6 2L6.45 2.6L5 2.6L4.7 1.4" />
<path style="fill:none;stroke-width:1;stroke-linecap:butt;stroke-linejoin:miter;stroke-miterlimit:3;stroke:#628FBE;stroke-opacity:1" d="M-8.85,-1.2Q-8.35 -1.2 -7.65 -1.8Q-7.05 -2.35 -7.05 -2.65Q-7.05 -4 -7.65 -4.4L-9.15 -4.7L-9.75 -4.5L-10.05 -4.1L-9.75 -4.4Q-10.35 -3.75 -10.35 -3.1Q-10.35 -2.45 -9.75 -1.8L-8.85 -1.2M5,2.6L6.45 2.6L6.6 2L6.75 1.3L6.6 0.65L6.45 0.3Q5.6 0.6 5.25 0.85L4.7 1.4L5 2.6" />
<path style="fill:#D2DEEE;fill-opacity:1" d="M-2.1,0.3Q1.2 0.7 1.2 2.05Q0.9 3.45 -0.3 3.5L-14.15 3.65L-15.35 3.8Q-18.05 3.8 -18.9 2.8L-19.2 1.65L-18.9 1.1Q-18.45 0.55 -17.7 0.3L-2.1 0.3" />
</g>
</svg>
