<?xml version="1.0" encoding="utf-8"?>
<svg version="1.1" id="Layer_1"
xmlns="http://www.w3.org/2000/svg"
xmlns:xlink="http://www.w3.org/1999/xlink"
xmlns:author="http://www.sothink.com"
width="123px" height="64px"
xml:space="preserve">
<g id="356" transform="matrix(1, 0, 0, 1, 61.6, 31.5)">
<path style="fill:#AAD614;fill-opacity:1" d="M58.35,-12.85Q60.5 -5.95 59.7 3.05Q59.05 11.55 56 18.1Q52.8 25.05 48.5 26.25Q39.05 28.95 1.35 29.75Q-37.55 30.7 -48.55 27.8Q-53.25 26.55 -56.45 19.35Q-59.5 12.5 -59.95 3.45Q-60.35 -6 -57.7 -13.3Q-54.7 -21.55 -48.55 -24.3Q-35.25 -30.3 0.2 -30Q36.15 -29.75 50.35 -23.2Q55.9 -20.65 58.35 -12.85" />
<path style="fill:#000000;fill-opacity:0.2" d="M-44.95,-25.65Q-47.55 -23.3 -49.6 -20.5Q-52.9 -16 -52.9 -6.45Q-52.9 -3.35 -50.6 1.6Q-48.6 6 -46.15 9.05Q-45.4 10.05 -42.2 11.95L-36.4 15.15Q-34.55 16.05 -30.45 17.2Q-28.1 18.25 -15.05 19.5L8.9 19.5L28.5 17.15Q32.95 16.3 37.6 14.7L43.1 13Q44.9 12.5 47.8 11.1Q49.65 10.3 51.1 9L53.4 6.7Q57.8 2.3 59.95 -2.05L59.7 3.05Q59.05 11.55 56 18.1Q52.8 25.05 48.5 26.25Q39.05 28.95 1.35 29.75Q-37.55 30.7 -48.55 27.8Q-53.25 26.55 -56.45 19.35Q-59.5 12.5 -59.95 3.45Q-60.35 -6 -57.7 -13.3Q-54.7 -21.55 -48.55 -24.3L-44.95 -25.65" />
<path style="fill:#FFFFFF;fill-opacity:0.4" d="M47.9,-8.75Q35.85 -5.2 18.85 -5.2Q1.8 -5.2 -10.25 -8.75Q-22.3 -12.35 -22.3 -17.35Q-22.3 -22.3 -10.25 -25.9Q1.8 -29.45 18.85 -29.45Q32.85 -29.45 43.5 -27.05Q44.7 -25.85 49 -23.4Q55.35 -19.85 56.15 -18.35L57.85 -13.4Q54.9 -10.85 47.9 -8.75" />
<path style="fill:none;stroke-width:3;stroke-linecap:butt;stroke-linejoin:miter;stroke-miterlimit:3;stroke:#39481C;stroke-opacity:1" d="M58.35,-12.85Q60.5 -5.95 59.7 3.05Q59.05 11.55 56 18.1Q52.8 25.05 48.5 26.25Q39.05 28.95 1.35 29.75Q-37.55 30.7 -48.55 27.8Q-53.25 26.55 -56.45 19.35Q-59.5 12.5 -59.95 3.45Q-60.35 -6 -57.7 -13.3Q-54.7 -21.55 -48.55 -24.3Q-35.25 -30.3 0.2 -30Q36.15 -29.75 50.35 -23.2Q55.9 -20.65 58.35 -12.85z" />
</g>
</svg>
