<?xml version="1.0" encoding="utf-8"?>
<svg version="1.1" id="Layer_1"
xmlns="http://www.w3.org/2000/svg"
xmlns:xlink="http://www.w3.org/1999/xlink"
xmlns:author="http://www.sothink.com"
width="43px" height="27px"
xml:space="preserve">
<g id="231" transform="matrix(1, 0, 0, 1, 21.25, 13.25)">
<path style="fill:#FFFFFF;fill-opacity:1" d="M21.3,-9.9L21.3 9.95Q21.3 13.3 17.95 13.3L-17.9 13.3Q-21.25 13.3 -21.25 9.95L-21.25 -9.9Q-21.25 -13.25 -17.9 -13.25L17.95 -13.25Q21.3 -13.25 21.3 -9.9M17.95,-10.25L-17.9 -10.25L-18.25 -9.9L-18.25 9.95L-17.9 10.3L17.95 10.3L18.3 9.95L18.3 -9.9L17.95 -10.25" />
<path style="fill:#FF0000;fill-opacity:0" d="M10.7,-4.55Q9.15 -6.2 6.6 -6.2Q3.9 -6.2 2.25 -4.45Q0.6 -2.7 0.6 0.1Q0.6 2.8 2.2 4.45Q3.85 6.1 6.4 6.1Q9 6.1 10.65 4.4Q12.3 2.65 12.3 -0.15Q12.3 -2.85 10.7 -4.55M8.65,-2.85Q9.45 -1.85 9.45 0Q9.45 1.8 8.65 2.8Q7.85 3.8 6.45 3.8Q5.1 3.8 4.25 2.75Q3.45 1.75 3.45 -0.05Q3.45 -1.8 4.25 -2.85Q5.1 -3.9 6.5 -3.9Q7.9 -3.9 8.65 -2.85M18.3,-9.9L18.3 9.95L17.95 10.3L-17.9 10.3L-18.25 9.95L-18.25 -9.9L-17.9 -10.25L17.95 -10.25L18.3 -9.9M-3.9,-6L-3.85 2.2L-3.9 2.2L-9.2 -6L-12.1 -6L-12.1 5.9L-9.55 5.9L-9.6 -2.55L-4.1 5.9L-1.4 5.9L-1.4 -6L-3.9 -6" />
</g>
</svg>
