<?xml version="1.0" encoding="utf-8"?>
<svg version="1.1" id="Layer_1"
xmlns="http://www.w3.org/2000/svg"
xmlns:xlink="http://www.w3.org/1999/xlink"
xmlns:author="http://www.sothink.com"
width="36px" height="22px"
xml:space="preserve">
<g id="173" transform="matrix(1, 0, 0, 1, 17.75, 10.7)">
<path style="fill:#FF6633;fill-opacity:1" d="M9.65,-10.2L10.5 -8.25L10.75 -7.7L11.4 -6L12.35 -2.85L12.9 -1.15L13.45 0.95L12.25 1.7Q10.6 2.6 10.4 2.3L10.3 2.2L4.75 2.9L3.3 2.55Q2.5 2.4 2 1.95L2 1.9L0.8 0.75L0.8 0.7L-0.25 -2.75L-0.45 -3L-0.6 -3.55L-1.2 -4.7L-1.95 -7.3Q-1.85 -7.9 0.35 -8.5L0.55 -8.55L6 -9.8L6.15 -9.3L3.5 -8.6L2 -8.3L0.55 -8Q-0.2 -7.85 -0.1 -7.35Q0 -6.8 2.4 -7.35L3.65 -7.6L3.7 -7.6L7.1 -8.45L7.8 -8.5L8 -9Q7.55 -9.7 7.15 -9.6L7.1 -10L9.65 -10.2M6.1,-6.9L1.6 -5.6L1.55 -5.4L1.6 -5.25L1.55 -4.7L1.6 -4.6L1.6 -4.5Q1.6 -4.25 1.75 -4.1Q2.65 -1.1 3.4 -0.6Q4.35 -0.1 7.45 -1.25L8.9 -1.6L7.75 -6.1L7.05 -7.2L6.35 -6.95L6.1 -6.9M-13.1,4.7L-13.6 3.1L-13.9 2.55L-13.95 2.55L-14.35 1.15Q-14.45 0.45 -13.95 0L-11.3 -0.9L-11.05 -0.05L-11.1 -0.95Q-9 -1.6 -8.25 -0.75L-8.15 -0.7Q-7.75 -0.25 -6.75 3L-6.4 4.2L-6.1 5.35L-6.45 5.5Q-7.85 6.45 -8.4 6.6Q-10.25 7.1 -11.45 6.05L-11.6 5.9Q-11.95 5.6 -12.2 5.45L-13.1 4.7M-12.6,1.65Q-12.45 2 -11.5 2.1Q-10.4 2.4 -9.35 2.1Q-8.45 1.85 -8.75 1Q-9.15 -0.25 -11.05 -0.05Q-13.05 0.15 -12.6 1.65" />
<path style="fill:#6699CC;fill-opacity:1" d="M6.15,-9.3L6 -9.8L7.1 -10L7.15 -9.6L6.15 -9.3M-11.05,-0.05L-11.3 -0.9L-11.1 -0.95L-11.05 -0.05" />
<path style="fill:#F7C3B1;fill-opacity:1" d="M7.15,-9.6Q7.55 -9.7 8 -9L7.8 -8.5L7.1 -8.45L3.7 -7.6L3.65 -7.6L2.4 -7.35Q0 -6.8 -0.1 -7.35Q-0.2 -7.85 0.55 -8L2 -8.3L3.5 -8.6L6.15 -9.3L7.15 -9.6M-11.05,-0.05Q-9.15 -0.25 -8.75 1Q-8.45 1.85 -9.35 2.1Q-10.4 2.4 -11.5 2.1Q-12.45 2 -12.6 1.65Q-13.05 0.15 -11.05 -0.05" />
<path style="fill:#8F3636;fill-opacity:1" d="M1.6,-5.25L1.55 -5.4L1.6 -5.6L6.1 -6.9L6.25 -6.45L6.4 -6.7L6.35 -6.95L7.05 -7.2L7.75 -6.1L8.9 -1.6L7.45 -1.25Q4.35 -0.1 3.4 -0.6Q2.65 -1.1 1.75 -4.1Q1.6 -4.25 1.6 -4.5L1.6 -4.6L1.6 -5.25" />
<path style="fill:#775277;fill-opacity:1" d="M6.1,-6.9L6.35 -6.95L6.4 -6.7L6.25 -6.45L6.1 -6.9M-13.1,4.7L-12.2 5.45L-12.55 5.95L-13.1 4.7" />
<path style="fill:#9A9898;fill-opacity:1" d="M-0.05,2.7L-2.6 3.45L-5.1 3.95L-6.4 4.2L-6.75 3Q-7.75 -0.25 -8.15 -0.7L-8.25 -0.75L-7.35 -1.4L-5.55 -1.55L-3.75 -1.9L-1.3 -2.8L-0.45 -3L-0.25 -2.75L0.8 0.7L0.8 0.75L1.35 2.15L-0.05 2.7M14.7,-2.4Q13.85 -3.5 13.6 -3.4L12.35 -2.85L11.4 -6L10.75 -7.7L11.6 -7.9Q11.9 -7.85 13.25 -8.3L14.45 -8.15L15.25 -6.65L15.9 -4.95L16.75 -1.65Q15.4 -1.65 14.7 -2.4M12.75,-7.3Q11.75 -7.05 12 -6.1L12.4 -5.45Q12.75 -4.8 13.3 -4.95L14 -5.65L14.15 -6.45Q13.85 -7.7 12.75 -7.3M-13.6,3.1L-13.1 4.7L-12.55 5.95L-14.2 5.95L-16.55 5.85L-16.6 5.65L-17.25 2.8Q-17.05 1.95 -14.85 1.25L-14.35 1.15L-13.95 2.55L-13.6 3.1M-1.9,-1.1L-3.85 -0.8L-3.8 -0.7L-5.3 -0.2Q-6.7 0.35 -6.7 0.75Q-6.5 1.3 -5.5 1.3L-1.95 0.65Q-0.7 0.35 -0.85 -0.25Q-1.1 -1 -1.9 -1.1M-15.15,2.45L-16.05 3L-16.7 3.1L-16.7 3.45L-15.9 4.05L-14.8 4.4Q-14.45 4.35 -14.6 3.9Q-14.55 3.35 -14.65 3.05Q-14.9 2.2 -15.15 2.45" />
<path style="fill:#E0DCDC;fill-opacity:1" d="M14.15,-6.45L14 -5.65L13.3 -4.95Q12.75 -4.8 12.4 -5.45L12 -6.1Q11.75 -7.05 12.75 -7.3Q13.85 -7.7 14.15 -6.45M-0.85,-0.25Q-0.7 0.35 -1.95 0.65L-5.5 1.3Q-6.5 1.3 -6.7 0.75Q-6.7 0.35 -5.3 -0.2L-3.8 -0.7L-3.85 -0.8L-1.9 -1.1Q-1.1 -1 -0.85 -0.25M-14.65,3.05Q-14.55 3.35 -14.6 3.9Q-14.45 4.35 -14.8 4.4L-15.9 4.05L-16.7 3.45L-16.7 3.1L-16.05 3L-15.15 2.45Q-14.9 2.2 -14.65 3.05" />
<path style="fill:#6B6868;fill-opacity:1" d="M13.45,0.95L12.9 -1.15L12.35 -2.85L13.6 -3.4Q13.85 -3.5 14.7 -2.4Q15.4 -1.65 16.75 -1.65L17.1 -0.25Q17.6 2.55 16.25 2.95L14.05 3.3L13.45 0.95M-5.85,6.55L-6.1 5.35L-6.4 4.2L-5.1 3.95L-2.6 3.45L-0.05 2.7L1.35 2.15L2.15 5.8L2.45 6.25L-1.45 7.35L-4.75 8.45L-5.65 8.3L-5.85 6.55M-12.55,5.95L-11.3 9.6L-13.2 9.7L-14.9 9.55L-15.75 7.75L-16.55 5.85L-14.2 5.95L-12.55 5.95" />
<path style="fill:#E25323;fill-opacity:1" d="M0.8,0.75L2 1.9L2 1.95Q2.5 2.4 3.3 2.55L4.75 2.9L10.3 2.2L10.4 2.3Q10.6 2.6 12.25 1.7L13.45 0.95L14.05 3.3L14.3 4.35L9.1 5.5L6.45 6.4L3.7 7.4Q2.8 7.5 2.6 7.15L2.45 6.25L2.15 5.8L1.35 2.15L0.8 0.75M-12.55,5.95L-12.2 5.45Q-11.95 5.6 -11.6 5.9L-11.45 6.05Q-10.25 7.1 -8.4 6.6Q-7.85 6.45 -6.45 5.5L-6.1 5.35L-5.85 6.55L-5.65 8.3Q-5.7 9.2 -6.4 9.4L-9.8 10.3Q-10.8 10.35 -11.3 9.65L-11.3 9.6L-12.55 5.95" />
<path style="fill:none;stroke-width:1;stroke-linecap:butt;stroke-linejoin:miter;stroke-miterlimit:3;stroke:#742323;stroke-opacity:1" d="M14.05,3.3L13.45 0.95L12.9 -1.15L12.35 -2.85L11.4 -6L10.75 -7.7L10.5 -8.25L9.65 -10.2L7.1 -10L6 -9.8L0.55 -8.55L0.35 -8.5Q-1.85 -7.9 -1.95 -7.3L-1.2 -4.7L-0.6 -3.55L-0.45 -3L-0.25 -2.75L0.8 0.7L0.8 0.75M6.35,-6.95L7.05 -7.2L7.75 -6.1L8.9 -1.6L7.45 -1.25Q4.35 -0.1 3.4 -0.6Q2.65 -1.1 1.75 -4.1Q1.6 -4.25 1.6 -4.5L1.6 -4.6L1.55 -4.7L1.6 -5.25L1.55 -5.4L1.6 -5.6L6.1 -6.9L6.35 -6.95M10.75,-7.7L11.6 -7.9Q11.9 -7.85 13.25 -8.3L14.45 -8.15L15.25 -6.65L15.9 -4.95L16.75 -1.65L17.1 -0.25Q17.6 2.55 16.25 2.95L14.05 3.3L14.3 4.35L9.1 5.5L6.45 6.4L3.7 7.4Q2.8 7.5 2.6 7.15L2.45 6.25L-1.45 7.35L-4.75 8.45L-5.65 8.3Q-5.7 9.2 -6.4 9.4L-9.8 10.3Q-10.8 10.35 -11.3 9.65L-11.3 9.6L-13.2 9.7L-14.9 9.55L-15.75 7.75L-16.55 5.85L-16.6 5.65L-17.25 2.8Q-17.05 1.95 -14.85 1.25L-14.35 1.15Q-14.45 0.45 -13.95 0L-11.3 -0.9L-11.1 -0.95Q-9 -1.6 -8.25 -0.75L-7.35 -1.4L-5.55 -1.55L-3.75 -1.9L-1.3 -2.8L-0.45 -3M1.35,2.15L2.15 5.8L2.45 6.25M1.35,2.15L0.8 0.75M-6.1,5.35L-6.4 4.2L-6.75 3Q-7.75 -0.25 -8.15 -0.7L-8.25 -0.75M-6.1,5.35L-5.85 6.55L-5.65 8.3M-14.35,1.15L-13.95 2.55L-13.9 2.55L-13.6 3.1L-13.1 4.7M-12.55,5.95L-11.3 9.6M-12.55,5.95L-13.1 4.7M-13.95,2.55L-13.6 3.1" />
</g>
</svg>
