<?xml version="1.0" encoding="utf-8"?>
<svg version="1.1" id="Layer_1"
xmlns="http://www.w3.org/2000/svg"
xmlns:xlink="http://www.w3.org/1999/xlink"
xmlns:author="http://www.sothink.com"
width="24px" height="46px"
xml:space="preserve">
<g id="256" transform="matrix(1, 0, 0, 1, 11.9, 22.7)">
<path style="fill:#C5DBDB;fill-opacity:1" d="M-11.4,-22.2Q-2.3 -22.1 4.15 -15.65Q10.7 -9.1 10.7 0.15Q10.7 5.45 8.55 9.85L8.4 9.65Q6.85 7.5 6.85 4.85Q6.85 4 7.3 2L7.75 -0.15Q7.75 -4.15 5.1 -8.35Q2 -12.4 1.2 -14Q1 -14.45 -3.5 -16.8Q-8.2 -19.25 -9.45 -19.25L-11.4 -19.2L-11.4 -22.2M0.85,10.8Q0.05 13.35 -2.35 15.55Q-6.4 19.3 -11 19.3L-11.4 19.3L-11.4 16.5Q-4.75 16.45 -0.05 11.75L0.85 10.8M-7.75,7.5L-7.7 5.5L-7.9 -2.3L-7.9 -4.2Q-7.95 -5.3 -8.35 -5.9Q-8.5 -6.15 -9.7 -6.35L-9.7 -7.25L-9.4 -8L-8.65 -8.3L-7.35 -8.3L-6.65 -8.05L-6.6 -8Q-6.35 -7.7 -6.35 -7.25L-6.35 7.9Q-6.35 8.3 -6.6 8.6L-6.65 8.65Q-6.9 8.9 -7.2 8.95L-7.75 7.5M-1.95,3L-1.85 -0.5L-1.85 -2.1Q-1.9 -3.05 -2.5 -3.15Q-2.9 -3.2 -3.25 -3.5L-3.25 -4.5L-3.05 -4.8L-2.35 -5L-1.25 -5L-0.8 -4.9L-0.5 -4.8L-0.35 -4.5L-0.35 5.55L-0.55 5.85L-0.8 6L-1 6.05L-1.95 3" />
<path style="fill:#AABFBF;fill-opacity:1" d="M4.15,15.95Q-2.3 22.4 -11.4 22.5L-11.4 19.3L-11 19.3Q-6.4 19.3 -2.35 15.55Q0.05 13.35 0.85 10.8Q4.7 6.35 4.7 0.3Q4.7 -6.4 -0.05 -11.15Q-4.75 -15.85 -11.4 -15.9L-11.4 -19.2L-9.45 -19.25Q-8.2 -19.25 -3.5 -16.8Q1 -14.45 1.2 -14Q2 -12.4 5.1 -8.35Q7.75 -4.15 7.75 -0.15L7.3 2Q6.85 4 6.85 4.85Q6.85 7.5 8.4 9.65L8.55 9.85Q6.95 13.15 4.15 15.95M-9.7,-6.35Q-8.5 -6.15 -8.35 -5.9Q-7.95 -5.3 -7.9 -4.2L-7.9 -2.3L-7.7 5.5L-7.75 7.5L-7.2 8.95L-7.35 8.95L-8.65 8.95Q-9.1 8.95 -9.35 8.65L-9.4 8.6L-9.7 7.9L-9.7 -6.35M-1,6.05L-1.25 6.05L-2.35 6.05L-3.05 5.85L-3.25 5.55L-3.25 -3.5Q-2.9 -3.2 -2.5 -3.15Q-1.9 -3.05 -1.85 -2.1L-1.85 -0.5L-1.95 3L-1 6.05" />
<path style="fill:none;stroke-width:1;stroke-linecap:butt;stroke-linejoin:miter;stroke-miterlimit:3;stroke:#70643A;stroke-opacity:1" d="M-11.4,22.5Q-2.3 22.4 4.15 15.95Q6.95 13.15 8.55 9.85Q10.7 5.45 10.7 0.15Q10.7 -9.1 4.15 -15.65Q-2.3 -22.1 -11.4 -22.2M-11.4,-15.9Q-4.75 -15.85 -0.05 -11.15Q4.7 -6.4 4.7 0.3Q4.7 6.35 0.85 10.8M-7.2,8.95Q-6.9 8.9 -6.65 8.65L-6.6 8.6Q-6.35 8.3 -6.35 7.9L-6.35 -7.25Q-6.35 -7.7 -6.6 -8L-6.65 -8.05L-7.35 -8.3L-8.65 -8.3L-9.4 -8L-9.7 -7.25L-9.7 -6.35M-7.2,8.95L-7.35 8.95L-8.65 8.95Q-9.1 8.95 -9.35 8.65L-9.4 8.6L-9.7 7.9L-9.7 -6.35M-3.25,-3.5L-3.25 -4.5L-3.05 -4.8L-2.35 -5L-1.25 -5L-0.8 -4.9L-0.5 -4.8L-0.35 -4.5L-0.35 5.55L-0.55 5.85L-0.8 6L-1 6.05L-1.25 6.05L-2.35 6.05L-3.05 5.85L-3.25 5.55L-3.25 -3.5M-11.4,16.5Q-4.75 16.45 -0.05 11.75L0.85 10.8" />
</g>
</svg>
