<?xml version="1.0" encoding="utf-8"?>
<svg version="1.1" id="Layer_1"
xmlns="http://www.w3.org/2000/svg"
xmlns:xlink="http://www.w3.org/1999/xlink"
xmlns:author="http://www.sothink.com"
width="48px" height="44px"
xml:space="preserve">
<g id="46" transform="matrix(1, 0, 0, 1, 24.8, 39.35)">
<path style="fill:#77F5DB;fill-opacity:1" d="M7.95,-31.65Q7.5 -31.05 6.75 -31.05L6.15 -31.1L5.85 -31.35L5.8 -33.1Q5.75 -33.75 6.9 -33.75L7.65 -33.45Q8.25 -33.05 8.25 -32.4L7.95 -31.65M19.45,-2.3Q19.6 -4.1 21.15 -4.1L22.5 -3.8Q23.1 -3.35 23.1 -1.9Q23.1 0.6 21.3 0.6Q19.4 0.6 19.25 -0.85L19.45 -2.3M-8.7,-38.8Q-8.45 -39.35 -7.5 -39.35Q-5.9 -39.35 -5.9 -37.7Q-5.9 -35.85 -7.2 -35.85L-8.25 -36.05L-9.05 -36.85L-8.8 -38.45L-8.7 -38.8M-9.75,-8.25Q-8.85 -10.05 -5.3 -20.7Q-6.1 -17.85 -5.6 -12.45L-4.8 -3.75Q-4.65 0.8 -6.25 2.55L-7.1 3.25Q-8.45 4.05 -10.65 3.95L-13.35 3.5L-13.85 3.1Q-12.55 1.25 -11.7 -1.85L-9.75 -8.25" />
<path style="fill:#D2DEEE;fill-opacity:1" d="M7.35,1.45Q7.35 2.6 5.7 3.2Q2.75 4.25 -5.9 4.4L-23.4 4.4Q-24.8 4.35 -24.8 2.9Q-24.8 1.2 -20.3 1.2Q-12.15 1.25 -5.9 0L5.85 0Q6.95 0.5 7.35 1.45" />
</g>
</svg>
