<?xml version="1.0" encoding="utf-8"?>
<svg version="1.1" id="Layer_1"
xmlns="http://www.w3.org/2000/svg"
xmlns:xlink="http://www.w3.org/1999/xlink"
xmlns:author="http://www.sothink.com"
width="95px" height="41px"
xml:space="preserve">
<g id="57" transform="matrix(1, 0, 0, 1, 47.65, 30.95)">
<path style="fill:#C9DAF1;fill-opacity:1" d="M1.9,-25Q1.1 -24 -0.45 -24Q-1.2 -24 -2.35 -24.85Q-3.9 -26.05 -3.9 -27.95Q-3.9 -28.9 -3 -29.65Q-2.15 -30.35 -1.2 -30.35Q0.15 -30.35 1.2 -29.65Q2.6 -28.75 2.6 -27.05Q2.6 -25.85 1.9 -25M-46.5,0.7L-46.65 0.65Q-45.75 -2 -40.6 -4.85Q-35.25 -7.85 -31.75 -7.85Q-28.1 -7.85 -19.85 -4.45Q-12.7 -1.5 -4.95 -1.1Q-4.15 -1.75 -3.4 -4.5Q-2.7 -6.95 -2.7 -8.45Q-2.7 -10.15 -3.8 -13.1Q-4.95 -16.05 -4.95 -17.45Q-4.95 -20 -3.8 -20L-2.1 -18.65Q-0.75 -17.3 0.5 -17.3Q3.1 -17.3 2.55 -13.2Q2.1 -10 2.9 -7.1Q3.75 -3.9 5.7 -2.85L5.8 -2.5Q10.15 -3.9 15.3 -6.45Q26.15 -11.85 32.3 -11.85Q36 -11.85 41.3 -7.7Q46.8 -3.35 46.8 0.2Q46.8 1.6 46.25 2.15Q45.8 2.7 44.65 2.7Q43.35 2.7 40.8 0.85Q38.25 -1.05 36 -1.05L34.4 -1L33.7 -1.85Q32.45 -3.05 29.9 -3.05Q21.85 -3.05 8.35 -0.75L-5.1 1.5Q-8.45 1.5 -15.85 -0.45Q-23.2 -2.4 -26 -2.4Q-27.35 -2.4 -31.25 -0.85L-31.25 -0.65L-31.8 -0.6Q-34.4 -0.5 -38.05 1.05Q-42.05 2.7 -44.75 2.7Q-45.55 2.7 -46.8 1.25L-46.75 1L-46.5 0.7M34.25,-20.05L34.35 -20.35L34.65 -20.95L35.25 -21.05Q35.9 -21.05 36.65 -19.85Q37.35 -18.75 37.35 -18.05Q37.35 -15.2 35.4 -15.2Q34.5 -15.2 34.3 -17.55L34.25 -19.35L34.25 -20.05M-34.7,-16.8L-33.8 -16.95Q-33 -16.95 -32.35 -16.25Q-31.8 -15.6 -31.8 -14.9Q-31.8 -14.2 -32.55 -12.7Q-33.45 -10.8 -34.5 -10.8Q-35.15 -10.8 -35.25 -11.5L-35.25 -12.85L-35.2 -14.4L-35.1 -14.8L-34.95 -16.35L-34.7 -16.8" />
<path style="fill:#A9BEDB;fill-opacity:1" d="M34.4,-1Q28.95 -0.65 23.3 2Q19.9 3.65 15.7 6.8Q14.25 7.85 9.65 7.85L5.65 8.3L1.7 8.7Q-4.9 9.1 -8.85 8.85Q-16.1 8.45 -18 5.45Q-19.5 3.05 -23.8 1.15Q-27.95 -0.65 -31.25 -0.65L-31.25 -0.85Q-27.35 -2.4 -26 -2.4Q-23.2 -2.4 -15.85 -0.45Q-8.45 1.5 -5.1 1.5L8.35 -0.75Q21.85 -3.05 29.9 -3.05Q32.45 -3.05 33.7 -1.85L34.4 -1" />
<path style="fill:none;stroke-width:1;stroke-linecap:butt;stroke-linejoin:miter;stroke-miterlimit:3;stroke:#5C8BBB;stroke-opacity:1" d="M2.6,-27.05Q2.6 -28.75 1.2 -29.65Q0.15 -30.35 -1.2 -30.35Q-2.15 -30.35 -3 -29.65Q-3.9 -28.9 -3.9 -27.95Q-3.9 -26.05 -2.35 -24.85Q-1.2 -24 -0.45 -24Q1.1 -24 1.9 -25Q2.6 -25.85 2.6 -27.05M-4.95,-1.1L-2.7 -1.05Q1.05 -1.05 5.8 -2.5Q10.15 -3.9 15.3 -6.45Q26.15 -11.85 32.3 -11.85Q36 -11.85 41.3 -7.7Q46.8 -3.35 46.8 0.2Q46.8 1.6 46.25 2.15Q45.8 2.7 44.65 2.7Q43.35 2.7 40.8 0.85Q38.25 -1.05 36 -1.05L34.4 -1Q28.95 -0.65 23.3 2Q19.9 3.65 15.7 6.8Q14.25 7.85 9.65 7.85L5.65 8.3L1.7 8.7Q-4.9 9.1 -8.85 8.85Q-16.1 8.45 -18 5.45Q-19.5 3.05 -23.8 1.15Q-27.95 -0.65 -31.25 -0.65L-31.8 -0.6Q-34.4 -0.5 -38.05 1.05Q-42.05 2.7 -44.75 2.7Q-45.55 2.7 -46.8 1.25L-46.75 1L-46.65 0.65Q-45.75 -2 -40.6 -4.85Q-35.25 -7.85 -31.75 -7.85Q-28.1 -7.85 -19.85 -4.45Q-12.7 -1.5 -4.95 -1.1Q-4.15 -1.75 -3.4 -4.5Q-2.7 -6.95 -2.7 -8.45Q-2.7 -10.15 -3.8 -13.1Q-4.95 -16.05 -4.95 -17.45Q-4.95 -20 -3.8 -20L-2.1 -18.65Q-0.75 -17.3 0.5 -17.3Q3.1 -17.3 2.55 -13.2Q2.1 -10 2.9 -7.1Q3.75 -3.9 5.7 -2.85M34.25,-19.35L34.3 -17.55Q34.5 -15.2 35.4 -15.2Q37.35 -15.2 37.35 -18.05Q37.35 -18.75 36.65 -19.85Q35.9 -21.05 35.25 -21.05L34.65 -20.95L34.35 -20.35L34.25 -20.05L34.25 -19.35M-34.95,-16.35L-35.1 -14.8L-35.2 -14.4L-35.25 -12.85L-35.25 -11.5Q-35.15 -10.8 -34.5 -10.8Q-33.45 -10.8 -32.55 -12.7Q-31.8 -14.2 -31.8 -14.9Q-31.8 -15.6 -32.35 -16.25Q-33 -16.95 -33.8 -16.95L-34.7 -16.8L-34.95 -16.35M-46.75,1L-46.5 0.7L-46.05 0.45" />
</g>
</svg>
