<?xml version="1.0" encoding="utf-8"?>
<svg version="1.1" id="Layer_1"
xmlns="http://www.w3.org/2000/svg"
xmlns:xlink="http://www.w3.org/1999/xlink"
xmlns:author="http://www.sothink.com"
width="71px" height="20px"
xml:space="preserve">
<g id="61" transform="matrix(1, 0, 0, 1, 33.65, 11.1)">
<path style="fill:#C9DAF1;fill-opacity:1" d="M1.55,-7.85Q0.95 -7.15 -0.25 -7.15Q-0.75 -7.15 -1.5 -7.65Q-2.35 -8.15 -2.35 -8.75L-2.1 -9.55L-1.5 -10.35L-0.2 -10.6Q2.05 -10.6 2.05 -9.2Q2.05 -8.4 1.55 -7.85M-9.35,7L-20.9 7.55L-28.25 8.05Q-29.15 8.05 -30.25 7.35Q-31.55 6.5 -32.15 6.35L-15.65 5L-4.2 4.5L-2.55 2.2Q-1.75 0.85 -1.65 -0.6L-1.2 1.8Q-0.85 3.35 -0.15 4.4L4.8 4.35Q4.8 3.5 13.5 3.8L35.7 5.65Q34.85 6.35 27.5 7.05L15.35 7.7L2.25 7.15Q-7.15 6.8 -8.9 6.95L-9.1 6.85L-9.35 7M4.8,4.35Q4.5 4.35 4.65 4.5L4.8 4.35" />
<path style="fill:none;stroke-width:1;stroke-linecap:butt;stroke-linejoin:miter;stroke-miterlimit:3;stroke:#5C8BBB;stroke-opacity:1" d="M2.05,-9.2Q2.05 -10.6 -0.2 -10.6L-1.5 -10.35L-2.1 -9.55L-2.35 -8.75Q-2.35 -8.15 -1.5 -7.65Q-0.75 -7.15 -0.25 -7.15Q0.95 -7.15 1.55 -7.85Q2.05 -8.4 2.05 -9.2z" />
<path style="fill:none;stroke-width:1;stroke-linecap:round;stroke-linejoin:miter;stroke-miterlimit:3;stroke:#5C8BBB;stroke-opacity:1" d="M-8.9,6.95L-8.6 7L-9.35 7L-20.9 7.55L-28.25 8.05Q-29.15 8.05 -30.25 7.35Q-31.55 6.5 -32.15 6.35L-15.65 5L-4.2 4.5L-2.55 2.2Q-1.75 0.85 -1.65 -0.6L-1.2 1.8Q-0.85 3.35 -0.15 4.4L4.8 4.35Q4.8 3.5 13.5 3.8L35.7 5.65Q34.85 6.35 27.5 7.05L15.35 7.7L2.25 7.15Q-7.15 6.8 -8.9 6.95L-9.1 6.85L-9.35 7L-8.9 6.95M-4.2,4.5L-0.15 4.4" />
<path style="fill:none;stroke-width:1;stroke-linecap:round;stroke-linejoin:miter;stroke-miterlimit:3;stroke:#5C8BBB;stroke-opacity:1" d="M4.8,4.35Q4.5 4.35 4.65 4.5L4.8 4.35z" />
</g>
</svg>
