<?xml version="1.0" encoding="utf-8"?>
<svg version="1.1" id="Layer_1"
xmlns="http://www.w3.org/2000/svg"
xmlns:xlink="http://www.w3.org/1999/xlink"
xmlns:author="http://www.sothink.com"
width="61px" height="64px"
xml:space="preserve">
<g id="126" transform="matrix(1, 0, 0, 1, 30.4, 31.55)">
<path style="fill:#D76447;fill-opacity:1" d="M-16.1,-9.25L-15.75 -8.4Q-16.9 -7.85 -16.9 -6.6Q-16.9 -4.65 -9.75 -4.8L14.6 -3.3Q16.35 -3.3 17.3 -3.85Q18.05 -4.25 18.05 -4.75Q18.05 -6.35 14.2 -7.4L13.8 -7.5L14.3 -8.55L14.45 -9.15L14.7 -14.05L14.55 -15.1Q15.8 -15.2 16.55 -15.65Q17.3 -16.05 17.3 -16.55Q17.3 -18.15 13.45 -19.2Q8.05 -20.65 -4.2 -20.65L-15 -20.6Q-17.65 -20.3 -17.65 -18.4Q-17.65 -17.35 -15.65 -16.9L-15.9 -14.6L-16.1 -9.25M29.85,31L-29.9 31L-29.9 -23.8L-28.65 -23.8Q-27.55 -23.1 -26.6 -23.1Q-16.6 -25.55 -14.1 -25.55L-1.5 -24.95Q8.3 -24.45 11.6 -24.85Q19.3 -25.8 21.7 -20.1Q23.2 -16.5 23.2 -6.1Q22.85 4.2 22.85 7.2L22.35 14.25Q22.35 16.45 25.35 21.6Q27.7 25.75 29.85 27.95L29.85 31M13.45,17.35Q8.05 15.9 -4.2 15.9L-15 15.95Q-17.65 16.25 -17.65 18.15Q-17.65 20.1 -10.5 19.95L13.85 21.45Q15.6 21.45 16.55 20.9Q17.3 20.5 17.3 20Q17.3 18.4 13.45 17.35M18.75,7.35Q18.75 5.75 14.9 4.7Q9.5 3.25 -2.75 3.25L-13.55 3.3Q-16.2 3.6 -16.2 5.5Q-16.2 7.45 -9.05 7.3L15.3 8.8Q17.05 8.8 18 8.25Q18.75 7.85 18.75 7.35" />
<path style="fill:#252221;fill-opacity:1" d="M11.2,-15.1Q11 -15.5 10.15 -15.9L8.75 -15.9Q8 -15.4 8 -14.8Q8.05 -14.25 8.35 -13.8Q8.9 -12.8 10.05 -12.8Q11.25 -12.8 11.25 -14.5L11.2 -15.1M13.85,-15.1L14.55 -15.1L14.7 -14.05L14.45 -9.15Q-4 -9.35 -15.9 -14.6L-15.65 -16.9L-15.5 -16.9L-15.4 -17.8Q-15.2 -18.75 -14.65 -19L-11.95 -19.2L-4.6 -18.85L2.85 -18.2L10.25 -17.85Q13.6 -17.3 14.45 -15.4L13.85 -15.1M5,-14.6L5.65 -14.5L6.25 -14.6L6.35 -15.15L6.25 -15.6L5.2 -15.6Q4.95 -15.5 4.95 -15.1L5 -14.6" />
<path style="fill:#BD4E32;fill-opacity:1" d="M-17.65,-18.4Q-17.65 -20.3 -15 -20.6L-4.2 -20.65Q8.05 -20.65 13.45 -19.2Q17.3 -18.15 17.3 -16.55Q17.3 -16.05 16.55 -15.65Q15.8 -15.2 14.55 -15.1L13.85 -15.1L14.45 -15.4Q13.6 -17.3 10.25 -17.85L2.85 -18.2L-4.6 -18.85L-11.95 -19.2L-14.65 -19Q-15.2 -18.75 -15.4 -17.8L-15.5 -16.9L-15.65 -16.9Q-17.65 -17.35 -17.65 -18.4M-15.75,-8.4Q-14.7 -7.2 -10.15 -7.05Q-7.2 -6.95 -3.4 -7.15L-3.2 -7.15L10.15 -5.95Q12.7 -5.95 13.8 -7.5L14.2 -7.4Q18.05 -6.35 18.05 -4.75Q18.05 -4.25 17.3 -3.85Q16.35 -3.3 14.6 -3.3L-9.75 -4.8Q-16.9 -4.65 -16.9 -6.6Q-16.9 -7.85 -15.75 -8.4M-29.9,-25.25L-29.9 -25.9L-29.9 -31.05L29.85 -31.05L29.85 27.95Q27.7 25.75 25.35 21.6Q22.35 16.45 22.35 14.25L22.85 7.2Q22.85 4.2 23.2 -6.1Q23.2 -16.5 21.7 -20.1Q19.3 -25.8 11.6 -24.85Q8.3 -24.45 -1.5 -24.95L-14.1 -25.55Q-16.6 -25.55 -26.6 -23.1Q-27.55 -23.1 -28.65 -23.8Q-29.6 -24.45 -29.9 -25.25M17.3,20Q17.3 20.5 16.55 20.9Q15.6 21.45 13.85 21.45L-10.5 19.95Q-17.65 20.1 -17.65 18.15Q-17.65 16.25 -15 15.95L-4.2 15.9Q8.05 15.9 13.45 17.35Q17.3 18.4 17.3 20M18,8.25Q17.05 8.8 15.3 8.8L-9.05 7.3Q-16.2 7.45 -16.2 5.5Q-16.2 3.6 -13.55 3.3L-2.75 3.25Q9.5 3.25 14.9 4.7Q18.75 5.75 18.75 7.35Q18.75 7.85 18 8.25" />
<path style="fill:#BFBEBE;fill-opacity:1" d="M11.25,-14.5Q11.25 -12.8 10.05 -12.8Q8.9 -12.8 8.35 -13.8Q8.05 -14.25 8 -14.8Q8 -15.4 8.75 -15.9L10.15 -15.9Q11 -15.5 11.2 -15.1L11.25 -14.5M4.95,-15.1Q4.95 -15.5 5.2 -15.6L6.25 -15.6L6.35 -15.15L6.25 -14.6L5.65 -14.5L5 -14.6L4.95 -15.1" />
<path style="fill:#35312F;fill-opacity:1" d="M-15.9,-14.6Q-4 -9.35 14.45 -9.15L14.3 -8.55L13.8 -7.5Q12.7 -5.95 10.15 -5.95L-3.2 -7.15L-3.4 -7.15Q-7.2 -6.95 -10.15 -7.05Q-14.7 -7.2 -15.75 -8.4L-16.1 -9.25L-15.9 -14.6" />
<path style="fill:#8CAAC9;fill-opacity:1" d="M-29.9,-25.25Q-29.6 -24.45 -28.65 -23.8L-29.9 -23.8L-29.9 -25.25" />
<path style="fill:none;stroke-width:1;stroke-linecap:butt;stroke-linejoin:miter;stroke-miterlimit:3;stroke:#B4472C;stroke-opacity:1" d="M14.45,-15.4Q13.6 -17.3 10.25 -17.85L2.85 -18.2L-4.6 -18.85L-11.95 -19.2L-14.65 -19Q-15.2 -18.75 -15.4 -17.8L-15.5 -16.9M-15.65,-16.9L-15.9 -14.6M-15.75,-8.4Q-14.7 -7.2 -10.15 -7.05Q-7.2 -6.95 -3.4 -7.15L-3.2 -7.15L10.15 -5.95Q12.7 -5.95 13.8 -7.5L14.3 -8.55L14.45 -9.15L14.7 -14.05L14.55 -15.1M14.45,-15.4L14.55 -15.1M-15.65,-16.9L-15.5 -17.8L-15.4 -17.8M-15.75,-8.4L-16.1 -9.25L-15.9 -14.6M-29.9,-23.8L-29.9 31L29.85 31L29.85 27.95L29.85 -31.05L-29.9 -31.05L-29.9 -25.9M-29.9,-23.8L-29.9 -25.25" />
</g>
</svg>
