<?xml version="1.0" encoding="utf-8"?>
<svg version="1.1" id="Layer_1"
xmlns="http://www.w3.org/2000/svg"
xmlns:xlink="http://www.w3.org/1999/xlink"
xmlns:author="http://www.sothink.com"
width="42px" height="22px"
xml:space="preserve">
<g id="194" transform="matrix(1, 0, 0, 1, 20.85, 10.7)">
<path style="fill:#8080AD;fill-opacity:1" d="M9.45,-0.7Q12.6 -0.7 12.6 -2.75L12.55 -3.5Q12.3 -4.05 11.45 -4.2L8.4 -4.2Q0.1 -5.75 -4.7 -7Q-10.05 -8.4 -11.9 -8.35Q-13.95 -8.25 -13.95 -6.4Q-13.95 -5.1 -12.55 -4.45Q-11.3 -3.8 -7.5 -3L0.05 -1.6L9.45 -0.7M14.3,-4.35L14.4 -0.8L14.4 0.9L14.35 3Q12.25 4.15 11.55 4.3L8.7 5L4.15 5.7L-3.1 6.25Q-5.45 6.25 -8.3 5.4L-11.85 4.05Q-13.2 3.45 -15.1 1.65L-16.55 0.2L-16.75 -0.05L-17.35 0.2L-17.55 0.2L-17.8 0.15Q-17.75 -2.5 -17.35 -4.45L-16.5 -7Q-15.9 -8.4 -14.85 -9.1L-14.45 -9.3Q-13.15 -10.15 -10.95 -10.2Q-9.8 -10.3 -3.85 -9L2.9 -7.75L7.7 -7L11.4 -6.4Q13.5 -6.15 14.1 -5.1L14.3 -4.35" />
<path style="fill:#A9A9D4;fill-opacity:1" d="M0.05,-1.6L-7.5 -3Q-11.3 -3.8 -12.55 -4.45Q-13.95 -5.1 -13.95 -6.4Q-13.95 -8.25 -11.9 -8.35Q-10.05 -8.4 -4.7 -7Q0.1 -5.75 8.4 -4.2L11.45 -4.2Q12.3 -4.05 12.55 -3.5L12.6 -2.75Q12.6 -0.7 9.45 -0.7L0.05 -1.6" />
<path style="fill:#CDAD2D;fill-opacity:1" d="M18.2,2.1Q15.95 2.1 14.6 1.1L14.4 0.9L14.4 -0.8L14.3 -4.35L14.25 -4.85L14.1 -5.1Q13.9 -6.85 14.5 -7.4Q14.95 -7.85 16.7 -7.95Q19.15 -8 19.7 -6.6L19.85 -2.25L19.65 1.5L19.6 2L18.2 2.1M-20.3,-0.85L-19.9 -2.9Q-19.45 -4.2 -18.45 -4.35L-17.35 -4.45Q-17.75 -2.5 -17.8 0.15Q-19.1 -0.05 -20.3 -0.85M16.6,-2.9Q16.75 -2.9 17.1 -3.2Q18.45 -3.2 18.85 -3.75Q19.05 -4.05 19.05 -5.15Q19.05 -6.6 17.1 -6.3Q15.2 -6.05 15.2 -4.6L15.65 -3.75Q16.15 -2.9 16.6 -2.9" />
<path style="fill:#E2CE7A;fill-opacity:1" d="M15.65,-3.75L15.2 -4.6Q15.2 -6.05 17.1 -6.3Q19.05 -6.6 19.05 -5.15Q19.05 -4.05 18.85 -3.75Q18.45 -3.2 17.1 -3.2Q16.75 -2.9 16.6 -2.9Q16.15 -2.9 15.65 -3.75" />
<path style="fill:#AD8F1B;fill-opacity:1" d="M14.35,3L14.4 0.9L14.6 1.1Q15.95 2.1 18.2 2.1L19.6 2L19.35 4.65L19.35 5.5Q19.2 9.35 15.95 9.45Q14.7 9.5 14.25 9Q13.75 8.5 13.75 7.1L13.75 6.1Q14.1 5.55 14.25 4.2L14.35 3.15L14.35 3M-17.8,0.15L-17.85 1.45L-17.7 3.3Q-18.75 3.45 -19.45 2.7Q-20.35 1.9 -20.35 0.15L-20.3 -0.8L-20.3 -0.85Q-19.1 -0.05 -17.8 0.15" />
<path style="fill:#6A6A93;fill-opacity:1" d="M14.35,3.15L14.25 4.2L13.75 6L13.75 6.1L13.45 6.3L7.65 7.8Q5.3 8.5 -0.05 8.85L-4.6 9.65L-8.3 10.3L-11.85 10.05Q-14.15 9.6 -14.95 8.55Q-17.1 6 -17.7 3.3L-17.85 1.45L-17.8 0.15L-17.55 0.2L-17.35 0.2L-16.75 -0.05L-16.55 0.2L-15.1 1.65Q-13.2 3.45 -11.85 4.05L-8.3 5.4Q-5.45 6.25 -3.1 6.25L4.15 5.7L8.7 5L11.55 4.3Q12.25 4.15 14.35 3L14.35 3.15" />
<path style="fill:none;stroke-width:1;stroke-linecap:butt;stroke-linejoin:miter;stroke-miterlimit:3;stroke:#585454;stroke-opacity:1" d="M-17.35,-4.45L-16.5 -7Q-15.9 -8.4 -14.85 -9.1L-14.45 -9.3Q-13.15 -10.15 -10.95 -10.2Q-9.8 -10.3 -3.85 -9L2.9 -7.75L7.7 -7L11.4 -6.4Q13.5 -6.15 14.1 -5.1M14.25,4.2L13.75 6L13.75 6.1L13.45 6.3L7.65 7.8Q5.3 8.5 -0.05 8.85L-4.6 9.65L-8.3 10.3L-11.85 10.05Q-14.15 9.6 -14.95 8.55Q-17.1 6 -17.7 3.3M-17.35,-4.45Q-17.75 -2.5 -17.8 0.15L-17.85 1.45L-17.7 3.3M14.3,-4.35L14.1 -5.1" />
<path style="fill:none;stroke-width:1;stroke-linecap:butt;stroke-linejoin:miter;stroke-miterlimit:3;stroke:#776313;stroke-opacity:1" d="M-17.7,3.3Q-18.75 3.45 -19.45 2.7Q-20.35 1.9 -20.35 0.15L-20.3 -0.8L-20.3 -0.85L-19.9 -2.9Q-19.45 -4.2 -18.45 -4.35L-17.35 -4.45" />
<path style="fill:none;stroke-width:1;stroke-linecap:butt;stroke-linejoin:miter;stroke-miterlimit:3;stroke:#56470D;stroke-opacity:1" d="M14.1,-5.1Q13.9 -6.85 14.5 -7.4Q14.95 -7.85 16.7 -7.95Q19.15 -8 19.7 -6.6L19.85 -2.25L19.65 1.5L19.6 2L19.35 4.65L19.35 5.5Q19.2 9.35 15.95 9.45Q14.7 9.5 14.25 9Q13.75 8.5 13.75 7.1L13.75 6.1Q14.1 5.55 14.25 4.2L14.35 3.15L14.35 3L14.4 0.9L14.4 -0.8L14.3 -4.35M14.1,-5.1L14.25 -4.85L14.3 -4.35" />
</g>
</svg>
