<?xml version="1.0" encoding="utf-8"?>
<svg version="1.1" id="Layer_1"
xmlns="http://www.w3.org/2000/svg"
xmlns:xlink="http://www.w3.org/1999/xlink"
xmlns:author="http://www.sothink.com"
width="50px" height="50px"
xml:space="preserve">
<g id="291" transform="matrix(1, 0, 0, 1, 24.6, 24.6)">
<path style="fill:#66CC00;fill-opacity:1" d="M4.5,-10.5L14 -6.4L14.3 -6.1L14.25 -5.75L14 -5.5L4.4 -1.5Q3.95 -1.15 3.3 -1.15L-11.95 -1.15Q-13.45 -1.1 -13.45 -3.05L-13.45 -9.15Q-13.45 -11 -11.95 -10.95L3.3 -10.95Q4.1 -10.95 4.5 -10.5M3.75,-9.8L3.3 -9.95L-11.95 -9.95Q-12.45 -9.9 -12.45 -9.15L-12.45 -3.05Q-12.45 -2.2 -11.95 -2.15L3.3 -2.15L3.75 -2.25L3.9 -3.05L3.9 -9.15L3.75 -9.8M4.9,-9.15L4.9 -3.05L4.9 -2.8L12.55 -5.95L4.9 -9.25L4.9 -9.15M19.45,-23.6L-19.45 -23.6Q-23.6 -23.6 -23.6 -19.45L-23.6 19.45Q-23.6 23.6 -19.45 23.6L19.45 23.6Q23.6 23.6 23.6 19.45L23.6 -19.45Q23.6 -23.6 19.45 -23.6M24.6,-19.45L24.6 19.45Q24.6 24.6 19.45 24.6L-19.45 24.6Q-24.6 24.6 -24.6 19.45L-24.6 -19.45Q-24.6 -24.6 -19.45 -24.6L19.45 -24.6Q24.6 -24.6 24.6 -19.45M14.85,6.15L14.8 6.55L14.55 6.8L4.95 10.8Q4.6 11.2 3.9 11.2L-11.35 11.2Q-12.95 11.25 -12.95 9.3L-12.95 3.15Q-12.95 1.3 -11.35 1.35L3.9 1.35Q4.65 1.35 5.05 1.75L14.55 5.9L14.85 6.15M5.45,3.15L5.45 9.3L5.45 9.55L13.1 6.35L5.45 3.05L5.45 3.15M3.9,2.35L-11.35 2.35Q-11.95 2.4 -11.95 3.15L-11.95 9.3Q-11.95 10.15 -11.35 10.2L3.9 10.2L4.25 10.15L4.3 10.05L4.45 9.3L4.45 3.15L4.3 2.45L3.9 2.35" />
<path style="fill:#52980C;fill-opacity:1" d="M3.3,-10.95L-11.95 -10.95Q-13.45 -11 -13.45 -9.15L-13.45 -3.05Q-13.45 -1.1 -11.95 -1.15L3.3 -1.15Q3.95 -1.15 4.4 -1.5L14 -5.5L14.25 -5.75L14.3 -6.1L14 -6.4L4.5 -10.5Q4.1 -10.95 3.3 -10.95M23.6,-19.45L23.6 19.45Q23.6 23.6 19.45 23.6L-19.45 23.6Q-23.6 23.6 -23.6 19.45L-23.6 -19.45Q-23.6 -23.6 -19.45 -23.6L19.45 -23.6Q23.6 -23.6 23.6 -19.45M14.55,5.9L5.05 1.75Q4.65 1.35 3.9 1.35L-11.35 1.35Q-12.95 1.3 -12.95 3.15L-12.95 9.3Q-12.95 11.25 -11.35 11.2L3.9 11.2Q4.6 11.2 4.95 10.8L14.55 6.8L14.8 6.55L14.85 6.15L14.55 5.9" />
</g>
</svg>
