<?xml version="1.0" encoding="utf-8"?>
<svg version="1.1" id="Layer_1"
xmlns="http://www.w3.org/2000/svg"
xmlns:xlink="http://www.w3.org/1999/xlink"
xmlns:author="http://www.sothink.com"
width="722px" height="514px"
xml:space="preserve">
<g id="209" transform="matrix(1, 0, 0, 1, 350.55, 256.6)">
<path style="fill:#536D6D;fill-opacity:1" d="M301.85,-59.35L302.85 -59.35L311.6 -58.2L315.8 -57.75L325.3 -56.95Q331.1 -56.95 349.55 -60.1L355.3 -61.05L357.15 -61.35L355.8 -69.05L362.55 -172.95Q362.55 -179.6 360.45 -191.85Q358.4 -204.1 355.8 -212.65Q354.6 -216.5 354.1 -222.8L353.2 -232.2Q351.45 -241.7 341.8 -241.7L332.6 -240.6L323.35 -239.5Q317.2 -239.5 305 -241.15L286.5 -242.8L253.15 -241.95L252.15 -215.65L251.35 -186.95Q251.35 -173.9 251.9 -165L264.25 -165.2L276.05 -165.45L281.8 -165.45Q289.25 -165.3 293.1 -164Q297.35 -162.55 299.45 -159Q301.5 -155.5 302.25 -148.6Q302.6 -145.55 302.75 -131.6L302.8 -124.4L302.85 -104.45L302.7 -81.6Q302.45 -68.95 301.85 -59.35M45.65,-254.45L240.25 -254.95L240.7 -254.95L242.1 -255L370.45 -255L369.35 -45.2L370.45 78L370.45 255L168.65 255L86 254.2L-133.1 255L-349.55 255L-349.55 104.4L-349.55 -10L-349.55 -255L-259.2 -255L-155.8 -255L45.65 -254.45M222.05,-184.5L223.4 -187.05Q226.05 -193.7 225.7 -216.2L225.5 -235.55L225.45 -241.2L224.05 -241.15L220.25 -241.05L202.1 -240.6Q171 -240.6 104.8 -242.8L60.8 -244.1L59.35 -244.15L59.35 -242.8L58.95 -231.15L58.9 -229L58.3 -212.6L58 -193.9Q58.15 -187.35 60.2 -184.1L60.9 -183.1L61.95 -182.05L62.45 -181.65Q65.9 -179.2 72.85 -178.35Q80.95 -177.35 99.6 -177.85Q113.75 -178.15 141.7 -177.35L168.95 -176.55L173.65 -176.55Q202.3 -176.6 208.05 -177.4Q214.9 -178.35 218.9 -181.25L218.95 -181.25Q220.8 -182.65 222.05 -184.5M318.5,-229.55Q317.8 -230.35 317.8 -231.3Q317.8 -233.15 317.95 -234.2L318.1 -234.9L320.15 -235.1L324.25 -234.9L324.55 -234.55Q324.85 -234.4 324.85 -232.65Q324.85 -231.1 323.1 -229.4L320.65 -227.1L318.5 -229.55M-144.45,-242.65L-155.75 -242.8L-155.55 -238.35L-155.5 -236.55Q-154.95 -225.3 -155.05 -213.8L-155.1 -209.25L-155.05 -202.2L-154.7 -190.75L-154.3 -178.15L-154.2 -168.4L-154.2 -167.85Q-154.25 -160.05 -155.35 -155.8Q-156.5 -151.15 -159.4 -148.55L-159.9 -148.15Q-162.7 -145.95 -168.65 -144.8Q-175.4 -143.55 -186.2 -143.65L-199.1 -143.45Q-199.2 -134.55 -199.75 -119.55L-200.4 -101.3Q-200.4 -80.75 -195.3 -72.75Q-190.8 -65.7 -179.7 -65.1L-153.25 -66.7Q-133.65 -68.1 -117.2 -66.05L-117.45 -70.85Q-118.15 -81.1 -117.7 -82.1Q-117.45 -82.65 -117.45 -84.4L-117.7 -88.25Q-118.2 -93.45 -100.95 -92.1Q-83.75 -90.75 -41.75 -91.7Q0.2 -92.7 13.3 -91.35L28.75 -90.55Q28.6 -109.25 27.45 -143.2L26.15 -179.15L27.3 -228.05L27.7 -242.7L27.8 -244.85L26.55 -244.85L9.3 -245L-33.5 -243.35L-81.85 -241.7L-140.65 -242.6L-144.45 -242.65M88.3,-115.35Q88.3 -111.1 86.2 -106.75Q83.5 -101.1 78.85 -101.1Q73.4 -101.1 71.4 -107.75Q70.75 -109.85 70.55 -112.45L70.45 -114.75Q70.45 -119.9 73.25 -122.35Q75.65 -124.45 79.4 -124Q82.9 -123.55 85.5 -121.2Q88.3 -118.65 88.3 -115.35M91.8,2.45Q109.25 2.7 141.15 3.7L176.4 4.7L199.2 5Q242.6 5 259.75 1.65Q278.95 -2.1 284.9 -13.2Q289.85 -22.45 289.25 -46.65Q287.45 -81 287.45 -105.85L287.3 -123.4Q286.9 -131.9 284.85 -136.75Q280 -148.25 260.45 -148.25Q248.1 -148.25 223.8 -145.05Q200.25 -142 187.85 -141.9L187 -141.9Q170.25 -141.9 136.95 -145.7Q103.65 -149.55 85.95 -149.55L78.05 -149.3Q66.7 -148.5 62.4 -145.25Q57.75 -141.7 58.85 -132.35L60.4 -122.75Q61.55 -115.95 61.95 -111.05Q62.8 -100.3 60.7 -90.1L62.3 -90.05Q73.9 -89.45 82.6 -87.45Q91.2 -85.45 91.75 -74.2Q92.2 -65.2 92.15 -45.8L92.15 -40L92.15 -35.65L92.1 -30.3L91.85 -1.5L91.8 2.45M246.95,30.2L246.3 43.5Q246.3 56.3 249.1 60.9Q251.55 65 257.95 64.9L273.55 63Q284.05 61.75 293.5 62.55L296.55 62.85L329.3 66.85L349.05 68.75L349.05 67.4Q349.05 41.1 353.25 -28.4L350.45 -28.4Q329.45 -28.3 317 -31.1L300.4 -31.1L300.55 -24.15Q301 -9.15 300.3 -0.45Q299.9 3.75 297.65 6.65Q295.45 9.4 291.55 10.9L291.15 11.05L290.85 11.15Q282.2 14.1 263.05 14.1Q254.6 14.05 247.6 14.15L246.95 30.2M75.85,-133.65L73.45 -132L71.1 -134.5Q70.45 -135.25 70.45 -136.2Q70.45 -138.05 70.6 -139.1L70.75 -139.8Q74.55 -140.2 78.85 -136.8Q78.05 -135.5 75.85 -133.65M-114.25,243L-55.3 240.8L32.7 237.9L65.2 237.55L66.75 209.55L67.55 195.45L69.75 154.8Q76.35 32.45 76.35 8.05L76.85 -17.75L76.85 -17.9Q76.95 -33.9 75.05 -43.9Q69.65 -72.35 44.8 -72.35L-28 -76.25L-45.4 -78.55Q-61 -80.65 -71.8 -80Q-103.65 -78.05 -106.2 -52.55L-99.3 -52.15L-94.8 -51.9L-76.8 -51.2Q-67.85 -51.05 -67.65 -45.25L-67.65 -35.6L-67.95 -20.45L-68 -17.1L-68.35 -4.3L-68.4 -2.15L-69.05 24.7L-69.5 43.2L-70.8 96.85Q-71.1 110.3 -82.4 113.35L-86.5 114.1L-89 114.3Q-99.7 115.15 -114.35 114.65L-115.95 144.1L-118 183.6L-121 243.2L-120.2 243.15L-114.25 243M106,111.75Q123.9 109.15 134.2 109.15L155.15 110.45L168.5 111.35L176.1 111.75Q193.55 111.75 201.5 109.35Q209.8 106.8 212.85 100.2Q215.45 94.55 215.6 81.6Q215.3 63.35 215.3 50.65Q215.3 34.55 214.95 32.05Q214.25 26.95 210.55 26.2Q208.55 25.8 197 26.55Q185.3 27.4 173.8 27L169.15 26.75Q154.5 25.95 126.8 25.6L99.4 25.45L91.55 25.7L91.1 47.7L90.85 55.4Q90.25 73.85 90.95 94.15Q91.3 105 91.25 113.6L106 111.75M342.7,-230.4Q345.1 -228.6 345.1 -225.45Q345.1 -221.7 343.3 -218.75Q341.1 -215.25 337.3 -215.25Q331 -215.25 329.7 -219.7Q329.3 -221.1 329.45 -222.8L329.65 -224.25Q329.65 -227.8 332.05 -229.9Q334.2 -231.8 337.4 -231.95Q340.5 -232.05 342.7 -230.4M352.75,-187.4Q353.35 -186.6 353.35 -184.5L353.3 -182L353.05 -180.45L351.95 -180.1L350.35 -179.55Q348.3 -180.35 347.75 -181.95Q347.5 -182.65 347.5 -184.65Q347.5 -186.65 348.55 -187.9Q349.3 -188.85 350.35 -189.15L352.75 -187.4M185.7,126.6L185.15 191.05L185.15 192.25L184.7 234.6L188.05 234.6Q194.5 234.6 227.45 239.1Q260.35 243.55 273.6 243.55Q281.9 243.55 300.05 240.75Q318.2 237.9 324.45 237.9Q332.25 237.9 339.95 241.3Q347.65 244.65 350.7 244.65Q352.85 244.65 355.85 240.15Q359.1 235.3 359.1 230.65Q359.1 208.85 358.55 201.5Q356.5 181.35 353.6 150.75Q351 122.8 350.3 112Q349.75 103.55 349.45 94.15L344.15 93.7L306.1 91.1L289.8 91.95L279.5 92.7L270.7 93.25Q246.85 94.4 235.9 89.8L231.45 89.8L229.5 113.15Q229.05 119.3 225.2 122.45Q223.4 123.85 220.95 124.6L216.9 125.4L215.05 125.5L187.9 126.5L185.7 126.6M162.15,91.95Q160.7 89.85 160.65 87.2L160.9 84.75Q160.9 78.7 168.15 75.4Q174.65 72.45 184.1 72.85Q193.5 73.25 200 76.7Q207.25 80.6 207.25 86.7Q207.25 98.55 183.4 98.55Q166.65 98.55 162.15 91.95M200.15,61.15Q202.55 61.05 204.2 62.35Q206.05 63.75 206.05 66.3Q206.05 69.55 205.15 70.35Q204.1 71.25 200.05 71.25L197.1 71.2L194.5 70.65Q194.2 70.05 194.2 67.05Q194.2 64.4 196.05 62.75Q197.7 61.3 200.15 61.15M102.95,143.3Q101.8 144.4 101.1 146.45Q99.8 149.95 99.8 156.25Q99.8 157.65 100.95 171.65L102.1 187.05Q102.1 196.55 99.7 222.25L98.4 236.75L114.25 236.2Q138.8 235.35 157.8 235L158.6 224.2Q161.4 186.25 161.4 178.1Q161.4 161.7 160.15 154Q159 147.2 156.9 143.35Q154.25 138.65 150.05 138.4L149.55 138.35L136.75 139.95L119.85 140.7Q110.25 139.75 105.6 141.65Q104 142.3 102.95 143.3M-330.05,-232.6Q-327.95 -234.5 -324.7 -234.45Q-321.7 -234.4 -319.4 -232.75Q-317 -231 -317 -228.45Q-317 -224.45 -318.5 -221.85Q-320.2 -218.85 -323.45 -218.85Q-328 -218.85 -330.65 -222.35Q-332.45 -224.75 -332.45 -226.35Q-332.45 -230.45 -330.05 -232.6M-259.65,-242.45L-277.5 -241.7L-303.5 -242.8L-329.5 -243.9L-334.05 -243.8Q-339.3 -238.15 -338.5 -231.95Q-337.75 -225.8 -338.45 -210.65Q-339.15 -195.55 -339.1 -179.15L-339.2 -150.25L-339.95 -92.15Q-340.55 -46.55 -339.05 -37.5Q-337.55 -28.45 -337.3 -23.75L-299 -20.85L-297.65 -20.75L-241.65 -18.25Q-230.5 -18.25 -226.05 -54.35Q-223.45 -75.25 -223.45 -104.55L-224.1 -121.65L-224.7 -142.25L-227.5 -142.05L-239.85 -141.45L-244.85 -141.55Q-253.6 -141.9 -256.9 -143.65Q-260.6 -145.55 -262.2 -150L-263.05 -153.25Q-263.5 -155.65 -263.5 -158.5Q-263.5 -170.4 -261.3 -210.3L-261.05 -214.75L-259.65 -242.45M-334.8,91.3L-334.5 91.35L-241.45 95L-221.9 95.7L-139.8 98.9L-139.65 100.2L-123.95 100Q-108.4 99.9 -101.25 100.2L-94.25 99.8Q-87.05 98.3 -85.9 92.15L-85.8 91.55Q-85.4 88.9 -85.75 83.95Q-86.15 78 -85.85 75.65Q-82.25 48.45 -81.25 38.45Q-79.35 19.2 -79.35 0.25Q-79.35 -17.7 -85.3 -27.7Q-90.55 -36.6 -101.2 -40.15Q-109.6 -43 -124.25 -43.15Q-142 -42.8 -151.5 -42.8L-173.85 -40.85L-197.8 -38.9Q-201.35 -38.9 -208.85 -40.85L-215.45 -42.3L-216.35 -30.9Q-217.35 -18.3 -219.5 -13.6Q-220.85 -10.7 -223.4 -8.75Q-225.7 -7.05 -229.05 -6.15Q-232.3 -5.25 -238.25 -4.85L-250.85 -4.5L-256.55 -4.6L-259.7 -4.7L-286.6 -6.05L-297.1 -6.7L-314.7 -7.8L-331.8 -8.9Q-332.25 46.65 -334.6 87.6L-334.8 91.3M-248.15,-242Q-248.45 -219.9 -249.3 -187.6Q-249.3 -173.25 -244 -165.45Q-239.35 -158.6 -229.95 -156.05L-227.8 -155.55Q-220.9 -154.1 -209.8 -154.2L-186.25 -154.75Q-174.7 -154.75 -172.15 -159.75Q-171 -161.95 -170.8 -166.15L-170.8 -175.25L-171.45 -191.25L-172 -203.25L-173.25 -231.3Q-173.25 -235.2 -172.25 -243.05L-226.65 -243.9L-243.95 -243.15L-248.15 -242.95L-248.15 -242M-246.25,-42.2Q-243.65 -42.45 -241.8 -40.85Q-239.75 -39.1 -239.75 -35.85Q-239.75 -33.1 -241.95 -30.45Q-244.5 -27.45 -248 -27.45L-251.35 -27.75L-252.5 -28.05Q-252.8 -29.85 -252.8 -34.35Q-252.8 -37.8 -250.75 -40Q-248.95 -41.95 -246.25 -42.2M-135.05,-29.1Q-135.05 -27.45 -138.05 -25.05Q-141 -22.65 -142.85 -22.65Q-146.35 -22.65 -147.05 -25.5L-147.05 -28.65Q-147.05 -31.55 -145.15 -33.25Q-143.5 -34.7 -141.05 -34.7Q-138.65 -34.7 -136.9 -33.3Q-135.05 -31.7 -135.05 -29.1M-126,-35.1Q-120.85 -34.9 -113.75 -31.95Q-106.35 -28.9 -101.5 -24.7Q-95.9 -19.95 -95.9 -15.45Q-95.9 -11.5 -96.8 -10.45Q-98.55 -8.4 -105.35 -8.4Q-120.8 -8.4 -127.65 -19.45Q-131.6 -25.8 -131.6 -31.95Q-131.6 -35.3 -126 -35.1M-148.9,243.5L-147.85 243.55L-147.1 243.55L-146.1 227.4Q-143.7 191 -143.7 179.35Q-143.7 165.1 -144.15 156.95Q-144.4 152.25 -144.8 149.55Q-146.4 138.35 -152.3 133.3Q-158.3 128.15 -172.55 126.05Q-183.7 124.4 -211.95 123.3L-239.3 122L-326.5 115.5L-336.6 115.5L-336.7 116.25L-337.25 122.55L-339.25 143.85Q-340.65 159.65 -340.65 171.9Q-340.65 176.85 -341.4 191.1L-341.55 197.75Q-341.65 207.25 -340.95 214Q-338.1 241.2 -320.55 241.2L-284.6 243.5L-232.85 245.75Q-220.45 245.75 -205.15 243.5Q-189.8 241.2 -181.95 241.2L-164.9 242.4L-154.3 243.15L-148.9 243.5" />
<path style="fill:#5A7777;fill-opacity:1" d="M302.7,-81.6L302.85 -104.45L302.8 -124.4L302.75 -131.6Q302.6 -145.55 302.25 -148.6Q301.5 -155.5 299.45 -159Q297.35 -162.55 293.1 -164Q289.25 -165.3 281.8 -165.45L276.05 -165.45L264.25 -165.2L251.9 -165Q251.35 -173.9 251.35 -186.95L252.15 -215.65L253.15 -241.95L286.5 -242.8L305 -241.15Q317.2 -239.5 323.35 -239.5L332.6 -240.6L341.8 -241.7Q351.45 -241.7 353.2 -232.2L354.1 -222.8Q354.6 -216.5 355.8 -212.65Q358.4 -204.1 360.45 -191.85Q362.55 -179.6 362.55 -172.95L355.8 -69.05L357.15 -61.35L355.3 -61.05L349.55 -60.1Q331.1 -56.95 325.3 -56.95L315.8 -57.75L311.6 -58.2L302.85 -59.35L301.85 -59.35Q302.45 -68.95 302.7 -81.6M218.95,-181.25L218.9 -181.25Q214.9 -178.35 208.05 -177.4Q202.3 -176.6 173.65 -176.55L168.95 -176.55L141.7 -177.35Q113.75 -178.15 99.6 -177.85Q80.95 -177.35 72.85 -178.35Q65.9 -179.2 62.45 -181.65L61.95 -182.05L60.9 -183.1L60.2 -184.1Q58.15 -187.35 58 -193.9L58.3 -212.6L58.9 -229L58.95 -231.15L59.35 -242.8L59.35 -244.15L60.8 -244.1L104.8 -242.8Q171 -240.6 202.1 -240.6L220.25 -241.05L224.05 -241.15L225.45 -241.2L225.5 -235.55L225.7 -216.2Q226.05 -193.7 223.4 -187.05L222.05 -184.5Q220.8 -182.65 218.95 -181.25M320.65,-227.1L323.1 -229.4Q324.85 -231.1 324.85 -232.65Q324.85 -234.4 324.55 -234.55L324.25 -234.9L320.15 -235.1L318.1 -234.9L317.95 -234.2Q317.8 -233.15 317.8 -231.3Q317.8 -230.35 318.5 -229.55L320.65 -227.1M-140.65,-242.6L-81.85 -241.7L-33.5 -243.35L9.3 -245L26.55 -244.85L27.8 -244.85L27.7 -242.7L27.3 -228.05L26.15 -179.15L27.45 -143.2Q28.6 -109.25 28.75 -90.55L13.3 -91.35Q0.2 -92.7 -41.75 -91.7Q-83.75 -90.75 -100.95 -92.1Q-118.2 -93.45 -117.7 -88.25L-117.45 -84.4Q-117.45 -82.65 -117.7 -82.1Q-118.15 -81.1 -117.45 -70.85L-117.2 -66.05Q-133.65 -68.1 -153.25 -66.7L-179.7 -65.1Q-190.8 -65.7 -195.3 -72.75Q-200.4 -80.75 -200.4 -101.3L-199.75 -119.55Q-199.2 -134.55 -199.1 -143.45L-186.2 -143.65Q-175.4 -143.55 -168.65 -144.8Q-162.7 -145.95 -159.9 -148.15L-159.4 -148.55Q-156.5 -151.15 -155.35 -155.8Q-154.25 -160.05 -154.2 -167.85L-154.2 -168.4L-154.3 -178.15L-154.7 -190.75L-155.05 -202.2L-155.1 -209.25L-155.05 -213.8Q-154.95 -225.3 -155.5 -236.55L-155.55 -238.35L-155.75 -242.8L-144.45 -242.65L-140.65 -242.6M85.5,-121.2Q82.9 -123.55 79.4 -124Q75.65 -124.45 73.25 -122.35Q70.45 -119.9 70.45 -114.75L70.55 -112.45Q70.75 -109.85 71.4 -107.75Q73.4 -101.1 78.85 -101.1Q83.5 -101.1 86.2 -106.75Q88.3 -111.1 88.3 -115.35Q88.3 -118.65 85.5 -121.2M91.85,-1.5L92.1 -30.3L92.15 -35.65L92.15 -40L92.15 -45.8Q92.2 -65.2 91.75 -74.2Q91.2 -85.45 82.6 -87.45Q73.9 -89.45 62.3 -90.05L60.7 -90.1Q62.8 -100.3 61.95 -111.05Q61.55 -115.95 60.4 -122.75L58.85 -132.35Q57.75 -141.7 62.4 -145.25Q66.7 -148.5 78.05 -149.3L85.95 -149.55Q103.65 -149.55 136.95 -145.7Q170.25 -141.9 187 -141.9L187.85 -141.9Q200.25 -142 223.8 -145.05Q248.1 -148.25 260.45 -148.25Q280 -148.25 284.85 -136.75Q286.9 -131.9 287.3 -123.4L287.45 -105.85Q287.45 -81 289.25 -46.65Q289.85 -22.45 284.9 -13.2Q278.95 -2.1 259.75 1.65Q242.6 5 199.2 5L176.4 4.7L141.15 3.7Q109.25 2.7 91.8 2.45L91.85 -1.5M247.6,14.15Q254.6 14.05 263.05 14.1Q282.2 14.1 290.85 11.15L291.15 11.05L291.55 10.9Q295.45 9.4 297.65 6.65Q299.9 3.75 300.3 -0.45Q301 -9.15 300.55 -24.15L300.4 -31.1L317 -31.1Q329.45 -28.3 350.45 -28.4L353.25 -28.4Q349.05 41.1 349.05 67.4L349.05 68.75L329.3 66.85L296.55 62.85L293.5 62.55Q284.05 61.75 273.55 63L257.95 64.9Q251.55 65 249.1 60.9Q246.3 56.3 246.3 43.5L246.95 30.2L247.6 14.15M78.85,-136.8Q74.55 -140.2 70.75 -139.8L70.6 -139.1Q70.45 -138.05 70.45 -136.2Q70.45 -135.25 71.1 -134.5L73.45 -132L75.85 -133.65Q78.05 -135.5 78.85 -136.8M-120.2,243.15L-121 243.2L-118 183.6L-115.95 144.1L-114.35 114.65Q-99.7 115.15 -89 114.3L-86.5 114.1L-82.4 113.35Q-71.1 110.3 -70.8 96.85L-69.5 43.2L-69.05 24.7L-68.4 -2.15L-68.35 -4.3L-68 -17.1L-67.95 -20.45L-67.65 -35.6L-67.65 -45.25Q-67.85 -51.05 -76.8 -51.2L-94.8 -51.9L-99.3 -52.15L-106.2 -52.55Q-103.65 -78.05 -71.8 -80Q-61 -80.65 -45.4 -78.55L-28 -76.25L44.8 -72.35Q69.65 -72.35 75.05 -43.9Q76.95 -33.9 76.85 -17.9L76.85 -17.75L76.35 8.05Q76.35 32.45 69.75 154.8L67.55 195.45L66.75 209.55L65.2 237.55L32.7 237.9L-55.3 240.8L-114.25 243L-120.2 243.15M91.25,113.6Q91.3 105 90.95 94.15Q90.25 73.85 90.85 55.4L91.1 47.7L91.55 25.7L99.4 25.45L126.8 25.6Q154.5 25.95 169.15 26.75L173.8 27Q185.3 27.4 197 26.55Q208.55 25.8 210.55 26.2Q214.25 26.95 214.95 32.05Q215.3 34.55 215.3 50.65Q215.3 63.35 215.6 81.6Q215.45 94.55 212.85 100.2Q209.8 106.8 201.5 109.35Q193.55 111.75 176.1 111.75L168.5 111.35L155.15 110.45L134.2 109.15Q123.9 109.15 106 111.75L91.25 113.6M337.4,-231.95Q334.2 -231.8 332.05 -229.9Q329.65 -227.8 329.65 -224.25L329.45 -222.8Q329.3 -221.1 329.7 -219.7Q331 -215.25 337.3 -215.25Q341.1 -215.25 343.3 -218.75Q345.1 -221.7 345.1 -225.45Q345.1 -228.6 342.7 -230.4Q340.5 -232.05 337.4 -231.95M350.35,-189.15Q349.3 -188.85 348.55 -187.9Q347.5 -186.65 347.5 -184.65Q347.5 -182.65 347.75 -181.95Q348.3 -180.35 350.35 -179.55L351.95 -180.1L353.05 -180.45L353.3 -182L353.35 -184.5Q353.35 -186.6 352.75 -187.4L350.35 -189.15M187.9,126.5L215.05 125.5L216.9 125.4L220.95 124.6Q223.4 123.85 225.2 122.45Q229.05 119.3 229.5 113.15L231.45 89.8L235.9 89.8Q246.85 94.4 270.7 93.25L279.5 92.7L289.8 91.95L306.1 91.1L344.15 93.7L349.45 94.15Q349.75 103.55 350.3 112Q351 122.8 353.6 150.75Q356.5 181.35 358.55 201.5Q359.1 208.85 359.1 230.65Q359.1 235.3 355.85 240.15Q352.85 244.65 350.7 244.65Q347.65 244.65 339.95 241.3Q332.25 237.9 324.45 237.9Q318.2 237.9 300.05 240.75Q281.9 243.55 273.6 243.55Q260.35 243.55 227.45 239.1Q194.5 234.6 188.05 234.6L184.7 234.6L185.15 192.25L185.15 191.05L185.7 126.6L187.9 126.5M183.4,98.55Q207.25 98.55 207.25 86.7Q207.25 80.6 200 76.7Q193.5 73.25 184.1 72.85Q174.65 72.45 168.15 75.4Q160.9 78.7 160.9 84.75L160.65 87.2Q160.7 89.85 162.15 91.95Q166.65 98.55 183.4 98.55M196.05,62.75Q194.2 64.4 194.2 67.05Q194.2 70.05 194.5 70.65L197.1 71.2L200.05 71.25Q204.1 71.25 205.15 70.35Q206.05 69.55 206.05 66.3Q206.05 63.75 204.2 62.35Q202.55 61.05 200.15 61.15Q197.7 61.3 196.05 62.75M105.6,141.65Q110.25 139.75 119.85 140.7L136.75 139.95L149.55 138.35L150.05 138.4Q154.25 138.65 156.9 143.35Q159 147.2 160.15 154Q161.4 161.7 161.4 178.1Q161.4 186.25 158.6 224.2L157.8 235Q138.8 235.35 114.25 236.2L98.4 236.75L99.7 222.25Q102.1 196.55 102.1 187.05L100.95 171.65Q99.8 157.65 99.8 156.25Q99.8 149.95 101.1 146.45Q101.8 144.4 102.95 143.3Q104 142.3 105.6 141.65M-332.45,-226.35Q-332.45 -224.75 -330.65 -222.35Q-328 -218.85 -323.45 -218.85Q-320.2 -218.85 -318.5 -221.85Q-317 -224.45 -317 -228.45Q-317 -231 -319.4 -232.75Q-321.7 -234.4 -324.7 -234.45Q-327.95 -234.5 -330.05 -232.6Q-332.45 -230.45 -332.45 -226.35M-261.05,-214.75L-261.3 -210.3Q-263.5 -170.4 -263.5 -158.5Q-263.5 -155.65 -263.05 -153.25L-262.2 -150Q-260.6 -145.55 -256.9 -143.65Q-253.6 -141.9 -244.85 -141.55L-239.85 -141.45L-227.5 -142.05L-224.7 -142.25L-224.1 -121.65L-223.45 -104.55Q-223.45 -75.25 -226.05 -54.35Q-230.5 -18.25 -241.65 -18.25L-297.65 -20.75L-299 -20.85L-337.3 -23.75Q-337.55 -28.45 -339.05 -37.5Q-340.55 -46.55 -339.95 -92.15L-339.2 -150.25L-339.1 -179.15Q-339.15 -195.55 -338.45 -210.65Q-337.75 -225.8 -338.5 -231.95Q-339.3 -238.15 -334.05 -243.8L-329.5 -243.9L-303.5 -242.8L-277.5 -241.7L-259.65 -242.45L-261.05 -214.75M-334.6,87.6Q-332.25 46.65 -331.8 -8.9L-314.7 -7.8L-297.1 -6.7L-286.6 -6.05L-259.7 -4.7L-256.55 -4.6L-250.85 -4.5L-238.25 -4.85Q-232.3 -5.25 -229.05 -6.15Q-225.7 -7.05 -223.4 -8.75Q-220.85 -10.7 -219.5 -13.6Q-217.35 -18.3 -216.35 -30.9L-215.45 -42.3L-208.85 -40.85Q-201.35 -38.9 -197.8 -38.9L-173.85 -40.85L-151.5 -42.8Q-142 -42.8 -124.25 -43.15Q-109.6 -43 -101.2 -40.15Q-90.55 -36.6 -85.3 -27.7Q-79.35 -17.7 -79.35 0.25Q-79.35 19.2 -81.25 38.45Q-82.25 48.45 -85.85 75.65Q-86.15 78 -85.75 83.95Q-85.4 88.9 -85.8 91.55L-85.9 92.15Q-87.05 98.3 -94.25 99.8L-101.25 100.2Q-108.4 99.9 -123.95 100L-139.65 100.2L-139.8 98.9L-221.9 95.7L-241.45 95L-334.5 91.35L-334.8 91.3L-334.6 87.6M-248.15,-242.95L-243.95 -243.15L-226.65 -243.9L-172.25 -243.05Q-173.25 -235.2 -173.25 -231.3L-172 -203.25L-171.45 -191.25L-170.8 -175.25L-170.8 -166.15Q-171 -161.95 -172.15 -159.75Q-174.7 -154.75 -186.25 -154.75L-209.8 -154.2Q-220.9 -154.1 -227.8 -155.55L-229.95 -156.05Q-239.35 -158.6 -244 -165.45Q-249.3 -173.25 -249.3 -187.6Q-248.45 -219.9 -248.15 -242L-248.15 -242.95M-250.75,-40Q-252.8 -37.8 -252.8 -34.35Q-252.8 -29.85 -252.5 -28.05L-251.35 -27.75L-248 -27.45Q-244.5 -27.45 -241.95 -30.45Q-239.75 -33.1 -239.75 -35.85Q-239.75 -39.1 -241.8 -40.85Q-243.65 -42.45 -246.25 -42.2Q-248.95 -41.95 -250.75 -40M-136.9,-33.3Q-138.65 -34.7 -141.05 -34.7Q-143.5 -34.7 -145.15 -33.25Q-147.05 -31.55 -147.05 -28.65L-147.05 -25.5Q-146.35 -22.65 -142.85 -22.65Q-141 -22.65 -138.05 -25.05Q-135.05 -27.45 -135.05 -29.1Q-135.05 -31.7 -136.9 -33.3M-131.6,-31.95Q-131.6 -25.8 -127.65 -19.45Q-120.8 -8.4 -105.35 -8.4Q-98.55 -8.4 -96.8 -10.45Q-95.9 -11.5 -95.9 -15.45Q-95.9 -19.95 -101.5 -24.7Q-106.35 -28.9 -113.75 -31.95Q-120.85 -34.9 -126 -35.1Q-131.6 -35.3 -131.6 -31.95M-154.3,243.15L-164.9 242.4L-181.95 241.2Q-189.8 241.2 -205.15 243.5Q-220.45 245.75 -232.85 245.75L-284.6 243.5L-320.55 241.2Q-338.1 241.2 -340.95 214Q-341.65 207.25 -341.55 197.75L-341.4 191.1Q-340.65 176.85 -340.65 171.9Q-340.65 159.65 -339.25 143.85L-337.25 122.55L-336.7 116.25L-336.6 115.5L-326.5 115.5L-239.3 122L-211.95 123.3Q-183.7 124.4 -172.55 126.05Q-158.3 128.15 -152.3 133.3Q-146.4 138.35 -144.8 149.55Q-144.4 152.25 -144.15 156.95Q-143.7 165.1 -143.7 179.35Q-143.7 191 -146.1 227.4L-147.1 243.55L-147.85 243.55L-148.9 243.5L-154.3 243.15" />
<path style="fill:none;stroke-width:2;stroke-linecap:butt;stroke-linejoin:miter;stroke-miterlimit:3;stroke:#435B5B;stroke-opacity:1" d="M301.85,-59.35Q301.35 -51.25 300.65 -45.35L300.55 -44.15L310.3 -44.45L330.5 -43.85L334.7 -43.65Q345.1 -43.35 354.2 -43.75L369.35 -45.2L370.45 -255L242.1 -255L242.1 -254.95L242.05 -251.65L242 -241.65L241.55 -212.45L241.45 -204.75Q241 -179.15 241 -165.05L251.9 -165L264.25 -165.2L276.05 -165.45L281.8 -165.45Q289.25 -165.3 293.1 -164Q297.35 -162.55 299.45 -159Q301.5 -155.5 302.25 -148.6Q302.6 -145.55 302.75 -131.6L302.8 -124.4L302.85 -104.45L302.7 -81.6Q302.45 -68.95 301.85 -59.35M242.1,-255L240.7 -254.95L240.25 -254.95L45.65 -254.45Q45.4 -250.25 45.4 -244.5L45.5 -235.8L45.6 -229.25L45.65 -224.1L45.6 -214.3L45.3 -202.25L43.75 -166.15L53.3 -166.25L62.9 -165.35Q89.05 -163.55 135.75 -164.85L178.95 -165.85Q198.75 -166.15 206.9 -165.85L232.9 -165.15L237.55 -165.1L241 -165.05M224.05,-241.15L224.6 -241.65Q225.55 -242.55 225.55 -243.75Q225.55 -245.05 224.35 -246.4Q223.1 -247.85 221.6 -247.85Q220.7 -247.4 220.15 -246.95L219.3 -245.95M224.05,-241.15Q223.25 -240.65 222.2 -240.65Q221 -240.65 220.25 -241.05M60.8,-244.1Q60.35 -243.2 59.35 -242.8M60.2,-184.1Q61.55 -183.5 61.95 -182.05M218.9,-181.25L218.95 -181.35L219 -181.6L219.3 -182.1L219.45 -182.5L220 -183.65Q220.55 -184.45 222.05 -184.5L222.25 -184.5Q223.75 -184.5 225.05 -183.4Q226.45 -182.25 226.45 -180.7Q226.45 -178.9 225.05 -177.55Q223.65 -176.2 221.9 -176.2Q220.45 -176.2 219.55 -177.9Q218.85 -179.2 218.85 -180.35L218.95 -181.25L218.95 -181.35L219.3 -182.1M218.9,-181.25L218.5 -180.35M220.15,-246.95L220.05 -247.15Q219.1 -246.5 218.95 -246.05L218.85 -244.5Q218.85 -242.5 219.55 -241.65L220.25 -241.05M253.85,-248.35Q252.6 -248.35 251.8 -247.25L251.1 -245.9L250.95 -245.45L250.75 -244.85Q250.75 -242.1 253.75 -242.1Q255 -242.1 256 -243.25Q256.95 -244.35 256.95 -245.45Q256.95 -246.75 256 -247.55Q255.15 -248.35 253.85 -248.35M60.8,-244.1L61.1 -245.95Q61.1 -247.3 59.95 -248.3Q58.8 -249.25 57.4 -249.25Q56.85 -249.25 56.05 -248.7Q55.1 -248.05 54.85 -247.15M27.7,-242.7Q28.4 -242.35 29.45 -242.35Q31.45 -242.35 32.1 -243Q32.8 -243.7 32.8 -245.6Q32.8 -248.35 29.7 -248.35L28.5 -248.2Q27.85 -247.95 27.5 -247.4Q26.55 -246.45 26.55 -245L26.55 -244.85M27.7,-242.7Q26.6 -243.3 26.55 -244.85M-140.65,-242.6Q-141.4 -242.1 -142.7 -242.1Q-143.75 -242.1 -144.45 -242.65M-155.75,-242.8L-155.55 -238.35L-155.5 -236.55Q-154.95 -225.3 -155.05 -213.8L-155.1 -209.25L-155.05 -202.2L-154.7 -190.75L-154.3 -178.15L-154.2 -168.4L-154.2 -167.85Q-154.25 -160.05 -155.35 -155.8Q-156.5 -151.15 -159.4 -148.55L-159.9 -148.15Q-162.7 -145.95 -168.65 -144.8Q-175.4 -143.55 -186.2 -143.65L-199.1 -143.45M-117.2,-66.05L-117.45 -70.85Q-118.15 -81.1 -117.7 -82.1Q-117.45 -82.65 -117.45 -84.4L-117.7 -88.25Q-118.2 -93.45 -100.95 -92.1Q-83.75 -90.75 -41.75 -91.7Q0.2 -92.7 13.3 -91.35L28.75 -90.55L35 -90.55L44.4 -90.8M56.3,-248.35Q55.1 -247.15 55.1 -245.35Q55.1 -244.05 56.05 -243.3Q56.85 -242.6 57.85 -242.6L59.35 -242.8M43.75,-166.15L43.75 -166.1Q44.05 -165.5 43.9 -160.1L43.85 -158.7Q43.4 -146.65 43.25 -136.9L43.25 -134.15Q42.9 -107.2 44.9 -98.75L44.4 -90.8L44.8 -90.8L45.05 -90.8L60.7 -90.1L62.3 -90.05Q73.9 -89.45 82.6 -87.45Q91.2 -85.45 91.75 -74.2Q92.2 -65.2 92.15 -45.8L92.15 -40L92.15 -35.65L92.1 -30.3L91.85 -1.5L91.8 2.45L91.75 10.2L91.75 11L139.7 14.2L164.55 14.35L175.2 14.35L184.2 14.35L206.05 14.55L214 14.65Q225 14.8 232 14.5Q238.65 14.25 247.6 14.15Q254.6 14.05 263.05 14.1Q282.2 14.1 290.85 11.15L291.15 11.05L291.55 10.9Q295.45 9.4 297.65 6.65Q299.9 3.75 300.3 -0.45Q301 -9.15 300.55 -24.15L300.4 -31.1L300.3 -37.85Q300.35 -42 300.55 -44.15M54.8,-183.15Q54.3 -182.6 54 -181.4L53.75 -180.15Q53.75 -178.15 55.15 -177.55L57.9 -177.2Q59.95 -177.2 61.05 -178.25Q62.1 -179.2 62.1 -180.85L61.95 -182.05M60.2,-184.1L57.75 -184.5Q55.6 -184.5 54.7 -183.6Q53.7 -182.55 53.4 -179.65M71.75,-78.45Q70.2 -77.65 70.2 -75.8Q70.2 -74.05 71.9 -72.65Q73.5 -71.35 75.05 -71.35Q77.55 -71.35 79.1 -73.05Q80.35 -74.4 80.35 -75.85Q80.35 -77.9 78.25 -79Q76.65 -79.85 74.65 -79.85L72.3 -79.6L71.75 -78.45L70.65 -76M-120.4,239.55L-119.25 238.7Q-119 238.5 -118.8 238.45L-117.75 238.35Q-116.1 238.35 -115.1 239.05Q-113.95 239.9 -113.95 241.55Q-113.95 242.3 -114.25 243L-114.6 243.6Q-115.45 244.8 -116.9 244.8Q-118.7 244.8 -119.7 243.85L-120.2 243.15Q-120.65 242.35 -120.65 241.3Q-120.65 239.8 -119.25 238.7M-117.2,-66.05L-117.05 -61.05L-117.25 -53.1L-106.2 -52.55L-99.3 -52.15L-94.8 -51.9L-76.8 -51.2Q-67.85 -51.05 -67.65 -45.25L-67.65 -35.6L-67.95 -20.45L-68 -17.1L-68.35 -4.3L-68.4 -2.15L-69.05 24.7L-69.5 43.2L-70.8 96.85Q-71.1 110.3 -82.4 113.35L-86.5 114.1L-89 114.3Q-99.7 115.15 -114.35 114.65L-125.85 114.05L-126.35 124.3L-127.5 149.5L-128.9 180.55Q-131.25 232.95 -132.25 243.05L-132.3 243.4Q-133.3 253.15 -133.1 255L86 254.2L86.7 237.05L86.75 235L87.75 209.45L88.25 194.45L88.55 186.05L88.55 186L89 170Q89.4 151.5 90.2 137.4L90.35 134.95L90.85 126.65L91.25 113.6Q91.3 105 90.95 94.15Q90.25 73.85 90.85 55.4L91.1 47.7L91.55 25.7L91.55 23.65L91.7 14.45L91.75 11L90.85 10.9M280.35,-151.5L281.5 -152.9L282.2 -153.6Q283.25 -154.45 284.55 -154.45Q285.95 -154.45 287.2 -153.05Q288.4 -151.7 288.4 -150.35Q288.4 -148.9 287.6 -147.8Q286.75 -146.6 285.35 -146.6Q283.55 -146.6 282.3 -148.15Q281.15 -149.55 281.15 -151.25Q281.15 -152.15 281.5 -152.9M280.75,-2.8Q280.75 -0.9 282.1 0.1Q283.2 0.9 284.8 0.9Q286.55 0.9 287.4 -0.2Q288.15 -1.15 288.15 -2.6Q288.15 -4.25 287.45 -5.25Q286.65 -6.4 285.2 -6.4Q283.35 -6.4 281.35 -4.4L280.9 -3.9Q280.75 -3.45 280.75 -2.8M353.8,-59.2L353.6 -57.5L353.65 -57.05L354.35 -59.15L353.8 -59.2M353.65,-57.05Q353.7 -55.65 354.55 -54.8Q355.45 -53.9 357.05 -53.9Q358.4 -53.9 359.55 -55.3Q360.55 -56.6 360.55 -57.65Q360.55 -60.85 356.7 -60.85Q355.45 -60.85 354.75 -59.85L354.35 -59.15M360.05,-35.95Q359 -36.65 357.75 -36.65Q356.9 -36.65 356.25 -36.05L355.7 -35.35Q355.15 -34.9 355.05 -34.2L355 -33.85Q355 -32.55 356 -31.55Q357 -30.65 358.15 -30.65Q359.25 -30.65 360.3 -31.8Q361.25 -32.9 361.25 -33.75Q361.25 -35.1 360.05 -35.95M354.75,66.5L354.7 67.5Q354.7 69.15 355.45 70.05Q356.25 71.05 357.75 71.05Q359.25 71.05 360.3 69.8Q361.3 68.65 361.3 67.15Q361.3 63.75 358 63.75Q357 63.75 356.45 64.35L355.8 65.2L354.75 66.5L354.85 66.1Q355 65.65 355.8 65.2M354.75,66.5L354.45 66.9M356.45,87.65Q355.95 89.15 355.95 89.65Q355.95 92.3 359.1 92.3Q360.55 92.3 361.5 91.35Q362.5 90.4 362.5 89Q362.5 87.55 361.5 86.75Q360.6 86 359.2 86Q355.7 86 355.45 89.65M232,14.5L232.05 25.7L232.25 33.4L232.9 58.7Q233 69.75 232.6 75.95L232.35 79.4L263.15 79.4Q275.55 78.65 285.9 79.25L288.7 79.45L299.9 79.9Q307.3 80 316.1 79.6Q332.05 78.85 345.55 79.15L349.15 79.2L370.45 78L369.35 -45.2M232.25,80.5L232.2 79.4L232.35 79.4L232.25 80.5L231.7 86.65L231.45 89.8L229.5 113.15Q229.05 119.3 225.2 122.45Q223.4 123.85 220.95 124.6L216.9 125.4L215.05 125.5L187.9 126.5L185.7 126.6Q173.95 127.05 170.3 126.85L170.35 133.65Q170.55 150.45 171.4 181.55L171.25 199.45Q170.9 217.3 170 234.75L168.65 255L370.45 255L370.45 78M215.85,106.95Q214.9 105.95 212.85 105.95Q210.95 105.95 209.8 106.85L208.75 108L208.7 108.1L208.25 108.95L208.15 109.7L208.1 110.2Q208.1 111.65 209.85 112.9Q211.5 114.1 213.15 114.1Q215.4 114.1 216.25 112.75Q216.8 111.9 216.8 110.2Q216.8 107.95 215.85 106.95M208.7,108.1L208.5 108.1L208.25 108.95M90.85,126.65L158.2 125.85L168.65 126.7L170.3 126.85L170.3 125.85M150.05,138.4Q149.9 138.95 149.9 139.65Q149.9 141.85 151.3 143.3Q152.65 144.7 154.45 144.7Q156 144.7 156.9 143.35L156.9 143.3Q157.6 142.15 157.6 140.5Q157.6 138.35 155.5 137.05Q153.75 136 151.65 136Q150.6 136 149.9 136.7M105.6,141.65Q105.55 143.2 104.9 144.4Q103.8 146.45 101.25 146.45L101.1 146.45M150.05,138.4Q150.35 137.2 151.3 136.7M97.65,140.1L98.65 138.7Q97.95 139.3 97.75 139.75L97.65 140.1L97.55 141.75Q97.55 144.05 98.95 145.4Q99.95 146.35 101.1 146.45M105.6,141.65L105.6 141.4Q105.6 139.9 104.2 138.8Q102.9 137.75 101.25 137.75L99.5 137.9L98.9 138.4L98.65 138.7M69.5,242.5L69.5 242.35Q69.65 239.3 72.85 239.3Q74.35 239.3 75.25 240Q76.2 240.8 76.2 242.2Q76.2 243.45 75.5 244.85Q74.55 246.75 72.95 246.75Q72.2 246.75 70.95 245.6Q69.5 244.25 69.5 242.9L69.5 242.65L69.5 242.5M70.45,241L69.65 241.8L69.5 242.35M179.55,238.8Q178.1 240.5 178.1 241.55Q178.1 243.2 179.3 244.1Q180.25 244.8 181.45 244.8Q185.05 244.8 185.05 241Q185.05 239.3 183.6 238.35Q182.45 237.6 180.85 237.6Q180.3 237.6 179.55 238.15L177.85 239.55M168.65,255L86 254.2M-259.65,-242.45L-259.2 -255L-349.55 -255L-349.55 -10L-331.8 -8.9L-314.7 -7.8L-297.1 -6.7L-286.6 -6.05L-259.7 -4.7L-256.55 -4.6L-250.85 -4.5L-238.25 -4.85Q-232.3 -5.25 -229.05 -6.15Q-225.7 -7.05 -223.4 -8.75Q-220.85 -10.7 -219.5 -13.6Q-217.35 -18.3 -216.35 -30.9L-215.45 -42.3L-215.35 -43.55L-214.85 -49.5L-214.1 -58.55L-214.1 -58.65L-213.85 -61.85Q-213.1 -69.35 -212.7 -82.05L-212.7 -83L-212.6 -86.15L-212.5 -89.1L-212.45 -92.25L-212.35 -94.95L-212.05 -106.45Q-211.55 -118.75 -211.35 -129.1L-211.2 -143.1L-218.6 -142.6L-224.7 -142.25L-227.5 -142.05L-239.85 -141.45L-244.85 -141.55Q-253.6 -141.9 -256.9 -143.65Q-260.6 -145.55 -262.2 -150L-263.05 -153.25Q-263.5 -155.65 -263.5 -158.5Q-263.5 -170.4 -261.3 -210.3L-261.05 -214.75L-259.65 -242.45M-336.85,-19.35Q-335.95 -20.4 -335.95 -21.65Q-335.95 -22.6 -337.35 -23.4Q-338.55 -24.15 -339.65 -24.15Q-341 -24.15 -341.45 -23.4Q-341.9 -22.75 -341.9 -21.05Q-341.9 -19.7 -341.2 -18.9Q-340.5 -18.15 -339.4 -18.15Q-337.9 -18.15 -336.85 -19.35M-342.2,-0.2L-342.5 0.7L-342.6 1.55L-342.65 1.75Q-342.6 4.6 -339.25 4.6Q-338 4.6 -337.15 3.4Q-336.4 2.35 -336.4 1.15Q-336.4 -0.15 -337.35 -1.15Q-338.25 -2.1 -339.4 -2.1Q-340.7 -2.1 -341.6 -1.1L-342.2 -0.2L-342.4 -0.2L-342.5 0.7M-140.65,-242.6Q-140.25 -242.85 -140 -243.25Q-139.55 -244.05 -139.55 -245.6Q-139.55 -247.35 -140.25 -248.05Q-140.95 -248.75 -142.5 -248.75L-143.5 -248.65L-144.3 -248L-145.05 -247.15M-144.3,-248Q-145.25 -247.65 -145.45 -246.85L-145.55 -245.45Q-145.55 -243.95 -144.8 -243L-144.45 -242.65M-155.75,-242.8L-155.8 -255L-259.2 -255M-276.7,-248.6Q-277.7 -248.15 -278 -247.3L-278.15 -245.6Q-278.15 -243.9 -277.2 -243.25Q-276.6 -242.85 -275.4 -242.85Q-273.85 -242.85 -273.05 -244Q-272.4 -245.05 -272.4 -246.7Q-272.4 -247.8 -273.3 -248.55Q-274.15 -249.25 -275.15 -249.25Q-275.5 -249.25 -276.05 -248.7L-277.45 -247.4M-243.95,-243.15Q-243.4 -244.25 -243.4 -245.85Q-243.4 -248.75 -246.65 -248.75L-248.25 -248.6Q-249.3 -248.25 -250.05 -246.65M-243.95,-243.15L-244.05 -243.05Q-244.9 -241.65 -246.5 -241.65L-248.15 -242L-249.1 -242.85Q-249.8 -243.8 -249.8 -245.35L-249.75 -246.65Q-249.55 -247.55 -248.9 -247.85M-172.35,-249L-172.85 -247.55L-172.9 -246.75Q-172.9 -245.3 -171.7 -244.5Q-170.65 -243.75 -169.2 -243.75Q-167.8 -243.75 -166.7 -244.95Q-165.7 -246.1 -165.7 -247.25Q-165.7 -249.25 -167.1 -250Q-168.05 -250.5 -169.9 -250.5L-171.45 -250.3L-172.35 -249L-171.95 -249M-172.35,-249L-172.45 -249L-172.85 -247.55M-168.45,-160.85L-170.05 -159.6L-170.1 -158.95L-167.9 -160.8Q-167.2 -161.3 -166.6 -161.3Q-165.25 -161.3 -164.05 -160.45Q-162.55 -159.4 -162.55 -157.6Q-162.55 -156.05 -163.4 -154.95Q-164.35 -153.7 -166.15 -153.7Q-168 -153.7 -169.1 -154.95Q-170.15 -156.15 -170.15 -157.95L-170.1 -158.95M-211.2,-143.1L-200.85 -143.4L-199.1 -143.45M-256.05,-158.55L-256.7 -157.15L-256.9 -156.1Q-256.9 -154.8 -255.65 -152.85Q-254.25 -150.7 -252.9 -150.7Q-250.3 -150.7 -248.45 -156.2Q-248.45 -158.35 -249.9 -159.8Q-251.25 -161.1 -253 -161.1Q-254.3 -161.1 -255 -159.75L-256.5 -156.85M-85.8,91.55L-85.4 91.75Q-83.65 92.9 -83.65 96.2Q-83.65 99.3 -84.9 100.6Q-86.3 102.1 -89.85 102.1Q-91.85 102.1 -93.5 100.6L-94.25 99.8Q-95.25 98.45 -95.25 96.7Q-95.25 95.4 -94.7 93.95Q-94.25 92.7 -93.6 91.9M-334.5,91.35L-334.7 91.65Q-335.6 93.05 -337.1 93.05Q-340.7 93.05 -340.7 89.85L-340.4 88.5L-340.05 87.65L-339.65 87.15L-339.35 86.8Q-338.55 85.9 -337.75 85.9Q-336.75 85.9 -335.45 86.85L-334.6 87.6Q-334 88.3 -334 89.1Q-334 90.3 -334.5 91.35M-230.15,-19.7Q-230.15 -22.5 -233.45 -22.5Q-235.05 -22.5 -235.75 -20.9L-236.4 -19.4L-236.4 -19Q-236.4 -17.8 -235.5 -17Q-234.65 -16.25 -233.35 -16.25Q-231.95 -16.25 -231 -17.4Q-230.15 -18.45 -230.15 -19.7M-235.75,-20.9Q-236.25 -20.85 -236.35 -20.15L-236.4 -19.4M-108.8,-78.15L-107.6 -80L-107.5 -80.25L-107.4 -80.25L-106.9 -80.95Q-105.95 -81.95 -104.55 -81.95Q-102.6 -81.95 -101.15 -80.7Q-99.5 -79.3 -99.5 -76.9Q-99.5 -75.3 -100.3 -73.9Q-101.25 -72.2 -102.85 -72.2Q-104.55 -72.2 -106.25 -73.9Q-107.95 -75.6 -107.95 -77.3Q-107.95 -79.15 -107.6 -80L-107.4 -80.25L-106.65 -80.25M-214.1,-58.55L-160.8 -56.35L-117.8 -53.1L-117.25 -53.1M-82.95,-40.05L-82.4 -42.1L-82.95 -42.15L-83.15 -41.25L-83.4 -40.25Q-83.4 -38.55 -81.7 -37.5Q-80.35 -36.65 -78.95 -36.65Q-76.95 -36.65 -75.8 -38.35Q-74.95 -39.6 -74.95 -40.9Q-74.95 -43.2 -76.65 -44.3Q-77.95 -45.15 -79.8 -45.15Q-81.2 -45.15 -81.75 -44.05L-82.4 -42.1M-85.8,91.55Q-87 91 -89.35 91L-92 91.15Q-93.25 91.6 -94 93.55M-125.85,114.05L-126.05 114.05L-150.45 112.5Q-194.6 112.5 -213.25 111.9L-220 111.65L-239.65 110.15L-240 110.15L-246.45 109.55L-274 107.65L-335.75 104.85L-349.55 104.4L-349.55 255L-133.1 255M-148.9,243.5Q-150.15 244.35 -151.45 244.35Q-153 244.35 -153.7 243.85L-154.3 243.15M-337.25,122.55L-337.6 122.55Q-338.9 122.55 -339.5 122.1Q-340.25 121.5 -340.25 119.8L-340.15 118.6Q-340.05 118.05 -339.4 117.55Q-339.2 116.5 -338.7 116.25L-337.35 116.1L-336.7 116.25Q-336.15 116.5 -335.45 117.05Q-334.25 118.05 -334.25 118.85Q-334.25 120 -334.95 121.1Q-335.8 122.4 -337.25 122.55M-148.9,243.5L-148.45 243.15Q-147 242 -147 240.75Q-147 237.6 -151.65 237.6L-153.5 237.75Q-154.05 238 -154.15 238.8L-154.2 240M-154.15,238.8Q-154.7 239.8 -154.7 241.2Q-154.7 242.45 -154.3 243.15M-342.6,1.55L-342.65 1.65L-342.65 1.75M-339.5,118.25L-339.4 117.55M-349.55,104.4L-349.55 -10M-155.8,-255L45.65 -254.45" />
</g>
</svg>
