<?xml version="1.0" encoding="utf-8"?>
<svg version="1.1" id="Layer_1"
xmlns="http://www.w3.org/2000/svg"
xmlns:xlink="http://www.w3.org/1999/xlink"
xmlns:author="http://www.sothink.com"
width="70px" height="69px"
xml:space="preserve">
<g id="245" transform="matrix(1, 0, 0, 1, 60.2, 33.9)">
<path style="fill:none;stroke-width:1;stroke-linecap:butt;stroke-linejoin:miter;stroke-miterlimit:3;stroke:#435B5B;stroke-opacity:1" d="M7.9,-31.05Q8.3 -31.55 8.3 -32.1Q8.3 -32.9 7.9 -33.2L6.9 -33.4Q5.15 -33.4 5.15 -31.9Q5.15 -30.45 6.7 -30.45Q7.4 -30.45 7.9 -31.05M5.7,30.9L5.25 31.6L5 31.65L5.15 32.1Q5.15 33.4 7 33.4Q7.8 33.4 8.1 33L8.3 32L8.1 30.6Q7.85 30.2 6.9 30.2Q6.1 30.2 5.7 30.9M-59.7,-31.65Q-59.7 -30.9 -59.1 -30.45Q-58.6 -30.05 -57.9 -30.05Q-57 -30.05 -56.5 -30.65Q-56.1 -31.1 -56.1 -31.75Q-56.1 -33.4 -58.2 -33.4L-59.25 -33.3Q-59.6 -33.1 -59.65 -32.4L-59.7 -31.85L-59.7 -31.65M-59.15,32L-59.05 32.55L-58.6 33.75Q-58 34.55 -56.9 34.55Q-55.55 34.55 -55.55 32.7Q-55.55 30.6 -58.1 30.6L-58.85 31.3L-59.15 32" />
</g>
</svg>
