<?xml version="1.0" encoding="utf-8"?>
<svg version="1.1" id="Layer_1"
xmlns="http://www.w3.org/2000/svg"
xmlns:xlink="http://www.w3.org/1999/xlink"
xmlns:author="http://www.sothink.com"
width="89px" height="112px"
xml:space="preserve">
<g id="135" transform="matrix(1, 0, 0, 1, 43.95, 55.9)">
<path style="fill:#746F67;fill-opacity:1" d="M-34.65,-1.3L-36.2 0.05L-37.3 1Q-38 1.4 -39.7 -0.3L-39.9 -0.45Q-41.05 -1.6 -41.8 -2.85L-42.35 -3.55L-43.4 -5.55Q-43.65 -6.1 -43.05 -6.55L-42.15 -7.2L-40.3 -8.35L-39.8 -8.65L-39.7 -8.5L-38.3 -6L-38.05 -5.6L-36.6 -3.4L-36.25 -3L-35.85 -2.5L-34.65 -1.3M-30.3,-14.3L-30.5 -14.15L-30.85 -14.05L-31.05 -13.8L-31.6 -13.7L-31.75 -13.6L-32.2 -13.2L-32.2 -13.15L-32.7 -12.8L-33.5 -12.4L-34.7 -11.45L-35.8 -10.95L-36.1 -10.6L-36.45 -10.35L-36.35 -10Q-36.3 -9.9 -36.15 -9.9Q-35.75 -9.85 -34.5 -10.6L-34.3 -10.75L-32.85 -11.65L-32.6 -11.85L-32.25 -12.15L-31.55 -12.45L-31.3 -12.65L-31.2 -12.8L-30.75 -13.25L-30.5 -13.25L-30.1 -13.45L-30 -12.85L-29.75 -12.05L-29.6 -11.5L-29.7 -11.45L-32.6 -9.15L-33.05 -8.95L-33.3 -8.65L-33.35 -8.6Q-34.3 -8 -34 -7.5Q-33.8 -7.2 -33.1 -7.65L-32.65 -8.1L-32.2 -8.2L-31.75 -8.55L-29.3 -10.45L-29.25 -10.5L-29.2 -10.45L-28.55 -8.7L-28.45 -8.45L-27.25 -5.85L-27.65 -5.5L-31.25 -2.8L-31.55 -2.6L-31.8 -3.25L-33.2 -5.25L-33.45 -5.55L-34.9 -7.3L-35.4 -8.1L-35.5 -8.05L-36.25 -8.95L-36.45 -9.2L-37.35 -10.4L-36.95 -10.85L-30.4 -15.1L-30.3 -14.3M-42.05,-6.25Q-42.3 -6.1 -42.35 -6.1L-42.55 -6.1L-42.7 -5.6L-42.55 -5.15Q-42.3 -4.7 -41.9 -5L-41 -5.6L-41 -5.65L-40.3 -6Q-40.05 -6.15 -39.95 -6.55L-40.05 -7.1Q-40.25 -7.45 -40.5 -7.4L-41.4 -6.7L-42.05 -6.25M-40.6,-2.5L-40.25 -2.25Q-39.85 -2.3 -38.95 -2.85L-38.6 -3.15L-38.25 -3.3L-38.1 -3.75L-38.05 -4.15L-38.25 -4.4L-38.8 -4.1L-39.8 -3.35Q-40.25 -3.05 -40.7 -2.9L-40.6 -2.5" />
<path style="fill:#A39E96;fill-opacity:1" d="M-41.4,-6.7L-40.5 -7.4Q-40.25 -7.45 -40.05 -7.1L-39.95 -6.55Q-40.05 -6.15 -40.3 -6L-41 -5.65L-41 -5.6L-41.9 -5Q-42.3 -4.7 -42.55 -5.15L-42.7 -5.6L-42.55 -6.1L-42.35 -6.1Q-42.3 -6.1 -42.05 -6.25L-41.4 -6.7M-40.7,-2.9Q-40.25 -3.05 -39.8 -3.35L-38.8 -4.1L-38.25 -4.4L-38.05 -4.15L-38.1 -3.75L-38.25 -3.3L-38.6 -3.15L-38.95 -2.85Q-39.85 -2.3 -40.25 -2.25L-40.6 -2.5L-40.7 -2.9M-29.6,-11.5L-29.25 -10.5L-29.3 -10.45L-31.75 -8.55L-32.2 -8.2L-32.65 -8.1L-33.1 -7.65Q-33.8 -7.2 -34 -7.5Q-34.3 -8 -33.35 -8.6L-33.3 -8.65L-33.05 -8.95L-32.6 -9.15L-29.7 -11.45L-29.6 -11.5M-30.5,-13.25L-30.75 -13.25L-31.2 -12.8L-31.3 -12.65L-31.55 -12.45L-32.25 -12.15L-32.6 -11.85L-32.85 -11.65L-34.3 -10.75L-34.5 -10.6Q-35.75 -9.85 -36.15 -9.9Q-36.3 -9.9 -36.35 -10L-36.45 -10.35L-36.1 -10.6L-35.8 -10.95L-34.7 -11.45L-33.5 -12.4L-32.7 -12.8L-32.2 -13.15L-32.2 -13.2L-31.75 -13.6L-31.6 -13.7L-31.05 -13.8L-30.85 -14.05L-30.5 -14.15L-30.3 -14.3L-30.15 -13.6L-30.1 -13.45L-30.5 -13.25" />
<path style="fill:#DB9832;fill-opacity:1" d="M1.35,-42.05L1.3 -42.05L1.3 -42.55L1.3 -44.4Q1.35 -45.6 2.15 -46.6L3.2 -46.3L5.6 -46.2L10.8 -46.6L18.2 -47L18.2 -47.05L18.4 -47L18.2 -47L18.2 -46.95L30.05 -46.8L33.6 -46.5Q35.4 -46.2 35.75 -45.75L39 -41.7L37.95 -41.55L36.1 -41.3L31.25 -41.5L25.1 -41.8L17.75 -41.45L10.8 -41.15L10.4 -41.15L3.4 -41.5Q1.95 -41.7 1.35 -42.05M41.25,-12.3L41.65 -12.35L41.35 -11.55L41.25 -12.3M-35.4,-8.1L-34.9 -7.3L-33.45 -5.55L-33.2 -5.25L-31.8 -3.25L-31.55 -2.6L-31.65 -2.55L-31.55 -2.4Q-31.5 -2.2 -31.6 -2.1L-31.95 -1.65L-32.85 -1L-33 -0.9Q-33.7 -0.6 -34.65 -1.3L-35.85 -2.5L-36.25 -3L-36.6 -3.4L-38.05 -5.6L-38.3 -6L-39.7 -8.5L-39.8 -8.65L-40.05 -9.1Q-40.45 -9.95 -39.6 -10.5L-37.95 -11.2L-37.35 -10.4L-36.45 -9.2L-36.25 -8.95L-35.5 -8.05L-35.4 -8.1M-20.55,-26.35Q-25.85 -23.05 -28.3 -20.4L-29.4 -23.1Q-28.75 -23.35 -28.05 -23.75L-24.45 -26.35Q-22.55 -27.55 -20.65 -27L-19.85 -26.75L-20.55 -26.35M10.9,-18.9L13.75 -21.9Q14 -21 14.95 -21L19.65 -21.7L19.65 -21.75L20.75 -21.9L21.05 -21.9L24.55 -22.35L29.85 -22.8L33.75 -22.65L34.15 -22.6L36.45 -22.5L36.45 -22.55L37.85 -22.8L39.55 -22.55Q40.3 -22.15 40.3 -20.9Q40.3 -20.35 39.9 -19.8Q39.8 -14.95 38.5 -12.45L38.55 -11.95L38.25 -11.9L33.15 -11.4Q31.8 -11.4 30.85 -12.65Q29.9 -13.95 29.15 -13.95L25.8 -11.7Q22.15 -9.5 20.2 -9.5Q18.35 -9.5 17.25 -12.35Q16.1 -15.25 14.55 -15.25L13.85 -14.6L8.6 -10Q2.3 -4.8 -1.9 -4.8L-12.35 -5.65L-17.35 -5.75L-16.4 -6.35L-13.65 -8.1L-12.15 -8.1L-9.95 -8.2L-8.55 -8.3L-5.65 -7.8Q-3 -7.8 1.2 -9.15Q3.4 -9.8 4.95 -12.2L4.3 -12.6L5.85 -13.85L8.1 -16.05L10.9 -18.9M7.45,-38.25Q7.85 -38.5 8.45 -38.55L10.75 -38.9Q10.6 -35.5 10.25 -34.5Q9.7 -32.9 6.5 -32.75L6.55 -35.75L6.5 -36Q6.35 -37.65 7.45 -38.25M19.3,-19.2L20.45 -18.2Q21.25 -17.55 21.7 -17.55Q23.85 -17.55 23.85 -19.85Q23.85 -21.2 22.9 -21.65L21.05 -21.9L19.65 -21.7L19.55 -21.15L19.3 -21.15L19.3 -19.95L19.3 -19.2M36.6,-22.5L36.45 -22.5L35.55 -21.05Q35.55 -20.05 36.45 -19.5Q37.25 -19 38.2 -19Q39.15 -19 39.8 -19.7L39.9 -19.8L39.9 -20.4Q39.9 -21.85 39.2 -22.2L39 -22.25L38.2 -22.5L37.45 -22.4L36.6 -22.5M-27.65,-5.5L-27.25 -5.85L-26.95 -5.25L-27.65 -5.5M-38,-7.3Q-37.4 -6.9 -37.1 -7.05Q-36.6 -7.4 -36.75 -7.75L-37.15 -8.5Q-38.15 -10.1 -38.85 -9.7Q-39.55 -9.3 -38.6 -7.8L-38 -7.3M-22.5,12.6L-22.95 12L-23.2 11.1L-23.2 11.05L-23.2 10.9L-23.2 10.25L-23 9.8L-21.35 10.05L-18.7 9.85Q-17.35 9.85 -15.9 11.55L-15.8 11.65Q-15.5 10.3 -15.75 9.1L-17.15 8.3L-18.75 8.1L-19.7 8.15L-20 6.25L-19.9 5.65L-18.2 6.05Q-15.95 6 -14.85 6.1L-11.35 6.55L-8.4 6.8L-6.75 6.55Q-4 6.55 -2.25 7.9Q-0.2 9.45 -0.2 12.35L-0.7 14.65L-1.05 15.9L-1.8 19.45L-1.8 19.5L-1.9 21.35L-1.55 22.95L-1.65 23L-1.85 23.15L-1.95 23.2L-2.1 23.3L-2.15 23.3L-2.25 23.35L-2.25 23.4Q-4.1 24.25 -7.9 24.35L-12.05 24.3L-17.65 24.2Q-18.85 24.2 -19 23.6L-18.95 21.95L-19.25 21.95Q-20.85 21.95 -21.5 21.45Q-22.25 20.85 -22.25 19.3L-22.2 18.55L-21.95 18.75L-20.7 19.05L-19.4 18.85L-17.9 18.6Q-17.2 18.6 -15.9 19.3L-15.55 19.5L-15.5 18.8Q-15.5 17.6 -16.75 17.2L-19.4 16.9L-19.65 16.9L-19.7 16.9L-19.75 16.65L-20 16.65Q-20 14.4 -20.25 13.4L-20.25 12.65L-22.5 12.6" />
<path style="fill:#E0C59C;fill-opacity:1" d="M-38.6,-7.8Q-39.55 -9.3 -38.85 -9.7Q-38.15 -10.1 -37.15 -8.5L-36.75 -7.75Q-36.6 -7.4 -37.1 -7.05Q-37.4 -6.9 -38 -7.3L-38.6 -7.8" />
<path style="fill:#5C9142;fill-opacity:1" d="M11.1,-52.9Q11.1 -52.3 11.7 -51.95L12.15 -51.95L12.95 -51.7L13.25 -51.9L13.7 -51.8L14 -51.9L14.55 -51.75Q15.7 -51.75 16.05 -52.1L16.3 -53Q16.3 -53.75 15.7 -53.95L13.7 -54.1L12.45 -53.95L11.75 -54.05L11.3 -53.55L11.1 -52.9M14.45,-52.4L14.3 -52.4L14.3 -52.55L14.45 -52.4M9.55,-49.35Q8.65 -53.4 10.45 -54.6Q11.6 -55.4 15.3 -55.4Q17.35 -55.4 17.3 -52.55Q16.95 -50.25 16.95 -49.35Q12.3 -49.1 9.55 -49.35M-16.05,-19.85L-15.75 -17.55L-15.55 -16.75L-15.45 -16.5Q-14.75 -16.65 -13.1 -17.65Q-11.9 -18.4 -11.35 -18.9L-8.4 -17.65L-7.7 -18.5L-7.1 -17.85Q-10.05 -15.8 -12.65 -14.4L-14.35 -13.6L-14.85 -13.35Q-16.85 -12.45 -19.35 -11.55L-21.15 -10.9L-23.25 -10.3L-24.1 -10.2Q-25.25 -10.15 -25.95 -10.6L-26.05 -10.7L-26.2 -10.95L-26.95 -12L-27.4 -12.75L-27.8 -13.4L-27.95 -13.6L-28.5 -14.4L-28.55 -14.5L-29.2 -15.1L-29.8 -15.5L-30.5 -15.8L-30.4 -17L-30.2 -17.55Q-29.35 -17.5 -28.1 -18.3L-24.8 -20.85L-19.65 -23.8L-17.05 -25.1L-16.75 -25.2L-16.9 -24.55Q-16.9 -24 -16.2 -23.2Q-15.65 -22.5 -15.5 -21.35Q-16.1 -20.8 -16.05 -19.85M17.85,-26Q15.75 -26 13.7 -24.45Q11.6 -22.95 10.1 -22.95Q8.7 -22.95 8.2 -23.6Q7.7 -24.25 7.7 -25.9L8.15 -27.6L8.95 -29.3Q9.25 -29.65 10.3 -30.25L11.35 -31.4L12.5 -35.4Q13.1 -36.9 14.55 -36.9L16.1 -37L16.95 -37.05Q15.55 -36.2 15.55 -34.7Q15.55 -33.8 15.85 -33.1L15.75 -33Q15.05 -32.15 15.05 -31.2Q15.05 -29.6 16.35 -29.25L19.85 -28.95L22.5 -28.6L25.25 -28.4L31.15 -28.8L32.45 -28.5Q33.2 -28.15 33.2 -27.6L33.05 -26.6L27.95 -26.3L20.6 -25.15Q19.15 -26 17.85 -26M-21.8,-13.85Q-21.65 -14.8 -22.05 -15.4Q-22.95 -16.8 -24.95 -16.3Q-26.75 -15.85 -25.5 -13.6L-25.2 -13.05L-24.65 -12.2L-22.75 -12.3Q-22 -12.75 -21.8 -13.6L-21.8 -13.85M-20.85,-14.1Q-20.4 -13.7 -19.1 -13.65L-18.6 -14.35L-18.85 -15Q-19.55 -15.6 -20.45 -15.3Q-21.3 -14.85 -20.85 -14.1M-5.35,-16.3L-7.1 -17.85L-5.6 -18.95L-3.7 -16.8L-5.35 -16.3" />
<path style="fill:#8CC66F;fill-opacity:1" d="M11.3,-53.55L11.75 -54.05L12.45 -53.95L13.7 -54.1L15.7 -53.95Q16.3 -53.75 16.3 -53L16.05 -52.1Q15.7 -51.75 14.55 -51.75L14 -51.9L13.7 -51.8L13.25 -51.9L12.95 -51.7L12.15 -51.95L11.7 -51.95Q11.1 -52.3 11.1 -52.9L11.3 -53.55M14.3,-52.55L14.3 -52.4L14.45 -52.4L14.3 -52.55" />
<path style="fill:#4B7735;fill-opacity:1" d="M20.6,-25.15Q15.75 -24.05 13.85 -22.05L13.75 -21.9L10.9 -18.9L5.95 -19.45L2.7 -19.85L4.1 -26.1L5.1 -31L5.35 -32.75L5.85 -32.75L6.5 -32.75Q9.7 -32.9 10.25 -34.5Q10.6 -35.5 10.75 -38.9L10.8 -41.15L17.75 -41.45L25.1 -41.8L31.25 -41.5L31.2 -38L29.1 -38.2L22.55 -38.35Q18.7 -38.15 16.95 -37.05L16.1 -37L14.55 -36.9Q13.1 -36.9 12.5 -35.4L11.35 -31.4L10.3 -30.25Q9.25 -29.65 8.95 -29.3L8.15 -27.6L7.7 -25.9Q7.7 -24.25 8.2 -23.6Q8.7 -22.95 10.1 -22.95Q11.6 -22.95 13.7 -24.45Q15.75 -26 17.85 -26Q19.15 -26 20.6 -25.15M-30.4,-15.1L-30.5 -15.8L-29.8 -15.5L-29.2 -15.1L-28.55 -14.5L-28.5 -14.4L-27.95 -13.6L-27.8 -13.4L-27.4 -12.75L-26.95 -12L-26.2 -10.95L-26.05 -10.7L-25.95 -10.6Q-25.25 -10.15 -24.1 -10.2L-23.25 -10.3L-21.15 -10.9L-19.35 -11.55Q-16.85 -12.45 -14.85 -13.35L-14.35 -13.6L-12.65 -14.4Q-10.05 -15.8 -7.1 -17.85L-5.35 -16.3Q-7.6 -15.4 -10.6 -13.6L-12.35 -12.55L-15.15 -10.7L-18.6 -8.15L-21.7 -5.45L-23.95 -3.45L-24.65 -4.45L-24.05 -3.35L-25.35 -2.3L-25.45 -2.25L-25.45 -2.3L-26.95 -5.25L-27.25 -5.85L-28.45 -8.45L-28.55 -8.7L-29.2 -10.45L-29.25 -10.5L-29.6 -11.5L-29.75 -12.05L-30 -12.85L-30.1 -13.45L-30.15 -13.6L-30.3 -14.3L-30.4 -15.1M-21.8,-13.6Q-22 -12.75 -22.75 -12.3L-24.65 -12.2L-25.2 -13.05L-25.5 -13.6Q-26.75 -15.85 -24.95 -16.3Q-22.95 -16.8 -22.05 -15.4Q-21.65 -14.8 -21.8 -13.85L-21.8 -13.6M-20.45,-15.3Q-19.55 -15.6 -18.85 -15L-18.6 -14.35L-19.1 -13.65Q-20.4 -13.7 -20.85 -14.1Q-21.3 -14.85 -20.45 -15.3" />
<path style="fill:#E9B669;fill-opacity:1" d="M16.95,-49.35L20.5 -49.65L26.45 -49.3L32.65 -48.95Q34.85 -48.95 37.25 -47.15Q39.85 -45.2 39.8 -43L39.8 -41.8L39 -41.7L35.75 -45.75Q35.4 -46.2 33.6 -46.5L30.05 -46.8L18.2 -46.95L18.2 -47L18.4 -47L18.2 -47.05L18.2 -47L10.8 -46.6L5.6 -46.2L3.2 -46.3L2.15 -46.6L4.05 -48.2Q6.65 -49.7 9.35 -49.4L9.55 -49.35Q12.3 -49.1 16.95 -49.35M34.8,-26.65L38.6 -26.65L41.45 -26.25L43.8 -25.9L43.8 -23.5Q42.8 -15.9 41.65 -12.35L41.25 -12.3L38.55 -11.95L38.5 -12.45Q39.8 -14.95 39.9 -19.8Q40.3 -20.35 40.3 -20.9Q40.3 -22.15 39.55 -22.55L37.85 -22.8L36.45 -22.55L36.45 -22.5L34.15 -22.6L33.75 -22.65L29.85 -22.8L24.55 -22.35L21.05 -21.9L20.75 -21.9L19.65 -21.75L19.65 -21.7L14.95 -21Q14 -21 13.75 -21.9L13.85 -22.05Q15.75 -24.05 20.6 -25.15L27.95 -26.3L33.05 -26.6L34.8 -26.65M-29.4,-23.1L-29.7 -23.85Q-30 -24.95 -28.5 -25.9Q-26.35 -27.9 -24.15 -29Q-19.85 -31.15 -17.7 -27.75Q-18.75 -27.45 -19.85 -26.75L-20.65 -27Q-22.55 -27.55 -24.45 -26.35L-28.05 -23.75Q-28.75 -23.35 -29.4 -23.1M-9.85,-10.5L-6.2 -10.4L-2 -10.6L-1.8 -10.65L0.9 -11.15Q2.9 -11.7 4.3 -12.6L4.95 -12.2Q3.4 -9.8 1.2 -9.15Q-3 -7.8 -5.65 -7.8L-8.55 -8.3L-9.95 -8.2L-12.15 -8.1L-13.65 -8.1L-9.85 -10.5M39.4,-21.35Q39.4 -20.35 38.45 -20.35Q37.6 -20.35 37.2 -21.1L36.95 -21.85Q36.95 -22.3 37.45 -22.4L38.2 -22.5L39 -22.25Q39.4 -21.95 39.4 -21.35M22.2,-21.35Q23.5 -21.05 23.5 -19.8Q23.5 -19.05 22.5 -19.05Q21.3 -19.05 20.95 -19.85L20.85 -20.55Q20.85 -21.65 22.2 -21.35M-17.5,4.1L-14.55 4.55L-14 4.6L-12.05 4.45L-7.6 4.1L-1.7 4.6Q1.8 5.55 1.8 8.35L1.7 12.5L1.2 16.95L1.2 17.05Q0.35 21.5 -1.55 22.95L-1.9 21.35L-1.8 19.5L-1.8 19.45L-1.05 15.9L-0.7 14.65L-0.2 12.35Q-0.2 9.45 -2.25 7.9Q-4 6.55 -6.75 6.55L-8.4 6.8L-11.35 6.55L-14.85 6.1Q-15.95 6 -18.2 6.05L-19.9 5.65Q-19.6 4.1 -17.5 4.1M-15.9,11.55Q-17.35 9.85 -18.7 9.85L-21.35 10.05L-23 9.8Q-22.5 8.6 -21.6 8.3L-19.85 8.15L-19.75 8.15L-19.7 8.15L-18.75 8.1L-17.15 8.3L-15.75 9.1Q-15.5 10.3 -15.8 11.65L-15.9 11.55M-22.15,17.6L-22.1 17.45L-22 17.15L-19.7 16.9L-19.65 16.9L-19.4 16.9L-16.75 17.2Q-15.5 17.6 -15.5 18.8L-15.55 19.5L-15.9 19.3Q-17.2 18.6 -17.9 18.6L-19.4 18.85L-20.7 19.05L-21.95 18.75L-22.2 18.55L-22.2 18.45L-22.15 17.6" />
<path style="fill:#2E2D2D;fill-opacity:1" d="M26.95,-34.9L24.95 -35.05L25.2 -35.05L25 -35.15L24.95 -35.05L22.75 -34.95L19.5 -34.15Q18.4 -33.85 17.1 -33.05L16.2 -32.4Q15.95 -32.7 15.85 -33.1Q15.55 -33.8 15.55 -34.7Q15.55 -36.2 16.95 -37.05Q18.7 -38.15 22.55 -38.35L29.1 -38.2L29.1 -37.75Q29.4 -36.5 30.25 -34.7L26.95 -34.9" />
<path style="fill:#434343;fill-opacity:1" d="M27.4,-30.9L20.05 -30.65Q17.25 -30.9 16.2 -32.4L17.1 -33.05Q18.4 -33.85 19.5 -34.15L22.75 -34.95L24.95 -35.05L25 -35.15L25.2 -35.05L24.95 -35.05L26.95 -34.9L30.25 -34.7L30.65 -33.9L31.85 -30.9L27.4 -30.9" />
<path style="fill:#7FBD61;fill-opacity:1" d="M31.85,-30.9L33.6 -30.9Q35 -30.85 35.05 -28.9L34.8 -26.65L33.05 -26.6L33.2 -27.6Q33.2 -28.15 32.45 -28.5L31.15 -28.8L25.25 -28.4L22.5 -28.6L19.85 -28.95L16.35 -29.25Q15.05 -29.6 15.05 -31.2Q15.05 -32.15 15.75 -33L15.85 -33.1Q15.95 -32.7 16.2 -32.4Q17.25 -30.9 20.05 -30.65L27.4 -30.9L31.85 -30.9M-19.85,-26.75Q-18.75 -27.45 -17.7 -27.75L-15.55 -28.1L-16.1 -26.85L-16.75 -25.2L-17.05 -25.1L-19.65 -23.8L-24.8 -20.85L-28.1 -18.3Q-29.35 -17.5 -30.2 -17.55Q-29.7 -18.9 -28.3 -20.4Q-25.85 -23.05 -20.55 -26.35L-19.85 -26.75M-6.6,-20.05L-6.55 -20.05L-5.6 -18.95L-7.1 -17.85L-7.7 -18.5L-6.6 -20.05" />
<path style="fill:#B67E28;fill-opacity:1" d="M41.35,-11.55Q40 -8.25 37.85 -6.3Q35.7 -4.4 32.8 -3.75L31.7 -3.55L26.05 -2.95L16.95 -2.2L5.75 -1.4L1.05 -1.75L-3.45 -2.15L-15.5 -2.3L-22.7 -2.4L-17.35 -5.75L-12.35 -5.65L-1.9 -4.8Q2.3 -4.8 8.6 -10L13.85 -14.6L14.55 -15.25Q16.1 -15.25 17.25 -12.35Q18.35 -9.5 20.2 -9.5Q22.15 -9.5 25.8 -11.7L29.15 -13.95Q29.9 -13.95 30.85 -12.65Q31.8 -11.4 33.15 -11.4L38.25 -11.9L38.55 -11.95L41.25 -12.3L41.35 -11.55M-26.95,-5.25L-25.45 -2.3L-27.85 -2L-31.95 -1.65L-31.6 -2.1Q-31.5 -2.2 -31.55 -2.4L-31.65 -2.55L-31.55 -2.6L-31.25 -2.8L-27.65 -5.5L-26.95 -5.25M6.5,-36L6.55 -35.75L6.5 -32.75L5.85 -32.75L5.35 -32.75Q4.2 -32.9 3.85 -33.7Q3.6 -34.35 3.6 -36.95L3.5 -38.6L3.4 -40.9L3.4 -41.5L10.4 -41.15L10.8 -41.15L10.75 -38.9L8.45 -38.55Q7.85 -38.5 7.45 -38.25Q6.35 -37.65 6.5 -36M19.3,-19.95L19.55 -21.15L19.65 -21.7L21.05 -21.9L22.9 -21.65Q23.85 -21.2 23.85 -19.85Q23.85 -17.55 21.7 -17.55Q21.25 -17.55 20.45 -18.2L19.3 -19.2L19.3 -19.95M39,-22.25L39.2 -22.2Q39.9 -21.85 39.9 -20.4L39.9 -19.8L39.8 -19.7Q39.15 -19 38.2 -19Q37.25 -19 36.45 -19.5Q35.55 -20.05 35.55 -21.05L36.45 -22.5L36.6 -22.5L37.45 -22.4Q36.95 -22.3 36.95 -21.85L37.2 -21.1Q37.6 -20.35 38.45 -20.35Q39.4 -20.35 39.4 -21.35Q39.4 -21.95 39 -22.25M20.85,-20.55L20.95 -19.85Q21.3 -19.05 22.5 -19.05Q23.5 -19.05 23.5 -19.8Q23.5 -21.05 22.2 -21.35Q20.85 -21.65 20.85 -20.55" />
<path style="fill:#619191;fill-opacity:1" d="M-2.3,-18Q-1.55 -19.95 1.35 -19.95L2.7 -19.85L5.95 -19.45L10.9 -18.9L8.1 -16.05L-2.3 -18M-3.7,-16.8L-3.65 -16.85L-2.55 -15.1L-2.6 -15.05L-2.55 -15.05Q-0.45 -13.95 -1.1 -12L0.9 -11.15L-1.8 -10.65L-1.1 -12L-5.2 -13.35L-5.25 -13.35L-4.9 -13.6L-3.95 -13.6L-3.95 -14.2L-4.6 -13.8L-5.05 -13.6L-5.45 -13.4Q-7.8 -12.3 -9.5 -10.75L-9.5 -10.7L-9.85 -10.5L-13.65 -8.1L-16.4 -6.35L-17.6 -5.75L-21.75 -3.65L-22.85 -2.6L-23 -2.4L-23.95 -3.45L-21.7 -5.45L-18.6 -8.15L-15.15 -10.7L-12.35 -12.55L-10.6 -13.6Q-7.6 -15.4 -5.35 -16.3L-3.7 -16.8" />
<path style="fill:#4A7777;fill-opacity:1" d="M-24.7,46.95L-24.85 46.25L-22.3 46.1L-24.7 46.95M-16.5,2.65Q-14.75 1.2 -14.75 0.8L-15.2 -0.8Q-15.55 -1.7 -15.5 -2.3L-3.45 -2.15L1.05 -1.75L5.75 -1.4L16.95 -2.2L26.05 -2.95L26.25 -0.75L25.25 0.2L24 1.1L23.5 1.1L23.45 1.1L21.6 1.25L21.55 1.25L15.75 2.1L3.3 3.1L-2.55 2.6L-7.35 3.1L-12.1 2.85L-15.75 2.6L-16.5 2.65M-5.2,-13.35L-1.1 -12Q-0.45 -13.95 -2.55 -15.05L-2.55 -15.1Q-2.8 -16.85 -2.3 -18L8.1 -16.05L5.85 -13.85L4.3 -12.6Q2.9 -11.7 0.9 -11.15L-1.1 -12L-1.8 -10.65M-1.8,-10.65L-2 -10.6L-6.2 -10.4L-9.85 -10.5L-9.5 -10.7L-9.5 -10.75Q-7.8 -12.3 -5.45 -13.4L-5.05 -13.6L-4.6 -13.8L-4.9 -13.6L-5.25 -13.35L-5.2 -13.35M-24.05,-3.35L-24.65 -4.45L-23.95 -3.45L-24.05 -3.35M-20.25,12.65L-20.25 13.4Q-20 14.4 -20 16.65L-19.75 16.65L-19.7 16.9L-22 17.15L-22.1 17.45L-22.15 17.6L-22.25 18.05L-22.2 18.45L-22.2 18.55L-22.25 19.3Q-22.25 20.85 -21.5 21.45Q-20.85 21.95 -19.25 21.95L-18.95 21.95L-19 23.6Q-18.85 24.2 -17.65 24.2L-12.05 24.3L-7.9 24.35Q-4.1 24.25 -2.25 23.4L-2.25 23.35Q-1.9 24.2 -1.9 24.85Q-1.9 26.45 -2.25 26.7Q-2.55 26.95 -4.6 27.85L-6.85 28.55L-10.05 29L-12.05 28.65L-12.75 28.45L-15 27.85Q-15.9 27.85 -18.1 28.8L-20.35 29.75L-21.5 29.55Q-21.85 29.3 -21.85 28.5Q-21.85 27.85 -21.45 27Q-21.05 26.15 -21.05 24.55Q-21.05 23.45 -21.35 23.2Q-21.5 23 -22.75 22.55Q-23.2 22.4 -23.95 20.9L-24.65 19.2Q-24.65 18.2 -23.55 16.5L-23.3 16.6L-23.5 16.45L-23.35 16.2L-22.05 14.5Q-22.05 14 -23.15 13.5Q-24.3 12.95 -24.3 12.3Q-24.3 11.6 -23.4 11.1L-23.25 11.05L-23.2 11.1L-22.95 12L-22.5 12.6L-20.25 12.65" />
<path style="fill:#609393;fill-opacity:1" d="M-15.75,2.6L-12.1 2.85L-7.35 3.1L-2.55 2.6L3.3 3.1L15.75 2.1L21.55 1.25L21.6 1.25L21.55 1.95L20.6 2.85L20.6 2.9L19.4 4.15L19 4.75L18.75 5.3L18.6 4.8L16.35 4.45L13.75 3.8Q13.75 7.6 13.05 9.65Q15.25 8.65 15.6 10.6L16.25 14.25L20.05 13.75Q20.8 13.75 21.35 14.25L21.65 14.55L23.5 16.4L24.75 14.85Q25.35 14 26.15 14L27.3 14.4L27.65 14.55L27 18.65L25.8 27.35L25.3 31.35Q25.4 36.45 24.95 40.35L24.2 45.05L21.75 45.1L9.95 44.65L9.75 47.1L9.85 44.65L6.55 44.25L-4.1 43.35L-9.75 43.4L-16.5 44.1L-25.2 44.1L-25.65 35.9L-25.65 34.1L-26 27.6Q-26.95 20.3 -29.05 12.3L-28.55 12.25L-25.85 12.05Q-25.8 8.7 -25.35 7.35Q-24.7 5.25 -22.25 5.1L-21.75 5.05Q-19.4 5.05 -16.85 2.95L-16.5 2.65L-15.75 2.6M23.5,1.1L24 1.1L23.75 1.15L23.45 1.1L23.5 1.1M-23.2,11.1L-23.25 11.05L-23.4 11.1Q-24.3 11.6 -24.3 12.3Q-24.3 12.95 -23.15 13.5Q-22.05 14 -22.05 14.5L-23.35 16.2L-23.5 16.45L-23.3 16.6L-23.55 16.5Q-24.65 18.2 -24.65 19.2L-23.95 20.9Q-23.2 22.4 -22.75 22.55Q-21.5 23 -21.35 23.2Q-21.05 23.45 -21.05 24.55Q-21.05 26.15 -21.45 27Q-21.85 27.85 -21.85 28.5Q-21.85 29.3 -21.5 29.55L-20.35 29.75L-18.1 28.8Q-15.9 27.85 -15 27.85L-12.75 28.45L-12.05 28.65L-10.05 29L-6.85 28.55L-4.6 27.85Q-2.55 26.95 -2.25 26.7Q-1.9 26.45 -1.9 24.85Q-1.9 24.2 -2.25 23.35L-2.15 23.3L-2.1 23.3L-1.95 23.2L-1.85 23.15L-1.65 23L-1.55 22.95Q0.35 21.5 1.2 17.05L1.2 16.95L1.7 12.5L1.8 8.35Q1.8 5.55 -1.7 4.6L-7.6 4.1L-12.05 4.45L-14 4.6L-14.55 4.55L-17.5 4.1Q-19.6 4.1 -19.9 5.65L-20 6.25L-19.7 8.15L-19.75 8.15L-19.85 8.15L-21.6 8.3Q-22.5 8.6 -23 9.8L-23.2 10.25L-23.2 10.9L-23.2 11.05L-23.2 11.1M-22.2,18.45L-22.25 18.05L-22.15 17.6L-22.2 18.45" />
<path style="fill:#ECBEBE;fill-opacity:1" d="M-24.85,46.25L-25.1 44.85L-25.2 44.1L-16.5 44.1L-9.75 43.4L-4.1 43.35L6.55 44.25L9.85 44.65L9.75 47.1L9.95 44.65L21.75 45.1L24.2 45.05L23.35 47.85L22.5 47.85L9.75 47.1L7 46.85L-16.15 45.85L-16.45 45.85L-22.3 46.1L-24.85 46.25" />
<path style="fill:#BF5D5D;fill-opacity:1" d="M-22.3,46.1L-16.45 45.85L-16.15 45.85L7 46.85L9.75 47.1L22.5 47.85L23.35 47.85Q22.45 50.1 21.15 51.5Q17.5 55.35 5.85 55.35L-1.55 55.35L-8.15 55.35L-16 54.9Q-22.7 54.9 -24.7 46.95L-22.3 46.1" />
<path style="fill:#1F3333;fill-opacity:1" d="M19,4.75L19.4 4.15L20.6 2.9L20.6 2.85L21.55 1.95L21.6 1.25L23.45 1.1L23.75 1.15L24 1.1L25.25 0.2L26.25 -0.75L26.05 -2.95L31.7 -3.55L32.65 -3.15Q31.45 -0.8 30.4 2.65L28.25 1.05L27.65 2L26.35 3.7Q25.85 4.35 25.8 5.25Q25.75 6.1 26.15 7.25Q25.9 8.3 24.3 10.15Q22.4 12.4 21.55 14L21.35 14.25Q20.8 13.75 20.05 13.75L16.25 14.25L15.6 10.6Q15.25 8.65 13.05 9.65Q13.75 7.6 13.75 3.8L16.35 4.45L18.6 4.8L18.75 5.3L19 4.75M-22.25,5.1L-21.8 3.8L-21.35 2.75L-20.55 0.65L-22.5 -0.8L-23.3 -2L-23.35 -2.05L-23.75 -2.85L-24.05 -3.35L-23.95 -3.45L-23 -2.4L-22.85 -2.6L-21.75 -3.65L-17.6 -5.75L-16.4 -6.35L-17.35 -5.75L-22.7 -2.4L-15.5 -2.3Q-15.55 -1.7 -15.2 -0.8L-14.75 0.8Q-14.75 1.2 -16.5 2.65L-16.85 2.95Q-19.4 5.05 -21.75 5.05L-22.25 5.1" />
<path style="fill:none;stroke-width:1;stroke-linecap:butt;stroke-linejoin:miter;stroke-miterlimit:3;stroke:#333333;stroke-opacity:1" d="M29.1,-38.2L29.1 -37.75Q29.4 -36.5 30.25 -34.7L30.65 -33.9L31.85 -30.9M41.65,-12.35L41.35 -11.55M32.8,-3.75L32.7 -3.2L32.65 -3.15M24.2,45.05L23.35 47.85M-24.7,46.95L-24.85 46.25M-31.55,-2.4Q-31.5 -2.2 -31.6 -2.1L-31.95 -1.65L-32.85 -1L-33 -0.9Q-33.7 -0.6 -34.65 -1.3L-36.2 0.05L-37.3 1Q-38 1.4 -39.7 -0.3L-39.9 -0.45Q-41.05 -1.6 -41.8 -2.85L-42.35 -3.55L-43.4 -5.55Q-43.65 -6.1 -43.05 -6.55L-42.15 -7.2L-40.3 -8.35M-39.7,-0.3L-39.65 -0.65L-36.25 -3L-36.6 -3.4L-38.05 -5.6L-38.3 -6L-39.7 -8.5L-39.8 -8.65L-40.05 -9.1Q-40.45 -9.95 -39.6 -10.5L-37.95 -11.2L-37.35 -10.4L-36.95 -10.85L-30.4 -15.1M29.1,-38.2L22.55 -38.35Q18.7 -38.15 16.95 -37.05Q15.55 -36.2 15.55 -34.7Q15.55 -33.8 15.85 -33.1Q15.95 -32.7 16.2 -32.4Q17.25 -30.9 20.05 -30.65L27.4 -30.9L31.85 -30.9M1.3,-42.05L1.05 -42.25L1.3 -42.55M19.3,-19.95L19.55 -21.15M-34.9,-7.3L-33.45 -5.55L-33.2 -5.25L-30.55 -7.15L-29.05 -8.3L-28.85 -8.45L-28.55 -8.7M-35.5,-8.05L-35.4 -8.1L-34.6 -8.6L-34.35 -8.75L-32.1 -10.4L-29.75 -12.05M-34.9,-7.3L-35.5 -8.05L-36.25 -8.95L-36.45 -9.2L-37.35 -10.4M-38.05,-5.6Q-38.9 -4.75 -41.8 -2.85M-36.25,-3L-35.85 -2.5L-34.65 -1.3M-31.25,-2.8L-31.55 -2.6L-31.55 -2.4L-31.5 -2.35L-31.25 -2.8L-27.65 -5.5L-27.25 -5.85M-31.55,-2.4L-31.65 -2.55L-31.55 -2.6L-31.8 -3.25L-33.2 -5.25" />
<path style="fill:none;stroke-width:1;stroke-linecap:butt;stroke-linejoin:miter;stroke-miterlimit:3;stroke:#2A461C;stroke-opacity:1" d="M9.55,-49.35Q8.65 -53.4 10.45 -54.6Q11.6 -55.4 15.3 -55.4Q17.35 -55.4 17.3 -52.55Q16.95 -50.25 16.95 -49.35M31.25,-41.5L31.2 -38L29.1 -38.2M31.85,-30.9L33.6 -30.9Q35 -30.85 35.05 -28.9L34.8 -26.65M-25.45,-2.25L-25.45 -2.3M-30.1,-13.45L-30.15 -13.6L-30.3 -14.3L-30.4 -15.1L-30.5 -15.8L-30.4 -17L-30.2 -17.55Q-29.7 -18.9 -28.3 -20.4M-17.7,-27.75L-15.55 -28.1L-16.1 -26.85L-16.75 -25.2L-16.9 -24.55Q-16.9 -24 -16.2 -23.2Q-15.65 -22.5 -15.5 -21.35L-15.5 -20.8M5.35,-32.75L5.1 -31L4.1 -26.1L2.7 -19.85M-30.1,-13.45L-30 -12.85L-29.75 -12.05L-29.6 -11.5L-29.25 -10.5L-29.2 -10.45L-28.55 -8.7L-28.45 -8.45L-27.25 -5.85L-26.95 -5.25L-25.45 -2.3M-3.7,-16.8L-5.6 -18.95L-6.55 -20.05L-6.6 -20.05L-7.7 -18.5L-8.4 -17.65L-11.35 -18.9Q-11.9 -18.4 -13.1 -17.65Q-14.75 -16.65 -15.45 -16.5L-15.55 -16.75L-15.75 -17.55L-16.05 -19.85Q-16.1 -20.8 -15.5 -21.35M-11.05,-19.25L-11.35 -18.9" />
<path style="fill:none;stroke-width:1;stroke-linecap:butt;stroke-linejoin:miter;stroke-miterlimit:3;stroke:#5D4013;stroke-opacity:1" d="M1.3,-42.55L1.3 -44.4Q1.35 -45.6 2.15 -46.6L4.05 -48.2Q6.65 -49.7 9.35 -49.4L9.55 -49.35Q12.3 -49.1 16.95 -49.35L20.5 -49.65L26.45 -49.3L32.65 -48.95Q34.85 -48.95 37.25 -47.15Q39.85 -45.2 39.8 -43L39.8 -41.8L39 -41.7L37.95 -41.55L36.1 -41.3L31.25 -41.5L25.1 -41.8L17.75 -41.45L10.8 -41.15L10.75 -38.9Q10.6 -35.5 10.25 -34.5Q9.7 -32.9 6.5 -32.75L5.85 -32.75L5.35 -32.75M33.05,-26.6L34.8 -26.65L38.6 -26.65L41.45 -26.25L43.8 -25.9L43.8 -23.5Q42.8 -15.9 41.65 -12.35M41.35,-11.55Q40 -8.25 37.85 -6.3Q35.7 -4.4 32.8 -3.75M-25.45,-2.3L-27.85 -2L-31.95 -1.65M-28.3,-20.4L-29.4 -23.1L-29.7 -23.85Q-30 -24.95 -28.5 -25.9Q-26.35 -27.9 -24.15 -29Q-19.85 -31.15 -17.7 -27.75M33.05,-26.6L27.95 -26.3L20.6 -25.15Q15.75 -24.05 13.85 -22.05L13.75 -21.9M19.55,-21.15L19.65 -21.7L19.65 -21.75L20.75 -21.9L21.05 -21.9L22.9 -21.65Q23.85 -21.2 23.85 -19.85Q23.85 -17.55 21.7 -17.55Q21.25 -17.55 20.45 -18.2L19.3 -19.2L19.3 -19.95M36.45,-22.5L36.45 -22.55L37.85 -22.8L39.55 -22.55Q40.3 -22.15 40.3 -20.9Q40.3 -20.35 39.9 -19.8L39.8 -19.7Q39.15 -19 38.2 -19Q37.25 -19 36.45 -19.5Q35.55 -20.05 35.55 -21.05L36.45 -22.5M10.9,-18.9L13.75 -21.9M10.8,-41.15L10.4 -41.15L3.4 -41.5M3.4,-40.9L3.5 -38.6L3.6 -36.95Q3.6 -34.35 3.85 -33.7Q4.2 -32.9 5.35 -32.75M1.3,-42.55L1.3 -42.05L1.35 -42.05Q1.95 -41.7 3.4 -41.5M7.45,-38.25L7.7 -37.4Q7.7 -35.75 6.7 -35.75L6.55 -35.75M7.45,-38.25L6.7 -38.55L6.15 -38.3L5.85 -38L5.5 -37.7L5.35 -37.5L5.2 -36.95Q5.2 -36.35 5.75 -36L6.55 -35.75M19.55,-21.15L19.3 -21.15L19.3 -19.95M-22.7,-2.4L-15.5 -2.3L-3.45 -2.15L1.05 -1.75L5.75 -1.4L16.95 -2.2L26.05 -2.95L31.7 -3.55L32.8 -3.75M10.9,-18.9L8.1 -16.05L5.85 -13.85L4.3 -12.6M0.9,-11.15Q2.9 -11.7 4.3 -12.6M0.9,-11.15L-1.8 -10.65L-2 -10.6L-6.2 -10.4L-9.85 -10.5M-12.05,4.45L-7.6 4.1L-1.7 4.6Q1.8 5.55 1.8 8.35L1.7 12.5L1.2 16.95M-1.55,22.95Q0.35 21.5 1.2 17.05L1.2 16.95M-28.3,-20.4Q-25.85 -23.05 -20.55 -26.35L-19.85 -26.75Q-18.75 -27.45 -17.7 -27.75M-1.55,22.95L-1.65 23L-1.85 23.15L-1.95 23.2L-2.1 23.3L-2.15 23.3L-2.25 23.35M-12.05,4.45L-14 4.6L-14.55 4.55L-17.5 4.1Q-19.6 4.1 -19.9 5.65L-20 6.25L-19.7 8.15L-18.75 8.1L-17.15 8.3L-15.75 9.1Q-15.5 10.3 -15.8 11.65L-16.15 12.65L-20.25 12.65M-20.25,13.4Q-20 14.4 -20 16.65L-19.75 16.65M-22.15,17.6L-22.1 17.45L-22 17.15L-19.7 16.9L-19.65 16.9L-19.4 16.9L-16.75 17.2Q-15.5 17.6 -15.5 18.8L-15.55 19.5L-15.75 21.4L-18.95 21.95L-19 23.6Q-18.85 24.2 -17.65 24.2L-12.05 24.3L-7.9 24.35Q-4.1 24.25 -2.25 23.4M-19.7,8.15L-19.75 8.15L-19.85 8.15L-21.6 8.3Q-22.5 8.6 -23 9.8L-23.2 10.25L-23.2 10.9L-23.2 11.05L-23.2 11.1L-22.95 12L-22.5 12.6L-20.25 12.65M-18.95,21.95L-19.25 21.95Q-20.85 21.95 -21.5 21.45Q-22.25 20.85 -22.25 19.3L-22.2 18.55L-22.2 18.45M-2.2,13.15L-2.55 13.05L-3.3 12.75Q-3.85 12.55 -4.25 13.1Q-4.7 13.65 -4.6 14.5L-4.15 14.9L-3.3 15.15L-2.65 15.05L-2.2 14.4L-2.2 13.15M-22.15,17.6L-22.2 18.45" />
<path style="fill:none;stroke-width:1;stroke-linecap:butt;stroke-linejoin:miter;stroke-miterlimit:3;stroke:#1E3535;stroke-opacity:1" d="M32.65,-3.15Q31.45 -0.8 30.4 2.65M28.25,1.05L27.65 2L26.35 3.7Q25.85 4.35 25.8 5.25Q25.75 6.1 26.15 7.25Q25.9 8.3 24.3 10.15Q22.4 12.4 21.55 14M28.25,1.05L27.95 0.75L26.25 -0.75L25.25 0.2L24 1.1L23.75 1.15L23.45 1.1L22.8 0.9L21.75 0.65L21.6 1.25L21.55 1.95L21.6 1.95Q22.45 1.95 23.1 2.7Q23.85 3.45 23.85 4.5L23.85 4.85Q23.75 6.3 22.65 7.85Q21.35 9.7 19.9 9.7Q18.95 9.7 18.6 9.05Q18.35 8.5 18.35 7.2Q18.35 6.3 18.75 5.3L18.6 4.8L16.35 4.45L13.75 3.8Q13.75 7.6 13.05 9.65Q15.25 8.65 15.6 10.6L16.25 14.25L20.05 13.75Q20.8 13.75 21.35 14.25L21.65 14.55L23.5 16.4L24.75 14.85Q25.35 14 26.15 14L27.3 14.4L27.65 14.55L27 18.65L25.8 27.35L25.3 31.35Q25.4 36.45 24.95 40.35L24.2 45.05M23.35,47.85Q22.45 50.1 21.15 51.5Q17.5 55.35 5.85 55.35L-1.55 55.35L-8.15 55.35L-16 54.9Q-22.7 54.9 -24.7 46.95M-24.85,46.25L-25.1 44.85L-25.2 44.1L-25.65 35.9L-25.65 34.1L-26 27.6Q-26.95 20.3 -29.05 12.3L-28.55 12.25L-25.85 12.05Q-25.8 8.7 -25.35 7.35Q-24.7 5.25 -22.25 5.1L-21.8 3.8L-21.35 2.75L-20.55 0.65L-22.5 -0.8L-23.3 -2L-23.35 -2.05L-23.75 -2.85M-24.05,-3.35L-25.35 -2.3L-25.45 -2.25M-2.3,-18Q-1.55 -19.95 1.35 -19.95L2.7 -19.85L5.95 -19.45L10.9 -18.9M-2.3,-18Q-2.8 -16.85 -2.55 -15.1L-2.55 -15.05Q-0.45 -13.95 -1.1 -12L-1.8 -10.65M21.55,1.95L20.6 2.85L20.6 2.9L19.4 4.15L19 4.75L18.75 5.3M24.8,40.75L24.95 40.35M-24.05,-3.35L-23.95 -3.45L-21.7 -5.45L-18.6 -8.15L-15.15 -10.7L-12.35 -12.55L-10.6 -13.6Q-7.6 -15.4 -5.35 -16.3L-3.7 -16.8L-3.65 -16.85M-2.6,-15.05L-2.55 -15.05M-16.5,2.65Q-14.75 1.2 -14.75 0.8L-15.2 -0.8Q-15.55 -1.7 -15.5 -2.3M-16.5,2.65L-16.85 2.95Q-19.4 5.05 -21.75 5.05L-22.25 5.1M-22.2,18.45L-22.25 18.05L-22.15 17.6" />
<path style="fill:none;stroke-width:1;stroke-linecap:butt;stroke-linejoin:miter;stroke-miterlimit:3;stroke:#3B6464;stroke-opacity:1" d="M-12.1,2.85L-12.05 4.45M1.2,16.95L5.75 16.95L16.5 17.9L27 18.65M25.8,27.35L24.15 27.3Q22.8 27.95 20.75 27.8L17.3 27.5Q14.45 27.5 13.8 30.4Q13.6 31.25 13.6 35.75Q13.6 40.35 16.05 40.6L19.55 40.5L24.8 40.75M-12.05,28.65L-12 29.6Q-12.15 33.15 -14.55 33.7L-20 34.1L-25.65 34.1M-12.1,2.85L-12.25 0L-12.05 -1.7M-12.05,28.65Q-12.25 25.5 -12.05 24.3" />
</g>
</svg>
