<?xml version="1.0" encoding="utf-8"?>
<svg version="1.1" id="Layer_1"
xmlns="http://www.w3.org/2000/svg"
xmlns:xlink="http://www.w3.org/1999/xlink"
xmlns:author="http://www.sothink.com"
width="141px" height="113px"
xml:space="preserve">
<g id="280" transform="matrix(1, 0, 0, 1, 70.35, 56.1)">
<path style="fill:#B7B7DE;fill-opacity:1" d="M2.2,-51.15L-0.25 -51.15Q-0.3 -51.1 -0.55 -51L-5.75 -51Q-6.6 -51.35 -6.75 -51.75L-6.85 -52.4Q-6.85 -54.4 -3.6 -54.3L3.45 -53.7L6.25 -53.45L8.85 -53.35L12 -53.3L14.05 -53.05Q15.2 -52.85 15.2 -52Q15.2 -51.35 14.8 -51.1L12.45 -50.75L8.3 -50.85L7.5 -50.75Q7.3 -52.3 4.9 -52.6Q2.3 -52.9 2.2 -51.15M21,-48.75Q20.85 -48.4 20.25 -48.4Q19.6 -48.4 19.4 -48.95L19.3 -49.45Q19.3 -50.55 20.2 -50.45Q21.1 -50.25 21.1 -49.4L21 -48.75M9.6,15L9.8 14.45L10.55 14.3L12 14.6Q13.4 15.05 13.4 16.05Q13.4 17 12.75 17Q10.4 17 9.8 16.15L9.6 15M5.55,15.9Q5.25 15.3 5.25 14.5Q5.25 13.95 6.7 14.05Q8.15 14.15 8.15 15.6Q8.15 16.45 7.8 16.65Q6.15 17.1 5.55 15.9M-3.65,16L-3.7 16.3Q-4 16.9 -5.3 16.9L-8.55 16.8L-9.7 16.45L-9.85 16.15L-9.85 15.85Q-9.95 15.35 -10.15 15.15L-10.25 14.75Q-10.25 14.15 -9.75 14.05L-5.6 14.25Q-4.15 14.4 -3.8 14.85L-3.65 15.35L-3.65 15.6L-3.65 16M-19.2,15.45Q-19.2 16.45 -19.75 16.45Q-20.4 16.45 -20.4 15.55Q-20.4 14.35 -19.8 14.45Q-19.2 14.55 -19.2 15.45M-6.35,14.7L-6.35 14.65L-6.75 14.65L-6.35 14.7M-9.4,15.9L-9.1 16.25L-9 16.25L-9.4 15.9" />
<path style="fill:#595980;fill-opacity:1" d="M3.95,-51.15Q3.6 -50.95 3.6 -50.55Q3.6 -49.75 5.05 -49.75Q5.9 -49.75 5.9 -50.5L5.85 -50.75Q5.7 -51.3 4.75 -51.3L3.95 -51.15M4.9,-52.6Q7.3 -52.3 7.5 -50.75L7.5 -50.55Q7.5 -49.35 5.75 -49.35Q2.2 -49.35 2.2 -51L2.2 -51.15Q2.3 -52.9 4.9 -52.6M-5.45,-47.3L-5.85 -46.7L-5.85 -46.8L-5.85 -47L-5.85 -47.05Q-5.85 -48.2 -5 -48.6L-3.7 -49Q-2.85 -49.05 -2.3 -48.7Q-4.35 -48.55 -5.45 -47.3M12.8,-48.15Q11.8 -48.2 11.8 -47.3L11.95 -46.75Q12.2 -46.2 12.9 -46.2L13.65 -46.65L13.8 -47.25Q13.8 -48.1 12.8 -48.15M10.75,-48.7Q11.1 -49.3 12.2 -49.5Q14.95 -49.75 14.95 -47.65L14.5 -46.4Q13.85 -45.35 12.9 -45.35Q11.4 -45.35 10.85 -46.45L10.6 -47.65Q10.6 -48.4 10.75 -48.7" />
<path style="fill:#8C8CB6;fill-opacity:1" d="M8.3,-50.85L12.45 -50.75L14.8 -51.1Q15.2 -51.35 15.2 -52Q15.2 -52.85 14.05 -53.05L12 -53.3L8.85 -53.35L6.25 -53.45L3.45 -53.7L-3.6 -54.3Q-6.85 -54.4 -6.85 -52.4L-6.75 -51.75Q-6.6 -51.35 -5.75 -51L-0.55 -51Q-0.3 -51.1 -0.25 -51.15L2.2 -51.15L2.2 -51Q2.2 -49.35 5.75 -49.35Q7.5 -49.35 7.5 -50.55L7.5 -50.75L8.3 -50.85M16.2,-52.65L16.55 -51.15L16.55 -50.4L16.5 -48.9L16.45 -44.85L15 -44.55L13.65 -44.6L9.45 -45.2L6.55 -45.7Q5.85 -47.2 5.2 -47.7Q4.05 -48.6 -0.75 -48.65L-1.9 -48.7L-2.3 -48.7Q-2.85 -49.05 -3.7 -49L-5 -48.6Q-5.85 -48.2 -5.85 -47.05L-5.85 -47L-5.85 -46.8L-5.85 -46.7L-6.4 -45.35L-6.45 -45.35Q-7.35 -45.3 -8.25 -46.3L-8.8 -46.85L-8.85 -49.95L-8.85 -50.85L-8.8 -52Q-8.45 -55.5 -5.75 -55.25L5.2 -54.65L13.8 -54.3L14.95 -54.3Q15.65 -53.9 16.1 -52.8L16.15 -52.75L16.2 -52.65M18.7,-51L19.85 -51Q21.2 -50.7 21.4 -50.35L21.5 -48.75L21.5 -46.3L21.2 -46.35L18.8 -46.1L18.8 -47.85L18.8 -49.1L18.7 -51M21.1,-49.4Q21.1 -50.25 20.2 -50.45Q19.3 -50.55 19.3 -49.45L19.4 -48.95Q19.6 -48.4 20.25 -48.4Q20.85 -48.4 21 -48.75L21.1 -49.4M10.6,-47.65L10.85 -46.45Q11.4 -45.35 12.9 -45.35Q13.85 -45.35 14.5 -46.4L14.95 -47.65Q14.95 -49.75 12.2 -49.5Q11.1 -49.3 10.75 -48.7Q10.6 -48.4 10.6 -47.65M2.15,-9.15L3 -7.5L3.6 -6L2.6 -5.2L2.3 -5.65Q1.3 -7 -0.55 -7L-2.15 -6.55L-6.55 -5.05L-5.85 -8.3L0.1 -10.75L0.95 -11.2L2.05 -9.3L2.15 -9.15M-16.3,7.1L-12.45 6.9L-8.8 6.55L-8.45 6.5L-7.5 6.4L-7.8 6.1Q-8.35 5.25 -8.35 4.5L-8.05 3.3L-6.35 1.35Q-4.85 0 -3.7 -0.35L-4 1.25L-4 1.35Q-3.95 2.4 -3.35 3.3L-2.55 4.2L-0.2 6.1L0.4 6.15Q2.55 6.3 3.85 6.95Q4.8 7.45 5.3 8.25L5.3 9.35L1.25 8.9L-4.2 8.45L-6.8 8.5L-16.4 9L-17.75 9.1L-17.7 8.9Q-17.4 7.45 -16.3 7.1M12.2,22.25L9 22L7.9 22L5 22.15L4.5 22.2L4.45 13.25L4.7 13.1L5.8 13.15L8.95 13.05L11.6 12.95L11.7 12.95L12.4 13.2Q14.3 14.1 14.5 16.2L14.55 22.45L12.2 22.25M-21.85,20.15L-21.65 18.5L-21.6 18L-21.6 17.3L-21.55 16.9L-21.4 16.1Q-21.05 14 -19.8 13.8L-18.5 13.8L-18.7 17.95L-18.7 21Q-18.85 22.95 -19.7 22.95Q-20.75 22.95 -21.55 21.95L-21.8 21.5L-21.85 20.15M-2.95,13.35L-3.05 15.4L-2.95 18.9Q-3 20.45 -3.75 21.3Q-4.7 22.3 -6.65 22.3L-10.95 22.2L-10.95 20L-10.95 19.3L-10.95 18.8L-10.95 18.6L-10.85 13.45L-10.65 13.4Q-7.75 13.2 -3.6 13.35L-2.95 13.35M9.8,16.15Q10.4 17 12.75 17Q13.4 17 13.4 16.05Q13.4 15.05 12 14.6L10.55 14.3L9.8 14.45L9.6 15L9.8 16.15M7.8,16.65Q8.15 16.45 8.15 15.6Q8.15 14.15 6.7 14.05Q5.25 13.95 5.25 14.5Q5.25 15.3 5.55 15.9Q6.15 17.1 7.8 16.65M-14.8,-4.65L-9.85 -6.65L-9.1 -5.15L-8.75 -4.35L-12.55 -3.1L-15.25 -2.3L-14.8 -4.65M-3.65,15.6L-3.65 15.35L-3.8 14.85Q-4.15 14.4 -5.6 14.25L-9.75 14.05Q-10.25 14.15 -10.25 14.75L-10.15 15.15Q-9.95 15.35 -9.85 15.85L-9.85 16.15L-9.7 16.45L-8.55 16.8L-5.3 16.9Q-4 16.9 -3.7 16.3L-3.65 16L-3.65 15.6M-19.8,14.45Q-20.4 14.35 -20.4 15.55Q-20.4 16.45 -19.75 16.45Q-19.2 16.45 -19.2 15.45Q-19.2 14.55 -19.8 14.45M-6.75,14.65L-6.35 14.65L-6.35 14.7L-6.75 14.65M-9,16.25L-9.1 16.25L-9.4 15.9L-9 16.25" />
<path style="fill:#3D3D5F;fill-opacity:1" d="M4.75,-51.3Q5.7 -51.3 5.85 -50.75L5.9 -50.5Q5.9 -49.75 5.05 -49.75Q3.6 -49.75 3.6 -50.55Q3.6 -50.95 3.95 -51.15L4.75 -51.3M13.8,-47.25L13.65 -46.65L12.9 -46.2Q12.2 -46.2 11.95 -46.75L11.8 -47.3Q11.8 -48.2 12.8 -48.15Q13.8 -48.1 13.8 -47.25" />
<path style="fill:#F58D48;fill-opacity:1" d="M18.5,-46.1L17.45 -45.55L16.55 -44.9L16.45 -44.85L16.5 -48.9L16.55 -50.4L16.55 -51.15L16.2 -52.65L16.55 -52.8Q18.25 -52.8 18.6 -51.45L18.7 -51L18.8 -49.1L18.8 -47.85L18.8 -46.1L18.5 -46.1" />
<path style="fill:#6E6E98;fill-opacity:1" d="M18.7,-44.05L18.8 -46.1L21.2 -46.35L21.5 -46.3L21.35 -44.25Q21.3 -43.7 20.3 -43.3L18.55 -43.2L18.55 -43.25L18.7 -44.05M6.55,-45.7L9.45 -45.2L13.65 -44.6L15 -44.55L16.45 -44.85L16.3 -43.75L15.75 -42.25Q15 -41.2 13.6 -40.95L8.25 -40.25Q7.4 -43.8 6.55 -45.7M-8.65,-43.15L-8.8 -46.85L-8.25 -46.3Q-7.35 -45.3 -6.45 -45.35L-6.4 -45.35L-6.55 -44.85L-7.05 -41.45L-7.1 -41.2L-7.4 -39.65Q-8.15 -40.55 -8.5 -42.25L-8.65 -43.15M-12.45,1.45L-12.45 1.25L-13 1.45L-15.2 2.25L-16.2 1.55L-17.1 0.3L-15.6 -0.4L-15.3 -2L-15.25 -2.3L-12.55 -3.1L-8.75 -4.35L-8.55 -3.85L-6.65 -4.8L-6.55 -5.05L-2.15 -6.55L-0.55 -7Q1.3 -7 2.3 -5.65L2.6 -5.2L-1.45 -3.3L-1.55 -3.3L-1.6 -3.25L-1.8 -3.15L-2.15 -2.85L-3.3 -1.35L-3.6 -0.6L-3.7 -0.35Q-4.85 0 -6.35 1.35L-8.05 3.3L-8.35 4.5Q-8.35 5.25 -7.8 6.1L-7.5 6.4L-8.45 6.5L-8.8 6.55L-12.45 6.9L-12.45 6.4L-12.45 1.45M-16.4,9L-6.8 8.5L-4.2 8.45L1.25 8.9L5.3 9.35L5.3 9.4L5.3 9.7L-3.55 9.75L-17.8 9.75L-17.75 9.1L-16.4 9M-24.85,23.85L-24.9 22.2L-24.85 18.85Q-24.75 16.7 -24 16.05L-21.4 16.1L-21.55 16.9L-21.6 16.9L-21.6 17.3L-21.6 18L-21.65 18.5L-21.85 20.15L-21.8 21.5L-21.55 21.95Q-20.75 22.95 -19.7 22.95Q-18.85 22.95 -18.7 21L-18.7 17.95L-18.5 13.8L-16.35 13.7L-16.25 13.7L-16.2 13.7L-16.2 21.1Q-16.2 25.85 -16.35 27.8L-16.45 31.1L-16.45 31.35L-17.2 31.35Q-21.2 31.35 -21.6 27.85L-21.6 28Q-24.1 28.85 -24.7 26.45L-24.75 26.05L-24.85 23.85M4.45,13.15L4.45 13.1L4.7 13.1L4.45 13.25L4.45 13.15M4.9,31.45L4.6 31.45L4.45 31.45Q4.25 27.95 4.45 23.55L4.5 22.4L4.5 22.2L5 22.15L7.9 22L9 22L12.2 22.25L14.55 22.45L14.55 24.35L14.55 27.8Q14.95 30.6 12.25 31.5L9.1 31.4L9 31.4L6.05 31.35L4.9 31.45M-1.05,13.35L-1.1 19.5L-1.05 26.3L-0.9 31.4L-10.65 31.3L-11 31.35L-11 31.25L-11.2 31.25L-11.05 25.5L-10.95 22.2L-6.65 22.3Q-4.7 22.3 -3.75 21.3Q-3 20.45 -2.95 18.9L-3.05 15.4L-2.95 13.35L-1.05 13.35" />
<path style="fill:#8080AD;fill-opacity:1" d="M29.3,-22.85L30 -25.05Q30.55 -26.2 31.4 -26.8L31.75 -27Q32.9 -27.7 34.75 -27.75L40.8 -26.75L46.6 -25.65L50.65 -25.05L53.85 -24.5Q55.6 -24.3 56.15 -23.4L56.3 -22.75L56.4 -19.75L56.4 -18.3L56.35 -16.5Q54.55 -15.5 53.95 -15.4L51.55 -14.8L48.7 -14.3L47.4 -19.95L52.15 -19.65Q54.85 -19.65 54.85 -21.4L54.8 -22.05L53.85 -22.65L51.25 -22.65Q44.2 -23.95 40.1 -25.05L33.95 -26.2Q32.2 -26.1 32.2 -24.5Q32.2 -23.4 33.4 -22.85Q34.2 -22.45 36.2 -21.95L35.1 -21.15Q34.2 -20.3 33.75 -18.9L33.3 -15.95L31.2 -17.65L29.95 -18.9L29.8 -19.1L29.3 -18.9L29.1 -18.9L28.9 -18.9Q28.95 -21.2 29.3 -22.85M-0.9,-43.65L-0.6 -43.85L0.7 -44.15L2.65 -43.75L2.85 -43.65L3.5 -43.15L3.85 -42.45L3.9 -41.9L3.8 -41.1L3.1 -39.9L2.75 -39.5L2.7 -39.45Q1.95 -38.85 0.95 -38.85L-0.15 -39.1L-0.9 -39.6Q-1.9 -40.55 -1.9 -41.8L-1.8 -42.4L-1.55 -42.95L-1.4 -43.25L-0.9 -43.65M3.35,-41.8Q3.35 -42.7 2.15 -43.25L2 -43.3Q0.6 -43.85 0.6 -42.8Q0.6 -42.35 1.1 -41.75L1.4 -41.35L1.7 -41.2L2.3 -41L3.15 -41.15Q3.35 -41.25 3.35 -41.8M40.3,-11.85Q38.75 -11.85 38.05 -12.45Q37.3 -13 37.25 -14.35L37.25 -14.5Q37.25 -16 37.5 -16.45L38.05 -17.1L38.75 -17.7L38.85 -17.7L39 -17.9Q39.85 -18.55 41.05 -18.55Q42.3 -18.55 43.1 -17.7Q43.9 -16.95 43.9 -15.65L43.7 -13.75L43.1 -12.75L43 -12.6Q42.15 -11.85 40.3 -11.85M41.55,-17.35Q40.35 -17.65 40.35 -16.7Q40.4 -16.3 40.6 -15.85Q40.85 -15.35 41.2 -15.1Q41.6 -14.8 42.05 -14.8Q42.55 -14.8 42.65 -14.95L42.7 -15.95Q42.7 -17.05 41.55 -17.35" />
<path style="fill:#A9A9D4;fill-opacity:1" d="M46.9,-21.2Q45.85 -22.65 41.3 -22.75L40.05 -22.8Q37.7 -22.8 36.2 -21.95Q34.2 -22.45 33.4 -22.85Q32.2 -23.4 32.2 -24.5Q32.2 -26.1 33.95 -26.2L40.1 -25.05Q44.2 -23.95 51.25 -22.65L53.85 -22.65L54.8 -22.05L54.85 -21.4Q54.85 -19.65 52.15 -19.65L47.4 -19.95L46.9 -21.2" />
<path style="fill:#FF6600;fill-opacity:1" d="M18.55,-43.25Q18.1 -41.85 16.95 -41.85Q16 -41.85 15.75 -42.25L16.3 -43.75L16.45 -44.85L16.55 -44.9L17.45 -45.55L18.5 -46.1L18.8 -46.1L18.7 -44.05L18.55 -43.25M-8.5,-42.25L-10 -42.15Q-11.15 -42.15 -11.45 -42.9L-11.7 -45L-12.1 -49.45L-12.1 -49.8L-10.3 -50.15L-9.2 -50L-8.85 -49.95L-8.8 -46.85L-8.65 -43.15L-8.5 -42.25" />
<path style="fill:#C3C3E2;fill-opacity:1" d="M12.7,-31.4Q10.35 -32.55 9.9 -33L9.85 -33.05L9.6 -33.3L8.05 -34.95L9.05 -36.5L9.25 -36.75L12.35 -39.95L12.6 -39.8L13.25 -40.05Q15.05 -40.05 16.25 -35.8Q17.15 -32.55 17.15 -29.9L17.05 -28.15Q16.85 -27.2 16.3 -27L15.95 -26.95Q14.1 -26.95 12.95 -30.55L12.9 -30.65L12.7 -31.4M14.05,-9L5.15 -9.3L2.05 -9.3L0.95 -11.2Q2.6 -12.25 3.45 -13.85L7.8 -13.8L15 -14L15.6 -13.95L15.1 -8.9L14.05 -9M14.85,-1.8L15.85 -1.8L16.1 -3.4L16.3 -3.4L16.5 -3.4L16.6 -3.25L16.2 -3.25L16.1 -1.5L14.85 -1.8M-45.35,40.95L-45.6 39.15Q-46.75 30.75 -50.65 28.65Q-56 25.75 -59.1 21.1L-60.1 19.45L-57.2 17.6Q-53.5 15.3 -49.7 15.3L-46.3 15.95L-42.7 16.6L-36 16.1L-32.5 15.8L-29.85 15.6Q-26.25 15.6 -25.95 18.45Q-25.6 21.8 -24.85 23.85L-24.75 26.05L-24.7 26.45Q-24.1 28.85 -21.6 28L-21.6 27.85Q-21.2 31.35 -17.2 31.35L-16.45 31.35Q-16.65 33.45 -16.45 35.75L-15.7 35.75L-13.75 35.8L-11.25 35.75L-11.2 31.25L-11 31.25L-11 31.35L-10.65 31.3L-0.9 31.4L-0.9 31.55L-0.85 35.2L4.35 35.1L4.45 31.55L4.45 31.45L4.6 31.45L4.9 31.45L6.05 31.35L9 31.4L9.1 31.4L12.25 31.5Q14.95 30.6 14.55 27.8L14.55 24.35Q17.35 23.5 18.2 22.8Q20.45 21.05 24.35 16.95L26.55 14.65L26.75 14.4L29.35 11.6L29.4 11.5L30.05 10.75Q30.7 10.1 35.6 8.35Q40.55 6.5 42.15 6.5Q44.15 6.5 47.4 7.35L51.8 8.15L57.7 7.45L64.1 6.8L64.75 6.8Q64 10.45 61.5 12.55L58.8 14.4L57.4 15.2Q53.5 17.35 52.1 18.25Q42.1 24.55 37.1 32.65L37.2 32.7Q36.5 33.65 34.35 40.1L33.7 40.1L19.35 40.25L9.2 40.35L-45.35 40.95M-12.45,6.4L-18.55 5.3L-25.1 3.6L-25.35 1.55L-25.4 1.45L-24.95 0.45Q-23.4 1.4 -18.3 1.55L-16.8 1.55L-16.2 1.55L-15.2 2.25L-13 1.45L-12.45 1.45L-12.45 6.4M-14.95,-16.45L-15 -16.2L-15.1 -15.95L-15.15 -15.75L-15.1 -14.8L-15.1 -12.95L-14.25 -12.75L-17.5 -11.4L-17.55 -14.6L-17.55 -14.8L-17.55 -15.75L-17.5 -16.65L-16.15 -17.25L-14.9 -16.55L-14.95 -16.45M-5.3,-25.1L-5.5 -25.1L-6.9 -27.6L-9.5 -30.35L-9.85 -30.5L-10.05 -30.55L-12.3 -31.3L-12.4 -31.25L-14.25 -29.45L-15.05 -31.4L-15.4 -32.3Q-16.35 -30.55 -16.35 -29.4Q-16.35 -28.55 -16.15 -28.2L-16.1 -28.1Q-17.55 -27.25 -18.75 -27.25L-19.8 -27.35Q-20.3 -27.5 -20.7 -27.8Q-21.55 -28.45 -21.55 -29.65Q-21.55 -32.3 -19.55 -35.05Q-18.1 -37.2 -16.1 -38.55L-15.85 -38.7L-15.3 -39.05L-13.9 -39.65L-11.7 -40.05Q-10.1 -40.05 -9.55 -39.6L-9.1 -39.05L-8.9 -38.4L-8.85 -37.6L-8.6 -37.75L-8.3 -37L-7.9 -35.95L-7.1 -33.1Q-7.1 -31.4 -7.45 -30.1L-7.2 -29.8L-6.15 -28.4Q-5.55 -27.9 -5.35 -26.45L-5.3 -25.1M-6.4,-45.35L-5.85 -46.7L-5.45 -47.3L-4.65 -46.7L-4.55 -46.65L-2.5 -46.2L-1.5 -46.1L-0.85 -46.05Q1.05 -45.9 2.25 -45.4L3 -45L3.8 -44.25L4.15 -43.85L4.85 -42.4L5.15 -41.25L5.25 -40.45L5.35 -39.85Q6 -34.65 6.95 -30.95L7.3 -29.6Q6.35 -29.65 5.3 -30.15Q4.25 -30.6 3.35 -31.4Q2.55 -32.1 0.35 -32.3L-3.2 -32.7Q-5.35 -33.25 -5.75 -37.6L-5.8 -37.75L-5.9 -38.6Q-6.25 -40.45 -7.05 -41.45L-6.55 -44.85L-6.4 -45.35M-1.4,-43.25L-1.55 -42.95L-1.8 -42.4L-2.6 -41.95Q-3.45 -41.3 -3.45 -40.3Q-3.45 -39.45 -3.1 -38.75L-2.05 -37.5Q-0.85 -36.55 0.6 -36.55Q2.7 -36.55 2.7 -38.5L2.7 -39.45L2.75 -39.5L3.1 -39.9L3.8 -41.1L3.9 -41.9L3.85 -42.45L3.5 -43.15L2.85 -43.65L2.65 -43.75L0.7 -44.15L-0.6 -43.85L-0.9 -43.65L-1.4 -43.25M10.05,-32.65Q10.75 -32.65 10.95 -31.9L11.05 -30.6L10.6 -27.9L10.55 -27.4L10.5 -27.3L10.05 -25L9.2 -25L9.35 -28L9.75 -32.3L9.8 -32.6L10.05 -32.65M13.15,-33.35Q13.65 -32.8 14.15 -32.8Q14.65 -32.8 14.65 -33.25Q14.65 -34 13.7 -34.5Q12.8 -35 12.8 -33.95L13.15 -33.35M0.4,6.15L-0.2 6.1L-2.55 4.2L-3.35 3.3Q-3.95 2.4 -4 1.35L-0.35 1.45L0.95 1.45L2.8 1.55L15.25 2.8L18.95 2.95L22.7 3.05Q23.3 3.15 25.2 4.35L24 5.65Q23.1 6.5 22.1 6.95L21.7 7.1Q18.7 6.25 15.95 6.25L12 6.65L7.45 7.05L6.65 7.05L3.85 6.95Q2.55 6.3 0.4 6.15M33.3,-15.95L33.75 -18.9Q34.2 -20.3 35.1 -21.15Q35.8 -20.5 36.95 -20.4L41.1 -20.65Q45.25 -20.65 46.35 -14.2L46.4 -14.05L46.6 -11.7L47.3 -5.7L47.05 -5.75Q46.5 -5.75 44.95 -5.05Q43.4 -4.4 42.55 -4.4Q41.25 -4.4 40.55 -5.55Q39.9 -6.75 38.1 -6.8L35.25 -7.1Q33.9 -7.4 33.25 -8.4Q32.75 -9.3 32.55 -10.85L32.45 -11.95L33.3 -15.95M37.95,-17.1Q36.7 -17.1 36.05 -15.9L35.75 -14.85L35.65 -14.1Q35.65 -12.75 36.5 -11.45L37.05 -10.7L37.45 -10.25Q38.65 -9.05 39.95 -9.05Q41.75 -9.05 42.45 -9.85Q42.9 -10.4 43 -11.4L43.05 -12.3L43 -12.6L43.1 -12.75L43.7 -13.75L43.9 -15.65Q43.9 -16.95 43.1 -17.7Q42.3 -18.55 41.05 -18.55Q39.85 -18.55 39 -17.9L38.85 -17.7L38.75 -17.7L38.05 -17.1L37.95 -17.1M42.5,10.2Q40.05 12.4 40.05 14.05L40.15 14.4L40.75 15.05L42.2 15.35Q44.1 15.35 45.55 14.4L47 13.05Q48.45 11.2 48.45 9.4Q48.45 8.55 46.55 7.95L46.2 7.9L46.3 8Q46.1 7.85 45.6 8L45.55 8L45.4 8.1Q44.1 8.8 42.5 10.2M37.7,33.15L37.5 33.05L37.5 33L37.55 33L37.7 33.15M-14.9,-33.05L-13.15 -32.75L-11.2 -32.6L-10.25 -33.9L-10.25 -33.95L-9.35 -35.55L-11.35 -36Q-12.5 -36 -13.7 -34.65L-14.45 -34.75Q-14.95 -34.75 -15.3 -34.2L-15.55 -33.3L-14.9 -33.05M-17.5,-35.2Q-17.5 -36.65 -19.15 -34.4Q-20.8 -32.15 -20.8 -29.95L-20.55 -28.85Q-20.1 -27.75 -19 -27.75Q-17.35 -27.75 -17.35 -28.45Q-17.35 -28.75 -18.5 -29.15Q-19.65 -29.6 -19.65 -30.05Q-19.65 -31.2 -18.55 -33.25L-17.5 -35.2M-8.4,-15.1L-9.85 -16.15L-9.5 -16.3L-7.05 -16.95L-4.45 -16.75L-8.4 -15.1" />
<path style="fill:#ECECF7;fill-opacity:1" d="M-2.3,-48.7L-1.9 -48.7L-0.75 -48.65Q4.05 -48.6 5.2 -47.7Q5.85 -47.2 6.55 -45.7Q7.4 -43.8 8.25 -40.25L8.4 -39.6L9.05 -36.5L8.05 -34.95Q7.5 -33.8 7.5 -32.65Q7.5 -31.05 8.1 -29.75L7.8 -28.5L7.75 -28.25L7.3 -29.6L6.95 -30.95Q6 -34.65 5.35 -39.85L5.25 -40.45L5.15 -41.25L4.85 -42.4L4.15 -43.85L3.8 -44.25L3 -45L2.25 -45.4Q1.05 -45.9 -0.85 -46.05L-1.5 -46.1L-2.5 -46.2L-4.55 -46.65L-4.65 -46.7L-5.45 -47.3Q-4.35 -48.55 -2.3 -48.7M10.05,-25L10.5 -27.3L10.55 -27.25L10.85 -25L10.05 -25M26.15,3.2L25.2 4.35Q23.3 3.15 22.7 3.05L18.95 2.95L15.25 2.8L2.8 1.55L0.95 1.45L-0.35 1.45L-4 1.35L-4 1.25L-3.7 -0.35L-3.6 -0.6L-0.2 -0.8L5.2 -0.45L11.3 -0.2L15.8 -0.25L16.05 -0.15L16.05 -0.2L17.65 -0.15L23.15 0.4L24.15 0.65Q24.85 0.95 25.35 1.55Q25.9 2.2 26.15 3.2M49.15,-12.05L49.15 -11.85L50.45 -4.3L49.65 -4.65L47.3 -5.7L46.6 -11.7L46.4 -14.05L46.35 -14.2Q45.25 -20.65 41.1 -20.65L36.95 -20.4Q35.8 -20.5 35.1 -21.15L36.2 -21.95Q37.7 -22.8 40.05 -22.8L41.3 -22.75Q45.85 -22.65 46.9 -21.2L47.4 -19.95L48.7 -14.3L49.15 -12.05M-16.8,1.55L-18.3 1.55Q-23.4 1.4 -24.95 0.45Q-24.95 -1.45 -20.15 -1.45L-19.15 1.15L-17.1 0.3L-16.2 1.55L-16.8 1.55M12.8,-33.95Q12.8 -35 13.7 -34.5Q14.65 -34 14.65 -33.25Q14.65 -32.8 14.15 -32.8Q13.65 -32.8 13.15 -33.35L12.8 -33.95M-10.25,-33.9L-11.2 -32.6L-13.15 -32.75L-14.9 -33.05L-15.55 -33.3L-15.3 -34.2Q-14.95 -34.75 -14.45 -34.75L-13.7 -34.65L-10.7 -34.2L-10.25 -33.9M-18.55,-33.25Q-19.65 -31.2 -19.65 -30.05Q-19.65 -29.6 -18.5 -29.15Q-17.35 -28.75 -17.35 -28.45Q-17.35 -27.75 -19 -27.75Q-20.1 -27.75 -20.55 -28.85L-20.8 -29.95Q-20.8 -32.15 -19.15 -34.4Q-17.5 -36.65 -17.5 -35.2L-18.55 -33.25M-12.45,1.45L-13 1.45L-12.45 1.25L-12.45 1.45" />
<path style="fill:#B1B1DB;fill-opacity:1" d="M3.15,-41.15L2.3 -41L1.7 -41.2L1.4 -41.35L1.1 -41.75Q0.6 -42.35 0.6 -42.8Q0.6 -43.85 2 -43.3L2.15 -43.25Q3.35 -42.7 3.35 -41.8Q3.35 -41.25 3.15 -41.15M42.7,-15.95L42.65 -14.95Q42.55 -14.8 42.05 -14.8Q41.6 -14.8 41.2 -15.1Q40.85 -15.35 40.6 -15.85Q40.4 -16.3 40.35 -16.7Q40.35 -17.65 41.55 -17.35Q42.7 -17.05 42.7 -15.95" />
<path style="fill:#A9A9CB;fill-opacity:1" d="M-1.8,-42.4L-1.9 -41.8Q-1.9 -40.55 -0.9 -39.6L-0.15 -39.1L0.95 -38.85Q1.95 -38.85 2.7 -39.45L2.7 -38.5Q2.7 -36.55 0.6 -36.55Q-0.85 -36.55 -2.05 -37.5L-3.1 -38.75Q-3.45 -39.45 -3.45 -40.3Q-3.45 -41.3 -2.6 -41.95L-1.8 -42.4M38.05,-17.1L37.5 -16.45Q37.25 -16 37.25 -14.5L37.25 -14.35Q37.3 -13 38.05 -12.45Q38.75 -11.85 40.3 -11.85Q42.15 -11.85 43 -12.6L43.05 -12.3L43 -11.4Q42.9 -10.4 42.45 -9.85Q41.75 -9.05 39.95 -9.05Q38.65 -9.05 37.45 -10.25L37.05 -10.7L36.5 -11.45Q35.65 -12.75 35.65 -14.1L35.75 -14.85L36.05 -15.9Q36.7 -17.1 37.95 -17.1L38.05 -17.1" />
<path style="fill:#8D8DB1;fill-opacity:1" d="M-5.35,-26.45Q-5.55 -27.9 -6.15 -28.4L-7.2 -29.8L-7.45 -30.1Q-7.1 -31.4 -7.1 -33.1L-7.9 -35.95L-8.3 -37L-8.25 -37.25Q-7.75 -38.25 -7.4 -39.65L-7.1 -41.2L-7.05 -41.45Q-6.25 -40.45 -5.9 -38.6L-5.8 -37.75L-5.75 -37.6Q-5.35 -33.25 -3.2 -32.7L0.35 -32.3Q2.55 -32.1 3.35 -31.4Q4.25 -30.6 5.3 -30.15Q6.35 -29.65 7.3 -29.6L7.75 -28.25L7.8 -28.5L8.1 -29.75Q7.5 -31.05 7.5 -32.65Q7.5 -33.8 8.05 -34.95L9.6 -33.3L9.85 -33.05L9.9 -33Q10.35 -32.55 12.7 -31.4L12.9 -30.65L12.95 -30.55Q14.1 -26.95 15.95 -26.95L16 -26.7Q12.95 -26 10.55 -27.25L10.5 -27.3L10.55 -27.4L10.6 -27.9L11.05 -30.6L10.95 -31.9Q10.75 -32.65 10.05 -32.65L9.8 -32.6L9.75 -32.3L9.35 -28L9.2 -25L7.15 -25.05L-5.3 -25.1L-5.35 -26.45M16.5,-3.4L16.8 -3.4L16.75 -3.25L16.6 -3.25L16.5 -3.4M-3.3,-1.35L-2.15 -2.85L-1.8 -3.15L-1.4 -3.15L5.35 -3.2L9.8 -3.15L16.1 -3.4L15.85 -1.8L14.85 -1.8L16.1 -1.5L16.05 -0.2L15.8 -0.25L11.3 -0.2L5.2 -0.45L-0.2 -0.8L-3.6 -0.6L-3.3 -1.35M29.85,-1.45L30 -2.25Q31.05 -7.5 31.95 -10.25L32.2 -11.05L32.45 -11.95L32.55 -10.85Q32.75 -9.3 33.25 -8.4Q33.9 -7.4 35.25 -7.1L38.1 -6.8Q39.9 -6.75 40.55 -5.55Q41.25 -4.4 42.55 -4.4Q43.4 -4.4 44.95 -5.05Q46.5 -5.75 47.05 -5.75L47.3 -5.7L49.65 -4.65L50.45 -4.3L50.7 -2.9L50.5 -2.9L49.75 -2.9L45.85 -2.95L41.25 -3.05L35.55 -2.9L33.7 -2.85L31.95 -2.8Q30.9 -2.6 29.85 -1.45M-36,16.1L-42.7 16.6L-46.3 15.95L-49.7 15.3Q-53.5 15.3 -57.2 17.6L-60.1 19.45Q-61.35 17 -61.7 14.4L-61.8 11.4L-61.75 11.4L-59.9 11.45L-55.7 11.45L-52 11.55L-49 11.5L-44.55 11.25L-43.2 11.35L-34.7 11.2L-32.4 11.2L-28.6 11.25L-28.3 11.25L-22.5 11.25L-19.75 11.15Q-19.25 11.2 -18.85 10.85L-18.75 10.8L-18.4 10.2L-18.3 8.85L-18.3 8.05L-18.3 6.45L-18.6 5.95L-19 5.6L-24.95 5.6L-25.1 3.6L-18.55 5.3L-12.45 6.4L-12.45 6.9L-16.3 7.1Q-17.4 7.45 -17.7 8.9L-17.75 9.1L-17.8 9.75L-3.55 9.75L5.3 9.7L5.3 9.4L5.3 9.35L5.3 8.25Q4.8 7.45 3.85 6.95L6.65 7.05L7.45 7.05L12 6.65L15.95 6.25Q18.7 6.25 21.7 7.1L19.75 7.35L15 7.25L14.2 7.25Q12.4 7.25 11.75 7.85L11.45 8.45L11.45 9.15L11.45 9.6L11.3 11.75L11.3 11.9Q11.3 12.65 11.6 12.95L8.95 13.05L5.8 13.15L4.7 13.1L4.45 13.1L4.45 12.95L4.4 11.6L-0.9 11.4L-0.95 12.5L-1.05 13.15L-1.05 13.35L-2.95 13.35L-3.6 13.35Q-7.75 13.2 -10.65 13.4L-10.85 13.45L-10.95 11.95L-13.45 12.05L-16.25 12.15L-16.25 12.45L-16.2 13.35L-16.2 13.6L-16.2 13.7L-16.25 13.7L-16.35 13.7L-18.5 13.8L-19.8 13.8Q-21.05 14 -21.4 16.1L-24 16.05Q-24.75 16.7 -24.85 18.85L-24.9 22.2L-24.85 23.85Q-25.6 21.8 -25.95 18.45Q-26.25 15.6 -29.85 15.6L-32.5 15.8L-36 16.1M-20.25,-1.8L-22.55 -1.8L-23.15 -3.15L-20.85 -3.05L-20.75 -3.05L-20.25 -1.8M-11.3,-17.15L-11.95 -16.85Q-12.6 -17.25 -13.8 -17.25Q-14.35 -17.25 -14.7 -16.8L-14.9 -16.55L-16.15 -17.25L-17.5 -16.65Q-17.5 -19.15 -17.3 -19.8L-16.05 -19.75L-10.85 -19.9L-10.25 -19.9L0.8 -19.8L0.9 -17.55L-2.6 -17.4L-2.65 -17.5L-2.75 -17.45L-4.45 -16.75L-7.05 -16.95L-9.5 -16.3L-9.85 -16.15L-11.3 -17.15M-10.75,-26.2L-13.05 -25.8L-13.55 -25.8L-15.2 -25.95L-15.3 -25.95L-18.8 -27L-18.75 -27.25Q-17.55 -27.25 -16.1 -28.1L-16.15 -28.2Q-16.35 -28.55 -16.35 -29.4Q-16.35 -30.55 -15.4 -32.3L-15.05 -31.4L-14.25 -29.45L-12.4 -31.25L-12.3 -31.3L-10.05 -30.55L-9.85 -30.5L-9.5 -30.35L-6.9 -27.6L-5.5 -25.1L-7.9 -25.15L-10.9 -25.15L-10.75 -26.2M14.55,22.45L14.5 16.2Q14.3 14.1 12.4 13.2L14.4 13.3L16.85 13.25L17.8 13.2L21.55 13.05Q23.55 13 25.15 11.9L25.3 11.85L25.55 11.65L27.05 10.5L29.15 8.35L31.4 5.6Q32.3 4.35 33.95 3.85L34.35 3.75L38.25 3.3L41.35 3.25L43.25 3.25L44.2 3.2L44.75 3.2L46.35 3.15L50.5 3L52.2 3L52.35 3Q58 3 60.15 3.15L64 3.3L64.3 3.3L65.05 3.3L65.05 3.45L64.75 6.8L64.1 6.8L57.7 7.45L51.8 8.15L47.4 7.35Q44.15 6.5 42.15 6.5Q40.55 6.5 35.6 8.35Q30.7 10.1 30.05 10.75L29.4 11.5L29.35 11.6L26.75 14.4L26.55 14.65L24.35 16.95Q20.45 21.05 18.2 22.8Q17.35 23.5 14.55 24.35L14.55 22.45M-10.7,-34.2L-13.7 -34.65Q-12.5 -36 -11.35 -36L-9.35 -35.55L-10.25 -33.95L-10.25 -33.9L-10.7 -34.2M-21.6,17.3L-21.6 16.9L-21.55 16.9L-21.6 17.3" />
<path style="fill:#F3B288;fill-opacity:1" d="M-20.55,-23.55L-20.5 -23.75L-20.4 -24.65L-20.4 -25.05L-19.55 -25.15L-16.4 -25.25L-15.25 -25.25L-13.3 -25.2L-13 -25.2L-10.9 -25.15L-7.9 -25.15L-5.5 -25.1L-5.3 -25.1L7.15 -25.05L9.2 -25L10.05 -25L10.85 -25L12.15 -25L14.25 -24.95L17.35 -24.95Q19.2 -25 19.7 -24.45Q20.05 -24.1 20.05 -22.75L20 -21.55L19.75 -20.65Q19.45 -21.55 18.5 -22.05Q16 -23.35 14.75 -23.35L11.05 -23.15L9.8 -23.15L9.15 -23.2L7 -23.3L0.7 -23.7L-4.3 -24.1L-5.3 -24.05L-7.55 -23.85L-7.9 -23.8L-9.9 -23.65L-10.8 -23.65L-11.1 -23.65L-13 -23.6L-15.35 -23.6L-17.3 -23.55L-20.15 -23.55L-20.55 -23.55M3,-7.5L2.15 -9.15L2.05 -9.3L5.15 -9.3L14.05 -9L15.1 -8.9Q17.15 -8.7 17.6 -8.35Q18.15 -8 18.15 -6.2L18.05 -4.6L17.1 -6.6L16.75 -6.95L16 -7.15L14.85 -7.1L14.6 -7.15L8.95 -7.8L3.65 -7.5L3 -7.5M31.95,-2.8L33.7 -2.85L35.55 -2.9L41.25 -3.05L45.85 -2.95L49.75 -2.9L50.5 -2.9L50.7 -2.9L52.15 -2.9L63.2 -2.9L68 -2.7L68.65 -0.25L68.6 1.45L68.6 1.55L68.6 2.1L68.05 2.1L67.75 2.1L67.75 1.55L67.7 1.3Q67.6 -1.2 64.55 -1.2L50.95 -1.35L43.1 -1.4L39.85 -1.55L37.25 -1.8L35.05 -1.5L34.05 -1.35L30.35 -0.85L29.75 -0.9L29.45 -1L29.85 -1.45Q30.9 -2.6 31.95 -2.8M-18.9,10.75Q-19.1 9.45 -19.7 8.75L-19.85 8.55Q-20.75 7.55 -22.8 7.6L-23.7 7.55L-24.8 7.45L-24.95 7.4L-26 7.25L-28.4 6.95L-29.2 6.9L-35.15 7.25L-42.5 7.85L-45.1 7.45L-46.05 7.25L-49.6 6.65L-53.75 6.9L-56 6.6L-58.65 6.25Q-62.05 7.15 -62.25 6.75L-62.3 6.65L-64.2 6.65L-63.9 5.55L-24.95 5.6L-19 5.6L-18.6 5.95L-18.3 6.45L-18.3 8.05L-18.3 8.85L-18.4 10.2L-18.75 10.8L-18.9 10.75M-22.55,-7.55L-24.65 -7.35L-24.65 -7.55L-24.55 -8.2L-24.55 -8.65L-24.1 -9.15L-23.2 -9.2L-22.55 -7.55M11.45,8.45L11.75 7.85Q12.4 7.25 14.2 7.25L15 7.25L19.75 7.35L21.7 7.1L22.1 6.95L22.05 7.2Q21.75 8.15 21.1 8.65L19.5 9.1L18.05 9.4L17.75 9.4L11.45 9.15L11.45 8.45M-10.95,18.6L-10.95 18.8L-10.95 19.3L-10.95 20L-10.95 22.2L-11.05 25.5L-11.2 31.25L-12.85 31.15L-13.15 28.4L-13 23.85L-12.85 18.7L-12.95 15.15Q-13.1 13.95 -13.65 13.6Q-13.9 13.35 -14.3 13.35L-15.25 13.55L-16.2 13.35L-16.25 12.45L-16.25 12.15L-13.45 12.05L-10.95 11.95L-10.85 13.45L-10.95 18.6M4.5,22.4L4.45 23.55Q4.25 27.95 4.45 31.45L4.45 31.55L2.85 31.55L2.55 26.35L2.6 22.9L2.6 18.25L2.55 15.45Q2.35 14.05 1.55 13.25Q1.15 12.95 -0.9 12.5L-0.95 12.5L-0.9 11.4L4.4 11.6L4.45 12.95L4.45 13.1L4.45 13.15L4.45 13.25L4.5 22.2L4.5 22.4M-21.15,-7.6L-20.9 -7.7L-20.85 -7.6L-21.15 -7.6" />
<path style="fill:#DE7D3D;fill-opacity:1" d="M-17.3,-19.8L-18.7 -19.9Q-19.8 -19.9 -20.4 -20.35Q-20.9 -20.9 -20.9 -21.6L-20.55 -23.55L-20.15 -23.55L-17.3 -23.55L-15.35 -23.6L-13 -23.6L-11.1 -23.65L-10.8 -23.65L-9.9 -23.65L-7.9 -23.8L-7.55 -23.85L-5.3 -24.05L-4.3 -24.1L0.7 -23.7L7 -23.3L9.15 -23.2L9.8 -23.15L11.05 -23.15L14.75 -23.35Q16 -23.35 18.5 -22.05Q19.45 -21.55 19.75 -20.65L19.55 -20.3L19.3 -19.8Q19.1 -19.55 18.6 -19.55L16.85 -19.55L15.8 -19.55L12.6 -19.65L8.2 -19.75L0.8 -19.8L-10.25 -19.9L-10.85 -19.9L-16.05 -19.75L-17.3 -19.8M-1.6,-3.25L-1.55 -3.3L-1.45 -3.3L2.6 -5.2L3.6 -6L3 -7.5L3.65 -7.5L8.95 -7.8L14.6 -7.15L14.85 -7.1L16 -7.15L16.75 -6.95L17.1 -6.6L18.05 -4.6L17.9 -4.15Q17.55 -3.55 16.8 -3.4L16.5 -3.4L16.3 -3.4L16.1 -3.4L9.8 -3.15L5.35 -3.2L-1.4 -3.15L-1.8 -3.15L-1.6 -3.25M11.45,9.6L11.45 9.15L17.75 9.4L18.05 9.4L19.5 9.1L21.1 8.65Q21.75 8.15 22.05 7.2L22.1 6.95Q23.1 6.5 24 5.65L25.2 4.35L26.15 3.2L26.75 2.4L27.45 1.55L28.2 0.55L29.45 -1L29.75 -0.9L30.35 -0.85L34.05 -1.35L35.05 -1.5L37.25 -1.8L39.85 -1.55L43.1 -1.4L50.95 -1.35L64.55 -1.2Q67.6 -1.2 67.7 1.3L67.75 1.55L67.75 2.1L68.05 2.1L68.6 2.1L68.35 3.3L67.85 3.3L67.75 2.1L64.9 2L56.4 1.25L45.1 0.35L41.75 0.45L38.65 0.25Q37.1 0.25 35.45 1.25L33.95 2.05L33.05 2.25L32 2.05L31.7 1.95L30.85 1.85Q29.75 1.85 28.9 3.3L28.8 3.45L27.05 7L27 7.15L25.15 9.5Q22.25 12.1 17.4 12.1L16.4 12.05L14.8 11.9L12.05 11.7L11.3 11.75L11.45 9.6M-64.3,8.1L-64.3 7.75L-64.2 6.65L-62.3 6.65L-62.25 6.75Q-62.05 7.15 -58.65 6.25L-56 6.6L-53.75 6.9L-49.6 6.65L-46.05 7.25L-45.1 7.45L-42.5 7.85L-35.15 7.25L-29.2 6.9L-28.4 6.95L-26 7.25L-24.95 7.4L-24.8 7.45L-23.7 7.55L-22.8 7.6Q-20.75 7.55 -19.85 8.55L-19.7 8.75Q-19.1 9.45 -18.9 10.75L-18.75 10.8L-18.85 10.85L-18.9 10.75L-19.75 10.5L-23.05 10.25L-25.2 10L-26.5 9.8L-28.35 9.6L-30 9.55L-33.55 9.85L-36.05 9.55L-38.25 9.15L-42.6 9.55L-46.65 9.4L-48.65 9.3L-50.6 9.4L-52.95 9.85L-54.85 10.1L-56.75 9.9L-58.7 9.4L-59.75 9.35L-60.75 9.15L-60.9 9.1L-63 7.95L-64.3 8.1M-22.1,-6L-21.55 -4.7L-19.9 -5.35L-19.35 -4L-20.25 -3.55L-20.85 -3.25L-20.75 -3.05L-20.85 -3.05L-23.15 -3.15L-23.2 -3.15Q-25 -3.45 -24.95 -4.6L-24.65 -7.35L-22.55 -7.55L-22.4 -7.1L-21.15 -7.6L-20.85 -7.6L-20.45 -6.65L-22.1 -6M-13.35,31.2L-16.45 31.1L-16.35 27.8Q-16.2 25.85 -16.2 21.1L-16.2 13.7L-16.2 13.6L-16.2 13.35L-15.25 13.55L-14.3 13.35Q-13.9 13.35 -13.65 13.6Q-13.1 13.95 -12.95 15.15L-12.85 18.7L-13 23.85L-13.15 28.4L-12.85 31.15L-13.35 31.2M-0.9,31.55L-0.9 31.4L-1.05 26.3L-1.1 19.5L-1.05 13.35L-1.05 13.15L-0.95 12.5L-0.9 12.5Q1.15 12.95 1.55 13.25Q2.35 14.05 2.55 15.45L2.6 18.25L2.6 22.9L2.55 26.35L2.85 31.55L-0.9 31.55" />
<path style="fill:#2B2B33;fill-opacity:1" d="M0.8,-19.8L8.2 -19.75L12.6 -19.65L15.8 -19.55L15.8 -18.85L15.7 -15.8Q8.8 -15.1 4.15 -15.95L4.2 -16.15Q2.5 -17.25 0.9 -17.55L0.8 -19.8" />
<path style="fill:#3D3D48;fill-opacity:1" d="M4,-15.35L4.15 -15.95Q8.8 -15.1 15.7 -15.8L15.6 -14L15.6 -13.95L15 -14L7.8 -13.8L3.45 -13.85L4 -15.35" />
<path style="fill:#C23030;fill-opacity:1" d="M-20.15,-1.45L-20.25 -1.8L-20.75 -3.05L-20.85 -3.25L-20.25 -3.55L-19.85 -3.05L-19.8 -2.95L-18.65 -1.4L-18.55 -1.3L-17.85 -0.9L-17.8 -0.9L-17.05 -1.15L-15.3 -2L-15.6 -0.4L-17.1 0.3L-19.15 1.15L-20.15 -1.45M-19.75,-10.5L-20.95 -11.6L-22.05 -11.7L-23.45 -10.95L-23.8 -10.8L-24.25 -11.95L-21.15 -13.35L-18.3 -11.1L-19.75 -10.5M4,-15.35L3.45 -14.85L2.4 -14.1L2.3 -14.05L-0.4 -14.15L-0.9 -14.4L-1 -14.4L-1.45 -14.65L-2.6 -17.4L0.9 -17.55Q2.5 -17.25 4.2 -16.15L4.15 -15.95L4 -15.35M1.2,-16.65L0.95 -16.75L-0.5 -16.8L-0.8 -16.5L-0.8 -16.15Q0.45 -15.05 1.3 -14.9L1.85 -15Q2.3 -15.2 2.05 -15.8L1.2 -16.65M-6.65,-4.8L-8.55 -3.85L-8.75 -4.35L-9.1 -5.15L-7.8 -5.5L-7.55 -5.8L-7.6 -6.45L-7.35 -7.7L-5.85 -8.3L-6.55 -5.05L-6.65 -4.8M-11.95,-16.85L-11.3 -17.15L-9.85 -16.15L-8.4 -15.1L-9.8 -14.55L-11.2 -15.55L-11.85 -15.7L-12.5 -15.75L-13.25 -15.45L-13.5 -16.25L-11.95 -16.85" />
<path style="fill:#F0A1A1;fill-opacity:1" d="M2.05,-15.8Q2.3 -15.2 1.85 -15L1.3 -14.9Q0.45 -15.05 -0.8 -16.15L-0.8 -16.5L-0.5 -16.8L0.95 -16.75L1.2 -16.65L2.05 -15.8" />
<path style="fill:#9C2525;fill-opacity:1" d="M-21.7,-9.7L-20.9 -7.7L-21.15 -7.6L-22.4 -7.1L-22.55 -7.55L-23.2 -9.2L-23.8 -10.8L-23.45 -10.95L-22.05 -11.7L-20.95 -11.6L-19.75 -10.5L-21.7 -9.7M-1.3,-14.2L-1.45 -14.65L-1 -14.4L-0.9 -14.4L-0.4 -14.15L2.3 -14.05L2.4 -14.1L3.45 -14.85L4 -15.35L3.45 -13.85Q2.6 -12.25 0.95 -11.2L0.1 -10.75L-1.3 -14.2M-15.95,-6.95L-19.9 -5.35L-21.55 -4.7L-22.1 -6L-20.45 -6.65L-16.5 -8.25L-16.4 -7.95L-15.95 -6.95M-15.25,-2.3L-15.3 -2L-17.05 -1.15L-17.8 -0.9L-17.85 -0.9L-18.55 -1.3L-18.65 -1.4L-19.8 -2.95L-19.85 -3.05L-20.25 -3.55L-19.35 -4L-19 -3.05L-18.95 -2.95L-14.8 -4.65L-15.25 -2.3M-13.25,-15.45L-12.5 -15.75L-11.85 -15.7L-11.2 -15.55L-9.8 -14.55L-12.55 -13.45L-13.25 -15.45M-9.1,-5.15L-9.85 -6.65L-7.35 -7.7L-7.6 -6.45L-7.55 -5.8L-7.8 -5.5L-9.1 -5.15" />
<path style="fill:#6A6A93;fill-opacity:1" d="M32.45,-11.95L32.2 -11.05L31.35 -11.75Q29.5 -13.95 29 -16.25Q28.85 -17 28.85 -17.8L28.9 -18.9L29.1 -18.9L29.3 -18.9L29.8 -19.1L29.95 -18.9L31.2 -17.65L33.3 -15.95L32.45 -11.95M48.7,-14.3L51.55 -14.8L53.95 -15.4Q54.55 -15.5 56.35 -16.5L56.35 -16.35L56.25 -15.45L55.85 -13.95L55.85 -13.85L55.6 -13.65L50.65 -12.4L49.15 -12.05L48.7 -14.3" />
<path style="fill:#CDAD2D;fill-opacity:1" d="M28.9,-18.9Q27.8 -19.1 26.75 -19.8L27.1 -21.55Q27.5 -22.65 28.35 -22.75L29.3 -22.85Q28.95 -21.2 28.9 -18.9M59.65,-17.25Q57.7 -17.25 56.55 -18.1L56.4 -18.3L56.4 -19.75L56.3 -22.75L56.25 -23.2L56.15 -23.4Q55.95 -24.9 56.5 -25.35L58.35 -25.85Q60.45 -25.9 60.9 -24.7L61.05 -20.95L60.85 -17.75L60.85 -17.35L59.65 -17.25M58.7,-24.45Q57.05 -24.2 57.05 -23L57.45 -22.25Q57.9 -21.55 58.25 -21.55L58.7 -21.8Q59.85 -21.8 60.2 -22.25L60.35 -23.45Q60.35 -24.7 58.7 -24.45" />
<path style="fill:#AD8F1B;fill-opacity:1" d="M28.9,-18.9L28.85 -17.8Q28.85 -17 29 -16.25Q28.1 -16.1 27.5 -16.75Q26.75 -17.45 26.75 -18.9L26.75 -19.75L26.75 -19.8Q27.8 -19.1 28.9 -18.9M56.25,-15.45L56.35 -16.35L56.35 -16.5L56.4 -18.3L56.55 -18.1Q57.7 -17.25 59.65 -17.25L60.85 -17.35L60.6 -15.1L60.6 -14.35Q60.5 -11.05 57.7 -11Q56.65 -10.95 56.25 -11.35Q55.85 -11.8 55.85 -13L55.85 -13.85Q56.15 -14.3 56.25 -15.45" />
<path style="fill:#E2CE7A;fill-opacity:1" d="M60.35,-23.45L60.2 -22.25Q59.85 -21.8 58.7 -21.8L58.25 -21.55Q57.9 -21.55 57.45 -22.25L57.05 -23Q57.05 -24.2 58.7 -24.45Q60.35 -24.7 60.35 -23.45" />
<path style="fill:#FF0000;fill-opacity:0" d="M26.15,3.2Q25.9 2.2 25.35 1.55L27.45 1.55L26.75 2.4L26.15 3.2M61.5,12.55Q64 10.45 64.75 6.8L65.05 3.45L65.05 3.3L67.85 3.3L68.35 3.3L68.6 2.1L68.6 1.55L69.9 1.55L69.9 14.4L58.8 14.4L61.5 12.55" />
<path style="fill:#BB662E;fill-opacity:1" d="M-34.7,11.2L-43.2 11.35L-44.55 11.25L-49 11.5L-52 11.55L-55.7 11.45L-59.9 11.45L-61.75 11.4L-61.8 11.4Q-63.55 11.25 -63.9 10.85Q-64.25 10.55 -64.3 8.1L-63 7.95L-60.9 9.1L-60.75 9.15L-59.75 9.35L-58.7 9.4L-56.75 9.9L-54.85 10.1L-52.95 9.85L-50.6 9.4L-48.65 9.3L-46.65 9.4L-42.6 9.55L-38.25 9.15L-36.05 9.55L-33.55 9.85L-30 9.55L-28.35 9.6L-26.5 9.8L-25.2 10L-23.05 10.25L-19.75 10.5L-18.9 10.75L-18.85 10.85Q-19.25 11.2 -19.75 11.15L-22.5 11.25L-28.3 11.25L-28.6 11.25L-32.4 11.2L-34.7 11.2M65.05,3.3L64.3 3.3L64 3.3L60.15 3.15Q58 3 52.35 3L52.2 3L50.5 3L46.35 3.15L44.75 3.2L44.2 3.2L43.25 3.25L41.35 3.25L38.25 3.3L34.35 3.75L33.95 3.85Q32.3 4.35 31.4 5.6L29.15 8.35L27.05 10.5L25.55 11.65L25.3 11.85L25.15 11.9Q23.55 13 21.55 13.05L17.8 13.2L16.85 13.25L14.4 13.3L12.4 13.2L11.7 12.95L11.6 12.95Q11.3 12.65 11.3 11.9L11.3 11.75L12.05 11.7L14.8 11.9L16.4 12.05L17.4 12.1Q22.25 12.1 25.15 9.5L27 7.15L27.05 7L28.8 3.45L28.9 3.3Q29.75 1.85 30.85 1.85L31.7 1.95L32 2.05L33.05 2.25L33.95 2.05L35.45 1.25Q37.1 0.25 38.65 0.25L41.75 0.45L45.1 0.35L56.4 1.25L64.9 2L67.75 2.1L67.85 3.3L65.05 3.3" />
<path style="fill:#6E6E8C;fill-opacity:1" d="M45.4,8.1L45.55 8L45.6 8Q46.1 7.85 46.3 8L46.2 7.9L46.55 7.95Q48.45 8.55 48.45 9.4Q48.45 11.2 47 13.05L45.55 14.4Q44.1 15.35 42.2 15.35L40.75 15.05L40.15 14.4L40.05 14.05Q40.05 12.4 42.5 10.2Q44.1 8.8 45.4 8.1" />
<path style="fill:#B86128;fill-opacity:1" d="M2.85,31.55L4.45 31.55L4.35 35.1L-0.85 35.2L-0.9 31.55L2.85 31.55M-12.85,31.15L-11.2 31.25L-11.25 35.75L-13.75 35.8L-15.7 35.75L-16.45 35.75Q-16.65 33.45 -16.45 31.35L-16.45 31.1L-13.35 31.2L-12.85 31.15" />
<path style="fill:#E8E8F3;fill-opacity:1" d="M9.2,40.35L19.35 40.25L33.7 40.1L33.7 42.55L33.3 44L-44.55 44.2L-44.85 44.2L-45.35 40.95L9.2 40.35" />
<path style="fill:#C65E5E;fill-opacity:1" d="M-44.55,44.2L33.3 44Q31.85 49.4 30.9 51.25Q29.7 53.7 24.55 54.2L14.6 55.05Q9.8 55.45 4.95 55L-1.85 54.45L-8.7 54.6Q-12.95 54.75 -15.65 54.45Q-20.05 54 -29.75 54.75Q-38.1 54.85 -41.85 51Q-43.7 49.1 -44.55 45.6L-44.55 44.2" />
<path style="fill:#FF9B58;fill-opacity:1" d="M-9.2,-50L-10.3 -50.15L-12.1 -49.8Q-12 -51.05 -11.45 -51.55Q-10.9 -52.05 -9.45 -52.05L-9.05 -51.95L-8.8 -52L-8.85 -50.85L-8.85 -49.95L-9.2 -50" />
<path style="fill:#7B7979;fill-opacity:1" d="M-53.8,-19.8L-69.85 -19.6L-69.8 -20.95L-53.8 -21.2L-53.8 -19.8M-49.15,-20.9L-49.2 -21.25L-33.25 -21.5L-33.1 -20.05L-48.95 -19.85L-49.15 -20.9" />
<path style="fill:#333333;fill-opacity:1" d="M-52.3,-1.85L-52.3 -1.8L-53.05 -2.15L-55.25 -2.3L-57 -2.65Q-57.85 -2.95 -58.55 -3.55Q-59.65 -4.4 -60.25 -7.4Q-60.7 -9.25 -61.9 -9.75L-61.55 -10.15Q-60.15 -11.3 -56.15 -11Q-54.5 -10.9 -53.9 -10.45Q-53.1 -9.75 -53 -7.75L-52.55 -5.05L-52.25 -2.8L-52.3 -1.85M-54.75,-7.6Q-54.7 -8.95 -55.8 -9.65Q-56.95 -10.45 -57 -8.9Q-56.8 -6.35 -55.55 -6.25Q-55 -6.2 -54.85 -6.8L-54.75 -7.6" />
<path style="fill:#E5E3E3;fill-opacity:1" d="M-28.75,-15.05L-28.6 -14.05L-28.8 -13.95L-28.8 -14.2L-29.05 -15.05L-28.75 -15.05M-32.05,-11L-31.45 -11.55L-31.45 -11.6Q-30.95 -12.3 -30.8 -12.75L-30.7 -12.9L-30.15 -12.8Q-29.6 -12.8 -29.2 -13.2L-29.1 -13.3L-28.85 -12.9Q-29.4 -12.15 -31.1 -11.4L-31.6 -11.2L-32.05 -11M-34.6,-9.95L-35.6 -9.45L-36.6 -8.3Q-37.65 -6.85 -37.75 -4.95L-37.75 -4.1L-37.7 -3.35L-37.8 -3.35L-38.75 -3.25Q-39.8 -2.95 -41.05 -1.75Q-42.8 -0.05 -44.35 -0.2Q-45.35 -0.3 -48 -1.7L-49.3 -2.4L-50.65 -3.15L-52.25 -2.8L-52.55 -5.05L-53 -7.75Q-53.1 -9.75 -53.9 -10.45Q-54.5 -10.9 -56.15 -11Q-60.15 -11.3 -61.55 -10.15L-63.2 -10.25Q-63.95 -10.35 -64 -10.95L-63.85 -10.95Q-63 -10.85 -61.85 -11.25L-59.65 -11.8L-55.35 -12.15L-48.65 -12.15L-46.65 -12.1L-46.1 -12.05L-42.05 -12.25L-38.15 -12.65L-37.85 -12.65Q-34.8 -13.05 -32.25 -14.3L-31.45 -14.6L-31.5 -14.2L-31.45 -13.9L-31.65 -13.85L-32.9 -13.2Q-35.1 -11.7 -34.55 -10.9L-33.8 -10.3L-34.6 -9.95M-42,-4.4L-41.55 -4.4Q-40.95 -4.4 -40.8 -5L-40.8 -6.15L-40.8 -7.7Q-41 -8.5 -41.7 -8.5L-43 -8.45L-43 -9.95Q-43.05 -11 -43.6 -11L-46.05 -10.95Q-46.85 -11.05 -47.05 -10.6L-47.1 -9.7L-47.1 -9.5L-47.05 -8.25L-49.3 -8.05L-49.3 -7L-49.15 -5.55Q-49.15 -4.8 -48.75 -4.6L-47.7 -4.4Q-47.1 -4.35 -47.25 -3.7L-47.25 -2.9Q-47.1 -2.45 -46.3 -2.35L-43.15 -2.35L-43.15 -4.55L-42.45 -4.55L-42 -4.4" />
<path style="fill:#FFFFFF;fill-opacity:1" d="M-50.5,-19.8Q-50.9 -20.5 -51.65 -20.95L-52.1 -21.2L-53.3 -22.05L-52.65 -22.25L-51.2 -22.2Q-49.5 -22.1 -49.2 -21.25L-49.15 -20.9L-48.95 -19.85L-48.85 -19.55Q-48.65 -18.75 -48.75 -18.25L-49.45 -18.35L-50.15 -18.4Q-50.15 -19.2 -50.5 -19.8M-30.95,-15.35L-31.15 -15.2L-31.45 -14.6L-32.25 -14.3Q-34.8 -13.05 -37.85 -12.65L-38.15 -12.65L-42.05 -12.25L-46.1 -12.05L-46.65 -12.1L-48.65 -12.15L-55.35 -12.15L-59.65 -11.8L-61.85 -11.25Q-63 -10.85 -63.85 -10.95L-64 -10.95L-64.1 -11.2L-63.85 -12.1Q-63.35 -13.1 -61.7 -13.45L-58.6 -13.45L-56.75 -13.45L-54.75 -13.65L-53.85 -13.5L-48.65 -13.7L-48.6 -13.7L-46.7 -13.8L-44.95 -14L-42.35 -14.25L-38.4 -14.85L-31.2 -15.95L-30.95 -15.35M-29.5,-15.45L-29.4 -15.85L-29.05 -15.65L-28.75 -15.05L-29.05 -15.05L-29.2 -15.2L-29.5 -15.4L-29.5 -15.45" />
<path style="fill:#9F7A9F;fill-opacity:1" d="M-64,-10.95L-64.15 -11L-64.1 -11.2L-64 -10.95" />
<path style="fill:#383737;fill-opacity:1" d="M-52.3,-1.8Q-52.35 -0.45 -52.95 -0.15L-55.25 0.2L-57.4 0.4L-59.75 0.55Q-61.5 0.4 -61.75 -0.9L-61.95 -2.05L-62 -2.65L-62.1 -4.1L-62.25 -6.75L-62.25 -7.8L-62.25 -8.75L-61.9 -9.75Q-60.7 -9.25 -60.25 -7.4Q-59.65 -4.4 -58.55 -3.55Q-57.85 -2.95 -57 -2.65L-55.25 -2.3L-53.05 -2.15L-52.3 -1.8" />
<path style="fill:#C9C5C5;fill-opacity:1" d="M-40.4,1.55L-63.3 2.4L-63.45 2L-63.5 1.55L-63.65 0.55L-63.7 0L-63.2 -1.2L-61.95 -2.05L-61.75 -0.9Q-61.5 0.4 -59.75 0.55L-57.4 0.4L-55.25 0.2L-52.95 -0.15Q-52.35 -0.45 -52.3 -1.8L-52.3 -1.85L-52.25 -2.8L-50.65 -3.15L-49.3 -2.4L-48 -1.7Q-45.35 -0.3 -44.35 -0.2Q-42.8 -0.05 -41.05 -1.75Q-39.8 -2.95 -38.75 -3.25L-37.8 -3.35L-37.7 -3.35L-37.5 -0.4L-37.9 1.25L-40.4 1.55" />
<path style="fill:#E26161;fill-opacity:1" d="M-58.5,-16.6Q-58.4 -17.9 -54.35 -18.25L-53.6 -18.35L-50.15 -18.4L-49.45 -18.35L-48.75 -18.25L-48.7 -18.25Q-46.8 -18.05 -46 -17.45Q-44.75 -16.5 -44.95 -14L-46.7 -13.8L-47.05 -14.9Q-47.65 -16.95 -48.95 -17.05L-50.25 -17.05Q-53.1 -16.95 -58.2 -15.6L-58.5 -16.6M-32.75,-10.45L-32.55 -10.6L-32.05 -11L-31.6 -11.2L-31.1 -11.3L-30.8 -9.55Q-30.55 -8.4 -30.6 -7.6L-31.35 -7.4L-32.75 -10.45M-38.9,2.7L-42.75 3.1L-45.95 3.5L-50.85 3.5L-55.75 3.7L-60.25 3.85L-62.45 3.75L-63.3 2.4L-40.4 1.55L-37.9 1.25L-38 1.55L-38.7 2.7L-38.9 2.7M-47.05,-10.6Q-46.85 -11.05 -46.05 -10.95L-43.6 -11Q-43.05 -11 -43 -9.95L-43 -8.45L-41.7 -8.5Q-41 -8.5 -40.8 -7.7L-40.8 -6.15L-40.8 -5Q-40.95 -4.4 -41.55 -4.4L-42 -4.4L-42.05 -5.35Q-42.05 -7.2 -43 -7.25L-44 -7.5Q-44.3 -7.75 -44.4 -8.45Q-44.5 -9.1 -45.05 -9.55Q-45.45 -9.95 -45.95 -9.95L-47.1 -9.7L-47.05 -10.6" />
<path style="fill:#C63333;fill-opacity:1" d="M-31.35,-7.4L-31.5 -7.35L-32.4 -7.1L-33.6 -8.5L-34.6 -9.95L-33.8 -10.3L-33.6 -10.25L-32.75 -10.45L-31.35 -7.4M-38.7,2.7L-39.7 3.7Q-41.45 4.95 -43.75 5.05L-48.6 5.35L-48.7 5.4L-52.95 5.55L-59.4 5.3Q-61.4 4.9 -62.45 3.75L-60.25 3.85L-55.75 3.7L-50.85 3.5L-45.95 3.5L-42.75 3.1L-38.9 2.7L-38.7 2.7M-58.2,-15.6Q-53.1 -16.95 -50.25 -17.05L-48.95 -17.05Q-47.65 -16.95 -47.05 -14.9L-46.7 -13.8L-48.6 -13.7L-48.65 -13.7L-53.85 -13.5L-54.75 -13.65L-56.75 -13.45L-58.6 -13.45L-58.5 -15.5L-58.2 -15.6M-42.45,-4.55L-43.15 -4.55L-43.15 -2.35L-46.3 -2.35Q-47.1 -2.45 -47.25 -2.9L-47.25 -3.7Q-47.1 -4.35 -47.7 -4.4L-48.75 -4.6Q-49.15 -4.8 -49.15 -5.55L-49.3 -7L-49.3 -8.05L-47.05 -8.25L-47.1 -9.5L-47.1 -9.7L-45.95 -9.95Q-45.45 -9.95 -45.05 -9.55Q-44.5 -9.1 -44.4 -8.45Q-44.3 -7.75 -44 -7.5L-43 -7.25Q-42.05 -7.2 -42.05 -5.35L-42 -4.4L-42.45 -4.55M-29.1,-13.3L-29.2 -13.2Q-29.6 -12.8 -30.15 -12.8L-30.7 -12.9L-31.15 -13.2L-31.45 -13.9L-31.5 -14.2L-31.45 -14.6L-31.15 -15.2L-30.95 -15.35L-30.15 -15.6L-29.5 -15.4L-29.2 -15.2L-29.05 -15.05L-28.8 -14.2L-28.8 -13.95L-29.1 -13.3M-30.35,-14.9L-30.4 -14.7Q-30.4 -14.1 -29.55 -14.1Q-29.05 -14.1 -29.05 -14.55Q-29.05 -14.9 -29.5 -15L-29.7 -15.05L-29.75 -15.05L-30.35 -14.9" />
<path style="fill:#BBB9B9;fill-opacity:1" d="M-53.6,-18.35L-53.8 -19.8L-53.8 -21.2L-53.8 -21.35Q-53.75 -21.85 -53.3 -22.05L-52.1 -21.2L-51.65 -20.95Q-50.9 -20.5 -50.5 -19.8Q-50.15 -19.2 -50.15 -18.4L-53.6 -18.35" />
<path style="fill:#705470;fill-opacity:1" d="M-58.2,-15.6L-58.5 -15.5L-58.5 -16.6L-58.2 -15.6" />
<path style="fill:#878686;fill-opacity:1" d="M-54.85,-6.8Q-55 -6.2 -55.55 -6.25Q-56.8 -6.35 -57 -8.9Q-56.95 -10.45 -55.8 -9.65Q-54.7 -8.95 -54.75 -7.6L-54.85 -6.8" />
<path style="fill:#BBB7B7;fill-opacity:1" d="M-31.2,-15.95L-31.5 -16.55L-31.55 -16.5L-31.75 -18L-31.4 -19.05L-30.4 -19.5Q-29.4 -19.5 -29.4 -16.9L-29.4 -15.85L-29.5 -15.45L-29.5 -15.4L-30.15 -15.6L-30.95 -15.35L-31.2 -15.95M-29.1,-13.3L-28.8 -13.95L-28.6 -14.05L-28.5 -14.15L-28.2 -14.15L-26.85 -14.05L-26.8 -14.05L-25.5 -13.45Q-24.95 -13.15 -24.75 -12.6Q-24.6 -12.05 -24.95 -11.5Q-25.45 -10.65 -27.65 -12L-28.85 -12.9L-29.1 -13.3M-30.2,-18.55Q-30.65 -18.8 -30.65 -18.15Q-30.7 -16.95 -30.15 -16.95Q-29.75 -16.95 -29.75 -17.75Q-29.75 -18.3 -30.2 -18.55M-30.8,-12.75Q-30.95 -12.3 -31.45 -11.6L-31.45 -11.55L-32.05 -11L-32.55 -10.6L-32.75 -10.45L-33.6 -10.25L-33.8 -10.3L-34.55 -10.9Q-35.1 -11.7 -32.9 -13.2L-31.65 -13.85L-31.45 -13.9L-31.15 -13.2L-30.7 -12.9L-30.8 -12.75M-27.25,-12.6Q-27.45 -12.3 -26.8 -11.95L-25.85 -11.85Q-25.35 -12.1 -25.95 -12.45Q-26.95 -13.1 -27.25 -12.6M-33.4,-12.4Q-33.85 -12.1 -33.9 -11.6Q-33.8 -11.05 -33.25 -11.45Q-32.35 -12.05 -32.6 -12.55Q-32.8 -12.85 -33.4 -12.4" />
<path style="fill:#FFF7F7;fill-opacity:1" d="M-29.75,-17.75Q-29.75 -16.95 -30.15 -16.95Q-30.7 -16.95 -30.65 -18.15Q-30.65 -18.8 -30.2 -18.55Q-29.75 -18.3 -29.75 -17.75M-25.95,-12.45Q-25.35 -12.1 -25.85 -11.85L-26.8 -11.95Q-27.45 -12.3 -27.25 -12.6Q-26.95 -13.1 -25.95 -12.45M-32.6,-12.55Q-32.35 -12.05 -33.25 -11.45Q-33.8 -11.05 -33.9 -11.6Q-33.85 -12.1 -33.4 -12.4Q-32.8 -12.85 -32.6 -12.55" />
<path style="fill:#EC8484;fill-opacity:1" d="M-29.75,-15.05L-29.7 -15.05L-29.5 -15Q-29.05 -14.9 -29.05 -14.55Q-29.05 -14.1 -29.55 -14.1Q-30.4 -14.1 -30.4 -14.7L-30.35 -14.9L-29.75 -15.05" />
<path style="fill:#BFBFC2;fill-opacity:1" d="M-14.25,-12.75L-12.55 -13.45L-9.8 -14.55L-8.4 -15.1L-4.45 -16.75L-2.75 -17.45L-2.65 -17.5L-2.6 -17.4L-1.45 -14.65L-1.3 -14.2L-3 -12.7L-4.25 -11.75L-5.2 -11.35Q-6.5 -10.8 -10.25 -9.7L-11.8 -9.2L-13 -8.85L-14.2 -8.65L-15.3 -8.5L-16.4 -7.95L-16.5 -8.25L-20.45 -6.65L-20.85 -7.6L-20.9 -7.7L-21.7 -9.7L-19.75 -10.5L-18.3 -11.1L-17.5 -11.4L-14.25 -12.75" />
<path style="fill:#A2A2A3;fill-opacity:1" d="M0.1,-10.75L-5.85 -8.3L-7.35 -7.7L-9.85 -6.65L-14.8 -4.65L-18.95 -2.95L-19 -3.05L-19.35 -4L-19.9 -5.35L-15.95 -6.95L-16.4 -7.95L-15.3 -8.5L-14.2 -8.65L-13 -8.85L-11.8 -9.2L-10.25 -9.7Q-6.5 -10.8 -5.2 -11.35L-4.25 -11.75L-3 -12.7L-1.3 -14.2L0.1 -10.75" />
<path style="fill:#393943;fill-opacity:1" d="M-13.5,-16.25L-13.25 -15.45L-12.55 -13.45L-14.25 -12.75L-15.1 -12.95L-15.1 -14.8L-15.1 -15.95L-15 -16.2L-14.95 -16.45L-14.9 -16.55L-14.7 -16.8Q-14.35 -17.25 -13.8 -17.25Q-12.6 -17.25 -11.95 -16.85L-13.5 -16.25" />
<path style="fill:none;stroke-width:1;stroke-linecap:butt;stroke-linejoin:miter;stroke-miterlimit:3;stroke:#585454;stroke-opacity:1" d="M-8.8,-52Q-8.45 -55.5 -5.75 -55.25L5.2 -54.65L13.8 -54.3L14.95 -54.3Q15.65 -53.9 16.1 -52.8L16.15 -52.75L16.55 -52.8M18.7,-51L19.85 -51Q21.2 -50.7 21.4 -50.35L21.5 -48.75L21.5 -46.3L21.35 -44.25Q21.3 -43.7 20.3 -43.3L18.55 -43.2L18.55 -43.25M16.45,-44.85L16.3 -43.75L15.75 -42.25Q15 -41.2 13.6 -40.95L8.25 -40.25L8.4 -39.6L9.05 -36.5L9.25 -36.75L12.35 -39.95M12.6,-39.8L13.25 -40.05Q15.05 -40.05 16.25 -35.8Q17.15 -32.55 17.15 -29.9L17.05 -28.15Q16.85 -27.2 16.3 -27L16 -26.7Q12.95 -26 10.55 -27.25L10.85 -25M15.8,-19.55L15.8 -18.85L15.7 -15.8L15.6 -14L15.6 -13.95L15.1 -8.9M16.8,-3.4L16.75 -3.25M16.2,-3.25L16.1 -1.5L16.05 -0.2L17.65 -0.15L23.15 0.4L24.15 0.65Q24.85 0.95 25.35 1.55M29.85,-1.45L30 -2.25Q31.05 -7.5 31.95 -10.25L32.2 -11.05L31.35 -11.75Q29.5 -13.95 29 -16.25M28.9,-18.9Q28.95 -21.2 29.3 -22.85L30 -25.05Q30.55 -26.2 31.4 -26.8L31.75 -27Q32.9 -27.7 34.75 -27.75L40.8 -26.75L46.6 -25.65L50.65 -25.05L53.85 -24.5Q55.6 -24.3 56.15 -23.4M56.25,-15.45L55.85 -13.95L55.85 -13.85L55.6 -13.65L50.65 -12.4L49.15 -12.05L49.15 -11.85L50.45 -4.3L50.7 -2.9M65.05,3.3L65.05 3.45L64.75 6.8Q64 10.45 61.5 12.55L58.8 14.4L57.4 15.2Q53.5 17.35 52.1 18.25Q42.1 24.55 37.1 32.65L37.2 32.7Q36.5 33.65 34.35 40.1L33.7 42.55L33.3 44Q31.85 49.4 30.9 51.25Q29.7 53.7 24.55 54.2L14.6 55.05Q9.8 55.45 4.95 55L-1.85 54.45L-8.7 54.6Q-12.95 54.75 -15.65 54.45Q-20.05 54 -29.75 54.75Q-38.1 54.85 -41.85 51Q-43.7 49.1 -44.55 45.6L-44.85 44.2L-45.35 40.95L-45.6 39.15Q-46.75 30.75 -50.65 28.65Q-56 25.75 -59.1 21.1L-60.1 19.45Q-61.35 17 -61.7 14.4L-61.8 11.4M-24.95,5.6L-25.1 3.6L-25.35 1.55L-25.4 1.45L-24.95 0.45Q-24.95 -1.45 -20.15 -1.45L-20.25 -1.8M-22.55,-1.8L-23.15 -3.15M-23.2,-9.2L-23.8 -10.8L-24.25 -11.95L-21.15 -13.35L-18.3 -11.1L-17.5 -11.4L-17.55 -14.6L-17.55 -14.8L-17.55 -15.75L-17.5 -16.65Q-17.5 -19.15 -17.3 -19.8M-15.25,-25.25L-15.2 -25.95L-15.3 -25.95L-18.8 -27L-19.45 -27.25L-19.8 -27.35Q-20.3 -27.5 -20.7 -27.8Q-21.55 -28.45 -21.55 -29.65Q-21.55 -32.3 -19.55 -35.05Q-18.1 -37.2 -16.1 -38.55L-15.85 -38.7L-15.3 -39.05L-13.9 -39.65L-11.7 -40.05Q-10.1 -40.05 -9.55 -39.6L-9.1 -39.05L-8.9 -38.4L-8.6 -37.75L-8.3 -37L-8.25 -37.25Q-7.75 -38.25 -7.4 -39.65Q-8.15 -40.55 -8.5 -42.25M-8.8,-52L-8.85 -50.85L-8.85 -49.95L-8.8 -46.85L-8.65 -43.15L-8.5 -42.25M-7.4,-39.65L-7.1 -41.2L-7.05 -41.45L-6.55 -44.85L-6.4 -45.35L-5.85 -46.7L-5.45 -47.3Q-4.35 -48.55 -2.3 -48.7L-1.9 -48.7L-0.75 -48.65Q4.05 -48.6 5.2 -47.7Q5.85 -47.2 6.55 -45.7M16.45,-44.85L16.5 -48.9L16.55 -50.4L16.55 -51.15L16.2 -52.65L16.15 -52.75M32.2,-11.05L32.45 -11.95L33.3 -15.95L33.75 -18.9Q34.2 -20.3 35.1 -21.15L36.2 -21.95Q37.7 -22.8 40.05 -22.8L41.3 -22.75Q45.85 -22.65 46.9 -21.2L47.4 -19.95L48.7 -14.3L49.15 -12.05M56.3,-22.75L56.15 -23.4M12.6,-39.8L12.25 -39.3L12.05 -38.75L12.05 -38.7L11.95 -37.7L11.95 -37.2L12.05 -35.5L14 -34.75Q15.2 -34.15 15.2 -33.4Q15.2 -32.6 14.5 -31.8L13.55 -31.05L12.9 -30.65L12.95 -30.55Q14.1 -26.95 15.95 -26.95L16.3 -27M7.15,-25.05Q7.3 -26.55 7.75 -28.25L7.8 -28.5L8.1 -29.75Q7.5 -31.05 7.5 -32.65Q7.5 -33.8 8.05 -34.95L9.05 -36.5M2.7,-39.45L2.75 -39.5L3.1 -39.9L3.8 -41.1L3.9 -41.9L3.85 -42.45L3.5 -43.15L2.85 -43.65L2.65 -43.75L0.7 -44.15L-0.6 -43.85L-1.4 -43.25L-1.55 -42.95L-1.8 -42.4L-1.9 -41.8Q-1.9 -40.55 -0.9 -39.6L-0.15 -39.1L0.95 -38.85Q1.95 -38.85 2.7 -39.45M8.25,-40.25Q7.4 -43.8 6.55 -45.7M12.7,-31.4Q12.2 -33.4 12.05 -35.5M10.05,-25L10.5 -27.3L10.55 -27.4L10.6 -27.9L11.05 -30.6L10.95 -31.9Q10.75 -32.65 10.05 -32.65L9.8 -32.6L9.7 -32.55L9.4 -32.4L9.3 -32.3L8.85 -31.8L8.1 -29.75M10.5,-27.3L10.55 -27.25M12.7,-31.4L12.9 -30.65M15,-14L7.8 -13.8L3.45 -13.85Q2.6 -12.25 0.95 -11.2L2.05 -9.3M4,-15.35L4.15 -15.95L4.2 -16.15Q2.5 -17.25 0.9 -17.55L-2.6 -17.4L-1.45 -14.65M4,-15.35L3.45 -13.85M0.9,-17.55L0.8 -19.8M0.95,-11.2L0.1 -10.75L-5.85 -8.3L-6.55 -5.05M-14.8,-4.65L-15.25 -2.3L-15.3 -2L-15.6 -0.4L-17.1 0.3L-16.2 1.55L-15.2 2.25L-13 1.45L-12.45 1.25L-7.85 -0.6L-5.75 -1.5Q-3.7 -2.35 -2.15 -3.05L-1.85 -3.15L-1.6 -3.25L-1.55 -3.3L-1.45 -3.3L2.6 -5.2L3.6 -6L3 -7.5L2.15 -9.15L2.05 -9.3M15.8,-0.25L16.05 -0.2L16.05 -0.15L15.8 -0.25L11.3 -0.2L5.2 -0.45L-0.2 -0.8L-3.6 -0.6L-3.7 -0.35L-4 1.25L-4 1.35Q-3.95 2.4 -3.35 3.3L-2.55 4.2L-0.2 6.1L0.4 6.15Q2.55 6.3 3.85 6.95Q4.8 7.45 5.3 8.25L5.3 9.35L5.3 9.4L6.65 9.5L7.25 9.55L11.45 9.6M26.15,3.2Q25.9 2.2 25.35 1.55M16.1,-3.4L15.85 -1.8M28.9,-18.9L28.85 -17.8Q28.85 -17 29 -16.25M43,-12.6L43.1 -12.75L43.7 -13.75L43.9 -15.65Q43.9 -16.95 43.1 -17.7Q42.3 -18.55 41.05 -18.55Q39.85 -18.55 39 -17.9L38.85 -17.7L38.75 -17.7L38.05 -17.1L37.5 -16.45Q37.25 -16 37.25 -14.5L37.25 -14.35Q37.3 -13 38.05 -12.45Q38.75 -11.85 40.3 -11.85Q42.15 -11.85 43 -12.6M4.7,13.1L5.8 13.15L8.95 13.05L11.6 12.95L11.7 12.95L12.4 13.2Q14.3 14.1 14.5 16.2L14.55 22.45L14.55 24.35L14.55 27.8Q14.95 30.6 12.25 31.5L9.1 31.4L9 31.4L6.05 31.35L4.9 31.45M42.5,10.2Q40.05 12.4 40.05 14.05L40.15 14.4L40.75 15.05L42.2 15.35Q44.1 15.35 45.55 14.4L47 13.05Q48.45 11.2 48.45 9.4Q48.45 8.55 46.55 7.95L46.2 7.9L46.3 8Q46.1 7.85 45.6 8L45.55 8L45.4 8.1Q44.1 8.8 42.5 10.2M-17.75,9.1L-17.8 9.75L-3.55 9.75L5.3 9.7L5.3 9.4M-17.75,9.1L-17.7 8.9L-18.3 8.85M-16.45,31.35L-17.2 31.35Q-21.2 31.35 -21.6 27.85L-21.6 28Q-24.1 28.85 -24.7 26.45L-24.75 26.05L-24.85 23.85L-24.9 22.2L-24.85 18.85Q-24.75 16.7 -24 16.05L-21.4 16.1Q-21.05 14 -19.8 13.8L-18.5 13.8L-16.35 13.7L-16.25 13.7L-16.2 13.7M-10.85,13.45L-10.65 13.4Q-7.75 13.2 -3.6 13.35M4.7,13.1L4.45 13.1M9,22L8.95 13.05M4.6,31.45L4.45 31.45M-0.9,31.4L-10.65 31.3L-11 31.25L-11.2 31.25M9,22L9 31.4M-0.6,-43.85L-0.9 -43.65L-1.4 -43.25M-8.85,-37.6Q-8.85 -36.65 -9.35 -35.55L-10.25 -33.95L-10.25 -33.9L-11.2 -32.6L-12.3 -31.3M-15.2,-25.95L-13.55 -25.8L-13.05 -25.8L-10.75 -26.2Q-9.85 -26.55 -9.15 -27.15L-10.25 -28.55L-10.3 -28.6L-10.55 -29.05L-10.7 -29.5L-10.05 -30.55L-9.85 -30.7L-9.8 -30.75L-8.85 -31.1Q-8.25 -31.1 -7.45 -30.1Q-7.1 -31.4 -7.1 -33.1L-7.9 -35.95L-8.3 -37M-8.85,-37.6L-8.9 -38.4M-15.55,-33.3L-15.3 -34.2Q-14.95 -34.75 -14.45 -34.75L-13.7 -34.65M-15.55,-33.3L-15.55 -33.15L-15.4 -32.3L-15.05 -31.4L-14.25 -29.45L-12.4 -31.25L-12.3 -31.3M-10.7,-34.2L-13.7 -34.65M-18.75,-27.25L-19.8 -27.35M-18.75,-27.25Q-17.55 -27.25 -16.1 -28.1Q-15.2 -28.6 -14.25 -29.45M-10.75,-26.2L-10.9 -25.15M-13.05,-25.8L-13 -25.2M-7.45,-30.1L-7.2 -29.8L-6.15 -28.4Q-5.55 -27.9 -5.35 -26.45L-5.3 -25.1M-7.9,-25.15Q-8.1 -25.9 -9 -26.95L-9.15 -27.15M-20.85,-7.6L-20.9 -7.7L-21.15 -7.6M-20.85,-7.6L-20.45 -6.65L-16.5 -8.25L-16.4 -7.95M-1.3,-14.2L-1.45 -14.65M-23.2,-9.2L-22.55 -7.55L-22.4 -7.1L-21.15 -7.6M-20.9,-7.7L-21.7 -9.7L-19.75 -10.5L-18.3 -11.1M-20.75,-3.05L-20.85 -3.25L-20.25 -3.55L-19.35 -4L-19.9 -5.35L-21.55 -4.7L-22.1 -6L-20.45 -6.65M-14.95,-16.45L-14.9 -16.55L-14.7 -16.8Q-14.35 -17.25 -13.8 -17.25Q-12.6 -17.25 -11.95 -16.85L-11.3 -17.15L-9.85 -16.15L-8.4 -15.1L-4.45 -16.75L-2.75 -17.45L-2.65 -17.5L-2.6 -17.4L-2.75 -17.45M-9.8,-14.55L-8.4 -15.1M-9.8,-14.55L-12.55 -13.45L-14.25 -12.75L-17.5 -11.4M-14.95,-16.45L-15 -16.2L-15.1 -15.95L-15.1 -14.8L-15.1 -12.95L-14.25 -12.75M-15.1,-14.8L-15.15 -15.75L-15.1 -15.95M-12.55,-13.45L-13.25 -15.45L-13.5 -16.25L-11.95 -16.85M-19.9,-5.35L-15.95 -6.95L-16.4 -7.95M-8.75,-4.35L-9.1 -5.15L-9.85 -6.65L-14.8 -4.65L-18.95 -2.95L-19 -3.05L-19.35 -4M-5.85,-8.3L-7.35 -7.7L-9.85 -6.65M-8.75,-4.35L-8.55 -3.85L-6.65 -4.8L-6.55 -5.05M-1.6,-3.25L-1.8 -3.15L-2.15 -2.85L-3.3 -1.35L-3.6 -0.6M-20.75,-3.05L-20.25 -1.8M-12.45,1.45L-12.45 6.4L-12.45 6.9L-8.8 6.55L-8.45 6.5L-7.5 6.4L-4.5 6.2L-4.3 6.2L-0.2 6.1M-12.45,1.45L-12.45 1.25M-17.1,0.3L-19.15 1.15L-20.15 -1.45M-12.45,6.9L-16.3 7.1Q-17.4 7.45 -17.7 8.9M-2.95,13.35L-3.6 13.35M-2.95,13.35L-1.05 13.35M-21.55,16.9L-21.6 17.3L-21.6 16.9L-21.55 16.9L-21.4 16.1M-21.6,17.3L-21.6 18L-21.65 18.5L-21.85 20.15L-21.8 21.5L-21.7 23.45L-21.6 25.9L-21.6 26.8L-21.6 27.85M-61.75,11.4L-61.75 11.85L-60.4 11.85M-1.3,-14.2L0.1 -10.75" />
<path style="fill:none;stroke-width:1;stroke-linecap:butt;stroke-linejoin:miter;stroke-miterlimit:3;stroke:#C65307;stroke-opacity:1" d="M16.55,-52.8Q18.25 -52.8 18.6 -51.45L18.7 -51M18.8,-46.1L18.7 -44.05L18.55 -43.25Q18.1 -41.85 16.95 -41.85Q16 -41.85 15.75 -42.25M-8.5,-42.25L-10 -42.15Q-11.15 -42.15 -11.45 -42.9L-11.7 -45L-12.1 -49.45L-12.1 -49.8Q-12 -51.05 -11.45 -51.55Q-10.9 -52.05 -9.45 -52.05L-9.05 -51.95M18.8,-46.1L18.8 -47.85L18.8 -49.1L18.7 -51" />
<path style="fill:none;stroke-width:1;stroke-linecap:butt;stroke-linejoin:miter;stroke-miterlimit:3;stroke:#91491A;stroke-opacity:1" d="M10.85,-25L12.15 -25L14.25 -24.95L17.35 -24.95Q19.2 -25 19.7 -24.45Q20.05 -24.1 20.05 -22.75L20 -21.55L19.75 -20.65L19.55 -20.3L19.3 -19.8Q19.1 -19.55 18.6 -19.55L16.85 -19.55L15.8 -19.55M2.05,-9.3L5.15 -9.3L14.05 -9L15.1 -8.9Q17.15 -8.7 17.6 -8.35Q18.15 -8 18.15 -6.2L18.05 -4.6L17.9 -4.15Q17.55 -3.55 16.8 -3.4M27.45,1.55L28.2 0.55L29.45 -1L29.85 -1.45M50.7,-2.9L52.15 -2.9L63.2 -2.9L68 -2.7L68.65 -0.25L68.6 1.45L68.6 1.55M-61.8,11.4Q-63.55 11.25 -63.9 10.85Q-64.25 10.55 -64.3 8.1L-64.3 7.75L-64.2 6.65L-63.9 5.55L-24.95 5.6M-23.15,-3.15L-23.2 -3.15Q-25 -3.45 -24.95 -4.6L-24.65 -7.35L-24.65 -7.55L-24.6 -8.2L-24.55 -8.2L-24.55 -8.65L-24.1 -9.15L-23.2 -9.2M0.8,-19.8L-10.25 -19.9L-10.85 -19.9L-16.05 -19.75L-17.3 -19.8L-18.7 -19.9Q-19.8 -19.9 -20.4 -20.35Q-20.9 -20.9 -20.9 -21.6L-20.55 -23.55L-20.5 -23.75L-20.4 -24.65L-20.4 -25.05L-19.55 -25.15L-16.4 -25.25L-15.25 -25.25M9.2,-25L10.05 -25M9.2,-25L7.15 -25.05L-5.3 -25.1L-5.5 -25.1L-7.9 -25.15L-10.9 -25.15L-13 -25.2L-13.3 -25.2L-15.25 -25.25M10.85,-25L10.05 -25M0.8,-19.8L8.2 -19.75L12.6 -19.65L15.8 -19.55M-1.8,-3.15L-1.4 -3.15L5.35 -3.2L9.8 -3.15L16.1 -3.4L16.3 -3.4L16.5 -3.4L16.8 -3.4M21.7,7.1L22.1 6.95Q23.1 6.5 24 5.65L25.2 4.35L26.15 3.2M12.4,13.2L14.4 13.3L16.85 13.25L17.8 13.2L21.55 13.05Q23.55 13 25.15 11.9L25.3 11.85L25.55 11.65L27.05 10.5L29.15 8.35L31.4 5.6Q32.3 4.35 33.95 3.85L34.35 3.75L38.25 3.3L41.35 3.25L43.25 3.25L44.2 3.2L44.75 3.2L46.35 3.15L50.5 3L52.2 3L52.35 3Q58 3 60.15 3.15L64 3.3L64.3 3.3L65.05 3.3L67.85 3.3L68.35 3.3L68.6 2.1L68.6 1.55M50.7,-2.9L50.5 -2.9L49.75 -2.9L45.85 -2.95L41.25 -3.05L35.55 -2.9L33.7 -2.85L31.95 -2.8Q30.9 -2.6 29.85 -1.45M21.7,7.1L19.75 7.35L15 7.25L14.2 7.25Q12.4 7.25 11.75 7.85L11.45 8.45L11.45 9.15L11.45 9.6L11.3 11.75L11.3 11.9Q11.3 12.65 11.6 12.95M27.45,1.55L26.75 2.4L26.15 3.2M-18.3,8.85L-18.4 10.2L-18.75 10.8L-18.85 10.85Q-19.25 11.2 -19.75 11.15L-22.5 11.25L-28.3 11.25L-28.6 11.25L-32.4 11.2M-16.45,31.1L-13.35 31.2L-12.85 31.15L-11.2 31.25L-11.25 35.75L-13.75 35.8L-15.7 35.75L-16.45 35.75Q-16.65 33.45 -16.45 31.35L-16.45 31.1L-16.35 27.8Q-16.2 25.85 -16.2 21.1L-16.2 13.7L-16.2 13.6L-16.2 13.35L-16.25 12.45L-16.25 12.15L-13.45 12.05L-10.95 11.95L-10.85 13.45M4.45,13.1L4.45 13.15L4.45 13.25L4.5 22.2M4.45,13.1L4.45 12.95L4.4 11.6L-0.9 11.4L-0.95 12.5L-1.05 13.15L-1.05 13.35L-1.1 19.5L-1.05 26.3L-0.9 31.4M-0.9,31.55L2.85 31.55L4.45 31.55L4.45 31.45Q4.25 27.95 4.45 23.55L4.5 22.4L4.5 22.2M4.45,31.55L4.35 35.1L-0.85 35.2L-0.9 31.55L-0.9 31.4M-24.55,-8.2L-24.65 -7.55M-23.15,-3.15L-20.85 -3.05L-20.75 -3.05M-18.3,8.85L-18.3 8.05L-18.3 6.45L-18.6 5.95L-19 5.6L-24.95 5.6M-11.2,31.25L-11.05 25.5L-10.95 22.2L-10.95 20M-10.95,19.3L-10.95 18.8L-10.95 18.6L-10.85 13.45M-61.8,11.4L-61.75 11.4L-59.9 11.45L-55.7 11.45L-52 11.55L-49 11.5L-44.55 11.25L-43.2 11.35L-34.7 11.2L-32.4 11.2" />
<path style="fill:none;stroke-width:1;stroke-linecap:butt;stroke-linejoin:miter;stroke-miterlimit:3;stroke:#776313;stroke-opacity:1" d="M29,-16.25Q28.1 -16.1 27.5 -16.75Q26.75 -17.45 26.75 -18.9L26.75 -19.75L26.75 -19.8L27.1 -21.55Q27.5 -22.65 28.35 -22.75L29.3 -22.85" />
<path style="fill:none;stroke-width:1;stroke-linecap:butt;stroke-linejoin:miter;stroke-miterlimit:3;stroke:#56470D;stroke-opacity:1" d="M56.15,-23.4Q55.95 -24.9 56.5 -25.35L58.35 -25.85Q60.45 -25.9 60.9 -24.7L61.05 -20.95L60.85 -17.75L60.85 -17.35L60.6 -15.1L60.6 -14.35Q60.5 -11.05 57.7 -11Q56.65 -10.95 56.25 -11.35Q55.85 -11.8 55.85 -13L55.85 -13.85Q56.15 -14.3 56.25 -15.45L56.35 -16.35L56.35 -16.5L56.4 -18.3L56.4 -19.75L56.3 -22.75M56.15,-23.4L56.25 -23.2L56.3 -22.75" />
<path style="fill:none;stroke-width:1;stroke-linecap:butt;stroke-linejoin:miter;stroke-miterlimit:3;stroke:#8D8DB1;stroke-opacity:1" d="M26.55,14.65L25.55 11.65M26.55,14.65Q27.6 17.35 29.4 19.6Q33.35 24.55 40.75 27.1M-32.4,11.2L-32.5 15.8L-32.75 26.3M-3.6,13.35L-3.55 9.75M9.1,31.4L9.2 40.35M19.35,40.25L29.4 19.6M-24.75,26.05L-32.75 26.3L-37 26.45L-37.75 40.35M-3.65,15.6L-3.65 16" />
<path style="fill:none;stroke-width:1;stroke-linecap:butt;stroke-linejoin:miter;stroke-miterlimit:3;stroke:#545353;stroke-opacity:1" d="M-53.8,-19.8L-69.85 -19.6L-69.8 -20.95L-53.8 -21.2M-49.2,-21.25L-33.25 -21.5L-33.1 -20.05L-48.95 -19.85M-30.95,-15.35L-31.2 -15.95L-31.5 -16.55L-31.55 -16.5L-31.75 -18L-31.4 -19.05L-30.4 -19.5Q-29.4 -19.5 -29.4 -16.9L-29.4 -15.85L-29.5 -15.45L-29.5 -15.4M-29.05,-15.05L-28.8 -14.2L-28.8 -13.95L-28.6 -14.05L-28.5 -14.15L-28.2 -14.15L-26.85 -14.05L-26.8 -14.05L-25.5 -13.45Q-24.95 -13.15 -24.75 -12.6Q-24.6 -12.05 -24.95 -11.5Q-25.45 -10.65 -27.65 -12L-28.85 -12.9L-29.1 -13.3M-29.05,-15.05L-29.2 -15.2L-29.5 -15.4L-30.15 -15.6L-30.95 -15.35L-31.15 -15.2L-31.45 -14.6L-31.5 -14.2L-31.45 -13.9L-31.15 -13.2L-30.7 -12.9L-30.15 -12.8Q-29.6 -12.8 -29.2 -13.2L-29.1 -13.3L-28.8 -13.95M-31.45,-13.9L-31.65 -13.85L-32.9 -13.2Q-35.1 -11.7 -34.55 -10.9L-33.8 -10.3L-33.6 -10.25L-32.75 -10.45L-32.55 -10.6L-32.05 -11L-31.45 -11.55L-31.45 -11.6Q-30.95 -12.3 -30.8 -12.75L-30.7 -12.9" />
<path style="fill:none;stroke-width:1;stroke-linecap:butt;stroke-linejoin:miter;stroke-miterlimit:3;stroke:#4D4B4B;stroke-opacity:1" d="M-64.15,-11L-64.1 -11.2L-63.85 -12.1Q-63.35 -13.1 -61.7 -13.45L-58.6 -13.45L-58.5 -15.5L-58.5 -16.6Q-58.4 -17.9 -54.35 -18.25L-53.6 -18.35L-53.8 -19.8L-53.8 -21.2L-53.8 -21.35Q-53.75 -21.85 -53.3 -22.05L-52.65 -22.25L-51.2 -22.2Q-49.5 -22.1 -49.2 -21.25L-49.15 -20.9L-48.95 -19.85L-48.85 -19.55Q-48.65 -18.75 -48.75 -18.25L-48.7 -18.25Q-46.8 -18.05 -46 -17.45Q-44.75 -16.5 -44.95 -14L-42.35 -14.25L-38.4 -14.85L-31.2 -15.95M-29.4,-15.85L-29.05 -15.65L-28.75 -15.05L-28.6 -14.05M-28.85,-12.9Q-29.4 -12.15 -31.1 -11.4L-31.6 -11.2M-31.1,-11.3L-30.8 -9.55Q-30.55 -8.4 -30.6 -7.6L-31.35 -7.4L-31.5 -7.35L-32.4 -7.1L-33.6 -8.5L-34.6 -9.95L-35.6 -9.45L-36.6 -8.3Q-37.65 -6.85 -37.75 -4.95L-37.75 -4.1L-37.7 -3.35L-37.5 -0.4L-37.9 1.25L-38 1.55L-38.7 2.7L-39.7 3.7Q-41.45 4.95 -43.75 5.05L-48.6 5.35L-48.7 5.4L-52.95 5.55L-59.4 5.3Q-61.4 4.9 -62.45 3.75L-63.3 2.4L-63.45 2L-63.5 1.55L-63.65 0.55L-63.7 0L-63.2 -1.2L-61.95 -2.05L-62 -2.65L-62.1 -4.1L-62.25 -6.75L-62.25 -7.8L-62.3 -8.05L-62.3 -8.65L-62.25 -8.75L-61.9 -9.75L-61.55 -10.15L-63.2 -10.25Q-63.95 -10.35 -64 -10.95M-37.85,-12.65L-38.4 -14.85M-64.1,-11.2L-64 -10.95M-62.25,-8.75L-62.25 -7.8M-52.3,-1.8Q-52.35 -0.45 -52.95 -0.15L-55.25 0.2L-57.4 0.4L-59.75 0.55Q-61.5 0.4 -61.75 -0.9L-61.95 -2.05M-50.15,-18.4L-49.45 -18.35L-48.75 -18.25M-46.7,-13.8L-44.95 -14M-46.7,-13.8L-48.6 -13.7L-48.65 -13.7L-53.85 -13.5L-54.75 -13.65L-56.75 -13.45L-58.6 -13.45M-50.15,-18.4L-53.6 -18.35M-52.3,-1.8L-52.3 -1.85L-52.25 -2.8L-52.55 -5.05L-53 -7.75Q-53.1 -9.75 -53.9 -10.45Q-54.5 -10.9 -56.15 -11Q-60.15 -11.3 -61.55 -10.15M-37.85,-12.65L-36.6 -8.3M-32.05,-11L-31.6 -11.2M-34.6,-9.95L-33.8 -10.3M-63.3,2.4L-40.4 1.55L-37.9 1.25" />
<path style="fill:none;stroke-width:1;stroke-linecap:butt;stroke-linejoin:miter;stroke-miterlimit:3;stroke:#434141;stroke-opacity:1" d="M-42,-4.4L-41.55 -4.4Q-40.95 -4.4 -40.8 -5L-40.8 -6.15L-40.8 -7.7Q-41 -8.5 -41.7 -8.5L-43 -8.45L-43 -9.95Q-43.05 -11 -43.6 -11L-46.05 -10.95Q-46.85 -11.05 -47.05 -10.6L-47.1 -9.7L-47.1 -9.5L-47.05 -8.25L-49.3 -8.05L-49.3 -7L-49.15 -5.55Q-49.15 -4.8 -48.75 -4.6L-47.7 -4.4Q-47.1 -4.35 -47.25 -3.7L-47.25 -2.9Q-47.1 -2.45 -46.3 -2.35L-43.15 -2.35L-43.15 -4.55L-42.45 -4.55L-42 -4.4z" />
</g>
</svg>
