<?xml version="1.0" encoding="utf-8"?>
<svg version="1.1" id="Layer_1"
xmlns="http://www.w3.org/2000/svg"
xmlns:xlink="http://www.w3.org/1999/xlink"
xmlns:author="http://www.sothink.com"
width="115px" height="158px"
xml:space="preserve">
<g id="138" transform="matrix(1, 0, 0, 1, 57.2, 78.8)">
<path style="fill:#525354;fill-opacity:1" d="M11.65,-0.3Q11.45 -3 9.1 -4.3Q7.6 -5.2 5.85 -5.2L-3.15 -4.7L-5.45 -5L-6.1 -5.4Q-5.45 -8.5 -2.9 -9.25L-2.2 -9.35L1.4 -9.45L3.7 -9.5L4.45 -9.5L11.8 -9.5Q15.8 -8.8 16.1 -4.75Q16.45 1.15 13.6 2.15L11.4 2.35L11.65 -0.3M-31.3,-24.65L-31.8 -24.7L-35.1 -25.05Q-35.1 -30.8 -33 -30.8Q-31.4 -30.8 -31.1 -30L-30.95 -28.2Q-30.85 -26.5 -31.3 -24.65M-21.5,-9.05L-21.55 -9.5L-15.2 -9.5Q-13.35 -9.25 -13.1 -8.65Q-12.85 -8.05 -12.75 -6.6Q-12.45 -5.3 -12.6 -4.4Q-12.7 -2.8 -13.95 -2.8L-14.85 -2.8L-15.1 -3.6Q-15.15 -4.6 -16.2 -5.65Q-17.15 -6.65 -17.65 -6.65L-20.9 -6.8L-20.95 -7.4L-21.5 -9.05" />
<path style="fill:#8B8B8C;fill-opacity:1" d="M-15.75,64.95L-29.7 65L-29.55 56Q-29.3 43.4 -29.6 38.85L-29.6 38.45L-30.15 32.25Q-29.1 33.3 -28.35 33.3Q-28 33.3 -26.95 32.7L-25.65 32.1L-25.2 32.2L-24.1 32.75L-22.35 33.6L-20.7 33.6Q-18.7 28.55 -18.9 28.05L-18 28.05L-17 28.2L-15.95 28.4L-15.05 28.4L-14.9 22.95Q-14.9 20.4 -15.4 20.15L-18.75 19.5Q-18.75 18.35 -18.9 18L-18.9 16.25L-14.9 16.25L-13.05 9.05L-13.05 8.4L-15.75 7.5L-15.75 6.65L-15.75 5.85Q-15.4 2.55 -15.55 2Q-15.9 0.95 -18.15 0.9Q-20 0.9 -20.9 -0.3L-21.95 -2.6L-23.35 -2.25L-24.65 -1.95L-24.75 -2L-26.75 -3.65L-28.65 -5.4L-30.35 -4.15Q-31.9 -3.05 -32.45 -2.9L-32.6 -2.9L-34.1 -4.35L-35.7 -6Q-39.1 -2.6 -39.6 -2.6Q-40.1 -2.6 -41.25 -3.75L-43.5 -0.9L-47.15 -4Q-49.95 -6.8 -51.3 -10L-50.6 -10.35L-44.95 -11L-39.65 -11.7L-36.5 -11.3L-32.6 -10.95L-26.05 -11.15L-22.1 -11.5L-16.5 -12.1L-16.45 -11.95L-16.05 -12.1L-16.1 -12.15L-12.3 -11.95L-7.15 -11.5L-2.55 -10.9L1.35 -10.7L3.45 -10.85L4.05 -11L4.15 -11.1L7.45 -11.5L11.9 -11.6L17.4 -10.95Q20.5 -10.4 21.9 -9.55Q22.8 -9 24.55 -9L26.75 -9.05Q25.2 -6.9 25.2 -6.45L26.6 -4.55Q28.1 -2.6 28.95 -2.1Q27.85 -0.7 25.45 -0.25L24.85 -0.2Q22.65 0 22.65 1.95Q22.65 3.1 23.1 4.65L23.55 6.3Q23.55 7.05 20.8 7.95Q18 8.8 18 9.3Q18 11.85 19.75 11.85Q21.45 11.85 21.45 13.25Q21.45 14.7 19.6 16.5L18.25 17.65L17.15 18.3L18.65 19.45L19.7 20.45Q19.7 21 18.9 22.45Q18.9 23 22.55 23.95L23.55 24.2L25.9 24.7Q24.7 31.15 24.5 37.4L24.4 47.05L24 57.1L23.7 60.75L23.2 64.7L-15.75 64.95M1.4,-9.45L-2.2 -9.35L-2.9 -9.25Q-5.45 -8.5 -6.1 -5.4L-6.15 -5L-6.3 -4.15L-6.3 -2.45L-6.3 -0.5Q-6.1 2 -2.15 2.45L4.1 2.45L11.4 2.35L13.6 2.15Q16.45 1.15 16.1 -4.75Q15.8 -8.8 11.8 -9.5L4.45 -9.5L3.7 -9.5L1.4 -9.45M36.25,-11.2L41.25 -13L38.7 -8.65Q38 -9.05 36.85 -10.5L36.25 -11.2M-30.95,-28.2L-31.1 -30Q-31.4 -30.8 -33 -30.8Q-35.1 -30.8 -35.1 -25.05L-35.4 -25.05L-50.6 -26.7Q-50.6 -30.4 -49.8 -32.4L-48.8 -32.25L-46.4 -32.6L-43.65 -32.9L-32.9 -32.2L-30.5 -32Q-26.35 -31.65 -23.75 -30.3L-23.7 -30.3L-21.9 -27.4Q-20.75 -25.5 -18.5 -25.2L-18.4 -23.45L-31.3 -24.65Q-30.85 -26.5 -30.95 -28.2M-35.25,-42.75L-39.05 -42.55L-44.85 -42.4L-45.1 -42.4Q-45.75 -50.95 -45.7 -55.35L-36.5 -55L-31.6 -54.65Q-29.6 -54.6 -28.1 -54.7L-28.35 -54.35L-28.35 -53.7L-28.2 -50.95L-28.2 -49.35Q-28.3 -47.2 -28 -43.05L-28.05 -42.45L-35.25 -42.75M-36.95,-52.7L-37.25 -52.7L-36.95 -48.7L-35 -48.7L-31.8 -48.95Q-30.65 -49.6 -30.9 -51.15Q-31.25 -52.7 -31.5 -52.75L-37.35 -52.75L-36.95 -52.7M-20.9,-6.45Q-20.7 -3.7 -19.05 -3.1L-14.85 -2.8L-13.95 -2.8Q-12.7 -2.8 -12.6 -4.4Q-12.45 -5.3 -12.75 -6.6Q-12.85 -8.05 -13.1 -8.65Q-13.35 -9.25 -15.2 -9.5L-21.55 -9.5L-21.5 -9.05L-21.4 -7.75L-20.95 -7.4L-20.9 -6.8L-20.9 -6.45M-18.85,34.1Q-19.65 34.35 -19.55 35.3Q-19.8 36.7 -18.05 36.7Q-17.5 36.7 -17.2 36.25Q-16.9 35.8 -16.9 35.25Q-17 34.35 -17.85 34.15L-17.85 34.05Q-18.45 33.7 -18.65 33.85L-18.85 34.1M-13.8,34.15Q-15.55 34.15 -15.45 35.65Q-14.45 37.4 -12.9 37.4Q-12.1 37.4 -11.95 36.75L-12 35.8Q-12.1 34.1 -13.8 34.15M-18.9,40.55Q-20.4 40.65 -20.3 42.25L-20.25 42.9Q-20.05 43.5 -18.95 43.5Q-17.3 43.5 -17.4 41.85Q-17.5 40.45 -18.9 40.55M-0.15,52.9Q0.8 52.9 1.05 52.3L1.1 51.25L1.05 50.55Q0.8 49.85 -0.4 49.85Q-2.35 49.85 -2.3 51L-1.95 51.95Q-1.4 52.9 -0.15 52.9M-29.7,65L-29.55 67.55L-29.8 67.55L-29.7 65M7.2,11.9Q5.4 11.55 5.55 13.5L5.7 14.3Q6.15 15.2 7.45 15.2Q8.5 15.2 8.8 14.75L8.95 13.9Q8.9 13.2 8.65 12.8Q8.5 12.1 7.9 12.05L7.75 12.05L7.2 11.9" />
<path style="fill:#727374;fill-opacity:1" d="M-32.6,-10.95L-36.5 -11.3L-39.65 -11.7L-44.95 -11L-50.6 -10.35L-51.3 -10L-51.5 -10.35Q-52.95 -13.85 -52.75 -17.75L-52.8 -18.1L-48.2 -18L-43.2 -17.4L-33.05 -16.5L-26.15 -16L-22.6 -15.7L-1.95 -14.95L3 -14.8L20.3 -14.4Q25.4 -14.4 31.3 -15.55Q38.05 -16.85 42.6 -19.05L44.3 -17.8L41.25 -13L36.25 -11.2L35.25 -12.35L33.45 -10.95Q32.3 -10.2 31.7 -10.2L30.05 -10.5L28.25 -11L26.75 -9.05L24.55 -9Q22.8 -9 21.9 -9.55Q20.5 -10.4 17.4 -10.95L11.9 -11.6L7.45 -11.5L4.15 -11.1L4.05 -11L3.45 -10.85L1.35 -10.7L-2.55 -10.9L-7.15 -11.5L-12.3 -11.95L-16.1 -12.15L-16.05 -12.1L-16.45 -11.95L-16.5 -12.1L-22.1 -11.5L-26.05 -11.15L-32.6 -10.95M-40.7,-35.35L-47.55 -34.8L-47.8 -39.6L-47.8 -39.8L-47 -39.7L-45.5 -39.9L-44.9 -40.1L-42.75 -39.8L-30.7 -40.6Q-29.55 -40.6 -28.5 -39.3Q-27.65 -38.2 -27.1 -36.75L-26.45 -34.7L-40.7 -35.35M-16.9,35.25Q-16.9 35.8 -17.2 36.25Q-17.5 36.7 -18.05 36.7Q-19.8 36.7 -19.55 35.3Q-19.65 34.35 -18.85 34.1L-19 34.3L-18.85 34.6L-18.75 34.75L-18.35 34.85Q-18 34.85 -17.75 34.55L-17.85 34.15Q-17 34.35 -16.9 35.25M-12,35.8L-11.95 36.75Q-12.1 37.4 -12.9 37.4Q-14.45 37.4 -15.45 35.65Q-15.55 34.15 -13.8 34.15Q-12.1 34.1 -12 35.8M-13.6,34.5Q-14.25 34.15 -14.2 34.9Q-13.85 36.1 -13.2 36.1L-12.8 36.05L-12.8 35.85L-12.75 35.6Q-13 34.75 -13.6 34.5M-18.4,40.95Q-18.9 40.7 -18.85 41.45Q-18.75 42.25 -18.15 42.25L-17.7 42.1L-17.65 41.7Q-17.95 41.15 -18.4 40.95M-17.4,41.85Q-17.3 43.5 -18.95 43.5Q-20.05 43.5 -20.25 42.9L-20.3 42.25Q-20.4 40.65 -18.9 40.55Q-17.5 40.45 -17.4 41.85M-0.4,51.05L0.35 51.6L0.8 51.4L0.85 51.1Q0.85 50.7 0.3 50.35Q-0.25 50 -0.75 50L-0.85 50.1L-0.8 50.4L-0.4 51.05M-1.95,51.95L-2.3 51Q-2.35 49.85 -0.4 49.85Q0.8 49.85 1.05 50.55L1.1 51.25L1.05 52.3Q0.8 52.9 -0.15 52.9Q-1.4 52.9 -1.95 51.95M8.65,12.8Q8.9 13.2 8.95 13.9L8.8 14.75Q8.5 15.2 7.45 15.2Q6.15 15.2 5.7 14.3L5.55 13.5Q5.4 11.55 7.2 11.9L7.75 12.05Q7.1 12.05 7.15 12.85Q6.95 13.9 8.1 13.9L8.55 13.85L8.65 13.75L8.65 12.95L8.65 12.8" />
<path style="fill:#656566;fill-opacity:1" d="M11.4,2.35L4.1 2.45L-2.15 2.45Q-6.1 2 -6.3 -0.5L-6.3 -2.45L-6.3 -4.15L-6.15 -5L-6.1 -5.4L-5.45 -5L-3.15 -4.7L5.85 -5.2Q7.6 -5.2 9.1 -4.3Q11.45 -3 11.65 -0.3L11.4 2.35M-14.85,-2.8L-19.05 -3.1Q-20.7 -3.7 -20.9 -6.45L-20.9 -6.8L-17.65 -6.65Q-17.15 -6.65 -16.2 -5.65Q-15.15 -4.6 -15.1 -3.6L-14.85 -2.8" />
<path style="fill:#5B738C;fill-opacity:1" d="M51.4,-22.35L46.15 -20.45L45.8 -20.35L43.45 -19.45L42.6 -19.05Q38.05 -16.85 31.3 -15.55Q25.4 -14.4 20.3 -14.4L3 -14.8L-1.95 -14.95L-22.6 -15.7L-26.15 -16L-33.05 -16.5L-43.2 -17.4L-48.2 -18L-52.8 -18.1L-53.4 -18.05Q-56.2 -17.8 -56.65 -21.05L-56.7 -24.65L-51.45 -23.95L-43.05 -22.9L-34 -21.4L-23.45 -20.5L-21.1 -20.3L-18.85 -20.15L-14.95 -20.3L-12 -20.5L11.55 -19L22.8 -20.45Q31.25 -21.9 33.55 -22.6Q34.75 -22.9 43.5 -26.75Q51.9 -30.45 52.25 -30.45L52.9 -30.3L53.15 -29.25L52.95 -23.1L51.4 -22.35M-47.2,-58.3Q-47.3 -59.9 -46.95 -60.95L-45.25 -60.7L-40.7 -60.95L-36.5 -60.45Q-34.25 -59.8 -31.05 -59.5Q-26.75 -59.05 -25.85 -56.25L-25.45 -55.25L-27.85 -54.75L-28.1 -54.7Q-29.6 -54.6 -31.6 -54.65L-36.5 -55L-45.7 -55.35Q-47.15 -56.25 -47.2 -58.3" />
<path style="fill:#849AB1;fill-opacity:1" d="M-56.65,-26.05L-56.5 -26.25Q-56.05 -27.05 -54.2 -27.05L-50.6 -26.7L-35.4 -25.05L-35.1 -25.05L-31.8 -24.7L-31.3 -24.65L-18.4 -23.45L-18.4 -23.4L-18.05 -23.45L0.75 -22.45Q22.3 -22.45 38.25 -28.2L47.9 -32.25Q52.25 -34.05 54.6 -34.05Q55.7 -34.05 56.25 -32.35L56.8 -28.6Q57 -25.45 52.95 -23.1L53.15 -29.25L52.9 -30.3L52.25 -30.45Q51.9 -30.45 43.5 -26.75Q34.75 -22.9 33.55 -22.6Q31.25 -21.9 22.8 -20.45L11.55 -19L-12 -20.5L-14.95 -20.3L-18.85 -20.15L-21.1 -20.3L-23.45 -20.5L-34 -21.4L-43.05 -22.9L-51.45 -23.95L-56.7 -24.65L-56.65 -26.05M-45.65,-62.65Q-44.6 -63.3 -41.85 -63.35L-41.2 -63.35L-38.35 -63.1L-35.8 -62.8L-33.15 -62.55L-32.75 -62.5L-29.1 -62.1L-26.1 -61.85L-24.4 -61.8Q-23.7 -60.85 -23.8 -59.1Q-24 -57.4 -24.4 -56.2Q-24.65 -55.6 -25.45 -55.25L-25.85 -56.25Q-26.75 -59.05 -31.05 -59.5Q-34.25 -59.8 -36.5 -60.45L-40.7 -60.95L-45.25 -60.7L-46.95 -60.95Q-46.55 -62.1 -45.65 -62.65" />
<path style="fill:#2C2C2C;fill-opacity:1" d="M-35.8,-62.8L-33.45 -70.35L-33.45 -70.45L-32.75 -73.35L-35.2 -73.4L-36.7 -73.45Q-36.9 -73.5 -36.95 -74.4Q-37.1 -75.95 -36.75 -76.2L-34.75 -76.3L-33.9 -76.2L-32.25 -76.2L-32.2 -76.4L-32.2 -76.45L-32.45 -77.5Q-32.45 -77.85 -31.75 -78.1L-30.95 -78.3L-29.8 -77.95Q-29.3 -77.55 -29.25 -77L-29.35 -75.95L-27.85 -75.95L-25.55 -75.55Q-23.8 -75.15 -23.8 -74.65Q-23.7 -73.2 -24.25 -72.8Q-24.65 -72.5 -26.2 -72.5L-28.55 -72.85L-28.25 -71.7L-28.05 -70.9Q-26.7 -66 -26.1 -61.85L-29.1 -62.1L-29.2 -64.55L-29.5 -65.45Q-29.8 -66.2 -30.25 -66.2Q-31.9 -66.2 -32.2 -65.8L-33.15 -62.55L-35.8 -62.8M-29.95,-70.6L-30.1 -71.35Q-30.3 -71.6 -30.65 -71.6L-31.2 -71.45L-31.45 -70.7L-31.75 -69.75L-31.75 -69.15L-30.7 -69.1Q-30 -69.1 -29.95 -69.55L-29.95 -70.6M-37.35,-52.75L-31.5 -52.75Q-31.25 -52.7 -30.9 -51.15Q-30.65 -49.6 -31.8 -48.95L-35 -48.7L-36.95 -48.7L-37.25 -52.7L-36.95 -52.7L-37.35 -52.75" />
<path style="fill:#ADAEAF;fill-opacity:1" d="M-21.9,-27.4L-23.7 -30.3L-23.75 -30.3Q-26.35 -31.65 -30.5 -32L-32.9 -32.2L-43.65 -32.9L-46.4 -32.6L-48.8 -32.25L-49.8 -32.4Q-49.25 -34 -48.15 -34.6L-47.55 -34.8L-40.7 -35.35L-26.45 -34.7L-27.1 -36.75Q-27.65 -38.2 -28.5 -39.3Q-29.55 -40.6 -30.7 -40.6L-42.75 -39.8L-44.9 -40.1L-45.5 -39.9L-47 -39.7L-47.8 -39.8Q-47.5 -42.25 -45.1 -42.4L-44.85 -42.4L-39.05 -42.55L-35.25 -42.75L-28.05 -42.45L-27.1 -42.25Q-23.35 -40.75 -24.75 -34.55Q-22.25 -34 -20.05 -31.7Q-17.2 -28.7 -18.6 -26.05L-18.5 -25.2Q-20.75 -25.5 -21.9 -27.4M-39.95,-71.6Q-40 -72.75 -40.6 -72.65Q-41.25 -72.55 -41.2 -71.65Q-41.05 -70 -40.3 -70Q-39.85 -70 -39.95 -71.6M-41.85,-63.35L-41.85 -65.75L-41.9 -66.15Q-42.9 -65.65 -44.05 -65.65Q-46.45 -65.65 -49 -67.7L-48.05 -67.6Q-46.65 -67.6 -45.55 -68.55L-45.25 -68.75L-42.65 -71.3L-42.3 -71.55Q-41.55 -72.3 -41.15 -73.25Q-40.7 -74.2 -40.75 -75.05L-40.8 -75.5L-41.05 -75.5L-45.25 -73.1L-45.65 -72.85Q-46.4 -72.8 -46.65 -72.25Q-49.25 -70.45 -49.8 -67.85Q-50.35 -68.15 -50.4 -69.05Q-50.55 -71 -48.75 -73.3Q-47.5 -74.95 -45.85 -75.75L-45 -76.2Q-43.85 -76.8 -42.85 -76.8Q-41.35 -76.8 -40.9 -75.7L-40.8 -75.5L-39.85 -73.5Q-39.35 -72.25 -39.25 -71.1Q-39.15 -69.35 -39.85 -68.05L-39.25 -66.7L-38.65 -64.65L-39.55 -66.85Q-40.35 -68.5 -40.9 -69Q-41.5 -69.6 -41.45 -68.4L-40.5 -66.15Q-39.3 -63.65 -38.7 -63.65L-38.45 -63.85L-38.35 -63.1L-41.2 -63.35L-41.85 -63.35" />
<path style="fill:#DEE2E5;fill-opacity:1" d="M-40.3,-70Q-41.05 -70 -41.2 -71.65Q-41.25 -72.55 -40.6 -72.65Q-40 -72.75 -39.95 -71.6Q-39.85 -70 -40.3 -70M-38.65,-64.65L-38.45 -64.15L-38.45 -63.85L-38.7 -63.65Q-39.3 -63.65 -40.5 -66.15L-41.45 -68.4Q-41.5 -69.6 -40.9 -69Q-40.35 -68.5 -39.55 -66.85L-38.65 -64.65" />
<path style="fill:#88898A;fill-opacity:1" d="M-44.05,-72.4L-45.55 -72.85L-45.65 -72.85L-45.25 -73.1L-41.05 -75.5L-40.8 -75.5L-40.75 -75.05Q-40.7 -74.2 -41.15 -73.25Q-41.55 -72.3 -42.3 -71.55Q-42.8 -72.05 -44.05 -72.4M-49.75,-67.85L-49.8 -67.85Q-49.25 -70.45 -46.65 -72.25L-46.7 -71.7L-46.3 -70.5L-45.25 -68.75L-45.55 -68.55Q-46.65 -67.6 -48.05 -67.6L-49 -67.7L-49.75 -67.85" />
<path style="fill:#D5D7D9;fill-opacity:1" d="M-46.65,-72.25Q-46.4 -72.8 -45.65 -72.85L-45.55 -72.85L-44.05 -72.4Q-42.8 -72.05 -42.3 -71.55L-42.65 -71.3L-45.25 -68.75L-46.3 -70.5L-46.7 -71.7L-46.65 -72.25" />
<path style="fill:#E0E0E2;fill-opacity:1" d="M23.2,64.7L22.4 68.15L-29.55 67.55L-29.7 65L-15.75 64.95L23.2 64.7" />
<path style="fill:#BF5D5D;fill-opacity:1" d="M22.4,68.15Q21.55 71.2 20.15 74.1Q18.9 76.8 14.25 77.3L1.9 78.05L-17.2 78.25Q-23.4 78.25 -25.6 77.35Q-29.4 75.7 -29.75 70.45L-29.8 67.55L-29.55 67.55L22.4 68.15" />
<path style="fill:#C7C8C9;fill-opacity:1" d="M-18.65,33.85Q-18.45 33.7 -17.85 34.05L-17.85 34.15L-17.75 34.55Q-18 34.85 -18.35 34.85L-18.75 34.75L-18.85 34.6L-19 34.3L-18.85 34.1L-18.65 33.85M-12.75,35.6L-12.8 35.85L-12.8 36.05L-13.2 36.1Q-13.85 36.1 -14.2 34.9Q-14.25 34.15 -13.6 34.5Q-13 34.75 -12.75 35.6M-17.65,41.7L-17.7 42.1L-18.15 42.25Q-18.75 42.25 -18.85 41.45Q-18.9 40.7 -18.4 40.95Q-17.95 41.15 -17.65 41.7M-0.8,50.4L-0.85 50.1L-0.75 50Q-0.25 50 0.3 50.35Q0.85 50.7 0.85 51.1L0.8 51.4L0.35 51.6L-0.4 51.05L-0.8 50.4M8.65,12.95L8.65 13.75L8.55 13.85L8.1 13.9Q6.95 13.9 7.15 12.85Q7.1 12.05 7.75 12.05L7.9 12.05Q8.5 12.1 8.65 12.8L8.65 12.95" />
<path style="fill:#2E2E33;fill-opacity:1" d="M-15.75,7.5L-13.05 8.4L-13.05 9.05L-14.9 16.25L-18.9 16.25L-18.9 18Q-18.75 18.35 -18.75 19.5L-15.4 20.15Q-14.9 20.4 -14.9 22.95L-15.05 28.4L-15.95 28.4L-17 28.2L-18 28.05L-18.9 28.05Q-18.7 28.55 -20.7 33.6L-22.35 33.6L-24.1 32.75L-25.2 32.2Q-25.65 31.75 -26.7 27.95Q-27.75 24.05 -27.75 22.35Q-27.75 21.95 -26.45 21Q-25.2 20.05 -25.2 19.7Q-25.2 19.1 -26.65 18.15L-28.1 17.1Q-28.1 16.65 -26.8 16.3L-24.9 15.95L-24.15 10.5L-24.15 9.45L-26.45 9L-26.8 8.9Q-28.25 8.5 -28.65 7.85L-27.8 6.8Q-27.45 6.4 -27.45 5.85L-27.45 5.7Q-27.6 5.15 -28.8 4.15L-29.4 3.7L-30.2 3.15Q-31.75 2.15 -32.9 1.95L-32.65 -0.25L-32.45 -2.9Q-31.9 -3.05 -30.35 -4.15L-28.65 -5.4L-26.75 -3.65L-24.75 -2L-24.65 -1.95L-23.35 -2.25L-21.95 -2.6L-20.9 -0.3Q-20 0.9 -18.15 0.9Q-15.9 0.95 -15.55 2Q-15.4 2.55 -15.75 5.85L-15.75 6.65L-15.75 7.5M22.55,23.95Q18.9 23 18.9 22.45Q19.7 21 19.7 20.45L18.65 19.45L17.15 18.3L18.25 17.65L19.6 16.5Q21.45 14.7 21.45 13.25Q21.45 11.85 19.75 11.85Q18 11.85 18 9.3Q18 8.8 20.8 7.95Q23.55 7.05 23.55 6.3L23.1 4.65Q22.65 3.1 22.65 1.95Q22.65 0 24.85 -0.2L25.45 -0.25L27.45 3.45L26.4 4.65Q25.35 5.75 25.35 6Q25.35 6.45 26.9 9.15L24.85 10.8Q23.15 12.2 23.15 12.8Q23.15 13.7 25.7 17.1Q25.5 17.15 25 18.75L24.5 20.3Q23.55 23.4 23.55 24.2L22.55 23.95" />
<path style="fill:none;stroke-width:1;stroke-linecap:butt;stroke-linejoin:miter;stroke-miterlimit:3;stroke:#484848;stroke-opacity:1" d="M42.6,-19.05Q38.05 -16.85 31.3 -15.55Q25.4 -14.4 20.3 -14.4L3 -14.8L-1.95 -14.95L-22.6 -15.7L-26.15 -16M-52.75,-17.75Q-52.95 -13.85 -51.5 -10.35L-51.3 -10Q-49.95 -6.8 -47.15 -4L-43.5 -0.9L-41.25 -3.75Q-40.1 -2.6 -39.6 -2.6Q-39.1 -2.6 -35.7 -6L-34.1 -4.35L-32.6 -2.9L-32.45 -2.9Q-31.9 -3.05 -30.35 -4.15L-28.65 -5.4L-26.75 -3.65L-24.75 -2L-24.65 -1.95L-23.35 -2.25L-21.95 -2.6L-20.9 -0.3Q-20 0.9 -18.15 0.9Q-15.9 0.95 -15.55 2Q-15.4 2.55 -15.75 5.85L-15.75 6.65M3.7,-9.5L4.45 -9.5L11.8 -9.5Q15.8 -8.8 16.1 -4.75Q16.45 1.15 13.6 2.15L11.4 2.35L4.1 2.45L-2.15 2.45Q-6.1 2 -6.3 -0.5L-6.3 -2.45L-6.3 -4.15L-6.15 -5L-6.1 -5.4Q-5.45 -8.5 -2.9 -9.25L-2.2 -9.35L1.4 -9.45L3.7 -9.5M26.75,-9.05L28.25 -11L30.05 -10.5L31.7 -10.2Q32.3 -10.2 33.45 -10.95L35.25 -12.35L36.25 -11.2M41.25,-13L44.3 -17.8L45.9 -20.15L46.15 -20.45L46.15 -20.15L45.9 -20.15M26.75,-9.05Q25.2 -6.9 25.2 -6.45L26.6 -4.55Q28.1 -2.6 28.95 -2.1Q27.85 -0.7 25.45 -0.25L27.45 3.45L26.4 4.65Q25.35 5.75 25.35 6Q25.35 6.45 26.9 9.15L24.85 10.8Q23.15 12.2 23.15 12.8Q23.15 13.7 25.7 17.1Q25.5 17.15 25 18.75L24.5 20.3Q23.55 23.4 23.55 24.2L25.9 24.7L27.6 25.05M25.45,-0.25L24.85 -0.2Q22.65 0 22.65 1.95Q22.65 3.1 23.1 4.65L23.55 6.3Q23.55 7.05 20.8 7.95Q18 8.8 18 9.3Q18 11.85 19.75 11.85Q21.45 11.85 21.45 13.25Q21.45 14.7 19.6 16.5L18.25 17.65L17.15 18.3L18.65 19.45L19.7 20.45Q19.7 21 18.9 22.45Q18.9 23 22.55 23.95L23.55 24.2M41.25,-13L38.7 -8.65Q38 -9.05 36.85 -10.5L36.25 -11.2M42.6,-19.05L43.45 -19.45L45.8 -20.35L46.15 -20.45L51.4 -22.35L52.95 -23.1Q57 -25.45 56.8 -28.6L56.25 -32.35Q55.7 -34.05 54.6 -34.05Q52.25 -34.05 47.9 -32.25L38.25 -28.2Q22.3 -22.45 0.75 -22.45L-18.05 -23.45L-18.4 -23.4L-18.4 -23.45L-31.3 -24.65L-31.8 -24.7L-35.1 -25.05L-35.4 -25.05L-50.6 -26.7L-54.2 -27.05Q-56.05 -27.05 -56.5 -26.25L-56.65 -26.05L-56.7 -24.65L-56.65 -21.05Q-56.2 -17.8 -53.4 -18.05L-52.8 -18.1L-48.2 -18L-43.2 -17.4L-33.05 -16.5L-26.15 -16M-38.45,-63.85L-38.35 -63.1L-35.8 -62.8L-33.45 -70.35L-33.45 -70.45L-32.75 -73.35L-35.2 -73.4L-36.7 -73.45Q-36.9 -73.5 -36.95 -74.4Q-37.1 -75.95 -36.75 -76.2L-34.75 -76.3L-33.9 -76.2L-32.25 -76.2L-32.2 -76.4L-32.2 -76.45L-32.45 -77.5Q-32.45 -77.85 -31.75 -78.1L-30.95 -78.3L-29.8 -77.95Q-29.3 -77.55 -29.25 -77L-29.35 -75.95L-27.85 -75.95L-25.55 -75.55Q-23.8 -75.15 -23.8 -74.65Q-23.7 -73.2 -24.25 -72.8Q-24.65 -72.5 -26.2 -72.5L-28.55 -72.85L-28.25 -71.7L-28.05 -70.9Q-26.7 -66 -26.1 -61.85L-24.4 -61.8Q-23.7 -60.85 -23.8 -59.1Q-24 -57.4 -24.4 -56.2Q-24.65 -55.6 -25.45 -55.25L-27.85 -54.75L-28.1 -54.7L-28.35 -54.35L-28.35 -53.7L-28.2 -50.95L-28.2 -49.35Q-28.3 -47.2 -28 -43.05M-45.7,-55.35Q-45.75 -50.95 -45.1 -42.4L-44.85 -42.4L-39.05 -42.55L-35.25 -42.75L-28.05 -42.45L-27.1 -42.25Q-23.35 -40.75 -24.75 -34.55Q-22.25 -34 -20.05 -31.7Q-17.2 -28.7 -18.6 -26.05L-18.5 -25.2L-18.4 -23.45L-18.05 -23.45M-29.95,-70.6L-30.1 -71.35Q-30.3 -71.6 -30.65 -71.6L-31.2 -71.45L-31.45 -70.7L-31.75 -69.75L-31.75 -69.15L-30.7 -69.1Q-30 -69.1 -29.95 -69.55L-29.95 -70.6M-35.8,-62.8L-33.15 -62.55L-32.2 -65.8Q-31.9 -66.2 -30.25 -66.2Q-29.8 -66.2 -29.5 -65.45L-29.2 -64.55L-29.1 -62.1L-26.1 -61.85M-49.8,-67.85Q-50.35 -68.15 -50.4 -69.05Q-50.55 -71 -48.75 -73.3Q-47.5 -74.95 -45.85 -75.75L-45 -76.2Q-43.85 -76.8 -42.85 -76.8Q-41.35 -76.8 -40.9 -75.7L-40.8 -75.5L-39.85 -73.5Q-39.35 -72.25 -39.25 -71.1Q-39.15 -69.35 -39.85 -68.05L-39.25 -66.7L-38.65 -64.65M-33.15,-62.55L-32.75 -62.5L-29.1 -62.1M-41.85,-63.35Q-44.6 -63.3 -45.65 -62.65Q-46.55 -62.1 -46.95 -60.95Q-47.3 -59.9 -47.2 -58.3Q-47.15 -56.25 -45.7 -55.35L-36.5 -55L-31.6 -54.65Q-29.6 -54.6 -28.1 -54.7M-36.95,-52.7L-37.25 -52.7L-36.95 -48.7L-35 -48.7L-31.8 -48.95Q-30.65 -49.6 -30.9 -51.15Q-31.25 -52.7 -31.5 -52.75L-37.35 -52.75L-36.95 -52.7M-29.3,-75.3L-28.55 -72.85M-32.25,-76.2L-32.75 -73.35M-45.65,-72.85L-45.55 -72.85L-44.05 -72.4Q-42.8 -72.05 -42.3 -71.55Q-41.55 -72.3 -41.15 -73.25Q-40.7 -74.2 -40.75 -75.05L-40.8 -75.5M-42.3,-71.55L-42.65 -71.3L-45.25 -68.75L-45.55 -68.55Q-46.65 -67.6 -48.05 -67.6L-49 -67.7Q-46.45 -65.65 -44.05 -65.65Q-42.9 -65.65 -41.9 -66.15L-42.2 -68.65Q-42 -69.6 -41.3 -69.6Q-40.65 -69.6 -39.85 -68.05M-45.25,-68.75L-46.3 -70.5L-46.7 -71.7L-46.65 -72.25M-49.8,-67.85L-49.75 -67.85L-49 -67.7M-38.35,-63.1L-41.2 -63.35L-41.85 -63.35L-41.85 -65.75L-41.9 -66.15M-47.8,-39.8Q-47.5 -42.25 -45.1 -42.4M-47.8,-39.8L-47.8 -39.6L-47.55 -34.8L-40.7 -35.35L-26.45 -34.7L-26.15 -34.7L-24.75 -34.55M-50.6,-26.7Q-50.6 -30.4 -49.8 -32.4Q-49.25 -34 -48.15 -34.6L-47.55 -34.8M-35.1,-25.05Q-35.1 -30.8 -33 -30.8Q-31.4 -30.8 -31.1 -30L-30.95 -28.2Q-30.85 -26.5 -31.3 -24.65M-32.45,-2.9L-32.65 -0.25L-32.9 1.95Q-31.75 2.15 -30.2 3.15L-29.4 3.7L-28.8 4.15Q-27.6 5.15 -27.45 5.7L-27.45 5.85Q-27.45 6.4 -27.8 6.8L-28.65 7.85Q-28.25 8.5 -26.8 8.9L-26.45 9L-24.15 9.45L-24.15 10.5L-24.9 15.95L-26.8 16.3Q-28.1 16.65 -28.1 17.1L-26.65 18.15Q-25.2 19.1 -25.2 19.7Q-25.2 20.05 -26.45 21Q-27.75 21.95 -27.75 22.35Q-27.75 24.05 -26.7 27.95Q-25.65 31.75 -25.2 32.2L-24.1 32.75L-22.35 33.6L-20.7 33.6Q-18.7 28.55 -18.9 28.05L-18 28.05L-17 28.2L-15.95 28.4L-15.05 28.4L-14.9 22.95Q-14.9 20.4 -15.4 20.15L-18.75 19.5Q-18.75 18.35 -18.9 18L-18.9 16.25L-14.9 16.25L-13.05 9.05L-13.05 8.4L-15.75 7.5L-15.75 6.65M-21.5,-9.05L-21.55 -9.5L-15.2 -9.5Q-13.35 -9.25 -13.1 -8.65Q-12.85 -8.05 -12.75 -6.6Q-12.45 -5.3 -12.6 -4.4Q-12.7 -2.8 -13.95 -2.8L-14.85 -2.8L-19.05 -3.1Q-20.7 -3.7 -20.9 -6.45L-20.9 -6.8L-20.95 -7.4L-21.5 -9.05M-25.2,32.2L-25.65 32.1L-26.95 32.7Q-28 33.3 -28.35 33.3Q-29.1 33.3 -30.15 32.25L-29.6 38.45L-29.6 38.85Q-29.3 43.4 -29.55 56L-29.7 65L-29.8 67.55L-29.75 70.45Q-29.4 75.7 -25.6 77.35Q-23.4 78.25 -17.2 78.25L1.9 78.05L14.25 77.3Q18.9 76.8 20.15 74.1Q21.55 71.2 22.4 68.15M25.9,24.7Q24.7 31.15 24.5 37.4L24.4 47.05L24 57.1L23.7 60.75L23.2 64.7L22.4 68.15" />
<path style="fill:none;stroke-width:1;stroke-linecap:butt;stroke-linejoin:miter;stroke-miterlimit:3;stroke:#676869;stroke-opacity:1" d="M3.45,-10.85L3 -14.8M-26.15,-16Q-26.35 -14.15 -26.05 -11.15L-25.6 -7.4L-24.75 -2M-15.75,6.65L-10.15 6.45L-3.75 6.1L0.45 6.55L3.65 7L3.5 2.95M3.45,-10.85L3.7 -9.5M-29.6,38.45L-16.35 38.65L-4.05 38.8L-0.7 38.8Q4.6 39.15 7.2 38.9Q11.9 38.6 12.45 35.9Q12.95 33.9 12.95 27.85Q13 22 13.55 19.75L13.4 17.2L13 17.15L5.85 16.85Q4 16.45 3.7 12.1L3.65 7M-15.75,64.95L-16.45 56Q-16.25 53.85 -16.4 51.1Q-16.65 42.4 -16.3 39.3L-16.35 38.65M24,57.1L16.85 56.3L7.95 54.85L1.05 54.4Q-1.5 54.25 -2.4 53.75Q-3.3 53.15 -3.55 51.25L-4 45.4L-4.05 38.8M13,17.15L13.4 17.15L14.1 17.2L18.25 17.65" />
</g>
</svg>
