<?xml version="1.0" encoding="utf-8"?>
<svg version="1.1" id="Layer_1"
xmlns="http://www.w3.org/2000/svg"
xmlns:xlink="http://www.w3.org/1999/xlink"
xmlns:author="http://www.sothink.com"
width="43px" height="27px"
xml:space="preserve">
<g id="230" transform="matrix(1, 0, 0, 1, 21.3, 13.25)">
<path style="fill:#FFFFFF;fill-opacity:1" d="M17.9,-10.25L-17.95 -10.25L-18.3 -9.9L-18.3 9.95L-17.95 10.3L17.9 10.3L18.25 9.95L18.25 -9.9L17.9 -10.25M21.25,-9.9L21.25 9.95Q21.25 13.3 17.9 13.3L-17.95 13.3Q-21.3 13.3 -21.3 9.95L-21.3 -9.9Q-21.3 -13.25 -17.95 -13.25L17.9 -13.25Q21.25 -13.25 21.25 -9.9" />
<path style="fill:#FF0000;fill-opacity:0" d="M3.65,-6L-3.25 -6L-3.25 5.9L3.9 5.9L3.9 3.75L-0.55 3.75L-0.55 1L3.35 1L3.35 -1.15L-0.55 -1.15L-0.55 -3.8L3.65 -3.8L3.65 -6M8.6,-3.75L9.2 -4L10.05 -4.1L10.75 -4.05L11.5 -3.9L12.2 -3.65L12.85 -3.25L12.85 -5.75L11.55 -6.1L9.9 -6.2L8.1 -6L6.6 -5.35L5.6 -4.25Q5.2 -3.6 5.2 -2.65Q5.2 -1.5 5.9 -0.65Q6.6 0.2 8 0.8L9 1.2L9.8 1.65L10.35 2.15L10.55 2.8L10.45 3.3L10.05 3.65L9.45 3.9L8.55 4L6.85 3.7L5.25 2.8L5.25 5.45Q5.9 5.8 6.8 5.95L8.65 6.1L10.5 5.9L12 5.35L13 4.25Q13.4 3.55 13.4 2.55L13.15 1.3L12.55 0.3L11.55 -0.45L10.3 -1.05Q9.75 -1.3 9.35 -1.5L8.65 -1.9L8.2 -2.35L8.05 -2.9L8.2 -3.4L8.6 -3.75M18.25,-9.9L18.25 9.95L17.9 10.3L-17.95 10.3L-18.3 9.95L-18.3 -9.9L-17.95 -10.25L17.9 -10.25L18.25 -9.9M-14.9,-6L-11.1 1.7L-11.1 5.9L-8.45 5.9L-8.45 1.65L-4.55 -6L-7.4 -6L-9.35 -1.55L-9.6 -0.6L-9.65 -0.6L-9.9 -1.55L-11.85 -6L-14.9 -6" />
</g>
</svg>
