<?xml version="1.0" encoding="utf-8"?>
<svg version="1.1" id="Layer_1"
xmlns="http://www.w3.org/2000/svg"
xmlns:xlink="http://www.w3.org/1999/xlink"
xmlns:author="http://www.sothink.com"
width="73px" height="72px"
xml:space="preserve">
<g id="18" transform="matrix(1, 0, 0, 1, 35.45, 37.55)">
<path style="fill:#232222;fill-opacity:1" d="M8.75,-34.4Q9.25 -34.8 10.2 -34.85Q12.25 -35.05 14.75 -33.95Q21.3 -31.25 21.3 -25.55Q21.3 -24.15 20.35 -22.6Q19.25 -20.85 17.3 -19.8L12 -17.4L10.45 -16.15Q9.45 -15.25 8.75 -15.25Q7.95 -15.25 7.05 -19.4Q5.2 -23.6 -0.35 -23.6Q-4.2 -23.6 -5.6 -20.45L-6.2 -17.3Q-6.2 -16.95 -6.5 -16.65Q-6.8 -16.4 -7.25 -16.4L-7.95 -16.6L-8.65 -16.85Q-9.05 -16.85 -9.45 -16.15L-10.35 -14.45Q-12.1 -12.1 -16.05 -12.1Q-20.3 -12.1 -22.2 -15.75Q-23.1 -17.55 -23.2 -19.5L-22.75 -20.8L-22.75 -20.85Q-22.75 -21.9 -21.15 -23.95Q-19.6 -26 -18.2 -26.75Q-17.1 -27.3 -16.35 -29.35Q-15.5 -31.6 -14.45 -32.45L-10.85 -35.25Q-8.65 -36.5 -4.45 -37.3Q-0.1 -38.1 4.65 -36.55Q7.9 -35.5 8.75 -34.4M9.95,-10.95Q9.95 -9.75 9.05 -9.75Q8.4 -9.75 8 -10.6L7.7 -11.3Q7.7 -12.4 8.8 -12.15Q9.95 -12 9.95 -10.95M36.6,-5.95Q37.1 -5.05 37.1 -3Q37.1 0.9 33.45 4Q29.7 7.05 29.7 8.7Q29.7 10.05 30.6 12Q31.5 13.9 31.5 16.5Q31.5 18.95 30.35 21.1Q28.2 25.15 22.95 25.15Q16 25.15 13.45 21.85Q12.6 20.8 12.3 19.5L12.15 18.3Q11.9 17 11.9 14.45Q11.9 13.6 10.65 12.5Q9.35 11.45 9.35 10.9Q9.35 9.85 11.7 9.4L16.85 8.55Q24.3 7.05 24.3 1.2Q24.3 -1.6 22.1 -4.7L19.9 -7.9Q19.9 -9.35 24.2 -10.5Q29.05 -11.85 32.95 -9.3Q35.85 -7.2 36.6 -5.95M6.15,20.15L7.2 23.25Q7.2 26 5.35 26.95L1.4 28.85L-0.8 31.65Q-3.4 34.25 -6.9 34.25Q-14.95 34.25 -18.45 28.85Q-20.45 25.8 -20.45 22.9Q-20.45 15.35 -13.9 13.95L-9.4 13.15Q-7.8 12.75 -7.45 11.6L-7.7 11.3L-7.75 10.9Q-7.75 10.3 -7.25 10.05Q-7 9.3 -6.1 9.75Q-4.8 10.4 -4.8 11.4L-5.2 13.55Q-5.2 14.85 -4.85 15.7L-2 15.2Q-0.4 15.2 -0.1 16.2Q0.05 16.75 -0.1 17.4L0.55 17.55L3.1 17.1Q4.75 17.1 6.15 20.15M-29.95,-6.05Q-28.65 -6.05 -27.75 -5.5L-26.95 -4.9Q-25.25 -5.85 -23.6 -6.25Q-20.25 -7.05 -20.25 -4.5L-20.65 -1.3Q-20.65 -0.6 -20.25 0.4Q-19.65 1.95 -18.4 1.95L-16.15 0.9Q-14.2 -0.15 -13.65 -0.15Q-11.4 -0.15 -6 4.3Q-6 5.2 -7.55 5.2L-10.7 4.6L-13.45 4Q-16.65 4 -18.1 5.5Q-19.05 6.5 -19.7 8.9Q-20.4 11.4 -21.1 12.25Q-22.4 13.75 -25.25 13.75Q-33 13.75 -34.95 8.9Q-35.45 7.65 -35.45 3.15Q-35.45 0.95 -34.5 -1.7Q-33 -6.05 -29.95 -6.05M-6.4,-4.35Q-6.4 -5.25 -5.4 -5.25Q-4.45 -5.25 -4.45 -4.35L-4.6 -3.8Q-4.85 -3.4 -5.4 -3.4Q-6.05 -3.4 -6.3 -3.9L-6.4 -4.35M-0.05,0.45Q1.05 0.3 1.05 1.4Q0.75 2.75 -0.1 2.75Q-1.3 2.75 -1.15 1.6Q-1.15 0.6 -0.05 0.45" />
</g>
</svg>
