<?xml version="1.0" encoding="utf-8"?>
<svg version="1.1" id="Layer_1"
xmlns="http://www.w3.org/2000/svg"
xmlns:xlink="http://www.w3.org/1999/xlink"
xmlns:author="http://www.sothink.com"
width="78px" height="28px"
xml:space="preserve">
<g id="60" transform="matrix(1, 0, 0, 1, 35.95, 18.75)">
<path style="fill:#C9DAF1;fill-opacity:1" d="M-2.1,-14.15Q-3.15 -15.1 -3.15 -16.45L-2.9 -17.5L-2.6 -17.8L-2 -18.2L-1.15 -18.25Q1.8 -18.25 1.8 -15.4Q1.8 -13.3 -0.25 -13.3Q-1.15 -13.3 -2.1 -14.15M-2.85,-5.25L-2 -5.55L-1.5 -3.8L-0.6 -0.95L0.15 1.7Q0.55 3.4 1.35 3.85L1.35 4.15L3.95 4.15Q10.75 4.15 16.45 2.95Q22.1 1.75 26.1 1.75Q27.6 1.75 31 3Q34.15 4.2 35.15 4.95Q32.65 6.3 26.75 6.6L16.65 6.7L13.75 6.95L11 7.2L7.05 6.95L2.65 6.7L-6.65 7.3L-17.75 7.9L-26.55 7.15L-34.15 6.2L-34.55 6.15Q-31 4.25 -28.9 3.55Q-25.95 2.5 -22.85 2.5L-11.45 3.35L-4.55 3.95L-4.55 3.5L-3.45 0.25Q-2.85 -2.15 -2.85 -3.45L-2.85 -5.25M38.7,3.95L39.45 3.85Q41.3 3.85 41.3 5.65Q41.3 7.75 39.7 7.75Q38.4 7.75 38.4 5.8L38.45 5.35L38.5 4.45L38.7 3.95" />
<path style="fill:none;stroke-width:1;stroke-linecap:butt;stroke-linejoin:miter;stroke-miterlimit:3;stroke:#5C8BBB;stroke-opacity:1" d="M-0.25,-13.3Q1.8 -13.3 1.8 -15.4Q1.8 -18.25 -1.15 -18.25L-2 -18.2L-2.6 -17.8L-2.9 -17.5L-3.15 -16.45Q-3.15 -15.1 -2.1 -14.15Q-1.15 -13.3 -0.25 -13.3M-2,-5.55L-2.55 -6.95L-3.15 -6.95L-2.85 -5.25M-2,-5.55L-1.5 -3.8L-0.6 -0.95L0.15 1.7Q0.55 3.4 1.35 3.85M1.35,4.15L3.95 4.15Q10.75 4.15 16.45 2.95Q22.1 1.75 26.1 1.75Q27.6 1.75 31 3Q34.15 4.2 35.15 4.95Q32.65 6.3 26.75 6.6L16.65 6.7L13.75 6.95L11 7.2L7.05 6.95L2.65 6.7L-6.65 7.3L-17.75 7.9L-26.55 7.15L-34.15 6.2L-34.55 6.15Q-31 4.25 -28.9 3.55Q-25.95 2.5 -22.85 2.5L-11.45 3.35L-4.55 3.95L1.35 4.15M-4.55,3.5L-3.45 0.25Q-2.85 -2.15 -2.85 -3.45L-2.85 -5.25M38.5,4.45L38.45 5.35L38.4 5.8Q38.4 7.75 39.7 7.75Q41.3 7.75 41.3 5.65Q41.3 3.85 39.45 3.85L38.7 3.95L38.5 4.45" />
</g>
</svg>
