<?xml version="1.0" encoding="utf-8"?>
<svg version="1.1" id="Layer_1"
xmlns="http://www.w3.org/2000/svg"
xmlns:xlink="http://www.w3.org/1999/xlink"
xmlns:author="http://www.sothink.com"
width="90px" height="114px"
xml:space="preserve">
<g id="165" transform="matrix(1, 0, 0, 1, 43.25, 106.5)">
<path style="fill:#FF0000;fill-opacity:0" d="M46.45,6.6L-43.25 6.6L-43.25 -106.5L46.45 -106.5L46.45 6.6" />
<path style="fill:#DB9832;fill-opacity:1" d="M-37.25,-78.55Q-37.1 -79.5 -36.1 -79.5L-34.35 -79.25L-34.3 -78.25L-33.95 -75.2L-33.85 -74.3L-33.5 -71.65L-33.4 -69.2L-33.5 -68.55L-33.6 -68.55L-33.6 -68.35L-33.85 -68.1L-35.45 -67.85Q-36.35 -67.85 -36.85 -69.05L-37.25 -70.7L-37.3 -71.35L-37.35 -71.9L-37.4 -74.5L-37.4 -75L-37.3 -77.85L-37.3 -78.05L-37.25 -78.55M-36.5,-75.9L-35.85 -75.25Q-35.25 -75.25 -35.15 -75.65L-35.1 -76.5Q-35.1 -78.4 -35.9 -78.4Q-36.7 -78.45 -36.7 -76.7L-36.5 -75.9" />
<path style="fill:#746F67;fill-opacity:1" d="M-41.7,-71.15L-42.1 -74.2L-42.15 -75.1L-41.95 -77.35Q-41.9 -77.95 -41.15 -78L-40.05 -78.05L-37.9 -78.05L-37.3 -78.05L-37.3 -77.85L-37.4 -75L-37.4 -74.5L-37.35 -71.9L-37.3 -71.35L-37.25 -70.7L-36.85 -69.05L-38.85 -68.8L-40.3 -68.55Q-41.1 -68.55 -41.65 -70.9L-41.7 -71.15M-33.95,-75.2L-34.3 -78.25Q-33.55 -78.35 -33.7 -78.4L-22.9 -78.55L-22.9 -73.8L-23.05 -72.6L-23.15 -70Q-27.3 -68.85 -33.15 -68.55L-33.5 -68.55L-33.4 -69.2L-33.5 -71.65L-33.85 -74.3L-33.85 -75.2L-33.95 -75.2M-38.3,-76.85Q-38.3 -77.3 -38.55 -77.35L-39.65 -77.25L-40.5 -77.2L-40.75 -77.25L-40.95 -77.35L-41.35 -77L-41.5 -76.55Q-41.5 -76.05 -41 -76.05L-39.9 -76.1L-39.9 -76.15L-39.1 -76.05L-38.55 -76.35L-38.3 -76.85M-32.65,-77.8L-33.1 -77.7L-33.5 -77.7L-33.65 -77.35Q-33.65 -76.85 -31.5 -76.85L-29.8 -76.9L-29 -77L-28.25 -76.85L-27.75 -76.95L-27.2 -77.1L-26.95 -77L-25.95 -76.95L-24.35 -77.1Q-24.05 -77.2 -24.05 -77.5Q-24.05 -77.85 -24.6 -77.85L-25.6 -77.9L-26.15 -77.8L-26.45 -77.7L-26.8 -77.8L-27.1 -77.7L-27.65 -77.95L-28.4 -77.8L-29.05 -77.75L-29.95 -77.85L-31.45 -77.7L-32.65 -77.8M-31.4,-74.7L-31.85 -74.55Q-33 -74.55 -33 -73.95Q-33 -73.6 -32.15 -73.6L-31.5 -73.75Q-31.3 -73.6 -31.1 -73.6L-26.5 -74L-23.9 -74.25L-24.1 -74.6L-24.6 -74.95L-25.4 -75.15L-26.5 -74.95L-27.25 -75.05L-30.9 -74.6L-31.4 -74.7M-39.2,-72.75L-38.8 -72.65L-38.45 -72.95L-38.2 -73.35L-38.25 -73.6L-38.85 -73.7L-40.1 -73.55L-41.1 -73.65L-41.25 -73.25L-41.05 -72.85L-39.65 -72.65L-39.2 -72.75" />
<path style="fill:#E0C59C;fill-opacity:1" d="M-36.7,-76.7Q-36.7 -78.45 -35.9 -78.4Q-35.1 -78.4 -35.1 -76.5L-35.15 -75.65Q-35.25 -75.25 -35.85 -75.25L-36.5 -75.9L-36.7 -76.7" />
<path style="fill:#A39E96;fill-opacity:1" d="M-38.55,-76.35L-39.1 -76.05L-39.9 -76.15L-39.9 -76.1L-41 -76.05Q-41.5 -76.05 -41.5 -76.55L-41.35 -77L-40.95 -77.35L-40.75 -77.25L-40.5 -77.2L-39.65 -77.25L-38.55 -77.35Q-38.3 -77.3 -38.3 -76.85L-38.55 -76.35M-31.45,-77.7L-29.95 -77.85L-29.05 -77.75L-28.4 -77.8L-27.65 -77.95L-27.1 -77.7L-26.8 -77.8L-26.45 -77.7L-26.15 -77.8L-25.6 -77.9L-24.6 -77.85Q-24.05 -77.85 -24.05 -77.5Q-24.05 -77.2 -24.35 -77.1L-25.95 -76.95L-26.95 -77L-27.2 -77.1L-27.75 -76.95L-28.25 -76.85L-29 -77L-29.8 -76.9L-31.5 -76.85Q-33.65 -76.85 -33.65 -77.35L-33.5 -77.7L-33.1 -77.7L-32.65 -77.8L-31.45 -77.7M-30.9,-74.6L-27.25 -75.05L-26.5 -74.95L-25.4 -75.15L-24.6 -74.95L-24.1 -74.6L-23.9 -74.25L-26.5 -74L-31.1 -73.6Q-31.3 -73.6 -31.5 -73.75L-32.15 -73.6Q-33 -73.6 -33 -73.95Q-33 -74.55 -31.85 -74.55L-31.4 -74.7L-30.9 -74.6M-39.65,-72.65L-41.05 -72.85L-41.25 -73.25L-41.1 -73.65L-40.1 -73.55L-38.85 -73.7L-38.25 -73.6L-38.2 -73.35L-38.45 -72.95L-38.8 -72.65L-39.2 -72.75L-39.65 -72.65" />
<path style="fill:none;stroke-width:1;stroke-linecap:butt;stroke-linejoin:miter;stroke-miterlimit:3;stroke:#333333;stroke-opacity:1" d="M-37.3,-78.05L-37.3 -77.85L-37.4 -75L-37.4 -74.5L-37.35 -71.9L-37.3 -71.35L-37.25 -70.7L-36.85 -69.05Q-36.35 -67.85 -35.45 -67.85L-33.85 -68.1L-33.6 -68.35L-33.6 -68.55L-33.5 -68.55L-33.4 -69.2L-33.5 -71.65L-33.85 -74.3L-33.95 -75.2L-34.3 -78.25L-34.35 -79.25L-36.1 -79.5Q-37.1 -79.5 -37.25 -78.55L-37.3 -78.05M-37.9,-78.05L-40.05 -78.05L-41.15 -78Q-41.9 -77.95 -41.95 -77.35L-42.15 -75.1L-42.1 -74.2L-37.4 -74.5M-34.3,-78.25Q-33.55 -78.35 -33.7 -78.4L-22.9 -78.55L-22.9 -73.8L-23.05 -72.6L-23.15 -70Q-27.3 -68.85 -33.15 -68.55L-33.6 -68.3L-33.6 -68.35L-33.5 -68.55L-33.15 -68.55M-33.95,-75.2L-33.85 -75.2L-32.9 -75.2L-23.65 -75.7M-33.5,-71.65L-28.35 -72.05L-23.05 -72.6M-42.1,-74.2L-41.7 -71.15L-41.65 -70.9Q-41.1 -68.55 -40.3 -68.55L-38.85 -68.8L-36.85 -69.05M-41.65,-70.9L-41.45 -71.2L-37.3 -71.35" />
<path style="fill:#DB9832;fill-opacity:1" d="M2.95,-92.6L2.95 -94.45Q3 -95.65 3.8 -96.65Q4.25 -96.45 4.85 -96.35L7.25 -96.25L12.45 -96.65L19.85 -97.05L19.85 -97.1L20.05 -97.05L19.85 -97.05L19.85 -97L31.7 -96.85L35.25 -96.55Q37.05 -96.25 37.4 -95.8L40.65 -91.75L39.6 -91.6L37.75 -91.35L32.9 -91.55L26.75 -91.85L19.4 -91.5L12.45 -91.2L12.05 -91.2L5.05 -91.55Q3.6 -91.75 3 -92.1L2.95 -92.1L2.95 -92.6M42.9,-62.35L43.3 -62.4L43 -61.6L42.9 -62.35M40.2,-62L39.9 -61.95L34.8 -61.45Q33.45 -61.45 32.5 -62.7Q31.55 -64 30.8 -64L27.45 -61.75Q23.8 -59.55 21.85 -59.55Q20 -59.55 18.9 -62.4Q17.75 -65.3 16.2 -65.3L15.5 -64.65L10.25 -60.05Q3.95 -54.85 -0.25 -54.85L-10.7 -55.7L-15.95 -55.8L-23.95 -55.15Q-25.6 -55.15 -27.05 -56.15L-28.65 -57.2Q-29.9 -57.2 -30.9 -56.25Q-31.9 -55.3 -33 -55.3L-34.8 -55.55L-34.75 -56.2L-34.7 -56.9L-34.85 -59.05L-26.65 -58.5Q-17.7 -58.15 -10.5 -58.15L-8.3 -58.25L-6.9 -58.35L-4 -57.85Q-1.35 -57.85 2.85 -59.2Q5.05 -59.85 6.6 -62.25L5.95 -62.65L7.5 -63.9L9.75 -66.1L12.55 -68.95L15.4 -71.95Q15.65 -71.05 16.6 -71.05L21.3 -71.75L21.2 -71.2L20.95 -71.2L20.95 -70L20.95 -69.25L22.1 -68.25Q22.9 -67.6 23.35 -67.6Q25.5 -67.6 25.5 -69.9Q25.5 -71.25 24.55 -71.7L22.7 -71.95L26.2 -72.4L31.5 -72.85L35.4 -72.7L35.8 -72.65L38.1 -72.55L38.1 -72.6L39.5 -72.85L41.2 -72.6Q41.95 -72.2 41.95 -70.95Q41.95 -70.4 41.55 -69.85Q41.45 -65 40.15 -62.5L40.2 -62M-19.25,-84.55L-14.85 -84.85Q-12.6 -84.85 -11.3 -83.4L-10.75 -82.75L-11.55 -82.8Q-17.8 -82.8 -21.3 -81.9L-20.75 -84.75L-19.25 -84.55M39.1,-72.45L38.25 -72.55L38.1 -72.55L37.2 -71.1Q37.2 -70.1 38.1 -69.55Q38.9 -69.05 39.85 -69.05Q40.8 -69.05 41.45 -69.75L41.55 -69.85L41.55 -70.45Q41.55 -71.9 40.85 -72.25L40.65 -72.3L39.85 -72.55L39.1 -72.45M8.2,-85.8L8.15 -86.05Q8 -87.7 9.1 -88.3Q9.5 -88.55 10.1 -88.6L12.4 -88.95Q12.25 -85.55 11.9 -84.55Q11.35 -82.95 8.15 -82.8L8.2 -85.8M21.3,-71.8L22.4 -71.95L22.7 -71.95L21.3 -71.75L21.3 -71.8M-18.6,-37.4L-20.85 -37.45L-21.3 -38.05L-21.55 -38.95L-21.55 -39L-21.55 -39.15L-21.55 -39.8L-21.35 -40.25L-19.7 -40L-17.05 -40.2Q-15.7 -40.2 -14.25 -38.5L-14.15 -38.4Q-13.85 -39.75 -14.1 -40.95Q-14.9 -41.55 -15.5 -41.75L-17.1 -41.95L-18.05 -41.9L-18.35 -43.8L-18.25 -44.4L-16.55 -44L-13.2 -43.95L-9.7 -43.5L-6.75 -43.25L-5.1 -43.5Q-2.35 -43.5 -0.6 -42.15Q1.45 -40.6 1.45 -37.7L0.95 -35.4L0.6 -34.15Q0.05 -32.3 -0.15 -30.6L-0.15 -30.55L-0.25 -28.7L0.1 -27.1L0 -27.05L-0.2 -26.9L-0.3 -26.85L-0.45 -26.75L-0.5 -26.75L-0.6 -26.7L-0.6 -26.65Q-2.45 -25.8 -6.25 -25.7L-10.4 -25.75L-16 -25.85Q-17.2 -25.85 -17.35 -26.45L-17.3 -28.1L-17.6 -28.1Q-19.2 -28.1 -19.85 -28.6Q-20.6 -29.2 -20.6 -30.75L-20.55 -31.5L-20.3 -31.3Q-19.85 -31 -19.05 -31L-17.75 -31.2L-16.25 -31.45Q-15.55 -31.45 -14.25 -30.75L-13.9 -30.55L-13.85 -31.25Q-13.85 -32.45 -15.1 -32.85L-17.75 -33.15L-18 -33.15L-18.05 -33.15L-18.1 -33.4L-18.35 -33.4Q-18.35 -35.65 -18.6 -36.65L-18.6 -37.4" />
<path style="fill:#E9B669;fill-opacity:1" d="M18.6,-99.4L22.15 -99.7L28.1 -99.35L34.3 -99Q36.5 -99 38.9 -97.2Q41.5 -95.25 41.45 -93.05L41.45 -91.85L40.65 -91.75L37.4 -95.8Q37.05 -96.25 35.25 -96.55L31.7 -96.85L19.85 -97L19.85 -97.05L20.05 -97.05L19.85 -97.1L19.85 -97.05L12.45 -96.65L7.25 -96.25L4.85 -96.35Q4.25 -96.45 3.8 -96.65L5.7 -98.25Q8.3 -99.75 11 -99.45L11.2 -99.4Q13.95 -99.15 18.6 -99.4M21.3,-71.75L16.6 -71.05Q15.65 -71.05 15.4 -71.95L15.5 -72.1Q17.4 -74.1 22.25 -75.2L29.6 -76.35L34.7 -76.65L36.45 -76.7L40.25 -76.7L43.1 -76.3L45.45 -75.95L45.45 -73.55Q44.45 -65.95 43.3 -62.4L42.9 -62.35L40.2 -62L40.15 -62.5Q41.45 -65 41.55 -69.85Q41.95 -70.4 41.95 -70.95Q41.95 -72.2 41.2 -72.6L39.5 -72.85L38.1 -72.6L38.1 -72.55L35.8 -72.65L35.4 -72.7L31.5 -72.85L26.2 -72.4L22.7 -71.95L22.4 -71.95L21.3 -71.8L21.3 -71.75M-28.6,-60.45L-23.2 -60.75L-19.6 -60.95L-4.55 -60.45L-0.35 -60.65L-0.15 -60.7L2.55 -61.2Q4.55 -61.75 5.95 -62.65L6.6 -62.25Q5.05 -59.85 2.85 -59.2Q-1.35 -57.85 -4 -57.85L-6.9 -58.35L-8.3 -58.25L-10.5 -58.15Q-17.7 -58.15 -26.65 -58.5L-34.85 -59.05L-34.85 -59.1Q-34.6 -60.5 -33.25 -60.7L-31.05 -60.5L-28.6 -60.45M-10.75,-82.75L-11.3 -83.4Q-12.6 -84.85 -14.85 -84.85L-19.25 -84.55L-20.75 -84.75L-20.65 -85.55Q-20.3 -86.6 -18.55 -86.6L-13.2 -86.9Q-8.4 -86.45 -8.4 -82.45L-10.75 -82.75M39.85,-72.55L40.65 -72.3Q41.05 -72 41.05 -71.4Q41.05 -70.4 40.1 -70.4Q39.25 -70.4 38.85 -71.15L38.6 -71.9Q38.6 -72.35 39.1 -72.45L39.85 -72.55M22.5,-70.6Q22.5 -71.7 23.85 -71.4Q25.15 -71.1 25.15 -69.85Q25.15 -69.1 24.15 -69.1Q22.95 -69.1 22.6 -69.9L22.5 -70.6M-10.4,-45.6L-5.95 -45.95L-0.05 -45.45Q3.45 -44.5 3.45 -41.7L3.35 -37.55L2.85 -33.1L2.85 -33Q2 -28.55 0.1 -27.1L-0.25 -28.7L-0.15 -30.55L-0.15 -30.6Q0.05 -32.3 0.6 -34.15L0.95 -35.4L1.45 -37.7Q1.45 -40.6 -0.6 -42.15Q-2.35 -43.5 -5.1 -43.5L-6.75 -43.25L-9.7 -43.5L-13.2 -43.95L-16.55 -44L-18.25 -44.4Q-17.95 -45.95 -15.85 -45.95L-12.9 -45.5L-12.35 -45.45L-10.4 -45.6M-19.95,-41.75L-18.2 -41.9L-18.1 -41.9L-18.05 -41.9L-17.1 -41.95L-15.5 -41.75Q-14.9 -41.55 -14.1 -40.95Q-13.85 -39.75 -14.15 -38.4L-14.25 -38.5Q-15.7 -40.2 -17.05 -40.2L-19.7 -40L-21.35 -40.25Q-20.85 -41.45 -19.95 -41.75M-20.55,-31.6L-20.5 -32.45L-20.45 -32.6L-20.35 -32.9L-18.05 -33.15L-18 -33.15L-17.75 -33.15L-15.1 -32.85Q-13.85 -32.45 -13.85 -31.25L-13.9 -30.55L-14.25 -30.75Q-15.55 -31.45 -16.25 -31.45L-17.75 -31.2L-19.05 -31Q-19.85 -31 -20.3 -31.3L-20.55 -31.5L-20.55 -31.6" />
<path style="fill:#B67E28;fill-opacity:1" d="M33.35,-53.6L18.6 -52.25L7.4 -51.45L2.7 -51.8L-1.8 -52.2L-22.1 -52.45L-26.2 -52.05L-30.7 -51.7L-31.6 -51.75Q-33.1 -51.95 -33.85 -52.7Q-34.8 -53.6 -34.8 -55.5L-34.8 -55.55L-33 -55.3Q-31.9 -55.3 -30.9 -56.25Q-29.9 -57.2 -28.65 -57.2L-27.05 -56.15Q-25.6 -55.15 -23.95 -55.15L-15.95 -55.8L-10.7 -55.7L-0.25 -54.85Q3.95 -54.85 10.25 -60.05L15.5 -64.65L16.2 -65.3Q17.75 -65.3 18.9 -62.4Q20 -59.55 21.85 -59.55Q23.8 -59.55 27.45 -61.75L30.8 -64Q31.55 -64 32.5 -62.7Q33.45 -61.45 34.8 -61.45L39.9 -61.95L40.2 -62L42.9 -62.35L43 -61.6Q41.65 -58.3 39.5 -56.35Q37.35 -54.45 34.45 -53.8L33.35 -53.6M8.15,-82.8L7.5 -82.8L7 -82.8Q5.85 -82.95 5.5 -83.75Q5.25 -84.4 5.25 -87L5.15 -88.65L5.05 -90.95L5.05 -91.55L12.05 -91.2L12.45 -91.2L12.4 -88.95L10.1 -88.6Q9.5 -88.55 9.1 -88.3Q8 -87.7 8.15 -86.05L8.2 -85.8L8.15 -82.8M40.85,-72.25Q41.55 -71.9 41.55 -70.45L41.55 -69.85L41.45 -69.75Q40.8 -69.05 39.85 -69.05Q38.9 -69.05 38.1 -69.55Q37.2 -70.1 37.2 -71.1L38.1 -72.55L38.25 -72.55L39.1 -72.45Q38.6 -72.35 38.6 -71.9L38.85 -71.15Q39.25 -70.4 40.1 -70.4Q41.05 -70.4 41.05 -71.4Q41.05 -72 40.65 -72.3L40.85 -72.25M21.2,-71.2L21.3 -71.75L22.7 -71.95L24.55 -71.7Q25.5 -71.25 25.5 -69.9Q25.5 -67.6 23.35 -67.6Q22.9 -67.6 22.1 -68.25L20.95 -69.25L20.95 -70L21.2 -71.2M22.6,-69.9Q22.95 -69.1 24.15 -69.1Q25.15 -69.1 25.15 -69.85Q25.15 -71.1 23.85 -71.4Q22.5 -71.7 22.5 -70.6L22.6 -69.9" />
<path style="fill:#434343;fill-opacity:1" d="M29.05,-80.95L21.7 -80.7Q18.9 -80.95 17.85 -82.45L18.75 -83.1Q20.05 -83.9 21.15 -84.2L24.4 -85L26.6 -85.1L26.65 -85.2Q26.75 -85.1 26.85 -85.1L26.6 -85.1L28.6 -84.95L31.9 -84.75L32.3 -83.95Q33.3 -81.95 33.5 -80.95L29.05 -80.95" />
<path style="fill:#5C9142;fill-opacity:1" d="M13.4,-104.1Q13.15 -104.1 12.95 -103.6L12.75 -102.95Q12.75 -102.35 13.35 -102L13.8 -102L14.6 -101.75L14.9 -101.95L15.35 -101.85L15.65 -101.95L16.2 -101.8Q17.35 -101.8 17.7 -102.15L17.95 -103.05Q17.95 -103.8 17.35 -104L15.35 -104.15L14.1 -104L13.4 -104.1M11.2,-99.4Q10.3 -103.45 12.1 -104.65Q13.25 -105.45 16.95 -105.45Q19 -105.45 18.95 -102.6Q18.6 -100.3 18.6 -99.4Q13.95 -99.15 11.2 -99.4M-4.05,-66.15L-4.7 -68.4Q-8.3 -68.25 -11.25 -68.45L-18.45 -69.6Q-21.5 -70.25 -22.4 -70.6Q-24.4 -71.4 -24.55 -72.75L-24.65 -76.85Q-24.85 -78.25 -25.6 -79.1L-24.9 -80.1L-24.4 -80.5Q-23.7 -79.95 -22.2 -79.95L-18.1 -80.35L-12.15 -80.1L-9.25 -79.85Q-7.4 -79.35 -6.55 -78.3Q-5.45 -77 -5.2 -72.3L-4.7 -68.4L-2.85 -68.55L-2.35 -65.7L-4.05 -66.15M16.1,-102.45L15.95 -102.45L15.95 -102.6L16.1 -102.45M19.5,-76.05Q17.4 -76.05 15.35 -74.5Q13.25 -73 11.75 -73Q10.35 -73 9.85 -73.65Q9.35 -74.3 9.35 -75.95L9.8 -77.65L10.6 -79.35L11.95 -80.3Q12.8 -80.85 13 -81.45L14.15 -85.45Q14.75 -86.95 16.2 -86.95L17.75 -87.05L18.6 -87.1Q17.2 -86.25 17.2 -84.75Q17.2 -83.85 17.5 -83.15L17.4 -83.05Q16.7 -82.2 16.7 -81.25Q16.7 -79.65 18 -79.3L21.5 -79L24.15 -78.65L26.9 -78.45L32.8 -78.85L34.1 -78.55Q34.85 -78.2 34.85 -77.65L34.7 -76.65L29.6 -76.35L22.25 -75.2Q20.8 -76.05 19.5 -76.05M-8.25,-75.75L-9.5 -75.95Q-10.6 -75.95 -11.25 -74.85L-12.15 -72.75L-12.45 -71.95L-12.45 -71.7L-9.85 -71.45L-7.3 -71.7L-7.3 -74.75L-8.25 -75.75M-20.9,-72Q-19.9 -72 -19.25 -72.85Q-18.65 -73.55 -18.65 -74.25Q-18.65 -75.95 -20.6 -76.6Q-22.55 -77.25 -22.55 -73.95L-22.55 -72.95Q-22.3 -72 -20.9 -72M-17.35,-73.3Q-18.3 -73.45 -18.3 -72.55Q-18.2 -71.95 -17.1 -71.25L-16.3 -71.55L-16.15 -72.25Q-16.4 -73.1 -17.35 -73.3" />
<path style="fill:#3C6229;fill-opacity:1" d="M-7.3,-74.75L-7.3 -71.7L-9.85 -71.45L-12.45 -71.7L-12.45 -71.95L-12.15 -72.75L-11.25 -74.85Q-10.6 -75.95 -9.5 -75.95L-8.25 -75.75L-7.3 -74.75" />
<path style="fill:#4B7735;fill-opacity:1" d="M7.6,-69.5L4.35 -69.9L5.75 -76.15L6.75 -81.05L7 -82.8L7.5 -82.8L8.15 -82.8Q11.35 -82.95 11.9 -84.55Q12.25 -85.55 12.4 -88.95L12.45 -91.2L19.4 -91.5L26.75 -91.85L32.9 -91.55L32.85 -88.05L30.75 -88.25L24.2 -88.4Q20.35 -88.2 18.6 -87.1L17.75 -87.05L16.2 -86.95Q14.75 -86.95 14.15 -85.45L13 -81.45Q12.8 -80.85 11.95 -80.3L10.6 -79.35L9.8 -77.65L9.35 -75.95Q9.35 -74.3 9.85 -73.65Q10.35 -73 11.75 -73Q13.25 -73 15.35 -74.5Q17.4 -76.05 19.5 -76.05Q20.8 -76.05 22.25 -75.2Q17.4 -74.1 15.5 -72.1L15.4 -71.95L12.55 -68.95L7.6 -69.5M-12,-66.7Q-19.2 -66.7 -23.65 -65.7L-28.55 -65Q-27.65 -75.6 -25.6 -79.1Q-24.85 -78.25 -24.65 -76.85L-24.55 -72.75Q-24.4 -71.4 -22.4 -70.6Q-21.5 -70.25 -18.45 -69.6L-11.25 -68.45Q-8.3 -68.25 -4.7 -68.4L-4.05 -66.15L-12 -66.7M-22.55,-72.95L-22.55 -73.95Q-22.55 -77.25 -20.6 -76.6Q-18.65 -75.95 -18.65 -74.25Q-18.65 -73.55 -19.25 -72.85Q-19.9 -72 -20.9 -72Q-22.3 -72 -22.55 -72.95M-16.15,-72.25L-16.3 -71.55L-17.1 -71.25Q-18.2 -71.95 -18.3 -72.55Q-18.3 -73.45 -17.35 -73.3Q-16.4 -73.1 -16.15 -72.25" />
<path style="fill:#7FBD61;fill-opacity:1" d="M17.85,-82.45Q18.9 -80.95 21.7 -80.7L29.05 -80.95L33.5 -80.95L35.25 -80.95Q36.65 -80.9 36.7 -78.95L36.45 -76.7L34.7 -76.65L34.85 -77.65Q34.85 -78.2 34.1 -78.55L32.8 -78.85L26.9 -78.45L24.15 -78.65L21.5 -79L18 -79.3Q16.7 -79.65 16.7 -81.25Q16.7 -82.2 17.4 -83.05L17.5 -83.15Q17.6 -82.75 17.85 -82.45M-8.4,-82.45Q-4.8 -81.55 -3.95 -78.2Q-3.55 -72.85 -2.85 -68.55L-4.7 -68.4L-5.2 -72.3Q-5.45 -77 -6.55 -78.3Q-7.4 -79.35 -9.25 -79.85L-12.15 -80.1L-18.1 -80.35L-22.2 -79.95Q-23.7 -79.95 -24.4 -80.5Q-23.3 -81.35 -21.3 -81.9Q-17.8 -82.8 -11.55 -82.8L-10.75 -82.75L-8.4 -82.45" />
<path style="fill:#619191;fill-opacity:1" d="M-0.15,-60.7L0.55 -62.05L-3.55 -63.4L-10.55 -63.7Q-13.6 -63.15 -18.2 -63.6L-24.65 -64.2Q-25.7 -64.2 -27.2 -63.45Q-28.7 -62.7 -29.3 -62.7L-30.7 -62.95Q-30.1 -64.5 -28.65 -65L-28.55 -65L-23.65 -65.7Q-19.2 -66.7 -12 -66.7L-4.05 -66.15L-2.35 -65.7L-2.2 -65.65L-2 -65.6L-0.9 -65.1Q1.2 -64 0.55 -62.05M-0.65,-68.05Q0.1 -70 3 -70L4.35 -69.9L7.6 -69.5L12.55 -68.95L9.75 -66.1L-0.65 -68.05M0.55,-62.05L2.55 -61.2L-0.15 -60.7" />
<path style="fill:#4A7777;fill-opacity:1" d="M-29.15,-43.9L-31.6 -51.7L-31.6 -51.75L-30.7 -51.7L-26.2 -52.05L-22.1 -52.45L-1.8 -52.2L2.7 -51.8L7.4 -51.45L18.6 -52.25L33.35 -53.6L34.3 -53.2Q33 -50.6 31.85 -46.7Q30.45 -47.25 29.3 -48.05Q28 -48.95 25.15 -48.95L23.25 -48.8L23.2 -48.8L17.4 -47.95L4.95 -46.95L-0.9 -47.45L-5.7 -46.95L-10.45 -47.2L-14.1 -47.45L-19.4 -46.45L-19.45 -46.45L-29.15 -43.9M-20.65,-3.95L-23.05 -3.1L-23.2 -3.8L-20.65 -3.95M9.75,-66.1L7.5 -63.9L5.95 -62.65Q4.55 -61.75 2.55 -61.2L0.55 -62.05L-0.15 -60.7L-0.35 -60.65L-4.55 -60.45L-19.6 -60.95L-23.2 -60.75L-28.6 -60.45L-31.05 -60.5Q-31.05 -61.95 -30.7 -62.95L-29.3 -62.7Q-28.7 -62.7 -27.2 -63.45Q-25.7 -64.2 -24.65 -64.2L-18.2 -63.6Q-13.6 -63.15 -10.55 -63.7L-3.55 -63.4L0.55 -62.05Q1.2 -64 -0.9 -65.1Q-1.15 -66.9 -0.65 -68.05L9.75 -66.1M-20.6,-32L-20.55 -31.6L-20.55 -31.5L-20.6 -30.75Q-20.6 -29.2 -19.85 -28.6Q-19.2 -28.1 -17.6 -28.1L-17.3 -28.1L-17.35 -26.45Q-17.2 -25.85 -16 -25.85L-10.4 -25.75L-6.25 -25.7Q-2.45 -25.8 -0.6 -26.65L-0.6 -26.7Q-0.25 -25.85 -0.25 -25.2Q-0.25 -23.6 -0.6 -23.35Q-0.9 -23.1 -2.95 -22.2L-5.2 -21.5L-8.4 -21.05L-10.4 -21.4L-11.1 -21.6L-13.35 -22.2L-16.45 -21.25L-18.7 -20.3L-19.85 -20.5Q-20.2 -20.75 -20.2 -21.55Q-20.2 -22.2 -19.8 -23.05Q-19.4 -23.9 -19.4 -25.5Q-19.4 -26.6 -19.7 -26.85Q-19.85 -27.05 -21.1 -27.5Q-21.55 -27.65 -22.3 -29.15L-23 -30.85Q-23 -31.85 -21.9 -33.55L-21.65 -33.45L-21.85 -33.6L-21.7 -33.85L-20.4 -35.55Q-20.4 -36.05 -21.5 -36.55Q-22.65 -37.1 -22.65 -37.75Q-22.65 -38.45 -21.75 -38.95L-21.6 -39L-21.55 -38.95L-21.3 -38.05L-20.85 -37.45L-18.6 -37.4L-18.6 -36.65Q-18.35 -35.65 -18.35 -33.4L-18.1 -33.4L-18.05 -33.15L-20.35 -32.9L-20.45 -32.6L-20.5 -32.45L-20.6 -32" />
<path style="fill:#BF5D5D;fill-opacity:1" d="M-20.65,-3.95L-14.8 -4.2L-14.5 -4.2L8.65 -3.2L11.4 -2.95L24.15 -2.2L25 -2.2Q24.1 0.05 22.8 1.45Q19.15 5.3 7.5 5.3L0.1 5.3L-6.5 5.3L-14.35 4.85Q-21.05 4.85 -23.05 -3.1L-20.65 -3.95" />
<path style="fill:#ECBEBE;fill-opacity:1" d="M24.15,-2.2L11.4 -2.95L11.6 -5.4L23.4 -4.95L25.85 -5L25 -2.2L24.15 -2.2M-23.2,-3.8L-23.45 -5.2L-23.55 -5.95L-14.85 -5.95L-8.1 -6.65L-2.45 -6.7L8.2 -5.8L11.5 -5.4L11.4 -2.95L8.65 -3.2L-14.5 -4.2L-14.8 -4.2L-20.65 -3.95L-23.2 -3.8" />
<path style="fill:#609393;fill-opacity:1" d="M-19.45,-46.45L-19.4 -46.45L-14.1 -47.45L-10.45 -47.2L-5.7 -46.95L-0.9 -47.45L4.95 -46.95L17.4 -47.95L23.2 -48.8L23.25 -48.8L25.15 -48.95Q28 -48.95 29.3 -48.05Q30.45 -47.25 31.85 -46.7Q30.65 -42.65 29.6 -37.2L28.65 -31.4L27.45 -22.7L26.95 -18.7Q27.05 -13.6 26.6 -9.7L25.85 -5L23.4 -4.95L11.6 -5.4L11.4 -2.95L11.5 -5.4L8.2 -5.8L-2.45 -6.7L-8.1 -6.65L-14.85 -5.95L-23.55 -5.95L-24 -14.15L-24 -15.95L-24.35 -22.45Q-25.3 -29.95 -27.5 -38.15L-29.15 -43.9L-19.45 -46.45M-10.4,-21.4L-8.4 -21.05L-5.2 -21.5L-2.95 -22.2Q-0.9 -23.1 -0.6 -23.35Q-0.25 -23.6 -0.25 -25.2Q-0.25 -25.85 -0.6 -26.7L-0.5 -26.75L-0.45 -26.75L-0.3 -26.85L-0.2 -26.9L0 -27.05L0.1 -27.1Q2 -28.55 2.85 -33L2.85 -33.1L3.35 -37.55L3.45 -41.7Q3.45 -44.5 -0.05 -45.45L-5.95 -45.95L-10.4 -45.6L-12.35 -45.45L-12.9 -45.5L-15.85 -45.95Q-17.95 -45.95 -18.25 -44.4L-18.35 -43.8L-18.05 -41.9L-18.1 -41.9L-18.2 -41.9L-19.95 -41.75Q-20.85 -41.45 -21.35 -40.25L-21.55 -39.8L-21.55 -39.15L-21.55 -39L-21.55 -38.95L-21.6 -39L-21.75 -38.95Q-22.65 -38.45 -22.65 -37.75Q-22.65 -37.1 -21.5 -36.55Q-20.4 -36.05 -20.4 -35.55L-21.7 -33.85L-21.85 -33.6L-21.65 -33.45L-21.9 -33.55Q-23 -31.85 -23 -30.85L-22.3 -29.15Q-21.55 -27.65 -21.1 -27.5Q-19.85 -27.05 -19.7 -26.85Q-19.4 -26.6 -19.4 -25.5Q-19.4 -23.9 -19.8 -23.05Q-20.2 -22.2 -20.2 -21.55Q-20.2 -20.75 -19.85 -20.5L-18.7 -20.3L-16.45 -21.25L-13.35 -22.2L-11.1 -21.6L-10.4 -21.4M22.25,-47.15L21.05 -45.9L20.65 -45.3Q20 -44 20 -42.85Q20 -41.55 20.25 -41Q20.6 -40.35 21.55 -40.35Q23 -40.35 24.3 -42.2Q25.5 -43.95 25.5 -45.55Q25.5 -46.6 24.75 -47.35Q24.1 -48.1 23.25 -48.1L22.25 -47.2L22.25 -47.15M-20.5,-32.45L-20.55 -31.6L-20.6 -32L-20.5 -32.45" />
<path style="fill:#2F4F4F;fill-opacity:1" d="M22.25,-47.2L23.25 -48.1Q24.1 -48.1 24.75 -47.35Q25.5 -46.6 25.5 -45.55Q25.5 -43.95 24.3 -42.2Q23 -40.35 21.55 -40.35Q20.6 -40.35 20.25 -41Q20 -41.55 20 -42.85Q20 -44 20.65 -45.3L21.05 -45.9L22.25 -47.15L22.25 -47.2" />
<path style="fill:#2E2D2D;fill-opacity:1" d="M17.5,-83.15Q17.2 -83.85 17.2 -84.75Q17.2 -86.25 18.6 -87.1Q20.35 -88.2 24.2 -88.4L30.75 -88.25L30.75 -87.8Q31.05 -86.55 31.9 -84.75L28.6 -84.95L26.6 -85.1L26.85 -85.1Q26.75 -85.1 26.65 -85.2L26.6 -85.1L24.4 -85L21.15 -84.2Q20.05 -83.9 18.75 -83.1L17.85 -82.45Q17.6 -82.75 17.5 -83.15" />
<path style="fill:#8CC66F;fill-opacity:1" d="M14.1,-104L15.35 -104.15L17.35 -104Q17.95 -103.8 17.95 -103.05L17.7 -102.15Q17.35 -101.8 16.2 -101.8L15.65 -101.95L15.35 -101.85L14.9 -101.95L14.6 -101.75L13.8 -102L13.35 -102Q12.75 -102.35 12.75 -102.95L12.95 -103.6Q13.15 -104.1 13.4 -104.1L14.1 -104M15.95,-102.6L15.95 -102.45L16.1 -102.45L15.95 -102.6" />
<path style="fill:none;stroke-width:1;stroke-linecap:butt;stroke-linejoin:miter;stroke-miterlimit:3;stroke:#333333;stroke-opacity:1" d="M30.75,-88.25L30.75 -87.8Q31.05 -86.55 31.9 -84.75L32.3 -83.95Q33.3 -81.95 33.5 -80.95M43.3,-62.4L43 -61.6M34.45,-53.8L34.35 -53.25L34.3 -53.2M25.85,-5L25 -2.2M-23.05,-3.1L-23.2 -3.8M2.95,-92.1L2.7 -92.3L2.95 -92.6M30.75,-88.25L24.2 -88.4Q20.35 -88.2 18.6 -87.1Q17.2 -86.25 17.2 -84.75Q17.2 -83.85 17.5 -83.15Q17.6 -82.75 17.85 -82.45Q18.9 -80.95 21.7 -80.7L29.05 -80.95L33.5 -80.95M20.95,-70L21.2 -71.2" />
<path style="fill:none;stroke-width:1;stroke-linecap:butt;stroke-linejoin:miter;stroke-miterlimit:3;stroke:#1E3535;stroke-opacity:1" d="M34.3,-53.2Q33 -50.6 31.85 -46.7Q30.65 -42.65 29.6 -37.2L28.65 -31.4L27.45 -22.7L26.95 -18.7Q27.05 -13.6 26.6 -9.7L25.85 -5M25,-2.2Q24.1 0.05 22.8 1.45Q19.15 5.3 7.5 5.3L0.1 5.3L-6.5 5.3L-14.35 4.85Q-21.05 4.85 -23.05 -3.1M-23.2,-3.8L-23.45 -5.2L-23.55 -5.95L-24 -14.15L-24 -15.95L-24.35 -22.45Q-25.3 -29.95 -27.5 -38.15L-29.15 -43.9L-31.6 -51.7L-31.6 -51.75M-31.05,-60.5Q-31.05 -61.95 -30.7 -62.95Q-30.1 -64.5 -28.65 -65L-28.55 -65L-23.65 -65.7Q-19.2 -66.7 -12 -66.7L-4.05 -66.15L-2.35 -65.7L-2.2 -65.65L-2 -65.6L-0.9 -65.1Q-1.15 -66.9 -0.65 -68.05Q0.1 -70 3 -70L4.35 -69.9L7.6 -69.5L12.55 -68.95M22.25,-47.15L21.05 -45.9L20.65 -45.3Q20 -44 20 -42.85Q20 -41.55 20.25 -41Q20.6 -40.35 21.55 -40.35Q23 -40.35 24.3 -42.2Q25.5 -43.95 25.5 -45.55Q25.5 -46.6 24.75 -47.35Q24.1 -48.1 23.25 -48.1L22.25 -47.2L22.25 -47.15M26.45,-9.3L26.6 -9.7M0.55,-62.05Q1.2 -64 -0.9 -65.1M-20.55,-31.6L-20.6 -32L-20.5 -32.45M0.55,-62.05L-0.15 -60.7" />
<path style="fill:none;stroke-width:1;stroke-linecap:butt;stroke-linejoin:miter;stroke-miterlimit:3;stroke:#5D4013;stroke-opacity:1" d="M12.45,-91.2L12.05 -91.2L5.05 -91.55Q3.6 -91.75 3 -92.1L2.95 -92.1L2.95 -92.6L2.95 -94.45Q3 -95.65 3.8 -96.65L5.7 -98.25Q8.3 -99.75 11 -99.45L11.2 -99.4Q13.95 -99.15 18.6 -99.4L22.15 -99.7L28.1 -99.35L34.3 -99Q36.5 -99 38.9 -97.2Q41.5 -95.25 41.45 -93.05L41.45 -91.85L40.65 -91.75L39.6 -91.6L37.75 -91.35L32.9 -91.55L26.75 -91.85L19.4 -91.5L12.45 -91.2L12.4 -88.95Q12.25 -85.55 11.9 -84.55Q11.35 -82.95 8.15 -82.8L7.5 -82.8L7 -82.8Q5.85 -82.95 5.5 -83.75Q5.25 -84.4 5.25 -87L5.15 -88.65L5.05 -90.95M34.7,-76.65L36.45 -76.7L40.25 -76.7L43.1 -76.3L45.45 -75.95L45.45 -73.55Q44.45 -65.95 43.3 -62.4M43,-61.6Q41.65 -58.3 39.5 -56.35Q37.35 -54.45 34.45 -53.8M-31.6,-51.75Q-33.1 -51.95 -33.85 -52.7Q-34.8 -53.6 -34.8 -55.5L-34.8 -55.55L-34.75 -56.2L-34.7 -56.9L-34.85 -59.05L-34.85 -59.1Q-34.6 -60.5 -33.25 -60.7L-31.05 -60.5M-21.3,-81.9L-20.75 -84.75L-20.65 -85.55Q-20.3 -86.6 -18.55 -86.6L-13.2 -86.9Q-8.4 -86.45 -8.4 -82.45M38.1,-72.55L37.2 -71.1Q37.2 -70.1 38.1 -69.55Q38.9 -69.05 39.85 -69.05Q40.8 -69.05 41.45 -69.75L41.55 -69.85Q41.95 -70.4 41.95 -70.95Q41.95 -72.2 41.2 -72.6L39.5 -72.85L38.1 -72.6L38.1 -72.55M22.7,-71.95L24.55 -71.7Q25.5 -71.25 25.5 -69.9Q25.5 -67.6 23.35 -67.6Q22.9 -67.6 22.1 -68.25L20.95 -69.25L20.95 -70L20.95 -71.2L21.2 -71.2L21.3 -71.75M34.7,-76.65L29.6 -76.35L22.25 -75.2Q17.4 -74.1 15.5 -72.1L15.4 -71.95L12.55 -68.95L9.75 -66.1L7.5 -63.9L5.95 -62.65M9.1,-88.3L8.35 -88.6L7.8 -88.35L7.5 -88.05L7.15 -87.75L7 -87.55L6.85 -87Q6.85 -86.4 7.4 -86.05L8.2 -85.8L8.35 -85.8Q9.35 -85.8 9.35 -87.45L9.1 -88.3M-31.6,-51.75L-30.7 -51.7L-26.2 -52.05L-22.1 -52.45L-1.8 -52.2L2.7 -51.8L7.4 -51.45L18.6 -52.25L33.35 -53.6L34.45 -53.8M2.55,-61.2Q4.55 -61.75 5.95 -62.65M2.55,-61.2L-0.15 -60.7L-0.35 -60.65L-4.55 -60.45L-19.6 -60.95L-23.2 -60.75L-28.6 -60.45L-31.05 -60.5M22.7,-71.95L22.4 -71.95L21.3 -71.8L21.3 -71.75M-18.05,-41.9L-18.1 -41.9L-18.2 -41.9L-19.95 -41.75Q-20.85 -41.45 -21.35 -40.25L-21.55 -39.8L-21.55 -39.15L-21.55 -39L-21.55 -38.95L-21.3 -38.05L-20.85 -37.45L-18.6 -37.4L-14.5 -37.4L-14.15 -38.4Q-13.85 -39.75 -14.1 -40.95Q-14.9 -41.55 -15.5 -41.75L-17.1 -41.95L-18.05 -41.9L-18.35 -43.8L-18.25 -44.4Q-17.95 -45.95 -15.85 -45.95L-12.9 -45.5L-12.35 -45.45L-10.4 -45.6L-5.95 -45.95L-0.05 -45.45Q3.45 -44.5 3.45 -41.7L3.35 -37.55L2.85 -33.1M0.1,-27.1Q2 -28.55 2.85 -33L2.85 -33.1M0.1,-27.1L0 -27.05L-0.2 -26.9L-0.3 -26.85L-0.45 -26.75L-0.5 -26.75L-0.6 -26.7M-21.3,-81.9Q-17.8 -82.8 -11.55 -82.8L-10.75 -82.75L-8.4 -82.45M-18.05,-33.15L-18 -33.15L-17.75 -33.15L-15.1 -32.85Q-13.85 -32.45 -13.85 -31.25L-13.9 -30.55L-14.1 -28.65L-17.3 -28.1L-17.35 -26.45Q-17.2 -25.85 -16 -25.85L-10.4 -25.75L-6.25 -25.7Q-2.45 -25.8 -0.6 -26.65M-18.6,-36.65Q-18.35 -35.65 -18.35 -33.4L-18.1 -33.4M-18.05,-33.15L-20.35 -32.9L-20.45 -32.6L-20.5 -32.45L-20.55 -31.6L-20.55 -31.5L-20.6 -30.75Q-20.6 -29.2 -19.85 -28.6Q-19.2 -28.1 -17.6 -28.1L-17.3 -28.1M-2.95,-35.55L-2.5 -35.15L-1.65 -34.9L-1 -35L-0.55 -35.65L-0.55 -36.9L-0.9 -37L-1.65 -37.3Q-2.2 -37.5 -2.6 -36.95Q-3.05 -36.4 -2.95 -35.55" />
<path style="fill:none;stroke-width:1;stroke-linecap:butt;stroke-linejoin:miter;stroke-miterlimit:3;stroke:#2A461C;stroke-opacity:1" d="M11.2,-99.4Q10.3 -103.45 12.1 -104.65Q13.25 -105.45 16.95 -105.45Q19 -105.45 18.95 -102.6Q18.6 -100.3 18.6 -99.4M32.9,-91.55L32.85 -88.05L30.75 -88.25M33.5,-80.95L35.25 -80.95Q36.65 -80.9 36.7 -78.95L36.45 -76.7M-28.55,-65Q-27.65 -75.6 -25.6 -79.1L-24.9 -80.1L-24.4 -80.5Q-23.3 -81.35 -21.3 -81.9M-8.4,-82.45Q-4.8 -81.55 -3.95 -78.2Q-3.55 -72.85 -2.85 -68.55L-2.35 -65.7M4.35,-69.9L5.75 -76.15L6.75 -81.05L7 -82.8M-7.3,-74.75L-7.3 -71.7L-9.85 -71.45L-12.45 -71.7L-12.45 -71.95L-12.15 -72.75L-11.25 -74.85Q-10.6 -75.95 -9.5 -75.95L-8.25 -75.75L-7.3 -74.75" />
<path style="fill:none;stroke-width:1;stroke-linecap:butt;stroke-linejoin:miter;stroke-miterlimit:3;stroke:#3B6464;stroke-opacity:1" d="M-10.45,-47.2L-10.4 -45.6M2.85,-33.1L7.4 -33.1L18.15 -32.15L28.65 -31.4M-10.4,-21.4L-10.35 -20.45Q-10.5 -16.9 -12.9 -16.35L-18.35 -15.95L-24 -15.95M27.45,-22.7L25.8 -22.75Q24.45 -22.1 22.4 -22.25L18.95 -22.55Q16.1 -22.55 15.45 -19.65Q15.25 -18.8 15.25 -14.3Q15.25 -9.7 17.7 -9.45L21.2 -9.55L26.45 -9.3M-10.45,-47.2L-10.6 -50.05L-10.4 -51.75M-10.4,-21.4Q-10.6 -24.55 -10.4 -25.75" />
</g>
</svg>
