<?xml version="1.0" encoding="utf-8"?>
<svg version="1.1" id="Layer_1"
xmlns="http://www.w3.org/2000/svg"
xmlns:xlink="http://www.w3.org/1999/xlink"
xmlns:author="http://www.sothink.com"
width="41px" height="22px"
xml:space="preserve">
<g id="195" transform="matrix(1, 0, 0, 1, 14.45, 10.3)">
<path style="fill:#F58D48;fill-opacity:1" d="M21.9,1.3Q21.4 1.35 20.7 1.95L19.6 2.7L19.5 2.75L19.55 -2L19.6 -3.75L19.6 -4.6L19.2 -6.4L19.65 -6.55Q21.6 -6.55 22.05 -5L22.15 -4.45L22.25 -2.2L22.25 -0.75L22.25 1.3L21.9 1.3" />
<path style="fill:#8C8CB6;fill-opacity:1" d="M19.2,-6.4L19.6 -4.6L19.6 -3.75L19.55 -2L19.5 2.75L17.8 3.1L16.25 3.05L11.3 2.35L6.8 1.65L2.15 2.2L-1.65 2.7L-4.55 2.4L-7.35 2.15Q-8.35 2.2 -9.45 1.05L-10.1 0.4L-10.15 -3.25L-10.15 -4.25L-10.05 -5.6Q-9.65 -9.7 -6.5 -9.45L6.35 -8.7L16.4 -8.3L17.75 -8.3Q18.55 -7.85 19.1 -6.55L19.15 -6.5L19.2 -6.4M25.1,1L22.25 1.3L22.25 -0.75L22.25 -2.2L22.15 -4.45L23.5 -4.45Q25.1 -4.1 25.3 -3.7L25.45 -1.8L25.4 1.05L25.1 1" />
<path style="fill:#6E6E98;fill-opacity:1" d="M22.15,3.7L22.25 1.3L25.1 1L25.4 1.05L25.25 3.45Q25.2 4.1 24 4.55L21.95 4.7L21.95 4.6L22.15 3.7M-9.9,4.75L-10.1 0.4L-9.45 1.05Q-8.35 2.2 -7.35 2.15L-4.55 2.4L-1.65 2.7L2.15 2.2L6.8 1.65L11.3 2.35L16.25 3.05L17.8 3.1L19.5 2.75L19.35 4.05L18.7 5.8Q17.8 7 16.15 7.35L-4.8 10.05L-5.85 10.15Q-8.8 10.15 -9.7 5.8L-9.9 4.75" />
<path style="fill:#FF6600;fill-opacity:1" d="M19.35,4.05L19.5 2.75L19.6 2.7L20.7 1.95Q21.4 1.35 21.9 1.3L22.25 1.3L22.15 3.7L21.95 4.6Q21.45 6.25 20.1 6.25Q18.95 6.25 18.7 5.8L19.35 4.05M-9.7,5.8L-11.5 5.9Q-12.8 5.9 -13.2 5.05Q-13.5 4.4 -13.5 2.6L-13.95 -2.65L-13.95 -3.05L-11.85 -3.45L-10.55 -3.3L-10.15 -3.25L-10.1 0.4L-9.9 4.75L-9.7 5.8" />
<path style="fill:#FF9B58;fill-opacity:1" d="M-10.55,-3.3L-11.85 -3.45L-13.95 -3.05Q-13.85 -4.5 -13.2 -5.1Q-12.55 -5.7 -10.85 -5.7L-10.35 -5.55L-10.05 -5.6L-10.15 -4.25L-10.15 -3.25L-10.55 -3.3" />
<path style="fill:none;stroke-width:1;stroke-linecap:butt;stroke-linejoin:miter;stroke-miterlimit:3;stroke:#585454;stroke-opacity:1" d="M-10.05,-5.6Q-9.65 -9.7 -6.5 -9.45L6.35 -8.7L16.4 -8.3L17.75 -8.3Q18.55 -7.85 19.1 -6.55L19.15 -6.5L19.65 -6.55M22.15,-4.45L23.5 -4.45Q25.1 -4.1 25.3 -3.7L25.45 -1.8L25.4 1.05L25.25 3.45Q25.2 4.1 24 4.55L21.95 4.7L21.95 4.6M19.5,2.75L19.35 4.05L18.7 5.8Q17.8 7 16.15 7.35L-4.8 10.05L-5.85 10.15Q-8.8 10.15 -9.7 5.8M-10.05,-5.6L-10.15 -4.25L-10.15 -3.25L-10.1 0.4L-9.9 4.75L-9.7 5.8M19.5,2.75L19.55 -2L19.6 -3.75L19.6 -4.6L19.2 -6.4L19.15 -6.5" />
<path style="fill:none;stroke-width:1;stroke-linecap:butt;stroke-linejoin:miter;stroke-miterlimit:3;stroke:#C65307;stroke-opacity:1" d="M19.65,-6.55Q21.6 -6.55 22.05 -5L22.15 -4.45M22.25,1.3L22.15 3.7L21.95 4.6Q21.45 6.25 20.1 6.25Q18.95 6.25 18.7 5.8M-9.7,5.8L-11.5 5.9Q-12.8 5.9 -13.2 5.05Q-13.5 4.4 -13.5 2.6L-13.95 -2.65L-13.95 -3.05Q-13.85 -4.5 -13.2 -5.1Q-12.55 -5.7 -10.85 -5.7L-10.35 -5.55M22.25,1.3L22.25 -0.75L22.25 -2.2L22.15 -4.45" />
<path style="fill:#B7B7DE;fill-opacity:1" d="M7.55,-7.3L10.6 -7.2L14.3 -7.15L16.7 -6.85Q18.05 -6.6 18.05 -5.65Q18.05 -4.85 17.55 -4.55L14.8 -4.15L9.95 -4.3Q8.9 -4.3 8 -3.9Q7.75 -3.8 6.2 -4.6L-0.05 -4.6L-0.4 -4.45L-6.5 -4.45Q-7.5 -4.85 -7.7 -5.35L-7.8 -6.1Q-7.8 -8.45 -4 -8.3L4.3 -7.6L7.55 -7.3M24.85,-1.8Q24.65 -1.4 23.95 -1.4Q23.2 -1.4 22.95 -2.05L22.85 -2.65Q22.85 -3.95 23.9 -3.8Q24.95 -3.6 24.95 -2.55L24.85 -1.8" />
<path style="fill:#595980;fill-opacity:1" d="M6.95,-2.5Q2.8 -2.5 2.8 -4.45Q2.8 -6.65 5.95 -6.3Q9.05 -6 9.05 -3.95Q9.05 -2.5 6.95 -2.5M7.15,-3.85Q7.15 -4.8 5.8 -4.8Q4.45 -4.8 4.45 -3.9Q4.45 -3 6.15 -3Q7.15 -3 7.15 -3.85M12.85,-1.75Q13.25 -2.45 14.5 -2.7Q17.75 -3 17.75 -0.5L17.2 0.95Q16.45 2.15 15.35 2.15Q13.6 2.15 12.95 0.85L12.65 -0.55L12.85 -1.75M14.05,-0.1L14.25 0.5Q14.55 1.15 15.35 1.15Q15.9 1.15 16.2 0.65L16.4 -0.05Q16.4 -1.05 15.25 -1.1Q14.05 -1.15 14.05 -0.1M8.7,5Q8.7 5.5 7.65 6.25Q6.35 7.15 4.65 7.15Q3.4 7.15 2.8 6.6Q2.4 6.2 2.4 5.75Q2.4 3.75 5.55 3.2Q8.7 2.7 8.7 5M5.7,3.8Q4.25 3.95 4.25 5Q3.9 5.65 5.65 5.65L6.9 5.5L7.1 5Q7.1 3.7 5.7 3.8M-4.1,-2.1Q-2.55 -2.15 -2 -1.25Q-1.25 -0.75 -1.25 0.1Q-1.25 0.8 -1.75 1.65L-2.6 2.55Q-3.15 3.15 -4 3.15Q-5.65 3.15 -6.3 1.85L-6.6 0.45L-6.6 0.25L-6.6 0.2Q-6.6 -1.2 -5.65 -1.65L-4.1 -2.1M-2.55,0.55Q-2.55 -0.6 -3.85 -0.4Q-5.2 -0.2 -5.2 0.7Q-5.1 2.15 -3.9 2.15Q-3.3 2.15 -2.9 1.5Q-2.55 1 -2.55 0.55" />
<path style="fill:#3D3D5F;fill-opacity:1" d="M6.15,-3Q4.45 -3 4.45 -3.9Q4.45 -4.8 5.8 -4.8Q7.15 -4.8 7.15 -3.85Q7.15 -3 6.15 -3M15.25,-1.1Q16.4 -1.05 16.4 -0.05L16.2 0.65Q15.9 1.15 15.35 1.15Q14.55 1.15 14.25 0.5L14.05 -0.1Q14.05 -1.15 15.25 -1.1M7.1,5L6.9 5.5L5.65 5.65Q3.9 5.65 4.25 5Q4.25 3.95 5.7 3.8Q7.1 3.7 7.1 5M-2.9,1.5Q-3.3 2.15 -3.9 2.15Q-5.1 2.15 -5.2 0.7Q-5.2 -0.2 -3.85 -0.4Q-2.55 -0.6 -2.55 0.55Q-2.55 1 -2.9 1.5" />
</g>
</svg>
