<?xml version="1.0" encoding="utf-8"?>
<svg version="1.1" id="Layer_1"
xmlns="http://www.w3.org/2000/svg"
xmlns:xlink="http://www.w3.org/1999/xlink"
xmlns:author="http://www.sothink.com"
width="74px" height="80px"
xml:space="preserve">
<g id="133" transform="matrix(1, 0, 0, 1, 31.05, 40.95)">
<path style="fill:#666666;fill-opacity:1" d="M29.45,22.9L28.95 22.7L29.7 22.65L29.75 23.05L29.45 22.9M29.9,24.45L30.05 26.15L29.9 26.15L29.9 24.45" />
<path style="fill:#666699;fill-opacity:1" d="M17,-36.7L17.9 -36.75L21.2 -36.9L24.95 -36.6L29.35 -36.25Q30.9 -36.2 31.35 -35.15Q31.6 -34.6 31.65 -32.6Q31.7 -31 32.2 -29.65L31.5 -29.65L29.75 -29.65L28.35 -29.95Q28.7 -30.4 27.6 -30.6L25.6 -30.8L17.8 -31L13.25 -31.1Q13.5 -31.9 13.85 -32.15L16.35 -33.05Q17.25 -33.3 17.25 -34.6L17 -36.7M-23.3,0.7L-25.35 0.6Q-26.45 0 -26.45 -2.5L-26.4 -4.6L-20.1 -3.4L-17.05 -3Q-16.6 -2.45 -16.65 -1.4Q-16.1 -1.4 -14.15 -2.2L-13.05 -2.6L-11.9 -2.6L-11.05 -2.6L-9.85 -2.6L-8.65 -2.6L-5.95 -2.8L-4 -3.25L-3.8 -3.35Q-2.2 -4.1 -2.2 -5.5Q-2.2 -6.3 -3.05 -7.25L-3.2 -7.4Q-2.75 -8.9 -2.95 -11.35L-2.85 -11.65Q-1.85 -10.45 -1.15 -10.2L2 -10.05L5.35 -10.2L8.95 -10.45L29.7 -9.4L41.9 -8.55Q41.5 -6.3 39.95 -5Q38.7 -3.95 37 -3.7L34.45 -3.75L31.5 -3.9L29.7 -3.85Q26.55 -3.8 25.5 -3.9L24 -3.95L20.95 -3.9L17.2 -3.9L13.3 -4.45L10.65 -4.5L3.55 -4.8L3.45 -1.85L3.3 -0.15L3.3 -0.1L3.3 0.1Q3.1 1.55 2.9 1.6L0.95 1.75L-1.45 1.8L-2.2 1.85L-5.6 1.8L-10.8 1.4L-11.3 1.35L-13.3 1.15L-16.8 0.85L-18.1 0.75L-23.3 0.7M-26.5,-6.6L-26.5 -6.65L-25.2 -6.7L-24.8 -6.7L-26.5 -6.6M-15.45,-22.65L-16.65 -21.35L-17.1 -21Q-19.15 -19.6 -21.65 -20.05L-22.3 -20.25Q-23.7 -20.6 -24.7 -21.7L-25.45 -22.55Q-26.15 -23.55 -26.3 -24.7Q-26.55 -25.8 -26.35 -27.05Q-25.8 -29.45 -23.75 -30.85Q-21.65 -32.25 -19.25 -31.85Q-16.85 -31.35 -15.4 -29.3L-15.35 -29.2L-14.6 -27.55L-14.4 -25.9L-14.6 -24.85L-14.7 -24.1Q-15 -23.3 -15.45 -22.65M6,-6.95L4.9 -7.15L4 -7.05Q3.6 -6.9 3.6 -6.4Q3.6 -5.65 5.2 -5.65Q6.2 -5.65 6.2 -6.35L6 -6.95M1,-8.45Q0.15 -8.45 -0.35 -7.65L-0.7 -6.5Q-0.55 -4.7 1.3 -4.7Q2.8 -4.7 2.8 -6.85Q2.8 -8.45 1 -8.45M10.65,-0.4L10.65 -1.4L10.65 -2.2L14.05 -1.55L16.85 -1.1L16.85 -1.05L16.8 0.4L16.8 2.05L10.65 2.05L10.65 0.75L10.65 -0.4M29.3,-7.05Q28.5 -7.05 28.5 -6L28.5 -5.55Q28.65 -5 29.3 -5Q30.1 -5 30.1 -6L30.1 -6.4Q29.95 -7.1 29.3 -7.05M25.85,-8.2Q24.4 -8.2 24.4 -6.85L24.45 -6.25L25.05 -5.55L25.75 -5.45Q26.5 -5.45 26.9 -5.75Q27.3 -6.05 27.3 -6.75Q27.3 -8.2 25.85 -8.2M-15.9,-27.95Q-16.05 -28.6 -16.45 -29.05Q-17.15 -30.15 -18.7 -30.8Q-21.1 -31.7 -23.7 -30Q-24.4 -29.5 -24.6 -28.8L-24.65 -28.2Q-23.95 -27.1 -22.9 -27.8Q-21.4 -28.8 -19.55 -28.35Q-19.45 -28.4 -17.95 -27.3Q-16.75 -26.35 -16.1 -26.75Q-15.7 -27.05 -15.85 -27.9L-15.9 -27.95M-22.35,-24Q-22.8 -24.5 -23.7 -24.2L-23.8 -24.2Q-24.8 -23.85 -24.2 -23.05L-24 -22.85L-22.3 -21.55L-21.65 -21.3Q-19.9 -20.75 -18.3 -21.75Q-17.5 -22.3 -17 -23.35Q-16.5 -24.2 -16.6 -24.45L-16.85 -24.7L-17.6 -24.5L-19.85 -23L-21.3 -23.35Q-22.05 -23.55 -22.35 -24M-21.8,-1.4Q-21.8 -2.4 -23.15 -2.7Q-24.5 -2.95 -24.5 -1.45Q-24.5 -1.1 -23.8 -0.6L-22.5 -0.6Q-21.8 -0.95 -21.8 -1.4M-19.8,-1.25Q-20.6 -1.3 -20.6 -0.5Q-20.6 0.15 -19.8 0.15Q-19 0.1 -19 -0.5Q-19 -1.15 -19.8 -1.25M-15.45,9L-15.75 7.85L-16.65 4.85L-16.7 4.7L-17 3.8L-17.1 3.45L-16.95 3.5L-15.2 4.35L-15.1 4.4L-12.2 5.75L-11.2 6.2Q-11.1 8.15 -11.35 9L-13.15 9L-15.45 9" />
<path style="fill:#545353;fill-opacity:1" d="M-18.85,5.4L-16.7 4.7L-16.65 4.85L-18.85 5.4" />
<path style="fill:#3F3E3E;fill-opacity:1" d="M30.25,3.5L29.7 4.3L29.15 4.8Q29.7 3.2 30.35 3.15L30.25 3.5" />
<path style="fill:#CBC9C9;fill-opacity:1" d="M29.9,26.15L30.05 26.15L29.9 28.6L-15.4 28.7L-15.45 27.1L-15.45 26.8L29.9 26.15" />
<path style="fill:#BF5D5D;fill-opacity:1" d="M29.9,28.6Q28.95 34.05 22.9 36.2Q18.45 37.75 7.2 37.75L0.15 37.45L-8 37.15Q-11.35 37.1 -13.55 33.9Q-15.1 31.55 -15.4 28.7L29.9 28.6" />
<path style="fill:#ABABD9;fill-opacity:1" d="M29.7,-9.4L8.95 -10.45L5.35 -10.2L2 -10.05L-1.15 -10.2Q-1.85 -10.45 -2.85 -11.65Q-2.2 -13.05 0.8 -12.95L1.55 -12.9L4.6 -12.5L8.95 -12.4L28.4 -12.3L33.3 -12.2L34.65 -12.2L39.95 -12.1L41.85 -11.75L42 -10.15L41.9 -8.55L29.7 -9.4M-20.1,-3.4L-26.4 -4.6L-26.5 -6.6L-24.8 -6.7L-18.4 -6.2L-18.75 -5.75L-20.05 -4.15L-17.9 -3.55L-17.05 -3L-20.1 -3.4M-11.9,-2.6L-13.05 -2.6L-12.1 -3Q-11.6 -3 -11.05 -2.6L-11.9 -2.6M-5.95,-2.8L-8.65 -2.6L-5.65 -3.6L-4 -3.25L-5.95 -2.8M-3.05,-7.25Q-2.2 -6.3 -2.2 -5.5Q-2.2 -4.1 -3.8 -3.35L-3.8 -4.95L-4.25 -5.85Q-3.55 -6.35 -3.2 -7.4L-3.05 -7.25" />
<path style="fill:#505083;fill-opacity:1" d="M6.2,-6.35Q6.2 -5.65 5.2 -5.65Q3.6 -5.65 3.6 -6.4Q3.6 -6.9 4 -7.05L4.9 -7.15L6 -6.95L6.2 -6.35M2.8,-6.85Q2.8 -4.7 1.3 -4.7Q-0.55 -4.7 -0.7 -6.5L-0.35 -7.65Q0.15 -8.45 1 -8.45Q2.8 -8.45 2.8 -6.85M-18.1,0.75L-16.8 0.85L-13.3 1.15L-11.3 1.35L-10.8 1.4Q-11.4 2.1 -11.35 4L-11.3 4.8L-11.2 5.7L-11.2 6.2L-12.2 5.75L-15.1 4.4L-15.2 4.35L-16.95 3.5L-17.1 3.45L-18.1 0.75M16.85,-1.2L16.85 -1.1L14.05 -1.55L10.65 -2.2L10.65 -4.5L13.3 -4.45L17.2 -3.9L16.85 -1.2M30.1,-6.4L30.1 -6Q30.1 -5 29.3 -5Q28.65 -5 28.5 -5.55L28.5 -6Q28.5 -7.05 29.3 -7.05Q29.95 -7.1 30.1 -6.4M27.3,-6.75Q27.3 -6.05 26.9 -5.75Q26.5 -5.45 25.75 -5.45L25.05 -5.55L24.45 -6.25L24.4 -6.85Q24.4 -8.2 25.85 -8.2Q27.3 -8.2 27.3 -6.75M-22.5,-0.6L-23.8 -0.6Q-24.5 -1.1 -24.5 -1.45Q-24.5 -2.95 -23.15 -2.7Q-21.8 -2.4 -21.8 -1.4Q-21.8 -0.95 -22.5 -0.6M-19,-0.5Q-19 0.1 -19.8 0.15Q-20.6 0.15 -20.6 -0.5Q-20.6 -1.3 -19.8 -1.25Q-19 -1.15 -19 -0.5" />
<path style="fill:#8A8686;fill-opacity:1" d="M-15.45,26.8Q-15.45 24.45 -17 20.4L-17.8 18.45L-19 15.85L-19.75 14.4Q-23.1 7.75 -23.35 3.2L-21.25 2.8Q-18.85 2.8 -18.6 7.4Q-18.45 10.5 -17.4 11.5Q-16.95 11.95 -16.3 11.95L-15.7 11.95Q-14.65 11.8 -14 11.15Q-13.3 10.4 -13.15 9L-11.35 9Q-11.1 8.15 -11.2 6.2L-11.2 5.7L-11.3 4.8L-11.35 4L-9.25 4.65L-8.05 5.1L-8.05 5.15L-7.15 5.3L-5 5.6L-4 5.75L-0.1 6.15L1.4 6.2L2.6 6.1L3.55 5.8L4.6 5.8L4.6 5.75L4.65 5Q5.5 4.1 5.8 2.55L6.05 1.4L6.45 0.05L6.7 -0.3Q7.25 -1.1 8.4 -1.1Q9.3 -1.1 10.65 -0.4L10.65 0.75L10.65 2.05L16.8 2.05L16.8 0.4L18 0.35L18.85 0.35Q18.75 1.8 18.25 2.15Q20.1 3.6 20.8 4.8Q21.5 6.1 21.4 7.9L24.65 7.5Q26.95 7.5 28.15 8.1L29.05 5.05L29.15 4.8L29.7 4.3L30.25 3.5L30.35 3.15L30.45 2.75L32.35 2.95L34.1 3L34.9 3L34.85 3.05L31 9.15Q28.9 13.85 29.7 22.65L28.95 22.7L29.45 22.9L29.75 23.05L30 23.25L29.8 23.65L29.9 24.45L29.9 26.15L-15.45 26.8" />
<path style="fill:#706E6E;fill-opacity:1" d="M34.1,3L32.35 2.95L32.5 2.75Q31.7 1.95 31.7 0.1Q31.7 -0.3 32.45 -0.9Q33.25 -1.5 33.3 -1.8L31.5 -3.9L34.45 -3.75L37 -3.7Q37.25 -0.7 34.9 3L34.1 3M-18.1,0.75L-17.1 3.45L-17 3.8L-16.7 4.7L-18.85 5.4L-16.65 4.85L-15.75 7.85L-15.45 9L-13.15 9Q-13.3 10.4 -14 11.15Q-14.65 11.8 -15.7 11.95L-16.3 11.95Q-16.95 11.95 -17.4 11.5Q-18.45 10.5 -18.6 7.4Q-18.85 2.8 -21.25 2.8L-23.35 3.2L-23.3 0.95L-23.3 0.7L-18.1 0.75M10.65,-2.2L10.65 -1.4L10.65 -0.4Q9.3 -1.1 8.4 -1.1Q7.25 -1.1 6.7 -0.3L6.45 0.05L6.05 1.4L5.8 2.55Q5.5 4.1 4.65 5L4.6 5.75L4.6 5.8L3.55 5.8L2.6 6.1L1.4 6.2L-0.1 6.15L-4 5.75L-5 5.6L-7.15 5.3L-8.05 5.15L-8.05 5.1L-9.25 4.65L-11.35 4Q-11.4 2.1 -10.8 1.4L-5.6 1.8L-2.2 1.85L-1.45 1.8L0.95 1.75L2.9 1.6Q3.1 1.55 3.3 0.1L3.3 -0.1L3.3 -0.15L3.45 -1.85L3.55 -4.8L10.65 -4.5L10.65 -2.2M16.8,0.4L16.85 -1.05L16.85 -1.1L16.85 -1.2L17.2 -3.9L20.95 -3.9L24 -3.95L23.4 -2L20.4 -2.6L18.65 -2.6L18.85 -0.4L18.85 0.35L18 0.35L16.8 0.4" />
<path style="fill:#83679F;fill-opacity:1" d="M-1.6,-24.25L4.55 -19.05L5.3 -19.05L6.75 -19L7.65 -19L10.25 -19.1L15.7 -19.35L26.15 -18.8L28.65 -18.6L31.35 -18.4Q34.75 -17.45 34.75 -13.95L34.65 -12.2L33.3 -12.2Q32.3 -14.7 31.65 -15.3Q30.65 -16.25 29.7 -16.6L27.55 -16.9L21.4 -16.5L14.95 -16.8L12 -17.05L8.8 -17.35L8.7 -17.35L6.8 -17.15L5.55 -16.7L5.4 -16.65Q4.3 -15.95 2.75 -15.95L2.55 -15.95Q1.9 -16 1.55 -16.2L1.55 -16.35L1.65 -16.75Q2 -18.2 3.1 -18.75L-1.6 -22.55L-1.6 -24.25M-15.45,-22.65L-4.75 -20.4L-5 -20.85L1.55 -15.55L1.55 -13.9L-4.95 -19.1L-16.65 -21.35L-15.45 -22.65M-27.25,-17.2L-24.7 -21.7Q-23.7 -20.6 -22.3 -20.25L-25.55 -14.85L-26.9 -15.15L-27.75 -15.3L-27.75 -16.2L-27.25 -17.2M-9.95,-26.55L-11.3 -25.3L-14.4 -25.9L-14.6 -27.55L-9.95 -26.55M-19.6,-27L-19.95 -27.25L-20.8 -27.2Q-21.65 -26.65 -21.15 -26Q-20.45 -25.3 -19.85 -25.65Q-19.5 -25.9 -19.55 -26.4L-19.6 -27" />
<path style="fill:#FF0000;fill-opacity:0" d="M-17,20.4L-17.95 20.35L-17.8 18.45L-17 20.4" />
<path style="fill:#A0A0D0;fill-opacity:1" d="M-15.85,-27.9Q-15.7 -27.05 -16.1 -26.75Q-16.75 -26.35 -17.95 -27.3Q-19.45 -28.4 -19.55 -28.35Q-21.4 -28.8 -22.9 -27.8Q-23.95 -27.1 -24.65 -28.2L-24.6 -28.8Q-24.4 -29.5 -23.7 -30Q-21.1 -31.7 -18.7 -30.8Q-17.15 -30.15 -16.45 -29.05Q-16.05 -28.6 -15.9 -27.95L-15.85 -27.9M-19.55,-26.4Q-19.5 -25.9 -19.85 -25.65Q-20.45 -25.3 -21.15 -26Q-21.65 -26.65 -20.8 -27.2L-19.95 -27.25L-19.6 -27L-19.55 -26.4" />
<path style="fill:#B197CB;fill-opacity:1" d="M-25.45,-22.55L-24.7 -21.7L-27.25 -17.2L-27.75 -16.2L-27.8 -16.4Q-27.85 -17.45 -28.1 -17.9L-30.15 -17.65L-26.3 -24.7Q-26.15 -23.55 -25.45 -22.55" />
<path style="fill:#C0A7D9;fill-opacity:1" d="M-14.6,-27.55L-15.35 -29.2L-10.45 -28.1Q-10.3 -27.15 -9.95 -26.55L-14.6 -27.55M-14.7,-24.1L-5.5 -21.9L-5.35 -21.6L-5.35 -22.8L1.65 -16.75L1.55 -16.35L1.55 -16.2L1.55 -15.55L-5 -20.85L-4.75 -20.4L-15.45 -22.65Q-15 -23.3 -14.7 -24.1M-1.6,-24.25L-1.6 -24.6L0.1 -24.7L6.75 -19L5.3 -19.05L4.55 -19.05L-1.6 -24.25" />
<path style="fill:#474774;fill-opacity:1" d="M-21.3,-23.35L-19.85 -23L-17.6 -24.5L-16.85 -24.7L-16.6 -24.45Q-16.5 -24.2 -17 -23.35Q-17.5 -22.3 -18.3 -21.75Q-19.9 -20.75 -21.65 -21.3L-22.3 -21.55L-24 -22.85L-24.2 -23.05Q-24.8 -23.85 -23.8 -24.2L-23.7 -24.2Q-22.8 -24.5 -22.35 -24Q-22.05 -23.55 -21.3 -23.35" />
<path style="fill:#9292C4;fill-opacity:1" d="M31.65,-32.6Q31.6 -34.6 31.35 -35.15Q30.9 -36.2 29.35 -36.25L24.95 -36.6L21.2 -36.9L17.9 -36.75L17 -36.7L16.85 -37.5L16.55 -39.2L21.2 -39.4L27.75 -39.55Q32.7 -39.55 33.35 -38.6Q33.8 -37.9 33.8 -31.6Q33.8 -30.15 33.35 -29.85L32.2 -29.65Q31.7 -31 31.65 -32.6" />
<path style="fill:#201F1F;fill-opacity:1" d="M21.45,-24.5Q19.6 -24.95 18.1 -27.55L18.3 -27.75Q18.65 -28.1 19.25 -28.3L22.65 -28.5L28.8 -28.4L29 -24.55L29 -23.5L21.45 -24.5M24.7,-26.7Q24.7 -26.4 25.15 -26Q25.7 -25.45 26.55 -25.45Q27.2 -25.45 27.2 -26.15L27.05 -26.65Q26.85 -26.95 26.3 -27L26.15 -27.05L25.45 -27.1L24.75 -27L24.7 -26.7" />
<path style="fill:#989393;fill-opacity:1" d="M24.75,-27L25.45 -27.1L26.15 -27.05L26.3 -27Q26.85 -26.95 27.05 -26.65L27.2 -26.15Q27.2 -25.45 26.55 -25.45Q25.7 -25.45 25.15 -26Q24.7 -26.4 24.7 -26.7L24.75 -27" />
<path style="fill:#48355B;fill-opacity:1" d="M17.85,-28.05L16.95 -28.4L15.2 -27.75Q13.7 -27.1 12.9 -27.1L9.4 -27.05L7.55 -26.4L7.55 -26.45Q8.7 -27.35 12.7 -27.35L13.05 -30.05L13.25 -31.1L17.8 -31L25.6 -30.8L27.6 -30.6Q28.7 -30.4 28.35 -29.95L28.8 -28.4L22.65 -28.5L19.25 -28.3Q18.65 -28.1 18.3 -27.75L17.85 -28.05" />
<path style="fill:#5C4572;fill-opacity:1" d="M26.15,-18.8L15.7 -19.35L10.25 -19.1L7.65 -19L7.55 -26L7.55 -26.4L9.4 -27.05L12.9 -27.1Q13.7 -27.1 15.2 -27.75L16.95 -28.4L17.85 -28.05L18.3 -27.75L18.1 -27.55Q17.65 -27 17.65 -26.05L17.6 -24.4Q17.6 -23.6 17.95 -22.45Q18.1 -21.9 19.35 -21.9L20.9 -21.8L24.6 -21.5L28.9 -21.55L28.65 -18.7L28.65 -18.6L26.15 -18.8M28.4,-12.3L8.95 -12.4L4.6 -12.5L1.55 -12.9L1.55 -13.9L1.55 -15.55L1.55 -16.2Q1.9 -16 2.55 -15.95L2.75 -15.95Q4.3 -15.95 5.4 -16.65L5.55 -16.7L6.8 -17.15L8.7 -17.35L8.8 -17.35L12 -17.05L14.95 -16.8L21.4 -16.5L27.55 -16.9L29.7 -16.6Q30.65 -16.25 31.65 -15.3Q32.3 -14.7 33.3 -12.2L28.4 -12.3" />
<path style="fill:#2A2828;fill-opacity:1" d="M24.6,-21.5L20.9 -21.8L19.35 -21.9Q18.1 -21.9 17.95 -22.45Q17.6 -23.6 17.6 -24.4L17.65 -26.05Q17.65 -27 18.1 -27.55Q19.6 -24.95 21.45 -24.5L29 -23.5L28.9 -21.55L24.6 -21.5" />
<path style="fill:none;stroke-width:1;stroke-linecap:butt;stroke-linejoin:miter;stroke-miterlimit:3;stroke:#333333;stroke-opacity:1" d="M13.25,-31.1Q13.5 -31.9 13.85 -32.15L16.35 -33.05Q17.25 -33.3 17.25 -34.6L17 -36.7L16.85 -37.5L16.55 -39.2L21.2 -39.4L27.75 -39.55Q32.7 -39.55 33.35 -38.6Q33.8 -37.9 33.8 -31.6Q33.8 -30.15 33.35 -29.85L32.2 -29.65L31.5 -29.65L29.75 -29.65L28.35 -29.95L28.8 -28.4L29 -24.55L29 -23.5L28.9 -21.55L28.65 -18.7L28.65 -18.6L31.35 -18.4Q34.75 -17.45 34.75 -13.95L34.65 -12.2L39.95 -12.1L41.85 -11.75L42 -10.15L41.9 -8.55Q41.5 -6.3 39.95 -5Q38.7 -3.95 37 -3.7Q37.25 -0.7 34.9 3L34.85 3.05L31 9.15Q28.9 13.85 29.7 22.65L29.75 23.05M29.8,23.65L29.9 24.45L30.05 26.15L29.9 28.6Q28.95 34.05 22.9 36.2Q18.45 37.75 7.2 37.75L0.15 37.45L-8 37.15Q-11.35 37.1 -13.55 33.9Q-15.1 31.55 -15.4 28.7L-15.45 27.1L-15.45 26.8Q-15.45 24.45 -17 20.4L-17.8 18.45L-19 15.85L-19.75 14.4Q-23.1 7.75 -23.35 3.2L-23.3 0.95M-23.3,0.7L-25.35 0.6Q-26.45 0 -26.45 -2.5L-26.4 -4.6L-26.5 -6.6L-26.5 -6.65L-26.5 -6.7L-25.2 -6.7L-24.8 -6.7L-18.4 -6.2L-18.75 -5.75L-20.05 -4.15L-17.9 -3.55L-17.05 -3Q-16.6 -2.45 -16.65 -1.4Q-16.1 -1.4 -14.15 -2.2L-13.05 -2.6L-12.1 -3Q-11.6 -3 -11.05 -2.6L-10.95 -2.5L-10.2 -2L-8.65 -2.6L-5.65 -3.6L-4 -3.25L-3.8 -3.2L-3.8 -3.35L-3.8 -4.95L-4.25 -5.85Q-3.55 -6.35 -3.2 -7.4Q-2.75 -8.9 -2.95 -11.35L-2.85 -11.65Q-2.2 -13.05 0.8 -12.95L1.55 -12.9L1.55 -13.9L1.55 -15.55L1.55 -16.2L1.55 -16.35L1.65 -16.75Q2 -18.2 3.1 -18.75M4.55,-19.05L5.3 -19.05L6.75 -19L7.65 -19L7.55 -26L7.55 -26.4L7.55 -26.45Q8.7 -27.35 12.7 -27.35L13.05 -30.05L13.25 -31.1L17.8 -31L25.6 -30.8L27.6 -30.6Q28.7 -30.4 28.35 -29.95M28.8,-28.4L22.65 -28.5L19.25 -28.3Q18.65 -28.1 18.3 -27.75L18.1 -27.55Q17.65 -27 17.65 -26.05L17.6 -24.4Q17.6 -23.6 17.95 -22.45Q18.1 -21.9 19.35 -21.9L20.9 -21.8L24.6 -21.5L28.9 -21.55M7.65,-19L10.25 -19.1L15.7 -19.35L26.15 -18.8L28.65 -18.6M1.55,-12.9L4.6 -12.5L8.95 -12.4L28.4 -12.3L33.3 -12.2L34.65 -12.2M4.55,-19.05L3.1 -18.75M16.8,0.4L16.8 2.05L10.65 2.05L10.65 0.75L10.65 -0.4L10.65 -1.4L10.65 -2.2L10.65 -4.5L3.55 -4.8L3.45 -1.85L3.3 -0.15L3.3 -0.1L3.3 0.1Q3.1 1.55 2.9 1.6L0.95 1.75L-1.45 1.8L-2.2 1.85L-5.6 1.8L-10.8 1.4Q-11.4 2.1 -11.35 4M10.65,-4.5L13.3 -4.45L17.2 -3.9L20.95 -3.9L24 -3.95L25.5 -3.9Q26.55 -3.8 29.7 -3.85L31.5 -3.9L34.45 -3.75L37 -3.7M16.8,0.4L16.85 -1.05L16.85 -1.1L16.85 -1.2L17.2 -3.9M24,-3.95L23.4 -2L20.4 -2.6L18.65 -2.6L18.85 -0.4L18.85 0.35Q18.75 1.8 18.25 2.15Q20.1 3.6 20.8 4.8Q21.5 6.1 21.4 7.9L24.65 7.5Q26.95 7.5 28.15 8.1L29.05 5.05L29.15 4.8Q29.7 3.2 30.35 3.15M32.35,2.95L32.5 2.75Q31.7 1.95 31.7 0.1Q31.7 -0.3 32.45 -0.9Q33.25 -1.5 33.3 -1.8L31.5 -3.9M32.35,2.95L31.15 3.45L30.25 3.5L30.35 3.15M-23.3,0.7L-18.1 0.75L-16.8 0.85L-13.3 1.15L-11.3 1.35L-10.8 1.4M-11.2,6.2L-11.2 5.7L-11.3 4.8L-11.35 4M-11.2,6.2Q-11.1 8.15 -11.35 9L-13.15 9M-18.1,0.75L-17.1 3.45L-17 3.8L-16.7 4.7L-16.65 4.85L-15.75 7.85L-15.45 9L-13.15 9" />
<path style="fill:none;stroke-width:1;stroke-linecap:butt;stroke-linejoin:miter;stroke-miterlimit:3;stroke:#483957;stroke-opacity:1" d="M1.55,-13.9L-4.95 -19.1L-16.65 -21.35L-17.1 -21Q-19.15 -19.6 -21.65 -20.05L-22.3 -20.25L-25.55 -14.85L-26.9 -15.15L-27.75 -15.3L-27.75 -16.2L-27.8 -16.4Q-27.85 -17.45 -28.1 -17.9L-30.15 -17.65L-26.3 -24.7Q-26.55 -25.8 -26.35 -27.05Q-25.8 -29.45 -23.75 -30.85Q-21.65 -32.25 -19.25 -31.85Q-16.85 -31.35 -15.4 -29.3L-15.35 -29.2L-10.45 -28.1Q-10.3 -27.15 -9.95 -26.55L-11.3 -25.3L-14.4 -25.9L-14.6 -24.85L-14.7 -24.1L-5.5 -21.9M-5.35,-22.8L1.65 -16.75M3.1,-18.75L-1.6 -22.55L-1.6 -22.2M6.75,-19L0.1 -24.7L-1.6 -24.6L-1.6 -24.25M-14.7,-24.1Q-15 -23.3 -15.45 -22.65L-16.65 -21.35M-22.15,-27.05L-22.5 -26.3Q-22.65 -25.5 -22.15 -24.8L-20.9 -23.85Q-20 -23.75 -19.3 -24.2L-18.6 -24.95L-18.55 -25.15M-22.15,-27.05L-21.65 -27.6Q-20.95 -28.1 -20.1 -27.95L-18.8 -27.05Q-18.3 -26.35 -18.5 -25.5Q-18.45 -25.3 -18.55 -25.15M-15.35,-29.2L-14.6 -27.55L-14.4 -25.9M-22.3,-20.25Q-23.7 -20.6 -24.7 -21.7L-25.45 -22.55Q-26.15 -23.55 -26.3 -24.7M-3.9,-18.9L-4.95 -19.1M-1.6,-22.55L-1.6 -24.25" />
</g>
</svg>
