<?xml version="1.0" encoding="utf-8"?>
<svg version="1.1" id="Layer_1"
xmlns="http://www.w3.org/2000/svg"
xmlns:xlink="http://www.w3.org/1999/xlink"
xmlns:author="http://www.sothink.com"
width="99px" height="40px"
xml:space="preserve">
<g id="55" transform="matrix(1, 0, 0, 1, 47.65, 29.95)">
<path style="fill:#C9DAF1;fill-opacity:1" d="M34.1,-27.15Q34.1 -26.3 33.25 -25.85Q32.55 -25.5 31.45 -25.5L30 -25.65L28.95 -25.55Q27.45 -25.6 27.45 -27.15Q27.45 -29.45 29.3 -29.45L32.1 -28.6Q34.1 -27.75 34.1 -27.15M24.25,-3Q22.75 -4.4 20.2 -4.4Q13.9 -4.4 7.3 -1.6Q0.75 1.2 -2.9 1.2Q-5.75 1.2 -8.45 -0.15Q-11.15 -1.5 -12.3 -1.5L-14.5 -0.9Q-15.9 -0.3 -16.85 -0.3Q-18.55 -0.3 -21.8 -3.15Q-25 -6 -26.95 -6L-27.1 -5.8L-27.3 -5.95Q-31.65 -9.45 -35.7 -9.45Q-36.85 -9.45 -40.9 -7.95Q-44.95 -6.45 -45.3 -6.45Q-46.85 -6.45 -47.1 -7.85L-47.15 -8.3Q-46.15 -12.25 -42.05 -13.7Q-39.25 -14.7 -33.9 -14.7Q-29.5 -14.7 -22.45 -9.95Q-15.45 -5.25 -11.85 -5.25Q-10.5 -5.25 -7.9 -6L-6.5 -6.4Q-5.15 -7.1 -4.4 -10Q-3.7 -12.8 -2.35 -12.8Q-1.45 -12.8 -0.8 -11.85L-0.15 -11.85L0.35 -14.5Q0.65 -15.05 2.25 -15.05Q4.65 -15.05 4.65 -13.4L4.3 -11.3L3.9 -9.2Q3.9 -8.7 4.6 -7.65L5.5 -6.5L10.7 -7.05L12.9 -7.2Q13.7 -7.2 20 -11.9Q27.55 -16.65 34.7 -16.65Q38.55 -16.65 41 -15.45Q44.25 -13.8 44.25 -10.25Q44.25 -9.45 43.4 -9.2L41.75 -9.05Q39.1 -9.05 37.45 -10Q35.75 -10.95 34.95 -10.95Q34.1 -10.95 34.1 -10.35Q34.1 -10 36.8 -8.3Q39.45 -6.65 39.45 -4.65Q39.45 -3.25 33.5 -2.85L26.25 -2.25L25.55 -1.9L24.25 -3M50.1,-1.05Q50.1 1.35 48.7 1.35Q47.5 1.35 46.8 0.15Q46.1 -1 46.1 -2.8Q46.1 -3.9 46.25 -4.4Q46.75 -4.75 47.7 -5.1Q48.85 -5.1 49.5 -3.75Q50.1 -2.6 50.1 -1.05M-27.7,-25.1Q-28.85 -24.55 -29.7 -24.3L-30.8 -24.15Q-31.8 -24.45 -31.8 -25.45Q-31.8 -26.5 -30.15 -27.6Q-28.5 -28.65 -27.15 -28.65L-25.85 -28.45Q-25.35 -28.15 -25.35 -27.25Q-25.35 -26.2 -27.7 -25.1" />
<path style="fill:#A9BEDB;fill-opacity:1" d="M-15.05,8.2Q-19.5 2.25 -22.85 -1.6Q-25 -4.1 -27.1 -5.8L-26.95 -6Q-25 -6 -21.8 -3.15Q-18.55 -0.3 -16.85 -0.3Q-15.9 -0.3 -14.5 -0.9L-12.3 -1.5Q-11.15 -1.5 -8.45 -0.15Q-5.75 1.2 -2.9 1.2Q0.75 1.2 7.3 -1.6Q13.9 -4.4 20.2 -4.4Q22.75 -4.4 24.25 -3L25.55 -1.9Q22.85 -0.45 20.95 2.05Q18.15 5.75 16.8 6.8Q15.7 7.7 13.5 7.6L9.75 7.35L6.25 7.45L2.1 7.85L-6.65 8.6L-14.4 8.85L-14.55 8.85L-15.05 8.2" />
<path style="fill:none;stroke-width:1;stroke-linecap:butt;stroke-linejoin:miter;stroke-miterlimit:3;stroke:#5C8BBB;stroke-opacity:1" d="M32.1,-28.6L29.3 -29.45Q27.45 -29.45 27.45 -27.15Q27.45 -25.6 28.95 -25.55L30 -25.65L31.45 -25.5Q32.55 -25.5 33.25 -25.85Q34.1 -26.3 34.1 -27.15Q34.1 -27.75 32.1 -28.6M-27.1,-5.8L-27.3 -5.95Q-31.65 -9.45 -35.7 -9.45Q-36.85 -9.45 -40.9 -7.95Q-44.95 -6.45 -45.3 -6.45Q-46.85 -6.45 -47.1 -7.85L-47.15 -8.3Q-46.15 -12.25 -42.05 -13.7Q-39.25 -14.7 -33.9 -14.7Q-29.5 -14.7 -22.45 -9.95Q-15.45 -5.25 -11.85 -5.25Q-10.5 -5.25 -7.9 -6L-6.5 -6.4Q-5.15 -7.1 -4.4 -10Q-3.7 -12.8 -2.35 -12.8Q-1.45 -12.8 -0.8 -11.85L-0.15 -11.85L0.35 -14.5Q0.65 -15.05 2.25 -15.05Q4.65 -15.05 4.65 -13.4L4.3 -11.3L3.9 -9.2Q3.9 -8.7 4.6 -7.65L5.5 -6.5L10.7 -7.05L12.9 -7.2Q13.7 -7.2 20 -11.9Q27.55 -16.65 34.7 -16.65Q38.55 -16.65 41 -15.45Q44.25 -13.8 44.25 -10.25Q44.25 -9.45 43.4 -9.2L41.75 -9.05Q39.1 -9.05 37.45 -10Q35.75 -10.95 34.95 -10.95Q34.1 -10.95 34.1 -10.35Q34.1 -10 36.8 -8.3Q39.45 -6.65 39.45 -4.65Q39.45 -3.25 33.5 -2.85L26.25 -2.25L25.55 -1.9Q22.85 -0.45 20.95 2.05Q18.15 5.75 16.8 6.8Q15.7 7.7 13.5 7.6L9.75 7.35L6.25 7.45L2.1 7.85L-6.65 8.6L-14.4 8.85L-14.55 8.85L-15.75 8.85L-15.05 8.2Q-19.5 2.25 -22.85 -1.6Q-25 -4.1 -27.1 -5.8M-6.5,-6.4L-4.35 -6.8L-1.05 -6.3L2.05 -5.85L5.1 -6.45L5.5 -6.5M49.5,-3.75Q48.85 -5.1 47.7 -5.1Q46.75 -4.75 46.25 -4.4Q46.1 -3.9 46.1 -2.8Q46.1 -1 46.8 0.15Q47.5 1.35 48.7 1.35Q50.1 1.35 50.1 -1.05Q50.1 -2.6 49.5 -3.75M46.25,-4.4Q45.6 -4 45.6 -3.6M-25.35,-27.25Q-25.35 -28.15 -25.85 -28.45L-27.15 -28.65Q-28.5 -28.65 -30.15 -27.6Q-31.8 -26.5 -31.8 -25.45Q-31.8 -24.45 -30.8 -24.15L-29.7 -24.3Q-28.85 -24.55 -27.7 -25.1Q-25.35 -26.2 -25.35 -27.25M-15.05,8.2L-14.55 8.85" />
</g>
</svg>
