<?xml version="1.0" encoding="utf-8"?>
<svg version="1.1" id="Layer_1"
xmlns="http://www.w3.org/2000/svg"
xmlns:xlink="http://www.w3.org/1999/xlink"
xmlns:author="http://www.sothink.com"
width="49px" height="20px"
xml:space="preserve">
<g id="51" transform="matrix(1, 0, 0, 1, 24.5, 9.45)">
<path style="fill:#C9DAF1;fill-opacity:1" d="M-18.45,0.55Q-21.05 -3.45 -24 -5.6L-24 -8.95L-21.05 -8.95L-20.3 -6.8Q-19.5 -5.15 -18.15 -5.15Q-17.05 -5.15 -16.7 -6.4Q-16.35 -7.7 -14.8 -7.7Q-13.55 -7.7 -12 -5.4Q-10.5 -3.1 -6.9 -3.1Q-4.7 -3.1 -2.85 -4.9Q-0.5 -7.15 1.05 -7.7L2.55 -5.05Q3.05 -3.9 4.8 -3.9Q6.95 -3.9 11.1 -6.2Q15.25 -8.5 17.1 -8.5Q19.6 -8.5 19.85 -7.55L19.45 -3.9Q20.25 -3.5 22.35 -2.85Q24 -2.25 24 -1.45Q24 -1 22.7 0.15L21.5 -0.15Q20.05 -0.15 17.65 0.75Q15.25 1.65 14.2 1.65Q12 1.65 12.15 -0.45Q12.3 -2.55 10.35 -2.55Q9.15 -2.55 5.9 -0.85Q2.65 0.8 1.2 0.8Q-0.1 0.8 -1.2 -0.4Q-2.35 -1.65 -3.65 -1.65Q-4.95 -1.65 -6.6 0.25Q-8.25 2.15 -10.1 2.15Q-11.35 2.15 -12.5 0.8L-14.7 -2.25L-15.1 0.05Q-15.6 2.15 -16.25 2.15L-17.7 1.75L-18.45 0.55" />
<path style="fill:#A9BEDB;fill-opacity:1" d="M19.9,2.3Q15.45 5.55 14.85 6.5Q13.5 8.65 8.45 8.4L0.65 7.75L-7 8.4L-14.4 9Q-15.7 5.1 -17.7 1.75L-16.25 2.15Q-15.6 2.15 -15.1 0.05L-14.7 -2.25L-12.5 0.8Q-11.35 2.15 -10.1 2.15Q-8.25 2.15 -6.6 0.25Q-4.95 -1.65 -3.65 -1.65Q-2.35 -1.65 -1.2 -0.4Q-0.1 0.8 1.2 0.8Q2.65 0.8 5.9 -0.85Q9.15 -2.55 10.35 -2.55Q12.3 -2.55 12.15 -0.45Q12 1.65 14.2 1.65Q15.25 1.65 17.65 0.75Q20.05 -0.15 21.5 -0.15L22.7 0.15L19.9 2.3" />
<path style="fill:none;stroke-width:1;stroke-linecap:butt;stroke-linejoin:miter;stroke-miterlimit:3;stroke:#5C8BBB;stroke-opacity:1" d="M22.7,0.15Q24 -1 24 -1.45Q24 -2.25 22.35 -2.85Q20.25 -3.5 19.45 -3.9L19.85 -7.55Q19.6 -8.5 17.1 -8.5Q15.25 -8.5 11.1 -6.2Q6.95 -3.9 4.8 -3.9Q3.05 -3.9 2.55 -5.05L1.05 -7.7Q-0.5 -7.15 -2.85 -4.9Q-4.7 -3.1 -6.9 -3.1Q-10.5 -3.1 -12 -5.4Q-13.55 -7.7 -14.8 -7.7Q-16.35 -7.7 -16.7 -6.4Q-17.05 -5.15 -18.15 -5.15Q-19.5 -5.15 -20.3 -6.8L-21.05 -8.95L-24 -8.95L-24 -5.6Q-21.05 -3.45 -18.45 0.55L-17.7 1.75Q-15.7 5.1 -14.4 9L-7 8.4L0.65 7.75L8.45 8.4Q13.5 8.65 14.85 6.5Q15.45 5.55 19.9 2.3L22.7 0.15z" />
</g>
</svg>
