<?xml version="1.0" encoding="utf-8"?>
<svg version="1.1" id="Layer_1"
xmlns="http://www.w3.org/2000/svg"
xmlns:xlink="http://www.w3.org/1999/xlink"
xmlns:author="http://www.sothink.com"
width="162px" height="252px"
xml:space="preserve">
<g id="353" transform="matrix(1, 0, 0, 1, -13.75, -323.25)">
<path style="fill:#000000;fill-opacity:0.2" d="M62.35,553.45Q76 549.55 95.5 549.35Q115.1 549.2 128.7 552.85Q142.5 556.5 142.55 561.85Q142.6 567.2 128.85 570.95Q115.35 574.9 95.75 575.05Q76.25 575.25 62.5 571.55Q48.65 568.05 48.6 562.7Q48.55 557.35 62.35 553.45" />
<path style="fill:#FC850F;fill-opacity:1" d="M56.85,433.5L56.7 433.4L53.45 430.4L52.6 429.5Q49.3 426.1 45.35 413.35L45.6 413.35Q45.85 413.7 46.25 413.7L47.3 412.95Q48.2 412.7 50.3 411.25L52.15 410.3Q53.35 409.65 53.35 409.2L53.25 408.95L51.4 409.35L50.9 409.6Q49 410.1 47.55 410.9Q46.3 411.6 45.8 412.35L45.2 412.85L44.65 410.9L44.85 410.95Q44.75 411.35 45.2 411.35Q45.65 411.35 46.55 410.55L46.6 410.55L49.6 408.95L52.6 406.95L52.35 406.7Q50.9 406.75 50.05 407.15L48.45 407.9Q46.55 408.55 45.65 409.5L45.65 409.7L44.9 410.05Q44.55 410.3 44.55 410.6L43.6 406.95L43.85 407.15L44.35 407.2L45.75 406.1L46.4 405.5Q49.35 403.75 49.35 403.15L49.25 402.85L47.85 403.25L46.6 403.75Q45.9 403.9 45.35 404.35L45.25 404.45L44.55 404.75Q43.5 405.3 43.5 406.1L43.45 406.4L42.6 403.05L42.7 403.05L43.55 402.6L43.85 402.6L45.75 401.55Q47.1 400.75 47.7 400.5L50.75 398.7L50.5 398.45Q47.9 398.8 46.35 399.6L44.35 400.3L43.25 400.8L42.4 401.5L42.45 401.65L42.65 401.7L42.35 402.05L40.9 396.55L30.05 394.3L40.7 385.5L30.65 384.9L41.95 377.5L35.15 373.4L46.85 368.9L43.15 363.15L48.85 364.6Q46.25 355.6 44.55 346.15Q41.15 327.25 45.8 325.05Q50.45 322.85 63.85 335.9Q70.6 342.45 76.35 349.4L83.7 345.3L88.6 348.4L97.45 346.75L101.3 349.4Q106.35 342.4 112.2 335.9Q123.95 322.9 128.15 325.45Q132.35 328 128 344.7Q125.8 353.05 122.8 360.9L131.85 365.6L123.85 369.3L133.45 374.4L125.3 376.85L130 381.35L126.1 384.45L129.4 389.55L125.7 395.7L127.75 402.05L127.1 402.7L125.1 402.05Q124.55 401.65 123.55 401.4L123.5 401.35L119.85 400.15Q117.5 399.55 117.5 400.3Q117.5 400.75 119.35 401.4Q121.4 402.1 121.85 402.35L121.9 402.4Q124.15 403.35 124.85 403.8L125.15 403.8L125.7 404.15L124.25 405.55L123.9 407.85L123.75 407.7L123.45 407.55L123.5 407.5L123.85 407.1Q123.35 406.6 121.55 406.2L119.35 405.9L118.75 405.95L117.4 405.75L117.35 406.05Q117.35 406.25 118.7 406.9L120 407.45L120.5 407.45Q122.05 408 123.1 408.7L123.45 408.7L123.55 408.4L123.45 408.1L123.55 408.1L123.85 408.15L123.6 409.65L121.65 409L120.9 408.95L118.15 408.25L115.5 407.75L115.7 405.5L115.65 401.25L117.1 386.9Q114.6 389.7 110.15 392.2L107.9 393.4Q102.25 396.2 95.2 397.75L90.2 398.7L79.3 399.1Q74.1 398.7 70.6 397.05Q68.7 396.15 67.3 394.9Q60.3 388.7 59.25 380.85Q58.9 378.4 59.2 376.05L59.4 375.15Q56.45 380.5 54.6 386.75Q52.55 393.8 52.35 400.2L53.3 403.15Q54.7 406.7 56.7 409.8Q63.2 419.55 73.65 420.5L74.6 420.6Q82.1 421.1 91.25 419.4L99.45 417.45L106.6 415.3Q112.8 413.2 114.2 411.5L114.5 411.1L116.1 411.8L118.25 412.7L120.65 413.95L121.65 414.65L121.3 414.35L121.7 414.25L121.95 414.45Q122.15 414.65 122.4 414.65L122.6 414.65Q121.15 420 119.15 423.15L118.75 423.75Q116.2 426.95 107.6 431.65L56.85 433.5M122.75,413.3L122.8 413.3L122.85 412.95L122.55 412.6L122.5 412.6L122.15 412.65L120.95 412.35L119.7 411.9L118.9 411.55L118.3 411.15L118.2 411.1L118.05 411.05L117.2 410.75L114.9 410.2L115.35 408.7L116.35 409.2L117.7 409.75L119.9 410.5L121.8 411.3L122.45 411.3L122.55 411.1L122.35 410.9L123.05 410.9L123.1 410.6L123.2 410.15L123.5 410.1L123.55 410.1L123.2 412.05L122.9 413.4L122.75 413.3M121.9,413.75L121.95 413.7L122 413.4L122.05 413.4L122.2 413.55L122.7 413.8L122.8 413.8L122.7 414.3L121.9 413.75M163.15,466.2Q156.25 466.75 155.65 461.65Q155.3 458.75 156.55 456.6Q155.2 456.1 154 455.05Q151.65 453 152.6 450.35Q153.65 447.4 155.8 445.75Q155.95 445.6 156.05 445.55Q156.55 443.8 157.3 442Q158.1 440.15 158.9 439.2Q159.65 438.25 160.4 438.1Q162.5 437.7 166.75 438.95Q171.4 440.3 172.65 442.2Q173.75 443.95 172.6 447.25L171.25 450.15L173.85 454.6Q174.6 458.4 171.85 462.45Q170.3 464.7 166.7 465.65L163.15 466.2M93.6,550.05L93.55 550.15Q89.5 556.65 82.1 560.4Q78.45 562.25 75.55 562.8Q72.95 563.95 68.05 564.05L54.1 563.3L53.75 563.2L53.55 563.15L49.1 562.2Q49.5 559.15 50.55 555.8Q52.6 549.15 55.85 547.85Q59.1 546.55 63.55 548.65Q65.75 549.65 67.3 550.95Q69.6 543.85 70.45 536.2Q71.35 527.95 70.6 519.05Q64.3 518.1 57.5 515.55Q51.45 513.25 45.55 504.1L43.45 500.55Q39.85 493.95 39.75 488.85Q39.7 487.25 40.3 482.2L40.7 479.1Q41.7 479.5 42.9 485.3Q44.2 491.6 44.8 492.4Q46.2 494.3 54.6 499.55Q56.65 495.7 59.2 491.65Q64.3 483.5 66.7 482.35Q68.35 481.6 71.4 481.75L74.3 482L79 482.95L81.35 485.3Q84.2 487.65 86.75 487.7Q88.9 487.75 91.6 485.7Q94.15 483.8 95.35 484Q95.95 484.1 99.55 488.6Q103.05 492.95 107.45 493.2Q111.6 493.45 117.15 487.85Q123.75 481.25 126.7 480.1L134.1 480.35Q135.75 480.95 137.5 481.95Q140.65 483.7 142.85 485.85L142.7 489Q142.2 494.45 140.25 499.15L139.65 500.55Q136.1 508.05 128.8 513.35Q124.8 516.3 121.45 517.5Q120.5 529.1 121.25 536.2Q122.1 543.85 124.4 550.95Q125.95 549.65 128.15 548.65Q132.6 546.55 135.85 547.85Q139.1 549.15 141.15 555.8Q142.2 559.15 142.6 562.2L138.15 563.15L137.95 563.2L137.6 563.3L123.65 564.05Q114.45 563.85 113.35 559.95Q112.25 556.1 112.7 537.05L113.35 519Q106.3 520.55 99.35 520.8L98.5 532L95.6 531.55L94.1 531.3Q92.95 531.25 92.5 531.65L92.6 531.9L94.15 532.5L96.1 533.1L97.6 533.05L98 532.6L98.45 532.35Q97.9 536.65 97.15 540.15L96.95 540.05L95.55 539.65L91.35 538.95L91.1 539.1L91.35 539.55L91.7 539.65L91.95 540.05Q92.45 540.15 94.15 540.8L96.05 541.3L96.9 541.25Q95.6 546.55 93.85 549.65L92.4 548.5Q91.4 547.7 90.2 547.1Q89.4 546.9 88.2 546.1Q87.3 545.5 86.25 545.5L87.25 546.85L88.55 548.15L90.2 549.4L92.3 550.65L92.85 550.6L93.6 550.05M29,438.15Q30.5 438.45 32.1 442.05L33.35 445.6L33.6 445.8Q35.75 447.45 36.8 450.4Q37.75 453.05 35.4 455.1Q34.2 456.15 32.85 456.65Q34.1 458.8 33.75 461.7Q33.25 465.7 28.6 466.25Q25.55 466.6 22.1 465.35Q18.7 464.2 17.55 462.5Q14.8 458.45 15.55 454.65L18.15 450.2Q17.35 448.9 16.8 447.3Q15.65 444 16.75 442.25Q17.55 441 20.05 439.9Q22.25 438.95 24.9 438.45L29 438.15M48.7,332.45Q46.5 333.9 50.3 347.95Q52.2 355 54.55 361.75L58.7 360.3L58.5 354.75L63.2 357.45L62.8 352.5L66.1 354.95L66.7 351.9L71.2 351.5Q66.45 346.15 61.25 341.1Q50.9 331 48.7 332.45M75.35,381.65L76.95 385.35Q78.55 387.4 81.05 388.45Q83.05 389.3 85.65 389.5Q90.55 389.85 94.7 388.45Q97.6 387.45 100.15 385.6Q105.05 381.95 105.4 377.55L105.4 376.8L105.4 376.5L105.3 375.5Q105.05 373.9 104.25 372.6Q103.05 370.85 100.75 369.65Q99.4 368.95 97.9 368.6L95.25 368.25L95.2 368.25L95.45 367.95Q96.15 367 96.4 365.65Q97 362.65 94.2 360.15L94 360Q91 357.45 88.1 359.55Q87.65 359.85 87.35 360.15Q86.4 361.05 85.8 362.2Q86.5 364.9 86.15 367.95L86.05 368.6L85.75 370.05Q83.85 371.05 82.1 372.6L79.8 374.85L79.95 374.65L82.35 372.2L82.45 372L83.5 371.25L84.45 370.5L84.6 370.5L85.35 369.85Q85.9 369.4 85.85 368.9L85.95 368L85.95 365.5L85.85 364.95L85.8 363.9L85.7 362.8L85.25 361.7L84.8 360.65L84.05 359.65L83.15 358.55L82.55 358.25L82 358.05L80.65 357.65L78.9 357.6L78 357.8L76.95 358.05Q76.3 358.15 75.7 358.55L73.45 360.25Q73 360.6 72.9 361.1L72.8 361.95L72.25 363.7Q71.3 365.8 71.3 370.6L71.35 373.6Q71.45 374.45 71.9 375.6L72.7 377.55L72.7 377.8L72.85 378.05L73.45 379.55L74.5 381.55L74.55 381.65L75 381.7L75.75 380.55L76.5 379.55L75.35 381.65M77.9,377.35L78.1 377L78.75 376.2L78.55 376.5L78.3 376.8L77.9 377.35M124.7,331.35Q123.25 330.25 115.2 340.05L107.45 350.05L109.5 351.9L112.8 351.1L113 355.15L116.45 352.7L118.5 357.65L122.45 345.2Q126.15 332.5 124.7 331.35M115.05,416.95L116.6 417.55L116.6 417.65Q117.5 418 120.45 419.65L120.8 419.5L121.05 419.1L120.65 418.6L120.75 418.45L120.7 418.3L120.4 418L120.5 418L120.65 417.9L120.75 417.7L120.7 417.5Q120.45 417.2 119.75 417L119.05 416.9L118.75 416.7L116.65 416.05Q114.35 415.45 113.25 415.35L113.15 415.4L113 415.6Q113 416.05 115.05 416.95M47.5,413.85L46.9 414.15Q46.1 414.55 46.1 414.85L46.2 415.05L46.5 415.15L46.3 415.4Q46.3 415.75 46.45 415.9L46.75 415.9L47.9 415.15L48.05 415L50.9 413.4Q54 411.5 54 411.05L53.9 410.75Q52.45 411 50.65 412L47.55 413.75L47.5 413.85M52.45,418.2L51.8 418.7L50.6 419.3Q48.45 420.2 48.45 421.05L48.8 421.4L48.55 421.95L48.7 422.35Q49.6 422.45 50.1 422.9L51.65 420.95Q55.85 417.75 55.85 417.15L55.6 416.85L53.9 417.45L52.45 418.2M72.1,425.45L70.2 425.45L67.8 424.85L65.8 424.05L64.25 423.4L62.35 422Q62.2 422.1 62.2 422.3Q62.2 423.6 63.35 424.8Q64.4 425.9 66.2 426.55L66.25 426.6Q66.75 427.05 67.85 427.05L70.4 426.45L73.25 425.35L72.1 425.45M69.05,426.4L69.25 426.35L69.05 426.45L69.05 426.4M79.15,543.8Q88.55 536.25 92.35 520.8Q85.6 520.5 78.35 518.8L79 537.05L79.15 543.8M98.5,525.1L94.35 525.1Q93.75 525.1 93.6 525.55L94.35 525.9L94.45 526.05L98.45 526.2L98.6 525.9L98.5 525.65L98.75 525.35L98.5 525.1M83.1,550.9L83.1 551.55L84.55 553.95Q85.5 555.4 86.6 556.4L86.95 556.45L87.1 556.2L86.75 555.65L87.45 556.15L87.95 556.15L88 556.15L88 556.1L88.1 555.9L86 553.4L83.7 550.9L83.1 550.9" />
<path style="fill:#E66006;fill-opacity:1" d="M61.25,341.1Q66.45 346.15 71.2 351.5L66.7 351.9L66.1 354.95L62.8 352.5L63.2 357.45L58.5 354.75L58.7 360.3L54.55 361.75Q52.2 355 50.3 347.95Q46.5 333.9 48.7 332.45Q50.9 331 61.25 341.1M122.45,345.2L118.5 357.65L116.45 352.7L113 355.15L112.8 351.1L109.5 351.9L107.45 350.05L115.2 340.05Q123.25 330.25 124.7 331.35Q126.15 332.5 122.45 345.2" />
<path style="fill:#FFFFFF;fill-opacity:1" d="M78.75,376.2L78.1 377L77.9 377.35L77.8 377.6L76.6 379.4L76.5 379.55L75.75 380.55L75 381.7L74.55 381.65L74.5 381.55L73.45 379.55L72.85 378.05L72.7 377.8L72.7 377.55L71.9 375.6Q71.45 374.45 71.35 373.6L71.3 370.6Q71.3 365.8 72.25 363.7L72.8 361.95L72.9 361.1Q73 360.6 73.45 360.25L75.7 358.55Q76.3 358.15 76.95 358.05L78 357.8L78.9 357.6L80.65 357.65L82 358.05L82.55 358.25L83.15 358.55L84.05 359.65L84.8 360.65L85.25 361.7L85.7 362.8L85.8 363.9L85.85 364.95L85.95 365.5L85.95 368L85.85 368.9Q85.9 369.4 85.35 369.85L84.6 370.5L84.45 370.5L83.5 371.25L82.45 372L82.35 372.2L79.95 374.65L79.8 374.85L78.75 376.2M90.6,368.45L89.7 368.6Q87.65 369 85.75 370.05L86.05 368.6L86.15 367.95Q86.5 364.9 85.8 362.2Q86.4 361.05 87.35 360.15Q87.65 359.85 88.1 359.55Q91 357.45 94 360L94.2 360.15Q97 362.65 96.4 365.65Q96.15 367 95.45 367.95L95.2 368.25L90.6 368.45M78.25,368.8L78.5 369.2Q78.95 370.05 79.85 370.6L80.7 370.6L81.15 370.45L81.6 370.45L82.1 370.35L83.25 368.9L83.35 367.7Q83.35 364.9 81.4 363.9L81.2 363.9Q80.75 363.6 80.15 363.55Q77.7 363.25 77.7 366.95Q77.7 367.9 78.25 368.8M115.1,407.7L115.05 408.55L115.35 408.7L114.9 410.2L114.5 410.2L113.8 410.95L114.5 411.1L114.2 411.5Q112.8 413.2 106.6 415.3L99.45 417.45L91.25 419.4Q82.1 421.1 74.6 420.6L73.65 420.5Q63.2 419.55 56.7 409.8Q54.7 406.7 53.3 403.15L52.35 400.2Q52.55 393.8 54.6 386.75Q56.45 380.5 59.4 375.15L59.2 376.05Q58.9 378.4 59.25 380.85Q60.3 388.7 67.3 394.9Q68.7 396.15 70.6 397.05Q74.1 398.7 79.3 399.1L90.2 398.7L95.2 397.75Q102.25 396.2 107.9 393.4L110.15 392.2Q114.6 389.7 117.1 386.9L115.65 401.25L115.7 405.5L115.5 407.75L115.1 407.7M90.3,367.95Q92.1 367.95 92.1 365.95Q92.1 363.75 90.15 363.45Q88.2 363.1 88.2 365.65Q88.2 367 89.2 367.8L90.3 367.95M114.15,408L114.15 407.8L114.1 407.9L114.15 408" />
<path style="fill:#FF6D6B;fill-opacity:1" d="M95.2,368.25L95.25 368.25L97.9 368.6Q99.4 368.95 100.75 369.65Q103.05 370.85 104.25 372.6Q105.05 373.9 105.3 375.5L105.4 376.5L105.4 376.8L105.4 377.55Q105.05 381.95 100.15 385.6Q97.6 387.45 94.7 388.45Q90.55 389.85 85.65 389.5Q83.05 389.3 81.05 388.45Q78.55 387.4 76.95 385.35L75.35 381.65L76.5 379.55L76.6 379.4L77.8 377.6L77.9 377.35L78.3 376.8L78.55 376.5L78.75 376.2L79.8 374.85L82.1 372.6Q83.85 371.05 85.75 370.05Q87.65 369 89.7 368.6L90.6 368.45L95.2 368.25" />
<path style="fill:#AAD614;fill-opacity:1" d="M24.9,438.45L21.05 419.9Q30.35 428.7 39.65 433.05Q44.9 435.45 50.1 436.5L56.7 433.4L56.85 433.5L107.6 431.65L121.8 431.6L127.3 427.1L132.45 427.6Q148.2 428.35 156.6 418.25Q160.3 427.65 158.9 439.2Q158.1 440.15 157.3 442Q156.55 443.8 156.05 445.55Q155.95 445.6 155.8 445.75Q153.65 447.4 152.6 450.35Q151.65 453 154 455.05Q155.2 456.1 156.55 456.6Q155.3 458.75 155.65 461.65Q156.25 466.75 163.15 466.2L166.7 465.65L169.7 469.45L157.45 496.9L154.95 491.85Q152.05 486.65 150.05 485.85Q148.95 485.4 147.6 485.3L145.25 485.25L142.85 485.65L142.85 485.85Q140.65 483.7 137.5 481.95Q135.75 480.95 134.1 480.35L126.7 480.1Q123.75 481.25 117.15 487.85Q111.6 493.45 107.45 493.2Q103.05 492.95 99.55 488.6Q95.95 484.1 95.35 484Q94.15 483.8 91.6 485.7Q88.9 487.75 86.75 487.7Q84.2 487.65 81.35 485.3L79 482.95L74.3 482L71.4 481.75Q68.35 481.6 66.7 482.35Q64.3 483.5 59.2 491.65Q56.65 495.7 54.6 499.55Q46.2 494.3 44.8 492.4Q44.2 491.6 42.9 485.3Q41.7 479.5 40.7 479.1Q39.6 478.65 33.6 486.1L27.8 493.65Q29.65 482.2 29 471.1L28.6 466.25Q33.25 465.7 33.75 461.7Q34.1 458.8 32.85 456.65Q34.2 456.15 35.4 455.1Q37.75 453.05 36.8 450.4Q35.75 447.45 33.6 445.8L33.35 445.6L32.1 442.05Q30.5 438.45 29 438.15L24.9 438.45" />
<path style="fill:#582903;fill-opacity:1" d="M125.15,403.8L124.85 403.8Q124.15 403.35 121.9 402.4L121.85 402.35Q121.4 402.1 119.35 401.4Q117.5 400.75 117.5 400.3Q117.5 399.55 119.85 400.15L123.5 401.35L123.55 401.4Q124.55 401.65 125.1 402.05L127.1 402.7L127.25 402.75L127.4 402.9L127.5 403.15L127.4 403.35L127.25 403.55L127.2 403.8L126.9 403.85L126.55 403.7Q126.5 403.55 126.25 403.55L126.55 403.8L126.55 403.95L126 403.95Q125.85 403.95 125.85 404.05L125.75 404.15L125.7 404.15L125.15 403.8M123.55,408.1L123.45 408.1L123.55 408.4L123.45 408.7L123.1 408.7Q122.05 408 120.5 407.45L120 407.45L118.7 406.9Q117.35 406.25 117.35 406.05L117.4 405.75L118.75 405.95L119.35 405.9L121.55 406.2Q123.35 406.6 123.85 407.1L123.5 407.5L123.45 407.55L123.75 407.7L123.9 407.85L123.95 407.95L123.95 408.15L123.85 408.15L123.55 408.1M115.35,408.7L115.05 408.55L115.1 407.7L115.5 407.75L118.15 408.25L120.9 408.95L121.65 409L123.6 409.65L123.65 409.65L123.75 409.85L123.6 410.1L123.55 410.1L123.5 410.1L123.2 410.15L123.1 410.6L123.05 410.9L122.35 410.9L122.55 411.1L122.45 411.3L121.8 411.3L119.9 410.5L117.7 409.75L116.35 409.2L115.35 408.7M122.7,414.3L122.7 414.6L122.6 414.65L122.4 414.65Q122.15 414.65 121.95 414.45L121.7 414.25L121.3 414.35L121.65 414.65L120.65 413.95L118.25 412.7L116.1 411.8L114.5 411.1L113.8 410.95L114.5 410.2L114.9 410.2L117.2 410.75L118.05 411.05L118.2 411.1L118.3 411.15L118.9 411.55L119.7 411.9L120.95 412.35L122.15 412.65L122.5 412.6L122.55 412.6L122.85 412.95L122.8 413.3L122.75 413.3L122.9 413.4L122.95 413.45L122.95 413.75L122.8 413.8L122.7 413.8L122.2 413.55L122.05 413.4L122 413.4L121.95 413.7L121.9 413.75L122.7 414.3M98,532.6L97.6 533.05L96.1 533.1L94.15 532.5L92.6 531.9L92.5 531.65Q92.95 531.25 94.1 531.3L95.6 531.55L98.5 532L98.6 532.2L98.45 532.35L98 532.6M96.05,541.3L94.15 540.8Q92.45 540.15 91.95 540.05L91.7 539.65L91.35 539.55L91.1 539.1L91.35 538.95L95.55 539.65L96.95 540.05L97.15 540.15L97.2 540.15L97.55 540.45L97.35 540.7L97.65 540.95L97.45 541.2L96.95 541.25L96.9 541.25L96.05 541.3M92.85,550.6L92.3 550.65L90.2 549.4L88.55 548.15L87.25 546.85L86.25 545.5Q87.3 545.5 88.2 546.1Q89.4 546.9 90.2 547.1Q91.4 547.7 92.4 548.5L93.85 549.65L94.1 549.85L93.95 550.1L93.6 550.05L92.85 550.6M45.6,413.35L45.2 413.3L45.1 413.1L45.2 412.85L45.8 412.35Q46.3 411.6 47.55 410.9Q49 410.1 50.9 409.6L51.4 409.35L53.25 408.95L53.35 409.2Q53.35 409.65 52.15 410.3L50.3 411.25Q48.2 412.7 47.3 412.95L46.25 413.7Q45.85 413.7 45.6 413.35M44.65,410.9L44.6 410.9L44.55 410.65L44.55 410.6Q44.55 410.3 44.9 410.05L45.65 409.7L45.65 409.5Q46.55 408.55 48.45 407.9L50.05 407.15Q50.9 406.75 52.35 406.7L52.6 406.95L49.6 408.95L46.6 410.55L46.55 410.55Q45.65 411.35 45.2 411.35Q44.75 411.35 44.85 410.95L44.65 410.9M43.5,406.1Q43.5 405.3 44.55 404.75L45.25 404.45L45.35 404.35Q45.9 403.9 46.6 403.75L47.85 403.25L49.25 402.85L49.35 403.15Q49.35 403.75 46.4 405.5L45.75 406.1L44.35 407.2L43.85 407.15L43.6 406.95L43.45 406.9L43.35 406.65L43.45 406.4L43.5 406.1M42.6,403.05L42.45 403L42.35 402.55L42.4 402.35L42.3 402.15L42.35 402.05L42.65 401.7L42.45 401.65L42.4 401.5L43.25 400.8L44.35 400.3L46.35 399.6Q47.9 398.8 50.5 398.45L50.75 398.7L47.7 400.5Q47.1 400.75 45.75 401.55L43.85 402.6L43.55 402.6L42.7 403.05L42.6 403.05M77.7,366.95Q77.7 363.25 80.15 363.55Q80.75 363.6 81.2 363.9L81.4 363.9Q83.35 364.9 83.35 367.7L83.25 368.9L82.1 370.35L81.6 370.45L81.15 370.45L80.7 370.6L79.85 370.6Q78.95 370.05 78.5 369.2L78.25 368.8Q77.7 367.9 77.7 366.95M89.2,367.8Q88.2 367 88.2 365.65Q88.2 363.1 90.15 363.45Q92.1 363.75 92.1 365.95Q92.1 367.95 90.3 367.95L89.2 367.8M114.1,407.9L114.15 407.8L114.15 408L114.1 407.9M113,415.6L113.15 415.4L113.25 415.35Q114.35 415.45 116.65 416.05L118.75 416.7L119.05 416.9L119.75 417Q120.45 417.2 120.7 417.5L120.75 417.7L120.65 417.9L120.5 418L120.4 418L120.7 418.3L120.75 418.45L120.65 418.6L121.05 419.1L120.8 419.5L120.45 419.65Q117.5 418 116.6 417.65L116.6 417.55L115.05 416.95Q113 416.05 113 415.6M47.55,413.75L50.65 412Q52.45 411 53.9 410.75L54 411.05Q54 411.5 50.9 413.4L48.05 415L47.9 415.15L46.75 415.9L46.45 415.9Q46.3 415.75 46.3 415.4L46.5 415.15L46.2 415.05L46.1 414.85Q46.1 414.55 46.9 414.15L47.5 413.85L47.55 413.75M53.9,417.45L55.6 416.85L55.85 417.15Q55.85 417.75 51.65 420.95L50.1 422.9Q49.6 422.45 48.7 422.35L48.55 421.95L48.8 421.4L48.45 421.05Q48.45 420.2 50.6 419.3L51.8 418.7L52.45 418.2L53.9 417.45M73.25,425.35L70.4 426.45L67.85 427.05Q66.75 427.05 66.25 426.6L66.2 426.55Q64.4 425.9 63.35 424.8Q62.2 423.6 62.2 422.3Q62.2 422.1 62.35 422L64.25 423.4L65.8 424.05L67.8 424.85L70.2 425.45L72.1 425.45L73.25 425.35M69.05,426.45L69.25 426.35L69.05 426.4L69.05 426.45M98.75,525.35L98.5 525.65L98.6 525.9L98.45 526.2L94.45 526.05L94.35 525.9L93.6 525.55Q93.75 525.1 94.35 525.1L98.5 525.1L98.75 525.35M83.7,550.9L86 553.4L88.1 555.9L88 556.1L88 556.15L87.95 556.15L87.45 556.15L86.75 555.65L87.1 556.2L86.95 556.45L86.6 556.4Q85.5 555.4 84.55 553.95L83.1 551.55L83.1 550.9L83.7 550.9" />
<path style="fill:#39481C;fill-opacity:1" d="M130.15,442.95L130.5 442.85Q132 444.4 133.4 448.3Q134.75 452.1 134.75 454.65Q134.75 456.55 134.25 458.25Q133.35 461.25 131.25 461.25L130.05 461L128.9 460.65Q127.8 459.25 127.6 458.7L127.5 457.05Q127.5 455.95 128.05 454.75Q128.75 453.25 130 452.5L131.75 452.5L133 453.6Q133.65 454.25 133.65 454.75L133.75 454.75L133.75 453.6L132.5 448.5L131.2 445.8L130 443.45Q130 443.05 130.15 442.95M102.1,444.15L102.25 444.15L103.6 448.6Q104.6 451.3 107 453.15L108.15 453.15Q110.05 452.25 111 449.95Q112.15 447.1 112.75 446.5Q113.25 446.7 113.25 447.35L111.45 452.4L109 458.75Q108.35 460.65 107.4 464.5Q106.35 467.75 104.25 469.5L103.35 469.4L103.1 469.3L103 468.8L104 468.1Q105.1 467.05 105.75 465.25L107 461.25L108.2 457.5Q109 455.2 109.75 453.6L108.25 454.15L106.75 454.15Q104.25 452.65 102.95 449.9Q101.9 447.65 101.9 445.15L102.1 444.15M119,454.85Q119.55 454.35 120.8 454L122.4 453.6Q124.75 452.6 124.75 454.45L124.35 456.85Q124.05 456.45 123.9 455.6L123.6 454.35L120.9 455.25L121.55 456.8L121.9 458.65L121.7 460.2L121.35 461.65L121 461.65L121 460.7L121.1 459.7Q121.1 458.35 120.45 456.75Q119.7 455.05 119 454.85M115.7,455.25L116 457.4L116.35 459.2Q116.8 460.45 118.65 460.85L118.75 459.35L119.25 459Q119.75 459.7 119.75 460.85Q119.75 461.3 119 462Q117.35 462.05 116.65 461.45L115.9 460.4L115.25 461.8Q114.9 462.6 114 463.15L112.5 463.15Q111.1 462.9 110.35 461.7Q109.75 460.75 109.75 459.7Q109.75 458.35 111.05 455.9Q112.7 452.85 114.6 453.65Q115.6 454.2 115.7 455.25M114,454.5Q112.95 454.2 111.7 456.65Q110.65 458.75 110.65 459.7L111.25 460.85Q111.9 461.8 112.5 462.15L113.9 462.15L114.6 460.45L115 459.05L114.5 456.75L114 454.5M101.85,454.15L102.75 460.55L103 465.2Q103 466.6 101.25 467.5L99.4 467.4L98 466.4Q97.2 465.7 97.25 465.25Q97.25 464.9 97.5 464.75L99.75 466.35L101.15 466.35Q101.8 466.05 101.95 464.85L102 463.25L101.65 459.85L101.25 457.05Q101.25 454.3 101.85 454.15M95.45,454.7L95.7 455.4L95.75 455L96 455Q96.3 455.8 96.2 457.75Q96.5 459.4 98.85 460L99.65 459.9L100.3 459.25Q100.8 458.8 101.25 458.75L100.6 459.75L99.9 460.9Q97.35 460.95 96.3 459.55Q95.7 458.75 95.6 457.75L95.35 458.65L95 458.65L95 457.8L95.1 456.95L94.75 455.45L94.35 454.15L93.15 454.25L92.75 454.15L90.85 456.1Q90.15 457.05 90.15 458.45L90.25 459.9Q90.5 460.75 91.5 460.9L92.4 460.9L94.85 458.75L94.95 458.7L95 459.05Q95 459.8 94.15 460.75Q93.2 461.9 92 461.9Q89.9 461.9 89.35 460.5L89.25 458.55Q89.25 456.45 90.15 455.35Q90.95 454.4 92.75 453.8L93 453.5L94.85 453.4L95.45 454.7M86,450.6L85.5 452.9Q84.9 454.8 84.25 455.25L80.25 455.75L77.75 455.8L75.25 456L74.5 456.1Q72.85 458.1 71.85 461.2L70.25 466.6Q70.5 466.75 69.85 466.75L69.35 466.7L69.25 466.6L69.25 465.25Q70.45 457.25 72.75 450.65Q73.15 448.1 73.85 446.85Q75.05 444.65 78.75 444.25Q82.75 444.15 84.7 446.85Q86 448.6 86 450.6M81.1,445.5Q78.2 444.5 76.25 446.05Q74.6 447.35 74.25 449.6L72.55 455.05L71 460.5Q71.65 458.85 72.75 456.9L73.2 456L73.9 455.1L79.65 454.6L83.9 454.1L84.6 452.55L85 450.55Q85 446.75 81.1 445.5M87,454.15Q87.55 452.25 88.35 451.65L88.6 451.9L88.65 452.4Q88.65 454 86.8 458.65Q85 463.1 84.15 464L83.6 464L83.5 463.4Q83.5 462.95 84.75 460.5L86.25 457.25L87 454.15M81.25,468.65L79.7 467.95L77.7 467.5L76.2 467.65Q74.2 468.35 72.7 470.6Q71.5 472.5 71.25 473.8L72.7 475.7L74 476.5L77.5 478.4L79.05 478.4L79.45 478.25L80.2 476.7L80.75 475L80.6 474.6L80.35 474.5L79.25 474.25L76.25 474.35Q76.45 473.75 76.6 473.65Q77 473.25 78.35 473.25Q81.75 473.25 81.75 474.7L81 477L81.4 476.85L81.5 477.25L80.65 478.45L80.25 478.9L80 479.4L79.85 479.4L79.75 479.5L78.75 479.75L76.35 479.5Q73.55 478.65 71.7 476.55L70.95 475.6Q70.25 474.9 70.25 474.4L70.25 474.2L70 472.8Q70 470 73.25 468.1Q74.1 467.6 75 467.25Q77.45 465.7 79.7 466.95Q81.1 467.35 81.6 468.5L81.6 468.6L81.25 468.65M97.25,468.5Q98.6 468.55 99.05 471L99.5 474.25Q99.7 473.9 100.25 473.5L102 479.15Q103.1 482.6 105.25 483L105.5 481.6L105.95 481.3L105.65 480.9Q104.5 479.05 104.5 477.05L104.5 475.85L108.75 476.4Q110.75 477 110.75 478.6Q110.75 480.15 108.75 480.15L107.3 479.85L106.5 479.5L106 479.35Q106.15 480 107.05 480.9Q108.3 482.1 109.95 482.1Q111.5 482.1 113.1 480.5L113.85 480.4L113.95 480.55L114 481Q114 481.65 112.95 482.35Q112.05 483 111 483.25Q108.25 483.65 106.6 482.1L106.75 482.7Q106.75 483.25 105.75 484.25L103.65 483.9Q102.15 482.65 101.35 480.75Q100.95 479.75 100.4 477.35L100.25 477.15L100 479.9Q98.25 478.7 98.5 474.85L98.15 472.3L97.5 469.75Q94.25 473 94.4 477.85L94.25 478.15Q93.25 477.4 93 475.35L92.5 472.1L92.3 472.3L92.15 472.6L91.75 472.5Q91.6 472.4 91.6 472L92.1 470.7L92.75 469.5Q93.5 469.7 93.5 470.6L93.4 471.85L93.9 474.25L94 474.25Q94.45 472.1 95 471.25L95.85 469.7Q96.55 468.5 97.25 468.5M86.6,473.75L87.9 476.75Q88.65 478.65 89.9 479.35L89.9 479.75L89.75 480.1Q88.3 479.8 87.65 478.85L87.6 478.8L87.25 479.45Q86.55 480.5 85.5 480.5Q82 480.5 82 477.9L82.05 477.35Q82.25 477.05 83 477.35Q82.75 476.75 82.75 475.55Q82.75 474.15 82.95 473.75Q83.4 472.7 85.25 472.75Q85.9 472.85 86.45 473.75L86.6 473.75M84.15,473.75Q83.6 474.75 83.6 478.4L83.85 479.15L85.4 479.35Q86.05 479.3 86.45 478.55L86.75 477.6Q86.75 476.25 85.4 474L84.85 473.75L84.15 473.75M117.45,476Q116.85 476 115.85 476.45L114.75 476.9L113.75 476.9Q113.25 476.3 113.25 475.55Q113.25 474.2 114.65 472.15Q116.3 469.8 118 469.9Q117.9 470.45 116.85 471.1Q115.75 471.8 115.4 472.6Q114.35 474.5 114.15 475.9L114.15 476L115.7 475.5Q116.7 475 117.5 475Q119.45 475 120.25 476.1Q120.75 476.75 120.75 477.55Q120.75 479.1 119.05 480.55L115.75 482.75L115 482.75L114.4 482.6Q114.25 482.8 114.25 482.2L117 480.45Q119.75 478.55 119.75 477.65L119.4 477.1L118.85 476.25L117.45 476M109.6,478.95L109.75 478.4Q109.75 477.6 105.5 476.85Q105.55 477.7 106.4 478.25L108 479.15L109.4 479.15L109.6 478.95M132.7,454.85Q132.15 453.65 131.4 453.5L130.35 453.5Q129.7 454 129.05 455.2Q128.4 456.4 128.4 457.05Q128.4 460.1 131.15 460.1Q132.6 460.1 132.7 459.35L132.5 458.5L133.25 456.75Q133.25 455.9 132.7 454.85M63.65,443.3L63.75 443.75L61.4 449.55Q59 455.8 59 460.6Q59 462.75 59.15 463.2Q59.4 464.1 61.1 466.4Q61.75 466.25 61.75 465.3Q61.75 464.4 62.5 464.25L62.8 464.3L62.9 464.65L62.75 465.95Q62.5 467.1 62 467.5L60.75 467.5Q58.7 465.85 58.2 463.95L58 460.6Q58 456.95 59.05 453.1L61.75 445.4L61.75 445.25Q57.25 448.25 55.25 452.15Q54.05 454.5 52.5 459.4Q52.25 459.4 52.25 459.75L51.5 459.65L51.5 457.55L51.9 453L52.5 448.75Q50.7 451.8 49.2 457.1L46.75 465.65L46 465.6Q46.05 461.75 48.4 455.25Q49.75 451.2 50.6 449.2Q52.15 445.65 53.75 445.5L54.1 445.65L54.25 446.25L53.9 448.05Q53.4 449.3 53.25 450.1L52.75 453.65L52.75 455L54.15 452Q55.15 449.9 56.4 448.6L59.35 445.65Q61.4 443.85 63.5 443.25L63.65 443.3M67.5,460.25Q68 460.55 68 461.5Q68 465.3 65.45 469.55Q62.7 474 59.75 474L57.4 473.9L56.5 471.45Q56.5 471 56.65 470.85Q56.7 470.7 57.1 470.5L57.55 471.7L58.15 472.9Q61.2 473.35 64 469.7Q66.35 466.55 66.25 464.6L66.25 464.5L65.5 464.75Q62.65 464.75 61.75 461.75Q61.4 460.55 61.4 458.4L61.6 458.1L61.75 458.15Q62.15 458.55 62.55 460.95Q62.9 462.95 64.5 463.6L65.15 463.6Q66.05 463.15 66.5 461.8Q66.95 460.5 67.5 460.25" />
<path style="fill:#000000;fill-opacity:0.2" d="M46.15,327.35L45.75 329.7Q45.45 332.5 45.45 333.95Q45.45 336.6 46.05 341Q46.7 345.55 47.45 348.05L49.7 355.1L51.35 358.85L52.3 361.55L53.55 365.55Q53.55 366 52.3 366.5Q51.05 367 51.05 367.2L53 369.05Q54.15 370.1 54.15 370.8L52.95 371.85L50.25 372.75Q46.35 373.6 46.35 374.4L46.45 374.7L46.7 374.75Q49.95 375.25 51.75 376.8L51.65 376.8L50 377.3Q48.5 377.95 48.5 378.55Q48.5 378.9 48.8 378.9L50.85 379.1L48.6 381.6L46.75 383.05Q45.6 383.7 45.6 384.05Q45.6 384.45 47.35 385.05L49.5 385.7L49.35 385.8L48.3 387.15L48.9 387.45L48.8 387.65L47.3 389.7Q47.3 390 48.1 390.7Q48.95 391.5 49.05 392.45L49.35 395.4Q49.35 396.7 49.7 397.85Q49.85 399.6 50.5 401.95L51.75 405.95L52.7 409.95Q53.3 412.3 54.3 414Q55.45 415.95 57.25 418Q59.25 420.3 61.2 421.8Q65.1 424.8 67.2 425.7L75.05 426.3L80.9 426.55L83 427.05L85.5 426.8L87.3 426.5L89 426.75L95.75 427.2Q98.3 427.2 100.65 426.45L102.8 425.7Q106.45 425.85 107.7 425.65L108.9 425.25L111 424.35L113.6 423.25L115.55 421.95Q115.9 421.65 117.4 420.8L119.55 419.3L122 416.65Q120.75 420.6 119.15 423.15L118.75 423.75Q116.2 426.95 107.6 431.65L121.8 431.6L127.3 427.1L129.75 427.4L129.55 427.55L129.3 427.7L129.05 427.5Q128.85 427.4 127.95 427.85L127.4 428.35L127.05 428.9L127.2 429.25Q126.6 430.3 126.6 435.55Q126.6 441.75 126.25 445L124.65 456L123.4 467Q122.3 475.7 122.3 476.55L122.4 477.45Q122.85 478.05 124.8 478.05L126.5 477.75L130.65 477.45L133.2 478.3Q135.8 479.2 136.8 479.85L139.05 481.5L142.2 483.35Q142.95 483.35 142.95 482.6L142.05 479.3L141 476.1Q139.45 471.6 139.05 469.4Q137.5 460.4 136.05 456.15Q135.05 453.3 134.15 449.45L132.65 442.8L131.1 436.2L130.5 433.8L130.55 432.7L131 431.1Q131.25 430.4 131.6 430.05L134.35 429.75L135.9 430L138.5 430.2L142.7 429.85L146.25 429.35L147.65 429.05L149.55 428.55L151.6 427.5Q152.85 426.65 153.6 426.15L153.6 426.3L153.2 428.1L153.15 429.45Q153.15 431.15 153.9 433.75Q154.65 436.3 154.65 437.65L154.05 444.1Q154.05 445.4 154.4 445.8L154.8 445.8Q155.7 445.5 156.4 443.8L157.4 441L159.1 437.4L158.9 439.2Q159.65 438.25 160.4 438.1L164.5 438.4L163.7 438.9Q162.35 440.05 162.35 441.35Q162.35 442.05 162.6 442.35L163.7 443.25L159.7 443.6L159 443.85L158.1 444.4Q157.65 444.7 157.65 445.1L157.65 445.15L156.8 446Q156 447 156 447.8L156.2 448.8Q156.75 449.7 158.3 449.7L160.9 449.4L163.35 449.1Q168.8 449.1 168.8 455.25L168.75 456.05Q167.25 452.55 164.5 452.55Q159.95 452.55 159.95 456.45Q159.95 458.1 160.9 459.85Q162.45 462.6 165.6 462.6Q170.7 462.6 173.65 458.8Q173.1 460.6 171.85 462.45Q170.3 464.7 166.7 465.65L168.1 467.45Q167.4 467.7 166.65 468.05L164.6 468.9L163.5 469.3L162.5 469.5L162.3 470.85Q162 473.95 160.35 476.1Q158.35 478.65 158.25 481.35L157.5 486.65L157.35 486.65L155.3 483.6Q154 481.6 152.1 480.65L151.35 480.65Q143.85 484.05 143.85 484.9L144.05 485.45L142.85 485.65L142.85 485.85L142.7 489L142.3 492.15L141.9 491.8Q140 490.4 135.35 490.25Q134.8 489.75 134.45 488.4Q134.1 487.15 133.35 486.6L132.3 486.35L128.45 486.15Q126.95 485.6 124.05 487.3Q121.35 488.85 119.55 490.95L117.65 492.55L116 493.95Q113.45 496.35 110.95 496.35Q110.1 496.35 110.05 496Q109.95 495.5 109.65 495.35L108.9 495.35Q106.65 496.1 105 496.8L103.3 497.75Q101.8 498.45 100.5 498.45L98.45 498L97.55 497.25L95.4 495.65Q94.15 495 93.25 493.85L91.95 492.2L91.25 492.2L88.95 493.4Q87.35 494.6 86.25 494.6Q85.85 494.6 84.8 493.75L83.7 492.75L81.45 490.5L78.6 488.55L77.25 487.4L76.9 486.8Q76.35 486.35 74.45 486.35Q72.2 486.35 69.8 487.1Q67.8 487.7 67.2 488.25L64.05 491.55Q61.75 493.85 61 494.9Q59.8 496.5 59.7 497.95L59.3 498.05Q59.65 498.8 59.85 500.55Q60.3 502.1 62 503L65.9 505Q68.4 505.95 71.55 505.95L76.35 505.95Q82.05 507.3 93.9 508.65L97.65 508.65L100.55 508.85L106.85 508.85L116.8 507.6Q121.05 506.9 124.65 505.55L126.9 504.85L130.1 503.75Q131.15 503.15 132.15 502.5Q133.9 501.7 134.1 501.15L135.35 500.35L137.25 499.4Q138.85 498.95 140.95 497.05L141.1 496.95L140.25 499.15L139.65 500.55Q136.1 508.05 128.8 513.35Q125.2 516 122.1 517.25L121.9 517.25Q118.4 517.25 117.35 520.55Q116.9 522 116.55 528L116.15 539.45L116.25 543.9Q116.45 548.15 116.75 549.65Q118 555.4 119 556.7Q120.6 558.9 125.4 558.9L126.8 558.75L129.9 558.3L131 557.7L131.65 557.4L132.4 557.85Q133.25 558.3 134.65 558.3Q135.85 558.3 136.4 557.55L136.8 556.8L138.9 557.1Q140.35 557.1 141.1 555.65L141.15 555.8Q142.2 559.15 142.6 562.2L138.15 563.15L137.95 563.2L137.6 563.3L123.65 564.05Q114.45 563.85 113.35 559.95Q112.25 556.1 112.7 537.05L113.35 519Q106.3 520.55 99.35 520.8L99.2 522.75L95.3 523.55Q94.7 525.05 94.05 528.6L92.55 533.85L90.25 538.8Q88.35 542.35 86.55 544.2Q84.8 546.05 83.75 546.75Q82.2 547.8 79.8 548.4Q79.15 548.55 79.15 549.5L79.05 550.95Q78.75 551.7 78.75 553.55Q78.75 556.2 77.7 562.25L75.55 562.8Q72.95 563.95 68.05 564.05L54.1 563.3L53.75 563.2L53.55 563.15L49.1 562.2Q49.45 559.6 50.3 556.75Q51.25 557.55 52.6 557.55L53.75 557.3Q53.85 557.25 54.3 557.6L55 558.2Q55.55 558.6 56.1 558.6Q56.75 558.6 58.5 557.25L59.45 558L60.15 558.8L61.5 559.05L61.95 559.2L63.95 559.65Q69.65 558.55 70.55 557.85L71.85 556.3L72.9 554.6Q73.9 553.35 74.2 551.25L74.4 547.85L74.7 534.3Q74.8 528.3 74.55 525.3Q74.4 523.35 73.65 520.8L72.8 519.65Q72 518.9 71.15 518.75Q70.85 518.7 70.1 519Q64.05 518 57.5 515.55Q51.45 513.25 45.55 504.1L43.45 500.55Q39.85 493.95 39.75 488.85Q39.7 487.25 40.3 482.2L40.7 479.1Q39.6 478.65 33.6 486.1L31.2 489.2L34.1 485.1L37.75 481.1L40.15 478.25Q41.85 478.55 42.7 481.6Q43.95 486.15 44.55 486.9Q45.35 485.65 45.75 483.7L46.35 480.45L47.9 474L49.65 467.55L50.7 461.15Q51.35 456.85 54.3 448.25L56.7 442.2L58.8 439.7L60.55 438.05Q61.8 436.9 63.15 436.35Q65.45 435.4 67.35 435.05L71.85 434.75Q73.85 434.75 75.2 435.25L75.6 435.4L75.75 436.7Q75.75 441.3 70.95 459.5Q70.35 461.6 69.7 465.25L68.6 470.85L67.8 473.7L66.75 476.55L65.45 479.6Q64.35 481.9 64.35 482.3L64.4 482.7L64.8 482.7Q66 482.45 66 482.25L65.8 481.75Q65.8 481.5 66.95 481.2L68.85 480.85L70.6 480.6Q74.55 480.6 77.4 481.9L80.05 483.2L80.55 483.15L80.6 482.9Q79.8 480.45 79.8 466.25Q79.8 453.75 80.25 449.45Q80.4 447.5 81.9 441.15L82.8 436.85Q82.95 436 83.65 434.25L84.3 432.55L84.3 432.15L83.9 432.05L79.5 433.05L75.3 433.2L75.3 433.4L75.15 433.35L71 433.35L65.9 433.65L60.65 433.95L58.6 434.35L58.15 434.45L57.8 433.55Q56.7 433.6 56 433.95L54.8 434.45L53.7 434.95L53 435.35Q51.7 435.9 51.05 436.75L50.25 438.15L49.15 441.05L48.2 443.9L46.3 449.65L44.55 455.4Q41.9 463 40.85 466.85L39 472.65L37.15 477.4L36.45 478.5L34.85 480.85L33.3 483.15L30.35 487.75L28.15 491.45Q29.6 481.1 29 471.1L28.6 466.25Q25.55 466.6 22.1 465.35Q18.7 464.2 17.55 462.5Q14.8 458.45 15.55 454.65L18.15 450.2Q17.35 448.9 16.8 447.3Q15.65 444 16.75 442.25Q17.55 441 20.05 439.9L20.55 439.7L20.55 440.25Q20.55 441 20.7 441.3L21.8 442.35L23.1 443.25L25.4 443.85L25.4 444Q24 444.5 22.9 445.7Q21.8 446.85 21.8 447.7Q21.8 448.6 23.95 449.75Q26.3 451 26.6 451.8Q23.7 452.55 23.7 455.6Q23.7 458.4 25 460.8Q26.75 464 30 464L31.95 463.9Q32.6 463.6 33.5 462L34 460.7L34.05 459.5L33.65 457.05L35.4 455.5Q37.1 453.6 37.1 451.4Q37.1 450.3 36.65 449.45L35.25 447.15Q34.3 445.4 33.5 444.9Q32.5 444.2 32.4 442.8L32.4 442.75L35.2 444.25L36.15 444.7Q37.8 446.15 38.75 448.1Q39.9 450.4 39.9 452.95L39.85 454.1L39.3 455.55Q39 456.45 37.9 457.05Q36.95 457.6 36.95 458.05L37.35 461.65L36.6 464.45L35.55 466.85L34.65 468.15L33.45 469.5L31.9 470.65Q30.7 471.2 30.5 471.65Q30.35 472.1 30.35 473L30.2 474.3Q29.85 475.8 29.85 477L29.5 479.55L29.1 482.4L29.15 482.7L29.4 482.7Q30.05 481.8 30.45 480.15L31.2 477.45Q32.55 473.6 33.65 471.9L37.2 466.3Q38.9 463.25 39.75 460.8L40.55 458.1L41.75 455.4L44.3 449.85L47.85 442.2L49.55 438.7L49.5 438.45L49.35 438.45L49.65 437.4L49.7 437.2L49.8 436.75L49.85 436.45L50.1 436.5L56.7 433.4L53.45 430.4L52.6 429.5Q49.3 426.1 45.35 413.35L45.6 413.35L45.2 413.3L45.1 413.1L45.2 412.85L44.65 410.9L44.6 410.9L44.55 410.65L44.55 410.6L43.6 406.95L43.45 406.9L43.35 406.65L43.45 406.4L42.6 403.05L42.45 403L42.35 402.55L42.4 402.35L42.3 402.15L42.35 402.05L40.9 396.55L30.05 394.3L40.7 385.5L30.65 384.9L41.95 377.5L35.15 373.4L46.85 368.9L43.15 363.15L48.85 364.6Q46.25 355.6 44.55 346.15Q41.15 327.25 45.8 325.05Q46.6 324.7 47.65 324.75L46.55 326Q46.4 326.2 46.35 326.65L46.15 327.35M49.05,329.75Q53.25 331.3 54.2 332Q60.1 336.25 61.8 338.25Q65.8 342.8 67.65 344.3L69.8 346.5L70.8 350.05L70.45 351.3Q69.9 352.45 68.85 352.05Q67.25 351.7 66.55 352.5Q66.15 352.95 66.15 353.6L66 355.85Q64.95 355.65 64.4 355.05L63.5 354L63.15 354L62.75 354.15Q62.75 355.45 63.15 356.45L63.15 357.45Q62.4 357.2 61.15 356.1Q60.05 355.2 59.25 355.2Q58.5 355.2 58.5 356.6Q58.5 357.4 58.85 359.75Q58.85 360.35 57.35 361L54.65 361.85L54.65 361.4L52.4 354.45Q50.75 349.85 50.15 347.55L49.9 346.45L50.1 347.25L51.75 352.05L52.55 354.65Q53.45 356.7 55.05 356.7Q56.3 356.7 57.6 349.8L58.4 350.6L59.15 351.2Q59.7 351.2 59.9 350L60 348.3L62.3 349.2Q62.45 349.15 62.55 349.05L62.6 348.7Q62.6 347.75 60.35 344.7L56.25 340.7L53.95 338.6L51.9 336.8Q49.2 335.05 48.55 335.9Q48.3 336.2 48.3 337.85Q48.3 339.75 48.9 342.55L48.45 340.65Q47.6 336.6 47.6 333.55Q47.6 331.8 47.95 330.9Q48.3 330.1 48.85 329.7L49.05 329.75M46.1,333.45L46.05 334.4L46.05 333.45L46.1 333.45M69.6,362.7Q71.75 360.3 73.35 359.15L74.95 358.25Q72.6 360.05 72.6 364.95Q72.6 367.25 73.2 368.1L74.15 369.8Q75.25 371 77.5 371Q78.7 371 80.5 370.1Q82.7 369 83.6 367.5L84.95 365.35Q85.65 364.05 85.65 363.15Q85.65 359.95 83.35 358.1Q82.05 357.05 80.35 356.9L81 356.85Q82.45 357 83.75 357.75Q84.8 358.4 85.05 358.95L85.2 360.35Q85.35 361.4 85.85 361.4L87.1 359.95Q88.05 358.85 89.55 358.6Q88.55 358.95 88.05 360Q87.6 360.95 87.6 362.2Q87.6 363.1 88.3 364.05Q89.45 365.55 91.95 365.55Q93.9 365.55 94.75 364.4Q95.25 363.65 95.25 362.65Q95.25 361.45 93.9 360L92.85 359.1L94.8 360.55Q97.1 362.85 97.1 365.85L96.9 367.5Q97 367.85 99.45 369.15L99.6 369.25L92.95 368.6Q88.6 368.7 85.35 370.35Q82.8 371.65 80.1 374.35Q77.1 377.4 77.1 379.35Q77.1 380.4 78.65 381.65Q80.7 383.25 83.8 383.25Q93.3 383.25 99.2 379.75Q104 376.85 104 373.8Q104 372.8 103.1 371.55L103.95 372.6Q104.9 374.7 105.2 376.3L105.5 379.85Q105.5 385 101.1 390.5L98.9 393.3Q97.4 394.9 95.45 395.85L90.2 397.5L88.95 397.8L86.3 397.95L83.75 398.1L80.75 398.75L77.95 398.45L77 397.85Q75.45 396.7 75 395.25Q74.15 392.05 74.15 390.85Q74.15 389.3 74.5 387.9L74.85 385.35Q74.85 380.9 71.75 376.45Q68 371.1 61.65 369.2Q63.65 368.35 66.05 366.2L69.6 362.7M58.55,378.4Q58.95 384.6 62.55 389.85L63.25 390.6L65.1 392.7L65.65 393.15Q66.45 394.3 69.15 396.15L69.65 396.4L70.6 396.85L70.95 397L71.55 397.25L72.4 397.85L74.15 398.45L74.45 398.5L75.85 398.9L77.5 399.2L79.35 399.6L80.35 399.45L81.15 399.45L81.2 399.45L82.95 399.75L82.95 399.8L85.4 399.75L86.75 399.45L87.65 399.15Q90.2 399.15 98.55 397.2Q101.35 396.45 106.8 394.2Q107.85 393.9 109.75 392.4L112.5 390.15L116.1 387.2L116.1 387.35Q116.1 388.1 116.45 389L116.75 391L116.1 400.2L116 404.8Q115.9 407.65 115.1 409.35L114.75 410.4L114 411.6L111 413.1L103.8 415.95Q99.75 417.55 94.8 418.5L89.9 419.7L81.5 420.9L75.15 420.9L71.9 420.5L68.4 420.15L66.2 419.1L61.95 416.4Q61.3 415.95 59.8 413.9L57.3 410.3Q56.65 409.4 55.95 407.9L56.1 408L58.85 410.35L62 412.35L65.45 413.75L67.85 414.4Q69 414.7 70.1 415.2L71.85 415.2Q72.9 414.5 73.05 413.35L73.05 411.45L73.1 411.5L74.5 415.15Q75.6 417.4 78.65 418.2L82.55 418.2Q89.55 416.75 90.75 413.45Q90.75 414.25 91.25 415.05Q92.1 416.45 94.2 416.45L98.9 415.55L102.6 414.3Q104 413.75 105.4 412.6L107.25 410.55Q107.5 411.5 108.9 411.5Q110.5 411.5 113.55 409.25Q115.8 407.55 115.8 406L115.35 402.4L114.9 399.55L115.25 396.2L115.95 392.85L115.85 392.55Q115.85 392.4 115.45 392.4L112.95 394.95L111 396L110.15 396.5L109.2 397.2L108.15 399.9L107.4 402.75L107 402.75Q106.75 402.25 106.7 399.95Q106.7 398.75 104.9 398.75Q102.65 398.75 100.2 399.8Q99 400.45 97.1 400.55L93.9 400.95Q92 401.65 91.2 403.35L90.45 404.85L89.65 404.1L89 403.2Q88.45 401.95 88 401.75L86.25 401.6L83.15 401.8L81.8 402L78.75 401.5Q77.05 400.95 75.35 400.95Q73.15 400.95 73 403Q72.85 405.05 72.2 405.05L70.8 404.75Q69.7 403.95 69 402.55Q68.45 401.4 68.25 400.2Q67.95 398.45 64.25 395.85Q62.25 394.45 60.3 391.55Q58.1 388.35 56.4 386.9L55.85 386.9Q55 387 54.3 388.5L55.5 383.65L55.75 383.1L58.5 378.15L58.5 378.2L58.55 378.4M123.6,326.7L124.95 326.7L124.1 327.25Q122.95 328.15 122.85 328.7Q121.6 329.45 120.15 330.75L113.4 337.65L109.35 342.65L107.45 345.45L105.5 347.75Q104.05 349.45 101.9 350.25Q101.35 349.9 101.1 349.25L101.3 349.4Q106.35 342.4 112.2 335.9Q119.6 327.7 124.05 325.7L124.35 325.7Q124.65 325.45 125.05 325.3L124.85 325.45L124.55 325.8Q123.75 325.75 123.45 326.05L123.2 326.4L123.6 326.7M126.95,330.3L127.05 332.75L125.95 339.45L124.65 345.6Q123.8 348.7 122.55 352.05L121.6 354.5L121.55 354.5Q119.65 357.35 118.65 357.35Q118.3 357.35 117 355.05L116.6 353.75Q116.3 352.9 115.85 352.55L115.5 352.55L114.5 353.65Q113.75 354.5 112.95 354.5L112.7 354.45L112.7 354.35L112.8 352.85Q112.75 351.95 112.1 351.45L109.65 351.65L107.9 349.95L107.85 349.9L108.6 349.4L108.6 349.6Q108.65 349.85 109.1 349.85Q109.8 349.85 113.85 347.25Q113.55 347.65 113.55 348L113.55 348.25Q113.6 348.5 114.15 348.5Q115.2 348.5 116.3 347.55L116.3 347.7L116.1 349.35L116.5 349.35Q118.15 349.35 122.4 335.9L122.35 335.15Q122.25 334.75 121.8 334.5Q120.2 334.1 117.7 336.7Q115.85 338.6 113.85 341.7L110.85 345.9L109.6 347.65L109.5 347.55L108.65 348.2L107.9 348.9L108 348.8Q108.9 347.1 111.5 343.9L115.25 338.9Q116.65 336.7 118.8 333.95Q119.5 333.05 121.2 331.7Q123.75 329.7 125.55 329.7Q126.4 329.7 126.85 330.2L126.95 330.3M122,432.3L121.95 432.15L121.05 432L118.35 432.15L115.8 431.9L113.4 432.3L111.75 432.3Q108.65 432.05 107.85 432.25L106.8 432.45L106.5 432L105.65 432L101.4 432.55L99.05 432.9L99 432.9L96.3 432.3L95.45 432.3L95.3 432.5L95 432.65L93.8 432.4L91.95 432.15L91.75 432.35L91.5 432.65Q91.5 432.85 92.4 433.3L94.1 434.25Q95.75 435.4 96 436.25L96.6 438.3L96.75 438.95L96.6 440L95.9 447.35L95.9 453.2Q95.2 462.9 94.35 468.15L92.7 476.05Q91.4 482.05 91.4 483.15Q91.4 483.9 91.7 484.35L92.8 483.4Q93.4 482.65 93.9 482.45L95.4 482.45Q96.85 482.8 97.9 483.7L99 485.1L99.55 486.55Q100.25 487.85 101.1 487.85L101.4 487.8L101.45 487.5Q100.5 479.35 100.25 467.5L99.95 447.35L99.95 441.3L100.05 437.1L100.05 436.95L100.4 436.2L101.3 435Q103.15 433.8 104.6 433.45L109.2 433.25L109.5 432.9L113.45 433.05L117.9 432.75L121.95 432.6L122 432.3M130.55,427.6L130.25 427.7Q130.1 427.7 130.05 427.55L129.9 427.4L130.6 427.5L130.55 427.6M83.65,398.95L83.9 398.9L85.1 398.85L83.65 398.95M52.45,398.15L52.4 397.95Q52.4 396.7 52.65 395.85L52.6 396.1L52.45 398.15M44.3,444.5L44.4 444.45L44.25 444.65L44.25 444.6L44.3 444.5M58.7,438.15L58.55 438.25L58.8 438.05L58.7 438.15M32.55,471.45L32.6 471.25Q32.7 471.15 32.75 471.15L32.55 471.45M31.4,471.75L31.55 471.75Q31.2 472.15 31.05 472.8Q31.05 472.3 31.4 471.75M28.2,493.05L28.25 493.05L27.8 493.65L27.9 493L28.2 493.05M79.15,543.8Q88.55 536.25 92.35 520.8Q85.6 520.5 78.35 518.8L79 537.05L79.15 543.8" />
<path style="fill:#FFFFFF;fill-opacity:0.4" d="M93.7,368.65L96.45 368.65Q102.7 369.55 102.7 372.9Q102.7 374.35 99.25 376.15Q95.8 378 92.25 378.35L90.2 378.6L85.85 378.55Q82.85 378.2 81.8 377.3Q81.2 376.8 81.2 375.75Q81.2 374.7 81.85 373.85L83.8 371.9Q84.85 370.85 86.7 370Q88.35 369.1 93.7 368.65" />
<path style="fill:none;stroke-width:3;stroke-linecap:round;stroke-linejoin:miter;stroke-miterlimit:3;stroke:#AE4200;stroke-opacity:1" d="M142.85,485.85L142.7 489Q142.2 494.45 140.25 499.15L139.65 500.55Q137.35 505.4 133.5 509.35M56.7,433.4L53.45 430.4" />
<path style="fill:none;stroke-width:3;stroke-linecap:butt;stroke-linejoin:miter;stroke-miterlimit:3;stroke:#AE4200;stroke-opacity:1" d="M133.5,509.35L130.65 511.95L128.8 513.35Q124.8 516.3 121.45 517.5" />
<path style="fill:none;stroke-width:3;stroke-linecap:butt;stroke-linejoin:miter;stroke-miterlimit:3;stroke:#39481C;stroke-opacity:1" d="M166.7,465.65L169.7 469.45M156.6,418.25Q160.3 427.65 158.9 439.2M24.9,438.45L21.05 419.9M27.8,493.65Q29.65 482.2 29 471.1L28.6 466.25" />
<path style="fill:none;stroke-width:2;stroke-linecap:round;stroke-linejoin:miter;stroke-miterlimit:3;stroke:#AE4200;stroke-opacity:1" d="M61.25,341.1Q66.45 346.15 71.2 351.5L66.7 351.9L66.1 354.95L62.8 352.5L63.2 357.45L58.5 354.75L58.7 360.3L54.55 361.75Q52.2 355 50.3 347.95Q46.5 333.9 48.7 332.45Q50.9 331 61.25 341.1M122.45,345.2L118.5 357.65L116.45 352.7L113 355.15L112.8 351.1L109.5 351.9L107.45 350.05L115.2 340.05Q123.25 330.25 124.7 331.35Q126.15 332.5 122.45 345.2" />
<path style="fill:none;stroke-width:3;stroke-linecap:round;stroke-linejoin:miter;stroke-miterlimit:3;stroke:#39481C;stroke-opacity:1" d="M107.6,431.65L121.8 431.6L127.3 427.1L132.45 427.6Q148.2 428.35 156.6 418.25M40.7,479.1Q41.7 479.5 42.9 485.3Q44.2 491.6 44.8 492.4Q46.2 494.3 54.6 499.55Q56.65 495.7 59.2 491.65Q64.3 483.5 66.7 482.35Q68.35 481.6 71.4 481.75L74.3 482L79 482.95L81.35 485.3Q84.2 487.65 86.75 487.7Q88.9 487.75 91.6 485.7Q94.15 483.8 95.35 484Q95.95 484.1 99.55 488.6Q103.05 492.95 107.45 493.2Q111.6 493.45 117.15 487.85Q123.75 481.25 126.7 480.1L134.1 480.35Q135.75 480.95 137.5 481.95Q139.85 483.25 141.7 484.8L142.75 485.75L145.25 485.25L146.65 485.25L147.6 485.3Q148.95 485.4 150.05 485.85Q152.05 486.65 154.95 491.85L157.45 496.9L169.7 469.45M107.6,431.65L56.7 433.4L50.1 436.5Q44.9 435.45 39.65 433.05Q30.35 428.7 21.05 419.9" />
<path style="fill:none;stroke-width:2;stroke-linecap:butt;stroke-linejoin:miter;stroke-miterlimit:3;stroke:#582903;stroke-opacity:1" d="M114.2,411.5Q115.45 410 115.7 405.5M73.65,420.5Q63.2 419.55 56.7 409.8Q54.7 406.7 53.3 403.15" />
<path style="fill:none;stroke-width:2;stroke-linecap:round;stroke-linejoin:miter;stroke-miterlimit:3;stroke:#AE4200;stroke-opacity:1" d="M95.2,368.25L95.25 368.25" />
<path style="fill:none;stroke-width:3;stroke-linecap:butt;stroke-linejoin:miter;stroke-miterlimit:3;stroke:#AE4200;stroke-opacity:1" d="M33.6,445.8Q35.75 447.45 36.8 450.4Q37.75 453.05 35.4 455.1M49.1,562.2L53.55 563.15M53.75,563.2L54.1 563.3" />
<path style="fill:none;stroke-width:3;stroke-linecap:round;stroke-linejoin:miter;stroke-miterlimit:3;stroke:#AE4200;stroke-opacity:1" d="M156.05,445.55Q156.55 443.8 157.3 442Q158.1 440.15 158.9 439.2Q159.65 438.25 160.4 438.1Q162.5 437.7 166.75 438.95Q171.4 440.3 172.65 442.2M18.15,450.2Q17.35 448.9 16.8 447.3Q15.65 444 16.75 442.25Q17.55 441 20.05 439.9Q22.25 438.95 24.9 438.45L29 438.15Q30.5 438.45 32.1 442.05M53.55,563.15L53.95 558.75Q54.55 554.25 55.7 552.95Q56.85 551.65 58.2 551.2L59.3 550.95M138.15,563.15L142.6 562.2Q142.2 559.15 141.15 555.8Q139.1 549.15 135.85 547.85Q132.6 546.55 128.15 548.65Q125.95 549.65 124.4 550.95Q122.1 543.85 121.25 536.2Q120.7 530.95 121.1 523.3L121.45 517.5M132.6,563.45L132.9 559.7Q133 555.65 131.9 554.4Q130.8 553.15 127.95 553.85Q126.55 554.2 125.35 554.8" />
<path style="fill:none;stroke-width:3;stroke-linecap:round;stroke-linejoin:miter;stroke-miterlimit:3;stroke:#AE4200;stroke-opacity:1" d="M53.45,430.4L52.6 429.5Q49 425.8 44.6 410.8L40.9 396.55L30.05 394.3L40.7 385.5L30.65 384.9L41.95 377.5L35.15 373.4L46.85 368.9L43.15 363.15L48.85 364.6Q46.25 355.6 44.55 346.15Q41.15 327.25 45.8 325.05Q50.45 322.85 63.85 335.9Q70.6 342.45 76.35 349.4L83.7 345.3L88.6 348.4L97.45 346.75L101.3 349.4Q106.35 342.4 112.2 335.9Q123.95 322.9 128.15 325.45Q132.35 328 128 344.7Q125.8 353.05 122.8 360.9L131.85 365.6L123.85 369.3L133.45 374.4L125.3 376.85L130 381.35L126.1 384.45L129.4 389.55L125.7 395.7L127.75 402.05L124.25 405.55L123.2 412.05Q121.6 419.3 119.15 423.15L118.75 423.75Q116.2 426.95 107.6 431.65M172.65,442.2Q173.75 443.95 172.6 447.25L171.25 450.15M168.8,457.95L167.7 455.25Q166.3 452.55 164.7 452.4Q162.9 452.25 160.7 453.2Q157.9 454.35 156.55 456.6M33.6,445.8L33.35 445.6M32.1,442.05L33.35 445.6M35.4,455.1Q34.2 456.15 32.85 456.65M50.55,555.8Q49.5 559.15 49.1 562.2M66.35,554.8Q65.15 554.2 63.75 553.85Q60.9 553.15 59.8 554.4Q58.7 555.65 58.8 559.7L59.1 563.45M54.1,563.3L59.1 563.45M132.4,550.95L133.5 551.2Q134.85 551.65 136 552.95Q137.15 554.25 137.75 558.75L138.15 563.15" />
<path style="fill:none;stroke-width:2;stroke-linecap:round;stroke-linejoin:miter;stroke-miterlimit:3;stroke:#582903;stroke-opacity:1" d="M71.4,375.6L71.05 372.6L70.95 369.9L71 368.6L71 367.95Q71.3 363.05 73.05 360.4L73.25 360.15Q75.35 357.2 79.25 357.15Q83.15 357.1 84.8 359.8L85 360.15L85.8 362.2Q86.4 361.05 87.35 360.15Q87.65 359.85 88.1 359.55Q91 357.45 94 360L94.2 360.15Q97 362.65 96.4 365.65Q96.15 367 95.45 367.95L95.2 368.25M85.75,370.05L86.05 368.6L86.15 367.95Q86.5 364.9 85.8 362.2M70.6,397.05L72.15 406.25Q61 404.95 52.35 400.2Q52.55 393.8 54.6 386.75Q56.45 380.5 59.4 375.15L59.2 376.05Q58.9 378.4 59.25 380.85Q60.3 388.7 67.3 394.9Q68.7 396.15 70.6 397.05Q74.1 398.7 79.3 399.1L90.2 398.7L95.2 397.75Q102.25 396.2 107.9 393.4L110.15 392.2Q114.6 389.7 117.1 386.9L115.65 401.25L115.65 401.3L107.3 403.65L106.6 415.3L99.45 417.45L91.25 419.4M90.2,398.7L90.55 406.2L91.05 406.15Q99.9 405.3 107.3 403.65L107.9 393.4M90.55,406.2Q80.65 407.25 72.15 406.25L74.6 420.6Q82.1 421.1 91.25 419.4L90.55 406.2" />
<path style="fill:none;stroke-width:2;stroke-linecap:round;stroke-linejoin:miter;stroke-miterlimit:3;stroke:#993127;stroke-opacity:1" d="M95.25,368.25L97.9 368.6Q99.4 368.95 100.75 369.65Q103.05 370.85 104.25 372.6Q105.05 373.9 105.3 375.5L105.4 376.5L105.4 376.8L105.4 377.55Q105.05 381.95 100.15 385.6Q97.6 387.45 94.7 388.45Q90.55 389.85 85.65 389.5Q83.05 389.3 81.05 388.45Q78.55 387.4 76.95 385.35L75.35 381.65L77.75 377.55L78.3 376.8L78.55 376.5L79.15 375.6Q80.55 373.9 82.1 372.6Q83.85 371.05 85.75 370.05" />
<path style="fill:none;stroke-width:2;stroke-linecap:butt;stroke-linejoin:miter;stroke-miterlimit:3;stroke:#582903;stroke-opacity:1" d="M117.1,386.9Q118.4 385.4 119.15 383.85Q119.8 382.5 117.8 380.05L115.65 377.9M106.6,415.3Q112.8 413.2 114.2 411.5M74.6,420.6L73.65 420.5" />
<path style="fill:none;stroke-width:2;stroke-linecap:round;stroke-linejoin:miter;stroke-miterlimit:3;stroke:#582903;stroke-opacity:1" d="M60.1,369.6Q65.3 369.55 68.8 372.6Q70.25 373.85 71.4 375.6M53.3,403.15L52.35 400.2M75.3,386.8Q74.4 381.3 72.55 377.55L72.1 376.8L71.95 376.5L71.4 375.6M115.7,405.5L115.65 401.3" />
<path style="fill:none;stroke-width:2;stroke-linecap:round;stroke-linejoin:miter;stroke-miterlimit:3;stroke:#993127;stroke-opacity:1" d="M85.75,370.05Q87.65 369 89.7 368.6L90.6 368.45L95.2 368.25" />
<path style="fill:none;stroke-width:3;stroke-linecap:round;stroke-linejoin:miter;stroke-miterlimit:3;stroke:#AE4200;stroke-opacity:1" d="M171.25,450.15L173.85 454.6Q174.6 458.4 171.85 462.45Q170.3 464.7 166.7 465.65L163.15 466.2Q156.25 466.75 155.65 461.65Q155.3 458.75 156.55 456.6Q155.2 456.1 154 455.05Q151.65 453 152.6 450.35Q153.65 447.4 155.8 445.75Q155.95 445.6 156.05 445.55L156.35 445.35Q159.1 443.55 162.85 444Q166.1 444.4 169 447.3L171.05 449.85L171.25 450.15M33.35,445.6L33.05 445.4Q30.3 443.6 26.55 444.05Q23.3 444.45 20.4 447.35Q19.1 448.7 18.35 449.9L18.15 450.2L15.55 454.65Q14.8 458.45 17.55 462.5Q18.7 464.2 22.1 465.35Q25.55 466.6 28.6 466.25Q33.25 465.7 33.75 461.7Q34.1 458.8 32.85 456.65M79.15,543.8Q88.55 536.25 92.35 520.8Q85.6 520.5 78.35 518.8L79 537.05L79.15 543.8Q79.25 556.85 78.35 559.95Q77.85 561.8 75.55 562.8Q78.45 562.25 82.1 560.4Q89.5 556.65 93.55 550.15Q96.85 544.85 98.45 532.3L99.35 520.8L92.35 520.8M59.1,563.45L68.05 564.05Q72.95 563.95 75.55 562.8M99.35,520.8Q106.3 520.55 113.35 519L112.7 537.05Q112.25 556.1 113.35 559.95Q114.45 563.85 123.65 564.05L132.6 563.45M138.15,563.15L137.95 563.2L137.6 563.3L132.6 563.45" />
<path style="fill:none;stroke-width:3;stroke-linecap:butt;stroke-linejoin:miter;stroke-miterlimit:3;stroke:#AE4200;stroke-opacity:1" d="M32.85,456.65Q31.5 454.4 28.7 453.25Q26.5 452.3 24.7 452.45Q23.1 452.6 21.7 455.3Q21 456.65 20.6 458M40.7,479.1L40.3 482.2Q39.7 487.25 39.75 488.85Q39.85 493.95 43.45 500.55L45.55 504.1Q51.45 513.25 57.5 515.55Q64.3 518.1 70.6 519.05Q71.35 527.95 70.45 536.2Q69.6 543.85 67.3 550.95Q65.75 549.65 63.55 548.65Q59.1 546.55 55.85 547.85Q52.6 549.15 50.55 555.8M53.55,563.15L53.75 563.2" />
<path style="fill:none;stroke-width:3;stroke-linecap:round;stroke-linejoin:miter;stroke-miterlimit:3;stroke:#39481C;stroke-opacity:1" d="M27.8,493.65L33.6 486.1Q39.6 478.65 40.7 479.1" />
<path style="fill:#582903;fill-opacity:1" d="M78.3,351.15L76.55 352.05L75.75 352.6L73.55 353.85L73.3 353.8L73.25 353.4Q73.25 352.8 74.5 351.05Q75.3 349.45 77.05 347.5Q77.95 346.4 79.95 345.3Q80.7 344.8 82 344.3L84 343.75L84.15 343.8L84.2 343.95L83.95 344.4L83.7 344.8L83.7 344.9L86.25 344.35L86.35 344.55Q86.35 344.75 85.55 345.2L88 346.05L88.85 346.45L89.35 347L89.25 347.2Q85.95 347.85 83.75 348.75L79.85 350.4Q79.4 350.55 78.3 351.15M93.75,345.1L93.8 344.95L95.85 345.4L95.85 345.3L95.65 345L95.45 344.65L95.5 344.5L95.6 344.45L97.2 344.9L98.85 345.7Q100.4 346.6 101.15 347.45Q102.55 349 103.15 350.3Q104.15 351.7 104.15 352.15L104.15 352.5L103.95 352.5L102.2 351.5L101.55 351.1L100.15 350.35L98.9 349.75L95.8 348.45Q94.05 347.75 91.4 347.2L91.35 347.05L91.75 346.6L92.4 346.3L94.35 345.6L93.75 345.1" />
</g>
</svg>
