<?xml version="1.0" encoding="utf-8"?>
<svg version="1.1" id="Layer_1"
xmlns="http://www.w3.org/2000/svg"
xmlns:xlink="http://www.w3.org/1999/xlink"
xmlns:author="http://www.sothink.com"
width="45px" height="44px"
xml:space="preserve">
<g id="130" transform="matrix(1, 0, 0, 1, 20.55, 21.95)">
<path style="fill:#EEA78C;fill-opacity:1" d="M-3.05,-3.85L-4.4 -5.3L-6.6 -6.9L-7.55 -7.5L-7.5 -7.65L-6.2 -7L-5.55 -6.6Q-4.45 -6.05 -3.75 -5.5Q-2.95 -4.9 -2.8 -4.3L-2.7 -3.65L-3 -3.5L-3.05 -3.85M-5.6,-3.15L-7.35 -4.45L-7.55 -4.55Q-8.2 -4.95 -9 -5.2L-8.15 -6.4L-8 -6.25L-6.45 -5.35L-5.9 -4.85L-3.7 -3.15L-4.75 -2.55L-5.6 -3.15M-12.8,3.1Q-12.2 3.95 -11.95 4.8Q-11.5 6.5 -12.35 8.95Q-12.7 9.9 -12.55 10.55L-15 10.95L-15.7 11.05Q-15.95 10.4 -15.7 9.5Q-14.95 6.8 -15.1 6.15L-15.8 4.95L-13.55 3.6L-12.8 3.1M-16.2,-10.15L-16.2 -9.9L-19.45 -10.4L-20.05 -10.4L-20.05 -13.1L-18.45 -12.8L-15.85 -12.25Q-16.25 -11.7 -16.2 -10.15M-13.4,-11.05L-14 -11.65L-13.9 -12.05L-13.5 -12.85L-13.45 -13L-13.4 -13.25L-13.4 -13.3L-13 -14.1L-12.45 -14.1L-11.95 -14.45L-11.8 -14.6L-11.4 -14.9L-11.3 -14.95L-10.95 -14.55Q-10.35 -14.05 -8.95 -14L-8.5 -14L-7.75 -14.05Q-7 -14.15 -6.5 -14.55L-6.1 -14.95Q-5.8 -15.4 -5.75 -16L-5.75 -16.05Q-5.75 -17.05 -7 -17.6L-8.8 -18.05L-9.2 -18.05Q-10.55 -18.05 -11 -17.65L-11.35 -17.2L-11.6 -17.35L-11.8 -17.5L-12.05 -17.85L-12.85 -18.05L-12.75 -18.5L-11.85 -19.85L-11.9 -19.7L-11.8 -19.35L-11.4 -19.05Q-11.15 -18.75 -10.55 -18.75Q-9.9 -18.75 -9.3 -19.65L-9.15 -19.8L-8.8 -20.4Q-8.8 -21.4 -10.3 -21L-11.4 -20.4L-11 -20.95Q-10.25 -21.45 -8.5 -21.45Q-6.25 -21.45 -5.5 -19.8Q-5.05 -18.95 -5.05 -17.65L-5.2 -17.05L-5.45 -16.15L-5.6 -15Q-5.6 -14.6 -5.95 -14L-6.35 -12.95Q-6.35 -12.4 -6.95 -11.65L-6.95 -11.6L-7.15 -11.15L-8.2 -10.05L-8.95 -9.85L-9.2 -9.85L-9.3 -9.85L-10.25 -10.05L-10.55 -10.1L-11.35 -10.4L-11.65 -10.45L-11.8 -10.45L-11.95 -10.5L-12.8 -10.8Q-13.1 -11.15 -13.4 -11.05M-12.7,-11.5L-12.45 -11.45Q-12.1 -11.45 -11.8 -12L-11.35 -13Q-11.35 -13.45 -11.8 -13.6L-12.15 -13.7Q-13 -13.7 -13 -12.2L-12.95 -11.95L-12.8 -11.6L-12.7 -11.5M-3.9,2L-3.85 2.05L-3.8 2.25L-3.6 2.65L-3.75 2.45L-3.9 2M-13.7,5.5Q-13.7 6.25 -14.05 7.5L-14.4 8.85Q-14.5 9.25 -14.05 9.25Q-13.3 9.25 -12.85 7.75L-12.55 6.05L-12.45 5.2Q-12.45 4.7 -12.8 4.4Q-13.5 3.75 -13.7 4.5L-13.7 5.5" />
<path style="fill:#F0D2C6;fill-opacity:1" d="M-3,-3.5L-3.7 -3.15L-5.9 -4.85L-6.45 -5.35L-8 -6.25L-8.15 -6.4L-7.55 -7.5L-6.6 -6.9L-4.4 -5.3L-3.05 -3.85L-3 -3.5M-11.85,-19.85L-11.7 -19.95L-11.4 -20.4L-10.3 -21Q-8.8 -21.4 -8.8 -20.4L-9.15 -19.8L-9.3 -19.65Q-9.9 -18.75 -10.55 -18.75Q-11.15 -18.75 -11.4 -19.05L-11.8 -19.35L-11.9 -19.7L-11.85 -19.85M-12.8,-11.6L-12.95 -11.95L-13 -12.2Q-13 -13.7 -12.15 -13.7L-11.8 -13.6Q-11.35 -13.45 -11.35 -13L-11.8 -12Q-12.1 -11.45 -12.45 -11.45L-12.7 -11.5L-12.8 -11.6M-13.7,4.5Q-13.5 3.75 -12.8 4.4Q-12.45 4.7 -12.45 5.2L-12.55 6.05L-12.85 7.75Q-13.3 9.25 -14.05 9.25Q-14.5 9.25 -14.4 8.85L-14.05 7.5Q-13.7 6.25 -13.7 5.5L-13.7 4.5" />
<path style="fill:#2F9EBF;fill-opacity:1" d="M-13.55,3.6L-15.8 4.95L-17.2 5.65L-18.6 2.5Q-19.6 0.05 -19.15 -0.5L-18.7 -1.25L-18.65 -1.35L-18.35 -1.95L-17.3 -3.25L-16.85 -3.7L-16.8 -3.75L-16.7 -3.7L-16.75 -4Q-16.95 -5.05 -15.5 -7.7L-15.7 -7.85Q-16.1 -8.35 -16.2 -9.9L-16.2 -10.15Q-16.25 -11.7 -15.85 -12.25L-15.75 -12.4L-15.2 -12.4L-14.4 -12.2L-13.9 -12.05L-14 -11.65L-13.4 -11.05L-13.6 -10.95L-13.8 -10.85L-14.05 -10.25Q-14.4 -9.35 -14.05 -8.95L-13.25 -8.8L-12.7 -8.95Q-12.1 -9.5 -12.6 -10.45L-12.8 -10.8L-11.95 -10.5L-11.8 -10.45L-11.65 -10.45L-11.35 -10.4L-10.55 -10.1L-10.25 -10.05L-9.3 -9.85L-9.2 -9.85L-8.95 -9.85L-8.2 -10.05L-7.15 -11.15L-6.95 -11.6Q-6.6 -9.65 -7.5 -7.65L-7.55 -7.5L-8.15 -6.4L-9 -5.2L-9.1 -5.15Q-12.1 -1.5 -12.1 -0.6Q-12.1 -0.35 -12.25 -0.15L-12.6 0.95L-12.4 1.85Q-12.1 2.4 -12.15 2.55L-12.8 3.1L-13.55 3.6M-11.3,-6.9Q-13.05 -4.7 -13.05 -3.9Q-13.05 -3.35 -12.45 -3.35Q-11.8 -3.35 -10.2 -5.65L-10.2 -5.7L-9.25 -7.15L-8.65 -8.35Q-8.65 -9.6 -9.55 -8.9L-10.85 -7.55L-11.3 -6.9M-16.7,-1.95L-16.1 -1.35L-15.6 -1Q-14.4 -0.2 -13.8 -0.2Q-13.55 -0.2 -13.55 -0.45Q-13.55 -0.9 -15.1 -1.85Q-16.15 -2.45 -16.5 -2.3L-16.7 -1.95" />
<path style="fill:#69BFD9;fill-opacity:1" d="M-10.85,-7.55L-9.55 -8.9Q-8.65 -9.6 -8.65 -8.35L-9.25 -7.15L-10.2 -5.7L-10.2 -5.65Q-11.8 -3.35 -12.45 -3.35Q-13.05 -3.35 -13.05 -3.9Q-13.05 -4.7 -11.3 -6.9L-10.85 -7.55M-16.5,-2.3Q-16.15 -2.45 -15.1 -1.85Q-13.55 -0.9 -13.55 -0.45Q-13.55 -0.2 -13.8 -0.2Q-14.4 -0.2 -15.6 -1L-16.1 -1.35L-16.7 -1.95L-16.5 -2.3" />
<path style="fill:#F5F055;fill-opacity:1" d="M12,-0.9L12.2 -0.7L8.6 -0.85Q0.85 -0.85 0.85 2.25L0.85 2.9Q1.05 3.5 2.1 3.5Q4 3.5 11.85 1.5L14.45 1.5L15 2.05L12.05 3.45Q9.8 4.65 9.8 6.05L2.7 7.5L-2.55 8.55L-5.25 9.1L-3.35 4.1L-3.35 4.05L-3.3 4L-2.75 3.15L-2.1 1.9L-0.55 0.45L-0.5 0.45L0.25 -0.2L1.15 -0.6L1.85 -0.9L4.3 -1.8L6.4 -2.25L9.6 -2.5L12.85 -2.6Q12 -1.55 12 -0.9" />
<path style="fill:#4D9F38;fill-opacity:1" d="M-5.75,-1.85L-5.2 -0.75L-0.95 -2.7L1.15 -3.45Q5.2 -4.8 9.25 -4.8L14.35 -4.2L13.7 -3.5L13.35 -3.2L12.85 -2.6L9.6 -2.5L6.4 -2.25L4.3 -1.8L1.85 -0.9L1.15 -0.6L0.25 -0.2L-0.65 0.25L-0.65 0.3L-3.4 1.75L-3.85 2L-3.9 2L-5.1 1.5Q-6.15 0.95 -6.65 0.95Q-6.95 0.95 -7.8 1.3L-9.05 1.6Q-9.75 1.6 -10.2 1.15Q-10.6 0.75 -10.6 0.05Q-10.6 -1.6 -9.3 -1.6L-8.2 -1.3L-7.4 -1Q-6.8 -1 -6 -1.8L-5.75 -1.85M-18.85,12.65L-14.9 12.1L-12.1 11.35L-11.65 11.2Q-6.6 9.7 -3.85 9.55L3 8.55L9.05 7.05L9.9 6.85L10.35 8.6L6.45 9.45L-0.4 10.85L-7.9 12.3L-11.7 12.9L-14.9 13.55L-15.8 13.75L-17.6 14Q-19.35 14 -19.35 13L-19.3 12.6L-18.85 12.65" />
<path style="fill:#73C95E;fill-opacity:1" d="M14.35,-4.2L9.25 -4.8Q5.2 -4.8 1.15 -3.45L-0.95 -2.7L-5.2 -0.75L-5.75 -1.85L-5.5 -2.05L-4.75 -2.55L-3.7 -3.15L-3 -3.5L-2.7 -3.65L-1.85 -4.05L-1.8 -4.05L-0.4 -4.6L0.4 -4.85L1.15 -5L8.65 -5.65L10.35 -5.45L11.6 -5.3L11.7 -5.25L14.9 -4.8L14.35 -4.2" />
<path style="fill:#FAF7AC;fill-opacity:1" d="M14.45,1.5L11.85 1.5Q4 3.5 2.1 3.5Q1.05 3.5 0.85 2.9L0.85 2.25Q0.85 -0.85 8.6 -0.85L12.2 -0.7L14.45 1.5" />
<path style="fill:#81D26C;fill-opacity:1" d="M-15,10.95L-12.55 10.55L-11.9 10.4L-8.9 9.9L-6.15 9.35L-5.35 9.15L-5.25 9.1L-2.55 8.55L2.7 7.5L9.8 6.05L9.9 6.85L9.05 7.05L3 8.55L-3.85 9.55Q-6.6 9.7 -11.65 11.2L-12.1 11.35L-14.9 12.1L-18.85 12.65L-19.3 12.6Q-19 11.7 -17.45 11.3L-16.75 11.2L-15.7 11.05L-15 10.95" />
<path style="fill:#A8A778;fill-opacity:1" d="M-14.9,13.55L-11.7 12.9L-7.9 12.3L-0.4 10.85L6.45 9.45L10.35 8.6L10.4 8.75L10.95 10.5L9 10.85L6.9 11.95Q5.55 12.7 3.95 12.6Q1 12.4 -3.5 13.65Q-7.8 14.9 -8.25 14.8L-10.6 15.05L-13.35 15.7L-14.45 15.85L-15.1 14.75L-15.8 13.75L-14.9 13.55" />
<path style="fill:#E7E5A5;fill-opacity:1" d="M-13.35,15.7L-10.6 15.05L-8.25 14.8Q-7.8 14.9 -3.5 13.65Q1 12.4 3.95 12.6Q5.55 12.7 6.9 11.95L9 10.85L10.95 10.5L11 11.25Q10.15 11.25 8.8 11.75Q7 12.35 7 13.15Q7 14.4 7.85 15.75Q8.5 16.9 8.65 18.6L8.7 19.45L7.6 19.75L1.75 21.05L-3.25 21.4L-8.15 21.45L-11.35 21Q-12.35 20.6 -12.85 19.6L-13.85 17.05L-14.45 15.85L-13.35 15.7M-10.9,17.2L-11.1 17.2L-11.1 17.25L-10.9 17.2" />
<path style="fill:#63CCEC;fill-opacity:1" d="M-12.8,-10.8L-12.6 -10.45Q-12.1 -9.5 -12.7 -8.95L-13.25 -8.8L-14.05 -8.95Q-14.4 -9.35 -14.05 -10.25L-13.8 -10.85L-13.6 -10.95L-13.4 -11.05Q-13.1 -11.15 -12.8 -10.8" />
<path style="fill:#91857F;fill-opacity:1" d="M-11.3,-14.95L-11.4 -14.9L-11.8 -14.6L-11.95 -14.45L-12.45 -14.1L-13 -14.1L-13.05 -14.15Q-13.95 -14.55 -13.95 -16.05Q-13.95 -18.05 -12.85 -18.05L-12.05 -17.85L-11.8 -17.5L-11.6 -17.35L-11.35 -17.2L-11 -17.65Q-10.55 -18.05 -9.2 -18.05L-8.8 -18.05L-7 -17.6Q-5.75 -17.05 -5.75 -16.05L-5.75 -16Q-5.8 -15.4 -6.1 -14.95L-6.5 -14.55Q-7 -14.15 -7.75 -14.05L-8.5 -14L-8.95 -14Q-10.35 -14.05 -10.95 -14.55L-11.3 -14.95M-10.2,-15.8Q-9.5 -15.8 -9.5 -16.65Q-9.5 -17.45 -10.2 -17.35Q-10.8 -17.15 -10.8 -16.35L-10.65 -16.05L-10.2 -15.8M-13.3,-16.9L-13.15 -16.5L-12.7 -16.25Q-12.05 -16.25 -12.05 -17Q-12.05 -17.6 -12.7 -17.6Q-13.3 -17.6 -13.3 -16.9" />
<path style="fill:#B6B4B3;fill-opacity:1" d="M-10.65,-16.05L-10.8 -16.35Q-10.8 -17.15 -10.2 -17.35Q-9.5 -17.45 -9.5 -16.65Q-9.5 -15.8 -10.2 -15.8L-10.65 -16.05M-12.7,-17.6Q-12.05 -17.6 -12.05 -17Q-12.05 -16.25 -12.7 -16.25L-13.15 -16.5L-13.3 -16.9Q-13.3 -17.6 -12.7 -17.6" />
<path style="fill:#306921;fill-opacity:1" d="M21.75,-2.55L22.65 -2.25L22.85 -1.65L21.75 -2.55" />
<path style="fill:#193A11;fill-opacity:1" d="M12.2,-0.7L12 -0.9Q12 -1.55 12.85 -2.6L13.35 -3.2L13.7 -3.5L15.1 -2.65L17.35 -1.35L17.4 -1.25Q17.45 -1.15 17.6 -1.15Q16.25 -0.6 15.75 -0.15Q15.25 0.35 15.25 1.25L15.35 1.8L15.85 2.8L16.4 4.3Q16.4 5.05 15.25 5.75Q14.05 6.45 14.05 6.8Q14.05 7.25 15.3 8Q16.75 8.9 17.1 9.35L15.55 10.6Q14.55 11.4 14.55 12.45Q14.55 13 15.15 13.7Q15.75 14.4 15.75 15.25Q15.75 16.45 15.35 17.2L12.85 18.15L8.7 19.45L8.65 18.6Q8.5 16.9 7.85 15.75Q7 14.4 7 13.15Q7 12.35 8.8 11.75Q10.15 11.25 11 11.25L10.95 10.5L10.4 8.75L10.35 8.6L9.9 6.85L9.8 6.05Q9.8 4.65 12.05 3.45L15 2.05L14.45 1.5L12.2 -0.7" />
<path style="fill:#245118;fill-opacity:1" d="M22.85,-1.65Q23.55 0.45 22.05 0.95Q19.3 1.85 19 2.3L19.95 3.85L20.1 4.2L20.35 4.7L20.85 6L20.9 6.4L19.6 8.2L18.85 9.2Q18.3 10 18.3 10.55Q18.3 11.5 19.7 12.1L22.2 13.25Q20.85 14.5 17.8 16L15.35 17.2Q15.75 16.45 15.75 15.25Q15.75 14.4 15.15 13.7Q14.55 13 14.55 12.45Q14.55 11.4 15.55 10.6L17.1 9.35Q16.75 8.9 15.3 8Q14.05 7.25 14.05 6.8Q14.05 6.45 15.25 5.75Q16.4 5.05 16.4 4.3L15.85 2.8L15.35 1.8L15.25 1.25Q15.25 0.35 15.75 -0.15Q16.25 -0.6 17.6 -1.15Q17.45 -1.15 17.4 -1.25L17.35 -1.35L15.1 -2.65L13.7 -3.5L14.35 -4.2L14.9 -4.8L17.75 -4.15Q20.6 -3.4 21.75 -2.6L21.75 -2.55L22.85 -1.65" />
<path style="fill:none;stroke-width:1;stroke-linecap:butt;stroke-linejoin:miter;stroke-miterlimit:3;stroke:#854A34;stroke-opacity:1" d="M-15.7,11.05Q-15.95 10.4 -15.7 9.5Q-14.95 6.8 -15.1 6.15L-15.8 4.95M-16.2,-9.9L-19.45 -10.4L-20.05 -10.4M-20.05,-13.1L-18.45 -12.8L-15.85 -12.25M-13.4,-11.05L-14 -11.65L-13.9 -12.05L-13.5 -12.85L-13.45 -13L-13.4 -13.25L-13.4 -13.3L-13 -14.1M-12.75,-18.5L-11.85 -19.85L-11.7 -19.95L-11.4 -20.4L-11 -20.95Q-10.25 -21.45 -8.5 -21.45Q-6.25 -21.45 -5.5 -19.8Q-5.05 -18.95 -5.05 -17.65L-5.2 -17.05L-5.2 -16.75L-5.25 -16.25Q-5.25 -16.15 -5.45 -16.15L-5.6 -15Q-5.6 -14.6 -5.95 -14L-6.35 -12.95Q-6.35 -12.4 -6.95 -11.65L-6.95 -11.6M-7.5,-7.65L-6.2 -7L-5.55 -6.6Q-4.45 -6.05 -3.75 -5.5Q-2.95 -4.9 -2.8 -4.3L-2.7 -3.65M-5.75,-16Q-5.55 -16.05 -5.45 -16.15L-5.2 -17.05M-13.4,-11.05Q-13.1 -11.15 -12.8 -10.8L-11.95 -10.5L-11.8 -10.45L-11.65 -10.45L-11.35 -10.4L-10.55 -10.1L-10.25 -10.05L-9.3 -9.85L-9.2 -9.85L-8.95 -9.85L-8.2 -10.05L-7.15 -11.15L-6.95 -11.6M-9,-5.2Q-8.2 -4.95 -7.55 -4.55L-7.35 -4.45L-5.6 -3.15L-4.75 -2.55M-12.8,3.1Q-12.2 3.95 -11.95 4.8Q-11.5 6.5 -12.35 8.95Q-12.7 9.9 -12.55 10.55" />
<path style="fill:none;stroke-width:1;stroke-linecap:butt;stroke-linejoin:miter;stroke-miterlimit:3;stroke:#0E576E;stroke-opacity:1" d="M-15.8,4.95L-17.2 5.65L-18.6 2.5Q-19.6 0.05 -19.15 -0.5L-18.7 -1.25L-18.65 -1.35L-18.35 -1.95L-17.3 -3.25L-16.85 -3.7L-16.8 -3.75L-16.7 -3.7L-16.75 -4Q-16.95 -5.05 -15.5 -7.7L-15.7 -7.85Q-16.1 -8.35 -16.2 -9.9L-16.2 -10.15Q-16.25 -11.7 -15.85 -12.25L-15.75 -12.4L-15.2 -12.4L-14.4 -12.2L-13.9 -12.05M-6.95,-11.6Q-6.6 -9.65 -7.5 -7.65M-12.8,-11.6L-12.7 -11.5M-11.95,-10.5Q-11.6 -9.45 -12.8 -8.35L-13.05 -8.1Q-13.5 -7.7 -14.4 -7.6L-15.5 -7.7M-16.7,-3.7Q-16.05 -3.45 -14.45 -2.45Q-12.05 -1 -12.15 -0.6L-12.25 -0.15Q-12.1 -0.35 -12.1 -0.6Q-12.1 -1.5 -9.1 -5.15L-9 -5.2L-8.15 -6.4L-7.55 -7.5L-7.5 -7.65M-12.25,-0.15L-12.6 0.95L-12.4 1.85Q-12.1 2.4 -12.15 2.55L-12.8 3.1M-15.8,4.95L-13.55 3.6L-12.8 3.1" />
<path style="fill:none;stroke-width:1;stroke-linecap:butt;stroke-linejoin:miter;stroke-miterlimit:3;stroke:#465827;stroke-opacity:1" d="M12.85,-2.6L13.35 -3.2L13.7 -3.5L14.35 -4.2L14.9 -4.8L11.7 -5.25L11.6 -5.3L10.35 -5.45L8.65 -5.65L1.15 -5L0.4 -4.85L-0.4 -4.6L-1.8 -4.05L-1.85 -4.05L-2.7 -3.65L-3 -3.5L-3.7 -3.15L-4.75 -2.55L-5.5 -2.05L-5.75 -1.85M14.9,-4.8L17.75 -4.15Q20.6 -3.4 21.75 -2.6L21.75 -2.55L22.65 -2.25L22.85 -1.65Q23.55 0.45 22.05 0.95Q19.3 1.85 19 2.3L19.95 3.85L20.1 4.2L20.35 4.7L20.85 6L20.9 6.4L19.6 8.2L18.85 9.2Q18.3 10 18.3 10.55Q18.3 11.5 19.7 12.1L22.2 13.25Q20.85 14.5 17.8 16L15.35 17.2L12.85 18.15L8.7 19.45L7.6 19.75L1.75 21.05L-3.25 21.4L-8.15 21.45L-11.35 21Q-12.35 20.6 -12.85 19.6L-13.85 17.05L-14.45 15.85L-15.1 14.75L-15.8 13.75L-17.6 14Q-19.35 14 -19.35 13L-19.3 12.6Q-19 11.7 -17.45 11.3L-16.75 11.2L-15.7 11.05M12.2,-0.7L12 -0.9Q12 -1.55 12.85 -2.6L9.6 -2.5L6.4 -2.25L4.3 -1.8L1.85 -0.9L1.15 -0.6L0.25 -0.2L-0.5 0.45L-0.55 0.45L-2.1 1.9L-2.75 3.15L-3.3 4L-3.35 4.05L-3.35 4.1L-5.25 9.1L-2.55 8.55L2.7 7.5L9.8 6.05Q9.8 4.65 12.05 3.45L15 2.05L14.45 1.5M22.85,-1.65L21.75 -2.55M9.8,6.05L9.9 6.85L10.35 8.6L10.4 8.75L10.95 10.5L11 11.25Q10.15 11.25 8.8 11.75Q7 12.35 7 13.15Q7 14.4 7.85 15.75Q8.5 16.9 8.65 18.6L8.7 19.45M10.35,8.6L6.45 9.45L-0.4 10.85L-7.9 12.3L-11.7 12.9L-14.9 13.55L-15.8 13.75M12.2,-0.7L14.45 1.5M-6,-1.8Q-6.8 -1 -7.4 -1L-8.2 -1.3L-9.3 -1.6Q-10.6 -1.6 -10.6 0.05Q-10.6 0.75 -10.2 1.15Q-9.75 1.6 -9.05 1.6L-7.8 1.3Q-6.95 0.95 -6.65 0.95Q-6.15 0.95 -5.1 1.5L-3.9 2L-3.85 2L-3.4 1.75L-0.65 0.3L-0.65 0.25L0.25 -0.2M-3.4,1.75L-3.75 2L-3.85 2M-12.55,10.55L-11.9 10.4L-8.9 9.9L-6.15 9.35L-5.35 9.15L-5.25 9.1M-12.55,10.55L-15 10.95L-15.7 11.05" />
<path style="fill:none;stroke-width:1;stroke-linecap:butt;stroke-linejoin:miter;stroke-miterlimit:3;stroke:#544741;stroke-opacity:1" d="M-11.4,-14.9L-11.8 -14.6L-11.95 -14.45L-12.45 -14.1L-13 -14.1L-13.05 -14.15Q-13.95 -14.55 -13.95 -16.05Q-13.95 -18.05 -12.85 -18.05M-8.95,-14Q-10.35 -14.05 -10.95 -14.55L-11.3 -14.95L-11.6 -16.05L-11.35 -17.2L-11 -17.65Q-10.55 -18.05 -9.2 -18.05L-8.8 -18.05L-7 -17.6Q-5.75 -17.05 -5.75 -16.05L-5.75 -16M-8.8,-18.05Q-8.4 -17.65 -8.3 -17.15L-8.2 -16.6L-8.2 -16.15L-8.4 -14.95Q-8.55 -14.25 -8.95 -14L-8.5 -14L-7.75 -14.05Q-7 -14.15 -6.5 -14.55L-6.1 -14.95Q-5.8 -15.4 -5.75 -16M-11.6,-17.35L-11.8 -17.5L-12.05 -17.85L-12.85 -18.05" />
</g>
</svg>
