<?xml version="1.0" encoding="utf-8"?>
<svg version="1.1" id="Layer_1"
xmlns="http://www.w3.org/2000/svg"
xmlns:xlink="http://www.w3.org/1999/xlink"
xmlns:author="http://www.sothink.com"
width="32px" height="32px"
xml:space="preserve">
<g id="154" transform="matrix(1, 0, 0, 1, 14.6, 25.1)">
<path style="fill:#000000;fill-opacity:0.00392157" d="M17.1,-25.1L17.1 6.85L-14.6 6.85L-14.6 -25.1L17.1 -25.1" />
<path style="fill:#E7C027;fill-opacity:1" d="M10.8,-10.3Q11.85 -10.25 12.5 -8.6Q12.85 -7.1 13.3 -5.95Q14.1 -3.7 14.95 -3.7Q15.45 -3.7 16.3 -4.25L16.4 -2.75L13.45 -0.65Q11.9 0.2 10 0.2L7.5 -0.3L6.1 -0.8L1.05 -0.4Q0.25 -0.4 -1.05 -1Q-2.35 -1.6 -3.05 -1.6L-4.35 -1.4L-6.25 -1.2Q-9.1 -1.2 -9.1 -3Q-9.1 -3.65 -8 -4.95Q-6.9 -6.25 -6.9 -6.9Q-6.9 -7.35 -7.75 -8.05Q-6.8 -8.9 -6.75 -9.35L-6.6 -9.95Q-4.55 -11.85 -4.55 -14Q-4.55 -14.9 -4.7 -15.3L-5.5 -16.95L-6.35 -17.6Q-7.05 -17.75 -7.35 -18.1Q-6.7 -20.55 -5.1 -22.25L-4.8 -22.5L-3.75 -22.3L-1.4 -22.5Q2.3 -22.5 4.1 -17.35L5.25 -13.8Q5.75 -12.5 6.3 -12.25Q5.9 -10.95 5.85 -9.15L7.55 -9.05Q8.3 -9.3 9.45 -10.2L10.8 -10.3" />
<path style="fill:#C6A522;fill-opacity:1" d="M16.4,-2.75L16.4 -2.1Q16.4 2.35 12.3 4Q9.45 5.15 7.4 5.4L1.8 5.85Q-1.75 6.1 -4.8 5.8Q-7.85 5.5 -11 4.15Q-13.55 2.65 -13.55 -0.1Q-13.6 -2.85 -12.45 -4.35Q-11.35 -5.9 -10.05 -6.5L-7.8 -8L-7.75 -8.05Q-6.9 -7.35 -6.9 -6.9Q-6.9 -6.25 -8 -4.95Q-9.1 -3.65 -9.1 -3Q-9.1 -1.2 -6.25 -1.2L-4.35 -1.4L-3.05 -1.6Q-2.35 -1.6 -1.05 -1Q0.25 -0.4 1.05 -0.4L6.1 -0.8L7.5 -0.3L10 0.2Q11.9 0.2 13.45 -0.65L16.4 -2.75" />
<path style="fill:#F7DD76;fill-opacity:1" d="M5.25,-13.8L4.1 -17.35Q2.3 -22.5 -1.4 -22.5L-3.75 -22.3L-4.8 -22.5Q-3 -24.25 -0.7 -24.25Q2 -24.25 4.6 -21.7Q7.25 -19.1 7.25 -16.25Q7.25 -15 6.5 -12.85L6.3 -12.25Q5.75 -12.5 5.25 -13.8M9.45,-10.2L9.65 -10.4Q11 -11.55 12.05 -11.55Q13.05 -11.55 14.2 -10.05L15.45 -7.85Q16.05 -6.15 16.3 -4.25Q15.45 -3.7 14.95 -3.7Q14.1 -3.7 13.3 -5.95Q12.85 -7.1 12.5 -8.6Q11.85 -10.25 10.8 -10.3L9.45 -10.2" />
<path style="fill:none;stroke-width:1;stroke-linecap:butt;stroke-linejoin:miter;stroke-miterlimit:3;stroke:#725E0E;stroke-opacity:1" d="M6.3,-12.25L6.5 -12.85Q7.25 -15 7.25 -16.25Q7.25 -19.1 4.6 -21.7Q2 -24.25 -0.7 -24.25Q-3 -24.25 -4.8 -22.5M6.3,-12.25Q5.9 -10.95 5.85 -9.15L7.55 -9.05Q8.3 -9.3 9.45 -10.2L9.65 -10.4Q11 -11.55 12.05 -11.55Q13.05 -11.55 14.2 -10.05L15.45 -7.85Q16.05 -6.15 16.3 -4.25L16.4 -2.75L16.4 -2.1Q16.4 2.35 12.3 4Q9.45 5.15 7.4 5.4L1.8 5.85Q-1.75 6.1 -4.8 5.8Q-7.85 5.5 -11 4.15Q-13.55 2.65 -13.55 -0.1Q-13.6 -2.85 -12.45 -4.35Q-11.35 -5.9 -10.05 -6.5L-7.8 -8L-7.75 -8.05Q-6.8 -8.9 -6.75 -9.35L-6.6 -9.95Q-4.55 -11.85 -4.55 -14Q-4.55 -14.9 -4.7 -15.3L-5.5 -16.95L-6.35 -17.6Q-7.05 -17.75 -7.35 -18.1Q-6.7 -20.55 -5.1 -22.25L-4.8 -22.5" />
<path style="fill:#000000;fill-opacity:1" d="M-1.05,-20.2Q-0.15 -20.2 -0.15 -19.5Q-0.15 -18.75 -0.75 -18.55L-1.2 -18.55Q-1.75 -18.9 -1.75 -19.35Q-1.75 -20.2 -1.05 -20.2" />
<path style="fill:#FFFFFF;fill-opacity:1" d="M0.4,-20.2Q0.4 -19.55 -0.1 -18.85Q-0.55 -18.25 -1.15 -17.95L-1.75 -17.95Q-2.6 -18.35 -2.6 -19.3L-2.15 -20.5Q-1.6 -21.5 -0.95 -21.5Q-0.25 -21.5 0.1 -21.05L0.4 -20.2M-1.75,-19.35Q-1.75 -18.9 -1.2 -18.55L-0.75 -18.55Q-0.15 -18.75 -0.15 -19.5Q-0.15 -20.2 -1.05 -20.2Q-1.75 -20.2 -1.75 -19.35" />
<path style="fill:#CD251C;fill-opacity:1" d="M-7.5,-11.6L-4.95 -12.1L-2.55 -12.7L-1.45 -13.05L-0.05 -13.6L0.1 -13.65L0.2 -13.65L0.3 -13.2L-0.6 -11.75Q-1.5 -10.7 -2.15 -10.5L-3.75 -10L-5.7 -9.65Q-7.05 -9.65 -8.75 -10.25Q-10.7 -10.95 -10.75 -11.75L-7.5 -11.6M-9.8,-13.15L-10.15 -13.5Q-11.9 -14.45 -11.9 -16L-11.75 -16.7Q-9.15 -15.2 -5.4 -14.15L-8.6 -13.35L-9.8 -13.15" />
<path style="fill:#E23C34;fill-opacity:1" d="M0.1,-13.65L-0.05 -13.6L-1.45 -13.05L-2.55 -12.7L-4.95 -12.1L-7.5 -11.6L-10.75 -11.75L-10.75 -11.8L-10.25 -12.55L-9.8 -13.15L-8.6 -13.35L-5.4 -14.15Q-9.15 -15.2 -11.75 -16.7L-11.25 -17.5L-10.35 -18.15Q-9.1 -16.5 -6.3 -15.75Q-2.25 -13.6 -0.8 -13.6L0.1 -13.65" />
<path style="fill:#F36D66;fill-opacity:1" d="M-0.8,-13.6Q-2.25 -13.6 -6.3 -15.75Q-9.1 -16.5 -10.35 -18.15L-10.05 -18.25L-8.85 -18.05L-7.55 -17.85L-6.3 -18.15L-5.25 -18.5Q-4.35 -18.5 -2.05 -16.35Q-0.2 -14.65 0.2 -13.65L0.1 -13.65L-0.8 -13.6" />
<path style="fill:none;stroke-width:1;stroke-linecap:butt;stroke-linejoin:miter;stroke-miterlimit:3;stroke:#A12019;stroke-opacity:1" d="M-10.75,-11.75Q-10.7 -10.95 -8.75 -10.25Q-7.05 -9.65 -5.7 -9.65L-3.75 -10L-2.15 -10.5Q-1.5 -10.7 -0.6 -11.75L0.3 -13.2L0.2 -13.65M-10.75,-11.75L-10.75 -11.8L-10.25 -12.55L-9.8 -13.15L-10.15 -13.5Q-11.9 -14.45 -11.9 -16L-11.75 -16.7L-11.25 -17.5L-10.35 -18.15L-10.05 -18.25L-8.85 -18.05L-7.55 -17.85L-6.3 -18.15L-5.25 -18.5Q-4.35 -18.5 -2.05 -16.35Q-0.2 -14.65 0.2 -13.65" />
</g>
</svg>
