<?xml version="1.0" encoding="utf-8"?>
<svg version="1.1" id="Layer_1"
xmlns="http://www.w3.org/2000/svg"
xmlns:xlink="http://www.w3.org/1999/xlink"
xmlns:author="http://www.sothink.com"
width="68px" height="62px"
xml:space="preserve">
<g id="10" transform="matrix(1, 0, 0, 1, 37.4, 32.65)">
<path style="fill:#232222;fill-opacity:1" d="M15.9,-6.2Q17.75 -2.65 17.75 0.35Q17.75 3.6 16.35 6.8Q13.8 12.65 7.7 12.65Q4.65 12.65 4 11.85L3.75 10.6L2.1 12.3Q0.6 13.8 -1.35 13.8Q-4.15 13.8 -5.05 12.4L-5.5 10.65L-6.85 10.65Q-8.05 11.25 -9.3 11.25Q-14.25 11.25 -16.25 6.9Q-17.25 4.75 -17.25 2.5Q-17.25 -3 -13 -3.45L-10.1 -3.6Q-8.75 -3.8 -8.75 -4.85L-9.75 -6.7Q-10.8 -8.2 -10.8 -9.65Q-10.8 -11.55 -8.5 -13.3Q-6.35 -14.9 -3.05 -15.9Q3.5 -18 6.55 -15.45Q8.5 -13.85 8.5 -11.35Q13.25 -11.35 15.9 -6.2" />
<path style="fill:#FF6600;fill-opacity:1" d="M27.15,-26.8Q26.3 -22.7 22.9 -22.7Q21.15 -22.7 20.05 -23.85Q19.25 -24.7 19.25 -25.3Q19.25 -29.5 23.2 -29.85Q27.15 -30.15 27.15 -26.8M17,-27.05Q16.45 -26 15.4 -26Q13.7 -26 13.1 -26.95Q12.8 -27.4 12.8 -28Q12.8 -29.55 15.1 -30.05Q17.35 -30.5 17.35 -28.35L17 -27.05M13.35,-24.35Q16.2 -25.55 19.15 -22.6Q19.9 -22 20.3 -20.45L20.65 -18.05Q20.65 -16.45 19.95 -15.55Q19.25 -14.7 19.25 -12.9Q19.25 -11.45 17.4 -8.8L17.05 -8.3Q18.35 -7.7 20 -6.1Q24.9 -1.55 24.9 2.85Q24.9 5.7 22.65 8.35Q19.7 11.8 14.05 12.35Q14.05 13.95 13 15.95Q11.65 18.55 9.45 19.15L9.6 20.8Q9.6 22.7 8.15 25.2Q5.75 29.25 1.05 29.25Q-2.7 29.25 -3.95 27.4L-5.85 22.35Q-10.1 22.3 -12.05 19.85Q-13.35 18.2 -13.35 16.1L-13 14.6L-17.1 15.2Q-21.4 15.2 -23.6 12.15Q-25.15 10.05 -25.15 8.05Q-28.85 6.85 -30.3 4.35Q-31.25 2.65 -31.25 -0.05Q-31.25 -3.1 -30 -4.8Q-27.65 -7.85 -21.15 -7.85L-18.95 -9.9L-17.7 -10.85Q-19.7 -12.5 -19.7 -16.05Q-19.7 -20.3 -16.7 -22.05L-16.6 -22.1L-16.9 -22.65L-17.3 -24.1Q-17.75 -24.6 -17.6 -26Q-17.6 -29.3 -15.45 -31.1Q-13.55 -32.65 -10.7 -32.65Q-8 -32.65 -6 -31.15Q-4.15 -29.8 -3.9 -27.8L-3.5 -26.8Q-2.65 -26.7 -1.05 -25.65Q2.05 -23.55 2.55 -20.85L3.25 -21.35Q6.15 -23.2 7.95 -23.2L9.75 -22.85L11.05 -22.55L13.35 -24.35M27.7,18.2Q25.25 18.2 23.8 15.75Q22.8 14.05 22.8 13Q22.8 9.55 26.65 10.15Q30.5 10.75 30.5 14.6Q30.5 18.2 27.7 18.2M-34.4,-4.55Q-31.4 -5.05 -31.4 -2Q-31.4 -0.95 -32 0.8Q-32.8 3.3 -34.15 3.3Q-36.6 3.3 -37.25 1.45L-37.4 -0.65Q-37.4 -4.05 -34.4 -4.55" />
<path style="fill:#FFCC00;fill-opacity:1" d="M23.3,-28.5Q25.25 -28.4 25.25 -26.55Q25.25 -26 24.85 -25.6Q24.35 -25.15 23.5 -25.15Q22.55 -25.15 21.85 -26.05L21.35 -26.9Q21.35 -28.6 23.3 -28.5M16.4,-27.55Q16.1 -27.25 15.8 -27.25Q15.1 -27.25 14.75 -27.9L14.55 -28.45Q14.55 -29.55 15.6 -29.25Q16.65 -28.9 16.65 -28.1L16.4 -27.55M12.95,-22.15Q12.95 -24.8 16.3 -22.95Q19.6 -21.15 19.6 -18.5L19.55 -17.55Q19.35 -16.9 18.35 -16.9Q16.55 -16.9 16.2 -17.9Q16 -18.5 15.95 -19.65L14.3 -20.9Q12.95 -21.6 12.95 -22.15M16.15,-13.95Q16.15 -12.85 15.75 -11.8Q15.05 -10 13.4 -10Q12 -10 8.25 -15.25L4.85 -19.85Q4.85 -21.55 6.6 -21.7Q8.2 -21.85 10.5 -20.7Q16.15 -17.85 16.15 -13.95M5.5,-6Q4.35 -6 2.15 -6.9L-0.55 -7.85Q-2.65 -7.85 -5.7 -6.4Q-8.75 -4.95 -9.4 -4.95Q-11.6 -4.95 -12.35 -6.5Q-12.7 -7.25 -12.65 -8.1Q-12.65 -11.6 -9.35 -13.45Q-6.45 -15.05 -2.1 -14.9Q2.05 -14.8 5.1 -13.2Q8.4 -11.45 8.4 -8.85Q8.4 -6 5.5 -6M7.35,-1.2Q7.35 0.05 6.85 1.1Q5.95 2.95 3.9 2.95Q1.7 2.95 0.6 0.35Q0.05 -0.9 -0.05 -2.05Q-0.05 -5.45 3.65 -4.4Q7.35 -3.4 7.35 -1.2M16.55,-5.95Q18.85 -5.8 20.45 -3.5Q22.25 -1 22.25 2.9Q22.25 10.5 14.8 10.5Q11.5 10.5 10.85 6.9Q10.5 5.15 10.85 3.3Q10.85 -1.35 12.65 -3.85Q14.2 -6.1 16.55 -5.95M27.4,16.6Q26.05 16.6 25.15 14.95L24.55 13.3Q24.55 11 26.85 11.35Q29.1 11.7 29.1 14.2Q29.1 16.6 27.4 16.6M14.9,3.7Q14.8 3.95 14.95 4.2Q15.15 3.8 14.9 3.65L14.9 3.7M7.3,17.7Q4.85 19.25 -0.85 19.25Q-5.65 19.25 -8.1 17.55Q-9.85 16.35 -9.85 15Q-9.85 13.4 -6.9 12.2Q-4.2 11.15 -0.45 10.95Q8.9 10.45 8.9 15.05Q8.9 16.65 7.3 17.7M6.6,22.6Q6.6 23.9 4.9 25.1Q2.95 26.5 0.05 26.5Q-1.85 26.5 -2.8 24.3L-3.35 22.25Q-3.35 21.35 1.65 21Q6.6 20.65 6.6 22.6M-6.55,-28.9Q-6.55 -27.75 -9.05 -26.05Q-11.7 -24.25 -13.95 -24.25Q-15.6 -24.25 -16.05 -25.2L-16.2 -26.35Q-16.2 -30.15 -11.35 -31.3Q-6.55 -32.45 -6.55 -28.9M-24.45,-4.15Q-24.45 -3.85 -24.8 -3.1L-25.3 -1.9L-25.15 0.2Q-25.15 1 -25.65 2.95Q-26.3 5.55 -27.15 5.55Q-28.75 5.55 -29.55 2.95L-30 0.35Q-29.5 -5.3 -26.6 -5.3Q-24.45 -5.3 -24.45 -4.15M-21.45,-4.25Q-20.6 -7.25 -19 -6.75Q-17.4 -6.25 -17.4 -3.25Q-17.4 -0.45 -15.3 4.8Q-13.2 10.1 -13.2 10.6L-13.4 11.75Q-13.85 12.4 -15.45 12.4Q-20.4 12.4 -22.3 7.6Q-23.25 5.2 -23.2 2.8Q-23.2 1.55 -22.55 -0.6L-21.45 -4.25M-33.45,-0.15Q-34.25 1.9 -35.35 1.9Q-36.55 1.9 -36.35 0.25Q-36.35 -1.75 -34.6 -2.95Q-32.85 -4.1 -32.85 -2.25L-33.45 -0.15M-1.6,-21.8Q-1.6 -20.35 -2.3 -19.5Q-3.35 -18.3 -6.3 -17.5Q-7.5 -16.8 -9.5 -16.05L-9.85 -15.9L-10.75 -15.45Q-13.7 -13.9 -14.5 -13.9Q-16.05 -13.9 -16.35 -15L-16.35 -16.15Q-16.35 -21.9 -8.95 -24.35L-3.9 -24.75Q-1.6 -24.1 -1.6 -21.8M-3.95,-13.05Q-3.65 -13.1 -3.7 -13.2L-4.3 -13.1L-3.95 -13.05M-14.25,-15.8L-13.9 -15.9L-14.1 -16.2L-14.25 -15.9L-14.25 -15.8M-19.15,-0.5L-19.25 -1.4L-19.3 -0.85L-19.15 -0.5" />
</g>
</svg>
