<?xml version="1.0" encoding="utf-8"?>
<svg version="1.1" id="Layer_1"
xmlns="http://www.w3.org/2000/svg"
xmlns:xlink="http://www.w3.org/1999/xlink"
xmlns:author="http://www.sothink.com"
width="356px" height="222px"
xml:space="preserve">
<g id="213" transform="matrix(1, 0, 0, 1, 177.9, 110.8)">
<path style="fill:#252424;fill-opacity:1" d="M-144.25,-1.05Q-144.25 20.15 -136.5 37.85L-135.6 39.75L-134.75 41.5L-133.7 43.55Q-128.4 53.6 -120.4 62.4L-117.95 65L-113.35 69.4Q-91.7 88.7 -62.8 88.7Q-32.35 88.7 -10 67.4L-6.15 63.5L-5.15 62.4Q-1.7 58.55 1.35 54.5L2.95 56.25L5.55 59L9.95 64.15Q33.8 90.45 67.55 90.45Q101.3 90.45 125.15 64.15Q149 37.95 149 0.8L149 -2.05Q148.1 -37.45 125.15 -62.75Q101.3 -88.95 67.55 -88.95Q33.8 -88.95 9.95 -62.75L4.1 -55.55L2.95 -54.4L2.95 -54.3Q-0.75 -59.7 -5.15 -64.6Q-29 -90.8 -62.8 -90.8Q-96.55 -90.8 -120.4 -64.6Q-143.95 -38.65 -144.25 -2.05L-144.25 -1.05M-164.25,-96.6L163.75 -96.6L163.75 96.05L-164.25 96.05L-164.25 -96.6" />
<linearGradient
id="LinearGradID_15" gradientUnits="userSpaceOnUse" gradientTransform="matrix(-0.000549316, 0.0756531, -0.0687256, -0.000900269, 1.75, 57.15)" spreadMethod ="pad" x1="-819.2" y1="0" x2="819.2" y2="0" >
<stop  offset="0" style="stop-color:#BAE7BF;stop-opacity:1" />
<stop  offset="1" style="stop-color:#61B46A;stop-opacity:1" />
</linearGradient>
<path style="fill:url(#LinearGradID_15) " d="M3.5,33.05Q21.1 32.8 25.9 31.45L26.6 31.45L28.1 34.1L25.75 34.05L9.85 34.85Q7.1 35.45 7.1 37.25Q7.1 39.55 9.1 39.55L18.2 39.65L23.9 40.25L32 40.35L39 41.7L62.15 41.75L64.95 42.05Q67.4 42.05 67.8 41.5Q68.45 40.5 68.9 40.35L102.75 36.8L114.85 36.7Q125 36.25 134.3 36.15Q138.55 35.8 138.55 33.25Q138.55 32.15 137.9 31.55Q137.05 30.65 134.7 30.15L122.9 30.15Q120.95 27 117.6 25.85Q115.2 24.95 112.05 24.6L106.9 24.25L106.9 24.1Q105.25 23.55 104.15 22.5L102.65 20.45L101.5 18.75Q95.05 10.15 92.45 9Q90.15 8 87.15 11.2Q83.85 14.65 79.75 23.1Q79.35 23.2 79.15 23.55L79.05 24L76.15 24.25Q70.7 25.5 68.6 28.45Q67.3 29.4 65.3 30.2L64.95 29.7L62.15 27Q59.85 25.05 58.5 25.05Q58.05 25.05 57.7 25.4Q56.8 26.15 55.9 28.35L54.4 32.55L54.55 33.15L47.9 33.75L47.1 33.5L43.25 33.25L43.4 33.35L42.85 33.25L43.25 33.25L42.85 32.95L40.55 31.35L42.45 31.35Q42.85 31.1 46.05 29.95Q47.9 29.35 47.9 27.75Q47.9 25.25 41.1 25.45L43.25 23.35L47.8 17.35L49.35 14.85L50.5 13L52.05 10.15L52.9 7.6L53 7.6Q57.5 6.2 57.5 2.7L57.35 2.05Q56.85 1.3 55.55 0.8L52.35 0.45L50.5 -0.85L50.05 -1.05Q49.5 -1.4 48.8 -2L48.75 -2.05L149 -2.05L149 0.8Q149 37.95 125.15 64.15Q101.3 90.45 67.55 90.45Q33.8 90.45 9.95 64.15L5.55 59L2.95 56.25L1.35 54.5Q-1.7 58.55 -5.15 62.4L-6.15 63.5Q-6.6 62.45 -7.9 62.45L-18.95 62.45L-18.95 62.55L-24.3 62.65Q-21.15 60.4 -19.55 58.4L-13.7 50.3L-11.7 46.95L-10.25 44.55L-8.15 40.7L-7.15 37.25L-6.95 37.25Q-2.85 35.9 -1.65 33.15L3.5 33.05M-105.45,69.4L-105.6 70.55Q-105.6 72.95 -103.65 72.95L-92.9 72.95L-91.5 72.7L-83.5 72.6L-59.25 71.1L-55.7 70.45L-40.05 70.45L-26.5 70.2Q-19.5 70.1 -17.5 67.8L-10 67.4Q-32.35 88.7 -62.8 88.7Q-91.7 88.7 -113.35 69.4L-105.45 69.4M-96.2,62.65L-95.4 64.15L-96.95 64.15L-97.8 63.35L-102.2 62.85L-106.15 63.2L-106.7 64.05L-117.95 65L-120.4 62.4Q-128.4 53.6 -133.7 43.55L-98.9 43.55L-97.95 43.3L-94.4 43.3Q-94.65 45.45 -95.6 49.4Q-96 51.5 -95.65 53.25L-95.9 53.25L-99.55 53.75L-100.9 54.05Q-104.1 54.95 -104.7 57.25L-104.9 58.2Q-104.9 60.8 -101.25 60.8Q-100.15 60.8 -97.55 60L-96.2 62.65M-112.45,37.25L-100.05 37.2L-99.65 37.75L-99.05 37.2L-97.05 37.2L-96.1 38.4L-134.5 41.4L-134.75 41.5L-135.6 39.75L-112.45 37.25M-111.5,35.35L-111.5 35.45L-128.05 36.8L-136.5 37.85Q-144.25 20.15 -144.25 -1.05L-144.25 -2.05L-88.75 -2.05L-93.95 3.6L-94.45 4.1Q-96.2 6 -97.4 7.85Q-99.8 10.85 -101.1 13.3L-101.35 13.3L-102.15 13.9Q-102.5 13.9 -102.75 14.9L-103.5 16.15Q-104.3 17.45 -105 19.85L-105.3 21.5L-105.5 21.9L-106 23.9Q-106.7 25.35 -103.75 31L-101.25 35.35L-111.5 35.35M-85.15,16.85Q-83.45 15 -81.95 12.6Q-79.45 8.35 -77.65 6L-77.05 6L-76.45 6L-75.25 5.5L-74.8 6.6Q-73.85 8.65 -72.75 9.45L-71.35 9.95L-70.75 9.95L-70.5 9.95L-68.7 9.45L-68.15 9.25L-66.35 8.65L-65.85 8.45L-65.6 8.45Q-61.2 6.6 -61.2 5.5Q-61.2 4.4 -62.15 2.5L-62.2 2.2L-62.4 1.45L-62.4 1.35L-63.25 -0.55L-63.1 -0.75Q-62.35 -1.15 -61.9 -2.05L-23.75 -2.05Q-23.9 -0.75 -21.9 2.9L-18.8 8.05L-17.45 6.85Q-14.85 9.6 -14.65 10.5Q-14.4 11.7 -15.6 16.7Q-15.95 18.3 -15.65 19.5L-15.9 19.5L-18.65 19.95L-19.8 20.15L-20.95 19.75L-20.95 19.45Q-23.15 17.45 -29.05 15.7Q-36.35 13.4 -41.35 12.9L-41.7 12.8L-44.2 12.3L-47.65 11.8Q-57.15 11.8 -63 13.6L-64.55 13.9L-66.2 14.4L-69.1 15.8Q-72.9 17.75 -76.6 20.9L-77.05 21.4L-77.55 21.5Q-78.85 22.9 -80 23.4Q-80.95 21.7 -82.75 19.75L-83.95 18.25L-85.15 16.85M2.4,2.4L6.8 -0.25L6.8 -0.4L8.2 -1.2L7.05 -0.05L6.95 -0.05L4.45 2.7L3.45 4.95L2.6 6.55L2.55 6.7L2.55 6.75L-0.45 16.05L-0.65 16.15L-1.9 16.5Q-4.6 17.35 -6.3 17.5L-10.65 18.35Q-10.8 17.2 -10.3 15.65Q-8.95 11.15 -9.65 8Q-10.4 5.05 -13.1 2.25L-11.9 0.55Q-11.9 0.25 -12.55 -0.7L-13.05 -2.05L-8.85 -2.05L-8.85 -2L-8.95 -0.75Q-8.95 0.55 -8.35 1.3Q-7.6 2.1 -6.55 2.1L-6.2 2.1Q-5.6 2.9 -5.1 2.9Q-4.05 2.9 -3.35 2.1Q-2.85 1.6 -2.65 0.9Q-1.85 0.95 -0.3 1.95L1.65 2.9L1.8 3.3L1.9 3.7L2.05 3.95L1.8 3.3L1.7 2.95L1.65 2.9L1.7 2.9L2.4 2.4M-82.15,32.55L-89.9 33.2Q-90.9 31.6 -92.3 30.1L-90.75 27.75Q-90.75 27.45 -91.7 26.15L-92.3 24.2L-92.05 21.1L-90.3 20.6L-87.8 23.1L-87.55 23.4L-86.85 24.4L-87.05 26.05Q-87.05 27.75 -86.2 28.85Q-85.3 29.9 -83.75 29.9L-83.45 29.9Q-82.55 31 -81.95 31Q-80.6 31 -79.7 29.9Q-79.05 29.25 -78.85 28.25Q-77.8 28.45 -75.85 29.65L-73.35 31L-73.15 31.5L-73.15 31L-72.3 30.4L-66.6 26.85L-66.6 26.45L-64.8 25.55Q-65.6 26.35 -66.35 26.95L-69.55 30.7L-70.25 32L-82.15 32.55M-88.9,34.95L-78.75 34.05L-70.9 33.6L-70.95 33.7L-72.15 35.85L-72.15 36.1L-77.8 36.1L-77.8 36.15L-88 37.25L-88.9 34.95M-76.25,48.7L-77.8 49.2Q-81.25 50.3 -83.6 50.5L-89.1 51.6Q-89.45 50.2 -88.7 47.85Q-88 45.4 -87.75 43.2L-87.55 43.2L-74.5 40.7L-73.5 40.5L-76 48.6L-76.25 48.7M52.35,0.45L52.9 0.8L52.65 1.05L52.35 0.45M-87.6,40.3L-76.4 39.3L-87.2 41.25L-87.6 41.25L-87.6 40.3M-97.65,41.4L-98.6 41.7L-106.7 41.7L-94.5 40.8L-94.35 41.2L-94.3 41.35L-97.65 41.4M66.85,35.95L66.2 36.45L62.95 36.6L66.85 35.95" />
<linearGradient
id="LinearGradID_16" gradientUnits="userSpaceOnUse" gradientTransform="matrix(0.000549316, 0.029892, -0.0595245, 0.00105286, 1.75, -23.75)" spreadMethod ="pad" x1="-819.2" y1="0" x2="819.2" y2="0" >
<stop  offset="0" style="stop-color:#66CCFF;stop-opacity:1" />
<stop  offset="1" style="stop-color:#FFFFFF;stop-opacity:1" />
</linearGradient>
<path style="fill:url(#LinearGradID_16) " d="M-2.2,-24.55L-2.3 -24.55L-2.4 -24.55L-2.45 -24.7L-2.55 -24.6L-3.15 -24.8L-4.15 -24.7L-6.55 -24.3Q-7.1 -24.25 -7.85 -23.8L-9.15 -22.9L-9.3 -22.75L-14.35 -17.6L-14.8 -17.15L-17.05 -14.45L-19.9 -10.35L-20.1 -10.35L-20.7 -9.8L-21.15 -9.15L-21.15 -9.05L-21.7 -8.2L-22.9 -5.4L-23.2 -4.2L-23.3 -4L-23.7 -2.4L-23.75 -2.05L-61.9 -2.05Q-61.35 -3.25 -61.35 -5.4Q-61.35 -10.35 -63.45 -10.35L-63.6 -11.45L-65.4 -14.9L-65.75 -15.1Q-65.85 -15.9 -66.35 -16.2Q-66.8 -17.25 -67.2 -17.65Q-68.7 -18.85 -72.15 -18.85Q-76.6 -18.85 -78.25 -14.7Q-79.05 -12.7 -79.05 -9.45Q-79.05 -8.65 -78.6 -8.05L-78.6 -7.45L-78.25 -5.7L-78.5 -5.7L-78.6 -5.9L-79.45 -6.1L-80.75 -5.9L-83.75 -5.4Q-84.65 -5.4 -85.6 -4.8L-87.3 -3.5L-87.4 -3.3L-88.75 -2.05L-144.25 -2.05Q-143.95 -38.65 -120.4 -64.6Q-96.55 -90.8 -62.8 -90.8Q-29 -90.8 -5.15 -64.6Q-0.75 -59.7 2.95 -54.3L2.95 -54.4L4.1 -55.55L9.95 -62.75Q33.8 -88.95 67.55 -88.95Q101.3 -88.95 125.15 -62.75Q148.1 -37.45 149 -2.05L48.75 -2.05L48 -2.55Q44.65 -4.85 42.25 -5.55L42.25 -5.7Q40.4 -7.15 35.9 -8.55Q30.3 -10.2 26.35 -10.55L26.15 -10.7L24.15 -11L21.5 -11.35Q14.25 -11.35 9.65 -10.15L8.45 -9.85L7.15 -9.45L4.95 -8.35L4.9 -8.35Q1.95 -7 -0.9 -4.65L-1.3 -4.25L-1.65 -4.2Q-2.65 -3.05 -3.45 -2.75Q-4.3 -4.05 -5.7 -5.55L-6.6 -6.65L-7.55 -7.65Q-6.2 -9 -5.05 -10.85L-1.7 -15.75L-1.3 -15.75L-0.8 -15.75L0.15 -16.15L0.45 -15.25Q1.2 -13.85 2.05 -13.2L3.2 -12.85L3.6 -12.85L3.8 -12.85L5.2 -13.2L5.65 -13.3L6.95 -13.85L7.4 -13.95L7.6 -13.95Q11 -15.25 11 -16.15Q11 -16.95 10.3 -18.4L10.15 -18.65L10.1 -19.15L10.1 -19.25L9.45 -20.75L9.55 -20.8Q10.9 -21.55 10.9 -24.3Q10.9 -28.05 9.2 -28.05L9.1 -28.9L7.65 -31.4L7.45 -31.55L7.05 -32.4L6.4 -33.4Q5.2 -34.35 2.55 -34.35Q-0.95 -34.35 -2.15 -31.25Q-2.8 -29.7 -2.8 -27.35L-2.55 -26.2L-2.2 -24.55M-13.1,-2.1L-12.9 -4.5L-11.6 -4.9L-9.6 -3L-9.35 -2.7L-8.85 -2.05L-13.05 -2.05L-13.1 -2.1" />
<path style="fill:#2F9EBF;fill-opacity:1" d="M-93.15,31L-96.25 34.45Q-96.85 34.75 -96.85 35.1L-97.1 35.35L-97.9 36.15L-99.05 37.2L-99.65 37.75L-100.05 37.2L-101.25 35.35L-103.75 31Q-106.7 25.35 -106 23.9L-105.5 21.9L-105.3 21.5L-105 19.85Q-104.3 17.45 -103.5 16.15L-102.75 14.9Q-102.5 13.9 -102.15 13.9L-101.35 13.3L-101.1 13.3Q-99.8 10.85 -97.4 7.85Q-96.2 6 -94.45 4.1L-93.95 3.6L-88.75 -2.05L-87.4 -3.3L-87.3 -3.5L-85.6 -4.8Q-84.65 -5.4 -83.75 -5.4L-80.75 -5.9L-79.45 -6.1L-78.6 -5.9L-79.05 -5.4Q-80.4 -4.4 -80.75 -3L-80.9 -2.05L-80.95 -1.65L-80.95 -0.35Q-80.95 2.5 -79.8 4.4Q-78.85 5.7 -77.65 6Q-79.45 8.35 -81.95 12.6Q-83.45 15 -85.15 16.85Q-86.7 14.9 -86.7 14.4Q-86.7 13.9 -86.1 13.1L-85 11.6L-86.2 10.85L-88.1 9.25L-88.35 9.15Q-89.45 8.15 -89.9 7.15L-90.3 7.85Q-93 10.85 -93.7 13.1L-93.95 14.4Q-93.95 16.85 -92.8 18.25L-92.2 18.95L-90.3 20.6L-92.05 21.1L-92.3 24.2L-91.7 26.15Q-90.75 27.45 -90.75 27.75L-92.3 30.1L-93.15 31M-13.7,2.95L-17.45 6.85L-18.8 8.05L-21.9 2.9Q-23.9 -0.75 -23.75 -2.05L-23.7 -2.4L-23.3 -4L-23.2 -4.2L-22.9 -5.4L-21.7 -8.2L-21.15 -9.05L-21.15 -9.15L-20.7 -9.8L-20.1 -10.35L-19.9 -10.35L-17.05 -14.45L-14.8 -17.15L-14.35 -17.6L-9.3 -22.75L-9.15 -22.9L-7.85 -23.8Q-7.1 -24.25 -6.55 -24.3L-4.15 -24.7L-3.15 -24.8L-2.55 -24.6L-2.85 -24.3Q-3.85 -23.6 -4.15 -22.45L-4.2 -21.55L-4.2 -20.55Q-4.2 -18.4 -3.4 -16.95Q-2.7 -15.95 -1.7 -15.75L-5.05 -10.85Q-6.2 -9 -7.55 -7.65Q-8.8 -9.05 -8.8 -9.45L-8.2 -10.5L-7.45 -11.55L-8.4 -12.15L-9.85 -13.35L-10.05 -13.5L-11.2 -14.85L-11.6 -14.45Q-13.6 -12.1 -14.15 -10.5L-14.35 -9.5Q-14.35 -7.7 -13.55 -6.65L-12.95 -6.05L-11.6 -4.9L-12.9 -4.5L-13.1 -2.1L-13.05 -2.05L-12.55 -0.7Q-11.9 0.25 -11.9 0.55L-13.1 2.25L-13.7 2.95M-7.6,-16.25Q-6.9 -14.95 -6.2 -14.95L-5.9 -15L-5.2 -15.85L-5.05 -16.25L-4.85 -16.95Q-4.85 -18.4 -6.55 -18.9Q-8.1 -19.3 -8.2 -17.8L-8.2 -17.65L-7.6 -16.25M-83.75,1.75Q-85.75 1.15 -86.1 3.3L-86.1 3.4L-85.3 5.4Q-84.35 7.15 -83.45 7.15L-83 7.05Q-82.55 6.6 -82.2 5.8L-81.95 5.4L-81.7 4.4Q-81.7 2.5 -83.75 1.75" />
<path style="fill:#F0D2C6;fill-opacity:1" d="M-65.4,-14.6Q-65.4 -13.8 -65.6 -13.6Q-65.85 -13.1 -66.35 -13Q-66.8 -12.2 -68.15 -12.2Q-69.45 -12.2 -70.5 -14.4L-70.95 -14.7L-71.55 -16.2Q-71.55 -18.85 -68.7 -17.85Q-67.05 -17.25 -66.35 -16.2Q-65.85 -15.9 -65.75 -15.1L-65.4 -14.9L-65.4 -14.6M7.05,-32.4L7.45 -31.55L7.65 -31.4L7.7 -31.1L7.6 -30.5L7.05 -29.9Q6.65 -29.35 5.65 -29.35Q4.65 -29.35 3.8 -31.05L3.55 -31.25L2.95 -32.4Q2.95 -34.3 5.3 -33.55Q6.45 -33.05 7.05 -32.4M8.15,-19.95Q9.45 -19.95 9.45 -17.15Q9.45 -15.8 8.6 -15.8Q8.05 -15.8 7.6 -16.8L6.95 -18.65Q6.95 -19.5 7.6 -19.8L8.15 -19.95M-9.3,-10.5L-9.4 -9.5L-7.8 -7.4L-7.2 -6.65L-4.7 -3.05L-4.55 -2.7L-4.15 -2.05Q-3.1 -0.15 -3.1 0.6L-3.1 0.95Q-3.3 1.75 -4.15 1.75L-4.4 1.55L-6.6 -2.05L-6.95 -2.7L-7.55 -3.75L-7.6 -3.85L-9.45 -6.05L-9.6 -6.2L-9.85 -6.65Q-11.4 -8.65 -11.4 -9.3L-11.15 -10.5L-10.3 -13L-10.05 -13.5L-9.85 -13.35L-8.4 -12.15L-9.3 -10.5M-65,0.45Q-63.25 0.45 -63.25 4.1Q-63.25 6 -64.2 6Q-65.05 6 -65.6 4.6L-66.35 2.2Q-66.35 0.95 -65.6 0.55L-65 0.45M-87.4,13.1L-87.55 14.4L-85.4 17.15L-84.7 18.25Q-82.75 20.9 -81.6 22.9L-81.25 23.4Q-79.45 26.85 -79.45 27.95L-79.45 28.45Q-79.7 29.35 -80.75 29.35L-81.2 29.05L-84.35 23.4L-85.15 22L-85.3 22L-87.75 18.95L-87.8 18.75L-88.1 18.25Q-90.25 15.5 -90.25 14.7L-89.8 13.1Q-89.55 11.6 -88.7 9.75L-88.35 9.15L-88.1 9.25L-86.2 10.85Q-87.15 11.8 -87.4 13.1" />
<path style="fill:#EEA78C;fill-opacity:1" d="M-78.6,-7.45L-78.6 -8.05Q-79.05 -8.65 -79.05 -9.45Q-79.05 -12.7 -78.25 -14.7Q-76.6 -18.85 -72.15 -18.85Q-68.7 -18.85 -67.2 -17.65Q-66.8 -17.25 -66.35 -16.2Q-67.05 -17.25 -68.7 -17.85Q-71.55 -18.85 -71.55 -16.2L-70.95 -14.7L-70.5 -14.4Q-69.45 -12.2 -68.15 -12.2Q-66.8 -12.2 -66.35 -13Q-65.85 -13.1 -65.6 -13.6Q-65.4 -13.8 -65.4 -14.6L-65.4 -14.9L-63.6 -11.45L-63.45 -10.35Q-64.55 -10.35 -65.05 -9.85L-65.6 -9.15L-65.85 -8.65L-66.35 -8.35Q-66.55 -9.15 -67.2 -9.45Q-68.15 -10.35 -70.75 -10.35L-71.55 -10.35L-75.25 -9.35Q-77.65 -8.05 -77.65 -5.4Q-77.55 -3.8 -77.05 -2.8L-76.45 -2.05L-76.25 -1.65Q-75.5 -1.05 -74.35 -0.55L-72.15 -0.35L-71.35 -0.35Q-68.35 -0.35 -67 -2.05L-66.55 -2.8L-66.35 -2.45L-65.75 -2.05L-65.6 -1.85L-65.3 -1.55Q-64.55 -0.55 -64.2 -0.55L-63.25 -0.55L-62.4 1.35L-62.4 1.45L-62.2 2.2L-62.15 2.5Q-61.2 4.4 -61.2 5.5Q-61.2 6.6 -65.6 8.45L-65.85 8.45L-66.35 8.65L-68.15 9.25L-68.7 9.45L-70.5 9.95L-70.75 9.95L-71.35 9.95L-72.75 9.45Q-73.85 8.65 -74.8 6.6L-75.25 5.5L-76.45 6L-77.05 6L-77.65 6Q-78.85 5.7 -79.8 4.4Q-80.95 2.5 -80.95 -0.35L-80.95 -1.65L-80.9 -2.05L-80.75 -3Q-80.4 -4.4 -79.05 -5.4L-78.6 -5.9L-78.5 -5.7L-78.25 -5.7L-78.6 -7.45M-2.55,-26.2L-2.8 -27.35Q-2.8 -29.7 -2.15 -31.25Q-0.95 -34.35 2.55 -34.35Q5.2 -34.35 6.4 -33.4L7.05 -32.4Q6.45 -33.05 5.3 -33.55Q2.95 -34.3 2.95 -32.4L3.55 -31.25L3.8 -31.05Q4.65 -29.35 5.65 -29.35Q6.65 -29.35 7.05 -29.9L7.6 -30.5L7.7 -31.1L7.65 -31.4L9.1 -28.9L9.2 -28.05Q8.45 -28.05 7.95 -27.7L7.6 -27.05L7.35 -26.75L6.95 -26.45Q6.85 -27.05 6.4 -27.35Q5.65 -28.05 3.6 -28.05L2.95 -28.05L0.2 -27.2Q-1.8 -26.2 -1.8 -24.3L-1.8 -24.25L-1.2 -22.3L-0.6 -21.55Q0.05 -21.05 0.85 -20.75L2.55 -20.55L3.2 -20.55Q5.95 -20.6 6.85 -22.3L7.05 -22.15L7.6 -21.65L7.8 -21.4Q8.45 -20.75 8.6 -20.75L9.45 -20.75L10.1 -19.25L10.1 -19.15L10.15 -18.65L10.3 -18.4Q11 -16.95 11 -16.15Q11 -15.25 7.6 -13.95L7.4 -13.95L6.95 -13.85L5.65 -13.3L5.2 -13.2L3.8 -12.85L3.6 -12.85L3.2 -12.85L2.05 -13.2Q1.2 -13.85 0.45 -15.25L0.15 -16.15L-0.8 -15.75L-1.3 -15.75L-1.7 -15.75Q-2.7 -15.95 -3.4 -16.95Q-4.2 -18.4 -4.2 -20.55L-4.2 -21.55L-4.15 -22.45Q-3.85 -23.6 -2.85 -24.3L-2.55 -24.6L-2.45 -24.7L-2.4 -24.55L-2.3 -24.55L-2.2 -24.55L-2.55 -26.2M-7.3,0.55L-8.85 -2L-8.85 -2.05L-9.35 -2.7L-9.6 -3L-11.6 -4.9L-12.95 -6.05L-13.55 -6.65Q-14.35 -7.7 -14.35 -9.5L-14.15 -10.5Q-13.6 -12.1 -11.6 -14.45L-11.2 -14.85L-10.05 -13.5L-10.3 -13L-11.15 -10.5L-11.4 -9.3Q-11.4 -8.65 -9.85 -6.65L-9.6 -6.2L-9.45 -6.05L-7.6 -3.85L-7.55 -3.75L-6.95 -2.7L-6.6 -2.05L-4.4 1.55L-4.15 1.75Q-3.3 1.75 -3.1 0.95L-3.1 0.6Q-3.1 -0.15 -4.15 -2.05L-4.55 -2.7L-4.7 -3.05L-7.2 -6.65L-7.8 -7.4L-9.4 -9.5L-9.3 -10.5L-8.4 -12.15L-7.45 -11.55L-8.2 -10.5L-8.8 -9.45Q-8.8 -9.05 -7.55 -7.65L-6.6 -6.65L-5.7 -5.55Q-4.3 -4.05 -3.45 -2.75L-3.4 -2.7L-3.05 -2.05Q-2.55 -0.95 -2.55 -0.05L-2.65 0.9Q-2.85 1.6 -3.35 2.1Q-4.05 2.9 -5.1 2.9Q-5.6 2.9 -6.2 2.1L-7.3 0.55M7.6,-19.8Q6.95 -19.5 6.95 -18.65L7.6 -16.8Q8.05 -15.8 8.6 -15.8Q9.45 -15.8 9.45 -17.15Q9.45 -19.95 8.15 -19.95L7.6 -19.8M1.65,2.9L1.7 2.95L1.8 3.3L2.05 3.95L1.9 3.7L1.8 3.3L1.65 2.9M-11.05,18.45L-15.65 19.5Q-15.95 18.3 -15.6 16.7Q-14.4 11.7 -14.65 10.5Q-14.85 9.6 -17.45 6.85L-13.7 2.95L-13.1 2.25Q-10.4 5.05 -9.65 8Q-8.95 11.15 -10.3 15.65Q-10.8 17.2 -10.65 18.35L-11.05 18.45M-83.95,18.25L-82.75 19.75Q-80.95 21.7 -80 23.4L-79.8 23.4Q-78.6 25.55 -78.6 26.95L-78.85 28.25Q-79.05 29.25 -79.7 29.9Q-80.6 31 -81.95 31Q-82.55 31 -83.45 29.9L-84.9 27.75L-86.85 24.4L-87.55 23.4L-87.8 23.1L-90.3 20.6L-92.2 18.95L-92.8 18.25Q-93.95 16.85 -93.95 14.4L-93.7 13.1Q-93 10.85 -90.3 7.85L-89.9 7.15Q-89.45 8.15 -88.35 9.15L-88.7 9.75Q-89.55 11.6 -89.8 13.1L-90.25 14.7Q-90.25 15.5 -88.1 18.25L-87.8 18.75L-87.75 18.95L-85.3 22L-85.15 22L-84.35 23.4L-81.2 29.05L-80.75 29.35Q-79.7 29.35 -79.45 28.45L-79.45 27.95Q-79.45 26.85 -81.25 23.4L-81.6 22.9Q-82.75 20.9 -84.7 18.25L-85.4 17.15L-87.55 14.4L-87.4 13.1Q-87.15 11.8 -86.2 10.85L-85 11.6L-86.1 13.1Q-86.7 13.9 -86.7 14.4Q-86.7 14.9 -85.15 16.85L-83.95 18.25M-73.35,31L-73.15 31L-73.15 31.5L-73.35 31M-65.6,0.55Q-66.35 0.95 -66.35 2.2L-65.6 4.6Q-65.05 6 -64.2 6Q-63.25 6 -63.25 4.1Q-63.25 0.45 -65 0.45L-65.6 0.55M-97.9,36.15L-97.1 35.35L-96.85 35.1Q-96.85 34.75 -96.25 34.45L-93.15 31L-92.3 30.1Q-90.9 31.6 -89.9 33.2L-88.9 34.95L-88 37.25L-87.9 37.75L-87.6 40.3L-87.6 41.25L-87.75 43.2Q-88 45.4 -88.7 47.85Q-89.45 50.2 -89.1 51.6L-89.7 51.8L-95.65 53.25Q-96 51.5 -95.6 49.4Q-94.65 45.45 -94.4 43.3L-94.3 41.35L-94.35 41.2L-94.5 40.8L-96.1 38.4L-97.05 37.2L-97.9 36.15" />
<path style="fill:#91857F;fill-opacity:1" d="M-63.1,-0.75L-63.25 -0.55L-64.2 -0.55Q-64.55 -0.55 -65.3 -1.55L-65.6 -1.85L-65.75 -2.05L-66.35 -2.45L-66.55 -2.8L-67 -2.05Q-68.35 -0.35 -71.35 -0.35L-72.15 -0.35L-74.35 -0.55Q-75.5 -1.05 -76.25 -1.65L-76.45 -2.05L-77.05 -2.8Q-77.55 -3.8 -77.65 -5.4Q-77.65 -8.05 -75.25 -9.35L-71.55 -10.35L-70.75 -10.35Q-68.15 -10.35 -67.2 -9.45Q-66.55 -9.15 -66.35 -8.35L-65.85 -8.65L-65.6 -9.15L-65.05 -9.85Q-64.55 -10.35 -63.45 -10.35Q-61.35 -10.35 -61.35 -5.4Q-61.35 -3.25 -61.9 -2.05Q-62.35 -1.15 -63.1 -0.75M7.05,-22.15L6.85 -22.3Q5.95 -20.6 3.2 -20.55L2.55 -20.55L0.85 -20.75Q0.05 -21.05 -0.6 -21.55L-1.2 -22.3L-1.8 -24.25L-1.8 -24.3Q-1.8 -26.2 0.2 -27.2L2.95 -28.05L3.6 -28.05Q5.65 -28.05 6.4 -27.35Q6.85 -27.05 6.95 -26.45L7.35 -26.75L7.6 -27.05L7.95 -27.7Q8.45 -28.05 9.2 -28.05Q10.9 -28.05 10.9 -24.3Q10.9 -21.55 9.55 -20.8L9.45 -20.75L8.6 -20.75Q8.45 -20.75 7.8 -21.4L7.6 -21.65L7.05 -22.15M5.1,-26.75Q4.1 -26.95 4.1 -25.45Q4.1 -23.9 5.1 -23.9Q5.55 -23.9 5.85 -24.3L6.1 -24.9Q6.1 -26.4 5.1 -26.75M10,-25.9Q10 -27.2 8.95 -27.2Q7.95 -27.2 7.95 -26.1Q7.95 -24.7 8.95 -24.7Q9.4 -24.7 9.7 -25.2L10 -25.9M-65.05,-7.85Q-65.05 -5.9 -63.85 -5.9Q-63.25 -5.9 -62.8 -6.5L-62.55 -7.55Q-62.55 -9.35 -63.85 -9.35Q-65.05 -9.35 -65.05 -7.85M-70.15,-7Q-70.15 -4.9 -68.75 -4.9Q-68.25 -4.9 -67.8 -5.4L-67.55 -6.2Q-67.55 -8.15 -68.75 -8.65Q-70.15 -8.95 -70.15 -7" />
<path style="fill:#B6B4B3;fill-opacity:1" d="M6.1,-24.9L5.85 -24.3Q5.55 -23.9 5.1 -23.9Q4.1 -23.9 4.1 -25.45Q4.1 -26.95 5.1 -26.75Q6.1 -26.4 6.1 -24.9M9.7,-25.2Q9.4 -24.7 8.95 -24.7Q7.95 -24.7 7.95 -26.1Q7.95 -27.2 8.95 -27.2Q10 -27.2 10 -25.9L9.7 -25.2M-63.85,-9.35Q-62.55 -9.35 -62.55 -7.55L-62.8 -6.5Q-63.25 -5.9 -63.85 -5.9Q-65.05 -5.9 -65.05 -7.85Q-65.05 -9.35 -63.85 -9.35M-68.75,-8.65Q-67.55 -8.15 -67.55 -6.2L-67.8 -5.4Q-68.25 -4.9 -68.75 -4.9Q-70.15 -4.9 -70.15 -7Q-70.15 -8.95 -68.75 -8.65" />
<path style="fill:#63CCEC;fill-opacity:1" d="M-8.2,-17.65L-8.2 -17.8Q-8.1 -19.3 -6.55 -18.9Q-4.85 -18.4 -4.85 -16.95L-5.05 -16.25L-5.2 -15.85L-5.9 -15L-6.2 -14.95Q-6.9 -14.95 -7.6 -16.25L-8.2 -17.65M-81.7,4.4L-81.95 5.4L-82.2 5.8Q-82.55 6.6 -83 7.05L-83.45 7.15Q-84.35 7.15 -85.3 5.4L-86.1 3.4L-86.1 3.3Q-85.75 1.15 -83.75 1.75Q-81.7 2.5 -81.7 4.4" />
<path style="fill:#4D9F38;fill-opacity:1" d="M1.7,2.9L1.65 2.9L-0.3 1.95Q-1.85 0.95 -2.65 0.9L-2.55 -0.05Q-2.55 -0.95 -3.05 -2.05L-3.4 -2.7L-3.45 -2.75Q-2.65 -3.05 -1.65 -4.2L-1.3 -4.25L-0.4 -2.25Q2.55 -4.15 6.3 -5.85L9.65 -7.3Q16.05 -9.8 22.5 -9.8Q31.4 -9.8 38.6 -4.9Q39.55 -4.25 41.4 -4L43.35 -3.6Q43.35 -2.9 42.55 -2.4Q42.05 -2.05 41.6 -2.05L41.25 -2.05L41 -2.1L37.15 -3.5L32.9 -4.9L28.15 -5.7L23 -5.5L17.9 -5.05L14.6 -4.2Q12.55 -3.2 10.75 -2.55L9.75 -2.05L9.65 -2L8.2 -1.2L6.8 -0.4L6.8 -0.25L2.4 2.4L1.7 2.9M-6.2,2.1L-6.55 2.1Q-7.6 2.1 -8.35 1.3Q-8.95 0.55 -8.95 -0.75L-8.85 -2L-7.3 0.55L-6.2 2.1M-66.6,26.45L-66.6 26.85L-72.3 30.4L-73.15 31L-73.35 31L-75.85 29.65Q-77.8 28.45 -78.85 28.25L-78.6 26.95Q-78.6 25.55 -79.8 23.4L-80 23.4Q-78.85 22.9 -77.55 21.5L-77.05 21.4L-76 24Q-72.15 21.5 -67.3 19.25L-63 17.35Q-54.7 13.9 -46.45 13.9Q-34.9 13.9 -25.5 20.6Q-24.5 21.35 -22.35 21.8L-21.95 21.9L-19.4 22.3L-19.4 22.45Q-19.45 23.25 -20.5 23.9Q-21.2 24.4 -21.7 24.4L-22.15 24.4L-22.5 24.2L-22.6 24.2L-27.5 22.4L-32.8 20.6Q-36.35 19.75 -38.95 19.45L-45.85 19.75L-52.3 20.35L-56.55 21.5L-61.6 23.7L-63 24.4Q-63.85 24.8 -64.8 25.55L-66.6 26.45M57.5,2.7Q57.5 6.2 53 7.6L52.9 7.6L51.4 8Q43.75 9.35 36.8 11.4L25.65 14.65L18.05 16.7L7.15 19.3L-4.65 22L-10.7 23.1L-13.45 23.7Q-15.05 22.6 -16.4 21.8L-14.6 21.3L-10.6 19.95L-10.15 19.8Q-2.55 17.15 1.7 16.85Q6.4 16.7 12.55 15L22.15 12.25L28.05 10.75L33.3 9.75Q35.1 9.5 37.5 8.7L41.4 7.35Q44.25 6.4 50 5.1Q53.5 3.95 57.35 2.05L57.5 2.7M-1.2,30.7Q-1.2 32.05 -1.65 33.15Q-2.85 35.9 -6.95 37.25L-7.15 37.25L-9.1 37.75Q-18.95 39.6 -27.9 42.3L-42.3 46.55Q-47.5 48.3 -52.15 49.4Q-56.7 50.3 -66.2 52.95L-81.45 56.45L-89.3 57.9L-95.85 59.5L-97.55 60Q-100.15 60.8 -101.25 60.8Q-104.9 60.8 -104.9 58.2L-104.7 57.25L-103.95 57.35Q-100.3 57.35 -94.35 55.45Q-91.85 54.85 -89.1 53.75L-88.5 53.65Q-78.6 50 -73.15 49.7Q-67.2 49.4 -59.2 47.05L-46.85 43.5L-39.3 41.5L-32.5 40.2L-27.05 38.75L-21.95 36.95Q-18.55 35.75 -12 34.1L-10.85 33.8Q-6.25 32.5 -1.35 29.9Q-1.2 30.2 -1.2 30.7M-86.85,24.4L-84.9 27.75L-83.45 29.9L-83.75 29.9Q-85.3 29.9 -86.2 28.85Q-87.05 27.75 -87.05 26.05L-86.85 24.4" />
<path style="fill:#73C95E;fill-opacity:1" d="M43.35,-3.7L43.35 -3.6L41.4 -4Q39.55 -4.25 38.6 -4.9Q31.4 -9.8 22.5 -9.8Q16.05 -9.8 9.65 -7.3L6.3 -5.85Q2.55 -4.15 -0.4 -2.25L-1.3 -4.25L-0.9 -4.65Q1.95 -7 4.9 -8.35L4.95 -8.35L7.15 -9.45L8.45 -9.85L9.65 -10.15Q14.25 -11.35 21.5 -11.35L24.15 -11L26.15 -10.7L26.35 -10.55Q30.3 -10.2 35.9 -8.55Q40.4 -7.15 42.25 -5.7L42.25 -5.55Q43.35 -4.65 43.35 -3.7M-76.6,20.9Q-72.9 17.75 -69.1 15.8L-66.2 14.4L-64.55 13.9L-63 13.6Q-57.15 11.8 -47.65 11.8L-44.2 12.3L-41.7 12.8L-41.35 12.9Q-36.35 13.4 -29.05 15.7Q-23.15 17.45 -20.95 19.45L-20.95 19.75L-20.3 20.3Q-19.4 21.2 -19.4 22.1L-19.4 22.3L-21.95 21.9L-22.35 21.8Q-24.5 21.35 -25.5 20.6Q-34.9 13.9 -46.45 13.9Q-54.7 13.9 -63 17.35L-67.3 19.25Q-72.15 21.5 -76 24L-77.05 21.4L-76.6 20.9" />
<path style="fill:#F5F055;fill-opacity:1" d="M52.65,1.05Q50.65 2.4 47.8 3.6L45.5 4.55L35.65 7.35L24.1 10.2L12.1 13.05L3.8 15L-0.45 16.05L2.55 6.75L2.55 6.7L2.6 6.55L3.45 4.95L4.45 2.7L6.95 -0.05L7.05 -0.05L8.2 -1.2L9.65 -2L9.75 -2.05L10.75 -2.55Q12.55 -3.2 14.6 -4.2L17.9 -5.05L23 -5.5L28.15 -5.7L32.9 -4.9L37.15 -3.5L41 -2.1L41.25 -2.05L41.6 -2.05Q42.05 -2.05 42.55 -2.4Q43.35 -2.9 43.35 -3.6L43.35 -3.7Q43.35 -4.65 42.25 -5.55Q44.65 -4.85 48 -2.55L48.75 -2.05L48.8 -2Q49.5 -1.4 50.05 -1.05L50.5 -0.85L52.35 0.45L52.65 1.05M21.4,-2.4L16.1 -2.05Q9.15 -1 9.15 3.3Q8.95 3.95 9.15 4.55Q9.45 5.6 11.15 5.6Q14.15 5.6 26.55 1.95L33.25 1.95L34 1.3L34.25 0.6Q34.25 -0.55 32.8 -1.1L29.1 -2.05L21.4 -2.4M-13.45,23.7L-12.4 24.4L-10.85 25.65L-10.25 26.05L-8.65 27.05L-7.75 27.65L-7.3 28.45L-8.7 29.4Q-10.9 30.8 -13.7 32L-16.6 33L-17.55 33.35Q-20.85 34.45 -29.3 36.95L-44.3 40.7L-59.7 44.55L-70.5 47.05Q-73.35 47.75 -76 48.6L-73.5 40.5L-72.15 36.15L-72.15 36.1L-72.15 35.85L-70.95 33.7L-70.9 33.6L-70.25 32L-69.55 30.7L-66.35 26.95Q-65.6 26.35 -64.8 25.55Q-63.85 24.8 -63 24.4L-61.6 23.7L-56.55 21.5L-52.3 20.35L-45.85 19.75L-38.95 19.45Q-36.35 19.75 -32.8 20.6L-27.5 22.4L-22.6 24.2L-22.5 24.2L-22.15 24.4L-21.7 24.4Q-21.2 24.4 -20.5 23.9Q-19.45 23.25 -19.4 22.45L-19.4 22.3L-19.4 22.1Q-19.4 21.2 -20.3 20.3L-20.95 19.75L-19.8 20.15Q-18.25 20.75 -16.4 21.8Q-15.05 22.6 -13.45 23.7M-33,25.55L-37.75 24.4L-47.8 23.9Q-63.6 23.9 -63.6 31.5L-63.6 31.55Q-63.85 32.5 -63.6 33L-63.55 33.1Q-63.2 34.55 -60.95 34.55Q-57.15 34.55 -41.1 29.65L-32.5 29.65Q-31.95 29.55 -31.6 28.85L-31.2 27.95Q-31.2 26.35 -33 25.55" />
<path style="fill:#FAF7AC;fill-opacity:1" d="M29.1,-2.05L32.8 -1.1Q34.25 -0.55 34.25 0.6L34 1.3L33.25 1.95L26.55 1.95Q14.15 5.6 11.15 5.6Q9.45 5.6 9.15 4.55Q8.95 3.95 9.15 3.3Q9.15 -1 16.1 -2.05L21.4 -2.4L29.1 -2.05M-31.2,27.95L-31.6 28.85Q-31.95 29.55 -32.5 29.65L-41.1 29.65Q-57.15 34.55 -60.95 34.55Q-63.2 34.55 -63.55 33.1L-63.6 33Q-63.85 32.5 -63.6 31.55L-63.6 31.5Q-63.6 23.9 -47.8 23.9L-37.75 24.4L-33 25.55Q-31.2 26.35 -31.2 27.95" />
<path style="fill:#FFFFFF;fill-opacity:1" d="M-164.25,96.05L163.75 96.05L163.75 -96.6L-164.25 -96.6L-164.25 96.05M-177.4,-110.3L177.35 -110.3L177.35 110.35L-177.4 110.35L-177.4 -110.3" />
<path style="fill:#BAE7BF;fill-opacity:1" d="M-106.7,64.05L-106.15 63.2L-102.2 62.85L-97.8 63.35L-96.95 64.15L-95.4 64.15L-94.8 65.25L-94.45 66.35L-30 66.35Q-29.8 66.05 -29.55 66.05L-28.85 65.55L-24.3 62.65L-18.95 62.55L-18.95 62.45L-7.9 62.45Q-6.6 62.45 -6.15 63.5L-10 67.4L-17.5 67.8Q-19.5 70.1 -26.5 70.2L-40.05 70.45L-55.7 70.45L-59.25 71.1L-83.5 72.6L-91.5 72.7L-92.9 72.95L-103.65 72.95Q-105.6 72.95 -105.6 70.55L-105.45 69.4L-113.35 69.4L-117.95 65L-106.7 64.05M-133.7,43.55L-134.75 41.5L-134.5 41.4L-96.1 38.4L-94.5 40.8L-106.7 41.7L-98.6 41.7L-97.65 41.4L-94.3 41.35L-94.4 43.3L-97.95 43.3L-98.9 43.55L-133.7 43.55M-135.6,39.75L-136.5 37.85L-128.05 36.8L-111.5 35.45L-111.5 35.35L-101.25 35.35L-100.05 37.2L-112.45 37.25L-135.6 39.75M-89.9,33.2L-82.15 32.55L-70.25 32L-70.9 33.6L-78.75 34.05L-88.9 34.95L-89.9 33.2M-87.6,41.25L-87.2 41.25L-76.4 39.3L-87.6 40.3L-87.9 37.75L-88 37.25L-77.8 36.15L-77.8 36.1L-72.15 36.1L-72.15 36.15L-73.5 40.5L-74.5 40.7L-87.55 43.2L-87.75 43.2L-87.6 41.25M-1.65,33.15Q-1.2 32.05 -1.2 30.7Q-1.2 30.2 -1.35 29.9L-1.75 29.4L25.7 29.4L26.6 31.45L25.9 31.45Q21.1 32.8 3.5 33.05L-1.65 33.15M-97.05,37.2L-99.05 37.2L-97.9 36.15L-97.05 37.2M78.5,34.4L79.5 34.55L80.85 34.65L101.65 33.85L106.05 33.25Q106.05 33.5 106.9 33.5L106.9 32.95L114.3 32.6L119.1 32.95L122.9 33.25L124.3 33.15Q123.75 31.45 122.9 30.15L134.7 30.15Q137.05 30.65 137.9 31.55Q138.55 32.15 138.55 33.25Q138.55 35.8 134.3 36.15Q125 36.25 114.85 36.7L102.75 36.8L68.9 40.35Q68.45 40.5 67.8 41.5Q67.4 42.05 64.95 42.05L62.15 41.75L39 41.7L32 40.35L23.9 40.25L18.2 39.65L9.1 39.55Q7.1 39.55 7.1 37.25Q7.1 35.45 9.85 34.85L25.75 34.05L28.1 34.1L30.8 38.05L34.75 37.5Q36 37.6 36.15 38.1Q39.4 39.2 44.4 39.65Q48.35 39.9 49.95 39L62.95 36.6L66.2 36.45L66.85 35.95L70.3 35.35L75.6 34.65L79.3 34.75L78.5 34.4M37,28.3L41.1 25.45Q47.9 25.25 47.9 27.75Q47.9 29.35 46.05 29.95Q42.85 31.1 42.45 31.35L40.55 31.35L37 28.3" />
<path style="fill:#A4A4E2;fill-opacity:1" d="M62.95,36.6L49.95 39Q48.35 39.9 44.4 39.65Q39.4 39.2 36.15 38.1Q36 37.6 34.75 37.5L33.95 36.95L33.15 36.35Q33.15 35.5 33.3 34.85Q33.55 33.45 34.5 32.95Q34.9 32.7 35.45 32.6L39.7 33.05L40.4 33.15L42.3 33.25L42.45 33.25L42.85 33.25L43.4 33.35L43.25 33.25L47.1 33.5L47.9 33.75L54.55 33.15L59.7 32L61.6 31.55L65.3 30.2Q67.3 29.4 68.6 28.45Q70.7 25.5 76.15 24.25L79.05 24Q78.4 24.8 81.9 25.25L89.6 24.95L97.4 24.25L99.2 24.25L106.15 24.7L104.15 22.5Q105.25 23.55 106.9 24.1L106.9 24.25L112.05 24.6Q115.2 24.95 117.6 25.85Q120.95 27 122.9 30.15Q123.75 31.45 124.3 33.15L122.9 33.25L119.1 32.95L114.3 32.6L106.9 32.95L106.9 33.5Q106.05 33.5 106.05 33.25L101.65 33.85L80.85 34.65L79.5 34.55L78.5 34.4L79.3 34.75L75.6 34.65L70.3 35.35L66.85 35.95L62.95 36.6M87.15,26.15L84.5 26.4Q84 26.5 83.75 26.95L80.25 26.55L78.1 26.15L77.5 25.7L77.1 25.7Q75.65 25.7 74 26.95Q72.7 28 72.7 28.35Q72.7 28.95 73.4 29.25L76.3 29.75L88.65 29.75L89.6 29.6L90.55 29.7L109.1 29.15L115.25 29.6Q117.85 29.6 117.85 28.7L117.85 28.45Q118.55 28.35 118.55 27.8Q118.55 27.2 118 27.2Q117.6 27.2 117.45 27.35Q117 26.85 116.35 26.65L111.4 25.95L108.7 25.95Q108.5 26.3 106.85 26.3L106.6 26.2L94.95 26.2L94.7 26.15L87.15 26.15M73.95,28.25L74.25 28.1L74.35 28.35L73.95 28.25" />
<path style="fill:#ABE2F5;fill-opacity:1" d="M95.25,19.1L91.5 14.55L88.1 12L87.15 11.2Q90.15 8 92.45 9Q95.05 10.15 101.5 18.75L102.65 20.45L104.15 22.5L106.15 24.7L99.2 24.25L95.25 19.1M64.95,29.7L65.3 30.2L61.6 31.55L59.6 28.55L57.8 25.5L58.5 25.05Q59.85 25.05 62.15 27L64.95 29.7M40.55,31.35L42.85 32.95L42.45 33.25L42.3 33.25L40.4 33.15L39.7 33.05L35.45 32.6Q34.9 32.7 34.5 32.95L33.65 31.4L32.55 29.4L30.25 25.4L26.4 20.9L25.7 20.15L26.45 19.65Q29.8 20.95 34.65 26.05L37 28.3L40.55 31.35" />
<path style="fill:#84CCE5;fill-opacity:1" d="M26.6,31.45L25.7 29.4Q24.95 27.5 24.6 25.7Q23.5 19.9 25.15 19.45L26.45 19.65L25.7 20.15L26.4 20.9L30.25 25.4L32.55 29.4L33.65 31.4L34.5 32.95Q33.55 33.45 33.3 34.85Q33.15 35.5 33.15 36.35L33.95 36.95L34.75 37.5L30.8 38.05L28.1 34.1L26.6 31.45M87.15,11.2L88.1 12L91.5 14.55L95.25 19.1L99.2 24.25L97.4 24.25L89.6 24.95L81.9 25.25Q78.4 24.8 79.05 24L79.15 23.55Q79.35 23.2 79.75 23.1Q83.85 14.65 87.15 11.2M54.4,32.55L55.9 28.35Q56.8 26.15 57.7 25.4Q58.05 25.05 58.5 25.05L57.8 25.5L59.6 28.55L61.6 31.55L59.7 32L54.55 33.15L54.4 32.55M42.85,32.95L43.25 33.25L42.85 33.25L42.45 33.25L42.85 32.95" />
<path style="fill:#CECEE9;fill-opacity:1" d="M94.7,26.15L94.95 26.2L106.6 26.2L106.85 26.3Q108.5 26.3 108.7 25.95L111.4 25.95L116.35 26.65Q117 26.85 117.45 27.35Q117.6 27.2 118 27.2Q118.55 27.2 118.55 27.8Q118.55 28.35 117.85 28.45L117.85 28.7Q117.85 29.6 115.25 29.6L109.1 29.15L90.55 29.7L89.6 29.6L88.65 29.75L76.3 29.75L73.4 29.25Q72.7 28.95 72.7 28.35Q72.7 28 74 26.95Q75.65 25.7 77.1 25.7L77.5 25.7L78.1 26.15L80.25 26.55L83.75 26.95Q84 26.5 84.5 26.4L87.15 26.15L94.7 26.15M74.35,28.35L74.25 28.1L73.95 28.25L74.35 28.35" />
<path style="fill:#81D26C;fill-opacity:1" d="M-15.65,19.5L-11.05 18.45L-10.65 18.35L-6.3 17.5Q-4.6 17.35 -1.9 16.5L-0.65 16.15L-0.45 16.05L3.8 15L12.1 13.05L24.1 10.2L35.65 7.35L45.5 4.55L47.8 3.6Q50.65 2.4 52.65 1.05L52.9 0.8L52.35 0.45L55.55 0.8Q56.85 1.3 57.35 2.05Q53.5 3.95 50 5.1Q44.25 6.4 41.4 7.35L37.5 8.7Q35.1 9.5 33.3 9.75L28.05 10.75L22.15 12.25L12.55 15Q6.4 16.7 1.7 16.85Q-2.55 17.15 -10.15 19.8L-10.6 19.95L-14.6 21.3L-16.4 21.8Q-18.25 20.75 -19.8 20.15L-18.65 19.95L-15.9 19.5L-15.65 19.5M-100.9,54.05L-99.55 53.75L-95.9 53.25L-95.65 53.25L-89.7 51.8L-89.1 51.6L-83.6 50.5Q-81.25 50.3 -77.8 49.2L-76.25 48.7L-76 48.6Q-73.35 47.75 -70.5 47.05L-59.7 44.55L-44.3 40.7L-29.3 36.95Q-20.85 34.45 -17.55 33.35L-16.6 33L-13.7 32Q-10.9 30.8 -8.7 29.4L-7.3 28.45L-7.15 28.05L-7.75 27.65Q-6.2 27.25 -3.6 28.05Q-2.45 28.65 -1.75 29.4L-1.35 29.9Q-6.25 32.5 -10.85 33.8L-12 34.1Q-18.55 35.75 -21.95 36.95L-27.05 38.75L-32.5 40.2L-39.3 41.5L-46.85 43.5L-59.2 47.05Q-67.2 49.4 -73.15 49.7Q-78.6 50 -88.5 53.65L-89.1 53.75Q-91.85 54.85 -94.35 55.45Q-100.3 57.35 -103.95 57.35L-104.7 57.25Q-104.1 54.95 -100.9 54.05" />
<path style="fill:#A8A778;fill-opacity:1" d="M50.5,13L43.6 13Q36.3 17.5 31.8 17.95Q24.85 18.45 22.05 19.3L18.75 21.35Q16.6 22.75 14.05 22.5Q9.4 22.15 2.3 24.5Q-4.55 26.8 -5.2 26.6L-8.65 27.05L-10.25 26.05L-10.85 25.65L-12.4 24.4L-13.45 23.7L-10.7 23.1L-4.65 22L7.15 19.3L18.05 16.7L25.65 14.65L36.8 11.4Q43.75 9.35 51.4 8L52.9 7.6L52.05 10.15L50.5 13M-97.55,60L-95.85 59.5L-89.3 57.9L-81.45 56.45L-66.2 52.95Q-56.7 50.3 -52.15 49.4Q-47.5 48.3 -42.3 46.55L-27.9 42.3Q-18.95 39.6 -9.1 37.75L-7.15 37.25L-8.15 40.7L-10.25 44.55L-19.05 44.55Q-28.5 50.5 -34.4 51.1Q-43.45 51.8 -46.95 52.95L-51.2 55.65Q-54.05 57.35 -57.3 57.25Q-63.25 56.75 -72.5 59.8Q-81.25 62.95 -82.2 62.65L-86 63.15L-87.05 63.45L-92.65 64.95L-94.8 65.25L-95.4 64.15L-96.2 62.65L-97.55 60" />
<path style="fill:#E7E5A5;fill-opacity:1" d="M-1.75,29.4Q-2.45 28.65 -3.6 28.05Q-6.2 27.25 -7.75 27.65L-7.15 28.05L-7.3 28.45L-7.75 27.65L-8.65 27.05L-5.2 26.6Q-4.55 26.8 2.3 24.5Q9.4 22.15 14.05 22.5Q16.6 22.75 18.75 21.35L22.05 19.3Q24.85 18.45 31.8 17.95Q36.3 17.5 43.6 13L50.5 13L49.35 14.85L47.8 17.35L43.25 23.35L41.1 25.45L37 28.3L34.65 26.05Q29.8 20.95 26.45 19.65L25.15 19.45Q23.5 19.9 24.6 25.7Q24.95 27.5 25.7 29.4L-1.75 29.4M-11.7,46.95L-13.7 50.3L-19.55 58.4Q-21.15 60.4 -24.3 62.65L-28.85 65.55L-29.55 66.05Q-29.8 66.05 -30 66.35L-94.45 66.35L-94.8 65.25L-92.65 64.95L-87.05 63.45L-86 63.15L-82.2 62.65Q-81.25 62.95 -72.5 59.8Q-63.25 56.75 -57.3 57.25Q-54.05 57.35 -51.2 55.65L-46.95 52.95Q-43.45 51.8 -34.4 51.1Q-28.5 50.5 -19.05 44.55L-10.25 44.55L-11.7 46.95" />
<path style="fill:none;stroke-width:1;stroke-linecap:butt;stroke-linejoin:miter;stroke-miterlimit:3;stroke:#333333;stroke-opacity:1" d="M-101.25,35.35L-103.75 31Q-106.7 25.35 -106 23.9L-105.5 21.9L-105.3 21.5L-105 19.85Q-104.3 17.45 -103.5 16.15L-102.75 14.9Q-102.5 13.9 -102.15 13.9L-101.35 13.3L-101.1 13.3Q-99.8 10.85 -97.4 7.85Q-96.2 6 -94.45 4.1L-93.95 3.6L-88.75 -2.05L-87.4 -3.3L-87.3 -3.5L-85.6 -4.8Q-84.65 -5.4 -83.75 -5.4L-80.75 -5.9L-79.45 -6.1L-78.6 -5.9L-78.6 -7.25L-78.6 -7.45L-78.6 -8.05Q-79.05 -8.65 -79.05 -9.45Q-79.05 -12.7 -78.25 -14.7Q-76.6 -18.85 -72.15 -18.85Q-68.7 -18.85 -67.2 -17.65Q-66.8 -17.25 -66.35 -16.2Q-65.85 -15.9 -65.75 -15.1L-65.4 -14.9L-63.6 -11.45M-65.85,-8.65L-65.6 -9.15L-65.05 -9.85Q-64.55 -10.35 -63.45 -10.35Q-61.35 -10.35 -61.35 -5.4Q-61.35 -3.25 -61.9 -2.05M-19.8,20.15L-18.65 19.95L-15.9 19.5L-15.65 19.5Q-15.95 18.3 -15.6 16.7Q-14.4 11.7 -14.65 10.5Q-14.85 9.6 -17.45 6.85L-18.8 8.05L-21.9 2.9Q-23.9 -0.75 -23.75 -2.05L-23.7 -2.4L-23.3 -4L-23.2 -4.2L-22.9 -5.4L-21.7 -8.2L-21.15 -9.05L-21.15 -9.15L-20.7 -9.8L-20.1 -10.35L-19.9 -10.35L-17.05 -14.45L-14.8 -17.15L-14.35 -17.6L-9.3 -22.75L-9.15 -22.9L-7.85 -23.8Q-7.1 -24.25 -6.55 -24.3L-4.15 -24.7L-3.15 -24.8L-2.55 -24.6M-2.55,-26.2L-2.2 -24.55L-2.3 -24.55L-2.4 -24.55L-2.45 -24.7L-2.55 -25.6L-2.55 -26.2L-2.8 -27.35Q-2.8 -29.7 -2.15 -31.25Q-0.95 -34.35 2.55 -34.35Q5.2 -34.35 6.4 -33.4L7.05 -32.4L7.45 -31.55L7.65 -31.4L9.1 -28.9M7.35,-26.75L7.6 -27.05L7.95 -27.7Q8.45 -28.05 9.2 -28.05Q10.9 -28.05 10.9 -24.3Q10.9 -21.55 9.55 -20.8L9.45 -20.75L10.1 -19.25L10.1 -19.15L10.15 -18.65L10.3 -18.4Q11 -16.95 11 -16.15Q11 -15.25 7.6 -13.95L7.4 -13.95L6.95 -13.85L5.65 -13.3L5.2 -13.2L3.8 -12.85L3.6 -12.85L3.2 -12.85L2.05 -13.2Q1.2 -13.85 0.45 -15.25L0.15 -16.15L-0.8 -15.75L-1.3 -15.75L-1.7 -15.75L-5.05 -10.85Q-6.2 -9 -7.55 -7.65L-6.6 -6.65L-5.7 -5.55Q-4.3 -4.05 -3.45 -2.75Q-2.65 -3.05 -1.65 -4.2M-1.3,-4.25L-0.9 -4.65Q1.95 -7 4.9 -8.35L4.95 -8.35L7.15 -9.45L8.45 -9.85L9.65 -10.15Q14.25 -11.35 21.5 -11.35L24.15 -11L26.15 -10.7L26.35 -10.55Q30.3 -10.2 35.9 -8.55Q40.4 -7.15 42.25 -5.7L42.25 -5.55Q44.65 -4.85 48 -2.55L48.75 -2.05M6.95,-26.45Q6.85 -27.05 6.4 -27.35Q5.65 -28.05 3.6 -28.05L2.95 -28.05Q2.35 -27.35 2.2 -26.4Q2.05 -26.2 2.05 -25.4L2.05 -24.55Q2.05 -23.55 2.35 -22.3Q2.6 -21.05 3.2 -20.55Q5.95 -20.6 6.85 -22.3Q7.35 -23.05 7.35 -24.3Q7.35 -25.6 6.95 -26.45M2.95,-28.05L0.2 -27.2Q-1.8 -26.2 -1.8 -24.3L-1.8 -24.25L-1.2 -22.3L-0.6 -21.55Q0.05 -21.05 0.85 -20.75L2.55 -20.55L3.2 -20.55M9.45,-20.75L8.6 -20.75Q8.45 -20.75 7.8 -21.4L7.6 -21.65L7.05 -22.15M-12.9,-4.5L-13.1 -2.1L-13.05 -2.05L-12.55 -0.7Q-11.9 0.25 -11.9 0.55L-13.1 2.25Q-10.4 5.05 -9.65 8Q-8.95 11.15 -10.3 15.65Q-10.8 17.2 -10.65 18.35L-6.3 17.5Q-4.6 17.35 -1.9 16.5L-0.65 16.15L-0.45 16.05L2.55 6.75L2.55 6.7L2.6 6.55L3.45 4.95L4.45 2.7L6.95 -0.05L7.05 -0.05L8.2 -1.2L9.65 -2L9.75 -2.05L10.75 -2.55Q12.55 -3.2 14.6 -4.2L17.9 -5.05L23 -5.5L28.15 -5.7L32.9 -4.9L37.15 -3.5L41 -2.1L41.25 -2.05L41.6 -2.05Q42.05 -2.05 42.55 -2.4Q43.35 -2.9 43.35 -3.6L43.35 -3.7Q43.35 -4.65 42.25 -5.55M8.2,-1.2L6.8 -0.4L6.8 -0.25L2.4 2.4L1.9 2.9L1.7 2.9L1.65 2.9L-0.3 1.95Q-1.85 0.95 -2.65 0.9Q-2.85 1.6 -3.35 2.1Q-4.05 2.9 -5.1 2.9Q-5.6 2.9 -6.2 2.1L-6.55 2.1Q-7.6 2.1 -8.35 1.3Q-8.95 0.55 -8.95 -0.75L-8.85 -2L-8.85 -2.05M-13.45,23.7L-10.7 23.1L-4.65 22L7.15 19.3L18.05 16.7L25.65 14.65L36.8 11.4Q43.75 9.35 51.4 8L52.9 7.6L53 7.6Q57.5 6.2 57.5 2.7L57.35 2.05Q56.85 1.3 55.55 0.8L52.35 0.45L50.5 -0.85L50.05 -1.05Q49.5 -1.4 48.8 -2L48.75 -2.05M-71.55,-10.35L-75.25 -9.35Q-77.65 -8.05 -77.65 -5.4Q-77.55 -3.8 -77.05 -2.8L-76.45 -2.05L-76.25 -1.65Q-75.5 -1.05 -74.35 -0.55L-72.15 -0.35L-71.35 -0.35Q-71.95 -0.9 -72.25 -2.05L-72.4 -2.8L-72.75 -5.7L-72.75 -6.9L-72.5 -8.15Q-72.4 -9.45 -71.55 -10.35L-70.75 -10.35Q-68.15 -10.35 -67.2 -9.45Q-66.55 -9.15 -66.35 -8.35M-79.05,-5.4Q-80.4 -4.4 -80.75 -3L-80.9 -2.05L-80.95 -1.65L-80.95 -0.35Q-80.95 2.5 -79.8 4.4Q-78.85 5.7 -77.65 6L-77.05 6L-76.45 6L-75.25 5.5L-76 4.1L-76.45 2.2Q-76.6 1.45 -77.3 -0.35L-77.9 -2.05L-78 -2.8L-78.25 -5.6L-78.25 -5.7L-78.5 -5.7L-78.6 -5.9M-75.25,5.5L-74.8 6.6Q-73.85 8.65 -72.75 9.45L-71.35 9.95L-70.75 9.95L-70.5 9.95L-68.7 9.45L-68.15 9.25L-66.35 8.65L-65.85 8.45L-65.6 8.45Q-61.2 6.6 -61.2 5.5Q-61.2 4.4 -62.15 2.5L-62.2 2.2L-62.4 1.45L-62.4 1.35L-63.25 -0.55L-64.2 -0.55Q-64.55 -0.55 -65.3 -1.55L-65.6 -1.85L-65.75 -2.05L-66.35 -2.45M-66.55,-2.8L-67 -2.05Q-68.35 -0.35 -71.35 -0.35M-77.65,-5.4L-78.25 -5.6M-78.25,-5.7L-78.6 -7.45M-66.55,-2.8Q-65.85 -3.6 -65.85 -5.4Q-65.85 -7.25 -66.35 -8.35M-63.25,-0.55L-63.1 -0.75Q-62.35 -1.15 -61.9 -2.05M-2.2,-24.55L-2.15 -24.45L-1.8 -24.25M-2.2,-24.55L-2.2 -24.45L-1.95 -22.4L-1.45 -20.55L-0.8 -18.6L-0.45 -17.25L0.15 -16.15M-1.7,-15.75Q-2.7 -15.95 -3.4 -16.95Q-4.2 -18.4 -4.2 -20.55L-4.2 -21.55L-4.15 -22.45Q-3.85 -23.6 -2.85 -24.3M-8.4,-12.15L-9.85 -13.35L-10.05 -13.5L-11.2 -14.85Q-12.05 -15.95 -12.05 -16.75L-11.45 -17.6L-10.45 -18.4L-9.4 -19.25Q-8.2 -20.1 -7.2 -20.1Q-4.35 -20.1 -4.15 -16L-4.15 -15.35Q-4.15 -14.2 -4.9 -12.85Q-5.7 -11.35 -6.6 -11.35L-7.45 -11.55L-8.2 -10.5L-8.8 -9.45Q-8.8 -9.05 -7.55 -7.65M-8.4,-12.15L-7.45 -11.55M-11.2,-14.85L-11.6 -14.45Q-13.6 -12.1 -14.15 -10.5L-14.35 -9.5Q-14.35 -7.7 -13.55 -6.65L-12.95 -6.05L-11.6 -4.9L-9.6 -3L-9.35 -2.7L-8.85 -2.05M-11.6,-4.9L-12.9 -4.5L-12.85 -5.2Q-12.85 -6 -16.15 -8.3L-19.9 -10.35M-2.65,0.9L-2.55 -0.05Q-2.55 -0.95 -3.05 -2.05L-3.4 -2.7L-3.45 -2.75M-8.85,-2L-7.3 0.55L-6.2 2.1M-17.45,6.85L-13.7 2.95L-13.1 2.25M-15.65,19.5L-11.05 18.45L-10.65 18.35M-95.65,53.25L-95.9 53.25L-99.55 53.75L-100.9 54.05Q-104.1 54.95 -104.7 57.25L-104.9 58.2Q-104.9 60.8 -101.25 60.8Q-100.15 60.8 -97.55 60L-95.85 59.5L-89.3 57.9L-81.45 56.45L-66.2 52.95Q-56.7 50.3 -52.15 49.4Q-47.5 48.3 -42.3 46.55L-27.9 42.3Q-18.95 39.6 -9.1 37.75L-7.15 37.25L-6.95 37.25Q-2.85 35.9 -1.65 33.15Q-1.2 32.05 -1.2 30.7Q-1.2 30.2 -1.35 29.9L-1.75 29.4Q-2.45 28.65 -3.6 28.05Q-6.2 27.25 -7.75 27.65L-8.65 27.05L-10.25 26.05L-10.85 25.65L-12.4 24.4L-13.45 23.7Q-15.05 22.6 -16.4 21.8Q-18.25 20.75 -19.8 20.15L-20.95 19.75L-20.3 20.3Q-19.4 21.2 -19.4 22.1L-19.4 22.3L-19.4 22.45Q-19.45 23.25 -20.5 23.9Q-21.2 24.4 -21.7 24.4L-22.15 24.4L-22.5 24.2L-22.6 24.2L-27.5 22.4L-32.8 20.6Q-36.35 19.75 -38.95 19.45L-45.85 19.75L-52.3 20.35L-56.55 21.5L-61.6 23.7L-63 24.4Q-63.85 24.8 -64.8 25.55Q-65.6 26.35 -66.35 26.95L-69.55 30.7L-70.25 32L-70.9 33.6L-70.95 33.7L-72.15 35.85L-72.15 36.1L-72.15 36.15L-73.5 40.5L-76 48.6Q-73.35 47.75 -70.5 47.05L-59.7 44.55L-44.3 40.7L-29.3 36.95Q-20.85 34.45 -17.55 33.35L-16.6 33L-13.7 32Q-10.9 30.8 -8.7 29.4L-7.3 28.45M52.35,0.45L52.9 0.8L52.65 1.05Q50.65 2.4 47.8 3.6L45.5 4.55L35.65 7.35L24.1 10.2L12.1 13.05L3.8 15L-0.45 16.05M-20.95,19.75L-20.95 19.45Q-23.15 17.45 -29.05 15.7Q-36.35 13.4 -41.35 12.9L-41.7 12.8L-44.2 12.3L-47.65 11.8Q-57.15 11.8 -63 13.6L-64.55 13.9L-66.2 14.4L-69.1 15.8Q-72.9 17.75 -76.6 20.9L-77.05 21.4M-77.55,21.5Q-78.85 22.9 -80 23.4L-79.8 23.4Q-78.6 25.55 -78.6 26.95L-78.85 28.25Q-77.8 28.45 -75.85 29.65L-73.35 31L-73.15 31L-72.3 30.4L-66.6 26.85L-66.6 26.45L-64.8 25.55M-7.75,27.65L-7.15 28.05L-7.3 28.45M-94.8,65.25L-94.45 66.35L-30 66.35Q-29.8 66.05 -29.55 66.05L-28.85 65.55L-24.3 62.65Q-21.15 60.4 -19.55 58.4L-13.7 50.3L-11.7 46.95L-10.25 44.55L-8.15 40.7L-7.15 37.25M-85,11.6L-83.95 11.8Q-82.75 11.8 -81.7 9.95Q-80.75 8.15 -80.75 6.5L-80.75 5.7Q-81 0.25 -84.7 0.25Q-86.1 0.25 -87.55 1.35L-88.85 2.5L-90.25 3.6Q-91 4.2 -91 4.7Q-91 5.7 -89.9 7.15Q-89.45 8.15 -88.35 9.15L-88.1 9.25L-86.2 10.85L-85 11.6L-86.1 13.1Q-86.7 13.9 -86.7 14.4Q-86.7 14.9 -85.15 16.85Q-83.45 15 -81.95 12.6Q-79.45 8.35 -77.65 6M-89.9,7.15L-90.3 7.85Q-93 10.85 -93.7 13.1L-93.95 14.4Q-93.95 16.85 -92.8 18.25L-92.2 18.95L-90.3 20.6L-87.8 23.1L-87.55 23.4L-86.85 24.4L-84.9 27.75L-83.45 29.9Q-82.55 31 -81.95 31Q-80.6 31 -79.7 29.9Q-79.05 29.25 -78.85 28.25M-72.3,30.4L-72.9 31L-73.15 31M-90.3,20.6L-92.05 21.1L-92.3 24.2L-91.7 26.15Q-90.75 27.45 -90.75 27.75L-92.3 30.1Q-90.9 31.6 -89.9 33.2L-88.9 34.95L-88 37.25L-87.9 37.75L-87.6 40.3L-87.6 41.25L-87.75 43.2Q-88 45.4 -88.7 47.85Q-89.45 50.2 -89.1 51.6L-83.6 50.5Q-81.25 50.3 -77.8 49.2L-76.25 48.7L-76 48.6M-83.45,29.9L-83.75 29.9Q-85.3 29.9 -86.2 28.85Q-87.05 27.75 -87.05 26.05L-86.85 24.4M-101.1,13.3Q-100.05 13.4 -96.35 16.05Q-92.05 19.05 -92.05 20.25L-92.05 21.1M-80,23.4Q-80.95 21.7 -82.75 19.75L-83.95 18.25L-85.15 16.85M-101.25,35.35L-100.05 37.2L-99.65 37.75L-99.05 37.2L-97.9 36.15L-97.1 35.35L-96.85 35.1Q-96.85 34.75 -96.25 34.45L-93.15 31L-92.3 30.1M-97.9,36.15L-97.05 37.2L-96.1 38.4L-94.5 40.8L-94.35 41.2L-94.3 41.35L-94.4 43.3Q-94.65 45.45 -95.6 49.4Q-96 51.5 -95.65 53.25L-89.7 51.8L-89.1 51.6M-94.8,65.25L-95.4 64.15L-96.2 62.65L-97.55 60M122.9,30.15Q123.75 31.45 124.3 33.15L122.9 33.25L119.1 32.95L114.3 32.6L106.9 32.95Q105.65 33.25 106.05 33.25L101.65 33.85L80.85 34.65L79.5 34.55L79.3 34.75L75.6 34.65L70.3 35.35L66.85 35.95L62.95 36.6L49.95 39Q48.35 39.9 44.4 39.65Q39.4 39.2 36.15 38.1L35.3 37.75L34.75 37.5L30.8 38.05L28.1 34.1L26.6 31.45L25.7 29.4Q24.95 27.5 24.6 25.7Q23.5 19.9 25.15 19.45L26.45 19.65Q29.8 20.95 34.65 26.05L37 28.3L41.1 25.45M122.9,30.15Q120.95 27 117.6 25.85Q115.2 24.95 112.05 24.6L106.9 24.25M106.9,24.1Q105.25 23.55 104.15 22.5L106.15 24.7L99.2 24.25L97.4 24.25L89.6 24.95L81.9 25.25Q78.4 24.8 79.05 24L76.15 24.25Q70.7 25.5 68.6 28.45Q67.3 29.4 65.3 30.2L61.6 31.55L59.7 32L54.55 33.15L47.9 33.75L47.1 33.5L43.25 33.25L43.4 33.35L42.85 33.25L42.45 33.25L42.3 33.25L40.4 33.15L39.7 33.05L35.45 32.6Q34.9 32.7 34.5 32.95Q33.55 33.45 33.3 34.85Q33.15 35.5 33.15 36.35L33.95 36.95L34.75 37.5Q36 37.6 36.15 38.1M79.05,24L79.15 23.55Q79.35 23.2 79.75 23.1Q83.85 14.65 87.15 11.2Q90.15 8 92.45 9Q95.05 10.15 101.5 18.75L102.65 20.45L104.15 22.5M52.9,7.6L52.05 10.15L50.5 13L49.35 14.85L47.8 17.35L43.25 23.35L41.1 25.45M37,28.3L40.55 31.35L42.85 32.95L43.25 33.25L42.85 33.25M58.5,25.05Q58.05 25.05 57.7 25.4Q56.8 26.15 55.9 28.35L54.4 32.55M79.5,34.55L78.5 34.4L79.3 34.75M58.5,25.05Q59.85 25.05 62.15 27L64.95 29.7M1.7,2.9L2.4 2.4M25.7,29.4L-1.75 29.4M-164.25,-96.6L163.75 -96.6L163.75 96.05L-164.25 96.05L-164.25 -96.6M-177.4,-110.3L177.35 -110.3L177.35 110.35L-177.4 110.35L-177.4 -110.3" />
</g>
</svg>
