<?xml version="1.0" encoding="utf-8"?>
<svg version="1.1" id="Layer_1"
xmlns="http://www.w3.org/2000/svg"
xmlns:xlink="http://www.w3.org/1999/xlink"
xmlns:author="http://www.sothink.com"
width="118px" height="48px"
xml:space="preserve">
<g id="219" transform="matrix(1, 0, 0, 1, 58.8, 23.55)">
<path style="fill:#A16000;fill-opacity:1" d="M-57.8,17.5Q-57.8 22.55 -52.75 22.55L52.8 22.55Q56.6 22.55 57.55 19.7L57.65 19.35L57.85 17.5L57.85 -17.5Q57.85 -22.55 52.8 -22.55L-52.75 -22.55Q-57.25 -22.55 -57.7 -18.55L-57.8 -17.5L-57.8 5.45L-57.8 17.5M58.85,-17.5L58.85 17.5L58.65 19.45L58.15 20.95Q56.8 23.55 52.8 23.55L-52.75 23.55Q-58.8 23.55 -58.8 17.5L-58.8 -17.5L-58.7 -18.95Q-58 -23.55 -52.75 -23.55L52.8 -23.55Q58.85 -23.55 58.85 -17.5" />
<path style="fill:#FAA72B;fill-opacity:1" d="M8.95,-1.25L7.2 1.5Q5.5 4.25 3.75 4.25L0.75 4.1Q-0.1 4.35 -0.1 7L0 9Q-0.2 10.85 -1.85 10.85L-3.9 10.4Q-4.7 9.8 -4.7 8.1Q-4.65 6.6 -4.85 6L-5 4.55L-4.7 -1.3L-4.6 -9.05L-4.7 -9.45Q-4.85 -9.8 -5.3 -9.8Q-6.3 -9.8 -6.45 -6.9L-6.35 -2.75Q-6.2 -0.35 -6.55 4.6L-6.35 6.35L-6.25 8.85L-6.2 9.5L-6.85 10.3L-7.6 10.35L-7.6 9.95Q-7.55 9.5 -7.65 9.1Q-7.8 8.3 -8.45 8.3Q-9.25 8.3 -9.25 9.05L-9.15 9.7L-11.85 9.75L-13.85 10.2L-14.1 10.15L-14.6 10.25L-19.15 10.4Q-20.6 10.4 -22.05 8.4L-23.65 5.9L-24.05 5.2L-23.3 5.25Q-21.4 5.25 -20.1 4.65Q-18.9 4.1 -18.9 3.4Q-18.9 1.85 -22.1 2.35Q-24.15 2.65 -24.9 3.2Q-25.15 2.4 -25.8 2.35Q-26.2 2.3 -26.4 2.55Q-26.65 2.15 -27.15 2.15Q-27.95 2.15 -27.95 2.95Q-27.95 4.2 -27.55 5.85Q-27.2 7.55 -27.2 8.15L-27.4 9.45L-27.7 10.5L-29.6 10.65Q-30.2 10.65 -30.55 9.45L-30.75 7.55L-30.65 7.1L-30.65 0.3L-31.05 -3L-31.25 -6.65L-31.1 -7.8Q-30.4 -7.75 -30.15 -8Q-30 -8.15 -30 -8.6L-30.05 -9.05Q-30.25 -9.5 -30.95 -9.5Q-32.25 -9.5 -32.65 -8.2L-32.75 -6.7L-32.45 -1.6Q-32.2 0.1 -32.2 3.7L-32.3 8.05L-32 11.1Q-31.6 12.2 -29.65 12.2Q-27.2 12.2 -26.55 11.7Q-25.65 11 -25.65 8.25Q-25.65 7.5 -25.8 6.95L-26.15 5.25L-26.1 4.6L-24.25 7.65L-23 9.9Q-21.45 11.95 -19.15 11.95L-14.35 11.75Q-13.55 12.35 -12.25 12.35Q-7.45 12.35 -5.85 11.45L-5.6 11.3L-5.1 11.8Q-4.1 12.45 -1.8 12.45Q1.55 12.45 1.55 9.1L1.45 5.75Q5.3 6.65 7.8 3.7Q9.7 1.5 9.7 -0.45Q9.65 -1.25 8.95 -1.25M2.15,-5.05L0.6 -4.8Q0.3 -4.6 0.3 -4.15Q0.2 -3.4 1.3 -3.4Q2.95 -3.4 3.95 -2.55Q5 -1.75 5.55 -1.75Q6.55 -1.75 6.55 -2.5Q3.3 -5.05 2.15 -5.05M52.95,17.6Q50.4 15.35 49.05 14.55Q47.9 13.85 45.9 12.9L43.6 11.9Q42.9 11.9 42 12.4Q41.1 12.9 39.9 12.9L30.4 11.4Q29.9 11.4 24.75 13.45L23.8 12.7L23.5 12.45L22.9 11.9Q21.05 10.05 20.4 7.7L20.45 6.55Q20.5 5.3 20 4.7L19.95 3.6Q20.1 2.35 20.6 1.15L21.3 -1.05Q21.3 -2.25 20.7 -2.3Q20.15 -2.35 19.45 -1.4Q17.55 1 17.55 5.05L17.65 8.35Q17.8 9.45 18.4 10.65L18.95 13.35Q19.35 14.45 19.9 15.35L14.9 17.25L6.15 17.9L-2.45 17.9L-9.4 17.75L-19.2 17.4L-28.35 16.9L-36.15 16.5L-39.2 16.8Q-50.7 16.8 -55.05 10.6L-57.8 5.45L-57.8 -17.5L-57.7 -18.55L-57.3 -18.55L-53.25 -19.15L-48.65 -19.8L-42.25 -19.4Q-33.95 -19.35 -29.75 -19.6L-23.95 -20L-13.9 -20.5L-6.65 -21.05L-1.1 -20.95L7.05 -20.85L14.8 -20.45L22.7 -20.1Q26.7 -19.75 30.35 -20.1L40.45 -20.5L50.4 -19.85Q53.9 -19.2 55.45 -10.65Q56.25 -6.25 56.25 -0.95L55.95 5.35Q55.6 10.3 55.6 11.65Q55.6 14.95 57.35 19.2L57.4 19.3Q54.85 18.9 52.95 17.6M17.4,15.15L17.7 14.25Q17.7 12.75 16.15 12.75Q14.55 12.75 14.55 14.4Q14.55 15.75 16 15.75Q16.95 15.75 17.4 15.15M-48.7,-2L-48.25 0.15Q-47.65 1.45 -46.6 2.15Q-41.15 5 -38.6 5Q-37.25 5 -37.25 3.65Q-37.25 3 -38.25 1.4Q-39.2 -0.15 -39.85 -0.75L-41.5 -1.9L-42.95 -2.85L-43.95 -4L-44.9 -5Q-44.7 -5.2 -44.75 -5.7Q-44.8 -6.3 -45.55 -6.3Q-47.35 -6.3 -48.2 -4.25Q-48.7 -3 -48.7 -2M-45.65,-4.55L-45.75 -4.15Q-45.75 -3.2 -43.2 -1.3Q-40.15 0.95 -38.9 3.35Q-43.35 2.1 -45.2 0.95Q-47.15 -0.25 -47.15 -2Q-47.15 -2.85 -46.8 -3.4L-45.65 -4.55M-43,-5.3L-43.25 -4.55L-43.05 -3.85Q-42.6 -3.15 -41.45 -3.15L-40.25 -3.45L-39.45 -3.8L-37.85 -3.4L-35.6 -3.05Q-34.75 -3.05 -34.55 -3.55L-34.5 -4.25Q-34.5 -6.4 -37.95 -6.4L-41.3 -5.85L-42 -5.35L-43 -5.3M-22.8,-2.3Q-20.35 -2.3 -19.2 -3.1Q-18.45 -3.65 -18.45 -4.45Q-18.45 -6.05 -19.65 -5.6Q-22.4 -4.7 -23.7 -4.7L-24.15 -4.9L-24.9 -5.1Q-26 -5.1 -26 -3.8L-25.75 -3.05Q-25.1 -2.3 -22.8 -2.3M-16.3,-8.95Q-17.25 -8.95 -17.25 -8.2Q-17 -6.65 -17.05 -5.95L-16.8 -4.75Q-16.35 -4 -14.9 -4.05L-14.8 3.3L-15.05 6Q-15.35 8.3 -14.15 8.3Q-13.3 8.3 -13.3 7.45L-13.55 5.95L-13.35 4.45L-13.2 3.35L-13.35 1.85L-13.55 -0.15L-13.3 -4.35L-13.4 -5.2Q-13.85 -5.9 -15.5 -5.75L-15.45 -7.65Q-15.55 -8.95 -16.3 -8.95M-35.8,8.15Q-35.5 8.4 -35.5 8.85Q-35.5 9.45 -36.3 10.15Q-37.35 11.05 -38.9 11.05L-43 11.05L-45.95 10.45Q-46.85 10.05 -47.1 9.2Q-46.3 8.75 -46.7 8.05L-42.75 8.85L-38 7.9L-35.8 8.15M-33.9,8.75Q-33.9 8 -34.4 7.4Q-35.3 6.35 -37.45 6.35L-40.55 6.8L-42.75 7.25L-45.95 6.6Q-45.85 6.15 -46 5.75Q-46.25 5 -47.2 5Q-48.9 5 -48.9 8.45Q-48.9 9.85 -47.7 11.1Q-46.05 12.7 -43.1 12.65L-38.7 12.65Q-36.5 12.8 -35.05 11.15Q-33.9 9.85 -33.9 8.75" />
<path style="fill:#FAC26E;fill-opacity:1" d="M-52.75,-22.55L52.8 -22.55Q57.85 -22.55 57.85 -17.5L57.85 17.5L57.65 19.35L57.55 19.7L57.4 19.3L57.35 19.2Q55.6 14.95 55.6 11.65Q55.6 10.3 55.95 5.35L56.25 -0.95Q56.25 -6.25 55.45 -10.65Q53.9 -19.2 50.4 -19.85L40.45 -20.5L30.35 -20.1Q26.7 -19.75 22.7 -20.1L14.8 -20.45L7.05 -20.85L-1.1 -20.95L-6.65 -21.05L-13.9 -20.5L-23.95 -20L-29.75 -19.6Q-33.95 -19.35 -42.25 -19.4L-48.65 -19.8L-53.25 -19.15L-57.3 -18.55L-57.7 -18.55Q-57.25 -22.55 -52.75 -22.55" />
<path style="fill:#DB8F1E;fill-opacity:1" d="M9.7,-0.45Q9.7 1.5 7.8 3.7Q5.3 6.65 1.45 5.75L1.55 9.1Q1.55 12.45 -1.8 12.45Q-4.1 12.45 -5.1 11.8L-5.6 11.3L-5.85 11.45Q-7.45 12.35 -12.25 12.35Q-13.55 12.35 -14.35 11.75L-19.15 11.95Q-21.45 11.95 -23 9.9L-24.25 7.65L-26.1 4.6L-26.15 5.25L-25.8 6.95Q-25.65 7.5 -25.65 8.25Q-25.65 11 -26.55 11.7Q-27.2 12.2 -29.65 12.2Q-31.6 12.2 -32 11.1L-32.3 8.05L-32.2 3.7Q-32.2 0.1 -32.45 -1.6L-32.75 -6.7L-32.65 -8.2Q-32.25 -9.5 -30.95 -9.5Q-30.25 -9.5 -30.05 -9.05L-30 -8.6Q-30 -8.15 -30.15 -8Q-30.4 -7.75 -31.1 -7.8L-31.25 -6.65L-31.05 -3L-30.65 0.3L-30.65 7.1L-30.75 7.55L-30.55 9.45Q-30.2 10.65 -29.6 10.65L-27.7 10.5L-27.4 9.45L-27.2 8.15Q-27.2 7.55 -27.55 5.85Q-27.95 4.2 -27.95 2.95Q-27.95 2.15 -27.15 2.15Q-26.65 2.15 -26.4 2.55Q-26.2 2.3 -25.8 2.35Q-25.15 2.4 -24.9 3.2Q-24.15 2.65 -22.1 2.35Q-18.9 1.85 -18.9 3.4Q-18.9 4.1 -20.1 4.65Q-21.4 5.25 -23.3 5.25L-24.05 5.2L-23.65 5.9L-22.05 8.4Q-20.6 10.4 -19.15 10.4L-14.6 10.25L-14.1 10.15L-13.85 10.2L-11.85 9.75L-9.15 9.7L-9.25 9.05Q-9.25 8.3 -8.45 8.3Q-7.8 8.3 -7.65 9.1Q-7.55 9.5 -7.6 9.95L-7.6 10.35L-6.85 10.3L-6.2 9.5L-6.25 8.85L-6.35 6.35L-6.55 4.6Q-6.2 -0.35 -6.35 -2.75L-6.45 -6.9Q-6.3 -9.8 -5.3 -9.8Q-4.85 -9.8 -4.7 -9.45L-4.6 -9.05L-4.7 -1.3L-5 4.55L-4.85 6Q-4.65 6.6 -4.7 8.1Q-4.7 9.8 -3.9 10.4L-1.85 10.85Q-0.2 10.85 0 9L-0.1 7Q-0.1 4.35 0.75 4.1L3.75 4.25Q5.5 4.25 7.2 1.5L8.95 -1.25Q9.65 -1.25 9.7 -0.45M6.55,-2.5Q6.55 -1.75 5.55 -1.75Q5 -1.75 3.95 -2.55Q2.95 -3.4 1.3 -3.4Q0.2 -3.4 0.3 -4.15Q0.3 -4.6 0.6 -4.8L2.15 -5.05Q3.3 -5.05 6.55 -2.5M-57.8,5.45L-55.05 10.6Q-50.7 16.8 -39.2 16.8L-36.15 16.5L-28.35 16.9L-19.2 17.4L-9.4 17.75L-2.45 17.9L6.15 17.9L14.9 17.25L19.9 15.35Q19.35 14.45 18.95 13.35L18.4 10.65Q17.8 9.45 17.65 8.35L17.55 5.05Q17.55 1 19.45 -1.4Q20.15 -2.35 20.7 -2.3Q21.3 -2.25 21.3 -1.05L20.6 1.15Q20.1 2.35 19.95 3.6L20 4.7Q20.5 5.3 20.45 6.55L20.4 7.7Q21.05 10.05 22.9 11.9L23.5 12.45L23.8 12.7L24.75 13.45Q29.9 11.4 30.4 11.4L39.9 12.9Q41.1 12.9 42 12.4Q42.9 11.9 43.6 11.9L45.9 12.9Q47.9 13.85 49.05 14.55Q50.4 15.35 52.95 17.6Q54.85 18.9 57.4 19.3L57.55 19.7Q56.6 22.55 52.8 22.55L-52.75 22.55Q-57.8 22.55 -57.8 17.5L-57.8 5.45M16,15.75Q14.55 15.75 14.55 14.4Q14.55 12.75 16.15 12.75Q17.7 12.75 17.7 14.25L17.4 15.15Q16.95 15.75 16 15.75M-48.2,-4.25Q-47.35 -6.3 -45.55 -6.3Q-44.8 -6.3 -44.75 -5.7Q-44.7 -5.2 -44.9 -5L-43.95 -4L-42.95 -2.85L-41.5 -1.9L-39.85 -0.75Q-39.2 -0.15 -38.25 1.4Q-37.25 3 -37.25 3.65Q-37.25 5 -38.6 5Q-41.15 5 -46.6 2.15Q-47.65 1.45 -48.25 0.15L-48.7 -2Q-48.7 -3 -48.2 -4.25M-46.8,-3.4Q-47.15 -2.85 -47.15 -2Q-47.15 -0.25 -45.2 0.95Q-43.35 2.1 -38.9 3.35Q-40.15 0.95 -43.2 -1.3Q-45.75 -3.2 -45.75 -4.15L-45.65 -4.55L-46.8 -3.4M-42,-5.35L-41.3 -5.85L-37.95 -6.4Q-34.5 -6.4 -34.5 -4.25L-34.55 -3.55Q-34.75 -3.05 -35.6 -3.05L-37.85 -3.4L-39.45 -3.8L-40.25 -3.45L-41.45 -3.15Q-42.6 -3.15 -43.05 -3.85L-43.25 -4.55L-43 -5.3L-42 -5.35M-25.75,-3.05L-26 -3.8Q-26 -5.1 -24.9 -5.1L-24.15 -4.9L-23.7 -4.7Q-22.4 -4.7 -19.65 -5.6Q-18.45 -6.05 -18.45 -4.45Q-18.45 -3.65 -19.2 -3.1Q-20.35 -2.3 -22.8 -2.3Q-25.1 -2.3 -25.75 -3.05M-15.45,-7.65L-15.5 -5.75Q-13.85 -5.9 -13.4 -5.2L-13.3 -4.35L-13.55 -0.15L-13.35 1.85L-13.2 3.35L-13.35 4.45L-13.55 5.95L-13.3 7.45Q-13.3 8.3 -14.15 8.3Q-15.35 8.3 -15.05 6L-14.8 3.3L-14.9 -4.05Q-16.35 -4 -16.8 -4.75L-17.05 -5.95Q-17 -6.65 -17.25 -8.2Q-17.25 -8.95 -16.3 -8.95Q-15.55 -8.95 -15.45 -7.65M-38,7.9L-42.75 8.85L-46.7 8.05Q-46.3 8.75 -47.1 9.2Q-46.85 10.05 -45.95 10.45L-43 11.05L-38.9 11.05Q-37.35 11.05 -36.3 10.15Q-35.5 9.45 -35.5 8.85Q-35.5 8.4 -35.8 8.15L-38 7.9M-35.05,11.15Q-36.5 12.8 -38.7 12.65L-43.1 12.65Q-46.05 12.7 -47.7 11.1Q-48.9 9.85 -48.9 8.45Q-48.9 5 -47.2 5Q-46.25 5 -46 5.75Q-45.85 6.15 -45.95 6.6L-42.75 7.25L-40.55 6.8L-37.45 6.35Q-35.3 6.35 -34.4 7.4Q-33.9 8 -33.9 8.75Q-33.9 9.85 -35.05 11.15" />
</g>
</svg>
