<?xml version="1.0" encoding="utf-8"?>
<svg version="1.1" id="Layer_1"
xmlns="http://www.w3.org/2000/svg"
xmlns:xlink="http://www.w3.org/1999/xlink"
xmlns:author="http://www.sothink.com"
width="60px" height="69px"
xml:space="preserve">
<g id="116" transform="matrix(1, 0, 0, 1, 40.35, 53.35)">
<path style="fill:#434343;fill-opacity:1" d="M-32.75,-22.2L-39.5 -21.55L-39.55 -21.75L-39.65 -21.75L-39.75 -22.3Q-39.65 -22.95 -39.7 -23.65L-39.7 -24.2L-39.8 -25L-37.8 -25.5L-37.95 -26.1L-37.95 -26.35L-37.8 -25.75Q-37.2 -29.1 -36.6 -29.25L-35.45 -29.25L-34.65 -26.7L-34.55 -26.3L-33.35 -26.65L-32.75 -22.2M-21.25,-23.35L-30.95 -22.4L-31.65 -27.1L-29.95 -27.6L-20.3 -30.25Q-21.35 -27.45 -21.25 -23.35" />
<path style="fill:#252424;fill-opacity:1" d="M-20.75,-18.35L-20.4 -16.8L-29.6 -17.55L-30.2 -17.6L-30.95 -22.4L-21.25 -23.35L-21.25 -23.1L-20.75 -18.35M-32.15,-17.8L-37.05 -18.05L-39 -18.05L-39.5 -21.55L-32.75 -22.2L-32.15 -17.8" />
<path style="fill:#D75535;fill-opacity:1" d="M-20.3,-30.25Q-19.6 -31.95 -18.55 -33.2L-18.5 -33.25Q-18.05 -32.95 -17.4 -32.75L-14 -32.45L-9.4 -34.25Q-5.55 -35.6 -5.1 -35.2L-5.05 -35.1Q0.7 -35.95 3.1 -35.2L3.2 -35.3L3.3 -35.15Q8.25 -33.5 9.4 -25.8L9.4 -20.6L9.4 -19.6L6.55 -18.9Q4.35 -18.6 -7.45 -18.8L-12.15 -19.2L-16.45 -20.5Q-17.3 -20.7 -19.3 -22L-21.25 -23.1L-21.25 -23.35Q-21.35 -27.45 -20.3 -30.25M-9.1,-41L-9.2 -42.1Q-9.55 -44.3 -10 -44.95L-13.7 -44.4L-15.6 -44.15Q-15.4 -45.5 -14.8 -46.45L-13.7 -46.25L-10.8 -46.55L-8.1 -46.65L-5.45 -46.8L-3.8 -46.7L-2.7 -46.45Q-0.95 -45.8 -0.2 -44.55Q0.45 -43.4 1.15 -40.65L-3.75 -40.35L-4.65 -40.45L-7.4 -40.8L-8.25 -40.85L-9.1 -40.95L-9.1 -41M-10,-48.7L-10.05 -48.95L-9.2 -51.05L-8.75 -50.95L-6.35 -50.65Q-5.5 -50.35 -5 -49.5L-4.8 -49.1L-10 -48.7" />
<path style="fill:#E7846C;fill-opacity:1" d="M-4.25,-37.7L1.75 -38.4Q1.4 -39.25 1.2 -40.25L1.15 -40.65Q0.45 -43.4 -0.2 -44.55Q-0.95 -45.8 -2.7 -46.45L-3.8 -46.7L-5.45 -46.8L-8.1 -46.65L-10.8 -46.55L-13.7 -46.25L-14.8 -46.45Q-13.85 -48.15 -11.65 -48.5L-10.2 -48.65L-10 -48.7L-4.8 -49.1L-5 -49.5Q-5.5 -50.35 -6.35 -50.65L-8.75 -50.95L-9.2 -51.05L-9.15 -51.35Q-8.75 -52.6 -7.15 -52.85L-4.3 -52.55Q-2.55 -51.8 -2.2 -49.05L0.2 -48.7Q1.85 -48.35 2.6 -46.35L4.4 -46.4Q5.6 -45.8 5.55 -43.05Q5.55 -42.45 4.6 -42.2L3.5 -42.05L3.7 -41.05Q4.15 -39.25 4.6 -38.9Q5.75 -38.9 7.1 -37.95Q9.25 -36.5 10.5 -33.45L10.55 -33.35L13.05 -33.9Q14.5 -33.9 15.25 -29.55Q15.75 -26.75 15.75 -24.35Q15.75 -23.15 14.9 -22.75L12.35 -22.25L12.15 -20.2L11.85 -18.85Q11.15 -16.55 9.4 -15.25L9.3 -15.35L9.4 -19.6L9.4 -20.6L9.4 -25.8Q8.25 -33.5 3.3 -35.15L3.2 -35.3L3.1 -35.2Q0.7 -35.95 -5.05 -35.1L-5.1 -35.2Q-5.55 -35.6 -9.4 -34.25L-14 -32.45L-17.4 -32.75Q-18.05 -32.95 -18.5 -33.25Q-17.25 -34.65 -15.25 -35.75Q-10.85 -37.15 -4.25 -37.7M-33.35,-26.65L-31.65 -27.1L-30.95 -22.4L-32.75 -22.2L-33.35 -26.65" />
<path style="fill:#B6492E;fill-opacity:1" d="M-21.25,-23.1L-19.3 -22Q-17.3 -20.7 -16.45 -20.5L-12.15 -19.2L-7.45 -18.8Q4.35 -18.6 6.55 -18.9L9.4 -19.6L9.3 -15.35L9.4 -15.25L9.35 -15.2Q7.75 -14.1 5.5 -13.75L0.1 -13.55L-6.9 -13.05L-13.85 -12.65Q-18.1 -12.35 -19 -11.25L-20.15 -15.25L-20.4 -16.8L-20.75 -18.35L-21.25 -23.1M-32.75,-22.2L-30.95 -22.4L-30.2 -17.6L-32.15 -17.8L-32.75 -22.2M-15.25,-35.75L-15.25 -37.8L-13.35 -38.1L-10.45 -38.8Q-9.25 -39.35 -9.1 -40.95L-8.25 -40.85L-7.4 -40.8L-4.65 -40.45L-3.75 -40.35L1.15 -40.65L1.2 -40.25Q1.4 -39.25 1.75 -38.4L-4.25 -37.7Q-10.85 -37.15 -15.25 -35.75" />
<path style="fill:#3A3736;fill-opacity:1" d="M-9.1,-41L-9.1 -40.95Q-9.25 -39.35 -10.45 -38.8L-13.35 -38.1L-13.5 -41.05L-9.1 -41" />
<path style="fill:#252221;fill-opacity:1" d="M-13.5,-41.05L-13.7 -44.4L-10 -44.95Q-9.55 -44.3 -9.2 -42.1L-9.1 -41L-13.5 -41.05" />
<path style="fill:none;stroke-width:1;stroke-linecap:butt;stroke-linejoin:miter;stroke-miterlimit:3;stroke:#833825;stroke-opacity:1" d="M-20.4,-16.8L-20.75 -18.35L-21.25 -23.1L-21.25 -23.35Q-21.35 -27.45 -20.3 -30.25Q-19.6 -31.95 -18.55 -33.2L-18.5 -33.25Q-17.25 -34.65 -15.25 -35.75L-15.25 -37.8L-13.35 -38.1L-13.5 -41.05L-13.7 -44.4L-15.6 -44.15Q-15.4 -45.5 -14.8 -46.45Q-13.85 -48.15 -11.65 -48.5L-10.2 -48.65L-10.05 -48.95L-9.2 -51.05M-10.2,-48.65L-10 -48.7L-4.8 -49.1L-2.2 -49.05M1.75,-38.4L4.6 -38.9M10.55,-33.35Q11.45 -31.2 11.9 -28.2Q12.45 -24.75 12.35 -22.25M-13.7,-44.4L-10 -44.95Q-9.55 -44.3 -9.2 -42.1L-9.1 -41L-9.1 -40.95Q-9.25 -39.35 -10.45 -38.8L-13.35 -38.1M1.75,-38.4L-4.25 -37.7Q-10.85 -37.15 -15.25 -35.75" />
<path style="fill:none;stroke-width:1;stroke-linecap:butt;stroke-linejoin:miter;stroke-miterlimit:3;stroke:#252424;stroke-opacity:1" d="M-20.4,-16.8L-29.6 -17.55L-30.2 -17.6L-32.15 -17.8L-37.05 -18.05L-39 -18.05L-39.5 -21.55L-39.55 -21.75L-39.65 -21.75L-39.75 -22.3Q-39.65 -22.95 -39.7 -23.65L-39.7 -24.2L-39.8 -25L-37.8 -25.5L-34.55 -26.3L-33.35 -26.65L-31.65 -27.1L-29.95 -27.6L-20.3 -30.25M-37.8,-25.75Q-37.2 -29.1 -36.6 -29.25L-35.45 -29.25L-34.65 -26.7" />
<path style="fill:none;stroke-width:1;stroke-linecap:round;stroke-linejoin:miter;stroke-miterlimit:3;stroke:#833825;stroke-opacity:1" d="M-9.2,-51.05L-9.15 -51.35Q-8.75 -52.6 -7.15 -52.85L-4.3 -52.55Q-2.55 -51.8 -2.2 -49.05L0.2 -48.7Q1.85 -48.35 2.6 -46.35" />
<path style="fill:none;stroke-width:1;stroke-linecap:butt;stroke-linejoin:miter;stroke-miterlimit:3;stroke:#833825;stroke-opacity:1" d="M2.6,-46.35L4.4 -46.4Q5.6 -45.8 5.55 -43.05Q5.55 -42.45 4.6 -42.2L3.5 -42.05L3.7 -41.05Q4.15 -39.25 4.6 -38.9Q5.75 -38.9 7.1 -37.95Q9.25 -36.5 10.5 -33.45L10.55 -33.35L13.05 -33.9Q14.5 -33.9 15.25 -29.55Q15.75 -26.75 15.75 -24.35Q15.75 -23.15 14.9 -22.75L12.35 -22.25L12.15 -20.2L11.85 -18.85Q11.15 -16.55 9.4 -15.25L9.35 -15.2Q7.75 -14.1 5.5 -13.75L0.1 -13.55L-6.9 -13.05L-13.85 -12.65Q-18.1 -12.35 -19 -11.25L-20.15 -15.25L-20.4 -16.8M2.6,-46.35L3 -44.6L3.5 -42.05" />
<path style="fill:#AAC7E5;fill-opacity:1" d="M17.8,-5.1L14.95 -9.8Q13.15 -12.15 10.75 -12.4Q8.3 -12.7 4.05 -12.25L-2.55 -11.8Q-5.05 -11.85 -9.8 -10.9L-17.2 -9.55Q-21.05 -9.15 -23.3 -10.45L-23.5 -10.65L-23.55 -11.55L-23.55 -11.8L-23.65 -13.4L-15 -14.7L3.35 -16.5Q7.3 -16.85 13.55 -18.45Q17.7 -18.45 18.55 -12.7Q19.35 -6.95 18.9 -4.5L18.7 -3.7L17.8 -5.1" />
<path style="fill:#8CAAC9;fill-opacity:1" d="M-23.5,-10.65L-23.3 -10.45Q-21.05 -9.15 -17.2 -9.55L-9.8 -10.9Q-5.05 -11.85 -2.55 -11.8L4.05 -12.25Q8.3 -12.7 10.75 -12.4Q13.15 -12.15 14.95 -9.8L17.8 -5.1L18.7 -3.7Q17.7 -1.9 14.25 -1.35L12.35 -1.1L5.55 -0.3L-3.05 0.1L-4.85 0.05L-11.8 1.15L-14.3 1.4Q-22.7 2.2 -23.1 -0.45L-23.5 -4L-23.6 -4.95L-24.05 -11L-23.5 -10.65" />
<path style="fill:#6C86A1;fill-opacity:1" d="M12.35,-1.1Q12.2 1.5 9 7.6L7.55 10.15L7.5 10.2Q4.55 15 2.45 15.3Q-1.05 15.85 -6.05 15.45L-9.9 14.8Q-13.25 13.95 -14.6 12.4Q-15.1 11.75 -15.9 8.85Q-16.55 6.45 -17.8 5.8L-22.15 4.75Q-24.65 4.2 -24.95 2.2Q-25.35 -0.6 -24.75 -2.2Q-24.4 -3.25 -23.5 -4L-23.1 -0.45Q-22.7 2.2 -14.3 1.4L-11.8 1.15L-4.85 0.05L-3.05 0.1L5.55 -0.3L12.35 -1.1M-4.65,6.4L-4.55 5.7Q-4.45 5.4 -4.7 5.25L-4.65 6.4M-4.5,7.1L-4.4 7.15L-4.6 6.75L-4.5 7.1" />
<path style="fill:#BFBEBE;fill-opacity:1" d="M2.55,-30.8Q2.55 -30.45 2.1 -30.45Q1.1 -30.45 1.35 -31.1Q1.35 -31.8 1.95 -31.55Q2.55 -31.25 2.55 -30.8M-10.45,-43.8L-10.35 -43.35L-10.45 -42.8L-11.05 -42.7Q-11.4 -42.7 -11.75 -42.95L-11.8 -43.25Q-10.95 -43.8 -10.45 -43.8" />
<path style="fill:#252221;fill-opacity:1" d="M-1.9,-28.95L-1.9 -29.55L-1.95 -30.75L-1.95 -30.9Q-1.95 -32.85 2.3 -32.85Q3.25 -32.85 3.9 -31.05L4.4 -28.65Q1.05 -27.4 -1.9 -28.95M1.95,-31.55Q1.35 -31.8 1.35 -31.1Q1.1 -30.45 2.1 -30.45Q2.55 -30.45 2.55 -30.8Q2.55 -31.25 1.95 -31.55" />
<path style="fill:#3A3736;fill-opacity:1" d="M-1.9,-28.95Q1.05 -27.4 4.4 -28.65L4.4 -28.1Q4.4 -27.15 2.45 -26.35Q0.8 -25.65 -0.4 -25.65Q-1.65 -25.65 -1.9 -28.95" />
<path style="fill:none;stroke-width:1;stroke-linecap:butt;stroke-linejoin:miter;stroke-miterlimit:3;stroke:#34495F;stroke-opacity:1" d="M18.7,-3.7L18.9 -4.5Q19.35 -6.95 18.55 -12.7Q17.7 -18.45 13.55 -18.45Q7.3 -16.85 3.35 -16.5L-15 -14.7L-23.65 -13.4L-23.55 -11.8L-23.55 -11.55L-23.5 -10.65M18.7,-3.7Q17.7 -1.9 14.25 -1.35L12.35 -1.1M-23.5,-4L-23.6 -4.95L-24.05 -11L-24.05 -11.5L-23.55 -11.55M-23.5,-4L-23.1 -0.45Q-22.7 2.2 -14.3 1.4L-11.8 1.15L-4.85 0.05L-3.05 0.1L5.55 -0.3L12.35 -1.1M-11.8,1.15Q-11.3 4.4 -10.75 10.65Q-10.65 11.5 -9.05 11.75L-4.55 12L2.05 11.35Q5.2 10.85 5.95 9.3L6.25 8.1Q5.5 3.7 5.55 -0.3M-4.4,7.15Q-4.1 7.8 -3.35 8L-2.15 8.2Q-1 8.05 -0.45 7.2Q0.2 6.4 0 5.15Q-0.2 3.7 -1.4 3.25L-3.1 3.1Q-4.65 3.35 -4.7 5.25Q-4.45 5.4 -4.55 5.7L-4.65 6.4L-4.65 6.55L-4.65 6.6L-4.6 6.65L-4.6 6.75L-4.4 7.15L-4.5 7.1L-4.6 6.75M-4.7,5.25L-4.65 6.4" />
<path style="fill:none;stroke-width:1;stroke-linecap:butt;stroke-linejoin:miter;stroke-miterlimit:3;stroke:#833825;stroke-opacity:1" d="M4.4,-28.65L3.9 -31.05Q3.25 -32.85 2.3 -32.85Q-1.95 -32.85 -1.95 -30.9L-1.95 -30.75L-1.9 -29.55L-1.9 -28.95M4.4,-28.65L4.4 -28.1Q4.4 -27.15 2.45 -26.35Q0.8 -25.65 -0.4 -25.65Q-1.65 -25.65 -1.9 -28.95" />
</g>
</svg>
