<?xml version="1.0" encoding="utf-8"?>
<svg version="1.1" id="Layer_1"
xmlns="http://www.w3.org/2000/svg"
xmlns:xlink="http://www.w3.org/1999/xlink"
xmlns:author="http://www.sothink.com"
width="83px" height="83px"
xml:space="preserve">
<g id="14" transform="matrix(1, 0, 0, 1, 44.45, 42.15)">
<path style="fill:#232222;fill-opacity:1" d="M15.6,-28.05Q18.1 -26.25 18.5 -25.25L19.2 -22.65L19.8 -19.8Q19.8 -16.1 16.45 -13.05Q13.05 -9.95 13.05 -9.4Q13.05 -8.65 14.1 -8Q15.3 -7.25 17.25 -7.25Q18.45 -7.25 19.25 -8.7L19.9 -9.65Q20.15 -10.55 21.55 -11.35Q23.35 -12.3 25.8 -12.6Q32.15 -13.3 35.55 -8.8Q37.2 -6.9 37.85 -4.55Q38.4 -2.75 38.4 -0.2Q38.4 0.9 36.1 5Q33.6 9.45 31.25 10L32.45 12.15Q33.9 14.8 33.9 16.7Q33.9 19.5 30.85 24.85Q26.65 32.1 20.55 32.1Q17.35 32.1 15.05 30.4L13 28.35L10.55 26.6Q8.5 25.25 8.3 24.4L8.75 19.45Q8.75 16.1 5.25 16.1Q3.2 16.1 2.25 17.2Q1.85 17.7 1.8 18.3Q1.8 19.2 3 19.9L3.15 20Q4.05 20.3 4.45 21.65L4.6 23.45Q4.6 25.45 3.9 26.5Q2.85 28.25 -0.6 29.45Q-1.2 29.65 -1.9 30.6L-3.25 32.45Q-5.35 34.95 -9.6 34.95Q-16.6 34.95 -19.1 31.25Q-20.4 29.4 -20.4 27.45Q-21.1 26.6 -22 23.55Q-22.95 20.55 -22.95 19.3Q-23.1 18.1 -22.7 17.05Q-21.95 15.1 -19.1 15.7Q-18.4 14.9 -18.4 14.55Q-18.4 13.45 -21.1 13.45L-23.8 15.45Q-26.35 17.45 -29.8 17.45Q-33.9 17.45 -35.5 12.35Q-36.35 9.8 -36.35 7.05Q-36.35 5.35 -34.25 2.25Q-31.85 -1.2 -29.05 -2.25Q-26.65 -3.15 -25.65 -4.35Q-24.5 -5.7 -22.7 -6.45Q-21.1 -7.15 -17.7 -5.4L-15.45 -4.05L-14.9 -3.75Q-11.5 -3.75 -9.85 -6Q-8.9 -7.35 -8.9 -8.55L-9.15 -9.65Q-9.6 -10.6 -10.3 -10.6Q-12.05 -10.6 -13.15 -9.55Q-14.25 -8.6 -15.75 -8.6Q-21 -8.6 -22.65 -12.15Q-23.45 -13.95 -23.2 -15.85Q-23.2 -21.1 -19.85 -24.45L-18.4 -25.55L-18.4 -26.3Q-18.4 -29.4 -16.15 -32.05Q-12.85 -35.95 -5.9 -36.65Q1 -37.85 5.95 -33.65Q8.7 -31.3 9.45 -29.2L10.15 -29.5Q12.45 -30.15 15.6 -28.05M10.45,-1.85Q9.8 -1.25 9.2 0.3L8.8 1.75Q8.8 2.1 9.4 2.35L11.5 2.6Q12.15 2.6 12.65 0.3Q12.65 -0.3 12 -0.8L10.45 -1.85" />
<path style="fill:#FF6600;fill-opacity:1" d="M30,-31.1L30.05 -31.1L30.3 -31.1L30.1 -31.05L31.2 -30.6L32.4 -29.75Q32.4 -27.9 30.35 -27.9Q28.7 -27.9 28.05 -28.7Q27.7 -29.15 27.7 -29.6Q27.7 -30.2 28.55 -30.65Q29.2 -31.05 30 -31.1M20.05,-38.3Q21.35 -38.1 21.35 -37.05Q21.35 -36 20.05 -36Q19.05 -36 18.8 -36.6L18.75 -37.2Q18.75 -38.55 20.05 -38.3M15.45,-32.65Q15.45 -35.8 21 -30.1Q21 -29.2 20.1 -29.2Q19.3 -29.2 17.3 -31L15.45 -32.65M15.65,-27.3Q21.35 -24.9 21.35 -20.7Q21.35 -18.85 19.8 -18.85Q18.3 -18.85 17.35 -20.65L16.15 -23Q15.2 -23.85 12.25 -24.9Q9.95 -25.7 9.95 -26.6Q9.95 -27.95 11.75 -28.1Q13.4 -28.25 15.65 -27.3M12.8,-26.2Q13.95 -25.6 14.75 -25.55L13.7 -26.05L12.75 -26.25L12.8 -26.2M5.6,-13.65Q6.6 -13.55 7.15 -12.05L7.65 -10.35L10.5 -9.3Q13.2 -8.4 13.75 -7.8L16.6 -4.3Q17.5 -2.85 17.5 -1.15Q17.5 3.45 9.9 7.1Q3.9 10 0.6 10Q-4.15 10 -5.55 6.65Q-6.25 5 -6.05 3.1Q-6.05 -0.1 -3.4 -3.45L-0.75 -7Q-0.75 -7.7 -1.8 -8.75Q-3 -9.85 -4.1 -9.85Q-5.8 -9.85 -7.25 -9.1Q-8.65 -8.4 -10.4 -8.4Q-13.7 -8.4 -14.9 -11.2Q-15.55 -12.6 -15.5 -14.1Q-15.5 -15.35 -14.95 -16.55L-15 -16.9Q-15 -19.1 -11.75 -21.25Q-7.35 -24.2 -0.85 -21.55Q0.2 -20.9 3.05 -17.25L5.6 -13.65M34.55,3.6L34.75 7.05Q34.75 8.6 33.95 10.35Q32.7 13.1 30.15 13.1Q29.2 13.1 28.7 12.35L28.4 11.55L29.65 8.75L31.05 5.75Q30.75 3.9 30.75 2.75Q30.7 0.5 32.8 0.5Q34.1 0.5 34.55 3.6M34.75,21.7L34.45 22.9Q34.05 23.65 33.15 23.65Q31.8 23.65 31.3 22.25L31.05 21Q31.05 19.45 32.9 19.9Q34.75 20.3 34.75 21.7M3.5,26.5L5.95 28Q6.85 28.5 6.85 29.25Q6.85 31.2 2.15 31.2L-1.3 30.7L-2.35 30.2Q-2.7 30.2 -4.45 31.25Q-6.2 32.25 -7.65 32.25Q-10.2 32.25 -12.1 30.5Q-13.5 29.2 -13.5 28.6Q-13.5 27.85 -12.75 27.2Q-11.9 26.45 -10.8 26.45Q-9.6 26.45 -8.7 27.2Q-7.85 27.95 -7.3 27.95Q-6.4 27.95 -2.7 24.7Q0.5 21.9 2.45 23.3Q3.05 23.85 3 25Q2.95 26.1 3.5 26.5M6.15,36.95Q6.15 37.9 4.8 39Q3.2 40.3 1.05 40.3Q-1.3 40.3 -2.6 39.35Q-3.5 38.7 -3.5 38.15Q-3.5 37.15 1.35 36.2Q6.15 35.3 6.15 36.95M-43.1,-3Q-41.8 -2.9 -41.8 -0.75L-41.8 0.4Q-41.95 1.55 -42.85 1.55Q-43.9 1.55 -44.45 -1.55Q-44.45 -3.1 -43.1 -3M-7.1,-37.55Q-8.2 -36.45 -10.2 -36.75L-13.5 -36.85L-15.95 -35.65Q-18.1 -34.6 -19.2 -34.6Q-20.75 -34.6 -21.15 -35.65L-21.25 -36.75Q-21.25 -38.6 -20.15 -39.3L-15.8 -42.15L-10.55 -42.15Q-7.85 -41.75 -6.9 -41Q-6.2 -40.5 -6.2 -39.45L-6.3 -38.55Q-6.45 -38.15 -7.1 -37.55M-8.05,-39.6L-8.85 -39.85Q-8.95 -39.55 -9.35 -39.15L-9.5 -39L-8.55 -39.15L-8.05 -39.6M-12.3,-33.25Q-10.35 -32.45 -10.35 -29.8Q-10.35 -27.7 -11.3 -27.4L-14.45 -26.85L-16.5 -25.15Q-18.15 -23.75 -20.1 -23.75Q-21.9 -23.75 -22.55 -24.95L-22.85 -26.2Q-22.85 -28.35 -20.9 -30.35Q-19.1 -32.2 -16.6 -33.1L-12.3 -33.25M-37.8,-5.15Q-36.7 -6.45 -36.7 -4.7L-37.2 -1.45L-36.75 0.1L-36.35 1.15Q-36.35 2.05 -37.35 2.05Q-38.5 2.05 -38.85 0.35L-38.95 -1.45Q-38.95 -3.8 -37.8 -5.15M-24.25,-8.85Q-25.55 -6.8 -25.85 -5.5Q-25.8 -3.55 -25.9 -2.45Q-26.1 -0.35 -27.7 -0.35Q-29.2 -0.35 -29.85 -2.2L-30.2 -4.15Q-30.2 -7.15 -26.6 -10.35Q-23.05 -13.55 -23.05 -10.9L-24.25 -8.85" />
<path style="fill:#FFCC00;fill-opacity:1" d="M30.6,-29.3L30.3 -28.7L29.8 -28.55Q29.25 -28.55 28.9 -29.05L28.7 -29.55Q28.7 -30.45 29.65 -30.15Q30.6 -29.9 30.6 -29.3M16.35,-24.75Q16.35 -27.2 19.65 -23.15L19.5 -22.7Q19.3 -22.4 18.9 -22.4Q18.4 -22.4 17.35 -23.55L16.35 -24.75M30.6,10.35Q30.1 10.35 29.95 10L29.85 9.65Q31.15 7.4 31.25 6.35Q31.4 4.95 32.15 4.55Q32.85 4.15 32.85 5.7Q32 10.35 30.6 10.35M-11.4,-38.75L-14.3 -37.95L-17.15 -36.9Q-18.15 -36.9 -18.4 -37.5L-18.5 -38.1Q-18.5 -39.85 -14.65 -40.4Q-10.8 -40.95 -10.8 -39.45Q-10.8 -38.95 -11.4 -38.75M-15.35,-28Q-16.8 -26.25 -17.55 -26.25Q-18.5 -26.25 -18.9 -27.05L-19.05 -27.85Q-19.05 -30.05 -16.5 -31.05Q-14 -32 -14 -30.05Q-14 -29.6 -15.35 -28M-26.8,-5.95Q-27.55 -4.4 -27.9 -4.4Q-28.75 -4.4 -28.65 -5.2Q-28.65 -6.35 -27.35 -7.95Q-26.1 -9.55 -26.1 -7.65L-26.8 -5.95" />
</g>
</svg>
