<?xml version="1.0" encoding="utf-8"?>
<svg version="1.1" id="Layer_1"
xmlns="http://www.w3.org/2000/svg"
xmlns:xlink="http://www.w3.org/1999/xlink"
xmlns:author="http://www.sothink.com"
width="139px" height="256px"
xml:space="preserve">
<g id="351" transform="matrix(1, 0, 0, 1, -21.5, -319.9)">
<path style="fill:#000000;fill-opacity:0.2" d="M62.35,553.45Q76 549.55 95.5 549.35Q115.1 549.2 128.7 552.85Q142.5 556.5 142.55 561.85Q142.6 567.2 128.85 570.95Q115.35 574.9 95.75 575.05Q76.25 575.25 62.5 571.55Q48.65 568.05 48.6 562.7Q48.55 557.35 62.35 553.45" />
<path style="fill:#FC850F;fill-opacity:1" d="M51.1,346.05Q53 352.65 55.2 359.05L59.75 355.35L60.95 353.1L63.45 354.35L64.45 350.45L70 351.65L60.4 340.9Q50.45 330.4 48.9 331.6Q47.35 332.8 51.1 346.05M96.95,541.25Q95.65 546.55 93.85 549.65L92.4 548.5Q91.4 547.7 90.2 547.1Q89.4 546.9 88.2 546.1Q87.3 545.5 86.25 545.5L87.25 546.85L88.55 548.15L90.2 549.4L92.3 550.65L92.85 550.6L93.6 550.05L93.55 550.15Q90.2 555.45 82.65 559.65Q78.85 561.75 75.7 562.75Q73.1 563.95 68.05 564.05L54.1 563.3L53.75 563.2L53.55 563.15L49.1 562.2Q49.5 559.15 50.55 555.8Q52.6 549.15 55.85 547.85Q59.1 546.55 63.55 548.65Q65.75 549.65 67.3 550.95Q69.6 543.85 70.45 536.2Q71.35 527.95 70.6 519.05Q64.3 518.1 57.5 515.55Q51.45 513.25 45.55 504.1L43.45 500.55Q39.85 493.95 39.75 488.85Q39.65 483.3 42.35 476.5L43.8 473.5L42.5 473.45Q27.5 472.95 24.15 464.9Q21 457.2 26.65 448.45Q30.6 442.25 36.6 438.1Q39.8 435.9 47.35 432.55Q51.1 430.9 54.2 429.7L54.2 426.7L53.25 425.9L50.7 423.55L50.55 423.4L50.5 423.35L48.6 421.05L47.55 419.45Q46.25 417 44.9 413.05L44.05 410.15L43.9 409.7L43.85 409.5L43.65 408.85L42.35 404.15L40.2 394.6L36 395.05L41.95 383.15L33.85 385.05L42.35 375.1L34.9 373.35L45.8 368.1L39.4 364.05L50.15 362.6Q47.65 354.35 45.9 345.55Q42.35 328.05 46 325.65Q49.65 323.25 63.15 336Q69.9 342.4 75.9 349.25L77.35 348.45Q81.2 346.4 83.05 346.2Q84.65 346.1 86.35 347.75Q88.2 349.5 89.2 349.6L93.5 348.75Q96.7 347.7 97.35 347.7Q98.9 347.7 101.45 349.9L101.6 350.05L101.7 349.9L104.05 345.35L106.15 341.45L109.65 335.55Q118.45 321.3 122.55 322.65Q126.45 323.95 125.4 341.45L125.3 343.05L125.15 345.35L124.8 349.9L124.75 350.25L124.5 352.3L124.2 355.15L123.5 360.15L123.2 361.9L131.1 366.4L122.1 370.4L133.85 375.9L124.9 378.25L130.25 380.35L125.35 385.5L128.95 388.65L125.9 400.95L125.2 403.55L124.95 403.25L125 403L124.85 402.6L125.25 402.2Q124.8 401.75 123.55 401.4L123.5 401.35L119.85 400.15Q117.5 399.55 117.5 400.3Q117.5 400.75 119.35 401.4Q121.4 402.1 121.85 402.35L121.9 402.4Q124.15 403.35 124.85 403.8L125.1 403.8L123.95 407.95L123.75 407.7L123.45 407.55L123.5 407.5L123.85 407.1Q123.35 406.6 121.55 406.2L119.35 405.9L118.75 405.95L117.4 405.75L117.35 406.05Q117.35 406.25 118.7 406.9L120.5 407.55L120.6 407.75L122.95 408.7L123.45 408.7L123.55 408.4L123.45 408.1L123.55 408.1L123.85 408.15L123.65 408.85L123.45 409.5L123.45 409.6L121.65 409L120.9 408.95L118.15 408.25L114.35 407.6L114.25 407.7L114.1 407.9L116.35 409.2L118.45 410.05Q119 410.8 121.6 411.3L122.45 411.3L122.55 411.1L122.35 410.9L123 410.9L122.45 412.55L121.35 412.1L121 411.85L120.2 411.85L117.2 410.75Q114.7 409.95 113.45 410.25L113.35 410.55Q113.8 411.1 115.6 411.7L117.05 412.2L118.75 413.35L118.95 413.7L119.5 413.95L120.3 414.1L120.45 414.3L121.1 414.35L121.9 414.15L121.95 413.95L121.8 413.8L121.95 413.7L122 413.4L122.2 413.35L121.4 415.7L120.85 417L120.7 417.5Q120.45 417.2 119.75 417L119.05 416.9L118.75 416.7L116.65 416.05Q114.35 415.45 113.25 415.35L113.15 415.4L113 415.6Q113 416.05 115.05 416.95L117.9 417.8L117.95 417.8L118.45 418.05L119.05 418.45Q119.5 418.75 119.85 418.85L120.5 418.7Q120.4 424.25 122.1 427.65L134.1 432.55Q141.65 435.9 144.85 438.1Q150.85 442.25 154.8 448.45Q160.45 457.2 157.3 464.9Q154.15 472.45 140.8 473.35L141.7 476.15Q143.25 482.55 142.7 489Q142.2 494.45 140.25 499.15L139.65 500.55Q136.1 508.05 128.8 513.35Q124.8 516.3 121.45 517.5Q120.5 529.1 121.25 536.2Q122.1 543.85 124.4 550.95Q125.95 549.65 128.15 548.65Q132.6 546.55 135.85 547.85Q139.1 549.15 141.15 555.8Q142.2 559.15 142.6 562.2L138.15 563.15L137.95 563.2L137.6 563.3L123.65 564.05Q114.45 563.85 113.35 559.95Q112.25 556.1 112.7 537.05L113.35 519Q106.3 520.55 99.35 520.8L98.5 532L95.6 531.55L94.1 531.3Q92.95 531.25 92.5 531.65L92.6 531.9L94.15 532.5L96.1 533.1L97.6 533.05L98 532.6L98.45 532.35L97.2 540.15L96.95 540.05L95.55 539.65L91.35 538.95L91.1 539.1L91.35 539.55L91.7 539.65L91.95 540.05Q92.45 540.15 94.15 540.8L96.05 541.3L96.95 541.25M120.4,418L120.5 418L120.5 418.05L120.5 418.1L120.4 418M78.55,376.5L78.3 376.8L77.75 377.55L75.35 381.65L76.95 385.35Q78.55 387.4 81.05 388.45Q83.05 389.3 85.65 389.5Q90.55 389.85 94.7 388.45Q97.6 387.45 100.15 385.6Q105.05 381.95 105.4 377.55L105.4 376.8L105.4 376.5L105.3 375.5Q105.05 373.9 104.25 372.6Q103.05 370.85 100.75 369.65Q99.4 368.95 97.9 368.6L95.25 368.25L95.2 368.25L95.45 367.95Q96.15 367 96.4 365.65Q97 362.65 94.2 360.15L94 360Q91 357.45 88.1 359.55Q87.65 359.85 87.35 360.15Q86.45 361 85.85 362.1L85.55 361.2Q85.3 360.5 83.85 359.05L82.55 358.1Q81 357.55 80.55 357.55L80.35 357.6L78.85 357.6L78.75 357.65L77.7 357.75Q77.2 357.75 77.05 358Q75.9 358.25 75.1 358.8L73.65 359.95L72.7 361.15L72.65 361.8L72.45 362.45L72.05 363.7L71.8 364.3L71.65 364.95Q71.45 365.35 71.4 366.25L71.2 367.55L71.15 372.3L71.25 374.3Q71.4 375.1 72.25 376.95L73.25 379.3L73.85 380.45L74.1 381.05L74.9 381.6L75.9 380.35L76.85 378.75L77.8 377.3Q78.2 376.65 78.9 375.95L78.55 376.5M82.25,372.5L83.3 371.45L85.1 369.95L85.25 369.9L85.95 367.8L86.2 365.6L86 363Q86.45 365.35 86.15 367.95L86.05 368.6L85.75 370.05Q83.9 371 82.25 372.5M111.95,339.95L111.15 341.45L109.15 345.35L106.9 349.9L106.65 350.25L106.2 351.25L109.7 353.7L113.55 352.8L113.15 357.25L116.35 355.35L117.85 360.05L118.75 355.15L119.15 352.3L119.45 350.25L119.5 349.9L120.1 345.4L120.1 345.35L120.55 341.45Q121.7 330.4 120 329.7Q118.05 328.85 111.95 339.95M124.55,437.5Q127.1 448.95 135.35 456.3L135.5 456.3Q140.7 456 141.5 451.75Q142.25 447.65 135.3 442.85L124.55 437.5M91.05,428.5L86.85 436.05L84.75 440.95L80.45 443.85L76.15 442.2L77.95 449.8L75 456.35L75.95 457.15Q76.75 458.1 77.1 459.5Q77.7 462 75.9 464.1Q74.8 465.4 72.55 466.05L73.2 467.75Q73.85 469.6 73.9 470.45L82.05 470.05L83.5 476.8L87.8 477.4L89.25 481.3L92.1 478.25L96.6 481.1L98.45 471.5L104.4 469.25L105.6 464.15L105.55 464.1Q103.75 462 104.35 459.5Q104.7 458.1 105.5 457.15L106.5 456.3L106.95 456.1L104.2 441.8L96 440.15L91.05 428.5M122.35,472.3Q122.2 472.3 122.2 472.45L122.3 472.35L122.35 472.3M63.35,411.45L62.8 410.7Q62.45 410.15 62.1 410.2L62.05 410.25L62 410.45Q62 411.5 63.25 413.5L64.2 415.1L64.95 415.85L65.7 416.35L65.85 416.6Q66.65 417.25 68.85 417.45L69.5 417.55L70.35 417.6L72.45 417.1L72.6 416.85L72.5 416.65L69.7 416.15L68.15 415.8L68.15 415.7L68.1 415.6Q66.95 415.2 66.2 414.5L64.8 413L63.35 411.45M52.35,406.7Q50.9 406.75 50.05 407.15L48.45 407.9Q46.55 408.55 45.65 409.5L45.65 409.7L44.9 410.05Q44.55 410.3 44.55 410.65L44.6 410.9L44.85 410.95Q44.75 411.35 45.2 411.35Q45.65 411.35 46.55 410.55L46.6 410.55L49.6 408.95L52.6 406.95L52.35 406.7M46.35,399.6L44.35 400.3L43.25 400.8L42.4 401.5L42.45 401.65L42.65 401.7Q42.3 402 42.3 402.15L42.4 402.35L42.35 402.55L42.45 403L42.7 403.05L43.55 402.6L43.85 402.6L45.75 401.55Q47.1 400.75 47.7 400.5L50.75 398.7L50.5 398.45Q47.9 398.8 46.35 399.6M44.55,404.75Q43.5 405.3 43.5 406.1L43.35 406.65L43.45 406.9L43.85 407.15L44.35 407.2L45.75 406.1L46.4 405.5Q49.35 403.75 49.35 403.15L49.25 402.85L47.85 403.25L46.6 403.75Q45.9 403.9 45.35 404.35L45.25 404.45L44.55 404.75M47.3,412.95Q48.2 412.7 50.3 411.25L52.15 410.3Q53.35 409.65 53.35 409.2L53.25 408.95L51.4 409.35L50.9 409.6Q49 410.1 47.55 410.9Q46.3 411.6 45.8 412.35Q45.1 412.85 45.1 413.1L45.2 413.3L45.6 413.35Q45.85 413.7 46.25 413.7L47.3 412.95M47.5,413.85L46.9 414.15Q46.1 414.55 46.1 414.85L46.2 415.05L46.5 415.15L46.3 415.4Q46.3 415.75 46.45 415.9L46.75 415.9L47.9 415.15L48.05 415L50.9 413.4Q54 411.5 54 411.05L53.9 410.75Q52.45 411 50.65 412L47.55 413.75L47.5 413.85M49.6,420.35L49.55 420.8L49.6 421.4L49.95 421.4L50.4 421.3L50.45 421.4L50.95 421.45Q55.85 417.8 55.85 417.15L55.6 416.85L53.9 417.45L52.45 418.2Q51.9 418.7 51.3 419.15L51.2 419.25L50.9 419.3L50.5 419.65L50.45 419.65L50.2 419.85L49.6 420.35M46.15,442.85Q39.2 447.65 39.95 451.75Q40.75 456 45.95 456.3L50 456Q53.55 448.45 53.2 438.9L46.15 442.85M79.15,543.8Q88.55 536.25 92.35 520.8Q85.6 520.5 78.35 518.8L79 537.05L79.15 543.8M98.5,525.65L98.75 525.35L98.5 525.1L94.35 525.1Q93.75 525.1 93.6 525.55L94.35 525.9L94.45 526.05L98.45 526.2L98.6 525.9L98.5 525.65M83.1,550.9L83.1 551.55L84.55 553.95Q85.5 555.4 86.6 556.4L86.95 556.45L87.1 556.2L86.75 555.65L87.45 556.15L87.95 556.15L88 556.1L88.1 555.9L86 553.4L83.7 550.9L83.1 550.9" />
<path style="fill:#E66006;fill-opacity:1" d="M48.9,331.6Q50.45 330.4 60.4 340.9L70 351.65L64.45 350.45L63.45 354.35L60.95 353.1L59.75 355.35L55.2 359.05Q53 352.65 51.1 346.05Q47.35 332.8 48.9 331.6M120,329.7Q121.7 330.4 120.55 341.45L120.1 345.35L120.1 345.4L119.5 349.9L119.45 350.25L119.15 352.3L118.75 355.15L117.85 360.05L116.35 355.35L113.15 357.25L113.55 352.8L109.7 353.7L106.2 351.25L106.65 350.25L106.9 349.9L109.15 345.35L111.15 341.45L111.95 339.95Q118.05 328.85 120 329.7" />
<path style="fill:#FF6D6B;fill-opacity:1" d="M85.75,370.05Q87.65 369 89.7 368.6L90.6 368.45L95.2 368.25L95.25 368.25L97.9 368.6Q99.4 368.95 100.75 369.65Q103.05 370.85 104.25 372.6Q105.05 373.9 105.3 375.5L105.4 376.5L105.4 376.8L105.4 377.55Q105.05 381.95 100.15 385.6Q97.6 387.45 94.7 388.45Q90.55 389.85 85.65 389.5Q83.05 389.3 81.05 388.45Q78.55 387.4 76.95 385.35L75.35 381.65L77.75 377.55L78.3 376.8L78.55 376.5L78.9 375.95L79.05 375.8L80.3 374.35L82.25 372.5Q83.9 371 85.75 370.05" />
<path style="fill:#FFFFFF;fill-opacity:1" d="M90.6,368.45L89.7 368.6Q87.65 369 85.75 370.05L86.05 368.6L86.15 367.95Q86.45 365.35 86 363L86.2 365.6L85.95 367.8L85.25 369.9L85.1 369.95L83.3 371.45L82.25 372.5L80.3 374.35L79.05 375.8L78.9 375.95Q78.2 376.65 77.8 377.3L76.85 378.75L75.9 380.35L74.9 381.6L74.1 381.05L73.85 380.45L73.25 379.3L72.25 376.95Q71.4 375.1 71.25 374.3L71.15 372.3L71.2 367.55L71.4 366.25Q71.45 365.35 71.65 364.95L71.8 364.3L72.05 363.7L72.45 362.45L72.65 361.8L72.7 361.15L73.65 359.95L75.1 358.8Q75.9 358.25 77.05 358Q77.2 357.75 77.7 357.75L78.75 357.65L78.85 357.6L80.35 357.6L80.55 357.55Q81 357.55 82.55 358.1L83.85 359.05Q85.3 360.5 85.55 361.2L85.85 362.1Q86.45 361 87.35 360.15Q87.65 359.85 88.1 359.55Q91 357.45 94 360L94.2 360.15Q97 362.65 96.4 365.65Q96.15 367 95.45 367.95L95.2 368.25L90.6 368.45M79.35,364.5Q78.9 364.85 78.55 365.45Q78.1 365.9 78.1 367.25Q78.1 369.55 79.85 370.6L80.7 370.6Q81.45 370.45 82 369.6L82.45 368.25Q82.45 365.35 80.9 364.65Q80.2 363.8 79.35 364.5M90.45,367.7Q91.35 367.7 91.6 366.9L91.7 365.75Q91.7 363.85 90.2 363.65Q88.7 363.45 88.7 365.7L88.8 366.8Q89.15 367.7 90.45 367.7" />
<path style="fill:#AAD614;fill-opacity:1" d="M96,440.15L104.2 441.8L106.95 456.1L106.5 456.3L105.5 457.15Q104.7 458.1 104.35 459.5Q103.75 462 105.55 464.1L105.6 464.15L104.4 469.25L98.45 471.5L96.6 481.1L92.1 478.25L89.25 481.3L87.8 477.4L83.5 476.8L82.05 470.05L73.9 470.45Q73.85 469.6 73.2 467.75L72.55 466.05Q74.8 465.4 75.9 464.1Q77.7 462 77.1 459.5Q76.75 458.1 75.95 457.15L75 456.35L77.95 449.8L76.15 442.2L80.45 443.85L84.75 440.95L86.85 436.05L91.05 428.5L96 440.15" />
<path style="fill:#582903;fill-opacity:1" d="M124.85,403.8Q124.15 403.35 121.9 402.4L121.85 402.35Q121.4 402.1 119.35 401.4Q117.5 400.75 117.5 400.3Q117.5 399.55 119.85 400.15L123.5 401.35L123.55 401.4Q124.8 401.75 125.25 402.2L124.85 402.6L125 403L124.95 403.25L125.2 403.55L125.3 403.7L125.2 403.8L125.1 403.8L124.85 403.8M123.55,408.1L123.45 408.1L123.55 408.4L123.45 408.7L122.95 408.7L120.6 407.75L120.5 407.55L118.7 406.9Q117.35 406.25 117.35 406.05L117.4 405.75L118.75 405.95L119.35 405.9L121.55 406.2Q123.35 406.6 123.85 407.1L123.5 407.5L123.45 407.55L123.75 407.7L123.95 407.95L123.95 408.15L123.85 408.15L123.55 408.1M122.35,410.9L122.55 411.1L122.45 411.3L121.6 411.3Q119 410.8 118.45 410.05L116.35 409.2L114.1 407.9L114.25 407.7L114.35 407.6L118.15 408.25L120.9 408.95L121.65 409L123.45 409.6L123.65 409.65L123.75 409.85L123.6 410.1L123.2 410.15L123.1 410.6L123.05 410.9L123 410.9L122.35 410.9M122,413.4L121.95 413.7L121.8 413.8L121.95 413.95L121.9 414.15L121.1 414.35L120.45 414.3L120.3 414.1L119.5 413.95L118.95 413.7L118.75 413.35L117.05 412.2L115.6 411.7Q113.8 411.1 113.35 410.55L113.45 410.25Q114.7 409.95 117.2 410.75L120.2 411.85L121 411.85L121.35 412.1L122.45 412.55L122.85 412.95L122.8 413.3L122.2 413.35L122 413.4M120.5,418.1L120.7 418.3L120.75 418.45L120.6 418.65L120.5 418.7L119.85 418.85Q119.5 418.75 119.05 418.45L118.45 418.05L117.95 417.8L117.9 417.8L115.05 416.95Q113 416.05 113 415.6L113.15 415.4L113.25 415.35Q114.35 415.45 116.65 416.05L118.75 416.7L119.05 416.9L119.75 417Q120.45 417.2 120.7 417.5L120.75 417.7L120.65 417.9L120.5 418L120.4 418L120.5 418.1M98,532.6L97.6 533.05L96.1 533.1L94.15 532.5L92.6 531.9L92.5 531.65Q92.95 531.25 94.1 531.3L95.6 531.55L98.5 532L98.6 532.2L98.45 532.35L98 532.6M96.05,541.3L94.15 540.8Q92.45 540.15 91.95 540.05L91.7 539.65L91.35 539.55L91.1 539.1L91.35 538.95L95.55 539.65L96.95 540.05L97.2 540.15L97.55 540.45L97.35 540.7L97.65 540.95L97.45 541.2L96.95 541.25L96.05 541.3M93.85,549.65L94.1 549.85L93.95 550.1L93.6 550.05L92.85 550.6L92.3 550.65L90.2 549.4L88.55 548.15L87.25 546.85L86.25 545.5Q87.3 545.5 88.2 546.1Q89.4 546.9 90.2 547.1Q91.4 547.7 92.4 548.5L93.85 549.65M80.9,364.65Q82.45 365.35 82.45 368.25L82 369.6Q81.45 370.45 80.7 370.6L79.85 370.6Q78.1 369.55 78.1 367.25Q78.1 365.9 78.55 365.45Q78.9 364.85 79.35 364.5Q80.2 363.8 80.9 364.65M88.8,366.8L88.7 365.7Q88.7 363.45 90.2 363.65Q91.7 363.85 91.7 365.75L91.6 366.9Q91.35 367.7 90.45 367.7Q89.15 367.7 88.8 366.8M64.8,413L66.2 414.5Q66.95 415.2 68.1 415.6L68.15 415.7L68.15 415.8L69.7 416.15L72.5 416.65L72.6 416.85L72.45 417.1L70.35 417.6L69.5 417.55L68.85 417.45Q66.65 417.25 65.85 416.6L65.7 416.35L64.95 415.85L64.2 415.1L63.25 413.5Q62 411.5 62 410.45L62.05 410.25L62.1 410.2Q62.45 410.15 62.8 410.7L63.35 411.45L64.8 413M52.6,406.95L49.6 408.95L46.6 410.55L46.55 410.55Q45.65 411.35 45.2 411.35Q44.75 411.35 44.85 410.95L44.6 410.9L44.55 410.65Q44.55 410.3 44.9 410.05L45.65 409.7L45.65 409.5Q46.55 408.55 48.45 407.9L50.05 407.15Q50.9 406.75 52.35 406.7L52.6 406.95M50.5,398.45L50.75 398.7L47.7 400.5Q47.1 400.75 45.75 401.55L43.85 402.6L43.55 402.6L42.7 403.05L42.45 403L42.35 402.55L42.4 402.35L42.3 402.15Q42.3 402 42.65 401.7L42.45 401.65L42.4 401.5L43.25 400.8L44.35 400.3L46.35 399.6Q47.9 398.8 50.5 398.45M45.25,404.45L45.35 404.35Q45.9 403.9 46.6 403.75L47.85 403.25L49.25 402.85L49.35 403.15Q49.35 403.75 46.4 405.5L45.75 406.1L44.35 407.2L43.85 407.15L43.45 406.9L43.35 406.65L43.5 406.1Q43.5 405.3 44.55 404.75L45.25 404.45M46.25,413.7Q45.85 413.7 45.6 413.35L45.2 413.3L45.1 413.1Q45.1 412.85 45.8 412.35Q46.3 411.6 47.55 410.9Q49 410.1 50.9 409.6L51.4 409.35L53.25 408.95L53.35 409.2Q53.35 409.65 52.15 410.3L50.3 411.25Q48.2 412.7 47.3 412.95L46.25 413.7M47.55,413.75L50.65 412Q52.45 411 53.9 410.75L54 411.05Q54 411.5 50.9 413.4L48.05 415L47.9 415.15L46.75 415.9L46.45 415.9Q46.3 415.75 46.3 415.4L46.5 415.15L46.2 415.05L46.1 414.85Q46.1 414.55 46.9 414.15L47.5 413.85L47.55 413.75M50.2,419.85L50.45 419.65L50.5 419.65L50.9 419.3L51.2 419.25L51.3 419.15Q51.9 418.7 52.45 418.2L53.9 417.45L55.6 416.85L55.85 417.15Q55.85 417.8 50.95 421.45L50.45 421.4L50.4 421.3L49.95 421.4L49.6 421.4L49.55 420.8L49.6 420.35L50.2 419.85M98.6,525.9L98.45 526.2L94.45 526.05L94.35 525.9L93.6 525.55Q93.75 525.1 94.35 525.1L98.5 525.1L98.75 525.35L98.5 525.65L98.6 525.9M83.7,550.9L86 553.4L88.1 555.9L88 556.1L87.95 556.15L87.45 556.15L86.75 555.65L87.1 556.2L86.95 556.45L86.6 556.4Q85.5 555.4 84.55 553.95L83.1 551.55L83.1 550.9L83.7 550.9" />
<path style="fill:#000000;fill-opacity:0.2" d="M46.65,326.55Q46.65 327.2 47 327.7L46.95 327.8L46.65 329.25Q46.5 330.15 46.5 331.95L46.5 334.8Q46.55 337.6 46.8 339L47.25 342.55Q47.55 344.65 48 346.05L48.9 349.6Q49.45 351.8 50.1 353.1L51.75 356.7L52.8 358.9L53.75 360.05L54 362.4L53.95 363.75L53.25 365.4L51.8 366.95Q50.7 367.95 50.7 368.45Q50.7 369 52 369.55Q53.3 370.15 53.3 371.25L51.25 373.75Q49.2 375.95 49.2 376.4L49.55 378.05L49.05 379.35Q48.5 380.65 48.5 381.45L48.9 383.3L48.35 387.9L48.35 388.8Q48.45 389.25 49.35 389.75L47.4 393.1Q47.4 393.4 48.35 394.05L49.5 394.95L50.7 397.2L51.15 399.45Q51.25 400.55 51.6 401.15L52.25 403.85L53.3 407.85L54.95 411.65L56.15 413.6L57.3 415.5Q58 417.05 60.75 419.35L65.7 423.15Q66.65 423.9 72.5 426.6Q74.2 427.35 75.85 427.75L86.9 428.7L93.1 428.15Q96.85 427.6 97.95 427.05Q99.75 426.15 103.2 424.65L108.35 422.25L113.15 419.3L117.3 416.15L119.7 414.6L122.3 412.95L122.65 412.7L122.85 412.95L122.8 413.3L122.2 413.35L121.4 415.7L120.85 417L120.7 417.5L120.75 417.7L120.65 417.9L120.5 418L120.5 418.05L120.5 418.1L120.7 418.3L120.75 418.45L120.6 418.65L120.5 418.7Q120.4 423 121.45 426.05L121.4 426.15Q121.05 427.3 121.05 428.7Q121.05 430.35 121.9 431.45Q122.95 432.8 125.85 434.15L135.45 438.2Q139.4 440.05 141.35 442.25Q143.85 445.15 143.85 449.4L143.55 451.1L142.65 452.85Q141.85 454.9 138.85 455.5Q141 454.35 141.5 451.75Q142.25 447.65 135.3 442.85L124.55 437.5Q126.9 448.1 134.15 455.15L132.6 455.15L132.45 455.35L131.45 455.05L128.75 454.4L125.9 453.8L123.65 453Q121.15 452.3 120.35 451.4Q119.7 450.2 119.1 449.8L120.2 448.15Q121.05 446.35 121.05 444.6Q121.05 443.05 119.7 441.25Q117.95 438.9 115.2 439.05Q114.05 439.45 113.55 440.45Q113.3 441 113 442.1Q112.55 443.7 112.55 445.3Q112.55 447 113 448.45Q113.35 449.55 113.95 450.2L114.7 451.45Q115.5 452.6 115.5 454.35Q115.5 456.35 112.8 457.65Q110.1 458.95 110.1 461.8L110.4 463.3L110.85 464.55L112.4 465.8L114.2 466.8L113.2 467.85Q112.65 468.5 112.65 469.15Q112.65 470.8 113.65 472.15Q114.85 473.8 117.15 474.3L115.95 475.75Q115.5 476.4 115.5 477.15Q115.5 477.8 116 478.8Q116.75 480.3 118.1 480.3Q120.1 480.3 121.75 477.75Q123.1 475.75 123.5 473.3L123.65 473.3L124.15 472.25L124.2 472.25L124.8 472.65L125.85 472.8L128.25 472.7L132.25 473.3L135.85 472.95L140.4 473.3L141.9 473.25L140.8 473.35L141.7 476.15L142.15 478.2L140.55 478.5L134.15 479.25L128.35 479.2L126.8 479.15L126.05 479.4Q125.9 479.45 125.45 479.75L122.3 482.45Q118.65 484.8 113.35 484.8Q108.6 484.8 105.35 481.95Q102.15 479.1 101.25 479.1Q100.25 479.1 99.2 481.15L97.95 483.9L96.65 483.9L90.95 483L90.3 483Q89.85 483.25 89.25 484.05L88.2 485.15L87.75 485.25L83.7 481.8L81.95 481.35Q80.65 481.1 80.6 480.35L80.55 479.3Q80.4 478.65 79.7 478.4Q77.3 478.35 76.7 477.7Q76.45 476.95 76.1 476.75L75.6 476.75Q74.4 478.05 74 481.25Q72.95 484 67.4 484.8L62.6 484.8Q60.45 484.55 57.75 482.55Q54.95 480.5 54.95 479.1L55.05 478.55L54.5 477.45L54.15 476.95L53.25 476.7L52.85 476.4L52.75 476.55L52.55 476.5L52.7 476.6Q52.35 477.05 51.75 478.4Q50.9 480.15 50.9 480.85L52.8 486.8Q53.3 489.8 56.25 492.9L58.9 495.85Q60.8 497.7 63.6 498.65L69 500.55L71.35 501.65Q73.3 502.4 75.45 502.55L86.85 502.55L89.7 502.2L91.65 502.2L94.9 502.95L100.8 503.7L102 503.55L107.7 503.1L109.65 502.65L111.85 502.25L117.3 501.8L123.45 501L125.45 500.6L127.7 500.1Q130.8 499.55 134.15 497.4Q136.85 495.65 138.5 493.8Q140.2 491.95 142.8 487.75L142.7 489Q142.2 494.45 140.25 499.15L139.65 500.55Q136.1 508.05 128.8 513.35Q125.25 515.95 122.2 517.2Q119.6 517.15 118.55 518.6L117.5 521.45L116.85 526.8L116.55 539.45Q116.55 540.9 116.7 541.5L116.7 549Q117.95 555.05 119.25 556.85Q121.25 559.5 126.5 559.5Q128.8 559.5 130.65 558.55L132.1 557.55L133.1 558.1L135.45 558.6L136.45 558.4L136.8 558.2Q137.2 558.2 137.45 558.45L140.55 558.3Q141.15 558 141.7 557.65L142.6 562.2L138.15 563.15L137.95 563.2L137.6 563.3L123.65 564.05Q114.45 563.85 113.35 559.95Q112.25 556.1 112.7 537.05L113.35 519Q106.3 520.55 99.35 520.8L99.2 522.9L99.1 522.9L97.95 523.2L95.65 523.45Q95.3 523.6 95.25 524L94.55 526.8Q94 529.75 93.05 532.5Q90.9 538.75 87 543.75L84.15 546.55Q82.35 548.05 80.85 548.85L79.9 549.3L79.5 549.75L79.5 551.25L79.35 554L78.75 559.65L78.75 561.6L75.7 562.75Q73.1 563.95 68.05 564.05L54.1 563.3L53.75 563.2L53.55 563.15L49.1 562.2Q49.5 559.15 50.55 555.8L50.75 555.2Q51.45 556.2 52.65 556.7Q54.1 556.25 54.8 557Q55.65 557.9 56.65 557.9Q57.15 557.9 58.95 556.8L59.85 557.75L60.75 558.45Q61.4 558.8 62.9 559.15L65.6 559.5Q67.25 559.5 68.55 558.75Q69.95 557.95 71.6 555.9Q72.35 555.05 72.8 553.7L73.35 551.55L74.1 547.5Q74.7 543.95 74.7 542.6L74.85 529.5L74.55 525.8L74.3 522.15L73.95 520.45Q73.35 518.85 71.8 518.85L70.6 519.1L70.6 519.05Q64.3 518.1 57.5 515.55Q51.45 513.25 45.55 504.1L43.45 500.55Q39.85 493.95 39.75 488.85Q39.65 483.55 42.1 477.15L42.2 477.15L42.55 476.35L42.45 476.35L43.45 474.2L45.6 473.75L52.35 473.55L57.15 473.1Q58.85 473.1 59 474.65L59.4 477.75Q60.2 479.55 61.4 480.4Q63.5 481.95 67.75 481.95Q70.4 481.95 71.7 480.65Q72.65 479.7 72.65 478.55L72.2 477.1L71.7 476.15Q73.85 473.9 73.85 473.55L74.15 470.9L73.75 468.4L73.4 466.55L73.95 466.15L73.95 465.95L73.55 466L75.15 464.7Q76.95 463.5 76.95 461.55Q76.95 460.3 76 458.45Q75.35 457.2 74.75 456.7L74.05 455.85L73.2 455.2L71.75 453.75Q71 452.95 71 451.6L71.25 448.2L71.1 446.35L70.95 444.6Q70.85 442.6 69.8 441.15L68.4 439.35Q67.3 438.8 66.65 438.95L66.2 439.2Q65.75 438.95 65.1 438.85Q62.95 438.5 61.35 440.85Q60.55 442 60.35 442.95L60.15 445L60.55 446.9L61.1 448.55L61.65 450.45L61.85 450.9L60.1 451.65L56.85 453.15L53.85 454.4L51.5 454.9L50.35 455.2Q53.5 448.05 53.2 439.2L53.3 438.9L53.7 436.95L53.55 436.05L53.55 435.8L53.25 434.6L52.9 434.2L52.65 433.8L50.55 434.1L49.35 434.7Q48.25 435.25 47.1 435.75Q45.95 436.2 44.85 436.85L42.8 438.05Q39.7 439.8 36.15 443.75Q34.9 445.15 34 446.8Q33.1 448.55 32.9 449.9L32.15 453.1Q31.55 455.2 31.55 456.15Q31.55 457 32.55 460.65L32.95 461.7L33.95 462.8Q35.6 463.8 39.5 464.3L45.65 464.4L52.65 463.4Q55.9 463.3 57 461.75L58.1 459.55Q59.2 457.8 60.95 457.8Q62.2 457.8 62.75 458.7L63.45 460.65Q64.45 463.5 68.45 463.5Q72.05 463.5 73.9 461.35Q75 460.05 75.15 458.75L75.35 459.1Q76.25 460.55 76.25 461.55Q76.25 463.05 74.45 464.3L73.5 465.05Q73.15 465.15 72.7 465.4L71.9 466.05L71.25 466.05L64.65 466.2L64.15 466.45L63.9 466.75Q63.55 467.2 63.3 468.5Q63 469.95 63 471.15Q63 474.15 64.9 475.55L64.75 475.75L64.35 476.7Q64.05 477.4 64.05 478.45L64.35 480.1L64.8 480.95Q63.15 480.65 62.05 479.95Q60.45 478.95 60 477.3Q59.65 475.9 59.7 474.6L59.3 473.3Q59.15 473 58.35 472.7Q57.4 472.35 56.35 472.35L55.2 472.5L45.3 473.2L43.55 473.5L42.5 473.45Q27.5 472.95 24.15 464.9Q21 457.2 26.65 448.45Q30.6 442.25 36.6 438.1Q39.8 435.9 47.35 432.55Q51.1 430.9 54.2 429.7L54.2 426.7L53.25 425.9L50.7 423.55L50.55 423.4L50.5 423.35L48.6 421.05L47.55 419.45Q46.25 417 44.9 413.05L44.05 410.15L43.9 409.7L43.85 409.5L43.65 408.85L42.35 404.15L40.2 394.6L36 395.05L41.95 383.15L33.85 385.05L42.35 375.1L34.9 373.35L45.8 368.1L39.4 364.05L50.15 362.6Q47.65 354.35 45.9 345.55Q42.35 328.05 46 325.65Q46.45 325.35 47.05 325.3L46.75 325.55L46.65 326.55M49,329.4L49.05 329.35L49.1 329.35L49 329.4M48.95,330.8Q49.35 330.8 49.65 330L49.85 329.9L53.85 332.4Q57.55 334.9 60.8 338.4L66.9 344.6L69.5 347.75L69.8 348.05L70.1 349.25L70.25 350.3Q70.25 351.65 68.75 351.65L67.6 351.35Q66.8 351 65.5 351Q63.9 351 63.4 352.6L62.85 354.65Q62.4 353.25 61.45 353.25L58.8 356.25Q56.25 359.25 54.75 359.25L53.75 355.75L53.15 353.45L55.05 354.9Q57.25 354.35 57.75 353L58.1 350.85L58.95 351.35L59.3 351.35Q59.8 351.25 60 350.3L60.15 349.05Q60.8 349.7 61.2 349.7L62 349.65Q61 345.95 57.15 341.85L54 338.05Q52.05 335.7 49.95 334.35L49.25 334.35L49.15 334.45L48.75 330.8L48.95 330.8M80.9,356.6Q82.7 357.1 83.5 357.6L84.75 358.8L85.15 360.15Q85.45 361.2 85.85 361.2Q86.4 361.2 87.4 359.8Q88.4 358.4 91.05 358.4Q93.95 358.4 95.55 361.25Q96.6 363.2 96.6 364.7L96.15 367.3Q96.15 367.9 98.55 368.45Q99.9 368.8 100.85 369.6Q101.7 370 102.5 370.95L103.55 372.3Q104.4 373.25 105.15 375.2Q105.8 377 105.8 378.2Q105.8 380.55 104.65 384.2Q103.4 388.05 102.05 389.55Q99.55 392.5 95.6 394.85Q90.2 398.25 82.2 398.25Q79.8 398.25 76.95 395.2Q73.95 391.95 73.95 388.8L74.4 384.25Q74.4 380.1 71.4 376.1Q67.9 371.5 61.65 369L61.65 368.9Q64.6 367.3 67.5 364.7L72.2 359.9Q73.65 358.35 75.85 357.3Q78.65 356 80.9 356.6M74.2,368.7Q75.65 371.35 77.9 370.95L79 371.1Q81 371.1 82.55 369.8Q83.8 368.85 84.35 367.7L85.35 365.45L85.35 363.55L85.35 361.85L84.3 359.55Q83.45 358.05 82.05 357.65L77.1 357.45Q75.7 358.05 74.35 361.05Q73.1 363.75 73.1 365.25Q73.1 366.7 74.2 368.7M53.75,387Q53.75 386.25 54.2 384.8Q54.65 383.35 55.05 382.95Q54.65 388.5 58.35 394.5Q59.35 396.25 60.9 397.35L62.25 398.85L63.8 400.2Q67.55 402.15 68.65 402.5L77.85 403.85L79.7 404.1L84 404.1L92.6 403.5L103.9 400.95Q112.7 398.45 116.7 394.95L116.7 395L115.2 397.25L113.1 399.65Q111.1 401.3 106.7 403.05Q101.75 405.1 98.55 405.8Q88.15 408.2 81.45 408.2Q76.45 408.2 70.9 406.4Q63.5 403.95 59.1 399.15Q57 396.85 55.4 393.4Q53.75 389.7 53.75 387M78.25,382Q79.8 383.05 83 383.3L85.05 383.6L89 383.6Q97.6 381.45 100.25 379.8Q103.05 378.05 103.05 374.5Q103.05 371.15 99.5 369.5Q95.9 367.95 91.35 368.9L86.55 370.35Q83.8 371 80.35 374.55Q76.95 378 76.95 379.9Q76.95 381.15 78.25 382M121.65,324.8Q120.75 325.15 118.35 326.55Q115.1 328.45 115.1 329.1L115.2 329.4L115.25 329.5L115.4 329.55L114.15 331.2L112 334.45L109.85 337.55Q108.95 339.15 107.35 342.95Q105.8 346.5 105.3 348.55L105 349.1Q104 351 103 351Q101.5 351 100.9 349.55L100.85 349.4L101.45 349.9L101.6 350.05L101.7 349.9L104.05 345.35L106.15 341.45L109.65 335.55Q118.45 321.3 122.55 322.65L122.6 322.7Q121.7 323.5 121.65 324.8M121.75,325.85L121 325.95L121.75 325.6L121.75 325.85M122.45,330Q122.45 331.4 122.6 332.4L122.75 334.6L122.55 340.5Q121.7 344.25 121.65 346.55L121.1 352.95L120.65 357L119.1 359.9L118.5 360Q117.35 359.4 117.15 358Q116.9 356.55 116.1 355.95L115.2 355.95Q114.7 356.15 114.1 356.8Q113.55 357.4 112.65 357.65L112.5 357.45L112.8 355.35L112.8 354.45L112.35 353.7L111.3 353.7L110.55 354L109.85 354Q108.95 353 107.55 352.35L106.5 351.6L106.15 351.25L107.25 350.15L107.55 349.8Q107.55 350.15 107.7 350.3Q108.1 350.85 109.35 350.85L111.15 350.4L111.75 350.25L112.35 350.15L114.35 349.05L114.5 349.9Q114.65 350.55 115.1 350.55Q116.3 350.55 117.2 342.75Q118.55 336.3 118.55 334.65Q118.55 332.8 117.6 332.7Q116.85 332.6 115.65 333.65L116.7 332.1Q118.9 329.25 120.5 329.25Q121.35 329.25 121.95 329.7L122.45 330M88.95,364.3Q90.45 365.85 92.85 365.85Q95.25 365.85 95.25 363.5Q95.25 359.8 91.5 358.95Q87.75 358.05 87.75 361.95Q87.75 363.05 88.95 364.3M90,430.65L89.85 431.05L89.4 431.4Q89.05 431.65 89.05 432.25L88.95 433.5L87.75 435.9L86.9 437.7L87 438.05L87.3 438.15L88.6 436.5L89.85 434.75L90.25 435.7L90.45 436.65L90.45 437.55L90.2 437.7Q89.85 439.3 89.85 440.55L89.95 442.95L89.75 445.5L89.25 447.9L89.05 449.15L89.05 449.3L88.55 450.05Q88.2 450.85 88.2 451.35Q88.2 451.75 88.6 451.95L90.5 452.45L91 452.65L91.05 452.7L91.1 452.7Q93.7 454.45 94.1 454.5L95.25 455.65L95 456.15Q94.9 457.05 93.9 459.05L92.05 462.5L90.75 464.9L90.75 465.2L91.9 465.45L92.55 466.1Q93.05 466.75 94.5 467.25L94.75 467.25L95.45 468.35L96 469.4L94.65 470.8Q93 472.7 93 473.4Q93 474.1 94.1 476.3L94.4 478.05Q94.65 479.25 95.3 479.25Q96.3 478.5 96.45 477.9L96.9 476.25Q97.25 474.7 97.25 472.8L97.2 471.15L97.15 470.7L97.7 470.85L98 470.75L98.1 470.6L97.2 469.25L96.3 467.85L95.4 466.5L94.85 465.85Q94.95 463.95 95.4 461.9L96 459.3Q96.2 458.5 96.7 457.6L97.15 456.85L97.2 456.9L97.45 456.85L97.5 456.75L97.5 456.5L95.5 453.65Q94.25 451.95 93.9 450.9Q92.95 448.05 92.4 445.1Q91.85 442.65 91.5 439.35L91.35 438L91.5 437.85L92.1 437.85Q93.25 438.15 93.8 439.2Q94.3 440.1 94.8 440.1L95.1 439.85L93.3 435.6L91.2 431.4L90.6 430.9Q90.3 430.65 90 430.65M85.25,441.2Q84.6 441.35 84.3 442.2Q83.1 442.6 82.55 443.4L81.9 444.45L80.75 444.55L78.8 444.25L77.55 443.9L77.55 444.3Q77.55 444.6 78.25 445.15L79.35 445.8L81.45 445.95L81.55 446L81.6 446.05L82.45 446.25L83.2 446.4L84.95 446.25L85.05 446.2L85.05 446.15L85.6 444.2L85.95 442.2Q86.1 441.1 85.25 441.2M83.25,444.75L83.3 444.8L83.25 444.9L83.25 444.75M95.7,442.7Q95.95 443.2 97.05 443.75L98.4 444.2Q100.05 444.5 100.45 445.7L100.65 447.6L100.65 449.4Q100.8 450.5 101.85 451.35L103.95 453L104.5 454.1Q104.9 454.95 105.45 454.95L106 454.4L106.2 453.55L105.7 449.9L105.05 446.25L104.3 444.45L103.25 442.65Q102.75 441.8 101.4 441.15L98.75 440.65L96.2 440.25Q95.7 440.25 95.35 440.5L95.1 440.9L95.35 441.9L95.7 442.7M81.65,451.35Q81.35 449.55 80.6 449.75L80.6 450.45L80.7 450.75L80.4 451.5L80.3 451.35L79.7 450.15L79.1 448.95Q78.8 448.15 78.3 448.35L78.2 448.6L78.3 449.7Q78.3 450.15 78.6 450.8Q78.05 451.1 78.05 451.25L78.7 452.7Q79.15 453.6 79.55 453.95L79.4 454.8L79.4 454.95Q78.05 455.7 78.05 456L78.3 456.75L78.6 457.95L78.9 458.95L79.1 459.9L78.8 460.7Q78.45 461.3 78.45 461.6Q78.45 462.25 79.45 463.3Q80.45 464.35 80.45 464.7L79.9 465.55L78.95 466.5L78.35 467.45L77.9 468.35L78 468.65L78.3 468.75L78.65 468.75L81.9 467.25L84.9 466.7L85.9 466.15L86.15 465.75Q86.15 465.4 84.9 464.35Q83.7 463.35 83.3 463.2L82.45 462.5L81.5 461.85L79.5 460.95L79.8 459.85L79.35 457.85L78.9 456.15L79.5 455.85L79.5 455.9L80.85 456Q82.8 456 82.8 455.25L81.95 452.75L81.65 451.4L81.65 451.35M88.4,453.3Q88.3 452.2 87.95 451.85Q86.9 451 86.9 452L87.3 456.45L87.35 459.25Q87.45 460.95 88.2 460.95L88.55 460.85L89.1 461.3L89.4 461.85Q89.6 462.15 90.1 462.15Q90.9 462.25 90.9 461.65Q89.55 457.75 89.25 456.15L88.4 453.3M84.6,459L84 458.4Q83.55 458.2 83.55 458.7L84.1 459.5L84.75 460.5Q85.1 460.5 85.05 460.35L84.9 459.6L84.6 459M100.65,462.8L100.35 462.3Q95.55 465.5 95.55 466.25L95.6 466.6L95.85 466.7L97.55 466.45Q98.85 466.35 99.5 465.8L99.95 465L100.5 463.95L100.65 462.8M154.3,447.65L154.8 448.45Q160.45 457.2 157.3 464.9Q155.45 469.35 150.05 471.5L145.8 471.8Q142.2 472 141.75 472.65L139.1 472.65L138.4 472.5L135.8 472.2L133.9 472.45L132.2 472.65L129.4 472.25L126.7 471.8L125.4 471.95L124.85 471.75L124.35 471.65L124.5 470.55L124.85 467.7Q125.75 467.8 126 468.05L128.35 468.2L135.75 467.5Q140.15 466.75 143.85 465.5L146 464.6Q147.3 463.9 147.95 463.65L149.4 462.45L150.75 461.1Q152.15 459.85 153.45 456.05Q154.65 452.5 154.65 450.15L154.3 447.65M145.35,472.8L143 473.15L143.7 472.95L145.35 472.8M61.8,441.45Q62.75 439.5 64.5 439.5Q66.2 439.45 66.2 440.8L65.55 442.5Q64.85 443.7 64.85 445.5L65.15 449.15L64.85 450.2L64.3 450.8L63.75 451.1L63.3 451.1L63.05 450.95L63.3 450.65L63.25 450.45L63.15 450.45L63 450.5L62.9 450.2L62.55 449.7L61.8 448.25L60.8 445.45Q61.4 442 61.8 441.45M79.15,543.8Q88.55 536.25 92.35 520.8Q85.6 520.5 78.35 518.8L79 537.05L79.15 543.8" />
<path style="fill:#FFFFFF;fill-opacity:0.4" d="M96.45,368.55Q98.9 368.95 100.3 370.15Q101.45 371.2 101.45 372.35Q101.45 374.1 98.6 376Q95.55 378.1 91.55 378.5L90.6 378.6L86.7 378.65Q81.1 378.4 81.1 375.65Q81.1 374.75 82.2 373.65Q82.35 373.45 84.55 371.6Q88 368.55 93.8 368.55L96.45 368.55" />
<path style="fill:none;stroke-width:3;stroke-linecap:butt;stroke-linejoin:miter;stroke-miterlimit:3;stroke:#39481C;stroke-opacity:1" d="M104.4,469.25L105.6 464.15M104.2,441.8L106.95 456.1M75,456.35L77.95 449.8M73.9,470.45L82.05 470.05" />
<path style="fill:none;stroke-width:3;stroke-linecap:round;stroke-linejoin:miter;stroke-miterlimit:3;stroke:#AE4200;stroke-opacity:1" d="M110.9,454.95L113.9 454.5M70.55,454.95L67.55 454.5" />
<path style="fill:none;stroke-width:2;stroke-linecap:round;stroke-linejoin:miter;stroke-miterlimit:3;stroke:#AE4200;stroke-opacity:1" d="M48.9,331.6Q50.45 330.4 60.4 340.9L70 351.65L64.45 350.45L63.45 354.35L60.95 353.1L59.75 355.35L55.2 359.05Q53 352.65 51.1 346.05Q47.35 332.8 48.9 331.6M111.15,341.45L111.95 339.95Q118.05 328.85 120 329.7Q121.7 330.4 120.55 341.45L120.1 345.35L120.1 345.4L119.5 349.9L119.45 350.25L119.15 352.3L118.75 355.15L117.85 360.05L116.35 355.35L113.15 357.25L113.55 352.8L109.7 353.7L106.2 351.25L106.65 350.25L106.9 349.9L109.15 345.35L111.15 341.45" />
<path style="fill:none;stroke-width:2;stroke-linecap:round;stroke-linejoin:miter;stroke-miterlimit:3;stroke:#582903;stroke-opacity:1" d="M56.45,381.2L55.65 382.7Q54.85 384.35 54.8 385.3Q54.7 386.7 55.5 389.25Q56.75 393.2 59.55 396.3L60 396.75Q68.75 405.7 88.4 403.7Q106.4 401.85 114.25 396.5L115.05 395.95Q118.95 393.05 119.1 390Q119.15 388.75 117 386.8L114.8 385.1" />
<path style="fill:none;stroke-width:3;stroke-linecap:round;stroke-linejoin:miter;stroke-miterlimit:3;stroke:#39481C;stroke-opacity:1" d="M82.05,470.05L83.5 476.8L87.8 477.4L89.25 481.3L92.1 478.25L96.6 481.1L98.45 471.5L104.4 469.25" />
<path style="fill:none;stroke-width:3;stroke-linecap:butt;stroke-linejoin:miter;stroke-miterlimit:3;stroke:#AE4200;stroke-opacity:1" d="M109.65,335.55Q118.45 321.3 122.55 322.65Q126.45 323.95 125.4 341.45L125.3 343.05L125.15 345.35L124.8 349.9L124.75 350.25L124.5 352.3L124.2 355.15L123.5 360.15L123.2 361.9L131.1 366.4L122.1 370.4L133.85 375.9L124.9 378.25L130.25 380.35L125.35 385.5L128.95 388.65L125.9 400.95L123.65 408.85L123.45 409.5L123.4 409.7L123.2 410.15L121.4 415.7L120.85 417L120.5 418L120.5 418.05M142.6,562.2L138.15 563.15M42.35,476.5L43.8 473.5M105.6,464.15L105.55 464.1Q103.75 462 104.35 459.5Q104.7 458.1 105.5 457.15L106.5 456.3L106.95 456.1Q108.1 455.5 110.45 455.05Q109.9 452.1 109.7 449Q109.2 441.05 112.1 439.75Q117.9 437.1 121.05 442.15Q122.25 444.1 120.6 447.85L118.65 451.2L128.45 455.1M122.25,475.9Q121.6 479.7 118.45 480.9Q114.95 482.2 112.05 481.45Q109.45 480.8 109 479.25Q108.65 478.15 109.55 477.05M65.45,475.75Q69.2 476.85 70.8 476.2" />
<path style="fill:none;stroke-width:3;stroke-linecap:round;stroke-linejoin:miter;stroke-miterlimit:3;stroke:#AE4200;stroke-opacity:1" d="M50.55,423.4L50.5 423.35L48.6 421.05L47.55 419.45Q46.25 417 44.9 413.05L44.05 410.15L43.9 409.7L43.85 409.5L43.65 408.85L42.35 404.15L40.2 394.6L36 395.05L41.95 383.15L33.85 385.05L42.35 375.1L34.9 373.35L45.8 368.1L39.4 364.05L50.15 362.6Q47.65 354.35 45.9 345.55Q42.35 328.05 46 325.65Q49.65 323.25 63.15 336M75.9,349.25L74.8 349.9L74.15 350.25L73.8 350.45M120.45,463.5L121.55 460.5L121.9 459M72.55,466.05L72.45 465.75M59.1,563.45L58.8 559.7Q58.7 555.65 59.8 554.4Q60.9 553.15 63.75 553.85Q65.15 554.2 66.35 554.8M138.15,563.15L137.75 558.75Q137.15 554.25 136 552.95Q134.85 551.65 133.5 551.2L132.4 550.95" />
<path style="fill:none;stroke-width:2;stroke-linecap:round;stroke-linejoin:miter;stroke-miterlimit:3;stroke:#AE4200;stroke-opacity:1" d="M95.2,368.25L95.25 368.25M71,455.05L70.55 454.95" />
<path style="fill:none;stroke-width:3;stroke-linecap:round;stroke-linejoin:miter;stroke-miterlimit:3;stroke:#39481C;stroke-opacity:1" d="M93.8,434.3L96 440.15L104.2 441.8M86.85,436.05L84.75 440.95L80.45 443.85L76.15 442.2L77.95 449.8" />
<path style="fill:none;stroke-width:3;stroke-linecap:round;stroke-linejoin:miter;stroke-miterlimit:3;stroke:#AE4200;stroke-opacity:1" d="M63.15,336Q69.9 342.4 75.9 349.25M106.15,341.45L109.65 335.55M141.15,555.8Q142.2 559.15 142.6 562.2M39.75,488.85Q39.65 483.3 42.35 476.5M128.45,455.1Q131.95 456.4 135.35 456.3M109,465.75L108.9 466.05M109.55,477.05L110.55 476.2M122.25,475.9L122.3 472.35M49.9,456.35L50 456M59.55,459L59.9 460.5L61 463.5M65.45,475.75Q61.45 474.55 59.25 472.45M70.8,476.2L70.9 476.2M59.3,550.95L58.2 551.2Q56.85 551.65 55.7 552.95Q54.55 554.25 53.95 558.75L53.55 563.15M125.35,554.8Q126.55 554.2 127.95 553.85Q130.8 553.15 131.9 554.4Q133 555.65 132.9 559.7L132.6 563.45" />
<path style="fill:none;stroke-width:3;stroke-linecap:round;stroke-linejoin:miter;stroke-miterlimit:3;stroke:#AE4200;stroke-opacity:1" d="M120.5,418.05Q120.3 424.05 122.1 427.65L134.1 432.55Q141.65 435.9 144.85 438.1Q150.85 442.25 154.8 448.45Q160.45 457.2 157.3 464.9Q154.15 472.45 140.8 473.35L138.95 473.45L137.65 473.5L130.7 473.3L122.35 472.3L122.3 472.35L122.2 472.45Q120 474.55 116 475.75Q112.25 476.85 110.65 476.2L110.55 476.2Q109.05 475.5 108.2 473.5Q107.5 471.85 107.55 470.45Q107.6 469.6 108.25 467.75L108.9 466.05L112.3 466.65Q116.9 467.05 118.65 465.95Q119.55 465.35 120.45 463.5M138.15,563.15L137.95 563.2L137.6 563.3L132.6 563.45L123.65 564.05Q114.45 563.85 113.35 559.95Q112.25 556.1 112.7 537.05L113.35 519Q106.3 520.55 99.35 520.8L98.45 532.3Q96.9 544.85 93.55 550.15Q90.2 555.45 82.65 559.65Q78.85 561.75 75.7 562.75Q73.1 563.95 68.05 564.05L59.1 563.45L54.1 563.3L53.75 563.2L53.55 563.15M50.75,473.3L43.8 473.5L42.5 473.45Q27.5 472.95 24.15 464.9Q21 457.2 26.65 448.45Q30.6 442.25 36.6 438.1Q39.8 435.9 47.35 432.55Q51.1 430.9 54.2 429.7L54.2 426.7L53.25 425.9L50.7 423.55L50.55 423.4M135.35,456.3Q127.1 448.95 124.55 437.5L135.3 442.85Q142.25 447.65 141.5 451.75Q140.7 456 135.5 456.3L135.35 456.3M120.5,418.05L120.45 418.2L120.4 418.25L119.6 420.2L119.35 420.75L119.35 420.8L119.2 421.05Q115.95 427.55 97.15 433.3L93.8 434.3M86.85,436.05L82.9 436.8L74.05 437.45Q69.4 436.5 61.25 431.55L56.75 428.6L54.2 426.7M122.2,472.45Q122.2 472.3 122.35 472.3Q123.6 471 123.95 469.65Q124.7 466.55 122.65 464.7L120.45 463.5M50,456L45.95 456.3Q40.75 456 39.95 451.75Q39.2 447.65 46.15 442.85L53.2 438.9Q53.55 448.45 50 456L53 455.1L62.8 451.2Q61.7 449.75 60.85 447.85Q59.2 444.1 60.4 442.15Q63.55 437.1 69.35 439.75Q72.25 441.05 71.75 449Q71.55 452.1 71 455.05Q73.85 455.6 74.95 456.3L75 456.35L75.95 457.15Q76.75 458.1 77.1 459.5Q77.7 462 75.9 464.1Q74.8 465.4 72.55 466.05L73.2 467.75Q73.85 469.6 73.9 470.45Q73.95 471.85 73.25 473.5Q72.4 475.5 70.9 476.2L71.9 477.05Q72.8 478.15 72.45 479.25Q72 480.8 69.4 481.45Q66.5 482.2 63 480.9Q59.85 479.7 59.2 475.9L59.15 472.35L59.1 472.3L50.75 473.3M61,463.5Q61.9 465.35 62.8 465.95Q64.55 467.05 69.15 466.65L72.55 466.05M61,463.5L58.8 464.7Q56.75 466.55 57.5 469.65Q57.85 471 59.1 472.3M59.25,472.45L59.15 472.35M79.15,543.8Q88.55 536.25 92.35 520.8Q85.6 520.5 78.35 518.8L79 537.05L79.15 543.8Q79.25 556.85 78.35 559.95Q77.85 561.7 75.7 562.75M99.35,520.8L92.35 520.8" />
<path style="fill:none;stroke-width:3;stroke-linecap:butt;stroke-linejoin:miter;stroke-miterlimit:3;stroke:#AE4200;stroke-opacity:1" d="M75.9,349.25L77.35 348.45Q81.2 346.4 83.05 346.2Q84.65 346.1 86.35 347.75Q88.2 349.5 89.2 349.6L93.5 348.75Q96.7 347.7 97.35 347.7Q98.9 347.7 101.45 349.9L101.6 350.05L101.7 349.9L104.05 345.35L106.15 341.45M140.8,473.35L141.7 476.15Q143.25 482.55 142.7 489Q142.2 494.45 140.25 499.15L139.65 500.55Q136.1 508.05 128.8 513.35Q124.8 516.3 121.45 517.5Q120.5 529.1 121.25 536.2Q122.1 543.85 124.4 550.95Q125.95 549.65 128.15 548.65Q132.6 546.55 135.85 547.85Q139.1 549.15 141.15 555.8M53.55,563.15L49.1 562.2Q49.5 559.15 50.55 555.8Q52.6 549.15 55.85 547.85Q59.1 546.55 63.55 548.65Q65.75 549.65 67.3 550.95Q69.6 543.85 70.45 536.2Q71.35 527.95 70.6 519.05Q64.3 518.1 57.5 515.55Q51.45 513.25 45.55 504.1L43.45 500.55Q39.85 493.95 39.75 488.85M50.55,423.4L51.35 422.85M108.9,466.05Q106.7 465.4 105.6 464.15" />
<path style="fill:none;stroke-width:2;stroke-linecap:round;stroke-linejoin:miter;stroke-miterlimit:3;stroke:#582903;stroke-opacity:1" d="M71.4,375.6L71.05 372.6L70.95 369.9L71 368.6L71 367.95Q71.3 363.05 73.05 360.4L73.25 360.15Q75.35 357.2 79.25 357.15Q83.15 357.1 84.8 359.8L85 360.15L85.8 362.2Q86.4 361.05 87.35 360.15Q87.65 359.85 88.1 359.55Q91 357.45 94 360L94.2 360.15Q97 362.65 96.4 365.65Q96.15 367 95.45 367.95L95.2 368.25M85.75,370.05L86.05 368.6L86.15 367.95Q86.5 364.9 85.8 362.2" />
<path style="fill:none;stroke-width:2;stroke-linecap:round;stroke-linejoin:miter;stroke-miterlimit:3;stroke:#993127;stroke-opacity:1" d="M95.25,368.25L97.9 368.6Q99.4 368.95 100.75 369.65Q103.05 370.85 104.25 372.6Q105.05 373.9 105.3 375.5L105.4 376.5L105.4 376.8L105.4 377.55Q105.05 381.95 100.15 385.6Q97.6 387.45 94.7 388.45Q90.55 389.85 85.65 389.5Q83.05 389.3 81.05 388.45Q78.55 387.4 76.95 385.35L75.35 381.65L77.75 377.55L78.3 376.8L78.55 376.5L79.15 375.6Q80.55 373.9 82.1 372.6Q83.85 371.05 85.75 370.05" />
<path style="fill:none;stroke-width:2;stroke-linecap:round;stroke-linejoin:miter;stroke-miterlimit:3;stroke:#582903;stroke-opacity:1" d="M60.1,369.6Q65.3 369.55 68.8 372.6Q70.25 373.85 71.4 375.6M75.3,386.8Q74.4 381.3 72.55 377.55L72.1 376.8L71.95 376.5L71.4 375.6" />
<path style="fill:none;stroke-width:2;stroke-linecap:round;stroke-linejoin:miter;stroke-miterlimit:3;stroke:#993127;stroke-opacity:1" d="M85.75,370.05Q87.65 369 89.7 368.6L90.6 368.45L95.2 368.25" />
<path style="fill:none;stroke-width:3;stroke-linecap:round;stroke-linejoin:miter;stroke-miterlimit:3;stroke:#39481C;stroke-opacity:1" d="M93.8,434.3L91.05 428.5L86.85 436.05" />
<path style="fill:#582903;fill-opacity:1" d="M77.6,352.15L75.85 353.05L75.05 353.6L72.85 354.85L72.6 354.8L72.55 354.4Q72.55 353.8 73.8 352.05Q74.6 350.45 76.35 348.5Q77.25 347.4 79.25 346.3Q80 345.8 81.3 345.3L83.3 344.75L83.45 344.8L83.5 344.95L83.25 345.4L83 345.8L83 345.9L85.55 345.35L85.65 345.55L84.85 346.2L87.3 347.05L88.15 347.45L88.65 348L88.55 348.2Q85.25 348.85 83.05 349.75L79.15 351.4Q78.7 351.55 77.6 352.15M95.15,346.4L95.15 346.3L94.95 346L94.75 345.65L94.8 345.5L94.9 345.45L96.5 345.9L98.15 346.7Q99.7 347.6 100.45 348.45Q101.85 350 102.45 351.3Q103.45 352.7 103.45 353.15L103.45 353.5L103.25 353.5L101.5 352.5L100.85 352.1Q100.4 351.9 99.45 351.35L98.2 350.75Q97 350.3 95.1 349.45Q93.35 348.75 90.7 348.2L90.65 348.05L91.05 347.6L91.7 347.3L93.65 346.6L93.05 346.1L93.1 345.95L95.15 346.4" />
</g>
</svg>
