<?xml version="1.0" encoding="utf-8"?>
<svg version="1.1" id="Layer_1"
xmlns="http://www.w3.org/2000/svg"
xmlns:xlink="http://www.w3.org/1999/xlink"
xmlns:author="http://www.sothink.com"
width="84px" height="62px"
xml:space="preserve">
<g id="131" transform="matrix(1, 0, 0, 1, 41.05, 29.6)">
<path style="fill:#5B5A5A;fill-opacity:1" d="M-15.2,-16.55L-15.8 -17.35Q-16.65 -18.7 -16.75 -21.75Q-16.9 -24.85 -17.35 -25.75Q-17.95 -26.8 -19.4 -26.95L-19.45 -27.15L-19.45 -28.8Q-19.35 -29.1 -18.25 -29.1L-15.2 -28.8Q-14.3 -28.35 -14.3 -26.55Q-14.3 -24.75 -14.6 -21.45L-14.9 -16.55L-15.2 -16.55" />
<path style="fill:#333333;fill-opacity:1" d="M-19.2,1.05L-23.25 1.05L-27 0.95L-26.85 0.15Q-26.6 -1.35 -26.6 -4.4Q-26.2 -8.9 -26.2 -12.85L-26.25 -14.1L-23.7 -14.15Q-24.2 -13.6 -24.2 -12.55L-24.2 -11Q-23.9 -9.5 -22.45 -9.5Q-21.25 -9.5 -20.6 -10.95Q-20.15 -12 -20.15 -13.2Q-20.15 -13.9 -20.45 -14.3L-17.35 -14.4L-16.1 -14.35Q-16.85 -13.6 -16.85 -11.85L-16.85 -11.4L-17.95 -10.45Q-18.85 -9.35 -18.85 -7.25L-18.85 -7.05L-18.8 -5.65Q-18.7 -4.75 -18.15 -4.25L-18.15 -3.85L-19.2 1.05M-34.9,-11.5L-34.95 -10.4L-35 -4.1L-35.15 -2.05Q-39.55 -1 -39.85 -5.15L-39.9 -8.85Q-39.9 -10.45 -40.15 -11.35L-38.2 -11.3L-34.9 -11.5M-16.95,-16.5L-17 -19.25Q-18.25 -19.7 -18.65 -20.1Q-19.35 -20.85 -19.15 -22.35Q-19 -23.8 -19.4 -26.95Q-17.95 -26.8 -17.35 -25.75Q-16.9 -24.85 -16.75 -21.75Q-16.65 -18.7 -15.8 -17.35L-15.2 -16.55L-16.95 -16.5M-10.7,-12.15Q-10.7 -10.3 -9.65 -8.9L-7.4 -10.1Q-6.65 -8.1 -6.6 -4.35Q-6.55 -1.75 -6 -0.1L-6.7 0.05L-8.7 0.3L-9.05 -0.3L-10.3 -2.75L-9.8 -3.8L-9.35 -5Q-9.35 -7.65 -10.55 -9.55Q-11.4 -10.9 -12.65 -11.45L-13.4 -11.7L-13.4 -12.55L-13.6 -14L-12.65 -13.8L-10.6 -13.1L-10.7 -12.15M-12.5,-5.7Q-12.35 -5.95 -12.35 -6.35Q-12.35 -7.1 -13.25 -7.85L-13.3 -7.85L-13.55 -8.05Q-14.8 -8.9 -14.8 -7.5L-14.55 -6.55L-14.5 -6.35Q-14.05 -5.4 -13.25 -5.4Q-12.7 -5.4 -12.5 -5.7M-14.75,0.85L-14.7 0.5L-14.5 0.8L-14.75 0.85" />
<path style="fill:#F7A66F;fill-opacity:1" d="M-28.55,-7.65Q-28.55 -10.1 -29.25 -12.25Q-30.05 -14.55 -31.15 -15L-34.5 -15.75L-34.95 -15.95L-34.95 -16.1L-34.8 -16.7L-34.35 -17.65Q-33.95 -18.05 -32.4 -18.05Q-28.65 -18.05 -27.45 -17.1L-26.75 -16.2L-26.25 -14.1L-26.2 -12.85Q-26.2 -8.9 -26.6 -4.4Q-26.6 -1.35 -26.85 0.15L-27 0.95Q-27.45 2.85 -28.75 2.85L-29 2.85L-28.55 -7.65" />
<path style="fill:#837C7C;fill-opacity:1" d="M-20.45,-14.3Q-20.15 -13.9 -20.15 -13.2Q-20.15 -12 -20.6 -10.95Q-21.25 -9.5 -22.45 -9.5Q-23.9 -9.5 -24.2 -11L-24.2 -12.55Q-24.2 -13.6 -23.7 -14.15Q-23.2 -14.75 -22.15 -14.85Q-20.9 -14.95 -20.45 -14.3M-16.1,-14.35Q-15.7 -14.75 -15.1 -14.9Q-13.95 -15.15 -13.6 -14L-13.4 -12.55L-13.4 -11.7L-14.7 -11.85L-16.85 -11.4L-16.85 -11.85Q-16.85 -13.6 -16.1 -14.35M-10.6,-13.1Q-10.25 -14.45 -8.75 -14.2Q-6.8 -13.85 -6.8 -11.9Q-6.8 -10.7 -7.25 -10.25L-7.4 -10.1L-9.65 -8.9Q-10.7 -10.3 -10.7 -12.15L-10.6 -13.1M-13.25,-5.4Q-14.05 -5.4 -14.5 -6.35L-14.55 -6.55L-14.8 -7.5Q-14.8 -8.9 -13.55 -8.05L-13.3 -7.85L-13.25 -7.85Q-12.35 -7.1 -12.35 -6.35Q-12.35 -5.95 -12.5 -5.7Q-12.7 -5.4 -13.25 -5.4" />
<path style="fill:#4F4F4F;fill-opacity:1" d="M-4.15,-9L-4.15 -8.35L-4.15 -8.3L-4.15 -8.25L-4.2 -5.25L-4.2 -5.15L-4.2 -5.1L-4.15 -3.2Q-4.15 -0.7 -6 -0.1Q-6.55 -1.75 -6.6 -4.35Q-6.65 -8.1 -7.4 -10.1L-7.25 -10.25Q-6.8 -10.7 -6.8 -11.9Q-6.8 -13.85 -8.75 -14.2Q-10.25 -14.45 -10.6 -13.1L-12.65 -13.8L-13.6 -14Q-13.95 -15.15 -15.1 -14.9Q-15.7 -14.75 -16.1 -14.35L-17.35 -14.4L-20.45 -14.3Q-20.9 -14.95 -22.15 -14.85Q-23.2 -14.75 -23.7 -14.15L-26.25 -14.1L-26.75 -16.2L-16.95 -16.5L-15.2 -16.55L-14.9 -16.55L-12.25 -16.65Q-7.8 -16.65 -5.85 -15.45Q-3.5 -14.1 -3.5 -10.65Q-3.5 -10.1 -3.65 -9.75L-3.7 -9.65L-3.75 -9.6L-4.15 -9" />
<path style="fill:#F38033;fill-opacity:1" d="M-2.6,4Q-2 2.75 -0.55 -1.75Q0.4 -4.4 1.35 -8.75L1.9 -10.7L2.05 -10.45Q2.4 -10.05 4.15 -10.05L4.9 -10.05L6.2 -10.15L9.8 -10.7L10.3 -10.8L10.9 -10.9L13.7 -11.3L15.6 -11.55L18.25 -9.6L19.4 -10.45L21.5 -11.95Q22.4 -11.95 23.75 -10.7L24 -10.5Q25.15 -9.45 25.75 -9.45Q26.1 -9.45 27.8 -10.8L29.65 -12.25L30.25 -12.2L32.65 -9.6L34.7 -11.15L36.1 -12.35L37.1 -12.45L39.2 -9.6L41.35 -11.3Q41.45 -10.4 42 -8.85L41.5 -6.45L40.4 -7.85Q39.05 -9.35 37.9 -9.35Q30.55 -9.05 30.55 -9.35L30.55 -9.5L30.75 -9.5L30.55 -9.55L30.55 -9.5L23.45 -8.95Q18.75 -8.4 15.25 -7.4L12.15 -7.1L9.45 -7.1Q7.75 -7.05 7.1 -6.25L6.15 -3.6L5.55 -1.4L5.6 -0.8L5.55 -0.7Q2.7 1.75 1.9 5.15L0.85 8.5Q-0.05 10.2 -2.25 11.2Q-5.05 12.55 -9.7 13.05Q-13.05 13.35 -14.7 13.95Q-17.75 15.15 -19.15 15.15L-23.8 15.65L-28.55 16.2L-28.4 14L-27.2 14.2L-18.2 12.7L-9.7 11.1Q-9.7 10.6 -8.55 10.5L-5.95 10.4Q-2.25 9.9 -2.25 5.95Q-2.25 5.25 -2.6 4M-34.9,-13.8L-34.95 -15.3L-34.95 -15.95L-34.5 -15.75L-31.15 -15Q-30.05 -14.55 -29.25 -12.25Q-28.55 -10.1 -28.55 -7.65L-29 2.85L-31.9 2.95Q-33.8 2.85 -34.55 2.1Q-35.4 1.2 -35.3 -0.75L-35.15 -2.05L-35 -4.1L-34.95 -10.4L-34.9 -11.5L-34.9 -13.8M-4.15,-8.3Q-3.4 -7.7 -2.4 -6.15L-1.2 -4.3Q-1.55 -3.3 -2.55 -3.3Q-4.05 -3.3 -4.2 -5.1L-4.2 -5.15L-4.2 -5.25L-4.15 -8.25L-4.15 -8.3" />
<path style="fill:#515050;fill-opacity:1" d="M-34.9,-11.5L-38.2 -11.3L-40.15 -11.35L-40.4 -12.05L-40.4 -13.8L-34.9 -13.8L-34.9 -11.5" />
<path style="fill:#F09A61;fill-opacity:1" d="M-2.4,-6.15Q-3.4 -7.7 -4.15 -8.3L-4.15 -8.35L-3.75 -9.6L-3.7 -9.65L-3.65 -9.75L-3 -9.9Q-1.85 -9.9 -1.4 -9.15Q-0.95 -8.45 -0.95 -6.95Q-0.95 -5.35 -1.1 -4.7L-1.2 -4.3L-2.4 -6.15" />
<path style="fill:#D4922E;fill-opacity:1" d="M6.2,6.2L6 7.95Q5.45 11.05 4.55 12.25L4.5 12.35L2.9 14.65Q1.95 15.75 0.3 16.4Q-4.25 18.4 -5.5 18.4L-6.45 18.65L-7.9 18.8L-10.7 18.55L-17.1 19.35L-21.05 20.15L-25.9 20.25L-26.95 19.95L-26.95 18.55L-26.8 18.55Q-8.05 15.8 -4.05 14.65Q-0.55 14.1 0.95 13.35Q2.2 12.75 3.05 11.35Q3.85 9.9 4.3 7.7L5.5 -0.3L5.55 -0.7L5.6 -0.8Q6.5 -4.9 8.3 -5.6L8.4 -5.6L16.35 -6.25L22.65 -6.2L28.6 -6.2Q34.6 -6.35 39.25 -6.1L39.15 -5.85Q38.75 -3.2 37.6 0.7Q36.35 0.45 35.35 -0.35Q33.9 -1.6 32.2 -1.6L30.4 -1.3L28.7 -1.05L25.7 -1.3Q24.65 -1.25 22.35 0.5Q21.55 1.2 18.5 2.3L18.25 0.65L16.85 0.5L15.9 0.6L15.85 0.65L15.8 0.8L15.6 0.65L15.6 1.3L15.55 2.1L15.45 3.3L13.95 3.5L12.5 3.4L12.55 1.6Q12.55 0.3 11.85 -0.25Q11.2 -0.75 9.65 -0.75L8.65 -0.6L8.55 0.1L8.6 1.65L8.55 3.15Q6.45 3.5 6.2 6.2" />
<path style="fill:#252424;fill-opacity:1" d="M12.25,4.85Q11.7 6.45 9.8 6.45Q8.7 6.45 8.5 5.65L8.5 3.55L8.55 3.15L8.6 1.65L8.55 0.1L8.65 -0.6L9.65 -0.75Q11.2 -0.75 11.85 -0.25Q12.55 0.3 12.55 1.6L12.5 3.4L12.25 4.85M15.8,0.8L15.85 0.65L15.9 0.6L16.85 0.5L18.25 0.65L18.5 2.3L18.5 2.5L18.25 4.3Q17.9 4.65 16.6 4.65L15.6 4.65Q15.4 4.5 15.4 3.4L15.45 3.3L15.55 2.1L15.6 1.3L15.8 0.8" />
<path style="fill:#EE9960;fill-opacity:1" d="M36.1,-12.35L36.2 -12.45L36.7 -12.9L37.1 -12.45L36.1 -12.35M41.75,-11.65L42.05 -11.85L42.05 -11.75L41.75 -11.65M-18.3,10.1L-18 10L-15.95 9.45L-12.9 8.6L-9.5 7.85L-9.35 7.8L-7.5 7.55L-6.8 7.45Q-5.7 7.3 -4.85 6.65Q-3.6 5.8 -2.7 4.25L-2.6 4Q-2.25 5.25 -2.25 5.95Q-2.25 9.9 -5.95 10.4L-8.55 10.5Q-9.7 10.6 -9.7 11.1L-18.2 12.7L-27.2 14.2L-28.4 14L-28.45 12L-28.5 11.9Q-27.6 11.15 -26.05 11.05L-23.3 11.1L-20.95 10.9L-20.7 10.8L-18.3 10.1M4.15,-10.05Q2.4 -10.05 2.05 -10.45L1.9 -10.7L2.75 -12.85L2.85 -12.85L3.95 -11.4L4.9 -10.05L4.15 -10.05M9.8,-10.7L6.2 -10.15Q8.85 -11.75 9 -11.75L9.95 -11.05L10.3 -10.8L9.8 -10.7M13.7,-11.3L14.85 -12.1L15.6 -11.55L13.7 -11.3M29.95,-12.5L30.25 -12.2L29.65 -12.25L29.95 -12.5" />
<path style="fill:#FF6600;fill-opacity:1" d="M41.35,-11.3L41.3 -11.5L41.75 -11.65L42.05 -11.75L42 -8.85Q41.45 -10.4 41.35 -11.3M5.6,-0.8L5.55 -1.4L6.15 -3.6L7.1 -6.25Q7.75 -7.05 9.45 -7.1L12.15 -7.1L15.25 -7.4Q18.75 -8.4 23.45 -8.95L30.55 -9.5L30.55 -9.55L30.75 -9.5L30.55 -9.5L30.55 -9.35Q30.55 -9.05 37.9 -9.35Q39.05 -9.35 40.4 -7.85L41.5 -6.45Q41.2 -5.75 40.7 -6L39.25 -6.1Q34.6 -6.35 28.6 -6.2L22.65 -6.2L16.35 -6.25L8.4 -5.6L8.3 -5.6Q6.5 -4.9 5.6 -0.8M-23.8,15.65L-19.15 15.15Q-17.75 15.15 -14.7 13.95Q-13.05 13.35 -9.7 13.05Q-5.05 12.55 -2.25 11.2Q-0.05 10.2 0.85 8.5L1.9 5.15Q2.7 1.75 5.55 -0.7L5.5 -0.3L4.3 7.7Q3.85 9.9 3.05 11.35Q2.2 12.75 0.95 13.35Q-0.55 14.1 -4.05 14.65Q-8.05 15.8 -26.8 18.55L-26.95 18.55Q-28.5 18.45 -28.55 16.2L-23.8 15.65" />
<path style="fill:#E07D7D;fill-opacity:1" d="M29.85,-22.45L30.2 -23.45L29.95 -22.4L29.85 -22.45" />
<path style="fill:#E0A348;fill-opacity:1" d="M-26.8,24.1L-26.85 22.65L-26.95 19.95L-25.9 20.25L-21.05 20.15L-17.1 19.35L-10.7 18.55L-7.9 18.8L-6.45 18.65L-5.5 18.4Q-4.25 18.4 0.3 16.4Q1.95 15.75 2.9 14.65L4.5 12.35L4.55 12.25Q5.45 11.05 6 7.95L6.2 6.2Q6.45 3.5 8.55 3.15L8.5 3.55L8.5 5.65Q8.7 6.45 9.8 6.45Q11.7 6.45 12.25 4.85L12.5 3.4L13.95 3.5L15.45 3.3L15.4 3.4Q15.4 4.5 15.6 4.65L16.6 4.65Q17.9 4.65 18.25 4.3L18.5 2.5L18.5 2.3Q21.55 1.2 22.35 0.5Q24.65 -1.25 25.7 -1.3L28.7 -1.05L30.4 -1.3L32.2 -1.6Q33.9 -1.6 35.35 -0.35Q36.35 0.45 37.6 0.7L36.9 2.9L34.5 10Q5 24.8 -26.8 24.1" />
<path style="fill:#F3B9B9;fill-opacity:1" d="M-26.95,27.15L-26.95 26.9L-26.8 24.1Q5 24.8 34.5 10L33.85 11.85L33.25 13.45Q15.7 26.25 -26.95 27.15" />
<path style="fill:#8A3131;fill-opacity:1" d="M18.25,-9.6L15.6 -11.55L14.85 -12.1L13.7 -11.3L10.9 -10.9L10.3 -10.8L9.95 -11.05L11.9 -16.45L11.15 -17.75Q10.35 -18.7 10.35 -19.2L11.25 -20.65L12.1 -22.3Q12.75 -20.9 14.9 -19.45Q16.85 -18.1 17.1 -17.1Q17.5 -15.45 18.25 -13.5L19.4 -10.45L18.25 -9.6M36.1,-12.35L34.7 -11.15L32.65 -9.6L30.25 -12.2L29.95 -12.5L29.65 -12.25L27.8 -10.8Q26.1 -9.45 25.75 -9.45Q25.15 -9.45 24 -10.5L26.3 -15.4L28.7 -15.55Q29.6 -16.3 29.6 -18.1Q28.45 -18.95 26.6 -19.4Q25.75 -19.6 25.75 -21.05L25.95 -24.6L29.2 -24.25L29.2 -21.15Q31.3 -20.95 32.4 -20Q33.8 -18.85 32.85 -16.95L34.75 -16.75L35.25 -14.7Q35.7 -13.15 36.2 -12.45L36.1 -12.35M33.25,13.45L31.6 16.9L28.7 20.95Q26.85 23.4 25 24.5L19.95 26.95Q16.8 28.25 8.2 29.95Q1.55 31.25 -8.4 31.25L-15.55 31.2L-22.45 30.25L-25.6 29.7Q-27.15 29.1 -26.95 27.15Q15.7 26.25 33.25 13.45" />
<path style="fill:#C66060;fill-opacity:1" d="M-16.85,-11.4L-14.7 -11.85L-13.4 -11.7L-12.65 -11.45Q-11.4 -10.9 -10.55 -9.55Q-9.35 -7.65 -9.35 -5L-9.8 -3.8L-10.3 -2.75L-9.05 -0.3L-8.7 0.3L-7.45 2.5L-5.9 4.4Q-4.85 5.75 -4.85 6.65Q-5.7 7.3 -6.8 7.45L-10.9 0.4L-12 -2.05L-11.5 -4.25Q-11.05 -5.75 -11.05 -6.65Q-11.05 -8.3 -12 -9.35Q-12.45 -9.9 -13 -10.15L-13.7 -10.4L-14.2 -10.45L-16.25 -10L-16.6 -9.9L-17.55 -10.15L-17.95 -10.45L-16.85 -11.4" />
<path style="fill:#A64545;fill-opacity:1" d="M-18.15,-4.25Q-18.7 -4.75 -18.8 -5.65L-18.85 -7.05L-18.85 -7.25Q-18.85 -9.35 -17.95 -10.45L-17.55 -10.15L-16.6 -9.9L-16.25 -10L-14.2 -10.45L-13.7 -10.4L-13 -10.15Q-12.45 -9.9 -12 -9.35Q-11.05 -8.3 -11.05 -6.65Q-11.05 -5.75 -11.5 -4.25L-12 -2.05L-10.9 0.4L-6.8 7.45L-7.5 7.55L-9.35 7.8L-9.5 7.85Q-10.6 5.9 -12.05 4.05L-14.5 0.8L-14.7 0.5L-14.75 0.85L-15.5 5L-16.1 9.1L-15.95 9.45L-18 10L-18.3 10.1L-17.7 5.55L-17.1 1.05L-16.95 -1.65Q-16.95 -3.15 -17.4 -4.25L-18.15 -3.85L-18.15 -4.25" />
<path style="fill:#8C3434;fill-opacity:1" d="M-18.15,-3.85L-17.4 -4.25Q-16.95 -3.15 -16.95 -1.65L-17.1 1.05L-17.7 5.55L-18.3 10.1L-20.7 10.8L-20.95 10.8L-19.85 4.25L-19.2 1.05L-18.15 -3.85" />
<path style="fill:none;stroke-width:1;stroke-linecap:butt;stroke-linejoin:miter;stroke-miterlimit:3;stroke:#3A291D;stroke-opacity:1" d="M-19.2,1.05L-23.25 1.05L-27 0.95Q-27.45 2.85 -28.75 2.85L-29 2.85L-31.9 2.95Q-33.8 2.85 -34.55 2.1Q-35.4 1.2 -35.3 -0.75L-35.15 -2.05Q-39.55 -1 -39.85 -5.15L-39.9 -8.85Q-39.9 -10.45 -40.15 -11.35L-40.4 -12.05L-40.4 -13.8L-34.9 -13.8L-34.95 -15.3L-34.95 -15.95L-34.95 -16.1L-34.8 -16.7L-34.35 -17.65Q-33.95 -18.05 -32.4 -18.05Q-28.65 -18.05 -27.45 -17.1L-26.75 -16.2L-16.95 -16.5L-17 -19.25Q-18.25 -19.7 -18.65 -20.1Q-19.35 -20.85 -19.15 -22.35Q-19 -23.8 -19.4 -26.95L-19.45 -27.15L-19.45 -28.8Q-19.35 -29.1 -18.25 -29.1L-15.2 -28.8Q-14.3 -28.35 -14.3 -26.55Q-14.3 -24.75 -14.6 -21.45L-14.9 -16.55L-12.25 -16.65Q-7.8 -16.65 -5.85 -15.45Q-3.5 -14.1 -3.5 -10.65Q-3.5 -10.1 -3.65 -9.75L-3 -9.9Q-1.85 -9.9 -1.4 -9.15Q-0.95 -8.45 -0.95 -6.95Q-0.95 -5.35 -1.1 -4.7L-1.2 -4.3Q-1.55 -3.3 -2.55 -3.3Q-4.05 -3.3 -4.2 -5.1L-4.15 -3.2Q-4.15 -0.7 -6 -0.1L-6.7 0.05L-8.7 0.3M-16.95,-16.5L-15.2 -16.55L-14.9 -16.55M-26.25,-14.1L-26.75 -16.2M-26.25,-14.1L-26.2 -12.85Q-26.2 -8.9 -26.6 -4.4Q-26.6 -1.35 -26.85 0.15L-27 0.95M-34.9,-11.5L-34.95 -10.4L-35 -4.1L-35.15 -2.05M-34.9,-11.5L-34.9 -13.8M-3.65,-9.75L-3.7 -9.65L-3.75 -9.6L-4.15 -8.35L-4.15 -8.3M-4.2,-5.1L-4.2 -5.15L-4.2 -5.25L-4.15 -8.25L-4.15 -8.3M-4.15,-8.35L-4.15 -9L-3.75 -9.6M-14.75,0.85L-14.5 0.8" />
<path style="fill:none;stroke-width:1;stroke-linecap:butt;stroke-linejoin:miter;stroke-miterlimit:3;stroke:#6B3510;stroke-opacity:1" d="M-18.15,-4.25Q-18.7 -4.75 -18.8 -5.65L-18.85 -7.05L-18.85 -7.25Q-18.85 -9.35 -17.95 -10.45L-16.85 -11.4L-14.7 -11.85L-13.4 -11.7L-12.65 -11.45Q-11.4 -10.9 -10.55 -9.55Q-9.35 -7.65 -9.35 -5L-9.8 -3.8L-10.3 -2.75L-9.05 -0.3L-8.7 0.3L-7.45 2.5L-5.9 4.4Q-4.85 5.75 -4.85 6.65Q-3.6 5.8 -2.7 4.25L-2.6 4Q-2 2.75 -0.55 -1.75Q0.4 -4.4 1.35 -8.75L1.9 -10.7L2.75 -12.85L2.85 -12.85L3.95 -11.4L4.9 -10.05L5.15 -9.6L6.2 -10.15Q8.85 -11.75 9 -11.75L9.95 -11.05L11.9 -16.45L11.15 -17.75Q10.35 -18.7 10.35 -19.2L11.25 -20.65L12.1 -22.3Q12.75 -20.9 14.9 -19.45Q16.85 -18.1 17.1 -17.1Q17.5 -15.45 18.25 -13.5L19.4 -10.45L21.5 -11.95Q22.4 -11.95 23.75 -10.7L24 -10.5L26.3 -15.4L28.7 -15.55Q29.6 -16.3 29.6 -18.1Q28.45 -18.95 26.6 -19.4Q25.75 -19.6 25.75 -21.05L25.95 -24.6L29.2 -24.25L29.2 -21.15Q31.3 -20.95 32.4 -20Q33.8 -18.85 32.85 -16.95L34.75 -16.75L35.25 -14.7Q35.7 -13.15 36.2 -12.45L36.7 -12.9L37.1 -12.45L39.2 -9.6L41.35 -11.3L41.35 -11.35L41.75 -11.65L42.05 -11.85L42.05 -11.75L42 -8.85L41.5 -6.45Q41.2 -5.75 40.7 -6L39.25 -6.1Q34.6 -6.35 28.6 -6.2L22.65 -6.2L16.35 -6.25L8.4 -5.6L8.3 -5.6Q6.5 -4.9 5.6 -0.8L5.55 -0.7L5.5 -0.3L4.3 7.7Q3.85 9.9 3.05 11.35Q2.2 12.75 0.95 13.35Q-0.55 14.1 -4.05 14.65Q-8.05 15.8 -26.8 18.55L-26.95 18.55M39.15,-5.85Q38.75 -3.2 37.6 0.7L36.9 2.9L34.5 10L33.85 11.85L33.25 13.45L31.6 16.9L28.7 20.95Q26.85 23.4 25 24.5L19.95 26.95Q16.8 28.25 8.2 29.95Q1.55 31.25 -8.4 31.25L-15.55 31.2L-22.45 30.25L-25.6 29.7Q-27.15 29.1 -26.95 27.15L-26.95 26.9L-26.8 24.1L-26.85 22.65L-26.95 19.95L-26.95 18.55Q-28.5 18.45 -28.55 16.2L-28.4 14L-28.45 12L-28.5 11.9Q-27.6 11.15 -26.05 11.05L-23.3 11.1L-20.95 10.9L-20.95 10.8L-19.85 4.25L-19.2 1.05L-18.15 -3.85M9.8,-10.7L9.95 -11.05L10.3 -10.8L11.4 -10Q11.7 -10 13.7 -11.3L14.85 -12.1L15.6 -11.55L18.25 -9.6L19.4 -10.45M30.25,-12.2L29.95 -12.5L29.65 -12.25L27.8 -10.8Q26.1 -9.45 25.75 -9.45Q25.15 -9.45 24 -10.5M30.25,-12.2L32.65 -9.6L34.7 -11.15L36.1 -12.35L36.2 -12.45M-16.1,9.1L-15.5 5L-14.75 0.85L-14.7 0.5L-14.5 0.8L-12.05 4.05Q-10.6 5.9 -9.5 7.85L-9.35 7.8L-7.5 7.55L-6.8 7.45Q-5.7 7.3 -4.85 6.65M-13.25,-7.85L-13.45 -8L-13.55 -8.15M-12.5,-5.7Q-12.5 -4.8 -13.05 -4.25Q-13.6 -3.7 -14.55 -3.7Q-16.35 -3.7 -16.35 -5.7L-16.25 -6.55L-16.1 -7L-15.6 -7.9L-15.55 -8.05L-15.55 -8.15Q-15.3 -8.75 -14.7 -8.75L-13.55 -8.15M-15.6,-7.9L-16.25 -6.55M-20.95,10.9L-20.7 10.8L-18.3 10.1L-18 10L-15.95 9.45L-12.9 8.6L-9.5 7.85" />
<path style="fill:none;stroke-width:1;stroke-linecap:butt;stroke-linejoin:miter;stroke-miterlimit:3;stroke:#3A1313;stroke-opacity:1" d="M8.55,3.15L8.6 1.65L8.55 0.1L8.65 -0.6L9.65 -0.75Q11.2 -0.75 11.85 -0.25Q12.55 0.3 12.55 1.6L12.5 3.4M15.45,3.3L15.55 2.1L15.6 1.3M15.8,0.8L15.85 0.65L15.9 0.6L16.85 0.5L18.25 0.65L18.5 2.3M15.45,3.3L15.4 3.4Q15.4 4.5 15.6 4.65L16.6 4.65Q17.9 4.65 18.25 4.3L18.5 2.5L18.5 2.3M15.8,0.8L15.6 1.3M8.55,3.15L8.5 3.55L8.5 5.65Q8.7 6.45 9.8 6.45Q11.7 6.45 12.25 4.85L12.5 3.4" />
<path style="fill:none;stroke-width:1;stroke-linecap:butt;stroke-linejoin:miter;stroke-miterlimit:3;stroke:#8C1D1D;stroke-opacity:1" d="M15.6,1.3L15.6 0.65L15.8 0.8" />
</g>
</svg>
