<?xml version="1.0" encoding="utf-8"?>
<svg version="1.1" id="Layer_1"
xmlns="http://www.w3.org/2000/svg"
xmlns:xlink="http://www.w3.org/1999/xlink"
xmlns:author="http://www.sothink.com"
width="18px" height="18px"
xml:space="preserve">
<g id="252" transform="matrix(1, 0, 0, 1, 5.25, -1.7)">
<path style="fill:#C5DBDB;fill-opacity:1" d="M-4.25,5.3Q-4.25 2.7 -1.65 2.7L8.65 2.7Q11.2 2.7 11.2 5.3L11.2 15.55Q11.2 17.4 9.95 17.95L10 17.95L9.85 18Q8.9 16.7 8.5 14.55Q7.75 10.1 7.3 9.6Q6.8 9.05 6.25 7.75Q5.55 6.7 4.1 6.55L0.85 6L-1.35 5.7L-4.25 5.9L-4.25 5.3" />
<path style="fill:#AABFBF;fill-opacity:1" d="M8.65,18.15L-1.65 18.15Q-4.25 18.15 -4.25 15.55L-4.25 5.9L-1.35 5.7L0.85 6L4.1 6.55Q5.55 6.7 6.25 7.75Q6.8 9.05 7.3 9.6Q7.75 10.1 8.5 14.55Q8.9 16.7 9.85 18L8.65 18.15" />
<path style="fill:#70643A;fill-opacity:1" d="M9.85,18L10 17.95L9.95 17.95Q11.2 17.4 11.2 15.55L11.2 5.3Q11.2 2.7 8.65 2.7L-1.65 2.7Q-4.25 2.7 -4.25 5.3L-4.25 5.9L-4.25 15.55Q-4.25 18.15 -1.65 18.15L8.65 18.15L9.85 18M10.35,18.9L8.65 19.15L-1.65 19.15Q-5.25 19.15 -5.25 15.55L-5.25 5.3Q-5.25 1.7 -1.65 1.7L8.65 1.7Q12.2 1.7 12.2 5.3L12.2 15.55Q12.2 18.1 10.35 18.85L10.35 18.9" />
</g>
</svg>
