<?xml version="1.0" encoding="utf-8"?>
<svg version="1.1" id="Layer_1"
xmlns="http://www.w3.org/2000/svg"
xmlns:xlink="http://www.w3.org/1999/xlink"
xmlns:author="http://www.sothink.com"
width="50px" height="76px"
xml:space="preserve">
<g id="41" transform="matrix(1, 0, 0, 1, 27.8, 70.1)">
<path style="fill:#77F5DB;fill-opacity:1" d="M5,-66.6L6.45 -66.3L6.45 -64.2Q6.3 -64.35 6.05 -63.9L5.4 -63.3L4.75 -63.45L4.4 -63.6L4.4 -64.2L4.65 -65.35L5 -66.6M3.5,-52.95L8.25 -26.5Q11.25 -7.4 11.25 3.2Q11.25 4.35 10.65 5Q10.1 5.55 9.3 5.55L5.75 5.25L-1.5 4.55L-14.35 3.5L-15.6 3.5L-17.45 3.6L-20.7 4.4L-23.4 4.4Q-21.4 -1.55 -18.75 -13.2Q-16.1 -24.7 -14.45 -29.55Q-7.8 -33 -4.45 -39.65Q-2.45 -43.6 1.4 -52.95L3.5 -52.95M22.2,-40.7Q22.2 -39.5 21.9 -39.05Q21.5 -38.45 20.4 -38.45L19.5 -39.05Q18.9 -39.75 18.9 -40.4L18.9 -41.7Q19.2 -42.3 20.7 -42.3L21.9 -42Q22.2 -41.7 22.2 -40.7M-9.2,-69.4L-9.1 -69.55Q-8.55 -70.1 -7.8 -70.1Q-5 -70.1 -5 -67.65Q-5 -66.75 -5.3 -66Q-5.8 -64.8 -6.9 -64.8Q-9.75 -64.8 -9.75 -67.8L-9.2 -69.4M-25.8,-23.25L-25.25 -23.4L-24 -23.1Q-23.1 -22.65 -23.1 -21.75Q-23.1 -19.5 -25 -19.5Q-26.4 -19.5 -26.55 -20.95L-26.25 -22.55L-25.8 -23.25" />
<path style="fill:#D2DEEE;fill-opacity:1" d="M15.05,3.5L-0.2 3.65L-3.45 4.05L-7.95 4.4L-19.65 5Q-24.1 5 -26.3 3.8Q-27.8 3 -27.8 2.1Q-27.8 0.55 -26.75 0.6L-19.05 1.05L-15.9 0.6Q-11.3 0.2 -3.5 0.3L5.25 0.15Q13.6 -0.55 16.4 0.15Q18 0.55 18 1.75Q18 3.2 15.05 3.5" />
</g>
</svg>
