<?xml version="1.0" encoding="utf-8"?>
<svg version="1.1" id="Layer_1"
xmlns="http://www.w3.org/2000/svg"
xmlns:xlink="http://www.w3.org/1999/xlink"
xmlns:author="http://www.sothink.com"
width="14px" height="8px"
xml:space="preserve">
<g id="125" transform="matrix(1, 0, 0, 1, 6.7, 3.95)">
<path style="fill:#D03535;fill-opacity:1" d="M2.5,3.1L-4.05 3.1Q-4.9 3.05 -5.55 2.15L-6.05 1.1L1.9 0.75Q2 1.6 2.5 2.25L2.5 3.1" />
<path style="fill:#D05454;fill-opacity:1" d="M2.5,2.25Q2 1.6 1.9 0.75L1.85 0.05Q1.85 -1.25 2.5 -2.2Q2.95 -2.85 3.55 -3L4.05 -3.1Q4.95 -3.1 5.6 -2.2Q6.25 -1.25 6.25 0.05Q6.25 1.35 5.6 2.25Q4.95 3.2 4.05 3.2L3.95 3.2L3.5 3.1Q2.95 2.9 2.5 2.25" />
<path style="fill:#B11E1E;fill-opacity:1" d="M1.85,0.05L1.9 0.75L-6.05 1.1L-6.2 -0.05Q-6.2 -1.35 -5.55 -2.3Q-4.95 -3.15 -4.1 -3.2L-4 -3.2L-3.9 -3.2L2.5 -3.05L2.5 -2.2Q1.85 -1.25 1.85 0.05" />
<path style="fill:none;stroke-width:1;stroke-linecap:butt;stroke-linejoin:miter;stroke-miterlimit:3;stroke:#791B1B;stroke-opacity:1" d="M1.9,0.75L1.85 0.05Q1.85 -1.25 2.5 -2.2Q2.95 -2.85 3.55 -3L2.5 -3.05L-3.9 -3.2L-4 -3.2L-4.1 -3.2Q-4.95 -3.15 -5.55 -2.3Q-6.2 -1.35 -6.2 -0.05L-6.05 1.1M3.55,-3L4.05 -3.1Q4.95 -3.1 5.6 -2.2Q6.25 -1.25 6.25 0.05Q6.25 1.35 5.6 2.25Q4.95 3.2 4.05 3.2L3.95 3.2L3.5 3.1L2.5 3.1L-4.05 3.1Q-4.9 3.05 -5.55 2.15L-6.05 1.1M1.9,0.75Q2 1.6 2.5 2.25Q2.95 2.9 3.5 3.1" />
</g>
</svg>
