<?xml version="1.0" encoding="utf-8"?>
<svg version="1.1" id="Layer_1"
xmlns="http://www.w3.org/2000/svg"
xmlns:xlink="http://www.w3.org/1999/xlink"
xmlns:author="http://www.sothink.com"
width="70px" height="39px"
xml:space="preserve">
<g id="112" transform="matrix(1, 0, 0, 1, 27.6, 20.1)">
<path style="fill:#A4A4E2;fill-opacity:1" d="M33.1,4.35L32.7 4.45L31.85 3.1Q30.8 1.9 29.5 1.9L28.5 2.1L27.45 2.3L21.85 1.8L17.1 2.1L16.35 2.1L12.45 1.9L10.6 2.05L9.35 2.2L6.65 1.8L5.05 1.45L2.95 1.1L0.25 0.6L-3.5 0.2L-7.15 0.55L-10.95 0.9L-12.1 0.75L-13.15 0.6L-14.8 0.75L-17.05 0.9Q-18.65 0.9 -20.05 0.25Q-21.5 -0.45 -22.05 -1.4Q-22.3 -1.95 -23.6 -2.4L-22.25 -2.6Q-18.45 -3 -16 -5.55Q-12.7 -8.85 -10.6 -9.75L-10.4 -9.85L-9.1 -10.15L-9.45 -9.3L-8.3 -9L-3.6 -8.15L1.45 -6.9L6.05 -5.85L8.2 -5Q18.1 -1.1 20.15 -1.1L23.05 -0.4L24 -0.1L25.95 0.15L28.15 0.5Q29.55 0.9 31.85 2Q33.75 2.7 36.3 2.85Q36 3.65 33.1 4.35M-10.8,-3.4Q-9.6 -3.75 -9.6 -4.4Q-9.6 -4.95 -10.65 -5.9Q-11.65 -6.8 -12.15 -6.8Q-12.65 -6.8 -13.75 -5.6Q-14.95 -4.3 -15.6 -4.15L-14.3 -3.55L-12.65 -3.15L-10.8 -3.4M-8.75,-8.9L-9.6 -8.55Q-10.25 -8.1 -10.65 -7.95Q-9.5 -6.8 -6.85 -6.3L-6.85 -6.6L-8.75 -8.9" />
<path style="fill:#8989C2;fill-opacity:1" d="M32.4,4.5L30.4 4.9L30.25 4.7L30.1 4.6Q27.75 3 18.75 3L17.15 3.1L9.25 3.6L5.45 3.85L2.55 3.75L-0.75 3.35L-6.7 2.85L-12.65 3.2L-18.45 3.5L-22.85 3.25L-25.95 3.25L-26.35 3.4L-27 1.35L-27.1 0.3Q-27.1 -1.25 -25.5 -1.9L-23.6 -2.4Q-22.3 -1.95 -22.05 -1.4Q-21.5 -0.45 -20.05 0.25Q-18.65 0.9 -17.05 0.9L-14.8 0.75L-13.15 0.6L-12.1 0.75L-10.95 0.9L-7.15 0.55L-3.5 0.2L0.25 0.6L2.95 1.1L5.05 1.45L6.65 1.8L9.35 2.2L10.6 2.05L12.45 1.9L16.35 2.1L17.1 2.1L21.85 1.8L27.45 2.3L28.5 2.1L29.5 1.9Q30.8 1.9 31.85 3.1L32.7 4.45L32.4 4.5M-24.7,0.15L-24.4 -0.3L-24.9 -0.35L-24.9 -0.2L-24.95 -0.1L-24.8 0.05L-24.7 0.15" />
<path style="fill:#C0C0EC;fill-opacity:1" d="M33.35,0.45Q36.3 1.65 36.3 2.7L36.3 2.85Q33.75 2.7 31.85 2Q29.55 0.9 28.15 0.5L25.95 0.15L24 -0.1L23.05 -0.4L20.15 -1.1Q18.1 -1.1 8.2 -5L6.05 -5.85L1.45 -6.9L-3.6 -8.15L-8.3 -9L-9.45 -9.3L-9.1 -10.15L-3.95 -10.5L-0.3 -10.25L2.3 -9.7L4.1 -9.15L8.4 -7.2L12.3 -5.45L18.3 -3.3L19.65 -2.85L23.25 -2.05L25.3 -1.95L25.45 -1.95L30.95 -0.45L32 -0.1L33.35 0.45" />
<path style="fill:#A6DAEC;fill-opacity:1" d="M-0.3,-10.25L-1.6 -13.55L-2 -14.35L-2.4 -14.95L-5.2 -18.2Q-4.4 -19.6 -3.7 -19.6Q-1.85 -19.6 0.3 -15L0.4 -14.75L0.7 -14L2.3 -9.7L-0.3 -10.25M23.25,-2.05L22.9 -3.45L22.8 -3.8L22.3 -5.25L23.85 -6.3Q24.5 -6.3 24.9 -4.35L25.1 -3.45L25.3 -1.95L23.25 -2.05M37.7,6.65L37.15 3.5L37.1 2.9L36.9 0.55L37 -0.7L37.3 -3.35L37.1 -4.25Q36.3 -3.95 35.15 -2.25L34.35 -2.75L35.9 -5.4Q37.85 -9.1 39.2 -9.1Q39.65 -9.1 39.75 -8.6L39.75 -7.8L39.4 -4.3Q39 -2.05 39 0.5L39.15 2.7L39.2 3.35L39.7 6.65L40.55 9.05L41.35 11.6L41.25 11.9Q40.05 11.6 38.9 11Q38.25 9.3 37.7 6.65M-1.3,7.35Q-0.9 8.05 -0.9 9.15L-0.95 10.65L-0.95 10.7L-1.1 12.05L-0.5 14.4Q-3.35 14.15 -5 12.35L-5.8 11.3L-7 9.15Q-7.55 8.25 -8.15 8.15L-8.1 7.9L-7.65 6.55L-6.9 6.75L-3 6.4L-1.8 6.8L-1.3 7.35" />
<path style="fill:#84CCE5;fill-opacity:1" d="M-3.95,-10.5L-9.1 -10.15L-9.15 -10.5L-6.4 -15.65L-5.3 -18L-5.2 -18.2L-2.4 -14.95L-2 -14.35L-1.6 -13.55L-0.3 -10.25L-3.95 -10.5M19.65,-2.85L20.4 -3.6L21.85 -4.9L22.3 -5.25L22.8 -3.8L22.9 -3.45L23.25 -2.05L19.65 -2.85M33.1,4.35Q36 3.65 36.3 2.85L36.3 2.7Q36.3 1.65 33.35 0.45L32 -0.1Q32.95 -0.75 34.1 -2.35L34.35 -2.75L35.15 -2.25Q36.3 -3.95 37.1 -4.25L37.3 -3.35L37 -0.7L36.9 0.55L37.1 2.9L37.15 3.5L37.7 6.65Q38.25 9.3 38.9 11Q37.45 10.3 36.1 9.2Q34.5 7.95 33.45 6.45L33.1 5.9L32.45 4.7L33.1 4.35M21.75,5.6L24.95 5.25L25.1 5.25L25.1 5.75L24.85 8.15Q24.55 9.2 23.95 9.2Q23.1 9.2 21.75 7.9L21.05 7.15L19.95 6.05L21.75 5.6M0.35,18.3Q-3.55 17.45 -6 15.15L-6.6 14.5Q-7.9 13.1 -8.3 11.5L-8.5 9.95L-8.15 8.15Q-7.55 8.25 -7 9.15L-5.8 11.3L-5 12.35Q-3.35 14.15 -0.5 14.4L-0.3 15L0.85 18.2L0.35 18.3M-6.9,6.75L-7.65 6.55L-7.45 6.15L-5.85 5.9Q-4.55 5.9 -3 6.4L-6.9 6.75" />
<path style="fill:#DADAF0;fill-opacity:1" d="M30.1,4.85L30 4.95L29.75 5L25.1 5.25L24.95 5.25L21.75 5.6Q20.55 4.75 19.75 4.75L13 5.45Q10 5.45 7.95 6.2Q5.9 6.95 3.8 6.95L1.15 6.65L-0.55 6.4L-1.65 6.35L-1.8 6.8L-3 6.4Q-4.55 5.9 -5.85 5.9L-7.45 6.15L-7.65 6.55L-7.8 6.45Q-8.4 6.15 -8.9 6.15L-10.95 6.65L-13.9 7.15L-18.5 7.25L-18.8 7.35Q-21.1 5.6 -22.15 5.15L-26.3 3.5L-25.95 3.25L-22.85 3.25L-18.45 3.5L-12.65 3.2L-6.7 2.85L-0.75 3.35L2.55 3.75L5.45 3.85L9.25 3.6L17.15 3.1L18.75 3Q27.75 3 30.1 4.6L30.1 4.85M5.95,3.95L6.15 3.85L5.95 3.85L5.95 3.95" />
<path style="fill:#FFFFFF;fill-opacity:1" d="M-12.4,-5.4L-13.1 -5.4Q-13.5 -5.3 -13.45 -4.7L-13.4 -4.3L-12.75 -4.1L-12.2 -4.4L-12.05 -4.8Q-12.05 -5.2 -12.4 -5.4M-12.65,-3.15L-14.3 -3.55L-15.6 -4.15Q-14.95 -4.3 -13.75 -5.6Q-12.65 -6.8 -12.15 -6.8Q-11.65 -6.8 -10.65 -5.9Q-9.6 -4.95 -9.6 -4.4Q-9.6 -3.75 -10.8 -3.4L-12.65 -3.15" />
<path style="fill:#000000;fill-opacity:1" d="M-12.05,-4.8L-12.2 -4.4L-12.75 -4.1L-13.4 -4.3L-13.45 -4.7Q-13.5 -5.3 -13.1 -5.4L-12.4 -5.4Q-12.05 -5.2 -12.05 -4.8" />
<path style="fill:#B9B9D0;fill-opacity:1" d="M19.95,6.05L19.3 6.2L13.6 7.9Q9.5 9.05 7.75 9.2L2.9 10L1.15 10.25Q0.1 10.4 -0.45 10.75L-0.95 10.7L-0.95 10.65L-0.9 9.15Q-0.9 8.05 -1.3 7.35L-1.8 6.8L-1.65 6.35L-0.55 6.4L1.15 6.65L3.8 6.95Q5.9 6.95 7.95 6.2Q10 5.45 13 5.45L19.75 4.75Q20.55 4.75 21.75 5.6L19.95 6.05M-8.3,11.5L-9.85 11.5Q-15.3 10.65 -16.3 9.35L-16.6 9.1L-18.8 7.35L-18.5 7.25L-13.9 7.15L-10.95 6.65L-8.9 6.15Q-8.4 6.15 -7.8 6.45L-7.65 6.55L-8.1 7.9L-8.15 8.15L-8.5 9.95L-8.3 11.5" />
<path style="fill:none;stroke-width:1;stroke-linecap:butt;stroke-linejoin:miter;stroke-miterlimit:3;stroke:#565680;stroke-opacity:1" d="M-26.35,3.4L-27 1.35L-27.1 0.3Q-27.1 -1.25 -25.5 -1.9L-23.6 -2.4L-22.25 -2.6Q-18.45 -3 -16 -5.55Q-12.7 -8.85 -10.6 -9.75L-10.4 -9.85L-9.1 -10.15L-3.95 -10.5L-0.3 -10.25L2.3 -9.7L4.1 -9.15L8.4 -7.2L12.3 -5.45L18.3 -3.3L19.65 -2.85L23.25 -2.05L25.3 -1.95L25.45 -1.95L30.95 -0.45L32 -0.1M32.4,4.5L30.4 4.9M-24.8,0.05L-24.95 -0.1L-24.9 -0.2L-24.9 -0.35L-24.4 -0.3L-24.7 0.15L-24.8 0.05L-24.9 -0.2M32.4,4.5L32.7 4.45L33.1 4.35Q36 3.65 36.3 2.85L36.3 2.7Q36.3 1.65 33.35 0.45L32 -0.1M-12.65,-3.15L-14.3 -3.55L-15.6 -4.15Q-14.95 -4.3 -13.75 -5.6Q-12.65 -6.8 -12.15 -6.8Q-11.65 -6.8 -10.65 -5.9Q-9.6 -4.95 -9.6 -4.4Q-9.6 -3.75 -10.8 -3.4L-12.65 -3.15M-8.75,-8.9L-9.6 -8.55Q-10.25 -8.1 -10.65 -7.95Q-9.5 -6.8 -6.85 -6.3L-6.85 -6.6L-8.75 -8.9M-25.95,3.25L-22.85 3.25L-18.45 3.5L-12.65 3.2L-6.7 2.85L-0.75 3.35L2.55 3.75L5.45 3.85L9.25 3.6L17.15 3.1L18.75 3Q27.75 3 30.1 4.6L30.25 4.7L30.4 4.9" />
<path style="fill:none;stroke-width:1;stroke-linecap:butt;stroke-linejoin:miter;stroke-miterlimit:3;stroke:#385B66;stroke-opacity:1" d="M2.3,-9.7L0.7 -14L0.4 -14.75L0.3 -15Q-1.85 -19.6 -3.7 -19.6Q-4.4 -19.6 -5.2 -18.2M19.65,-2.85L20.4 -3.6L21.85 -4.9L22.3 -5.25L23.85 -6.3Q24.5 -6.3 24.9 -4.35L25.1 -3.45L25.3 -1.95M32,-0.1Q32.95 -0.75 34.1 -2.35L34.35 -2.75L35.9 -5.4Q37.85 -9.1 39.2 -9.1Q39.65 -9.1 39.75 -8.6L39.75 -7.8L39.4 -4.3Q39 -2.05 39 0.5L39.15 2.7L39.2 3.35L39.7 6.65L40.55 9.05L41.35 11.6L41.25 11.9Q40.05 11.6 38.9 11Q37.45 10.3 36.1 9.2Q34.5 7.95 33.45 6.45L33.1 5.9L32.45 4.7L32.4 4.5M25.1,5.25L25.1 5.75L24.85 8.15Q24.55 9.2 23.95 9.2Q23.1 9.2 21.75 7.9L21.05 7.15L19.95 6.05M-0.95,10.7L-1.1 12.05L-0.5 14.4L-0.3 15L0.85 18.2M0.35,18.3Q-3.55 17.45 -6 15.15L-6.6 14.5Q-7.9 13.1 -8.3 11.5M-9.15,-10.5L-6.4 -15.65L-5.3 -18L-5.2 -18.2M-7.45,6.15L-5.85 5.9Q-4.55 5.9 -3 6.4L-1.8 6.8M-7.65,6.55L-8.1 7.9L-8.15 8.15L-8.5 9.95L-8.3 11.5M-0.95,10.7L-0.95 10.65L-0.9 9.15Q-0.9 8.05 -1.3 7.35L-1.8 6.8" />
<path style="fill:none;stroke-width:1;stroke-linecap:butt;stroke-linejoin:miter;stroke-miterlimit:3;stroke:#333333;stroke-opacity:1" d="M30.4,4.9L30.15 4.95L30 4.95M0.85,18.2L0.85 18.3L0.35 18.3M-26.3,3.5L-26.35 3.4M-7.65,6.55L-7.45 6.15M5.95,3.85L6.15 3.85L5.95 3.95L5.95 3.85L5.45 3.85" />
<path style="fill:none;stroke-width:1;stroke-linecap:butt;stroke-linejoin:miter;stroke-miterlimit:3;stroke:#858585;stroke-opacity:1" d="M30,4.95L29.75 5L25.1 5.25M19.95,6.05L19.3 6.2L13.6 7.9Q9.5 9.05 7.75 9.2L2.9 10L1.15 10.25Q0.1 10.4 -0.45 10.75M-8.3,11.5L-9.85 11.5Q-15.3 10.65 -16.3 9.35L-16.6 9.1L-18.8 7.35Q-21.1 5.6 -22.15 5.15L-26.3 3.5M19.95,6.05L21.75 5.6L24.95 5.25L25.1 5.25" />
</g>
</svg>
