<?xml version="1.0" encoding="utf-8"?>
<svg version="1.1" id="Layer_1"
xmlns="http://www.w3.org/2000/svg"
xmlns:xlink="http://www.w3.org/1999/xlink"
xmlns:author="http://www.sothink.com"
width="52px" height="71px"
xml:space="preserve">
<g id="42" transform="matrix(1, 0, 0, 1, 28.65, 66.3)">
<path style="fill:#77F5DB;fill-opacity:1" d="M5.25,-60.2L5.35 -61.45L6.75 -61.85Q7.35 -61.25 7.35 -59.9Q6.9 -58.35 6.3 -58.35Q5.85 -58.35 5.55 -58.85Q5.25 -59.4 5.25 -60.2M22.2,-36.05Q22.8 -35.35 22.8 -34.2Q22.8 -31.95 21 -31.95Q20.3 -31.95 19.8 -32.25Q19.2 -32.65 19.2 -33.45L19.25 -34.3L19.45 -35.55Q20.05 -36.65 20.85 -36.65Q21.65 -36.65 22.2 -36.05M5.6,-26.15Q9.75 -5.8 9.75 1.75Q9.75 3.3 8.85 3.55L6.15 3.5L4.4 3.45L-6.5 2.9L-14.6 3.5L-14.7 3.55L-22.45 4.3Q-20.2 0 -18.6 -10.95Q-17.2 -20.65 -13.55 -24.8Q-5.1 -34.35 0.3 -47.9Q1.75 -45 5.6 -26.15M-7.65,-66.3Q-6.6 -66.3 -5.9 -65.75Q-5 -65.05 -5 -63.75Q-5 -61.25 -6.8 -61.25Q-8.5 -61.25 -9 -62.55L-9.15 -63.55Q-9.05 -63.8 -9.1 -63.95L-9.15 -64.65L-9.05 -65.35Q-8.75 -66.3 -7.65 -66.3M-26.6,-13.75L-26.15 -14.75Q-25.45 -16.25 -25 -16.25Q-24.1 -16.25 -23.4 -15.35Q-22.8 -14.6 -22.8 -14.05Q-22.8 -13.2 -23.4 -12.4Q-24.1 -11.55 -25.15 -11.55L-26.6 -11.85L-26.6 -12.75L-26.55 -13.2L-26.6 -13.55L-26.6 -13.75" />
<path style="fill:#D2DEEE;fill-opacity:1" d="M13.85,-0.9Q15.3 -0.8 15.35 0.55Q15.35 1.5 13.6 1.8L-4.7 2.9L-15.8 3L-16.85 3.2L-24.8 3.5L-27.9 2.95Q-28.65 2.55 -28.65 1.75Q-28.65 0.9 -27.65 0.45Q-25.9 -0.35 -20.7 -0.6L5.55 -0.75L6.15 -0.9L13.85 -0.9" />
</g>
</svg>
