<?xml version="1.0" encoding="utf-8"?>
<svg version="1.1" id="Layer_1"
xmlns="http://www.w3.org/2000/svg"
xmlns:xlink="http://www.w3.org/1999/xlink"
xmlns:author="http://www.sothink.com"
width="154px" height="270px"
xml:space="preserve">
<g id="348" transform="matrix(1, 0, 0, 1, -12.2, -305.95)">
<path style="fill:#000000;fill-opacity:0.2" d="M62.35,553.45Q76 549.55 95.5 549.35Q115.1 549.2 128.7 552.85Q142.5 556.5 142.55 561.85Q142.6 567.2 128.85 570.95Q115.35 574.9 95.75 575.05Q76.25 575.25 62.5 571.55Q48.65 568.05 48.6 562.7Q48.55 557.35 62.35 553.45" />
<path style="fill:#FC850F;fill-opacity:1" d="M91.8,537.9Q89.1 540.95 86 543.3L86 543.1L83.65 539.95L82.55 538.35Q81.7 537.25 80.8 537.25L80.75 537.6Q80.75 538.3 82 540.4Q83.45 542.75 84.8 543.65L85.2 543.7L85.6 543.4L85.75 543.45Q82.55 545.75 78.85 547.35Q78.9 562.95 77.3 563.65Q75.35 564.55 68.15 564.7L61.35 564.65L60.35 564L53.55 563.65Q52.95 563.45 52.55 562.3L49.25 562.4Q48.35 560.95 47.8 559.05Q46.75 555.2 48.45 552.8Q49.65 551.15 51.55 551L53.25 551.2Q53.7 550.35 54.4 549.9Q56.65 548.35 58.65 549.65Q59.6 550.25 60.15 551.2L60.95 550.55Q62.55 549.5 65.3 550.75Q66.65 551.35 67.7 552.2L68.1 549.95Q62.6 548.75 57.55 545.15Q52.85 541.75 51.6 538.6Q49.85 534.05 51.15 528.95Q52.45 523.85 55.5 523.65Q58.15 523.5 61.7 526.6Q65.6 530.05 70.2 530.5Q70.65 522.5 70.35 513.9L63.25 509.2Q55.55 503.55 52.65 498.9Q49.5 493.8 48.15 486.05Q46.95 479.25 47.75 475.15Q48.2 472.8 51.55 463.75Q55.1 454.05 56.05 450.2Q57.25 445.45 57.4 432L57.3 419.5L51.1 419.3Q44 420 39.5 424.35Q34.9 428.8 32.65 444.7L31.9 450.8Q31.4 455.4 31.3 459.65L36.6 460.25Q42 461.45 42.35 464.15Q42.75 467 40.55 468.45Q38.8 469.65 37.2 469.25L34.05 466.95Q31.75 465.2 30.85 466.2Q30.2 466.95 33.5 472.65Q36.75 478.35 35.4 479.7Q34.1 481 32.65 481.05Q31.6 481.1 30.05 480.45L29.6 482.5Q28.85 484.7 27.4 485.25Q25.35 486 22.7 484.45Q18.65 485.6 16.95 484.4Q15.6 483.45 14.85 480.5Q14 477.35 14.7 475.2L18.4 464.15Q19.2 457.75 20.5 450.8L21.85 444.15Q26.45 423.05 32.25 417.65Q36.4 413.8 44.05 412.55L50.9 412.1L57.65 411.35L55.9 409.6L54.15 407.25L53.2 405.7Q52 403.25 50.85 399.35L50.05 396.5L49.85 395.8L49.7 395.2L48.55 390.8L48.85 390.8Q50.45 390.3 50.85 390L52.05 388.9L54.75 386.55L54.65 386.25Q53.2 386.35 52.35 386.85L50.95 387.9L48.9 389L48.3 389.45L46.6 381.1L42.75 381.5L48.15 369.75L40.8 371.6L48.5 361.75L41.75 360.05L51.65 354.8L45.85 350.8L55.55 349.35L55.45 346.95Q55.15 343.05 55 339.15L54.9 337.15L54.9 336.8L54.75 328.85L54.75 328.4Q54.75 308.15 58.8 307.5Q62.85 306.85 70.3 322.05L73.3 328.4L76.8 336.8L76.95 337.15L77 337.35L77.3 337.15Q78.9 336.15 80.65 335.2Q84.1 333.3 85.35 333.15Q86.8 333.05 88.4 334.7Q90.05 336.4 90.95 336.5Q92.05 336.6 94.85 335.65L98.3 334.65Q99.75 334.65 102.05 336.8L102.2 336.95L102.3 336.8L106.3 328.4L109.45 322.55Q117.45 308.45 121.15 309.8Q124.7 311.05 123.75 328.4L123.65 330L123.2 336.8L123.15 337.15L122.95 339.15L122 346.95L121.75 348.7L128.9 353.1L120.8 357.1L130.15 361.95L123.3 364.85L128.15 366.95L123.7 372.05L126.95 375.2L124.2 387.35L123.7 389.3Q123.25 388.9 121.45 388.4L117.7 387.75Q117.45 387.85 117.45 388.1Q117.45 388.35 117.8 388.7L120.65 389.6Q121.9 390.3 123.2 390.5L123.5 390.1L122.15 395.2L122.05 395.55Q121.8 395.3 120.8 395L118.95 394.45L116.75 393.65Q115.15 393.15 114.95 393.9Q115.3 394.5 117.7 395.3L121.4 396.25L121.5 396.1Q121.65 395.95 121.9 395.95L121.75 396.5L120.1 402L119 405.15L119.2 412.65L127.25 412.15L134.1 412.6Q141.75 413.85 145.9 417.7Q151.7 423.1 156.3 444.2L157.65 450.85Q158.95 457.8 159.75 464.2L163.45 475.25Q164.15 477.4 163.3 480.55Q162.55 483.5 161.2 484.45Q159.5 485.65 155.45 484.5Q152.8 486.05 150.75 485.3Q149.3 484.75 148.55 482.55L148.1 480.5L145.5 481.1Q144.05 481.05 142.75 479.75Q141.4 478.4 144.65 472.7Q147.95 467 147.3 466.25Q146.4 465.25 144.1 467L140.95 469.3Q139.35 469.7 137.6 468.5L136.65 467.65Q140.1 479.95 138.6 488.9Q137 498.75 129.85 507.3Q126.25 511.6 123 513.9Q122.65 526.1 123.6 537.2Q124.3 545 125.65 552.2Q126.7 551.35 128.05 550.75Q130.8 549.5 132.4 550.55L133.2 551.2Q133.75 550.25 134.7 549.65Q136.7 548.35 138.95 549.9L140.1 551.2L141.8 551Q143.7 551.15 144.9 552.8Q146.6 555.2 145.55 559.05Q145 560.95 144.1 562.4L140.8 562.3Q140.4 563.45 139.8 563.65L133 564L132 564.65L125.2 564.7Q118 564.55 116.05 563.65Q114.1 562.8 114.65 539.5L115.6 516.35Q108.5 518.35 101.85 519Q99.85 525.2 97.15 530.2L96.2 529.6L94.55 528.4L92.65 527.4Q91.55 526.8 90.85 526.7L90.8 526.8L90.75 526.95Q90.75 527.45 92.7 529L95.35 530.7L95.9 531.2L96.05 530.9L96.45 530.95L96.7 530.65L96.9 530.65Q94.7 534.5 92 537.65L89.6 535.2Q87.55 533.15 86.7 533.2L86.6 533.55Q86.6 534.1 88 535.8L90.35 538.25L90.65 538.25L91.1 538L91.8 537.9M123.5,389.8L123.6 389.8L123.55 389.9L123.5 389.8M58.65,330.15L58.9 336.8L58.9 337.15L58.95 339.15L59.35 346Q60.85 344.65 62.3 343.25L65.15 344.95L65.95 341.35L68.65 342L69.05 338.45L72.9 338.85L72.35 337.15L72.25 336.8L69.05 328.4L68 325.85Q62.7 313 60.55 313.65Q58.5 314.2 58.65 328.4L58.65 330.15M81.05,363.45L80.6 364.2Q79.2 366.3 78.4 368.25L79.85 371.9Q82.45 375.6 87.7 376Q95.3 376.6 100.85 372.15Q105.3 368.55 105.65 364.2L105.65 363.45L105.55 362.15Q105.3 360.55 104.6 359.25Q103.5 357.55 101.45 356.35Q100.2 355.7 98.85 355.3L96.4 354.95L96.6 354.65Q97.25 353.75 97.45 352.4Q98.05 349.4 95.5 346.95L95.3 346.8Q92.6 344.3 89.95 346.35L89.3 346.95L87.85 348.95Q88.55 351.7 88.2 354.65L88.1 355.3L87.8 356.75Q86.1 357.75 84.5 359.25L82.6 361.35L83.1 360.65L83.5 360.2L84.95 358.75L86.85 356.85Q87.75 355.95 87.75 354.95L87.85 353.95L87.9 352.1L87.75 351.25L87.65 350.4L87.25 347.85L87 347L86.85 346.55L86.4 346.1L86.15 345.65L85.15 344.85L83.8 344.45L83.7 344.35L81.65 344.35L80.1 344.75Q79.85 344.8 78.8 345.4L78.45 345.4L78.35 345.6L77.9 345.8L77.2 346.35Q76.55 346.9 76.3 347.7L75.4 350.6L74.9 353.45Q74.7 354 74.7 356.35L74.75 361.05Q74.7 361.35 74.95 362.05L75.7 364L76.15 364.95L76.45 365.95L77.4 367.9L77.5 367.95L78 367.95L78.55 367.1L79.2 366.15L79.55 365.25L79.85 364.8L80.25 364.35L81.65 362.5L81.85 362.25L81.05 363.45M50.6,394.45L50.85 394.5L51.05 394.4L52.35 393L53.25 391.7Q53.25 391.2 52.25 391.55L51.75 391.8L51.55 392.05L50.65 392.65L49.85 393.4Q49.85 393.65 50.15 393.9L50.6 394.45M53.75,395.2Q51.4 396.3 51.4 397.35L51.5 397.5L51.6 397.65L51.35 398.3L51.45 398.8L51.85 398.8L53.05 397.5L54.45 396.35Q57 394.1 57 393.75L56.9 393.5Q56.25 393.5 55.3 394.15L53.75 395.2M64.55,386.5L64.35 386.25L64.05 385.9L63.55 385.05L61.55 387.25Q59.7 390 60.55 392.45L61.2 393.7Q62.5 395.55 65.65 396.55Q69.35 397.8 71.6 396.95Q73.25 396.35 74.65 393.7L75.7 391.2L74.1 391.05L73.8 391L71.15 390.55L69.95 390.2L69.4 390L69.55 389.85L69.5 389.8L69.2 389.6L68.8 389.7L68.75 389.75Q66.65 388.85 64.55 386.5M119.35,328.4Q120.4 317.5 118.85 316.75Q117.1 315.95 111.55 326.95L110.85 328.4Q108.75 332.65 106.95 336.8L106.8 337.15L106.35 338.1L109.5 340.55L113 339.65L112.65 344.1L115.55 342.2L116.9 346.85L118.1 339.15L118.35 337.15L118.4 336.8L118.95 332.3L119.35 328.4M118.85,392.6L118.65 392.7L118.8 393.2L120.1 393.9L121.85 394.25L121.95 394.2L121.95 393.55L120.95 393.05Q120.35 392.75 118.85 392.6M126.1,443.45Q128.4 448.55 131.2 453.3L135.75 464.8L135.8 464.2Q136.15 461.5 141.55 460.3L146.85 459.7Q146.75 455.45 146.25 450.85L145.5 444.75Q143.25 428.85 138.65 424.4Q134.15 420.05 127.05 419.35L120.85 419.55L122.6 429.6Q124.65 440.25 126.1 443.45M121.2,398.25L121.15 398.05L120.65 397.9Q121.35 397.95 121.35 397.55L121.1 397.25Q117.9 396.3 114.45 396L114.2 396.15L114.4 396.55Q115.2 397.05 117.35 397.75L120.85 398.75L121.2 398.25M117.4,399.25L115.05 399.1L115 399.4Q115 399.8 115.3 399.95L118.1 401.35L119.05 401.6L119.7 401.6L119.95 401L119.75 400.65Q120.55 400.65 120.35 400.25Q119.9 399.8 118.35 399.55L117.4 399.25M136.65,467.65L135.9 465.2L135.75 464.8Q135.65 466.5 136.65 467.65M63.6,406.3L63.5 406.05Q62.75 405.95 62.05 406.75L61.35 407.2L60.5 407.8L58.9 409Q57.9 409.8 57.9 410.15L58.2 410.45L58.5 410.95L58.45 411.55L58.85 411.6L60.3 410.3L61.55 409.1L62.5 407.7L63.6 406.3M67.55,407.5Q67.45 407.9 67.85 408.4L68.5 409.25L69.2 410.15Q70.2 411 71.4 411Q72.6 411 73.2 410.6L74.35 410L75.1 409.05L74.85 408.75L74.25 409.1L71.85 409.1L69.9 408.35L69.55 408.2L68.3 407.35L67.55 406.6L67.3 406.6L67.55 407.5M57.05,399.95L58 398.6L57.75 398.35L56.35 399.55L54.9 400.7Q54.1 401.4 53.75 402.05L53.35 402.35L53.1 402.7L52.85 403.35L53.1 403.6L54.55 402.6L55.8 401.4L57.05 399.95M57.35,396Q56.85 396.15 56 396.9L54.6 398.15L53.85 398.7L53.1 399.25L52.35 399.95Q52.1 400.2 52.1 400.6L52.25 400.95L52.55 401.25Q53.2 401.25 55.45 398.9Q57.6 396.65 57.6 396.25L57.35 396M57.35,534.55L57.1 534.2Q56.35 534.75 55.7 535.75L54.75 537.45L54 539Q53.5 540.2 53.5 540.8L53.95 541.3L54.2 541.9L54.45 541.95L56.2 537.75L57.35 534.55M60.65,539.45L60.35 539.45Q58.5 542.1 58.5 544.75L58.6 545.05L58.85 545.1Q58.9 544.8 59 544.95L59.35 545.2Q59.75 545.2 59.9 544.15L60.05 542.65L60.7 539.9L60.65 539.45M65.75,540Q65.2 539.85 64.7 541.15L63.95 543.3L63.1 546.9L63.1 547.35L63.35 547.8L63.85 547.9Q63.8 548.35 64.15 548.35L64.45 548.3L65.85 540.85L65.75 540M78.3,530Q86.7 528.85 90.45 519.05Q83.9 518.5 77.8 516.75L78.3 530M98.2,523.3Q96.75 522.65 96.15 522.65Q95.7 522.65 95.6 522.8L95.85 523.3L97.3 524.05L98.75 524.75L99.55 524.65L99.6 524.15Q99.6 523.9 98.2 523.3" />
<path style="fill:#E66006;fill-opacity:1" d="M58.65,328.4Q58.5 314.2 60.55 313.65Q62.7 313 68 325.85L69.05 328.4L72.25 336.8L72.35 337.15L72.9 338.85L69.05 338.45L68.65 342L65.95 341.35L65.15 344.95L62.3 343.25Q60.85 344.65 59.35 346L58.95 339.15L58.9 337.15L58.9 336.8L58.65 330.15L58.65 328.4M118.95,332.3L118.4 336.8L118.35 337.15L118.1 339.15L116.9 346.85L115.55 342.2L112.65 344.1L113 339.65L109.5 340.55L106.35 338.1L106.8 337.15L106.95 336.8Q108.75 332.65 110.85 328.4L111.55 326.95Q117.1 315.95 118.85 316.75Q120.4 317.5 119.35 328.4L118.95 332.3" />
<path style="fill:#FF6D6B;fill-opacity:1" d="M96.4,354.95L98.85 355.3Q100.2 355.7 101.45 356.35Q103.5 357.55 104.6 359.25Q105.3 360.55 105.55 362.15L105.65 363.45L105.65 364.2Q105.3 368.55 100.85 372.15Q95.3 376.6 87.7 376Q82.45 375.6 79.85 371.9L78.4 368.25Q79.2 366.3 80.6 364.2L81.05 363.45L81.85 362.25L82.45 361.5L82.6 361.35L84.5 359.25Q86.1 357.75 87.8 356.75Q89.55 355.75 91.4 355.3L92.2 355.15L96.4 354.95" />
<path style="fill:#FF2E28;fill-opacity:1" d="M69.4,390L69.95 390.2L71.15 390.55L73.8 391L74.1 391.05L75.7 391.2L74.65 393.7Q73.25 396.35 71.6 396.95Q69.35 397.8 65.65 396.55Q62.5 395.55 61.2 393.7L60.55 392.45Q59.7 390 61.55 387.25L63.55 385.05L64.05 385.9L64.35 386.25L64.55 386.5Q66.65 388.85 68.75 389.75L68.55 389.95L67.85 390L67.35 389.65Q67.2 389.55 66.7 390.3L66 391.85L66.05 392.05Q67.15 391.85 68.05 391.15L69.4 390" />
<path style="fill:#FFFFFF;fill-opacity:1" d="M82.45,361.5L81.85 362.25L81.65 362.5L80.25 364.35L79.85 364.8L79.55 365.25L79.2 366.15L78.55 367.1L78 367.95L77.5 367.95L77.4 367.9L76.45 365.95L76.15 364.95L75.7 364L74.95 362.05Q74.7 361.35 74.75 361.05L74.7 356.35Q74.7 354 74.9 353.45L75.4 350.6L76.3 347.7Q76.55 346.9 77.2 346.35L77.9 345.8L78.35 345.6L78.45 345.4L78.8 345.4Q79.85 344.8 80.1 344.75L81.65 344.35L83.7 344.35L83.8 344.45L85.15 344.85L86.15 345.65L86.4 346.1L86.85 346.55L87 347L87.25 347.85L87.65 350.4L87.75 351.25L87.9 352.1L87.85 353.95L87.75 354.95Q87.75 355.95 86.85 356.85L84.95 358.75L83.5 360.2L83.1 360.65L82.6 361.35L82.45 361.5M92.2,355.15L91.4 355.3Q89.55 355.75 87.8 356.75L88.1 355.3L88.2 354.65Q88.55 351.7 87.85 348.95L89.3 346.95L89.95 346.35Q92.6 344.3 95.3 346.8L95.5 346.95Q98.05 349.4 97.45 352.4Q97.25 353.75 96.6 354.65L96.4 354.95L92.2 355.15M80.85,355.7L80.85 355.9Q80.85 357.75 82.2 358.4L82.55 358.45L83.45 358.6Q85.35 357.45 85.35 354.9L85.2 354.05L84.7 353Q84.4 352.4 83.6 352.05L82.05 352.15L81.9 352.3L81.65 352.55Q80.85 353.35 80.85 355.1L80.85 355.7M92.8,350.6L91.8 350.6L91.9 350.55L91.45 350.75Q90.35 351.55 90.35 352.75Q90.35 353.45 90.8 354.55L91.9 354.95Q93.95 354.95 93.95 353L93.9 352.75L93.8 352.45L93.6 351.9L93.65 351.7L92.8 350.6" />
<path style="fill:#582903;fill-opacity:1" d="M123.55,389.9L123.6 390L123.5 390.1L123.2 390.5Q121.9 390.3 120.65 389.6L117.8 388.7Q117.45 388.35 117.45 388.1Q117.45 387.85 117.7 387.75L121.45 388.4Q123.25 388.9 123.7 389.3L123.85 389.55L123.75 389.75L123.6 389.8L123.5 389.8L123.55 389.9M122.05,395.55L122.1 395.7L121.95 395.95L121.9 395.95Q121.65 395.95 121.5 396.1L121.4 396.25L117.7 395.3Q115.3 394.5 114.95 393.9Q115.15 393.15 116.75 393.65L118.95 394.45L120.8 395Q121.8 395.3 122.05 395.55M96.7,530.65L96.45 530.95L96.05 530.9L95.9 531.2L95.35 530.7L92.7 529Q90.75 527.45 90.75 526.95L90.8 526.8L90.85 526.7Q91.55 526.8 92.65 527.4L94.55 528.4L96.2 529.6L97.15 530.2L97.35 530.35L97.2 530.6L96.9 530.65L96.7 530.65M91.1,538L90.65 538.25L90.35 538.25L88 535.8Q86.6 534.1 86.6 533.55L86.7 533.2Q87.55 533.15 89.6 535.2L92 537.65L91.85 537.9L91.8 537.9L91.1 538M85.6,543.4L85.2 543.7L84.8 543.65Q83.45 542.75 82 540.4Q80.75 538.3 80.75 537.6L80.8 537.25Q81.7 537.25 82.55 538.35L83.65 539.95L86 543.1L86 543.3L85.95 543.35L85.85 543.45L85.75 543.45L85.6 543.4M48.55,390.8L47.95 390.8L47.75 390.25Q47.75 389.85 48.3 389.45L48.9 389L50.95 387.9L52.35 386.85Q53.2 386.35 54.65 386.25L54.75 386.55L52.05 388.9L50.85 390Q50.45 390.3 48.85 390.8L48.55 390.8M80.85,355.1Q80.85 353.35 81.65 352.55L81.9 352.3L82.05 352.15L83.6 352.05Q84.4 352.4 84.7 353L85.2 354.05L85.35 354.9Q85.35 357.45 83.45 358.6L82.55 358.45L82.2 358.4Q80.85 357.75 80.85 355.9L80.85 355.7L80.85 355.1M50.15,393.9Q49.85 393.65 49.85 393.4L50.65 392.65L51.55 392.05L51.75 391.8L52.25 391.55Q53.25 391.2 53.25 391.7L52.35 393L51.05 394.4L50.85 394.5L50.6 394.45L50.15 393.9M55.3,394.15Q56.25 393.5 56.9 393.5L57 393.75Q57 394.1 54.45 396.35L53.05 397.5L51.85 398.8L51.45 398.8L51.35 398.3L51.6 397.65L51.5 397.5L51.4 397.35Q51.4 396.3 53.75 395.2L55.3 394.15M68.05,391.15Q67.15 391.85 66.05 392.05L66 391.85L66.7 390.3Q67.2 389.55 67.35 389.65L67.85 390L68.55 389.95L68.75 389.75L68.8 389.7L69.2 389.6L69.5 389.8L69.55 389.85L69.4 390L68.05 391.15M93.65,351.7L93.6 351.9L93.8 352.45L93.9 352.75L93.95 353Q93.95 354.95 91.9 354.95L90.8 354.55Q90.35 353.45 90.35 352.75Q90.35 351.55 91.45 350.75L91.9 350.55L91.8 350.6L92.8 350.6L93.65 351.7M120.95,393.05L121.95 393.55L121.95 394.2L121.85 394.25L120.1 393.9L118.8 393.2L118.65 392.7L118.85 392.6Q120.35 392.75 120.95 393.05M120.85,398.75L117.35 397.75Q115.2 397.05 114.4 396.55L114.2 396.15L114.45 396Q117.9 396.3 121.1 397.25L121.35 397.55Q121.35 397.95 120.65 397.9L121.15 398.05L121.2 398.25L120.85 398.75M118.35,399.55Q119.9 399.8 120.35 400.25Q120.55 400.65 119.75 400.65L119.95 401L119.7 401.6L119.05 401.6L118.1 401.35L115.3 399.95Q115 399.8 115 399.4L115.05 399.1L117.4 399.25L118.35 399.55M62.5,407.7L61.55 409.1L60.3 410.3L58.85 411.6L58.45 411.55L58.5 410.95L58.2 410.45L57.9 410.15Q57.9 409.8 58.9 409L60.5 407.8L61.35 407.2L62.05 406.75Q62.75 405.95 63.5 406.05L63.6 406.3L62.5 407.7M67.3,406.6L67.55 406.6L68.3 407.35L69.55 408.2L69.9 408.35L71.85 409.1L74.25 409.1L74.85 408.75L75.1 409.05L74.35 410L73.2 410.6Q72.6 411 71.4 411Q70.2 411 69.2 410.15L68.5 409.25L67.85 408.4Q67.45 407.9 67.55 407.5L67.3 406.6M55.8,401.4L54.55 402.6L53.1 403.6L52.85 403.35L53.1 402.7L53.35 402.35L53.75 402.05Q54.1 401.4 54.9 400.7L56.35 399.55L57.75 398.35L58 398.6L57.05 399.95L55.8 401.4M57.6,396.25Q57.6 396.65 55.45 398.9Q53.2 401.25 52.55 401.25L52.25 400.95L52.1 400.6Q52.1 400.2 52.35 399.95L53.1 399.25L53.85 398.7L54.6 398.15L56 396.9Q56.85 396.15 57.35 396L57.6 396.25M56.2,537.75L54.45 541.95L54.2 541.9L53.95 541.3L53.5 540.8Q53.5 540.2 54 539L54.75 537.45L55.7 535.75Q56.35 534.75 57.1 534.2L57.35 534.55L56.2 537.75M60.7,539.9L60.05 542.65L59.9 544.15Q59.75 545.2 59.35 545.2L59 544.95Q58.9 544.8 58.85 545.1L58.6 545.05L58.5 544.75Q58.5 542.1 60.35 539.45L60.65 539.45L60.7 539.9M65.85,540.85L64.45 548.3L64.15 548.35Q63.8 548.35 63.85 547.9L63.35 547.8L63.1 547.35L63.1 546.9L63.95 543.3L64.7 541.15Q65.2 539.85 65.75 540L65.85 540.85M99.6,524.15L99.55 524.65L98.75 524.75L97.3 524.05L95.85 523.3L95.6 522.8Q95.7 522.65 96.15 522.65Q96.75 522.65 98.2 523.3Q99.6 523.9 99.6 524.15" />
<path style="fill:#000000;fill-opacity:0.2" d="M61.2,310.1L60.35 310.1Q59.7 310.15 59.2 310.6Q58.6 310.9 58.35 311.6L58.25 312.05L58.05 312.45Q57.85 312.95 57.6 314L57.3 315.35L57.3 315.75L57.4 315.75L57.05 317.55L56.85 325.45Q56.85 331.75 57.3 336.2L57.6 341.65L57.95 345.45L57.3 347.4L56.85 348.45L56.35 348.8L55.5 348.35L55.45 346.95Q55.15 343.05 55 339.15L54.9 337.15L54.9 336.8L54.75 328.85L54.75 328.4Q54.75 308.15 58.8 307.5Q62.85 306.85 70.3 322.05L73.3 328.4L74.85 331.95Q74.4 331.95 74.25 332.4L72.9 329Q72 326.7 71.65 326.7L71.4 326.75Q71.6 327.95 72.45 330.05L71.15 327.65L70.05 325.05L68.8 322.45L67.55 319.85L66.15 317.4Q65.65 315.75 64.95 314.7L64.55 313.9L65.1 314.4L65.35 314.35L65.4 314.25L65.4 314.05L63.8 312L62.45 311L62.05 310.85L61.5 310.65Q61.5 310.1 61.2 310.1M62.8,312.5L63.5 313.65L65.4 317.15L67.2 320.7L69 324.2L70.45 327.75Q71.25 329.8 72.15 331.2Q72.85 332.3 73.5 334.7L74.05 335.9L73.5 338.1Q72.9 339.35 71.2 339.35L69.75 339.15Q68.65 339.05 68.35 340.35L67.8 342.6L67.4 342.6L66.15 342.3Q65.5 342.75 65.15 343.65L64.65 345.15L63.7 344.45L62.55 343.8L60.7 345L58.95 346.35L58.65 344.4Q58.35 342.95 58.35 342.15L58.25 338.4L57.75 333.9L57.55 328.85L57.5 325.55L57.75 318.3Q57.8 316.75 58.35 314.7L58.4 314.5L58.75 313.7Q59.65 311.85 60.8 311.85Q61.7 311.85 62.8 312.5M58.7,321.05L58.7 327.9L58.7 334.85L58.9 337.25Q59.2 338.7 61.35 339.6Q62.6 339.15 63.25 338L63.95 336.3L64.1 336.7Q64.2 336.9 64.5 336.9Q65.2 336.9 65.65 335.3L66 333L66.25 333.3Q66.35 333.5 66.65 333.5L67.05 333.45L67.05 332.85Q67.05 328.55 62.4 318.95Q59.9 315.2 59.1 317.7L58.85 319.4L58.7 321.05M77.7,354.55Q78.55 355.8 81.2 355.8Q84.55 355.8 86.4 353.6Q87.75 352 87.75 350.4Q87.75 349 86.8 347.05Q85.25 344 82.3 344Q79.2 344 77.8 347.25Q77 349.15 77 351.05Q77 353.6 77.7 354.55M66.85,355.65Q68.55 354.65 69.85 353.35Q71.1 352.05 72.45 349.8Q73.75 347.4 77.3 345.4Q81.25 343.2 84.6 343.7Q85.75 344.35 86.45 345.95Q87.3 347.8 87.65 348.15L88.05 348.15L89.05 347.45L89.7 346.5Q90.5 345.7 90.65 345.65Q91.5 345.05 92.9 345.05Q95 345.05 96.5 347.05Q97.95 349 97.95 351.4L97.65 353.8Q97.65 354.5 99.75 355.7Q102.2 357.1 102.95 358.25L104 359.5L104.6 360.25L104.6 360.45L105.25 362.6L105.6 365.45Q105.6 371.9 100.65 377.35Q95 383.55 86.4 383.55Q82.65 383.55 80.4 381.75L78.6 379.55Q77.2 378 77.1 377.15L76.55 374.55L76.95 370.75Q76.95 368.1 76.75 367.45L74.75 363.35Q73.6 360.95 72.15 359.5Q70.15 357.45 66.9 356.25Q67.05 355.85 66.85 355.65M64.35,367.05L64.35 367.1L64.35 367.15L64.3 367.15L64.35 367.05M63,369.5L62.7 372.05L62.7 377.35L62.6 378.6L62.6 380L62.65 381L62.7 384.45L61 387.2Q60 388.65 60 390.4Q60 392.6 61.5 394.55Q63.65 397.35 67.95 397.55L69.25 397.7Q71.95 397.7 73.95 395.45Q75.6 393.65 75.6 392.4L75.55 391.8L77.85 391.8L80.45 391.5L82.2 391.35L82.35 391.5L85.95 391.5L94.35 390.15L95.2 390L97.2 389.6L101.25 388.35L102.5 387.85L103.95 387.3L109.5 385.1Q110.8 384.5 112.05 383.85L112.1 383.8L116.4 381.3L116.4 381.7L116.7 381.9L113.85 385.55Q112.65 387.1 108.6 388.55L105.45 389.95Q103.85 390.75 102.45 391.05L94.9 393.15Q90.2 394.35 83.4 395.1L80.65 395.2L76.95 395.6Q76.7 395.65 76.3 396.05L75.8 396.6L72.75 398.4L70 399.25Q68.85 399.75 68.85 401.75Q68.85 404.5 75 405.95L90.15 408.75L93.3 408.75Q109.95 406.45 121.15 398.6L120.1 402L119 405.15L119.05 407.3L118.6 407.95L117.35 410.15L115.85 412.25L114.05 414.2Q111.8 416.25 108.5 418.05L102.45 420.9L95.4 423.65L88.25 426.45L80.7 428.75L72.2 430.85Q71.15 430.6 68.6 430.8L65.6 431L64.35 431.1Q63.15 431.25 63.15 431.7L63.15 431.75Q62.75 431.95 62.3 435.1Q61.85 438.2 61.85 439.9L61.35 448.35Q60.8 453.95 60.2 456L58 463.7Q56.85 468.2 56.85 472.05L56.9 474.1L56.45 474Q56.95 481.9 63.15 488.6L67.15 492.3L72 495.95L74.55 497.75Q75.9 498.65 77.25 499.05Q80.9 500.05 88.5 501L96.3 501L111.55 499.15Q114.4 498.6 118.4 497.1Q125.9 494.25 131.1 491.15Q133.85 489.55 135.65 487.65Q137 486.15 138.2 483.95L139.05 482.4Q139.1 485.85 138.6 488.9Q137 498.75 129.85 507.3Q126.25 511.6 123 513.9L123 514.15L121.55 514.65Q120.7 514.85 120.25 515.65L119.85 516.75Q119.55 517.55 119.45 519.05L119.25 521.4L118.85 525.95L118.55 530.7Q118.55 532.55 118.7 533.45L118.7 543.15L119.25 550.5Q119.35 551.95 120 554.1Q120.25 554.8 121.6 556Q123.2 557.45 124.5 557.45L126.1 557.25L128.3 557Q130.25 557 131.65 558.5Q133.05 559.95 136.7 559.95L144.2 559.05L145.65 558.65L145.55 559.05Q145 560.95 144.1 562.4L140.8 562.3Q140.4 563.45 139.8 563.65L133 564L132 564.65L125.2 564.7Q118 564.55 116.05 563.65Q114.1 562.8 114.65 539.5L115.6 516.35Q108.5 518.35 101.85 519L101.1 521.2L100.35 521.5L96.9 522L95.35 522.15Q94.2 522.3 93.9 522.8L93.3 524.1L90.05 528.6Q88.9 530.35 85.8 532.95L81.9 535.1L79.15 536.2Q78.75 536.35 78.75 537.15L78.95 538.9L79.1 540.6L79.1 547.2L78.85 547.35Q78.9 562.95 77.3 563.65Q75.35 564.55 68.15 564.7L61.35 564.65L60.35 564L53.55 563.65Q52.95 563.45 52.55 562.3L49.25 562.4Q48.35 560.95 47.8 559.05L47.5 557.55L48.2 557.85L52.65 558.8L58.2 559.25L61.85 559.65L65.4 559.35L68.55 559.05L69.45 558.6L70.35 558.15Q72.35 556.4 72.5 555.5L73.55 550.05L74.25 538.95L74.25 531.35L74.55 527.2L74.25 519.9Q74.25 518.3 73.5 516.3Q73.15 515.2 71.85 514.55L70.35 514.25L70.35 513.9L63.25 509.2Q55.55 503.55 52.65 498.9Q49.5 493.8 48.15 486.05Q46.95 479.25 47.75 475.15Q48.2 472.8 51.55 463.75Q55.1 454.05 56.05 450.2Q57.25 445.45 57.4 432L57.3 419.5L55.9 419.3L55.2 418.35Q54.35 417.55 52.55 417.05L51.8 416.7L50.75 416.3L50.25 416.4L49.65 416.25L46.25 416.55L42.15 417.3L41.25 417.15L38.35 418.9Q36.7 420 36 420.9L32.3 425.3Q31.05 427.05 29.95 429.7L28.25 434.15Q27.05 437.6 26.55 443L25.95 447.35Q25.55 450.25 25.55 451.9L25.65 455.25L26.25 458.6L26.35 462.1Q26.4 464.2 26.75 465.45L28.5 472.2Q28.85 473.55 30.2 475.65L31.95 477.2Q33.75 478.5 34.75 478.5L35.8 478.3Q35.85 479.25 35.4 479.7Q34.1 481 32.65 481.05Q31.6 481.1 30.05 480.45L29.6 482.5Q28.85 484.7 27.4 485.25Q25.35 486 22.7 484.45Q18.65 485.6 16.95 484.4Q15.6 483.45 14.85 480.5Q14 477.35 14.7 475.2L18.4 464.15Q19.2 457.75 20.5 450.8L21.85 444.15Q26.45 423.05 32.25 417.65Q36.4 413.8 44.05 412.55L50.9 412.1L57.65 411.35L55.9 409.6L54.15 407.25L53.2 405.7Q52 403.25 50.85 399.35L50.05 396.5L49.85 395.8L49.7 395.2L48.55 390.8L47.95 390.8L47.75 390.25Q47.75 389.85 48.3 389.45L46.6 381.1L42.75 381.5L48.15 369.75L40.8 371.6L48.5 361.75L41.75 360.05L51.65 354.8L45.85 350.8L55.2 349.4L55.8 349.65L55.85 349.65L56.5 349.65L56.45 349.85Q56.45 350.25 56.75 350.3L58.05 350.4Q57.8 351.4 56.5 352.95Q55.25 354.35 55.25 354.6Q55.25 354.95 55.55 355.1L58.35 355.05L58.5 355.25L58.65 355.65L58.35 357.65L57.7 358.75L57.3 359.85L58.15 360.8Q59 361.5 59 362.05L58.15 363.45Q57.3 364.6 57.3 365Q57.3 365.4 57.55 365.7L58.05 366.6L57.9 368.4L57.9 369.15Q58 369.55 58.95 369.8L59.1 370.8Q59.2 371.55 60 371.55Q60.7 371.55 62.5 369.45L62.8 369.1L63 369.5M67.8,388.9Q68.9 389.7 69.75 390.05L72.25 390.75L75.05 391.3L75 391.45L74 391.35Q71.4 391.35 69.85 392.85Q68.55 394.1 68.55 395.35L68.6 396.05L69.6 396.75L72.5 395.7L72.45 395.85L71.5 396.55L68.4 397.05Q64.75 396.95 62.45 394.45Q60.6 392.4 60.6 390.4Q60.6 388.65 62.1 386.9Q63.15 385.7 63.45 384.7L64.85 386.9Q66 388.35 66.45 388.35Q67.05 388.35 67.8 388.9M64.05,384.6L63.9 383.6L64.7 385.25L64.75 385.35L64.05 384.6M62.8,391.6Q63.05 392.1 63.65 392.1Q64.25 392.1 64.85 391.5L65.4 390.6Q65.4 388.9 64.05 389.05Q62.7 389.2 62.7 391.05L62.8 391.6M74.25,393.9L74.25 393.8L74.4 393.5L74.45 393.45L74.25 393.9M76.2,391.05L76.7 391.05L76.2 391.1L76.2 391.05M122.9,318.9L122.55 316.95L122.55 315.9L122.15 314.85Q121.15 313.25 120.35 312.9L119.15 312.85L117.9 313.8Q115.55 315.9 112.2 321.65L109.85 325.7L108.3 329.7L106.45 333.75L105.8 335.45L105.45 336.15Q104.35 337.5 103.95 337.5Q103.35 337.5 102.95 336.4L102.75 335.85L106.3 328.4L109.45 322.55Q117.45 308.45 121.15 309.8Q124.7 311.05 123.75 328.4L123.65 330L123.2 336.8L123.15 337.15L122.95 339.15L122 346.95L121.95 347.65L120.7 348L120.6 346.5L121.05 343.35L121.55 340.2L121.8 336.95Q121.8 335.25 122.3 330.85L122.75 324.25L122.6 321.65L122.6 320.4L122.9 318.9M119.25,314.45Q120.85 315.15 121.2 316.3L121.4 318.15L121.55 322.2L121.35 327.85L120.6 334.5L119.8 340.4L119.25 344.7Q118.3 347.15 117.15 347.15Q116.45 347.15 116.05 345.1Q115.65 343.05 115.05 343.05Q114.8 343.05 113.95 343.55L113 344.3L112.05 344.3L112.05 343.3L112.25 341.8Q112.3 340.8 111.45 340.2L109.9 340.65L108.8 341Q108.2 341 107.05 339.8Q106.2 338.95 105.95 338.3L106.4 337.3L106.65 335.7L107.7 332.7L108.4 331.2L109.1 329.7L110.25 326.7L113.75 320.55Q116 317.1 118.7 314.45L119.25 314.45M114,321.2Q113.5 321.75 113.25 322.45L112.85 323.7L111.45 326.15L109.3 331.3Q107.55 335.55 107.55 336.05Q107.55 337.4 108.5 337.5L109.6 337.25L109.95 336.8L110.05 337.1L110.5 337.25L111.7 336.95Q112.1 336.6 112.4 336.6L112.6 336.75L112.8 336.9Q113.2 336.9 113.8 336.3L114.6 335.4L114.75 335.8L115.05 336.3Q115.95 335.05 116.85 329.75Q117.65 324.9 117.65 322.1L117.65 320.9Q117.5 320.05 117 319.65Q116.75 319.5 116.25 319.85L115.65 320.3L114.7 320.7L114 321.2M103.4,360.45Q103.4 359.05 101.1 357.45Q98.35 355.55 94.55 355.55L89.2 356.25Q87.8 356.7 87.45 357L84.75 359.55Q82.75 361.45 82.05 362.65Q81.3 363.9 81.3 365.4Q81.3 369.05 87.75 369.6L92.45 369.6Q94.25 369.9 96.8 368.6L101.25 365.9Q102.25 365.35 102.85 363.45Q103.4 361.85 103.4 360.45M95.55,347.7Q94.5 345.75 92.55 345.75Q91 345.75 90.3 347.25Q89.9 348.15 89.9 349.15Q89.9 350.2 90.45 351Q91.4 352.55 93.95 352.55Q96.3 352.55 96.3 350Q96.3 349.05 95.55 347.7M84.65,390.7L85.1 390.75L83.15 390.9L83.1 390.75L83.25 390.75L83.9 390.6L84.65 390.7M163.3,480.55Q162.55 483.5 161.2 484.45Q159.5 485.65 155.45 484.5Q152.8 486.05 150.75 485.3Q149.3 484.75 148.55 482.55L148.1 480.5L145.5 481.1Q144.05 481.05 142.75 479.75Q141.4 478.4 144.65 472.7Q147.95 467 147.3 466.25Q146.4 465.25 144.1 467L140.95 469.3Q139.35 469.7 137.6 468.5L136.65 467.65L135.9 465.2L135.75 464.8L135.8 464.2Q136.15 461.5 141.55 460.3L146.85 459.7Q146.75 455.45 146.25 450.85L145.5 444.75Q143.25 428.85 138.65 424.4Q134.15 420.05 127.05 419.35L121.2 419.5L120.75 418.75Q120.05 417.6 120.05 417.15Q120.05 416.9 120.35 416.65Q120.75 416.3 121.5 416.2L122 416.3L126.2 416.4L131 416.7L131.9 416.9L131.9 416.95L136.65 419Q139.15 420.15 140.45 421.2Q141.85 422.35 144.9 426.6Q146.45 428.8 147.4 431.9L148.65 437.25Q150.45 445.15 151.5 458.6L151.5 460.35Q150.95 462.2 150.6 465.5Q149.7 469.15 148.95 470.7L147.35 473.6Q146.85 474.45 146.85 475.9L147.15 477.1Q147.75 478.25 149.2 478.25Q151.8 478.25 152.4 474.5Q152.95 470.7 153.9 470.7Q154.3 470.7 154.6 471.7L154.8 472.95L154.3 475.85Q153.8 478.4 153.8 479.3L154.2 480.45L155.1 481.7L156.15 481.7Q157.8 480.75 158.2 477.8Q158.4 474.25 158.75 472.7Q159.9 473.3 160.25 474.45L160.5 476.3L160.4 478.35Q160.6 479.45 162.45 480.15Q163.1 480.15 163.6 479.4L163.3 480.55M32.95,463.4Q34.55 463.7 35 464L36.5 464.7Q37.35 465.05 37.65 465.45L38.95 467.05Q39.65 468.05 39.65 468.7L39.65 469L38.65 469.3L37.8 469.35L37.2 469.25L34.05 466.95L33.15 466.35Q31.8 464.55 31.2 463.1L32.95 463.4M22.8,474.8Q22.8 477.2 23.3 479Q24.1 481.8 25.95 482.4L26.3 482.3L26.4 481.95Q26.4 481.25 25.65 480.1Q24.8 478.9 24.75 478.2Q24.2 475.6 24.3 474.2L24.25 472.15Q24.1 470.8 23.25 471Q22.9 471.1 22.85 471.8L22.8 474.8M53.1,528.8Q53.6 530.4 54.45 531.3Q56.05 533.1 57.35 533.9L59.85 534.95L62.55 535.65Q64.7 535.65 66.2 533.65Q67.4 532.05 67.65 530L70.05 530.5L70.35 533.85Q70.35 539.9 67.9 549.9Q62.5 548.7 57.55 545.15Q52.85 541.75 51.6 538.6Q49.85 534.05 51.15 528.95Q51.75 526.55 52.75 525.25L52.65 526Q52.65 527.4 53.1 528.8M78.3,530Q86.7 528.85 90.45 519.05Q83.9 518.5 77.8 516.75L78.3 530" />
<path style="fill:#FFFFFF;fill-opacity:0.4" d="M87.05,357.55Q89.75 355.25 92.75 354.9L95.35 354.9Q102.8 355.75 102.8 359.55Q102.8 361.2 100.6 362.7Q98.25 364.3 94.5 365.05L90.55 365.35Q86.8 365.35 85.3 363.55Q84.5 362.55 84.5 361.45Q84.5 359.7 87.05 357.55" />
<path style="fill:none;stroke-width:2;stroke-linecap:round;stroke-linejoin:miter;stroke-miterlimit:3;stroke:#AE4200;stroke-opacity:1" d="M58.65,328.4Q58.5 314.2 60.55 313.65Q62.7 313 68 325.85L69.05 328.4L72.25 336.8L72.35 337.15L72.9 338.85L69.05 338.45L68.65 342L65.95 341.35L65.15 344.95L62.3 343.25Q60.85 344.65 59.35 346L58.95 339.15L58.9 337.15L58.9 336.8L58.65 330.15L58.65 328.4M118.95,332.3L118.4 336.8L118.35 337.15L118.1 339.15L116.9 346.85L115.55 342.2L112.65 344.1L113 339.65L109.5 340.55L106.35 338.1L106.8 337.15L106.95 336.8Q108.75 332.65 110.85 328.4L111.55 326.95Q117.1 315.95 118.85 316.75Q120.4 317.5 119.35 328.4L118.95 332.3" />
<path style="fill:none;stroke-width:3;stroke-linecap:butt;stroke-linejoin:miter;stroke-miterlimit:3;stroke:#AE4200;stroke-opacity:1" d="M32.65,444.7L31.9 450.8Q31.4 455.4 31.3 459.65L36.6 460.25Q42 461.45 42.35 464.15Q42.75 467 40.55 468.45Q38.8 469.65 37.2 469.25L34.05 466.95Q31.75 465.2 30.85 466.2Q30.2 466.95 33.5 472.65Q36.75 478.35 35.4 479.7Q34.1 481 32.65 481.05Q31.6 481.1 30.05 480.45" />
<path style="fill:none;stroke-width:3;stroke-linecap:round;stroke-linejoin:miter;stroke-miterlimit:3;stroke:#AE4200;stroke-opacity:1" d="M57.65,411.35L55.9 409.6L54.15 407.25L53.2 405.7Q52 403.25 50.85 399.35L50.05 396.5L49.85 395.8L49.7 395.2L48.5 390.55L46.6 381.1L42.75 381.5L48.15 369.75L40.8 371.6L48.5 361.75L41.75 360.05L51.65 354.8L45.85 350.8L55.55 349.35L55.45 346.95Q55.15 343.05 55 339.15L54.9 337.15L54.9 336.8L54.75 328.85L54.75 328.4M155.45,484.5Q157.3 483.4 157.95 481.8Q158.65 480.2 158.45 475.2L158.15 470.55M30.05,480.45L28.4 479.7Q26.95 479.1 26 474.2L25.35 469.45" />
<path style="fill:none;stroke-width:2;stroke-linecap:round;stroke-linejoin:miter;stroke-miterlimit:3;stroke:#582903;stroke-opacity:1" d="M75.7,391.2L81.45 391.4L84 391.35Q93.2 390.95 104.4 387.1L106.15 386.5L106.75 386.25L111.7 384.15L112.7 383.65L115.2 382.2Q117.85 380.4 118.75 378.55L119.05 377.75L119.05 377.65L118.75 377.25L116.25 376.45L113.2 376.05" />
<path style="fill:none;stroke-width:3;stroke-linecap:round;stroke-linejoin:miter;stroke-miterlimit:3;stroke:#AE4200;stroke-opacity:1" d="M54.75,328.4Q54.75 308.15 58.8 307.5Q62.85 306.85 70.3 322.05L73.3 328.4L76.8 336.8L76.95 337.15L77 337.35L77.3 337.15Q78.9 336.15 80.65 335.2Q84.1 333.3 85.35 333.15Q86.8 333.05 88.4 334.7Q90.05 336.4 90.95 336.5Q92.05 336.6 94.85 335.65L98.3 334.65Q99.75 334.65 102.05 336.8L102.2 336.95L102.3 336.8L106.3 328.4L109.45 322.55Q117.45 308.45 121.15 309.8Q124.7 311.05 123.75 328.4L123.65 330L123.2 336.8L123.15 337.15L122.95 339.15L122 346.95L121.75 348.7L128.9 353.1L120.8 357.1L130.15 361.95L123.3 364.85L128.15 366.95L123.7 372.05L126.95 375.2L124.2 387.35L122.15 395.2L121.95 395.8L121.75 396.5L120.1 402L119 405.15M39.5,424.35Q34.9 428.8 32.65 444.7M135.8,464.2L135.75 464.8M152.8,469.5L152.15 474.25Q151.2 479.15 149.75 479.75L148.1 480.5M20,470.5L19.7 475.15Q19.5 480.15 20.2 481.75Q20.85 483.35 22.7 484.45" />
<path style="fill:none;stroke-width:3;stroke-linecap:round;stroke-linejoin:miter;stroke-miterlimit:3;stroke:#AE4200;stroke-opacity:1" d="M30.05,480.45L29.6 482.5Q28.85 484.7 27.4 485.25Q25.35 486 22.7 484.45Q18.65 485.6 16.95 484.4Q15.6 483.45 14.85 480.5Q14 477.35 14.7 475.2L18.4 464.15Q19.2 457.75 20.5 450.8L21.85 444.15Q26.45 423.05 32.25 417.65Q36.4 413.8 44.05 412.55L50.9 412.1L57.65 411.35L58.4 412.1L61.55 414.75L65.65 417.7Q73 422.55 77.25 423.55L85.25 422.9Q91.55 421.7 98.15 419.45Q115.55 413.65 118.25 406.95L119 405.15L119.2 412.65L127.25 412.15L134.1 412.6Q141.75 413.85 145.9 417.7Q151.7 423.1 156.3 444.2L157.65 450.85Q158.95 457.8 159.75 464.2L163.45 475.25Q164.15 477.4 163.3 480.55Q162.55 483.5 161.2 484.45Q159.5 485.65 155.45 484.5Q152.8 486.05 150.75 485.3Q149.3 484.75 148.55 482.55L148.1 480.5L145.5 481.1Q144.05 481.05 142.75 479.75Q141.4 478.4 144.65 472.7Q147.95 467 147.3 466.25Q146.4 465.25 144.1 467L140.95 469.3Q139.35 469.7 137.6 468.5L136.65 467.65Q140.1 479.95 138.6 488.9Q137 498.75 129.85 507.3Q126.25 511.6 123 513.9Q122.65 526.1 123.6 537.2Q124.3 545 125.65 552.2Q126.7 551.35 128.05 550.75Q130.8 549.5 132.4 550.55L133.2 551.2Q133.75 550.25 134.7 549.65Q136.7 548.35 138.95 549.9L140.1 551.2L141.8 551Q143.7 551.15 144.9 552.8Q146.6 555.2 145.55 559.05Q145 560.95 144.1 562.4L140.8 562.3Q140.4 563.45 139.8 563.65L133 564L132 564.65L125.2 564.7Q118 564.55 116.05 563.65Q114.1 562.8 114.65 539.5L115.6 516.35Q108.5 518.35 101.85 519Q95 540.55 78.85 547.35Q78.9 562.95 77.3 563.65Q75.35 564.55 68.15 564.7L61.35 564.65L60.35 564L53.55 563.65Q52.95 563.45 52.55 562.3L49.25 562.4Q48.35 560.95 47.8 559.05Q46.75 555.2 48.45 552.8Q49.65 551.15 51.55 551L53.25 551.2Q53.7 550.35 54.4 549.9Q56.65 548.35 58.65 549.65Q59.6 550.25 60.15 551.2L60.95 550.55Q62.55 549.5 65.3 550.75Q66.65 551.35 67.7 552.2L68.1 549.95Q62.6 548.75 57.55 545.15Q52.85 541.75 51.6 538.6Q49.85 534.05 51.15 528.95Q52.45 523.85 55.5 523.65Q58.15 523.5 61.7 526.6Q65.6 530.05 70.2 530.5M136.65,467.65Q135.65 466.5 135.75 464.8L135.9 465.2L136.65 467.65M101.85,519Q96.2 519.5 90.45 519.05Q86.7 528.85 78.3 530L78.7 539.5L78.85 547.35M68.1,549.95Q69.15 543.8 69.75 537.2L70.2 530.5M90.45,519.05Q83.9 518.5 77.8 516.75L78.3 530M60.35,564Q58.05 562.3 57.25 560.8Q56.4 559.2 57.75 555.55Q58.75 552.6 60.15 551.2M52.55,562.3Q51.55 559.65 51.95 555.7Q52.25 552.8 53.25 551.2M140.8,562.3Q141.8 559.65 141.4 555.7Q141.1 552.8 140.1 551.2M133.2,551.2Q134.6 552.6 135.6 555.55Q136.95 559.2 136.1 560.8Q135.3 562.3 133 564" />
<path style="fill:none;stroke-width:2;stroke-linecap:round;stroke-linejoin:miter;stroke-miterlimit:3;stroke:#582903;stroke-opacity:1" d="M74.8,362.25L74.55 359.25L74.45 356.6L74.5 355.3L74.5 354.65Q74.7 349.85 76.35 347.2L76.5 346.95Q78.4 344.05 81.95 344Q85.45 343.9 86.95 346.6L87.15 346.95L87.85 348.95L89.3 346.95L89.95 346.35Q92.6 344.3 95.3 346.8L95.5 346.95Q98.05 349.4 97.45 352.4Q97.25 353.75 96.6 354.65L96.4 354.95M87.8,356.75L88.1 355.3L88.2 354.65Q88.55 351.7 87.85 348.95M63.55,385.05L64.05 385.9L64.35 386.25L64.55 386.5Q66.75 388.95 68.9 389.8L69.95 390.2L71.15 390.55L73.8 391L74.1 391.05L75.7 391.2M63.55,385.05L61.55 387.25Q59.7 390 60.55 392.45L61.2 393.7Q62.5 395.55 65.65 396.55Q69.35 397.8 71.6 396.95Q73.25 396.35 74.65 393.7L75.7 391.2" />
<path style="fill:none;stroke-width:2;stroke-linecap:round;stroke-linejoin:miter;stroke-miterlimit:3;stroke:#993127;stroke-opacity:1" d="M96.4,354.95L98.85 355.3Q100.2 355.7 101.45 356.35Q103.5 357.55 104.6 359.25Q105.3 360.55 105.55 362.15L105.65 363.45L105.65 364.2Q105.3 368.55 100.85 372.15Q95.3 376.6 87.7 376Q82.45 375.6 79.85 371.9L78.4 368.25Q79.2 366.3 80.6 364.2L81.05 363.45L81.85 362.25L84.5 359.25Q86.1 357.75 87.8 356.75Q89.55 355.75 91.4 355.3L92.2 355.15L96.4 354.95z" />
<path style="fill:none;stroke-width:2;stroke-linecap:round;stroke-linejoin:miter;stroke-miterlimit:3;stroke:#582903;stroke-opacity:1" d="M64.6,356.3Q69.3 356.25 72.45 359.25Q73.75 360.5 74.8 362.25M78.35,373.35Q77.55 367.9 75.85 364.2L75.5 363.45L74.8 362.25M65,365.1L63.5 374.3L63.2 377.5L63.2 377.65Q62.9 381.5 63.25 383.65L63.3 383.75L63.3 384.15L63.55 385.05" />
<path style="fill:none;stroke-width:3;stroke-linecap:butt;stroke-linejoin:miter;stroke-miterlimit:3;stroke:#AE4200;stroke-opacity:1" d="M70.2,530.5Q70.65 522.5 70.35 513.9L63.25 509.2Q55.55 503.55 52.65 498.9Q49.5 493.8 48.15 486.05Q46.95 479.25 47.75 475.15Q48.2 472.8 51.55 463.75Q55.1 454.05 56.05 450.2Q57.25 445.45 57.4 432L57.3 419.5L51.1 419.3Q44 420 39.5 424.35M135.75,464.8L131.2 453.3Q128.4 448.55 126.1 443.45Q124.65 440.25 122.6 429.6L120.85 419.55L127.05 419.35Q134.15 420.05 138.65 424.4Q143.25 428.85 145.5 444.75L146.25 450.85Q146.75 455.45 146.85 459.7L141.55 460.3Q136.15 461.5 135.8 464.2" />
<path style="fill:#582903;fill-opacity:1" d="M74.65,340.95L74.4 340.9L74.35 340.5Q74.35 339.9 75.6 338.15Q76.4 336.55 78.15 334.6Q79.05 333.5 81.05 332.4Q81.8 331.9 83.1 331.4L85.1 330.85L85.25 330.9L85.3 331.05L85.05 331.5L84.8 331.9L84.8 332L87.35 331.45L87.45 331.65Q87.45 331.85 86.65 332.3L89.1 333.15L89.95 333.55L90.45 334.1L90.35 334.3Q87.05 334.95 84.85 335.85L80.95 337.5L79.4 338.25L77.65 339.15L76.85 339.7L74.65 340.95M95.25,332.95L97.3 333.4L97.3 333.3L97.1 333L96.9 332.65L96.95 332.5L97.05 332.45L98.65 332.9L100.3 333.7Q101.85 334.6 102.6 335.45Q104 337 104.6 338.3Q105.6 339.7 105.6 340.15L105.6 340.5L105.4 340.5L103.65 339.5L103 339.1L101.6 338.35L100.35 337.75L97.25 336.45L92.85 335.2L92.8 335.05L93.2 334.6L93.85 334.3L95.8 333.6Q95.2 333.25 95.2 333.1L95.25 332.95" />
</g>
</svg>
