<?xml version="1.0" encoding="utf-8"?>
<svg version="1.1" id="Layer_1"
xmlns="http://www.w3.org/2000/svg"
xmlns:xlink="http://www.w3.org/1999/xlink"
xmlns:author="http://www.sothink.com"
width="70px" height="66px"
xml:space="preserve">
<g id="21" transform="matrix(1, 0, 0, 1, 33.4, 36.35)">
<path style="fill:#232222;fill-opacity:1" d="M3,-30.35Q-3.5 -30.35 -6.05 -26.9Q-6.85 -25.75 -7.25 -24.3L-7.6 -22.75Q-7.95 -21.95 -9.3 -21Q-10.6 -20.1 -10.95 -19.05Q-11.15 -18 -11.6 -17.1Q-12.55 -15.35 -14.25 -15.35Q-16.1 -15.35 -17.05 -17.7Q-17.5 -18.95 -17.6 -20.15Q-17.6 -22.1 -15.55 -23.65Q-13.35 -25.4 -12.85 -28.65Q-12.35 -32.15 -8.3 -34.55Q-4.75 -36.7 -2.35 -36.25L4.85 -35.7L8.2 -34.4Q8.7 -34.1 10.9 -33.3L14.15 -31.9Q15.3 -31.3 16.3 -29Q17.2 -27.05 17.2 -26.05Q17.2 -22 13.2 -22Q11.85 -22 8.9 -26.2Q5.9 -30.35 3 -30.35M27.75,-7.35L27.35 -7.65Q26.85 -8.1 26.85 -8.3Q26.85 -10.6 31.3 -8.95Q35.75 -7.35 35.75 -4.9Q35.75 -3.2 35.15 -2.05Q33.85 0.25 30.5 0.25Q28.1 0.25 28.1 -1.4Q28.1 -2.35 28.85 -3.35Q29.55 -4.3 29.55 -5Q29.55 -6.1 28.2 -7.05L27.75 -7.35M24.4,10.55Q25.3 8.85 26.15 8.95Q27.75 9.05 28.1 10.6L28.1 12.85Q28.1 14.35 27.2 16.25Q25.9 19.2 23.15 19.2Q19.8 19.2 17.6 16.9Q16.1 15.2 16.1 14.35Q16.1 13.35 16.85 12.9Q17.8 12.3 20.45 12.3Q23.5 12.3 24.4 10.55M3.5,18.3Q4.1 19.2 4.1 19.7Q4.1 21.8 1.15 23Q-2.05 24.25 -2.15 24.6L-2.05 27.4Q-2.55 29.6 -6 29.6Q-10.9 29.6 -13.85 23.95Q-15.3 21.15 -15.8 18.15Q-15.8 15.3 -13.65 13.8Q-11.45 12.3 -9.2 13.75L-7.15 16.8Q-5.7 18.95 -3.85 18.95Q-2.5 18.95 -1.05 18Q0.4 17 0.8 17Q2.5 17 3.5 18.3M-23.95,-2.05Q-23.95 -0.95 -24.75 0Q-25.65 0.95 -25.65 1.65Q-25.65 4.55 -22.25 4.85L-19.95 5.3Q-18.85 5.85 -18.85 7.6Q-18.85 8.7 -19.4 9.45Q-20.5 11 -23.3 11Q-29.35 11 -31.95 7.4Q-33.25 5.6 -33.4 3.55Q-33.4 -1.6 -28.65 -3.95Q-26.8 -4.85 -25.4 -4.4Q-23.95 -3.9 -23.95 -2.05" />
</g>
</svg>
