<?xml version="1.0" encoding="utf-8"?>
<svg version="1.1" id="Layer_1"
xmlns="http://www.w3.org/2000/svg"
xmlns:xlink="http://www.w3.org/1999/xlink"
xmlns:author="http://www.sothink.com"
width="120px" height="94px"
xml:space="preserve">
<g id="164" transform="matrix(1, 0, 0, 1, 67.25, 71.2)">
<path style="fill:#FF0000;fill-opacity:0" d="M52.45,22.15L-67.25 22.15L-67.25 -71.2L52.45 -71.2L52.45 22.15" />
<path style="fill:#4D4C4C;fill-opacity:1" d="M6.95,-53.25L6.8 -57.9Q6.8 -62.8 8.1 -65.5L8.9 -66.85L9.15 -66.85L11.55 -67.25L12 -67.2Q13.9 -67.1 14.4 -65.95Q14.65 -65.2 14.4 -62.95Q14.2 -61.3 14.65 -60.1L14.1 -60.1Q13 -60 12.75 -59.35Q12.4 -58.15 12.45 -56.15L12.45 -52.6L6.95 -53.25M19.35,-17.8L19.35 -18.25L19.45 -20.8L21.05 -20.55L22.5 -20.7L22.45 -18.2L22.3 -17.9L21.9 -17.9L19.35 -17.8M-21.75,-3.2Q-24 -3.2 -24.25 -5.65L-24.3 -5.85Q-24.55 -8.55 -27.45 -8.55L-29.7 -8.1Q-31.85 -7.25 -33.35 -4.55Q-35.5 -0.6 -39.4 -0.6Q-42.25 -0.6 -44.15 -3.5Q-45.2 -5.15 -46.4 -5.85L-47.8 -6.35L-48.3 -6.4L-48.85 -6.35L-51.2 -6.1L-54 -5.8Q-55.6 -5.8 -56.7 -9.85L-56.95 -10.85L-57.05 -11.45Q-58.1 -15.95 -59.05 -15.95L-59.6 -15.85Q-59.25 -17.55 -58.7 -18.25Q-57.8 -17.45 -56.35 -17.5Q-54.8 -17.55 -53.9 -16.7L-53.1 -15.35Q-52.35 -13.15 -49.55 -10.9Q-48.1 -9.7 -46.95 -9.25L-46.15 -11.15L-45.7 -12.1L-44.75 -13.5L-44.55 -13.4Q-43.6 -12.95 -42.6 -12.95Q-41.7 -12.95 -39.45 -13.9L-38.6 -14.25L-34.75 -15.75L-29.3 -16.05L-29.25 -16.05L-25.9 -16.15L-25.75 -16.15L-16.2 -15.55L-5.15 -14.4L-2.2 -14.15L6.95 -14.4L9.9 -14.45L17.7 -14.15L23.5 -13.2L23.5 -13.25L23.85 -13.25L23.5 -13.2L23.45 -10.65L23.4 -7.65Q23.4 -4.9 24.55 -3.95Q25.7 -3 28.85 -3.05Q31.3 -3.05 32.1 -4.55L32.4 -5.6L35.1 -3.95Q36.45 -3.3 38 -3.3Q40.15 -3.3 40.9 -4.55L41.2 -5.35L43.35 -3.8Q44.55 -3.05 45.5 -3.1Q47 -3.1 47.65 -3.6L48.95 -4.9L49 -4.95L49 -4.9L49.45 1.2Q47.2 -0.2 46.55 -0.2L43.55 0.2L41 -0.2L38.2 -0.6L35.85 0.1L33 0.8Q28.85 0.8 26.55 -0.7Q24.3 -2.2 22.2 -2.2L19.55 -1.5L17.15 -0.8Q16.05 -0.8 15 -1.4Q13.95 -1.95 12.9 -3.1Q10.85 -5.4 7.45 -5.4Q3.05 -5.4 0.2 -3.1Q-2.7 -0.8 -5 -0.8Q-7.4 -0.8 -8.35 -2.1Q-8.85 -2.75 -9.3 -4.95L-9.6 -5.95Q-10.85 -9.15 -15 -9.15Q-16.9 -9.15 -17.9 -6.15L-18.1 -5.6Q-19.2 -3.2 -21.75 -3.2M-29.4,-17.6L-30.75 -17.6L-38.75 -16.85L-39 -16.8L-40.75 -16.25Q-41.25 -18.6 -40.95 -20.05L-40.3 -19.95L-36.95 -20.25L-36.2 -20.35L-33.25 -20.55L-29.05 -20.15L-24.85 -19.75L-22.7 -20Q-22.55 -18.95 -22.85 -17.45L-29.4 -17.6M19.75,-31.55L19.75 -29.25L19.45 -20.8Q18.9 -21 18.65 -21.4Q18.35 -21.8 17.95 -23.55Q17.75 -24.4 16.15 -24.35Q14.45 -24.25 13.95 -25.15L13.05 -27.35L12.35 -29.05Q10.55 -32.3 7.65 -32.3Q4.75 -32.3 2.85 -28.9Q1 -25.55 -0.3 -25.55Q-1.45 -25.55 -2.6 -27.5Q-3.75 -29.5 -5.1 -29.5Q-6.1 -29.5 -7.45 -28.8Q-8.85 -28.15 -10 -28.15Q-12.95 -28.15 -14.45 -32.65L-15.4 -32.75L-15.3 -33.3L-15.05 -35.05L-13.4 -45Q-12.95 -47.65 -11.35 -49.45Q-10.6 -48.9 -9.4 -48.9L-5.3 -49.6L-1.1 -50.3L6.95 -49.55Q14.1 -48.6 15.95 -47.5Q18.4 -46 19.3 -39.35L19.7 -33.45L19.75 -31.55M0.2,-53.35L0.1 -53.35L-2 -53.25L-2.15 -55.5L-1.95 -60.6Q-0.2 -60.1 0.2 -58.45Q0.4 -57.6 0.2 -54.95L0.2 -53.35M13,-43.4L13 -43.25L13 -38.85Q13.15 -37.9 15.65 -37.95Q17.9 -37.95 17.9 -39.5Q17.9 -41.8 17.4 -42.65Q16.7 -43.75 14.85 -43.7L13 -43.55L13 -43.4M1.5,-41.3Q1.45 -39.2 1.55 -38.55Q1.8 -37.45 3.9 -37.5L6.6 -37.65Q6.95 -38 6.95 -40.1Q6.95 -42.1 6.45 -42.8Q5.95 -43.6 4.55 -43.6Q2.4 -43.55 1.6 -42.5L1.5 -42.4L1.5 -41.3M20.05,-7.9Q20.25 -7.25 21.15 -7.25Q22.05 -7.25 22.05 -8.4Q22.05 -9.35 21.05 -9.4Q20.05 -9.45 20.05 -8.5L20.05 -7.9M12.95,-7.6L13.95 -7.85Q14.45 -8.1 14.45 -8.5Q14.45 -9.5 12.95 -9.75Q11.45 -9.95 11.45 -8.5L11.5 -8Q11.8 -7.6 12.95 -7.6M-43.1,-11.45Q-44.6 -11.35 -44.6 -9.8Q-44.6 -8.8 -43.2 -8.8Q-41.6 -8.8 -41.6 -10.05Q-41.6 -11.55 -43.1 -11.45M-9.2,-40.45Q-9.25 -38.6 -8.9 -38.1Q-8.45 -37.2 -6.05 -37.2Q-4.6 -37.25 -4.3 -37.7Q-4.15 -38 -4.15 -39.7Q-4.15 -42.05 -4.45 -42.55Q-4.95 -43.35 -6.9 -43.3Q-8.4 -43.3 -8.8 -42.9L-9.3 -42.05Q-9.45 -41.45 -9.2 -40.45M-27.65,-12.95Q-27.25 -12.25 -26.15 -12.25Q-25.25 -12.25 -25.1 -12.55L-25.05 -13.15Q-25.05 -15.3 -26.45 -15Q-27.85 -14.7 -27.85 -13.7L-27.65 -12.95M-31.4,-14.85Q-32.8 -15.2 -33.5 -14.45L-33.9 -13.65L-33.45 -12.9Q-32.9 -12.25 -32.4 -12.25Q-31.5 -12.25 -31.05 -12.8Q-30.7 -13.2 -30.7 -13.7Q-30.7 -14.25 -31.4 -14.85M-9.1,-12.55Q-8.7 -11.85 -7.7 -11.85Q-7 -11.85 -6.8 -12.1L-6.7 -12.7Q-6.7 -13.6 -8 -13.8Q-9.3 -14 -9.3 -13.05L-9.1 -12.55" />
<path style="fill:#727272;fill-opacity:1" d="M14.4,-62.95Q14.65 -65.2 14.4 -65.95Q13.9 -67.1 12 -67.2L11.55 -67.25L9.15 -66.85L8.9 -66.85Q10.45 -68.85 13.2 -68.9Q14.9 -68.95 15.9 -68.3L16.85 -67.15L17.05 -66.55L17.35 -62.55L17.3 -60.85L16.75 -60.3L15.9 -60.15L14.65 -60.1Q14.2 -61.3 14.4 -62.95M21.05,-20.55L19.45 -20.8L19.75 -29.25L19.75 -31.55L19.7 -33.45L19.3 -39.35Q18.4 -46 15.95 -47.5Q14.1 -48.6 6.95 -49.55L-1.1 -50.3L-5.3 -49.6L-9.4 -48.9Q-10.6 -48.9 -11.35 -49.45Q-8.5 -52.75 -2 -53.25L0.1 -53.35L0.2 -53.35L0.2 -54.95Q0.4 -57.6 0.2 -58.45Q-0.2 -60.1 -1.95 -60.6L-1.9 -61.85L-1.85 -62.6L2.2 -62.65L2.2 -57.05Q1.65 -55 1.65 -53.35L6.95 -53.25L12.45 -52.6Q16.3 -51.9 18.1 -50.55L18.15 -50.5Q20.35 -48.8 21.5 -44.9Q22.7 -40.7 22.7 -33.9L22.7 -33.5L22.7 -33.1L22.5 -20.7L21.05 -20.55M-22.85,-17.45L-21.75 -17.45L-15.75 -17.3L-12.55 -17.35L-10 -17.35L-5.45 -17.4L1.8 -17.4L5.8 -17.4L9.5 -17.45L11.7 -17.55L13.2 -17.6L19.35 -17.8L21.9 -17.9L22.3 -17.9L23.55 -17.8L23.5 -13.25L23.5 -13.2L17.7 -14.15L9.9 -14.45L6.95 -14.4L-2.2 -14.15L-5.15 -14.4L-16.2 -15.55L-25.75 -16.15L-25.9 -16.15L-29.25 -16.05L-29.3 -16.05L-34.75 -15.75L-38.6 -14.25L-39.45 -13.9Q-41.7 -12.95 -42.6 -12.95Q-43.6 -12.95 -44.55 -13.4L-44.75 -13.5Q-43.25 -15.3 -40.75 -16.25L-39 -16.8L-38.75 -16.85L-30.75 -17.6L-29.4 -17.6L-22.85 -17.45M-46.95,-9.25Q-48.1 -9.7 -49.55 -10.9Q-52.35 -13.15 -53.1 -15.35L-53.9 -16.7Q-54.8 -17.55 -56.35 -17.5Q-57.8 -17.45 -58.7 -18.25Q-58.25 -18.85 -57.7 -18.85L-53.55 -18.85L-51.75 -18.55Q-50.35 -18.2 -50.3 -17.35Q-50.2 -15.3 -49.35 -13.7Q-48.3 -11.75 -46.15 -11.15L-46.95 -9.25M-24.85,-19.75L-29.05 -20.15L-33.25 -20.55L-36.2 -20.35L-36.95 -20.25L-40.3 -19.95L-40.95 -20.05Q-40.65 -21.5 -39.55 -22.1Q-38.3 -22.85 -34 -22.95L-33.5 -22.95L-25.65 -22.45Q-23.05 -22.35 -22.7 -20L-24.85 -19.75M47.65,-3.6Q47 -3.1 45.5 -3.1Q44.55 -3.05 43.35 -3.8L41.2 -5.35L40.9 -4.55Q40.15 -3.3 38 -3.3Q36.45 -3.3 35.1 -3.95L32.4 -5.6L32.1 -4.55Q31.3 -3.05 28.85 -3.05Q25.7 -3 24.55 -3.95Q23.4 -4.9 23.4 -7.65L23.45 -10.65L23.5 -13.2L23.85 -13.25L31 -14.15L32.8 -14.1Q37.2 -13.85 41.75 -12.3L42.3 -12.15Q43.5 -11.7 44.55 -10.25L46.45 -7.3Q47.5 -5.9 48.95 -4.9L47.65 -3.6M28,-7L27.95 -6.85L27.75 -7L28 -7M26.5,-6.25Q26.9 -5.5 28.15 -5.5L29.15 -5.7L29.45 -5.8L29.55 -6.15L29.75 -7.2Q29.75 -8.65 28.05 -8.7Q26.35 -8.75 26.35 -7.1Q26.35 -6.55 26.5 -6.25M35.6,-7.45L35.8 -6.65Q36.25 -5.9 37.6 -5.9Q38.45 -5.9 38.75 -6.6L38.8 -6.75L38.8 -6.85L38.8 -7.3Q38.8 -8.7 37.2 -8.8Q35.6 -8.95 35.6 -7.45" />
<path style="fill:#989696;fill-opacity:1" d="M48.95,-4.9Q47.5 -5.9 46.45 -7.3L44.55 -10.25Q43.5 -11.7 42.3 -12.15L41.75 -12.3Q37.2 -13.85 32.8 -14.1L31 -14.15L23.85 -13.25L23.5 -13.25L23.55 -17.8L29.35 -17.4L32.9 -17.05L39.1 -16.05L41.65 -15.4L43.6 -14.75Q45.35 -13.8 46.6 -12.4Q47.8 -11.05 48.6 -7.35L49 -4.95L48.95 -4.9" />
<path style="fill:#3A3939;fill-opacity:1" d="M-18.1,-5.6L-17.9 -6.15Q-16.9 -9.15 -15 -9.15Q-10.85 -9.15 -9.6 -5.95L-9.3 -4.95Q-8.85 -2.75 -8.35 -2.1Q-7.4 -0.8 -5 -0.8Q-2.7 -0.8 0.2 -3.1Q3.05 -5.4 7.45 -5.4Q10.85 -5.4 12.9 -3.1Q13.95 -1.95 15 -1.4Q16.05 -0.8 17.15 -0.8L19.55 -1.5L22.2 -2.2Q24.3 -2.2 26.55 -0.7Q28.85 0.8 33 0.8L35.85 0.1L38.2 -0.6L41 -0.2L43.55 0.2L46.55 -0.2Q47.2 -0.2 49.45 1.2L49.45 1.9Q49.55 7.5 47.85 11.35Q46.1 15.15 44.5 15.95L38.3 17.4L30.25 18.2L14.6 19L14.3 19L14.1 19L-1.55 19.7L-12.55 19.3L-15.1 19.1L-28.7 18.45L-32.35 18.35L-36.2 18Q-39.7 17.5 -43.3 16.15L-44.2 15.8Q-45.7 15.2 -49 14.95L-54.55 14.75Q-59.65 14.7 -60.85 13.25Q-61.55 12.3 -61.55 8L-61.15 0.25L-60.55 -6.95L-59.95 -13.85L-59.6 -15.85L-59.05 -15.95Q-58.1 -15.95 -57.05 -11.45L-56.95 -10.85L-56.7 -9.85Q-55.6 -5.8 -54 -5.8L-51.2 -6.1L-48.85 -6.35L-48.3 -6.4L-47.8 -6.35L-46.4 -5.85Q-45.2 -5.15 -44.15 -3.5Q-42.25 -0.6 -39.4 -0.6Q-35.5 -0.6 -33.35 -4.55Q-31.85 -7.25 -29.7 -8.1L-27.45 -8.55Q-24.55 -8.55 -24.3 -5.85L-24.25 -5.65Q-24 -3.2 -21.75 -3.2Q-19.2 -3.2 -18.1 -5.6M1.8,-17.4L-5.45 -17.4L-10 -17.35L-12.55 -17.35L-15.75 -17.3L-15.85 -17.6L-16.2 -17.6L-16.3 -22.85Q-16.3 -26.3 -15.4 -32.75L-14.45 -32.65Q-12.95 -28.15 -10 -28.15Q-8.85 -28.15 -7.45 -28.8Q-6.1 -29.5 -5.1 -29.5Q-3.75 -29.5 -2.6 -27.5Q-1.45 -25.55 -0.3 -25.55Q1 -25.55 2.85 -28.9Q4.75 -32.3 7.65 -32.3Q10.55 -32.3 12.35 -29.05L13.05 -27.35L13.95 -25.15Q14.45 -24.25 16.15 -24.35Q17.75 -24.4 17.95 -23.55Q18.35 -21.8 18.65 -21.4Q18.9 -21 19.45 -20.8L19.35 -18.25L19.35 -17.8L13.2 -17.6L11.7 -17.55Q12.45 -19.15 12.25 -22.7Q12.1 -24.8 11.4 -25.8Q10.7 -26.75 9.55 -26.75Q7.05 -26.75 6.35 -23.4L5.8 -17.4L1.8 -17.4M20.05,-8.5Q20.05 -9.45 21.05 -9.4Q22.05 -9.35 22.05 -8.4Q22.05 -7.25 21.15 -7.25Q20.25 -7.25 20.05 -7.9L20.05 -8.5M11.5,-8L11.45 -8.5Q11.45 -9.95 12.95 -9.75Q14.45 -9.5 14.45 -8.5Q14.45 -8.1 13.95 -7.85L12.95 -7.6Q11.8 -7.6 11.5 -8M27.75,-7L27.95 -6.85L28 -7L27.75 -7M26.35,-7.1Q26.35 -8.75 28.05 -8.7Q29.75 -8.65 29.75 -7.2L29.55 -6.15L29.45 -5.8L29.15 -5.7L28.15 -5.5Q26.9 -5.5 26.5 -6.25Q26.35 -6.55 26.35 -7.1M37.2,-8.8Q38.8 -8.7 38.8 -7.3L38.8 -6.85L38.8 -6.75L38.75 -6.6Q38.45 -5.9 37.6 -5.9Q36.25 -5.9 35.8 -6.65L35.6 -7.45Q35.6 -8.95 37.2 -8.8M-41.6,-10.05Q-41.6 -8.8 -43.2 -8.8Q-44.6 -8.8 -44.6 -9.8Q-44.6 -11.35 -43.1 -11.45Q-41.6 -11.55 -41.6 -10.05M-27.85,-13.7Q-27.85 -14.7 -26.45 -15Q-25.05 -15.3 -25.05 -13.15L-25.1 -12.55Q-25.25 -12.25 -26.15 -12.25Q-27.25 -12.25 -27.65 -12.95L-27.85 -13.7M-30.7,-13.7Q-30.7 -13.2 -31.05 -12.8Q-31.5 -12.25 -32.4 -12.25Q-32.9 -12.25 -33.45 -12.9L-33.9 -13.65L-33.5 -14.45Q-32.8 -15.2 -31.4 -14.85Q-30.7 -14.25 -30.7 -13.7M-30.4,-6.2L-30.25 -6.05L-29.85 -6L-29.85 -6.2L-30.4 -6.2M-9.3,-13.05Q-9.3 -14 -8 -13.8Q-6.7 -13.6 -6.7 -12.7L-6.8 -12.1Q-7 -11.85 -7.7 -11.85Q-8.7 -11.85 -9.1 -12.55L-9.3 -13.05" />
<path style="fill:#2E2C2C;fill-opacity:1" d="M13,-43.55L14.85 -43.7Q16.7 -43.75 17.4 -42.65Q17.9 -41.8 17.9 -39.5Q17.9 -37.95 15.65 -37.95Q13.15 -37.9 13 -38.85L13 -43.25L13 -43.4L13 -43.55M1.5,-42.4L1.6 -42.5Q2.4 -43.55 4.55 -43.6Q5.95 -43.6 6.45 -42.8Q6.95 -42.1 6.95 -40.1Q6.95 -38 6.6 -37.65L3.9 -37.5Q1.8 -37.45 1.55 -38.55Q1.45 -39.2 1.5 -41.3L1.5 -42.4M9.5,-17.45L5.8 -17.4L6.35 -23.4Q7.05 -26.75 9.55 -26.75Q10.7 -26.75 11.4 -25.8Q12.1 -24.8 12.25 -22.7Q12.45 -19.15 11.7 -17.55L9.5 -17.45M-9.2,-41.9L-9.3 -42.05L-8.8 -42.9Q-8.4 -43.3 -6.9 -43.3Q-4.95 -43.35 -4.45 -42.55Q-4.15 -42.05 -4.15 -39.7Q-4.15 -38 -4.3 -37.7Q-4.6 -37.25 -6.05 -37.2Q-8.45 -37.2 -8.9 -38.1Q-9.25 -38.6 -9.2 -40.45L-9.2 -41.9" />
<path style="fill:none;stroke-width:1;stroke-linecap:butt;stroke-linejoin:miter;stroke-miterlimit:3;stroke:#2A2929;stroke-opacity:1" d="M14.65,-60.1L15.9 -60.15L16.75 -60.3L17.3 -60.85L17.35 -62.55L17.05 -66.55L16.85 -67.15L15.9 -68.3Q14.9 -68.95 13.2 -68.9Q10.45 -68.85 8.9 -66.85M14.65,-60.1L14.1 -60.1Q13 -60 12.75 -59.35Q12.4 -58.15 12.45 -56.15L12.45 -52.6Q16.3 -51.9 18.1 -50.55L18.15 -50.5Q20.35 -48.8 21.5 -44.9Q22.7 -40.7 22.7 -33.9L22.7 -33.5L22.7 -33.1L22.5 -20.7L22.45 -18.2M-15.85,-17.6L-16.2 -17.6L-16.3 -22.85Q-16.3 -26.3 -15.4 -32.75L-15.3 -33.3L-15.05 -35.05L-13.4 -45Q-12.95 -47.65 -11.35 -49.45Q-8.5 -52.75 -2 -53.25L-2.15 -55.5L-1.95 -60.6L-1.9 -61.85L-1.85 -62.6L2.2 -62.65L2.2 -57.05Q1.65 -55 1.65 -53.35L6.95 -53.25L6.8 -57.9Q6.8 -62.8 8.1 -65.5L8.9 -66.85M0.2,-53.35L0.1 -53.35L-2 -53.25M0.2,-53.35L1.65 -53.35M6.95,-53.25L12.45 -52.6M13,-43.4L13 -43.25L13 -38.85Q13.15 -37.9 15.65 -37.95Q17.9 -37.95 17.9 -39.5Q17.9 -41.8 17.4 -42.65Q16.7 -43.75 14.85 -43.7L13 -43.55L13 -43.4M19.7,-33.45L22.7 -33.5M1.5,-41.3Q1.45 -39.2 1.55 -38.55Q1.8 -37.45 3.9 -37.5L6.6 -37.65Q6.95 -38 6.95 -40.1Q6.95 -42.1 6.45 -42.8Q5.95 -43.6 4.55 -43.6Q2.4 -43.55 1.6 -42.5L1.5 -42.4L1.5 -41.3M19.7,-33.45L-15.3 -33.3M-15.75,-17.3L-12.55 -17.35L-10 -17.35L-5.45 -17.4L1.8 -17.4L5.8 -17.4L6.35 -23.4Q7.05 -26.75 9.55 -26.75Q10.7 -26.75 11.4 -25.8Q12.1 -24.8 12.25 -22.7Q12.45 -19.15 11.7 -17.55L13.2 -17.6L19.35 -17.8M5.8,-17.4L9.5 -17.45L11.7 -17.55M23.5,-13.2L23.5 -13.25L23.55 -17.8M14.3,19Q14.05 17.75 14.05 14.8L14.8 1.85L15 -1.4L15.45 -11.05L9.95 -11.05L8.85 -11.05L-4.95 -10.55Q-5.05 -9.3 -5.45 -7.35Q-5.65 -6.2 -6.7 -6.05L-8.5 -6.15L-9.6 -5.95M-18.1,-5.6L-13.2 -5.65L-11.65 -5.7L-9.6 -5.95M23.5,-13.2L23.45 -10.65L23.4 -7.65Q23.4 -4.9 24.55 -3.95Q25.7 -3 28.85 -3.05Q31.3 -3.05 32.1 -4.55L32.4 -5.6L32.75 -9.2L32.8 -14.1L32.9 -17.05M32.4,-5.6L35.1 -3.95Q36.45 -3.3 38 -3.3Q40.15 -3.3 40.9 -4.55L41.2 -5.35L41.7 -8.4L41.75 -12.3L41.65 -15.4M22.3,-17.9L21.9 -17.9L19.35 -17.8M15.45,-11.05L22.7 -10.7L23.45 -10.65M41.2,-5.35L43.35 -3.8Q44.55 -3.05 45.5 -3.1Q47 -3.1 47.65 -3.6L48.95 -4.9L49 -4.95M14.3,19L14.6 19M-29.7,-8.1Q-29.3 -13.2 -29.3 -16.05L-29.4 -17.6L-30.75 -17.6L-38.75 -16.85L-39 -16.8L-40.75 -16.25M-47.8,-6.35L-46.95 -9.25M-46.15,-11.15L-46.95 -9.25M-47.8,-6.35L-47.85 -6.15L-48.15 -4.75Q-49 -0.4 -49 4.7Q-49 9.2 -48.05 11.6Q-46.95 14.45 -44.2 15.8M-5.15,-14.4L-5.45 -17.4M-9.3,-42.05L-8.8 -42.9Q-8.4 -43.3 -6.9 -43.3Q-4.95 -43.35 -4.45 -42.55Q-4.15 -42.05 -4.15 -39.7Q-4.15 -38 -4.3 -37.7Q-4.6 -37.25 -6.05 -37.2Q-8.45 -37.2 -8.9 -38.1Q-9.25 -38.6 -9.2 -40.45Q-9.45 -41.45 -9.3 -42.05L-9.2 -41.9L-9.2 -40.45M-22.85,-17.45L-29.4 -17.6M-29.7,-8.1L-29.85 -6.2L-29.85 -6L-24.85 -5.7L-24.25 -5.65M-29.85,-6L-30.25 -6.05L-30.4 -6.2L-29.85 -6.2M-18.1,-5.6L-18.25 -5.6L-24.25 -5.65M-5.15,-14.4L-4.95 -11.35L-4.95 -10.55M-29.85,-6L-30.4 0.25L-32.35 18.35M-11.65,-5.7Q-11.65 4.15 -12.55 19.3" />
<path style="fill:none;stroke-width:1;stroke-linecap:round;stroke-linejoin:miter;stroke-miterlimit:3;stroke:#2A2929;stroke-opacity:1" d="M22.3,-17.9L23.55 -17.8L29.35 -17.4L32.9 -17.05L39.1 -16.05L41.65 -15.4L43.6 -14.75Q45.35 -13.8 46.6 -12.4Q47.8 -11.05 48.6 -7.35L49 -4.95L49 -4.9L49.45 1.2L49.45 1.9Q49.55 7.5 47.85 11.35Q46.1 15.15 44.5 15.95L38.3 17.4L30.25 18.2L14.6 19L14.3 19.1L14.3 19L14.1 19L-1.55 19.7L-12.55 19.3L-15.1 19.1L-28.7 18.45L-32.35 18.35L-36.2 18Q-39.7 17.5 -43.3 16.15L-44.2 15.8Q-45.7 15.2 -49 14.95L-54.55 14.75Q-59.65 14.7 -60.85 13.25Q-61.55 12.3 -61.55 8L-61.15 0.25L-60.55 -6.95L-59.95 -13.85L-59.6 -15.85Q-59.25 -17.55 -58.7 -18.25Q-58.25 -18.85 -57.7 -18.85L-53.55 -18.85L-51.75 -18.55Q-50.35 -18.2 -50.3 -17.35Q-50.2 -15.3 -49.35 -13.7Q-48.3 -11.75 -46.15 -11.15L-45.7 -12.1L-44.75 -13.5Q-43.25 -15.3 -40.75 -16.25Q-41.25 -18.6 -40.95 -20.05Q-40.65 -21.5 -39.55 -22.1Q-38.3 -22.85 -34 -22.95L-33.5 -22.95L-25.65 -22.45Q-23.05 -22.35 -22.7 -20Q-22.55 -18.95 -22.85 -17.45L-21.75 -17.45L-15.75 -17.3" />
</g>
</svg>
